<?xml version="1.0" encoding="utf-8"?>
<!-- Generator: Adobe Illustrator 26.1.0, SVG Export Plug-In . SVG Version: 6.00 Build 0)  -->
<svg version="1.1" id="Layer_1" xmlns="http://www.w3.org/2000/svg" xmlns:xlink="http://www.w3.org/1999/xlink" x="0px" y="0px"
	 viewBox="0 0 386 220" style="enable-background:new 0 0 386 220;" xml:space="preserve">
<style type="text/css">
	.st0{fill:#215974;}
	.st1{fill:#178C95;}
	.st2{fill:#286E85;}
	.st3{fill:#175A77;}
	.st4{fill:#232862;}
	.st5{fill:#37A28D;}
	.st6{fill:#165C75;}
	.st7{fill:#212A62;}
	.st8{fill:#145C77;}
	.st9{fill:#188B95;}
	.st10{fill:#3C63A2;}
	.st11{fill:#345FA4;}
	.st12{fill:#35509A;}
	.st13{fill:#3760A0;}
	.st14{fill:#CCE4F6;}
</style>
<g>
	<path class="st0" d="M208.81,209.31c-36.17,0.03-72.05-2.92-106.6-14.28c-22.73-7.47-44.57-16.98-60.57-36.22
		c-12.12-14.57-22.77-30.05-25.71-49.04c-2.9-18.73,3.12-35.77,14.89-50.36c16.88-20.94,40.2-32,65.06-40.09
		c19.56-6.37,39.71-9.92,60.27-11.42c50.01-3.65,98.62,2.02,145.25,21.2c23.95,9.85,45.61,23.13,61.76,43.94
		c14.1,18.17,17.17,38,9.59,59.95c-3.87,11.19-8.88,21.6-15,31.63c-3.88,6.36-9.67,10.77-15.82,14.15
		c-12.83,7.06-25.28,15-39.61,19.09c-16.13,4.6-32.49,7.65-49.17,9.42C238.39,208.85,223.63,209.44,208.81,209.31z M29.56,70.1
		c0.8,0.43,0.98,1.17,1,1.99c0.59,2.43-2.52,3.61-2.03,6c-0.98,0-1.95,0.01-2.93,0.01c-1.63-1.59-2.48-1.06-3.05,0.98
		c-1.2,4.31-2.97,8.53-3.64,12.91c-0.47,3.06-1.4,6.07-1.21,9.32c0.69,11.89,5.7,22.32,10.88,32.61
		c7.3,14.51,18.39,25.96,30.88,36.09c6.17,5,13.21,8.39,20.35,11.96c13.04,6.54,26.56,10.84,40.56,14.31
		c14.01,3.48,28.24,5.34,42.55,6.98c15.18,1.74,30.42,2.79,45.62,2.55c9.27-0.14,18.6-0.19,27.86-0.87
		c4.62-0.34,9.28-0.48,13.86-1.05c13.45-1.66,26.84-3.7,40.05-6.79c9.69-2.26,19.36-4.97,27.98-9.77
		c7.58-4.22,15.05-8.8,22.36-13.53c9.85-6.38,17.06-15.57,22.39-25.64c4.17-7.88,6.36-16.97,8.47-25.75
		c2.84-11.81,0.95-23.39-4.03-34.43c-0.6-1.32-1.08-2.91-3.01-2.91c-0.75-0.43-0.9-1.14-0.92-1.91c0.01-0.87-0.18-1.64-1.02-2.09
		c-0.43-2.53-1.63-4.68-3.19-6.67c-11.2-14.23-25.62-24.59-41.35-32.97c-22.73-12.11-46.96-19.96-72.35-24.71
		c-17.65-3.3-35.27-5.35-53.22-5.8c-28.35-0.71-56.36,1.31-83.85,8.38C87.06,24.84,66.56,32.9,48.72,46.49
		c-7.88,6-15.35,12.6-20.1,21.6C27.02,69.66,28.25,69.9,29.56,70.1z"/>
	<path class="st1" d="M28.61,68.09c4.76-9.01,12.22-15.6,20.1-21.6c17.85-13.59,38.35-21.65,59.86-27.18
		c27.49-7.07,55.51-9.09,83.85-8.38c17.95,0.45,35.57,2.5,53.22,5.8c25.39,4.74,49.63,12.59,72.35,24.71
		c15.73,8.38,30.15,18.74,41.35,32.97c1.56,1.98,2.76,4.14,3.19,6.67c-1.28,0.03-1.93,0.71-2.01,1.97
		c-2.28,2.22-0.38,4.55,0.21,6.51c5.42,17.98-1.65,32.41-13.44,44.87c-11.1,11.74-25.23,19.45-40.06,25.52
		c-25.09,10.26-51.54,15.44-78.39,16.86c-29.67,1.56-59.42,0.79-88.72-5.66c-30.39-6.69-59.7-15.85-84.82-35.17
		c-19-14.62-31.82-32.12-26.78-57.88c-0.49-2.39,2.62-3.57,2.03-6c1.58-1.61,1.2-2.6-0.97-3C29.26,68.76,28.94,68.42,28.61,68.09z
		 M296.49,76.25l-0.06-0.03c-2.06-2.06-4.62-0.76-6.94-1.06c-6.72-3.18-13.92-1.73-20.92-2.12c-0.23-1.1-0.1-2.57-0.76-3.25
		c-4.2-4.3-3.31-9.58-3.15-14.74c9.54,2.07,18.8,5.04,27.9,8.54c15.92,6.14,31.05,13.94,46.02,22.06c3.55,1.92,7.06,2.21,9.29-1.18
		c2.09-3.18,0.22-6.35-2.31-8.86c-0.59-0.59-1.16-1.2-1.81-1.72c-11.91-9.45-24.57-17.72-38.32-24.25
		c-7.3-3.47-14.35-7.75-21.99-10.17c-8.33-2.64-16.6-5.56-25.05-7.78c-2.45-0.64-5.11-3.02-7.88-0.52c-0.62-0.2-1.36-0.26-1.85-0.64
		c-6.86-5.39-14.23-7.47-22.62-3.79c-0.64,0.28-1.74,0.18-2.33-0.2c-5.9-3.89-12.53-3.44-19.1-3.41c-2.01-0.01-4.03-0.02-6.04-0.03
		c-16.99-1.13-33.81,1.32-50.32,4.36c-18.61,3.43-36.56,9.56-52.53,20.44c-5.01,3.41-5.72,7.89-5.08,13.01
		c0.57,4.57,3.88,6.63,8.15,7.36c-0.09,0.27-0.18,0.53-0.25,0.81c-6.77-0.46-13.38,0.77-20.02,1.79
		c-4.05-4.88-10.48-7.69-14.41-5.26c-5.77,3.58-11.87,7.03-15.48,13.24c-2.99,1.44-6.1,2.68-8.96,4.35
		c-5.98,3.47-9.17,11.62-6.69,17.2c3.63,8.17,13.13,10,18.28,16.57c6.89-0.74,12.72,3.37,19.27,4.19c0,1.52-1.12,1.79-2.27,2.16
		c-2.36,0.76-4.72,1.56-7.01,2.51c-3.24,1.34-3.55,3.31-0.81,5.52c2.58,2.07,5.27,3.99,7.92,5.97c1.16,0.86,2.55,1.32,3.59,0.17
		c1.21-1.34,0.03-2.5-0.98-3.33c-1.27-1.05-2.68-1.95-4.06-2.85c-0.83-0.54-1.97-0.9-1.91-2.04c0.07-1.46,1.53-1.65,2.54-1.98
		c3.45-1.13,6.89-2.25,10.05-4.09c2.44,0.76,2.37,3.44,3.8,4.97c0.79,0.84,1.56,1.96,2.85,1.66c1.71-0.4,1.13-1.64,0.74-2.77
		c-0.58-1.68,0.46-2.05,1.8-2.03c1.82,0.03,3.69-0.07,5.46,0.27c11.42,2.23,23.02,2.12,34.55,2.79c10.61,0.62,21.15-1.03,31.75-1.03
		c1.3,0.05,2.59,0.1,3.89,0.15c4.82,6.46,11.24,9.46,19.29,8.92c1.7-0.11,4.3,0.52,4.28-2.03c-0.02-2.57-2.66-1.96-4.33-1.94
		c-4.71,0.05-8.88-1.06-12.41-4.72c2.88-0.92,4.8,0.7,6.97,1.37c6.68,2.07,8.05,1.13,8.43-5.54c0.29-0.04,0.58-0.05,0.87-0.05
		c1.03,1,2.05,2.01,3.08,3.01c-4.86,2.12-0.01,5.36-0.82,8.12c-0.65,2.22,2.04,3.35,3.98,3.57c2.8,0.31,5.5,0.09,3.94,4.3
		c-0.34,0.93,0.32,2.01,1.33,2.43c0.53,0.22,1.75,0.15,1.79-0.02c0.62-2.37,1.3-4.75,1.52-7.17c0.16-1.82-1.78-2.91-3-2.77
		c-5.92,0.68-6.26-4.08-7.91-7.61c8.28,4.46,17.18,7.28,26.11,10.06c1.68,4.17,5.15,6.31,9.04,7.98c-0.77,3.04-3.47,2.77-5.59,2.91
		c-2.82,0.19-5.63,0.21-8.35,1.05c-1.25,0.38-3.61-0.82-3.46,1.5c0.11,1.75,2.37,1.92,3.72,1.5c9.09-2.78,13.01,2.3,15.66,9.81
		c0.76,2.15,2.31,4.02,3.41,6.06c0.97,1.8,1.98,4.11,4.37,2.87c2.57-1.33,0.86-3.56-0.1-5.12c-2.84-4.62-5.73-9.2-8.12-14.43
		c6.26-1.31,12.28-2.25,18.43-2.16c3.16,0.05,6.32,0.1,9.06-1.89c5.55-0.99,10.93-2.56,12.46-8.81c1.01-4.11-3.81-8.72-10.87-11.22
		c-0.46-0.16-0.97-0.17-1.47-0.25c4.01-6.28,2.17-14.72,7.64-20.52c1.27-1.34,1.35-3.35,1.23-5.22c4.76,0.5,9.52,1.16,14.29,1.46
		c12.08,0.78,24.19,1.62,35.55-4.07c3.3-1.66,5.75-3.9,6.1-7.84c0.35-4.05-2.46-5.99-5.35-7.65c-4.91-2.82-10.27-4.59-15.73-6.06
		C297.14,76.75,296.82,76.5,296.49,76.25z M204.65,152.54c-0.36-1.7,0.7-3.94-1.8-4.24c-2.61-0.31-1.95,1.93-2.35,3.45
		c-0.92,3.42-1,6.89-0.96,10.38c0.01,0.95,0.27,2.26-1,2.47c-0.61,0.1-1.45-0.65-2.06-1.16c-4.33-3.61-8.63-7.26-12.95-10.88
		c-2.06-1.72-4.32-3.18-7.07-3.41c-1.68-0.14-3.95,0.04-3.43,2.36c1.46,6.51-0.46,12.46-2.22,18.53c-0.42,1.46-0.96,3.58,1.57,3.92
		c2.07,0.29,2.89-1.08,3.18-2.99c0.61-4.09,1.3-8.16,2-12.24c0.24-1.4-0.79-3.48,0.86-4.05c1.87-0.65,3.27,1.13,4.6,2.36
		c4.74,4.41,9.5,8.81,14.23,13.24c1.27,1.19,2.56,2.21,4.42,1.56c2.04-0.72,1.85-2.51,1.9-4.17
		C203.7,162.56,203.01,157.37,204.65,152.54z M149.51,142.89c-2.93,0.1-5.87-0.22-6.14,4.05c-0.05,0.83-0.94,1.77-1.67,2.36
		c-4.1,3.34-6.03,8.26-9.15,12.31c-0.85,1.1-1.65,2.86,0.19,3.2c5.23,0.96,9.89,3.89,15.24,4.25c1.24,0.08,3,0.49,3.3-1.31
		c0.33-1.93-1.23-2.36-2.82-2.69c-2.75-0.58-5.46-1.33-8.19-2c-1.36-0.33-2.62-0.69-2.25-2.56c0.76-3.75,4.56-6.1,8.21-5.08
		c1.11,0.31,2.25,0.65,3.38,0.69c2.31,0.08,5.86,3.1,6.58-0.84c0.65-3.54-3.79-1.87-5.79-2.84c-1.49-0.73-2.92-0.21-2.75-2.88
		c0.2-3.21,2.22-2.52,3.8-2.33c3.1,0.37,6.15,1.21,9.24,1.71c1.4,0.23,3.21,0.74,3.71-1.34c0.51-2.12-1.13-2.38-2.69-2.63
		C157.64,144.29,153.58,143.58,149.51,142.89z M128.97,141.93c0.7-5.05-1.63-7.59-7.17-7.78c-8.98-0.32-14.71,5.05-19.58,11.71
		c-2.66,3.63-1.29,6.58,1.74,9.08c3.32,2.74,11.04,3,14.69,0.63c0.83-0.54,1.95-0.94,1.65-2.17c-0.39-1.56-1.78-1.47-2.84-1.06
		c-2.26,0.87-4.58,0.9-6.89,0.69c-2.18-0.2-4.61-0.9-5.56-2.83c-1.12-2.28,1.57-3.32,2.79-4.75c1.18-1.39,2.51-2.68,3.88-3.89
		C117.01,136.82,123.25,136.84,128.97,141.93z"/>
	<path class="st2" d="M364.48,85.08c1.93,0,2.42,1.59,3.01,2.91c4.98,11.05,6.87,22.63,4.03,34.43c-2.11,8.78-4.3,17.87-8.47,25.75
		c-5.33,10.07-12.53,19.26-22.39,25.64c-7.31,4.73-14.78,9.31-22.36,13.53c-8.62,4.8-18.29,7.51-27.98,9.77
		c-13.22,3.09-26.61,5.13-40.05,6.79c-4.59,0.57-9.25,0.71-13.86,1.05c-9.26,0.68-18.6,0.72-27.86,0.87
		c-15.2,0.24-30.44-0.81-45.62-2.55c-14.31-1.64-28.54-3.5-42.55-6.98c-14-3.47-27.52-7.77-40.56-14.31
		c-7.13-3.58-14.18-6.97-20.35-11.96c-12.5-10.12-23.59-21.58-30.88-36.09c-5.18-10.29-10.19-20.72-10.88-32.61
		c-0.19-3.25,0.74-6.26,1.21-9.32c0.68-4.39,2.44-8.6,3.64-12.91c0.57-2.04,1.42-2.57,3.05-0.98c-0.04,0.83,0.03,1.68-0.12,2.49
		c-2.71,14.08-0.11,26.81,8.43,38.62c8.34,11.52,19.02,19.99,30.87,27.57c16.23,10.38,33.9,17.12,52.25,22.32
		c21.39,6.06,43.16,9.68,65.42,11.23c21.64,1.51,43.13,0.72,64.59-1.45c15.65-1.58,31.04-4.99,46.04-9.85
		c21.52-6.98,41.74-16.4,57.82-32.85c10.48-10.72,16.97-23.34,15.62-38.89C366.15,93.2,365.17,89.15,364.48,85.08z"/>
	<path class="st3" d="M364.48,85.08c0.69,4.07,1.68,8.12,2.03,12.22c1.35,15.55-5.14,28.17-15.62,38.89
		c-16.08,16.45-36.29,25.87-57.82,32.85c-15.01,4.87-30.39,8.28-46.04,9.85c-21.46,2.16-42.95,2.95-64.59,1.45
		c-22.26-1.55-44.03-5.17-65.42-11.23c-18.35-5.2-36.02-11.94-52.25-22.32c-11.84-7.57-22.52-16.05-30.87-27.57
		c-8.55-11.8-11.14-24.53-8.43-38.62c0.16-0.81,0.09-1.66,0.12-2.49c0.98,0,1.95-0.01,2.93-0.01c-5.04,25.76,7.78,43.26,26.78,57.88
		c25.12,19.32,54.43,28.48,84.82,35.17c29.3,6.45,59.05,7.22,88.72,5.66c26.85-1.41,53.3-6.6,78.39-16.86
		c14.83-6.06,28.96-13.78,40.06-25.52c11.79-12.47,18.86-26.9,13.44-44.87c-0.59-1.97-2.49-4.29-0.21-6.51
		c1.01,0.04,2.02,0.08,3.03,0.11C363.58,83.94,363.73,84.65,364.48,85.08z"/>
	<path class="st2" d="M363.56,83.17c-1.01-0.04-2.02-0.07-3.03-0.11c0.07-1.26,0.72-1.94,2.01-1.98
		C363.38,81.53,363.56,82.3,363.56,83.17z"/>
	<path class="st2" d="M28.61,68.09c0.33,0.33,0.65,0.67,0.98,1c-0.01,0.34-0.02,0.67-0.03,1.01C28.25,69.9,27.02,69.66,28.61,68.09z
		"/>
	<path class="st3" d="M29.56,70.1c0.01-0.34,0.02-0.67,0.03-1.01c2.16,0.41,2.55,1.39,0.97,3C30.54,71.27,30.36,70.53,29.56,70.1z"
		/>
	<path class="st4" d="M78.52,70.87c6.64-1.02,13.25-2.25,20.02-1.79c4.06,0.05,8.13,0.09,12.19,0.14c-0.58,0.28-1.14,0.71-1.75,0.82
		c-7.29,1.32-14.55,2.6-21.97,3.26c-10.45,0.94-19.8,6.07-29.75,9c-6.33,1.86-12.71,3.85-16.72,9.77c-1.31,1.49-2.74,2.95-1.27,5.13
		c0.09,0.3,0.16,0.6,0.23,0.91c0.04,0.83,0.25,1.58,1.04,2.02c0.32,0.33,0.64,0.67,0.97,1c1.31,1.8,2.56,3.66,5.03,4
		c2.66,2.02,5.5,3.64,8.89,4.07c2.31,1.16,4.59,2.38,7.19,2.76c0.65,0.03,1.31,0.06,1.96,0.1c3.09,1.85,6.65,2.07,10.02,2.95
		c10.27,1.48,20.38,4.17,30.85,4.17c0.42,0.25,0.82,0.69,1.26,0.73c17.18,1.77,34.4,1.6,51.54-0.14c4.8-0.49,10,0.16,14.48-2.54
		c1.27-0.07,2.53-0.13,3.8-0.2c2.77-0.32,5.54-0.63,8.08-1.9c1.37-0.12,2.88,0.31,3.95-1c1.13-0.01,2.29,0.09,3.08-0.97
		c0.3,0.02,0.6,0,0.9-0.06c1.78-0.38,3.59-0.68,5.01-1.95c2.65,0.06,4.85-1.26,6.84-2.66c3.56-2.49,8.95-4.39,8.57-9.36
		c-0.38-4.99-5.13-7.75-9.46-10.03c-0.32-0.28-0.64-0.56-0.96-0.84c-0.67-0.06-1.34-0.12-2.01-0.18
		c-4.63-5.73-11.11-7.32-17.98-8.03c-5.65-2.58-11.8-2.7-17.8-3.33c-7.58-0.79-14.5-4.47-22.17-4.67c-3.19-1.83-6.68-0.66-10.03-1
		l0.02-0.24c2.06-3.48,5.45-0.94,8.09-1.8c5.66-0.38,11.24,0.51,16.83,1.1c2.21,1.8,4.76,0.67,7.16,0.83
		c0.62,0.02,1.23,0.05,1.85,0.07c2.38,0.64,4.75,1.28,7.13,1.93c6.63,1.7,13.26,3.41,19.89,5.11c3.28,2.76,7.24,1.8,10.99,2.05
		c0.36,0.3,0.71,0.6,1.07,0.89l0.01,0.03c0.33,0.31,0.66,0.62,0.99,0.93l0.05,0.04c0.34,0.28,0.68,0.56,1.02,0.84
		c7.8,2.81,12.72,8.26,14.84,16.26c-0.03,0.94-0.05,1.87-0.08,2.81c-2.39,1.85-2.92,4.98-4.91,7.11c-0.99,1.04-1.98,2.08-2.98,3.12
		c-7.49,3.37-14.18,8.8-22.9,9.06c-2.06,0.61-3.85,2.07-6.14,1.97c-0.29,0-0.58,0.01-0.87,0.05c-6.71,1-13.42,2-20.14,3
		c-2.01,0.11-4.16-0.79-5.98,0.79c-10.59,0-21.14,1.65-31.75,1.03c-11.54-0.67-23.14-0.55-34.55-2.79
		c-1.77-0.35-3.63-0.24-5.46-0.27c-1.33-0.02-2.37,0.35-1.8,2.03c0.39,1.13,0.96,2.37-0.74,2.77c-1.3,0.3-2.07-0.81-2.85-1.66
		c-1.43-1.53-1.36-4.21-3.8-4.97c-2.62,0.27-4.52-2-7.06-2.02c-6.55-0.81-12.38-4.93-19.27-4.19c-5.16-6.57-14.65-8.4-18.28-16.57
		c-2.48-5.57,0.71-13.73,6.69-17.2c2.86-1.66,5.97-2.91,8.96-4.34C58.23,74.85,68.3,72.6,78.52,70.87z"/>
	<path class="st5" d="M98.79,68.28c-4.28-0.73-7.58-2.79-8.15-7.36c-0.64-5.12,0.07-9.6,5.08-13.01
		c15.98-10.88,33.92-17.01,52.53-20.44c16.52-3.04,33.33-5.49,50.32-4.36c-0.01,0.65-0.01,1.3-0.02,1.95
		c-5.83,2.29-11.84,4.24-16.71,8.39c-1.5,1.28-2.22,1.66-3.88-0.14c-3.79-4.11-8.66-5.38-13.97-3.17
		c-9.99,4.16-15.47,12.43-19.56,21.91c-12.87,2.81-24.91,7.61-35.84,15.05c-2.59,0.57-5.46-0.95-7.85,1.07
		C100.1,68.2,99.44,68.24,98.79,68.28z"/>
	<path class="st5" d="M250.52,31.18c2.77-2.5,5.43-0.13,7.88,0.52c8.45,2.22,16.72,5.14,25.05,7.78c7.64,2.42,14.68,6.7,21.99,10.17
		c13.76,6.53,26.41,14.81,38.32,24.25c0.65,0.51,1.22,1.13,1.81,1.72c2.52,2.52,4.4,5.68,2.31,8.86c-2.23,3.39-5.74,3.1-9.29,1.18
		c-14.97-8.11-30.1-15.92-46.02-22.06c-9.1-3.51-18.36-6.47-27.9-8.54C264.44,44.44,257.99,37.5,250.52,31.18z"/>
	<path class="st6" d="M250.52,31.18c7.47,6.33,13.92,13.26,14.14,23.88c-0.16,5.16-1.05,10.44,3.15,14.74
		c0.67,0.68,0.53,2.15,0.76,3.25c-1.03,1.33-2.41,1.94-4.07,1.97c0.26-4.17-1.02-6.31-5.77-5.05c-1.81,0.48-3.95,0.04-5.86-0.36
		c-1.17-0.25-2.82-0.73-2.8-2.36c0.02-1.58,1.73-1.27,2.69-1.66c6.72-2.75,8.48-5.91,6.78-12.53
		c-1.58-10.78-13.23-21.13-24.59-23.16c-4.65-0.83-9.14,1.41-13.64-0.56c-10.02-4.38-19.46-2.12-28.46,3.04
		c-4.52,2.59-7.63,6.91-11.59,10.2c-1.09,0.91-2.42,1.99-4.08,1.25c-1.8-0.8-0.65-2.27-0.68-3.49c-0.13-4.77-2.32-6.9-7.04-7.26
		c-3.54-0.27-6.62,0.79-9.25,3c-4.23,3.56-7.82,7.68-9.77,12.99c-1.84,1.54-2.16,3.84-2.26,5.9c-0.28,5.76,1.66,11.11,9.22,8.34
		c2.21-0.81,4.68-2.37,6.9,0.17c2.09,2.39,1.34,4.94,0.37,7.49c-2.4-0.17-4.95,0.97-7.16-0.83c1.96-0.31,5.32,0.51,4.61-2.7
		c-0.52-2.33-3.05-0.18-4.55,0.2c-7.06,1.76-10.64-0.21-13.06-6.88c-1.1-3.02-0.79-5.8-0.1-8.71c4.09-9.47,9.57-17.75,19.56-21.91
		c5.31-2.21,10.18-0.94,13.97,3.17c1.66,1.79,2.37,1.42,3.88,0.14c4.87-4.15,10.89-6.1,16.71-8.39c2.02-0.65,4.28-0.52,6.06-1.91
		c6.57-0.03,13.21-0.48,19.1,3.41c0.58,0.38,1.69,0.48,2.33,0.2c8.39-3.67,15.76-1.6,22.62,3.79
		C249.16,30.92,249.9,30.97,250.52,31.18z"/>
	<path class="st7" d="M264.5,75.02c1.66-0.04,3.04-0.64,4.07-1.97c7.01,0.38,14.2-1.07,20.92,2.12c2.11,1.73,4.64,0.61,6.94,1.06
		c0,0,0.06,0.03,0.06,0.03c0.32,0.25,0.65,0.5,0.97,0.74c5.45,1.48,10.81,3.25,15.73,6.06c2.89,1.66,5.7,3.6,5.35,7.65
		c-0.34,3.94-2.8,6.19-6.1,7.84c-11.36,5.7-23.47,4.85-35.55,4.07c-4.78-0.31-9.53-0.96-14.29-1.46c-1.01-0.36-2.02-0.72-3.03-1.08
		c-2-1.04-4-2.08-5.99-3.12c-2.89-1.93-3.42-4.79-3.12-7.97c0.21-1.87,1.43-3.25,2.36-4.77c2.29-0.89,2.09-3.64,3.75-5
		C259.01,77.44,261.49,75.74,264.5,75.02z M269.53,79.08l0-0.02c-2.52-0.47-4.44,1.05-6.43,2.09c-3.83,2.01-7,5.54-7.05,9.43
		c-0.04,3.33,4.84,3,7.64,4.08c0.6,0.23,1.28,0.25,1.93,0.37c5.17,1.6,10.57,0.58,15.78,1.34c8.88,1.29,17.43,0.64,25.72-2.91
		c1.53-0.66,3.75-0.97,3.75-2.73c0-1.82-1.9-3-3.71-3.53c-4.48-1.32-8.42-3.76-12.22-6.3c-7.74-5.18-15.74-6.41-24.38-2.73
		C270.21,78.46,269.87,78.77,269.53,79.08z"/>
	<path class="st7" d="M253.75,126.91c0.49,0.08,1,0.09,1.46,0.25c7.05,2.5,11.87,7.11,10.87,11.22c-1.53,6.25-6.92,7.82-12.46,8.81
		c-9.8,1.04-19.61,2.08-29.03-2.11c-3.89-1.67-7.37-3.8-9.04-7.98c0.01-1.66,0.02-3.32,0.03-4.98c4.01-5.29,10.19-5.73,15.94-7.13
		c2.35-0.24,4.88,0.86,7.04-0.91c3.02,0.3,6.05,0.59,9.07,0.89c0.98-0.02,1.95-0.04,2.93-0.06
		C251.23,126.22,252.45,126.63,253.75,126.91z M224.67,131.24c-5.81,2.76-6.03,3.48-2.08,6.75c3.32,0.98,6.6,2.19,9.98,2.88
		c7.17,1.48,14.42,2.14,21.63,0.15c1.57-0.43,3.58-0.85,3.94-2.62c0.4-1.95-1.54-2.69-2.98-3.48c-1.32-0.72-2.23-1.58-2.99-3.06
		c-1.68-3.29-6.65-4.66-9.71-3.12c-2.3,0.13-4.61,0.26-6.91,0.39C231.66,128.45,228.37,130.92,224.67,131.24z"/>
	<path class="st8" d="M204.65,152.54c-1.63,4.83-0.95,10.02-1.08,15.15c-0.04,1.67,0.14,3.46-1.9,4.17
		c-1.86,0.65-3.15-0.37-4.42-1.56c-4.72-4.43-9.48-8.83-14.23-13.24c-1.33-1.24-2.73-3.01-4.6-2.36c-1.65,0.57-0.62,2.66-0.86,4.05
		c-0.7,4.07-1.39,8.15-2,12.24c-0.28,1.92-1.1,3.28-3.18,2.99c-2.54-0.35-2-2.46-1.57-3.92c1.76-6.07,3.68-12.02,2.22-18.53
		c-0.52-2.32,1.75-2.51,3.43-2.36c2.75,0.23,5.01,1.68,7.07,3.41c4.33,3.61,8.62,7.27,12.95,10.88c0.61,0.51,1.45,1.26,2.06,1.16
		c1.27-0.22,1.01-1.52,1-2.47c-0.04-3.5,0.04-6.96,0.96-10.38c0.41-1.52-0.25-3.76,2.35-3.45
		C205.35,148.6,204.29,150.84,204.65,152.54z"/>
	<path class="st8" d="M149.51,142.89c4.06,0.69,8.12,1.4,12.19,2.06c1.56,0.25,3.2,0.51,2.69,2.63c-0.5,2.08-2.31,1.56-3.71,1.34
		c-3.09-0.5-6.14-1.34-9.24-1.71c-1.57-0.19-3.59-0.87-3.8,2.33c-0.17,2.67,1.27,2.16,2.75,2.88c2,0.98,6.44-0.69,5.79,2.84
		c-0.72,3.94-4.27,0.92-6.58,0.84c-1.13-0.04-2.27-0.38-3.38-0.69c-3.65-1.01-7.45,1.34-8.21,5.08c-0.38,1.87,0.89,2.23,2.25,2.56
		c2.73,0.67,5.44,1.42,8.19,2c1.59,0.33,3.15,0.76,2.82,2.69c-0.31,1.8-2.06,1.39-3.3,1.31c-5.35-0.37-10.01-3.29-15.24-4.25
		c-1.84-0.34-1.04-2.1-0.19-3.2c3.11-4.05,5.05-8.97,9.15-12.31c0.74-0.6,1.62-1.54,1.67-2.36
		C143.64,142.68,146.59,143,149.51,142.89z"/>
	<path class="st8" d="M224.58,145.09c9.42,4.18,19.23,3.15,29.03,2.11c-2.73,1.99-5.9,1.94-9.06,1.89
		c-6.15-0.09-12.16,0.84-18.43,2.16c2.39,5.23,5.28,9.81,8.12,14.43c0.96,1.56,2.67,3.79,0.1,5.12c-2.39,1.24-3.4-1.07-4.37-2.87
		c-1.1-2.04-2.65-3.91-3.41-6.06c-2.65-7.51-6.57-12.59-15.66-9.81c-1.36,0.41-3.61,0.24-3.72-1.5c-0.15-2.32,2.22-1.11,3.46-1.5
		c2.72-0.84,5.53-0.86,8.35-1.05C221.11,147.86,223.82,148.13,224.58,145.09z"/>
	<path class="st8" d="M128.97,141.93c-5.71-5.09-11.95-5.11-17.31-0.38c-1.37,1.21-2.69,2.5-3.88,3.89
		c-1.22,1.43-3.91,2.46-2.79,4.75c0.95,1.93,3.37,2.63,5.56,2.83c2.31,0.21,4.63,0.18,6.89-0.69c1.06-0.41,2.45-0.5,2.84,1.06
		c0.31,1.23-0.82,1.64-1.65,2.17c-3.65,2.37-11.36,2.11-14.69-0.63c-3.03-2.5-4.39-5.45-1.74-9.08c4.87-6.66,10.6-12.03,19.58-11.71
		C127.33,134.35,129.66,136.88,128.97,141.93z"/>
	<path class="st3" d="M247.62,124.99c-3.02-0.3-6.05-0.59-9.07-0.89c-1.05-0.03-2.1-0.06-3.15-0.08c5.05-0.85,10.04-1.71,11.1-8.12
		c0.44-2.68,0.22-6.49,5.07-4.19c0.45,0.21,1.65-0.86,2.34-1.5c2.94-2.77,4.97-6.07,5.67-10.11c1.01,0.36,2.02,0.72,3.03,1.08
		c0.12,1.87,0.04,3.88-1.23,5.22c-5.46,5.8-3.63,14.24-7.64,20.52c-1.3-0.29-2.52-0.69-3.19-1.98c0.91-2.12,1.83-4.24,2.71-6.38
		c0.34-0.83,0.31-1.71-0.6-2.13c-0.85-0.39-1.78-0.09-2.05,0.81C249.83,119.91,247.44,121.96,247.62,124.99z"/>
	<path class="st3" d="M164.52,126.25c6.71-1,13.42-2,20.14-3c-0.38,6.67-1.75,7.61-8.43,5.54c-2.17-0.67-4.1-2.29-6.97-1.37
		c3.53,3.66,7.7,4.77,12.41,4.72c1.68-0.02,4.31-0.62,4.33,1.94c0.02,2.54-2.57,1.91-4.28,2.03c-8.05,0.54-14.47-2.46-19.28-8.92
		C163.13,126.87,163.83,126.56,164.52,126.25z"/>
	<path class="st5" d="M78.52,70.87c-10.22,1.72-20.29,3.97-29.89,7.99c3.61-6.22,9.71-9.67,15.48-13.24
		C68.04,63.18,74.47,65.99,78.52,70.87z"/>
	<path class="st3" d="M215.57,132.13c-0.01,1.66-0.02,3.32-0.03,4.98c-8.93-2.77-17.83-5.6-26.11-10.06
		c-0.27-0.28-0.55-0.57-0.83-0.85c-1.03-1-2.05-2.01-3.08-3.01c2.29,0.11,4.08-1.36,6.14-1.97c0.01,0.89,0.44,1.46,1.19,1.99
		C199.68,128.11,207.29,130.97,215.57,132.13z"/>
	<path class="st8" d="M70.53,121.16c2.54,0.02,4.44,2.29,7.06,2.02c-3.16,1.84-6.6,2.97-10.05,4.09c-1.02,0.33-2.48,0.53-2.54,1.98
		c-0.05,1.14,1.09,1.51,1.91,2.04c1.39,0.9,2.8,1.79,4.06,2.85c1.01,0.84,2.19,1.99,0.98,3.33c-1.04,1.15-2.44,0.7-3.59-0.17
		c-2.65-1.97-5.34-3.9-7.92-5.97c-2.75-2.2-2.43-4.18,0.81-5.52c2.29-0.95,4.65-1.74,7.01-2.51
		C69.41,122.94,70.53,122.68,70.53,121.16z"/>
	<path class="st8" d="M188.6,126.2c0.28,0.28,0.55,0.57,0.83,0.85c1.65,3.53,1.98,8.29,7.91,7.61c1.22-0.14,3.16,0.95,3,2.77
		c-0.22,2.42-0.9,4.81-1.52,7.17c-0.04,0.17-1.26,0.24-1.79,0.02c-1.01-0.42-1.67-1.5-1.33-2.43c1.56-4.21-1.14-3.99-3.94-4.3
		c-1.94-0.22-4.63-1.35-3.98-3.57C188.59,131.57,183.74,128.33,188.6,126.2z"/>
	<path class="st7" d="M98.79,68.28c0.65-0.04,1.3-0.07,1.95-0.11c13.23,0,26.46,0,39.7,0c0.06,0.3,0.15,0.59,0.26,0.87
		c-2.64,0.85-6.03-1.69-8.09,1.8c-7.23-1.35-14.52-2.03-21.89-1.61c-4.06-0.05-8.13-0.09-12.19-0.14
		C98.61,68.81,98.7,68.54,98.79,68.28z"/>
	<path class="st9" d="M204.62,23.14c-1.78,1.39-4.05,1.26-6.06,1.91c0.01-0.65,0.01-1.3,0.02-1.95
		C200.59,23.11,202.61,23.13,204.62,23.14z"/>
	<path class="st10" d="M296.44,76.22c-2.3-0.44-4.84,0.67-6.94-1.06C291.82,75.46,294.38,74.17,296.44,76.22z"/>
	<path class="st0" d="M164.52,126.25c-0.7,0.31-1.39,0.62-2.09,0.94c-1.3-0.05-2.6-0.1-3.89-0.15
		C160.36,125.45,162.51,126.35,164.52,126.25z"/>
	<path class="st10" d="M297.47,77c-0.32-0.25-0.65-0.5-0.97-0.74C296.82,76.5,297.14,76.75,297.47,77z"/>
	<path class="st11" d="M105.45,119.19c-10.47,0-20.58-2.69-30.85-4.17c0.16-1.86,1.54-1.76,2.9-1.95c2.13-0.29,4.28-0.62,6.3-1.29
		c1.35-0.45,2.92-1.43,2.18-3.3c-0.58-1.48-2.1-1.52-3.46-1.17c-5.99,1.56-11.97,3.17-17.96,4.76c-0.65-0.03-1.31-0.06-1.96-0.1
		c0.28-0.57,0.47-1.56,0.87-1.65c4.1-0.98,6.44-4.68,10.13-6.4c2.58-1.2,5.17-3.19,4.95-6.81c2.14-1.07,4-2.03,6.8-1.22
		c3.01,0.87,5.6-0.57,5.22-4.53c0.6-0.11,1.2-0.22,1.79-0.33c2.72-0.65,6.14,1.93,8.2-1.78c0.57-0.08,1.13-0.17,1.7-0.25
		c5.29-0.01,10.98,1.17,15.76-0.41c3.88-1.28,6.03-1.07,8.54,1.51c-3.45,1.52-6.76,3.29-9.46,6c-0.65,0.65-1.77,1.43-0.85,2.47
		c0.82,0.93,1.89,0.35,2.63-0.37c2.95-2.87,6.9-3.97,10.36-5.93c3.99-2.26,7.69-2.42,11.29,1.11c2.87,2.81,6.17,3.78,9.71,0.66
		c1.59-1.4,3.21-1.32,4.67,0.61c1.29,1.72,2.99,3.13,4.41,4.76c1.51,1.72,1.9,3-1.07,3.79c-4.03,1.08-4.52,3.85-2.74,7.34
		c0.99,1.94,1.87,3.93,3.32,7.01c-3.73-1.99-4.41-4.71-5.96-6.73c-1.6-2.1-3.68-6.68-4.69-5.88c-3.13,2.5,0.49,5.5,1.47,8.09
		c1.73,4.58,1.16,6.05-3.71,6.07C132.44,119.16,118.95,119.16,105.45,119.19z"/>
	<path class="st1" d="M264.5,75.02c-3,0.72-5.48,2.42-7.92,4.2c-2.41-0.39-4.23-1.76-5.92-3.42c-1.01-0.99-2.27-2.61-3.67-0.87
		c-1.06,1.32-0.05,2.73,0.92,4c1.49,1.92,4.6,2.31,4.92,5.29c-0.93,1.52-2.14,2.9-2.36,4.77c-6.13-5.73-12.96-9.75-21.79-8.96
		c-1.45,0.13-2.86-0.6-2.91-2.13c-0.25-7.62-5.29-12.83-9.56-18.14c-8.82-11-25.97-17.09-34.97-1.12
		c-3.7,6.56-7.16,11.35-14.7,12.39c-0.62-0.02-1.23-0.05-1.85-0.07c0.97-2.55,1.72-5.1-0.37-7.49c-2.22-2.55-4.7-0.98-6.9-0.17
		c-7.56,2.77-9.5-2.58-9.22-8.34c0.1-2.06,0.42-4.35,2.26-5.9c1.65,0,3.3,0.01,4.96,0.01c-1.75,3.66-1.01,7.39,1.99,9.42
		c3.1,2.1,5.83-0.7,8.18-2.91c3.09-2.91,5.71-6.05,6.07-10.52c1.45,0.98,3.08,1.19,4.76,1c8.97-1.03,17.93-1.27,27-1.22
		c19.18,0.11,37.6,4.21,56.12,8.22c1.7,6.62-0.06,9.78-6.78,12.53c-0.96,0.39-2.67,0.08-2.69,1.66c-0.02,1.63,1.63,2.11,2.8,2.36
		c1.91,0.4,4.05,0.84,5.86,0.36C263.48,68.71,264.76,70.85,264.5,75.02z"/>
	<path class="st9" d="M215.57,132.13c-8.28-1.17-15.89-4.02-22.72-8.91c-0.74-0.53-1.18-1.1-1.19-1.99
		c8.73-0.26,15.41-5.68,22.9-9.06c2.45,3.65,5.54,4.26,9.88,3.26c6.64-1.54,9.75-7.05,14.11-11.14c1.69-1.58,0.27-2.8-1.39-3.07
		c-4.86-0.8-9.75-1.4-14.64-2.08c-2.12-8-7.04-13.44-14.84-16.25c-0.34-0.28-0.68-0.56-1.02-0.84c0,0-0.05-0.04-0.05-0.04
		c-0.33-0.31-0.66-0.62-0.99-0.93c0,0-0.01-0.03-0.01-0.03c0.22-4.45-1.91-8.36-2.82-12.55c-0.49-2.26-1.57-2.31-3.61-1.77
		c-4.45,1.18-8.35,3.16-11.59,6.44c-2.36-1.01-6.62,2.39-7.07-3.05c0.72-2.03,1.23-4.18,2.2-6.08c5.39-10.48,11.1-13.72,21.05-8.6
		c7.73,3.98,12.94,10.9,15.96,19.08c2.9,7.86,4.57,9.39,12.79,9.61c8.03,0.21,13.55,5.09,15.11,13.02c0.55,2.79,1.02,5.53,0.92,8.38
		c-0.04,1.24-0.47,3.1,1.33,3.27c1.87,0.18,2.22-1.69,2.55-3.13c0.67-2.85-0.95-6,1.13-8.68c2,1.04,4,2.08,5.99,3.12
		c-0.7,4.04-2.73,7.34-5.67,10.11c-0.69,0.65-1.89,1.72-2.34,1.5c-4.85-2.31-4.63,1.51-5.07,4.19c-1.06,6.42-6.05,7.27-11.1,8.13
		c-1.35,0.14-2.84-0.3-3.89,0.99C225.76,126.41,219.58,126.84,215.57,132.13z"/>
	<path class="st10" d="M110.73,69.22c7.37-0.42,14.65,0.26,21.89,1.61c0,0-0.02,0.24-0.02,0.24c2.96,4.2,6.62,1.36,10.03,1
		c7.67,0.19,14.6,3.88,22.17,4.67c6,0.62,12.14,0.75,17.8,3.33c-0.92,3.66,1.1,6.74,1.98,10.04c0.09,1.48-0.12,3.06,0.34,4.4
		c0.83,2.44-1.05,3.64-2.3,3.27c-4.36-1.31-8.74,0.14-13.04-0.67c-1.4-0.76-2.61-1.69-2.83-3.42c2.93,0.51,5.85,1.04,8.78,1.53
		c2.77,0.46,5.48,0.39,6.7-2.69c1.13-2.84-0.13-5.11-2.35-6.98c-5.9-4.95-12.72-5.81-20.07-4.77c-4.43,0.63-6.6,2.72-5.63,7.36
		c-3.31-0.21-5.59,4.39-8.63,2.77c-4.17-2.22-8.17-4.22-13-3.93c2.95-1.71,5.9-3.53,4.78-7.65c-1.04-3.86-4.37-4.86-7.76-5.09
		c-6.63-0.46-13.28-0.32-19.86,0.81c-18.16,3.11-35.56,8.1-50.03,20.29c-1.63-2.07-3.92-1.1-5.93-1.18
		c-4.49-0.2-9.1,0.51-13.21-2.07c4.01-5.92,10.39-7.91,16.72-9.77c9.95-2.93,19.3-8.06,29.75-9c7.41-0.67,14.68-1.94,21.97-3.26
		C109.59,69.93,110.14,69.5,110.73,69.22z"/>
	<path class="st12" d="M166.73,93.68c0.22,1.74,1.43,2.66,2.83,3.42c-0.2,1.78,0.66,3.04,1.77,4.36c3.04,3.61,6.29,7.13,8.69,11.15
		c1.29,2.16,2.58,2.56,4.6,2.53c-2.55,1.27-5.32,1.58-8.08,1.9c-1.12-4.7-4.85-7.77-7.32-11.62c-0.87-1.36-9.7,0.62-10.19,2.12
		c-0.14,0.42-0.02,0.96,0.1,1.41c1.54,5.33,5.31,8.09,11.12,8.16c0.83,0.01,1.66,0.08,2.48,0.12c-4.49,2.7-9.68,2.05-14.48,2.54
		c-17.14,1.75-34.36,1.92-51.54,0.14c-0.44-0.05-0.84-0.48-1.26-0.73c13.5-0.02,26.99-0.03,40.49-0.09
		c4.87-0.02,5.44-1.49,3.71-6.07c-0.98-2.59-4.6-5.59-1.47-8.09c1-0.8,3.09,3.78,4.69,5.88c1.54,2.02,2.23,4.74,5.96,6.73
		c-1.45-3.08-2.33-5.07-3.32-7.01c-1.78-3.48-1.29-6.26,2.74-7.34c2.97-0.79,2.58-2.07,1.07-3.79c-1.42-1.63-3.12-3.04-4.41-4.76
		c-1.46-1.94-3.08-2.01-4.67-0.61c-3.54,3.11-6.84,2.15-9.71-0.66c-3.6-3.53-7.3-3.37-11.29-1.11c-3.46,1.96-7.41,3.06-10.36,5.93
		c-0.74,0.72-1.81,1.29-2.63,0.37c-0.92-1.04,0.2-1.81,0.85-2.47c2.7-2.71,6-4.48,9.46-6c1.87-0.08,2.9-1.02,3-2.92
		c0.99-0.07,1.98-0.14,2.97-0.21c4.83-0.29,8.82,1.71,13,3.93c3.04,1.62,5.32-2.99,8.63-2.77
		C157.27,92.45,162.47,92.01,166.73,93.68z"/>
	<path class="st11" d="M184.62,115.14c-2.02,0.03-3.31-0.37-4.6-2.53c-2.4-4.02-5.65-7.54-8.69-11.15
		c-1.11-1.32-1.98-2.58-1.77-4.36c4.3,0.81,8.68-0.63,13.04,0.67c1.25,0.38,3.14-0.83,2.3-3.27c-0.46-1.35-0.25-2.93-0.34-4.4
		c5.51,0.74,11.24,3.25,16-2.01c0.67,0.06,1.34,0.12,2.01,0.18c0.32,0.28,0.64,0.56,0.96,0.84c4.33,2.28,9.07,5.04,9.46,10.03
		c0.38,4.97-5.01,6.87-8.57,9.36c-2,1.4-4.2,2.72-6.84,2.66c-1.46-4.99-0.79-5.73,5.25-6.08c1.33-0.08,3.38,0.66,3.45-1.65
		c0.06-1.91-1.61-2.46-3.18-2.28c-2.52,0.29-3.45-1.17-4.31-3.12c-0.37-0.83-1.23-1.85-2.33-1.43c-1.26,0.48-0.53,1.58-0.42,2.53
		c0.5,4.48-2.07,6.82-6.45,6.19c-1.95-0.28-3.96-0.2-5.95-0.19c-0.92,0.01-2.26-0.34-2.5,0.94c-0.29,1.55,1.06,1.86,2.23,1.98
		c3.78,0.41,7.03,1.71,9.18,5.06c-0.3,0.06-0.6,0.08-0.9,0.06c-1.14-0.04-2.35-0.28-3.08,0.98
		C187.5,115.45,186,115.02,184.62,115.14z"/>
	<path class="st3" d="M253.59,96.96c-2.07,2.68-0.46,5.83-1.13,8.68c-0.34,1.45-0.68,3.31-2.55,3.13c-1.8-0.17-1.37-2.04-1.33-3.27
		c0.09-2.85-0.38-5.59-0.92-8.38c-1.55-7.93-7.08-12.8-15.11-13.02c-8.23-0.22-9.89-1.75-12.79-9.61
		c-3.02-8.18-8.23-15.1-15.96-19.08c-9.95-5.12-15.66-1.88-21.05,8.6c-0.98,1.9-1.48,4.05-2.2,6.08c-1.47,2.91-4.89,1.16-6.86,2.87
		c-2.38-0.64-4.75-1.28-7.13-1.93c7.54-1.05,11-5.83,14.7-12.39c9-15.98,26.15-9.88,34.97,1.12c4.26,5.31,9.31,10.53,9.56,18.14
		c0.05,1.53,1.45,2.26,2.91,2.13c8.84-0.8,15.66,3.22,21.79,8.96C250.17,92.17,250.69,95.03,253.59,96.96z"/>
	<path class="st9" d="M140.7,69.04c-0.11-0.28-0.2-0.57-0.26-0.87c-1.23-1.66-3.03-1-4.59-1.01c-9.09-0.07-18.17-0.05-27.26-0.06
		c10.93-7.44,22.97-12.24,35.84-15.05c-0.69,2.91-1,5.69,0.1,8.71c2.42,6.67,6.01,8.63,13.06,6.88c1.5-0.37,4.03-2.53,4.55-0.2
		c0.71,3.21-2.65,2.39-4.61,2.7C151.94,69.55,146.36,68.66,140.7,69.04z"/>
	<path class="st3" d="M222.53,99.14c4.88,0.68,9.77,1.28,14.64,2.08c1.67,0.27,3.08,1.49,1.39,3.07c-4.36,4.09-7.46,9.6-14.11,11.14
		c-4.33,1.01-7.42,0.4-9.88-3.26c0.99-1.04,1.98-2.08,2.98-3.12c0.55,0.99,1.94,2.49,2.35,1.46c1.1-2.73,4.62-4.9,2.55-8.57
		C222.48,101.01,222.5,100.07,222.53,99.14z"/>
	<path class="st11" d="M172.74,117.24c-0.83-0.04-1.66-0.11-2.48-0.12c-5.81-0.07-9.58-2.82-11.12-8.16
		c-0.13-0.45-0.24-0.99-0.1-1.41c0.49-1.51,9.31-3.49,10.19-2.12c2.47,3.85,6.2,6.92,7.32,11.62
		C175.27,117.11,174.01,117.17,172.74,117.24z"/>
	<path class="st12" d="M200.57,88.09c-4.75,5.26-10.49,2.75-16,2.01c-0.89-3.3-2.9-6.38-1.98-10.04
		C189.46,80.77,195.94,82.37,200.57,88.09z"/>
	<path class="st12" d="M192.56,113.11c-2.14-3.35-5.4-4.65-9.18-5.06c-1.17-0.13-2.52-0.43-2.23-1.98c0.24-1.28,1.58-0.93,2.5-0.94
		c1.98-0.01,3.99-0.09,5.95,0.19c4.37,0.63,6.94-1.71,6.45-6.19c-0.11-0.95-0.84-2.05,0.42-2.53c1.1-0.42,1.96,0.6,2.33,1.43
		c0.86,1.94,1.79,3.41,4.31,3.12c1.57-0.18,3.23,0.37,3.18,2.28c-0.07,2.3-2.12,1.57-3.45,1.65c-6.04,0.35-6.71,1.09-5.25,6.08
		C196.15,112.43,194.34,112.73,192.56,113.11z"/>
	<path class="st8" d="M187.61,73.15c3.23-3.28,7.14-5.26,11.59-6.44c2.03-0.54,3.12-0.48,3.61,1.77c0.9,4.19,3.04,8.11,2.82,12.55
		c-0.36-0.3-0.71-0.6-1.07-0.9c-2.72-4.31-7.08-2.77-10.93-3.05c0.68-1.63,1.36-3.26,2.03-4.88c0.43-0.17,0.85-0.34,1.28-0.51
		c-0.1-0.12-0.26-0.36-0.28-0.35c-0.39,0.21-0.77,0.45-1.15,0.68c-1.59,0.06-2.43,1.35-3.61,2.11
		C190.25,75.21,188.38,76.29,187.61,73.15z"/>
	<path class="st12" d="M78.56,97.11c0.23,3.62-2.37,5.61-4.95,6.81c-3.69,1.72-6.03,5.42-10.13,6.4c-0.4,0.1-0.58,1.08-0.87,1.65
		c-2.61-0.38-4.89-1.61-7.19-2.76c5.09-0.19,8.09-4.54,13.38-6.13c-2.21-0.55-3.51-0.87-4.81-1.2c2.52-2.73,5.88-3.86,9.28-4.91
		C75.04,97.01,76.8,97.06,78.56,97.11z"/>
	<path class="st12" d="M64.57,112.06c5.98-1.59,11.96-3.21,17.96-4.76c1.36-0.35,2.88-0.31,3.46,1.17c0.74,1.87-0.83,2.85-2.18,3.3
		c-2.02,0.68-4.18,1.01-6.3,1.29c-1.37,0.18-2.74,0.08-2.9,1.95C71.23,114.13,67.66,113.91,64.57,112.06z"/>
	<path class="st10" d="M63.99,101.88c1.3,0.32,2.6,0.65,4.81,1.2c-5.29,1.59-8.29,5.94-13.38,6.13c-3.39-0.43-6.23-2.05-8.89-4.07
		c3.48-2.26,7.44-1.96,11.32-2.14C60.15,104.03,62.11,103.18,63.99,101.88z"/>
	<path class="st12" d="M40.54,92.08c4.11,2.58,8.72,1.86,13.21,2.07c2.01,0.09,4.3-0.89,5.93,1.18c-0.7,0.93-1.41,1.86-2.11,2.78
		C51.4,99,45.4,96.76,39.26,97.21C37.8,95.03,39.23,93.57,40.54,92.08z"/>
	<path class="st2" d="M195.66,72.2c-0.68,1.63-1.36,3.26-2.04,4.88c-0.02,0.33-0.04,0.67-0.06,1c-6.63-1.7-13.26-3.41-19.89-5.11
		c1.97-1.71,5.39,0.04,6.86-2.87c0.46,5.43,4.71,2.04,7.07,3.05c0.77,3.14,2.64,2.06,4.29,0.99c1.18-0.76,2.02-2.05,3.61-2.11
		L195.66,72.2z"/>
	<path class="st12" d="M57.84,103c-3.87,0.18-7.84-0.12-11.32,2.14c-2.47-0.34-3.72-2.2-5.03-4c5.27,0.36,10.38-1.7,15.67-1.02
		C57.4,101.08,57.62,102.04,57.84,103z"/>
	<path class="st10" d="M57.18,100.12c-5.29-0.68-10.4,1.39-15.67,1.02c-0.32-0.33-0.64-0.67-0.97-1c0.01-0.86-0.17-1.62-1.04-2.02
		c-0.06-0.31-0.14-0.61-0.23-0.91C45.4,96.76,51.4,99,57.56,98.12C57.43,98.78,57.3,99.45,57.18,100.12z"/>
	<path class="st0" d="M193.56,78.08c0.02-0.33,0.04-0.67,0.06-1c3.85,0.28,8.21-1.26,10.93,3.05
		C200.81,79.89,196.84,80.84,193.56,78.08z"/>
	<path class="st2" d="M222.45,101.94c2.07,3.67-1.46,5.84-2.55,8.57c-0.42,1.04-1.8-0.47-2.35-1.46
		C219.53,106.93,220.06,103.79,222.45,101.94z"/>
	<path class="st2" d="M142.62,72.07c-3.41,0.36-7.07,3.2-10.03-1C135.93,71.41,139.43,70.24,142.62,72.07z"/>
	<path class="st12" d="M188.58,114.14c0.73-1.25,1.94-1.02,3.08-0.98C190.87,114.24,189.7,114.13,188.58,114.14z"/>
	<path class="st12" d="M39.49,98.12c0.87,0.4,1.05,1.16,1.04,2.02C39.74,99.69,39.53,98.95,39.49,98.12z"/>
	<path class="st8" d="M206.67,82.04c0.34,0.28,0.68,0.56,1.02,0.84C207.35,82.6,207.01,82.32,206.67,82.04z"/>
	<path class="st8" d="M205.63,81.07c0.33,0.31,0.66,0.62,0.99,0.93C206.29,81.69,205.96,81.38,205.63,81.07z"/>
	<path class="st12" d="M203.53,89.11c-0.32-0.28-0.64-0.56-0.96-0.84C202.89,88.55,203.21,88.83,203.53,89.11z"/>
	<path class="st13" d="M108.6,67.1c9.09,0.01,18.17-0.01,27.26,0.06c1.56,0.01,3.36-0.65,4.59,1.01c-13.23,0-26.47,0-39.7,0
		C103.14,66.14,106.01,67.67,108.6,67.1z"/>
	<path class="st5" d="M155.42,49.08c-1.65,0-3.3-0.01-4.96-0.01c1.95-5.31,5.53-9.43,9.77-12.99c2.62-2.21,5.7-3.27,9.25-3
		c4.72,0.36,6.91,2.49,7.04,7.26c0.03,1.22-1.12,2.69,0.68,3.49c1.65,0.74,2.99-0.34,4.08-1.25c3.96-3.29,7.07-7.61,11.59-10.2
		c9-5.16,18.44-7.42,28.46-3.04c4.5,1.97,8.99-0.27,13.64,0.56c11.36,2.03,23,12.38,24.59,23.16c-18.52-4-36.94-8.11-56.12-8.22
		c-9.07-0.05-18.02,0.18-27,1.22c-1.68,0.19-3.31-0.01-4.77-1c-0.33-2.44,0.96-5.58-2.62-6.64c-3.48-1.03-6.65-0.16-8.8,2.75
		C158.42,43.65,156.03,45.85,155.42,49.08z"/>
	<path class="st13" d="M270.56,78.15c8.64-3.68,16.64-2.45,24.38,2.73c3.79,2.54,7.74,4.97,12.22,6.3c1.81,0.54,3.71,1.71,3.71,3.53
		c0,1.76-2.22,2.08-3.75,2.73c-8.3,3.56-16.85,4.21-25.72,2.91c-5.22-0.76-10.61,0.26-15.78-1.34c0.21-0.9,0.42-1.79,0.63-2.69
		c2.18-2.39,4.77-3.95,8.07-4.28c1.8-0.18,3.57-0.56,5.35-0.89c2.28-0.43,4.19-1.36,3.95-4.11c-0.26-2.9-2.54-3.02-4.74-3.16
		c-3.18-0.21-6.19,0.63-9.17,1.58c-0.06-0.8-0.11-1.6-0.17-2.4c0,0,0,0.02,0,0.02C269.87,78.77,270.21,78.46,270.56,78.15z
		 M291.57,87.99c0.82-0.01,1.45-0.5,1.7-1.33c0.33-1.09-0.46-1.44-1.31-1.52c-1-0.1-2.13-0.01-2.12,1.3
		C289.84,87.22,290.56,87.84,291.57,87.99z"/>
	<path class="st12" d="M269.53,79.06c0.06,0.8,0.11,1.6,0.17,2.4c-2.92,1.8-5.75,3.73-6.94,7.17c-0.38,1.1-1.66,2.09-0.38,3.5
		c1.31,1.44,2.53,1.06,3.86,0.2c-0.21,0.9-0.42,1.79-0.63,2.69c-0.64-0.12-1.33-0.14-1.93-0.37c-2.8-1.08-7.68-0.74-7.64-4.08
		c0.05-3.89,3.22-7.42,7.05-9.43C265.09,80.11,267.01,78.59,269.53,79.06z"/>
	<path class="st8" d="M252.82,84.23c-0.31-2.98-3.43-3.37-4.92-5.29c-0.97-1.26-1.98-2.68-0.92-4c1.4-1.74,2.66-0.12,3.67,0.87
		c1.7,1.66,3.51,3.03,5.92,3.42C254.91,80.58,255.11,83.34,252.82,84.23z"/>
	<path class="st12" d="M270.56,78.15c-0.34,0.31-0.69,0.62-1.03,0.93C269.87,78.77,270.21,78.46,270.56,78.15z"/>
	<path class="st13" d="M242.47,128.75c3.06-1.54,8.02-0.16,9.71,3.12c0.75,1.47,1.67,2.34,2.99,3.06c1.44,0.79,3.38,1.53,2.98,3.48
		c-0.36,1.77-2.37,2.19-3.94,2.62c-7.21,1.99-14.45,1.33-21.63-0.15c-3.38-0.7-6.65-1.91-9.98-2.88c0.04-1.49-0.12-2.9,2.33-2.33
		c1.97,0.46,4.11,0.24,6.17,0.33c2.65,2.06,5.71,0.64,8.56,1c2.25,0.28,4.38-0.36,5.35-2.59
		C246.17,131.76,244.51,130.11,242.47,128.75z"/>
	<path class="st14" d="M242.47,128.75c2.04,1.35,3.71,3.01,2.55,5.65c-0.97,2.23-3.1,2.87-5.35,2.59c-2.85-0.36-5.92,1.06-8.57-1
		c-0.13-0.89-0.26-1.79-0.39-2.68c1.62-1.39,3.23-2.78,4.85-4.17C237.86,129.02,240.16,128.89,242.47,128.75z"/>
	<path class="st12" d="M230.71,133.31c0.13,0.89,0.26,1.79,0.39,2.68c-2.06-0.08-4.2,0.14-6.17-0.33c-2.45-0.57-2.29,0.83-2.33,2.33
		c-3.96-3.27-3.74-3.99,2.08-6.76C226.26,133.16,229.27,130.94,230.71,133.31z"/>
	<path class="st9" d="M247.62,124.99c-0.18-3.03,2.21-5.08,2.99-7.75c0.27-0.9,1.2-1.2,2.05-0.81c0.91,0.41,0.94,1.3,0.6,2.13
		c-0.88,2.14-1.8,4.26-2.71,6.38C249.58,124.95,248.6,124.97,247.62,124.99z"/>
	<path class="st13" d="M230.71,133.31c-1.43-2.37-4.44-0.16-6.03-2.07c3.7-0.32,6.99-2.79,10.88-2.1
		C233.94,130.54,232.32,131.93,230.71,133.31z"/>
	<path class="st8" d="M231.51,125.01c1.05-1.29,2.55-0.85,3.89-0.99c1.05,0.03,2.1,0.06,3.14,0.08
		C236.39,125.86,233.87,124.77,231.51,125.01z"/>
	<path class="st14" d="M57.18,100.12c0.13-0.67,0.26-1.33,0.39-2c0.7-0.93,1.41-1.86,2.11-2.78c14.48-12.19,31.88-17.18,50.04-20.29
		c6.58-1.13,13.22-1.27,19.86-0.81c3.4,0.24,6.72,1.24,7.76,5.09c1.11,4.12-1.84,5.94-4.78,7.65c-0.99,0.07-1.98,0.14-2.97,0.2
		c-9.29-2.19-18.3-0.26-27.3,1.82c-0.57,0.08-1.13,0.17-1.7,0.25c-2.82,0.18-5.61,0.53-8.2,1.78c-0.6,0.11-1.2,0.22-1.79,0.33
		c-6.01,1.13-11.95,2.44-17.29,5.61c-3.41,1.05-6.77,2.18-9.28,4.91c-1.88,1.3-3.85,2.15-6.15,1.12
		C57.62,102.04,57.4,101.08,57.18,100.12z"/>
	<path class="st10" d="M102.26,89c9-2.08,18.02-4.01,27.3-1.82c-0.1,1.9-1.14,2.83-3,2.92c-2.51-2.58-4.66-2.79-8.54-1.51
		C113.24,90.17,107.56,88.99,102.26,89z"/>
	<path class="st10" d="M73.28,96.97c5.34-3.17,11.29-4.48,17.29-5.61c0.37,3.96-2.22,5.39-5.22,4.53c-2.8-0.81-4.66,0.15-6.8,1.22
		C76.8,97.06,75.04,97.01,73.28,96.97z"/>
	<path class="st10" d="M92.37,91.03c2.59-1.25,5.37-1.6,8.2-1.78C98.51,92.96,95.09,90.38,92.37,91.03z"/>
	<path class="st6" d="M155.42,49.08c0.61-3.23,3-5.43,4.82-7.9c2.15-2.92,5.31-3.78,8.8-2.75c3.58,1.06,2.3,4.2,2.62,6.64
		c-0.36,4.47-2.98,7.62-6.07,10.52c-2.35,2.21-5.08,5.01-8.18,2.91C154.4,56.48,153.67,52.75,155.42,49.08z M160.61,47.06
		c-0.38,0.73-0.76,1.46-1.13,2.2c-0.85,1.66-1.82,3.98-0.34,5.01c1.94,1.36,2.9-1.38,4.11-2.47c1.41-1.27,3.26-2.4,3.25-4.71
		c1-1.9,2.22-4.37-0.03-5.56c-2.1-1.11-3.16,1.53-4.24,3.1C161.69,45.44,161.15,46.25,160.61,47.06z"/>
	<path class="st14" d="M166.73,93.68c-4.27-1.67-9.47-1.23-12.56-5.55c-0.97-4.64,1.2-6.73,5.63-7.36
		c7.35-1.04,14.17-0.18,20.07,4.77c2.22,1.87,3.48,4.13,2.35,6.98c-1.22,3.08-3.93,3.15-6.7,2.69
		C172.59,94.72,169.66,94.19,166.73,93.68z"/>
	<path class="st2" d="M195.51,72.03c0.38-0.23,0.75-0.47,1.15-0.68c0.03-0.01,0.18,0.23,0.28,0.35c-0.43,0.17-0.85,0.34-1.28,0.51
		C195.66,72.2,195.51,72.03,195.51,72.03z"/>
	<path class="st14" d="M266.24,92.33c-1.33,0.86-2.55,1.24-3.86-0.2c-1.28-1.41,0-2.4,0.38-3.5c1.19-3.45,4.02-5.37,6.94-7.17
		c2.98-0.95,5.99-1.79,9.17-1.58c2.2,0.14,4.48,0.26,4.74,3.16c0.24,2.76-1.66,3.68-3.95,4.11c-1.78,0.33-3.56,0.71-5.35,0.89
		C271.01,88.38,268.42,89.94,266.24,92.33z"/>
	<path class="st14" d="M291.57,87.99c-1.01-0.15-1.72-0.77-1.73-1.55c-0.01-1.31,1.12-1.4,2.12-1.3c0.85,0.08,1.64,0.43,1.31,1.52
		C293.02,87.49,292.39,87.98,291.57,87.99z"/>
	<path class="st9" d="M166.5,47.09c0.02,2.32-1.83,3.44-3.25,4.71c-1.21,1.09-2.18,3.83-4.11,2.47c-1.48-1.04-0.51-3.35,0.34-5.01
		c0.37-0.73,0.75-1.46,1.13-2.2C162.58,47.07,164.54,47.08,166.5,47.09z"/>
	<path class="st5" d="M166.5,47.09c-1.96-0.01-3.93-0.02-5.89-0.03c0.54-0.81,1.08-1.63,1.62-2.43c1.07-1.58,2.13-4.21,4.24-3.1
		C168.72,42.72,167.5,45.19,166.5,47.09z"/>
</g>
</svg>
