<?xml version="1.0" encoding="utf-8"?>
<!-- Generator: Adobe Illustrator 26.1.0, SVG Export Plug-In . SVG Version: 6.00 Build 0)  -->
<svg version="1.1" id="Layer_1" xmlns="http://www.w3.org/2000/svg" xmlns:xlink="http://www.w3.org/1999/xlink" x="0px" y="0px"
	 viewBox="0 0 384 231" style="enable-background:new 0 0 384 231;" xml:space="preserve">
<style type="text/css">
	.st0{fill:#215A74;}
	.st1{fill:#286E85;}
	.st2{fill:#188A94;}
	.st3{fill:#175A77;}
	.st4{fill:#242861;}
	.st5{fill:#3959A6;}
	.st6{fill:#374C9E;}
	.st7{fill:#415FA3;}
	.st8{fill:#4561A4;}
	.st9{fill:#4360A3;}
	.st10{fill:#384C9E;}
	.st11{fill:#384B97;}
	.st12{fill:#CDE4F6;}
	.st13{fill:#3A59A7;}
	.st14{fill:#3D559E;}
</style>
<g>
	<path class="st0" d="M205.41,224.32c-39.21,0.31-72.79-3.15-105.69-12.1c-8.97-2.44-17.17-7.03-25.88-9.96
		c-16.18-5.43-28.9-15.31-40.1-27.55c-13.05-14.25-23.52-30.27-26.67-49.58c-3.08-18.92,3.08-36.06,14.91-50.81
		c16.04-20.01,38.2-30.89,61.8-38.96c20.25-6.92,41.21-10.66,62.58-12.45c16.15-1.35,32.35-1.65,48.4-0.58
		c42.83,2.85,84.13,12.09,121.85,33.68c14.85,8.5,28.02,19.14,38.32,32.96c13.24,17.77,16.3,36.95,9.12,58.23
		c-3.9,11.55-8.99,22.27-15.31,32.57c-3.8,6.2-9.44,10.55-15.45,13.82c-12.57,6.84-24.66,14.66-38.65,18.82
		c-16.58,4.93-33.41,8.03-50.58,9.91C229.46,223.9,214.87,224.46,205.41,224.32z M355.62,98.13L355.62,98.13
		c-0.19-1.92-1.92-2.71-2.96-4.02c-1.07-4.84-4.84-7.89-7.92-11.23c-8.95-9.72-19.92-16.77-31.16-23.65
		c-13.7-8.39-28.44-14.09-43.52-19.14c-11.27-3.77-22.83-6.42-34.52-8.68c-12.03-2.33-24.12-4.55-36.28-5.03
		c-13.37-0.54-26.73-1.34-40.24-0.61c-19.61,1.06-38.85,3.77-57.87,8.16C82.61,38.2,65.14,45.41,48.71,55.09
		c-10.14,5.98-18.4,14.12-26.11,22.84c-1.3,1.47-4.39,3.25-1.96,6.26c0.34,0.67,0.68,1.35,1.02,2.02c-0.17,1.36,0.37,2.91-1.08,3.92
		c-0.97,0.01-1.93,0.01-2.9,0.02c-1.7-3.76-2.47-0.4-2.77,0.56c-1.89,5.99-3.64,12.03-5.25,18.1c-0.59,2.21-0.99,4.57-0.91,6.84
		c0.42,12.22,5.63,22.99,11,33.55c7.44,14.6,18.64,26.11,31.36,36.26c6.11,4.88,12.99,8.14,19.93,11.66
		c9.7,4.93,19.66,8.93,29.97,11.71c14.81,4.01,29.87,7.02,45.26,8.55c20.08,2,40.06,3.81,60.34,2.98
		c19.55-0.79,38.96-1.55,58.31-5.04c19.19-3.46,37.44-8.44,54.32-18.8c13.46-8.26,25.65-17.34,33.72-31.19
		c0.57-0.99,1.19-1.9,1.69-2.97c3.53-7.51,4.46-15.84,7.66-23.5c1.7-4.07,2.82-8.91-0.13-13.34c-0.33-0.5-0.54-1.37-0.34-1.88
		c3.12-7.74-0.87-14.28-3.5-21.04c-0.47-1.22-1.08-2.49-2.72-2.58c0-0.28,0-0.55,0-0.83C356.25,98.85,356.37,98.49,355.62,98.13z"/>
	<path class="st1" d="M355.63,100.05c1.64,0.08,2.25,1.36,2.72,2.58c2.63,6.76,6.62,13.3,3.5,21.04c-0.2,0.51,0.01,1.38,0.34,1.88
		c2.95,4.42,1.83,9.27,0.13,13.34c-3.2,7.66-4.13,15.99-7.66,23.5c-0.5,1.06-1.12,1.98-1.69,2.97
		c-8.07,13.85-20.26,22.93-33.72,31.19c-16.87,10.36-35.13,15.34-54.32,18.8c-19.35,3.49-38.76,4.24-58.31,5.04
		c-20.28,0.82-40.25-0.98-60.34-2.98c-15.38-1.53-30.44-4.54-45.26-8.55c-10.31-2.79-20.27-6.78-29.97-11.71
		c-6.94-3.53-13.82-6.79-19.93-11.66C38.41,175.31,27.2,163.8,19.77,149.2c-5.38-10.56-10.58-21.33-11-33.55
		c-0.08-2.27,0.32-4.63,0.91-6.84c1.61-6.07,3.36-12.11,5.25-18.1c0.3-0.96,1.07-4.33,2.77-0.56c-5.5,18.82-1.16,35.55,11.56,49.98
		c14.28,16.2,32.54,26.95,52.27,34.98c19.04,7.74,38.83,13.04,59.22,16.41c15.56,2.57,31.13,4.24,46.84,4.56
		c13.28,0.27,26.59,0.43,39.83-0.96c6.73-0.71,13.46-1.51,20.16-2.49c12.31-1.8,24.36-4.74,36.21-8.5
		c22.89-7.26,44.35-17.19,60.63-35.48c8.17-9.17,13.41-19.95,13.35-32.88C357.74,110.33,355.77,105.35,355.63,100.05z"/>
	<path class="st2" d="M20.65,84.19c-2.43-3.01,0.66-4.79,1.96-6.26c7.7-8.72,15.97-16.87,26.11-22.84
		c16.42-9.68,33.9-16.89,52.44-21.17c19.02-4.39,38.26-7.1,57.87-8.16c13.51-0.73,26.87,0.07,40.24,0.61
		c12.16,0.49,24.25,2.7,36.28,5.03c11.69,2.27,23.25,4.91,34.52,8.68c15.07,5.05,29.82,10.75,43.52,19.14
		c11.23,6.87,22.21,13.93,31.16,23.65c3.08,3.35,6.84,6.39,7.92,11.23c-0.35,1.32-0.7,2.64-1.04,3.97
		c-0.68,1.04-1.35,2.07-2.03,3.11c-2.09-4.93-4.6-9.75-8.34-13.51c-10.68-10.73-20.73-22.66-37.63-23.58
		c-0.92-0.05-1.82-0.72-2.7-1.16c-21.83-11.13-45.54-16.03-69.26-20.92c-3.38-3.02-7.89-3.11-11.87-3.66
		c-5.66-0.78-11.52-0.13-17.3-0.09c-1.25,0-2.49,0-3.74,0c-9.68,0-19.36,0-29.46,0c0.95,0.71,1.54,1.15,2.13,1.59
		c-16.98,0.07-33.79,1.96-50.42,5.27c-23.92,4.75-46.9,12.06-66.8,26.77c-7.92,5.86-14.92,12.75-18.67,22.23
		c-2.61,0.45-3.4,3.46-6.02,4.11c-2.66,0.66-3.96,2.63-3.94,5.55c0.01,2.85,0.27,5.42,3.52,6.31c2.6,0.71,3.27,3.03,2.39,4.66
		c-2.81,5.16,2.62,6.33,4.04,9.39c5.35,11.84,13.73,21.67,24.52,28.12c15.3,9.14,31.2,17.53,48.83,21.92
		c8.4,2.09,16.53,5.23,24.78,7.9c2.68,0.69,5.3,4.07,8.1,0.21c9.38-0.51,18.25,3.02,27.67,3.17c10.55,0.17,21.1,0.84,31.69,0.88
		c29.38,0.14,58.19-3.26,86.29-12.14c21.54-6.8,41.15-16.65,56.15-34.15c0.72,0.02,1.43,0.04,2.15,0.05
		c-7.75,12.35-19.3,20.38-31.69,27.27c-18.18,10.11-37.86,15.95-58.23,19.72c-14.34,2.66-28.73,4.86-43.35,5
		c-8.92,0.08-17.84,0.26-26.77,0.15c-10.81-0.14-21.58-0.9-32.23-2.32c-23.21-3.09-46.03-8.17-67.8-17.01
		c-19.38-7.87-37.66-17.64-52.04-33.36c-12.97-14.18-18.82-30.3-12.99-49.45c1.45-1.01,0.9-2.56,1.08-3.92
		C23.07,84.65,22.09,84.3,20.65,84.19z"/>
	<path class="st3" d="M349.59,101.19c0.68-1.04,1.35-2.07,2.03-3.11c1.34,0.02,2.67,0.04,4.01,0.05l0,0c0,0.36,0.01,0.73,0.01,1.09
		c-0.01,0.28-0.01,0.55,0,0.83c0.14,5.3,2.11,10.28,2.14,15.7c0.07,12.93-5.18,23.7-13.35,32.88
		c-16.28,18.29-37.75,28.22-60.63,35.48c-11.85,3.76-23.9,6.7-36.21,8.5c-6.7,0.98-13.43,1.79-20.16,2.49
		c-13.25,1.39-26.55,1.24-39.83,0.96c-15.71-0.32-31.28-1.99-46.84-4.56c-20.39-3.37-40.17-8.66-59.22-16.41
		c-19.74-8.02-37.99-18.78-52.27-34.98c-12.72-14.43-17.06-31.15-11.56-49.98c0.97-0.01,1.93-0.01,2.9-0.02
		c-5.83,19.15,0.02,35.27,12.99,49.45c14.38,15.72,32.66,25.5,52.04,33.36c21.77,8.84,44.59,13.92,67.8,17.01
		c10.65,1.42,21.41,2.18,32.23,2.32c8.93,0.11,17.85-0.06,26.77-0.15c14.62-0.14,29.01-2.34,43.35-5
		c20.37-3.77,40.05-9.61,58.23-19.72c12.4-6.89,23.94-14.92,31.69-27.27c6.24-8.32,8.38-17.74,7.83-28.56
		c-1.83,2.7,0.21,5.59-1.84,7.58C351.7,113.08,351.89,106.99,349.59,101.19z"/>
	<path class="st1" d="M355.63,98.13c-1.34-0.02-2.67-0.04-4.01-0.05c0.35-1.32,0.7-2.64,1.04-3.97
		C353.7,95.41,355.43,96.2,355.63,98.13z"/>
	<path class="st3" d="M20.65,84.19c1.44,0.12,2.42,0.46,1.02,2.02C21.33,85.53,20.99,84.86,20.65,84.19z"/>
	<path class="st1" d="M355.63,99.22c0-0.36-0.01-0.73-0.01-1.09C356.37,98.49,356.25,98.85,355.63,99.22z"/>
	<path class="st4" d="M349.59,101.19c2.3,5.8,2.12,11.89,2.1,17.96c-0.04,8.02-4.54,14.3-8.15,20.92
		c-15,17.49-34.61,27.34-56.15,34.15c-28.1,8.87-56.91,12.27-86.29,12.14c-10.59-0.05-21.14-0.72-31.69-0.88
		c-9.42-0.15-18.29-3.68-27.67-3.17c-2.7-0.07-5.4-0.14-8.1-0.21c-8.25-2.67-16.39-5.81-24.78-7.9
		c-17.63-4.39-33.53-12.78-48.83-21.92c-10.79-6.45-19.17-16.28-24.52-28.12c-2.11-7.26-2.94-14.57-2.15-22.19
		c0.3-2.88,2.96-4.85,2.17-7.83c3.75-9.49,10.75-16.38,18.67-22.23C74.09,57.19,97.08,49.88,121,45.13
		c16.63-3.3,33.44-5.2,50.42-5.26c6.06-0.21,12.13-0.32,18.18-0.66c3.05-0.17,6.26,0.88,9.15-0.94c1.25,0,2.49,0,3.74,0
		c0.68,0.99,1.54,1.67,2.8,1.77c8.79,0.66,17.58,1.32,26.37,1.98c23.71,4.89,47.43,9.79,69.26,20.92c0.88,0.45,1.78,1.11,2.7,1.16
		c16.9,0.92,26.95,12.85,37.63,23.58C344.99,91.44,347.5,96.26,349.59,101.19z M43.63,99.13c-2.21,3.35-0.25,6.66,0.12,9.98
		c-0.37,9.91,4.99,16.87,11.85,23.06c1.5,2.24,3.59,3.78,5.93,5.03c4.63,4.48,9.79,8.11,15.98,10.14c6.43,3.57,12.7,7.49,20.12,8.8
		c1.73,1.45,3.8,1.9,5.98,2.05c9.07,3.38,18.29,6.15,27.97,7.1c2.56,1.16,5.2,1.97,8.06,1.84c7.23,1.62,14.55,2.62,21.94,3.05
		c0.37,0.62,0.75,0.62,1.13,0.01c0.64,0.02,1.28,0.04,1.92,0.07c4.93,1.34,9.91,2.22,15.05,1.69c3.65,0.05,7.3,0.11,10.95,0.16
		c1.67,0.01,3.34,0.03,5.01,0.04c5.99-0.06,11.98-0.12,17.97-0.18c1.48,0.35,2.78-0.14,4.04-0.84c21.52-0.57,42.54-4.31,63.08-10.58
		c13.55-4.14,26.79-9.24,38.3-17.7c8.19-6.02,15.7-12.88,17.58-23.73c1.79-3.63,0.59-7.53,1.02-11.29
		c1.97-17.17-9.36-26.02-21.78-33.58c-9.81-5.97-22.33-6.21-31.48-13.98c-0.7-0.6-1.84-0.79-2.81-0.96
		c-10.25-1.8-20.51-3.55-30.77-5.32c-3.06-0.92-6.11-1.84-9.17-2.76c-3.13-0.06-5.25-2.57-8.24-3.21
		c-14.43-3.07-28.96-4.63-43.72-3.92c-3.89-1.86-8-0.62-12.01-0.82c-3.66,0.31-7.31,0.62-10.97,0.93
		c-4.68,0.64-9.35,1.29-14.03,1.93c-4.47,0.13-8.92-0.08-13.43,0.53c-10.9,1.48-21.24,5.25-32.02,7.15
		c-6.19,1.09-12.82,1.23-18.16,4.8c-8.58,5.73-17.73,10.49-26.32,16.16c-7.68,5.07-14.87,10.71-17.2,20.36
		C44.35,96.22,43.74,97.56,43.63,99.13z"/>
	<path class="st1" d="M35.53,94.13c0.78,2.99-1.88,4.96-2.17,7.83c-0.79,7.62,0.04,14.93,2.15,22.19c-1.42-3.06-6.85-4.23-4.04-9.39
		c0.89-1.63,0.22-3.94-2.39-4.66c-3.25-0.89-3.51-3.46-3.52-6.31c-0.01-2.92,1.29-4.89,3.94-5.55
		C32.13,97.59,32.92,94.59,35.53,94.13z"/>
	<path class="st1" d="M231.66,42.02c-8.79-0.66-17.58-1.33-26.37-1.98c-1.26-0.09-2.12-0.78-2.8-1.77c5.78-0.04,11.64-0.7,17.3,0.09
		C223.77,38.91,228.28,39,231.66,42.02z"/>
	<path class="st1" d="M343.54,140.07c3.61-6.63,8.11-12.91,8.15-20.92c2.04-1.99,0.01-4.88,1.84-7.58
		c0.55,10.82-1.59,20.24-7.83,28.56C344.97,140.11,344.26,140.09,343.54,140.07z"/>
	<path class="st1" d="M198.75,38.27c-2.89,1.82-6.1,0.77-9.15,0.94c-6.05,0.34-12.12,0.45-18.18,0.66
		c-0.59-0.44-1.18-0.89-2.13-1.59C179.39,38.27,189.07,38.27,198.75,38.27z"/>
	<path class="st3" d="M133.64,182.1c2.7,0.07,5.4,0.14,8.1,0.21C138.94,186.16,136.33,182.78,133.64,182.1z"/>
	<path class="st5" d="M190.61,172.1c-3.65-0.05-7.3-0.11-10.95-0.16c-2.23-2.56-5.08-4.35-7.87-6.19c-2.13-1.4-4.72-2.51-6.98-1.29
		c-2.62,1.41,0.59,3.83-0.2,5.78c-0.64-0.02-1.28-0.04-1.92-0.07c-0.38,0-0.75-0.01-1.13-0.01c-7.39-0.44-14.71-1.43-21.94-3.05
		c-0.88-4.48,0.21-5.67,4.67-4.85c2.43,0.45,4.77,1.39,7.2,1.74c1.45,0.21,3.6,0.83,3.96-1.66c0.32-2.22-1.58-2.15-2.98-2.41
		c-2.74-0.52-5.48-1.03-8.24-1.44c-3.92-0.59-8.13-1.74-9.37,4.02c-0.37,1.73-2.62,1.32-3.29,2.76c-9.68-0.95-18.9-3.72-27.97-7.1
		c3.66-6.17,7.47-6.81,16.79-2.56c0.36-5.38-3.78-5.82-7.04-6.38c-6.59-1.13-11.21,2.9-15.72,6.88c-7.41-1.31-13.69-5.23-20.12-8.8
		c0.05-1.95,0.33-3.77-1.13-5.62c-1.37-1.74-1.47-4.25,0.38-5.87c1.95-1.7,3.18,0.45,4.62,1.43c1.49,1.02,3,2.18,4.68,2.67
		c1.78,0.52,2.96-0.4,2.1-2.51c-1.17-2.9-8.53-6.23-11.59-5.14c-4.97,1.77-9.83,3.88-15.04,4.89c-2.34-1.25-4.43-2.79-5.93-5.03
		c0.75-3.18,3.73-2.35,5.71-2.87c3.98-1.05,8.11-1.5,12.2-2.13c1.8-0.28,3.7-1.09,3.54-2.83c-0.18-2.03-2.42-1.05-3.77-1.18
		c-4.76-0.45-9.11,1.55-13.63,2.48c-0.94,0.19-2,0.88-2.53-0.44c-0.37-0.92,0.44-1.6,1.08-2.04c2.43-1.68,4.8-3.54,7.45-4.81
		c2.28-1.09,4.79-2.24,3.6-4.9c-0.98-2.19-3.95-2.04-6.08-1.2c-1.81,0.71-3.13,1.49-3.57-1.21c1.4-2.34,3.54-3.96,5.68-5.51
		c21.64-15.75,46.57-23.1,72.35-28.25c0.55,5.79,2.66,6.96,9.91,5.36c1.63-0.36,3.41-1.17,4.63,0.34c1.07,1.32,0.19,2.93-0.6,4.2
		c-2.47,4-2.26,8.1-1.08,12.48c1.08,4.02,1.61,8.19,4.43,12.71c-3.93-1.6-5.32-4.03-6.99-6.26c-1.65-2.2-3.33-4.04-6.55-1.57
		c-2.99,2.3-6.39,2.89-9.02-1.06c-0.79-1.19-2.19-1.64-3.57-1.2c-6.06,1.91-12.57,2.59-17.84,6.65c-1.52,1.17-4.29,2.26-2.73,4.33
		c1.28,1.7,2.46-1.29,3.85-1.88c0.9-0.38,1.64-1.13,2.52-1.6c6.31-3.37,12.56-6.18,19.07-0.2c2.25,2.07,4.88,1.67,7.24-0.28
		c2.54-2.09,4.57-1.21,6.33,1.16c0.89,1.2,1.74,2.44,2.76,3.51c2,2.1,2.24,3.53-1.02,4.55c-3.81,1.2-4.02,3.9-2.6,7.17
		c0.38,0.89,1.7,1.86,0.2,3.08c-2.43-0.77-2.49-3.3-3.63-5c-1.09-1.64-2.04-4.3-4.26-3.23c-2.07,1,0.58,2.75,0.67,4.24
		c0.12,2.1,1.42,3.56,2.46,5.27c4.25,6.97,11.04,11.41,16.55,17.11c2.96,3.07,7.19,4.27,11.45,3.84c2.24-0.22,6.43,2.06,6.37-2.07
		c-0.05-3.33-4.03-1.56-6.23-1.75c-5.14-0.45-9.32-2.9-10.46-6.65c11.74,5.39,13.63,5.18,17.25-1.95c2.89,1.92,5.62,4.14,8.68,5.69
		c9.82,4.95,19.87,8.3,31.33,7.27c5.3-0.48,10.33-4.62,16.01-1.56c0.53,0.28,1.78-0.62,2.62-1.11c3.96-2.29,7.12-5.6,9.73-9.2
		c1.77-2.43,4.12-5.27,3.22-8.61c-0.69-2.56,0.29-4.09,1.65-5.83c4-5.13,5.7-10.68,3.69-17.23c-1.05-3.44-4.83-8.58,3.58-8.47
		c1,0.01,2.65-1.87,2.93-3.12c0.99-4.46,1.09-9.38-2-12.78c-2.23-2.46-2.67-4.67-2.6-7.51c0.06-2.33,0.02-4.67,0.02-7
		c3.77,1.14,8.38,1.35,11.06,3.72c2.29,2.03,6.17-0.03,7.08,3.65c-1.87,4.52,0.9,10.07,6.58,12.21c3.66,1.38,7.59,2.07,11.4,3.07
		c0.19,0.6,0.28,1.67,0.6,1.74c6.95,1.66,13.89,3.47,21.16,2.58c2.16-0.26,2.15-1.64,1.86-3.24l-0.06-0.11
		c5.49,2.94,10.79,6.4,16.55,8.64c3.46,1.34,3.76,3.11,3.86,6.12c0.13,3.86-1.14,7.87,0.88,11.6c-1.88,10.85-9.39,17.71-17.58,23.74
		c-11.51,8.46-24.76,13.57-38.3,17.7c-20.54,6.27-41.56,10.01-63.08,10.58c-0.64-4.49,1.05-6.68,5.79-6
		c2.03,0.29,3.94-0.35,5.83-1.02c0.95-0.34,2.06-0.72,1.81-1.95c-0.26-1.31-1.55-0.93-2.48-1.01c-4.17-0.36-8.25,0.39-12.35,0.97
		c-5.23,0.74-10.47,1.36-15.7,2.05c-1.17,0.15-2.53,0.4-2.31,1.95c0.19,1.32,1.55,0.97,2.47,0.99c2.66,0.06,5.33,0.16,7.98-0.01
		c3.6-0.24,5.42,1.07,4.92,4.86c-5.99,0.06-11.98,0.12-17.97,0.18c0-1.66,0.02-3.31-0.01-4.97c-0.03-1.48,0.14-3.36-1.8-3.55
		c-2.07-0.2-1.99,1.67-2.2,3.16C191.36,168.57,190.95,170.33,190.61,172.1z"/>
	<path class="st6" d="M255.63,69.13c0,2.33,0.04,4.67-0.02,7c-0.07,2.84,0.37,5.06,2.6,7.51c3.09,3.4,2.99,8.32,2,12.78
		c-0.28,1.24-1.93,3.13-2.93,3.12c-8.41-0.11-4.64,5.02-3.58,8.47c2,6.55,0.31,12.1-3.69,17.23c-1.36,1.74-2.34,3.27-1.65,5.83
		c0.9,3.34-1.45,6.19-3.22,8.61c-2.62,3.6-5.77,6.9-9.73,9.2c-0.84,0.48-2.09,1.39-2.62,1.11c-5.68-3.05-10.71,1.09-16.01,1.56
		c-11.46,1.03-21.51-2.32-31.33-7.27c-3.07-1.55-5.79-3.77-8.68-5.69c-3.62,7.13-5.5,7.33-17.25,1.95
		c1.14,3.75,5.32,6.21,10.46,6.65c2.19,0.19,6.18-1.58,6.23,1.75c0.06,4.13-4.13,1.85-6.37,2.07c-4.26,0.42-8.49-0.77-11.45-3.84
		c-5.5-5.7-12.3-10.14-16.55-17.11c-1.04-1.71-2.34-3.17-2.46-5.27c-0.09-1.5-2.74-3.25-0.67-4.24c2.21-1.07,3.17,1.59,4.26,3.23
		c1.13,1.7,1.19,4.23,3.63,5c1.5-1.22,0.18-2.19-0.2-3.08c-1.41-3.28-1.21-5.98,2.6-7.17c3.25-1.02,3.02-2.45,1.02-4.55
		c-1.02-1.07-1.87-2.32-2.76-3.51c-1.76-2.37-3.79-3.25-6.33-1.16c-2.37,1.95-4.99,2.35-7.24,0.28c-6.51-5.98-12.76-3.17-19.07,0.2
		c-0.88,0.47-1.62,1.22-2.52,1.6c-1.39,0.59-2.57,3.58-3.85,1.88c-1.56-2.07,1.21-3.16,2.73-4.33c5.27-4.06,11.78-4.74,17.84-6.65
		c1.38-0.44,2.78,0.01,3.57,1.2c2.63,3.95,6.03,3.35,9.02,1.06c3.22-2.47,4.9-0.63,6.55,1.57c1.67,2.23,3.06,4.66,6.99,6.26
		c-2.82-4.52-3.35-8.69-4.43-12.71c-1.18-4.38-1.39-8.48,1.08-12.48c0.78-1.27,1.66-2.87,0.6-4.2c-1.22-1.52-3-0.7-4.63-0.34
		c-7.25,1.6-9.36,0.43-9.91-5.36c1.64-0.29,3.28-0.57,4.92-0.86c0.08,1.73,0.57,2.92,2.72,2.37c1.59-0.41,3.24-0.56,4.83-0.98
		c3.86-1.02,5.99,0.48,6.52,4.35c0.16,1.12-0.04,2.32,1.45,2.81c2.91,0.96,9.45-2.33,10.9-5.31c1.26-2.58,1.49-5.87,4.61-7.29
		c1.02-0.08,2.04-0.17,3.06-0.25c-0.48,5.1-4.1,8.88-5.85,13.48c-1.2,3.14-5.35,2.51-8.53,2.56c-7.97,0.15-9.76,3.03-7.94,10.64
		c1.72,7.23,5.05,13.37,9.22,19.47c6.86,10.03,15.37,18.11,26.05,23.54c8.7,4.42,17.99,6.49,28.17,5.55
		c9.67-0.89,15.05-7.05,19.14-13.98c1.96-3.32,2.24-6.32,6.8-8c10.05-3.71,8.56-21.53-0.51-28.13c-2.07-1.51-3.76-3.2-5.05-5.35
		c-0.45-0.76-0.67-1.68,0.16-2.2c0.36-0.23,1.25,0.08,1.74,0.4c2.38,1.52,4.65,3.21,7.05,4.69c2.7,1.67,5.98,2.44,8.42,0.44
		c2.56-2.1,0.91-5.28,0-7.9c-0.7-2.02-1.88-3.43-4.52-2.54c-1.36,0.46-2.96,0.24-4.44,0.34c-2.04,0.13-3.94-0.58-4.39-2.51
		c-0.45-1.9,1.8-2.06,3.01-2.7c6.22-3.33,7.13-5.23,5.45-11.79c-0.02-4.48-2.13-7.93-5.02-11.21c-1.5-1.71-4.27-2.69-4-5.69
		c3.06,0.92,6.11,1.84,9.17,2.76c-1.05,2.29,1.11,3.51,1.94,4.98C254.53,62.18,255.94,65.36,255.63,69.13z M172.5,136.8
		c-0.03-1.46-1.03-2.17-1.76-3.06c-2.52-3.07-5.41-5.93-7.4-9.31c-2.9-4.93-6.42-5.63-11.29-3.29c-1.91,0.92-2.2,1.45-1.45,3.65
		c2.91,8.57,10.58,11.31,17.52,14.9C170.89,141.12,171.95,138.99,172.5,136.8z"/>
	<path class="st7" d="M45.49,95.13c2.34-9.65,9.53-15.29,17.21-20.36c8.59-5.67,17.74-10.43,26.32-16.16
		c5.34-3.56,11.97-3.7,18.16-4.8c10.78-1.9,21.13-5.67,32.02-7.15c4.51-0.61,8.95-0.39,13.43-0.53c-6.25,4.57-12.37,9.25-15.01,17
		c-1.84,0.05-2.02,1.3-1.97,2.72c-1.61,0.42-3.22,0.84-4.83,1.25c-25.44,6.44-50.26,14.27-71.08,31.23
		C55.27,95.97,50.49,95.07,45.49,95.13z"/>
	<path class="st8" d="M241.59,51.23c-0.27,3,2.5,3.99,4,5.69c2.89,3.28,5,6.73,5.02,11.21c-3.44-0.7-4.83,1.66-4.72,4.19
		c0.24,5.62-2.85,6.26-7.24,5.85c-2.14-0.2-4.32-0.06-6.48-0.04c-2.18,0.01-3.48-0.91-3.52-3.22c2.11,0.42,4.24,0.74,6.32,1.28
		c4.02,1.05,7.8,1.17,9.59-3.42c1.57-4.02-0.71-7.05-6.29-8.87c-9.55-3.11-19.46-4.2-29.41-4.69c-15.46-0.75-30.87,0.2-46.25,1.82
		c-0.67-2.79,2.04-7.41-3.22-7.72c-4.11-0.24-3.9-2.44-3.75-5.16c9.46-0.04,9.47-0.04,12.02,9.1c0.77,2.75,2.19,1.81,3.63,0.69
		c6.05-4.7,11.04-10.81,18.35-13.85c14.75-0.7,29.29,0.85,43.72,3.92C236.34,48.65,238.46,51.16,241.59,51.23z"/>
	<path class="st9" d="M255.63,69.13c0.31-3.77-1.1-6.95-2.93-10.16c-0.83-1.47-2.99-2.69-1.94-4.98
		c10.26,1.76,20.52,3.52,30.77,5.31c0.97,0.17,2.1,0.36,2.81,0.96c9.15,7.76,21.68,8,31.48,13.98
		c12.42,7.56,23.76,16.41,21.78,33.58c-0.43,3.75,0.77,7.66-1.02,11.29c-2.02-3.72-0.75-7.73-0.88-11.6
		c-0.1-3.01-0.4-4.77-3.86-6.12c-5.76-2.24-11.06-5.69-16.55-8.64c1.24-4.31,0.15-7.71-3.56-10.45
		c-11.67-8.63-24.07-12.02-37.98-5.8c-0.91-3.68-4.79-1.62-7.08-3.65C264,70.47,259.4,70.27,255.63,69.13z"/>
	<path class="st10" d="M59.59,111.04c0.44,2.7,1.76,1.92,3.57,1.21c2.13-0.84,5.1-0.99,6.08,1.2c1.19,2.66-1.32,3.8-3.6,4.9
		c-2.64,1.27-5.01,3.12-7.45,4.81c-0.64,0.45-1.46,1.13-1.08,2.04c0.54,1.32,1.6,0.63,2.53,0.44c4.53-0.93,8.87-2.93,13.63-2.48
		c1.35,0.13,3.59-0.85,3.77,1.18c0.16,1.74-1.74,2.56-3.54,2.83c-4.08,0.63-8.22,1.08-12.2,2.13c-1.98,0.52-4.96-0.31-5.71,2.87
		c-6.87-6.19-12.22-13.15-11.85-23.06c2.68,0.02,5.37,0.04,8.06,0.07c0.13,1.7-1.07,3.81,1.11,4.9c2.18,1.09,3.72-0.36,5.18-1.78
		C58.55,111.84,59.09,111.46,59.59,111.04z"/>
	<path class="st11" d="M189.63,44.09c-7.31,3.04-12.3,9.15-18.35,13.85c-1.44,1.12-2.86,2.06-3.63-0.69
		c-2.54-9.14-2.55-9.14-12.02-9.1c-3.02,0.43-4.38,2.87-6.02,4.97c-2.11,1.63-4.51,3.03-5.01,6.01c-2.33,1.34-4.67,2.67-7,4.01
		c2.65-7.75,8.77-12.43,15.01-17c4.68-0.64,9.35-1.29,14.03-1.93c3.02,6.58,3.36,6.69,9.06,2.88c0.97-0.64,2.07-1.17,2.83-2.01
		c0.9-1-0.8-1.08-0.92-1.8C181.63,43.47,185.73,42.23,189.63,44.09z"/>
	<path class="st6" d="M61.53,137.19c5.22-1.01,10.07-3.13,15.04-4.89c3.05-1.09,10.42,2.24,11.59,5.14c0.85,2.11-0.32,3.02-2.1,2.51
		c-1.68-0.49-3.19-1.65-4.68-2.67c-1.43-0.98-2.67-3.13-4.62-1.43c-1.85,1.62-1.75,4.13-0.38,5.87c1.45,1.85,1.17,3.67,1.13,5.62
		C71.32,145.3,66.16,141.67,61.53,137.19z"/>
	<path class="st6" d="M213.58,171.96c0.5-3.79-1.32-5.1-4.92-4.86c-2.65,0.18-5.32,0.07-7.98,0.01c-0.92-0.02-2.28,0.32-2.47-0.99
		c-0.22-1.55,1.14-1.79,2.31-1.95c5.23-0.69,10.48-1.31,15.7-2.05c4.1-0.58,8.18-1.33,12.35-0.97c0.93,0.08,2.22-0.3,2.48,1.01
		c0.25,1.22-0.86,1.6-1.81,1.95c-1.89,0.68-3.79,1.32-5.83,1.02c-4.74-0.68-6.44,1.52-5.79,6
		C216.36,171.82,215.06,172.31,213.58,171.96z"/>
	<path class="st8" d="M51.8,109.18c-2.69-0.02-5.37-0.04-8.06-0.07c-0.37-3.32-2.33-6.63-0.12-9.98c4.74,0.18,9.56-0.64,14.18,1.09
		C55.8,103.21,53.8,106.19,51.8,109.18z"/>
	<path class="st10" d="M131.57,165.28c0.67-1.43,2.92-1.03,3.29-2.76c1.24-5.76,5.44-4.61,9.37-4.02c2.76,0.41,5.5,0.92,8.24,1.44
		c1.41,0.27,3.31,0.19,2.98,2.41c-0.36,2.49-2.51,1.87-3.96,1.66c-2.43-0.36-4.78-1.3-7.2-1.74c-4.46-0.82-5.55,0.37-4.67,4.85
		C136.77,167.25,134.13,166.44,131.57,165.28z"/>
	<path class="st6" d="M97.62,156.13c4.51-3.99,9.14-8.02,15.72-6.88c3.26,0.56,7.4,1,7.04,6.38c-9.31-4.25-13.13-3.61-16.79,2.56
		C101.42,158.03,99.35,157.58,97.62,156.13z"/>
	<path class="st11" d="M164.61,170.25c0.79-1.95-2.42-4.37,0.2-5.78c2.27-1.22,4.86-0.12,6.98,1.29c2.79,1.84,5.64,3.63,7.87,6.19
		C174.52,172.46,169.54,171.59,164.61,170.25z"/>
	<path class="st11" d="M57.8,100.22c-4.62-1.73-9.44-0.91-14.18-1.09c0.12-1.57,0.73-2.91,1.86-4c5-0.06,9.78,0.84,14.23,3.2
		C59.08,98.96,58.44,99.59,57.8,100.22z"/>
	<path class="st9" d="M177.62,43.27c0.11,0.72,1.81,0.8,0.92,1.8c-0.75,0.84-1.86,1.37-2.83,2.01c-5.7,3.8-6.04,3.69-9.06-2.88
		C170.31,43.89,173.96,43.58,177.62,43.27z"/>
	<path class="st11" d="M190.61,172.1c0.34-1.77,0.74-3.53,0.99-5.32c0.21-1.49,0.13-3.36,2.2-3.16c1.94,0.19,1.78,2.07,1.8,3.55
		c0.03,1.66,0.01,3.31,0.01,4.97C193.95,172.13,192.28,172.11,190.61,172.1z"/>
	<path class="st11" d="M161.56,170.17c0.38,0,0.75,0.01,1.13,0.01C162.31,170.79,161.93,170.79,161.56,170.17z"/>
	<path class="st12" d="M57.8,100.22c0.64-0.63,1.28-1.26,1.92-1.89c20.82-16.96,45.64-24.79,71.08-31.23
		c1.61-0.41,3.22-0.83,4.83-1.25c1.34-0.29,2.67-0.57,4.01-0.86c0.63-0.09,1.26-0.19,1.88-0.28c7.03-1.23,14.06-2.46,21.09-3.69
		c15.38-1.62,30.79-2.57,46.25-1.82c9.95,0.48,19.86,1.58,29.41,4.69c5.58,1.82,7.86,4.84,6.29,8.87c-1.79,4.59-5.57,4.47-9.59,3.42
		c-2.08-0.54-4.21-0.86-6.32-1.28c-7.46-2.22-15.08-3.09-22.84-2.94l-0.01-0.01c-9.73-1.52-19.46-0.98-29.17,0.18
		c-1.02,0.08-2.04,0.17-3.06,0.25c-10.47,0.33-20.83,1.55-31.03,4.04c-1.64,0.29-3.28,0.57-4.92,0.86
		c-25.78,5.15-50.71,12.5-72.35,28.25c-2.14,1.56-4.28,3.17-5.68,5.51c-0.5,0.42-1.04,0.8-1.51,1.25c-1.45,1.43-2.99,2.87-5.18,1.78
		c-2.18-1.09-0.98-3.2-1.11-4.9C53.8,106.19,55.8,103.21,57.8,100.22z"/>
	<path class="st12" d="M273.76,76.5c13.91-6.23,26.31-2.84,37.98,5.8c3.71,2.74,4.8,6.14,3.56,10.45c0,0,0.06,0.11,0.06,0.11
		c-3.03,2.33-6.29,2.48-9.9,1.49c-4.49-1.23-9.03-2.33-13.72-2.58c-3.81-1-7.74-1.68-11.4-3.07
		C274.67,86.57,271.89,81.02,273.76,76.5z"/>
	<path class="st9" d="M291.74,91.78c4.69,0.25,9.23,1.35,13.72,2.58c3.61,0.99,6.87,0.84,9.9-1.49c0.29,1.6,0.3,2.98-1.86,3.24
		c-7.27,0.88-14.21-0.92-21.16-2.58C292.02,93.44,291.94,92.38,291.74,91.78z"/>
	<path class="st13" d="M176.63,72.13c9.72-1.16,19.44-1.7,29.17-0.18c-2.15,0.17-4.31,0.33-6.73,0.52
		c5.5,5.15,9.63,10.75,12.19,16.84c3.56,8.47,4.02,9.61,13.23,9.83c5.69,0.14,13.15,6.38,14.09,11.94c0.52,3.09,1.38,6.14,1.13,9.33
		c-0.08,1.05,0.5,2.03,1.56,2.29c1.16,0.28,2.04-0.55,2.12-1.59c0.45-5.44,0.82-11.01-2.24-15.85
		c-4.51-7.14-11.36-10.22-19.66-10.09c-3.87,0.06-6.06-1.35-5.87-5.48c0.14-3.01-1.24-5.34-3.05-7.64c-2.5-3.18-5.8-5.86-6.77-10.09
		c7.76-0.15,15.39,0.73,22.84,2.94c0.04,2.31,1.34,3.23,3.52,3.22c2.16-0.01,4.33-0.15,6.48,0.04c4.39,0.41,7.47-0.23,7.24-5.85
		c-0.11-2.53,1.29-4.9,4.72-4.19c1.68,6.56,0.77,8.46-5.45,11.79c-1.21,0.65-3.46,0.8-3.01,2.7c0.46,1.94,2.36,2.65,4.39,2.51
		c1.49-0.1,3.08,0.12,4.44-0.34c2.64-0.89,3.82,0.52,4.52,2.54c0.91,2.62,2.56,5.8,0,7.9c-2.44,2-5.72,1.23-8.42-0.44
		c-2.4-1.48-4.68-3.17-7.05-4.69c-0.49-0.31-1.38-0.62-1.74-0.4c-0.83,0.52-0.61,1.45-0.16,2.2c1.29,2.15,2.98,3.84,5.05,5.35
		c9.07,6.6,10.56,24.42,0.51,28.13c-4.56,1.68-4.84,4.68-6.8,8c-4.1,6.93-9.47,13.09-19.14,13.98c-10.19,0.94-19.48-1.13-28.17-5.55
		c-10.68-5.43-19.19-13.51-26.05-23.54c-4.17-6.1-7.5-12.24-9.22-19.47c-1.82-7.61-0.03-10.5,7.94-10.64
		c3.19-0.06,7.33,0.58,8.53-2.56C172.53,81,176.15,77.23,176.63,72.13z M183.08,106.12c1.71,0,2.88,0.09,4.03-0.02
		c3.6-0.34,10.8-5.66,10.35-8.01c-0.81-4.19-1.06-8.5-2.61-12.58c-1.19-3.14-3.27-3.83-6.26-3.25c-5.46,1.06-9.38,4.65-12.1,8.93
		c-2.03,3.2-4.2,7.18-1.52,11.51C177.08,106.12,180.15,106.5,183.08,106.12z M212.65,130.14c7.96,0.6,11.48-5.03,15.62-9.71
		c2.68-3.03,0.9-4.65-2.02-5.12c-4.23-0.68-8.55-0.98-12.84-1.14c-4.72-0.18-8.48,4.02-8.65,9.28
		C204.62,128,207.29,130.13,212.65,130.14z M171.93,121.29c7.17,2.08,13.52,4.74,14.71,13.19c0.11,0.79,1.32,1.62,2.44,1.23
		c1.04-0.35,1.42-1.32,1.51-2.38c0.18-2.25-0.7-4.25-1.62-6.19c-2.35-5-1.25-6.82,4.34-7.01c0.83-0.03,1.69,0.08,2.49-0.09
		c1.82-0.39,2.39-2.21,0.81-2.59c-3.88-0.93-6.45-3.54-9.53-7.16c-0.14,1.97-0.42,2.72-0.18,3.19c1.75,3.42-1.11,5.23-2.64,7.37
		c-1.67,2.34-3.15-0.34-4.74-0.53C177.11,120.04,174.65,119.8,171.93,121.29z"/>
	<path class="st13" d="M172.5,136.8c-0.55,2.19-1.61,4.32-4.37,2.9c-6.94-3.59-14.61-6.34-17.52-14.9
		c-0.75-2.21-0.45-2.74,1.45-3.65c4.87-2.34,8.38-1.65,11.29,3.29c1.99,3.38,4.88,6.24,7.4,9.31
		C171.47,134.63,172.47,135.34,172.5,136.8z"/>
	<path class="st13" d="M142.55,76.42c10.19-2.49,20.55-3.71,31.03-4.04c-3.12,1.42-3.36,4.71-4.61,7.29
		c-1.45,2.97-7.99,6.27-10.9,5.31c-1.49-0.49-1.29-1.69-1.45-2.81c-0.54-3.88-2.66-5.37-6.52-4.35c-1.59,0.42-3.24,0.57-4.83,0.98
		C143.11,79.34,142.63,78.15,142.55,76.42z"/>
	<path class="st14" d="M139.64,64.99c-1.34,0.29-2.67,0.57-4.01,0.86c-0.05-1.42,0.14-2.67,1.97-2.72c2.33-1.34,4.67-2.67,7-4.01
		c3.6,2.73,4.07-1.75,5.93-2.8c1.88-1.06,0.48-2.42-0.93-3.21c1.64-2.1,3.01-4.54,6.02-4.97c-0.14,2.72-0.35,4.91,3.76,5.16
		c5.26,0.31,2.55,4.94,3.22,7.72c-7.03,1.23-14.06,2.46-21.09,3.69C140.78,64,140.16,64.16,139.64,64.99z"/>
	<path class="st8" d="M149.61,53.11c1.4,0.8,2.8,2.16,0.93,3.21c-1.86,1.04-2.33,5.52-5.93,2.8
		C145.11,56.15,147.5,54.75,149.61,53.11z"/>
	<path class="st8" d="M139.64,64.99c0.52-0.84,1.14-0.99,1.89-0.28C140.9,64.81,140.27,64.9,139.64,64.99z"/>
	<path class="st10" d="M183.08,106.12c-2.93,0.37-6,0-8.11-3.41c-2.68-4.33-0.51-8.31,1.52-11.51c2.72-4.28,6.64-7.88,12.1-8.93
		c2.99-0.58,5.06,0.11,6.26,3.25c1.55,4.07,1.8,8.38,2.61,12.58c0.45,2.35-6.75,7.67-10.35,8.01
		C185.96,106.21,184.79,106.12,183.08,106.12z"/>
	<path class="st10" d="M212.65,130.14c-5.37,0-8.03-2.13-7.89-6.68c0.16-5.26,3.92-9.46,8.65-9.28c4.29,0.16,8.61,0.46,12.84,1.14
		c2.92,0.47,4.7,2.09,2.02,5.12C224.14,125.11,220.62,130.74,212.65,130.14z"/>
	<path class="st6" d="M205.81,71.96c0.96,4.22,4.27,6.91,6.77,10.09c1.81,2.29,3.19,4.63,3.05,7.64c-0.19,4.13,2,5.54,5.87,5.48
		c8.3-0.13,15.15,2.95,19.66,10.09c3.06,4.84,2.69,10.41,2.24,15.85c-0.08,1.04-0.96,1.87-2.12,1.59c-1.06-0.25-1.64-1.23-1.56-2.29
		c0.24-3.2-0.62-6.25-1.13-9.33c-0.94-5.55-8.39-11.8-14.09-11.94c-9.21-0.22-9.66-1.36-13.23-9.83
		c-2.56-6.09-6.69-11.69-12.19-16.84c2.42-0.19,4.58-0.35,6.73-0.52C205.8,71.94,205.81,71.96,205.81,71.96z"/>
	<path class="st6" d="M171.93,121.29c2.72-1.49,5.19-1.25,7.6-0.97c1.6,0.19,3.07,2.87,4.74,0.53c1.53-2.14,4.39-3.95,2.64-7.37
		c-0.24-0.47,0.05-1.21,0.18-3.19c3.08,3.63,5.65,6.23,9.53,7.16c1.58,0.38,1.01,2.2-0.81,2.59c-0.8,0.17-1.66,0.06-2.49,0.09
		c-5.59,0.19-6.69,2.02-4.34,7.01c0.91,1.94,1.79,3.94,1.62,6.19c-0.08,1.07-0.47,2.03-1.51,2.38c-1.12,0.38-2.33-0.44-2.44-1.23
		C185.45,126.03,179.1,123.37,171.93,121.29z"/>
</g>
</svg>
