<?xml version="1.0" encoding="utf-8"?>
<!-- Generator: Adobe Illustrator 26.1.0, SVG Export Plug-In . SVG Version: 6.00 Build 0)  -->
<svg version="1.1" id="Layer_1" xmlns="http://www.w3.org/2000/svg" xmlns:xlink="http://www.w3.org/1999/xlink" x="0px" y="0px"
	 viewBox="0 0 380 226" style="enable-background:new 0 0 380 226;" xml:space="preserve">
<style type="text/css">
	.st0{fill:#215974;}
	.st1{fill:#188B95;}
	.st2{fill:#286E85;}
	.st3{fill:#175A77;}
	.st4{fill:#232961;}
	.st5{fill:#38A08E;}
	.st6{fill:#3A9D8E;}
	.st7{fill:#3A5AA6;}
	.st8{fill:#3A59A6;}
	.st9{fill:#415FA3;}
	.st10{fill:#4360A2;}
	.st11{fill:#374C9D;}
	.st12{fill:#374E9E;}
	.st13{fill:#CDE4F6;}
	.st14{fill:#4B62A8;}
</style>
<g>
	<path class="st0" d="M202.84,214.35c-36.18,0.01-72.05-2.96-106.6-14.32c-22.73-7.47-44.57-16.99-60.56-36.23
		c-12.11-14.57-22.56-30.08-25.74-49.04C7.13,98.03,12.43,82.59,21.6,68.77c11-16.57,27.26-26.97,44.86-35.26
		c22.92-10.8,47.28-16.4,72.36-19.57c19.59-2.48,39.26-2.84,58.8-1.6c42.84,2.71,84.14,12.03,121.86,33.62
		c15.59,8.92,29.34,20.11,39.81,34.93c12.15,17.2,14.5,35.62,7.99,55.73c-3.86,11.91-9.17,22.93-15.72,33.47
		c-3.81,6.13-9.55,10.43-15.58,13.72c-13.58,7.41-26.78,15.58-42.01,19.77c-18.79,5.17-37.85,8.06-57.21,9.74
		C225.46,214.3,214.16,214.19,202.84,214.35z M23.61,75.12c0.35,0.36,0.7,0.72,1.06,1.08c-0.17,1.35,0.37,2.91-1.08,3.91
		c-0.97,0.01-1.93,0.01-2.9,0.02c-1.7-3.76-2.47-0.4-2.77,0.56c-1.89,5.99-3.64,12.03-5.24,18.1c-0.59,2.21-0.99,4.57-0.91,6.84
		c0.42,12.22,5.63,22.99,11,33.55c7.44,14.6,18.64,26.11,31.36,36.26c6.11,4.88,12.99,8.14,19.93,11.66
		c9.7,4.93,19.66,8.93,29.97,11.71c14.81,4.01,29.92,6.78,45.25,8.62c17.8,2.14,35.63,3.46,53.47,3.38
		c9.24-0.04,18.56-0.49,27.85-0.72c0.33-0.01,0.67,0,1-0.03c17.74-1.92,35.48-3.74,52.88-7.94c9.67-2.33,19.33-5.02,27.95-9.82
		c7.58-4.22,15.02-8.82,22.34-13.53c9.86-6.35,17.04-15.57,22.36-25.64c4.17-7.88,6.36-16.96,8.46-25.74
		c2.83-11.8,0.95-23.37-4.04-34.41c-0.6-1.32-1.08-2.9-3.01-2.9c-0.75-0.43-0.9-1.14-0.92-1.91c0.01-0.86-0.17-1.64-1.02-2.09
		c-0.34-2.37-1.52-4.38-2.86-6.29c-5.3-7.58-12.25-13.66-19.47-19.13c-15.75-11.95-33.21-20.98-51.91-27.48
		c-13.89-4.83-28.1-8.39-42.52-11.48c-21.36-4.58-42.94-6.19-64.58-6.24c-9.65-0.02-19.49,0.28-29.25,1.47
		c-16.27,1.99-32.34,4.55-48.18,8.85c-20.39,5.53-39.56,13.65-56.3,26.58c-7.38,5.7-14.66,11.94-18.86,20.74
		C21.08,74.68,22.31,74.92,23.61,75.12z"/>
	<path class="st1" d="M23.59,80.11c1.45-1,0.9-2.56,1.08-3.91c1.45-1.57,0.34-1.89-1.02-2.09c-0.33-0.33-0.65-0.67-0.98-1
		c4.2-8.8,11.48-15.05,18.86-20.74c16.74-12.92,35.91-21.05,56.3-26.58c15.84-4.3,31.92-6.86,48.18-8.85
		c9.76-1.19,19.6-1.49,29.25-1.47c21.63,0.05,43.22,1.66,64.58,6.24c14.42,3.09,28.63,6.66,42.52,11.48
		c18.7,6.5,36.16,15.53,51.91,27.48c7.22,5.48,14.17,11.55,19.47,19.13c1.34,1.91,2.52,3.91,2.86,6.29
		c-1.28,0.03-1.94,0.71-2.01,1.97c-1.6,1.44-0.79,2.99-0.27,4.58c6.26,19.31-0.82,35.03-14.25,48.21
		c-13.37,13.12-29.98,21.29-47.57,27.4c-29.92,10.4-60.98,14.3-92.41,14.4c-13.16,0.04-26.46-0.59-39.67-2.33
		c-23.42-3.09-46.37-7.74-68.45-16.25c-20.33-7.84-39.52-17.5-54.68-33.75C23.87,115.95,17.77,99.68,23.59,80.11z M310.56,61.16
		l0.03,0.03c-0.44-1.02-1.34-1.04-2.25-1.01c-6.17-2.45-12.03-5.51-17.73-8.9c-0.43-1.1-1.36-1.13-2.32-1.09
		c-0.19,0.09-0.38,0.09-0.56,0c-2.45-2.88-6.07-4.25-9.26-5.37c-10.42-3.67-21.12-6.57-31.77-9.58c-1.19-0.34-2.71-1.83-4.07-0.09
		c-6.99-4.55-14.26-7.1-22.49-3.34c-0.99,0.45-1.92,0.15-2.78-0.5c-3.81-2.87-8.39-2.57-12.77-3.07
		c-5.44-0.48-10.88-0.94-16.32-1.44c-12.93-1.21-25.95-1.39-38.71,0.73c-17.77,2.96-34.9,8.76-51.46,15.64
		c-18.01,7.48-33.33,19.42-47.31,32.99c-4.08,2.57-8.16,5.15-10.1,9.9c-1.26,0.34-2.5,0.77-3.78,1c-3.84,0.7-6.86,2.78-8.07,6.37
		c-1.36,4.04,2.54,5.51,4.81,7.68c1.27,1.49,0.38,3.89,2.18,5.15c-2.15,4.11,1.45,2.45,2.84,2.69c2.15,0.37,5.14-0.92,5.7,2.43
		c0.55,3.26,2.72,6.7-1.09,10.22c4.1,0.31,5.78,2.26,6.97,5.37c2.07,5.44,5.39,10.12,10.36,13.48c5.42,3.66,11.4,5.9,17.65,7.64
		c5.75,1.6,11.83,1.75,17.41,4.05c0,1.43-1.07,2.62-0.43,4.29c2.16,5.68,14.55,8.1,18.53,3.48c0.36-0.42,0.64-1.23,0.49-1.72
		c-0.38-1.21-1.58-1.22-2.47-0.9c-2.89,1.06-5.9,1.2-8.78,0.63c-2.82-0.56-5.78-1.72-3.3-5.68c10.35,1.06,20.67,0.97,30.9-1.17
		c2.4,0,4.8,0,8.52,0c-4.3,3.74-6.95,7.03-9.28,10.61c-4.54,6.99-4.64,7.03,2.76,9.85c2.93,1.11,6.02,1.84,9.09,2.51
		c1.44,0.31,3.3,0.21,3.51-1.79c0.19-1.76-1.4-1.91-2.76-2.13c-1.63-0.26-3.25-0.61-4.85-1.01c-6.75-1.65-6.93-2.37-2.76-7.86
		c1.26-1.66,2.3-1.79,4.14-1.23c2.83,0.86,5.78,1.34,8.7,1.92c1.17,0.23,2.44,0.31,2.78-1.26c0.36-1.7-0.56-2.34-2.17-2.57
		c-2.25-0.32-4.47-0.85-6.56-1.26c-0.84-4.22,1.39-5.22,4.93-4.83c7.41,1.62,14.28,4.61,20.95,8.12c0.5,5.25-1.25,10.07-2.74,14.96
		c-0.4,1.31-0.86,3.16,1.12,3.78c2.19,0.69,3.16-1.04,3.37-2.66c0.62-4.72,2.43-9.25,2.27-14.09c2.86-0.13,5.26,1.51,7.95,2.03
		c1.99,3.41,5.75,4.88,8.42,7.6c2.15,2.19,3.84,6.54,7.76,4.92c3.68-1.52,1.22-5.64,1.91-8.52c7.48-0.22,14.88,1.46,22.38,0.88
		c2.56-0.2,3.85,1.44,4.7,3.66c0.55,1.45,0.82,3.76,3.11,3c2.48-0.82,1.11-2.69,0.43-4.11c-1.07-2.25-0.65-3.28,2.02-3.58
		c4.11-0.46,8.16-1.35,12.26-1.92c14.62-2.02,26.91-8.3,35.76-20.27c4.53-6.12,10.51-6.44,16.93-5.49c18.59,2.76,32.42-5,43.33-19.3
		c5.68-7.45,6.16-15.45,2.09-23.82c-0.79-1.63-1.44-3.34-2.15-5.01c5.04-3.08,5.61-8.04,0.98-12c-7.14-6.1-14.71-11.67-22.96-16.24
		c-1.56-0.86-2.93-2.29-4.99-1.82l0.03,0.01C311.25,61.84,310.91,61.5,310.56,61.16z"/>
	<path class="st2" d="M358.53,90.1c1.93,0,2.42,1.59,3.01,2.9c4.99,11.04,6.86,22.61,4.04,34.41c-2.1,8.78-4.3,17.86-8.46,25.74
		c-5.32,10.06-12.49,19.29-22.36,25.64c-7.32,4.71-14.77,9.31-22.34,13.53c-8.62,4.8-18.28,7.48-27.95,9.82
		c-17.4,4.2-35.14,6.02-52.88,7.94c-0.33,0.04-0.67,0.02-1,0.03c-9.29,0.23-18.61,0.68-27.85,0.72
		c-17.84,0.07-35.67-1.25-53.47-3.38c-15.33-1.84-30.43-4.61-45.25-8.62c-10.31-2.79-20.27-6.78-29.97-11.71
		c-6.94-3.53-13.82-6.79-19.93-11.66c-12.72-10.15-23.93-21.66-31.36-36.26c-5.38-10.56-10.58-21.33-11-33.55
		c-0.08-2.27,0.32-4.63,0.91-6.84c1.61-6.07,3.36-12.11,5.24-18.1c0.3-0.96,1.08-4.32,2.77-0.56c-5.72,19.88-0.59,37.03,13.31,51.81
		c7.28,7.74,15.66,14.09,24.69,19.82c16.41,10.42,34.23,17.22,52.75,22.45c21.24,6,42.86,9.58,64.95,11.14
		c21.65,1.52,43.15,0.75,64.61-1.43c15.65-1.59,31.05-4.95,46.05-9.85c21.51-7.04,41.8-16.37,57.89-32.85
		c10.48-10.73,16.78-23.33,15.76-38.91C360.42,98.11,358.46,94.3,358.53,90.1z"/>
	<path class="st3" d="M358.53,90.1c-0.08,4.2,1.89,8.01,2.17,12.21c1.02,15.58-5.28,28.18-15.76,38.91
		c-16.1,16.48-36.38,25.81-57.89,32.85c-15,4.91-30.41,8.26-46.05,9.85c-21.46,2.18-42.96,2.96-64.61,1.43
		c-22.09-1.56-43.7-5.14-64.95-11.14c-18.52-5.23-36.34-12.03-52.75-22.45c-9.03-5.74-17.41-12.08-24.69-19.82
		c-13.9-14.78-19.03-31.93-13.31-51.81c0.97-0.01,1.94-0.01,2.9-0.02c-5.82,19.57,0.28,35.84,13.69,50.21
		c15.16,16.25,34.36,25.91,54.68,33.75c22.08,8.51,45.03,13.16,68.45,16.25c13.22,1.74,26.51,2.37,39.67,2.33
		c31.43-0.09,62.48-4,92.41-14.4c17.59-6.11,34.2-14.28,47.57-27.4c13.43-13.18,20.51-28.89,14.25-48.21
		c-0.52-1.59-1.33-3.14,0.27-4.58c1.01,0.04,2.02,0.07,3.03,0.11C357.63,88.96,357.79,89.67,358.53,90.1z"/>
	<path class="st2" d="M357.61,88.19c-1.01-0.04-2.02-0.07-3.03-0.11c0.07-1.27,0.72-1.94,2.01-1.97
		C357.44,86.55,357.62,87.32,357.61,88.19z"/>
	<path class="st2" d="M22.66,73.11c0.33,0.33,0.65,0.67,0.98,1c-0.01,0.34-0.02,0.67-0.03,1.01C22.31,74.92,21.08,74.68,22.66,73.11
		z"/>
	<path class="st3" d="M23.61,75.12c0.01-0.34,0.02-0.67,0.03-1.01c1.36,0.19,2.47,0.51,1.02,2.09
		C24.31,75.84,23.96,75.48,23.61,75.12z"/>
	<path class="st4" d="M179.57,164.18c-2.69-0.52-5.1-2.16-7.95-2.03c-0.98-1.39-2.76-1.18-4.03-1.99
		c-6.67-3.51-13.55-6.5-20.95-8.12c-5.23-2.27-10.57-2.82-16.05-0.96c-10.23,2.14-20.54,2.23-30.9,1.17
		c-1.35-0.03-2.69-0.07-4.04-0.1c-5.58-2.3-11.66-2.44-17.41-4.05c-6.24-1.74-12.23-3.97-17.65-7.64
		c-4.97-3.36-8.29-8.04-10.36-13.48c-1.19-3.12-2.86-5.06-6.97-5.37c3.8-3.53,1.63-6.96,1.09-10.22c-0.56-3.35-3.56-2.07-5.7-2.43
		c-1.39-0.24-4.99,1.42-2.84-2.69c0.98-0.01,1.96,0.01,2.95-0.02c1.59-0.06,3.81,0.46,4.23-1.52c0.53-2.52-2.7-1.02-3.45-2.48
		c-0.05-1.12-0.1-2.25-0.15-3.37c0.22-2.74,1.05-5.31,2.25-7.77c1.35-1.43,1.62-3.25,1.88-5.09c2.71-3.08,5.22-6.29,7.26-9.86
		c13.98-13.57,29.3-25.51,47.31-32.99c16.56-6.88,33.69-12.68,51.46-15.64c12.76-2.12,25.78-1.94,38.71-0.73
		c5.44,0.51,10.88,0.96,16.32,1.44c4.74,2.3,9.48,4.6,14.21,6.9c1.84,1.35,3.7,2.69,5.53,4.06c9.4,7.03,17.73,15.49,28.25,21.01
		c1.41,2.28,4.34,2.14,6.12,3.83c3.37,1.24,6.58,1.76,8.96-1.84c1.47-0.67,2.12-2.08,2.84-3.34c3.85-6.7,9.35-10.03,17.23-8.67
		c0.19,0.09,0.38,0.09,0.57,0c0.78,0.36,1.55,0.73,2.32,1.09c5.7,3.39,11.56,6.46,17.73,8.9c0.59,0.7,1.29,1.15,2.25,1.01
		c0,0-0.03-0.03-0.03-0.03c0.35,0.34,0.69,0.68,1.04,1.02c0,0-0.03-0.01-0.03-0.01c10.3,8.84,19.08,19.04,26.96,30.05
		c0.71,1.67,1.35,3.38,2.15,5.01c4.07,8.37,3.59,16.38-2.09,23.82c-10.91,14.3-24.74,22.05-43.33,19.3
		c-6.42-0.95-12.4-0.63-16.93,5.49c-8.85,11.96-21.14,18.25-35.76,20.27c-4.1,0.57-8.15,1.46-12.26,1.92
		c-2.67,0.3-3.09,1.33-2.02,3.58c0.68,1.42,2.05,3.29-0.43,4.11c-2.29,0.76-2.56-1.54-3.11-3c-0.84-2.22-2.13-3.86-4.7-3.66
		c-7.5,0.59-14.9-1.1-22.38-0.88C191.63,166.84,185.6,165.51,179.57,164.18z M50.49,99.09c-0.58,6.49,1.38,12.53,3.4,18.52
		c1.13,3.36,3.18,6.18,6.57,7.74c0.04,1.4,0.23,2.69,2.01,2.87c0.28,1.69,1.13,2.81,2.94,2.98c0.45,0.66,0.79,1.43,1.35,1.96
		c8.41,7.89,19.28,8.47,29.83,9.98c0.33,0.24,0.66,0.48,0.99,0.72c2.34,0.05,4.67,0.1,7.01,0.15c6.76,1.61,13.43,1.16,20.03-0.88
		c0.67-0.03,1.34-0.06,2.01-0.09c0.84,0.07,1.58-0.1,2.1-0.83c14.24-1.81,27.19,2.18,39.82,8.35c11.62,5.67,24.12,8.12,37.01,8.61
		c1.04,1.15,2.09,1.17,3.16,0.04c2.32,0.02,4.63,0.05,6.95,0.07c2.33,0.89,4.66,1.54,6.96-0.09c2-0.07,4-0.15,6-0.22
		c0.38-0.25,0.75-0.51,1.13-0.76c15.62-0.23,29.67-4.66,39.45-17.43c6.81-8.89,15.52-10.95,25.52-9.4c4.84,0.75,9.17,0.35,13.62-1.2
		c15.39-5.33,24.09-18.42,25.04-34.06c-1.06-5.55-2.37-10.95-6.42-15.29c-9.65-10.33-21.83-17.12-33.95-23.84
		c-6.59-3.65-12.34-0.99-13.94,5.73c-0.62,2.61-1.66,4.94-2.66,7.34c-3.83,2.23-6.53,6.66-11.8,6.1c-5.02-3.26-9.83-6.93-15.88-8.21
		c-5.26-2.42-8.54-7.64-13.92-9.9c-0.21-1.21-0.93-1.91-2.14-2.1c-0.72-1.27-1.7-2.22-3.12-2.67c-0.3-0.11-0.62-0.17-0.94-0.18
		c-0.37-0.32-0.74-0.63-1.11-0.95c-10.44-10.51-23.21-15.94-37.85-17.23c-1.16-2.86-4.05-1.79-6.08-2.69
		c-11.45-0.18-23.01-1.11-34.27,1.05c-12.65,2.42-25.29,5.69-36.97,11.16C98.13,51.09,84.51,59,71.61,68.09
		c-6.73,4.74-13.47,9.27-17.17,16.98c-1.57,0.92-1.91,2.39-1.79,4.06C51.19,92.29,50.58,95.63,50.49,99.09z"/>
	<path class="st5" d="M287.72,50.19c-7.88-1.36-13.38,1.97-17.23,8.67c-0.72,1.26-1.37,2.68-2.84,3.34
		c-3.01-0.59-5.73-2.38-8.94-2.13c0.13-3.17-0.53-6.11-2.01-8.98c-3.37-6.52-7.58-12.21-14.08-15.93c1.37-1.74,2.88-0.25,4.07,0.09
		c10.64,3.01,21.34,5.91,31.77,9.58C281.65,45.94,285.27,47.31,287.72,50.19z"/>
	<path class="st3" d="M242.62,35.15c6.5,3.72,10.71,9.41,14.08,15.93c1.48,2.87,2.14,5.81,2.01,8.99c-0.01,1.32-0.01,2.65-0.02,3.97
		c-1.78-1.69-4.71-1.55-6.12-3.83c1.93-2.31,1.07-4.66,0.07-6.98C247.43,41,231.89,32.7,218.79,35.14c-4.74-2.3-9.48-4.6-14.21-6.9
		c4.38,0.5,8.96,0.2,12.77,3.07c0.87,0.65,1.8,0.95,2.78,0.5C228.36,28.05,235.63,30.6,242.62,35.15z"/>
	<path class="st3" d="M130.59,151.07c5.48-1.85,10.82-1.31,16.05,0.96c-3.54-0.4-5.77,0.6-4.93,4.83c2.09,0.41,4.31,0.94,6.56,1.26
		c1.61,0.23,2.53,0.87,2.17,2.57c-0.33,1.57-1.61,1.49-2.78,1.26c-2.91-0.58-5.87-1.06-8.7-1.92c-1.84-0.56-2.88-0.43-4.14,1.23
		c-4.17,5.49-4,6.21,2.76,7.86c1.61,0.39,3.22,0.74,4.85,1.01c1.36,0.22,2.95,0.38,2.76,2.13c-0.21,1.99-2.07,2.1-3.51,1.79
		c-3.07-0.66-6.16-1.39-9.09-2.51c-7.39-2.81-7.29-2.86-2.76-9.85c2.33-3.59,4.99-6.87,9.28-10.61
		C135.39,151.07,132.99,151.07,130.59,151.07z"/>
	<path class="st6" d="M338.53,92.22C330.65,81.2,321.87,71,311.57,62.16c2.05-0.47,3.42,0.96,4.99,1.82
		c8.25,4.56,15.82,10.13,22.96,16.24C344.14,84.17,343.57,89.14,338.53,92.22z"/>
	<path class="st3" d="M179.57,164.18c6.03,1.33,12.06,2.66,18.08,3.99c-0.68,2.88,1.77,7-1.91,8.52c-3.92,1.62-5.61-2.73-7.76-4.92
		C185.32,169.06,181.56,167.6,179.57,164.18z"/>
	<path class="st3" d="M43.51,86.01c-0.25,1.83-0.53,3.66-1.88,5.09c-0.08-0.32-0.14-0.9-0.25-0.91c-3.64-0.35-7.68,0.59-8.64,3.84
		c-0.98,3.3,3.35,3.44,5.72,4.48c0.3,0.13,0.61,0.25,0.92,0.37c0.05,1.12,0.1,2.25,0.15,3.37c-1.97-0.38-3.93-0.75-5.9-1.13
		c-2.26-2.17-6.17-3.64-4.81-7.68c1.21-3.59,4.23-5.67,8.07-6.37c1.28-0.23,2.52-0.66,3.78-1C41.62,86.04,42.56,86.03,43.51,86.01z"
		/>
	<path class="st3" d="M95.65,152.14c1.35,0.03,2.69,0.07,4.04,0.1c-2.48,3.96,0.48,5.12,3.3,5.68c2.88,0.57,5.89,0.42,8.78-0.63
		c0.89-0.32,2.09-0.31,2.47,0.9c0.15,0.48-0.13,1.29-0.49,1.72c-3.98,4.63-16.37,2.2-18.53-3.48
		C94.58,154.76,95.65,153.58,95.65,152.14z"/>
	<path class="st3" d="M167.59,160.16c1.27,0.82,3.05,0.6,4.03,1.99c0.17,4.84-1.65,9.37-2.27,14.09c-0.21,1.62-1.19,3.34-3.37,2.66
		c-1.98-0.62-1.52-2.47-1.12-3.78C166.34,170.23,168.09,165.41,167.59,160.16z"/>
	<path class="st6" d="M33.63,101.11c1.97,0.38,3.93,0.75,5.9,1.13c0.75,1.46,3.98-0.04,3.45,2.48c-0.41,1.98-2.63,1.46-4.23,1.52
		c-0.98,0.04-1.97,0.02-2.95,0.02C34.01,105,34.91,102.6,33.63,101.11z"/>
	<path class="st6" d="M43.51,86.01c-0.94,0.02-1.89,0.03-2.83,0.05c1.94-4.76,6.01-7.34,10.1-9.9
		C48.73,79.72,46.21,82.93,43.51,86.01z"/>
	<path class="st5" d="M290.6,51.28c-0.77-0.36-1.54-0.73-2.32-1.09C289.24,50.15,290.18,50.18,290.6,51.28z"/>
	<path class="st6" d="M310.59,61.19c-0.96,0.14-1.66-0.31-2.25-1.01C309.25,60.15,310.14,60.17,310.59,61.19z"/>
	<path class="st6" d="M311.6,62.18c-0.35-0.34-0.69-0.68-1.04-1.02C310.91,61.5,311.25,61.84,311.6,62.18z"/>
	<path class="st7" d="M104.59,144c-2.34-0.05-4.67-0.1-7.01-0.15c-0.33-0.24-0.66-0.48-0.99-0.72c-10.55-1.51-21.42-2.08-29.83-9.98
		c-0.57-0.53-0.91-1.3-1.35-1.96c4.58-2.86,8.62-3.97,10.87,2.78c0.43,1.3,2.35,1.63,3.46,0.74c1.75-1.4,0.14-2.55-0.72-3.7
		c-0.98-1.29-3.51-2.38-1.15-4.35c1.69-1.41,3.67-2.24,5.72-0.14c1.14,1.16,2.62,2,3.99,2.91c1.19,0.79,2.66,1.18,3.58-0.07
		c0.99-1.36-0.29-2.43-1.2-3.38c-3.58-3.76-8.53-4.56-14.08-2.47c-4.44,1.67-8.94,3.15-13.42,4.71c-1.79-0.17-1.97-1.47-2.01-2.87
		c-0.25-3.91,1-6.11,5.48-6.41c3.74-0.25,7.42-1.6,11.11-2.52c1.26-0.31,2.92-0.43,3.15-2.01c0.25-1.74-1.26-2.15-2.63-2.32
		c-1.7-0.22-2.03-1.49-2.35-2.81c1.35-2.08,2.47-4.35,4.07-6.21c14.68-17.13,32.6-29.41,54.37-35.8c0.77,1.05,1.91,0.83,2.98,0.86
		c0.82,0.11,2.11-0.06,2.37,0.38c3.8,6.41,9.37,4.92,14.88,3.37c3.71-1.04,2.95,1.1,1.9,2.78c-3.66,5.81-3.87,11.73-1.5,18.04
		c0.95,2.51,1.26,5.26,1.88,7.96c-2.35,0.17-2.39-1.83-3.37-2.81c-2.99-3.01-5.46-7.23-10.51-2.34c-1.5,1.45-4.4,1.4-6.1-1.12
		c-0.85-1.27-2.05-2.55-3.67-2.18c-7.34,1.69-14.8,3.15-20.74,8.34c-0.78,0.68-1.49,1.75-0.84,2.62c1.13,1.52,1.94-0.05,2.79-0.64
		c1.09-0.75,2.1-1.66,3.27-2.26c6.37-3.26,12.67-7.06,19.53-0.76c2.42,2.22,5.17,1.74,7.65-0.39c1.41-1.21,3.48-1.69,4.44-0.12
		c1.71,2.81,5.27,4.3,5.74,7.85c0.16,1.19-1.38,1.09-2.3,1.38c-3.49,1.11-3.96,3.6-3,6.74c0.36,1.18,1.68,2.15,0.81,3.86
		c-2.87-0.83-2.53-3.99-4.15-5.64c-1.25-1.27-2.14-3.71-4.14-2.63c-1.73,0.94,0.48,2.54,0.65,3.89c0.29,2.4,1.7,4.15,2.95,6.13
		c2.35,3.71,5.8,6.31,8.54,9.52c6.45,7.55,13.74,12.29,24.04,10.99c20.28,7.07,40.84,7.73,61.66,2.73
		c5.55-1.33,10.65-3.67,15.33-6.88c5.87-4.03,5.41-8.63-1.12-11.83c-3-2.98-3.34-6.03-0.75-9.59c1.41-1.94,3.17-3.55,3.9-6.19
		c1.41-5.14,0.56-9.86-1.15-14.6c-0.99-2.75-1.55-4.72,2.69-4.71c3.21,0,5.29-2.24,5.22-5.49c-0.06-2.89,0.93-5.55,1.09-8.36
		c5.28,0.56,7.97-3.87,11.81-6.1c4.65-0.2,3.37-6.57,7.86-7.45c0.08,3.36,0.9,5.96,4.98,5.73c1.26-0.07,1.9,1.38,1.9,2.52
		c0.01,1.36-1.34,1.02-2.23,1.31c-7.22,2.33-9.74,5.18-10.13,11.35c-1.57,3.74-4.19,7.19-3.2,11.64c0.43,1.94,1.48,3.44,3.47,3.71
		c1.98,0.26,2.89-1.27,3.42-2.93c0.45-1.41,0.79-2.85,2.02-3.84c2.01,0.04,2.12-1.37,2.16-2.83l0.07-0.1
		c0.29-0.34,0.58-0.67,0.86-1.01l0.03-0.03c4.94-3.9,10.34-4.23,16.05-2.02l0.48-0.02l0.44,0.2c2.69,2.43,3.02,2.35,5.96-1.52
		c2.72-3.59,5.66-3.67,8.17,0.03c0.97,1.43,2.15,1.28,3.41,1.32c4.88,0.18,8.13,2.25,8.44,7.48c0.12,1.96,1.02,2.62,2.8,2.53
		c-0.95,15.64-9.66,28.73-25.04,34.06c-4.46,1.54-8.79,1.95-13.62,1.2c-9.99-1.55-18.71,0.51-25.52,9.4
		c-9.78,12.77-23.83,17.2-39.45,17.43c-0.38,0.25-0.75,0.51-1.12,0.76c-2,0.07-4,0.15-6,0.22c-1.52-2.86-0.28-4.08,2.57-4.01
		c2.52,0.06,4.91-0.38,7.32-1.01c1.32-0.35,2.17-0.89,1.96-2.32c-0.28-1.87-1.67-1.68-3.05-1.5c-7.48,1-14.91,2.3-22.45,2.98
		c-2.63,0.24-7.87-0.14-7.62,2.18c0.35,3.28,4.95,0.9,7.59,1.64c2.26,0.63,5.5-1.76,6.72,2.13c-2.32-0.02-4.63-0.05-6.95-0.07
		c-1.05-0.01-2.1-0.03-3.16-0.04c-12.89-0.49-25.39-2.94-37.01-8.61c-12.63-6.16-25.58-10.16-39.83-8.35
		c-0.84-0.08-1.6,0.05-2.1,0.83c-0.67,0.03-1.34,0.06-2.01,0.09C116.45,137.43,109.24,137.75,104.59,144z M324.54,98.14
		c-0.34-3.25-2.03-5.04-5.17-4.93c-3.46,0.12-4.9,2.35-4.89,5.6c0.02,3.3,1.57,5.44,5.05,5.39
		C323.5,104.13,324.04,101.05,324.54,98.14z"/>
	<path class="st8" d="M234.82,58.05c5.38,2.26,8.66,7.47,13.92,9.9c-0.17,1.19-0.47,2.67-1.71,2.8c-4.36,0.47-1.72,2.43-0.61,3.36
		c2.26,1.88,5.06,1.1,7.65,0.7c5.4-0.83,4.67,3.7,5.41,6.46c0.84,3.12-0.62,4.9-4.27,4.95c-3.35,0.04-5.54-1.96-8.13-3.36
		c-1.99-1.08-4.06-5.01-5.86-2.57c-1.4,1.89,1.76,4.81,4.24,6.34c0.14,0.09,0.27,0.19,0.4,0.3c5.29,4.41,8.1,10.27,7.56,16.92
		c-0.46,5.74-2.29,11.97-9.82,12.33c-2.4,0.12-2.62,1.8-3.07,3.75c-1.16,5.03-3.49,8.84-9.1,10.68c-2.88,0.95-6.71,0.07-8.79,3.27
		c-7.88,2.14-15.93,2.32-24.02,2.12c-0.11-1.14-0.91-1.49-1.84-2.02c-5.59-3.2-12.14-5.57-16.42-10.07
		c-9.33-9.79-19.31-19.34-22.66-33.49c-2.33-9.83-1-12.17,9.31-12.29c0.66-0.01,1.33,0.04,1.99-0.02
		c3.69-0.34,11.51-12.34,10.5-16.1c-0.03-0.12-0.26-0.19-0.4-0.28c1.07-0.57,2.15-1.14,3.22-1.72c1.59,0.19,2.93-0.59,4.16-1.35
		c1.36-0.84,4.19,0.2,3.96-2.7c-0.2-2.52-2.43-1.61-3.89-1.89c-1.14-0.21-1.78-0.78-1.78-1.95c0-1.52,0.98-1.99,2.27-1.96
		c2.66,0.06,5.18-0.12,7.53-1.76c0.96-0.67,2.74-0.71,3.61,0.56c0.86,1.27,0.2,2.45-0.85,3.49c-0.67,0.66-0.95,1.73-1.62,2.38
		c-2.72,2.6-1.45,3.72,1.49,4.31c0.07,0.68,0.13,1.36,0.2,2.04c-1.28,1.82-0.82,2.77,1.42,2.82c0,0-0.04-0.04-0.04-0.04
		c-0.45,3.02,0.96,4.27,3.89,4.18c1.97-0.06,3.95-0.01,5.93,0c-0.55,2.68,1.28,4.32,2.74,6.05c1.4,1.66,2.81,3.26,3.24,5.49
		c1.31,6.83,3.46,8.77,10.4,9.43c11.14,1.07,14.6,4.16,17.14,14.8c0.55,2.33,0.36,4.61,0.55,6.91c0.08,1.04,0.26,2.06,1.59,2.08
		c1.14,0.02,2.03-0.71,2.13-1.73c0.52-5.45,0.84-11.02-2.17-15.86c-4.46-7.15-11.31-10.23-19.61-10.16
		c-2.49,0.02-5.46-0.28-5.58-2.91c-0.25-5.43-3.34-9.51-5.37-14.11c3.8-1.06,8.08-1.67,6.85-7.39c0.11-0.54,0.21-1.07,0.32-1.61
		c1.46-0.21,1.98-1.22,1.79-2.5c-0.59-4.02,1.46-5,4.93-4.47c0.37,0.32,0.74,0.63,1.11,0.95c0.23,0.51,0.52,0.7,0.94,0.18
		c1.42,0.45,2.4,1.41,3.12,2.68C232.63,57.44,233.35,58.13,234.82,58.05z M185.99,96.12c1.7,0,2.87,0.09,4.03-0.02
		c4.04-0.36,10.84-5.7,10.47-8.42c-0.49-3.59-1.05-7.22-2.14-10.66c-1.64-5.2-3.17-5.59-8.56-4.14c-4.73,1.27-7.89,4.65-10.23,8.26
		c-2.05,3.17-4.31,7.13-1.63,11.49C180.01,96.03,183.03,96.52,185.99,96.12z M215.92,120.13c7.51,0.7,11.18-4.79,15.18-9.59
		c2.37-2.85,1.61-4.82-2.08-5.3c-4.26-0.55-8.56-0.93-12.85-1.07c-4.77-0.16-8.44,4.48-8.24,10.06
		C208.07,118.39,210.41,120.12,215.92,120.13z M190.77,101.1c-1.4,1.47-0.69,2.37-0.57,3.32c0.58,4.44-2.99,7.23-7.22,6.08
		c-2.58-0.7-5.36-0.98-9.38,1.18c8.72,1.48,14.55,4.79,16.12,12.89c0.15,0.8,1.39,1.64,2.45,1.04c0.62-0.35,1.13-1.21,1.32-1.94
		c0.4-1.5-0.22-2.91-0.65-4.36c-0.73-2.48-3.31-4.63-2.05-7.42c1.6-3.54,5.03-1.04,7.54-1.76c0.8-0.23,1.69-0.17,1.98-1.15
		c0.22-0.71-0.05-1.58-0.67-1.66C195.65,106.81,193.16,103.9,190.77,101.1z"/>
	<path class="st9" d="M54.43,85.07c3.71-7.71,10.44-12.24,17.17-16.98C84.51,59,98.13,51.09,112.35,44.43
		c11.68-5.47,24.31-8.73,36.97-11.16c11.26-2.16,22.83-1.23,34.27-1.05c-0.54,4.18-5.44,3.32-7.17,6.22
		c-1.21,2.02-2.47,1.94-4.27,0.07c-3.21-3.33-7.18-5.65-12.04-4.02c-6.95,2.33-12.3,6.66-16.11,13.1c-1.87,3.15,0.44,2.28,1.78,2.61
		c-0.43,0.24-0.83,0.6-1.29,0.7c-31.72,6.81-57.22,22.56-73.71,51.25c-1.71,0.32-3.43,0.63-5.14,0.95c-0.04-1.09,0.16-2.27-1-2.99
		c5.52-5.5,5.02-9.29-1.85-12.34C60.12,86.6,57.22,85.96,54.43,85.07z"/>
	<path class="st10" d="M333.39,96.11c-1.78,0.09-2.68-0.57-2.8-2.53c-0.31-5.22-3.56-7.3-8.44-7.48c-1.26-0.05-2.44,0.11-3.41-1.32
		c-2.51-3.7-5.45-3.62-8.17-0.03c-2.94,3.87-3.26,3.96-5.96,1.52c2.45-0.26,4.58-1.01,5.07-3.82c0.51-2.89-0.51-5.07-2.99-6.77
		c-3.88-2.66-8.16-3.37-12.7-3c-7.2,0.59-11.21,5.69-15.18,10.82c0.39-6.17,2.91-9.02,10.13-11.35c0.88-0.28,2.23,0.06,2.23-1.31
		c-0.01-1.14-0.64-2.59-1.9-2.52c-4.08,0.24-4.9-2.37-4.98-5.73c-4.49,0.88-3.22,7.25-7.86,7.45c1-2.4,2.03-4.73,2.66-7.34
		c1.6-6.72,7.35-9.38,13.94-5.73c12.12,6.72,24.3,13.51,33.95,23.84C331.02,85.16,332.32,90.56,333.39,96.11z"/>
	<path class="st10" d="M227.51,52.15c-3.47-0.53-5.53,0.45-4.93,4.47c0.19,1.29-0.33,2.29-1.79,2.5c-0.04-2.96-0.9-5.44-3.32-7.44
		c-8.82-7.28-17.64-4.08-20.28,7.45c-2.94-0.59-4.21-1.71-1.49-4.31c0.68-0.65,0.95-1.71,1.62-2.38c1.05-1.04,1.72-2.22,0.85-3.49
		c-0.87-1.27-2.65-1.22-3.61-0.56c-2.35,1.64-4.86,1.82-7.53,1.76c-1.3-0.03-2.28,0.44-2.27,1.96c0,1.17,0.64,1.74,1.78,1.95
		c1.46,0.27,3.69-0.63,3.89,1.89c0.23,2.89-2.59,1.86-3.96,2.7c-1.24,0.76-2.57,1.54-4.16,1.35c2.53-6.01,1.97-7.67-3.68-10.96
		c0.97-1.52,1.07-3.21,0.98-4.94c0.38-0.96,1.05-1.62,2-1.99c1.45,0.01,2.91,0.02,2.99-2.01l0,0c5.36-0.35,5.64-0.57,5.01-4
		c0.02-0.4,0.03-0.81,0.05-1.21C204.31,36.22,217.07,41.64,227.51,52.15z"/>
	<path class="st11" d="M222.63,133.87c2.08-3.2,5.91-2.32,8.79-3.27c5.62-1.84,7.94-5.65,9.1-10.68c0.45-1.95,0.67-3.64,3.07-3.75
		c7.52-0.36,9.35-6.59,9.82-12.33c0.54-6.64-2.28-12.51-7.56-16.92c-0.13-0.11-0.26-0.21-0.4-0.3c-2.49-1.52-5.64-4.45-4.24-6.34
		c1.8-2.44,3.87,1.5,5.86,2.57c2.59,1.4,4.79,3.41,8.13,3.36c3.66-0.05,5.11-1.83,4.27-4.95c-0.74-2.76-0.01-7.3-5.41-6.46
		c-2.59,0.4-5.39,1.19-7.65-0.7c-1.12-0.93-3.75-2.89,0.61-3.36c1.25-0.13,1.54-1.61,1.71-2.8c6.05,1.28,10.85,4.95,15.88,8.21
		c-0.16,2.81-1.15,5.47-1.09,8.36c0.07,3.25-2,5.49-5.22,5.49c-4.24,0-3.68,1.97-2.69,4.71c1.71,4.74,2.57,9.46,1.15,14.6
		c-0.73,2.63-2.49,4.25-3.9,6.19c-2.59,3.56-2.26,6.61,0.75,9.59c-2.17,0.22-4.17,0.97-6.01,2.07
		C239.91,131.76,231.33,133.02,222.63,133.87z"/>
	<path class="st12" d="M54.43,85.07c2.79,0.89,5.69,1.53,8.34,2.71c6.87,3.05,7.37,6.84,1.85,12.34c-1.05,0.89-2.86,0.52-3.57,2.15
		c1.36,1.47,3.08,0.59,4.58,0.84c1.71-0.32,3.43-0.63,5.14-0.95c-0.8,2.16-1.7,4.3-2.36,6.5c-0.45,1.49-0.32,3.01,1.31,3.87
		c1.45,0.76,2.56-0.03,3.53-1c0.7-0.7,1.3-1.5,1.95-2.26c0.32,1.32,0.65,2.6,2.35,2.81c1.37,0.17,2.88,0.58,2.63,2.32
		c-0.23,1.58-1.89,1.7-3.15,2.01c-3.69,0.92-7.36,2.28-11.11,2.52c-4.47,0.3-5.73,2.5-5.48,6.41c-3.39-1.56-5.44-4.38-6.57-7.74
		c-2.02-5.99-3.98-12.04-3.4-18.52c3.93,0.57,7.49-0.84,11.06-2.11c1.61-0.58,2.99-1.63,2.89-3.58c-0.08-1.6-1.51-1.86-2.72-2.44
		c-2.9-1.39-5.85-2.2-9.07-1.83C52.52,87.46,52.86,85.99,54.43,85.07z M58.7,102.39c-2.13,0.43-3.57,0.72-5.02,1
		C55.3,103.96,56.96,104.81,58.7,102.39z"/>
	<path class="st6" d="M218.79,35.14c13.1-2.43,28.64,5.86,33.86,18.09c0.99,2.32,1.86,4.68-0.07,6.98
		c-10.52-5.52-18.85-13.98-28.25-21.01C222.49,37.83,220.63,36.49,218.79,35.14z"/>
	<path class="st11" d="M181.62,42.12c-0.96,0.38-1.63,1.04-2,1.99c-1.12,0.69-2.52,1.15-3.31,2.12c-1.2,1.47-2.47,2.2-4.27,1.68
		c-2.05-0.59-1.26-2.41-1.44-3.78c-0.46-3.38-2.33-5.39-5.7-5.95c-7.02-1.17-15.35,4.46-17.33,11.69c-0.6,0.11-1.2,0.22-1.8,0.33
		c-1.34-0.34-3.65,0.54-1.78-2.61c3.81-6.44,9.15-10.77,16.11-13.1c4.87-1.63,8.84,0.69,12.04,4.02c1.8,1.87,3.06,1.95,4.27-0.07
		c1.74-2.9,6.63-2.04,7.17-6.22c2.03,0.9,4.92-0.17,6.08,2.69c-0.02,0.4-0.03,0.8-0.05,1.21c-1.97,0.95-4.02,1.81-5.01,4
		c0,0,0,0,0,0C183.18,40.13,182.18,40.8,181.62,42.12z"/>
	<path class="st11" d="M215.67,159.27c-1.22-3.9-4.46-1.5-6.72-2.13c-2.64-0.73-7.24,1.64-7.59-1.64c-0.24-2.32,4.99-1.95,7.62-2.18
		c7.54-0.68,14.97-1.98,22.45-2.98c1.37-0.18,2.77-0.37,3.05,1.5c0.21,1.42-0.64,1.97-1.96,2.32c-2.41,0.63-4.8,1.06-7.32,1.01
		c-2.85-0.06-4.09,1.16-2.57,4.01C220.33,160.81,218,160.15,215.67,159.27z"/>
	<path class="st11" d="M62.46,128.22c4.47-1.56,8.98-3.05,13.42-4.71c5.55-2.09,10.5-1.29,14.08,2.47c0.91,0.96,2.19,2.02,1.2,3.38
		c-0.91,1.25-2.39,0.87-3.58,0.07c-1.37-0.92-2.86-1.75-3.99-2.91c-2.06-2.11-4.03-1.28-5.72,0.14c-2.36,1.97,0.17,3.06,1.15,4.35
		c0.87,1.15,2.48,2.3,0.72,3.7c-1.11,0.89-3.03,0.56-3.46-0.74c-2.24-6.75-6.28-5.63-10.87-2.78
		C63.59,131.03,62.74,129.91,62.46,128.22z"/>
	<path class="st9" d="M52.64,89.13c3.22-0.37,6.18,0.44,9.07,1.83c1.22,0.59,2.65,0.84,2.72,2.44c0.09,1.94-1.28,3-2.89,3.58
		c-3.57,1.27-7.13,2.68-11.06,2.11C50.58,95.63,51.19,92.29,52.64,89.13z"/>
	<path class="st11" d="M104.59,144c4.65-6.25,11.86-6.57,20.03-0.88C118.02,145.16,111.35,145.6,104.59,144z"/>
	<path class="st6" d="M39.38,98.87c-0.31-0.12-0.62-0.24-0.92-0.37c-2.37-1.04-6.7-1.18-5.72-4.48c0.96-3.24,5-4.19,8.64-3.84
		c0.11,0.01,0.17,0.6,0.25,0.91C40.43,93.56,39.6,96.13,39.38,98.87z"/>
	<path class="st1" d="M258.69,64.04c0.01-1.32,0.01-2.65,0.02-3.97c3.21-0.25,5.93,1.55,8.94,2.13
		C265.27,65.8,262.06,65.28,258.69,64.04z"/>
	<path class="st10" d="M234.82,58.05c-1.47,0.08-2.19-0.61-2.14-2.09C233.89,56.14,234.61,56.83,234.82,58.05z"/>
	<path class="st11" d="M205.56,159.16c1.05,0.01,2.1,0.02,3.16,0.04C207.65,160.34,206.6,160.31,205.56,159.16z"/>
	<path class="st11" d="M126.63,143.03c0.5-0.78,1.26-0.91,2.1-0.83C128.21,142.93,127.46,143.1,126.63,143.03z"/>
	<path class="st10" d="M229.56,53.28c-0.42,0.52-0.71,0.33-0.94-0.18C228.95,53.1,229.26,53.16,229.56,53.28z"/>
	<path class="st11" d="M96.6,143.13c0.33,0.24,0.66,0.48,0.99,0.72C97.25,143.61,96.93,143.37,96.6,143.13z"/>
	<path class="st11" d="M228.63,158.96c0.37-0.25,0.75-0.51,1.12-0.76C229.38,158.45,229.01,158.71,228.63,158.96z"/>
	<path class="st13" d="M145.78,50.21c0.6-0.11,1.2-0.22,1.8-0.33c1.68-0.26,3.37-0.52,5.05-0.78c1-0.05,2.01-0.11,3.01-0.16
		c7.66,0.04,15.33,0.08,22.99,0.12c5.65,3.29,6.21,4.95,3.68,10.96c-1.07,0.57-2.15,1.14-3.22,1.72c-1.49,0.17-2.98,0.33-4.47,0.49
		c-10.91-1.63-21.53,0.08-32.08,2.69c-2.21-0.03-4.24,0.68-6.22,1.59c-0.89,0.25-1.79,0.5-2.68,0.75
		c-21.77,6.4-39.68,18.67-54.37,35.8c-1.6,1.86-2.73,4.13-4.07,6.21c-0.65,0.76-1.25,1.56-1.95,2.26c-0.97,0.97-2.08,1.76-3.53,1
		c-1.64-0.85-1.77-2.38-1.31-3.87c0.67-2.2,1.56-4.34,2.36-6.5c16.5-28.7,42-44.44,73.71-51.25
		C144.95,50.81,145.35,50.45,145.78,50.21z"/>
	<path class="st12" d="M136.33,66.5c1.97-0.92,4-1.62,6.22-1.59c1.68,3.95,4.74,4.98,8.47,3.48c4.77-1.93,8.09-1.71,8.73,4.37
		c0.13,1.28,0.97,2.04,2.3,2.21c4.66,0.6,8.37-1.59,10.27-6.23c0.87-2.13,1.55-4.34,2.31-6.51c1.49-0.16,2.98-0.33,4.47-0.49
		c0.14,0.09,0.37,0.16,0.4,0.28c1.02,3.76-6.8,15.76-10.5,16.1c-0.66,0.06-1.33,0.01-1.99,0.02c-10.31,0.13-11.64,2.46-9.31,12.29
		c3.35,14.15,13.33,23.7,22.66,33.49c4.29,4.5,10.83,6.87,16.42,10.07c0.93,0.53,1.73,0.87,1.84,2.02c-2.13,0.01-4.26,0.14-6.38,0
		c-4.78-0.31-9.37-0.19-13.94,1.9c-2.61,1.19-1.11,2.01-0.54,3.18c-10.29,1.3-17.58-3.45-24.04-10.99
		c-2.75-3.21-6.19-5.82-8.54-9.52c-1.25-1.97-2.66-3.73-2.95-6.13c-0.17-1.36-2.37-2.95-0.65-3.89c2-1.09,2.9,1.35,4.14,2.63
		c1.62,1.66,1.28,4.81,4.15,5.64c0.87-1.71-0.45-2.68-0.81-3.86c-0.96-3.14-0.49-5.63,3-6.74c0.92-0.29,2.45-0.19,2.3-1.38
		c-0.46-3.54-4.02-5.03-5.74-7.85c-0.95-1.57-3.03-1.09-4.44,0.12c-2.49,2.12-5.24,2.6-7.65,0.39c-6.86-6.3-13.16-2.5-19.53,0.76
		c-1.17,0.6-2.18,1.51-3.27,2.26c-0.86,0.59-1.66,2.16-2.79,0.64c-0.65-0.87,0.06-1.94,0.84-2.62c5.94-5.19,13.4-6.65,20.74-8.34
		c1.62-0.37,2.81,0.91,3.67,2.18c1.69,2.52,4.59,2.57,6.1,1.12c5.05-4.89,7.52-0.67,10.51,2.34c0.98,0.98,1.02,2.99,3.37,2.81
		c-0.62-2.7-0.93-5.45-1.88-7.96c-2.37-6.31-2.17-12.23,1.5-18.04c1.06-1.68,1.81-3.81-1.9-2.78c-5.51,1.54-11.07,3.03-14.88-3.37
		c-0.26-0.44-1.56-0.27-2.37-0.38C136.52,67.58,136.42,67.04,136.33,66.5z M161.19,109.45c-1.33,0.45-2.72,1.22-4.16,1.34
		c-4.71,0.41-4.25,2.18-2.39,5.73c3.51,6.68,9.09,10.14,15.94,12.28c1.3,0.41,2.55,2.3,3.74,0.27c0.87-1.49,1.5-3.07-0.11-4.96
		c-3.75-4.39-8.22-8.21-10.91-13.47C162.92,109.87,162.25,109.36,161.19,109.45z"/>
	<path class="st13" d="M177.75,141.08c-0.57-1.17-2.07-1.99,0.54-3.18c4.57-2.09,9.15-2.21,13.94-1.9c2.12,0.14,4.25,0.01,6.38,0
		c8.09,0.2,16.14,0.01,24.02-2.12c8.7-0.85,17.28-2.11,24.98-6.7c1.85-1.1,3.85-1.85,6.01-2.07c6.53,3.2,6.99,7.8,1.12,11.83
		c-4.68,3.22-9.78,5.55-15.33,6.88C218.59,148.81,198.03,148.15,177.75,141.08z"/>
	<path class="st13" d="M278.81,83.51c3.97-5.13,7.98-10.23,15.18-10.82c4.55-0.37,8.82,0.35,12.7,3c2.48,1.7,3.49,3.88,2.99,6.77
		c-0.49,2.8-2.62,3.56-5.07,3.82c0,0-0.44-0.2-0.44-0.2s-0.48,0.02-0.48,0.02c-7.75-5.41-10.52-5.06-16.05,2.02
		c0,0-0.03,0.03-0.03,0.03c-0.29,0.34-0.58,0.67-0.86,1.01c0,0-0.07,0.1-0.07,0.1c-1.19,0.59-1.72,1.68-2.16,2.83
		c-1.23,0.99-1.57,2.43-2.02,3.84c-0.53,1.66-1.43,3.2-3.42,2.93c-1.99-0.26-3.04-1.77-3.47-3.71
		C274.62,90.7,277.25,87.25,278.81,83.51z"/>
	<path class="st13" d="M324.54,98.14c-0.5,2.91-1.04,5.99-5.01,6.05c-3.48,0.05-5.03-2.08-5.05-5.39c-0.02-3.25,1.43-5.49,4.89-5.6
		C322.51,93.1,324.2,94.89,324.54,98.14z"/>
	<path class="st10" d="M287.64,88.12c5.53-7.08,8.3-7.43,16.05-2.02C297.97,83.89,292.58,84.22,287.64,88.12z"/>
	<path class="st10" d="M284.52,92.09c0.44-1.16,0.97-2.25,2.16-2.83C286.63,90.71,286.53,92.12,284.52,92.09z"/>
	<path class="st10" d="M136.33,66.5c0.1,0.54,0.2,1.08,0.29,1.62c-1.06-0.04-2.21,0.19-2.98-0.86
		C134.54,67.01,135.43,66.76,136.33,66.5z"/>
	<path class="st10" d="M286.75,89.15c0.29-0.34,0.58-0.67,0.86-1.01C287.32,88.48,287.04,88.82,286.75,89.15z"/>
	<path class="st12" d="M185.99,96.12c-2.96,0.4-5.98-0.09-8.07-3.49c-2.68-4.36-0.42-8.32,1.63-11.49c2.34-3.62,5.5-7,10.23-8.26
		c5.39-1.44,6.92-1.06,8.56,4.14c1.08,3.44,1.65,7.07,2.14,10.66c0.37,2.72-6.43,8.07-10.47,8.42
		C188.86,96.2,187.69,96.12,185.99,96.12z"/>
	<path class="st13" d="M197.18,59.14c2.64-11.53,11.46-14.73,20.28-7.45c2.43,2,3.28,4.48,3.32,7.44c-0.11,0.54-0.21,1.07-0.32,1.61
		c-2.72,4.48-6.7,6.54-11.92,6.14c-3.47-0.27-6.7-1.37-9.79-2.93c0,0,0.04,0.04,0.04,0.04c-0.47-0.94-0.95-1.88-1.42-2.82
		C197.31,60.49,197.25,59.81,197.18,59.14z"/>
	<path class="st11" d="M215.91,120.13c-5.5-0.01-7.84-1.74-7.99-5.9c-0.19-5.58,3.48-10.22,8.24-10.06
		c4.29,0.14,8.59,0.52,12.85,1.07c3.69,0.48,4.46,2.45,2.08,5.3C227.09,115.34,223.43,120.83,215.91,120.13z"/>
	<path class="st11" d="M213.62,68.12c2.04,4.59,5.12,8.67,5.37,14.11c0.12,2.64,3.09,2.94,5.58,2.91
		c8.31-0.08,15.15,3.01,19.61,10.16c3.02,4.84,2.69,10.41,2.17,15.86c-0.1,1.03-0.99,1.75-2.13,1.73c-1.33-0.02-1.51-1.04-1.59-2.08
		c-0.19-2.3,0.01-4.58-0.55-6.91c-2.53-10.64-6-13.73-17.14-14.8c-6.94-0.66-9.1-2.61-10.4-9.43c-0.43-2.23-1.84-3.83-3.24-5.49
		c-1.46-1.73-3.29-3.38-2.74-6.05C210.26,68.12,211.94,68.12,213.62,68.12z"/>
	<path class="st11" d="M190.77,101.1c2.39,2.79,4.88,5.71,8.87,6.21c0.62,0.08,0.89,0.95,0.67,1.66c-0.3,0.98-1.19,0.92-1.98,1.15
		c-2.51,0.72-5.94-1.78-7.54,1.76c-1.26,2.79,1.32,4.95,2.05,7.42c0.43,1.45,1.05,2.86,0.65,4.36c-0.19,0.73-0.7,1.58-1.32,1.94
		c-1.06,0.61-2.3-0.24-2.45-1.04c-1.57-8.09-7.4-11.4-16.12-12.89c4.02-2.16,6.8-1.87,9.38-1.18c4.23,1.15,7.8-1.64,7.22-6.08
		C190.08,103.47,189.37,102.57,190.77,101.1z"/>
	<path class="st10" d="M213.62,68.12c-1.68,0-3.37,0-5.05,0c-1.98,0-3.95-0.06-5.93,0c-2.93,0.09-4.34-1.17-3.89-4.18
		c3.09,1.56,6.32,2.67,9.79,2.93c5.22,0.4,9.2-1.67,11.92-6.14C221.7,66.45,217.43,67.07,213.62,68.12z"/>
	<path class="st10" d="M197.38,61.17c0.47,0.94,0.95,1.88,1.42,2.82C196.56,63.94,196.1,63,197.38,61.17z"/>
	<path class="st8" d="M65.63,103.11c-1.5-0.24-3.21,0.64-4.58-0.84c0.71-1.63,2.53-1.26,3.57-2.15
		C65.79,100.84,65.58,102.01,65.63,103.11z"/>
	<path class="st14" d="M178.63,49.05c-7.66-0.04-15.33-0.08-22.99-0.12c2.02-0.77,3.29-4.34,6.29-1.58
		c1.06,0.98,2.63,1.18,3.36-0.35c0.86-1.8-0.42-2.54-2.03-3.16c-4.5-1.75-7.62-0.28-10.63,5.26c-1.68,0.26-3.37,0.52-5.05,0.78
		c1.98-7.23,10.3-12.86,17.33-11.69c3.37,0.56,5.24,2.57,5.7,5.95c0.18,1.36-0.6,3.18,1.44,3.78c1.8,0.52,3.07-0.21,4.27-1.68
		c0.78-0.96,2.18-1.43,3.31-2.12C179.71,45.85,179.6,47.54,178.63,49.05z"/>
	<path class="st14" d="M184.61,40.12c0.99-2.18,3.03-3.05,5.01-4C190.25,39.55,189.98,39.77,184.61,40.12z"/>
	<path class="st14" d="M181.62,42.12c0.56-1.32,1.56-2,2.99-2.01C184.53,42.14,183.08,42.13,181.62,42.12z"/>
	<path class="st8" d="M58.7,102.39c-1.74,2.42-3.41,1.57-5.02,1C55.13,103.11,56.57,102.82,58.7,102.39z"/>
	<path class="st7" d="M174.62,62.22c-0.76,2.17-1.44,4.38-2.31,6.51c-1.9,4.64-5.61,6.84-10.27,6.23c-1.33-0.17-2.17-0.93-2.3-2.21
		c-0.64-6.07-3.96-6.29-8.73-4.37c-3.72,1.5-6.79,0.47-8.47-3.48C153.09,62.3,163.72,60.59,174.62,62.22z"/>
	<path class="st11" d="M152.63,49.09c3.01-5.54,6.13-7.01,10.63-5.26c1.61,0.63,2.89,1.36,2.03,3.16c-0.73,1.53-2.3,1.33-3.36,0.35
		c-3-2.76-4.26,0.81-6.29,1.58C154.64,48.98,153.63,49.04,152.63,49.09z"/>
	<path class="st8" d="M161.19,109.45c1.05-0.09,1.72,0.41,2.11,1.18c2.68,5.26,7.15,9.09,10.91,13.47c1.62,1.89,0.99,3.48,0.11,4.96
		c-1.19,2.03-2.43,0.14-3.74-0.27c-6.85-2.13-12.43-5.6-15.94-12.28c-1.86-3.54-2.33-5.32,2.39-5.73
		C158.48,110.67,159.87,109.9,161.19,109.45z"/>
</g>
</svg>
