<?xml version="1.0" encoding="utf-8"?>
<!-- Generator: Adobe Illustrator 26.1.0, SVG Export Plug-In . SVG Version: 6.00 Build 0)  -->
<svg version="1.1" id="Layer_1" xmlns="http://www.w3.org/2000/svg" xmlns:xlink="http://www.w3.org/1999/xlink" x="0px" y="0px"
	 viewBox="0 0 380 234" style="enable-background:new 0 0 380 234;" xml:space="preserve">
<style type="text/css">
	.st0{fill:#215974;}
	.st1{fill:#178D95;}
	.st2{fill:#286E85;}
	.st3{fill:#175B77;}
	.st4{fill:#232761;}
	.st5{fill:#155C77;}
	.st6{fill:#37A28D;}
	.st7{fill:#38A18D;}
	.st8{fill:#145C77;}
	.st9{fill:#155D72;}
	.st10{fill:#188C95;}
	.st11{fill:#3B58A4;}
	.st12{fill:#3951A0;}
	.st13{fill:#3859A8;}
	.st14{fill:#CCE2F7;}
</style>
<g>
	<path class="st0" d="M211.35,219.69c-39.07,0.31-72.65-3.21-105.54-12.16c-8.96-2.44-17.19-6.94-25.86-10.02
		c-10.38-3.68-19.61-8.84-27.83-15.87c-19.22-16.45-34.16-36.09-38.72-61.41c-3.36-18.64,3.02-35.77,14.76-50.36
		c16.97-21.1,40.46-32.17,65.5-40.28c19.25-6.23,39.07-9.74,59.29-11.28c20.13-1.54,40.28-1.74,60.31,0.31
		c38.66,3.97,75.9,13.27,109.9,32.87c15.39,8.87,29.02,20,39.4,34.68c12.17,17.2,14.6,35.63,8.08,55.72
		c-3.86,11.89-9.06,22.97-15.68,33.48c-3.86,6.12-9.53,10.44-15.55,13.75c-12.83,7.07-25.28,15-39.61,19.1
		c-16.12,4.61-32.48,7.66-49.16,9.45C235.88,219.25,221.12,219.84,211.35,219.69z M26.95,80.49c0.8,0.43,0.98,1.17,1,1.99
		c-0.03,1.1,0.15,2.28-1.02,3c-0.97,0.01-1.94,0.01-2.91,0.02c-1.7-3.76-2.47-0.4-2.77,0.56c-1.89,5.99-3.64,12.03-5.24,18.1
		c-0.59,2.21-0.99,4.57-0.91,6.84c0.42,12.22,5.63,22.99,11,33.55c7.44,14.6,18.64,26.11,31.36,36.26c6.11,4.88,13,8.11,19.95,11.64
		c12.7,6.44,25.9,10.75,39.58,14.07c18.05,4.38,36.34,6.83,54.87,8.12c11.24,0.78,22.51,2.07,33.72,1.6
		c9.46-0.4,18.93-0.27,28.35-0.91c4.61-0.31,9.27-0.47,13.85-1.06c13.26-1.7,26.48-3.68,39.54-6.71c9.87-2.29,19.65-5.06,28.44-9.89
		c7.59-4.17,15.03-8.81,22.34-13.52c9.86-6.35,17.04-15.57,22.36-25.64c4.17-7.88,6.36-16.96,8.46-25.74
		c2.83-11.8,0.95-23.37-4.04-34.41c-0.6-1.32-1.08-2.9-3.01-2.9c-0.75-0.43-0.9-1.14-0.92-1.91c0.01-0.87-0.18-1.64-1.03-2.09
		c-0.43-2.53-1.59-4.72-3.2-6.66c-7.55-9.12-16.28-16.87-26.08-23.58c-23.57-16.14-49.84-25.43-77.4-31.97
		c-25.83-6.13-51.93-8.02-78.42-8.02c-23.56,0-46.6,3.09-69.31,8.66c-20.74,5.09-40.47,13-57.84,25.77
		C39.16,61.95,31.16,68.92,26,78.48C24.41,80.05,25.64,80.29,26.95,80.49z"/>
	<path class="st1" d="M26,78.48c5.16-9.56,13.15-16.53,21.68-22.8C65.06,42.91,84.78,35,105.52,29.91
		c22.71-5.58,45.75-8.66,69.31-8.66c26.48,0,52.58,1.89,78.42,8.02c27.56,6.54,53.83,15.83,77.4,31.97
		c9.79,6.71,18.53,14.46,26.08,23.58c1.61,1.94,2.77,4.13,3.2,6.66c-1.28,0.03-1.93,0.71-2.01,1.97c-1.78,1.65-0.51,3.33-0.14,5.06
		c1.35,6.3,2.92,12.5,1.66,19.14c-2.83,14.96-11.94,25.64-23.3,34.7c-12.59,10.03-27.07,16.5-42.2,21.79
		c-21.9,7.66-44.6,11.74-67.54,13.03c-20.83,1.18-41.81,1.12-62.7-1.53c-23.43-2.97-46.32-7.89-68.45-16.21
		c-20.58-7.74-39.65-18.01-54.94-34.16c-13.34-14.09-19.16-30.44-13.39-49.79c1.17-0.72,0.99-1.89,1.02-3
		c1.58-1.62,1.2-2.6-0.97-3.01C26.65,79.15,26.33,78.82,26,78.48z M36.96,106.49c0.26,2.09,2.2,3.18,2.99,4.96
		c-1,0.97-2.96,0.5-3.66,2.74c9.75,1.13,19.18-1.1,30.14-1.57c-6.76,4.21-12.24,7.59-17.68,11.04c-1.36,0.87-3.25,1.85-2.38,3.81
		c0.81,1.81,2.53,0.7,3.95,0.43c9.9-1.87,19.81-3.69,29.72-5.52c0,0,0.01,0.05,0.01,0.05c0.34,0.3,0.67,0.6,1.01,0.89
		c1.07,1.01,2.13,2.03,3.2,3.04c-1.7,1.71-3.89,2.4-6.12,3.13c-6.43,2.12-12.84,4.29-19.21,6.58c-2.49,0.9-4.41,2.59-1.65,5.08
		c2.82,2.54,5.99,4.7,9.09,6.9c0.98,0.69,2.39,0.77,3.15-0.34c0.8-1.17-0.02-2.27-0.96-3.01c-1.43-1.12-2.96-2.12-4.48-3.14
		c-0.82-0.55-1.92-0.95-1.67-2.17c0.23-1.12,1.4-1.33,2.3-1.65c2.64-0.95,5.45-1.52,7.95-2.75c2.52-1.24,3.95-0.92,4.95,1.72
		c0.34,0.91,0.93,1.8,1.62,2.47c0.99,0.96,1.91,2.86,3.63,1.6c1.86-1.36,0.79-2.81-0.34-4.23c-1.09-1.36-3.95-2.69-1.54-4.7
		c1.65-1.38,3.86-1.74,6.27,0.21c5.97,4.84,6.13,4.65,9.73-0.64c10.24,1.68,20.52,3,30.81,4.32c10.69,1.38,21.51-0.73,32.07,1.88
		c4.74,6.75,14.61,10.69,22.05,8.84c0.84-0.21,1.66-0.4,1.8-1.36c0.17-1.13-0.45-2.08-1.45-2.3c-1.73-0.39-3.47-0.63-5.34-0.52
		c-2.82,0.15-5.72-0.33-7.72-3.17c2.88-1.29,5.26,0.2,7.53,0.66c2.67,0.54,4.07-0.14,5.28-2.21c0.32-0.03,0.64-0.05,0.96-0.05
		c1.14,1.64,2.34,3.23,2.03,5.44c-0.52,3.73,1.81,5.36,4.94,5.4c3.19,0.04,4,0.87,3.22,4.02c-0.43,1.72,1.04,3.87,2.85,2.56
		c2.01-1.45,1.01-4.6,1.71-6.95c0.51-1.69-1.53-3-2.8-2.86c-5.83,0.63-6.25-4.03-7.9-7.55c0.97-0.01,1.95-0.01,2.92-0.02
		c2.44,3.53,6.45,4.32,10.02,6.01c13.16,6.22,26.7,1.53,40.06,1.73c0.46,0.01,0.92-0.34,1.38-0.54c6.79-2.96,13.08-12.94,12.9-20.6
		c-0.03-1.15,0.44-1.88,1.15-2.6c6.1-6.19,6.54-13.49,3.88-21.2c-1.13-3.29-1.51-5.18,3.06-5.06c2.66,0.07,3.93-2.54,4.33-4.83
		c0.61-3.43,1.06-7.29-1.41-10.06c-4.02-4.52-3.49-9.7-3.25-14.96c7.29,0.88,13.98,3.88,20.85,6.12
		c18.47,6.03,35.62,15.04,52.64,24.25c3.64,1.97,7.33,2.71,9.72-0.97c2.2-3.4,0.1-6.72-2.68-9.2
		c-10.67-9.52-22.75-17.16-35.33-23.63c-12.38-6.37-25.16-12.22-38.64-16.16c-5.71-1.67-11.4-3.37-17.11-5.04
		c-1.32-0.39-2.63-0.59-3.61,0.74c-0.88-0.41-1.87-0.67-2.63-1.24c-6.54-4.89-13.56-6.61-21.35-3.32c-0.97,0.41-1.92,0.59-2.83-0.02
		c-5.86-3.95-12.5-3.48-19.08-3.44c-2.01-0.01-4.03-0.02-6.04-0.03c-10.3-0.4-20.64-0.18-30.78,1.3
		c-13.87,2.01-27.82,3.95-41.15,8.68c-11.31,4.02-22.35,8.6-32.1,15.73c-5.87,4.29-5.76,13.2-0.05,17.62
		c4.92,3.81,8.67,3.24,16.42-1.1c10.55-5.91,21.53-10.93,33.52-13.28c-2.13,4.8-0.53,9.52,2.1,13.05c4.09,5.47,10.4,2.13,16.26,1.68
		c-1.2,3.21-2.17,5.8-3.14,8.39l-0.04,0.02c-0.35,0.28-0.7,0.57-1.05,0.85c-19.29-1.09-38.1,1.25-55.79,9.27
		c-9.7,4.4-18.97,9.87-21.23,21.81c-5.24,2.54-10.82,3.01-16.56,3.08c3.54-3.01,7.23-5.47,11.01-7.79c1.51-0.92,3-1.86,2.39-3.81
		c-0.7-2.23-2.64-1.39-4.21-1.2c-4.23,0.51-8.45,1.05-12.67,1.57c0.02-0.26,0.02-0.52,0-0.78c2.29-0.83,4.55-1.81,6.89-2.46
		c3.96-1.1,6.12-3.52,6.25-7.67c1.34-1.43,2.87-2.72,3.99-4.31c2.86-4.08,2.43-9.63-0.87-13.88c-2.64-3.39-8.27-5.13-12.38-3.87
		c-7.57,2.32-12.73,7.89-18.04,13.28c-2.43,3.69-7.33,2.59-10.34,5.46c-2.81,2.68-3.45,5.63-0.8,8.45
		C34.6,104.67,35.83,105.53,36.96,106.49z M196.8,174.85c-2.54-0.3-3.51-1.75-4.79-2.78c-4.9-3.94-9.71-8.01-14.83-11.66
		c-3.01-2.14-7.24-0.95-6.75,1.42c1.36,6.5-0.39,12.45-2.21,18.5c-0.44,1.46-1.03,3.6,1.43,4.02c2.36,0.4,3.05-1.25,3.34-3.33
		c0.53-3.76,1.2-7.5,1.94-11.22c0.33-1.66-1.09-4.26,1.18-4.8c1.9-0.45,3.43,1.64,4.89,3.02c4.59,4.32,9.19,8.63,13.86,12.85
		c2.81,2.54,5.73,2.06,5.92-1.07c0.38-6.11,0.06-12.25,1.13-18.34c0.23-1.32,0-2.79-1.91-2.82c-1.88-0.03-1.81,1.39-2.09,2.74
		C196.99,165.75,196.91,170.18,196.8,174.85z M147.1,153.3c-3.15,0.02-6.17-0.18-6.45,4.32c-0.06,0.91-1.34,1.81-2.18,2.59
		c-3.59,3.3-5.53,7.82-8.56,11.53c-0.78,0.96-1.65,3.1,0.02,3.35c5.6,0.85,10.35,4.67,16.2,4.4c1.15-0.05,2.52,0.05,2.59-1.6
		c0.06-1.38-0.91-2.02-2.16-2.31c-3.06-0.71-6.12-1.43-9.17-2.19c-1.41-0.35-2.45-0.93-1.89-2.76c1.24-4.04,4.35-5.81,8.38-4.72
		c1.11,0.3,2.26,0.55,3.4,0.61c2.2,0.13,5.56,2.9,6.31-0.66c0.81-3.82-3.66-2.04-5.6-3c-1.61-0.8-3.44-0.27-2.97-3.22
		c0.49-3.12,2.6-2.18,4.11-2.01c3.1,0.35,6.14,1.24,9.24,1.73c1.4,0.22,3.19,0.57,3.47-1.67c0.23-1.87-1.16-2.08-2.54-2.3
		C155.23,154.71,151.17,154,147.1,153.3z M237.77,157.65c-0.29-1.46-1.3-2.12-2.85-1.92c-9.5,1.24-19,2.5-28.5,3.76
		c-0.78,0.1-1.84-0.05-1.93,1.07c-0.09,1.25,0.93,1.77,1.93,1.81c2.81,0.13,5.7,0.6,8.42-0.4c2.64-0.97,3.95,0.08,5.1,2.36
		c2.39,4.75,5.01,9.39,7.48,14.1c0.97,1.85,2.13,4.05,4.43,2.69c2.43-1.42,0.61-3.58-0.3-5.21c-1.93-3.48-3.85-7.01-6.17-10.23
		c-2.66-3.71-0.56-4.66,2.57-5.13c2.44-0.37,5,0.37,7.39-0.74C236.36,159.36,237.78,159.43,237.77,157.65z M109.29,167.46
		c2.23,0.31,4.31-0.24,6.35-1.02c1.34-0.51,2.56-1.24,1.95-2.88c-0.53-1.44-1.95-1.13-3.01-0.78c-2.94,0.96-5.87,1.16-8.79,0.1
		c-4.42-1.61-4.7-2.85-1.51-6.16c1.62-1.68,3.21-3.39,4.97-4.92c4.8-4.18,10.64-4.5,15.37-0.85c0.78,0.6,1.27,1.75,2.27,0.46
		c0.6-0.78,1.15-1.69,0.51-2.74c-0.72-1.18-1.9-1.78-3.04-2.49c-8.31-5.2-19.42,1.81-24.69,10.1c-2.57,4.04-1.07,8.21,3.35,10.08
		C104.97,167.18,107.07,167.86,109.29,167.46z"/>
	<path class="st2" d="M361.87,95.47c1.93,0,2.42,1.59,3.01,2.9c4.99,11.04,6.86,22.61,4.04,34.41c-2.1,8.78-4.3,17.86-8.46,25.74
		c-5.32,10.06-12.49,19.29-22.36,25.64c-7.32,4.71-14.75,9.35-22.34,13.52c-8.78,4.83-18.57,7.6-28.44,9.89
		c-13.06,3.03-26.28,5-39.54,6.71c-4.58,0.59-9.24,0.74-13.85,1.06c-9.42,0.64-18.9,0.51-28.35,0.91
		c-11.2,0.47-22.48-0.82-33.72-1.6c-18.53-1.29-36.82-3.73-54.87-8.12c-13.68-3.32-26.88-7.63-39.58-14.07
		c-6.95-3.52-13.83-6.76-19.95-11.64c-12.72-10.15-23.93-21.66-31.36-36.26c-5.38-10.56-10.58-21.33-11-33.55
		c-0.08-2.27,0.32-4.63,0.91-6.84c1.61-6.07,3.36-12.11,5.24-18.1c0.3-0.96,1.07-4.32,2.77-0.56c-5.72,19.88-0.59,37.03,13.31,51.81
		c7.28,7.74,15.66,14.08,24.69,19.82c16.41,10.42,34.23,17.21,52.75,22.45c21.24,6,42.86,9.58,64.95,11.14
		c21.65,1.52,43.15,0.75,64.61-1.43c15.65-1.59,31.05-4.95,46.05-9.85c21.51-7.04,41.8-16.37,57.9-32.85
		c10.48-10.73,16.78-23.33,15.76-38.91C363.76,103.48,361.79,99.68,361.87,95.47z"/>
	<path class="st3" d="M361.87,95.47c-0.08,4.2,1.89,8.01,2.17,12.21c1.02,15.58-5.28,28.18-15.76,38.91
		c-16.1,16.48-36.38,25.81-57.9,32.85c-15,4.91-30.41,8.26-46.05,9.85c-21.46,2.18-42.96,2.96-64.61,1.43
		c-22.09-1.56-43.7-5.14-64.95-11.14c-18.52-5.23-36.34-12.02-52.75-22.45c-9.03-5.74-17.41-12.08-24.69-19.82
		c-13.9-14.78-19.03-31.93-13.31-51.81c0.97-0.01,1.94-0.01,2.91-0.02c-5.77,19.35,0.05,35.7,13.39,49.79
		c15.29,16.15,34.36,26.42,54.94,34.16c22.12,8.32,45.01,13.23,68.45,16.21c20.89,2.65,41.87,2.7,62.7,1.53
		c22.94-1.29,45.63-5.37,67.54-13.03c15.14-5.29,29.61-11.77,42.2-21.79c11.37-9.05,20.47-19.73,23.3-34.7
		c1.25-6.64-0.31-12.84-1.66-19.14c-0.37-1.73-1.64-3.42,0.14-5.06c1.01,0.04,2.02,0.08,3.03,0.11
		C360.97,94.34,361.12,95.05,361.87,95.47z"/>
	<path class="st2" d="M360.95,93.56c-1.01-0.04-2.02-0.08-3.03-0.11c0.07-1.26,0.72-1.94,2.01-1.97
		C360.77,91.92,360.96,92.69,360.95,93.56z"/>
	<path class="st3" d="M26.98,79.48c2.17,0.41,2.55,1.39,0.97,3.01c-0.02-0.82-0.2-1.56-1-1.99C26.96,80.16,26.97,79.82,26.98,79.48z
		"/>
	<path class="st2" d="M26.98,79.48c-0.01,0.34-0.02,0.68-0.03,1.01c-1.31-0.2-2.54-0.44-0.94-2.01
		C26.33,78.82,26.65,79.15,26.98,79.48z"/>
	<path class="st4" d="M84.25,126.37c-1.07-1.01-2.13-2.03-3.2-3.04c-0.34-0.3-0.67-0.6-1.01-0.9c0,0-0.01-0.05-0.01-0.05
		c-0.37-1.63-0.73-3.25-1.1-4.88c2.26-11.95,11.52-17.41,21.23-21.81c17.68-8.02,36.49-10.36,55.78-9.27
		c0.35-0.28,0.7-0.57,1.05-0.85c0,0,0.04-0.02,0.04-0.02c1.67-0.05,3.33-0.09,5-0.14c5.64,1.38,11.27,2.76,16.91,4.14
		c1.78,1.32,3.82,1.85,6.01,1.92c1,0.33,2,0.67,3.01,1c4.54,2.28,9.67,3.2,13.99,6.01c6.38,3.61,13.79,5.43,19.04,11
		c3.58,5.88,0.59,11.35-1.08,16.9l-0.06,0.06c-0.8,0.01-1.49,0.21-1.9,0.99c-5.88,5.58-13.59,6.42-20.97,8.13
		c-2.57-0.12-4.79,1.02-7.05,1.99c-0.97,0.01-1.95,0.01-2.92,0.02c-1.35-0.02-2.7-0.04-4.05-0.06c-0.32,0-0.64,0.01-0.96,0.05
		c-7.38,0.02-14.76,0.04-22.14,0.07c-10.56-2.61-21.39-0.51-32.07-1.88c-10.29-1.32-20.57-2.65-30.81-4.32
		C92.73,129.74,88.49,128.06,84.25,126.37z M171.97,98.49c-0.48-0.78-1.21-0.93-2.04-0.77c-1.61-0.1-3.22-0.19-4.83-0.28
		c-0.77-1.07-1.93-0.99-3.05-1c-1.7-0.95-3.4-1.91-5.1-2.86c-1.39-2.42-3.47-2.97-6.22-3.12c-12.53-0.68-24.36,2.69-36.16,6.06
		c-10.13,2.89-19.93,6.54-26.64,15.45c-4.17,5.53-3.8,7.55,2.76,9.56c16.52,5.07,33.61,5.81,50.72,5.69
		c3.09-0.02,6.25-0.91,9.4-0.53c9.7,1.17,19.37,2.97,29.15,0.64c2.7-0.1,5.49,0.9,8.05-0.71c0.98-0.06,1.96-0.11,2.95-0.17
		c6-0.95,12.1-1.45,17.53-4.65c2.23-1.32,3.5-3.16,3.38-5.61c-0.11-2.27-1.95-3.25-3.98-3.86c-0.94-0.28-1.79-0.89-2.74-1.16
		c-6.67-1.91-11.96-7.17-19.15-7.79c-3.3-2.31-7.11-3.19-10.98-3.9C174.24,98.39,173.09,98.5,171.97,98.49z"/>
	<path class="st5" d="M162.03,85.42c-1.67,0.05-3.33,0.09-5,0.14c0.97-2.59,1.94-5.17,3.14-8.39c-5.85,0.45-12.17,3.78-16.26-1.68
		c-2.64-3.53-4.23-8.25-2.1-13.05c2.75-7.7,7.7-13.86,13.88-18.98c6.76-5.61,13.64-5.34,19.98,0.62c1.41,1.32,2.04,1.07,3.18,0.06
		c4.95-4.36,11.13-6.34,17.09-8.71c2.02-0.65,4.28-0.52,6.06-1.91c6.57-0.03,13.22-0.51,19.07,3.44c0.91,0.61,1.85,0.43,2.83,0.02
		c7.8-3.29,14.81-1.56,21.35,3.32c0.76,0.57,1.75,0.84,2.63,1.24c7.51,6.31,13.79,13.35,14.16,23.89
		c-0.24,5.27-0.77,10.45,3.25,14.96c2.47,2.77,2.01,6.63,1.41,10.06c-0.4,2.29-1.67,4.89-4.33,4.83c-4.57-0.11-4.2,1.77-3.06,5.06
		c2.66,7.71,2.22,15.01-3.88,21.2c-0.7,0.71-1.17,1.44-1.15,2.6c0.19,7.66-6.11,17.63-12.9,20.6c-0.45,0.2-0.92,0.55-1.38,0.54
		c-13.36-0.2-26.91,4.49-40.06-1.73c-3.58-1.69-7.59-2.48-10.02-6.01c2.26-0.97,4.48-2.12,7.05-1.99c-1.19,2.04,0.14,2.5,1.75,3.04
		c8.48,2.85,16.8,5.09,26.12,4.15c9.21-0.93,16.99-10.45,19.04-16.87c0.81-2.52,0.57-6.01,5.05-3.78c1.02,0.51,1.88-1.13,2.74-1.87
		c8.6-7.48,5.46-21.67-1.21-26.99c-1.94-1.55-3.8-3.22-5.51-5.01c-0.74-0.77-1.57-2.09-0.44-3.1c0.98-0.88,1.72,0.38,2.54,0.82
		c2.9,1.58,5.24,4.1,8.59,4.95c2.29,0.58,4.93,1.55,6.5-0.57c1.86-2.53,0.48-5.34-0.71-8c-1.16-2.62-2.78-2.64-5.22-1.98
		c-1.69,0.46-3.67,0.21-5.43-0.16c-1.36-0.28-3.29-0.72-3.3-2.51c-0.02-1.74,2.01-1.44,3.11-1.87c6.13-2.4,7.98-5.87,6.33-12.35
		c-0.76-10.03-13.09-21.2-24.45-23.12c-4.5-0.76-9.02,1.36-13.15-0.37c-11.2-4.69-21.21-2.39-30.85,4.13
		c-3.91,2.64-6.53,6.64-10.39,9.25c-1.06,0.72-2.24,1.59-3.67,0.79c-1.43-0.8-0.59-2-0.56-3.1c0.15-4.93-2.12-7.23-7.08-7.59
		c-3.54-0.25-6.6,0.83-9.21,3.04c-4.22,3.56-7.79,7.67-9.73,12.96c-0.23,0.24-0.53,0.44-0.68,0.72c-2.2,4.07-2.77,8.52,0.03,12.19
		c2.51,3.28,6.1,1.73,9.55,0.48c3.57-1.3,5.59,0.92,6.16,4.39c0.2,1.25,0.03,2.56,0.03,3.99c1.49-0.46,2.93-1.34,4.32-1.27
		c5.63,0.28,7.3-2.68,9.32-7.69c3.07-7.62,10.98-15.02,21.25-12.14c13.72,3.84,20.48,13.87,24.84,26.05
		c1.12,3.14,2.01,4.22,5.2,4.36c16.59,0.71,22.13,9.42,22.05,22.34c-0.01,2.38,0.62,6.17-2.46,6.07c-2.96-0.1-1.37-3.83-1.46-5.89
		c-0.52-11.58-6.41-18.37-16.4-18.57c-7.68-0.16-9.48-1.68-12.22-9.11c-3.02-8.17-8.31-14.73-15.67-19.41
		c-5.94-3.78-12.65-3.26-16.88,1.45c-2.62,2.92-5.24,6.05-5.92,10.21c-0.68,4.13-3.29,5.9-7.37,5.85
		C168.26,83.45,164.88,83.16,162.03,85.42z M237.71,141.36c5.21-1.33,12.86-9.29,13.03-12.82c0.03-0.57-0.22-1.42-0.63-1.67
		c-0.75-0.46-1.77-0.23-2.06,0.68C246.32,133,242.19,136.79,237.71,141.36z"/>
	<path class="st6" d="M195.95,35.44c-5.97,2.38-12.15,4.35-17.09,8.71c-1.15,1.01-1.78,1.26-3.18-0.06
		c-6.34-5.96-13.22-6.23-19.98-0.62c-6.17,5.12-11.13,11.28-13.88,18.98c-11.99,2.35-22.97,7.37-33.52,13.28
		c-7.75,4.34-11.5,4.91-16.42,1.1c-5.7-4.42-5.82-13.33,0.05-17.62c9.75-7.13,20.79-11.71,32.1-15.73
		c13.33-4.73,27.28-6.67,41.15-8.68c10.14-1.47,20.49-1.69,30.78-1.3C195.96,34.14,195.96,34.79,195.95,35.44z"/>
	<path class="st6" d="M262.06,65.45c-0.37-10.54-6.65-17.58-14.16-23.89c0.98-1.33,2.29-1.13,3.6-0.74
		c5.71,1.67,11.4,3.38,17.11,5.04c13.48,3.94,26.26,9.79,38.64,16.16c12.58,6.48,24.66,14.11,35.33,23.63
		c2.78,2.48,4.88,5.8,2.68,9.2c-2.38,3.68-6.07,2.94-9.72,0.97c-17.02-9.21-34.17-18.22-52.64-24.25
		C276.04,69.33,269.35,66.33,262.06,65.45z"/>
	<path class="st7" d="M44.73,89.68c5.3-5.39,10.46-10.96,18.04-13.28c4.11-1.26,9.74,0.48,12.38,3.87c3.3,4.25,3.74,9.79,0.87,13.88
		c-1.11,1.59-2.65,2.88-3.99,4.31c-2.21-4.4-6.38-5.66-10.67-7.02C55.89,89.71,50.13,91.58,44.73,89.68z"/>
	<path class="st8" d="M78.93,117.51c0.37,1.63,0.73,3.26,1.1,4.88c-9.91,1.83-19.82,3.65-29.72,5.52c-1.42,0.27-3.14,1.38-3.95-0.43
		c-0.87-1.96,1.02-2.94,2.38-3.81c5.44-3.45,10.92-6.83,17.68-11.04c-10.96,0.47-20.39,2.69-30.14,1.57
		c0.7-2.24,2.66-1.77,3.66-2.74c6.32-0.7,12.63-1.4,18.95-2.1c4.23-0.53,8.45-1.06,12.68-1.57c1.57-0.19,3.51-1.03,4.21,1.2
		c0.62,1.95-0.88,2.88-2.39,3.81c-3.78,2.32-7.47,4.78-11.01,7.79C68.11,120.51,73.7,120.04,78.93,117.51z M60.35,122.01
		c-0.25-0.02-0.51-0.04-0.76-0.07c0.12,0.09,0.23,0.25,0.36,0.26C60.07,122.22,60.21,122.08,60.35,122.01z"/>
	<path class="st8" d="M196.8,174.85c0.11-4.67,0.19-9.11,1.12-13.47c0.29-1.35,0.21-2.76,2.09-2.74c1.91,0.03,2.14,1.5,1.91,2.82
		c-1.06,6.08-0.75,12.23-1.13,18.34c-0.19,3.13-3.11,3.61-5.92,1.07c-4.68-4.22-9.28-8.53-13.86-12.85c-1.46-1.38-3-3.47-4.89-3.02
		c-2.27,0.53-0.85,3.14-1.18,4.8c-0.75,3.72-1.41,7.46-1.94,11.22c-0.29,2.08-0.98,3.73-3.34,3.33c-2.46-0.42-1.87-2.56-1.43-4.02
		c1.82-6.05,3.57-12,2.21-18.5c-0.5-2.36,3.74-3.56,6.75-1.42c5.12,3.64,9.92,7.72,14.83,11.66
		C193.29,173.1,194.26,174.55,196.8,174.85z"/>
	<path class="st9" d="M44.73,89.68c5.39,1.89,11.16,0.03,16.62,1.76c4.29,1.36,8.46,2.62,10.67,7.02c-0.14,4.14-2.29,6.57-6.25,7.67
		c-2.34,0.65-4.6,1.63-6.89,2.46c-7.38-0.01-14.78,0.22-21.93-2.09c-1.13-0.96-2.36-1.82-3.36-2.9c-2.65-2.82-2.01-5.77,0.8-8.45
		C37.4,92.28,42.31,93.38,44.73,89.68z M52.81,94.51c-4.79-0.35-9.87-0.04-14.49,2.8c-1.14,0.7-2.71,1.29-2.69,2.67
		c0.02,1.35,1.45,2.16,2.72,2.63c9.13,3.32,18.21,2.6,27.19-0.58c1.24-0.44,2.27-1.5,2.3-3c0.03-1.6-1.21-2.17-2.44-2.79
		C61.54,94.27,57.39,94.37,52.81,94.51z"/>
	<path class="st8" d="M147.1,153.3c4.06,0.7,8.13,1.42,12.2,2.09c1.38,0.23,2.77,0.44,2.54,2.3c-0.28,2.24-2.07,1.89-3.47,1.67
		c-3.09-0.49-6.13-1.38-9.24-1.73c-1.5-0.17-3.61-1.11-4.11,2.01c-0.47,2.95,1.37,2.42,2.97,3.22c1.94,0.97,6.41-0.82,5.6,3
		c-0.75,3.57-4.11,0.79-6.31,0.66c-1.14-0.07-2.29-0.31-3.4-0.61c-4.03-1.09-7.13,0.68-8.38,4.72c-0.57,1.83,0.47,2.41,1.89,2.76
		c3.05,0.75,6.11,1.47,9.17,2.19c1.25,0.29,2.22,0.94,2.16,2.31c-0.07,1.65-1.44,1.54-2.59,1.6c-5.85,0.27-10.6-3.56-16.2-4.4
		c-1.67-0.25-0.8-2.39-0.02-3.35c3.03-3.72,4.97-8.23,8.56-11.53c0.84-0.77,2.12-1.68,2.18-2.59
		C140.93,153.12,143.95,153.31,147.1,153.3z"/>
	<path class="st8" d="M84.25,126.37c4.24,1.69,8.48,3.37,12.72,5.06c-3.6,5.28-3.76,5.48-9.73,0.64c-2.4-1.95-4.62-1.59-6.27-0.21
		c-2.41,2.01,0.45,3.34,1.54,4.7c1.14,1.42,2.2,2.87,0.34,4.23c-1.72,1.26-2.65-0.63-3.63-1.6c-0.69-0.68-1.28-1.57-1.62-2.47
		c-0.99-2.64-2.43-2.96-4.95-1.72c-2.49,1.23-5.31,1.81-7.95,2.75c-0.89,0.32-2.07,0.53-2.3,1.65c-0.26,1.22,0.85,1.62,1.67,2.17
		c1.51,1.02,3.05,2.01,4.48,3.14c0.94,0.74,1.76,1.84,0.96,3.01c-0.76,1.11-2.17,1.04-3.15,0.34c-3.11-2.2-6.28-4.36-9.09-6.9
		c-2.75-2.48-0.84-4.18,1.65-5.08c6.37-2.3,12.78-4.46,19.21-6.58C80.36,128.77,82.55,128.08,84.25,126.37z"/>
	<path class="st8" d="M237.77,157.65c0,1.78-1.41,1.71-2.41,2.17c-2.39,1.1-4.95,0.37-7.39,0.74c-3.13,0.47-5.23,1.42-2.57,5.13
		c2.32,3.23,4.24,6.75,6.17,10.23c0.9,1.63,2.73,3.78,0.3,5.21c-2.31,1.35-3.46-0.84-4.43-2.69c-2.47-4.71-5.1-9.34-7.48-14.1
		c-1.15-2.29-2.45-3.34-5.1-2.36c-2.72,1-5.6,0.53-8.42,0.4c-1-0.04-2.03-0.56-1.93-1.81c0.08-1.13,1.14-0.97,1.93-1.07
		c9.5-1.26,19-2.52,28.5-3.76C236.48,155.53,237.48,156.19,237.77,157.65z"/>
	<path class="st8" d="M109.29,167.46c-2.22,0.4-4.32-0.28-6.29-1.11c-4.42-1.87-5.92-6.04-3.35-10.08
		c5.27-8.29,16.38-15.29,24.69-10.1c1.14,0.71,2.32,1.31,3.04,2.49c0.64,1.05,0.09,1.96-0.51,2.74c-1,1.29-1.48,0.14-2.27-0.46
		c-4.73-3.65-10.57-3.33-15.37,0.85c-1.75,1.53-3.35,3.24-4.97,4.92c-3.19,3.31-2.9,4.55,1.51,6.16c2.91,1.06,5.85,0.86,8.79-0.1
		c1.07-0.35,2.48-0.66,3.01,0.78c0.61,1.65-0.61,2.37-1.95,2.88C113.6,167.22,111.53,167.77,109.29,167.46z"/>
	<path class="st8" d="M159.86,137.64c7.38-0.02,14.76-0.04,22.14-0.07c-1.21,2.07-2.61,2.75-5.28,2.21
		c-2.27-0.46-4.65-1.94-7.53-0.66c2.01,2.84,4.91,3.32,7.72,3.17c1.87-0.1,3.6,0.13,5.34,0.52c1.01,0.23,1.62,1.18,1.45,2.3
		c-0.14,0.96-0.96,1.15-1.8,1.36C174.47,148.33,164.6,144.39,159.86,137.64z"/>
	<path class="st8" d="M182.95,137.52c1.35,0.02,2.7,0.04,4.05,0.06c1.65,3.52,2.07,8.18,7.9,7.55c1.27-0.14,3.31,1.17,2.8,2.86
		c-0.7,2.35,0.3,5.51-1.71,6.95c-1.82,1.31-3.28-0.84-2.85-2.56c0.78-3.15-0.03-3.98-3.22-4.02c-3.12-0.04-5.45-1.67-4.94-5.4
		C185.29,140.75,184.1,139.16,182.95,137.52z"/>
	<path class="st7" d="M36.96,106.49c7.16,2.31,14.56,2.08,21.93,2.09c0.02,0.26,0.03,0.52,0,0.78c-6.32,0.7-12.63,1.4-18.95,2.09
		C39.15,109.67,37.22,108.59,36.96,106.49z"/>
	<path class="st10" d="M195.95,35.44c0.01-0.65,0.01-1.3,0.02-1.94c2.01,0.01,4.03,0.02,6.04,0.03
		C200.23,34.92,197.97,34.79,195.95,35.44z"/>
	<path class="st5" d="M156.99,85.58c-0.35,0.28-0.7,0.57-1.05,0.85C156.29,86.14,156.64,85.86,156.99,85.58z"/>
	<path class="st8" d="M80.04,122.44c0.34,0.3,0.67,0.6,1.01,0.9C80.72,123.03,80.38,122.73,80.04,122.44z"/>
	<path class="st10" d="M256.93,63.46c1.65,6.48-0.2,9.95-6.33,12.35c-1.1,0.43-3.13,0.13-3.11,1.87c0.02,1.79,1.94,2.23,3.3,2.51
		c1.76,0.37,3.75,0.61,5.43,0.16c2.44-0.66,4.06-0.64,5.22,1.98c1.18,2.66,2.57,5.47,0.71,8c-1.56,2.12-4.2,1.15-6.5,0.57
		c-3.35-0.85-5.69-3.37-8.59-4.95c-0.82-0.45-1.56-1.7-2.54-0.82c-1.13,1.01-0.3,2.33,0.44,3.1c1.71,1.79,3.58,3.46,5.51,5.01
		c6.66,5.32,9.81,19.51,1.21,26.99c-0.86,0.75-1.71,2.38-2.74,1.87c-4.48-2.22-4.25,1.27-5.05,3.78
		c-2.05,6.41-9.83,15.94-19.04,16.87c-9.33,0.94-17.65-1.31-26.12-4.15c-1.61-0.54-2.95-1-1.75-3.04
		c7.37-1.72,15.09-2.56,20.97-8.13c0.81,0.02,1.55-0.1,1.9-0.99c0,0,0.06-0.06,0.06-0.06c7.21-1,11.12-6.59,15.7-11.27
		c1.8-1.84,1.09-3.09-0.99-3.49c-4.51-0.87-9.08-1.45-13.63-2.14c-5.25-5.56-12.66-7.39-19.04-11c2.57-4.91,1.69-9.91-0.44-14.5
		c-1.07-2.31,1.12-7.2-4.2-6.69c-3.14,0.3-6.29,1.12-8.76,3.24c-2.14,1.84-4.13,3.89-5.95,6.05c-1.06,1.26-1.63,2.95-3.65,2.98
		c-5.64-1.38-11.27-2.76-16.91-4.14c2.85-2.26,6.22-1.96,9.52-1.93c4.09,0.05,6.7-1.72,7.37-5.85c0.68-4.17,3.3-7.3,5.92-10.21
		c4.23-4.71,10.94-5.23,16.88-1.45c7.35,4.68,12.64,11.24,15.67,19.41c2.75,7.43,4.54,8.95,12.22,9.11
		c9.99,0.2,15.87,6.99,16.4,18.57c0.09,2.06-1.5,5.79,1.46,5.89c3.08,0.1,2.45-3.69,2.46-6.07c0.08-12.91-5.46-21.63-22.05-22.34
		c-3.19-0.14-4.07-1.21-5.2-4.36c-4.36-12.19-11.12-22.21-24.84-26.05c-10.27-2.88-18.18,4.52-21.25,12.14
		c-2.02,5-3.69,7.97-9.32,7.69c-1.39-0.07-2.83,0.81-4.32,1.27c0-1.43,0.17-2.74-0.03-3.99c-0.57-3.48-2.59-5.69-6.16-4.39
		c-3.45,1.25-7.05,2.8-9.55-0.48c-2.8-3.67-2.24-8.12-0.03-12.19c0.15-0.28,0.45-0.48,0.68-0.72c1.66,0,3.31,0,4.96,0.01
		c-1.75,3.66-1.02,7.39,1.99,9.42c3.1,2.09,5.83-0.69,8.18-2.91c3.08-2.91,5.72-6.05,6.07-10.52c1.45,0.98,3.09,1.22,4.77,0.99
		c8.8-1.21,17.62-1.12,26.5-1.15C219.65,55.23,238.26,59.41,256.93,63.46z"/>
	<path class="st11" d="M179.95,127.32c-9.77,2.34-19.45,0.53-29.15-0.64c-3.15-0.38-6.31,0.5-9.4,0.53
		c-17.11,0.12-34.19-0.62-50.72-5.69c-6.56-2.01-6.93-4.03-2.76-9.56c6.72-8.91,16.51-12.56,26.64-15.45
		c11.8-3.37,23.63-6.73,36.16-6.06c2.75,0.15,4.83,0.7,6.22,3.12c0.13,4.72,1.48,9.15,3.71,13.4c-1.47,0.26-2.23-0.28-2.6-0.97
		c-3.28-6.24-7.9-8.05-14.24-4.47c-1.45-0.92-3.02-1.24-4.74-1.2c-12.14,0.26-23.06,4.23-33.09,10.88
		c-2.04,1.36-3.07,3.35-2.78,6.27c2.84-0.5,5.76-0.49,8.21-1.55c9.07-3.88,18.41-6.53,28.26-7.27c2.18-0.16,3.79-1.09,4.72-3.11
		c4.94-2.88,8.67-1.97,11.46,3.23c0.89,1.66,2.57,3.04,4.88,2.7c-1.09,2.94-0.57,5.23,2.79,6.02c2.9,0.69,6.89-1.98,7.09-4.74
		c0.24-3.36-2.36-3.4-4.66-3.67c0-0.87,0-1.73,0.01-2.6c3.21,0.28,5.97,0.51,6.24,5.08c0.17,2.84,2.9,3.78,5.54,1.97
		c1.02-0.7,1.62-2.47,3.17-1.38c3.49,2.45,7.38,0.85,11.05,1.33c-0.56,2.47-2.1,2.88-4.4,2.41c-1.89-0.39-3.9-0.16-5.83-0.43
		c-3.75-0.52-3.57,1.5-2.76,4.02c-1.05,0.46-1.36,2.46-3.2,1.28c-3.44-2.19-5.67,0.48-8.96,1.74
		C171.63,124.77,176.33,124.51,179.95,127.32z M162.28,121.02c-2.26-1.04-5.25,0.33-6.98-2.07c-0.53-0.74-1.69,0.44-2.13,1.38
		c-0.07,0.14-0.1,0.34-0.06,0.48c0.65,2.26,1.47,4.5,4.28,4.61C159.9,125.52,161.04,123.67,162.28,121.02z"/>
	<path class="st12" d="M178.96,119.49c-0.81-2.52-0.99-4.54,2.76-4.02c1.93,0.27,3.94,0.05,5.83,0.43c2.31,0.47,3.84,0.07,4.4-2.41
		c3.37-2.32,1.7-4-0.46-6.09c-1.69-1.63-4.94-1.02-5.49-4.04c7.19,0.61,12.48,5.88,19.15,7.79c0.95,0.27,1.79,0.88,2.74,1.16
		c2.03,0.61,3.87,1.59,3.98,3.86c0.12,2.45-1.14,4.29-3.38,5.61c-5.43,3.21-11.53,3.7-17.53,4.65c0-1.91,0.31-3.96-1.99-4.94
		C185.8,119.97,182.53,118.95,178.96,119.49z"/>
	<path class="st13" d="M186,103.37c0.56,3.02,3.81,2.41,5.49,4.04c2.17,2.09,3.83,3.77,0.46,6.09c-3.67-0.48-7.56,1.12-11.05-1.33
		c-1.55-1.09-2.15,0.68-3.17,1.38c-2.64,1.81-5.37,0.87-5.54-1.97c-0.27-4.57-3.03-4.8-6.24-5.08c-0.67-1-1.33-2-2-3
		c0.68-0.2,1.89-0.21,1.36-1.24c-0.68-1.33-2.21-0.55-3.36-0.76c0-1.33,0-2.66,0-4c1.04-0.02,2.09-0.05,3.13-0.07
		c1.61,0.1,3.22,0.19,4.83,0.28c0.01,0.26,0.02,0.53,0.04,0.8c1.43,1.65,3.35,0.76,5.06,0.96C178.89,100.18,182.7,101.06,186,103.37
		z"/>
	<path class="st3" d="M178.94,89.56c2.02-0.03,2.59-1.72,3.65-2.98c1.82-2.15,3.81-4.21,5.95-6.05c2.47-2.12,5.62-2.94,8.76-3.24
		c5.32-0.51,3.12,4.38,4.2,6.69c2.14,4.59,3.01,9.59,0.44,14.5c-4.32-2.81-9.44-3.73-13.99-6.01c0.41-3.96,4.25-6.18,5.02-9.96
		c0.44-0.13,0.87-0.27,1.31-0.4c-0.09-0.13-0.24-0.37-0.25-0.37c-0.38,0.23-0.74,0.47-1.1,0.72c-4.11,1.71-6.94,4.57-7.99,9
		C182.76,91.41,180.73,90.88,178.94,89.56z"/>
	<path class="st3" d="M220.98,109.49c4.55,0.7,9.12,1.27,13.63,2.14c2.08,0.4,2.79,1.64,0.99,3.49c-4.58,4.68-8.49,10.27-15.7,11.27
		C221.57,120.84,224.56,115.37,220.98,109.49z"/>
	<path class="st12" d="M163.96,103.5c0.67,1,1.33,2,2,3c0,0.87,0,1.73-0.01,2.6c-1.87,0.5-3.97,0.52-5.21,2.39
		c-2.31,0.34-3.99-1.04-4.88-2.7c-2.79-5.2-6.52-6.11-11.45-3.23c0.03-0.25,0.16-0.41,0.39-0.49c-0.13-0.49-0.26-0.97-0.39-1.46
		c-0.2-0.69-0.4-1.38-0.6-2.07c6.34-3.59,10.96-1.77,14.24,4.47c0.37,0.7,1.12,1.23,2.6,0.97c-2.23-4.25-3.57-8.68-3.71-13.4
		c1.7,0.95,3.4,1.91,5.1,2.86c-0.64,0.31-0.86,0.65-0.08,1.07c0,1.33,0,2.66,0,4C162.63,102.16,163.29,102.83,163.96,103.5z"/>
	<path class="st13" d="M178.96,119.49c3.57-0.54,6.84,0.48,10,2.01c-0.32,1.7-0.64,3.41-0.95,5.11c-2.56,1.61-5.36,0.61-8.05,0.71
		c-3.62-2.81-8.32-2.55-13.15-4.81c3.29-1.26,5.52-3.94,8.96-1.74C177.59,121.95,177.91,119.95,178.96,119.49z"/>
	<path class="st10" d="M184.95,91.48c1.05-4.44,3.88-7.29,7.99-9l0.04,0.05c-0.77,3.77-4.61,6-5.03,9.95
		C186.95,92.14,185.95,91.81,184.95,91.48z"/>
	<path class="st11" d="M188,126.61c0.32-1.7,0.64-3.41,0.95-5.11c2.31,0.98,1.99,3.03,1.99,4.94
		C189.97,126.5,188.98,126.55,188,126.61z"/>
	<path class="st11" d="M175.02,99.47c-1.71-0.2-3.62,0.7-5.06-0.96c0.67-0.01,1.34-0.02,2.01-0.03
		C173.09,98.5,174.24,98.39,175.02,99.47z"/>
	<path class="st11" d="M161.96,97.5c-0.78-0.42-0.56-0.76,0.08-1.07c1.12,0.01,2.28-0.07,3.05,1
		C164.05,97.46,163.01,97.48,161.96,97.5z"/>
	<path class="st3" d="M219.84,126.44c-0.34,0.89-1.08,1-1.9,0.99C218.35,126.66,219.05,126.46,219.84,126.44z"/>
	<path class="st12" d="M171.97,98.49c-0.67,0.01-1.34,0.02-2.01,0.03c-0.01-0.27-0.03-0.53-0.04-0.8
		C170.76,97.56,171.48,97.71,171.97,98.49z"/>
	<path class="st7" d="M152.81,59.48c-1.65,0-3.31,0-4.96-0.01c1.94-5.3,5.52-9.4,9.73-12.96c2.61-2.21,5.67-3.29,9.21-3.04
		c4.96,0.35,7.23,2.65,7.08,7.59c-0.03,1.1-0.87,2.3,0.56,3.1c1.43,0.8,2.61-0.07,3.67-0.79c3.87-2.62,6.49-6.61,10.39-9.25
		c9.64-6.52,19.65-8.82,30.85-4.13c4.13,1.73,8.65-0.39,13.15,0.37c11.36,1.92,23.69,13.09,24.45,23.12
		c-18.68-4.05-37.28-8.23-56.62-8.16c-8.88,0.03-17.7-0.06-26.5,1.15c-1.68,0.23-3.31-0.01-4.77-0.99
		c-0.32-2.44,0.96-5.58-2.62-6.64c-3.48-1.03-6.65-0.16-8.79,2.75C155.81,54.05,153.42,56.24,152.81,59.48z"/>
	<path class="st10" d="M237.71,141.36c4.48-4.57,8.6-8.36,10.34-13.82c0.29-0.91,1.3-1.14,2.06-0.68c0.41,0.25,0.65,1.11,0.63,1.67
		C250.57,132.07,242.92,140.03,237.71,141.36z"/>
	<path class="st1" d="M60.35,122.01c-0.14,0.07-0.28,0.21-0.41,0.2c-0.13-0.01-0.24-0.17-0.36-0.26
		C59.84,121.97,60.09,121.99,60.35,122.01z"/>
	<path class="st7" d="M52.81,94.51c4.57-0.14,8.72-0.24,12.59,1.72c1.23,0.62,2.47,1.19,2.44,2.79c-0.03,1.5-1.06,2.56-2.3,3
		c-8.98,3.18-18.06,3.9-27.19,0.58c-1.27-0.46-2.7-1.27-2.72-2.63c-0.02-1.39,1.55-1.97,2.69-2.67
		C42.94,94.47,48.02,94.16,52.81,94.51z"/>
	<path class="st5" d="M152.81,59.48c0.61-3.24,3-5.43,4.82-7.9c2.15-2.92,5.31-3.78,8.79-2.75c3.58,1.06,2.3,4.2,2.62,6.64
		c-0.35,4.47-2.98,7.61-6.07,10.52c-2.35,2.22-5.08,5-8.18,2.91C151.79,66.87,151.06,63.14,152.81,59.48z M158.01,57.46
		c-0.38,0.73-0.76,1.46-1.13,2.2c-0.85,1.66-1.81,3.98-0.34,5.01c1.93,1.35,2.9-1.38,4.11-2.47c1.41-1.27,3.26-2.39,3.25-4.71
		c1-1.9,2.22-4.37-0.03-5.56c-2.1-1.11-3.17,1.53-4.24,3.1C159.08,55.83,158.55,56.64,158.01,57.46z"/>
	<path class="st14" d="M144.8,105.06c-0.23,0.08-0.36,0.25-0.39,0.49c-0.93,2.01-2.54,2.94-4.72,3.11
		c-9.85,0.74-19.19,3.39-28.26,7.27c-2.46,1.05-5.37,1.04-8.21,1.55c-0.3-2.92,0.73-4.91,2.78-6.27
		c10.03-6.65,20.95-10.61,33.09-10.88c1.71-0.04,3.29,0.28,4.74,1.2c0.2,0.69,0.4,1.38,0.6,2.07
		C144.54,104.09,144.67,104.57,144.8,105.06z"/>
	<path class="st14" d="M160.74,111.49c1.24-1.87,3.34-1.89,5.21-2.39c2.31,0.27,4.91,0.31,4.66,3.67c-0.2,2.76-4.19,5.43-7.09,4.74
		C160.17,116.71,159.65,114.43,160.74,111.49z"/>
	<path class="st13" d="M162.28,121.02c-1.24,2.64-2.38,4.5-4.88,4.4c-2.81-0.1-3.63-2.35-4.28-4.61c-0.04-0.14,0-0.34,0.06-0.48
		c0.44-0.95,1.6-2.12,2.13-1.38C157.02,121.35,160.02,119.98,162.28,121.02z"/>
	<path class="st11" d="M163.96,103.5c-0.67-0.67-1.33-1.33-2-2c1.15,0.2,2.68-0.58,3.36,0.76
		C165.85,103.29,164.63,103.29,163.96,103.5z"/>
	<path class="st10" d="M192.94,82.47c0.36-0.24,0.73-0.49,1.1-0.72c0.01,0,0.16,0.24,0.25,0.37c-0.44,0.13-0.87,0.27-1.31,0.4
		C192.98,82.52,192.94,82.47,192.94,82.47z"/>
	<path class="st11" d="M144.8,105.06c-0.13-0.49-0.26-0.97-0.39-1.46C144.54,104.09,144.67,104.57,144.8,105.06z"/>
	<path class="st10" d="M163.9,57.48c0.01,2.31-1.83,3.44-3.25,4.71c-1.21,1.09-2.18,3.82-4.11,2.47c-1.48-1.04-0.51-3.35,0.34-5.01
		c0.37-0.73,0.75-1.46,1.13-2.2C159.97,57.47,161.93,57.47,163.9,57.48z"/>
	<path class="st7" d="M163.9,57.48c-1.96-0.01-3.93-0.02-5.89-0.03c0.54-0.81,1.07-1.63,1.62-2.43c1.07-1.58,2.14-4.21,4.24-3.1
		C166.12,53.11,164.9,55.58,163.9,57.48z"/>
</g>
</svg>
