<?xml version="1.0" encoding="utf-8"?>
<!-- Generator: Adobe Illustrator 26.0.3, SVG Export Plug-In . SVG Version: 6.00 Build 0)  -->
<svg version="1.1" id="Layer_1" xmlns="http://www.w3.org/2000/svg" xmlns:xlink="http://www.w3.org/1999/xlink" x="0px" y="0px"
	 viewBox="0 0 810 660" style="enable-background:new 0 0 810 660;" xml:space="preserve">
<style type="text/css">
	.st0{fill:#B5D7F4;}
	.st1{fill:#ACD0F0;}
	.st2{fill:#282A61;}
	.st3{fill:#225874;}
	.st4{fill:#8CA7DD;}
	.st5{fill:#A4C1E9;}
	.st6{fill:#7070BF;}
	.st7{fill:#2E69A0;}
	.st8{fill:#A4A2D6;}
	.st9{fill:#198994;}
	.st10{fill:#2D5192;}
	.st11{fill:#3F749E;}
	.st12{fill:#286E85;}
	.st13{fill:#E7F1FA;}
	.st14{fill:#73B9C6;}
</style>
<g>
	<path class="st0" d="M614.59,4.88c46.83,0,93.67,0.04,140.5-0.08c2.98-0.01,3.77,0.58,3.59,3.59c-0.31,5.15-0.09,10.33-0.09,15.49
		c-2.05,0.11-2.29,1.68-3.16,3.16c-1.91,3.27-0.71,7.48-2.98,10.22c-3.37,4.07-7.16,7.95-11.31,11.21
		c-15.44,12.14-29.54,25.81-44.52,38.49c-6.39,5.41-12.84,10.81-18.83,16.77c-4.34,4.32-9.21,8.43-14.17,12.09
		c-4.45,3.28-7.75,8.08-13.14,10.09c-1.64-2.52,0.48-4.43,1.16-6.51c2.94-9.05-0.1-15.24-9-17.97c-0.63-0.19-1.27-0.38-1.91-0.55
		C624.45,96.5,607.69,95.78,591,95c-12.1-0.57-24.28-0.75-36.36,0.93c-7.69,0.65-15.4,1.05-23.05,2.01
		c-9.07,1.14-18.19,2.17-27.01,4.77c-2.33,0-4.54,0.63-6.79,1.15c-5.12,1.19-9.89,3.69-15.22,4.08c-0.02-1.38,0.92-2.1,1.98-2.62
		c6.81-3.34,11.84-9.09,17.97-13.4c10.86-7.64,20.79-16.56,31.63-24.34c11.49-8.24,22.18-17.59,33.46-26.14
		c11.57-8.77,22.56-18.27,34.76-26.25C606.73,12.33,611.9,9.93,614.59,4.88z"/>
	<path class="st1" d="M650.49,125.9c5.39-2.01,8.69-6.81,13.14-10.09c4.96-3.65,9.83-7.77,14.17-12.09
		c5.99-5.97,12.44-11.36,18.83-16.77c14.98-12.67,29.08-26.35,44.52-38.49c4.15-3.27,7.94-7.14,11.31-11.21
		c2.26-2.74,1.07-6.95,2.98-10.22c0.87-1.48,1.11-3.05,3.16-3.16c0,8.67,0,17.33,0,26c-8.11,7.29-16.22,14.59-24.34,21.88
		c-16.56,14.87-33.49,29.29-50.47,43.67c-17.61,14.92-34.92,30.19-52.49,45.15c-20.85,17.75-41.83,35.35-62.8,52.96
		c-8.51,7.15-16.38,14.98-25.26,21.77c-10.26,7.84-22.1,12.01-33.48,17.38c-10.75,5.07-22.23,7.51-33.64,10.46
		c-5.16,1.33-10.35,3.48-14.91,6.6c-13.43,9.17-27.36,17.7-40.19,27.65c-17.93,13.9-37.4,25.22-56.93,36.52
		c-4.25,2.46-7.47,6.13-10.66,9.72c-3.33,3.75-7.07,5.99-12.19,5.38c-0.52-0.06-1.05-0.13-1.57-0.19c0.2-2.36-0.94-3.39-3.21-4.04
		c-3.53-1.01-7.23-1.86-9.93-4.7c0.13-5.31,3.42-2.13,5.08-1.61c10.02,3.12,15.26,1.63,22.01-6.63c1.87-1.04,3.84-1.94,5.59-3.15
		c11.15-7.77,22.45-15.36,33.34-23.5c20.32-15.2,41.46-29.28,61.38-45.02c0.74-0.59,1.75-1.2,2.63-1.2
		c8.48-0.01,16.61-2.37,24.43-4.95c17.33-5.74,35.39-9.65,50.02-22.13c13.87-11.83,28.4-22.89,42.12-34.93
		c9.84-8.64,20.03-16.89,30.01-25.38c10.74-9.15,21.74-17.99,32.03-27.67C640.95,138.45,646.03,132.46,650.49,125.9z"/>
	<path class="st1" d="M614.59,4.88c-2.68,5.06-7.86,7.45-12.22,10.31c-12.2,7.99-23.2,17.48-34.76,26.25
		c-11.28,8.55-21.97,17.9-33.46,26.14c-10.84,7.78-20.77,16.71-31.63,24.34c-6.13,4.31-11.16,10.06-17.97,13.4
		c-1.06,0.52-2,1.24-1.98,2.62c-9.45,5.06-16.98,12.7-25.59,18.89c-6.11,4.4-12.27,8.9-16.34,15.18
		c-9.31,14.35-17.48,29.34-23.18,45.58c-2.56,7.27-3.8,15.32-10.58,20.45c-9.7,7.33-18.16,16.08-27.03,24.31
		c-21.82,20.25-43.25,40.93-64.72,61.55c-6.29,6.05-8.05,13.52-5.49,21.93c-1.42,2.28-0.46,4.17,0.88,6.08
		c1.02,1.45,1.3,2.82-1.16,3.04c-2.13-0.49-1.03-4.14-3.86-3.94c-0.93,0-1.85,0.01-2.78,0.01c-3.78-6.7-5.13-13.53-3.49-21.39
		c1.45-6.93,5.67-11.07,10.78-14.85c1.73-1.28,3.61-2.34,5.1-3.95c15.16-16.35,32.83-29.98,48.97-45.25
		c11.92-11.27,22.58-23.81,32.64-36.81c9.72-12.57,16.97-26.37,23.36-40.96c7.27-16.61,17.24-31.49,32.42-42.76
		c24.77-18.39,48.82-37.75,73.06-56.85c22.42-17.67,44.69-35.54,67.03-53.33C599.92,4.88,607.25,4.88,614.59,4.88z"/>
	<path class="st2" d="M154.52,501.74c0.53-1.72,1.72-3.15,1.78-5.12c0.39-11.59,5.95-20.98,13.11-29.55
		c12.96-15.5,29.32-26.44,47.48-34.89c23.31-10.84,48.03-16.07,73.47-18.63c35.89-3.62,71.09-0.43,105.56,10.18
		c23.61,7.27,45.54,17.86,64.06,34.53c17.37,15.65,28.77,34.38,28.59,58.66c-1.66,5.8-2.53,11.69-2.03,17.73
		c0.13,1.52-1.38,2.16-1.73,3.41c-5.36,14.57-16.37,24.64-27.67,34.41c-14.87,12.85-32.34,21.04-50.56,27.93
		c-16.23,6.15-33.17,10.06-50.17,11.94c-16.72,1.85-33.84,1.67-50.75,0.24c-2.96-0.25-6.08,0.68-8.71-0.29
		c-5.33-1.96-11.04-1.74-16.36-3.47c-8.01-1.98-16.02-3.96-24.03-5.94c-3.97-1.36-7.93-2.72-11.9-4.08
		c-0.67-0.33-1.35-0.65-2.02-0.98c-6.01-2.65-12.02-5.31-18.03-7.97c-11.58-6.12-22.29-13.6-32.96-21.16
		c-0.22-1.76-1.81-2.09-2.99-2.85c-2.36-2.33-4.73-4.66-7.09-7c-1.64-1.67-3.27-3.34-4.91-5.01c-0.15-0.3-0.23-0.67-0.45-0.88
		c-5.54-5.28-7.91-13.29-15.01-17.26c-1.44-0.8-2.7-2.68-2.34-4.19c1.33-5.53-2.24-9.81-3.25-14.71
		C152.57,511.99,154.47,506.79,154.52,501.74z M163.44,528.88c0.72,3.06,2.85,5.09,5.15,7c5.89,8.02,11.56,16.24,18.97,23.01
		c2.94,1.75,5.38,4.37,8.91,5.11c0.29,1.88,1.54,3.01,3.07,3.91c8.09,7.28,17.32,12.47,27.94,15.08c1.93,2.11,4.57,2.91,7.13,3.86
		c4.77,1.79,9.64,3.16,14.14,5.8c2.75,1.61,5.13,4.36,8.74,4.33c2.08,1.54,4.52,1.84,6.99,2.02c10.53,3.08,21.43,4.38,32.09,6.81
		c1.69,0.33,3.37,0.65,5.06,0.98c4.32,0.27,8.72-0.37,12.95,1.02c4.39-0.25,8.6,1.68,13.02,1.04c7.84,0.22,15.5-0.91,23.07-2.88
		c1.65-0.4,3.3-0.79,4.96-1.19c7.93-0.63,15.92-0.8,23.77-2c11.11-1.69,22.32-3.34,32.4-8.93c5.37-2.98,10.59-6.32,16.19-8.81
		c21.66-9.62,38.13-24.99,50.45-44.96c2.6-4.22,5.67-10.09,3.54-13.97c-2.87-5.22-1.85-10.15-2.57-15.19
		c-0.27-2.01-0.55-4.03-0.82-6.04c-0.08-0.55-0.2-1.07-0.93-1.03l0.01,0.08c0.07-7.31-3.33-13.46-6.97-19.36
		c-13.2-21.43-32.95-35.15-55.56-44.6c-57.78-24.16-116.84-26.42-176.58-7.96c-22.5,6.96-43.18,17.59-59.58,35.04
		c-6.21,6.6-12.06,13.65-14.43,22.79l0.06-0.03c-0.88-0.17-0.98,0.61-1.33,1.09c-0.56,1.98-1.12,3.95-1.69,5.93l0.01,0.01
		c-0.29,0.35-0.58,0.7-0.87,1.04c-0.23,2.01-0.48,4.25-2.53,5.07c-2.85,1.14-2.38,2.82-1.82,5.14c1.42,5.91,3.78,11.6,4.32,17.73
		C161.16,527.25,162.18,528.18,163.44,528.88z"/>
	<path class="st3" d="M154.52,501.74c-0.05,5.05-1.96,10.25,1.11,15.07c-3.75,1.09-3.61,4.62-3.95,7.3
		c-2.06,16.27,3.68,29.96,14.48,41.87c13.25,14.61,29.92,24.01,47.81,31.64c32.43,13.83,66.46,20,101.51,21.26
		c9.91,0.35,19.8,0.64,29.74,0.16c14.75-0.71,29.33-2.42,43.8-5.22c28.32-5.48,55.35-14.21,77.82-33.2
		c10.49-8.86,18.05-19.95,19.56-34.08c0.29-2.69,1.98-6.25-1.59-8.46c0.35-1.25,1.86-1.89,1.73-3.41
		c-0.5-6.04,0.37-11.93,2.03-17.73c12.94,17.46,15.29,36.24,8.44,56.88c-3.84,11.57-8.91,22.3-15.25,32.59
		c-3.91,6.34-9.67,10.77-15.82,14.14c-12.7,6.95-25,14.73-39.14,18.92c-19.49,5.77-39.37,8.82-59.55,10.54
		c-18.96,1.62-37.98,1.78-56.88,0.66c-32.94-1.94-65.73-5.37-96.6-18.6c-12.32-5.28-24.84-9.92-35.14-19
		c-18.97-16.73-33.88-36.22-38.65-61.5c-3.14-16.62,2.7-31.93,11.52-46.01C152.33,504.22,152.85,502.47,154.52,501.74z
		 M489.14,524.64c-0.74,2.61-0.43,3.87-0.11,5.18c3.55,14.5,1.22,27.84-7.44,40.18c-9.47,13.51-22.67,22.4-36.95,29.61
		c-33.1,16.73-68.84,22.27-105.46,23.18c-11.28,0.28-22.56,0.17-33.88-0.72c-12.73-1-25.39-2.34-37.86-4.86
		c-20.16-4.07-39.97-9.34-58.76-18.09c-20.37-9.48-39.27-20.83-52.05-39.9c-9.04-13.49-11.07-28.21-4.92-43.62
		c0.73-1.83,0.77-1.82,0.2-4.48c-3.81,4.01-4.96,9.4-6.81,14.54c-4.22,11.75-3.98,23.36,0.56,34.87c4.14,10.52,9.34,20.4,16.25,29.5
		c8.59,11.31,19.2,20.19,30.62,28.33c3.68,2.62,8.17,3.53,11.96,5.68c9.49,5.38,19.67,8.92,30.05,11.67
		c14.7,3.89,29.63,6.66,44.81,8.49c17.97,2.17,35.99,3.56,54.01,3.36c9.09-0.1,18.27-0.18,27.37-0.78
		c4.79-0.31,9.61-0.56,14.36-1.12c13.29-1.58,26.52-3.68,39.56-6.81c9.67-2.32,19.43-4.9,27.93-9.91
		c10.6-6.24,21.66-11.92,30.83-20.46c6.29-5.86,10.67-12.82,14.37-20.45c2.87-5.9,3.59-12.44,5.9-18.41
		C499.65,554.14,496.46,539.87,489.14,524.64z"/>
	<path class="st2" d="M302.72,321.02c0.93,0,1.85-0.01,2.78-0.01c0.07,3.08-1.85,5.45-3.56,7.48c-5.67,6.73-7.21,14.59-6.3,22.84
		c1.22,10.97,3.4,21.68,13.88,28.34c10.15,6.45,19.33,3.51,23.05-8.03c2.02-6.27,4.27-12.59,4.09-19.35
		c-0.06-2.15,0.49-3.6,2.99-3.47c0.52,0.06,1.05,0.13,1.57,0.19c0.12,12.2-1.5,24.02-10.62,33.06c-7.07,7.01-18.11,6.16-25.7-0.29
		c-15.98-13.57-17.13-34.57-9.37-51.34C297.23,326.75,299.95,323.88,302.72,321.02z"/>
	<path class="st4" d="M650.49,125.9c-4.46,6.56-9.54,12.55-15.33,18c-10.29,9.68-21.29,18.52-32.03,27.67
		c-9.97,8.49-20.16,16.74-30.01,25.38C559.4,209,544.87,220.06,531,231.89c-14.63,12.48-32.69,16.39-50.02,22.13
		c-7.82,2.59-15.95,4.95-24.43,4.95c-0.88,0-1.89,0.61-2.63,1.2c-19.92,15.74-41.06,29.82-61.38,45.02
		c-10.88,8.14-22.18,15.72-33.34,23.5c-1.75,1.22-3.72,2.11-5.59,3.15c-1.34,0.02-2.67,0.03-4.01,0.05l-0.01-0.01
		c1.45-1.9,1.97-3.98,2.09-6.43c0.38-7.87-3.31-14.03-7.9-19.83c-1.15-1.46-2.49-2.69-2.21-4.75c8.23-6.39,16.96-12.12,24.77-19.08
		c6.17-5.5,12.49-10.91,19.17-15.76c9.95-7.23,19.38-15.01,28.11-23.66c8.74-8.66,17.76-17.05,26.27-25.93
		c4.9-5.11,9.72-10.53,13.38-16.54c7.35-12.06,11.58-25.76,19.85-37.48c8.27-11.72,17.85-22.05,28.45-31.57
		c7.59,1.89,15.16,1.13,22.67-0.42c1.53-0.32,4.43-0.35,3.84-2.89c-0.52-2.24-2.76-1.41-4.65-1.15c-5.24,0.71-10.44,2-15.8,1.44
		c2.46-1.31,5.03-2.43,7.35-3.95c9.51-6.24,19.18-12.26,28.27-19.07c3.82-2.86,9.57-3.43,11.38-8.87
		c12.08-1.68,24.26-1.5,36.36-0.93c16.68,0.78,33.44,1.5,49.73,5.87c0.64,0.17,1.28,0.35,1.91,0.55c8.9,2.73,11.94,8.93,9,17.97
		C650.97,121.47,648.84,123.38,650.49,125.9z M630.72,115.19c-1.27,1.94-2.44,2.36-3.7,2.74c-6.98,2.13-13.93,4.25-21.24,5.09
		c-2.14,0.24-5.99-0.13-5.64,3.32c0.39,3.87,3.61,2.16,5.93,1.63c0.48-0.11,1.01-0.03,1.49-0.14c8.24-1.86,16.71-3.04,24.26-7.15
		c2-1.09,4.23-2.62,3.6-5.41c-0.54-2.42-2.39-3.81-4.89-4.39c-9.09-2.11-18.4-3.33-27.62-2.74c-15.34,0.97-30.73,2.04-45.89,4.85
		c-5.45,1.01-11.29,1.23-15.87,5.52C570.74,114.28,600.23,109.97,630.72,115.19z M586.4,122.62c-6.03-1.66-10.23,0.73-14.59,1.46
		c-0.72,0.12-1.09,0.75-0.95,1.47c0.25,1.27,1.37,1.49,2.29,1.27C577.23,125.88,581.5,125.53,586.4,122.62z"/>
	<path class="st5" d="M554.64,95.93c-1.81,5.44-7.56,6.01-11.38,8.87c-9.09,6.8-18.77,12.83-28.27,19.07
		c-2.32,1.52-4.89,2.65-7.35,3.96c-4.47-0.29-8.31-3.32-12.92-2.94c-0.93,0.08-2.26-0.34-2.53,0.9c-0.34,1.55,1.03,1.82,2.18,2.05
		c2.61,0.53,4.97,1.63,7.22,3c-10.6,9.52-20.18,19.85-28.45,31.57c-8.27,11.73-12.5,25.42-19.85,37.48
		c-3.66,6.01-8.48,11.43-13.38,16.54c-8.51,8.88-17.53,17.27-26.27,25.93c-8.73,8.65-18.16,16.43-28.11,23.66
		c-6.68,4.85-13,10.26-19.17,15.76c-7.81,6.97-16.54,12.69-24.77,19.08c-4.33-3-8.66-6.01-12.99-9.01
		c5.27-6.21,12.44-10.16,18.44-15.53c12.6-11.29,26.03-21.6,37.63-34.09c7.63-8.21,15.69-16.15,25.64-21.95
		c10.12-5.9,18.16-13.72,20.73-26.07c3.11-14.96,10.25-28.36,17.7-41.52c6.59-11.65,17.43-19.49,26.7-28.71
		c6.9-6.86,15.8-10.91,23.67-16.42c1.98-1.39,4.6-2.19,5.48-4.86c8.82-2.6,17.94-3.63,27.01-4.77
		C539.24,96.98,546.95,96.58,554.64,95.93z M501.5,117.44c4.25-1.68,8.51-3.32,12.73-5.07c0.44-0.18,0.87-1.05,0.84-1.56
		c-0.06-0.77-0.89-0.93-1.52-0.71c-4.33,1.48-8.67,2.97-12.95,4.57c-0.78,0.29-1.05,1.3-0.73,2.15
		C500.12,117.52,500.77,117.67,501.5,117.44z"/>
	<path class="st4" d="M504.58,102.71c-0.88,2.67-3.5,3.47-5.48,4.86c-7.86,5.51-16.77,9.57-23.67,16.42
		c-9.28,9.22-20.11,17.06-26.7,28.71c-7.45,13.16-14.59,26.56-17.7,41.52c-2.57,12.35-10.62,20.17-20.73,26.07
		c-9.95,5.8-18.01,13.74-25.64,21.95c-11.6,12.48-25.03,22.79-37.63,34.09c-6,5.38-13.18,9.32-18.44,15.54
		c-2.88-0.45-5.53,0.93-8.34,1.08c-1.51,0.08-2.43,1.04-2.6,2.55c-0.18,1.53-0.15,3.11,1.39,3.97c1.58,0.89,3.25,1.66,4.93,2.36
		c10.02,4.15,17.08,10.6,17.62,22.26c0.37,7.86,0.39,7.86,8.01,7.8c0,0,0.01,0.01,0.01,0.01c-4.28,2.6-9.01,2.88-13.74,2.19
		c-9.22-1.35-15.02-7.77-20.43-14.56c-1.56-1.95-2.69-4.29-5.79-3.69c-2.56-8.41-0.81-15.88,5.49-21.93
		c21.47-20.62,42.9-41.3,64.72-61.55c8.88-8.23,17.33-16.98,27.03-24.31c6.78-5.12,8.02-13.17,10.58-20.45
		c5.71-16.24,13.88-31.23,23.18-45.58c4.08-6.28,10.23-10.79,16.34-15.18c8.61-6.19,16.14-13.83,25.59-18.89
		c5.33-0.39,10.1-2.88,15.22-4.08C500.04,103.34,502.25,102.71,504.58,102.71z"/>
	<path class="st6" d="M339.65,348.82c-2.5-0.14-3.05,1.32-2.99,3.47c0.18,6.76-2.07,13.08-4.09,19.35
		c-3.72,11.54-12.9,14.49-23.05,8.03c-10.48-6.66-12.67-17.37-13.88-28.34c-0.91-8.26,0.63-16.11,6.3-22.84
		c1.71-2.03,3.63-4.4,3.56-7.48c2.83-0.2,1.73,3.46,3.86,3.94c5.72,5.04,11.44,10.09,17.16,15.13c2.7,2.84,6.4,3.69,9.93,4.7
		C338.71,345.43,339.85,346.46,339.65,348.82z M316.91,372.96c2.14,0.12,4.65-0.52,5.02-3.62c0.36-3.07-1.62-4.4-4.6-4.56
		c-3.05-0.16-4.71-2.1-5.71-4.81c-0.69-1.86-1.24-3.83-2.26-5.51c-1.48-2.43-3.35-2.08-4.49,0.29
		C301.19,362.38,307.8,372.79,316.91,372.96z M310.73,340.16c-0.05-2.3,0.3-5.1-3.03-5.19c-3.64-0.1-3.34,3.28-3.61,5.47
		c-0.28,2.25,0.3,5.13,3.38,4.98C310.42,345.28,310.65,342.56,310.73,340.16z"/>
	<path class="st0" d="M326.52,340.08c-5.72-5.04-11.44-10.09-17.16-15.13c2.46-0.22,2.18-1.59,1.16-3.04
		c-1.35-1.91-2.3-3.8-0.88-6.08c3.1-0.6,4.23,1.73,5.79,3.69c5.41,6.79,11.21,13.21,20.43,14.56c4.73,0.69,9.46,0.41,13.74-2.19
		c1.34-0.02,2.67-0.03,4.01-0.05c-6.74,8.27-11.99,9.75-22.01,6.63C329.93,337.96,326.64,334.77,326.52,340.08z"/>
	<path class="st7" d="M257.48,596.99c-3.62,0.02-5.99-2.72-8.74-4.33c-4.5-2.64-9.37-4.01-14.14-5.8c-0.03-1.18,0.23-2.15,1.11-3.13
		c3.77-4.2,9.55-5.18,15.42-2.2c1.1,0.56,1.87,1.54,2.84,0.15c0.73-1.04-0.02-1.86-0.72-2.59c-0.92-0.95-1.87-1.78-3.21-2.25
		c-6.46-2.27-12.21-0.75-16.97,3.75c-1.77,1.68-3.38,2.41-5.6,2.41c-10.62-2.61-19.84-7.8-27.94-15.08c1.45-1.36,2.7-5.73,4.37,0.07
		c0.71,2.47,3.49,5.35,5.84,4.12c2.48-1.3-0.37-3.54-1.48-5.23c-0.89-1.37-1.11-2.81,0.43-3.93c1.47-1.07,3.01-1.46,4.46,0.04
		c1.79,1.84,4.04,2.93,6.39,3.68c1.47,0.47,3.24,0.37,2.73-2.04c-0.38-1.79-9.67-7.21-11.13-6.33c-4.58,2.78-10.1,3.03-14.69,5.72
		c-3.52-0.74-5.96-3.36-8.91-5.11c0.15-1.36,0.97-2.52,2.18-1.64c1.48,1.07,2.5,0.12,3.7,0.13c4.32,0.06,7.42-3.27,11.5-3.5
		c3.81-0.22,6.04-2.16,6.63-5.96c7.26-5.39,12.18-12.31,15.58-20.8c4.02-10.07,9.88-19.19,18.41-26.26c1.3-0.15,2.89,0.11,3.86-0.54
		c4.85-3.25,10.56-4.18,15.83-6.26c1.51-0.6,1.55,0.7,2.35,0.83c0.24,12.56,4.14,15.8,16.53,13.66c0.81-0.14,1.97-0.65,2.08,0.33
		c0.15,1.22-0.07,2.83-0.78,3.76c-4.06,5.31-2.45,10.76-1.45,16.59c0.69,4.03,3.34,7.04,4.12,10.96c-2.87-2.26-5.42-4.64-7.47-7.4
		c-1.91-2.58-3.48-3.7-6.45-1.36c-2.37,1.87-5.45,2.53-7.66-0.11c-2.57-3.08-5.04-2.66-8.39-1.51c-5.44,1.88-11.11,3.04-15.83,6.67
		c-1.2,0.92-2.27,1.93-1.47,3.22c1.24,2.01,2.18-0.03,3.08-0.68c3.64-2.65,7.59-4.67,11.87-6.03c3.12-0.99,5.74-1.11,8.44,1.74
		c2.13,2.25,5.37,4.57,8.82,1.81c2.9-2.31,4.9-2.01,6.91,1.09c0.87,1.34,2.48,2.18,3.64,3.36c1.81,1.83,2.85,3.17-0.99,4.15
		c-4.6,1.18-5.05,3.41-2.61,7.85c1.04,1.89,2.64,3.67,2.23,6.59c-3.55-3.48-5.8-7.26-8.09-11.04c-0.51-0.85-0.41-3.24-2.54-1.92
		c-1.31,0.82-0.48,1.99-0.1,3.11c2.86,8.37,8.56,14.48,15.03,20.27c5.41,4.83,10.89,8.61,18.48,7.85c1.62-0.16,4.28,0.96,4.33-1.86
		c0.05-3.25-2.89-2.08-4.58-2.05c-4.81,0.07-8.86-1.12-11.47-5.6c3.1,1.13,6.28,1.83,9.45,2.53c4.27,0.94,6.05-1.43,6.79-5.44
		c1.14,3.27,2.75,6.35,2.39,9.18c-0.43,3.33,1.1,4.68,3.39,4.89c3.68,0.34,5.94,1.17,5.38,5.49c-0.17,1.29,0.91,2.29,2.29,1.21
		c1.85-1.46,0.57-9.34-1.59-9.39c-5.44-0.12-6.53-4-7.81-7.93l0.01-0.01c1.37-0.06,2.5,0.43,3.71,1.13
		c11.14,6.5,22.93,10.06,36.02,7.9c4.18-0.69,8.11-4.41,12.71-1.2c0.3,0.21,1.27-0.28,1.78-0.65c7.07-5.18,14.65-10.05,13.16-20.7
		c-0.08-0.57,0.17-1.39,0.57-1.79c6.67-6.75,7.05-14.57,4.03-23.01c-0.77-2.14-1.06-3.86,2.27-3.72c3.83,0.15,5.13-2.69,5.67-5.78
		c0.56-3.18,0.42-6.78-1.59-9.13c-3.96-4.6-3.32-9.8-3.29-15.05c1.31,0.16,2.7,0.1,3.91,0.53c7.24,2.57,14.59,4.84,21.86,7.3
		c13.8,4.66,26.75,10.97,39.4,18.01c3.33,1.86,6.76,3.43,10.27,4.86c2.87,1.17,6.14,2.2,7.96-1.12c1.94-3.53,0.04-7.24-2.63-9.25
		c-9.3-7-18.47-14.2-28.75-19.85c-17.47-9.6-35.66-17.32-54.88-22.63c-3.36-0.93-6.6-2.28-10.19-1.82l-0.01,0
		c-0.01-1.35-0.71-1.99-2.03-2c-0.66-0.01-1.43,0.19-1.98-0.07c-7.19-3.41-14.46-5.82-22.37-2.36c-0.26,0.11-0.7,0.05-0.95-0.1
		c-6.09-3.78-12.9-3.48-19.66-3.48c-10.55,0.12-21.11,0.06-31.64,0.48c-2.55,0.1-2.25-1.02-2.35-2.48c7-3.94,14.01-7.88,21.01-11.81
		c0.84,2.92,3.29,1.8,5.03,1.75c15.5-0.46,30.61,2.67,45.8,4.92c14.43,2.14,28.43,6.12,42.2,10.97
		c22.64,7.97,44.09,17.94,62.03,34.47c2.84,2.62,5.12,6,8.73,7.78c0.73,5.04-0.29,9.97,2.58,15.19c2.13,3.88-0.93,9.75-3.54,13.97
		c-12.32,19.97-28.8,35.34-50.45,44.96c-5.6,2.49-10.82,5.82-16.19,8.81c-10.08,5.59-21.29,7.24-32.4,8.93
		c-7.84,1.19-15.84,1.37-23.77,2c-1.21-2.7-2.22-5.51-3.68-8.06c-1.93-3.37-0.4-4.57,2.7-4.79c2.47-0.18,4.96,0.02,7.33-1.01
		c0.94-0.41,2.17-0.7,2.1-1.79c-0.12-1.67-1.68-1.24-2.75-1.25c-9.61-0.09-18.95,2.38-28.49,3.01c-0.84,0.06-1.79,0.18-1.72,1.28
		c0.06,0.92,0.88,1.49,1.7,1.54c3.14,0.18,6.33,0.59,9.4-0.26c1.65-0.46,2.94-0.65,3.71,1.15c1.61,3.78,4.46,7.04,4.75,11.37
		c-7.56,1.97-15.23,3.09-23.07,2.88c0-5.12-0.19-10.24,0.93-15.31c0.25-1.14,0.58-2.96-1.18-3.35c-1.93-0.43-2.28,1.16-2.81,2.66
		c-1.51,4.28-0.57,8.78-1.21,13.55c-4.09-2-7-4.9-10.2-7.43c-3.48-2.75-6.52-6.18-10.86-7.69c-2.84-0.99-4.97-0.6-4.7,3.23
		c0.27,3.81-0.1,7.59-1.01,11.31c-10.66-2.43-21.57-3.73-32.09-6.81c0.38-2.1,1.16-3.42,3.69-2.44c1.68,0.66,3.48,1.04,5.26,1.41
		c2.4,0.51,5.96,2.65,6.78-0.77c0.89-3.76-3.62-2.05-5.55-2.99c-1.79-0.87-3.46-1.14-2.95-3.57c0.5-2.44,2.53-1.87,4.02-1.67
		c3.09,0.42,6.13,1.24,9.21,1.74c1.4,0.23,3.18,0.62,3.52-1.58c0.28-1.81-1.03-2.17-2.46-2.36c-4.56-0.62-9.11-1.32-13.68-1.89
		c-1.93-0.24-2.76,0.69-4.01,2.48C265.54,591.3,263.41,596.45,257.48,596.99z"/>
	<path class="st8" d="M164.52,489.86c2.37-9.14,8.22-16.18,14.43-22.79c16.41-17.44,37.08-28.08,59.58-35.04
		c59.74-18.47,118.8-16.2,176.58,7.96c22.6,9.45,42.36,23.17,55.56,44.6c3.64,5.91,7.04,12.05,6.97,19.36
		c-16.32-15.91-35.81-26.65-56.8-35c-15.07-6-30.71-10.06-46.43-13.87c0.81-0.13,1.65-0.19,2.44-0.41c5.29-1.47,8.4-5.08,8.41-9.69
		c0.01-4.54-3.28-8.08-8.54-9.6c-3.91-1.13-7.57,0.12-11.18,1.04c-8.39,2.15-12.37,5.67-10.79,15.17
		c-10.45-1.04-20.89-2.07-31.34-3.11c0.18-1.14,1.22-1.46,1.96-2.1c4.57-3.92,4.33-8.47-0.72-11.84c-3.47-2.31-7.54-2.42-11.47-2.32
		c-15.21,0.38-29.72,4.53-44.14,8.83c-10.27,3.06-20.5,6.54-28.47,14.33c-1.09,1.03-2.96-0.13-3.88,1.38
		c-23.25,4.87-44.73,13.83-64.19,27.57C169.86,486.2,168.01,489.23,164.52,489.86z"/>
	<path class="st9" d="M484.82,538.07c3.58,2.21,1.88,5.77,1.59,8.46c-1.51,14.13-9.07,25.21-19.56,34.08
		c-22.47,18.99-49.5,27.72-77.82,33.2c-14.47,2.8-29.05,4.51-43.8,5.22c-9.95,0.48-19.84,0.19-29.74-0.16
		c-35.05-1.25-69.08-7.42-101.51-21.26c-17.89-7.63-34.55-17.03-47.81-31.64c-10.8-11.9-16.54-25.59-14.48-41.87
		c0.34-2.68,0.19-6.21,3.95-7.3c1.01,4.9,4.58,9.18,3.25,14.71c-0.36,1.51,0.9,3.38,2.34,4.19c7.1,3.97,9.48,11.98,15.01,17.26
		c0.23,0.22,0.3,0.58,0.45,0.88c-0.42,0.51-0.8,1.07-1.28,1.51c-1.01,0.92-3.21,1.21-2.22,3.23c0.85,1.74,2.46,1.02,3.96,0.66
		c1.43-0.34,2.96-0.27,4.45-0.38c2.36,2.33,4.73,4.66,7.09,7c-8.07,4.23-8.07,4.23-0.53,10.04c0.39,0.3,0.76,0.7,1.22,0.86
		c2.28,0.78,4.4,5.28,6.54,2.21c1.96-2.82-2.46-4.11-4.42-5.37c-3.25-2.08-3.2-3.37,0.18-4.89c10.66,7.55,21.38,15.03,32.96,21.16
		c0.16,5.48,3.6,8.01,8.45,8.85c2.43,0.42,4.98,0.1,7.48,0.11c1.37-0.01,2.74-0.01,4.12-0.02c3.97,1.36,7.93,2.72,11.9,4.08
		c-0.88,1.92-1.66,3.18,1.61,4.12c7.42,2.15,14.61,5.12,22.42,1.81c5.32,1.73,11.02,1.51,16.36,3.47c2.63,0.97,5.75,0.04,8.71,0.29
		c16.91,1.43,34.02,1.61,50.75-0.24c17-1.88,33.94-5.79,50.17-11.94c18.22-6.9,35.69-15.08,50.56-27.93
		C468.45,562.71,479.46,552.64,484.82,538.07z"/>
	<path class="st7" d="M160.66,525.84c-0.54-6.13-2.9-11.82-4.32-17.73c-0.56-2.32-1.03-4.01,1.82-5.14c2.05-0.82,2.3-3.06,2.53-5.07
		c0.29-0.35,0.58-0.7,0.87-1.04c0,0-0.01-0.01-0.01-0.01c1.18,0.04,2.25-0.05,3.12-1.09c6.81-8.15,15.92-13.34,25.03-18.19
		c11.77-6.27,23.91-11.92,37.18-14.47c-0.3,0.58-0.46,1.35-0.93,1.72c-11.45,9.01-21.52,19.45-31.45,30.04
		c-1.3,0.09-1.92,0.79-1.88,2.09c-0.08,0.84-0.38,1.54-1.22,1.89c-1.27,0.14-1.83,0.86-1.75,2.12c0,0,0-0.03,0-0.03
		c-0.32,0.39-0.64,0.77-0.96,1.16c-0.13,0.61-0.25,1.22-0.38,1.83c-0.25,0.29-0.5,0.57-0.75,0.86l-0.07,0.08
		c-0.29,0.36-0.59,0.72-0.88,1.08c-0.02,0.32-0.08,0.62-0.19,0.92c-1.32,0.12-1.86,0.89-1.77,2.17c-0.02,0.29-0.07,0.56-0.17,0.83
		c-5.39,3.83-10.45,8.05-14.87,12.99C166.63,523.84,163.65,524.84,160.66,525.84z"/>
	<path class="st10" d="M374.42,455.08c15.72,3.81,31.36,7.87,46.43,13.87c20.98,8.35,40.48,19.09,56.8,35c0,0-0.01-0.08-0.01-0.08
		c0.31,0.34,0.62,0.69,0.93,1.03c0.27,2.01,0.55,4.03,0.82,6.04c-3.62-1.78-5.9-5.16-8.73-7.77
		c-17.94-16.53-39.39-26.49-62.03-34.47c-13.77-4.85-27.77-8.83-42.2-10.97c-15.19-2.25-30.3-5.38-45.8-4.92
		c-1.74,0.05-4.19,1.17-5.03-1.75c0.66-0.44,1.18-0.97,1.12-1.85c2.23-0.24,4.46-0.49,6.68-0.73c10.45,1.04,20.89,2.07,31.34,3.11
		C361.13,453.73,367.74,454.59,374.42,455.08z"/>
	<path class="st10" d="M211.57,547.93c-0.58,3.79-2.81,5.74-6.63,5.96c-4.08,0.23-7.18,3.56-11.5,3.5c-1.2-0.02-2.22,0.94-3.7-0.13
		c-1.21-0.88-2.04,0.28-2.18,1.64c-7.41-6.78-13.07-14.99-18.97-23.01c3.69-0.02,7.37-0.04,11.06-0.06c1.59,0.59,1.87,2.2,2.68,3.41
		c1.81,2.7,3.82,5.08,6.58,7.05C196.25,551.55,203.8,550.39,211.57,547.93z"/>
	<path class="st10" d="M226.89,463.09c-13.28,2.55-25.42,8.2-37.18,14.47c-9.11,4.85-18.21,10.04-25.03,18.19
		c-0.87,1.04-1.94,1.13-3.12,1.09c0.56-1.98,1.12-3.95,1.69-5.93c0.72-0.03,1.31-0.22,1.33-1.09c0,0-0.06,0.03-0.06,0.03
		c3.49-0.62,5.34-3.66,7.97-5.52c19.46-13.74,40.94-22.7,64.19-27.57C233.78,459.43,230.83,462.03,226.89,463.09z"/>
	<path class="st10" d="M296.56,605.82c0.91-3.72,1.28-7.49,1.01-11.31c-0.27-3.83,1.86-4.21,4.7-3.23c4.33,1.5,7.38,4.94,10.86,7.69
		c3.2,2.53,6.11,5.43,10.2,7.43c0.64-4.77-0.3-9.27,1.21-13.55c0.53-1.51,0.88-3.1,2.81-2.66c1.76,0.39,1.43,2.21,1.18,3.35
		c-1.11,5.07-0.93,10.19-0.93,15.31c-4.42,0.65-8.64-1.29-13.02-1.04c0.41-4.39-4.25-4.65-6.08-7.29c-1.3-1.87-4.48-4.39-5.78-3.9
		c-2.51,0.96-0.73,4.36-1.1,6.69c-0.18,1.13-0.01,2.31,0.01,3.47C299.94,606.48,298.25,606.15,296.56,605.82z"/>
	<path class="st10" d="M257.48,596.99c5.92-0.54,8.06-5.69,10.81-9.61c1.25-1.79,2.08-2.72,4.01-2.48
		c4.57,0.57,9.12,1.27,13.68,1.89c1.43,0.19,2.74,0.55,2.46,2.36c-0.34,2.19-2.13,1.8-3.52,1.58c-3.08-0.5-6.12-1.33-9.21-1.74
		c-1.48-0.2-3.51-0.77-4.02,1.67c-0.5,2.44,1.17,2.7,2.95,3.57c1.94,0.94,6.45-0.77,5.55,2.99c-0.81,3.43-4.37,1.28-6.78,0.77
		c-1.77-0.37-3.58-0.76-5.26-1.41c-2.54-0.99-3.31,0.33-3.69,2.44C262,598.83,259.56,598.53,257.48,596.99z"/>
	<path class="st10" d="M350.67,605.98c-0.29-4.33-3.14-7.6-4.75-11.37c-0.77-1.8-2.06-1.61-3.71-1.15c-3.07,0.86-6.26,0.44-9.4,0.26
		c-0.82-0.05-1.64-0.62-1.7-1.54c-0.07-1.1,0.88-1.23,1.72-1.28c9.54-0.63,18.88-3.1,28.49-3.01c1.07,0.01,2.63-0.42,2.75,1.25
		c0.08,1.09-1.16,1.39-2.1,1.79c-2.37,1.03-4.86,0.83-7.33,1.01c-3.1,0.23-4.62,1.42-2.7,4.79c1.46,2.55,2.47,5.36,3.68,8.06
		C353.97,605.19,352.32,605.59,350.67,605.98z"/>
	<path class="st10" d="M196.46,564.01c4.58-2.68,10.11-2.94,14.69-5.72c1.46-0.88,10.75,4.54,11.13,6.33
		c0.51,2.41-1.26,2.51-2.73,2.04c-2.36-0.75-4.61-1.84-6.39-3.68c-1.46-1.5-2.99-1.11-4.46-0.04c-1.54,1.13-1.32,2.56-0.43,3.93
		c1.1,1.69,3.96,3.94,1.48,5.23c-2.35,1.23-5.13-1.66-5.84-4.12c-1.66-5.8-2.92-1.43-4.37-0.07
		C198,567.01,196.75,565.89,196.46,564.01z"/>
	<path class="st11" d="M179.65,535.82c-3.69,0.02-7.37,0.04-11.06,0.06c-2.29-1.91-4.42-3.94-5.14-7c4.89-1.76,9.72-3.77,15.1-3.02
		C178.92,529.18,179.28,532.5,179.65,535.82z"/>
	<path class="st10" d="M227.47,583c2.22,0,3.83-0.74,5.6-2.41c4.76-4.5,10.51-6.02,16.97-3.75c1.33,0.47,2.29,1.29,3.21,2.25
		c0.7,0.73,1.46,1.55,0.72,2.59c-0.97,1.38-1.75,0.4-2.84-0.15c-5.87-2.97-11.66-1.99-15.42,2.2c-0.88,0.98-1.14,1.95-1.11,3.13
		C232.04,585.91,229.4,585.11,227.47,583z"/>
	<path class="st7" d="M301.62,606.8c-0.01-1.16-0.19-2.34-0.01-3.47c0.38-2.34-1.4-5.73,1.1-6.69c1.29-0.5,4.47,2.02,5.78,3.9
		c1.83,2.64,6.49,2.9,6.08,7.29C310.34,606.43,305.95,607.08,301.62,606.8z"/>
	<path class="st3" d="M280.6,608.83c-7.81,3.31-15,0.34-22.42-1.81c-3.27-0.95-2.5-2.2-1.61-4.12
		C264.58,604.87,272.59,606.85,280.6,608.83z"/>
	<path class="st3" d="M191.67,568.7c-3.38,1.52-3.43,2.81-0.18,4.89c1.96,1.25,6.38,2.55,4.42,5.37c-2.14,3.07-4.26-1.43-6.54-2.21
		c-0.45-0.15-0.82-0.56-1.22-0.86c-7.55-5.81-7.55-5.81,0.53-10.04C189.86,566.61,191.45,566.94,191.67,568.7z"/>
	<path class="st3" d="M240.56,598.82c-2.5-0.01-5.05,0.31-7.48-0.11c-4.86-0.84-8.29-3.37-8.45-8.85
		c6.01,2.65,12.02,5.31,18.03,7.97C241.83,597.9,241.04,598.03,240.56,598.82z"/>
	<path class="st10" d="M178.55,525.86c-5.39-0.75-10.22,1.26-15.1,3.02c-1.27-0.7-2.29-1.63-2.79-3.04c2.99-1,5.97-2,8.95-3
		c3.09,0.23,6.25-2.62,9.28,0.21C178.78,523.99,178.67,524.92,178.55,525.86z"/>
	<path class="st3" d="M181.6,558.85c-1.49,0.11-3.02,0.04-4.45,0.38c-1.5,0.36-3.11,1.08-3.96-0.66c-0.99-2.02,1.21-2.3,2.22-3.23
		c0.48-0.44,0.86-1,1.28-1.51C178.33,555.51,179.96,557.18,181.6,558.85z"/>
	<path class="st12" d="M240.56,598.82c0.48-0.79,1.27-0.92,2.09-1c0.67,0.33,1.35,0.65,2.02,0.98
		C243.31,598.81,241.93,598.81,240.56,598.82z"/>
	<path class="st8" d="M164.58,489.82c-0.03,0.87-0.61,1.06-1.33,1.09C163.6,490.44,163.7,489.66,164.58,489.82z"/>
	<path class="st10" d="M161.56,496.85c-0.29,0.35-0.58,0.7-0.87,1.04C160.98,497.55,161.27,497.2,161.56,496.85z"/>
	<path class="st11" d="M478.57,504.91c-0.31-0.34-0.62-0.69-0.93-1.03C478.37,503.84,478.49,504.35,478.57,504.91z"/>
	<path class="st12" d="M489.14,524.64c7.32,15.24,10.52,29.51,4.54,45c-2.3,5.97-3.03,12.5-5.9,18.41
		c-3.7,7.62-8.08,14.59-14.37,20.45c-9.17,8.54-20.23,14.22-30.83,20.46c-8.51,5.01-18.26,7.58-27.93,9.91
		c-13.04,3.13-26.27,5.23-39.56,6.81c-4.75,0.56-9.57,0.81-14.36,1.12c-9.11,0.6-18.28,0.68-27.37,0.78
		c-18.02,0.2-36.04-1.2-54.01-3.36c-15.17-1.83-30.11-4.6-44.81-8.49c-10.38-2.75-20.56-6.28-30.05-11.67
		c-3.78-2.15-8.28-3.06-11.96-5.68c-11.42-8.13-22.03-17.02-30.62-28.33c-6.91-9.1-12.11-18.98-16.25-29.5
		c-4.54-11.51-4.78-23.12-0.56-34.87c1.85-5.14,3-10.54,6.81-14.54c0.57,2.66,0.53,2.64-0.2,4.48c-6.15,15.42-4.13,30.13,4.92,43.62
		c12.79,19.08,31.69,30.43,52.05,39.9c18.79,8.74,38.6,14.01,58.76,18.09c12.47,2.52,25.13,3.86,37.86,4.86
		c11.32,0.89,22.61,1,33.88,0.72c36.62-0.91,72.36-6.45,105.46-23.18c14.28-7.22,27.48-16.11,36.95-29.61
		c8.65-12.34,10.99-25.68,7.44-40.18C488.7,528.51,488.39,527.25,489.14,524.64z"/>
	<path class="st0" d="M630.72,115.19c-30.49-5.22-59.98-0.9-89.56,3.32c4.58-4.3,10.43-4.51,15.87-5.52
		c15.15-2.81,30.54-3.88,45.89-4.85c9.22-0.59,18.52,0.63,27.62,2.74c2.5,0.58,4.35,1.97,4.89,4.39c0.63,2.79-1.6,4.32-3.6,5.41
		c-7.55,4.12-16.02,5.29-24.26,7.15c-0.48,0.11-1.01,0.03-1.49,0.14c-2.33,0.53-5.54,2.24-5.93-1.63c-0.35-3.45,3.5-3.08,5.64-3.32
		c7.31-0.84,14.27-2.96,21.24-5.09C628.28,117.54,629.45,117.13,630.72,115.19z"/>
	<path class="st1" d="M349.59,331.88c-7.62,0.06-7.64,0.06-8.01-7.8c-0.54-11.66-7.61-18.11-17.62-22.26
		c-1.68-0.7-3.35-1.46-4.93-2.36c-1.54-0.87-1.57-2.44-1.39-3.97c0.18-1.51,1.1-2.47,2.6-2.55c2.81-0.14,5.46-1.53,8.34-1.08
		c4.33,3,8.66,6.01,12.99,9.01c-0.28,2.06,1.05,3.29,2.21,4.75c4.59,5.8,8.28,11.95,7.9,19.83
		C351.56,327.9,351.04,329.98,349.59,331.88z"/>
	<path class="st0" d="M501.58,130.84c-2.25-1.37-4.62-2.48-7.22-3c-1.15-0.23-2.52-0.5-2.18-2.05c0.27-1.24,1.61-0.83,2.53-0.9
		c4.61-0.38,8.46,2.65,12.92,2.94c5.36,0.56,10.57-0.73,15.8-1.44c1.89-0.26,4.13-1.08,4.65,1.15c0.59,2.54-2.31,2.57-3.84,2.89
		C516.74,131.98,509.17,132.74,501.58,130.84z"/>
	<path class="st0" d="M586.4,122.62c-4.9,2.91-9.17,3.26-13.25,4.2c-0.92,0.21-2.04,0-2.29-1.27c-0.14-0.71,0.23-1.35,0.95-1.47
		C576.18,123.35,580.37,120.96,586.4,122.62z"/>
	<path class="st0" d="M501.5,117.44c-0.73,0.23-1.38,0.08-1.64-0.62c-0.32-0.85-0.05-1.86,0.73-2.15c4.29-1.61,8.62-3.09,12.95-4.57
		c0.64-0.22,1.47-0.06,1.52,0.71c0.04,0.51-0.4,1.38-0.84,1.56C510.01,114.12,505.75,115.76,501.5,117.44z"/>
	<path class="st13" d="M316.91,372.96c-9.11-0.17-15.72-10.58-12.04-18.2c1.14-2.37,3.01-2.72,4.49-0.29
		c1.02,1.67,1.58,3.64,2.26,5.51c1,2.7,2.66,4.65,5.71,4.81c2.98,0.16,4.96,1.48,4.6,4.56
		C321.56,372.43,319.05,373.08,316.91,372.96z"/>
	<path class="st0" d="M310.72,340.16c-0.07,2.4-0.3,5.12-3.25,5.26c-3.08,0.15-3.67-2.73-3.38-4.98c0.27-2.19-0.03-5.57,3.61-5.47
		C311.03,335.06,310.68,337.86,310.72,340.16z"/>
	<path class="st14" d="M178.55,525.86c0.12-0.94,0.23-1.87,0.35-2.81c0.63-4.92,4.29-8.56,5.59-13.19c0.1-0.27,0.16-0.55,0.17-0.84
		c1.16-0.25,1.89-0.86,1.77-2.16c0.11-0.3,0.17-0.6,0.19-0.92c0.29-0.36,0.59-0.72,0.88-1.08c0,0,0.07-0.08,0.07-0.08
		c0.25-0.29,0.5-0.57,0.75-0.86c0.13-0.61,0.25-1.22,0.38-1.84c0.32-0.39,0.64-0.77,0.96-1.16c0,0,0,0.03,0,0.03
		c1.24-0.16,1.86-0.84,1.75-2.12c0.83-0.36,1.14-1.05,1.22-1.89c1.22-0.17,1.9-0.81,1.88-2.09c9.93-10.59,20-21.03,31.45-30.04
		c0.47-0.37,0.63-1.14,0.93-1.72c3.94-1.06,6.89-3.65,9.79-6.32c0.92-1.51,2.79-0.35,3.88-1.38c13.25-2.57,26.53-4.76,40.04-5.79
		c12.07-0.92,24.07-0.97,36.12-0.38c0.06,0.88-0.47,1.4-1.12,1.85c-7,3.94-14.01,7.88-21.01,11.81
		c-19.34,8.8-35.67,21.48-49.03,37.99c-8.53,7.08-14.38,16.2-18.41,26.26c-3.39,8.5-8.32,15.41-15.58,20.8
		c-7.77,2.46-15.32,3.62-22.67-1.65c-2.76-1.98-4.77-4.36-6.58-7.05c-0.81-1.21-1.09-2.82-2.68-3.41
		C179.28,532.5,178.92,529.18,178.55,525.86z"/>
	<path class="st10" d="M313.58,568.88c1.28,3.93,2.37,7.81,7.81,7.93c2.17,0.05,3.44,7.93,1.59,9.39c-1.37,1.08-2.45,0.08-2.29-1.21
		c0.56-4.32-1.71-5.16-5.38-5.49c-2.3-0.21-3.82-1.56-3.39-4.89c0.36-2.83-1.25-5.91-2.39-9.18c-0.74,4.01-2.51,6.38-6.79,5.44
		c-3.18-0.7-6.35-1.4-9.45-2.53c2.61,4.48,6.67,5.67,11.47,5.6c1.69-0.02,4.63-1.2,4.58,2.05c-0.04,2.82-2.71,1.7-4.33,1.86
		c-7.58,0.76-13.07-3.02-18.48-7.85c-6.48-5.78-12.17-11.9-15.03-20.27c-0.38-1.11-1.21-2.29,0.1-3.11
		c2.13-1.33,2.02,1.07,2.54,1.92c2.29,3.78,4.54,7.55,8.09,11.04c0.41-2.91-1.19-4.7-2.23-6.59c-2.44-4.44-1.99-6.67,2.61-7.85
		c3.84-0.98,2.8-2.32,0.99-4.15c-1.16-1.18-2.77-2.02-3.64-3.36c-2.01-3.1-4.01-3.4-6.91-1.09c-3.46,2.76-6.69,0.43-8.82-1.81
		c-2.7-2.85-5.32-2.73-8.44-1.74c-4.28,1.36-8.23,3.39-11.87,6.03c-0.9,0.65-1.83,2.69-3.08,0.68c-0.8-1.29,0.28-2.3,1.47-3.22
		c4.72-3.62,10.39-4.79,15.83-6.67c3.34-1.15,5.82-1.58,8.39,1.51c2.2,2.64,5.28,1.98,7.66,0.11c2.96-2.33,4.53-1.22,6.45,1.36
		c2.04,2.76,4.6,5.14,7.47,7.4c-0.77-3.91-3.43-6.93-4.12-10.96c-1-5.83-2.61-11.29,1.45-16.59c0.72-0.94,0.93-2.54,0.78-3.76
		c-0.12-0.97-1.27-0.47-2.08-0.33c-12.39,2.14-16.29-1.1-16.53-13.66c4.05-8.22,8.64-16.02,16.64-21.14
		c6.62-4.24,12.28-3.88,17.96,1.58c1.3,1.25,1.93,1.27,3.23,0.31c6.99-5.14,14.88-8.36,23.15-10.76c6.76,0,13.56-0.3,19.66,3.48
		c0.25,0.15,0.69,0.21,0.95,0.1c7.91-3.46,15.18-1.04,22.37,2.36c0.55,0.26,1.31,0.06,1.98,0.07c0.07,1.29,0.74,1.96,2.03,2
		c0,0,0.01,0,0.01,0c1.55,1.7,3.19,3.33,4.62,5.12c4.41,5.55,8.98,11.06,8.42,18.85c-0.03,5.25-0.66,10.45,3.29,15.05
		c2.02,2.35,2.15,5.95,1.59,9.13c-0.54,3.1-1.84,5.94-5.67,5.78c-3.33-0.13-3.03,1.58-2.27,3.72c3.02,8.43,2.65,16.26-4.03,23.01
		c-0.4,0.4-0.65,1.22-0.57,1.79c1.49,10.65-6.09,15.52-13.16,20.7c-0.51,0.37-1.47,0.86-1.78,0.65c-4.6-3.21-8.53,0.51-12.71,1.2
		c-13.09,2.16-24.88-1.4-36.02-7.9C316.09,569.3,314.97,568.81,313.58,568.88c-0.13-0.08-0.27-0.16-0.41-0.23
		C313.31,568.72,313.45,568.8,313.58,568.88z M300.6,485.86c-0.07-9.69-4.39-13.55-12.11-10.3c-6.87,2.89-11,8.63-13.91,15.31
		c-3.38,3.87-3.66,8.28-0.94,12.3c2.53,3.75,6.17,2.71,9.82,1c2.06-0.97,5.01-0.47,5.21,2.17c0.53,7.02,4.76,5.15,9.04,4.62
		c3.88-0.48,4-3.5,4.96-5.98c3.35-8.62,10.65-14.59,17.41-14.1c11.84,0.87,25.91,12.06,28.31,23.73c1.25,6.05,3.72,7.53,9.58,7.42
		c11.48-0.21,22.17,15.08,18.51,25.64c-0.42,1.21-1.13,2.14-2.5,1.95c-1.27-0.17-1.33-1.3-1.36-2.32c-0.02-0.83,0.01-1.67-0.03-2.5
		c-0.42-10.79-4.46-18.4-18.61-18.93c-4.71-0.18-8.01-2.55-9.28-6.89c-2.5-8.6-7.2-15.75-14.54-20.55
		c-4.41-2.88-9.52-4.91-15.48-1.92c-4.91,2.46-7.59,6.47-8.58,10.97c-1.38,6.29-4.54,7.74-10.44,7.51
		c-8.64-0.34-10.15,1.95-8.29,10.58c0.52,2.42,0.7,5.06,1.8,7.2c5.8,11.28,12.83,21.76,23.28,29.24
		c11.65,8.34,24.2,14.26,39.28,11.9c8.23-1.29,16.47-7.98,18.69-15.86c0.74-2.62-0.29-7.49,5.38-4.6c0.4,0.2,1.53-1.06,2.33-1.63
		c8.21-5.81,6.84-21.14-1.94-28.43c-1.53-1.27-3.01-2.62-4.47-3.97c-0.76-0.71-1.43-1.74-0.8-2.65c0.98-1.41,2.21-0.25,3.02,0.32
		c2.71,1.89,5.06,4.31,8.42,5.15c2.07,0.52,4.53,1.69,5.87-0.57c1.43-2.43,1.5-5.34,0.15-8.1c-1.21-2.49-3-2.6-5.38-1.85
		c-1.22,0.38-2.65,0.16-3.98,0.1c-1.69-0.08-3.63-0.3-4.1-2.15c-0.57-2.22,1.9-1.95,3-2.59c6.14-3.6,7.41-6.38,5.66-13.24
		c-2.35-12.26-11.88-18.14-22.07-21.41c-7.78-2.5-16.61-2.43-24.95-3.3c-13.79-1.45-23.87,6.24-32.02,16.68
		C303.22,485.85,301.91,485.85,300.6,485.86z M290.74,545.99c-1.39,0.48-2.93,1.15-4.53,1.52c-3.32,0.76-3.37,1.79-2.01,5.1
		c3.15,7.61,9.56,10.62,16.22,13.65c1.62,0.74,3.15,1.08,4.33-0.82c1.04-1.68,0.88-3.11-0.56-4.45c-4.04-3.76-7.09-8.29-10.09-12.87
		C293.38,547,292.45,546.02,290.74,545.99z M366.15,572.26c4.58-2.95,8.75-6.27,11.05-11.38c0.37-0.82,1.71-1.56,0.63-2.51
		c-1.14-0.99-2.56-0.14-2.92,0.83C373.01,564.26,369.09,567.83,366.15,572.26z"/>
	<path class="st11" d="M388.62,496.87c0.56-7.78-4.01-13.3-8.42-18.85c-1.43-1.8-3.07-3.42-4.62-5.12
		c3.59-0.46,6.83,0.89,10.19,1.82c19.22,5.31,37.41,13.03,54.88,22.63c10.28,5.65,19.45,12.85,28.75,19.85
		c2.68,2.01,4.57,5.72,2.63,9.25c-1.82,3.32-5.09,2.29-7.96,1.12c-3.51-1.43-6.94-3.01-10.27-4.86
		c-12.65-7.04-25.6-13.35-39.4-18.01c-7.27-2.46-14.62-4.73-21.86-7.3C391.32,496.97,389.93,497.03,388.62,496.87z"/>
	<path class="st11" d="M328.58,464.88c-8.27,2.4-16.16,5.63-23.15,10.76c-1.3,0.96-1.93,0.94-3.23-0.31
		c-5.68-5.47-11.35-5.83-17.96-1.58c-8,5.13-12.59,12.92-16.64,21.14c-0.81-0.13-0.84-1.42-2.35-0.82
		c-5.27,2.08-10.98,3.01-15.83,6.26c-0.97,0.65-2.55,0.38-3.86,0.54c13.36-16.51,29.69-29.19,49.03-37.99
		c0.1,1.46-0.2,2.58,2.35,2.48C307.48,464.94,318.03,465,328.58,464.88z"/>
	<path class="st11" d="M375.57,472.89c-1.3-0.04-1.97-0.71-2.03-2C374.86,470.9,375.56,471.54,375.57,472.89z"/>
	<path class="st13" d="M316.73,449.21c-12.05-0.58-24.05-0.54-36.12,0.38c-13.51,1.03-26.79,3.22-40.04,5.79
		c7.97-7.79,18.19-11.26,28.47-14.33c14.42-4.3,28.93-8.44,44.14-8.83c3.94-0.1,8.01,0,11.47,2.32c5.05,3.37,5.29,7.92,0.72,11.84
		c-0.74,0.63-1.77,0.95-1.96,2.1C321.18,448.73,318.95,448.97,316.73,449.21z"/>
	<path class="st13" d="M374.42,455.08c-6.68-0.49-13.29-1.35-19.67-3.49c-1.58-9.51,2.4-13.02,10.79-15.17
		c3.61-0.93,7.27-2.17,11.18-1.04c5.27,1.52,8.55,5.06,8.54,9.6c-0.01,4.61-3.12,8.22-8.41,9.69
		C376.07,454.88,375.23,454.94,374.42,455.08z"/>
	<path class="st11" d="M184.49,509.85c-1.3,4.64-4.96,8.27-5.59,13.19c-3.03-2.82-6.19,0.03-9.28-0.21
		C174.04,517.9,179.09,513.69,184.49,509.85z"/>
	<path class="st11" d="M191.41,498.84c0.1,1.28-0.51,1.96-1.75,2.12C189.58,499.7,190.14,498.98,191.41,498.84z"/>
	<path class="st11" d="M194.51,494.85c0.02,1.28-0.67,1.93-1.88,2.09C192.58,495.65,193.21,494.94,194.51,494.85z"/>
	<path class="st11" d="M186.43,506.85c0.12,1.3-0.6,1.91-1.77,2.16C184.57,507.74,185.1,506.98,186.43,506.85z"/>
	<path class="st11" d="M189.65,500.92c-0.32,0.38-0.64,0.77-0.96,1.16C189.01,501.7,189.33,501.31,189.65,500.92z"/>
	<path class="st11" d="M187.49,504.86c-0.29,0.36-0.59,0.72-0.88,1.08C186.91,505.58,187.2,505.22,187.49,504.86z"/>
	<path class="st11" d="M188.31,503.92c-0.25,0.29-0.5,0.58-0.75,0.86C187.81,504.49,188.06,504.2,188.31,503.92z"/>
	<path class="st7" d="M383.57,493.87c1.75,6.86,0.48,9.63-5.66,13.24c-1.1,0.64-3.56,0.37-3,2.59c0.47,1.85,2.41,2.07,4.1,2.15
		c1.33,0.07,2.76,0.29,3.98-0.1c2.38-0.75,4.16-0.63,5.38,1.85c1.34,2.76,1.28,5.67-0.15,8.1c-1.33,2.27-3.8,1.09-5.87,0.57
		c-3.36-0.85-5.72-3.26-8.42-5.15c-0.81-0.57-2.04-1.73-3.02-0.32c-0.63,0.91,0.04,1.94,0.8,2.65c1.46,1.36,2.93,2.7,4.47,3.97
		c8.79,7.29,10.16,22.62,1.94,28.43c-0.8,0.57-1.93,1.83-2.33,1.63c-5.67-2.89-4.64,1.98-5.38,4.6
		c-2.23,7.87-10.47,14.57-18.69,15.86c-15.08,2.36-27.63-3.56-39.28-11.9c-10.44-7.48-17.48-17.96-23.28-29.24
		c-1.1-2.14-1.28-4.78-1.8-7.2c-1.87-8.63-0.36-10.92,8.29-10.58c5.9,0.23,9.06-1.22,10.44-7.51c0.99-4.5,3.67-8.51,8.58-10.97
		c5.96-2.99,11.07-0.96,15.48,1.92c7.34,4.8,12.03,11.96,14.54,20.55c1.26,4.34,4.57,6.71,9.28,6.89
		c14.15,0.53,18.19,8.14,18.61,18.93c0.03,0.83,0,1.67,0.03,2.5c0.03,1.02,0.09,2.15,1.36,2.32c1.37,0.19,2.08-0.74,2.5-1.95
		c3.66-10.56-7.03-25.85-18.51-25.64c-5.86,0.11-8.33-1.37-9.58-7.42c-2.4-11.67-16.46-22.87-28.31-23.73
		c-6.76-0.49-14.06,5.48-17.41,14.1c-0.96,2.48-1.08,5.5-4.96,5.98c-4.27,0.53-8.5,2.4-9.04-4.62c-0.2-2.64-3.15-3.14-5.21-2.17
		c-3.64,1.71-7.29,2.75-9.82-1c-2.71-4.03-2.44-8.44,0.95-12.3c1.34,0.01,2.69,0.03,4.03,0.04c0,1.15-0.1,2.31,0.01,3.45
		c0.28,2.76,1.56,5.09,4.02,6.3c2.34,1.15,3.86-0.93,5.59-2.1c3.56-2.42,5.01-6.4,7.39-9.69c1.36-1.49,4.57,0.07,4.97-3.01
		c1.31-0.01,2.62-0.01,3.94-0.02c1.46,1.66,3.48,1.22,5.16,0.96c9.67-1.48,19.3-0.03,28.94,0.15c4.76,0.09,9.53,0.84,14.25,1.57
		C363.15,490.12,373.18,493.04,383.57,493.87z M329.93,524.38c-0.56-4.67-1.31-9.22-2.88-13.63c-0.6-1.69-0.95-2.6-3.39-2.18
		c-6.86,1.19-14.51,7.47-16.55,14.14c-0.53,1.72-0.35,3.14,0.26,4.79c2.92,7.92,10.26,7.41,17.87,2.99
		C327.37,529.27,330.49,527.97,329.93,524.38z M347.16,540.67c-4.03-0.97-6.53,1.03-7.98,4.39c-1.54,3.55-2.59,7.44,0.52,10.66
		c2.36,2.44,5.38,2.09,8.71,1.51c7.07-1.24,9.83-7.42,14.4-11.49c1.35-1.2-0.13-2.47-1.55-2.73
		C356.58,542.15,351.86,541.44,347.16,540.67z M304.9,547.45c0.85,1.88,2.14,2.16,3.43,2.4c2.46,0.45,4.66,1.41,6.84,2.72
		c3.08,1.84,2.82,5,3.73,7.73c0.49,1.47,1.29,2.85,3.19,2.41c1.79-0.41,1.5-1.99,1.45-3.26c-0.04-0.97-0.43-1.92-0.59-2.89
		c-0.43-2.71-3.61-4.87-2.05-7.86c1.7-3.28,5.09-1.29,7.68-1.85c0.16-0.03,0.33-0.02,0.49-0.06c1-0.23,2.01-0.56,2.01-1.79
		c0-1.1-1.08-1.07-1.81-1.33c-2.54-0.9-5.69-0.85-6.27-4.57c-0.11-0.73-1.14-1.23-2.05-1.02c-1.53,0.36-0.74,1.4-0.69,2.34
		c0.31,5.21-2.01,7.17-7.19,6.6C310.51,546.73,307.84,546.45,304.9,547.45z"/>
	<path class="st11" d="M383.57,493.87c-10.4-0.83-20.43-3.75-30.69-5.34c-4.72-0.73-9.49-1.48-14.25-1.57
		c-9.64-0.18-19.28-1.63-28.94-0.15c-1.68,0.26-3.7,0.69-5.16-0.96c8.14-10.45,18.22-18.13,32.02-16.68
		c8.34,0.88,17.17,0.81,24.95,3.3C371.69,475.73,381.22,481.61,383.57,493.87z"/>
	<path class="st7" d="M290.74,545.99c1.71,0.03,2.64,1.02,3.37,2.13c3,4.58,6.05,9.11,10.09,12.87c1.44,1.34,1.6,2.77,0.56,4.45
		c-1.18,1.9-2.71,1.55-4.33,0.82c-6.66-3.03-13.08-6.04-16.22-13.65c-1.36-3.3-1.32-4.33,2.01-5.1
		C287.81,547.14,289.35,546.47,290.74,545.99z"/>
	<path class="st11" d="M300.6,485.86c-0.4,3.07-3.61,1.51-4.97,3.01c-0.01-0.66,0.05-1.32-0.03-1.97c-0.31-2.27,1.11-5.12-2.03-6.48
		c-3.07-1.33-5.64-0.23-8.23,1.54c-3.3,2.25-3.82,6.47-6.72,8.95c-1.34-0.01-2.69-0.03-4.03-0.04c2.92-6.67,7.05-12.42,13.91-15.31
		C296.2,472.31,300.53,476.17,300.6,485.86z"/>
	<path class="st7" d="M366.15,572.26c2.94-4.43,6.86-8,8.76-13.05c0.36-0.97,1.78-1.83,2.92-0.83c1.08,0.94-0.26,1.68-0.63,2.51
		C374.9,565.98,370.73,569.3,366.15,572.26z"/>
	<path class="st7" d="M313.58,568.88c-0.14-0.08-0.27-0.16-0.41-0.23C313.31,568.72,313.45,568.8,313.58,568.88
		C313.59,568.87,313.58,568.88,313.58,568.88z"/>
	<path class="st10" d="M329.93,524.38c0.56,3.59-2.56,4.89-4.68,6.12c-7.62,4.42-14.96,4.93-17.87-2.99
		c-0.61-1.65-0.79-3.07-0.26-4.79c2.04-6.67,9.69-12.95,16.55-14.14c2.44-0.42,2.79,0.49,3.39,2.18
		C328.62,515.16,329.37,519.71,329.93,524.38z M319.59,513.88c-5.02,2.17-8.26,5.78-8.94,11.33c-0.19,1.55,0.2,3.03,2.06,3.42
		c0.95,0.2,1.86-0.38,1.71-1.26C313.46,521.81,318.16,518.48,319.59,513.88c0.08-0.14,0.16-0.28,0.23-0.42
		C319.74,513.6,319.67,513.74,319.59,513.88z"/>
	<path class="st10" d="M347.16,540.67c4.7,0.77,9.42,1.48,14.11,2.34c1.42,0.26,2.9,1.52,1.55,2.73
		c-4.57,4.07-7.33,10.26-14.4,11.49c-3.33,0.58-6.35,0.94-8.71-1.51c-3.11-3.22-2.06-7.11-0.52-10.66
		C340.63,541.7,343.12,539.7,347.16,540.67z"/>
	<path class="st10" d="M278.61,490.91c2.9-2.48,3.42-6.7,6.72-8.95c2.59-1.77,5.15-2.87,8.23-1.54c3.15,1.36,1.72,4.21,2.03,6.48
		c0.09,0.65,0.03,1.31,0.03,1.97c-2.38,3.29-3.83,7.27-7.39,9.69c-1.73,1.17-3.25,3.25-5.59,2.1c-2.46-1.21-3.74-3.54-4.02-6.3
		C278.51,493.22,278.61,492.06,278.61,490.91z M291.59,485.81c-0.1-0.74,0.23-1.9-0.77-2.5c-1.26-0.76-2.21,0.09-3.05,0.92
		c-2.66,2.65-4.21,5.95-5.07,9.53c-0.25,1.03-0.66,3,1.68,2.53C286.27,495.92,291.58,488.2,291.59,485.81z"/>
	<path class="st10" d="M304.9,547.45c2.94-1,5.61-0.72,8.18-0.44c5.18,0.57,7.5-1.38,7.19-6.6c-0.06-0.94-0.84-1.98,0.69-2.34
		c0.91-0.21,1.93,0.29,2.05,1.02c0.57,3.72,3.73,3.67,6.27,4.57c0.73,0.26,1.81,0.23,1.81,1.33c0,1.23-1,1.56-2.01,1.79
		c-0.16,0.04-0.33,0.02-0.49,0.06c-2.59,0.56-5.98-1.43-7.68,1.85c-1.55,2.99,1.62,5.15,2.05,7.86c0.16,0.97,0.55,1.92,0.59,2.89
		c0.05,1.27,0.34,2.85-1.45,3.26c-1.91,0.43-2.7-0.94-3.19-2.41c-0.91-2.73-0.65-5.88-3.73-7.73c-2.18-1.3-4.38-2.26-6.84-2.72
		C307.04,549.61,305.75,549.33,304.9,547.45z"/>
	<path class="st7" d="M319.59,513.88c-1.43,4.6-6.13,7.93-5.17,13.49c0.15,0.88-0.76,1.45-1.71,1.26c-1.86-0.39-2.25-1.87-2.06-3.42
		C311.33,519.66,314.57,516.05,319.59,513.88L319.59,513.88z"/>
	<path class="st7" d="M319.59,513.88c0.08-0.14,0.16-0.28,0.23-0.42C319.74,513.6,319.67,513.74,319.59,513.88L319.59,513.88z"/>
	<path class="st7" d="M291.59,485.81c-0.01,2.39-5.32,10.11-7.21,10.48c-2.34,0.46-1.93-1.51-1.68-2.53
		c0.86-3.58,2.41-6.88,5.07-9.53c0.84-0.84,1.8-1.68,3.05-0.92C291.82,483.91,291.49,485.08,291.59,485.81z"/>
</g>
</svg>
