<?xml version="1.0" encoding="utf-8"?>
<!-- Generator: Adobe Illustrator 26.0.3, SVG Export Plug-In . SVG Version: 6.00 Build 0)  -->
<svg version="1.1" id="Layer_1" xmlns="http://www.w3.org/2000/svg" xmlns:xlink="http://www.w3.org/1999/xlink" x="0px" y="0px"
	 viewBox="0 0 1198.59 1639.06" style="enable-background:new 0 0 1198.59 1639.06;" xml:space="preserve">
<style type="text/css">
	.st0{fill:#1C5676;}
	.st1{fill:#7396A8;}
</style>
<g>
	<path class="st0" d="M197.98,214c-0.18,0.26-0.26,0.56-0.24,0.87c-2.01,7.36-4.02,14.72-6.04,22.08
		c-7.96,22.16-15.9,44.33-23.88,66.48c-10.88,30.18-20.98,60.6-28.4,91.84c-2.81,11.81-4.44,23.8-5.7,35.89
		c-2.52,24.26,3.36,47.27,9.43,70.33c2.9,11,3.92,22.27,4.85,33.61c0.82,9.97,0.93,19.91,0.74,29.85
		c-0.45,24.07-0.83,48.15-2.16,72.18c-0.48,8.8-0.26,17.59-0.81,26.36c-1.3,20.7-1.39,41.44-2.24,62.14
		c-0.39,9.45,0.11,18.95-0.86,28.34c-1.33,12.96,0.11,25.97-1.08,38.84c-1.07,11.49-0.63,22.91-0.72,34.35
		c-0.15,19.45-0.97,38.89-1.39,58.34c-0.23,10.77-0.08,21.58-0.73,32.35c-1.11,18.39-1.46,36.79-2.11,55.19
		c-0.51,14.39-1.32,28.79-1.98,43.18c-0.64,14.06-1.41,28.11-2.03,42.18c-0.52,11.88-1.35,23.76-1.99,35.64
		c-0.67,12.4-1.37,24.79-1.97,37.19c-0.73,14.89-1.35,29.78-2.13,44.66c-0.49,9.3-0.58,18.58-0.71,27.87
		c-0.4,29,3.6,57.49,11.12,85.43c13.71,50.85,36.57,97.39,67.7,139.81c12.01,16.37,26.66,30.37,41.57,44.15
		c17.16,15.86,35.93,29.13,56.8,39.57c2.64,1.32,6.03,2.32,5.89,6.47c-0.05,1.46,1.31,1.59,2.52,1.83
		c17.48,3.42,34.85,7.44,52.5,9.99c15.41,2.22,30.75,5.11,46.22,6.78c12.95,1.4,25.98,2.25,38.96,3.38
		c30.96,2.7,62.01,2.86,93.01,3.4c20.74,0.36,41.58,0.23,62.32-1.5c1.66-0.14,3.33-0.12,5-0.07c15.94,0.38,31.78-1.49,47.67-2.15
		c16.32-0.68,32.61-2.33,48.88-3.9c14.24-1.38,28.42-3.35,42.65-4.87c10.98-1.17,22-1.98,32.98-3.09
		c12.13-1.22,24.24-2.7,36.37-3.89c8.7-0.85,17.43-1.29,26.13-2.11c18.92-1.78,37.97-1.6,56.86-3.89c4.89-0.59,9.91,0.04,14.81-1.08
		c2.53-0.58,5.29,0.13,6.97,1.75c3.23,3.12,5.85,2.29,9.24,0.37c21-11.85,39.82-26.59,58.41-41.91
		c25.34-20.89,43.53-46.48,55.48-76.8c6.55-16.62,10.17-34.06,13.77-51.46c3.08-14.9,5.93-29.9,7.86-44.99
		c1.59-12.41,2.66-24.92,3.45-37.46c0.85-13.63,0.9-27.24,0.7-40.85c-0.24-16.33-1.58-32.6-3.81-48.82
		c-1.73-12.55-2.68-25.21-4.14-37.81c-1.88-16.17-4.06-32.3-5.85-48.47c-1.25-11.3-2.03-22.65-3.11-33.98
		c-1.26-13.11-2.69-26.2-3.9-39.31c-0.47-5.1-0.52-10.22-0.93-15.34c-1.16-14.51-1.24-29.11-2.23-43.64
		c-1.11-16.21-1.34-32.44-2.1-48.65c-1.79-38.12-0.76-76.24-0.52-114.34c0.08-13.1,0.07-26.27,0.72-39.39
		c1.22-24.56,1.14-49.17,2.2-73.71c1.31-30.3,0.7-60.59,0.56-90.86c-0.08-16.53-1.35-33.08-1.93-49.64
		c-0.4-11.38-1.38-22.76-1.97-34.16c-0.92-17.65-2.4-35.27-3.94-52.88c-1.45-16.57-3.25-33.1-4.96-49.64
		c-4.85-47-13.09-93.33-26.7-138.67c-3.94-13.1-7.51-26.41-9.21-40.04c-2.19-17.53,1.62-33.65,12.11-48.12
		c4.04-5.57,7.38-11.6,7.79-18.75c0.48-8.4-2.22-15.79-7.12-22.48c0.17-0.61-0.01-1.04-0.63-1.26c0,0,0.04-0.03,0.04-0.03
		c-0.17-1.19-0.9-2.94-0.39-3.44c1.15-1.13,2.41,0.42,3.5,0.93c16.61,7.8,24.3,28.74,17.11,46.75c-2.29,5.75-4.88,11.38-7.45,17.01
		c-5.14,11.21-3.31,22.51-0.4,33.75c5.31,20.53,13.52,40.12,19.78,60.36c7.26,23.47,13.36,47.21,17.46,71.4
		c2.3,13.56,3.79,27.29,5.31,40.99c1.88,17.02,3.65,34.03,5,51.1c1.21,15.33,2.24,30.65,3,46.01c0.72,14.54,1.35,29.08,2.01,43.63
		c0.86,18.89,1.1,37.8,2.1,56.66c0.78,14.81,1,29.6,0.55,44.35c-0.45,14.95-0.04,29.94-1.05,44.83c-0.7,10.31-0.17,20.59-0.78,30.85
		c-1.31,22.04-1.3,44.12-2.25,66.16c-0.54,12.47,0.16,24.95-0.82,37.36c-1.89,24.1-0.88,48.22-0.71,72.31
		c0.1,14.1,0.3,28.24,0.93,42.34c0.66,14.73,1.51,29.44,1.98,44.18c0.5,15.67,1.75,31.31,2.96,46.95
		c1.13,14.62,2.51,29.23,3.98,43.83c1.54,15.37,3.13,30.74,5.02,46.08c2.11,17.08,5,34.08,6.76,51.19c1.23,11.94,2.5,23.9,3.37,35.9
		c1.43,19.63,0.7,39.24,0.66,58.85c-0.03,14.14-1.87,28.22-3.66,42.29c-3.2,25.22-8.5,49.96-15.16,74.46
		c-8.22,30.29-21.42,58.08-40.42,83.15c-10.73,14.17-24.27,25.27-37.62,36.72c-20.45,17.53-42.24,33.13-65.42,46.77
		c-14.78,8.69-29.67,17.33-47.2,19.4c-9.83,1.16-19.67,2.23-29.52,3.19c-13.98,1.37-27.96,2.69-41.95,3.88
		c-9.9,0.84-19.83,1.33-29.73,2.14c-14.84,1.21-29.66,2.6-44.49,3.85c-9.24,0.78-18.48,1.56-27.73,2.12
		c-22.35,1.37-44.7,3-67.07,3.79c-19.97,0.7-39.97,0.48-59.95,0.54c-10.5,0.03-21,0-31.49-0.36c-14.45-0.48-28.92-0.86-43.31-2.07
		c-21.6-1.82-43.24-3.65-64.68-6.9c-44.05-6.68-86.84-17.9-127.47-36.57c-1.93-0.89-3.81-1.89-5.7-2.86
		c-16.49-8.43-33.07-16.93-51.38-20.44c-9.94-1.91-17.92-6.37-25.15-12.86c-7.79-7-15.66-13.93-23.16-21.23
		c-23.54-22.9-42.48-49.33-58.55-77.85c-14.31-25.39-27.64-51.28-37.39-78.85c-8.4-23.77-15.39-47.89-18.85-72.97
		c-1.35-9.81-2.16-19.64-3.06-29.48c-1.21-13.31-0.87-26.6-0.68-39.87c0.25-17.07,1.46-34.13,2.06-51.2
		c0.41-11.89,1.3-23.78,1.96-35.67c1.02-18.5,2.19-36.99,3.01-55.51c0.62-13.89,1.28-27.79,1.95-41.68
		c0.81-16.73,1.45-33.46,2.17-50.19c0.31-7.12,0.49-14.25,0.73-21.37c0.57-16.45,0.4-32.95,1.26-49.35
		c0.92-17.49-0.29-34.97,0.87-52.39c1.27-19.15-0.06-38.32,1.09-57.4c0.67-11.15-0.18-22.33,0.95-33.37
		c1.09-10.65,0.23-21.27,0.86-31.88c1.12-18.89,1.5-37.8,2.13-56.7c0.5-15.06,1.26-30.13,2.02-45.18
		c0.69-13.74,1.2-27.48,1.79-41.22c1.13-26.57-2.75-52.48-10.27-77.92c-5.48-18.54-5.92-37.7-4.41-56.63
		c2.74-34.32,13.54-66.88,25.16-99.02c11.44-31.64,23.96-62.88,35.92-94.33c4.15-10.9,8.06-21.86,10.08-33.45
		c0.69-3.97-0.09-7.11-1.74-10.39c-2.71-5.4-5.44-10.78-8.09-16.2c-6.36-13.05-3.97-25.08,4.32-36.4c3.1-4.24,6.32-8.35,11.68-10.55
		c-8.59-3.87-8.59-3.87-1.21-9.38c5.07-3.78,10.72-7.02,15.07-11.5c5.38-5.54,11.52-4.74,17.77-3.84c2.29,0.33,4.55,0.67,6.86,0.71
		c28.96,0.54,57.89-1.86,86.85-0.97c23.22,0.71,46.45,1.45,69.66,2.24c39.31,1.33,78.59,0.58,117.88,0.52
		c16.2-0.02,32.46-1.1,48.67-1.9c13.06-0.64,26.12-1.37,39.18-2.02c12.55-0.63,25.11-1.32,37.66-1.99
		c14.88-0.79,29.77-1.38,44.65-2.02c16.06-0.7,32.13-1.16,48.17-1.99c20.9-1.08,41.85-0.85,62.68-2.2
		c19.53-1.26,38.87,0.76,58.3,0.62c15.35-0.12,30.78,1,46.14,1.96c10.98,0.69,21.92,0.3,32.87,0.76
		c12.45,0.52,24.89,1.38,37.36,1.03c1.5-0.04,2.96,0.18,4.34,0.94c10.02,5.55,20.98,8.4,31.97,11.17c2.27,0.57,4.62,1.01,6.46,2.52
		c6.84,5.62,14.29,10.29,22.38,14.68c-3.05,2.7-6.75,2.1-9.85,2.56c-22.3,3.28-44.79,2.38-67.21,1.8
		c-11.75-0.3-23.51-0.58-35.26-0.75c-0.99,0-1.97,0-2.96-0.01c-0.36-0.28-0.71-0.79-1.08-0.8c-12.98-0.36-25.97-0.67-38.95-0.98
		c-0.34-0.04-0.68-0.09-1.02-0.13c-5.29-1.03-10.62-1.27-15.98-0.88c-0.67-0.05-1.33-0.09-2-0.14c-0.64-0.09-1.28-0.18-1.91-0.27
		c-5.64-1.52-11.37-0.42-17.06-0.59c-28.99-2.42-58.02-0.76-87.03-0.93c-1.77,0.07-3.65-0.71-5.26,0.65
		c-23.28,0.22-46.54,1.16-69.81,1.92c-25.54,0.84-51.06,1.69-76.57,3.18c-11.45,0.67-22.92,0.84-34.39,1.23
		c-1.39-0.13-2.83-0.56-4.04,0.6c-23.1,0.74-46.2,1.8-69.3,2.13c-26.14,0.36-52.29,0.06-78.44,0.04
		c-7.15-0.01-14.35,0.51-21.44-0.18c-14.59-1.42-29.17-0.55-43.75-0.6c-0.66-0.09-1.31-0.18-1.97-0.28c-0.4-0.97-1.27-0.9-2.08-0.91
		c-9.06-0.11-18.1-0.25-27.17-0.82c-19.19-1.2-38.39,1.35-57.61,0.86c-0.44-0.01-0.89,0.35-1.33,0.54
		c-0.94,0.16-1.89,0.31-2.83,0.47c-5.25-0.34-10.5-0.93-15.75-0.99c-11.81-0.13-23.38-1.85-34.74-4.93
		c-4.51-1.22-6.63,0.09-6.57,4.78c-1.31,1.8-1.88,3.86-2.06,6.05c-1.54,5.66-5.32,10.93-3,17.26c0.26,0.96-0.23,2.11,0.75,2.88
		c0.91,4.11,3.34,7.44,5.6,10.85c-0.18,0.63,0.19,0.9,0.71,1.05c1.04,1.31,1.12,3.31,2.96,4.03c0.01,1.47,0.73,2.46,2.05,3.05
		c-0.09,1.1,0.59,1.82,1.2,2.6c4.27,5.47,5.99,11.62,6,18.62C198.97,205.62,197.34,209.71,197.98,214z"/>
	<path class="st1" d="M607.11,1404.77c-29.12-0.72-60.08,0.52-91,2.31c-52.36,3.03-104.55,7.96-156.08,18.1
		c-24.33,4.79-48.42,10.7-71.67,19.61c-5.96,2.28-11.47,5.26-16.58,9.06c-3.21,2.39-6.9,3.38-9.9,0.06
		c-2.69-2.99-1.82-6.46,0.34-9.64c4.44-6.54,10.99-10.6,17.5-14.61c17.27-10.64,36.57-15.96,56.04-20.49
		c48.91-11.37,98.63-17.29,148.62-21.15c23.57-1.82,47.16-3.12,70.78-4.14c36.13-1.55,72.26-2.17,108.39-1.41
		c44.77,0.95,89.5,2.72,134.01,8.39c29.4,3.74,58.75,7.57,87.42,15.33c13.7,3.71,26.97,8.51,39.27,15.74
		c5.69,3.34,10.55,7.56,13.95,13.28c6.89,11.6,5.39,24.26-4.14,33.85c-7.62,7.67-16.29,13.72-27.03,16.22
		c-6.07,1.41-11.74-0.9-14.18-5.62c-2.5-4.82-1.12-10.39,3.67-14.79c3.87-3.56,8.85-5.24,13.31-7.82c9.71-5.62,9.84-7.34,0.17-13.11
		c-13.92-8.29-29.53-12.11-45-15.99c-33.8-8.47-68.22-13.15-102.9-16.31C711.17,1407.01,660.16,1404.11,607.11,1404.77z"/>
	<path class="st1" d="M435.33,204.05c-24.66,0-49.33-0.41-73.98,0.12c-22.66,0.49-45.32,0.43-67.97,0.34
		c-15.81-0.06-31.65-0.09-47.42-1.49c-2.81-0.25-5.62-0.74-8.34-1.48c-1.64-0.44-3.78-0.83-3.8-3.3c-0.01-2.59,2.07-3.35,3.94-3.86
		c3.37-0.91,6.8-1.75,10.26-2.11c20.54-2.19,41.17-3.05,61.78-4.02c28.61-1.34,57.23-2.33,85.85-3.46
		c34.77-1.37,69.54-2.68,104.32-3.83c40.79-1.35,81.59-2.17,122.4-2.98c29.97-0.6,59.95-1.3,89.92-1.99
		c27.64-0.64,55.29-1.12,82.91-2.07c24.14-0.83,48.27-1.54,72.42-1.95c32.81-0.56,65.61-1.33,98.41-1.98
		c2.83-0.06,5.69-0.11,8.48,0.25c4.86,0.64,8.55,4.71,8.93,9.4c0.35,4.31-2.63,8.82-7.26,10.15c-7.29,2.09-14.9,1.44-22.34,1.68
		c-34.46,1.09-68.93,1.82-103.4,2.59c-31.47,0.7-62.95,1.17-94.42,1.93c-38.13,0.92-76.26,2.03-114.38,3.05
		c-25.97,0.69-51.95,1.27-77.92,2.07c-36.3,1.12-72.61,1.72-108.92,2c-6.49,0.05-12.98,0.01-19.48,0.01
		C435.33,203.43,435.33,203.74,435.33,204.05z"/>
</g>
</svg>
