<?xml version="1.0" encoding="utf-8"?>
<!-- Generator: Adobe Illustrator 26.1.0, SVG Export Plug-In . SVG Version: 6.00 Build 0)  -->
<svg version="1.1" id="Layer_1" xmlns="http://www.w3.org/2000/svg" xmlns:xlink="http://www.w3.org/1999/xlink" x="0px" y="0px"
	 viewBox="0 0 925 1381" style="enable-background:new 0 0 925 1381;" xml:space="preserve">
<style type="text/css">
	.st0{fill:#1E5877;}
	.st1{fill:#215976;}
	.st2{fill:#4BB182;}
	.st3{fill:#D0E5EB;}
	.st4{fill:#9FD3CC;}
	.st5{fill:#8D9BAB;}
	.st6{fill:#38A28D;}
	.st7{fill:#918B81;}
	.st8{fill:#C0B684;}
	.st9{fill:#EBD41B;}
	.st10{fill:#B48B81;}
	.st11{fill:#8B9BAC;}
	.st12{fill:#48B17B;}
	.st13{fill:#729AA3;}
	.st14{fill:#B39C97;}
</style>
<g>
	<path class="st0" d="M671.14,185.7c4.24,74.03,7.11,148.12,8.44,222.26c0.17,9.49,1.35,18.96,0.48,28.45
		c-0.21,2.32,1.46,3.65,2.59,5.21c24.04,33.08,40.41,69.64,48.76,109.61c13.21,63.22,4.69,123.53-25.65,180.66
		c-0.7,1.32-1.33,2.69-2.09,3.98c-0.89,1.5-0.7,2.36,1.11,2.91c19.29,5.9,29.31,19.64,32.81,38.89c0.05,0.26,0.47,0.45,1.04,0.95
		c9.08-13.53,16.47-27.71,21.85-43.3c9.39-27.23,22.86-52.23,46.83-69.83c7.41-5.44,15.47-9.97,25-10.44
		c16.82-0.82,30.17,11.9,33,30.99c2.83,19.1-2.43,37-7.98,54.85c-2.07,6.67-4.66,13.17-6.9,19.78c-1.93,5.71-4.36,11.13-7.77,16.15
		c-11.14,16.38-21.21,33.61-33.53,49.03c-12.45,15.59-24.34,31.73-37.96,46.33c-9.42,10.1-21.32,17.56-32.14,26.14
		c-21.36,16.94-38.55,37.6-54.86,59.18c-12.67,16.76-24.88,33.79-34.15,52.73c-1.67,3.42-3.25,6.97-4.23,10.64
		c-3.2,12.02-9.23,22.4-17.51,31.55c-1.39,1.53-2.35,2.75-1.59,5.21c15.42,49.94-0.08,91.52-34.79,127.84
		c-1.49,1.56-2.89,3.41-4.71,4.44c-7.73,4.33-7.16,10.83-5.44,18.03c3.31,13.87,12.49,23.69,22.5,32.86
		c9.69,8.87,20.47,16.48,29.73,25.91c10.93,11.11,12.25,22.05,3.06,34.75c-8.54,11.8-19.71,20.12-33.65,24.67
		c-13.45,4.39-26.78,9.14-40.29,13.33c-23,7.12-46.61,7.19-70.26,4.9c-9.16-0.89-17.73-4.7-26.05-8.43
		c-11.61-5.21-18.78-14.94-22.39-26.81c-6.91-22.73-8.73-46.07-6.27-69.68c0.37-3.57,0.08-4.91-3.77-5.4
		c-14.59-1.85-28.79-5.43-42.47-10.88c-2.87-1.14-3.82-0.17-4.34,2.47c-1.38,7.05-2.01,14.17-2.5,21.32
		c-0.19,2.86,1.35,4.62,3.05,6.5c14.08,15.59,17.22,34.24,14.02,54.13c-2.15,13.37-10.59,23.43-22.29,29.16
		c-14.14,6.92-28.04,14.74-43.54,18.59c-32.68,8.13-65.1,8.28-96.69-4.49c-32.46-13.11-44.91-34.33-45.05-67.11
		c-0.07-16.97,0.55-33.93,2.71-50.81c0.76-5.97,1.49-11.91,3.61-17.55c5.96-15.85,7.36-32.71,11.07-49.05
		c1.49-6.54,4.58-12.47,7.25-18.55c1.9-4.34,2.86-8.68,3.22-13.44c0.7-9.23,2.2-18.4,3.35-27.59c0.66-5.28,2.48-11.69-0.44-15.52
		c-2.62-3.43-2.8-6.75-2.1-9.32c1.73-6.35,1.58-13.26,5.27-19.06c1.31-2.05,1.09-3.61-0.78-5.64
		c-32.44-35.23-61.71-72.97-88.63-112.56c-19.23-28.28-37.13-57.36-49.96-89.13c-5.87-14.54-11.97-29.31-14.57-44.8
		c-1.81-10.8-1.72-22.12-0.01-33.18c0.25-1.64,0.75-3.24,1.07-4.87c3.32-17.06,13.8-26.64,31.35-28.87
		c11.99-1.52,23.52,0.71,35.02,3.69c2.01,0.52,3.96,1.77,6.73,1.1c-6.02-8.91-12-17.51-16.93-26.73
		c-50.14-93.79-51.12-187.23,4.6-278.84c33.71-55.41,83.4-92.64,143.49-116.08c60.8-23.72,123.43-29.11,187.57-17.44
		c3.35,0.61,5.45-0.05,7.75-2.6c35.63-39.65,72.01-78.6,109.57-116.43c16.43-16.56,32.91-33.07,49.33-49.64
		c3.14-3.17,6.12-6.52,9.17-9.78c4.29-2.15,7.5-5.63,10.94-8.82c6.32-3.81,8.66-2.97,10.74,4.61c1.18,4.3,1.54,8.83,2.26,13.26
		c-0.16,2.8,0.91,5.42,1.08,8.23C669.03,160.78,670.15,173.24,671.14,185.7z M492.14,315.19c-0.13,0.23-0.32,0.38-0.58,0.46
		c-0.3,0.31-0.6,0.61-0.9,0.92c-2.18,2.71-3.71,5.06-2.87,9.28c3.3,16.61,11.14,30.96,20.48,44.7l0.25,0.29
		c0.2,0.06,0.35,0.18,0.44,0.37c5.88,9.24,13.68,16.84,21.17,24.71c9.73,10.09,20.97,18.31,32.48,26.19
		c7.77,4.08,15.4,8.42,23.58,11.67c12.11,5.37,24.65,8.97,37.99,9.34c2.7,0.9,5.38,1.53,7.91-0.45l-0.12,0.02
		c9.97,0.97,17.98-3.68,25.76-8.99c0.95-9.15,0.03-18.3,0.15-27.46c0.91-10.28-1-20.46-1.29-30.7c-0.08-2.84,1.87-5.86-0.25-8.62
		c-0.14-8.21-0.27-16.43-0.41-24.64c0.3-12.59-0.1-25.15-0.63-37.74c-0.6-14.27-0.2-28.58-0.28-42.87
		c-0.01-1.61,0.51-3.35-0.73-4.79c-0.06-28.34-0.13-56.68-0.19-85.02c0.06-5.06,0.11-10.12,0.17-15.18
		c0.53-7.23,1.05-14.46,1.68-23.01c-10.3,11.97-19.68,22.81-28.95,33.76c-0.96,1.13-2.83,2.18-1.91,4.28
		c-2.3,0.12-3.42,1.96-4.71,3.4c-5.51,6.18-10.9,12.45-16.34,18.69c-7.33,8.29-14.66,16.59-21.99,24.88
		c-5.31,6.08-10.63,12.15-15.94,18.23c-5.12,3.94-8.63,9.4-13.16,13.89c-5.9,6.53-11.81,13.07-17.71,19.6
		c-3.66,2.11-5.77,5.79-8.51,8.77c-5.75,6.26-12.28,11.8-17.37,18.67c-5.81,5.27-10.98,11.15-16.22,16.96l-0.02,0.01
		C492.78,314.94,492.46,315.06,492.14,315.19z M699.02,902.73c-0.33,0.35-0.65,0.7-0.98,1.04c0,0,0-0.02,0.01-0.02
		c-0.65,0.73-1.41,1.39-1.92,2.2c-10.44,16.43-22.13,31.94-34.52,46.93c-3.24,3.91-7.07,7.36-9.57,11.87l0.01,0.01
		c-0.45,0.63-0.9,1.25-1.35,1.88c-0.56,0.33-1.27,0.54-1.67,1.01c-10.18,11.63-21.19,22.42-32.76,32.66
		c-2.73,2.42-5.71,4.68-7.93,7.52c-2.49,3.18-0.97,7.71-2.9,11.38c-0.84,1.61,1.93,2.83,2.7,4.45c0.57,1.2,1.39,2.37,1.6,3.64
		c0.95,5.73,4.6,9.76,8.22,13.91c2.2,2.52,3.59,2.89,5.46-0.3c3.97-6.79,7.32-13.81,8.52-21.63c0.76-4.98,2.49-9.6,4.49-14.15
		c6.01-13.7,14.06-26.25,22.02-38.85c2.22-2.22,4.73-4.23,5.74-7.4l0,0c4.75-4,7.74-9.43,11.31-14.32
		c12.42-17.01,25.38-33.51,40.94-47.83c3.39-3.12,7.26-5.83,9.78-9.84c4.55-3.8,9.26-7.43,13.61-11.45
		c6.8-6.29,14.88-10.99,20.95-18.27c10-11.99,18.11-25.32,28.15-37.31c12.15-14.52,20.67-31.65,31.42-47.22
		c3.21-4.65,6.74-9.17,8.65-14.53c6.03-16.87,13.01-33.47,15.97-51.27c1.66-9.99,3.09-20.18-2.6-29.56
		c-3.75-6.19-9.11-7.86-15.79-5.21c-15.59,6.18-25.88,18.35-34.25,31.98c-6.41,10.42-12.91,21.32-15.92,33.15
		c-5.08,20-15.48,36.87-27.23,53.23c-1.37,1.9-3.08,3.91-5.68,3.47c-4.89-0.83-5.1,2.35-5.21,5.63c-0.24,7.18-1.52,14.24-3.26,21.13
		c-4.83,19.21-12.25,37.45-21.2,55.12c-3.21,6.33-7.52,12.08-9.85,18.85c-2.59,2.11-3.99,4.96-4.98,8.06L699.02,902.73z
		 M284.28,1010.96c1.2-0.22,1.79-0.92,1.69-2.15c1.74-2.39,3.64-4.68,5.19-7.18c12.48-20.11,21.28-41.69,25.57-65.02
		c5.29-28.77,2.06-56.22-12.95-81.79c-1.23-2.1-2.07-3.13-4.96-1.69c-5.67,2.82-10.9,1.85-12.61-2.55
		c-2.18-5.63-6.29-4.99-11.32-5.2c7.46,14.17,11.25,28.83,12.01,43.98c1.01,20.08,2.46,40.15,2.47,60.3
		c0.01,20.41-1.45,40.48-8.57,59.81c-4,4.65-5.67,10.45-8.03,15.98c4.23-4.58,9.11-8.55,11.51-14.47L284.28,1010.96z M417.13,861.95
		c-0.32-0.11-0.65-0.12-0.98-0.04c-15.57-1.15-31.52-0.02-45.96-7.79c-3.88-2.23-8.01-4.13-11.61-6.76
		c-10.05-7.33-10.14-20.4-0.46-27.88c0.68-0.53,2-0.83,1.27-2.27c-3.44-0.31-6.9-0.54-10.33-0.95c-9.38-1.11-18.63-3.19-28.11-3.5
		c-4.02-0.13-6.5,1.51-7.29,5.77c-1.15,6.19-2.63,12.33-4.08,18.46c-0.38,1.62-0.16,3.01,0.83,4.22c2.71,3.32,5.5,6.57,8.26,9.85
		c0.74,1.49,1.41,3.02,2.22,4.47c14.1,25.16,18.14,52.27,14.97,80.56c-3.61,32.17-16.89,60.65-34.89,87.06
		c-9.48,13.91-20.42,26.72-32.93,38.02c-7.08,6.4-13.7,13.75-23.64,16.07c-1.69,0.4-2.41,1.57-2.38,3.31
		c0.08,5.49,0.19,10.96,0.5,16.46c1.02,17.95,1.42,35.93-4.46,53.32c-1.81,5.35-4.14,10.54-5.75,15.94
		c-5.79,19.42-6.75,39.97-14.02,59.09c-2.6,6.83-1.86,14.45-2.77,21.69c-1.96,15.57-2.33,31.2-0.32,46.76
		c2.59,20.02,15.03,32,33.36,38.28c27.01,9.26,54.49,9.23,82.08,2.88c14.86-3.42,28.2-10.89,41.93-17.13
		c6.96-3.17,11.54-9.52,12.83-17.93c2.18-14.25-1.34-26.68-10.36-37.69c-3.82-4.66-5.47-9.9-4.61-15.81
		c1.25-8.58,3.13-17.05,6.61-25.01c1.32-3.02,0.88-4.36-2.06-5.72c-10.92-5.07-20.9-11.67-30.25-19.22
		c-21.16-17.09-37.6-37.51-45.24-64.15c-2.31-8.05-0.58-13.3,5.05-15.08c5.29-1.67,9.56,1.47,12.52,9.26
		c12.61,33.18,35.39,57.12,67.02,72.58c33.47,16.36,69.17,20.66,105.59,15.32c40.06-5.88,74.66-23.2,101.25-54.69
		c16.48-19.51,25.01-42.21,26.15-67.55c1.11-24.79-7.02-47.1-19.68-68.02c-0.93-1.54-2.1-2.64-3.78-3.01
		c-3.69-0.8-6.08-3.4-8.37-6.02c-13.45-15.43-26.1-31.45-36.35-49.25c-19.38-33.69-33.67-68.71-28.61-108.83
		c2.17-7,4.27-14.02,7.36-20.7c-5.86-0.83-12.04,3.73-16.46-2.76c-0.13-0.2-1.13-0.17-1.23,0.02c-2.84,5.2-8.64,8.23-11.2,13
		c-3.14,5.87-6.62,10.95-11.68,15.09c-1.31,1-2.52,2.16-3.93,2.99c-19.19,11.39-40.09,17.77-62.24,18.73
		c-23.26,1.01-46.46-0.12-68.45-9.42c-8.49-3.59-16.67-7.48-22.34-15.17c-2.35-8.75-0.8-12.66,5.56-14.34
		c3.63-0.96,6.42,0.73,9.15,2.66c4.56,3.23,8.76,7.05,14.27,8.72c0.32,0.09,0.64,0.17,0.96,0.24c0.73,0.95,1.8,0.91,2.83,1
		c4.51,2.92,9.62,4.31,14.7,5.8c7.76,2.28,15.79,2.04,23.7,2.45c10.26,0.53,20.58,1.26,30.82-0.57
		c14.16-2.27,28.01-5.75,40.91-12.11c5.46-2.69,11.1-5.6,14.26-11.31c1.95-3.53,4.42-6.59,7.11-9.58c1.47-1.63,4.74-3.13,3.89-5.13
		c-0.94-2.2-4.34-1.65-6.81-1.84c-6.29-0.48-7.25-2.25-4.15-7.74c-0.56,0-1.06-0.09-1.51,0.01c-9.93,2.37-9.99,2.43-2.94,9.78
		c2.63,2.75,3.24,5.56,0.74,8.38c-9.94,11.18-22.07,18.8-36.55,22.96c-6.91,1.99-14.09,1.7-20.95,3.56
		C423.12,861.85,420.13,861.9,417.13,861.95z M537.08,850.82c-0.34,1.44-0.92,2.88-0.98,4.33c-0.49,11.84,0.08,23.56,2.58,35.23
		c4.04,18.87,11.3,36.51,19.7,53.74c3.22,6.61,6.65,13.16,11.53,18.88c-1.65-7.74-1.6-15.57-2.44-23.3
		c-1.28-11.72-3.49-23.51-2.02-35.29c2.74-21.95,6.87-43.65,14.81-64.44c1.64-2.14,1.36-3.61-1.43-4.31
		c-9-2.27-17.98-4.66-27.01-6.78c-2.39-0.56-5.02-0.54-6.74,1.94C540.89,836.87,537.52,843.26,537.08,850.82z M602.96,622.62
		c-2.96,0.69-3.72-1.57-4.56-3.53c-2.63-6.17-6.11-11.86-10.23-17.09c-12.42-15.75-29.12-22.95-48.71-20.71
		c-13.34,1.53-26.02,6.62-36.9,15.27c-7.21,5.73-15.16,10.38-24.27,12.31c-6.84,1.44-14.18,2.47-20.63-0.56
		c-11.05-5.19-22.47-9.16-34.14-12.54c-20.89-6.05-41.95-8.91-63.45-3.03c-27.2,7.45-42.03,29.99-38.19,57.75
		c1.53,11.04,5.17,21.31,9.68,31.36c1.83,4.07,2.2,8.79,3.98,12.54c1.73,3.66,1.84,5.61-0.76,8.13c-2.76,2.66-5.52,5.31-8.31,7.94
		c-9.3,8.8-17.09,18.57-20.67,31.2c-0.67,2.38-0.37,3.88,1.21,5.81c4.55,5.57,9.6,10.62,15.16,15.12
		c28.37,22.97,61.72,33.67,97.25,37.97c32.61,3.94,64.8,0.92,96.07-9.66c27.8-9.41,53.2-22.91,73.13-44.97
		c28.75-31.82,35.88-67.96,20.52-108.26c-1.06-2.79-2.12-5.61-1.84-8.7c3.78-2.92,5.77-0.03,7.69,2.51
		c6.83,8.99,10.19,19.59,13.88,31.3c0.18-5.47,0.04-9.79,1.45-13.87c2.82-8.18,6.93-15.7,16.41-16.84
		c7.06-0.85,12.22,4.01,16.05,9.33c7.91,11,7.18,29.11-0.87,39.96c-6.43,8.66-19.84,8.61-25.33,1.71c-1.5-1.89-2.41-4.68-5.58-5.79
		c0.48,8.65-0.5,16.72-1.95,24.74c-0.35,1.93-0.67,4.01,2.23,3.72c6.89-0.7,13.92-0.62,20.29-4.19
		c13.26-7.45,21.24-18.01,21.65-33.79c0.18-7.08,1.79-13.94-0.5-21.17c-2.65-8.37-6.61-15.98-11.13-23.32
		c-2.19-3.56-4.42-7.65-9.38-8.35c-4.76-0.67-9.44-1.18-14.35-0.31c-3.19,0.57-3.79,1.8-3.65,4.5c0.18,3.51-0.1,7.01-1.19,10.37
		c-1.33,4.1-4.27,6.66-8.56,6.06c-4.19-0.59-6.67-3.34-6.5-8.03c0.22-5.99,0.71-12.05,0.13-17.98c-0.96-9.86-2.46-19.42-8.63-28.1
		c-4.84-6.81-11.01-12.41-15.63-19.34c-5.9-8.85-14.79-15.2-20.77-24.02c-1.16-1.72-1.9-0.46-2.8,0.08
		c-6.78,4.06-14.03,6.33-21.92,7.58c-12.44,1.98-23.81,0.66-34.15-6.91c-3.57-2.61-3.93-6.16-2.41-9.76
		c1.44-3.42,4.59-3.31,7.68-2.36c1.58,0.49,3.13,1.06,4.68,1.65c15.12,5.73,29.31,3.67,42.37-5.55c7.26-5.13,7.83-17.47,1.45-23.78
		c-9.83-9.73-20.68-16.49-35.54-13.45c-3.86,0.79-6.11,1.56-7.39,5.68c-4.02,12.93-12.65,22.37-23.93,29.54
		c-3.52,2.24-7.49,3.39-10.21-0.57c-2.36-3.43,0.01-6.57,2.56-9.24c3.44-3.6,7.16-7.01,10.09-11c9.45-12.87,10.14-28.08-2.46-39.96
		c-14-13.2-31.42-17.63-49.66-19.03c-15.4-1.18-30.84-0.69-45.99,3.66c-19.19,5.51-37.03,12.89-48.96,30.09
		c-2.44,3.52-6.01,4.94-10.06,3.79c-3.08-0.88-5.42,0.1-8.01,1.35c-14.38,6.96-25.72,18.18-35.88,29.68
		c-13.77,15.59-27.24,32.09-35.02,51.78c-6.45,16.31-10.24,33.39-5.77,51.18c0.97,3.86,1.58,7.82,2.16,11.76
		c0.69,4.69-2.06,9.59-5.98,11.02c-4.15,1.51-7.81-0.1-10.74-4.86c-0.77-1.26-1.76-2.68-1.79-4.05
		c-0.19-8.41-6.12-11.95-12.49-15.16c-9.46-4.77-19.13-1.99-25.48,6.58c-7.12,9.61-9.97,20.79-11.02,32.13
		c-1.63,17.61-0.69,35.25,4.75,52.35c3.98,12.53,9.5,24.34,19.34,33.27c12.7,11.51,25.03,11.5,35.47-3.88
		c4.05-5.97,4.97-13.96,11.75-18.17c0.48-0.3,0.36-1.55,0.53-2.35c0.87-4.09,2.33-7.69,7.18-8.34c5.27-0.71,8.92,1.14,10.97,6.33
		c2.27,5.74,3.37,11.99,7.1,17.44c3.81-4.58,6.46-9.71,10.9-13.31c5.41-4.39,10.81-8.81,16.36-13.02c1.6-1.21,2.26-1.65,0.83-3.72
		c-12.64-18.23-18.71-38.38-16.37-60.6c3.15-29.78,22.33-49.01,49.25-56.78c13.29-3.84,26.94-5.02,40.88-3.42
		c15.79,1.81,30.94,5.23,45.57,11.74c7.09,3.16,13.32,8.02,22.41,7.86c12.13-0.2,21.68-4.6,31.25-10.98
		c20.44-13.65,42.04-20.85,67.18-13.86c23.18,6.44,36.62,21.41,43.41,43.64C606.23,617.62,605.51,620.25,602.96,622.62z
		 M356.49,805.69c0.08-0.34,0.16-0.69,0.23-1.03c-5.58-2.81-11.19-5.56-16.73-8.45c-14.68-7.68-27.82-17.62-39.65-29.06
		c-8.94-8.65-16.49-18.68-22.35-29.79c-1.5-2.86-2.64-2.5-3.88-0.04c-2.97,5.9-7.31,10.67-12.08,15.12
		c-9.84,9.17-27.27,10.93-39.15,4.73c-13.77-7.18-22.8-18.73-29.75-31.83c-10.97-20.67-16.73-42.69-15.25-66.48
		c0.7-11.22,2.13-22.04,6.22-32.56c7.58-19.47,28.3-39.99,53.51-27.66c2.12,1.03,2.49,0.13,2.59-1.84
		c0.17-3.47,0.47-6.95,0.97-10.38c1.8-12.18,4.36-24.17,9.41-35.48c8.1-18.12,21.34-32.74,33.26-48.23
		c8.73-11.34,21.03-18.68,32.31-27.04c6.1-4.53,13.21-7.87,20.96-8.7c3.17-0.34,5.15-1.45,6.97-3.92
		c5.56-7.57,12.54-13.73,20.36-18.84c14.99-9.79,31.68-14.85,49.28-17.59c25.12-3.91,49.67-2.44,73.38,7.12
		c17.87,7.21,32.44,18.13,38.58,37.51c0.84,2.66,2.21,2.59,4.49,2.17c9.51-1.75,19.06-3.31,28.28,1.39
		c5.2,2.65,9.74,6.27,14.53,9.53c14.32,9.75,18.42,35.35,6.81,46.2c-2.43,2.27-1.27,3.3,1.06,4.74
		c12.98,8.03,22.84,19.66,33.8,29.98c10.74,10.11,15.19,23.59,18.16,37.54c0.73,3.42,1.51,3.81,4.66,2.86
		c10.51-3.18,20.6-3.16,29.53,4.66c2.84,2.49,4.48,5.74,6.72,8.61c7.06,9.05,11.02,19.59,14.37,30.4
		c2.56,8.25-0.43,16.52,0.06,24.76c0.62,10.44-3.13,19.54-9.33,27.17c-12.99,15.98-29.9,24.21-50.87,21.28
		c-4.14-0.58-5.57,0.43-7.11,3.74c-5.85,12.6-13.61,24-23,34.18c-20.63,22.36-45.99,37.47-74.54,47.41
		c-7.98,2.78-16.14,5.02-24.38,7.55c1.57,1.58,3.35,1.21,4.94,1.5c4.39,0.82,7.42,3.49,8.01,7.76c0.51,3.72,2.04,3.22,4.69,2.61
		c5.64-1.29,11.09-3.63,17.03-3.43c1.6,0.05,2.26-0.6,2.55-2.28c1.5-8.87,2.61-9.87,11.44-9.71c2.92,0.05,4.92-0.92,7.03-2.88
		c23.5-21.86,47.67-42.83,76.88-57.05c15.18-7.39,30.82-13.15,47.69-15.06c1.98-0.22,3.52-0.72,4.63-2.4
		c8.44-12.68,14.78-26.5,19.97-40.66c7.72-21.05,13.12-42.75,14.57-65.33c1.21-18.78,1.53-37.47-1.14-56.18
		c-3.4-23.81-9.98-46.72-19.47-68.73c-7.04-16.33-16.23-31.57-26.02-46.42c-1.86-2.82-3.87-2.9-6.65-0.83
		c-8.19,6.11-17.77,9.29-27.7,10.28c-22.87,2.27-44.72-2.55-65.16-12.61c-25.97-12.77-48.01-30.53-66.09-53.4
		c-15.6-19.75-25.21-41.58-26.78-66.74c-0.21-3.34-1.68-4.42-4.32-4.85c-8.82-1.46-17.64-2.97-26.49-4.17
		c-10.2-1.38-20.53-1.45-30.76-2.34c-17.52-1.52-34.85-0.22-52.17,1.73c-14.99,1.69-29.74,4.76-44.38,8.47
		c-22.35,5.66-43.68,13.92-63.97,24.74c-19.22,10.25-37.19,22.46-53.71,36.71c-14.26,12.3-27.12,25.95-38.43,40.96
		c-14.78,19.61-26.7,40.89-35.13,64.04c-7.82,21.47-13.53,43.52-14.6,66.35c-0.81,17.23-0.76,34.51,1.51,51.8
		c2.83,21.54,8.47,42.24,16.33,62.33c8.75,22.34,20.62,43.12,35.12,62.21c8.04,10.6,14.95,22.51,27.4,29.06
		c2.8,1.47,5.66,2.85,8.32,4.55c24.21,15.48,48.36,31.06,69.8,50.39c3.98,3.59,7.98,7.17,14.19,7.4c3.31,0.12,4.21-1.09,4.9-3.36
		c1.53-5.08,2.95-10.2,4.25-15.35c2.67-10.66,13.79-18.25,24.56-16.54c3.76,0.6,7.49,1.44,11.21,2.27
		C340.8,802.05,348.64,803.88,356.49,805.69z M270.26,899.61c0.63-20.96-3.47-38.06-12.07-54.11c-1.23-2.3-2.73-3.99-5.04-5.27
		c-28.45-15.71-54.25-34.96-76.53-58.64c-6.89-7.33-14.3-13.03-23.99-16.11c-15.03-4.78-29.62-10.87-46.08-7.75
		c-12.46,2.36-23.76,16.67-21.15,28.37c1.19,5.34,2.6,10.6,3.32,16.05c3.24,24.43,14.41,46.15,24.87,67.83
		c13.07,27.09,29.2,52.54,46.04,77.55c23.08,34.25,49.48,65.88,75.26,98.02c1.81,2.25,4.24,3.21,6.61,2.01
		c3.81-1.93,8.06-3.99,9.7-8.16c2.35-5.99,5.36-11.93,5.63-18.5c0.22-5.38,2.23-10.02,4.7-14.56c2.08-3.84,3.55-7.89,4.6-12.1
		c3.67-14.77,4.81-29.86,4.93-44.98C271.2,931.79,271.51,914.3,270.26,899.61z M725.22,789.85c0-2.83,0.15-5.67-0.02-8.49
		c-0.99-16.44-10.41-28.27-24.82-31.77c-3.12-0.76-4.78-0.17-6.57,2.53c-17.9,27-39.87,50.18-65.95,69.41
		c-7.22,5.32-14.28,11.12-22.89,13.94c-5.44,1.78-8.53,7.33-14.45,8.04c-0.46,0.05-0.86,1.7-1.05,2.65
		c-4.48,22.54-7.78,45.25-7.1,68.27c0.3,10.25,2.61,20.42,3.63,30.66c1.58,16.02,5.25,31.42,11.99,46.09
		c1.23,2.68,2.12,2.32,3.87,0.76c4.45-4,9.13-7.75,13.44-11.89c15.15-14.52,29.44-29.82,42.56-46.23
		c21.38-26.74,40.28-55.01,53.65-86.66C719.23,828.85,725.42,810.09,725.22,789.85z M504.57,1326.36
		c19.22-1.25,33.36-0.55,46.97-3.88c15.82-3.87,31.58-8.13,46.95-13.61c10.08-3.59,19.63-8.07,26.38-17.04
		c4.22-5.61,4.19-8.3-0.55-13.4c-8.2-8.83-18.13-15.63-27.15-23.5c-13.72-11.99-24.83-25.55-27.88-44.2
		c-0.97-5.94-0.84-5.91-5.94-2.75c-17.86,11.06-37.24,18.31-57.67,22.93c-14.99,3.38-30.13,5.12-45.5,4.99
		c-1.92-0.02-3.88-0.45-4.3,2.68c-1.37,10.28-0.27,20.59-0.18,30.83c0.08,9.51,2.44,19.08,4.55,28.46c2.03,9,6.2,17.42,15.24,21.02
		C486.4,1323.23,497.61,1327.45,504.57,1326.36z M673.33,751.43c-2.78-0.96-4.32-0.33-5.93,0.09c-16.4,4.27-31.38,11.77-46,20.11
		c-19.98,11.4-38.79,24.43-56.22,39.47c-3.6,3.1-2.62,4.16,1.14,5.79c7.42,3.22,15.46,5.6,20.61,12.55c0.99,1.34,1.67,1.12,2.81,0.3
		c5.65-4.08,11.44-7.97,17.01-12.15c18.54-13.89,36-28.99,50.93-46.82C662.87,764.58,667.85,758.21,673.33,751.43z M425.22,846.75
		c15.46,0.47,29.97-3,43.63-10.21c2.66-1.4,4.22-2.53,1.32-5.34c-1.91-1.85-3.31-4.3-3.62-6.98c-0.36-3.1-2-3.55-4.71-3.55
		c-9.27,0.02-18.5,0.9-27.82,0.39c-10.3-0.56-20.52-1.49-30.65-3.27c-7.81-1.37-15.53-3.32-23.25-5.19
		c-2.23-0.54-3.19-0.16-2.94,2.22c0.63,6.03-1.55,11.09-5.45,15.51c-1.58,1.79-2.16,3.33,0.28,4.81c5.12,3.1,10.34,6.48,16.17,7.51
		C400.43,844.83,412.78,846.37,425.22,846.75z M657.03,657.75c-0.86-3.45-0.55-7.65-2.68-11.44c-1.82-3.25-3.55-3.33-6.73-1.52
		c-6.21,3.52-8.7,20.45-3.02,28.28c2.76,3.81,5.38,3.85,8.08-0.19C655.6,668.5,656.75,663.53,657.03,657.75z M630.61,675.27
		c0.08-0.33,0.13-0.52,0.17-0.71c-0.11,0.04-0.31,0.07-0.31,0.12C630.46,674.82,630.53,674.96,630.61,675.27z"/>
	<path class="st1" d="M729.3,65.18c10.47,2.81,22.25,4.86,32.27,11.56c5.71,3.82,7.04,11.25,3.64,16.34
		c-3.52,5.26-10.17,6.32-16.34,2.12c-5.7-3.88-12.16-6.16-18.14-9.42c-3.38-1.85-6.67-3.86-9-6.98c-2.15-2.88-2.62-6.17-0.86-9.39
		C722.43,66.57,725.05,65.2,729.3,65.18z"/>
	<path class="st0" d="M671.16,50.29c-0.72,0.84-1.43,1.67-2.15,2.51c-5.59,1.34-9.26-1.67-11.94-5.86
		c-1.73-2.69-2.54-5.97-3.76-8.99c-2.03-7.22-3.41-14.56-4.23-22.01c-0.22-1.96-0.25-4,0.01-5.95c0.66-4.92,4.16-8.18,8.92-8.58
		c4.61-0.39,8.65,2.38,10.22,7.04c1.23,3.67,1.2,7.53,1.62,11.32c0.75,6.77,1.56,13.53,2.34,20.29
		C671.61,43.46,673.02,47.04,671.16,50.29z"/>
	<path class="st2" d="M724.22,94.72c3.71-0.1,7.27,0.82,10.72,1.99c11.59,3.96,23.77,6.25,34.7,12.07c2.28,1.22,5.11,2.33,4.55,5.76
		c-0.53,3.26-3.44,3.67-5.94,4.49c-6.97,2.3-13.82,0.81-20.62-0.78c-10.58-2.47-20.15-7.6-30-11.93c-4.69-2.06-4.58-7.61-0.15-10.28
		C719.56,94.78,721.86,94.61,724.22,94.72z"/>
	<path class="st1" d="M635.97,86.86c6.84,4.72,6.86,12.72-0.76,15.46c-12.32,4.43-25,8.09-38.14,9.39c-3.58,0.35-6.68-1.1-7.77-4.88
		c-1.14-3.92,0.65-6.86,3.96-8.83c5.3-3.16,11.27-4.78,16.88-7.23c1.84-0.71,3.66-1.47,5.52-2.12
		C622.27,86.31,628.94,84.48,635.97,86.86z"/>
	<path class="st1" d="M645.35,55.73c2.06,3,2.58,6.11,0.41,9.25c-2.23,3.23-5.7,4.58-9.19,3.6c-11.95-3.36-23.83-7-35.61-10.92
		c-3.75-1.25-5.88-4.55-4.71-8.76c1.21-4.36,4.89-5.17,8.76-4.81c11.68,1.1,23.43,1.92,34.36,6.85
		C641.36,52.54,643.36,54.13,645.35,55.73z"/>
	<path class="st0" d="M707.32,20.43c3.09-3.5,6.49-6.65,10.72-8.72c5.17-2.54,10.75-1.47,13.45,2.41c2.7,3.88,2.07,9.01-2.38,12.9
		c-7.13,6.23-12.78,13.86-19.77,20.2c-3.1,2.81-6.29,4.09-10.12,1.52c-0.41-0.91-0.97-1.66-1.97-1.96c0,0-0.03-0.04-0.03-0.04
		c-1.04-2.58-1.3-5.27-1.05-8.02C698.05,31.5,702.39,25.79,707.32,20.43z"/>
	<path class="st1" d="M712.09,128.96c-2.05-2.49-2.77-5.43-2.99-8.56c-0.23-3.23,0.71-5.92,3.62-7.6c2.94-1.7,5.79-1.11,8.36,0.82
		c4.78,3.59,8.95,7.85,13.12,12.11c3.36,3.43,6.84,6.73,10.27,10.09c-0.17,0.58,0.13,0.88,0.64,1.05c0,0-0.01-0.01-0.01-0.01
		c0.01,1.09,0.18,2.12,1.11,2.85c-0.12,1.88-0.23,3.75-0.35,5.63c-0.26,0.49-0.51,0.97-0.77,1.45c0,0,0.02-0.02,0.02-0.02
		c-0.27,0.37-0.53,0.74-0.8,1.11c0,0-0.07,0.11-0.07,0.11c-3.22,2.82-7.03,3.48-11.13,3.06c-0.47-0.19-0.94-0.37-1.42-0.56
		c-4.11-2.64-7.38-6.15-10.39-9.94C718.23,136.69,715.16,132.83,712.09,128.96z"/>
	<path class="st2" d="M645.35,55.73c-2-1.6-3.99-3.19-5.98-4.79c-2.77-5.52-8.21-8.27-12.63-12.07c-1.37-1.18-3.01-2.07-4.63-2.9
		c-2.36-1.22-3.56-3.01-2.97-5.64c0.63-2.78,2.69-4.14,5.36-4.49c5.82-0.77,10.64,1.98,15.38,4.74c4.42,2.57,8.36,6,13.43,7.38
		c1.22,3.02,2.03,6.3,3.76,8.99c2.68,4.18,6.35,7.2,11.94,5.86c-0.75,6.81-4.96,9.69-11.31,7.41c-2.95-1.06-5.66-2.76-8.47-4.18
		C647.97,55.41,646.79,53.95,645.35,55.73z"/>
	<path class="st2" d="M743.96,38.85c3.22,0.67,6.81-0.11,8.19,3.32c1.56,3.85-1.07,6.45-3.9,8.3c-10.94,7.17-22.96,12.03-35.49,15.6
		c-3.31,0.94-6.6-0.27-8.07-3.45c-1.55-3.36-1.19-6.94,2.03-9.49c4.25-3.35,9.35-5.06,14.3-6.99
		C728.6,43.17,736.26,40.38,743.96,38.85z"/>
	<path class="st2" d="M707.32,20.43c-4.92,5.36-9.27,11.07-11.16,18.28c-2.78,1-3.91,3.49-5.22,5.82c-2.63,3.13-5.03,6.5-7.95,9.33
		c-3.73,3.63-7.29,2.42-11.83-3.57c1.86-3.25,0.45-6.84,1.03-10.21c0.47,1.37,0.93,2.73,1.47,4.3c6.42-9.07,12.72-18.01,19.06-26.92
		c0.96-1.35,2.04-2.62,3.14-3.87c2.14-2.44,4.88-3.81,8-2.57c3.22,1.28,3.23,4.28,2.71,7.22C706.4,19.16,706.59,19.87,707.32,20.43z
		"/>
	<path class="st2" d="M652.19,117.73c0.01,0.7,0.03,1.4,0.04,2.09c-1.4,4.64-5.67,6.37-9.1,8.96c-8.56,3.89-17.49,6.84-26.33,9.99
		c-2.62,0.93-5.28,1.25-7.74-0.09c-4.49-2.44-3.77-8.95,1.46-11.64c9.14-4.7,18.42-9.12,27.63-13.68c0.73-0.36,1.39-0.86,2.08-1.3
		C645.61,111.03,649.94,112.18,652.19,117.73z"/>
	<path class="st2" d="M714.17,164.77c-7.96-6.53-12.63-15.5-17.84-24.07c-0.39-1.26-0.63-2.59-1.19-3.76
		c-1.82-3.79-1.5-7.41,1.86-9.85c3.33-2.41,6.63-0.93,9.42,1.69c0.48,0.45,1.05,0.79,1.58,1.18c0,0,0-0.01,0-0.01
		c0.32,0.36,0.64,0.71,0.96,1.07c0,0-0.01,0.03-0.01,0.03c0.62,0.96,1.16,1.98,1.87,2.86c4.85,6.06,9.4,12.33,12.92,19.27
		c1.68,3.32,2.56,7.02-0.03,10.33C721.07,166.86,717.56,165.87,714.17,164.77z"/>
	<path class="st2" d="M635.97,86.86c-7.03-2.38-13.7-0.55-20.32,1.78c-1.86,0.66-3.68,1.41-5.52,2.12c0.09-2.97-2.27-1.8-3.58-1.92
		c-4.47-0.41-8.96-0.61-13.29-1.89c-2.78-0.82-5.44-2.07-5.17-5.7c0.27-3.58,2.97-4.47,5.9-4.92c11.25-1.73,22.54-1.45,33.82-0.38
		C635.94,76.71,637.53,78.96,635.97,86.86z"/>
	<path class="st1" d="M679.38,149.68c0.48-3.9,0.35-7.72,4.7-8.87c4.37-1.16,6.86,1.41,8.65,4.93c3.02,5.92,5.33,12.15,7.3,18.46
		c1.61,5.14-0.48,9.74-4.47,11.37c-4.1,1.66-8.88-0.57-11.31-5.61C681.11,163.43,680.36,156.3,679.38,149.68z"/>
	<path class="st2" d="M671.14,185.7c-0.99-12.46-2.12-24.92-2.86-37.4c-0.17-2.81-1.24-5.43-1.08-8.23c0.6,0.73,0.77,2.05,2.03,1.94
		c5.62-0.48,6.89,3.07,7.71,7.64c1.74,9.77,0.93,19.61,1.26,29.41C678.35,183.81,674.01,184.04,671.14,185.7z"/>
	<path class="st3" d="M714.17,164.77c3.39,1.1,6.9,2.09,9.53-1.28c2.59-3.3,1.71-7,0.03-10.33c-3.51-6.93-8.07-13.21-12.92-19.27
		c-0.71-0.89-1.25-1.91-1.87-2.86c1.32-0.28,3.06,0.07,3.15-2.08c3.07,3.87,6.14,7.73,9.2,11.6c3,3.79,6.28,7.31,10.39,9.94
		c-4.73-0.65-5.81,2-5.52,6.01c0.12,1.64-0.03,3.3,0,4.95c0.04,2.23,0,4.81-2.78,4.96C720.28,166.59,716.59,168.74,714.17,164.77z"
		/>
	<path class="st3" d="M708,129.96c-0.53-0.39-1.1-0.73-1.58-1.18c-2.79-2.61-6.09-4.1-9.42-1.69c-3.36,2.44-3.68,6.06-1.86,9.85
		c0.56,1.17,0.8,2.51,1.19,3.76c-5.25-1.69-4.63-6.19-3.92-9.86c0.67-3.48,2.63-6.57,7.46-6.12
		C703.7,125.09,708.46,123.21,708,129.96z"/>
	<path class="st3" d="M643.14,128.78c3.42-2.59,7.69-4.32,9.1-8.96c1.46,0.13,1.9,1.1,1.97,2.38c-3.44,3.2-6.66,6.68-10.94,8.82
		C643.22,130.28,643.18,129.53,643.14,128.78z"/>
	<path class="st4" d="M690.94,44.53c1.31-2.33,2.44-4.81,5.22-5.82c-0.25,2.75,0.01,5.44,1.05,8.02
		C695.15,45.9,693.49,43.94,690.94,44.53z"/>
	<path class="st3" d="M733.09,151.06c4.11,0.42,7.92-0.24,11.13-3.06C742.38,152.54,736.76,154.08,733.09,151.06z"/>
	<path class="st3" d="M652.19,117.73c-2.25-5.55-6.59-6.7-11.96-5.66C647.18,108.57,651.8,110.76,652.19,117.73z"/>
	<path class="st3" d="M746.2,139.71c-0.92-0.74-1.09-1.77-1.11-2.85C746.34,137.47,746.29,138.58,746.2,139.71z"/>
	<path class="st4" d="M697.24,46.78c1,0.31,1.57,1.06,1.97,1.96C697.83,48.81,697.18,48.15,697.24,46.78z"/>
	<path class="st3" d="M745.08,146.8c0.26-0.48,0.51-0.97,0.77-1.45C745.99,146.04,745.75,146.53,745.08,146.8z"/>
	<path class="st3" d="M745.1,136.87c-0.51-0.17-0.81-0.47-0.64-1.05C744.67,136.17,744.89,136.52,745.1,136.87z"/>
	<path class="st3" d="M708.96,131.01c-0.32-0.36-0.64-0.71-0.96-1.07C708.32,130.3,708.64,130.66,708.96,131.01z"/>
	<path class="st3" d="M744.3,147.89c0.27-0.37,0.53-0.74,0.8-1.11C744.83,147.15,744.56,147.52,744.3,147.89z"/>
	<path class="st5" d="M520.29,857.06c-5.06,40.11,9.23,75.14,28.61,108.83c10.24,17.8,22.89,33.83,36.35,49.25
		c2.29,2.62,4.68,5.22,8.37,6.02c1.68,0.36,2.84,1.46,3.78,3.01c12.66,20.92,20.79,43.23,19.68,68.02
		c-1.14,25.34-9.67,48.03-26.15,67.55c-26.59,31.49-61.2,48.81-101.25,54.69c-36.42,5.35-72.12,1.04-105.59-15.32
		c-31.63-15.46-54.41-39.39-67.02-72.58c-2.96-7.8-7.23-10.93-12.52-9.26c-5.64,1.78-7.36,7.03-5.05,15.08
		c7.64,26.64,24.08,47.06,45.24,64.15c9.35,7.55,19.33,14.15,30.25,19.22c2.93,1.36,3.38,2.7,2.06,5.72
		c-3.48,7.96-5.36,16.43-6.61,25.01c-0.86,5.9,0.79,11.15,4.61,15.81c9.02,11.01,12.54,23.44,10.36,37.69
		c-1.29,8.41-5.87,14.76-12.83,17.93c-13.72,6.25-27.06,13.71-41.93,17.13c-27.59,6.35-55.07,6.38-82.08-2.88
		c-18.34-6.29-30.78-18.27-33.36-38.28c-2.01-15.56-1.64-31.19,0.32-46.76c0.91-7.24,0.17-14.87,2.77-21.69
		c7.28-19.12,8.23-39.68,14.02-59.09c1.61-5.4,3.94-10.59,5.75-15.94c5.88-17.39,5.48-35.37,4.46-53.32
		c-0.31-5.49-0.41-10.97-0.5-16.46c-0.03-1.75,0.69-2.92,2.38-3.31c9.94-2.32,16.56-9.68,23.64-16.07
		c12.51-11.3,23.45-24.11,32.93-38.02c18-26.42,31.29-54.89,34.89-87.06c3.17-28.29-0.87-55.4-14.97-80.56
		c-0.81-1.45-1.48-2.98-2.21-4.47c3.38-3.51,5.3-0.55,7.32,1.69c1.66,1.83,1.43,4.97,4.15,6.09c5.66,7.68,13.85,11.58,22.34,15.17
		c21.99,9.3,45.19,10.43,68.45,9.42c22.15-0.96,43.05-7.34,62.24-18.73c1.41-0.83,2.62-1.99,3.93-2.99c0.8,1.23,1.93,1.27,3.01,0.58
		c2.54-1.6,5.36-1.25,8.14-1.53c5.92-0.61,11.78-1.65,17.5-3.48C516.97,856.89,518.72,854.5,520.29,857.06z M367.65,1020.27
		c-5.32,0-10.64,0.05-15.96-0.01c-7.3-0.09-11.77,5.38-10.02,12.56c0.82,3.39,1.99,6.69,3.03,10.03
		c6.56,20.99,10.1,42.19,5.76,64.22c-1.4,7.13-1.71,14.52-1.97,21.81c-0.24,6.76,4.72,9.41,10.1,12.05c5.58,2.74,9.79,3,13.96-1.3
		c2.56-2.64,5.49-4.09,8.91-5.13c3.49-1.06,6.83-2.61,10.27-3.87c11.3-4.14,21.76-10.31,34.25-11.53
		c13.36-1.31,26.32-5.52,39.52-7.88c24.88-4.44,50.05-6.82,75.42-6.48c7.8,0.1,15.6-0.55,23.17-2.85c4.63-1.4,6.94-4.61,5.89-9.38
		c-1.07-4.86-2.01-9.89-4.64-14.18c-6.97-11.35-12.79-23.33-19.4-34.84c-9.09-15.83-20.14-30.56-24.48-48.75
		c-0.36-1.5-1.39-2.64-3.19-2.72c-1.74-0.08-3.29,0.87-3.55,2.25c-1.05,5.57-5.43,6.04-9.69,6.76c-3.76,0.63-7.52,1.37-11.31,1.73
		c-24.16,2.31-47.96,7.06-71.89,10.86C403.82,1016.5,386.25,1022.38,367.65,1020.27z M266.11,1305.91
		c4.67,0.26,10.26-0.31,15.74-1.95c3.65-1.09,6.94-2.42,7.42-6.92c0.55-5.11-3.19-6.66-6.83-7.84c-5.88-1.9-12.05-2.17-18.2-2.41
		c-15.2-0.6-20.85-6.24-20.06-21.1c1.12-20.95,5.92-41.36,10.53-61.73c5-22.11,6.07-44.3,3.33-66.73c-0.35-2.86-1.34-5.48-3.57-7.47
		c-1.34-1.19-2.73-0.96-4.13-0.1c-0.81,0.49-2.22,0.92-1.53,2.08c2.8,4.7,0.05,9.43,0.09,14.11c0.09,8.77-0.99,17.53-2.31,26.24
		c-3.18,20.94-10.97,40.67-15.85,61.18c-3.4,14.29-6.39,28.53-5.67,43.29c0.25,5.08,1.84,9.72,5.08,13.78
		C239.12,1301.59,250.89,1306.47,266.11,1305.91z"/>
	<path class="st6" d="M356.49,805.69c-7.85-1.81-15.69-3.64-23.54-5.4c-3.72-0.84-7.44-1.68-11.21-2.27
		c-10.77-1.71-21.89,5.88-24.56,16.54c-1.29,5.15-2.72,10.27-4.25,15.35c-0.68,2.27-1.59,3.48-4.9,3.36
		c-6.22-0.23-10.21-3.81-14.19-7.4c-21.45-19.34-45.59-34.91-69.8-50.39c-2.66-1.7-5.52-3.08-8.32-4.55
		c-12.45-6.55-19.36-18.47-27.4-29.06c-14.49-19.09-26.37-39.87-35.12-62.21c-7.86-20.09-13.5-40.79-16.33-62.33
		c-2.27-17.29-2.32-34.57-1.51-51.8c1.07-22.83,6.78-44.87,14.6-66.35c8.43-23.15,20.35-44.43,35.13-64.04
		c11.31-15.01,24.17-28.66,38.43-40.96c16.52-14.25,34.49-26.46,53.71-36.71c20.29-10.82,41.62-19.08,63.97-24.74
		c14.64-3.71,29.39-6.78,44.38-8.47c17.32-1.95,34.66-3.25,52.17-1.73c10.23,0.89,20.56,0.96,30.76,2.34
		c8.86,1.2,17.67,2.71,26.49,4.17c2.63,0.43,4.11,1.51,4.32,4.85c1.57,25.15,11.18,46.99,26.78,66.74
		c18.08,22.88,40.12,40.64,66.09,53.4c20.45,10.05,42.29,14.88,65.16,12.61c9.94-0.99,19.51-4.17,27.7-10.28
		c2.78-2.07,4.8-1.99,6.65,0.83c9.79,14.85,18.98,30.09,26.02,46.42c9.49,22.01,16.07,44.92,19.47,68.73
		c2.67,18.71,2.35,37.4,1.14,56.18c-1.45,22.57-6.85,44.28-14.57,65.33c-5.2,14.16-11.54,27.98-19.97,40.66
		c-1.12,1.68-2.66,2.18-4.63,2.4c-16.87,1.9-32.5,7.67-47.69,15.06c-29.22,14.22-53.38,35.18-76.88,57.05
		c-2.11,1.96-4.11,2.93-7.03,2.88c-8.83-0.16-9.94,0.84-11.44,9.71c-0.28,1.68-0.95,2.34-2.55,2.28c-5.94-0.2-11.39,2.14-17.03,3.43
		c-2.65,0.61-4.18,1.11-4.69-2.61c-0.58-4.27-3.62-6.94-8.01-7.76c-1.6-0.3-3.37,0.07-4.94-1.5c8.23-2.53,16.4-4.78,24.38-7.55
		c28.56-9.94,53.91-25.05,74.54-47.41c9.39-10.18,17.15-21.59,23-34.18c1.54-3.32,2.96-4.32,7.11-3.74
		c20.98,2.92,37.88-5.3,50.87-21.28c6.2-7.63,9.95-16.74,9.33-27.17c-0.49-8.23,2.5-16.51-0.06-24.76
		c-3.35-10.81-7.3-21.34-14.37-30.4c-2.24-2.87-3.88-6.12-6.72-8.61c-8.93-7.82-19.02-7.83-29.53-4.66
		c-3.15,0.95-3.93,0.57-4.66-2.86c-2.96-13.95-7.42-27.43-18.16-37.54c-10.96-10.33-20.82-21.95-33.8-29.98
		c-2.33-1.44-3.48-2.48-1.06-4.74c11.61-10.85,7.52-36.45-6.81-46.2c-4.79-3.26-9.33-6.88-14.53-9.53
		c-9.23-4.7-18.77-3.14-28.28-1.39c-2.28,0.42-3.65,0.49-4.49-2.17c-6.13-19.38-20.71-30.3-38.58-37.51
		c-23.7-9.56-48.25-11.03-73.38-7.12c-17.6,2.74-34.29,7.8-49.28,17.59c-7.82,5.1-14.8,11.27-20.36,18.84
		c-1.82,2.47-3.8,3.58-6.97,3.92c-7.75,0.83-14.86,4.18-20.96,8.7c-11.28,8.37-23.58,15.71-32.31,27.04
		c-11.92,15.49-25.16,30.1-33.26,48.23c-5.05,11.31-7.62,23.3-9.41,35.48c-0.51,3.44-0.8,6.91-0.97,10.38
		c-0.1,1.97-0.47,2.87-2.59,1.84c-25.22-12.33-45.93,8.19-53.51,27.66c-4.1,10.52-5.52,21.34-6.22,32.56
		c-1.48,23.79,4.28,45.81,15.25,66.48c6.95,13.1,15.98,24.65,29.75,31.83c11.89,6.2,29.32,4.45,39.15-4.73
		c4.78-4.45,9.11-9.22,12.08-15.12c1.23-2.45,2.37-2.81,3.88,0.04c5.85,11.11,13.41,21.15,22.35,29.79
		c11.82,11.44,24.96,21.38,39.65,29.06c5.53,2.89,11.15,5.64,16.73,8.45C356.65,805,356.57,805.35,356.49,805.69z M130.33,610.75
		c0.13,3.82,0.85,10.26,2.22,16.59c0.66,3.08,1.66,6.47,5.74,6.49c4.01,0.01,5.12-3.22,5.85-6.34c1.7-7.28,2.96-14.65,4.44-21.97
		c5.78-28.7,13.2-56.94,25.65-83.61c12.94-27.72,29.3-52.86,54.1-71.64c5.98-4.52,7.61-11.13,4.36-16.1
		c-3.54-5.41-9.81-6.58-16.74-2.73c-11.67,6.48-20.91,15.9-29.4,25.92c-18.1,21.36-31.14,45.64-40.76,71.91
		C136.47,554.76,131.04,580.93,130.33,610.75z M250.09,404.56c-0.39,5.67,2.06,10.63,6.81,13.86c7.45,5.07,16.23,8.15,24.98,7.03
		c15.91-2.04,28.8-9.95,36.69-24.51c5.04-9.3,1.37-18.37-8.42-22.21c-14.09-5.51-28.13-4.36-41.89,0.65
		C256.09,383.81,250.18,392.49,250.09,404.56z"/>
	<path class="st7" d="M602.96,622.62c2.56-2.36,3.28-4.99,2.2-8.51c-6.8-22.23-20.23-37.19-43.41-43.64
		c-25.13-6.99-46.74,0.21-67.18,13.86c-9.57,6.39-19.12,10.78-31.25,10.98c-9.09,0.15-15.32-4.71-22.41-7.86
		c-14.63-6.51-29.78-9.93-45.57-11.74c-13.95-1.6-27.59-0.41-40.88,3.42c-26.92,7.77-46.11,27.01-49.25,56.78
		c-2.35,22.22,3.72,42.37,16.37,60.6c1.44,2.07,0.77,2.51-0.83,3.72c-5.55,4.21-10.95,8.63-16.36,13.02
		c-4.44,3.61-7.09,8.73-10.9,13.31c-3.73-5.45-4.83-11.7-7.1-17.44c-2.05-5.19-5.7-7.04-10.97-6.33c-4.85,0.65-6.31,4.25-7.18,8.34
		c-0.17,0.8-0.05,2.05-0.53,2.35c-6.77,4.21-7.7,12.21-11.75,18.17c-10.44,15.38-22.78,15.39-35.47,3.88
		c-9.84-8.92-15.36-20.74-19.34-33.27c-5.44-17.1-6.38-34.73-4.75-52.35c1.05-11.35,3.9-22.52,11.02-32.13
		c6.35-8.57,16.02-11.35,25.48-6.58c6.36,3.21,12.3,6.75,12.49,15.16c0.03,1.37,1.02,2.79,1.79,4.05c2.93,4.76,6.59,6.37,10.74,4.86
		c3.93-1.43,6.68-6.33,5.98-11.02c-0.58-3.94-1.19-7.9-2.16-11.76c-4.48-17.8-0.68-34.87,5.77-51.18
		c7.78-19.68,21.25-36.19,35.02-51.78c10.16-11.5,21.5-22.71,35.88-29.68c2.59-1.25,4.93-2.23,8.01-1.35
		c4.04,1.16,7.61-0.27,10.06-3.79c11.93-17.2,29.77-24.58,48.96-30.09c15.15-4.35,30.59-4.84,45.99-3.66
		c18.24,1.4,35.66,5.83,49.66,19.03c12.6,11.88,11.91,27.08,2.46,39.96c-2.93,3.99-6.65,7.4-10.09,11
		c-2.56,2.67-4.92,5.81-2.56,9.24c2.72,3.96,6.69,2.81,10.21,0.57c11.28-7.17,19.9-16.61,23.93-29.54c1.28-4.11,3.53-4.89,7.39-5.68
		c14.87-3.03,25.71,3.72,35.54,13.45c6.38,6.31,5.81,18.65-1.45,23.78c-13.06,9.22-27.25,11.29-42.37,5.55
		c-1.55-0.59-3.1-1.16-4.68-1.65c-3.09-0.96-6.24-1.06-7.68,2.36c-1.52,3.6-1.16,7.15,2.41,9.76c10.33,7.57,21.71,8.89,34.15,6.91
		c7.89-1.26,15.14-3.53,21.92-7.58c0.9-0.54,1.63-1.8,2.8-0.08c5.98,8.83,14.87,15.17,20.77,24.02
		c4.62,6.93,10.78,12.53,15.63,19.34c6.17,8.68,7.67,18.24,8.63,28.1c0.58,5.93,0.09,11.99-0.13,17.98c-0.17,4.7,2.31,7.44,6.5,8.03
		c4.29,0.61,7.23-1.95,8.56-6.06c1.09-3.36,1.37-6.86,1.19-10.37c-0.14-2.7,0.46-3.93,3.65-4.5c4.91-0.87,9.58-0.37,14.35,0.31
		c4.95,0.7,7.19,4.79,9.38,8.35c4.52,7.34,8.47,14.95,11.13,23.32c2.29,7.23,0.68,14.09,0.5,21.17
		c-0.41,15.78-8.38,26.35-21.65,33.79c-6.37,3.58-13.4,3.49-20.29,4.19c-2.9,0.29-2.58-1.78-2.23-3.72
		c1.45-8.02,2.43-16.09,1.95-24.74c3.18,1.11,4.08,3.91,5.58,5.79c5.5,6.91,18.91,6.95,25.33-1.71c8.06-10.85,8.78-28.96,0.87-39.96
		c-3.83-5.32-8.99-10.18-16.05-9.33c-9.48,1.14-13.59,8.66-16.41,16.84c-1.41,4.08-1.26,8.39-1.45,13.87
		c-3.7-11.71-7.06-22.31-13.88-31.3c-1.92-2.53-3.91-5.42-7.69-2.51C606.92,626.13,605.98,623.67,602.96,622.62z M204.03,660.07
		c0.06,15.36,4.13,29.21,15.86,39.89c12.35,11.24,27,7.79,33.02-7.71c4.01-10.32,2.28-20.56-0.92-30.71
		c-1.97-6.24-6.4-11.17-9.14-16.99c-3.62-7.67-10.2-11.91-18.04-12.29c-8.1-0.39-14.41,4.14-18.19,11.74
		C204.08,649.14,203.87,654.54,204.03,660.07z"/>
	<path class="st8" d="M602.96,622.62c3.02,1.05,3.96,3.51,4.34,6.37c-0.28,3.09,0.78,5.91,1.85,8.7
		c15.36,40.3,8.23,76.44-20.52,108.26c-19.93,22.06-45.33,35.56-73.13,44.97c-31.28,10.58-63.47,13.6-96.07,9.66
		c-35.53-4.29-68.88-14.99-97.25-37.97c-5.56-4.5-10.6-9.56-15.16-15.12c-1.58-1.93-1.88-3.44-1.21-5.81
		c3.58-12.63,11.37-22.4,20.67-31.2c2.78-2.63,5.55-5.28,8.31-7.94c2.6-2.52,2.5-4.47,0.76-8.13c-1.78-3.75-2.15-8.46-3.98-12.54
		c-4.51-10.05-8.16-20.33-9.68-31.36c-3.84-27.77,10.99-50.31,38.19-57.75c21.5-5.89,42.56-3.03,63.45,3.03
		c11.66,3.38,23.09,7.35,34.14,12.54c6.45,3.03,13.78,2.01,20.63,0.56c9.11-1.92,17.06-6.58,24.27-12.31
		c10.88-8.65,23.56-13.75,36.9-15.27c19.59-2.24,36.29,4.96,48.71,20.71c4.12,5.22,7.6,10.92,10.23,17.09
		C599.23,621.04,600,623.31,602.96,622.62z M446.68,793.65c9.88,1.58,20.33-2.26,31.06-3.26c6.69-0.62,13.16-3.42,19.79-4.94
		c10.19-2.33,18.51-8,26.53-14.3c4.14-3.24,5.88-7.74,5.95-12.67c0.13-8.96-2.44-17.02-9.24-23.36c-5.06-4.73-10.6-5.46-16.97-2.73
		c-10.46,4.48-21.45,6.94-32.83,7.35c-1.7,0.06-4.29,1.19-4.76-1.99c-0.38-2.52,0.29-4.34,2.82-5.71
		c5.62-3.03,10.23-7.4,14.44-12.16c1.51-1.71,2.62-3.73,1.02-5.85c-1.66-2.19-3.92-1.4-5.86-0.34c-3.79,2.08-7.52,4.27-11.2,6.54
		c-4.12,2.53-7.8,3.22-11.28-1.21c-1.51-1.92-3.68-3.36-5.66-4.87c-2.57-1.97-5.74-4.19-8.41-1.22c-2.71,3.01-0.61,6.29,1.76,8.84
		c3.17,3.4,6.39,6.78,9.8,9.94c2.02,1.87,1.54,3.89,1.04,5.96c-0.6,2.5-2.77,2.1-4.51,1.91c-6.47-0.7-12.81-1.91-18.8-4.64
		c-4.23-1.93-8.55-3.68-12.87-5.41c-12.56-5.02-32.03,3.85-33.55,19.79c-0.45,4.67-1.1,9.23,0.01,13.86
		c1.32,5.52,2.83,11.06,6.7,15.33c4.02,4.43,8.41,8.71,15.36,7.54c0.56-0.09,1.28,0.35,1.85,0.68
		C420.26,793.46,432.85,793.96,446.68,793.65z M562.23,686.67c0.12-5.02,0.16-9.97-2.11-14.68c-7.23-14.97-30.52-24.07-46.13-17.96
		c-15.67,6.13-24.15,21.7-20.87,38.28c0.61,3.1,2.5,5.02,5.58,5.59c3.15,0.59,5.56-0.73,7.16-3.41c1.14-1.91,1.55-4.08,1.23-6.27
		c-0.93-6.46,2.47-11.55,5.25-16.82c0.8-1.53,2.21-2.26,4.03-2.55c10.97-1.78,23.12,4.54,28.48,14.28c2.3,4.18,2.13,8.66,3.08,12.99
		c0.84,3.82,3.13,6.07,6.71,6.29c4.07,0.26,6.51-2.41,7.08-6.31C562.19,693.01,562.09,689.82,562.23,686.67z M427.13,680.43
		c-0.14-0.89-0.25-2.05-0.5-3.18c-5.39-24.15-28.02-33.68-50.91-30.57c-9.5,1.29-14.3,9.64-19.01,17.11
		c-2.95,4.67-4.9,9.86-5.34,15.42c-0.27,3.35,0.64,6.42,4.44,7.39c3.52,0.91,6.24-0.37,7.82-3.68c1.07-2.24,1.92-4.59,2.93-6.87
		c1.74-3.93,3.1-8.04,6.78-10.82c12.27-9.26,29.93-4.35,35.5,10c1.26,3.25,2.37,6.51,4.32,9.49c2.15,3.29,4.45,6.11,8.8,4.8
		C426.19,688.23,426.75,684.46,427.13,680.43z M361.14,728.84c13.03,0,17.29-1.43,23.68-7.69c6.77-6.63,4.42-15.16-4.83-18.23
		c-11.7-3.88-23.18-3.96-34.63,0.94c-3.58,1.53-9.21,8.44-9.07,11.6c0.12,2.83,6.11,10.85,9.26,11.05
		C351.11,726.87,356.18,730.47,361.14,728.84z M562.19,742.75c6.64,1.28,12.63-1.06,17.1-7.04c3.65-4.88,2.95-10.06-0.92-13.55
		c-3.32-3-7.15-3.36-10.92-4.08c-8.06-1.55-16.19-2.61-24.49-1.45c-4.12,0.57-6.23,3.69-6.46,6.57c-0.33,4.08-2.52,8.92,1.91,12.51
		C545.17,741.16,552.86,743.42,562.19,742.75z"/>
	<path class="st5" d="M270.26,899.61c1.25,14.69,0.94,32.18,0.8,49.65c-0.12,15.13-1.26,30.22-4.93,44.98
		c-1.05,4.2-2.52,8.26-4.6,12.1c-2.47,4.54-4.48,9.18-4.7,14.56c-0.27,6.57-3.28,12.51-5.63,18.5c-1.63,4.17-5.89,6.23-9.7,8.16
		c-2.36,1.2-4.8,0.24-6.61-2.01c-25.78-32.14-52.18-63.76-75.26-98.02c-16.85-25-32.97-50.46-46.04-77.55
		c-10.46-21.68-21.63-43.4-24.87-67.83c-0.72-5.45-2.14-10.72-3.32-16.05c-2.61-11.71,8.69-26.01,21.15-28.37
		c16.46-3.12,31.05,2.97,46.08,7.75c9.69,3.08,17.09,8.78,23.99,16.11c22.28,23.68,48.08,42.93,76.53,58.64
		c2.31,1.28,3.8,2.97,5.04,5.27C266.79,861.55,270.88,878.64,270.26,899.61z M115.78,792.76c-3.99,0-7.99,0.07-11.98-0.02
		c-2.84-0.07-5.66,0.11-6.14,3.55c-0.46,3.3,2.14,4.52,4.77,5.45c4.78,1.67,9.85,1.16,14.76,1.98c10.93,1.82,21.71,2.88,31.5,9.53
		c13.76,9.36,27.15,18.97,39.18,30.54c6.95,6.67,15.06,11.97,23.95,15.87c6.13,2.69,11.07,1.07,13.5-4.16
		c2.17-4.66,0.23-9.21-5.43-12.2c-5.29-2.8-10.31-6.01-15.28-9.34c-9.53-6.39-17.01-15.39-27.02-21.13
		C158.39,801.82,139.54,789.7,115.78,792.76z"/>
	<path class="st5" d="M725.22,789.85c0.2,20.23-5.99,38.99-13.72,57.3c-13.37,31.66-32.27,59.92-53.65,86.66
		c-13.12,16.41-27.41,31.72-42.56,46.23c-4.32,4.13-8.99,7.89-13.44,11.89c-1.74,1.57-2.64,1.92-3.87-0.76
		c-6.74-14.67-10.4-30.08-11.99-46.09c-1.01-10.24-3.32-20.42-3.63-30.66c-0.68-23.01,2.62-45.73,7.1-68.27
		c0.19-0.95,0.59-2.59,1.05-2.65c5.92-0.71,9.01-6.26,14.45-8.04c8.61-2.82,15.67-8.62,22.89-13.94
		c26.09-19.23,48.05-42.41,65.95-69.41c1.79-2.7,3.45-3.29,6.57-2.53c14.41,3.5,23.83,15.34,24.82,31.77
		C725.37,784.18,725.22,787.02,725.22,789.85z"/>
	<path class="st9" d="M625.08,171.71c-0.92-2.1,0.95-3.15,1.91-4.28c9.26-10.94,18.65-21.79,28.95-33.76
		c-0.62,8.55-1.15,15.78-1.68,23.01c-1.3-0.2-2.66-0.21-3.88-0.63c-6.12-2.08-10.12-0.61-13.64,4.68
		c-2.57,3.85-2.56,7.99,0.18,11.03c2.93,3.25,7.34,4.18,11.77,2.22c1.77-0.78,3.21-2.4,5.41-2.12c0.06,28.34,0.13,56.68,0.19,85.02
		c-0.01,12.46,0.02,24.92-0.08,37.38c-0.02,2.04,1.16,4.86-0.86,5.95c-1.54,0.83-2.58-2.03-4.06-2.88c-1.4-0.81-3.11-1.07-4.66-1.65
		c-4.94-1.85-10.77-0.38-13.47,3.41c-2.36,3.31-1.24,10.49,1.92,14.09c2.63,3,6.08,4.4,9.69,5.43c4.26,1.22,7.34-1.98,10.9-3.61
		c1.18,2.68,1.38,5.27,1.48,7.94c0.23,6.44-0.27,12.91,0.79,19.32c0.14,8.21,0.27,16.43,0.41,24.64c-0.28,2.21-0.14,4.19-3.62,2.26
		c-3.83-2.12-8.07-1.06-11.9,0.89c-4.28,2.18-6.51,7.31-5.43,12.2c1.24,5.6,4.65,8.52,10.13,8.61c2.49,0.04,4.99,0.17,7.47-0.05
		c2.83-0.24,3.79,0.93,3.95,3.65c0.23,3.92-0.28,7.92,0.93,11.77c-0.12,9.15,0.79,18.31-0.15,27.45c-1.91-0.39-2.97-1.36-3.73-3.37
		c-2.23-5.9-4.7-11.74-9.97-15.77c-1.78-5.67-6.1-7.99-11.58-8.77c-5.88-5.46-13.82-6.2-20.88-8.88c-2.43-0.92-4.9-2.25-7.88-2.14
		c-6.69,0.25-13.49-0.9-19.83,2.29c-3.93-0.5-5.35,2.2-6.57,5.15c-3.99,3.26-7.01,7.24-9.3,11.88c-1.42,2.88-2.1,6.36-5.37,8.03
		c-11.51-7.89-22.75-16.1-32.48-26.2c6.43-4.89,7.58-11.51,6-18.9c-1.29-6.03-5.32-10.15-10.95-11.63
		c-5.01-1.31-10.58-1.54-13.67,4.52c-0.35,0.69-1.68,0.88-2.56,1.3c-0.09-0.19-0.23-0.32-0.43-0.37c0.01,0,0.08-0.34,0.08-0.34
		l-0.33,0.05c-9.35-13.74-17.18-28.1-20.48-44.7c-0.84-4.22,0.69-6.57,2.87-9.27c0.75,0.14,1.3,0.07,0.91-0.92
		c0.26-0.07,0.45-0.22,0.57-0.45c0.55,0.44,0.78,0.09,0.97-0.38c0,0,0.02-0.01,0.02-0.01c4.58,9.69,12.02,15.55,22.66,17.52
		c11.37,2.1,21.71,0.68,30.05-8.07c4.73-4.97,7.87-11.05,11.65-16.7c8.64-12.92,7.46-25.81,3.54-39.56
		c-1.79-6.27-5.7-11.32-8.08-17.19c4.54-4.49,8.05-9.95,13.16-13.89c7.7,6.95,16.02,13.06,25.91,16.36
		c9.25,3.08,18.48,3.25,26.66-3.4c6.1-4.96,11-11.07,15.91-17.11c3.84-4.73,8.18-9.91,7.95-16.12c-0.35-9.34,1.49-18.99-2.58-28.01
		c0.33-2.81-0.86-4.68-3.48-5.66C633.97,177.89,629.86,174.46,625.08,171.71z M595.61,391.16c4.6-0.66,8.88,0.73,12.01-1.63
		c6.62-5,13.96-9.24,18.45-16.71c4.27-7.1,6.21-14.79,6.96-22.92c1.59-17.35-5.19-31.91-18.06-42.22
		c-17.86-14.32-36.32-8.39-51.91,5.01c-1.3,1.12-2.21,2.57-3.18,4.05c-2.96,4.52-5.21,9.33-7.37,14.21
		c-4.72,10.65-7.16,21.39-0.37,32.12C562.46,379.38,576.32,390.19,595.61,391.16z M585.63,266.68c-7.42-0.34-12.52,4.12-13.14,11.5
		c-0.47,5.6,7.5,14.07,13.47,14.32c6.24,0.26,13.19-6.82,13.68-13.94C600.03,272.9,593.11,267.03,585.63,266.68z M630.03,258.58
		c-0.06,6.38,5.27,11.99,11.24,11.84c4.91-0.12,10.87-6.82,10.92-12.26c0.05-5.33-5.48-10.46-11.15-10.36
		C634.88,247.91,630.09,252.61,630.03,258.58z"/>
	<path class="st5" d="M504.57,1326.36c-6.96,1.1-18.16-3.13-29.09-7.49c-9.04-3.61-13.22-12.02-15.24-21.02
		c-2.11-9.37-4.47-18.95-4.55-28.46c-0.09-10.24-1.19-20.56,0.18-30.83c0.42-3.13,2.38-2.7,4.3-2.68
		c15.36,0.13,30.51-1.61,45.5-4.99c20.44-4.61,39.81-11.87,57.67-22.93c5.1-3.16,4.97-3.19,5.94,2.75
		c3.05,18.65,14.16,32.21,27.88,44.2c9.01,7.87,18.95,14.67,27.15,23.5c4.74,5.1,4.77,7.8,0.55,13.4
		c-6.74,8.96-16.3,13.44-26.38,17.04c-15.37,5.48-31.13,9.75-46.95,13.61C537.93,1325.8,523.79,1325.1,504.57,1326.36z
		 M537.87,1313.81c1.33,0,2.67,0.06,4-0.01c4.84-0.25,8.04-2.9,8.35-6.87c0.37-4.77-1.71-7.08-7.14-8.4
		c-3.55-0.87-7.25-0.65-10.75-2.01c-8.51-3.3-17.15-6.28-25.67-9.53c-3.58-1.37-7.37-2.95-9.6-6.07
		c-3.64-5.07-8.67-8.68-12.73-13.28c-2.19-2.48-4.93-2.65-7.61-0.74c-4.96,3.55-6.32,9.38-3.57,14.92c0.96,1.94,1.78,3.85,2.06,6.08
		c1.45,11.55,9.22,19.26,20.71,20.97c8.03,1.2,16.17,1.31,24.2,2.79C525.96,1312.73,531.85,1314.03,537.87,1313.81z"/>
	<path class="st10" d="M703.98,894.6c2.34-6.77,6.65-12.52,9.85-18.85c8.95-17.68,16.37-35.92,21.2-55.12
		c1.73-6.89,3.01-13.95,3.26-21.13c0.11-3.28,0.33-6.46,5.21-5.63c2.6,0.44,4.31-1.57,5.68-3.47
		c11.76-16.36,22.15-33.23,27.23-53.23c3-11.83,9.51-22.72,15.92-33.15c8.37-13.62,18.66-25.8,34.25-31.98
		c6.68-2.65,12.04-0.98,15.79,5.21c5.68,9.38,4.26,19.57,2.6,29.56c-2.95,17.8-9.93,34.4-15.97,51.27
		c-1.92,5.36-5.44,9.88-8.65,14.53c-10.75,15.57-19.27,32.7-31.42,47.22c-10.03,11.99-18.15,25.32-28.15,37.31
		c-6.07,7.28-14.14,11.98-20.95,18.27c-4.35,4.02-9.06,7.65-13.61,11.45c-5.25,0.54-9.5,3.89-12.08,7.54
		c-4.82,6.81-11.32,11.84-16.63,18.06c-1.6,1.87-1.26,5.4-4.74,5.71c-0.97-1.41,0.15-2.38,0.43-3.6c0.93-3.96,6.27-5.91,4.85-10.83
		c0,0,0,0.02,0,0.02c0.33-0.35,0.65-0.7,0.98-1.04c0,0-0.02-0.06-0.02-0.06C703.53,901.75,703.8,898.21,703.98,894.6z"/>
	<path class="st11" d="M280.8,1009.47c7.12-19.33,8.58-39.41,8.57-59.81c-0.01-20.15-1.46-40.21-2.47-60.3
		c-0.76-15.15-4.55-29.82-12.01-43.98c5.03,0.21,9.13-0.43,11.32,5.2c1.71,4.4,6.94,5.37,12.61,2.55c2.89-1.44,3.72-0.41,4.96,1.69
		c15.02,25.58,18.25,53.02,12.95,81.79c-4.29,23.33-13.09,44.91-25.57,65.02c-1.55,2.5-3.45,4.79-5.19,7.18
		c-1.3,0.14-1.87,0.85-1.7,2.15c0,0,0,0.02,0,0.02C282.96,1010.83,281.57,1010.85,280.8,1009.47z"/>
	<path class="st12" d="M625.08,171.71c4.78,2.75,8.89,6.19,11.39,11.25c-0.78,3.08,0.87,4.67,3.49,5.67
		c4.07,9.02,2.23,18.67,2.58,28.01c0.23,6.21-4.11,11.39-7.95,16.12c-4.91,6.04-9.81,12.15-15.91,17.11
		c-8.18,6.65-17.41,6.48-26.66,3.4c-9.89-3.29-18.22-9.41-25.91-16.36c5.31-6.08,10.63-12.15,15.94-18.23
		c0.28,0.59,0.41,1.45,0.87,1.72c6.03,3.42,12.36,6.24,19.04,8.09c1.77,0.49,3.96,0.61,5.77-0.62c7.4-5.04,10.15-12.13,8.26-20.7
		c-1.43-6.49-5.27-11.33-11.95-13.37c5.44-6.24,10.83-12.52,16.34-18.69C621.66,173.67,622.78,171.82,625.08,171.71z"/>
	<path class="st13" d="M673.33,751.43c-5.47,6.78-10.46,13.15-15.65,19.35c-14.93,17.82-32.39,32.92-50.93,46.82
		c-5.57,4.18-11.36,8.07-17.01,12.15c-1.14,0.82-1.82,1.04-2.81-0.3c-5.15-6.95-13.19-9.33-20.61-12.55
		c-3.76-1.63-4.74-2.69-1.14-5.79c17.43-15.04,36.25-28.07,56.22-39.47c14.62-8.35,29.6-15.85,46-20.11
		C669.01,751.1,670.55,750.47,673.33,751.43z"/>
	<path class="st11" d="M580.26,839.96c-7.94,20.79-12.07,42.49-14.81,64.44c-1.47,11.79,0.74,23.57,2.02,35.29
		c0.85,7.73,0.79,15.56,2.44,23.3c-4.87-5.72-8.3-12.26-11.53-18.88c-8.4-17.23-15.66-34.87-19.7-53.74
		c-2.5-11.66-3.07-23.39-2.58-35.23c0.06-1.46,0.64-2.89,0.98-4.33c0.66-0.05,1.4,0.08,1.97-0.18c5.66-2.52,11.83-3.91,17.67-5.29
		c6.87-1.62,13.54-3.33,19.97-6.18C577.99,838.6,579.31,838.64,580.26,839.96z"/>
	<path class="st12" d="M552.94,250.8c2.38,5.87,6.29,10.92,8.08,17.19c3.92,13.75,5.1,26.64-3.54,39.56
		c-3.77,5.65-6.92,11.73-11.65,16.7c-8.34,8.76-18.67,10.18-30.05,8.07c-10.64-1.97-18.08-7.83-22.66-17.52
		c5.24-5.81,10.41-11.69,16.22-16.96c2.8,4.35,6.87,3.36,11.12,3.11c6.6-0.39,12.36-3.04,17.01-7.03c4.58-3.93,2.6-18.52-2.25-23.52
		C541.13,263.86,547.04,257.33,552.94,250.8z"/>
	<path class="st7" d="M425.22,846.75c-12.44-0.38-24.79-1.92-37.02-4.09c-5.84-1.03-11.05-4.42-16.17-7.51
		c-2.45-1.48-1.87-3.02-0.28-4.81c3.9-4.41,6.08-9.48,5.45-15.51c-0.25-2.38,0.71-2.76,2.94-2.22c7.72,1.87,15.43,3.82,23.25,5.19
		c10.13,1.77,20.35,2.7,30.65,3.27c9.32,0.51,18.55-0.38,27.82-0.39c2.71,0,4.35,0.45,4.71,3.55c0.31,2.68,1.71,5.13,3.62,6.98
		c2.9,2.81,1.34,3.94-1.32,5.34C455.19,843.75,440.68,847.22,425.22,846.75z"/>
	<path class="st12" d="M562.61,422.1c3.28-1.67,3.95-5.15,5.37-8.03c2.29-4.64,5.31-8.62,9.3-11.87c3.59,0.07,4.98-2.67,6.57-5.16
		c6.34-3.19,13.14-2.04,19.83-2.29c2.98-0.11,5.45,1.22,7.88,2.14c7.06,2.68,15,3.43,20.88,8.88c2.98,4.09,7.66,5.93,11.59,8.77
		c5.26,4.03,7.74,9.87,9.97,15.77c0.76,2.01,1.82,2.98,3.73,3.37c-7.78,5.32-15.79,9.97-25.77,9
		c-4.96-10.54-11.57-19.23-23.24-23.34c-3.2-1.12-5.75-2-8.79-0.46c-2.96-0.35-4.57,1.36-5.72,3.76c-2.56,3.79-7.84,5.62-8.02,11.12
		C578.01,430.52,570.37,426.18,562.61,422.1z"/>
	<path class="st13" d="M330.13,858.84c-2.72-1.12-2.49-4.26-4.15-6.09c-2.02-2.24-3.94-5.2-7.32-1.69
		c-2.76-3.28-5.55-6.53-8.27-9.85c-0.99-1.21-1.22-2.6-0.83-4.22c1.45-6.13,2.93-12.27,4.08-18.46c0.79-4.26,3.27-5.9,7.29-5.77
		c9.47,0.31,18.73,2.39,28.11,3.5c3.44,0.41,6.9,0.64,10.33,0.95c0.73,1.43-0.58,1.74-1.27,2.27c-9.68,7.48-9.58,20.55,0.46,27.88
		c3.6,2.62,7.72,4.53,11.61,6.75c-0.31,1.57-1.21,1.57-2.5,1.07c-2.13-0.81-3.77-0.12-4.79,1.95c-1.03-0.1-2.1-0.06-2.83-1.01
		c-0.15-0.77-0.42-1.05-0.96-0.23c-5.51-1.67-9.71-5.49-14.27-8.72c-2.73-1.93-5.52-3.62-9.15-2.66
		C329.34,846.18,327.78,850.09,330.13,858.84z"/>
	<path class="st10" d="M658.44,966.27c-7.95,12.6-16.01,25.15-22.02,38.85c-2,4.55-3.73,9.16-4.49,14.15
		c-1.19,7.83-4.55,14.84-8.52,21.63c-1.86,3.19-3.26,2.83-5.46,0.3c-3.63-4.15-7.27-8.17-8.22-13.91c-0.21-1.27-1.03-2.44-1.6-3.64
		c-0.77-1.62-3.54-2.85-2.7-4.45c1.93-3.67,0.41-8.2,2.9-11.38c2.22-2.84,5.2-5.1,7.93-7.52c11.57-10.24,22.58-21.03,32.76-32.66
		c0.41-0.47,1.11-0.68,1.68-1.01c1.23-0.07,1.4-0.89,1.35-1.88c0,0-0.01-0.01-0.01-0.01c3.93-1.13,5.64-4.81,8.42-7.26
		c0.91-0.8,1.64-2.59,3.08-1.83c0.61,0.32,0.45,2.1,0.64,3.22c0,0,0,0,0,0C661.3,960.59,658,961.98,658.44,966.27z"/>
	<path class="st9" d="M604.04,193.8c6.68,2.05,10.52,6.88,11.95,13.37c1.88,8.57-0.87,15.66-8.26,20.7c-1.8,1.23-4,1.1-5.77,0.62
		c-6.68-1.85-13-4.67-19.04-8.09c-0.47-0.26-0.59-1.13-0.87-1.72C589.38,210.39,596.71,202.09,604.04,193.8z"/>
	<path class="st9" d="M586.19,433.77c0.19-5.5,5.46-7.34,8.02-11.12c3.19,0.7,4.59-1.33,5.72-3.76c3.04-1.55,5.59-0.67,8.79,0.46
		c11.68,4.1,18.28,12.79,23.24,23.34c0,0,0.12-0.02,0.12-0.02c-2.64,0.15-5.28,0.3-7.91,0.45
		C610.83,442.74,598.29,439.14,586.19,433.77z"/>
	<path class="st13" d="M520.29,857.06c-1.57-2.56-3.32-0.17-4.55,0.22c-5.72,1.83-11.58,2.87-17.5,3.48
		c-2.78,0.29-5.6-0.07-8.14,1.53c-1.09,0.68-2.21,0.65-3.01-0.58c5.06-4.14,8.54-9.21,11.68-15.09c2.55-4.77,8.36-7.8,11.2-13
		c0.1-0.19,1.1-0.22,1.23-0.02c4.42,6.48,10.6,1.92,16.46,2.76C524.56,843.04,522.46,850.06,520.29,857.06z"/>
	<path class="st12" d="M655.93,342.27c-1.06-6.41-0.55-12.88-0.79-19.32c-0.1-2.67-0.29-5.26-1.48-7.94
		c-3.56,1.63-6.64,4.83-10.9,3.61c-3.61-1.03-7.06-2.43-9.69-5.43c-3.15-3.6-4.27-10.77-1.92-14.09c2.7-3.8,8.53-5.26,13.47-3.41
		c1.55,0.58,3.25,0.84,4.66,1.65c1.47,0.85,2.51,3.71,4.06,2.88c2.02-1.09,0.84-3.91,0.86-5.95c0.1-12.46,0.07-24.92,0.08-37.38
		c1.24,1.44,0.72,3.18,0.73,4.79c0.08,14.29-0.32,28.6,0.28,42.87C655.83,317.12,656.23,329.68,655.93,342.27z"/>
	<path class="st13" d="M580.26,839.96c-0.96-1.32-2.27-1.36-3.56-0.79c-6.43,2.85-13.1,4.55-19.97,6.18
		c-5.84,1.38-12.01,2.77-17.67,5.29c-0.57,0.25-1.31,0.13-1.97,0.18c0.43-7.56,3.8-13.95,8-20.01c1.72-2.48,4.35-2.5,6.74-1.94
		c9.04,2.12,18.01,4.51,27.01,6.78C581.63,836.35,581.9,837.82,580.26,839.96z"/>
	<path class="st9" d="M535.23,270.4c4.85,5,6.83,19.58,2.25,23.52c-4.65,3.99-10.41,6.64-17.01,7.03
		c-4.25,0.25-8.32,1.24-11.12-3.11c5.09-6.87,11.63-12.4,17.38-18.67C529.46,276.19,531.57,272.51,535.23,270.4z"/>
	<path class="st12" d="M508.96,371.2c0.88-0.42,2.21-0.61,2.56-1.3c3.09-6.06,8.66-5.83,13.67-4.52c5.64,1.47,9.66,5.6,10.95,11.63
		c1.58,7.39,0.43,14.01-6,18.9C522.64,388.04,514.84,380.44,508.96,371.2z"/>
	<path class="st13" d="M426.12,861.8c6.86-1.85,14.04-1.57,20.95-3.56c14.48-4.16,26.61-11.78,36.55-22.96
		c2.5-2.82,1.9-5.64-0.74-8.38c-7.05-7.35-6.99-7.42,2.94-9.78c0.45-0.11,0.95-0.01,1.51-0.01c-3.1,5.49-2.14,7.26,4.15,7.74
		c2.46,0.19,5.87-0.36,6.81,1.84c0.85,2-2.42,3.5-3.89,5.13c-2.69,2.99-5.16,6.05-7.11,9.58c-3.16,5.71-8.8,8.62-14.26,11.31
		c-12.91,6.36-26.75,9.83-40.91,12.11C431.5,861.05,427.41,864.21,426.12,861.8z"/>
	<path class="st12" d="M657.88,406.24c-1.21-3.85-0.7-7.84-0.93-11.77c-0.16-2.72-1.12-3.89-3.95-3.65
		c-2.47,0.21-4.98,0.09-7.47,0.05c-5.48-0.09-8.89-3.01-10.13-8.61c-1.08-4.89,1.15-10.01,5.43-12.2c3.83-1.95,8.06-3.01,11.9-0.89
		c3.48,1.93,3.34-0.05,3.62-2.26c2.12,2.77,0.17,5.79,0.25,8.62C656.88,385.78,658.79,395.96,657.88,406.24z"/>
	<path class="st7" d="M664.18,958.87c-0.19-1.12-0.03-2.9-0.64-3.22c-1.44-0.76-2.17,1.03-3.08,1.83c-2.78,2.45-4.49,6.13-8.42,7.26
		c2.5-4.51,6.33-7.95,9.57-11.87c12.4-15,24.09-30.5,34.52-46.93c0.52-0.81,1.28-1.47,1.92-2.2c1.41,4.92-3.92,6.87-4.85,10.83
		c-0.29,1.21-1.4,2.19-0.43,3.6c3.48-0.31,3.15-3.84,4.74-5.71c5.31-6.22,11.81-11.25,16.63-18.06c2.58-3.65,6.83-7,12.08-7.54
		c-2.51,4.02-6.39,6.73-9.78,9.84c-15.57,14.32-28.52,30.82-40.94,47.83C671.92,949.44,668.93,954.88,664.18,958.87z"/>
	<path class="st14" d="M657.03,657.75c-0.28,5.78-1.43,10.75-4.35,15.13c-2.7,4.05-5.32,4-8.08,0.19
		c-5.68-7.83-3.19-24.76,3.02-28.28c3.19-1.81,4.91-1.74,6.73,1.52C656.48,650.1,656.18,654.3,657.03,657.75z"/>
	<path class="st12" d="M654.09,171.86c-2.19-0.28-3.63,1.34-5.41,2.12c-4.43,1.96-8.85,1.02-11.77-2.22
		c-2.73-3.03-2.74-7.18-0.18-11.03c3.53-5.29,7.53-6.76,13.64-4.68c1.22,0.42,2.58,0.43,3.88,0.63
		C654.2,161.74,654.15,166.8,654.09,171.86z"/>
	<path class="st11" d="M426.12,861.8c1.29,2.42,5.38-0.75,6.01,3.01c-10.24,1.83-20.56,1.1-30.82,0.57
		c-7.91-0.41-15.94-0.16-23.7-2.45c-5.09-1.5-10.19-2.88-14.7-5.8c1.02-2.06,2.65-2.76,4.79-1.94c1.29,0.49,2.18,0.5,2.5-1.07
		c14.44,7.77,30.4,6.64,45.96,7.79c0.3,0.53,0.63,0.55,0.98,0.05C420.13,861.9,423.12,861.85,426.12,861.8z"/>
	<path class="st13" d="M280.8,1009.47c0.78,1.38,2.17,1.36,3.48,1.52c-2.4,5.92-7.27,9.88-11.5,14.47
		C275.13,1019.91,276.8,1014.11,280.8,1009.47z"/>
	<path class="st7" d="M703.98,894.6c-0.18,3.6-0.45,7.15-4.98,8.06C699.98,899.56,701.38,896.72,703.98,894.6z"/>
	<path class="st7" d="M658.44,966.27c-0.44-4.29,2.86-5.68,5.74-7.4C663.17,962.04,660.67,964.04,658.44,966.27z"/>
	<path class="st12" d="M624.17,443.11c2.64-0.15,5.27-0.3,7.91-0.45C629.55,444.64,626.87,444.01,624.17,443.11z"/>
	<path class="st13" d="M284.28,1010.96c-0.18-1.3,0.4-2.01,1.7-2.15C286.07,1010.05,285.48,1010.75,284.28,1010.96z"/>
	<path class="st7" d="M630.61,675.27c-0.08-0.3-0.14-0.45-0.14-0.6c0-0.04,0.2-0.08,0.31-0.12
		C630.73,674.74,630.69,674.94,630.61,675.27z"/>
	<path class="st7" d="M652.05,964.75c0.06,0.99-0.12,1.81-1.35,1.88C651.15,966.01,651.6,965.38,652.05,964.75z"/>
	<path class="st12" d="M491.56,315.64c0.39,0.99-0.16,1.06-0.91,0.92C490.96,316.26,491.26,315.95,491.56,315.64z"/>
	<path class="st11" d="M359.11,855.89c0.54-0.82,0.8-0.53,0.96,0.23C359.75,856.05,359.43,855.98,359.11,855.89z"/>
	<path class="st13" d="M417.13,861.95c-0.35,0.51-0.68,0.48-0.98-0.05C416.48,861.83,416.81,861.84,417.13,861.95z"/>
	<path class="st12" d="M508.27,370.54l0.33-0.05c0,0-0.07,0.34-0.08,0.34C508.52,370.83,508.27,370.54,508.27,370.54z"/>
	<path class="st12" d="M493.11,314.81c-0.19,0.47-0.42,0.83-0.97,0.38C492.46,315.06,492.78,314.94,493.11,314.81z"/>
	<path class="st7" d="M699.02,902.73c-0.33,0.35-0.65,0.7-0.98,1.04C698.37,903.42,698.69,903.07,699.02,902.73z"/>
	<path class="st0" d="M367.65,1020.27c18.6,2.1,36.17-3.78,54.18-6.64c23.93-3.8,47.73-8.56,71.89-10.86
		c3.79-0.36,7.55-1.1,11.31-1.73c4.26-0.72,8.64-1.18,9.69-6.76c0.26-1.38,1.81-2.32,3.55-2.25c1.79,0.08,2.83,1.22,3.19,2.72
		c4.34,18.2,15.39,32.92,24.48,48.75c6.61,11.51,12.43,23.49,19.4,34.84c2.63,4.29,3.58,9.32,4.64,14.18
		c1.05,4.77-1.27,7.98-5.89,9.38c-7.57,2.29-15.36,2.95-23.17,2.85c-25.36-0.34-50.54,2.04-75.42,6.48
		c-13.2,2.36-26.16,6.57-39.52,7.88c-12.49,1.22-22.95,7.39-34.25,11.53c-3.44,1.26-6.78,2.81-10.27,3.87
		c-3.42,1.04-6.35,2.49-8.91,5.13c-4.17,4.3-8.38,4.03-13.96,1.3c-5.38-2.64-10.34-5.29-10.1-12.05c0.26-7.29,0.57-14.69,1.97-21.81
		c4.34-22.04,0.8-43.23-5.76-64.22c-1.04-3.33-2.21-6.64-3.03-10.03c-1.75-7.18,2.72-12.65,10.02-12.56
		C357.01,1020.33,362.33,1020.27,367.65,1020.27z M374.63,1037.81c-3.5,0-7,0.03-10.49-0.01c-2.03-0.02-3.54,0.5-2.42,2.85
		c4.01,8.37,4.49,17.69,7.33,26.37c2.24,6.85,3.4,13.88,2.93,21.11c-0.58,8.95-1.17,17.91-1.84,26.85c-0.23,3.06,0.46,4.49,3.87,3.1
		c3.22-1.32,6.56-2.35,9.86-3.47c9.59-3.25,18.37-9.12,28.38-10.7c21.48-3.39,42.63-8.66,64.29-10.93c3.33-0.35,3.58-1.52,3.07-4.47
		c-1.82-10.59-5.62-20.47-10.12-30.13c-3.03-6.51-1.67-10.16,4.81-13.2c2.42-1.14,4.91-2.07,7.59-2.37c2.63-0.3,3.51-1.34,2.26-3.98
		c-2.49-5.26-4.74-10.64-6.09-16.33c-0.48-2.05-1.44-2.72-3.53-2.3c-18.72,3.73-37.5,7.19-56.17,11.15
		C403.89,1034.4,389.58,1038.24,374.63,1037.81z M543.73,1092.02c0.01-0.07,0.01-0.15,0.02-0.22c1.83,0.1,3.72-0.06,5.46,0.37
		c3.33,0.81,3.54-0.99,2.78-3.22c-0.74-2.19-1.75-4.36-3.04-6.27c-5.97-8.87-10.42-18.46-14.61-28.28
		c-6.04-14.16-15.62-26.76-18.68-42.27c-0.26-1.34-0.95-2.47-2.83-1.46c-7.29,3.9-15.29,5.31-23.37,6.42
		c-3.05,0.42-4.08,1.79-2.32,4.72c3.93,6.54,6.83,13.65,11.7,19.67c4.09,5.06,2.54,9.27-3.74,11.25c-2.06,0.65-4.14,1.34-6.27,1.63
		c-4.15,0.57-4.39,2.5-2.58,5.77c4.73,8.5,7.82,17.66,9.64,27.15c0.61,3.19,1.93,3.55,4.57,3.54c7.31-0.02,14.58-1.39,21.92-0.65
		C529.49,1090.87,536.61,1091.4,543.73,1092.02z"/>
	<path class="st3" d="M266.11,1305.91c-15.23,0.56-26.99-4.32-35.97-15.56c-3.24-4.06-4.84-8.7-5.08-13.78
		c-0.72-14.77,2.27-29,5.67-43.29c4.88-20.5,12.67-40.23,15.85-61.18c1.32-8.71,2.4-17.47,2.31-26.24
		c-0.05-4.68,2.7-9.41-0.09-14.11c-0.69-1.15,0.72-1.59,1.53-2.08c1.4-0.85,2.79-1.09,4.13,0.1c2.23,1.99,3.22,4.6,3.57,7.47
		c2.75,22.43,1.67,44.62-3.33,66.73c-4.61,20.37-9.4,40.78-10.53,61.73c-0.8,14.85,4.86,20.5,20.06,21.1
		c6.15,0.24,12.32,0.51,18.2,2.41c3.65,1.18,7.38,2.73,6.83,7.84c-0.48,4.5-3.78,5.83-7.42,6.92
		C276.37,1305.6,270.78,1306.16,266.11,1305.91z"/>
	<path class="st4" d="M130.33,610.75c0.72-29.81,6.15-55.99,15.48-81.48c9.61-26.27,22.66-50.55,40.76-71.91
		c8.49-10.02,17.73-19.44,29.4-25.92c6.93-3.85,13.2-2.68,16.74,2.73c3.25,4.97,1.61,11.57-4.36,16.1
		c-24.81,18.78-41.16,43.92-54.1,71.64c-12.45,26.67-19.87,54.91-25.65,83.61c-1.47,7.32-2.74,14.69-4.44,21.97
		c-0.73,3.12-1.84,6.36-5.85,6.34c-4.09-0.01-5.08-3.4-5.74-6.49C131.18,621,130.45,614.57,130.33,610.75z"/>
	<path class="st4" d="M250.09,404.56c0.09-12.07,6-20.75,18.16-25.18c13.76-5.01,27.81-6.16,41.89-0.65
		c9.79,3.83,13.46,12.9,8.42,22.21c-7.89,14.56-20.78,22.47-36.69,24.51c-8.75,1.12-17.53-1.96-24.98-7.03
		C252.15,415.19,249.7,410.23,250.09,404.56z"/>
	<path class="st1" d="M204.03,660.07c-0.17-5.54,0.05-10.93,2.6-16.07c3.78-7.6,10.09-12.14,18.19-11.74
		c7.85,0.38,14.43,4.62,18.04,12.29c2.75,5.82,7.18,10.75,9.14,16.99c3.19,10.14,4.93,20.38,0.92,30.71
		c-6.03,15.5-20.68,18.95-33.02,7.71C208.16,689.28,204.09,675.43,204.03,660.07z M242.34,676.58c-0.1-14.94-3.35-22.49-12.29-28.53
		c-4.96-3.35-7.77-2.4-9.63,3.35c-2.4,7.4-1.6,14.78,0.49,22.06c1.81,6.29,4.46,12.2,9.35,16.77c4.63,4.32,8.34,3.44,10.7-2.33
		C242.43,684.23,242.28,680.4,242.34,676.58z"/>
	<path class="st1" d="M446.68,793.65c-13.83,0.31-26.42-0.19-37.83-6.91c-0.56-0.33-1.28-0.78-1.85-0.68
		c-6.94,1.17-11.33-3.11-15.36-7.54c-3.87-4.26-5.38-9.81-6.7-15.33c-1.1-4.63-0.46-9.19-0.01-13.86
		c1.53-15.94,20.99-24.82,33.55-19.79c4.32,1.73,8.64,3.47,12.87,5.41c5.99,2.74,12.33,3.95,18.8,4.64
		c1.74,0.19,3.91,0.59,4.51-1.91c0.5-2.07,0.98-4.1-1.04-5.96c-3.41-3.16-6.63-6.54-9.8-9.94c-2.38-2.55-4.47-5.83-1.76-8.84
		c2.67-2.97,5.84-0.74,8.41,1.22c1.98,1.51,4.15,2.95,5.66,4.87c3.48,4.43,7.17,3.74,11.28,1.21c3.68-2.27,7.42-4.46,11.2-6.54
		c1.94-1.06,4.2-1.85,5.86,0.34c1.61,2.12,0.5,4.14-1.02,5.85c-4.21,4.76-8.82,9.13-14.44,12.16c-2.52,1.36-3.19,3.19-2.82,5.71
		c0.48,3.18,3.06,2.05,4.76,1.99c11.39-0.41,22.37-2.87,32.83-7.35c6.37-2.73,11.9-2,16.97,2.73c6.79,6.34,9.37,14.41,9.24,23.36
		c-0.07,4.92-1.81,9.42-5.95,12.67c-8.03,6.29-16.34,11.96-26.53,14.3c-6.64,1.52-13.1,4.32-19.79,4.94
		C467,791.38,456.55,795.23,446.68,793.65z M440.22,780.89c0.01-0.13,0.01-0.26,0.02-0.38c3.49,0,7.01,0.27,10.47-0.07
		c4.23-0.42,2.79-4.16,3.24-6.64c0.48-2.66-1.37-2.93-3.42-2.82c-6.53,0.33-12.88-0.97-19.29-1.97c-8.01-1.25-7.99-1.02-8.98,7.14
		c-0.3,2.49,0.33,3.71,3.05,3.81C430.28,780.13,435.25,780.56,440.22,780.89z M449.92,761.87c5.39,1.96,5.16-2.89,5.92-7
		c0.57-3.05-0.26-4.15-3.47-4.09c-6.65,0.11-13.16-0.93-19.54-2.94c-1.71-0.54-3.93-2.97-5.29,0.58c-1.48,3.84-0.42,9.44,2.13,9.95
		C435.99,759.63,442.21,761.48,449.92,761.87z M463.52,757.65c0.2,0.42-1.89,4.01,1.36,3.88c7.7-0.3,15.67-0.04,22.72-4.02
		c3.52-1.99,1.05-4.96,0.66-7.52c-0.53-3.41-2.86-1.39-4.19-1.06c-5.17,1.28-10.36,2.43-15.69,1.97
		C464.14,750.53,461.97,751.65,463.52,757.65z M396.02,752.53c-1.28,9.29,2.26,16.06,8.94,21.47c2.23,1.8,5.06,4.01,7.55,2.91
		c2.46-1.09,1.84-4.77,1.63-7.3c-0.2-2.32,1.76-5.3-1.91-6.94C406.45,760.08,399.99,758.56,396.02,752.53z M501.46,753.81
		c3.54-0.74,7.62-1.05,11.2-2.55c2.11-0.89,5.54-2.45,4.3-6.09c-2.4-7.08-8.98-8.93-14.92-4.38c-1.44,1.1-2.8,2.34-4.35,3.28
		c-2.89,1.76-1.06,3.8-0.3,5.57C498.13,751.37,497.81,754.32,501.46,753.81z M422.06,744.09c-0.07-0.16-0.19-0.83-0.57-1.26
		c-4.38-5.02-18.68-4.53-22.7,0.7c-1.14,1.49-0.73,2.96,0.77,2.95c6.67-0.07,11.73,4.12,17.58,6.16c1.14,0.4,2.34,0.69,2.81-0.91
		C420.64,749.34,421.27,746.95,422.06,744.09z M491.43,770.15c-1.51-0.5,1-5.07-2.13-3.66c-7.7,3.45-15.8,3.54-23.84,4.53
		c-3.96,0.49-1.56,4.09-2.69,6.03c-0.7,1.21,0.39,1.79,1.56,1.56c8.61-1.73,17.46-2.31,25.78-5.43
		C491.37,772.71,492.17,772.07,491.43,770.15z M518.81,753.85c-4.43,4.59-9.78,5.97-15.02,7.51c-4.37,1.29-2.7,4.94-2.08,6.99
		c0.78,2.57,3.05,0.34,4.38-0.41c3.03-1.72,5.89-3.74,8.8-5.66C517.59,760.52,519.15,758.15,518.81,753.85z"/>
	<path class="st1" d="M562.23,686.67c-0.14,3.15-0.04,6.34-0.5,9.45c-0.57,3.91-3.01,6.57-7.08,6.31c-3.59-0.23-5.87-2.48-6.71-6.29
		c-0.95-4.33-0.78-8.81-3.08-12.99c-5.36-9.75-17.51-16.07-28.48-14.28c-1.82,0.3-3.23,1.03-4.03,2.55
		c-2.78,5.27-6.18,10.35-5.25,16.82c0.31,2.19-0.1,4.36-1.23,6.27c-1.6,2.68-4.01,4-7.16,3.41c-3.08-0.57-4.97-2.49-5.58-5.59
		c-3.29-16.58,5.2-32.15,20.87-38.28c15.6-6.11,38.9,2.99,46.13,17.96C562.4,676.7,562.35,681.65,562.23,686.67z"/>
	<path class="st1" d="M427.13,680.43c-0.38,4.03-0.94,7.8-5.18,9.08c-4.34,1.31-6.65-1.51-8.8-4.8c-1.95-2.98-3.06-6.23-4.32-9.49
		c-5.57-14.35-23.23-19.25-35.5-10c-3.68,2.78-5.04,6.89-6.78,10.82c-1.01,2.27-1.86,4.62-2.93,6.87c-1.58,3.31-4.3,4.59-7.82,3.68
		c-3.8-0.98-4.7-4.05-4.44-7.39c0.44-5.56,2.39-10.75,5.34-15.42c4.71-7.47,9.52-15.82,19.01-17.11
		c22.88-3.11,45.52,6.41,50.91,30.57C426.88,678.38,426.99,679.54,427.13,680.43z"/>
	<path class="st14" d="M361.14,728.84c-4.96,1.63-10.03-1.97-15.59-2.32c-3.15-0.2-9.14-8.22-9.26-11.05
		c-0.14-3.16,5.5-10.07,9.07-11.6c11.44-4.9,22.93-4.82,34.63-0.94c9.25,3.07,11.6,11.6,4.83,18.23
		C378.43,727.41,374.16,728.84,361.14,728.84z"/>
	<path class="st14" d="M562.19,742.75c-9.33,0.67-17.02-1.59-23.77-7.05c-4.43-3.58-2.24-8.43-1.91-12.51
		c0.23-2.89,2.34-6,6.46-6.57c8.3-1.16,16.42-0.1,24.49,1.45c3.76,0.72,7.59,1.08,10.92,4.08c3.87,3.49,4.57,8.67,0.92,13.55
		C574.81,741.69,568.83,744.03,562.19,742.75z"/>
	<path class="st3" d="M115.78,792.76c23.77-3.07,42.62,9.06,61.82,20.06c10.02,5.74,17.49,14.74,27.02,21.13
		c4.97,3.33,9.99,6.54,15.28,9.34c5.66,2.99,7.6,7.54,5.43,12.2c-2.44,5.23-7.37,6.85-13.5,4.16c-8.89-3.9-17-9.2-23.95-15.87
		c-12.03-11.56-25.42-21.18-39.18-30.54c-9.78-6.66-20.57-7.71-31.5-9.53c-4.91-0.82-9.99-0.3-14.76-1.98
		c-2.63-0.92-5.23-2.14-4.77-5.45c0.48-3.44,3.29-3.62,6.14-3.55C107.79,792.83,111.78,792.76,115.78,792.76z"/>
	<path class="st12" d="M595.61,391.16c-19.29-0.97-33.15-11.78-43.47-28.09c-6.79-10.73-4.35-21.47,0.37-32.12
		c2.17-4.89,4.41-9.69,7.37-14.21c0.97-1.48,1.87-2.93,3.18-4.05c15.59-13.4,34.05-19.33,51.91-5.01
		c12.86,10.31,19.65,24.87,18.06,42.22c-0.75,8.13-2.68,15.82-6.96,22.92c-4.5,7.47-11.83,11.71-18.45,16.71
		C604.49,391.89,600.21,390.5,595.61,391.16z M576.44,334.37c-0.62,2.75-1.15,5.52-1.89,8.23c-2.06,7.62-0.57,11.49,6.1,15.42
		c8.85,5.21,15.45,4.1,21.77-3.25c5.9-6.86,4.49-14.33,2.28-21.89c-0.54-1.85-0.4-4.13-2.21-5.42c-8.22-5.87-14.45-7.83-22.53,1.54
		C577.67,330.06,576.02,331.53,576.44,334.37z"/>
	<path class="st12" d="M585.63,266.68c7.48,0.35,14.41,6.22,14.01,11.88c-0.5,7.12-7.45,14.2-13.68,13.94
		c-5.97-0.25-13.94-8.73-13.47-14.32C573.1,270.81,578.21,266.34,585.63,266.68z"/>
	<path class="st12" d="M630.03,258.58c0.05-5.97,4.85-10.66,11.01-10.78c5.67-0.11,11.2,5.03,11.15,10.36
		c-0.05,5.44-6.01,12.14-10.92,12.26C635.3,270.57,629.97,264.96,630.03,258.58z"/>
	<path class="st7" d="M644.03,414.55c-3.92-2.85-8.61-4.68-11.59-8.77C637.93,406.57,642.25,408.88,644.03,414.55z"/>
	<path class="st8" d="M583.85,397.04c-1.59,2.48-2.98,5.23-6.57,5.16C578.51,399.24,579.93,396.54,583.85,397.04z"/>
	<path class="st7" d="M639.95,188.62c-2.62-0.99-4.26-2.59-3.49-5.67C639.1,183.95,640.28,185.82,639.95,188.62z"/>
	<path class="st3" d="M537.87,1313.81c-6.02,0.21-11.91-1.08-17.75-2.15c-8.03-1.47-16.17-1.59-24.2-2.79
		c-11.49-1.71-19.26-9.42-20.71-20.97c-0.28-2.23-1.1-4.14-2.06-6.08c-2.75-5.54-1.39-11.37,3.57-14.92
		c2.67-1.91,5.42-1.74,7.61,0.74c4.06,4.6,9.09,8.2,12.73,13.28c2.23,3.11,6.02,4.7,9.6,6.07c8.53,3.26,17.16,6.24,25.67,9.53
		c3.5,1.36,7.2,1.14,10.75,2.01c5.44,1.33,7.52,3.63,7.14,8.4c-0.31,3.96-3.51,6.62-8.35,6.87
		C540.54,1313.87,539.2,1313.81,537.87,1313.81z"/>
	<path class="st8" d="M599.93,418.89c-1.14,2.43-2.54,4.46-5.72,3.76C595.36,420.25,596.97,418.54,599.93,418.89z"/>
	<path class="st11" d="M374.63,1037.81c14.95,0.44,29.25-3.41,43.71-6.47c18.67-3.96,37.45-7.42,56.17-11.15
		c2.1-0.42,3.05,0.25,3.53,2.3c1.34,5.69,3.59,11.07,6.09,16.33c1.25,2.64,0.37,3.68-2.26,3.98c-2.67,0.3-5.17,1.24-7.59,2.37
		c-6.48,3.04-7.84,6.69-4.81,13.2c4.5,9.67,8.31,19.54,10.12,30.13c0.51,2.95,0.25,4.12-3.07,4.47
		c-21.65,2.28-42.81,7.54-64.29,10.93c-10,1.58-18.78,7.44-28.38,10.7c-3.3,1.12-6.64,2.15-9.86,3.47c-3.41,1.4-4.09-0.03-3.87-3.1
		c0.66-8.95,1.25-17.9,1.84-26.85c0.47-7.23-0.69-14.26-2.93-21.11c-2.84-8.68-3.31-18.01-7.33-26.37
		c-1.13-2.35,0.39-2.87,2.42-2.85C367.64,1037.84,371.13,1037.81,374.63,1037.81z M443.2,1067.54c0.31-4.15-1.27-9.31-3.5-14.11
		c-4.23-9.09-11.41-14.61-21.66-15.23c-10.92-0.65-19.83,2.49-24.81,13.34c-6.2,13.52-2.68,30.78,8.62,40.49
		c9.83,8.45,24.58,7.66,33.36-1.77C440.83,1084.23,443.07,1076.95,443.2,1067.54z"/>
	<path class="st11" d="M543.73,1092.02c-7.11-0.61-14.23-1.14-21.34-1.86c-7.34-0.74-14.61,0.63-21.92,0.65
		c-2.64,0.01-3.96-0.35-4.57-3.54c-1.83-9.5-4.92-18.65-9.64-27.15c-1.81-3.26-1.57-5.2,2.58-5.77c2.12-0.29,4.21-0.98,6.27-1.63
		c6.28-1.98,7.83-6.19,3.74-11.25c-4.87-6.02-7.77-13.13-11.7-19.67c-1.76-2.93-0.73-4.31,2.32-4.72c8.08-1.1,16.08-2.52,23.37-6.42
		c1.89-1.01,2.57,0.13,2.83,1.46c3.06,15.51,12.63,28.11,18.68,42.27c4.19,9.82,8.64,19.41,14.61,28.28
		c1.29,1.91,2.3,4.08,3.04,6.27c0.76,2.23,0.55,4.04-2.78,3.22c-1.75-0.43-3.64-0.27-5.46-0.37
		C543.74,1091.87,543.73,1091.94,543.73,1092.02z"/>
	<path class="st14" d="M242.34,676.58c-0.06,3.82,0.09,7.65-1.4,11.3c-2.36,5.78-6.07,6.66-10.7,2.33
		c-4.89-4.57-7.54-10.48-9.35-16.77c-2.09-7.28-2.89-14.66-0.49-22.06c1.87-5.75,4.68-6.7,9.63-3.35
		C238.98,654.09,242.24,661.64,242.34,676.58z"/>
	<path class="st4" d="M440.22,780.89c-4.97-0.33-9.94-0.75-14.92-0.94c-2.72-0.1-3.35-1.32-3.05-3.81c0.99-8.16,0.97-8.38,8.98-7.14
		c6.41,1,12.76,2.29,19.29,1.97c2.05-0.1,3.91,0.16,3.42,2.82c-0.45,2.48,0.99,6.22-3.24,6.64c-3.46,0.34-6.98,0.07-10.47,0.07
		C440.23,780.63,440.23,780.76,440.22,780.89z"/>
	<path class="st4" d="M449.92,761.87c-7.71-0.39-13.93-2.24-20.24-3.51c-2.55-0.51-3.61-6.11-2.13-9.95
		c1.36-3.55,3.58-1.11,5.29-0.58c6.37,2.01,12.89,3.05,19.54,2.94c3.21-0.06,4.04,1.04,3.47,4.09
		C455.08,758.98,455.31,763.83,449.92,761.87z"/>
	<path class="st4" d="M463.52,757.65c-1.56-6,0.61-7.11,4.86-6.74c5.32,0.46,10.52-0.69,15.69-1.97c1.33-0.33,3.66-2.35,4.19,1.06
		c0.4,2.55,2.86,5.53-0.66,7.52c-7.05,3.98-15.02,3.72-22.72,4.02C461.64,761.65,463.72,758.07,463.52,757.65z"/>
	<path class="st4" d="M396.02,752.53c3.96,6.02,10.43,7.54,16.21,10.13c3.67,1.64,1.71,4.62,1.91,6.94c0.22,2.53,0.83,6.2-1.63,7.3
		c-2.49,1.11-5.32-1.1-7.55-2.91C398.29,768.6,394.75,761.83,396.02,752.53z"/>
	<path class="st4" d="M501.46,753.81c-3.66,0.5-3.33-2.44-4.07-4.18c-0.76-1.78-2.59-3.81,0.3-5.57c1.54-0.94,2.9-2.18,4.35-3.28
		c5.94-4.55,12.52-2.69,14.92,4.38c1.24,3.65-2.19,5.21-4.3,6.09C509.08,752.76,505,753.07,501.46,753.81z"/>
	<path class="st4" d="M422.06,744.09c-0.79,2.86-1.42,5.25-2.12,7.63c-0.47,1.6-1.66,1.31-2.81,0.91
		c-5.85-2.04-10.91-6.23-17.58-6.16c-1.5,0.02-1.92-1.46-0.77-2.95c4.02-5.23,18.32-5.72,22.7-0.7
		C421.87,743.26,421.99,743.93,422.06,744.09z"/>
	<path class="st4" d="M491.43,770.15c0.74,1.92-0.07,2.57-1.31,3.03c-8.32,3.12-17.17,3.71-25.78,5.43
		c-1.18,0.24-2.27-0.35-1.56-1.56c1.13-1.94-1.27-5.54,2.69-6.03c8.04-1,16.14-1.08,23.84-4.53
		C492.44,765.08,489.92,769.65,491.43,770.15z"/>
	<path class="st4" d="M518.81,753.85c0.34,4.3-1.22,6.67-3.91,8.43c-2.92,1.91-5.78,3.93-8.8,5.66c-1.33,0.76-3.61,2.99-4.38,0.41
		c-0.62-2.05-2.29-5.7,2.08-6.99C509.03,759.82,514.38,758.44,518.81,753.85z"/>
	<path class="st9" d="M579.96,329c8.09-9.38,14.31-7.41,22.53-1.54c1.81,1.29,1.67,3.57,2.21,5.42c2.22,7.57,3.62,15.03-2.28,21.89
		c-6.32,7.35-12.92,8.46-21.77,3.25c-6.67-3.93-8.17-7.8-6.1-15.42c0.73-2.71,1.26-5.49,1.88-8.22
		C579.06,333.54,580.59,331.98,579.96,329z"/>
	<path class="st8" d="M579.96,329c0.63,2.98-0.9,4.54-3.52,5.37C576.02,331.53,577.67,330.06,579.96,329z"/>
	<path class="st0" d="M443.2,1067.54c-0.13,9.42-2.37,16.69-7.99,22.72c-8.78,9.43-23.53,10.22-33.36,1.77
		c-11.29-9.71-14.81-26.96-8.62-40.49c4.97-10.86,13.89-14,24.81-13.34c10.25,0.61,17.42,6.14,21.66,15.23
		C441.94,1058.23,443.51,1063.39,443.2,1067.54z M406.35,1068.63c0.09,2.8,1.98,7.58,6.02,11.42c3.8,3.61,7.35,3.59,11.39,0.21
		c3.71-3.11,4.53-7.66,5.74-11.86c2.05-7.12-3.88-17.47-10.78-19.8c-1.32-0.45-2.55-1.01-3.68,0.14
		C410.33,1053.54,406.16,1058.62,406.35,1068.63z"/>
	<path class="st10" d="M406.35,1068.63c-0.19-10.01,3.98-15.09,8.69-19.89c1.13-1.15,2.36-0.59,3.68-0.14
		c6.91,2.33,12.83,12.68,10.78,19.8c-1.21,4.2-2.02,8.75-5.74,11.86c-4.04,3.39-7.58,3.4-11.39-0.21
		C408.33,1076.22,406.44,1071.44,406.35,1068.63z"/>
</g>
</svg>
