<?xml version="1.0" encoding="utf-8"?>
<!-- Generator: Adobe Illustrator 26.1.0, SVG Export Plug-In . SVG Version: 6.00 Build 0)  -->
<svg version="1.1" id="Layer_1" xmlns="http://www.w3.org/2000/svg" xmlns:xlink="http://www.w3.org/1999/xlink" x="0px" y="0px"
	 viewBox="0 0 2476.35 787.76" style="enable-background:new 0 0 2476.35 787.76;" xml:space="preserve">
<style type="text/css">
	.st0{fill:#5D235C;}
	.st1{fill:#D2E7F7;}
	.st2{fill:#D2E8F7;}
	.st3{fill:#D1E7F7;}
	.st4{fill:#A54D42;}
	.st5{fill:#3FA690;}
	.st6{fill:#A56F41;}
	.st7{fill:#3CA58E;}
	.st8{fill:#75A53C;}
	.st9{fill:#3F71A5;}
	.st10{fill:#A43FA2;}
	.st11{fill:#A6A042;}
	.st12{fill:#77A642;}
	.st13{fill:#523EA4;}
</style>
<g>
	<path class="st0" d="M26.35,522.1c2.04,1.25,3.09-0.05,3.74-1.65c2.01-4.93,4.43-9.77,5.76-14.88
		c18.51-71.22,40.99-141.29,61.21-212.01c5.96-20.86,7.75-42.59,13.06-63.57c7.63-30.11,11.59-60.89,15.36-91.57
		c3-24.38,4.65-49.08,4.71-73.75c0.01-5.49,2.56-10.86-0.07-17.17c4.48,0.6,7.44,2.66,10.23,4.75
		c83.59,62.57,175.96,108.72,273.25,145.48c99.27,37.5,201.42,64.75,305.6,84.71c71.37,13.68,143.22,23.95,215.5,31.17
		c116.22,11.61,232.75,15.04,349.48,11.64c62.64-1.82,125.17-5.63,187.54-11.62c70.98-6.81,141.56-16.6,211.78-29.08
		c102.07-18.15,202.65-42.24,301.22-74.45c102.43-33.47,201.8-74.11,295.25-128.28c16.13-9.35,32.09-19.02,47.96-28.81
		c5.54-3.41,11.32-6.3,15.11-12.51c2.49-4.08,8.81-3.76,13.6-3.77c2.76,0,3.93,2.82,4.48,5.78c1.55,8.27,1.46,16.61,1.24,24.91
		c-0.62,23.53,3.54,46.51,8.33,69.29c19.22,91.5,50.7,178.55,96.37,260.28c3.32,5.93,5.97,12.43,11.28,17.1c0,6,0,12,0,18
		c-8.34-7.32-14.97-15.97-20.65-25.48c-6.32-10.58-12.55-21.26-19.69-31.28c-12.96-18.17-21.6-38.36-27.73-59.49
		c-11.14-38.37-24.72-75.94-36.82-113.99c-11.16-35.09-18.98-70.62-23.15-107.08c-0.86-7.55-1.58-15.12-2.51-24.13
		c-3.29,5.61-4.22,10.18-5.41,14.62c-12.92,48.56-18.07,98.24-19.81,148.24c-2.6,74.72,0.98,149.2,11.78,223.26
		c7.27,49.84,17.34,99.03,33.81,146.74c7.08,20.51,15.27,40.52,27.51,58.6c2.77,4.09,5.21,8.54,9.92,11.5
		c2.53-3.15,5.12-6.18,7.51-9.37c11.18-14.87,21.15-30.68,33.78-44.43c10.08-10.96,18.28-23.82,31.45-31.72c0,5.33,0,10.67,0,16
		c-12.49,12.49-23.69,25.98-33.17,40.93c-6.24,9.84-13.08,19.3-19.76,28.85c-2.26,3.22-4.52,5.74-3.43,10.6
		c1.28,5.71-2.99,9.2-9.15,8.55c-6.46-0.68-12.04-3.74-17.22-7.5c-9.91-7.2-17.05-16.79-23.07-27.27
		c-12.04-20.95-19.77-43.62-26.11-66.79c-11.02-40.26-17.54-81.35-22.15-122.78c-2.94-26.42-4.62-52.94-6.17-79.23
		c-1.61-0.74-2.39,0.05-2.79,0.88c-18.39,39.2-46.85,70.12-79.96,97.2c-41.54,33.96-87.75,60.24-136.26,82.74
		c-79.74,36.98-163.19,63.03-248.44,83.62c-77.75,18.78-156.4,32.66-235.76,42.62c-57.2,7.18-114.56,12.44-172.09,16.09
		c-82.54,5.23-165.15,6.87-247.81,4.84c-73.62-1.81-147.12-6.21-220.37-13.83c-114.07-11.87-226.98-30.52-338.03-59.56
		c-83.57-21.86-165.15-49.32-242.66-87.89c-46.98-23.38-91.47-50.67-130.83-85.72c-18.24-16.24-34.61-34.17-48.26-54.49
		c-0.88-1.3-1.93-2.49-3.05-3.92c-2.75,2.45-1.64,5.26-1.68,7.66c-1.06,63.75-6.13,127.11-17.71,189.87
		c-1.39,7.53-2.95,15.03-4.43,22.55c-1.04,5.3-3.55,10.23-0.22,16.03c2.01,3.5-1.62,7.67-6.29,8.15c-4.31,0.44-8.58-0.17-12.83-1.34
		c-15.56-4.27-29.84-11.44-43.61-19.57c-25.04-14.8-48.32-31.98-68.92-52.64c-8.96-8.98-17.58-18.23-24.2-29.16
		c-1.29-2.13-2.56-5.4-5.57-1.47C26.35,542.1,26.35,532.1,26.35,522.1z M2329.64,70.19c-2.59-0.61-4.2,1.44-6.15,2.44
		c-21.72,11.16-39.83,27.8-60.88,40.02c-12.38,7.18-24.45,14.9-36.69,22.33c-11.78,7.15-25.18,10.44-37.75,15.7
		c-38.98,16.3-77.56,33.59-117.2,48.31c-24.95,9.27-50.28,17.56-74.12,29.64c-5.94,3.01-12.53,4.4-19.1,5.64
		c-13.73,2.6-27.7,3.94-41.1,8.18c-19.72,6.23-40.04,10.19-60.31,13.72c-26.58,4.63-53.2,8.61-78.57,18.33
		c-4.3,1.65-9,2.53-13.6,3.08c-28.84,3.48-56.66,11.87-85.06,17.47c-22.51,4.44-44.61,10.89-67.38,14.12
		c-8.9,1.26-18.01,1.35-26.77,3.19c-21.88,4.59-44.1,6.69-66.18,9.71c-29.34,4-58.75,7.67-88.03,11.96
		c-28.42,4.16-56.93,6.12-85.47,7.71c-22.27,1.24-44.64,0.4-66.97,0.53c-10.99,0.07-21.95,0.16-32.91,1.55
		c-14.2,1.8-28.49,3.78-42.77,3.96c-46.64,0.58-93.28,0.49-139.92-1.07c-20.68-0.69-41.15-3.61-61.78-4.57
		c-19.98-0.93-39.89-2.4-59.28-7.89c-4.15-1.17-8.44-1.97-12.72-2.52c-30.7-3.94-61.3-8.93-92.35-9.45
		c-3.32-0.06-6.66-0.38-9.95-0.86c-28.97-4.21-57.45-11.09-86.57-14.82c-32.67-4.18-64.45-13.57-96.67-20.37
		c-44.97-9.49-89.49-20.62-133.64-33.27c-55.46-15.9-108.15-39.24-161.68-60.33c-22.04-8.68-42.33-20.96-64.37-29.51
		c-8.68-3.37-17.65-6.17-25.96-10.29c-19.1-9.48-38.71-17.79-58.26-26.22c-16.67-7.18-31.68-16.9-45.77-28.21
		c-2.22-1.78-3.86-4.7-7.43-4.43c-1.25,3.15,0.47,5.83,1.32,8.6c24.11,78.49,35.08,159.22,40.79,240.82
		c1.28,18.28,1.94,36.6,2.85,54.9c0.16,3.32-0.1,6.57,3.41,8.75c8.83,5.48,16.17,12.81,23.85,19.72c1.47,1.32,2.8,3.05,4.95,3.14
		c5.26,0.22,8.13,4.05,11.48,7.26c20.75,19.85,42.68,38.2,67.07,53.52c23.41,14.71,47.14,28.98,69.82,44.75
		c22.32,15.53,47.99,23,72.86,32.06c13.97,5.09,28.52,8.94,42.27,14.86c13.47,5.8,27.01,11.22,41.29,14.78
		c9.04,2.25,17.92,5.37,26.22,9.59c12.84,6.51,26.32,11.16,39.94,15.6c6.96,2.27,13.89,4.67,20.69,7.39
		c39.43,15.8,80.09,26.72,122.22,32.53c17.11,2.36,33.7,8.17,51.05,9.36c12.03,0.82,23.69,3.31,35.39,5.98
		c24.36,5.55,48.95,9.97,73.75,12.84c25.14,2.91,50.41,4.64,75.61,7.02c34.17,3.22,68.36,6.76,102.71,6.21
		c32.3-0.51,64.57-2.47,96.86-3.68c71.27-2.67,142.57-4.63,213.89-3.96c28.75,0.27,57.17-3.38,85.76-4.78
		c22.68-1.11,44.89-5.89,67.46-7.77c26.16-2.19,52.26-5.11,77.79-11.63c10.71-2.74,21.56-3.83,32.58-4.33
		c37.38-1.69,74.44-6.54,109.99-18.22c29.19-9.59,58.96-16.37,88.76-23.3c23.66-5.5,47.4-10.6,70.44-18.55
		c33.02-11.39,66.05-22.84,99.38-33.26c22.27-6.96,41.96-18.41,61.3-30.88c24.36-15.7,49.23-30.61,75.64-42.54
		c17.86-8.06,34.18-17.87,47.92-31.88c2.09-2.13,4.28-4.26,6.74-5.94c21.62-14.78,36.66-35.6,51.76-56.33
		c7.3-10.02,12.78-21.04,16.45-32.92c0.68-2.21,1.17-5.17,2.79-6.27c6.11-4.18,5.2-10.11,4.9-15.99
		c-0.31-5.99-0.82-11.97-1.06-17.96c-1.71-42.32-1.53-84.64,1.47-126.89c3.19-44.93,8.65-89.51,22.99-132.53
		C2330.05,72.76,2330.53,71.49,2329.64,70.19z M165.03,629.64c7.64-7.29,11.22-22.82,15.21-38.04c6.77-25.84,8.94-52.47,10.52-79.12
		c3.04-51.63,2.96-103.27-0.76-154.83c-3.57-49.52-9.2-98.85-18.01-147.74c-6.14-34.09-13.19-68-23.77-101.05
		c-1.36-4.26-1.91-9.02-6.3-13.6c-0.56,5.8-1.1,10.39-1.42,14.99c-1.16,16.94-2.15,33.9-3.38,50.84
		c-2.16,29.68-8.94,58.55-15.71,87.41c-13.39,57.03-29.45,113.38-43.77,170.17c-4.15,16.46-8.09,32.95-11.89,49.49
		c-5.73,24.92-11.23,50.11-24.79,72.41c-1.84,3.03-0.28,4.91,1.42,7.05c5.18,6.52,9.76,13.61,15.57,19.51
		c7.89,8,14.3,17.61,24.47,23.26C109.19,605.27,137.86,616.09,165.03,629.64z"/>
	<path class="st1" d="M2478.35,588.1c-13.17,7.9-21.37,20.76-31.45,31.72c-12.63,13.74-22.6,29.55-33.78,44.43
		c-2.39,3.18-4.98,6.22-7.51,9.37c-4.72-2.96-7.15-7.41-9.92-11.5c-12.24-18.08-20.43-38.09-27.51-58.6
		c-16.47-47.71-26.55-96.9-33.81-146.74c-10.8-74.06-14.38-148.54-11.78-223.26c1.74-49.99,6.89-99.67,19.81-148.24
		c1.18-4.45,2.12-9.01,5.41-14.62c0.93,9.01,1.65,16.58,2.51,24.13c4.17,36.46,11.99,71.99,23.15,107.08
		c12.1,38.05,25.68,75.62,36.82,113.99c6.13,21.13,14.78,41.32,27.73,59.49c7.14,10.02,13.37,20.7,19.69,31.28
		c5.68,9.51,12.31,18.16,20.65,25.48C2478.35,484.1,2478.35,536.1,2478.35,588.1z"/>
	<path class="st2" d="M2329.64,70.19c0.89,1.3,0.41,2.57-0.01,3.82c-14.34,43.02-19.8,87.61-22.99,132.53
		c-3,42.25-3.18,84.57-1.47,126.89c0.24,5.99,0.76,11.97,1.06,17.96c0.3,5.88,1.21,11.82-4.9,15.99c-1.61,1.1-2.1,4.06-2.79,6.27
		c-3.68,11.89-9.15,22.9-16.45,32.92c-15.1,20.73-30.15,41.55-51.76,56.33c-2.46,1.68-4.64,3.81-6.74,5.94
		c-13.74,14-30.06,23.82-47.92,31.88c-26.42,11.92-51.28,26.83-75.64,42.54c-19.34,12.46-39.03,23.92-61.3,30.88
		c-33.34,10.42-66.36,21.87-99.38,33.26c-23.04,7.95-46.78,13.05-70.44,18.55c-29.8,6.93-59.57,13.72-88.76,23.3
		c-35.55,11.68-72.62,16.52-109.99,18.22c-11.03,0.5-21.88,1.59-32.58,4.33c-25.53,6.52-51.63,9.45-77.79,11.63
		c-22.58,1.89-44.79,6.66-67.46,7.77c-28.59,1.4-57.01,5.05-85.76,4.78c-71.32-0.67-142.62,1.29-213.89,3.96
		c-32.29,1.21-64.56,3.17-96.86,3.68c-34.34,0.55-68.54-3-102.71-6.21c-25.2-2.37-50.47-4.11-75.61-7.02
		c-24.8-2.87-49.4-7.29-73.75-12.84c-11.7-2.67-23.36-5.16-35.39-5.98c-17.35-1.19-33.93-7-51.05-9.36
		c-42.13-5.81-82.79-16.73-122.22-32.53c-6.79-2.72-13.73-5.13-20.69-7.39c-13.62-4.43-27.11-9.09-39.94-15.6
		c-8.31-4.21-17.18-7.34-26.22-9.59c-14.28-3.56-27.82-8.98-41.29-14.78c-13.74-5.92-28.29-9.77-42.27-14.86
		c-24.87-9.05-50.54-16.53-72.86-32.06c-22.68-15.78-46.41-30.05-69.82-44.75c-24.39-15.32-46.32-33.67-67.07-53.52
		c-3.35-3.21-6.22-7.04-11.48-7.26c-2.15-0.09-3.48-1.82-4.95-3.14c-7.68-6.9-15.02-14.23-23.85-19.72
		c-3.51-2.18-3.24-5.43-3.41-8.75c-0.91-18.3-1.57-36.62-2.85-54.9c-5.71-81.6-16.68-162.33-40.79-240.82
		c-0.85-2.77-2.57-5.45-1.32-8.6c3.58-0.27,5.22,2.65,7.43,4.43c14.09,11.31,29.1,21.03,45.77,28.21
		c19.56,8.42,39.17,16.73,58.26,26.22c8.31,4.13,17.28,6.92,25.96,10.29c22.04,8.56,42.34,20.83,64.37,29.51
		c53.53,21.1,106.22,44.43,161.68,60.33c44.16,12.66,88.67,23.78,133.64,33.27c32.22,6.8,64,16.19,96.67,20.37
		c29.12,3.73,57.59,10.61,86.57,14.82c3.29,0.48,6.63,0.81,9.95,0.86c31.05,0.52,61.65,5.51,92.35,9.45
		c4.28,0.55,8.57,1.34,12.72,2.52c19.39,5.49,39.3,6.96,59.28,7.89c20.63,0.96,41.1,3.88,61.78,4.57
		c46.64,1.56,93.28,1.65,139.92,1.07c14.27-0.18,28.57-2.16,42.77-3.96c10.97-1.39,21.92-1.48,32.91-1.55
		c22.33-0.13,44.71,0.7,66.97-0.53c28.54-1.58,57.06-3.55,85.47-7.71c29.28-4.29,58.69-7.96,88.03-11.96
		c22.08-3.01,44.3-5.12,66.18-9.71c8.76-1.84,17.87-1.93,26.77-3.19c22.77-3.23,44.87-9.68,67.38-14.12
		c28.4-5.6,56.22-13.99,85.06-17.47c4.6-0.56,9.3-1.43,13.6-3.08c25.37-9.72,51.99-13.7,78.57-18.33
		c20.28-3.53,40.59-7.49,60.31-13.72c13.4-4.24,27.38-5.58,41.1-8.18c6.56-1.24,13.15-2.63,19.1-5.64
		c23.84-12.09,49.17-20.37,74.12-29.64c39.63-14.72,78.21-32.01,117.2-48.31c12.57-5.26,25.97-8.55,37.75-15.7
		c12.24-7.43,24.31-15.14,36.69-22.33c21.05-12.21,39.16-28.86,60.88-40.02C2325.44,71.62,2327.05,69.58,2329.64,70.19z
		 M1120.25,570.21c5.7,4.62,12.02,4.61,18.77,2.84c10.96-2.87,21.17-0.69,30.48,5.55c4.74,3.17,8.43,7.45,11.76,12.11
		c6.03,8.45,10.44,17.8,15.22,26.93c4.02,7.68,9.74,13.45,17.74,16.81c6.06,2.55,11.29,1.24,14.18-3.32
		c2.84-4.47,2.32-10.63-2.98-14.21c-8.81-5.95-12.94-14.91-17.81-23.59c-5.23-9.31-11.09-18.13-18.87-25.65
		c-7.36-7.11-16.73-10.49-25.94-14.62c7.16-17.26,10.51-34.87,9.22-53.04c-1.18-16.57-7.17-31.1-21.55-40.92
		c-5.72-3.9-12.16-5.71-18.98-4.36c-16.64,3.29-42.31,25.29-42.93,47.54c-0.2,7.34-0.56,14.7,0.57,21.95
		c4.38,28.26,8.98,56.49,13.52,84.73c0.86,5.35,2.7,10.32,6.25,14.5c3.85,4.53,8.98,6.09,13.3,3.79c4.75-2.53,5.94-6.91,5.17-11.93
		c-0.71-4.6-1.87-9.14-2.33-13.76c-1.05-10.57-5.17-20.68-4.64-31.47L1120.25,570.21z M398.53,454.49
		c-6.38-11.2-12.72-21.43-11.44-34.71c1.15-11.92,1.08-23.95,1.78-35.92c1.68-28.66-0.15-57.27-1.22-85.88
		c-0.13-3.39,0.67-9.74-4.79-9.11c-4.27,0.49-2.27,6.2-2.36,9.58c-0.93,36.29-0.94,72.65-5.42,108.73
		c-2.41,19.38,1.39,36.89,11.15,53.55c6.25,10.68,11.68,11.87,21.57,4.36c4.8-3.65,7.49-9.11,12.35-13.8
		c2.61,7.27,4.69,13.89,7.33,20.27c6.45,15.61,24.08,19.51,36.8,8.34c5.41-4.76,8.71-10.88,11.28-17.45
		c4.02-10.24,7.24-20.72,9.69-31.46c8.57-37.51,22.39-73.93,22.94-113.11c0.1-6.94-1.04-10.85-5.86-12.14
		c-5.2-1.38-9.63,1.73-11.18,8.6c-1.39,6.16-2.36,12.47-2.01,18.83c0.45,8.06-0.74,15.9-2.37,23.77
		c-4.26,20.55-10.97,40.48-15.13,61.07c-2.76,13.67-5.58,27.41-11.11,40.37c-1.71,4.02-3.39,8.04-6.76,10.94
		c-5.03,4.34-10.17,3.35-12.67-2.77c-2.89-7.07-5.93-14.23-6.52-21.94c-1.36-17.63-1.84-35.26,0.86-52.84
		c3.24-21.06,6.42-42.13,9.68-63.18c0.46-2.98,0.95-5.93,0.22-8.91c-0.85-3.45-2.52-6.4-6.45-6.6c-3.44-0.17-5.73,2.13-6.54,5.19
		c-2.19,8.34-5.68,16.4-5.54,25.25c0.1,6.35-0.62,12.59-1.8,18.85c-1.92,10.13-3.01,20.43-5.14,30.52
		c-3.16,14.97-6.63,29.89-10.58,44.67C407.64,443.81,405.03,450.05,398.53,454.49z M1906.33,463.54c0-4.07-0.13-8.4,0.02-12.72
		c1.44-41.43-26.74-68.73-59.98-78.64c-25.4-7.57-48.46,1.01-69.18,16.35c-1.57,1.16-2.99,2.74-3.99,4.41
		c-1.91,3.17-3.53,6.59-1.34,10.3c2.38,4.03,6.02,3.85,9.57,2.15c4.15-1.99,5.35,0.59,6.43,3.6c0.45,1.24,0.65,2.58,0.97,3.87
		c9.94,40,23.84,78.9,33.35,119.02c0.9,3.8,1.69,7.12-0.68,11.3c-3.38,5.96-0.93,11.7,5.21,13.74c5.92,1.97,12.15,3.51,18.16-0.61
		c2.42-1.66,5.28-2.81,8.08-3.78c22.91-7.9,36.92-25.13,47.94-45.52c2.08-3.85,2.95-8.04,3.69-12.35
		C1906.32,484.43,1905.54,474.08,1906.33,463.54z M2179.98,321.36c-0.15-7-0.58-11.62-0.95-16.26c-1.32-16.29-5.98-32.02-7.48-48.28
		c-0.42-4.58-1.8-9.09-3.68-13.42c-6.71-15.49-28.28-20.69-39.84-8.02c-2.91,3.19-5.64,6.8-9.17,9.13
		c-13.49,8.92-14.51,21.42-10.52,35.24c2.4,8.29,5.19,16.54,8.62,24.46c7.89,18.19,13.37,37.64,27.01,52.91
		c1.08,1.21,1.98,2.82,2.32,4.38c1.81,8.33,5.39,15.29,12.66,20.42c2.46,1.74,3.43,5.59,5.09,8.47c1.16,2.01,2.15,4.16,3.55,5.99
		c2.96,3.89,7,5.21,11.5,3.25c4.63-2.01,5.78-6.12,5.15-10.82c-0.18-1.3-0.49-2.66-1.1-3.8c-5.11-9.48-5.09-19.78-5.22-30.15
		C2177.78,342.86,2179.62,330.98,2179.98,321.36z M566.87,447c-1.55-11.94-2.62-23.87-5.44-35.5c-0.62-2.56,0.48-3.79,2.76-4.23
		c2.61-0.5,5.24-0.99,7.89-1.21c12.27-1.04,24.52-2.39,36.86-2.49c2.97-0.02,5.98-0.4,8.91-0.95c3.34-0.64,5.06-3.1,5.52-6.31
		c0.46-3.19-1.88-4.77-4.15-6.22c-2.63-1.68-5.67-1.8-8.67-1.9c-19.7-0.68-39.26,1.04-58.72,3.94c-8.29,1.24-10.96,5.46-9.64,14.15
		c0.75,4.93,1.73,9.83,2.43,14.77c4.74,33.45,4.77,67.01,2.01,100.61c-1.06,12.92,4.14,17.37,16.62,13.44
		c5.75-1.81,11.55-3.33,17.44-4.17c16.11-2.31,32.23-5.32,48.43,0.1c7.48,2.5,12.63,0,14.57-6.07c1.79-5.61-1.5-11.09-8.61-13.6
		c-5.66-1.99-11.52-3.08-17.59-3.25c-14.05-0.4-27.91,0.66-41.67,3.67c-7.32,1.6-7.94,0.87-8.08-6.74
		c-0.15-7.99-0.15-15.99-0.05-23.98c0.17-12.42-3.3-13.94,13.63-12.17c11.91,1.25,23.88,2.01,35.84,2.66
		c8.4,0.46,13.79-4.49,13.02-11.31c-0.91-8.07-9.92-16.17-18.22-16.14C597.04,444.16,582.2,445.62,566.87,447z M2088.31,390.58
		c0.86-17.02-1.17-31.94-8.13-45.5c-6.23-12.15-11.23-24.88-17.88-36.79c-3.4-6.1-6.87-12.19-10.71-18.01
		c-4.97-7.55-11.06-14.3-18.36-19.57c-7.11-5.13-15.39-6.72-23.63-2.89c-8.25,3.84-8.79,11.58-8.84,19.59
		c-0.04,5.77,1.39,10.39,6.14,13.92c1.84,1.37,3.58,3.1,4.79,5.03c10.8,17.32,20.33,35.44,24.2,55.55
		c3.96,20.53,13.48,37.29,28.43,51.43c4.05,3.83,8.28,7.17,14.13,5.2c6.37-2.15,9.37-7.31,9.79-13.77
		C2088.58,399.46,2088.31,394.11,2088.31,390.58z M1690.69,572.15c1.79,0.14,4.97-0.8,8.21-1.6c24.94-6.16,46.99-20.21,72.01-26.25
		c5.93-1.43,8.29-7.76,6.37-12.76c-1.98-5.18-7.02-7.35-13.2-5.59c-1.59,0.45-3.09,1.2-4.62,1.86c-4.58,1.98-9.15,3.99-13.72,5.99
		c-13.11,5.73-26.16,11.58-39.34,17.15c-6.72,2.84-7.26,2.55-8.71-4.24c-2.98-13.99-5.13-28.16-8.98-41.96
		c-1.16-4.16,0.39-6.03,4.61-6.85c8.54-1.65,16.41-5.38,24.32-8.86c1.52-0.67,3.17-1.17,4.51-2.1c3.46-2.4,6.3-5.31,4.18-9.98
		c-2-4.4-5.87-5.12-10.11-4.19c-2.58,0.57-5.09,1.54-7.57,2.48c-5.29,2.01-10.49,4.24-15.8,6.18c-8.96,3.27-8.92,3.19-11.43-5.63
		c-3.28-11.52-6.65-23.01-10.04-34.5c-2.17-7.37-2.2-7.31,4.92-9.72c17.01-5.75,34.01-11.52,50.99-17.36
		c3.77-1.3,7.56-2.65,11.12-4.42c4.24-2.1,6.65-5.59,5.55-10.57c-0.99-4.47-5.26-7.13-10.85-6.8c-4.05,0.24-8.17,1.16-11.15,3.83
		c-4.39,3.94-9.59,5.99-14.96,7.64c-16.39,5.04-31.42,14.55-49.34,14.75c-3.65,0.04-6.74,2.85-8.03,6.67
		c-1.26,3.73,0.3,6.68,3.48,8.44c3.48,1.92,3.9,5.34,4.62,8.44c3.31,14.26,7.27,28.47,9.1,42.93c1,7.89,2.84,15.18,4.79,22.79
		c4.03,15.73,5.66,32.08,8.19,48.18c0.25,1.59,0.02,3.29-0.15,4.92C1678.79,569.43,1680.96,572,1690.69,572.15z M1316,564.81
		c-3.31-1.73-3.86-4.53-5.15-6.76c-5.17-8.93-10.25-17.89-16.13-26.4c-18.18-26.34-41.84-47.29-66.15-67.59
		c-2.25-1.88-5.07-3.17-7.77-4.41c-2.78-1.28-5.2-0.39-6.95,2.13c-1.65,2.39-0.53,4.43,0.99,6.33c0.62,0.77,1.47,1.35,2.16,2.06
		c12.99,13.38,26.1,26.63,38.9,40.19c10.31,10.92,19.53,22.76,26.96,35.84c7.06,12.44,13.67,25.14,20.63,37.64
		c3.08,5.53,6.4,11.01,11.09,15.32c6.28,5.77,14.83,3.44,17.48-4.64c0.93-2.82,1.29-5.85,1.77-8.8c2.89-18.06,5.6-36.16,8.63-54.2
		c3.2-19.11,8.03-37.76,16.85-55.16c1.47-2.9,2.46-6.01,5.79-7.8c9.66-5.19,11.63-10.09,9.56-20.9c-1.03-5.38-3.39-9.44-8.91-10.83
		c-4.32-1.09-8.94,1.47-11.87,7.2c-11.37,22.21-23.36,44.18-27.99,69.14C1322.73,530.15,1319.4,547.1,1316,564.81z M1574.81,548.71
		c-3.33-2.54-5.22-3.77-6.88-5.27c-26.65-24.17-53.28-48.35-79.87-72.58c-4.93-4.49-9.88-8.97-15.59-12.45
		c-2.25-1.37-4.88-2.89-7.33-0.56c-2.68,2.54-1.73,5.23-0.01,8.09c3.15,5.25,7.81,9.06,11.97,13.35
		c26.42,27.29,53.17,54.25,81.27,79.84c11,10.02,23.39,18.55,29.72,33.08c2.79,6.4,9.49,7.42,14.4,4.34
		c4.88-3.05,6.06-8.27,2.61-14.88c-3.44-6.58-5.43-13.48-7.07-20.67c-5.73-25.24-3.74-50.33,1.09-75.34
		c2.97-15.35,6.72-30.54,9.86-45.86c1.22-5.98-1.32-10.38-6.14-12.09c-4.53-1.61-9.71,0.68-12.38,5.83
		c-1.05,2.01-1.74,4.37-1.94,6.63c-0.49,5.35-2.03,10.44-3.23,15.62c-3.98,17.19-6.97,34.54-9.27,52.05
		C1574.3,520.81,1575.09,533.74,1574.81,548.71z M918.03,520.85c0.68-10.52-0.78-12.88-9.25-15.65
		c-11.38-3.72-22.83-7.2-34.23-10.84c-12.04-3.83-23.99-7.96-36.11-11.48c-5.37-1.56-6.62-4.42-5.78-9.56
		c1.53-9.29,1.91-9.81,11.9-11.32c9.86-1.5,19.75-2.87,29.55-4.74c4.49-0.85,8.5-2.31,10.21,3.88c0.56,2.01,2.7,2.21,3.91,0.66
		c2.89-3.71,2.78-8.26,1.74-12.43c-1.07-4.28-5.23-3.65-8.39-3.29c-17.52,1.95-35.01,4.1-52.51,6.25c-3.69,0.45-6.04,2.44-6.6,6.34
		c-1.14,7.9-2.47,15.78-3.55,23.68c-0.69,5.06,1.93,8.23,6.53,9.89c5.63,2.03,11.28,3.99,16.93,5.95
		c17.6,6.09,35.23,12.11,52.8,18.29c6.86,2.42,6.93,2.61,5.56,10.11c-2.88,15.7-5.85,31.39-8.9,47.05
		c-1.24,6.38-1.57,6.56-7.82,5.17c-10.39-2.31-20.77-4.68-31.12-7.19c-9.74-2.36-9.64-2.46-10.66-12.44
		c-0.68-6.61-1.28-13.27-2.57-19.78c-1.06-5.38-6.05-8.1-11.42-7.11c-4.75,0.88-7.98,4.41-7.04,9.21
		c2.13,10.81,2.99,21.74,4.17,32.65c0.88,8.19,5.86,11.99,13.56,13.67c12.99,2.84,25.86,6.23,38.82,9.23
		c5.82,1.35,11.58,3.15,17.64,3.25c7.04,0.12,10.56-2.43,12.07-9.22c0.87-3.88,1.14-7.9,1.74-11.85
		C912.21,559.2,915.25,539.16,918.03,520.85z M959.1,526.48c0,7.65-0.2,15.32,0.04,22.96c0.56,17.47,6.25,33.27,16.35,47.45
		c5.92,8.31,13,15.4,23.68,16.9c16.02,2.25,38.36-8.78,45.32-23.69c9.97-21.37,15.67-43.86,12.11-67.79
		c-1.96-13.16-4.67-26.21-5.07-39.58c-0.1-3.26-0.98-6.61-2.12-9.68c-1.6-4.34-5.2-5.78-9.67-5.19c-4.21,0.56-6.53,3.26-7.21,7.16
		c-0.46,2.58-0.24,5.31-0.15,7.96c0.42,12.01,2.07,23.93,4.59,35.62c4.23,19.64,0.85,38.37-5.15,56.95
		c-3.19,9.89-9.96,16.18-19.86,19.44c-10.73,3.54-16.14,2.38-22.36-6.97c-6.09-9.15-11.55-18.8-13.01-29.98
		c-2.16-16.49-4.91-32.93-4.35-49.67c0.22-6.65,0.13-13.32-0.03-19.98c-0.07-2.97-0.39-6-1.11-8.88c-0.68-2.68-2.47-5.05-5.58-4.78
		c-2.6,0.23-3.72,2.58-4.29,4.94c-0.31,1.28-0.45,2.63-0.51,3.95C960.06,497.92,957.73,512.12,959.1,526.48z M1988.18,423.75
		c0.05-3.62-1.36-6.28-2.98-8.8c-5.41-8.43-9.36-17.59-13.5-26.66c-6.77-14.81-13.78-29.52-20.43-44.38
		c-5.71-12.76-14.8-22.8-25.06-31.88c-6.82-6.03-14.62-4.45-19.21,3.51c-1.51,2.62-2.39,5.43-2.64,8.49
		c-0.64,7.87,0.74,15.28,4.93,22c15.99,25.67,31.96,51.34,48.13,76.89c3.54,5.6,7.8,10.76,11.89,15.99
		c2.86,3.65,6.65,5.8,11.35,4.24c4.64-1.54,7-5.4,6.66-10.05C1987.08,429.68,1987.79,426.54,1988.18,423.75z M1399.12,422.79
		c17.38-0.85,31.97-5.78,45.08-15.01c4.96-3.49,9.17-7.71,12.11-13.04c5.06-9.15,1.63-17.36-8.49-20.01
		c-3.18-0.83-6.57-1.03-9.87-1.22c-15.95-0.93-31.98-1.28-47.56,2.6c-13.48,3.35-19.72,14.37-18.01,29.23
		c1.2,10.38,8.53,16.06,22.15,17.15C1396.52,422.64,1398.51,422.75,1399.12,422.79z M1452.01,577.19
		c0.21-18.68-5.01-34.88-10.37-50.97c-7.6-22.76-14.82-45.57-17.92-69.47c-0.38-2.95-1.17-5.89-2.15-8.7
		c-0.68-1.95-2.4-3.3-4.61-3.17c-2.14,0.12-3.73,1.42-4.46,3.46c-1.5,4.19-1.07,8.54-0.92,12.86c0.65,18.75,4.38,36.97,9.45,54.96
		c3.7,13.13,7.88,26.13,10.29,39.59c1.53,8.54,3.04,17.05-0.85,25.46c-0.96,2.08-1.07,4.49-0.67,6.88c1,5.9,5.16,10,10.54,10.24
		c5.67,0.26,9.55-2.97,10.7-9.6C1451.78,584.5,1451.78,580.13,1452.01,577.19z M2090.21,490.34c7.82-0.74,15.78-4.1,20.81-12.55
		c5.29-8.89,1.75-18.11-8.13-21.32c-8.26-2.68-16.2-2.06-24.08,1.79c-11.13,5.44-13.51,14.08-6.45,24.23
		C2076.34,488.23,2081.97,490.3,2090.21,490.34z M1996.99,520.06c1.66,0,3.35,0.18,4.98-0.03c8.57-1.1,15.48-8.68,16.24-17.7
		c0.67-7.9-3.81-13.87-12.42-17.05c-3.54-1.31-7.2-1.22-10.81-1.62c-10.3-1.15-18,5.37-18.77,15.67
		C1975.24,512.46,1982.42,519.65,1996.99,520.06z M2163.54,418.31c-8.94-0.58-13.2,2.75-15.6,10.32
		c-2.26,7.11,0.75,13.09,3.44,19.05c3.33,7.36,10.8,10.02,18.29,7.12c7.68-2.97,14.71-12.61,14.47-19.85
		c-0.24-7.41-5.62-12.74-15.77-15.55C2166.47,418.88,2164.52,418.53,2163.54,418.31z"/>
	<path class="st3" d="M165.03,629.64c-27.17-13.55-55.84-24.38-82.62-39.25c-10.18-5.65-16.59-15.26-24.47-23.26
		c-5.81-5.89-10.39-12.99-15.57-19.51c-1.7-2.14-3.26-4.02-1.42-7.05c13.57-22.3,19.07-47.49,24.79-72.41
		c3.8-16.54,7.74-33.03,11.89-49.49c14.32-56.79,30.38-113.14,43.77-170.17c6.78-28.86,13.55-57.72,15.71-87.41
		c1.24-16.94,2.22-33.9,3.38-50.84c0.32-4.6,0.86-9.19,1.42-14.99c4.39,4.58,4.94,9.33,6.3,13.6
		c10.58,33.05,17.63,66.96,23.77,101.05c8.81,48.9,14.43,98.22,18.01,147.74c3.72,51.56,3.81,103.2,0.76,154.83
		c-1.57,26.64-3.75,53.27-10.52,79.12C176.25,606.82,172.68,622.35,165.03,629.64z"/>
	<path class="st4" d="M398.53,454.49c6.5-4.44,9.11-10.68,10.78-16.92c3.95-14.78,7.42-29.7,10.58-44.67
		c2.13-10.08,3.21-20.39,5.14-30.52c1.19-6.26,1.9-12.5,1.8-18.85c-0.14-8.85,3.35-16.92,5.54-25.25c0.81-3.06,3.1-5.37,6.54-5.19
		c3.94,0.2,5.61,3.15,6.45,6.6c0.73,2.98,0.24,5.94-0.22,8.91c-3.26,21.06-6.44,42.13-9.68,63.18c-2.7,17.58-2.22,35.21-0.86,52.84
		c0.59,7.71,3.63,14.87,6.52,21.94c2.5,6.12,7.64,7.11,12.67,2.77c3.37-2.9,5.04-6.92,6.76-10.94c5.53-12.96,8.35-26.7,11.11-40.37
		c4.16-20.59,10.87-40.52,15.13-61.07c1.63-7.87,2.83-15.7,2.37-23.77c-0.36-6.36,0.61-12.67,2.01-18.83
		c1.55-6.88,5.98-9.98,11.18-8.6c4.82,1.28,5.96,5.19,5.86,12.14c-0.55,39.17-14.37,75.6-22.94,113.11
		c-2.45,10.74-5.68,21.22-9.69,31.46c-2.58,6.57-5.87,12.69-11.28,17.45c-12.72,11.17-30.35,7.27-36.8-8.34
		c-2.64-6.38-4.72-13-7.33-20.27c-4.86,4.69-7.56,10.15-12.35,13.8c-9.88,7.52-15.31,6.32-21.57-4.36
		c-9.76-16.67-13.56-34.18-11.15-53.55c4.48-36.08,4.49-72.44,5.42-108.73c0.09-3.38-1.91-9.09,2.36-9.58
		c5.46-0.63,4.66,5.72,4.79,9.11c1.08,28.61,2.9,57.22,1.22,85.88c-0.7,11.97-0.62,24-1.78,35.92
		C385.81,433.05,392.15,443.28,398.53,454.49z"/>
	<path class="st5" d="M1120.39,570.1c-0.53,10.79,3.59,20.9,4.64,31.47c0.46,4.62,1.62,9.16,2.33,13.76
		c0.77,5.01-0.42,9.39-5.17,11.93c-4.32,2.3-9.45,0.74-13.3-3.79c-3.55-4.18-5.39-9.15-6.25-14.5
		c-4.54-28.24-9.14-56.46-13.52-84.73c-1.12-7.25-0.77-14.61-0.57-21.95c0.62-22.25,26.29-44.25,42.93-47.54
		c6.83-1.35,13.27,0.46,18.98,4.36c14.38,9.82,20.37,24.35,21.55,40.92c1.29,18.16-2.06,35.78-9.22,53.04
		c9.2,4.13,18.58,7.51,25.94,14.62c7.78,7.52,13.64,16.34,18.87,25.65c4.87,8.67,9,17.63,17.81,23.59c5.3,3.58,5.82,9.74,2.98,14.21
		c-2.89,4.55-8.12,5.87-14.18,3.32c-8-3.36-13.72-9.14-17.74-16.81c-4.78-9.14-9.19-18.48-15.22-26.93
		c-3.33-4.67-7.02-8.94-11.76-12.11c-9.31-6.24-19.52-8.42-30.48-5.55c-6.76,1.77-13.07,1.79-18.77-2.84
		c-1.08-7.73,2.37-12.7,9.33-15.71c2.12-0.92,4.01-2.36,6.01-3.54c8.17-4.85,13.42-11.71,14.92-21.27
		c1.03-6.56,2.59-13.05,3.35-19.63c1.3-11.21-0.39-21.97-6.85-31.49c-5.76-8.5-11.6-9.82-20.31-4.66c-3.4,2.02-6.65,4.47-9.52,7.19
		c-10.19,9.67-14.26,21.13-10.47,35.2c3.54,13.14,6.31,26.49,9.63,39.7C1117.54,560.73,1117.51,565.84,1120.39,570.1z"/>
	<path class="st6" d="M1906.33,463.54c-0.79,10.54-0.01,20.88-1.75,31.13c-0.74,4.31-1.61,8.5-3.69,12.35
		c-11.02,20.39-25.03,37.62-47.94,45.52c-2.8,0.97-5.66,2.12-8.08,3.78c-6.01,4.13-12.25,2.58-18.16,0.61
		c-6.13-2.04-8.59-7.79-5.21-13.74c2.37-4.18,1.58-7.51,0.68-11.3c-9.52-40.12-23.41-79.02-33.35-119.02
		c-0.32-1.29-0.53-2.62-0.97-3.87c-1.08-3-2.28-5.58-6.43-3.6c-3.55,1.7-7.2,1.87-9.57-2.15c-2.19-3.71-0.57-7.13,1.34-10.3
		c1.01-1.67,2.42-3.25,3.99-4.41c20.72-15.34,43.78-23.92,69.18-16.35c33.24,9.9,61.42,37.21,59.98,78.64
		C1906.2,455.14,1906.33,459.48,1906.33,463.54z M1796.02,393.17c3.99,7.95,7.77,15.36,10.12,23.31
		c10.35,35.11,23.93,69.18,33.62,104.5c0.79,2.88,1.87,5.69,2.79,8.54c0.97,2.98,2.5,4.53,5.89,2.98
		c19.24-8.81,33.27-22.73,37.23-43.75c2.5-13.26,1.69-27.19,1.88-40.83c0.07-5.27-0.83-10.63-1.93-15.81
		c-3.51-16.45-14.99-26.7-27.82-36.3C1837.8,380.86,1817.6,383.82,1796.02,393.17z"/>
	<path class="st7" d="M2179.98,321.36c-0.36,9.62-2.2,21.49-2.06,33.5c0.12,10.37,0.11,20.67,5.22,30.15
		c0.61,1.14,0.93,2.51,1.1,3.8c0.64,4.7-0.51,8.81-5.15,10.82c-4.5,1.96-8.54,0.64-11.5-3.25c-1.4-1.83-2.39-3.98-3.55-5.99
		c-1.66-2.88-2.62-6.74-5.09-8.47c-7.27-5.13-10.85-12.09-12.66-20.42c-0.34-1.56-1.25-3.18-2.32-4.38
		c-13.64-15.27-19.13-34.73-27.01-52.91c-3.43-7.91-6.22-16.16-8.62-24.46c-3.99-13.82-2.97-26.32,10.52-35.24
		c3.53-2.33,6.26-5.94,9.17-9.13c11.56-12.66,33.13-7.47,39.84,8.02c1.87,4.33,3.26,8.85,3.68,13.42
		c1.49,16.25,6.16,31.99,7.48,48.28C2179.4,309.74,2179.84,314.36,2179.98,321.36z"/>
	<path class="st6" d="M566.87,447c15.33-1.38,30.17-2.84,45.09-2.89c8.29-0.03,17.3,8.07,18.22,16.14
		c0.77,6.82-4.62,11.76-13.02,11.31c-11.96-0.65-23.93-1.42-35.84-2.66c-16.93-1.77-13.46-0.25-13.63,12.17
		c-0.11,7.99-0.1,15.99,0.05,23.98c0.14,7.61,0.76,8.34,8.08,6.74c13.76-3.01,27.62-4.07,41.67-3.67
		c6.07,0.17,11.94,1.26,17.59,3.25c7.1,2.5,10.39,7.99,8.61,13.6c-1.93,6.07-7.09,8.58-14.57,6.07c-16.19-5.42-32.32-2.41-48.43-0.1
		c-5.89,0.84-11.69,2.37-17.44,4.17c-12.48,3.93-17.68-0.52-16.62-13.44c2.76-33.6,2.73-67.16-2.01-100.61
		c-0.7-4.94-1.68-9.84-2.43-14.77c-1.32-8.69,1.35-12.91,9.64-14.15c19.45-2.9,39.01-4.62,58.72-3.94c3,0.1,6.04,0.22,8.67,1.9
		c2.27,1.45,4.61,3.03,4.15,6.22c-0.46,3.22-2.18,5.68-5.52,6.31c-2.93,0.56-5.93,0.93-8.91,0.95c-12.34,0.1-24.59,1.45-36.86,2.49
		c-2.65,0.22-5.28,0.71-7.89,1.21c-2.28,0.44-3.38,1.67-2.76,4.23C564.25,423.13,565.32,435.06,566.87,447z"/>
	<path class="st8" d="M2088.31,390.58c0,3.53,0.27,8.88-0.07,14.18c-0.42,6.46-3.42,11.62-9.79,13.77
		c-5.84,1.97-10.08-1.37-14.13-5.2c-14.96-14.14-24.48-30.9-28.43-51.43c-3.87-20.11-13.4-38.23-24.2-55.55
		c-1.2-1.93-2.95-3.66-4.79-5.03c-4.75-3.53-6.18-8.15-6.14-13.92c0.05-8.01,0.59-15.75,8.84-19.59c8.24-3.83,16.52-2.24,23.63,2.89
		c7.31,5.27,13.39,12.02,18.36,19.57c3.84,5.83,7.3,11.91,10.71,18.01c6.65,11.92,11.65,24.65,17.88,36.79
		C2087.14,358.64,2089.17,373.56,2088.31,390.58z"/>
	<path class="st4" d="M1690.69,572.15c-9.74-0.14-11.91-2.72-11.01-11.11c0.17-1.63,0.4-3.33,0.15-4.92
		c-2.53-16.11-4.15-32.46-8.19-48.18c-1.95-7.61-3.79-14.9-4.79-22.79c-1.83-14.47-5.8-28.67-9.1-42.93
		c-0.72-3.1-1.14-6.52-4.62-8.44c-3.18-1.75-4.74-4.71-3.48-8.44c1.29-3.82,4.37-6.63,8.03-6.67c17.92-0.2,32.95-9.71,49.34-14.75
		c5.38-1.65,10.57-3.7,14.96-7.64c2.98-2.67,7.11-3.59,11.15-3.83c5.59-0.33,9.85,2.33,10.85,6.8c1.11,4.99-1.31,8.47-5.55,10.57
		c-3.56,1.77-7.35,3.12-11.12,4.42c-16.98,5.84-33.98,11.61-50.99,17.36c-7.12,2.41-7.09,2.35-4.92,9.72
		c3.39,11.49,6.76,22.98,10.04,34.5c2.51,8.82,2.46,8.9,11.43,5.63c5.31-1.94,10.52-4.17,15.8-6.18c2.48-0.95,4.99-1.92,7.57-2.48
		c4.24-0.93,8.11-0.22,10.11,4.19c2.12,4.67-0.72,7.58-4.18,9.98c-1.34,0.93-2.99,1.43-4.51,2.1c-7.92,3.48-15.78,7.21-24.32,8.86
		c-4.23,0.82-5.77,2.68-4.61,6.85c3.85,13.8,6,27.97,8.98,41.96c1.45,6.79,1.99,7.08,8.71,4.24c13.18-5.57,26.23-11.42,39.34-17.15
		c4.57-2,9.14-4.01,13.72-5.99c1.52-0.66,3.03-1.41,4.62-1.86c6.18-1.76,11.22,0.41,13.2,5.59c1.91,5.01-0.45,11.33-6.37,12.76
		c-25.02,6.04-47.07,20.09-72.01,26.25C1695.66,571.35,1692.48,572.28,1690.69,572.15z"/>
	<path class="st9" d="M1316,564.81c3.39-17.71,6.73-34.66,9.88-51.65c4.62-24.96,16.62-46.93,27.99-69.14
		c2.93-5.73,7.55-8.29,11.87-7.2c5.51,1.39,7.88,5.45,8.91,10.83c2.07,10.82,0.1,15.72-9.56,20.9c-3.33,1.79-4.32,4.9-5.79,7.8
		c-8.82,17.4-13.65,36.05-16.85,55.16c-3.02,18.04-5.74,36.13-8.63,54.2c-0.47,2.96-0.84,5.98-1.77,8.8
		c-2.65,8.08-11.2,10.42-17.48,4.64c-4.69-4.31-8.01-9.79-11.09-15.32c-6.96-12.5-13.57-25.2-20.63-37.64
		c-7.43-13.09-16.65-24.92-26.96-35.84c-12.8-13.55-25.91-26.81-38.9-40.19c-0.69-0.71-1.54-1.29-2.16-2.06
		c-1.52-1.9-2.64-3.94-0.99-6.33c1.74-2.52,4.17-3.41,6.95-2.13c2.7,1.24,5.51,2.53,7.77,4.41c24.31,20.3,47.97,41.26,66.15,67.59
		c5.87,8.51,10.96,17.47,16.13,26.4C1312.14,560.27,1312.69,563.08,1316,564.81z"/>
	<path class="st10" d="M1574.81,548.71c0.28-14.97-0.51-27.91,1.19-40.86c2.3-17.51,5.3-34.86,9.27-52.05
		c1.2-5.18,2.75-10.27,3.23-15.62c0.21-2.26,0.9-4.61,1.94-6.63c2.68-5.16,7.85-7.44,12.38-5.83c4.81,1.71,7.36,6.11,6.14,12.09
		c-3.14,15.32-6.89,30.51-9.86,45.86c-4.83,25.01-6.83,50.1-1.09,75.34c1.63,7.19,3.63,14.1,7.07,20.67
		c3.45,6.6,2.27,11.83-2.61,14.88c-4.92,3.08-11.62,2.06-14.4-4.34c-6.33-14.53-18.72-23.07-29.72-33.08
		c-28.1-25.59-54.85-52.54-81.27-79.84c-4.15-4.29-8.82-8.1-11.97-13.35c-1.72-2.86-2.67-5.55,0.01-8.09
		c2.46-2.33,5.09-0.81,7.33,0.56c5.71,3.49,10.65,7.96,15.59,12.45c26.59,24.22,53.22,48.41,79.87,72.58
		C1569.59,544.94,1571.48,546.18,1574.81,548.71z"/>
	<path class="st11" d="M918.03,520.85c-2.77,18.31-5.82,38.35-8.85,58.4c-0.6,3.95-0.87,7.96-1.74,11.85
		c-1.51,6.79-5.03,9.34-12.07,9.22c-6.06-0.1-11.82-1.91-17.64-3.25c-12.96-3-25.83-6.39-38.82-9.23
		c-7.7-1.68-12.68-5.48-13.56-13.67c-1.18-10.91-2.04-21.84-4.17-32.65c-0.95-4.8,2.28-8.34,7.04-9.21
		c5.36-0.99,10.36,1.74,11.42,7.11c1.29,6.51,1.89,13.16,2.57,19.78c1.03,9.98,0.93,10.08,10.66,12.44
		c10.34,2.51,20.73,4.87,31.12,7.19c6.25,1.39,6.58,1.21,7.82-5.17c3.05-15.67,6.02-31.35,8.9-47.05c1.38-7.51,1.31-7.7-5.56-10.11
		c-17.57-6.18-35.2-12.2-52.8-18.29c-5.65-1.96-11.3-3.92-16.93-5.95c-4.61-1.66-7.22-4.83-6.53-9.89
		c1.07-7.91,2.41-15.78,3.55-23.68c0.56-3.9,2.91-5.89,6.6-6.34c17.5-2.14,34.99-4.3,52.51-6.25c3.16-0.35,7.32-0.98,8.39,3.29
		c1.04,4.17,1.15,8.72-1.74,12.43c-1.21,1.55-3.35,1.35-3.91-0.66c-1.71-6.2-5.72-4.74-10.21-3.88c-9.79,1.86-19.68,3.24-29.55,4.74
		c-9.98,1.51-10.36,2.03-11.9,11.32c-0.85,5.14,0.41,8,5.78,9.56c12.12,3.53,24.07,7.65,36.11,11.48
		c11.4,3.63,22.86,7.12,34.23,10.84C917.25,507.97,918.71,510.33,918.03,520.85z"/>
	<path class="st12" d="M959.1,526.48c-1.37-14.36,0.96-28.56,1.63-42.86c0.06-1.32,0.2-2.67,0.51-3.95
		c0.57-2.36,1.69-4.71,4.29-4.94c3.11-0.27,4.9,2.1,5.58,4.78c0.73,2.87,1.04,5.9,1.11,8.88c0.16,6.66,0.25,13.33,0.03,19.98
		c-0.56,16.74,2.19,33.18,4.35,49.67c1.46,11.18,6.93,20.83,13.01,29.98c6.22,9.35,11.63,10.5,22.36,6.97
		c9.91-3.26,16.67-9.55,19.86-19.44c6-18.57,9.38-37.31,5.15-56.95c-2.52-11.69-4.17-23.61-4.59-35.62
		c-0.09-2.66-0.31-5.38,0.15-7.96c0.69-3.9,3-6.6,7.21-7.16c4.47-0.6,8.07,0.85,9.67,5.19c1.14,3.08,2.02,6.43,2.12,9.68
		c0.4,13.38,3.11,26.42,5.07,39.58c3.56,23.93-2.14,46.43-12.11,67.79c-6.96,14.91-29.3,25.94-45.32,23.69
		c-10.68-1.5-17.77-8.6-23.68-16.9c-10.1-14.18-15.79-29.98-16.35-47.45C958.89,541.8,959.1,534.13,959.1,526.48z"/>
	<path class="st11" d="M1988.18,423.75c-0.39,2.79-1.11,5.93-0.86,9.35c0.34,4.65-2.02,8.51-6.66,10.05
		c-4.7,1.56-8.49-0.58-11.35-4.24c-4.09-5.23-8.35-10.39-11.89-15.99c-16.17-25.55-32.15-51.22-48.13-76.89
		c-4.19-6.72-5.57-14.13-4.93-22c0.25-3.07,1.13-5.88,2.64-8.49c4.59-7.96,12.38-9.55,19.21-3.51
		c10.26,9.08,19.35,19.12,25.06,31.88c6.65,14.86,13.66,29.57,20.43,44.38c4.14,9.07,8.09,18.23,13.5,26.66
		C1986.82,417.47,1988.24,420.13,1988.18,423.75z"/>
	<path class="st13" d="M1399.12,422.79c-0.61-0.04-2.6-0.15-4.59-0.3c-13.62-1.09-20.96-6.77-22.15-17.15
		c-1.71-14.87,4.53-25.88,18.01-29.23c15.58-3.87,31.61-3.52,47.56-2.6c3.31,0.19,6.69,0.39,9.87,1.22
		c10.12,2.65,13.55,10.86,8.49,20.01c-2.95,5.33-7.16,9.55-12.11,13.04C1431.09,417.01,1416.5,421.94,1399.12,422.79z
		 M1439.27,390.88c-1.94-1.99-4.28-2.51-6.55-2.32c-6.28,0.53-13.24-2.86-18.68,2.69c-5.98,6.11-11.09-5.6-16.98-0.63
		c-0.95,0.8-2.47,0.89-3.66,1.46c-2.67,1.26-4.3,3.59-3.76,6.35c0.54,2.77,3.58,2.79,5.73,2.69c8.91-0.42,17.84-0.81,26.68-1.87
		C1428.56,398.46,1435.03,396.83,1439.27,390.88z"/>
	<path class="st13" d="M1452.01,577.19c-0.23,2.94-0.23,7.31-0.97,11.55c-1.15,6.63-5.03,9.86-10.7,9.6
		c-5.38-0.24-9.54-4.34-10.54-10.24c-0.4-2.38-0.29-4.8,0.67-6.88c3.88-8.41,2.38-16.92,0.85-25.46
		c-2.41-13.46-6.59-26.47-10.29-39.59c-5.07-17.99-8.81-36.21-9.45-54.96c-0.15-4.32-0.58-8.68,0.92-12.86
		c0.73-2.05,2.32-3.34,4.46-3.46c2.2-0.13,3.93,1.22,4.61,3.17c0.98,2.81,1.77,5.75,2.15,8.7c3.1,23.91,10.32,46.72,17.92,69.47
		C1447,542.31,1452.22,558.51,1452.01,577.19z"/>
	<path class="st12" d="M2090.21,490.34c-8.24-0.05-13.86-2.11-17.85-7.84c-7.06-10.15-4.68-18.79,6.45-24.23
		c7.87-3.85,15.82-4.47,24.08-1.79c9.88,3.21,13.42,12.42,8.13,21.32C2105.98,486.25,2098.03,489.61,2090.21,490.34z"/>
	<path class="st11" d="M1996.99,520.06c-14.57-0.41-21.75-7.6-20.78-20.73c0.77-10.3,8.47-16.81,18.77-15.67
		c3.61,0.4,7.27,0.31,10.81,1.62c8.62,3.18,13.09,9.15,12.42,17.05c-0.76,9.01-7.67,16.59-16.24,17.7
		C2000.34,520.24,1998.66,520.06,1996.99,520.06z"/>
	<path class="st5" d="M2163.54,418.31c0.98,0.22,2.93,0.57,4.84,1.09c10.15,2.81,15.53,8.14,15.77,15.55
		c0.24,7.25-6.79,16.89-14.47,19.85c-7.49,2.89-14.96,0.23-18.29-7.12c-2.7-5.96-5.71-11.94-3.44-19.05
		C2150.34,421.06,2154.6,417.73,2163.54,418.31z"/>
	<path class="st3" d="M1120.39,570.1c-2.88-4.26-2.85-9.37-4.04-14.1c-3.32-13.21-6.09-26.56-9.63-39.7
		c-3.79-14.07,0.28-25.53,10.47-35.2c2.87-2.72,6.11-5.18,9.52-7.19c8.7-5.16,14.54-3.84,20.31,4.66
		c6.46,9.52,8.15,20.28,6.85,31.49c-0.76,6.59-2.32,13.07-3.35,19.63c-1.5,9.56-6.75,16.42-14.92,21.27c-2,1.19-3.89,2.63-6.01,3.54
		c-6.96,3.01-10.41,7.99-9.33,15.71C1120.25,570.21,1120.39,570.1,1120.39,570.1z"/>
	<path class="st3" d="M1796.02,393.17c21.58-9.36,41.78-12.32,61.78,2.64c12.83,9.6,24.3,19.85,27.82,36.3
		c1.11,5.18,2,10.54,1.93,15.81c-0.19,13.64,0.62,27.57-1.88,40.83c-3.96,21.01-17.99,34.94-37.23,43.75
		c-3.39,1.55-4.92,0-5.89-2.98c-0.92-2.85-2-5.65-2.79-8.54c-9.69-35.32-23.27-69.39-33.62-104.5
		C1803.79,408.53,1800.01,401.12,1796.02,393.17z"/>
	<path class="st3" d="M1439.27,390.88c-4.24,5.94-10.71,7.58-17.21,8.36c-8.84,1.06-17.78,1.45-26.68,1.87
		c-2.16,0.1-5.2,0.08-5.73-2.69c-0.54-2.76,1.1-5.09,3.76-6.35c1.19-0.56,2.71-0.65,3.66-1.46c5.89-4.98,11,6.73,16.98,0.63
		c5.43-5.55,12.4-2.16,18.68-2.69C1434.99,388.37,1437.33,388.9,1439.27,390.88z"/>
</g>
</svg>
