<?xml version="1.0" encoding="utf-8"?>
<!-- Generator: Adobe Illustrator 26.0.3, SVG Export Plug-In . SVG Version: 6.00 Build 0)  -->
<svg version="1.1" id="Layer_1" xmlns="http://www.w3.org/2000/svg" xmlns:xlink="http://www.w3.org/1999/xlink" x="0px" y="0px"
	 viewBox="0 0 2140.24 1084.24" style="enable-background:new 0 0 2140.24 1084.24;" xml:space="preserve">
<style type="text/css">
	.st0{fill:#34337C;}
	.st1{fill:#36357C;}
	.st2{fill:#45296B;}
	.st3{fill:#8980A8;}
	.st4{fill:#7E87B3;}
</style>
<g>
	<path class="st0" d="M1315.23,924.45c-1.63-0.15-3.26-0.3-4.9-0.44c-1.63-0.89-3.25-1.88-5.18-0.76c-1.01-0.18-2.01-0.35-3.02-0.53
		c-0.21-3.55-4.65-1.77-5.67-4.66c-1.66-4.66-4.22-7.66-9.95-8.9c-3.75-0.81-7.37-2.89-11.56-2.71c-3.31,0.14-6.64,0.02-9.96,0
		c-1.21-0.01-2.43-0.16-2.63-1.66c-0.17-1.29-0.53-2.79,0.61-3.76c0.98-0.83,2.12-0.49,3.17,0.3c2.05,1.55,4.17,1.82,6.21-0.08
		c9.46,2.65,19.24,3.15,28.93,4.2c12.5,1.35,25.08,1.82,37.54,3.73c3.59,0.55,6.96,2.73,11.31,1.97c-2.39-3.08-5.53-3.74-8.44-4.72
		c-15.39-5.23-31.49-5.77-47.46-7.16c3.66-1.7,7.53-0.46,11.29-0.77c2.32-0.19,5.52,0.89,6.84-0.28c7.12-6.33,15.52-2.9,23.32-3.66
		c2.18-0.21,4.66-0.83,6.67,1.02c1.09,1,2.56,1.36,3.46-0.01c0.94-1.44,0.14-2.83-1.03-3.98c-1.21-1.19-2.72-1.13-4.21-1.1
		c-1.63,0.03-2.5-0.94-2.89-2.27c-0.6-2.11,1.88-1.38,2.45-2.45c5.61,1.7,10.66,4.63,15.71,7.49c2.14,1.21,4.18,1.76,6.62,1.48
		c5.49-0.62,10.63,0.7,15.27,3.61c9.13,5.71,19.46,8.59,29.5,11.91c9.1,3.01,17.12,8.07,25.75,11.92
		c23.88,10.67,47.95,20.6,73.53,26.47c4.86,1.12,10.15,1.49,14.45,3.74c15.74,8.21,32.48,8.15,49.42,7.18
		c5.68-0.33,11.27-0.18,16.91,0.77c13.81,2.34,27.88,2.26,41.79,3.14c7.77,0.49,15.9-0.97,23.79,0.24
		c7.48,1.15,14.97,1.81,22.38,0.65c12.04-1.88,24.2-1.25,36.28-2.47c11.71-1.18,23.57,2.23,35.29,1.75
		c21.53-0.89,42.82,2.25,64.29,2.39c22.28,0.14,44.61,0.7,66.88,0.95c16.25,0.19,31.6,3.97,47.35,6.21
		c3.99,0.57,7.93,1.33,10.44,5.03c0.62,0.91,1.52,1.13,2.57,1.25c19.83,2.29,39.64,4.8,59.5,6.86c11.91,1.23,23.73,3.28,35.72,3.92
		c6.17,0.33,12.25,0.78,18.4-0.36c5.14-0.96,10.3,0.32,15.41,0.84c18.7,1.92,37.43,3.72,55.84,7.77c0,19-0.11,38,0.1,57
		c0.04,3.43-0.68,4.1-4.1,4.1c-100.33-0.12-200.67-0.1-301-0.1c-0.01-2.15-0.25-4.11-1.27-6.2c-1.02-2.09-2.46-5.84,1.26-6.54
		c4.32-0.81,5.76-4.54,8.75-6.59c1.83-1.26,1.96-3.99,0.94-5.51c-2.56-3.82-4.47-8.74-10.62-8.24c-2.61,0.21-4.46-1.74-6.28-3.93
		c1.79,0,3.58,0,5.37,0c36.96,0,73.92,0,110.88,0.03c2.75,0,5.31,0.26,8.09,1.44c2.86,1.21,6.77,1.7,9.93-0.64
		c2.29,0.11,4.58,0.22,6.88,0.32c3.26,1.33,6.73,1.53,10.17,1.88c15.74,1.62,31.21,5.22,48.4,6.39c-4.4,2.24-8.68,1.53-11.27,4.65
		c1.38,1.62,3.04,1.69,4.65,2.02c16.16,3.24,32.41,1.04,48.63,0.77c2.03-0.04,4.45-0.49,4.63-3.49c0.18-2.95-1.14-4.67-4.01-5.39
		c-8.83-2.25-17.51-5.06-26.52-6.66c-15.48-2.75-30.91-5.81-46.58-7.31c-0.07-0.29-0.17-0.56-0.29-0.83c3.04-0.7,2.3-1.92,0.72-3.71
		c-5.43-6.11-11.98-9.65-20.32-9.45c-3.33,0.08-6.67-0.04-10,0.02c-15.05,0.25-30.08-0.02-45.03-2.02c-0.49-0.07-1.1,0.08-1.47-0.15
		c-6.65-4.11-14.4-1.93-21.55-3.24c-8.81-1.61-18.04-4-27.34-2.64c-0.48,0.07-1.08,0.05-1.47-0.19c-5.85-3.67-12.92-2.81-18.99-3.28
		c-27.39-2.12-54.98,1.5-82.42-2.39c-14.18-2.01-28.24,2.23-42.44,1.93c-7.16-0.15-14.33-0.04-21.49,0
		c-1.32,0.01-2.84-0.19-3.93,0.36c-5.85,2.99-12.41,1.72-18.57,3.34c-7,1.84-14.51-0.37-21.97,1.97
		c-8.05,2.53-16.77,2.85-25.38,2.39c-4-0.22-7.36,2.2-10.79,4.01c-1.09,0.57-1.32,1.44-1.1,2.48c0.2,0.93,0.94,1.37,1.84,1.37
		c7.65-0.06,15.38,0.48,22.94-0.39c8.14-0.94,16.04-4.47,24.39-1.37c-0.71,2.78,0.97,2.92,3.06,2.97c23.5,0.49,46.92-0.89,70.3-3.14
		c1.37-0.13,2.21-0.53,2.24-2c1.38-1.67,3.14-2.24,5.29-2.02c5.99,0.61,11.76,3.03,17.96,2.07c1.48-0.23,3.77-0.54,3.59,2.09
		c-0.17,2.54-2.41,1.79-3.91,1.81c-5.83,0.08-11.75,0.68-17.47-0.1c-9.02-1.23-16.26,5.09-25.28,4.87
		c-4.48-0.11-9.46,3.78-14.88,3.31c-1.88-0.16-2.71,1.75-4.31,2.28c-1.18,0.39-1.92,1.86-3.46,1.66c-4.54-0.59-8.17,1.03-11.87,3.72
		c-3.8,2.76-6.46,9.38-4.12,13.51c0.78,1.38,1.95,2.94,3.88,2.72c8.79-0.97,17.29,1.93,25.95,1.98c22.49,0.13,45.01,0.99,67.43-1.86
		c1.34-0.17,3.17-0.68,3.96,1.16c0.79,1.84-0.83,2.55-1.87,3.6c-2.31,2.33-2.9,10.02-0.62,10.74c3.29,1.05,2.73,3.2,2.79,5.44
		c-29,0-58,0-87,0c-1.15-2.28-3.5-2.99-5.53-3.95c-7.21-3.42-14.33-7.02-21.5-10.51c-6.56-3.2-13.89-3.09-21.06-1.94
		c-7.24,1.16-14.22,0.71-21.03-2.26c-4.57-1.99-7.73-5.11-9.19-9.87c-2.08-6.78-6.65-10.78-12.87-14.29
		c-11.71-6.6-24.34-10.62-36.78-15.26c-1.71-0.64-3.38-1.42-4.97-2.31c-4.42-2.49-8.52-5.36-14.24-4.16
		c-3.05,0.64-6.43-0.83-8.69-3.13c-6.89-7-15.75-9.53-24.9-10.18c-22.04-1.56-42.57-8.68-63.18-15.71
		c-8.15-2.78-16.24-5.45-25.24-4.55c-6.92,0.7-12.52-2.5-17.34-8c-6.82-7.78-14.94-13.95-25.96-14.97
		c-9.98-0.92-18.61-5.55-27.45-9.93c-7.71-3.82-15.88-7.84-25.11-4.29c-1.19,0.46-2.63,0.25-3.96,0.36
		C1317.26,923.58,1316.25,923.51,1315.23,924.45z"/>
	<path class="st1" d="M190.25,570.32c-35.5,1-68.53,12.12-101.21,24.68c-1.24,0.48-2.54,1.4-3.73,1.28
		c-9.52-0.91-14.84,6.14-21.31,11.01c-11.22,8.44-20.17,19.17-29.73,29.3c-1.25,1.33-2.47,3.04-4.34,3.21
		c-6.84,0.63-8.93,5.93-8.26,10.9c0.96,7.09-3.05,10.23-7.43,13.76c0-16,0-32,0-48c2.6-1.13,2.93-4.1,4.79-5.91
		c2.39-2.32,4.76-4.33,8.26-3.6c2.63,0.55,4.01-1.22,5.66-2.5c14.18-11.03,27.63-23.15,43.56-31.66
		c11.85-6.33,23.19-13.99,36.31-17.54c21.54-5.83,43.43-9.98,65.76-11.33c3.63-0.22,7.74-1.48,10.12,3.12
		c0.68,1.3,2.45,0.6,3.74,0.46c34.11-3.85,68.12-1.58,102.17,1.13c23.53,1.88,47.08,4.9,70.77,2.33
		c25.75-2.8,50.33-9.05,71.89-24.31c6.11-4.32,10.72-9.96,14.73-16.11c7.98-12.26,18.07-22.05,31.53-28.24
		c4.05-1.87,7.84-4.39,11.51-6.96c3.51-2.46,7.12-2.52,10.91-1.34c2.43,0.76,4.91,2.12,5.38,4.7c0.45,2.43-2.56,2.63-3.97,3.83
		c-8.47,7.21-18,13.44-25.34,21.65c-6.87,7.68-14.52,14.17-21.91,21.14c-7.11,6.71-14.72,13.27-20.86,21.14
		c-2.52,3.24-7,5.23-8.79,8.71c-5.85,11.38-16.95,13.16-27.4,15.62c-9.39,2.21-18.76,4.52-28.13,6.82
		c-21.64,5.32-43.39,2.68-65.11,0.72c-6.81-0.62-13.51-0.53-20.37,0.1c-13.93,1.28-27.92,0.59-41.56-2.9
		c-8.46-2.16-17.07-2.65-25.66-3.54c4.38-1.92,9.31-4.73,13.62-3.2c8.23,2.93,16.42,0.88,24.56,1.65c1.12,0.11,2.67,0.17,3.37-0.46
		c5.8-5.3,12.08-9.05,20.39-7.59c1.09,0.19,1.85-0.61,1.9-1.81c0.04-0.91-0.33-1.97-1.22-1.84c-4.27,0.62-7.76-2.17-11.95-2.38
		c-13.92-0.7-27.51,3.19-41.48,2.3c-6.75-0.43-13.86-1.75-20.49,1.69c-1.15,0.6-2.87,0.23-4.33-0.47
		C200.04,556.76,190.51,562.89,190.25,570.32z"/>
	<path class="st2" d="M1655.59,1004.65c-8.35-3.1-16.26,0.42-24.39,1.37c-7.56,0.88-15.29,0.34-22.94,0.39
		c-0.89,0.01-1.64-0.44-1.84-1.37c-0.22-1.04,0.01-1.91,1.1-2.48c3.43-1.81,6.79-4.23,10.79-4.01c8.61,0.46,17.33,0.14,25.38-2.39
		c7.46-2.35,14.96-0.13,21.97-1.97c6.16-1.62,12.72-0.35,18.57-3.34c1.09-0.56,2.61-0.36,3.93-0.36c7.16-0.03,14.33-0.15,21.49,0
		c14.2,0.3,28.27-3.94,42.44-1.93c27.44,3.89,55.03,0.28,82.42,2.39c6.07,0.47,13.14-0.39,18.99,3.28c0.38,0.24,0.99,0.26,1.47,0.19
		c9.31-1.36,18.54,1.03,27.34,2.64c7.15,1.31,14.9-0.87,21.55,3.24c0.38,0.23,0.98,0.08,1.47,0.15c14.95,2.01,29.98,2.27,45.03,2.02
		c3.33-0.06,6.67,0.06,10-0.02c8.35-0.19,14.89,3.34,20.32,9.45c1.59,1.79,2.32,3-0.71,3.71c-11.22-1.12-22.54-1.63-33.64-3.49
		c-30.86-5.17-62.03-6.15-93.16-7.8c-11.26-0.6-22.48-1.92-33.74-2.42c-9.61-0.43-19.24,0.19-28.79,1.5
		c-0.99,0.14-2.09,0.12-2.26,1.43c-0.17,1.31,0.89,1.76,1.83,1.96c1.61,0.35,3.26,0.55,4.9,0.65c7.12,0.45,14.3,0.4,21.35,1.34
		c22.05,2.93,44.19,4.84,66.35,6.54c20.98,1.6,41.89,3.49,62.49,7.95c-3.16,2.34-7.08,1.85-9.93,0.64
		c-2.79-1.18-5.34-1.44-8.09-1.44c-36.96-0.03-73.92-0.02-110.88-0.03c-1.79,0-3.58,0-5.37,0c1.82,2.19,3.66,4.14,6.28,3.93
		c6.15-0.5,8.06,4.42,10.62,8.24c1.01,1.51,0.89,4.25-0.94,5.51c-2.99,2.05-4.44,5.78-8.75,6.59c-3.71,0.7-2.28,4.44-1.26,6.54
		c1.02,2.09,1.27,4.05,1.27,6.2c-14.67,0-29.33,0-44,0c-0.05-2.24,0.51-4.4-2.79-5.44c-2.28-0.72-1.69-8.41,0.62-10.74
		c1.04-1.05,2.66-1.75,1.87-3.6c-0.79-1.84-2.62-1.33-3.96-1.16c-22.42,2.85-44.94,1.98-67.43,1.86
		c-8.66-0.05-17.16-2.95-25.95-1.98c-1.93,0.21-3.09-1.34-3.88-2.72c-2.34-4.13,0.32-10.74,4.12-13.51c3.7-2.7,7.33-4.32,11.87-3.72
		c1.54,0.2,2.28-1.27,3.46-1.66c1.61-0.52,2.44-2.44,4.31-2.28c5.42,0.47,10.4-3.42,14.88-3.31c9.02,0.21,16.26-6.11,25.28-4.87
		c5.72,0.78,11.64,0.19,17.47,0.1c1.5-0.02,3.74,0.73,3.91-1.81c0.18-2.63-2.11-2.32-3.59-2.09c-6.2,0.95-11.97-1.46-17.96-2.07
		c-2.15-0.22-3.91,0.35-5.29,2.02c-1.09-0.36-2.17-0.87-3.29-1.04C1703.58,997.69,1679.48,998.84,1655.59,1004.65z M1810.14,1039.77
		c-1.65,2.34-4.69,0.89-6.43,3.16c3.96,0.56,7.86,0.57,11.76,0.56c2.04-0.01,4.24,0.02,4.61-2.67c0.32-2.37-1.58-2.92-3.32-3.68
		c-6.92-3.01-14.35-4.07-21.65-5.53c-6.81-1.36-13.74-2.14-20.63-3c-2.63-0.33-4.37,1.18-3.87,3.83c0.44,2.31,2.27,3.02,4.64,2.11
		c1.34-0.52,2.66-0.9,4.31-0.58C1789.8,1035.98,1800.19,1037.17,1810.14,1039.77z"/>
	<path class="st1" d="M666.13,826.83c-2.74-0.6-5.3-0.86-4.99,3.07c0.02,0.27-0.25,0.75-0.47,0.82c-6.29,1.9-11.62,7.34-18.07,7.33
		c-13.43-0.02-26.9-0.06-40.26-3.06c-8.31-1.87-16.86,1.11-25.12,2.93c-15.76,3.48-31.42,7.39-47.12,11.14
		c-2.49,0.59-4.77,0.32-7.3-0.41c-8.51-2.46-17.38-3.71-26.11-3.9c-18.14-0.4-36.26,0.72-53.95,5.45c-0.95,0.26-1.97,0.48-2.94,0.43
		c-16.46-0.93-32.95-0.75-49.43-1.83c-16.44-1.08-32.94-1.57-49.42-2.18c-25.17-0.94-49.5-6.45-72.18-16.36
		c-14.01-6.12-29.15-10.56-41.73-19.76c-5.66-4.14-11.14-8.13-17.89-10.54c-7.76-2.77-10.67-8.86-8.15-14.68
		c1.15-2.65,2.67-4.23,6.1-3.73c6.27,0.91,12.51,1.67,18.36,4.37c3.78,1.74,7.7,3.17,11.83,3.85c3.5,0.57,6.66,1.82,9.58,3.88
		c3.17,2.24,6.83,3.52,10.63,4.12c9.34,1.49,18.29,5.13,27.92,4.95c1.19-0.02,2.17,0.3,3.13,1.18c9.88,9.07,21.77,12.85,34.97,13.72
		c5.75,0.38,11.06,3.28,16.82,4.26c18.21,3.11,36.44,5.28,54.97,3.83c6.47-0.51,12.99-0.57,19.48-0.47
		c9.51,0.15,18.96,0.09,28.41-1.36c3.4-0.53,6.98-0.14,10.46,0.09c7.49,0.5,14.96,0.68,22.45-0.21c7.82-0.93,15.64-0.34,23.42,0.79
		c5.67,0.82,11.23,0.27,16.86-0.77c23.42-4.33,46.98-8.23,70.72-9.62c8.91-0.52,17.69-1.79,26.47-2.2
		c7.31-0.35,14.87-0.69,22.21-0.21c12.94,0.83,25.98-0.51,38.83,1.93c2.73,0.52,5.74-0.8,8.28,0.95c1.06,0.73,3.36,2.13,1.23,3.27
		C678.26,821.08,673.1,825.92,666.13,826.83z M351.68,838.64c-0.39-1.83-1.23-2-2.04-2.09c-9.7-1.05-19.39-2.26-29.11-3.02
		c-5.28-0.41-10.63-0.05-15.95,0c-1.81,0.02-3.52,0.55-3.24,2.78c0.29,2.26,2.19,2.3,3.86,1.87c2.13-0.54,4.27-0.77,6.42-0.49
		C324.86,839.39,338.13,837.9,351.68,838.64z M568.73,832.87c-8-4.74-16.65-3.27-25.12-3.33c-1.01-0.01-2.02,0.62-1.93,1.79
		c0.1,1.34,1.42,1.08,2.31,1.31C552.21,834.79,560.47,831.9,568.73,832.87z"/>
	<path class="st1" d="M1162.91,899.03c-1.22-0.16-2.45-0.31-3.67-0.47c-0.4-0.73-0.78-1.46-1.73-1.62
		c-8.55-1.49-16.02,1.57-23.29,5.5c-12.88,2.07-25.87,1.84-38.83,1.55c-15.17-0.35-30.05-3.58-45.11-5.1
		c-1.64-0.16-3.47-0.53-4.93,0c-4.72,1.7-9.32,1.39-14.21,0.76c-9.05-1.17-18.2-1.59-27.31-2.33c-3.67-0.3-7.35-0.69-10.42-2.99
		c-1.32-0.99-2.74-1.03-4.24-1.12c-8.95-0.54-17.85-1.86-26.88-1.18c-14.15,1.06-27.78-2.59-41.48-5.25
		c-10.97-2.13-22.12-2.69-33.15-4.32c-3.62-0.54-7.28-0.85-10.62-2.53c-2.59-1.3-4.33-3.18-3.82-6.3c0.5-3.02,2.88-3.86,5.46-4.23
		c13.06-1.86,26.2-2.26,39.35-1.95c5.51,0.13,10.97,0.3,16.41-0.83c5.6-1.16,11.21-1.15,16.84,0.16c9.65,2.24,18.94-0.67,28.08-2.82
		c20.85-4.91,41.63-5.54,62.93-3.18c12.22,1.35,24.43,2.45,36.6,4.34c4.9,0.76,10.19-0.99,15.31-1.61
		c15.12-1.85,30.22-1.61,45.34,0.06c15.88,1.75,32-0.19,47.79,3c1.95,0.39,3.91,0.73,5.87,1.09c-4.55,2.26-9.32,0.87-14.01,0.86
		c-17.44-0.02-34.88-0.09-52.31,0.02c-9.85,0.06-19.63-0.23-29.51,1.73c-9.76,1.94-19.84-0.04-29.99,1.78
		c-11.84,2.12-24.27,0.03-36.41,2.28c-5.64,1.04-11.64,0.32-17.46,0.14c-3.73-0.11-7.09,0.05-9.46,3.58
		c-0.61,0.91-2.1,1.26-0.95,2.68c0.87,1.07,1.91,2.17,3.33,0.98c1.59-1.33,3.39-1.1,5.2-1.22c15.3-0.98,30.56,0.33,46.01-1.52
		c21.93-2.62,44.28,1,66.42-2.31c15.46-2.31,30.87,2.19,46.43,2.02c10.13-0.11,20.22-0.34,30.53,1.29
		c11.06,1.75,22.45,3.46,33.96,2.67c10.28-0.71,20.65-0.16,30.98-0.12c1.48,0.01,3.11-0.12,4.41,0.42
		c5.77,2.42,11.64,3.99,17.99,3.59c3.15-0.2,6.33-0.04,9.49,0.11c1.26,0.06,2.2,0.93,2.15,2.31c-0.05,1.3-1.12,1.53-2.15,1.51
		c-3.79-0.06-7.44,1.36-10.99,1.69c-8.87,0.83-17.59,3.26-26.67,2.45c-6.45-0.57-13.01,0.22-19.48-0.24
		c-3.26-0.23-5.92,3.74-8.34,1.9c-4.33-3.31-7.72,0.19-11.51,0.4c-1.61,0.09-2.55,2.14-4.47,1.83c-6.55-1.05-12.64,1.42-18.91,2.5
		c-4.6-0.15-9.5,0.64-13.74-0.67C1176.74,898.14,1169.86,899.01,1162.91,899.03z M1150.6,886.99c-5.38-1.85-11.03-1.89-16.53-2.42
		c-16.89-1.63-33.85-1.16-50.79-1.18c-2.33,0-4.68-0.15-6.98,0.1c-1.72,0.19-4.08,0.37-3.85,2.89c0.19,2.01,1.93,2.98,3.93,3.14
		c0.99,0.08,1.99,0.02,2.99,0.06c22.61,0.72,45.17-1.13,67.77-1.12C1148.38,888.45,1149.91,888.94,1150.6,886.99z M1029.81,884.31
		c-3.83-1.02-7.58-1.19-11.3-0.36c-2.23,0.5-4.68,0.6-6.39,2.44c-0.4,0.43-0.65,1.16-0.65,1.74c0,0.83,0.8,1.16,1.41,0.85
		C1018.21,886.24,1024.61,887.63,1029.81,884.31z"/>
	<path class="st2" d="M1197.47,900.97c6.27-1.08,12.37-3.55,18.91-2.5c1.92,0.31,2.86-1.74,4.47-1.83c3.78-0.21,7.18-3.7,11.51-0.4
		c2.42,1.85,5.08-2.13,8.34-1.9c6.47,0.46,13.03-0.34,19.48,0.24c9.08,0.81,17.8-1.62,26.67-2.45c3.55-0.33,7.2-1.75,10.99-1.69
		c1.04,0.02,2.11-0.21,2.15-1.51c0.05-1.38-0.88-2.25-2.15-2.31c-3.16-0.15-6.34-0.31-9.49-0.11c-6.35,0.4-12.22-1.17-17.99-3.59
		c-1.3-0.55-2.93-0.42-4.41-0.42c-10.33-0.04-20.7-0.59-30.98,0.12c-11.52,0.79-22.91-0.92-33.96-2.67
		c-10.31-1.63-20.41-1.4-30.53-1.29c-15.56,0.17-30.97-4.33-46.43-2.02c-22.14,3.3-44.49-0.31-66.42,2.31
		c-15.44,1.84-30.7,0.53-46.01,1.52c-1.82,0.12-3.62-0.11-5.2,1.22c-1.42,1.19-2.46,0.08-3.33-0.98c-1.15-1.42,0.34-1.77,0.95-2.68
		c2.37-3.53,5.73-3.69,9.46-3.58c5.83,0.18,11.82,0.9,17.46-0.14c12.14-2.24,24.57-0.16,36.41-2.28
		c10.15-1.82,20.23,0.16,29.99-1.78c9.87-1.96,19.66-1.67,29.51-1.73c17.44-0.11,34.88-0.04,52.31-0.02
		c4.69,0.01,9.46,1.4,14.01-0.86c11.4,1.42,22.64,3.57,33.47,7.51c1.38,0.5,2.61,1.42,4.25,1.05c17.28-3.83,34.42-0.49,51.63,0.91
		c17.27,1.41,34.21,5.19,51.44,6.8c2.14,0.2,4.28,0.63,6.15,1.84c-0.58,1.08-3.06,0.35-2.45,2.45c0.38,1.34,1.25,2.3,2.89,2.27
		c1.49-0.03,3-0.09,4.21,1.1c1.17,1.15,1.97,2.54,1.03,3.98c-0.9,1.37-2.37,1.01-3.46,0.01c-2.02-1.85-4.49-1.23-6.67-1.02
		c-7.8,0.76-16.2-2.68-23.32,3.66c-1.32,1.17-4.52,0.09-6.84,0.28c-3.76,0.31-7.63-0.94-11.29,0.77
		c-5.89-0.26-11.78-0.56-17.67-0.77c-1.98-0.07-4.17-0.23-4.21,2.76c-2.05,1.91-4.16,1.63-6.21,0.08c-1.05-0.79-2.19-1.13-3.17-0.3
		c-1.13,0.97-0.78,2.46-0.61,3.76c0.2,1.5,1.43,1.65,2.63,1.66c3.32,0.02,6.64,0.13,9.96,0c4.19-0.17,7.81,1.9,11.56,2.71
		c5.73,1.25,8.3,4.25,9.95,8.9c1.02,2.88,5.46,1.11,5.67,4.66c-1.6-0.23-3.19-0.46-4.79-0.69c-0.54-0.74-1.26-0.85-2.08-0.59
		c-16.34-5.3-33.54-6.67-50.11-10.91c-0.64-0.16-1.36-0.45-1.96-0.32c-14.6,3.17-27.56-4.46-41.4-6.28
		c-1.15-0.15-2.27-0.5-3.41-0.76C1198.09,902.43,1197.78,901.7,1197.47,900.97z"/>
	<path class="st2" d="M190.25,570.32c0.26-7.43,9.79-13.56,16.37-10.45c1.47,0.69,3.19,1.07,4.33,0.47
		c6.63-3.45,13.74-2.12,20.49-1.69c13.96,0.89,27.56-3,41.48-2.3c4.18,0.21,7.67,3.01,11.95,2.38c0.88-0.13,1.26,0.93,1.22,1.84
		c-0.05,1.2-0.81,2.01-1.9,1.81c-8.31-1.46-14.58,2.3-20.39,7.59c-0.7,0.63-2.25,0.57-3.37,0.46c-8.15-0.77-16.33,1.29-24.56-1.65
		c-4.31-1.53-9.24,1.28-13.62,3.2c-2.82,0.27-5.63,0.38-8.4-0.4c-2.53,0.41-4.87-2.19-7.49-0.49
		C200.98,570.84,195.61,570.58,190.25,570.32z"/>
	<path class="st3" d="M1197.47,900.97c0.31,0.73,0.61,1.46,0.92,2.19c-11.82-1.42-23.76-1.86-35.48-4.13
		c6.96-0.02,13.84-0.88,20.82,1.27C1187.98,901.61,1192.87,900.82,1197.47,900.97z"/>
	<path class="st3" d="M1134.21,902.43c7.27-3.92,14.74-6.99,23.29-5.5c0.96,0.17,1.33,0.89,1.73,1.62
		C1150.33,896.17,1142.53,900.95,1134.21,902.43z"/>
	<path class="st1" d="M206.35,571.1c2.62-1.71,4.95,0.9,7.49,0.49C211.3,572.12,208.83,571.49,206.35,571.1z"/>
	<path class="st3" d="M1305.16,923.25c1.93-1.12,3.55-0.14,5.18,0.76C1308.52,924.41,1306.85,923.75,1305.16,923.25z"/>
	<path class="st3" d="M1315.23,924.45c1.02-0.94,2.02-0.86,3.01,0.05C1317.23,925.25,1316.22,925.23,1315.23,924.45z"/>
	<path class="st3" d="M1295.27,921.44c0.82-0.25,1.54-0.15,2.08,0.59C1296.5,922.37,1295.87,921.97,1295.27,921.44z"/>
	<path class="st3" d="M1945.29,1023.29c-20.6-4.46-41.51-6.34-62.49-7.95c-22.15-1.69-44.3-3.6-66.35-6.54
		c-7.05-0.94-14.23-0.89-21.35-1.34c-1.64-0.1-3.29-0.3-4.9-0.65c-0.94-0.2-1.99-0.66-1.83-1.96c0.17-1.32,1.27-1.3,2.26-1.43
		c9.56-1.31,19.18-1.92,28.79-1.5c11.26,0.5,22.48,1.82,33.74,2.42c31.14,1.65,62.3,2.63,93.16,7.8c11.1,1.86,22.42,2.36,33.64,3.49
		c0.12,0.27,0.22,0.55,0.29,0.83c-1.6,4.64-4.71,6.63-9.71,6.08c-3.25-0.36-6.59-0.25-9.87-0.01c-2.84,0.21-5.93-1.17-8.51,1.08
		C1949.88,1023.5,1947.58,1023.39,1945.29,1023.29z"/>
	<path class="st4" d="M1952.17,1023.61c2.59-2.25,5.67-0.87,8.51-1.08c3.27-0.24,6.61-0.35,9.87,0.01c5,0.55,8.11-1.44,9.71-6.08
		c15.68,1.49,31.1,4.56,46.58,7.31c9.02,1.6,17.69,4.41,26.52,6.66c2.86,0.73,4.18,2.45,4.01,5.39c-0.18,3-2.59,3.45-4.63,3.49
		c-16.21,0.28-32.46,2.47-48.63-0.77c-1.61-0.32-3.26-0.4-4.65-2.02c2.59-3.12,6.86-2.42,11.27-4.65
		c-17.2-1.16-32.66-4.76-48.4-6.39C1958.9,1025.14,1955.43,1024.94,1952.17,1023.61z"/>
	<path class="st4" d="M1655.59,1004.65c23.89-5.81,47.99-6.97,72.31-3.22c1.12,0.17,2.19,0.69,3.29,1.04
		c-0.03,1.47-0.87,1.87-2.24,2c-23.38,2.25-46.8,3.63-70.3,3.14C1656.56,1007.58,1654.88,1007.43,1655.59,1004.65z"/>
	<path class="st4" d="M1272.35,901.26c0.04-2.99,2.24-2.83,4.21-2.76c5.89,0.21,11.78,0.51,17.67,0.77
		c15.97,1.4,32.07,1.93,47.46,7.16c2.9,0.99,6.05,1.64,8.44,4.72c-4.36,0.76-7.72-1.42-11.31-1.97c-12.46-1.9-25.04-2.38-37.54-3.73
		C1291.58,904.41,1281.81,903.91,1272.35,901.26z"/>
	<path class="st3" d="M1810.14,1039.77c-9.95-2.6-20.34-3.79-30.58-5.79c-1.65-0.32-2.97,0.06-4.31,0.58
		c-2.37,0.91-4.21,0.21-4.64-2.11c-0.5-2.65,1.24-4.16,3.87-3.83c6.9,0.86,13.83,1.63,20.63,3c7.29,1.46,14.73,2.52,21.65,5.53
		c1.74,0.76,3.64,1.31,3.32,3.68c-0.37,2.69-2.56,2.67-4.61,2.67c-3.9,0.01-7.79,0-11.76-0.56
		C1805.45,1040.66,1808.49,1042.11,1810.14,1039.77z"/>
	<path class="st4" d="M351.68,838.64c-13.55-0.74-26.82,0.76-40.05-0.94c-2.15-0.28-4.28-0.05-6.42,0.49
		c-1.68,0.43-3.58,0.39-3.86-1.87c-0.28-2.23,1.43-2.76,3.24-2.78c5.32-0.05,10.66-0.41,15.95,0c9.72,0.76,19.41,1.98,29.11,3.02
		C350.46,836.64,351.29,836.81,351.68,838.64z"/>
	<path class="st4" d="M568.73,832.87c-8.26-0.98-16.52,1.91-24.74-0.23c-0.89-0.23-2.21,0.03-2.31-1.31
		c-0.09-1.17,0.93-1.79,1.93-1.79C552.09,829.6,560.74,828.14,568.73,832.87z"/>
	<path class="st4" d="M1150.6,886.99c-0.69,1.95-2.23,1.47-3.45,1.47c-22.6-0.01-45.16,1.84-67.77,1.12c-1-0.03-2,0.02-2.99-0.06
		c-2.01-0.16-3.75-1.13-3.93-3.14c-0.23-2.52,2.13-2.7,3.85-2.89c2.3-0.25,4.65-0.1,6.98-0.1c16.94,0.02,33.91-0.45,50.79,1.18
		C1139.57,885.1,1145.22,885.13,1150.6,886.99z"/>
	<path class="st4" d="M1029.81,884.31c-5.2,3.32-11.6,1.92-16.92,4.67c-0.61,0.32-1.41-0.02-1.41-0.85c0-0.59,0.25-1.32,0.65-1.74
		c1.7-1.84,4.16-1.94,6.39-2.44C1022.23,883.13,1025.98,883.3,1029.81,884.31z"/>
</g>
</svg>
