<?xml version="1.0" encoding="utf-8"?>
<!-- Generator: Adobe Illustrator 26.0.3, SVG Export Plug-In . SVG Version: 6.00 Build 0)  -->
<svg version="1.1" id="Layer_1" xmlns="http://www.w3.org/2000/svg" xmlns:xlink="http://www.w3.org/1999/xlink" x="0px" y="0px"
	 viewBox="0 0 1532.94 1133" style="enable-background:new 0 0 1532.94 1133;" xml:space="preserve">
<style type="text/css">
	.st0{fill:#134D5D;}
	.st1{fill:#196B84;}
	.st2{fill:#1C5877;}
	.st3{fill:#188E95;}
	.st4{fill:#CAC297;}
</style>
<g>
	<path class="st0" d="M1468.43,214.62c0,101.33,0,202.67,0,304c-2.76-0.2-5.38,0.11-8.18-1.32c-9.57-4.89-20.28-6.58-30.64-8.35
		c-11.77-2.01-23.79,0.56-35.65,1.98c-13.67,1.64-26.9,0.71-39.21-6.34c-3.45-1.97-4.27-5.15-3.07-8.03c1.54-3.7,3.65-7.68,7.28-9.7
		c4.91-2.74,7.98-7.55,12.92-10.3c3.48-1.94,6.79-4.92,9.01-8.22c4.54-6.75,7.78-14.08,6.64-22.73c-0.54-4.1-0.09-8.32-0.1-12.49
		c0-1.82-0.4-3.47-1.06-5.25c-3.17-8.58-7.08-16.41-13.16-23.62c-4.02-4.76-8.75-8.91-13.13-12.88c-4.42-4.01-9.08-8.45-14.5-11.55
		c-7.68-4.39-15.17-9.21-23.83-11.52c-5.88-1.57-11.94-0.26-17.89-0.7c-2.05-0.15-5.16,1.17-5.88-1.05
		c-0.8-2.48,2.65-3.24,4.21-4.77c4.03-3.95,8.14-7.97,9.14-13.74c0.99-5.67-0.02-11.53-2.39-16.56c-1.9-4.03-2.38-9.28-6.36-11.87
		c-3.1-2.02-5.78-4.63-9.45-6.07c-4.52-1.77-8.39-4.95-12.22-8.16c-3.66-3.07-6.57-7.57-10.12-9.55c-4.56-2.54-8.67-6.82-14.41-7.25
		c-1.48-0.11-2.6-0.71-2.8-2.3c-0.14-1.11,0.49-1.97,1.47-2.37c5.91-2.39,9.83-7.16,14.14-11.52c6.03-6.11,8.67-13.92,5.41-21.29
		c-3.54-8.03-7.08-16.29-14.29-22.71c-7-6.23-14.23-9.63-23.29-9.74c-7.66-0.09-15.35-0.37-22.99,0.09
		c-5.64,0.34-10.17-2.06-14.95-4.17c-1.07-0.47-1.71-1.11-1.61-2.2c0.84-9.2-2.39-17.76-3.97-26.59c-0.52-2.88-2.92-5.14-2.17-8.46
		c0.57-2.49,1.67-3.49,3.62-1.97c2,1.56,4.07,1.19,6.16,1.24c4.6,0.11,9.24-0.45,13.51,2.15c3.11,1.89,5.94,0.55,7.94-1.97
		c2.4-3.02,5.36-4.13,9.08-4.24c2.19-0.07,4.75-0.04,5.82-2.77c8-1.03,16.01-2.06,24.01-3.1c1.13,0.07,2.57-0.47,3.31,0.58
		c5,7.13,13.45,6.74,20.47,9.21c7.44,2.62,15.9,0.76,23.2,5.52c2.19,1.43,4.64,3.89,6.64,4.18c4.36,0.64,8.29,3.17,12.98,2.57
		c3.56-0.46,7.26,0.36,10.86,0.57c5.29,0.31,10.61,0.46,16.13-0.65c4.49-0.9,10.13-1.23,15.02,2.57c3.69,2.87,7.67,6.23,12.7,6.99
		c4.23,0.64,8.43,1.33,12.62,2.11c4.1,0.77,8.39,1.81,12.8,1.21c10.53-1.43,21.1-2.65,31.66-3.85c3.25-0.37,6.27,0.45,8.63,2.93
		c2.17,2.28,4.22,4.68,6.5,6.84c1.63,1.54,3.12,3.72,5.85,3.15C1464.6,209.8,1466.74,211.72,1468.43,214.62z"/>
	<path class="st1" d="M1468.43,776.62c0,30.67,0,61.33,0,92c-8.03,2.32-16.28,2.07-24.51,2.05c-0.63,0-1.4,0.13-1.89,0.49
		c-6,4.43-13.44,3.84-20.16,5.18c-10.32,2.06-12.21,7.87-9.42,15.82c1.78,5.05,3.49,10.12,5.37,15.14
		c2.58,6.9,3.47,14.26,7.24,20.94c3.22,5.71,5.34,12.5,6.1,19.02c1.02,8.7,0.43,17.62,0.18,26.43c-0.12,4.06-2.58,7.09-6.27,8.83
		c-13.23,6.25-27.34,3.69-41.16,3.94c-1.5,0.03-3.29-0.5-4.49-1.83c1.9-8.83,6.69-16.57,8.69-25.54
		c2.91-13.08,4.68-26.02,4.37-39.39c-0.38-16.08,0.11-32.11,4.95-47.72c2.43-7.82,7.67-13.75,14.17-14.3
		c3.14-0.27,6.33-0.08,9.49-0.05c9.62,0.1,9.56,0.68,12.22-9.95c5.12-20.47,0.98-41.2-0.17-61.85c-0.4-7.18-3.69-13.74-3.62-20.8
		c0.11-10.4,3.17-20.41,5.54-30.43c2.7-11.44,5.72-22.77,5.34-34.65c-0.27-8.62-0.58-17.24-1-25.86c-0.35-7.14-1.2-14.3-4.06-20.87
		c-4.04-9.3-4.48-19.02-3.73-28.74c0.78-10.08,1.96-20.11,1.83-30.25c-0.04-3.16-0.43-6.44,0.25-9.46c2.02-8.91,0.02-17-4.37-24.64
		c-1.36-2.37-2.72-5.51-5.35-6.24c-6.04-1.68-12.12-3.28-18.34-4.37c-10.38-1.81-20.91,0.2-31.25-1.87
		c-8.85-1.77-17.95-1.72-26.66-4.88c-14.13-5.12-21.07-20.69-17.41-33.4c2.31-8.03,5.23-15.87,9.14-23.22
		c4.28-8.06,5.73-16.99,8.82-25.39c2.68-7.28,3.44-14.57,1.34-22.09c-1.35-11.35-5.79-21.55-12.76-30.39
		c-5.48-6.95-10.48-14.73-19.44-18.05c1.34-0.72,1.59-1.44,0.14-2.39c-3.22-2.1-6.64-1.7-9.81-0.31c-1.69,0.74-2.83,1.41-4.38-0.01
		c-4.1-3.75-8.28-7.42-12.87-11.52c1.47-0.18,2.26-0.32,3.05-0.36c16.75-0.91,31.7,3.83,46.17,12.38
		c8.53,5.04,15.62,11.06,22.49,17.94c3.6,3.61,6.35,7.35,8.43,11.88c0.83,1.81,1.04,4.39,3.78,4.79c1.07,8.56,1.74,16.98-0.73,25.58
		c-2.05,7.16-4.58,13.99-8.24,20.44c-5.78,3.66-10.56,8.27-15.2,13.37c-7.57,8.32-9.56,14.98-4.96,25.45
		c2.31,5.27,8.05,7.2,11.64,11.31c3.16,3.61,7.57,2.14,11.64,1.88c11.71-0.76,23.58,1.67,35.17-1.92c1.66-0.51,3.7-0.3,5.45,0.08
		c7.01,1.53,14.1,2.31,21.22,1.75c7.29-0.58,14.01,1.8,20.95,3.12c6.2,1.18,11.04,5.51,17.09,6.95c0,25,0,50,0,75
		c-6.97,3.99-12.88,9.65-20.93,12.05c-2.07,0.62-5.03,4.1-3.88,7.82c1.2,3.86,4.57,3.06,7.49,3.13c2.42,0.06,4.48,0.11,6.73,2.06
		c2.99,2.59,6.57,4.84,10.59,5.94c0,34,0,68,0,102c-4.34,0.79-5.59,4.91-8.06,7.64c-3.99,4.43-8.88,7.71-13.4,11.47
		c-1.95,1.62-3.11,3.88-2.1,6.67c1.02,2.79,3.5,2.65,5.43,2.13c7.54-2.04,10.68,4.02,14.8,7.96
		C1466.18,775.52,1466.72,776.77,1468.43,776.62z"/>
	<path class="st2" d="M1468.43,530.62c-6.05-1.44-10.9-5.76-17.09-6.95c-6.95-1.32-13.66-3.7-20.95-3.12
		c-7.12,0.57-14.21-0.22-21.22-1.75c-1.75-0.38-3.79-0.6-5.45-0.08c-11.59,3.59-23.46,1.16-35.17,1.92
		c-4.06,0.27-8.48,1.74-11.64-1.88c-3.59-4.11-9.33-6.04-11.64-11.31c-4.59-10.47-2.61-17.13,4.96-25.45
		c4.64-5.11,9.42-9.72,15.2-13.37c5.35-1.62,13.89-12.55,13.98-18.05c0.08-5.14,0.7-10.4-0.19-15.37
		c-0.78-4.33-0.55-9.45-4.83-12.59c-2.74-0.41-2.95-2.98-3.78-4.79c-2.08-4.52-4.83-8.26-8.43-11.88
		c-6.86-6.89-13.96-12.91-22.49-17.94c-14.47-8.55-29.42-13.29-46.17-12.38c-0.8,0.04-1.59,0.18-3.05,0.36
		c4.59,4.1,8.77,7.77,12.87,11.52c1.56,1.42,2.7,0.76,4.38,0.01c3.17-1.39,6.59-1.79,9.81,0.31c1.45,0.95,1.2,1.67-0.14,2.39
		c-2.74-0.74-5.54-0.9-8.36-0.67c-2.52,0.21-2.87,1.34-1.16,3.11c2.18,2.26,4.59,4.32,6.63,6.7c11.77,13.76,18.81,28.76,12.04,47.26
		c-1.08,0.06-1.74,0.63-2.38,1.52c-3.88,5.42-8.42,9.85-14.46,13.22c-5.21,2.91-10.91,5.71-14.63,10.89
		c-10.61,14.75-20.52,29.83-27.53,46.79c-3.96,9.58-4.66,19.26-4.01,29.18c0.5,7.58,1.39,15.33,7.65,20.89
		c10.36,9.19,21.96,16.43,34.89,21.41c3.51,1.35,7.46,1.59,10.9,3.05c2.87,1.22,7.7,0.8,7.37,5.9c-0.32,4.96-4.93,3.94-7.92,5.16
		c-0.94-2.12-2.93-1.62-4.66-2.07c-8.26-2.13-16.93-3.14-24.29-7.95c-2.9-1.9-5.67-3.99-8.56-5.92c-6.45-4.32-12.78-8.9-17.59-15.21
		c-11.27-14.79-8.64-32-7.13-48.37c1-10.85,7.15-20.66,13.61-29.88c3.36-4.79,7.16-9.3,9.96-14.64
		c6.93-13.19,15.84-25.03,29.96-31.31c3.96-1.76,6-6,10.5-6.78c1.49-0.26,0.97-2.22,1.2-3.49c2.08-11.17-3.2-20.86-6.23-31
		c-0.15-0.51-0.83-1.14-1.35-1.23c-3.01-0.55-4.27-3.22-5.73-5.21c-4.84-6.6-11.07-11.75-17.41-16.6
		c-8.15-6.23-18.47-6.47-28.13-8.3c-1.13-0.21-2.23,0.21-3.35,0.68c-2.73,1.14-5.55,2.11-8.39,2.96c-1.75,0.52-4.21,1-4.81-1.1
		c-0.7-2.48,1.65-3.89,3.73-4.38c2.07-0.48,4.07-0.65,6.1-1.69c6.24-3.19,13.16-4.04,20.05-4.44c6.73-0.4,6.82-0.2,7.48-6.92
		c0.16-1.59,0.27-3.39,2.31-3.03c4.87,0.86,7.77-2.62,10.86-5.04c4.95-3.87,8.08-8.34,4.41-16.09c-0.77-1.62-1.47-3.49-1.44-5.23
		c0.05-3.14-1.36-4.95-3.98-6.27c-12.15-6.1-22.25-15.1-33.01-23.2c-6.8-5.12-14.45-8.45-23.31-8.32c-5.57,0.08-7.81-4-4.58-8.62
		c3.86-5.52,9.19-9.48,15.74-11.16c2.38-0.61,4.31-1.66,6.17-2.95c10.8-7.47,12.36-14.56,5.87-25.74c-0.99-1.71-1.82-3.51-2.81-5.22
		c-4.53-7.8-10.76-12.73-20.33-12.3c-4.32,0.19-8.66,0.11-12.99,0.02c-10.15-0.21-20.09-1.64-29.23-6.36
		c-2.45-1.26-4.5-3.18-4.69-6.54c-0.56-9.73-1.55-19.42-2.59-29.12c-1.34-12.52-7.84-21.75-15.36-30.64
		c-2.03-2.4-3.27-4.35-3.01-7.33c6.29,1.49,11.79,4,15.59,9.74c3.35,5.07,8.43,7.88,14.47,8.89c3.27,0.55,6.55,1.1,9.75,1.94
		c6.47,1.7,12.29-0.03,17.22-3.93c4.25-3.36,8.81-5.17,14.04-5.79c4.62-0.55,9.23-1.17,13.85-1.69c5.42-0.62,10.52,0.21,15.36,2.98
		c9.11,5.21,19.29,6.94,29.47,8.73c6.11,1.08,11.89,2.34,17.35,6.46c5.75,4.35,13.78,4.46,21,5.49c7.39,1.06,15.04,2.89,22.26,1.95
		c7.28-0.95,11.75,2.88,17.13,5.66c12.22,6.31,25.32,6.1,38.49,5.02c7.61-0.62,15.19-1.53,22.76-2.54
		c5.87-0.79,11.02,0.57,14.98,4.9c4.6,5.02,10.83,8.07,15.29,13.21c0,1.67,0,3.33,0,5c-1.69-2.89-3.84-4.81-7.55-4.03
		c-2.73,0.57-4.22-1.61-5.85-3.15c-2.28-2.16-4.34-4.56-6.5-6.84c-2.36-2.48-5.37-3.3-8.63-2.93c-10.56,1.2-21.13,2.42-31.66,3.85
		c-4.4,0.6-8.7-0.44-12.8-1.21c-4.19-0.79-8.4-1.47-12.62-2.11c-5.03-0.76-9.01-4.12-12.7-6.99c-4.9-3.8-10.53-3.48-15.02-2.57
		c-5.52,1.11-10.84,0.96-16.13,0.65c-3.6-0.21-7.3-1.03-10.86-0.57c-4.69,0.6-8.62-1.93-12.98-2.57c-2-0.3-4.45-2.75-6.64-4.18
		c-7.3-4.76-15.76-2.9-23.2-5.52c-7.02-2.47-15.47-2.08-20.47-9.21c-0.74-1.05-2.17-0.51-3.31-0.58c-5.96-2.85-11.8,0.37-17.69,0.53
		c-2.05,0.06-5.22-0.67-6.32,2.56c-1.07,2.72-3.63,2.7-5.82,2.77c-3.72,0.12-6.68,1.22-9.08,4.24c-2,2.52-4.84,3.86-7.94,1.97
		c-4.27-2.6-8.91-2.04-13.51-2.15c-2.1-0.05-4.16,0.32-6.16-1.24c-1.95-1.53-3.05-0.52-3.62,1.97c-0.76,3.32,1.65,5.57,2.17,8.46
		c1.58,8.83,4.81,17.39,3.97,26.59c-0.1,1.09,0.54,1.73,1.61,2.2c4.79,2.11,9.31,4.51,14.95,4.17c7.64-0.46,15.32-0.18,22.99-0.09
		c9.06,0.11,16.29,3.5,23.29,9.74c7.21,6.42,10.75,14.68,14.29,22.71c3.25,7.38,0.62,15.19-5.41,21.29
		c-4.31,4.36-8.23,9.13-14.14,11.52c-0.99,0.4-1.61,1.26-1.47,2.37c0.2,1.59,1.31,2.19,2.8,2.3c5.73,0.42,9.84,4.71,14.41,7.25
		c3.55,1.98,6.46,6.48,10.12,9.55c3.83,3.21,7.7,6.39,12.22,8.16c3.67,1.44,6.35,4.05,9.45,6.07c3.98,2.59,4.47,7.84,6.36,11.87
		c2.37,5.03,3.38,10.89,2.39,16.56c-1.01,5.77-5.11,9.79-9.14,13.74c-1.56,1.53-5.01,2.29-4.21,4.77c0.72,2.23,3.83,0.9,5.88,1.05
		c5.96,0.45,12.02-0.87,17.89,0.7c8.66,2.31,16.15,7.13,23.83,11.52c5.42,3.1,10.08,7.54,14.5,11.55
		c4.38,3.97,9.11,8.12,13.13,12.88c6.08,7.2,9.99,15.04,13.16,23.62c0.66,1.78,1.06,3.43,1.06,5.25c0.01,4.17-0.44,8.39,0.1,12.49
		c1.13,8.65-2.11,15.98-6.64,22.73c-2.22,3.3-5.53,6.28-9.01,8.22c-4.94,2.75-8.01,7.56-12.92,10.3c-3.62,2.02-5.74,6.01-7.28,9.7
		c-1.2,2.88-0.37,6.05,3.07,8.03c12.31,7.05,25.54,7.98,39.21,6.34c11.86-1.42,23.88-3.99,35.65-1.98
		c10.36,1.77,21.07,3.46,30.64,8.35c2.8,1.43,5.43,1.12,8.18,1.32C1468.43,522.62,1468.43,526.62,1468.43,530.62z"/>
	<path class="st2" d="M1379.43,984.63c1.2,1.33,2.99,1.86,4.49,1.83c13.82-0.25,27.93,2.31,41.16-3.94
		c3.69-1.74,6.15-4.77,6.27-8.83c0.25-8.81,0.84-17.73-0.18-26.43c-0.76-6.53-2.88-13.32-6.1-19.02
		c-3.78-6.69-4.66-14.04-7.24-20.94c-1.87-5.01-3.59-10.09-5.37-15.14c-2.79-7.94-0.9-13.75,9.42-15.82
		c6.71-1.34,14.16-0.75,20.16-5.18c0.49-0.36,1.25-0.49,1.89-0.49c8.23,0.03,16.47,0.27,24.51-2.05c0,3.33,0,6.67,0,10
		c-14.57,1.59-28.94,4.38-43.38,6.8c-3.4,0.57-2.45,2.4-1.78,4.3c4.28,12.07,7.37,24.56,12.52,36.3c6.91,15.73,8.21,32.1,6.14,48.89
		c-1.05,8.54-6.28,14.23-13.64,17.88c-4.91,2.44-10.35,4.32-15.75,4.57c-13.31,0.61-26.67,0.53-39.39-4.51
		c-9.89-3.92-20.15-7.1-29.03-13.16c-9.2-6.28-16.23-13.91-14.34-26.39c0.53-3.48,2-6.14,4.52-8.57
		c14.07-13.58,21.25-30.27,22.16-49.73c0.23-4.99,0.58-9.97,0.79-14.95c0.15-3.58-1.51-5.62-5.08-6.74
		c-12.25-3.83-24.66-6.97-37.37-8.81c-7.83-1.13-14.62-4.26-20.41-9.69c-6.92-6.5-13.96-12.87-20.4-19.85
		c-4.07-4.41-8.28-8.73-13.59-11.67c-14-7.74-20.19-20.03-22.93-35.44c-2.07-11.64,1.52-20.87,7.34-30.12
		c4.43-7.04,10.9-11.6,17.99-15.42c13.47-7.25,27.01-14.37,40.52-21.54c0.99-0.53,1.97-1.07,3.58-1.95
		c-11.93-3.64-22.82-8.12-32.83-14.53c-10.8-6.92-20.23-15.27-26.61-26.53c-2.8-4.95-8.46-5.58-12.06-9.16
		c1.26,0.27,2.75-0.33,3.78,0.81c0.88,0.97,1.82,1.66,2.9,0.51c0.78-0.83,1.48-1.93,0.84-3.16c-2.79-5.36-1.65-11.15-1.33-16.65
		c0.49-8.21,3.98-15.57,9.46-21.73c5.95-6.69,12.98-11.83,21.43-15.28c9.05-3.69,18.24-6.51,27.96-7.37c2.9-0.25,6.76-1.08,7,3.92
		c-14,2.25-27.29,6.17-38.64,15.27c-7.52,6.03-15.26,11.47-16.3,22.45c-1.03,10.89-0.53,21.29,6.87,29.91
		c4.82,5.61,11.04,9.78,16.95,14.3c9.62,7.35,19.93,12.55,31.68,15.22c7.75,1.76,15.3,4.23,23.45,4.06
		c3.91-0.08,6.31,2.45,6.04,6.91c-0.27,4.38-2.98,5.04-6.52,4.9c-3.16-0.13-6.48,0.44-9.45-0.36c-3.41-0.92-6.15-0.39-9.01,1.28
		c-14.87,8.71-29.68,17.53-44.68,26.02c-9.79,5.54-17.05,12.94-19.55,24.18c-2.41,10.82-0.5,20.89,5.82,30.1
		c4.4,6.41,12,8.75,17.36,13.72c10.06,9.31,19.57,19.22,29.89,28.29c4.38,3.85,8.93,6.76,14.68,7.76
		c8.63,1.51,17.36,2.38,25.84,4.84c7.95,2.31,15.61,6.37,24.45,4.23c2.9-0.7,6.27-0.44,7.04,3.62c0.73,3.84-1.18,6.25-4.88,6.71
		c-6.99,0.88-8.04,5.25-7.18,11.09c0.27,1.8-0.05,3.7,0.31,5.47c1.83,8.85,0.52,17.47-1.72,26.03
		c-3.48,13.32-10.52,24.67-19.8,34.62c-3.51,3.77-3.4,7.43-1.16,11.31c3.52,6.1,9.05,10.02,15.22,13.15
		C1362.28,978.81,1370.9,981.6,1379.43,984.63z"/>
	<path class="st2" d="M1468.43,776.62c-1.71,0.16-2.25-1.09-3.33-2.13c-4.12-3.94-7.26-10-14.8-7.96c-1.93,0.52-4.42,0.66-5.43-2.13
		c-1.01-2.79,0.15-5.05,2.1-6.67c4.53-3.76,9.41-7.04,13.4-11.47c2.47-2.74,3.72-6.85,8.06-7.64
		C1468.43,751.28,1468.43,763.95,1468.43,776.62z"/>
	<path class="st2" d="M1468.43,636.62c-4.02-1.11-7.6-3.35-10.59-5.94c-2.25-1.95-4.31-2-6.73-2.06c-2.92-0.07-6.29,0.73-7.49-3.13
		c-1.15-3.72,1.8-7.2,3.88-7.82c8.05-2.39,13.97-8.06,20.93-12.05C1468.43,615.95,1468.43,626.28,1468.43,636.62z"/>
	<path class="st1" d="M1307.44,609.63c-0.24-5.01-4.1-4.18-7-3.92c-9.71,0.85-18.91,3.68-27.96,7.37
		c-8.45,3.44-15.48,8.59-21.43,15.28c-5.48,6.16-8.97,13.52-9.46,21.73c-0.33,5.5-1.46,11.29,1.33,16.65
		c0.64,1.23-0.06,2.33-0.84,3.16c-1.08,1.15-2.02,0.46-2.9-0.51c-1.03-1.14-2.52-0.54-3.78-0.81c-0.31-0.13-0.62-0.26-0.93-0.39
		c-2.54-3.66-5.73-6.08-10.5-5.46c-8.06-3.07-15.48-7.33-22.49-12.32c0.5-4.47-2.52-3.85-5.26-3.64c0,0,0.08,0.07,0.08,0.07
		c0.62-4.59-3.06-5.15-5.75-4.85c-4.34,0.48-4.53-2.26-5.07-4.96c-0.39-1.93,0.65-4.2-0.64-5.85c-4.68-6.01-7.14-13.28-13.61-18.48
		c-5.05-4.07-10.26-7.23-15.87-10.09c-7.91-4.03-15.39-8.87-23.95-11.65c-2.86-0.93-4.09-3.07-0.51-5.79
		c2.3-1.75,5.22-2.47,7.05-5.2c5.12-7.6,8.05-15.86,8.36-24.94c0.08-2.45,1.47-4.72,0.57-7.3c-5.72-16.44-16.14-29.33-29.71-39.96
		c-6.31-4.94-14.37-7.83-19.38-14.08c-6.23-7.77-14.87-8.93-23.37-11.07c-6.98-1.76-14-3.36-20.92-5.35
		c-7.03-2.02-13.89-4.69-20.95-6.61c-7.18-1.96-9.7-6.45-7.9-13.68c1.43-5.74,5.95-8.62,9.73-12.16
		c9.11-8.54,20.57-10.78,32.5-11.12c6.43-0.18,13.1-1.12,19.17,1.85c5.6,2.74,11.77,3.97,17.25,7.03
		c7.83,4.38,16.63,7.32,21.38,15.86c3.79,6.8,7.2,13.7,7.76,21.64c0.12,1.67,0.64,4.28,2.62,2.9c4.64-3.26,10.75-4.95,13.28-10.7
		c2.57-5.85,5.29-11.55,5.93-18.2c1.05-10.89,0.15-21.74-5.7-30.62c-4.55-6.9-10.44-13.4-17.58-18.46
		c-8.41-5.97-17.59-10.34-27.03-14.06c-8.83-3.48-15.32-11.04-14.36-20.24c0.77-7.42,6.07-12.86,11.9-16.79
		c3.81-2.57,5.74-6.45,9.05-9.25c1.9-1.61,1.31-4.42-0.88-6.1c-2.43-1.86-3.83-0.75-4.78,1.84c-0.31,0.83-1.32,1.47-2.11,2.06
		c-6.62,4.95-13.37,9.86-18.08,16.76c-3.42,5.01-5.91,10.34-3.53,16.98c2.77,7.71-0.09,10.54-8.11,8.85
		c-0.81-0.17-1.63-0.34-2.46-0.36c-21.68-0.73-43.09,0.51-63.78,8c-15.72,5.69-29.89,13.7-41.65,25.72
		c-1.04,1.07-2.01,2.28-3.71,2.29c-5.37-3.08-11.12-5.59-15.92-9.58c-6.69-5.56-12.94-11.36-16.65-19.67
		c-4.15-9.31-7.52-10.57-17.88-9.88c-3.47,0.23-7.02,1.28-10.34,0.81c-9.49-1.32-19.02-1.38-28.54-1.65
		c-12.3-0.34-23.12-4.38-32.83-11.81c-12.16-9.31-20.64-21.09-23.56-36.26c-0.88-4.61-1.33-9.63,0.55-14.25
		c2.47-6.06,1.41-8.15-4.28-11.54c-5.32-3.17-11.31-5.13-16.12-9.18c-3.89-3.28-8.79-4.83-13.26-7.02
		c-9.13-4.46-19.2-7.31-27.68-12.7c-11.11-7.07-23.64-10.13-35.45-15.12c-8.19-3.45-16.44-6.66-24.09-11.23
		c0.14-1.46,1.13-1.67,2.38-1.99c5.25-1.36,10.61-1.28,15.87-0.85c6.57,0.54,9.55-1.66,6.9-10.56c-0.89-2.98-1.97-5.56,0.37-8.37
		c0.62-0.74,0.45-2.22,0.47-3.37c0.15-8.1,3.61-15.24,7.11-22.16c2.86-5.66,8.2-9.52,12.92-13.73c3.28-2.93,5.89-6.63,10.47-7.99
		c9.42-2.8,18.87-4.76,28.75-2.91c10.44,1.95,21.12,3.17,30.23,9.32c1.9,1.28,3.7,2.85,5.17,4.6c2.57,3.06,2.22,7.26,1.03,10.18
		c-1.01,2.48-4.06-0.49-6.08-1.16c-12.64-4.13-24.99-6.61-37.28,1.53c-2.14,1.42-5.72,1.54-6.89,4.11
		c-2.52,5.53-6.9,10.57-5.47,17.41c0.26,1.25,0.38,3.03-0.29,3.88c-2.26,2.85-0.65,4.12,1.69,5.26c3.9,1.9,7.41,4.51,11.23,6.44
		c4.63,2.35,9.78,5.09,14.72,5.13c11.01,0.08,20.71,4.31,30.57,7.89c10.28,3.73,13.69,14.37,7.77,23.38
		c-2.6,3.96-5.37,8.22-10.47,10.14c-2.66,1-5.37,3.13-5.08,6.7c0.25,3.16,2.6,4.94,5.25,6.07c1.83,0.78,3.16,1.73,3.7,3.68
		c0.54,1.95,2.06,2.7,3.76,3.61c4.95,2.64,9.71,5.62,13.64,9.74c2.14,2.25,2.93,4.55,1.58,7.64c-3.69,8.44-3.46,17.42-0.13,25.52
		c3.68,8.96,10.57,15.82,19.7,19.95c10.82,4.89,22.71,4.43,34.06,6.69c1.42,0.28,3.87-0.17,4.29-2.53c0.37-2.08,0.05-3.66-2.45-4.66
		c-4.3-1.73-8.72-3.17-13.26-3.39c-5.16-0.25-9.86-2.46-15.11-2.6c-2.66-0.07-6.28-1.44-8.62-3.3
		c-10.35-8.19-19.13-19.74-8.83-37.87c5.45-9.6,13.64-14.74,24.19-15.16c7.44-0.29,15.1-3.06,22.55,0.67
		c1.32,0.66,3.36,0.38,4.93-0.02c2.43-0.62,4.72-1.67,4.7-4.89c-0.02-3.21-2.36-4.77-4.72-4.75c-3.64,0.03-6.71-1.45-10.02-2.32
		c-9.3-2.45-17.71-6.69-25.31-12.55c-3.53-2.72-5.07-6.1-5.08-10.75c-0.01-7.44,4.12-13.27,6.66-19.7
		c2.82-7.14,9.78-9.72,15.9-12.76c9.38-4.66,19.04-8.73,27.68-14.78c2.11-1.47,3.45-3.08,2.81-5.75c-0.68-2.83-2.98-3.39-5.35-3.57
		c-9.57-0.71-17.31-4.56-22.78-12.67c-1.94-2.87-2.44-5.67-2.18-9.21c0.3-4.18,3.44-6.81,4.27-10.5
		c2.13-9.51,7.03-17.31,14.59-23.32c5.37-4.27,10.58-8.83,16.81-11.92c0.76-0.38,2.28-0.21,1.97-1.71c-1.07-5.32,2.63-4.71,5.8-4.7
		c4.6,0.02,9.33-0.83,12.32-4.15c4.53-5.03,9.79-9.11,15.05-13.17c4.66-3.59,9.09-7.62,15.2-9.14c6.09-1.51,11.81,1.07,17.8,0.52
		c13.84-1.27,25.23,5.32,35.93,12.82c3.26,2.28,5.21,6.34,10.12,5.48c0.24-0.04,0.56,0.33,0.83,0.52
		c5.82,4.18,10.59,9.37,14.77,15.16c0.77,1.06,1.33,2.18,0.44,3.12c-1.21,1.28-2-0.38-2.92-0.86c-5.96-3.09-11.68-7.41-18.36-8.08
		c-13.78-1.38-27.73-0.9-39.97,6.48c-7.59,4.57-14.47,10.3-15.27,20.65c-1.12,14.63,9.75,23.3,20.12,20.09
		c5.94-1.83,11.4-2.55,17.38-1.51c6.32,1.1,10.77,5.89,14.83,9.6c3.48,3.19,6.06,8.86,8.17,13.84c2.24,5.3,4.64,11,0.82,16.51
		c-3.01,4.34-5.88,8.88-10.05,12.33c-1.59,1.32-2.96,2.9-1.92,5.17c0.95,2.07,2.76,2.63,4.96,2.61c5.67-0.07,11.33,0,17-0.03
		c11.22-0.07,20.82,4.41,29.54,10.91c9.51,7.08,15.58,17.04,21.23,27.16c5.55,9.93,4.5,18.96-3.56,26.74
		c-8.19,7.92-19.59,8.52-29.95,11.01c-6.09,1.46-12.2,2.93-18.14,4.81c-2.43,0.77-5.67,3.24-3.93,6.95c1.14,2.44,3.2,4.27,6.5,2.92
		c10.88-4.45,22.84-4.41,33.94-8.34c11.56-4.09,22.13-8.2,26.58-21.31c3.05-8.99,1.46-17.35-1.79-25.35
		c-3.54-8.7-9.22-16.52-16.03-22.91c-5.73-5.37-8.13-10.56-7.01-18.51c0.67-4.8,2.41-6.57,6.47-8.24
		c6.98-2.85,14.16-1.05,21.16-1.97c6.12-0.8,13.34-0.03,16.26-7.82c0.16-0.44,0.63-0.77,0.98-1.13c8.7-9.13,5.88-20.06,4.19-30.46
		c-1.04-6.42-4.66-12.56-9.17-17.01c-4.34-4.28-7.27-10.91-14.62-11.7c-1.31-0.14-3.68-1.13-2.52-2.76
		c1.29-1.82,1.35-4.21,3.62-5.68c4.86-3.16,9.1-7.17,11.77-12.46c2.17-4.29,4.85-7.43,10.29-6.95c3.31,0.29,6.66,0.05,9.99,0.04
		c5.85-0.1,11.33,1.36,16.59,3.86c4.41,2.1,8.86,4.12,13.29,6.17c-0.26,2.98,0.97,4.92,3.01,7.33c7.51,8.89,14.01,18.12,15.36,30.64
		c1.04,9.7,2.03,19.39,2.59,29.12c0.19,3.36,2.25,5.28,4.69,6.54c9.14,4.72,19.08,6.15,29.23,6.36c4.33,0.09,8.67,0.18,12.99-0.02
		c9.57-0.43,15.8,4.51,20.33,12.3c0.99,1.71,1.82,3.52,2.81,5.22c6.5,11.18,4.93,18.27-5.87,25.74c-1.86,1.29-3.78,2.34-6.17,2.95
		c-6.54,1.68-11.88,5.65-15.74,11.16c-3.23,4.62-0.99,8.7,4.58,8.62c8.85-0.13,16.51,3.2,23.31,8.32
		c10.75,8.1,20.86,17.1,33.01,23.2c2.62,1.32,4.03,3.13,3.98,6.27c-0.03,1.74,0.68,3.61,1.44,5.23c3.67,7.75,0.55,12.22-4.41,16.09
		c-3.09,2.42-5.99,5.9-10.86,5.04c-2.04-0.36-2.16,1.44-2.31,3.03c-0.65,6.72-0.74,6.52-7.48,6.92c-6.88,0.41-13.8,1.25-20.05,4.44
		c-2.03,1.04-4.04,1.2-6.1,1.69c-2.08,0.49-4.43,1.9-3.73,4.38c0.6,2.1,3.06,1.63,4.81,1.1c2.84-0.85,5.66-1.82,8.39-2.96
		c1.12-0.47,2.23-0.9,3.35-0.68c9.66,1.84,19.98,2.07,28.13,8.3c6.34,4.85,12.57,10,17.41,16.6c1.46,1.99,2.71,4.66,5.73,5.21
		c0.52,0.09,1.19,0.72,1.35,1.23c3.02,10.14,8.3,19.83,6.23,31c-0.24,1.27,0.29,3.23-1.2,3.49c-4.5,0.78-6.54,5.01-10.5,6.78
		c-14.13,6.29-23.03,18.13-29.96,31.31c-2.81,5.34-6.61,9.84-9.96,14.64c-6.46,9.22-12.61,19.03-13.61,29.88
		c-1.51,16.37-4.15,33.58,7.13,48.37c4.81,6.31,11.14,10.9,17.59,15.21c2.89,1.93,5.66,4.02,8.56,5.92
		c7.36,4.81,16.03,5.82,24.29,7.95c1.73,0.45,3.72-0.05,4.66,2.07C1314.16,607.58,1311.98,610.72,1307.44,609.63z M891.65,265.66
		c-1.33,10.68,8.81,14.82,15.59,14.36c3.38-0.23,7.13-1.28,7.76-5.66c0.61-4.32-2.58-5.76-5.84-6.85c-6.41-2.14-6.71-3.33-1.72-7.94
		c0.97-0.9,2.05-1.69,3.12-2.47c7.11-5.17,14.55-9.89,21.09-15.83c13.7-12.45,12.91-30.29-1.88-40.22
		c-6.34-4.26-7.25-6.64-5.32-14.16c0.82-3.22,1.72-6.41,2.64-9.6c0.55-1.93,0.65-3.73-1.58-4.58c-2.47-0.94-3.18,1-3.88,2.7
		c-1.01,2.45-1.88,4.96-2.88,7.42c-5.18,12.71-3.91,17.82,6.62,26.43c6.99,5.72,7.34,13.86,1.03,20.56
		c-6.8,7.22-15.6,11.77-23.29,17.81C897.12,252.32,891.26,256.97,891.65,265.66z M1152.61,218.17c-1.18-7.59-1.72-15.66-6.4-22.51
		c-0.98-1.43-2.32-3.52-4.37-2.47c-2.4,1.23-0.51,3.12,0.08,4.7c4.9,13.18,4.65,24.8-5.79,34.97c-2.62,2.55-5.4,4.94-8.04,7.47
		c-4.36,4.17-8.36,8.78-10.15,14.55c-2.52,8.13,6.17,21.97,14.71,24.18c1.96,0.51,4.09,0.7,5.53-1.16c1.47-1.9,1.26-3.99,0.27-6.12
		c-1.62-3.49-4.83-5.62-7.62-7.74c-4.85-3.68-3.61-6.94-0.96-10.99c2.87-4.37,7.03-7.47,10.44-11.29
		C1146.35,235.01,1152.11,228.11,1152.61,218.17z M1163.56,378.03c5.11,0.76,10.15-1.78,15.48-1.72c0.86,0.01,1.72-0.17,1.85-1.21
		c0.12-0.98-0.59-1.54-1.4-1.81c-2.51-0.84-5.01-1.78-7.58-2.37c-6.29-1.45-12.64-2.65-18.93-4.1c-7.07-1.63-12.02-8.72-9.22-13.71
		c1.16-2.08,1.3-3.92,1.42-6c0.15-2.58-0.46-4.74-3.38-5.22c-2.96-0.48-4.15,1.52-4.82,3.95c-1.39,5.03-1.83,10.19-1.18,15.32
		c0.79,6.23,4.32,10.81,10.08,13.24C1151.4,376.71,1157.1,378.64,1163.56,378.03z M729.71,227.79c0.2,4.76,1.54,9.05,5.89,11.85
		c2.1,1.35,4.29,1.91,6.42,0.08c2.12-1.83,0.7-3.71-0.19-5.39c-3.93-7.5-2.76-14.35,2.3-20.84c1.21-1.55,2.32-3.21,3.32-4.91
		c0.91-1.54,2.39-3.46,0.89-4.98c-1.56-1.59-3.68-0.77-5.41,0.53C735.1,210.05,730.68,217.87,729.71,227.79z M907.6,352.74
		c1.62-0.24,3.8-0.38,5.86-0.94c1.49-0.4,3.92,0.04,4.15-2c0.23-2.09-2.2-2.12-3.61-2.73c-8.48-3.65-17.66-6.09-23.11-14.63
		c-1.33-2.09-3.69-2.94-6.16-1.54c-2.71,1.53-1.93,3.82-1.16,6.11C886.82,346.71,896.33,353.1,907.6,352.74z M956.78,142.06
		c0.02,1.57-0.22,2.92,0.97,3.58c1.44,0.79,2.06-0.72,2.77-1.46c3.82-4.03,8.72-6.54,13.27-9.53c1.26-0.83,4.55,0.56,3.58-2.47
		c-0.68-2.14-3.38-2.61-5.59-2.1c-5.92,1.36-10.3,5.13-14.1,9.63C957.09,140.4,956.98,141.51,956.78,142.06z"/>
	<path class="st3" d="M695.43,251.56c7.65,4.57,15.9,7.78,24.09,11.23c11.82,4.98,24.34,8.05,35.45,15.12
		c8.48,5.4,18.55,8.24,27.68,12.7c4.48,2.19,9.37,3.74,13.26,7.02c4.81,4.05,10.8,6.01,16.12,9.18c5.69,3.39,6.75,5.47,4.28,11.54
		c-1.88,4.62-1.44,9.64-0.55,14.25c2.91,15.17,11.4,26.95,23.56,36.26c9.7,7.43,20.53,11.47,32.83,11.81
		c9.52,0.26,19.05,0.32,28.54,1.65c3.32,0.46,6.87-0.58,10.34-0.81c10.36-0.69,13.73,0.57,17.88,9.88
		c3.71,8.31,9.96,14.11,16.65,19.67c4.8,3.99,10.55,6.49,15.92,9.58c-0.39,0.89-0.65,1.87-1.19,2.65
		c-4.67,6.64-8.85,13.64-10.64,21.57c-4.96,21.99,2.9,38.58,20.63,53.63c1.4,1.19,3.08,1.99,3.16,4.12l-0.01,0.01
		c-1.09-0.38-2.25-0.62-3.26-1.16c-9.11-4.87-19.02-6.45-29.14-6.79c-11.44-0.39-22.12,2.64-32.57,7.3
		c-11.65,5.2-20.56,13.15-27.11,23.93c-0.88,1.45-1.51,3.05-3.64,2.74c-3.08-9.67-9.35-16.27-18.92-19.74
		c-1.21-0.44-2.26-1.33-3.38-2.01c1.2-5.97,0.03-8.03-6.02-9.73c-15.66-4.41-30.51-11.23-46.27-15.41c-3.49-0.93-6.24-1.01-8.78,1.1
		c-2.68,2.22-2.17,5.26-1.22,8.29c1.51,4.83,3.6,9.63,4.14,14.59c1.43,13.16,2.74,26.39,2.98,39.62
		c0.23,12.81,3.71,13.89-12.3,11.24c-10.44-1.73-21-3.02-30.97-6.93c-2.62-1.03-4.63-1.88-2.94-5.3c5.9-11.98,7.59-24.55,5.46-37.75
		c-2.06-12.71-5.43-24.76-14-34.92c-4.91-5.82-11.53-9.39-17.07-14.35c-1.38-1.24-2-2.06-1.48-4.12c1.1-4.32-0.97-7.23-5.43-7.48
		c-6.41-0.37-12.62-1.21-18.88-2.93c-14.41-3.97-28.7-8.1-41.11-16.79c-4.61-3.23-9.44-6.85-8.04-13.61
		c0.88-4.23,2.98-8.07,6.03-11.18c8.73-8.87,19.91-12.48,31.77-14.69c4.86-0.9,9.61-2.36,14.42-3.5c2.58-0.61,4.16-2.42,4.46-4.77
		c0.31-2.45-1.67-3.88-3.83-4.61c-2.34-0.8-4.74-1.47-7.15-2.02c-12.58-2.87-24.65-6.9-34.22-16.06c-6.3-6.03-8.07-11.01-4.05-19.46
		c1.27-2.66,3.06-4.8,4.83-6.83c10.2-11.65,21.93-20.05,38.61-15.46c4.01,1.1,7.22,0.69,8.5-3.39c1.19-3.8-2.01-5.39-4.83-6.99
		c-10.24-5.83-20.35-11.85-28.24-20.88c-1.33-1.52-2.72-2.97-3.21-4.97C673.47,264.74,685.73,252.84,695.43,251.56z M769.22,455.15
		c0.79-14.32-7.09-24.35-17.71-31.64c-12.31-8.45-25.88-15-41.41-15.62c-3.48-0.14-3.6-1.52-1.49-3.98
		c3.15-3.66,6.22-7.39,10.58-9.68c1.84-0.96,2.17-2.43,1.84-4.17c-0.41-2.18-2.23-2.33-3.9-2.17c-1.28,0.12-2.68,0.49-3.75,1.18
		c-5.45,3.53-10.55,7.35-14,13.17c-5.44,9.18-2.19,15.62,8.53,16.06c4.87,0.2,9.37,1.38,13.88,3.37
		c7.35,3.25,13.97,7.61,20.53,12.09c6.53,4.47,11.68,10.03,11.07,18.76c-0.25,3.63-0.84,7.25-1.34,10.86
		c-0.71,5.07,1.93,10.27,5.6,10.94c5.16,0.94,9.28-2.3,10.27-8.3C768.52,462.43,768.8,458.78,769.22,455.15z M733.44,299.04
		c3.36-0.49,7.64-0.94,11.73-2.51c2.38-0.92,4.06-2.03,4.02-4.92c-0.05-3.19-2.54-3.84-4.67-4.29c-3.41-0.71-6.91-0.3-10.4,0.18
		c-7.93,1.08-15.42,0.32-20.02-7.45c-1.67-2.82-2.71-6.03-3.89-9.12c-0.7-1.83-0.75-4.37-3.53-3.87c-2.3,0.41-3.15,2.6-2.86,4.64
		c0.75,5.38,1.44,10.83,4.38,15.62C713.79,296.42,722.64,298.83,733.44,299.04z M721.06,359.28c2.65,0,4.32,0.07,5.97-0.01
		c3.15-0.15,6.11-0.59,6.2-4.78c0.08-4.07-2.29-5.27-5.93-5.8c-3.97-0.58-7.96-0.38-11.91-0.79c-2.57-0.27-5.05-1.39-5.92-3.93
		c-0.86-2.51,1.03-4.19,2.82-5.85c2.49-2.3,5.31-3.88,8.41-5.12c1.56-0.63,3.9-0.62,3.32-3.39c-0.55-2.6-2.63-2.8-4.64-2.71
		c-5.59,0.25-10.04,3.35-14,6.74c-7.99,6.83-7.23,15.38,1.13,21.65C711.26,358.85,716.46,359.58,721.06,359.28z"/>
	<path class="st2" d="M695.43,251.56c-9.7,1.28-21.96,13.17-18.85,26.01c0.49,2,1.88,3.45,3.21,4.97c7.89,9.04,18,15.05,28.24,20.88
		c2.82,1.6,6.01,3.19,4.83,6.99c-1.28,4.08-4.48,4.5-8.5,3.39c-16.68-4.59-28.42,3.81-38.61,15.46c-1.78,2.03-3.57,4.17-4.83,6.83
		c-4.02,8.45-2.25,13.43,4.05,19.46c9.57,9.17,21.64,13.19,34.22,16.06c2.41,0.55,4.81,1.23,7.15,2.02
		c2.16,0.73,4.14,2.16,3.83,4.61c-0.29,2.35-1.88,4.15-4.46,4.77c-4.81,1.15-9.57,2.6-14.42,3.5c-11.87,2.21-23.04,5.82-31.77,14.69
		c-3.06,3.11-5.16,6.95-6.03,11.18c-1.4,6.77,3.43,10.39,8.04,13.61c12.41,8.69,26.7,12.82,41.11,16.79
		c6.26,1.72,12.47,2.56,18.88,2.93c4.46,0.26,6.53,3.16,5.43,7.48c-0.53,2.06,0.09,2.89,1.48,4.12c5.54,4.96,12.16,8.53,17.07,14.35
		c8.57,10.16,11.94,22.21,14,34.92c2.14,13.19,0.44,25.77-5.46,37.75c-1.69,3.42,0.32,4.27,2.94,5.3
		c9.98,3.91,20.53,5.21,30.97,6.93c16.01,2.65,12.53,1.56,12.3-11.24c-0.24-13.22-1.56-26.45-2.98-39.62
		c-0.54-4.96-2.63-9.76-4.14-14.59c-0.94-3.02-1.46-6.07,1.22-8.29c2.54-2.11,5.3-2.02,8.78-1.1c15.76,4.18,30.61,11,46.27,15.41
		c6.05,1.7,7.21,3.76,6.02,9.73c-12.37,2.05-22.36-5.32-33.37-8.57c-5.5-1.62-10.65-4.38-17.01-5.81
		c2.76,10.32,4.24,20.28,4.91,30.35c0.77,11.46,1.91,22.9,1.59,34.4c-0.24,8.69-3.82,12.28-12.56,11.35
		c-8.76-0.94-17.44-2.62-26.12-4.2c-2.64-0.48-5.29-0.55-7.9-0.93c-3.93-0.58-8.14-0.18-10.98-4.4c-1.21-1.79-4.31-2.3-6.54-3.42
		c-6.7-3.38-7.58-5.16-4.03-11.59c9.65-17.49,8.65-35.4,2.85-53.66c-3.81-11.99-12.55-20.01-21.53-28.14
		c-5-4.52-10.05-6.55-16.66-7.97c-20-4.31-39.8-9.82-55.99-23.54c-3.23-2.74-5.88-5.94-7.48-9.81c-0.83-2-2.1-3.29-3.82-4.35
		c5.02-1.04,1.66-5.04,2.76-7.57c-1.61,2.64-6.05,2.39-6.14,6.32c-2.62-0.76-4.86,0.57-7.21,1.31
		c-10.27,3.21-15.96,0.15-18.74-10.03c-1.44-5.3-3.45-10.39-5.98-15.27c0.49-3.21-2.68-5.06-2.53-8.73
		c0.29-7.09,2.98-12.82,6.77-18.27c2.69-3.87,1.37-5.05-2.64-5.79c-5.7-1.05-11.74-2.24-16.38-5.43
		c-16.47-11.34-14.05-25.85-0.19-37.81c5.47-4.72,11.39-8.92,17.14-13.3c2.79-2.13,2.35-3.92-0.65-5.02
		c-4.05-1.48-8.28-2.31-12.64-2.4c-4.98-0.11-12.54-4.99-12.77-8.74c-0.7-11.35,1.51-22.04,8.69-31.22
		c2.67-3.41,1.38-9.75-2.59-11.45c-2.13-0.91-4.25-1.89-6.45-2.58c-6.84-2.14-14.04-7.08-12.8-16.98
		c0.94-6.33,3.67-12.05,7.82-16.64c5.25-5.81,11.8-10.41,16.61-16.72c1.21-1.58,2.47-2.07,4.15-0.56c1.43,1.3,1.16,2.34,0.15,3.84
		c-2.7,4.05-6.5,7.03-9.8,10.49c-5.7,5.99-11.15,12.08-12.54,20.7c-0.25,1.57-0.3,2.62,1.52,2.92c2.61,5.05,7.66,5.91,12.43,7.19
		c10.05,2.68,15.4,14.74,9.32,23.27c-4.71,6.6-5.86,13.89-7.44,21.26c-0.59,2.77,0.31,4.72,3.53,5.45c3.23,0.73,6.32,1.72,9.72,1.9
		c7.29,0.38,13.44,4.26,14.33,8.94c1.34,7.01-0.72,12.71-7.1,16.59c-6.53,3.97-12.08,9.19-17.64,14.38
		c-6.57,6.13-5.13,14.83,2.99,18.57c5.61,2.59,11.71,3.56,17.53,5.42c8.72,2.79,11.09,9.55,5.62,16.81c-1.5,1.99-2.85,4.09-4.2,6.18
		c-2.41,3.74-2.86,7.85-1.42,11.94c1.88,5.32,4.05,10.54,6.28,15.71c2.9,6.72,3.63,6.95,10.58,4.68c4.12-1.35,8.24-2.6,12.43-0.06
		c2.1,1.27,1.9-0.97,2.51-1.9c4.28-6.5,8.43-12.98,15.65-16.91c6.82-3.72,14.14-6.2,21.81-9.37c-7.45-3.6-14.36-6.64-20.43-11.34
		c-14.75-11.43-17.52-26.81-5.02-41.56c7.34-8.66,14.96-16.85,26.39-20.16c2.28-0.66,4.16-1.56,0.89-4.11
		c-3.9-3.04-7.41-6.62-10.85-10.19c-3.25-3.37-6.11-7.18-6.76-11.96c-1.85-13.51,3.99-23.41,14.93-30.78
		c8.03-5.55,16.82-8.86,26.67-9.04c1.37-0.03,2.15-0.66,2.28-2.08c0.33-3.62,0.79-7.24,1.01-10.87c0.15-2.5-0.42-3.73-3.77-3.39
		c-6.74,0.7-13.29,3.14-20.2,2.38c-8.7-0.96-16.37-4.53-22.47-10.54c-3.74-3.69-5.03-4.6-9.12-1.05c-0.92,0.79-1.51,1.53-2.92,1.32
		c-5.3-0.79-10.44-0.16-15.08,2.65c-4.74,2.86-9.44,1.36-13.01-1.34c-4.02-3.04-3.16-8.41-1.8-12.55c1.97-6.03,2.18-12.47,5-18.31
		c1.01-2.08-1.94-3.52-3.2-5.15c-0.93-1.19-2.29-1.19-3.57-0.28c-4.56,3.25-9.77,3.18-15.1,3.39c-4.89,0.2-8.34-0.49-8.71-6.16
		c0.83-1.11,2.08-1.18,3.18-0.88c5.44,1.45,10.68,1.38,15.93-1.01c3.75-1.71,7.77-2.49,12.01-2.13c3.1,0.26,5.57,1.84,5.63,4.6
		c0.09,4.67,0.57,9.26-0.91,14.14c-1.42,4.67-3.47,9.6-2.86,14.84c0.28,2.43,1.07,3.53,3.84,3.09c7.93-1.27,15.13-4.3,21.49-9.04
		c2.71-2.02,5.15-2.05,7.81-0.8c7.61,3.56,15.12,7.33,20.71,13.9c1.05,1.24,2.2,1.52,3.52,1.03c4.4-1.64,9.7,0.67,13.65-3.39
		c0.95-0.98,3.22-0.51,4.82,0.12c2.26,0.9,4.61,0.46,6.92,0.52c1.71,0.04,2.68-0.8,3.22-2.5c2.02-6.33,5.25-11.82,9.62-17.03
		c12.15-14.5,27.15-22.03,46.15-21.45c6.27,0.19,12.42,0.27,18.69,1.77c7.7,1.84,15.37,4.01,22.13,7.65
		c11.13,5.98,15.03,16.81,15.46,29.04c0.11,3.1,0.13,6.18-3.03,7.85c-3.2,1.68-5.98,0.37-8.79-1.48c-3.19-2.09-5.58-6.22-9.28-6.46
		c-9.71-0.64-19.9-5.53-29.05,1.73c-3.87,3.07-8.77,5.69-9.73,11.06c-0.97,5.39,3.53,10.21,9.57,12.93
		c7.66,3.46,16.04,3.44,23.92,5.76c2.2,0.65,3.94,2.73,6.49,2.15c6.78-1.53,11.94,3.16,17.35,5.45c9.02,3.82,13.29,11.96,13.66,22.1
		c0.27,7.34-1.62,13.36-7.51,17.98c-2.56,2.01-4.9,4.27-7.38,6.45c3.68,3.62,8.76,4.08,12.25,7.12c3.24,2.81,7.24,4.28,10.56,7.2
		c4.34,3.82,6.88-3.81,11.16-3.86c0.48-0.01,0.96-0.35,1.44-0.36c3.99-0.1,6.42-2.75,9.67-5.46c-3.58-0.92-5.75-3.18-7.81-4.96
		c-5.67-4.94-11.61-9.65-11.73-18.84c-0.12-9.32,1.44-17.85,6.55-25.42c3.11-4.61,5.74-9.66,11.65-12.26
		c5.64-2.49,10.84-5.83,16.94-7.58c2.91-0.83,5.15-3.97,7.7-6.07c-1.93-2.11-3.8-4.23-6.21-5.88c-8.57-5.85-13.59-13.59-12.35-24.42
		c0.72-6.31,4.57-11.58,7.14-17c3.14-6.63,6.42-14.15,13.55-18.23c1.07-0.61,1.36-1.41,1.16-2.46c-0.23-1.23-1.26-1.58-2.28-1.43
		c-4.56,0.64-7.59-2.45-10.55-4.84c-3.26-2.63-6.54-3.23-10.49-3.28c-9.16-0.1-18.13,1.81-27.21,2.5
		c-4.48,0.34-9.56,1.63-14.12,4.78c-5.4,3.73-11.46,7.11-19.03,7.05c-8.46-0.06-15.53-2.05-22.32-7.11
		c-5.02-3.74-11.55-5.23-16.61-9.1c-4.92-3.77-10.41-4.17-16.33-4.21c-3.68-0.02-4.8,3.64-7.64,3.99
		c-6.94,0.85-12.33,5.09-18.15,8.19c-6.31,3.36-10.7,2.74-14.37-3.6c-1.4-2.41-2.95-3.78-6.02-2.88c-4.06,1.2-8.39,0.14-12.59,2.17
		c-2.86,1.38-6.88,1.21-10.19,0.63c-6.05-1.06-11.2,1.02-16.51,3.16c-4.99,2.01-9.26,5.75-14.75,6.47
		c-12.51,1.63-23.96-3.2-35.7-6.18c-2.4-0.61-3.94-3.1-2.79-5.06c3-5.11-1.01-5.04-3.85-6.1c-1.54-0.58-2.99-1.4-4.51-2.05
		c-4.59-1.97-8.71-0.46-10.67,4.08c-4.19,9.71-10.53,11.69-20.26,10.85c-6.25-0.54-12.55-1.08-18.7,0.92
		c-0.63,0.21-1.25,0.51-1.9,0.61c-5.54,0.89-11.62,3.71-14.73-4.17c-0.41-1.04-1.76-0.65-2.68-0.93c-9-2.74-18.71-2.85-27.18-7.63
		c-1.39-0.79-3.8-0.7-5.38-0.09c-7.07,2.72-14.35,4.55-21.75,6.02c-5.92,1.17-11.97,1.51-17.74,3.65c-3.59,1.33-7.03-1.65-10.5-1.69
		c-4.55-0.06-8.04-3.28-9.68-5.56c-2.74-3.81-5.33-2.8-8.01-2.04c-7.01,1.97-12.55,7.31-20.16,8.39c-4.88,0.69-7.78-0.57-8.59-5.64
		c-0.58-3.62-0.81-7.18-0.78-10.86c0.05-5.22-3.79-8.45-9.05-8.49c-15.63-0.1-31.26-0.09-46.86,1.06
		c-3.59,0.27-7.71,0.12-10.56,1.85c-3.79,2.29-3.66,12.24-0.67,16.08c-2.83,0.96-4.67,2.82-4.78,5.89
		c-0.11,3.05-1.92,5.29-4.25,6.33c-4.93,2.21-10.16,3.17-15.74,3.2c-4.75,0.02-8.16-4.53-12.71-3.27c-4.62,1.28-9.2,0.77-13.71,0.56
		c-8.12-0.37-14.38-3.02-13.83-12.81c0.26-4.57-3.4-7.44-5.45-10.92c-0.96-1.63-3.61,0.52-5.57,0.07c-1.49-0.35-3.52,0.58-3.93-1.93
		c0.66-0.03,1.31-0.05,1.97-0.08c0.5,0.8,1.43,1.33,2.04,0.68c0.85-0.91-0.36-1.27-0.95-1.71c-6.33-2.69-11.56,0.8-17.03,3
		c-3.34,1.85-5.22,4.62-6.18,8.37c-1.26,4.91-2.33,10.61-7.5,12.69c-5.11,2.05-10.66,3.67-16.44,2.91
		c-7.01-0.93-13.2-3.16-15.28-10.82c-0.75-2.75-1.76-5.07-3.61-7.28c-2.58-3.08-7.93-4.82-12.42-3.6c-3.91,1.06-4.62,3.61-4.79,7.43
		c-0.36,8.16-7.29,15.63-17.24,10.58c-6.09-3.09-11.57-8.2-19.86-6.86c-3.87,0.62-8.1-0.55-11.74,2c-3.39,2.38-4.26,6.93-7.86,9.24
		c-0.54,0.35-0.62,2.5-0.1,3.2c1.52,2.02,0.65,4.18,0.93,6.25c-1.06-3.15-1.66-6.56-6.62-4.91c-2.26,0.75-3.56-1.26-3.85-3.49
		c-0.35-2.7,1.81-1.68,3.03-1.88c2.63-0.44,3.22-2.81,4.06-4.59c3.39-7.2,8.88-11.28,16.77-12.16c4.71,1,9.62-1.12,14.26,0.93
		c4.44,1.86,8.88,3.71,13.31,5.58c5.43,2.29,7.47,1.03,8.02-5.01c0.38-4.19,0.88-8.17,4.92-10.85c10.01-6.66,25.22-0.99,27.89,11
		c2.11,9.49,3.33,7.87,13.75,8.91c7.54,0.76,10.95-2.21,12.77-8.96c3.18-11.8,9.61-16.44,24.74-17.86
		c10.72-1.01,20.22,4.99,23.68,14.96c0.38,1.08,0.67,2.11,0.6,3.36c-0.36,6.67,0.6,7.83,7.19,8.57c2.47,0.28,4.99,0.1,7.49,0.13
		c5.97,0.07,11.96-0.4,17.83,1.34c2.58,0.76,5.28,0.46,7.94,0.11c6.13-0.81,8.03-2.56,9.13-8.55c0.75-4.08,1.31-8.2,2.27-12.23
		c1.7-7.19,5.09-10.09,12.6-10.44c17.78-0.83,35.57-1.59,53.37-2.14c8.71-0.27,12.89,3.74,13.95,12.63
		c0.35,2.97,0.85,5.98,0.71,8.95c-0.19,4.14,1.64,4.01,4.46,2.65c3.89-1.87,7.79-3.71,11.67-5.61c8.03-3.93,15.39-3.11,22.11,2.94
		c4.86,4.38,10.05,6.06,16.39,2.72c2.4-1.26,5.43-1.45,8.22-1.81c9.27-1.19,18.17-3.82,27-6.73c3.26-1.07,6.61-1.37,9.68,0.41
		c5.66,3.28,11.89,4.32,18.21,4.55c4.88,0.18,8.79,1.99,11.86,5.47c2.64,3,5.35,3.38,8.83,1.82c8.03-3.59,16.39-3.78,24.95-2.31
		c6.07,1.05,8.44-0.59,10.38-6.54c2.72-8.32,5.23-9.78,14.06-8.45c5.78,0.87,11.43,2.19,16.87,4.33c3.92,1.54,7.18,3.76,6.69,8.7
		c-0.17,1.74,0.65,2.24,2.18,2.59c12.21,2.78,24.41,5.52,36.05-1.89c5.97-3.8,12.71-3.7,19.32-3.88c8.69-0.25,17.07-2.68,25.75-3.05
		c7.38-0.31,8.45-0.14,11.17,6.62c1.29,3.21,2.84,1.33,4.19,0.63c9.31-4.84,18.66-9.47,28.91-12.14c6.89-1.8,13.03-1.51,18.7,3.36
		c2.36,2.03,5.24,3.57,8.09,4.9c5.54,2.57,11.04,4.97,16.12,8.62c8.47,6.08,17.53,3.37,25.34-1.44c12.19-7.51,25.37-9.27,39.16-9.23
		c3.16,0.01,6.31-0.41,9.47-0.52c4.61-0.16,8.95,0.75,12.72,3.59c3.25,2.45,6.81,3.42,10.77,2.11c4.88-1.61,10.74-0.24,14.59-5.11
		c1.2-1.52,3.47-0.82,5.26-0.8c9.38,0.13,16.79-2.69,22.34-11.14c8.22-12.51,20.65-17.59,35.54-19.04
		c18.86-1.84,34.83,4.89,50.5,13.73c9.73,5.49,19.28,11.23,26.49,20.05c0.31,0.38,0.78,1.07,1.04,1.01
		c7.53-1.72,9.33,5.33,12.85,8.98c6.62,6.87,15.77,9.76,24.97,6.63c9.83-3.35,17.65-8.76,22.19-18.6c1.45-3.13,3.93-6.15,8.99-3.61
		c4.93,2.48,10.88,0.64,16.24,1.94c-3.33,0-6.69,0.25-9.99-0.04c-5.44-0.47-8.12,2.66-10.29,6.95c-2.68,5.29-6.91,9.3-11.77,12.46
		c-2.26,1.47-2.32,3.86-3.62,5.68c-1.16,1.63,1.2,2.62,2.52,2.76c7.36,0.79,10.28,7.42,14.62,11.7c4.51,4.44,8.13,10.59,9.17,17.01
		c1.69,10.4,4.51,21.34-4.19,30.46c-0.34,0.36-0.81,0.69-0.98,1.13c-2.92,7.79-10.14,7.02-16.26,7.82c-7,0.92-14.19-0.89-21.16,1.97
		c-4.06,1.66-5.8,3.43-6.47,8.24c-1.11,7.95,1.29,13.14,7.01,18.51c6.81,6.39,12.49,14.21,16.03,22.91c3.26,8,4.85,16.35,1.79,25.35
		c-4.45,13.11-15.02,17.22-26.58,21.31c-11.1,3.93-23.06,3.88-33.94,8.34c-3.29,1.35-5.36-0.48-6.5-2.92
		c-1.74-3.7,1.5-6.18,3.93-6.95c5.94-1.88,12.05-3.35,18.14-4.81c10.36-2.49,21.75-3.09,29.95-11.01
		c8.06-7.79,9.11-16.81,3.56-26.74c-5.65-10.12-11.73-20.08-21.23-27.16c-8.72-6.49-18.32-10.98-29.54-10.91
		c-5.67,0.04-11.33-0.04-17,0.03c-2.2,0.03-4.01-0.54-4.96-2.61c-1.04-2.27,0.33-3.85,1.92-5.17c4.16-3.45,7.03-7.99,10.05-12.33
		c3.82-5.51,1.43-11.21-0.82-16.51c-2.11-4.98-4.68-10.66-8.17-13.84c-4.06-3.72-8.51-8.5-14.83-9.6
		c-5.98-1.04-11.44-0.33-17.38,1.51c-10.37,3.2-21.24-5.47-20.12-20.09c0.79-10.35,7.68-16.08,15.27-20.65
		c12.24-7.38,26.19-7.86,39.97-6.48c6.68,0.67,12.4,4.99,18.36,8.08c0.92,0.47,1.71,2.13,2.92,0.86c0.89-0.94,0.33-2.05-0.44-3.12
		c-4.17-5.79-8.95-10.98-14.77-15.16c-0.27-0.19-0.59-0.56-0.83-0.52c-4.9,0.87-6.86-3.2-10.12-5.48
		c-10.71-7.5-22.09-14.09-35.93-12.82c-5.99,0.55-11.72-2.04-17.8-0.52c-6.12,1.52-10.55,5.54-15.2,9.14
		c-5.26,4.06-10.52,8.13-15.05,13.17c-2.99,3.33-7.72,4.17-12.32,4.15c-3.17-0.01-6.87-0.63-5.8,4.7c0.3,1.5-1.21,1.33-1.97,1.71
		c-6.23,3.09-11.44,7.65-16.81,11.92c-7.56,6.02-12.46,13.82-14.59,23.32c-0.83,3.69-3.96,6.31-4.27,10.5
		c-0.26,3.54,0.24,6.34,2.18,9.21c5.47,8.11,13.21,11.96,22.78,12.67c2.38,0.18,4.68,0.74,5.35,3.57c0.64,2.68-0.7,4.28-2.81,5.75
		c-8.64,6.05-18.3,10.11-27.68,14.78c-6.13,3.05-13.08,5.62-15.9,12.76c-2.54,6.43-6.67,12.26-6.66,19.7
		c0.01,4.65,1.55,8.04,5.08,10.75c7.6,5.86,16.01,10.1,25.31,12.55c3.31,0.87,6.37,2.36,10.02,2.32c2.36-0.02,4.71,1.54,4.72,4.75
		c0.02,3.22-2.28,4.26-4.7,4.89c-1.57,0.4-3.61,0.69-4.93,0.02c-7.44-3.74-15.11-0.97-22.55-0.67
		c-10.55,0.42-18.74,5.56-24.19,15.16c-10.29,18.13-1.52,29.68,8.83,37.87c2.34,1.85,5.96,3.23,8.62,3.3
		c5.25,0.13,9.95,2.35,15.11,2.6c4.54,0.22,8.95,1.66,13.26,3.39c2.5,1,2.82,2.58,2.45,4.66c-0.42,2.36-2.86,2.81-4.29,2.53
		c-11.35-2.26-23.24-1.81-34.06-6.69c-9.13-4.12-16.02-10.99-19.7-19.95c-3.33-8.1-3.55-17.08,0.13-25.52
		c1.35-3.1,0.57-5.39-1.58-7.64c-3.93-4.12-8.69-7.1-13.64-9.74c-1.7-0.91-3.23-1.66-3.76-3.61c-0.53-1.95-1.87-2.9-3.7-3.68
		c-2.64-1.13-5-2.91-5.25-6.07c-0.28-3.58,2.42-5.7,5.08-6.7c5.1-1.92,7.87-6.17,10.47-10.14c5.91-9.02,2.5-19.65-7.77-23.38
		c-9.85-3.58-19.56-7.8-30.57-7.89c-4.94-0.04-10.09-2.78-14.72-5.13c-3.82-1.93-7.33-4.54-11.23-6.44
		c-2.33-1.13-3.95-2.41-1.69-5.26c0.68-0.85,0.56-2.63,0.29-3.88c-1.43-6.84,2.95-11.88,5.47-17.41c1.17-2.57,4.75-2.69,6.89-4.11
		c12.28-8.13,24.64-5.66,37.28-1.53c2.02,0.66,5.07,3.64,6.08,1.16c1.19-2.93,1.54-7.12-1.03-10.18c-1.47-1.75-3.27-3.32-5.17-4.6
		c-9.12-6.15-19.8-7.37-30.23-9.32c-9.87-1.85-19.33,0.12-28.75,2.91c-4.58,1.36-7.19,5.06-10.47,7.99
		c-4.72,4.21-10.06,8.08-12.92,13.73c-3.5,6.93-6.97,14.06-7.11,22.16c-0.02,1.15,0.15,2.63-0.47,3.37
		c-2.33,2.81-1.25,5.4-0.37,8.37c2.65,8.9-0.33,11.11-6.9,10.56c-5.26-0.43-10.62-0.51-15.87,0.85
		C696.57,249.89,695.57,250.1,695.43,251.56z M1099.02,224.61c3.83,0,6.5,0.09,9.16-0.02c5.85-0.25,10.79-3.85,12.74-8.23
		c2.93-6.56,2.66-14.43-0.02-21.27c-5.82-14.87-15.21-25.75-32.77-26.66c-4.16-0.22-8.7-1.2-12.22-3.27
		c-2.84-1.66-5.84-3.01-8.7-4.61c-2.38-1.33-2.82-0.42-2.34,2.07c1.05,5.41,4.46,9.89,5.62,15.3c0.43,2,1.23,3.47-0.89,4.55
		c-1.68,0.86-2.88,3.22-5.55,0.88c-5.23-4.59-10.04-9.53-14.47-14.87c-5.84-7.03-13.68-11.07-22.09-13.79
		c-7.07-2.28-14.41-0.75-21.69-0.2c-12.62,0.97-20.64,7.64-22.82,19.95c-0.96,5.4,1.26,8.14,6.62,8.17c3.16,0.01,6.33,0,9.49,0.01
		c11.29,0.05,20.7,4.82,28.86,12.12c7.41,6.63,11.86,15.36,15.04,24.58c2.01,5.83-0.26,11.61-2.55,17.04
		c-0.61,1.45-3.56,1.88-2.28,4.27c1.23,2.29,3.6,1.98,5.78,1.99c6.37,0.03,12.58-0.43,18.54,3.47c4.65,3.04,8.27,0.11,9.09-5.26
		c0.53-3.49,0.56-7.89,3.69-10.01C1082.7,225.78,1091.18,223.87,1099.02,224.61z"/>
	<path class="st1" d="M576.33,227.66c-1.82-0.3-1.77-1.35-1.52-2.92c1.39-8.62,6.84-14.71,12.54-20.7c3.29-3.46,7.1-6.44,9.8-10.49
		c1-1.5,1.28-2.54-0.15-3.84c-1.67-1.52-2.94-1.03-4.15,0.56c-4.81,6.3-11.36,10.91-16.61,16.72c-4.15,4.59-6.88,10.31-7.82,16.64
		c-4.74-2.19-9.66-3.4-14.95-3.02c-15.54,1.12-31.06,2.8-46.69,2.08c-0.8-0.04-1.61,0.35-2.43,0.46c-11.3,1.5-22.48,3.82-33.76,5.29
		c-18.6,2.42-37.39,2.64-56.15,2.17c-3.85-0.1-7.47,1.49-11.37,0.98c-12.8-1.69-25.73-1.68-38.59-2.73
		c-13.23-1.08-26.61-0.24-39.93-0.25c-13.03-2.14-25.23-7.34-38.08-10.19c-35.31-7.83-70.86-14.21-106.56-19.95
		c-16.03-2.58-31.67-6.95-43.73-19.02c-3.04-3.04-6.23-6.08-6.78-10.73c-0.27-2.07,0.59-4.24-0.93-6.25c-0.53-0.7-0.44-2.85,0.1-3.2
		c3.6-2.31,4.47-6.86,7.86-9.24c3.63-2.55,7.87-1.37,11.74-2c8.29-1.34,13.77,3.77,19.86,6.86c9.95,5.04,16.87-2.43,17.24-10.58
		c0.17-3.82,0.88-6.37,4.79-7.43c4.49-1.22,9.84,0.52,12.42,3.6c1.85,2.21,2.86,4.53,3.61,7.28c2.08,7.66,8.27,9.89,15.28,10.82
		c5.79,0.76,11.33-0.86,16.44-2.91c5.17-2.08,6.24-7.78,7.5-12.69c0.96-3.75,2.84-6.52,6.18-8.37c1.64,0,3.28,0,4.91,0
		c1.68-0.26,3.62,0.72,5-1.03c1.13-1.34,2.64-0.87,4.06-0.86c0.41,2.51,2.44,1.58,3.93,1.93c1.96,0.45,4.61-1.7,5.57-0.07
		c2.05,3.48,5.7,6.35,5.45,10.92c-0.55,9.79,5.71,12.45,13.83,12.81c4.51,0.2,9.09,0.72,13.71-0.56c4.55-1.26,7.96,3.29,12.71,3.27
		c5.58-0.03,10.81-0.99,15.74-3.2c2.32-1.04,4.13-3.28,4.25-6.33c0.11-3.08,1.95-4.93,4.78-5.89c7.24,1.32,14.59,1.42,21.85,0.92
		c14.86-1.02,24.94,6.39,34.48,16.74c6.27,6.8,13.89,12.6,23.76,14.54c8.9,1.75,17.97,1.44,26.76,1.42
		c21.8-0.05,43.44,2.55,65.21,2.53c10.82-0.01,21.56-1.08,32.36-1.13c4.94-0.02,9.78,0.12,14.74-1.55c2.78-0.93,5.57-2.91,8.83-2.46
		c3.99-0.48,8.13,1.04,12-0.95c4.41-0.65,8.64,1.08,13.01,0.94c0.37,5.67,3.82,6.35,8.71,6.16c5.33-0.21,10.53-0.14,15.1-3.39
		c1.29-0.92,2.65-0.92,3.57,0.28c1.26,1.62,4.21,3.06,3.2,5.15c-2.83,5.83-3.03,12.28-5,18.31c-1.35,4.14-2.22,9.51,1.8,12.55
		c3.57,2.7,8.27,4.2,13.01,1.34c4.65-2.8,9.78-3.44,15.08-2.65c1.4,0.21,2-0.52,2.92-1.32c4.09-3.55,5.39-2.64,9.12,1.05
		c6.1,6.01,13.77,9.58,22.47,10.54c6.91,0.77,13.45-1.68,20.2-2.38c3.34-0.35,3.91,0.88,3.77,3.39c-0.21,3.63-0.68,7.25-1.01,10.87
		c-0.13,1.43-0.91,2.06-2.28,2.08c-9.85,0.18-18.64,3.5-26.67,9.04c-0.12-2.04-1.44-2.52-3.22-3.12
		c-6.73-2.24-13.64-3.19-20.64-4.25c-9.65-1.46-19.31-3.56-28.51-7c-4.81-1.8-9.9-2.02-14.67-3.46c-11.83-3.58-23.9-4.87-36.15-5.2
		C577,224.53,576.35,225.73,576.33,227.66z"/>
	<path class="st2" d="M877.71,528.64c2.14,0.31,2.76-1.29,3.64-2.74c6.56-10.78,15.47-18.74,27.11-23.93
		c10.44-4.66,21.12-7.69,32.57-7.3c10.12,0.34,20.03,1.93,29.14,6.79c1.01,0.54,2.17,0.78,3.26,1.16c0.36,0.25,0.73,0.5,1.09,0.75
		c0.08-0.13,0.17-0.26,0.25-0.39c-0.45-0.12-0.89-0.25-1.34-0.37c-0.08-2.13-1.76-2.94-3.16-4.12
		c-17.73-15.05-25.59-31.64-20.63-53.63c1.79-7.93,5.97-14.93,10.64-21.57c0.55-0.78,0.8-1.76,1.19-2.65
		c1.7-0.01,2.67-1.22,3.71-2.29c11.75-12.02,25.93-20.03,41.65-25.72c20.7-7.49,42.1-8.73,63.78-8c0.82,0.03,1.65,0.19,2.46,0.36
		c8.02,1.69,10.88-1.13,8.11-8.85c-2.38-6.65,0.1-11.97,3.53-16.98c4.71-6.9,11.45-11.81,18.08-16.76c0.79-0.59,1.8-1.22,2.11-2.06
		c0.95-2.59,2.36-3.7,4.78-1.84c2.19,1.68,2.78,4.49,0.88,6.1c-3.31,2.81-5.24,6.69-9.05,9.25c-5.84,3.93-11.13,9.37-11.9,16.79
		c-0.96,9.2,5.54,16.76,14.36,20.24c9.44,3.72,18.62,8.1,27.03,14.06c7.14,5.06,13.03,11.56,17.58,18.46
		c5.85,8.88,6.75,19.73,5.7,30.62c-0.64,6.65-3.36,12.35-5.93,18.2c-2.53,5.76-8.64,7.45-13.28,10.7c-1.97,1.39-2.5-1.23-2.62-2.9
		c-0.56-7.94-3.97-14.84-7.76-21.64c-4.76-8.54-13.55-11.48-21.38-15.86c-5.48-3.07-11.65-4.29-17.25-7.03
		c-6.07-2.97-12.74-2.03-19.17-1.85c-11.93,0.34-23.39,2.58-32.5,11.12c-3.78,3.54-8.3,6.43-9.73,12.16
		c-1.8,7.23,0.72,11.72,7.9,13.68c7.06,1.92,13.91,4.59,20.95,6.61c6.91,1.99,13.94,3.59,20.92,5.35c8.5,2.14,17.15,3.3,23.37,11.07
		c5.01,6.25,13.06,9.13,19.38,14.08c13.56,10.62,23.98,23.52,29.71,39.96c0.9,2.58-0.49,4.85-0.57,7.3
		c-0.31,9.08-3.25,17.33-8.36,24.94c-1.84,2.73-4.75,3.45-7.05,5.2c-3.57,2.72-2.35,4.86,0.51,5.79
		c8.57,2.78,16.05,7.62,23.95,11.65c5.61,2.86,10.82,6.03,15.87,10.09c6.47,5.21,8.93,12.48,13.61,18.48
		c1.29,1.65,0.25,3.93,0.64,5.85c0.54,2.7,0.74,5.44,5.07,4.96c2.69-0.29,6.36,0.26,5.75,4.85c-6.59-3.2-6.24-3.17-6.85,4.6
		c-1.94,24.83-12.44,44.51-35.02,56.64c-4.76,2.55-9.56,5.02-14.35,8.07c16.58-1.4,30.38,7.07,44.53,12.92
		c17.51,7.23,25.96,22.51,27.87,41.2c1.56,15.3-3.25,28.92-11.64,41.45c-5.48,8.19-14.27,11.08-23.05,13.83
		c-2.85,0.89-5.82,1.42-8.76,1.97c-5.25,0.98-9.05,3.95-11.81,8.37c-1.41,2.26-2.98,4.48-3.98,6.92
		c-6.77,16.58-21.57,19.8-36.69,20.97c-14.77,1.15-29.69,0.08-44.5,1.88c-3.37,0.41-4.13,1.67-4.92,4.72
		c-3.53,13.6-2.31,27.37-2.2,41.13c0.11,13.95,4.18,27.27,6.43,40.88c0.79,4.8,3.69,8.84,6.57,12.77
		c3.84,5.23,7.63,10.51,11.18,15.95c8.92,13.66,8.34,27.11-0.87,40.8c-7.04,10.48-16.55,17.43-27.96,22.39
		c-9.18,3.99-18.67,3-28.07,2.46c-22.79-1.32-44.08-7.99-63.76-19.56c-5.18-3.05-9.56-7.2-13.66-11.62
		c-8.74-9.42-11.61-18.65-5.11-32.64c8.31-17.87,15.12-36.44,22.41-54.78c6.66-16.75,6.2-34.18,4.6-51.7
		c-0.47-5.15-0.8-10.38,0.36-15.42c0.68-2.94-0.64-5.4-0.71-8.11c-0.05-1.97-1.68-1.23-2.64-1.12
		c-37.91,4.26-74.19-3.36-109.77-15.4c-11-3.72-20.47-10.4-28.52-18.84c-8.72-9.15-17.7-18.13-22.42-30.28
		c-7.42-19.09,0.31-49.17,16.31-61.97c12.47-9.97,25.21-19.6,40.91-23.99c-0.22-2.09-1.74-2.29-2.81-2.92
		c-3.58-2.12-7.15-4.26-10.81-6.24c-16.37-8.84-24.79-22.09-23.36-41.1c0.44-5.79,0.08-11.61,0.77-17.44
		c1.31-11.12,7.14-18.98,16.03-25.25c15.94-11.24,33.5-12.71,52.03-9.44c2.94,0.52,7.13,2.71,8.6-0.66c1.2-2.74-3.33-3.96-5.43-5.5
		c-9.09-6.67-16.32-15.14-23.8-23.42c-9.15-10.13-9.45-21.42-5.22-33.54C877.02,533.47,878.6,531.3,877.71,528.64z M977.41,504.65
		c0.15,0.14,0.31,0.27,0.46,0.41c-0.14-0.15-0.27-0.31-0.41-0.46c-0.16-0.14-0.32-0.27-0.48-0.41
		C977.13,504.33,977.27,504.49,977.41,504.65z M1053.41,892.64c0-3.35,0-6.71,0-10.06c0.8-6.71,3.91-12.96,3.97-19.79
		c0.02-2.45,0.61-3.53,3.19-4.58c4.83-1.97,9.95-3.38,14.84-3.36c12.99,0.07,25.9-1.78,38.87-1.18c8.76,0.41,15.87-4.34,23.68-6.93
		c0.69-0.23,1.3-1.03,1.7-1.71c2.06-3.57,3.83-7.34,6.11-10.76c1.86-2.78,2.6-5.28,1.82-8.75c-1.06-4.7,0.96-6.73,5.93-6.88
		c5.3-0.16,10.63,0.3,15.87-1.04c11.11-2.85,21.63-6.53,26.29-18.53c2.85-7.36,6.73-14.39,5.82-22.79c-0.46-4.2-0.7-8.28-1.82-12.51
		c-2.45-9.29-7.64-16.3-14.94-22c-7.62-5.94-17.64-6.45-25.91-11.13c-5.3-3-11.37-5.06-17.57-3.93c-6.95,1.26-11.17-3.47-16.3-6.24
		c-1.64-0.88-1.98-2.59-0.6-4.26c1.84-2.22,4.09-4.78,6.63-5.05c5.92-0.64,9.6-5.07,14.49-7.36c3.52-1.65,8.02-2.83,8.29-8.13
		c0.05-0.92,1.23-1.13,2.04-1.01c2.38,0.34,3.43-1.32,4.91-2.7c4.6-4.29,8.13-9.26,10.97-14.85c3.85-7.56,6.79-15.2,6.88-23.97
		c0.09-9.38-4.69-16.81-8.66-24.51c-3.3-6.39-8.67-10.97-15.29-14.4c-6.24-3.23-13.14-3.71-19.46-6.1
		c-8.89-3.36-17.94-5.5-27.32-6.56c-5.96-0.67-7.93-5.1-4.43-9.8c3.86-5.18,8.56-8.97,15.39-9.19c1.02-0.03,1.77-0.31,2.55-1.17
		c4.06-4.45,8.4-8.58,11.41-13.98c3.56-6.39,4.17-13.44,1.87-19.6c-5.89-15.78-17.31-27.54-30.86-37.21
		c-7.53-5.38-16.04-9.11-24.1-13.59c-13.1-7.3-27.39-9.98-41.79-12.35c-11.44-1.88-22.29-11.35-23.53-20.65
		c-1.38-10.34,2.83-18.16,9.98-24.74c13.22-12.17,29.57-15.89,46.81-15.5c14.11,0.32,27.47,4.93,39.95,11.34
		c7.51,3.86,15.39,7.58,20.48,15.02c2.9,4.24,5.38,8.6,6.95,13.5c0.37,1.16,0.82,2.83,2.5,2.72c1.61-0.11,1.81-1.72,2.3-2.93
		c2.54-6.31,2.49-12.95,2.05-19.52c-0.53-7.92-4.38-15.73-9.21-20.6c-9.81-9.92-21.04-19.08-35.72-21.73
		c-5.98-2.23-11.77-4.68-18.31-5.59c-5.42-0.76-10.88-0.99-16.27-1.82c-10.82-1.67-21.66-0.37-32.21,1.14
		c-15.99,2.29-30.25,10.1-44.61,17.22c-8.48,4.21-15.79,10.12-21.46,17.36c-10.91,13.97-12.65,29.39-4.28,45.51
		c1.83,3.52,2.21,8.12,5.36,10.56c10.13,7.85,18.59,18.21,31.74,21.68c1.28,0.34,3.24,0.89,2.78,2.91
		c-0.46,1.98-2.02,2.89-4.08,3.02c-1.91,0.12-3.58-0.45-5.26-1.26c-4.55-2.18-9.13-4.29-14.73-6.9c1.73,3.08,2.94,5.25,4.27,7.62
		c-2.57,0.82-4.26-0.29-5.82-1.42c-14.23-10.32-30.73-12.09-47.03-9.51c-19.12,3.02-34.7,13.36-43.73,31.16
		c-5.07,10-6.9,20.69,2.56,30.18c7.83,7.86,15.19,16.18,24.64,22.23c8.31,5.31,16.91,10.19,26.96,10.8c14.17,0.86,28.24,0,41.72-5.1
		c3.54-1.34,6.26,0.03,7.35,3.04c1.13,3.12,1.07,6.48-3.14,8.24c-9,3.76-18.49,4.89-28.03,5.91c-13.51,1.44-26.72-2.97-40.25-2.07
		c-4.56,0.31-9,1.21-13.81,0.59c-9.64-1.25-19.39-2.8-29.21-0.63c-7.43,1.64-14.15,5.02-20.2,9.15c-4.72,3.22-8.66,7.54-10.47,13.96
		c-2.03,7.19-1.28,14.19-1.39,21.25c-0.16,10.3,2.28,19.64,11.28,26.25c2.3,1.69,4.77,3.01,7.16,4.46
		c5.77,3.5,11.47,7.93,18.15,8.77c14.76,1.84,29.38,5.77,44.46,4.26c4.48-0.45,5.59,2.55,5.7,5.8c0.13,3.71-2.47,5.84-6,5.9
		c-13.95,0.23-27.9,0.2-41.84,0.34c-3.49,0.04-6.83,0.98-10.18,2.02c-9.68,2.99-17.77,8.63-25.89,14.47
		c-8.19,5.89-16.84,12.05-20.29,21.31c-6.02,16.18-9.11,33.03,3.3,48.44c7.28,9.04,15.39,17.19,24.43,24.47
		c8.99,7.24,19.97,9.46,30.63,12.34c15.33,4.15,30.61,8.85,46.59,9.74c13.77,0.77,27.56,1.64,41.38,1.17
		c2.94-0.1,5.78,0.31,8.03,2.11c2.47,1.98,4.26,4.52,0.87,7.32c-1.14,0.95-2.15,1.66-0.84,3.15c1.37,1.55,1.06,3.47,0.96,5.26
		c-0.5,8.71,1.28,17.17,2.71,25.66c3.6,21.36,1.05,41.89-8.11,61.56c-2.99,6.44-6.85,12.59-8.52,19.49
		c-2.25,9.28-6.03,17.92-10.21,26.36c-2.38,4.79-1.56,8.62,1.14,12.51c1.5,2.17,3.19,4.28,5.1,6.09
		c8.25,7.83,17.94,13.07,28.72,16.77c9.58,3.29,19.15,6.38,29.2,7.78c9.71,2.33,19.59,1.97,29.46,1.84c0.32,0,0.66-0.13,0.95-0.26
		c11.03-4.93,21.84-10.09,28.22-21.28c4.49-7.88,6.77-15.86,1.85-24.31c-2.72-4.68-5.61-9.29-8.85-13.62
		c-5.82-7.8-11.6-15.37-14.19-25.2c-0.94-3.56-0.66-7.13-1.76-10.51c-2.29-7.07-3.86-14.2-3.72-21.71
		C1053.57,910.64,1053.42,901.64,1053.41,892.64z"/>
	<path class="st3" d="M324.56,228.6c13.32,0,26.7-0.83,39.93,0.25c12.86,1.05,25.79,1.04,38.59,2.73c3.9,0.51,7.52-1.07,11.37-0.98
		c18.76,0.46,37.55,0.24,56.15-2.17c11.27-1.46,22.46-3.79,33.76-5.29c0.82-0.11,1.63-0.49,2.43-0.46
		c15.63,0.73,31.14-0.95,46.69-2.08c5.29-0.38,10.21,0.83,14.95,3.02c-1.24,9.9,5.96,14.85,12.8,16.98c2.2,0.69,4.32,1.67,6.45,2.58
		c3.96,1.69,5.25,8.03,2.59,11.45c-7.18,9.19-9.38,19.88-8.69,31.22c0.23,3.75,7.79,8.64,12.77,8.74c4.36,0.09,8.59,0.92,12.64,2.4
		c3.01,1.1,3.45,2.89,0.65,5.02c-5.75,4.38-11.68,8.58-17.14,13.3c-13.85,11.96-16.28,26.47,0.19,37.81
		c4.64,3.19,10.68,4.38,16.38,5.43c4.01,0.74,5.33,1.92,2.64,5.79c-3.78,5.45-6.48,11.19-6.77,18.27c-0.15,3.66,3.02,5.51,2.53,8.73
		c-8.5-6.95-16.37-14.62-23.71-22.74c-19.61-21.7-43.46-37.08-69.42-50.26c-18.62-9.45-37.14-19.34-55.17-29.99
		c-12.37-7.31-26.44-10.96-39-17.78c-19.51-10.6-40.97-16.6-60.84-26.31C346.45,238.97,335.49,233.82,324.56,228.6z"/>
	<path class="st3" d="M157.07,142.61c-4.64-2.05-9.55,0.07-14.26-0.93c2.65-2.5,4.65-5.67,7.86-7.6c1.92-1.16,3.28-1.89,3.16,1.55
		C153.73,138.34,154.84,140.82,157.07,142.61z"/>
	<path class="st3" d="M637.39,415.34c0.09-3.92,4.53-3.68,6.14-6.32c-1.1,2.53,2.26,6.52-2.76,7.57
		C639.46,416.66,638.15,416.74,637.39,415.34z"/>
	<path class="st2" d="M1223.97,662.72c4.77-0.61,7.96,1.8,10.5,5.46C1230.65,666.97,1227.16,665.14,1223.97,662.72z"/>
	<path class="st2" d="M1196.22,646.76c2.74-0.21,5.76-0.83,5.26,3.64C1199.31,649.78,1197.42,648.77,1196.22,646.76z"/>
	<path class="st3" d="M1237.48,169.76c1.1-3.23,4.28-2.51,6.32-2.56c5.89-0.16,11.73-3.38,17.69-0.53
		C1253.49,167.7,1245.49,168.73,1237.48,169.76z"/>
	<path class="st3" d="M1307.44,609.63c4.54,1.09,6.72-2.05,8.99-5.02c2.98-1.22,7.6-0.2,7.92-5.16c0.33-5.1-4.5-4.68-7.37-5.9
		c-3.44-1.46-7.4-1.69-10.9-3.05c-12.93-4.98-24.53-12.21-34.89-21.41c-6.26-5.56-7.15-13.31-7.65-20.89
		c-0.65-9.92,0.06-19.6,4.01-29.18c7-16.96,16.91-32.04,27.53-46.79c3.73-5.18,9.42-7.98,14.63-10.89
		c6.04-3.37,10.58-7.8,14.46-13.22c0.64-0.89,1.29-1.46,2.37-1.52c0.01,0.66,0.02,1.33,0.04,1.99c0.23,5.86,2.7,9.6,7.12,10.75
		c4.88,1.28,9.65-0.8,12.78-5.35c3.23-4.7,3.08-10.03,3.12-15.35c2.1,7.52,1.34,14.81-1.34,22.09c-3.09,8.4-4.54,17.34-8.82,25.39
		c-3.91,7.35-6.82,15.19-9.14,23.22c-3.66,12.71,3.28,28.28,17.41,33.4c8.71,3.16,17.81,3.11,26.66,4.88
		c10.34,2.07,20.88,0.06,31.25,1.87c6.22,1.09,12.3,2.68,18.34,4.37c2.62,0.73,3.98,3.87,5.35,6.24c4.39,7.64,6.4,15.73,4.37,24.64
		c-0.68,3.02-0.29,6.3-0.25,9.46c0.13,10.13-1.05,20.17-1.83,30.25c-0.75,9.72-0.31,19.45,3.73,28.74
		c2.85,6.57,3.71,13.73,4.06,20.87c0.42,8.62,0.73,17.24,1,25.86c0.38,11.88-2.64,23.21-5.34,34.65
		c-2.37,10.03-5.43,20.03-5.54,30.43c-0.07,7.06,3.22,13.62,3.62,20.8c1.15,20.65,5.29,41.38,0.17,61.85
		c-2.66,10.63-2.6,10.05-12.22,9.95c-3.16-0.03-6.35-0.22-9.49,0.05c-6.5,0.55-11.75,6.47-14.17,14.3
		c-4.84,15.61-5.33,31.63-4.95,47.72c0.31,13.37-1.46,26.32-4.37,39.39c-2,8.97-6.79,16.71-8.69,25.54
		c-8.53-3.03-17.15-5.81-25.26-9.92c-6.18-3.13-11.7-7.06-15.22-13.15c-2.24-3.88-2.35-7.54,1.16-11.31
		c9.28-9.95,16.32-21.3,19.8-34.62c2.24-8.56,3.55-17.18,1.72-26.03c-0.37-1.77-0.05-3.67-0.31-5.47
		c-0.86-5.84,0.19-10.21,7.18-11.09c3.7-0.47,5.61-2.88,4.88-6.71c-0.77-4.06-4.14-4.32-7.04-3.62c-8.84,2.14-16.5-1.93-24.45-4.23
		c-8.48-2.46-17.21-3.33-25.84-4.84c-5.75-1.01-10.3-3.91-14.68-7.76c-10.32-9.07-19.83-18.98-29.89-28.29
		c-5.36-4.97-12.96-7.31-17.36-13.72c-6.32-9.21-8.23-19.28-5.82-30.1c2.5-11.24,9.76-18.63,19.55-24.18
		c15-8.49,29.81-17.31,44.68-26.02c2.85-1.67,5.59-2.2,9.01-1.28c2.96,0.8,6.29,0.23,9.45,0.36c3.54,0.14,6.25-0.51,6.52-4.9
		c0.28-4.46-2.13-6.99-6.04-6.91c-8.15,0.17-15.7-2.3-23.45-4.06c-11.75-2.67-22.06-7.87-31.68-15.22
		c-5.91-4.52-12.13-8.69-16.95-14.3c-7.41-8.62-7.9-19.02-6.87-29.91c1.03-10.98,8.77-16.42,16.3-22.45
		C1280.15,615.8,1293.44,611.88,1307.44,609.63z M1418.02,817.35c-0.21-2.44,0-4.85-1.29-7.24c-6.13-11.44-12.64-13.55-24.48-12.3
		c-8.74,0.93-17.42,1.81-26.32,1.11c-16.49-1.31-31.46-6.19-44.74-16.17c-4.89-3.68-8.43-7.8-7.74-14.53
		c0.43-4.13-1.38-7.94-5.34-9.24c-4.02-1.32-8.15-0.73-11.38,2.94c-6.04,6.87-7.83,14.91-6.71,23.65
		c2.12,16.53,11.91,28.08,25.03,37.26c14.56,10.19,30.89,16.2,48.38,18.27c14.82,1.75,29.77,2.55,43.55-5.8
		C1414,831.06,1418.09,825.66,1418.02,817.35z M1391.34,588.14c0.08-4.89-1.57-9.55-4.2-13.86c-5.48-8.99-14.19-13.29-23.94-15.52
		c-18.08-4.13-36.71-5.64-54.32-12.09c-6.43-2.35-11.69-5.33-14.07-12.08c-0.33-0.93-0.82-1.82-1.33-2.68
		c-2.73-4.53-7.6-4.44-10.26,0.16c-1.21,2.09-1.71,4.27-1.39,6.7c1.59,12.04,7.98,20.36,19.04,25.4
		c16.14,7.36,33.13,11.62,50.55,14.5c4.56,0.75,9.03,1.94,13.2,4.04c1.21,0.61,2.51,1.3,2.43,2.83c-0.07,1.4-1.59,1.62-2.56,2.04
		c-3.36,1.43-6.85,2.57-10.2,4.02c-5.97,2.58-8.6,8.08-6.71,13.69c1.89,5.61,7.39,8.31,13.76,6.66c4.34-1.12,8.76-2.07,12.94-3.65
		C1384.86,604.31,1392.04,598.25,1391.34,588.14z M1320.35,626.52c-0.52,0.05-1.46-0.09-2.16,0.25
		c-9.62,4.64-18.88,9.93-24.46,19.45c-3.68,6.29-2.31,12.12,2.21,17.32c8.16,9.37,19.36,12.51,30.72,14.83
		c11.25,2.3,22.8,2.3,34.27,1.91c3.75-0.13,6,0.64,7.46,4.62c1.87,5.08,6.95,7.86,11.34,7.39c4.45-0.47,8.48-4.32,9.47-9.05
		c2.1-9.99-7.01-22.94-17.02-24.7c-12.55-2.2-25.19-1.5-37.8-1.54c-7.48-0.03-14.42-1.99-21.33-4.46c-3.51-1.26-3.98-3.11-1.26-5.76
		c4.14-4.03,8.2-8.15,12.37-12.15c1.85-1.78,1.84-3.77,1.07-5.93C1324.44,626.5,1322.5,626.59,1320.35,626.52z M1381.53,916.52
		c0-2.05,0.02-3.04,0-4.04c-0.07-3.28,0.6-7.16-4.08-7.78c-4.75-0.63-5.59,3.24-6.53,6.61c-2.35,8.45-4.4,16.97-7.41,25.24
		c-1.91,5.25,0.02,9.61,4.4,10.96c4.56,1.4,8.3-1.05,9.76-6.52C1379.9,932.62,1381,924.09,1381.53,916.52z M1352.93,733.59
		c5.44-0.59,10.12-2.78,13.8-6.95c1.75-1.99,2.13-4.22,0.49-6.32c-1.68-2.16-3.92-2.04-6.24-0.82c-4.54,2.4-7.66,6.16-10.35,10.4
		C1348.78,732.83,1349.84,733.76,1352.93,733.59z"/>
	<path class="st4" d="M1349.61,438.66c-0.04,5.32,0.11,10.65-3.12,15.35c-3.13,4.55-7.9,6.63-12.78,5.35
		c-4.41-1.16-6.89-4.9-7.12-10.75c-0.03-0.66-0.03-1.33-0.04-1.99c6.77-18.5-0.27-33.5-12.04-47.26c-2.04-2.38-4.44-4.44-6.63-6.7
		c-1.71-1.77-1.36-2.9,1.16-3.11c2.82-0.23,5.61-0.07,8.36,0.67c8.97,3.32,13.96,11.11,19.44,18.05
		C1343.81,417.11,1348.26,427.31,1349.61,438.66z"/>
	<path class="st0" d="M1374.39,422.61c4.27,3.15,4.05,8.27,4.83,12.59c0.9,4.98,0.28,10.24,0.19,15.37
		c-0.09,5.5-8.63,16.43-13.98,18.05c3.66-6.45,6.19-13.27,8.24-20.44C1376.13,439.6,1375.46,431.17,1374.39,422.61z"/>
	<path class="st4" d="M891.65,265.66c-0.39-8.69,5.47-13.34,11.46-18.04c7.69-6.04,16.49-10.59,23.29-17.81
		c6.3-6.7,5.96-14.84-1.03-20.56c-10.53-8.61-11.81-13.72-6.62-26.43c1-2.46,1.87-4.97,2.88-7.42c0.7-1.7,1.41-3.64,3.88-2.7
		c2.23,0.85,2.14,2.65,1.58,4.58c-0.91,3.19-1.81,6.39-2.64,9.6c-1.93,7.52-1.02,9.9,5.32,14.16c14.79,9.94,15.58,27.78,1.88,40.22
		c-6.54,5.94-13.98,10.66-21.09,15.83c-1.07,0.78-2.15,1.57-3.12,2.47c-4.99,4.61-4.7,5.8,1.72,7.94c3.26,1.09,6.45,2.53,5.84,6.85
		c-0.62,4.38-4.38,5.43-7.76,5.66C900.46,280.49,890.32,276.35,891.65,265.66z"/>
	<path class="st4" d="M1152.61,218.17c-0.5,9.94-6.26,16.84-12.29,23.6c-3.41,3.82-7.57,6.92-10.44,11.29
		c-2.66,4.05-3.89,7.31,0.96,10.99c2.79,2.12,6,4.25,7.62,7.74c0.99,2.13,1.2,4.22-0.27,6.12c-1.44,1.86-3.56,1.67-5.53,1.16
		c-8.54-2.22-17.23-16.05-14.71-24.18c1.79-5.77,5.79-10.38,10.15-14.55c2.64-2.53,5.42-4.92,8.04-7.47
		c10.44-10.17,10.69-21.78,5.79-34.97c-0.59-1.58-2.48-3.47-0.08-4.7c2.04-1.05,3.39,1.04,4.37,2.47
		C1150.88,202.51,1151.42,210.57,1152.61,218.17z"/>
	<path class="st4" d="M1163.56,378.03c-6.46,0.62-12.16-1.32-17.67-3.64c-5.76-2.43-9.29-7.01-10.08-13.24
		c-0.65-5.13-0.21-10.29,1.18-15.32c0.67-2.43,1.86-4.43,4.82-3.95c2.91,0.48,3.53,2.64,3.38,5.22c-0.12,2.08-0.25,3.92-1.42,6
		c-2.79,4.99,2.15,12.08,9.22,13.71c6.29,1.45,12.64,2.65,18.93,4.1c2.57,0.59,5.07,1.53,7.58,2.37c0.81,0.27,1.52,0.83,1.4,1.81
		c-0.13,1.04-0.99,1.21-1.85,1.21C1173.71,376.25,1168.67,378.79,1163.56,378.03z"/>
	<path class="st4" d="M729.71,227.79c0.97-9.91,5.39-17.74,13.24-23.66c1.73-1.3,3.84-2.12,5.41-0.53c1.5,1.52,0.02,3.44-0.89,4.98
		c-1,1.7-2.11,3.35-3.32,4.91c-5.06,6.49-6.24,13.34-2.3,20.84c0.88,1.68,2.3,3.56,0.19,5.39c-2.13,1.84-4.32,1.28-6.42-0.08
		C731.25,236.84,729.91,232.55,729.71,227.79z"/>
	<path class="st4" d="M907.6,352.74c-11.27,0.36-20.78-6.04-24.03-15.72c-0.77-2.29-1.55-4.58,1.16-6.11
		c2.47-1.4,4.83-0.55,6.16,1.54c5.45,8.54,14.63,10.99,23.11,14.63c1.41,0.6,3.85,0.63,3.61,2.73c-0.23,2.04-2.66,1.59-4.15,2
		C911.4,352.37,909.22,352.5,907.6,352.74z"/>
	<path class="st4" d="M956.78,142.06c0.2-0.55,0.3-1.66,0.9-2.36c3.8-4.5,8.17-8.27,14.1-9.63c2.21-0.51,4.91-0.04,5.59,2.1
		c0.96,3.03-2.33,1.65-3.58,2.47c-4.55,3-9.45,5.5-13.27,9.53c-0.7,0.74-1.32,2.25-2.77,1.46
		C956.56,144.99,956.81,143.64,956.78,142.06z"/>
	<path class="st4" d="M769.22,455.15c-0.42,3.63-0.7,7.28-1.29,10.87c-0.99,6-5.11,9.24-10.27,8.3c-3.68-0.67-6.31-5.87-5.6-10.94
		c0.51-3.61,1.09-7.23,1.34-10.86c0.61-8.73-4.54-14.29-11.07-18.76c-6.56-4.48-13.18-8.84-20.53-12.09
		c-4.52-2-9.01-3.17-13.88-3.37c-10.71-0.44-13.97-6.88-8.53-16.06c3.45-5.82,8.55-9.64,14-13.17c1.07-0.69,2.46-1.06,3.75-1.18
		c1.67-0.16,3.49,0,3.9,2.17c0.33,1.74,0,3.21-1.84,4.17c-4.36,2.28-7.43,6.01-10.58,9.68c-2.11,2.46-2,3.84,1.49,3.98
		c15.53,0.62,29.09,7.17,41.41,15.62C762.13,430.8,770.01,440.83,769.22,455.15z"/>
	<path class="st4" d="M733.44,299.04c-10.8-0.21-19.65-2.62-25.24-11.73c-2.94-4.78-3.63-10.23-4.38-15.62
		c-0.29-2.04,0.56-4.23,2.86-4.64c2.78-0.5,2.84,2.04,3.53,3.87c1.18,3.09,2.22,6.3,3.89,9.12c4.59,7.77,12.08,8.53,20.02,7.45
		c3.49-0.47,6.99-0.89,10.4-0.18c2.14,0.45,4.63,1.1,4.67,4.29c0.04,2.89-1.64,4.01-4.02,4.92
		C741.08,298.1,736.8,298.55,733.44,299.04z"/>
	<path class="st4" d="M721.06,359.28c-4.6,0.3-9.8-0.43-14.53-3.98c-8.37-6.28-9.13-14.82-1.13-21.65c3.96-3.39,8.41-6.49,14-6.74
		c2.01-0.09,4.09,0.11,4.64,2.71c0.58,2.77-1.75,2.76-3.32,3.39c-3.1,1.24-5.92,2.82-8.41,5.12c-1.79,1.66-3.68,3.33-2.82,5.85
		c0.86,2.54,3.35,3.67,5.92,3.93c3.95,0.41,7.93,0.21,11.91,0.79c3.64,0.53,6.01,1.73,5.93,5.8c-0.08,4.18-3.05,4.62-6.2,4.78
		C725.37,359.35,723.71,359.28,721.06,359.28z"/>
	<path class="st0" d="M598.44,176.6c-4.37,0.14-8.6-1.59-13.01-0.94c-4.12-1.17-8.28-2.84-12,0.95c-3.26-0.46-6.05,1.52-8.83,2.46
		c-4.96,1.66-9.8,1.52-14.74,1.55c-10.8,0.05-21.54,1.12-32.36,1.13c-21.77,0.02-43.41-2.58-65.21-2.53
		c-8.79,0.02-17.85,0.33-26.76-1.42c-9.87-1.94-17.49-7.74-23.76-14.54c-9.54-10.35-19.63-17.76-34.48-16.74
		c-7.26,0.5-14.61,0.4-21.85-0.92c-2.99-3.84-3.12-13.79,0.67-16.08c2.86-1.73,6.97-1.58,10.56-1.85
		c15.6-1.15,31.23-1.16,46.86-1.06c5.26,0.03,9.11,3.26,9.05,8.49c-0.04,3.68,0.2,7.24,0.78,10.86c0.81,5.08,3.71,6.33,8.59,5.64
		c7.61-1.08,13.15-6.42,20.16-8.39c2.68-0.75,5.27-1.77,8.01,2.04c1.64,2.28,5.13,5.5,9.68,5.56c3.47,0.05,6.91,3.03,10.5,1.69
		c5.77-2.14,11.82-2.48,17.74-3.65c7.4-1.46,14.68-3.29,21.75-6.02c1.58-0.61,3.98-0.7,5.38,0.09c8.47,4.78,18.19,4.9,27.18,7.63
		c0.92,0.28,2.27-0.11,2.68,0.93c3.11,7.87,9.19,5.05,14.73,4.17c0.65-0.1,1.26-0.41,1.9-0.61c6.15-2,12.45-1.46,18.7-0.92
		c9.73,0.84,16.07-1.14,20.26-10.85c1.96-4.54,6.08-6.05,10.67-4.08c1.52,0.65,2.96,1.47,4.51,2.05c2.84,1.06,6.84,0.98,3.85,6.1
		c-1.15,1.96,0.38,4.45,2.79,5.06c11.74,2.98,23.19,7.81,35.7,6.18c5.48-0.72,9.76-4.46,14.75-6.47c5.31-2.14,10.46-4.22,16.51-3.16
		c3.31,0.58,7.33,0.76,10.19-0.63c4.19-2.03,8.53-0.97,12.59-2.17c3.07-0.91,4.62,0.46,6.02,2.88c3.67,6.33,8.06,6.96,14.37,3.6
		c5.82-3.1,11.21-7.34,18.15-8.19c2.84-0.35,3.96-4.01,7.64-3.99c5.92,0.03,11.4,0.44,16.33,4.21c5.06,3.87,11.59,5.36,16.61,9.1
		c6.8,5.06,13.87,7.05,22.32,7.11c7.57,0.06,13.63-3.33,19.03-7.05c4.56-3.15,9.65-4.44,14.12-4.78c9.08-0.68,18.05-2.6,27.21-2.5
		c3.95,0.04,7.24,0.64,10.49,3.28c2.95,2.39,5.99,5.48,10.55,4.84c1.02-0.14,2.04,0.2,2.28,1.43c0.2,1.05-0.09,1.85-1.16,2.46
		c-7.12,4.08-10.41,11.6-13.55,18.23c-2.57,5.42-6.42,10.69-7.14,17c-1.24,10.83,3.78,18.57,12.35,24.42
		c2.41,1.65,4.28,3.77,6.21,5.88c-2.55,2.1-4.79,5.24-7.7,6.07c-6.1,1.75-11.3,5.09-16.94,7.58c-5.91,2.61-8.54,7.65-11.65,12.26
		c-5.1,7.57-6.67,16.1-6.55,25.42c0.12,9.19,6.05,13.9,11.73,18.84c2.05,1.79,4.23,4.05,7.81,4.96c-3.25,2.71-5.69,5.36-9.67,5.46
		c-0.48,0.01-0.96,0.36-1.44,0.36c-4.28,0.05-6.82,7.68-11.16,3.86c-3.32-2.92-7.32-4.39-10.56-7.2c-3.49-3.03-8.57-3.5-12.25-7.12
		c2.48-2.18,4.83-4.45,7.38-6.45c5.89-4.62,7.77-10.64,7.51-17.98c-0.37-10.15-4.64-18.29-13.66-22.1
		c-5.41-2.29-10.57-6.98-17.35-5.45c-2.55,0.58-4.29-1.5-6.49-2.15c-7.88-2.32-16.25-2.3-23.92-5.76
		c-6.04-2.73-10.53-7.55-9.57-12.93c0.97-5.37,5.87-7.99,9.73-11.06c9.15-7.27,19.34-2.38,29.05-1.73c3.7,0.24,6.09,4.37,9.28,6.46
		c2.81,1.85,5.6,3.16,8.79,1.48c3.16-1.67,3.14-4.75,3.03-7.85c-0.42-12.23-4.33-23.05-15.46-29.04
		c-6.76-3.64-14.43-5.81-22.13-7.65c-6.27-1.5-12.42-1.58-18.69-1.77c-19-0.58-34,6.95-46.15,21.45c-4.37,5.21-7.6,10.7-9.62,17.03
		c-0.54,1.7-1.51,2.54-3.22,2.5c-2.31-0.06-4.66,0.38-6.92-0.52c-1.6-0.64-3.86-1.11-4.82-0.12c-3.95,4.06-9.26,1.75-13.65,3.39
		c-1.32,0.49-2.47,0.21-3.52-1.03c-5.59-6.56-13.1-10.34-20.71-13.9c-2.67-1.25-5.11-1.21-7.81,0.8
		c-6.37,4.74-13.56,7.77-21.49,9.04c-2.76,0.44-3.56-0.66-3.84-3.09c-0.61-5.25,1.44-10.17,2.86-14.84c1.49-4.88,1-9.48,0.91-14.14
		c-0.05-2.77-2.53-4.34-5.63-4.6c-4.23-0.36-8.26,0.42-12.01,2.13c-5.25,2.39-10.49,2.46-15.93,1.01
		C600.51,175.42,599.27,175.49,598.44,176.6z"/>
	<path class="st3" d="M576.33,227.66c0.01-1.93,0.67-3.13,2.92-3.07c12.25,0.34,24.32,1.62,36.15,5.2
		c4.77,1.45,9.86,1.67,14.67,3.46c9.2,3.44,18.86,5.54,28.51,7c6.99,1.06,13.9,2,20.64,4.25c1.77,0.59,3.1,1.07,3.22,3.12
		c-10.94,7.37-16.78,17.27-14.93,30.78c0.65,4.77,3.51,8.59,6.76,11.96c3.44,3.57,6.96,7.15,10.85,10.19
		c3.27,2.55,1.39,3.45-0.89,4.11c-11.44,3.31-19.05,11.5-26.39,20.16c-12.5,14.76-9.74,30.13,5.02,41.56
		c6.07,4.7,12.98,7.74,20.43,11.34c-7.67,3.18-14.99,5.66-21.81,9.37c-7.21,3.94-11.37,10.41-15.65,16.91
		c-0.61,0.93-0.41,3.17-2.51,1.9c-4.2-2.53-8.31-1.29-12.43,0.06c-6.95,2.28-7.68,2.05-10.58-4.68c-2.24-5.18-4.41-10.4-6.28-15.71
		c-1.44-4.09-0.99-8.21,1.42-11.94c1.35-2.09,2.7-4.2,4.2-6.18c5.47-7.26,3.1-14.03-5.62-16.81c-5.83-1.86-11.92-2.83-17.53-5.42
		c-8.12-3.75-9.56-12.45-2.99-18.57c5.56-5.19,11.11-10.41,17.64-14.38c6.38-3.88,8.43-9.59,7.1-16.59
		c-0.89-4.68-7.04-8.56-14.33-8.94c-3.4-0.18-6.49-1.17-9.72-1.9c-3.22-0.72-4.12-2.67-3.53-5.45c1.58-7.38,2.74-14.67,7.44-21.26
		c6.08-8.53,0.73-20.59-9.32-23.27C583.99,233.57,578.94,232.71,576.33,227.66z"/>
	<path class="st0" d="M1099.02,224.61c-7.85-0.74-16.33,1.16-23.77,6.2c-3.14,2.12-3.16,6.52-3.69,10.01
		c-0.82,5.38-4.44,8.3-9.09,5.26c-5.97-3.9-12.17-3.44-18.54-3.47c-2.17-0.01-4.55,0.3-5.78-1.99c-1.28-2.39,1.67-2.82,2.28-4.27
		c2.3-5.43,4.57-11.21,2.55-17.04c-3.18-9.22-7.63-17.95-15.04-24.58c-8.16-7.29-17.57-12.06-28.86-12.12
		c-3.16-0.02-6.33,0-9.49-0.01c-5.35-0.02-7.57-2.77-6.62-8.17c2.18-12.31,10.19-18.98,22.82-19.95c7.28-0.56,14.62-2.09,21.69,0.2
		c8.41,2.72,16.25,6.75,22.09,13.79c4.43,5.34,9.24,10.28,14.47,14.87c2.67,2.34,3.87-0.02,5.55-0.88c2.12-1.08,1.32-2.55,0.89-4.55
		c-1.15-5.41-4.57-9.9-5.62-15.3c-0.48-2.48-0.04-3.4,2.34-2.07c2.86,1.6,5.86,2.94,8.7,4.61c3.53,2.06,8.06,3.05,12.22,3.27
		c17.56,0.91,26.95,11.79,32.77,26.66c2.68,6.84,2.95,14.71,0.02,21.27c-1.96,4.39-6.9,7.99-12.74,8.23
		C1105.52,224.71,1102.85,224.61,1099.02,224.61z"/>
	<path class="st3" d="M256.4,134.6c-1.64,0-3.28,0-4.91,0c5.47-2.2,10.7-5.69,17.03-3c-0.36,0.34-0.73,0.69-1.09,1.03
		c-0.66,0.03-1.31,0.05-1.97,0.08c-1.41-0.01-2.93-0.47-4.06,0.86C259.73,133.88,257.82,133.05,256.4,134.6z"/>
	<path class="st1" d="M267.43,132.64c0.36-0.34,0.73-0.69,1.09-1.03c0.59,0.44,1.8,0.8,0.95,1.71
		C268.86,133.97,267.93,133.44,267.43,132.64z"/>
	<path class="st2" d="M573.43,176.61c3.72-3.79,7.88-2.12,12-0.95C581.56,177.65,577.41,176.13,573.43,176.61z"/>
	<path class="st2" d="M256.4,134.6c1.42-1.56,3.32-0.73,5-1.02C260.02,135.32,258.09,134.34,256.4,134.6z"/>
	<path class="st3" d="M1021.43,1034.68c-10.05-1.4-19.62-4.49-29.2-7.78c-10.78-3.7-20.48-8.94-28.72-16.77
		c-1.91-1.81-3.6-3.92-5.1-6.09c-2.7-3.89-3.51-7.72-1.14-12.51c4.18-8.44,7.96-17.07,10.21-26.36c1.67-6.9,5.53-13.05,8.52-19.49
		c9.16-19.67,11.7-40.2,8.11-61.56c-1.43-8.49-3.21-16.95-2.71-25.66c0.1-1.79,0.41-3.71-0.96-5.26c-1.31-1.49-0.3-2.2,0.84-3.15
		c3.38-2.8,1.59-5.34-0.87-7.32c-2.25-1.81-5.09-2.22-8.03-2.11c-13.81,0.48-27.6-0.4-41.38-1.17c-15.98-0.89-31.26-5.59-46.59-9.74
		c-10.66-2.88-21.65-5.1-30.63-12.34c-9.04-7.28-17.15-15.43-24.43-24.47c-12.41-15.41-9.32-32.26-3.3-48.44
		c3.45-9.27,12.11-15.43,20.29-21.31c8.11-5.83,16.21-11.47,25.89-14.47c3.35-1.04,6.69-1.98,10.18-2.02
		c13.95-0.15,27.9-0.11,41.84-0.34c3.53-0.06,6.13-2.19,6-5.9c-0.11-3.25-1.21-6.25-5.7-5.8c-15.08,1.5-29.7-2.42-44.46-4.26
		c-6.67-0.83-12.37-5.27-18.15-8.77c-2.39-1.45-4.86-2.77-7.16-4.46c-9-6.61-11.44-15.95-11.28-26.25
		c0.11-7.07-0.64-14.06,1.39-21.25c1.81-6.43,5.75-10.75,10.47-13.96c6.06-4.13,12.77-7.51,20.2-9.15
		c9.83-2.17,19.58-0.62,29.21,0.63c4.81,0.62,9.25-0.28,13.81-0.59c13.52-0.91,26.73,3.51,40.25,2.07
		c9.54-1.02,19.04-2.15,28.03-5.91c4.22-1.76,4.27-5.12,3.14-8.24c-1.09-3.01-3.81-4.37-7.35-3.04c-13.48,5.1-27.55,5.96-41.72,5.1
		c-10.05-0.61-18.65-5.49-26.96-10.8c-9.45-6.05-16.82-14.37-24.64-22.23c-9.46-9.5-7.63-20.18-2.56-30.18
		c9.03-17.8,24.61-28.13,43.73-31.16c16.3-2.58,32.8-0.81,47.03,9.51c1.56,1.13,3.25,2.24,5.82,1.42c-1.33-2.37-2.54-4.54-4.27-7.62
		c5.6,2.62,10.18,4.72,14.73,6.9c1.68,0.81,3.36,1.38,5.26,1.26c2.06-0.13,3.63-1.04,4.08-3.02c0.47-2.02-1.5-2.58-2.78-2.91
		c-13.15-3.47-21.61-13.83-31.74-21.68c-3.15-2.44-3.54-7.05-5.36-10.56c-8.37-16.13-6.63-31.54,4.28-45.51
		c5.66-7.25,12.97-13.16,21.46-17.36c14.36-7.12,28.61-14.93,44.61-17.22c10.55-1.51,21.39-2.81,32.21-1.14
		c5.39,0.83,10.85,1.06,16.27,1.82c6.54,0.91,12.33,3.36,18.31,5.59c-2.43,3.95-6.39,2.15-9.32,1.77
		c-21.51-2.83-41.56,1.69-61.03,10.59c-2.77,1.26-4.85,4.64-8.6,3.6c-0.2-0.16-0.23-0.35-0.11-0.57c-2.09-3.27-7.22-3.42-9.9-0.3
		c-4.11,2.74-8.32,5.34-12.3,8.25c-12.39,9.06-17.94,21.73-17.05,36.64c0.86,14.39,8.75,24.94,21.29,31.97
		c1.81,2.97,3.94,5.78,5.36,8.93c3.03,6.71,8.25,11.12,14.64,14.07c9.27,4.28,18.52,8.6,26.88,14.5
		c7.53,5.31,15.28,10.14,23.81,13.69c3.15,1.31,6.94,2.62,7.19,6.69c0.32,5.17,1.63,11.07-3.08,14.89
		c-5.17,4.19-10.72,7.96-15.49,12.61c-4.38,4.27-10.07,7.29-13.14,12.79c-5.38,9.63-0.9,22.9,6.08,30.55
		c6.33,6.94,13.49,12.38,22.41,15.52c3.61,1.27,5.42,4.12,6.7,7.9c1.79,5.26,4.07,10.42,7.86,14.77c6.16,7.07,7.04,21.04,1.63,28.74
		c-4.02,5.72-6.63,12.19-10.28,18.13c-4.53,7.36-8.67,14.72-15.42,20.43c-3.09,2.62-5.82,5.84-6.81,10.19
		c-1.72,7.5,3.58,18.18,9.93,18.51c5.77,0.3,11.58,0.51,17.41-0.47c5.22-0.88,11.54-2.24,15.7,0.32
		c8.95,5.51,15.14,15.22,7.33,26.65c-5.8,8.49-12.5,16.19-19.36,23.79c-1.32,1.46-2.59,3.15-4.95,2.89
		c0.27-0.95,0.51-1.91,0.81-2.85c3.94-12.3-7.54-25.87-20.11-23.79c-13.83,2.29-20.88,20.19-12.27,31.24
		c5.38,6.91,12.57,8.66,20.86,7.1c-0.18,1.96-1.44,3.13-2.75,4.5c-6.62,6.91-15.39,10.81-22.86,16.52
		c-5.24,4.01-10.66,7.45-10.09,15.15c0.11,1.47-0.9,2.45-1.65,3.53c-4.64,6.68-6.87,14.44-8.03,22.19
		c-1.51,10.11-2.36,20.38-2.31,30.66c0.04,8.98,0.33,17.98-0.07,26.95c-0.44,9.72,3.31,18.48,5.59,27.54
		c2.36,9.37,7.89,17.77,9.09,27.55c0.56,4.58,0.76,8.89-1.57,13.48c-3.34,6.6-8.07,12.36-10.93,19.21
		C1029.69,1033.02,1026.49,1035.49,1021.43,1034.68z M971.61,784.71c-19.57,0.64-38.8-3.46-56.56-13.79
		c-9.92-5.77-12.28-14.72-6.18-24.22c0.89-1.39,1.86-2.75,2.87-4.06c3.07-3.98,3.72-10.62,0.8-13.96c-3.14-3.58-7.21-4.07-11.83-2.7
		c-5.45,1.62-9.91,4.69-13.8,8.57c-12.12,12.1-18.16,25.96-12.2,43.25c4.39,12.73,13.61,21.44,24.12,28.92
		c12.96,9.21,27.76,13.7,43.29,16.68c21.4,4.1,42.57,4.31,63.77-0.89c13.13-3.22,19.62-16.43,14.04-28.68
		c-3.64-7.97-14.32-12.86-25.17-10.72C987.33,784.57,979.91,784.71,971.61,784.71z M955.89,681.29c9.56,0.11,14.62-3.7,15.32-10.75
		c0.63-6.25-3.91-11.72-11.84-12.79c-8.55-1.15-17.23-1.24-25.84-1.96c-11.48-0.96-22.7-3.18-33.49-7.32
		c-1.67-0.64-3.99-1.22-4.25-2.94c-0.3-2.01,2.07-2.67,3.66-3.52c4.41-2.35,9.03-4.17,13.71-5.9c3.52-1.31,6.09-3.87,4.95-8.07
		c-1.07-3.93-4.24-4.78-7.91-4.38c-8.34,0.93-16.31,3.2-23.76,7.07c-13.7,7.11-13.69,20.66-6.07,28.54
		c4.19,4.34,9.09,7.2,14.38,9.39C914.64,676.91,935.6,680.17,955.89,681.29z M962.43,583.52c1.81-0.21,3.63-0.38,5.44-0.64
		c5.22-0.76,8.98-4.19,9.47-8.58c0.65-5.83-1.91-9.86-7.73-11.72c-2.67-0.85-5.48-1.29-8.22-1.94c-7.41-1.75-14.89-3.27-20.64-8.93
		c-4.83-4.76-4.76-7.11-0.09-12.09c3.77-4.01,9.05-5.39,13.4-8.35c2.58-1.76,4.04-4.13,3.26-7.22c-0.81-3.24-3.6-4.15-6.56-4.34
		c-5.25-0.33-10.22,1.02-14.99,3.07c-22.58,9.72-25.77,34.3-6.21,49.16C939.19,579.24,950.25,583.05,962.43,583.52z M1017.47,918.47
		c-0.81-9.17-1.94-18.55-4.34-27.73c-0.81-3.09-1.73-6.41-5.9-6.17c-4.37,0.25-5.05,3.7-5.46,7.11c-0.26,2.14-0.13,4.33-0.4,6.47
		c-0.94,7.56-1.13,15.22-3,22.65c-2.99,11.88-8.93,22.34-15.48,32.56c-3.86,6.02-2.71,11.72,2.47,15.35
		c4.56,3.19,11.18,2.12,15.08-3.01C1010.94,951.85,1016.63,936.18,1017.47,918.47z"/>
	<path class="st1" d="M1021.48,417.57c3.76,1.04,5.84-2.34,8.6-3.6c19.47-8.9,39.52-13.42,61.03-10.59
		c2.93,0.39,6.89,2.19,9.32-1.77c14.68,2.65,25.91,11.81,35.72,21.73c4.82,4.87,8.68,12.69,9.21,20.6
		c0.44,6.57,0.49,13.21-2.05,19.52c-0.49,1.21-0.69,2.83-2.3,2.93c-1.68,0.11-2.13-1.56-2.5-2.72c-1.57-4.9-4.05-9.26-6.95-13.5
		c-5.09-7.45-12.97-11.16-20.48-15.02c-12.48-6.41-25.84-11.02-39.95-11.34c-17.24-0.4-33.59,3.33-46.81,15.5
		c-7.15,6.58-11.36,14.39-9.98,24.74c1.24,9.3,12.09,18.77,23.53,20.65c14.39,2.37,28.69,5.05,41.79,12.35
		c8.06,4.49,16.56,8.22,24.1,13.59c13.54,9.67,24.97,21.43,30.86,37.21c2.3,6.16,1.69,13.21-1.87,19.6
		c-3.01,5.4-7.35,9.53-11.41,13.98c-0.78,0.86-1.53,1.14-2.55,1.17c-6.82,0.23-11.52,4.01-15.39,9.19c-3.5,4.7-1.53,9.12,4.43,9.8
		c9.38,1.06,18.43,3.2,27.32,6.56c6.32,2.39,13.22,2.87,19.46,6.1c6.62,3.42,11.99,8.01,15.29,14.4c3.97,7.69,8.75,15.13,8.66,24.51
		c-0.08,8.76-3.02,16.4-6.88,23.97c-2.84,5.58-6.37,10.56-10.97,14.85c-1.48,1.38-2.53,3.04-4.91,2.7
		c-0.81-0.12-1.99,0.09-2.04,1.01c-0.26,5.29-4.77,6.48-8.29,8.13c-4.89,2.29-8.57,6.71-14.49,7.36c-2.54,0.28-4.79,2.83-6.63,5.05
		c-1.38,1.67-1.04,3.38,0.6,4.26c5.13,2.77,9.36,7.51,16.3,6.24c6.2-1.13,12.27,0.93,17.57,3.93c8.27,4.68,18.29,5.19,25.91,11.13
		c7.3,5.7,12.49,12.7,14.94,22c1.12,4.22,1.36,8.3,1.82,12.51c0.91,8.39-2.97,15.43-5.82,22.79c-4.66,12-15.17,15.67-26.29,18.53
		c-5.23,1.34-10.56,0.89-15.87,1.04c-4.97,0.15-6.99,2.18-5.93,6.88c0.78,3.46,0.03,5.96-1.82,8.75c-2.28,3.42-4.05,7.18-6.11,10.76
		c-0.39,0.68-1.01,1.49-1.7,1.71c-7.81,2.58-14.92,7.33-23.68,6.93c-12.97-0.6-25.88,1.25-38.87,1.18
		c-4.9-0.03-10.01,1.39-14.84,3.36c-2.58,1.05-3.17,2.14-3.19,4.58c-0.06,6.83-3.17,13.08-3.97,19.79c-1.62,3.35-1.59,6.71,0,10.06
		c0.01,9,0.15,18-0.02,26.99c-0.14,7.51,1.43,14.65,3.72,21.71c1.1,3.38,0.82,6.95,1.76,10.51c2.59,9.82,8.37,17.4,14.19,25.2
		c3.23,4.33,6.13,8.95,8.85,13.62c4.91,8.45,2.64,16.42-1.85,24.31c-6.38,11.19-17.19,16.34-28.22,21.28
		c-0.3,0.13-0.63,0.26-0.95,0.26c-9.86,0.12-19.75,0.49-29.46-1.84c5.06,0.8,8.26-1.66,10.09-6.06c2.85-6.85,7.59-12.61,10.93-19.21
		c2.32-4.59,2.13-8.9,1.57-13.48c-1.2-9.79-6.74-18.18-9.09-27.55c-2.28-9.07-6.03-17.83-5.59-27.54c0.4-8.97,0.12-17.97,0.07-26.95
		c-0.05-10.28,0.8-20.55,2.31-30.66c1.16-7.75,3.38-15.51,8.03-22.19c0.75-1.08,1.76-2.06,1.65-3.53
		c-0.57-7.69,4.84-11.14,10.09-15.15c7.47-5.71,16.24-9.61,22.86-16.52c1.31-1.37,2.57-2.54,2.75-4.5c0,0,0.16,0.13,0.16,0.13
		c0.38-0.28,0.76-0.56,1.14-0.84l0.07-0.04c1.4,0.02,2.81,0.07,2.9-1.89c2.74-2.6,5.09-5.47,6.44-9.06
		c2.36,0.26,3.63-1.43,4.95-2.89c6.86-7.59,13.56-15.29,19.36-23.79c7.8-11.43,1.62-21.14-7.33-26.65
		c-4.16-2.56-10.48-1.2-15.7-0.32c-5.83,0.99-11.64,0.77-17.41,0.47c-6.36-0.33-11.65-11.01-9.93-18.51c1-4.35,3.72-7.58,6.81-10.19
		c6.74-5.71,10.88-13.07,15.42-20.43c3.65-5.93,6.26-12.41,10.28-18.13c5.42-7.71,4.53-21.67-1.63-28.74
		c-3.79-4.35-6.07-9.51-7.86-14.77c-1.29-3.78-3.09-6.64-6.7-7.9c-8.92-3.14-16.08-8.58-22.41-15.52
		c-6.98-7.65-11.46-20.92-6.08-30.55c3.07-5.49,8.76-8.52,13.14-12.79c4.77-4.65,10.32-8.42,15.49-12.61
		c4.71-3.82,3.4-9.72,3.08-14.89c-0.25-4.08-4.04-5.38-7.19-6.69c-8.54-3.55-16.28-8.38-23.81-13.69
		c-8.36-5.89-17.6-10.21-26.88-14.5c-6.39-2.95-11.61-7.36-14.64-14.07c-1.42-3.14-3.55-5.96-5.36-8.92
		c1.14,0.22,2.27,0.57,3.41,0.64c4.24,0.27,8.11-0.85,10.23-4.73c2.16-3.96,1.72-8.08-1.26-11.61c-1.16-1.37-2.68-2.45-4.11-3.59
		c-11.83-9.4-14.92-25.73-6.93-36.9c3.78-5.29,8.21-10,13.19-14.17C1019.76,421.7,1021.54,420.23,1021.48,417.57z"/>
	<path class="st3" d="M1053.41,892.64c-1.59-3.35-1.62-6.71,0-10.06C1053.41,885.93,1053.41,889.29,1053.41,892.64z"/>
	<path class="st3" d="M973.44,502.61c0.45,0.12,0.89,0.25,1.34,0.37c-0.08,0.13-0.17,0.26-0.25,0.39
		C974.16,503.12,973.79,502.87,973.44,502.61L973.44,502.61z"/>
	<path class="st3" d="M977.41,504.65c-0.14-0.16-0.28-0.31-0.42-0.47c0.16,0.14,0.32,0.27,0.48,0.41L977.41,504.65z"/>
	<path class="st3" d="M977.47,504.59c0.14,0.15,0.27,0.31,0.41,0.46c-0.15-0.14-0.31-0.27-0.46-0.41
		C977.41,504.65,977.47,504.59,977.47,504.59z"/>
	<path class="st4" d="M1418.02,817.35c0.08,8.32-4.01,13.72-11.02,17.96c-13.78,8.35-28.73,7.55-43.55,5.8
		c-17.49-2.07-33.82-8.08-48.38-18.27c-13.12-9.18-22.9-20.73-25.03-37.26c-1.12-8.74,0.67-16.79,6.71-23.65
		c3.23-3.68,7.37-4.26,11.38-2.94c3.97,1.3,5.77,5.11,5.34,9.24c-0.69,6.73,2.85,10.85,7.74,14.53
		c13.27,9.97,28.25,14.86,44.74,16.17c8.89,0.71,17.57-0.18,26.32-1.11c11.84-1.25,18.35,0.86,24.48,12.3
		C1418.01,812.5,1417.8,814.91,1418.02,817.35z"/>
	<path class="st4" d="M1391.34,588.14c0.71,10.11-6.48,16.17-17.08,20.17c-4.18,1.57-8.6,2.52-12.94,3.65
		c-6.37,1.65-11.87-1.06-13.76-6.66c-1.89-5.61,0.74-11.11,6.71-13.69c3.35-1.45,6.84-2.58,10.2-4.02c0.98-0.42,2.5-0.64,2.56-2.04
		c0.07-1.52-1.22-2.22-2.43-2.83c-4.17-2.1-8.64-3.28-13.2-4.04c-17.41-2.88-34.4-7.15-50.55-14.5
		c-11.06-5.04-17.45-13.36-19.04-25.4c-0.32-2.42,0.18-4.61,1.39-6.7c2.67-4.6,7.53-4.69,10.26-0.16c0.51,0.85,1.01,1.74,1.33,2.68
		c2.37,6.75,7.64,9.72,14.07,12.08c17.61,6.45,36.24,7.96,54.32,12.09c9.76,2.23,18.46,6.53,23.94,15.52
		C1389.76,578.59,1391.41,583.25,1391.34,588.14z"/>
	<path class="st4" d="M1320.35,626.52c2.15,0.07,4.09-0.02,4.87,2.19c0.77,2.16,0.78,4.15-1.07,5.93c-4.17,4-8.23,8.12-12.37,12.15
		c-2.71,2.64-2.25,4.5,1.26,5.76c6.9,2.47,13.85,4.43,21.33,4.46c12.61,0.04,25.25-0.66,37.8,1.54
		c10.01,1.76,19.12,14.72,17.02,24.7c-0.99,4.73-5.02,8.57-9.47,9.05c-4.39,0.47-9.46-2.31-11.34-7.39
		c-1.47-3.98-3.71-4.75-7.46-4.62c-11.47,0.39-23.02,0.39-34.27-1.91c-11.36-2.32-22.56-5.46-30.72-14.83
		c-4.52-5.19-5.9-11.03-2.21-17.32c5.58-9.52,14.85-14.8,24.46-19.45C1318.89,626.44,1319.83,626.58,1320.35,626.52z"/>
	<path class="st4" d="M1381.53,916.52c-0.53,7.57-1.63,16.11-3.86,24.46c-1.46,5.47-5.21,7.92-9.76,6.52
		c-4.38-1.35-6.31-5.71-4.4-10.96c3.01-8.26,5.06-16.79,7.41-25.24c0.94-3.37,1.78-7.24,6.53-6.61c4.68,0.62,4,4.51,4.08,7.78
		C1381.55,913.47,1381.53,914.47,1381.53,916.52z"/>
	<path class="st4" d="M1352.93,733.59c-3.09,0.17-4.15-0.76-2.29-3.69c2.69-4.24,5.81-8,10.35-10.4c2.32-1.22,4.56-1.34,6.24,0.82
		c1.63,2.1,1.26,4.33-0.49,6.32C1363.05,730.81,1358.38,733,1352.93,733.59z"/>
	<path class="st4" d="M971.61,784.71c8.3,0,15.72-0.14,23.16-1.6c10.84-2.13,21.53,2.75,25.17,10.72
		c5.58,12.24-0.92,25.46-14.04,28.68c-21.19,5.2-42.36,5-63.77,0.89c-15.54-2.98-30.33-7.47-43.29-16.68
		c-10.51-7.47-19.73-16.18-24.12-28.92c-5.96-17.29,0.07-31.15,12.2-43.25c3.89-3.88,8.35-6.95,13.8-8.57
		c4.61-1.37,8.69-0.88,11.83,2.7c2.92,3.34,2.27,9.97-0.8,13.96c-1.01,1.31-1.98,2.66-2.87,4.06c-6.1,9.5-3.75,18.46,6.18,24.22
		C932.81,781.25,952.04,785.35,971.61,784.71z"/>
	<path class="st4" d="M955.89,681.29c-20.29-1.12-41.25-4.38-61.15-12.61c-5.29-2.19-10.18-5.05-14.38-9.39
		c-7.62-7.88-7.63-21.42,6.07-28.54c7.45-3.87,15.42-6.14,23.76-7.07c3.66-0.41,6.84,0.45,7.91,4.38c1.14,4.2-1.43,6.77-4.95,8.07
		c-4.68,1.74-9.3,3.56-13.71,5.9c-1.59,0.85-3.96,1.51-3.66,3.52c0.26,1.71,2.58,2.3,4.25,2.94c10.79,4.13,22.02,6.36,33.49,7.32
		c8.61,0.72,17.29,0.81,25.84,1.96c7.93,1.07,12.47,6.54,11.84,12.79C970.51,677.59,965.45,681.4,955.89,681.29z"/>
	<path class="st4" d="M962.43,583.52c-12.18-0.47-23.24-4.28-32.85-11.58c-19.56-14.86-16.38-39.44,6.21-49.16
		c4.77-2.05,9.73-3.4,14.99-3.07c2.96,0.18,5.74,1.1,6.56,4.34c0.78,3.09-0.68,5.46-3.26,7.22c-4.35,2.96-9.63,4.34-13.4,8.35
		c-4.68,4.98-4.74,7.34,0.09,12.09c5.74,5.66,13.23,7.18,20.64,8.93c2.74,0.65,5.55,1.08,8.22,1.94c5.82,1.86,8.37,5.88,7.73,11.72
		c-0.49,4.39-4.25,7.82-9.47,8.58C966.06,583.14,964.24,583.3,962.43,583.52z"/>
	<path class="st4" d="M1017.47,918.47c-0.84,17.71-6.53,33.38-17.03,47.23c-3.89,5.14-10.52,6.2-15.08,3.01
		c-5.18-3.62-6.33-9.33-2.47-15.35c6.55-10.22,12.5-20.68,15.48-32.56c1.87-7.43,2.06-15.09,3-22.65c0.27-2.14,0.14-4.33,0.4-6.47
		c0.41-3.41,1.09-6.86,5.46-7.11c4.17-0.24,5.09,3.08,5.9,6.17C1015.53,899.92,1016.66,909.3,1017.47,918.47z"/>
	<path class="st4" d="M1021.48,417.57c0.06,2.66-1.72,4.13-3.54,5.65c-4.98,4.17-9.41,8.88-13.19,14.17
		c-7.99,11.17-4.9,27.5,6.93,36.9c1.42,1.13,2.95,2.21,4.11,3.59c2.98,3.53,3.42,7.66,1.26,11.61c-2.11,3.88-5.98,4.99-10.23,4.73
		c-1.15-0.07-2.28-0.42-3.41-0.64c-12.54-7.04-20.43-17.59-21.29-31.97c-0.89-14.92,4.66-27.59,17.05-36.64
		c3.98-2.91,8.19-5.51,12.3-8.25c3.32-0.58,6.67-2.33,9.9,0.3C1021.25,417.22,1021.29,417.41,1021.48,417.57z"/>
	<path class="st4" d="M1087.81,809.64c-1.35,3.58-3.7,6.46-6.44,9.05c-1.41-0.05-2.29,0.72-2.9,1.89c0,0-0.07,0.04-0.07,0.04
		c-0.38,0.28-0.76,0.56-1.14,0.84c0,0-0.15-0.12-0.16-0.13c-8.29,1.56-15.48-0.18-20.86-7.1c-8.61-11.06-1.56-28.95,12.27-31.24
		c12.57-2.08,24.05,11.49,20.11,23.79C1088.32,807.73,1088.08,808.69,1087.81,809.64z"/>
	<path class="st1" d="M1021.37,417c-3.22-2.63-6.58-0.88-9.9-0.3C1014.15,413.57,1019.28,413.73,1021.37,417z"/>
	<path class="st3" d="M1078.47,820.59c0.61-1.18,1.49-1.95,2.9-1.89C1081.27,820.66,1079.86,820.61,1078.47,820.59z"/>
	<path class="st3" d="M1077.25,821.47c0.38-0.28,0.76-0.56,1.14-0.84C1078.02,820.91,1077.63,821.19,1077.25,821.47z"/>
</g>
</svg>
