<?xml version="1.0" encoding="utf-8"?>
<!-- Generator: Adobe Illustrator 26.0.3, SVG Export Plug-In . SVG Version: 6.00 Build 0)  -->
<svg version="1.1" id="Layer_1" xmlns="http://www.w3.org/2000/svg" xmlns:xlink="http://www.w3.org/1999/xlink" x="0px" y="0px"
	 viewBox="0 0 1049 968" style="enable-background:new 0 0 1049 968;" xml:space="preserve">
<style type="text/css">
	.st0{fill:#F8CE93;}
	.st1{fill:#FAF3DD;}
	.st2{fill:#FCF9ED;}
	.st3{fill:#22010A;}
</style>
<g>
	<path class="st0" d="M893.98,685.05c-0.82-0.33-1.52-1.02-1.85-2.09c-1.1-3.6-2.58-6.97-4.26-10.33c-0.21-0.42-0.31-0.84-0.35-1.24
		c-2.53-5.9-5.07-11.8-7.58-17.71c-6.34-14.96-12.42-30.05-17.09-45.61c-5.33-17.75-9.38-35.83-12.89-54.06
		c-4.69-24.34-6.41-48.93-7.23-73.59c-0.44-13.07,1.09-26.17,1.68-39.25c0.82-18.1,3.45-35.98,6.53-53.72
		c4.42-25.43,9.58-50.77,16.32-75.72c3.75-13.9,7.69-27.78,12.26-41.43c2.82-8.42,4.72-17.18,8.6-25.23
		c0.28-1.91,0.57-3.81,1.35-5.64c0.17-0.39,0.43-0.7,0.75-0.94c0.31-1.1,0.48-2.23,0.3-3.44c-7.73-9.22-14.07-19.39-20.23-29.68
		c-9.64-16.11-18.93-32.42-27.16-49.31c-0.82-1.68-1.8-3.18-3.53-4.04c-9.7,2.86-19.55,5.33-29.08,8.67
		c-23.14,8.12-46.55,15.3-70.31,21.31c-34.07,8.62-68.58,14.68-103.6,18.28c-19.8,2.04-39.63,3.64-59.45,4.46
		c-15.59,0.65-31.23,1.49-46.88,1.29c-12.64-0.16-25.27,0.04-37.9-0.93c-9.6-0.74-19.25-0.41-28.88-0.79
		c-18.74-0.74-37.44-1.89-56.14-3.2c-16.7-1.18-33.4-2.31-50.07-3.95c-22.25-2.18-44.5-4.26-66.66-7.2
		c-5.47-0.38-6.41,4.63-7.68,7.73c-4.75,11.55-10.58,22.49-16.87,33.22c-9.28,15.83-21.02,29.92-32.11,44.44
		c-6.39,8.38-14.36,15.55-20.84,23.87c-6.09,7.82-13.3,14.59-19.43,22.38c-4.94,6.28-10.7,12.11-16.46,17.66
		c-1.87,1.8-2.4,3.49-2.42,5.14c0.96,0.48,1.72,1.39,1.83,2.74c0.47,6.01,1.46,11.97,1.82,17.97c0.04,0.21,0.05,0.42,0.03,0.65
		c0.02,0.35,0.03,0.7,0.05,1.05c0.21,1.89,0.29,3.78,0.62,5.68c2.91,16.82,4.84,33.76,5.44,50.82c1.07,30.63-2.13,60.89-7.87,90.96
		c-4.06,21.32-8.77,42.5-14.66,63.34c-5.62,19.89-11.76,39.63-18.9,59.1c-6.82,18.6-13.98,37.05-21.47,55.38
		c-0.03,0.11-0.05,0.22-0.07,0.33c0.4,1.2,0.16,2.63-0.71,3.55c-0.35,0.93-0.96,1.73-2.17,2.25c0.02,0.28,0,0.56-0.05,0.84
		c12.07,7.68,18.7,20.18,27.32,30.9c3.19,3.97,5.76,8.43,8.88,12.46c5.51,7.12,10.46,14.64,16.23,21.59
		c5.61,6.75,10.46,14.16,15.36,21.46c7.73,11.51,15.34,23.1,22.77,34.81c4.05,6.38,7.6,13.07,11.38,19.62
		c0.98,0.04,1.96,0.09,2.94,0.13c0.08,0.01,0.17,0.02,0.25,0.03c0.52-0.48,1.21-0.8,2.11-0.81c9.01-0.17,17.68,2.03,26.61,2.74
		c7.34,0.59,14.88-0.38,21.91,2.32c0.97,0.37,1.6,1.05,1.93,1.82c6.99,0.65,14,1.21,20.97,2.03c15.77,1.86,31.53,3.78,47.28,5.86
		c15.74,2.08,31.47,4.22,47.17,6.61c17.03,2.59,34.08,4.91,51.23,6.46c10.58,0.96,21.22,1.19,31.78,2.13
		c17.98,1.6,35.98,1.24,53.88,0.47c14.97-0.65,29.99-2.3,44.9-4.56c14.55-2.21,29.3-3.12,43.84-5.4
		c23.05-3.62,46.06-7.57,68.97-11.98c26.65-5.12,53.23-10.58,79.71-16.57c9.55-2.16,18.68-5.87,28.42-7.22
		c3.08-1.91,4.48-5,6.31-7.99c4.65-7.6,9.9-14.83,15.02-22.13c5.86-8.36,11.85-16.63,17.78-24.94c5.09-7.13,10.55-14.02,15.66-21.1
		c6.86-9.49,14.08-18.71,21-28.15c6.79-9.26,13.82-18.36,21.04-27.28C893.37,689.89,894.53,687.67,893.98,685.05z M698.51,481.19
		c-0.28,1.07-0.84,2.33-1.68,2.96c-2.84,2.13-3.8,4.84-3.26,8.24c0.42,2.62-1.56,4.21-2.67,6.2c-2.47,4.4-3.65,9.39-6.3,13.76
		c-5.23,8.62-14.11,10.63-22.84,12.56c-7.37,1.63-14.88,2.73-22.45,3.16c-3.39,0.19-5.07,1.5-4.84,5.54
		c0.86,14.99,2.44,29.89,3.92,44.82c1.42,14.23,3.13,28.43,5.32,42.53c4,25.84,9.06,51.54,17.13,76.45
		c4.25,13.13,3.05,25.94-1.74,37.91c-3.81,9.51-6.44,19.69-12.43,28.36c-5.76,8.33-11.27,8.75-18.85,2.23
		c-24.67-21.24-35.46-50.05-44.16-79.98c-5.43-18.71-7.94-38.05-10.93-57.24c-1.57-10.07-1.99-20.31-3.17-30.45
		c-2.35-20.23-2.63-40.59-3.94-60.88c-0.11-1.67-0.49-2.26-2.34-2.07c-15.78,1.6-31.6,0.41-47.4,0.7
		c-15.8,0.3-31.56-1.02-47.27-2.19c-18.93-1.41-37.87-3.3-56.57-6.78c-3.65-0.68-4.57,1.28-5.38,3.88
		c-12.7,40.7-25.52,81.37-38.02,122.13c-6.54,21.34-11.89,43.03-19.02,64.2c-0.53,1.56-1.42,3.39-2.47,3.33
		c-1.65-0.1-2.24-2.2-2.51-3.76c-1.66-9.9-3.69-19.76-3.11-29.91c0.72-15.66,1.7-31.29,3.95-46.86c1.81-12.51,2.58-25.17,4.18-37.71
		c1.73-13.49,4.09-26.9,5.82-40.4c1.81-14.13,4.03-28.18,7-42.11c0.37-1.72-0.08-2.43-2.12-2.92
		c-16.34-3.98-31.77-10.55-47.18-17.13c-0.9-0.39-1.66-1.1-2.52-1.6c-1.25-0.72-1.91-2.05-1.69-3.18c0.29-1.46,1.93-0.94,3.01-0.93
		c14.96,0.13,29.88,1.44,44.86,1.04c10.66-0.29,10.39-0.11,12.8-10.45c7.51-32.17,16.98-63.75,29.29-94.45
		c9.18-22.89,20.32-44.74,35.68-64.12c16.05-20.25,34.13-38.31,59.69-46.21c14.84-4.59,29.95-8.24,45.75-7.93
		c8.42,0.17,16.03,2.74,23.72,5.71c27.03,10.43,41.63,31.31,49.85,57.96c5.32,17.24,8.84,34.77,11.03,52.67
		c1.74,14.23,3.14,28.46,4.09,42.76c0.35,5.28,0.77,10.56,0.82,15.86c0.03,3.37,1.48,4.18,4.48,3.05
		c8.74-3.29,17.96-5.06,26.95-7.33c5.7-1.44,11.93-1.91,17.94-2.6c2.26-0.26,4.57,0.18,5.83,1.93c2.64,3.67,5.96,5.04,10.41,5.45
		c4.22,0.39,6.19,3.46,6.45,7.95C702.16,464.19,700.69,472.72,698.51,481.19z"/>
	<path class="st1" d="M286.54,132.05c-7.83-0.02-15.66,0.01-23.5-0.01c-1.02,0-2.04-0.06-2.86,0.19c-4.74,0.3-8.76-0.34-12.61,3.31
		c-3.78,3.6-6.49,8.85-9.01,13.36c-5.02,8.98-8.21,20.09-14.77,28.06c-0.81,0.99-1.25,2.05-1.4,3.11c-2.3-0.14-4.61,0.04-6.92,0.07
		c4.06,1.06,4.8,2.39,1.75,6.14c-7.18,8.81-14.44,17.57-21.51,26.47c-7.38,9.3-15.18,18.22-22.9,27.21
		c-5.58,6.5-12.07,12.22-18.39,18.52c-0.11-0.18-0.2-0.37-0.29-0.56c-0.01,0.06-0.03,0.12-0.04,0.18c0.01,0.33-0.04,0.66-0.16,0.98
		c-0.37,0.92-0.77,1.82-1.39,2.49c0.75,2.06-1.18,4.17-2.54,5.09c-3.22,2.17-5.45,5.23-8.26,7.74c-1.03,0.92-2.06,1.55-3.5,1.66
		c-4.31,0.34-6.65,3.07-7.61,6.99c-0.44,1.8-1.24,3.15-2.87,3.76c-4.24,1.6-7.13,6.12-12.41,5.6c-0.76-0.07-1.83,1.32-2.49,2.23
		c-2.17,2.98-2.28,6.43-2.35,9.99c-0.05,2.71,2.9,2.92,3.23,4.07c1.7,5.87,5.64,10.77,6.83,16.82c1.03,5.24,5.73,8.69,7.14,13.96
		c0.28,1.04,2.91,2.08,2.95,4.64c0.11,8.65,5.18,13.78,12.99,17.7c8.61,4.32,10.62-6.76,17.25-5.95c0.44,0.05,1.41-0.73,1.4-1.1
		c-0.2-4.96,4.83-6.52,6.57-10.2c0.44-0.93,1.32-1.59,2.44-1.34c0.58,0.13,0.89,0.44,1.06,0.83c0.8-0.16,1.68-0.05,2.44,0.33
		c0.03-1.66,0.55-3.34,2.42-5.14c5.76-5.56,11.52-11.38,16.46-17.66c6.13-7.79,13.34-14.56,19.43-22.38
		c6.48-8.32,14.44-15.49,20.84-23.87c11.09-14.52,22.83-28.61,32.11-44.44c6.29-10.73,12.11-21.67,16.87-33.22
		c0.35-0.86,0.68-1.86,1.09-2.86c1.73-1.34,3.38-2.78,4.58-4.7c0.01-0.01,0.02-0.03,0.02-0.04c0.59-0.13,1.24-0.18,1.99-0.13
		c-0.18-0.91-0.54-1.42-1-1.7c1.59-3.37,2.29-7.23,3.17-10.79c2.19-8.84,3.99-17.76,4.58-26.85c0.25-0.95,0.54-1.91,0.9-2.87
		C300.51,141.8,292.88,132.07,286.54,132.05z M163.96,327.57c-0.72,0.15-1.21-0.35-1.26-1.1c-0.06-0.79-0.23-1.75,0.82-2
		c0.98-0.24,1.41,0.52,1.73,1.3C165.29,326.72,164.83,327.39,163.96,327.57z"/>
	<path class="st1" d="M948.7,679.99c-0.37-3.03-1.41-4.87-4.1-6.1c-2.6-1.19-5.18-1.94-8.12-1.91c-1.7,0.02-3.39,0.02-5.09,0.02
		c-5.87-0.91-11.81-1.27-17.76-1.27c-1.31,0-2.65-0.02-3.97,0.03c-0.14,0.07-0.27,0.15-0.43,0.2c-5.5,1.92-8.89,6.67-10.77,12
		c-0.71,2.01-2.84,2.76-4.48,2.09c0.56,2.62-0.61,4.84-2.63,7.34c-7.22,8.93-14.25,18.02-21.04,27.28
		c-6.92,9.44-14.14,18.65-21,28.15c-5.12,7.08-10.57,13.97-15.66,21.1c-5.93,8.31-11.92,16.58-17.78,24.94
		c-5.12,7.3-10.37,14.54-15.02,22.13c-1.83,2.99-3.22,6.09-6.31,7.99c1.26,0.02,2.53,0.03,3.79,0.05c-0.74,1.53-0.8,3.39,0.31,5.31
		c1,1.72,2.1,3.33,3.3,4.86c0.34,3.39,2.9,4.2,5,5.51c0.99,0.95,2.01,1.88,3.06,2.78c3.39,3.4,6.96,6.38,11.34,8.63
		c4.25,2.81,8.73,5.06,14.06,6.07c7.48,1.42,15.32,5.84,22.99,3.17c0.73-0.25,1.41-0.57,2.06-0.91c0.17,0.05,0.34,0.11,0.51,0.17
		c0.7,0.26,1.48,0.39,2.23,0.37c1.07-0.84,2.09-1.77,3.05-2.77c0.14-4.63,4.09-7.05,5.24-10.92c0.54-1.8,2.58-2.29,3.14-4.26
		c0.05-0.2,0.1-0.39,0.15-0.59c0.04-0.18,0.09-0.36,0.13-0.55c0.12-0.53,0.22-1.05,0.31-1.57c0.01-0.05,0.03-0.09,0.04-0.14
		c1.11-6.21,0.79-12.65,2.18-18.75c1.04-2.59,2.05-5.19,3.01-7.82c0.93-1.84,1.79-3.66,1.99-5.58c1.74-5.03,3.4-10.09,5.06-15.15
		c1.13-2.16,2.35-4.25,4.16-5.94c1.98-8.3,6.65-15.34,10.92-22.51c5.3-8.89,10.98-17.55,16.6-26.25c0.8-1.25,1.49-2.83,3.21-3.21
		c-0.13-0.24-0.22-0.5-0.27-0.76c-0.28-0.37-0.52-0.72-0.69-1.05c0.32-0.29,0.62-0.59,0.93-0.88c0.28-0.64,0.74-1.21,1.33-1.55
		c0.17-0.1,0.35-0.18,0.53-0.24c5.7-5.72,10.7-12.42,15.23-18.6c3.34-4.56,7.18-9.42,8.32-15.08c0.43-2.13,0.53-4.55,0.36-6.98
		C948.65,685.94,949.08,683.03,948.7,679.99z"/>
	<path class="st1" d="M209.26,820.3c-7.43-11.71-15.04-23.3-22.77-34.81c-4.9-7.31-9.75-14.71-15.36-21.46
		c-5.78-6.95-10.73-14.47-16.23-21.59c-3.12-4.03-5.69-8.49-8.88-12.46c-8.62-10.72-15.25-23.23-27.32-30.9
		c-1.47-0.21-2.94-0.42-4.41-0.64c-4.63-0.69-9.49-1.27-13.86,0.01c-12.76,3.73-21,13.66-29.47,23.07
		c-1.68,1.87-1.39,3.51,0.78,5.83c4.67,5,11.68,6.83,15.72,12.51c1.59,2.24,3.26,4.4,6.73,4.41c2.16,0,3.2,1.82,1.27,3.83
		c-0.14,0.14-0.26,0.29-0.39,0.43c0.4,0.49,0.67,1.13,0.72,1.92c0.09,1.36,0.03,2.7-0.12,4.01c0.45-0.69,0.97-1.35,1.59-1.96
		c13.56,15.83,22.61,34.34,32.55,52.19c3.94,7.08,6.49,15.08,9.89,22.56c1.3,2.86,0.97,4.41-1.37,4.72c1.54,0.28,3.05,0.71,4.54,1.4
		c0.82,0.38,1.32,1.17,1.51,2.03c0.72,0.23,1.45,0.45,2.18,0.63c14.37-1.89,28.72,0.07,42.94,1.33c9.63,0.85,19.37,1.56,28.96,3.17
		c0.92,0.15,1.6,0.18,2.16-0.61C216.86,833.37,213.31,826.68,209.26,820.3z"/>
	<path class="st1" d="M924.07,158.31c-0.23-0.64-0.19-1.28,0.03-1.87c-1.02,1.06-1.87,2.44-3.72,0.23
		c-5.44-6.49-11.1-12.79-16.69-19.15c-0.84-0.96-1.08-1.99-0.78-3.19c-4.52-1.18-7.88-3.74-10.43-7.1
		c-4.47-11.06-11.2-21.3-16.44-31.94c-6-12.2-15.73-22.03-28.14-27.69c-2.05-0.94-4.03-0.7-5.62,0.18
		c-11.83-1.33-23.73,4.15-29.81,13.98c-0.41,0.66-0.88,1.71-0.64,2.26c0.17,0.39,0.31,0.79,0.43,1.18c-0.07,0.9,0.09,1.86,0.5,2.84
		c0.18,2.26,0,4.56,0.41,6.8c0.88,4.85,4,8.71,5.08,13.07c0.02,0.07,0.05,0.14,0.07,0.21c0.24,6.07,1.83,11.93,4.75,17.31
		c2.95,5.42,7.13,10.05,10.04,15.51c2.08,3.9,3.98,7.52,6.86,10.54c-0.12,0.18-0.24,0.36-0.38,0.54c1.74,0.86,2.71,2.35,3.53,4.04
		c8.24,16.89,17.52,33.2,27.16,49.31c6.16,10.29,12.5,20.46,20.23,29.68c3.81-1.95,1.93-6.34,4.02-9.32
		c2.34-3.33,4.19-7.23,4.38-11.85c0.09-2.22,3.26-4.17,4.23-6.78c1.35-3.65,2.99-7.16,3.5-11.12c0.71-5.52,5.06-9.54,6.34-14.99
		c1.5-6.35,6.17-11.44,7.95-17.84c0.47-1.7,2.39-2.81,3.28-4.45C924.17,158.57,924.12,158.44,924.07,158.31z"/>
	<path class="st2" d="M973.19,215.28c-6.9-7.71-14.66-14.87-20.03-23.99c-2.07-3.52-8.52-4.16-6.92-10.29
		c0.04-0.14-0.47-0.63-0.69-0.61c-5.83,0.56-6.64-5.22-9.92-7.86c-3.07-2.46-6.08-4.98-7.89-8.17c-1.57-1.55-2.75-3.6-3.52-5.66
		c-0.9,1.65-2.81,2.75-3.28,4.45c-1.78,6.4-6.45,11.49-7.95,17.84c-1.28,5.45-5.64,9.47-6.34,14.99c-0.51,3.96-2.14,7.47-3.5,11.12
		c-0.97,2.61-4.14,4.56-4.23,6.78c-0.19,4.61-2.04,8.52-4.38,11.85c-2.09,2.98-0.21,7.37-4.02,9.32c0.18,1.21,0.01,2.34-0.3,3.44
		c1.03-0.79,2.68-0.85,3.74-0.23c0.64,0.37,1.06,0.88,1.3,1.46c0.36,0.3,0.64,0.69,0.79,1.04c2.12,5.19,7,8.2,9.77,12.37
		c3.7,5.57,8.79,9.34,13.36,13.45c6.26,5.63,13.43,10.33,19.5,16.33c1.97,1.94,7.02,1.65,7.77-0.47c2.2-6.24,7.16-10.98,9.19-17.33
		c0.71-2.21,1.39-4.86,4.22-5.38c0.38-1.27,0.87-2.51,1.29-3.79c0.29-0.91,0.93-1.63,1.72-2.04c0.76-1.48,2.19-2.6,3.35-3.91
		c1.85-2.07,4.75-3.41,5.54-6.17c1.29-4.52,6.65-6.49,6.86-11.59C978.87,225.89,978.06,220.72,973.19,215.28z"/>
	<path class="st2" d="M222.82,842.08c0.09-0.64,0.35-1.26,0.77-1.75c0-0.09,0-0.18,0-0.27c-0.98-0.04-1.96-0.09-2.94-0.13
		c-0.56,0.79-1.24,0.76-2.16,0.61c-9.59-1.61-19.33-2.32-28.96-3.17c-14.22-1.26-28.56-3.22-42.94-1.33c0,4-0.03,7.99,0.02,11.99
		c0.02,1.27-0.52,2.96,0.93,3.63c3.58,1.66,3.02,4.79,3.04,7.73c0.04,4.66,0.26,9.34-0.05,13.98c-0.39,5.83,0.11,11.03,5.25,14.98
		c1.42,1.09,1.99,3.38,2.8,5.18c2.43,5.42,15.98,10.07,18.92,5.8c2.51-3.65,6.43-4.39,8.8-7.01c4.77-5.28,11.7-4.75,17.28-7.73
		c3.17-1.69,7.86-0.36,7.53-6.2c-0.03-0.47,0.74-1.31,1.26-1.44c4.45-1.06,5.13-4.7,7.08-8.21c4.61-8.29,3.58-16.42,1.99-24.81
		C221.06,842.02,221.93,842.07,222.82,842.08z M213.93,851.17c-0.13,0.39-1,0.68-1.55,0.72c-0.59,0.04-1.47-0.1-1.24-1.04
		c0.18-0.73,0.92-0.78,1.59-0.75C213.32,850.27,214.24,850.27,213.93,851.17z"/>
	<path class="st0" d="M215.47,180.15c-17.85-1.16-35.52-4.08-53.37-5.52c-7.46-0.6-12.91-0.28-16.5,6.57
		c-2.94,5.61-9.21,9.93-6.98,17.61c0.92,3.18,1.75,6.39,2.63,9.59c3.3,11.94,6.83,23.83,9.09,36.03c0.65,0.42,1.15,1.03,1.29,1.8
		c0.13,0.7,0.19,1.4,0.23,2.1c1.68,1.94,2.37,5,2.15,7.88c0.17,0.55,0.21,1.15,0.12,1.71c0.09,0.19,0.19,0.37,0.29,0.56
		c6.32-6.3,12.81-12.02,18.39-18.52c7.71-8.99,15.52-17.91,22.9-27.21c7.07-8.89,14.32-17.66,21.51-26.47
		C220.28,182.54,219.54,181.21,215.47,180.15z"/>
	<path class="st0" d="M132.06,831.51c2.15,0,4.24,0.09,6.29,0.46c2.33-0.31,2.67-1.86,1.37-4.72c-3.41-7.48-5.95-15.48-9.89-22.56
		c-9.94-17.86-18.98-36.36-32.55-52.19c-0.62,0.61-1.13,1.27-1.59,1.96c-0.38,3.26-1.47,6.38-3.15,9.29
		c-0.63,1.09-1.58,1.56-2.55,1.58c-6.14,12.95-10.69,26.65-18.64,38.75c-1.51,2.3-2.06,5-1.32,8.06c1.23,5.08,3.77,9.02,7.89,12.19
		c3.78,2.91,9.03,2.88,12.59,2.87c6.05-0.02,11.75,1.21,17.53,1.98c7.65,1.02,15.44,0.81,22.99,2.51
		C131.35,831.58,131.68,831.51,132.06,831.51z"/>
	<path class="st0" d="M925.3,737.62c-1.02-1.05-2-2.15-2.84-3.41c-0.05-0.08-0.08-0.16-0.12-0.24c-1.72,0.38-2.4,1.96-3.21,3.21
		c-5.61,8.7-11.3,17.36-16.6,26.25c-4.27,7.17-8.94,14.21-10.92,22.51c0.32-0.01,0.64-0.02,0.95-0.03c0.49-0.89,1.4-1.55,2.72-1.58
		c2.22-0.04,4.38-0.65,6.58-0.87c7.65-1.67,15.16-4.17,23.18-3.55c0.72,0.05,1.8-0.32,2.18-0.87c3.35-4.83,6.06-10.11,6.41-16
		c0.52-8.73-3.52-16.33-7.1-23.97C926.13,738.6,925.7,738.12,925.3,737.62z"/>
	<path class="st0" d="M925.74,154.56c1.5-4.86,4.89-8.89,6.05-13.94c0.79-3.43,1.97-6.97-0.41-9.89c-2.58-3.17-6.56-1.95-9.77-1.19
		c-2.44,0.58-4.66,2.17-7.27,2.54c-0.4,0.11-0.79,0.23-1.18,0.36c-1.86,0.9-3.81,1.42-5.83,1.61c-0.64,0.11-1.3,0.19-1.98,0.21
		c-0.34,0.01-0.64-0.04-0.92-0.11c-0.51,0.07-1.02,0.13-1.53,0.19c-0.3,1.2-0.07,2.23,0.78,3.19c5.59,6.36,11.26,12.66,16.69,19.15
		c1.85,2.21,2.7,0.82,3.72-0.23C924.39,155.65,925,154.97,925.74,154.56z"/>
	<path class="st1" d="M907.33,134.05c2.02-0.19,3.96-0.72,5.83-1.61C911.23,133.05,909.34,133.72,907.33,134.05z"/>
	<path class="st3" d="M341.54,686.9c0.72-15.66,1.7-31.29,3.95-46.86c1.81-12.51,2.58-25.17,4.18-37.71
		c1.73-13.49,4.09-26.9,5.82-40.4c1.81-14.13,4.03-28.18,7-42.11c0.37-1.72-0.08-2.43-2.12-2.92
		c-16.34-3.98-31.77-10.55-47.18-17.13c-0.9-0.39-1.66-1.1-2.52-1.6c-1.25-0.72-1.91-2.05-1.69-3.18c0.29-1.46,1.93-0.94,3.01-0.93
		c14.96,0.13,29.88,1.44,44.86,1.04c10.66-0.29,10.39-0.11,12.8-10.45c7.51-32.17,16.98-63.75,29.29-94.45
		c9.18-22.89,20.32-44.74,35.68-64.12c16.05-20.25,34.13-38.31,59.69-46.21c14.84-4.59,29.95-8.24,45.75-7.93
		c8.42,0.17,16.03,2.74,23.72,5.71c27.03,10.43,41.63,31.31,49.85,57.96c5.32,17.24,8.84,34.77,11.03,52.67
		c1.74,14.23,3.14,28.46,4.09,42.76c0.35,5.28,0.77,10.56,0.82,15.86c0.03,3.37,1.48,4.18,4.48,3.05
		c8.74-3.29,17.96-5.06,26.95-7.33c5.7-1.44,11.93-1.91,17.94-2.6c2.26-0.26,4.57,0.18,5.83,1.93c2.64,3.67,5.96,5.04,10.41,5.45
		c4.22,0.39,6.19,3.46,6.45,7.95c0.51,8.84-0.97,17.36-3.14,25.83c-0.28,1.07-0.84,2.33-1.68,2.96c-2.84,2.13-3.8,4.84-3.26,8.24
		c0.42,2.62-1.56,4.21-2.67,6.2c-2.47,4.4-3.65,9.39-6.3,13.76c-5.23,8.62-14.11,10.63-22.84,12.56
		c-7.37,1.63-14.88,2.73-22.45,3.16c-3.39,0.19-5.07,1.5-4.84,5.54c0.86,14.99,2.44,29.89,3.92,44.82
		c1.42,14.23,3.13,28.43,5.32,42.53c4,25.84,9.06,51.54,17.13,76.45c4.25,13.13,3.05,25.94-1.74,37.91
		c-3.81,9.51-6.44,19.69-12.43,28.36c-5.76,8.33-11.27,8.75-18.85,2.23c-24.67-21.24-35.46-50.05-44.16-79.98
		c-5.43-18.71-7.94-38.05-10.93-57.24c-1.57-10.07-1.99-20.31-3.17-30.45c-2.35-20.23-2.63-40.59-3.94-60.88
		c-0.11-1.67-0.49-2.26-2.34-2.07c-15.78,1.6-31.6,0.41-47.4,0.7c-15.8,0.3-31.56-1.02-47.27-2.19c-18.93-1.41-37.87-3.3-56.57-6.78
		c-3.65-0.68-4.57,1.28-5.38,3.88c-12.7,40.7-25.52,81.37-38.02,122.13c-6.54,21.34-11.89,43.03-19.02,64.2
		c-0.53,1.56-1.42,3.39-2.47,3.33c-1.65-0.1-2.24-2.2-2.51-3.76C342.99,706.92,340.96,697.05,341.54,686.9z M420.57,492.23
		c12.8-1.11,24.99-1.65,37.03-3.35c15.22-2.15,30.49-3.98,45.63-6.76c17.64-3.23,35.25-6.54,52.69-10.74
		c2.99-0.72,6.65-0.27,8.81-2.35c2.79-2.69-0.19-6.21-0.16-9.41c0.24-27.47-0.19-54.91-3.89-82.22c-1.39-10.23-3.36-20.3-6.18-30.2
		c-0.52-1.84-1.4-3.41-3.6-4.32c-14.27-5.85-27.78-5.87-41.05,3.23c-16.44,11.28-29.12,25.95-40.44,42.07
		c-11.89,16.94-20.93,35.35-28.91,54.36C433.69,458.78,426.76,474.96,420.57,492.23z"/>
	<path class="st0" d="M420.57,492.23c6.2-17.28,13.12-33.45,19.92-49.68c7.98-19.01,17.02-37.43,28.91-54.36
		c11.32-16.12,24-30.79,40.44-42.07c13.27-9.11,26.78-9.08,41.05-3.23c2.2,0.9,3.08,2.48,3.6,4.32c2.82,9.91,4.79,19.97,6.18,30.2
		c3.7,27.3,4.14,54.74,3.89,82.22c-0.03,3.2,2.96,6.73,0.16,9.41c-2.17,2.08-5.83,1.63-8.81,2.35c-17.44,4.2-35.05,7.51-52.69,10.74
		c-15.14,2.78-30.41,4.61-45.63,6.76C445.56,490.58,433.37,491.12,420.57,492.23z"/>
</g>
<path class="st1" d="M172.28,344.1c1.37-1.81,2.68-3.67,3.9-5.61c2.82-4.48-1.14-8.72-5.24-8.86c2.73-1.03,4.52-4.38,3.61-7.2
	c-1.03-3.17-4.11-4.98-7.38-4.19c-3.63,0.88-7.12,2.23-10.47,3.89c-2.82,1.39-3.82,5.62-2.15,8.21c1.86,2.89,5.19,3.64,8.21,2.15
	c1.59-0.79,1.56-0.8,3.29-1.41c0.5-0.18,1.01-0.33,1.52-0.49c-0.65,0.44-1.24,1.05-1.74,1.85c-4.91,7.81-11.27,14.35-18.85,19.48
	c-3.39-1-6.83-6.31-8.86-8.86c-2.97-3.72-5.57-7.75-7.92-11.89c-4.78-8.42-8.4-16.88-8.15-26.55c2.83-3.55,5.6-7.59,9.09-10.39
	c3.42-2.74,7.73-4.19,11.23-6.9c3.51-2.71,5.61-6.31,8.71-9.39c3.65-3.63,8.17-6.6,12.22-9.77c6.08-4.75-2.47-13.19-8.49-8.49
	c-0.63,0.5-1.28,0.98-1.92,1.47c-0.39,0.54-0.87,0.98-1.53,1.24c-0.3,0.35-0.68,0.64-1.16,0.81c-2.42,1.83-4.83,3.69-7.04,5.73
	c-3.36,3.1-5.39,7.18-9.25,9.79c-3.48,2.35-7.45,3.78-10.71,6.5c-4.01,3.34-7.14,7.93-10.46,11.93c-0.45,0.54-0.78,1.09-1.01,1.66
	c-0.84,0.92-1.43,2.14-1.56,3.67c-1.09,13.12,3.99,25.07,10.52,36.18c3.07,5.23,6.62,10.19,10.55,14.8
	c3.24,3.79,7.08,8.61,12.12,9.94c1.69,1.64,4.22,2.31,6.85,0.72c7.63-4.63,14.29-10.43,19.9-17.22
	C170.06,345.31,171.05,344.38,172.28,344.1z"/>
<path class="st1" d="M978.06,221.41c-2.15-6.7-6.51-11.73-11.53-16.48c-5.25-4.97-9.04-10.41-13.05-16.39
	c-3.92-5.85-8.22-10.89-13.97-15.01c-5.08-3.64-12.35-6.83-14.92-12.97c-1.74-4.16-8.53-6.67-10.97-1.43
	c-2.66,5.71-2.74,11.22-1.28,16.45c-0.62-0.29-1.25-0.59-1.87-0.88c-5.2-2.46-10.86,2.81-8.6,7.57c-0.41,0.39-0.79,0.85-1.1,1.39
	c-4.47,7.84-9.15,16.92-10.18,26c-0.28,2.49-0.11,4.86,0.39,7.12c-1.75,1.7-2.53,4.32-0.96,7.05c0.19,0.34,0.42,0.65,0.66,0.96
	c-1.72,1.73-2.63,4.37-1.43,7.16c10.02,23.22,33.74,33.33,48.71,52.46c1.94,2.48,6.5,2.18,8.49,0c4.56-5.02,6.16-10.97,8.68-17.09
	c2.31-5.6,6.59-9.58,10.86-13.71C974.99,244.91,982.28,234.52,978.06,221.41z"/>
</svg>
