<?xml version="1.0" encoding="utf-8"?>
<!-- Generator: Adobe Illustrator 26.0.3, SVG Export Plug-In . SVG Version: 6.00 Build 0)  -->
<svg version="1.1" id="Layer_1" xmlns="http://www.w3.org/2000/svg" xmlns:xlink="http://www.w3.org/1999/xlink" x="0px" y="0px"
	 viewBox="0 0 1048 1035" style="enable-background:new 0 0 1048 1035;" xml:space="preserve">
<style type="text/css">
	.st0{fill:#F8CE93;}
	.st1{fill:#FAF3DD;}
	.st2{fill:#FCF9ED;}
	.st3{fill:#22020A;}
</style>
<g>
	<path class="st0" d="M890.16,717.31c-0.52-1.89-0.96-3.81-1.49-5.69c-0.44-1.55-0.85-3.57-1.9-4.86c-0.8-0.98-0.93-2.09-0.66-3.07
		c-2.23-5.19-4.46-10.38-6.67-15.58c-6.34-14.96-12.42-30.05-17.09-45.61c-5.33-17.75-9.35-35.84-12.88-54.06
		c-4.71-24.33-6.39-48.94-7.25-73.6c-0.45-13.08,1.08-26.17,1.71-39.25c0.87-18.09,3.42-35.99,6.52-53.73
		c4.44-25.43,9.58-50.77,16.32-75.73c3.76-13.9,7.74-27.76,12.24-41.44c2.62-7.99,4.69-16.19,8.07-23.93
		c0.18-2.56,0.6-5.03,1.21-7.55c0.26-1.07,0.95-1.75,1.78-2.09c0.05-0.53,0.04-1.08-0.04-1.64c-7.73-9.22-14.07-19.39-20.23-29.68
		c-9.64-16.11-18.93-32.42-27.16-49.31c-0.82-1.68-1.8-3.18-3.53-4.04c-7.79,2.26-15.69,4.22-23.36,6.84
		c-25.05,8.57-50.24,16.69-75.92,23.12c-23.75,5.95-47.72,10.74-71.98,14.34c-23.77,3.53-47.65,5.78-71.56,7.53
		c-19.69,1.44-39.47,1.81-59.22,2.04c-13.61,0.16-27.24,0.63-40.88-0.73c-11.05-1.1-22.22-0.36-33.35-0.85
		c-18.72-0.83-37.4-1.92-56.09-3.2c-16.69-1.15-33.37-2.38-50.02-3.97c-14.27-1.36-28.53-2.73-42.77-4.31
		c-7.89-0.49-15.78-0.91-23.69-0.73c-1.49,0.03-2.44-0.76-2.88-1.8c-3.12,1.17-3.93,4.89-4.96,7.39
		c-4.75,11.55-10.58,22.49-16.87,33.22c-9.28,15.83-21.02,29.92-32.11,44.44c-6.39,8.38-14.36,15.55-20.84,23.87
		c-6.09,7.82-13.3,14.59-19.43,22.38c-4.94,6.28-10.7,12.11-16.46,17.66c-1.32,1.27-1.96,2.48-2.24,3.66
		c0.31,0.18,0.58,0.42,0.8,0.69c0.64,0.53,1.07,1.33,1.08,2.4c0,0.19,0.01,0.38,0.01,0.57c0.42,0.51,0.69,1.17,0.69,2.02
		c0.02,5.48,0.91,9.69,3.3,14.6c1.41,2.89,2.17,5.65,2.45,8.87c0.5,5.77-0.4,10.76-1.81,15.88c1.58,11.73,2.66,23.53,3.07,35.38
		c1.07,30.63-2.13,60.89-7.87,90.96c-4.06,21.32-8.76,42.5-14.66,63.34c-5.62,19.89-11.76,39.63-18.9,59.1
		c-6.54,17.83-13.4,35.52-20.55,53.1c0.09,0.29,0.14,0.58,0.14,0.89c-0.04,2.5-0.66,4.88-1.86,7.07c-0.41,0.75-1.12,1.25-1.91,1.47
		c10.6,6.59,16.63,17.32,24.03,26.79c5.28,6.75,10.35,13.69,15.24,20.74c6.18,8.9,13.29,17.11,19.57,25.88
		c11.21,15.67,21.63,31.92,31.85,48.26c3.68,5.89,6.97,12.08,10.48,18.11c1.06-1.33,2.96-1.92,4.45-0.5
		c8.51,0.57,16.94,1.84,25.48,1.85c8.38,0.01,16.79-0.41,25.16,0.13c12.78,0.82,25.84,4.53,37.79,9.56
		c10.54,1.28,21.07,2.59,31.6,3.98c15.74,2.08,31.47,4.22,47.17,6.61c17.03,2.59,34.08,4.91,51.23,6.46
		c10.58,0.96,21.22,1.19,31.78,2.13c17.98,1.6,35.98,1.25,53.88,0.47c14.97-0.65,29.99-2.29,44.9-4.56
		c14.55-2.21,29.3-3.12,43.84-5.4c23.05-3.62,46.06-7.58,68.97-11.97c26.65-5.11,53.23-10.59,79.71-16.58
		c9.55-2.16,18.68-5.87,28.42-7.22c2.78-1.91,4.52-4.45,6.07-7.54c4.16-8.27,10.4-15.23,15.58-22.86
		c5.63-8.29,11.56-16.38,17.4-24.52c5.19-7.24,10.74-14.24,15.92-21.44c6.73-9.36,13.85-18.41,20.65-27.71
		c6.86-9.38,14.02-18.56,21.28-27.63c1.95-2.43,3.17-4.61,2.72-7.11C892.21,719.78,890.67,719.13,890.16,717.31z M744.09,506.6
		c0.43,19.58-3.48,38.62-8.21,57.46C725.6,604.99,709,643.29,687.1,679.33c-15.02,24.72-32.48,47.56-53.72,67.25
		c-26.61,24.67-57.32,41.55-93.46,48.04c-15.3,2.75-30.68,3.67-46.02,2.67c-31.33-2.04-60.94-10.43-87.93-26.92
		c-3.91-2.39-7.29-5.64-10.93-8.47c-4.42-3.44-4.79-3.32-6.99,2.07c-1.79,4.39-3.69,8.66-6.42,12.66c-2.57,3.77-6.2,5.22-10.02,6.6
		c-2.12,0.77-4.28,0.32-5.86-1.62c-2.56-3.12-5.91-5.27-9.33-7.26c-2.65-1.54-4.74-3.49-6.2-6.18c-5.1-9.48-10.39-18.86-15.31-28.43
		c-5.05-9.83-3.3-19.73-0.6-30c5.3-20.18,9.21-40.69,12.82-61.25c2.52-14.33,5.39-28.6,7.75-42.96c1.7-10.36,2.81-20.82,4.22-31.22
		c1.59-11.7,3.34-23.37,4.81-35.08c1.21-9.64,2.11-19.32,3.18-28.98c1.27-11.42,2.66-22.84,3.83-34.27c0.49-4.76,0.75-9.57,1-14.33
		c0.86-16.22,1.51-32.48,2.46-48.67c1.4-23.75,1.52-47.47,1.78-71.22c0.04-3.72-2.32-7.31,0.06-12.53c2,6.8,3.63,12.34,5.43,18.5
		c6.12-3.63,11.96-7.68,18.36-10.78c15.89-7.68,32.78-11.93,49.93-15.46c15.08-3.1,30.31-5.55,45.6-6.75
		c18.49-1.45,37.05-2.11,55.67-0.5c11.3,0.98,22.51,2.1,33.69,4.08c20.62,3.65,39.89,10.87,58.59,20.11
		c20.13,9.94,38.87,21.87,54.58,37.95c20.65,21.15,35.17,45.96,41.94,74.96c3,12.88,4.24,25.95,4.3,39.23
		C744.34,495.91,743.97,501.25,744.09,506.6z"/>
	<path class="st1" d="M299.15,179.44c-0.11-1.3-0.32-2.48-0.63-3.57c-0.02-0.06-0.03-0.12-0.05-0.18
		c-1.61-5.54-5.77-8.52-12.19-9.45c-10.76-1.55-21.61-1.96-32.47-1.36c-0.71,0.04-1.28,0.28-1.73,0.63c-0.2-0.04-0.4-0.07-0.63-0.07
		c-1.66,0-2.6,1.11-2.83,2.37c-0.11,0.22-0.21,0.46-0.28,0.73c-2.5,10.42-8.2,18.97-16.59,25.57c-3.39,2.67-6.84,5.33-8.79,9.28
		c-1.78,3.6-2.15,7.59-2.27,11.54c-0.27,0.14-0.52,0.31-0.72,0.53c-0.71,0.14-1.43,0.23-2.15,0.27c1.32,0.99,1.01,2.42-1.08,4.98
		c-7.18,8.8-14.38,17.6-21.51,26.44c-7.46,9.24-14.88,18.5-22.87,27.27c-5.78,6.34-12.1,12.19-18.41,18.49
		c-0.04-0.07-0.07-0.14-0.11-0.21c-0.26,1.53-0.87,2.94-1.97,4.12c-0.06,2.13-1.42,3.7-3.09,4.91c-2.06,1.49-3.59,3.32-5.37,4.97
		c-2.07,1.91-3.81,3.79-7.12,3.96c-2.84,0.15-5.46,3.04-5.84,5.3c-1.18,6.93-7.31,8.1-11.77,10.11c-4.62,2.08-7.59,4.56-8.54,8.27
		c-0.28,0.4-0.48,0.88-0.54,1.46c-0.85,8.06,5.05,16.89,8.5,23.82c3.58,7.18,7.44,14.21,11.56,21.09c0.01,6.49,5.87,9.8,9.99,13.62
		c1.66,1.54,4.18,2.94,6.98,2.93c1.08,0.96,2.8,1.34,4.23,0.2c3.16-2.53,6.35-5.04,9.51-7.58c0.3,0,0.61,0.02,0.93,0.07
		c0.17,0.02,0.66-0.79,0.66-1.21c0-0.05,0.01-0.09,0.01-0.14c1.31-1.06,2.62-2.14,3.92-3.22c2.91-2.43,6.15-4.97,8.16-8.23
		c0.14,0.06,0.29,0.12,0.43,0.2c0.28-1.18,0.93-2.39,2.24-3.66c5.76-5.56,11.52-11.38,16.46-17.66
		c6.13-7.79,13.34-14.56,19.43-22.38c6.48-8.32,14.44-15.49,20.84-23.87c11.09-14.52,22.83-28.61,32.11-44.44
		c6.29-10.73,12.11-21.67,16.87-33.22c0.66-1.6,1.23-3.71,2.38-5.33c0.97-0.57,1.8-1.27,2.55-2.05c0.01,0,0.01-0.01,0.02-0.01
		c0,0,0-0.01,0-0.01c3.95-4.14,5.2-10.84,6.77-16.33C296.74,199.32,299.93,189,299.15,179.44z"/>
	<path class="st1" d="M949.06,719.39c0.01-4.41-0.21-8.86-3.84-11.93c-4.83-4.09-13.38-2.87-19.26-2.85
		c-6.19,0.02-13.37-0.58-19.02,2.41c-4.6,2.43-7.75,6.45-10.33,10.83c-0.08-0.05-0.15-0.12-0.22-0.17
		c-0.47,1.08-1.56,1.77-2.72,1.93c0.44,2.51-0.78,4.68-2.72,7.11c-7.26,9.08-14.42,18.25-21.28,27.63
		c-6.8,9.3-13.92,18.35-20.65,27.71c-5.18,7.2-10.74,14.2-15.92,21.44c-5.84,8.15-11.77,16.23-17.4,24.52
		c-5.18,7.64-11.42,14.59-15.58,22.86c-0.34,0.68-0.69,1.33-1.06,1.95c-0.95,0.41-1.76,1.19-2.17,2.43c-0.1,0.3-0.17,0.6-0.24,0.89
		c-0.76,0.83-1.61,1.59-2.6,2.27c0.72,0.01,1.44,0.02,2.16,0.04c-0.65,7.06,4.53,12.73,10.12,16.95c2.39,1.8,4.89,3.42,7.46,4.9
		c3.25,2.58,6.66,4.9,10.65,6.9c12.13,6.07,24.73,5.67,37.42,6.22c1.51,0.07,4.15,0.63,3.99-1.65c-0.27-3.66,2.4-5.55,3.62-8.28
		c1.17-2.62,3.54-4.35,4.55-6.96c1.56-4.04,1.69-8.34,1.85-12.62c0.04-0.16,0.07-0.33,0.11-0.49c1.17-5.26,2.97-10.31,4.98-15.3
		c3.55-8.8,7.32-17.32,9.09-26.59c0.34-0.4,0.7-0.79,1.09-1.16c1.99-8.3,6.65-15.34,10.92-22.51c5.3-8.89,10.98-17.55,16.6-26.25
		c0.85-1.32,1.55-3.02,3.49-3.28c-0.35-0.4-0.63-0.78-0.86-1.14c0.23-0.29,0.45-0.57,0.68-0.86c4.88-3.38,8.45-8.62,11.2-14
		c0.09-0.18,0.18-0.36,0.27-0.53c1.92-2.43,3.83-4.85,5.75-7.28c5.31-6.74,10.6-13.46,10.9-22.4
		C950.11,720.93,949.7,720.03,949.06,719.39z"/>
	<path class="st1" d="M209.18,855.35c-10.22-16.34-20.65-32.59-31.85-48.26c-6.27-8.77-13.39-16.98-19.57-25.88
		c-4.89-7.05-9.96-13.98-15.24-20.74c-7.4-9.46-13.43-20.2-24.03-26.79c-0.85,0.24-1.8,0.16-2.57-0.29
		c-0.18-0.11-0.35-0.23-0.5-0.37c-7.98-1.18-15.67-0.44-23.36,3.09c-3.41,1.57-5.51,4.05-7.98,6.31c-4.7,4.31-9.69,8.38-13.59,13.48
		c-1.54,2-1.42,3.52,0.76,5.86c4.67,5,11.7,6.82,15.73,12.51c1.59,2.24,3.25,4.42,6.73,4.42c1.98,0,3.03,1.53,1.69,3.34
		c1,1.53,1.39,3.23,1.33,4.96c0.02-0.02,0.04-0.05,0.06-0.07c13.56,15.83,22.61,34.34,32.54,52.19c3.94,7.08,6.49,15.08,9.89,22.56
		c1.58,3.47,0.76,5.02-3.14,4.76c-1.32-0.09-2.66,0.02-3.99,0.04c0,0.03,0.01,0.06,0.02,0.09h6.64c0.13,0,0.24,0.02,0.36,0.03
		c0.11-0.01,0.22-0.03,0.34-0.03c1.38,0,2.29,0.7,2.77,1.63c0.45,0.34,0.87,0.74,1.24,1.24c0.07,0.1,0.13,0.21,0.2,0.31
		c0.81,0.27,1.61,0.52,2.43,0.71c14.4-1.86,28.76,0.13,43.03,1.29c9.99,0.81,19.93,2.44,30.01,2.62c0.13-0.33,0.31-0.64,0.53-0.91
		C216.14,867.43,212.86,861.24,209.18,855.35z"/>
	<path class="st1" d="M922.73,194.33c-0.38-0.87-0.37-1.71-0.12-2.45c-0.7,0.57-1.5,0.7-2.75-0.79
		c-5.42-6.48-11.07-12.77-16.66-19.11c-0.52-0.59-0.79-1.22-0.87-1.89c-1.36-0.09-2.15-1.01-2.4-2.14
		c-5.2-2.15-8.63-6.34-11.02-11.41c-1.38-2.92-0.79-7.15-5.96-6.5c-0.2,0.03-0.86-1.14-0.77-1.65c0.66-3.64-1.3-5.04-4.46-5.67
		c-0.76-0.15-1.76-0.67-2.06-1.3c-2.76-5.62-7.37-10.15-9.54-16.09c-1.14-3.13-2.15-6.19-5.94-7.02c-1.06-0.23-1.6-1.02-2.01-2.02
		c-2.46-6.01-8.9-8.27-12.55-13.18c-0.25-0.33-0.87-0.43-1.34-0.55c-10.26-2.61-22.96,2.05-30.08,10.55
		c-4.17,2.26-7.32,6.11-4.97,11.29c0.25,0.54,0.55,1.06,0.86,1.56c2.23,9.22,7.44,17.62,11.72,26.14c1.03,3.15,2.17,6.26,3.65,9.25
		c0.59,1.19,1.21,2.36,1.86,3.52c3,7.73,6.09,15.54,11.86,21.45c-0.03,0.05-0.06,0.09-0.09,0.14c0.17,0.09,0.34,0.18,0.5,0.28
		c0.55,0.54,1.13,1.07,1.73,1.58c0.51,0.66,0.93,1.4,1.31,2.18c8.23,16.89,17.52,33.2,27.16,49.31
		c6.16,10.29,12.5,20.46,20.23,29.68c3.81-1.95,1.93-6.34,4.02-9.32c2.34-3.33,4.19-7.23,4.38-11.85c0.09-2.22,3.26-4.17,4.23-6.78
		c1.35-3.65,2.99-7.16,3.5-11.12c0.71-5.52,5.06-9.54,6.34-14.99c1.5-6.35,6.17-11.44,7.95-17.84c0.34-1.22,1.42-2.14,2.33-3.17
		C922.76,194.38,922.74,194.36,922.73,194.33z"/>
	<path class="st2" d="M976.92,256.6c-3.66-3.59-6.51-7.83-9.9-11.81c-4.5-5.28-9.86-9.5-13.96-15.15
		c-4.76-6.58-10.24-12.47-16.11-18.07c-1.3-1.24-2.65-2.49-3.9-3.82c-4.17-3.83-7.94-7.99-10.28-13.33
		c-0.91,1.03-1.99,1.95-2.33,3.17c-1.78,6.4-6.45,11.49-7.95,17.84c-1.28,5.45-5.64,9.47-6.34,14.99c-0.51,3.96-2.14,7.47-3.5,11.12
		c-0.97,2.61-4.14,4.56-4.23,6.78c-0.19,4.61-2.04,8.52-4.38,11.85c-2.09,2.98-0.21,7.37-4.02,9.32c0.08,0.56,0.09,1.11,0.04,1.64
		c1.68-0.68,3.96,0.07,4.55,2.09c0.11,0.38,0.23,0.75,0.35,1.12c0.26,0.27,0.47,0.57,0.58,0.84c2.12,5.19,7,8.2,9.77,12.37
		c3.7,5.57,8.79,9.34,13.36,13.45c6.26,5.64,13.43,10.33,19.5,16.33c1.97,1.94,7.02,1.65,7.77-0.47c2.2-6.24,7.16-10.98,9.19-17.33
		c0.79-2.47,1.54-5.51,5.34-5.48c0.96,0.01,1.74-1.31,1.51-2.3c-0.81-3.57,1.82-5.21,3.73-7.35c1.85-2.07,4.75-3.41,5.54-6.17
		c1.29-4.52,6.65-6.49,6.86-11.59C978.26,263,978.05,259.74,976.92,256.6z"/>
	<path class="st2" d="M219.64,877.71c-0.89-1.08-0.94-2.3-0.52-3.34c-10.07-0.18-20.02-1.81-30.01-2.62
		c-14.27-1.16-28.63-3.15-43.03-1.29c0,3.99-0.03,7.99,0.02,11.98c0,0.35-0.03,0.73-0.06,1.12c0.11,0.67,0.22,1.33,0.35,2
		c0.15,0.2,0.34,0.39,0.63,0.52c3.58,1.66,3.03,4.78,3.05,7.72c0.01,2.23,0.04,4.46,0.07,6.7c3.05,10.21,6.79,20.2,9.71,30.44
		c1.72,2.42,4.11,4.08,8,3.61c4.46-0.54,8.27,0.05,12.32-4.21c5.99-6.3,14.94-9.13,23.31-11.49c3.92-1.11,7.28-0.85,7.12-6.05
		c-0.02-0.48,0.75-1.31,1.27-1.43c4.48-1.04,5.11-4.72,7.06-8.21c4.32-7.73,3.68-15.33,2.29-23.14
		C220.28,879.51,219.77,878.64,219.64,877.71z M212.13,886.36c-0.64,0-1.42-0.02-1.42-0.91c0-0.87,0.78-0.9,1.42-0.9
		c0.64,0,1.33,0.02,1.44,0.91C213.45,886.32,212.77,886.37,212.13,886.36z"/>
	<path class="st0" d="M217.81,215.73c-0.48,0.02-0.95,0.03-1.42-0.01c-0.98-0.07-1.87-0.5-2.48-1.19
		c-10.42-0.31-20.63-2.67-31.02-3.33c-7.75-0.49-15.57-0.87-23.2-2.21c-5-0.88-9.21-0.92-12.03,3.61
		c-3.86,6.2-11.14,10.85-9.52,19.64c0.66,3.57,1.68,7.08,2.64,10.59c3.28,11.97,6.82,23.87,9.08,36.09c0.24,0.22,0.46,0.48,0.65,0.8
		c2.03,3.55,4.05,8.72,3.32,12.98c0.04,0.07,0.07,0.14,0.11,0.21c6.31-6.3,12.63-12.14,18.41-18.49
		c7.99-8.77,15.41-18.03,22.87-27.27c7.14-8.84,14.33-17.64,21.51-26.44C218.82,218.15,219.13,216.72,217.81,215.73z"/>
	<path class="st0" d="M139.22,861.68c-3.41-7.48-5.95-15.48-9.89-22.56c-9.94-17.86-18.99-36.36-32.54-52.19
		c-0.02,0.02-0.04,0.05-0.06,0.07c-0.17,4.75-3.72,9.82-7.22,12.77c-6.14,12.94-10.69,26.65-18.63,38.74c-1.51,2.3-2.06,5-1.32,8.06
		c1.23,5.08,3.77,9.02,7.89,12.19c3.78,2.91,9.03,2.88,12.59,2.87c6.05-0.02,11.75,1.21,17.53,1.98c8.17,1.09,16.5,0.77,24.53,2.88
		c1.33-0.02,2.66-0.13,3.99-0.04C139.98,866.7,140.8,865.15,139.22,861.68z"/>
	<path class="st0" d="M926.91,775.34c-0.13-0.11-0.26-0.21-0.37-0.35c-0.7-0.88-1.32-1.77-1.89-2.74c-0.24-0.41-0.47-0.82-0.71-1.23
		c-0.14-0.22-0.28-0.44-0.42-0.66c-0.12-0.19-0.26-0.35-0.04-0.08c-0.45-0.56-0.74-1.17-0.86-1.8c-0.17-0.04-0.33-0.08-0.49-0.15
		c-1.94,0.25-2.64,1.96-3.49,3.28c-5.61,8.7-11.3,17.36-16.6,26.25c-4.27,7.17-8.94,14.21-10.92,22.51
		c0.44-0.02,0.88-0.03,1.31-0.05c0.32-0.29,0.71-0.54,1.2-0.7c0.66-0.23,1.32-0.4,1.99-0.55c0.76-0.37,1.58-0.57,2.51-0.53
		c8.78-1.55,17.28-4.9,26.43-4.2c0.72,0.05,1.8-0.32,2.18-0.86c3.35-4.83,6.06-10.11,6.41-15.99
		C933.63,789.45,930.25,782.37,926.91,775.34z"/>
	<path class="st0" d="M925.04,189.47c0.02-0.02,0.04-0.04,0.06-0.06c1.43-5.05,4.99-9.16,6.19-14.36c0.79-3.43,1.97-6.97-0.41-9.89
		c-1.04-1.28-2.32-1.84-3.67-2c-3.15,0.9-6.1,2.43-9.44,3.78c-4.74,1.91-9.75,2.56-14.79,3.14c-0.23,0.03-0.44,0.02-0.64,0.01
		c0.08,0.67,0.35,1.3,0.87,1.89c5.58,6.34,11.24,12.63,16.66,19.11c1.25,1.49,2.04,1.36,2.75,0.79
		C922.99,190.72,923.96,189.82,925.04,189.47z"/>
	<path class="st3" d="M376.23,329.22c2,6.8,3.63,12.34,5.43,18.5c6.12-3.63,11.96-7.68,18.36-10.78
		c15.89-7.68,32.78-11.93,49.93-15.46c15.08-3.1,30.31-5.55,45.6-6.75c18.49-1.45,37.05-2.11,55.67-0.5
		c11.3,0.98,22.51,2.1,33.69,4.08c20.62,3.65,39.89,10.87,58.59,20.11c20.13,9.94,38.87,21.87,54.58,37.95
		c20.65,21.15,35.17,45.96,41.94,74.96c3,12.88,4.24,25.95,4.3,39.23c0.02,5.34-0.35,10.68-0.23,16.04
		c0.43,19.58-3.48,38.62-8.21,57.46C725.6,604.99,709,643.29,687.1,679.33c-15.02,24.72-32.48,47.56-53.72,67.25
		c-26.61,24.67-57.32,41.55-93.46,48.04c-15.3,2.75-30.68,3.67-46.02,2.67c-31.33-2.04-60.94-10.43-87.93-26.92
		c-3.91-2.39-7.29-5.64-10.93-8.47c-4.42-3.44-4.79-3.32-6.99,2.07c-1.79,4.39-3.69,8.66-6.42,12.66c-2.57,3.77-6.2,5.22-10.02,6.6
		c-2.12,0.77-4.28,0.32-5.86-1.62c-2.56-3.12-5.91-5.27-9.33-7.26c-2.65-1.54-4.74-3.49-6.2-6.18c-5.1-9.48-10.39-18.86-15.32-28.43
		c-5.05-9.83-3.3-19.73-0.6-30c5.3-20.18,9.21-40.69,12.82-61.25c2.52-14.33,5.39-28.6,7.75-42.96c1.7-10.36,2.81-20.82,4.22-31.22
		c1.59-11.7,3.34-23.37,4.81-35.08c1.21-9.64,2.11-19.32,3.18-28.98c1.27-11.42,2.66-22.84,3.83-34.27c0.49-4.76,0.75-9.57,1-14.33
		c0.86-16.22,1.51-32.48,2.46-48.67c1.4-23.75,1.52-47.47,1.78-71.22C376.22,338.02,373.85,334.44,376.23,329.22z M407.22,682.09
		c2.76-0.79,5.53-1.37,7.79-0.09c5.65,3.18,11.83,5.64,17.2,8.88c14.49,8.74,30.51,13.03,46.13,18.51
		c12.73,4.47,26.07,6.64,39.43,7.83c7.81,0.69,15.98,1.67,23.71-0.7c22.8-7.01,41.52-20.81,58.73-36.74
		c12.63-11.69,23.26-25.21,33.26-39.2c18.94-26.5,33.2-55.28,42.15-86.66c4-14.04,6.91-28.34,8.28-42.82
		c0.64-6.72,1.86-13.66,0.96-20.32c-0.9-6.58-0.56-13.17-1.59-19.75c-1.87-11.89-4.22-23.78-10.55-33.94
		c-8.4-13.48-19.16-25.3-31.85-34.98c-19.8-15.11-41.97-25.9-65.57-33.63c-20.71-6.78-41.95-11.23-63.58-14.17
		c-17.39-2.36-34.82-4.01-52.33-4.85c-24.19-1.16-48.11,1.66-71.99,5.02c-2.44,0.34-3.62,0.94-2.81,4.2
		c3.11,12.43,6.23,24.89,8.38,37.51c3.14,18.38,5.96,36.81,8.32,55.33c1.83,14.35,3.22,28.73,4.7,43.1
		c1.48,14.44,2.31,28.96,3.05,43.47c0.89,17.58,1.67,35.18,1.98,52.77c0.38,21.73-0.86,43.44-1.85,65.15
		C408.76,664.58,407.98,673.1,407.22,682.09z"/>
	<path class="st0" d="M407.22,682.09c0.77-9,1.54-17.52,1.93-26.09c1-21.71,2.23-43.41,1.85-65.15c-0.31-17.6-1.09-35.19-1.98-52.77
		c-0.74-14.5-1.56-29.02-3.05-43.47c-1.48-14.37-2.87-28.76-4.7-43.1c-2.36-18.52-5.18-36.95-8.32-55.33
		c-2.16-12.62-5.27-25.08-8.38-37.51c-0.82-3.26,0.36-3.85,2.81-4.2c23.88-3.36,47.8-6.18,71.99-5.02
		c17.51,0.84,34.94,2.49,52.33,4.85c21.62,2.94,42.87,7.39,63.58,14.17c23.6,7.73,45.77,18.52,65.57,33.63
		c12.69,9.68,23.45,21.5,31.85,34.98c6.33,10.16,8.68,22.04,10.55,33.94c1.03,6.57,0.7,13.17,1.59,19.75
		c0.91,6.66-0.32,13.6-0.96,20.32c-1.37,14.49-4.28,28.78-8.28,42.82c-8.94,31.38-23.2,60.16-42.15,86.66
		c-10,13.99-20.63,27.51-33.26,39.2c-17.21,15.93-35.93,29.73-58.73,36.74c-7.72,2.37-15.89,1.4-23.71,0.7
		c-13.36-1.18-26.7-3.35-39.43-7.83c-15.62-5.49-31.64-9.77-46.13-18.51c-5.37-3.24-11.55-5.7-17.2-8.88
		C412.74,680.73,409.98,681.3,407.22,682.09z"/>
</g>
<path class="st1" d="M223.2,888.45c-0.06-4.86-0.62-9.67-2.51-14.27c-0.69-1.68-2.36-2.2-3.77-1.9c-0.59-0.8-1.21-1.57-1.88-2.28
	c-1.77-1.88-4.24-0.6-4.91,1.28c-0.01,0-0.02,0-0.02,0.01c-0.28-0.28-0.59-0.54-0.93-0.77c-2.65-1.84-6.55-1.83-9.62-2.03
	c-4.49-0.29-9.01-0.32-13.51-0.44c-8.6-0.23-17.2-0.49-25.8-0.68c-1.18-1.64-3.73-2.21-4.79,0.02c-2.87,0.31-4.79,1.47-6.09,3.46
	c-0.24-1.72-0.42-3.45-0.53-5.2c-0.25-3.83-6.25-3.86-6,0c0.07,1.16,0.19,2.32,0.32,3.47c0.1,0.12,0.21,0.23,0.3,0.35
	c1.62,2.16,1.51,4.83,1.73,7.39c0.24,2.77,0.62,5.52,1.12,8.25c0.02,0.07,0.03,0.14,0.05,0.21c0,0.02,0,0.04,0,0.05
	c0.15,0.82,0.31,1.64,0.48,2.45c3.2,15.03,9.12,29.24,13.25,43.98c0.31,0.23,0.62,0.44,0.97,0.64c6.2,3.64,15.88,1.57,22.39,0.01
	c13.7-3.28,31.55-8.16,37.54-22.43C223.59,903.8,224.33,895.94,223.2,888.45z M202.15,901.78c-0.03-0.33-0.08-0.65-0.14-0.97
	c0.25-0.1,0.48-0.23,0.7-0.38C202.52,900.88,202.34,901.33,202.15,901.78z M214.95,908.78c0.07-0.28,0.13-0.55,0.19-0.84
	c1.41-3.06,2.11-6.45,1.82-10.05c-0.01-0.18-0.05-0.34-0.09-0.5c0.08-0.28,0.15-0.57,0.22-0.85c0.05,0.23,0.12,0.44,0.22,0.63
	C217.23,901.2,216.69,905.25,214.95,908.78z"/>
<path class="st1" d="M157.65,290.48c-4.86,2.04-8.74,4.99-11.71,9.39c-1.7,2.52-3.2,4.89-5.54,6.9c-2.13,1.83-4.42,3.22-6.28,5.35
	c-2.52,2.91,1.71,7.17,4.24,4.24c3-3.46,7.1-5.57,9.94-9.26c3.37-4.39,5.54-8.57,10.94-10.83
	C162.75,294.8,161.21,288.99,157.65,290.48z"/>
<path class="st1" d="M975.42,255.04c-2.97-3.23-5.49-6.83-8.4-10.25c-4.5-5.28-9.86-9.5-13.96-15.15
	c-4.76-6.58-10.24-12.47-16.11-18.07c-1.3-1.24-2.65-2.49-3.9-3.82c-0.38-0.35-0.76-0.71-1.14-1.07c-2.81-3.92-5.76-7.73-8.97-11.38
	c-0.31-0.4-0.62-0.8-0.92-1.22c-0.23-1.07-0.97-2.01-2.23-2.24c0,0-0.01-0.01-0.01-0.01c-3.56-3.73-9.21,1.93-5.66,5.66
	c0.71,0.75,1.4,1.52,2.08,2.28c-0.68-0.15-1.37-0.26-2.1-0.31c-1.76-0.13-2.81,1.49-3,3c-0.06,0.45-0.07,0.89-0.06,1.32
	c-2.72-1.12-5.76,2.91-3.19,4.93c0.15,0.12,0.31,0.24,0.47,0.36c-0.3,1.68,0.71,3.57,2.12,5.34c-1.81,0.78-3.34,2.34-4.12,4.22
	c-3.23-0.33-6.4,2.39-7.54,5.28c-1.2,3.03-1.42,5.9-0.99,8.64c-4.15,0.93-7.49,5.28-4.62,10.09c2.13,3.59,4.43,7.09,6.9,10.45
	c-1.16-0.99-2.36-1.93-3.62-2.79c-2.91-1.98-6.87-0.84-9.02,1.7c-0.38-0.9-0.75-1.8-1.14-2.66c-2.11-4.69-9-0.62-6.91,4.04
	c2.62,5.84,4.77,12.47,8.73,17.57c3.64,4.69,7.82,9.28,12.01,13.48c1.3,1.31,2.67,2.54,4.08,3.71c0.45,0.46,0.92,0.91,1.41,1.35
	c3.45,4.37,7.28,8.29,11.65,11.93c6.21,5.17,12.23,10.28,18.11,15.81c5.48,5.15,9.27,1.26,13.17-3.51
	c5.19-6.35,9.05-13.3,12.91-20.5c1.93-3.59,4-7.06,6.97-9.9c2.49-2.39,5.38-4.36,7.45-7.16
	C981.23,268.91,979.5,261.69,975.42,255.04z M934.42,227.29c-0.11-0.09-0.21-0.18-0.32-0.26c0.09-0.02,0.19-0.03,0.28-0.06
	c0.73,0.51,1.46,1.02,2.18,1.54c0.17,0.37,0.36,0.73,0.57,1.08C936.23,228.82,935.33,228.05,934.42,227.29z"/>
<path class="st1" d="M905.52,174.71c-0.67-0.97-1.33-1.96-1.99-2.94c-0.34-0.94-0.72-1.86-1.14-2.77c-0.12-0.38-0.28-0.74-0.51-1.06
	c-5.22-10.63-14.86-19.33-21.39-28.96c-4.26-6.28-8.3-12.7-13-18.66c-5.26-6.66-12.33-11.6-17.48-18.27c-1.61-2.09-4.26-2.01-6-0.89
	c-3.02,0.4-5.4,4.14-2.49,6.63c5.62,4.81,11.06,9.63,14.9,16.04c3.8,6.35,7.54,12.51,12.28,18.23c4.84,5.83,11.06,10.41,15.77,16.3
	c4.25,5.32,7.97,11.16,11.76,16.86c0.41,1.17,0.75,2.37,1,3.62c0.77,3.78,5.29,3.53,7.08,1.05
	C906,178.85,906.96,176.81,905.52,174.71z"/>
</svg>
