<?xml version="1.0" encoding="utf-8"?>
<!-- Generator: Adobe Illustrator 26.0.3, SVG Export Plug-In . SVG Version: 6.00 Build 0)  -->
<svg version="1.1" id="Layer_1" xmlns="http://www.w3.org/2000/svg" xmlns:xlink="http://www.w3.org/1999/xlink" x="0px" y="0px"
	 viewBox="0 0 1095 924" style="enable-background:new 0 0 1095 924;" xml:space="preserve">
<style type="text/css">
	.st0{fill:#F8CE93;}
	.st1{fill:#FAF3DD;}
	.st2{fill:#FCF9ED;}
	.st3{fill:#F7CF95;}
	.st4{fill:#22020A;}
</style>
<g>
	<path class="st0" d="M932.71,585.06c-0.61-1.91-2.48-3.32-3.31-5.18c-0.93-2.08-1.36-4.35-1.98-6.55c-0.05-0.11-0.1-0.22-0.16-0.33
		c-2.61-6.09-5.24-12.18-7.83-18.28c-6.34-14.96-12.42-30.05-17.09-45.61c-5.33-17.75-9.35-35.84-12.88-54.06
		c-4.71-24.33-6.39-48.94-7.25-73.6c-0.46-13.08,1.08-26.17,1.71-39.25c0.87-18.09,3.42-35.99,6.52-53.73
		c4.44-25.43,9.58-50.77,16.32-75.73c3.76-13.9,7.74-27.76,12.24-41.44c2.61-7.95,4.68-16.13,8.02-23.84
		c0.24-2.31,0.55-4.61,0.64-6.93c0.05-1.42,1.14-2.58,2.41-3.06c0.02-0.45,0.01-0.91-0.06-1.39c-7.18-7.98-12.79-17.13-18.29-26.21
		c-10.49-17.33-20.63-34.89-29.35-53.22c-0.75-1.57-1.77-2.78-3.29-3.6c-8.06,2.1-16.04,4.49-23.97,7.04
		c-0.38,0.46-0.92,0.82-1.66,1.01c-6,1.53-10.24,5.91-15.6,8.73c-4.59,2.41-9.63,3.84-14.63,5.11c-11.49,2.91-23.03,7.47-35.05,6.58
		c-0.35-0.03-0.66-0.11-0.95-0.21c-7.44,1.77-14.89,3.53-22.33,5.33c-33.35,8.11-67.28,12.68-101.34,16.25
		c-15.65,1.64-31.4,2.75-47.13,2.98c-13.8,0.2-27.56,1-41.35,1.2c-16.64,0.23-33.25-0.38-49.86-1.01
		c-7.29-0.28-14.61-0.56-21.87-0.71c-20.42-0.43-40.73-2.21-61.09-3.34c-9.6-0.53-19.19-1.18-28.76-2.09
		c-15.65-1.49-31.25-3.42-46.91-4.8c-8.35-0.74-16.68-1.64-24.99-2.69c-0.2,0.03-0.4,0.05-0.6,0.03c-2.65-0.19-5.28-0.6-7.94-0.68
		c-0.6,0.28-1.3,0.39-2.11,0.21c-1-0.22-2.04-0.48-3.02-0.84c-3.37,1-4.41,4.87-5.52,7.58c-4.73,11.55-10.59,22.47-16.84,33.22
		c-9.22,15.87-21.03,29.89-32.1,44.42c-6.39,8.38-14.33,15.56-20.83,23.86c-6.01,7.68-13.23,14.24-19.06,22.1
		c-3.91,5.27-9.07,9.62-13.75,14.31c-3.2,3.21-6,6.51-5.74,10.86c1.17-0.04,2.37,0.46,3.01,1.5c0.51,0.52,0.84,1.24,0.83,2.18
		c-0.02,3.99-0.23,8.01,0,12c0.21,3.55,0.95,7.03,1.06,10.59c0.01,0.38-0.05,0.71-0.13,1.02c2.79,16.4,4.63,32.92,5.23,49.56
		c1.1,30.64-2.2,60.89-7.88,90.96c-4.03,21.33-8.76,42.5-14.65,63.35c-5.62,19.89-11.76,39.63-18.9,59.1
		c-6.42,17.5-13.14,34.85-20.15,52.11c0.03,1.34-0.3,2.66-0.77,3.91c-0.22,0.58-0.46,1.16-0.66,1.75c-0.05,0.16-0.09,0.52-0.19,0.64
		c-0.02,0.03-0.03,0.02-0.04,0.02c0.03,0.86-0.17,1.68-0.63,2.33c0.47,2.53,2.37,4.62,4.96,7.16c7.47,7.33,13.49,16.17,19.9,24.55
		c5.01,6.55,9.88,13.22,14.47,20.07c5.38,8.04,12.05,15.09,17.47,23.04c5.64,8.27,11.29,16.54,16.83,24.87
		c6.49,9.76,12.51,19.83,18.73,29.76c0.79,1.26,1.86,2.44,2.31,3.82c1.04,3.23,2.62,5.51,4.64,7.09c0.69-0.89,1.72-1.28,2.78-1.21
		c1.61-0.51,3.52,0.05,4.03,2.16c0.31,1.26,7.31,1.27,8.54,1.36c5.56,0.39,11.11,0.93,16.65,1.59c3.73,0.45,7.48,0.91,11.19,1.54
		c0.63-0.34,1.39-0.47,2.28-0.26c3.15,0.77,6.6,0.17,9.82,0.38c2.64,0.17,5.25,0.43,7.86,0.88c3.38,0.58,6.45,1.78,9.34,3.37
		c1.62,0.17,3.23,0.33,4.85,0.52c15.77,1.86,31.53,3.78,47.28,5.86c15.74,2.08,31.47,4.22,47.17,6.61
		c17.03,2.59,34.08,4.91,51.23,6.46c10.58,0.96,21.22,1.19,31.78,2.13c17.98,1.6,35.98,1.25,53.87,0.47
		c14.97-0.65,29.99-2.29,44.9-4.56c14.55-2.21,29.3-3.12,43.84-5.4c23.05-3.62,46.06-7.58,68.97-11.97
		c26.65-5.11,53.23-10.59,79.71-16.58c9.55-2.16,18.68-5.87,28.42-7.22c3.08-1.91,4.48-5,6.3-7.99c4.65-7.59,9.88-14.83,15.01-22.12
		c5.78-8.21,11.83-16.22,17.52-24.49c8.25-11.99,17.09-23.54,25.91-35.1c11.07-14.5,22.27-28.91,33.34-43.42
		c1.28-1.68,1.94-3.43,1.56-5.38C933.23,586.13,932.89,585.63,932.71,585.06z M773.9,499.49c-2.79,6.74-5.46,13.57-8.51,20.23
		c-6.54,14.32-15.98,25.9-27.54,36.25c-17.04,15.26-36.02,27.42-56.91,36.61c-18.15,7.99-37.03,13.45-56.65,16.56
		c-18.37,2.91-36.84,4.58-55.38,3.82c-37.33-1.52-73.34-8.47-106.18-27.62c-12.42-7.24-23.62-16.13-34.82-25.02
		c-28.78-22.82-45.46-53.92-58.13-87.33c-7.46-19.7-10.07-40.61-8.58-61.68c1.81-25.64,8.86-49.99,19.41-73.43
		c9.87-21.94,22.76-41.96,38.4-60.09c24.64-28.57,54.22-50.63,88.72-66.24c24.31-11,49.81-17.67,75.88-22.32
		c16.8-3,33.9-4.15,50.96-3.06c24.25,1.56,47.43,7.01,67.42,21.91c2.78,2.07,5.33,4.44,8.14,6.46c1.09,0.79,2.58,1.18,1.74,2.83
		c-0.83,1.65-2.34,0.78-3.51,0.42c-8.52-2.67-17.04-5.26-25.87-6.87c-13.18-2.4-26.25-3.31-39.73-2.09
		c-19.04,1.73-37.57,5.31-55.67,11.21c-34.63,11.29-66,28.41-93.79,52.14c-23.04,19.68-42.5,42.35-57.92,68.34
		c-9.9,16.68-15.67,34.86-18.52,54.25c-4.47,30.34,2.1,57.98,18.1,83.55c10.76,17.2,26.18,29.84,43.11,40.68
		c16.48,10.56,35,15.43,53.94,19.08c8.9,1.71,17.86,2.81,26.9,3.34c0.57-1.12,1.42-0.89,2.5-0.79c9.6,0.86,19.37,1.32,28.82,0.06
		c11.3-1.5,22.52-3.27,33.93-3.61c10.14-2.38,19.48-6.84,28.63-11.58c18.41-9.52,34.88-21.69,49.17-36.79
		c4.44-4.7,9.1-9.53,11.63-15.22c3.96-8.89,11.2-10.51,19.3-12.69c7.25-1.95,14.78-1.99,21.93-4.41c3.39-1.15,7.38-0.98,9.5,3.01
		c1.86,3.49,5.51,2.8,8.32,3.46c4.44,1.04,5.98,3.95,6.36,7.68C780.05,480.64,777.69,490.34,773.9,499.49z"/>
	<path class="st1" d="M336.43,38.26c-1.6-2.39-4.34-3.55-7.33-4.18c-1.66-0.64-3.46-1-5.33-1c-1.25,0-2.49-0.01-3.74-0.01
		c-0.09-0.01-0.19-0.02-0.28-0.03c-12.5-1.37-27.54-1.66-34.06,10.99c-3.22,6.25-5.71,12.68-9.34,18.75
		c-3.55,5.92-6.83,13.71-12.79,17.57c-0.36,0.23-0.65,0.49-0.9,0.77c-0.24,0-0.46,0.01-0.72,0c-2.32-0.14-4.65,0.03-6.98,0.07
		c4.05,1.07,4.8,2.4,1.75,6.14c-7.19,8.81-14.44,17.57-21.51,26.47c-7.39,9.29-15.19,18.21-22.9,27.21
		c-5.58,6.51-12.05,12.25-18.38,18.58c-0.04-0.08-0.08-0.16-0.12-0.24c-0.56,1-1.23,1.95-2.06,2.74c0.54,2.17-0.38,3.75-2.27,4.99
		c-5.08,3.31-7.34,10.61-14.88,10.49c-0.63-0.01-1.13,1.75-1.93,2.08c-3.46,1.4-1.37,6.32-4.84,7.51c-4.51,1.54-7.39,6.35-12.8,6.2
		c-0.85-0.02-1.88,1.27-2.57,2.15c-3.65,4.65-1.98,8.15,0.72,14.45c2.37,5.55,5.15,11.08,7.19,16.88
		c1.83,5.22,3.71,11.06,8.79,14.61c1.17,0.82,1.11,2.11,0.89,3.16c-1.78,8.44,4.43,12.43,9.67,16.54c0.96,0.76,2.02,1.45,3.16,1.98
		c1.4-0.3,2.79-0.65,4.16-1.11c3.11-1.03,6.08-2.45,9.12-3.66c1.34-1.2,2.9-2.06,5.18-1.79c0.15,0.02,0.53-0.51,0.51-0.76
		c-0.26-4.96,4.8-6.5,6.53-10.18c0.44-0.93,1.32-1.58,2.44-1.32c1.26,0.29,1.26,1.41,1.25,2.4c-0.01,0.51,0.01,1.01,0.06,1.49
		c0.55-0.43,1.25-0.65,1.96-0.68c-0.26-4.34,2.54-7.65,5.74-10.86c4.68-4.69,9.84-9.04,13.75-14.31
		c5.83-7.86,13.05-14.42,19.06-22.1c6.5-8.3,14.44-15.48,20.83-23.86c11.07-14.52,22.88-28.55,32.1-44.42
		c6.24-10.75,12.1-21.67,16.84-33.22c1.11-2.72,2.16-6.58,5.52-7.58c-0.75-0.27-1.46-0.61-2.1-1.03c2.43-3.89,4.04-8.37,5.47-12.65
		c2.38-7.15,4.43-14.67,5.77-22.09C337.97,50.39,339.51,42.86,336.43,38.26z"/>
	<path class="st1" d="M989.58,582.9c-0.51-1.2-1.17-2.16-1.94-2.98c-1.19-4.8-4.04-6.79-10.34-6.83c-1.67-0.01-3.34-0.01-5.01,0
		c-3.94-0.68-7.94-0.58-12.14-0.57c-5.46,0.02-12.62-1.25-17.21,2.36c-3.72,2.92-6,7.91-7.49,12.54c-0.66-0.12-1.29-0.43-1.79-0.89
		c0.38,1.95-0.28,3.7-1.56,5.38c-11.07,14.5-22.27,28.92-33.34,43.42c-8.83,11.56-17.66,23.11-25.91,35.1
		c-5.69,8.27-11.74,16.28-17.52,24.49c-5.13,7.29-10.37,14.53-15.01,22.12c-1.83,2.99-3.22,6.08-6.3,7.99
		c1.33,0.02,2.66,0.06,4,0.05c3.42-0.03,5.25,0.35,2.82,4.52c-1.94,3.35,0.37,7.45,2.59,9.29c7.16,5.93,13.73,12.5,22.93,16.09
		c11.49,4.5,23.18,5.6,35.15,6.07c2.46,0.98,5.42,0.51,7.09-2.48c5.68-10.18,7.18-22.83,10.49-33.95l5.52-18.54
		c1.75-5.89,3.1-12.17,5.54-17.83c0.03-0.06,0.04-0.12,0.07-0.18c0.29-0.36,0.59-0.72,0.9-1.07c3.27-11.78,10.49-21.51,16.61-31.8
		c3.44-5.78,7.19-11.38,10.91-16.98c0.87-1.31,1.55-3.03,3.49-3.27c-0.16-0.24-0.31-0.48-0.45-0.71c2.81-1.28,5.43-2.9,7.52-5.27
		c0.91-1.03,1.68-2.16,2.46-3.28c3.47-3.61,6.57-7.61,9.43-11.42C986.93,606.48,993.84,592.81,989.58,582.9z"/>
	<path class="st1" d="M259.27,739.24c0.07-0.13,0.16-0.23,0.25-0.34c-2.02-1.58-3.61-3.86-4.64-7.09c-0.44-1.38-1.51-2.56-2.31-3.82
		c-6.22-9.94-12.25-20-18.73-29.76c-5.54-8.33-11.19-16.61-16.83-24.87c-5.42-7.94-12.09-15-17.47-23.04
		c-4.59-6.85-9.46-13.52-14.47-20.07c-6.41-8.38-12.43-17.22-19.9-24.55c-2.58-2.53-4.49-4.63-4.96-7.16
		c-0.38,0.54-0.93,0.96-1.7,1.18c-0.76,0.21-1.68,0.08-2.46-0.31c-0.61,0.03-1.35-0.05-2.23-0.19c-9.11-1.44-18.26,0.15-25.45,5.48
		c-6.49,4.81-12.56,10.61-17.68,17.16c-0.32,0.41-0.57,0.79-0.77,1.15c-1.93,1.29-2.87,3.99-0.67,5.98
		c7.92,7.13,17.62,12.57,25.32,19.97c-0.01,0.02-0.01,0.03-0.02,0.05c0.07,0.03,0.12,0.08,0.19,0.12c0.33,0.32,0.65,0.66,0.98,0.99
		c0.16,0.28,0.3,0.6,0.38,0.98c0.16,0.79,0.21,1.57,0.18,2.35c0.07-0.13,0.13-0.25,0.2-0.38c12.39,15.11,21.26,31.76,30.32,48.32
		c4.59,8.39,7.91,17.32,11.8,26.01c1.75,3.9,2.05,5.09-0.17,5.47c1.92,0.18,3.74,0.72,5.21,2.08c0.59,0.55,1.04,1.17,1.38,1.82
		c0.35,0.11,0.7,0.22,1.05,0.33c19.85-1.58,39.43,1,58.99,3.91c4.71,0.7,9.75-0.92,14.22,1.59
		C258.73,741.56,258.71,740.2,259.27,739.24z"/>
	<path class="st1" d="M964.12,58.47c-0.08-0.42-0.07-0.81-0.01-1.18c-0.01-0.08-0.02-0.16-0.04-0.24c-1.26,1-2.07,3.21-4.2,0.67
		c-5.44-6.49-11.1-12.8-16.7-19.16c-0.84-0.96-1.07-2-0.78-3.19c-5.99-1.89-9.81-6.18-12.84-11.44c-1.67-2.89-0.86-8.13-6.66-7.32
		c-0.15,0.02-0.58-0.52-0.54-0.75c0.77-5.17-2.03-7.23-6.65-7.79c-0.26-0.03-0.62-0.41-0.68-0.69c-1.42-6.62-8.02-10.41-9.25-17.26
		c-0.38-2.12-2.39-3.79-4.66-5.29c-4.07-2.69-6.96-7.04-10.56-10.48c-2.7-2.57-4.5-5.21-8.44-5.27c-3.99-0.06-7.99-0.04-11.99,0.01
		c-1.29,0.01-2.51-0.03-3.79,0.77c-4.37,2.72-8.17,5.92-11.63,9.76c-2.47-0.88-5.55,0.26-5.15,3.51c0.65,5.16,1.89,10.14,3.21,15.14
		c0.24,1.38,0.56,2.73,1.07,4.01c1.6,6.01,3.14,11.97,6.48,17.3c3.31,5.29,7.71,9.82,10.78,15.28c3.22,5.73,5.61,11.98,8.23,18.01
		c-0.08,0.06-0.15,0.13-0.24,0.19c0.16,0.09,0.3,0.2,0.45,0.29c0.05,0.11,0.1,0.23,0.15,0.34c0.5,1.13,1.28,1.74,2.14,1.97
		c0.2,0.32,0.38,0.64,0.55,0.99c8.71,18.33,18.86,35.89,29.35,53.22c5.5,9.08,11.11,18.23,18.29,26.21
		c3.81-1.95,1.93-6.34,4.02-9.32c2.34-3.33,4.19-7.23,4.38-11.85c0.09-2.22,3.26-4.17,4.23-6.78c1.35-3.65,2.99-7.16,3.5-11.12
		c0.71-5.52,5.06-9.54,6.34-14.99c1.5-6.35,6.17-11.44,7.95-17.84c0.58-2.1,3.34-3.29,3.7-5.7
		C964.13,58.49,964.12,58.48,964.12,58.47z"/>
	<path class="st2" d="M1018.12,124.74c-0.09-0.43-0.15-0.85-0.22-1.26c-11.86-9.92-21.63-20.95-31.51-32.86
		c-4.45-5.36-9.72-10.12-13.91-15.67c-1.79-2.36-2.53-4.76-3.55-7.39c-1.25-1.52-2.29-3.17-2.93-5.07c-0.83-1.2-1.57-2.44-1.87-3.99
		c-0.36,2.41-3.12,3.6-3.71,5.7c-1.78,6.4-6.45,11.49-7.95,17.84c-1.28,5.45-5.63,9.47-6.34,14.99c-0.51,3.96-2.14,7.47-3.5,11.12
		c-0.97,2.61-4.14,4.56-4.23,6.78c-0.19,4.62-2.04,8.52-4.38,11.85c-2.09,2.98-0.21,7.37-4.02,9.32c0.07,0.47,0.08,0.93,0.06,1.39
		c1.38-0.53,2.98-0.25,3.7,1.41c0.3,0.7,0.68,1.34,1.09,1.97c0.3,0.29,0.55,0.63,0.67,0.94c0,0.01,0.01,0.02,0.02,0.03
		c1.46,1.92,3.26,3.62,4.75,5.53c3.2,4.12,6.34,8.22,9.9,12.04c1.65,1.78,3.36,3.51,5.06,5.25c1.14,0.99,2.28,1.97,3.4,2.97
		c6.26,5.63,13.43,10.33,19.5,16.33c1.97,1.94,7.02,1.65,7.77-0.47c2.2-6.24,7.16-10.98,9.19-17.33c0.79-2.47,1.54-5.55,5.34-5.49
		c0.48,0.01,1.47-1.23,1.41-1.8c-0.67-5.44,4.22-7.2,6.69-10.6C1013.64,141.25,1020.31,134.79,1018.12,124.74z"/>
	<path class="st2" d="M259.28,742.57c-4.47-2.51-9.51-0.89-14.22-1.59c-19.56-2.91-39.13-5.49-58.99-3.91c0,1.47,0,2.93-0.01,4.4
		c0.2,2.99,0.84,5.62,1.26,8.59c0.13,0.94,0.22,1.88,0.28,2.81c3.31,2.23,2.37,5.83,2.44,9.07c0.03,1.43,0.08,2.86,0.11,4.29
		c0.56,1.54,1.11,3.08,1.49,4.68c1.25,5.3,1.83,11.16,1.8,16.72c0.46,0.48,0.97,0.94,1.53,1.39c1.75,1.39,2.28,3.59,3.14,5.58
		c2.36,5.51,14.75,10.14,18.49,5.9c2.98-3.38,6.9-4.69,9.68-7.51c4.9-4.95,11.71-4.69,17.35-7.52c3.02-1.52,7.17-0.19,6.86-5.71
		c-0.08-1.37,1.65-2.32,3.26-2.68c2.74-0.62,4.39-2.28,4.31-5.22c-0.04-1.48,1.04-2.35,1.57-3.51c3.72-8.16,3.68-16.44,0.63-24.75
		C259.84,743.36,259.52,743,259.28,742.57z M253.44,752.23c-0.13,0.39-0.99,0.68-1.54,0.72c-0.59,0.05-1.35-0.08-1.24-1.33
		c0.46-0.13,1.02-0.42,1.58-0.42C252.84,751.2,253.74,751.34,253.44,752.23z"/>
	<path class="st3" d="M254.97,81.18c-17.86-1.17-35.52-4.15-53.38-5.53c-7.46-0.58-12.91-0.28-16.5,6.58
		c-2.94,5.61-9.21,9.93-6.98,17.61c0.92,3.18,1.75,6.39,2.63,9.59c2.31,8.34,4.71,16.66,6.73,25.07c2.61,5.58,4.67,11.68,6.21,17.51
		c0.13,0.48,0.22,0.93,0.29,1.37c1.24,1.03,1.36,2.7,0.74,4.17c-0.26,0.61-0.57,1.21-0.9,1.79c0.04,0.08,0.07,0.16,0.12,0.24
		c6.33-6.34,12.81-12.08,18.38-18.58c7.71-9,15.52-17.92,22.9-27.21c7.07-8.9,14.32-17.66,21.51-26.47
		C259.78,83.58,259.02,82.25,254.97,81.18z"/>
	<path class="st3" d="M178.6,727.38c-3.89-8.68-7.21-17.62-11.8-26.01c-9.06-16.56-17.92-33.21-30.32-48.32
		c-0.07,0.13-0.13,0.25-0.2,0.38c-0.13,3.52-1.97,6.96-3.66,9.96c-1.16,2.05-2.61,3.78-4.22,5.34c-5.53,12.18-10.13,24.8-17.4,36.16
		c-1.61,2.52-2.2,5.28-1.39,8.52c1.23,4.93,3.72,8.72,7.64,11.85c3.76,3,9.09,2.97,12.62,2.98c6.04,0.02,11.78,1.2,17.58,1.97
		c8.08,1.08,16.32,0.79,24.29,2.8c2.12-0.08,4.47-0.37,6.69-0.17C180.64,732.46,180.35,731.28,178.6,727.38z"/>
	<path class="st3" d="M966.46,641.02c-0.08-0.08-0.17-0.17-0.26-0.25c-0.5-0.45-1.03-0.87-1.5-1.35c-1.21-1.22-2.08-2.69-2.26-4.38
		c-0.11-0.03-0.22-0.06-0.33-0.1c-1.94,0.25-2.62,1.97-3.49,3.27c-3.73,5.6-7.47,11.2-10.91,16.98
		c-6.12,10.28-13.34,20.02-16.61,31.8c0.7-0.03,1.4-0.05,2.1-0.08c0.74-0.95,1.81-1.64,3.14-1.96c1.36-0.33,2.75-0.3,4.13-0.19
		c8.11-1.5,15.98-4.52,24.45-3.83c0.66,0.05,1.65-0.52,2.05-1.1c3.28-4.81,5.83-10.05,6.16-15.88
		C973.6,655.6,969.89,648.32,966.46,641.02z"/>
	<path class="st3" d="M968.18,29.66c-7.87,2-15.21,5.7-23.49,5.98c-0.64,0.02-1.17-0.12-1.61-0.36c-0.23,0.03-0.46,0.06-0.69,0.09
		c-0.29,1.2-0.07,2.23,0.78,3.19c5.6,6.36,11.26,12.66,16.7,19.16c2.13,2.54,2.94,0.33,4.2-0.67c0.03-0.03,0.06-0.06,0.1-0.09
		c0.19-0.74,0.63-1.34,1.2-1.78c1.61-4.7,4.85-8.69,5.94-13.65c0.79-3.59,2.09-7.19-0.87-10.31
		C969.71,30.46,968.95,29.97,968.18,29.66z"/>
	<path class="st4" d="M624.18,537.1c10.14-2.38,19.48-6.84,28.63-11.58c18.41-9.52,34.88-21.69,49.17-36.79
		c4.44-4.7,9.1-9.53,11.63-15.22c3.96-8.89,11.2-10.51,19.3-12.69c7.25-1.95,14.78-1.99,21.93-4.41c3.39-1.15,7.38-0.98,9.5,3.01
		c1.86,3.49,5.51,2.8,8.32,3.46c4.44,1.04,5.98,3.95,6.36,7.68c1.03,10.08-1.32,19.79-5.11,28.94c-2.79,6.74-5.46,13.57-8.51,20.23
		c-6.54,14.32-15.98,25.9-27.54,36.25c-17.04,15.26-36.02,27.42-56.91,36.61c-18.15,7.99-37.03,13.45-56.65,16.56
		c-18.37,2.91-36.84,4.58-55.38,3.82c-37.33-1.52-73.34-8.47-106.18-27.62c-12.42-7.24-23.62-16.13-34.82-25.02
		c-28.78-22.82-45.46-53.92-58.13-87.33c-7.46-19.7-10.07-40.61-8.58-61.68c1.81-25.64,8.86-49.99,19.41-73.43
		c9.87-21.94,22.76-41.96,38.4-60.09c24.64-28.57,54.22-50.63,88.72-66.24c24.31-11,49.81-17.67,75.88-22.32
		c16.8-3,33.9-4.15,50.96-3.06c24.25,1.56,47.43,7.01,67.42,21.91c2.78,2.07,5.33,4.44,8.14,6.46c1.09,0.79,2.58,1.18,1.74,2.83
		c-0.83,1.65-2.34,0.78-3.51,0.42c-8.52-2.67-17.04-5.26-25.87-6.87c-13.18-2.4-26.25-3.31-39.73-2.09
		c-19.04,1.73-37.57,5.31-55.67,11.21c-34.63,11.29-66,28.41-93.79,52.14c-23.04,19.68-42.5,42.35-57.92,68.34
		c-9.9,16.68-15.67,34.86-18.52,54.25c-4.47,30.34,2.1,57.98,18.1,83.55c10.76,17.2,26.18,29.84,43.11,40.68
		c16.48,10.56,35,15.43,53.94,19.08c8.9,1.71,17.86,2.81,26.9,3.34c0.27,0.18,0.54,0.51,0.82,0.51c15.54,0.35,31.12,0.66,46.57-1.07
		C612.28,540.23,618.61,540.12,624.18,537.1z"/>
	<path class="st3" d="M624.18,537.1c-5.57,3.01-11.89,3.12-17.85,3.78c-15.45,1.72-31.03,1.41-46.57,1.07
		c-0.28-0.01-0.55-0.33-0.82-0.51c0.57-1.12,1.42-0.89,2.5-0.79c9.6,0.86,19.37,1.32,28.82,0.06
		C601.54,539.21,612.77,537.44,624.18,537.1z"/>
</g>
<path class="st1" d="M262.9,750.54c0.05-0.47,0.01-0.95-0.16-1.41c-1.08-2.91-2.16-5.82-3.25-8.73c-0.65-1.75-2.2-3.01-4.03-2.93
	c-1.64-1.26-4.07-1.44-5.48-0.05c-0.36-0.17-0.75-0.32-1.19-0.45c-8-2.41-17.37-1.63-25.61-1.82c-9.15-0.22-18.04-1.3-26.9-3.64
	c-1.56-0.41-3.5,0.26-4.42,1.64c-0.01-0.02-0.01-0.05-0.02-0.07c-0.32-1.22-1.04-2.01-1.9-2.44c-0.55-1.02-1.16-2.03-1.86-3.02
	c-2.96-4.16-9.91-0.17-6.91,4.04c5.31,7.45,5.4,16.58,6.73,25.33c0.01,0.17,0.02,0.35,0.04,0.52c0.22,1.34,0.45,2.67,0.71,4.01
	c0.06,0.29,0.12,0.57,0.19,0.86c0.06,0.19,0.13,0.38,0.19,0.57c0.73,4.11,0.59,8.09,1.22,12.26c0.58,3.9,1.86,7.66,3.21,11.38
	c0.01,1.31,0,2.62-0.06,3.9c0,0.03-0.01,0.06-0.01,0.09c1.33,3.87,3.5,7.58,6.44,9.84c4.8,3.68,13.13,2.85,18.29,0.46
	c7.24-3.35,14.01-7.99,21.07-11.71c6.18-3.26,14.65-5.78,19.28-11.22c4.56-5.35,4.86-14.26,5.08-20.97
	C263.62,754.61,263.38,752.5,262.9,750.54z"/>
<path class="st1" d="M207.84,240.89c-3.82,6.2-10.85,11.95-18.12,13.46c-4.4,0.91-8.64-0.74-11.86-3.82
	c-2.96-2.84-2.12-6.16-3.37-9.71c-0.9-2.53-2.64-4.68-3.78-7.11c-1.8-3.82-3.36-7.77-5.03-11.65c-2.36-5.46-5.87-11.49-7.31-17.6
	c0.07-0.74-0.06-1.51-0.42-2.24c-0.09-0.64-0.17-1.28-0.2-1.92c0.4-0.29,0.8-0.58,1.21-0.88c0.42-0.12,0.85-0.32,1.28-0.64
	c3.71-2.74,7.41-5.51,11.1-8.29c3.59-2.56,7.18-5.12,10.74-7.71c1.44-1.05,2.74-2.14,3.96-3.29c4.99-3.64,10.06-7.54,13.1-12.79
	c0.02-0.03,0.03-0.07,0.05-0.1c0.41-0.52,0.8-1.06,1.15-1.61c2.3-3.59-2.01-6.94-5.15-5.58c-0.54-0.02-1.08,0.07-1.58,0.25
	c-0.53,0.89-1.15,1.74-1.91,2.45c-0.13,0.12-0.27,0.21-0.4,0.33c-0.59,1.55-2.93,2.77-4.01,3.86c-0.31,0.31-0.59,0.63-0.87,0.97
	c-0.98,0.68-1.96,1.34-2.86,2.01c-3.93,2.92-7.85,5.85-11.76,8.8c-7.31,5.51-14.56,11.09-21.79,16.71c-1.41,1.1-1.63,2.49-1.16,3.72
	c0.1,2.03,0.54,3.99,1.31,5.86c1.48,8.15,6.21,16.2,9.35,23.46c1.98,4.58,3.87,9.16,6.26,13.53c2.17,3.96,1.48,8.67,4.18,12.41
	c4.29,5.96,9.87,8.48,15.7,8.64c0.46-0.13,0.91-0.26,1.36-0.41c4-1.32,7.75-3.29,11.74-4.64c1.29-0.44,3.5-0.89,5.69-1.56
	c2.45-1.77,4.69-3.81,6.63-6c0.22-0.99,0.86-1.66,1.67-2.02c0.72-0.94,1.39-1.9,1.99-2.87
	C217.46,240.53,210.54,236.51,207.84,240.89z"/>
<path class="st1" d="M1018.63,124.1c-12.2-10.08-22.15-21.32-32.24-33.48c-4.45-5.36-9.72-10.12-13.91-15.67
	c-1.98-2.62-2.68-5.28-3.89-8.26c-0.15-0.36-0.31-0.7-0.49-1.03c-1.26-1.79-2.51-3.59-3.75-5.4c-1.42-2.08-3.82-2.17-5.54-1.21
	c-1.17-1.49-2.31-3.01-3.47-4.49c-1.59-2.01-3.18-4.01-4.76-6.02c-0.88-1.11-3.63-3.72-3.57-5.03c0.07-1.69-0.75-2.81-1.89-3.39
	c0.03-0.94-0.3-1.92-1.16-2.78c-4.03-4.05-6.04-8.97-9.44-13.4c-3.11-4.05-7.63-7.02-11.1-10.79c-7.93-8.62-12.53-19.48-19.69-28.66
	c-6.26-8.03-12.65-16.82-23.63-17.44c-10.1-0.57-19.97,4.04-26.93,11.16c-3.6,3.68,2.05,9.35,5.66,5.66
	c6.05-6.19,17.32-11.84,25.94-7.64c4.23,2.06,7.39,6.74,10.35,10.28c3.56,4.25,6.57,8.79,9.42,13.55
	c4.69,7.86,9.59,15.39,16.18,21.8c3.65,3.55,7.22,6.27,9.75,10.8c2.14,3.82,4.74,7.24,7.83,10.34c0.23,0.23,0.46,0.42,0.7,0.58
	c-0.16,5.02,4.82,9.25,7.7,12.88c2.35,2.97,4.61,6.2,7.08,9.2c-3.94,1.11-5.95,6.83-2.67,10.14c0.01,0.01,0.03,0.03,0.04,0.05
	c-1.16,1.69-2.01,3.52-2.75,5.43c-1.72,4.42-2.88,9.08-4.25,13.62c-0.32,1.08-0.71,2.2-1.12,3.36c-3.23-0.21-6.25,2.77-6.43,6.09
	c-0.02,0.32-0.01,0.63,0,0.94c-4.33-0.09-8.42,5.97-4.66,10.5c1.03,1.24,2.11,2.45,3.22,3.64c-3.44,0.31-6.56,3.1-5.06,7.25
	c0.07,0.19,0.16,0.36,0.23,0.54c-2.63,0.47-4.81,4.14-2.5,6.94c0.88,1.07,1.76,2.13,2.64,3.2c1.28-0.33,2.65,0.04,3.29,1.54
	c1.44,3.32,4.34,5.65,6.53,8.47c3.2,4.12,6.34,8.22,9.9,12.04c3.33,3.58,6.87,6.97,10.14,10.61c3.21,2.96,6.52,5.82,10.02,8.41
	c3.51,2.6,9.96,7.73,14.67,6.83c4.52-0.86,6.68-7.64,8.46-11.25c2.83-5.74,6.74-10.55,10.57-15.62
	c7.15-9.45,14.35-21.79,14.73-33.95C1018.74,124.32,1018.69,124.21,1018.63,124.1z"/>
</svg>
