<?xml version="1.0" encoding="utf-8"?>
<!-- Generator: Adobe Illustrator 26.0.3, SVG Export Plug-In . SVG Version: 6.00 Build 0)  -->
<svg version="1.1" id="Layer_1" xmlns="http://www.w3.org/2000/svg" xmlns:xlink="http://www.w3.org/1999/xlink" x="0px" y="0px"
	 viewBox="0 0 792 612" style="enable-background:new 0 0 792 612;" xml:space="preserve">
<style type="text/css">
	.st0{fill:#255C7D;}
	.st1{fill:#336385;}
	.st2{fill:#A9CFF0;}
	.st3{fill:#4744AE;}
	.st4{fill:#A9919C;}
	.st5{fill:#D2E8F7;}
	.st6{fill:#A6CDEE;}
	.st7{fill:#5A80B2;}
	.st8{fill:#A8CEEF;}
	.st9{fill:#272768;}
	.st10{fill:#D1D1D9;}
	.st11{fill:#4845AC;}
	.st12{fill:#D5B8A2;}
	.st13{fill:#B2BAE1;}
	.st14{fill:#CFE2ED;}
</style>
<g>
	<path class="st0" d="M359.81,466.47c-0.69-0.02-1.37-0.04-2.06-0.06c-0.29-1.45-1.34-1.72-2.6-1.7c-13.9,0.2-27.25-3.4-40.8-5.75
		c-4.63-0.8-9.04-3.48-14-2.11c-0.54-0.06-1.08-0.12-1.63-0.18c-5.95-3.9-12.54-6.28-19.34-8.14l-0.37-0.04c0,0-0.14-0.34-0.14-0.34
		c-0.45-0.87-0.69-1.98-1.38-2.59c-4.7-4.16-5.66-9.41-5.99-15.47c-0.27-5.12-2.01-10.19-2.03-15.47c0-0.97-1.1-1.93-1.68-2.9
		c-0.06-1.2-0.13-2.41-0.19-3.61c1.37-7.9-1.45-15.4-2.36-23.08c-0.62-5.24-0.46-10.79-2.05-15.64c-2.23-6.84-2.16-13.95-2.96-20.74
		c-1.58-13.41-4.15-26.76-4.59-40.32c-0.05-1.45-0.58-2.96-2.18-3.65c-0.61-0.98-0.53-2.03-0.27-3.09c1.19-3.74,1.34-7.87,0.2-11.27
		c-2.6-7.78-2.02-15.9-3.6-23.76c-1.43-7.12-1.49-14.47-2.69-21.59c-1.22-7.24-2.18-14.51-3.26-21.76
		c-1.06-7.16-1.2-14.47-2.44-21.59c-0.75-4.34-0.65-8.6-0.53-12.88c0.09-3.11,0.87-6.28,4.8-7.02c0.35,0.34,0.71,0.68,1.06,1.01
		c0.74,2.72,2.25,2.34,3.99,0.99c40.99,0.07,81.99,0.13,122.98,0.2c2.91,3.65,6.83,0.99,10.21,1.64c0.92-0.01,1.85-0.02,2.77-0.03
		c3.29,2.42,7.06,1.1,10.54,1.02c5.51-0.13,11.16,1.39,16.54-0.97c13.98,0.02,27.97,0.03,41.95,0.05c0.68,1.07,1.36,1.07,2.03,0
		c15,0.01,29.99,0.01,44.99,0.02c6.11,2.22,12.46,1.16,18.62,0.79c5.17-0.31,7.76,0.83,8.33,6.34c0.24,2.3,0.33,4.7-0.04,6.97
		c-2.63,16.04-5.17,32.11-8.2,48.08c-2.74,14.42-5.46,28.84-7.91,43.32c-3.1,18.3-7.25,36.42-10.18,54.74
		c-1.14,7.12-4.01,14-3.42,21.39c-0.01,0.46-0.03,0.92-0.04,1.38c-2.42,0.27-2.08,2.11-2.16,3.74c-0.1,1.97,0.18,4.11-0.47,5.89
		c-3.18,8.72-3.37,18.02-5.32,26.97c-1.91,8.76-3.86,17.57-5.23,26.44c-1,6.45-3.78,12.66-2.81,19.39
		c-0.04,0.53-0.09,1.06-0.13,1.59c-3.08,2.03-6.36,3.54-9.76,5.02c-7.53,3.28-15.57,5.29-23.35,6.54
		c-14.29,2.31-28.92,2.63-43.44,3.33c-11.91,0.57-23.79-0.46-35.66-1.74C367.71,465.45,363.64,464.83,359.81,466.47z M261.79,289.85
		c-0.02,1.29-0.04,2.58-0.06,3.87c0.02,1.67,0.04,3.34,0.06,5.01c-1.18,3.67,2.29,6.46,1.91,9.95c-0.95,8.62,3.33,16.8,2.11,25.43
		c-0.05,0.32-0.04,0.72,0.11,0.98c4.98,8.86,3.79,19.03,5.28,28.49c1.31,8.28,3.29,16.76,2.84,25.35c0.12,1.14,0.09,2.31,0.38,3.4
		c1.34,4.94-0.21,11,6.71,13.58c15.07,5.61,30.64,8.11,46.61,8.73c9.86,2.26,19.88,2.05,29.89,1.9c7.96,0.54,15.91,1.06,23.9,1.26
		c14.5,0.36,28.96-0.43,43.38-1.38c13.51-0.89,27.09-1.81,40.44-4.55c4.07-0.83,8.14-1.48,12.12-2.78c3.23-1.05,5.55-3.37,5.86-6.21
		c0.53-4.79,2.83-9.28,2.31-14.2c1.04-1.97,1.45-3.92-0.06-5.86c2.96-2.79,3.69-6.5,4.08-10.28c0.31-2.97-0.47-6.27,0.57-8.89
		c3.34-8.42,3.92-17.37,5.22-26.11c0.76-5.15,2.14-10.23,2.91-15.37c0.51-3.4,0.69-7.1,1.71-10.51c1.95-6.54,3.73-13.1,3.67-20.01
		c2.38-4.11,2.9-8.37,1-12.81c3.7-0.81,2.69-4.18,3.18-6.43c5.74-26.54,9.23-53.56,16.87-79.71c0.65-0.07,1.39-0.13,1.51-0.9
		c0.12-0.83-0.6-1.01-1.23-1.19c-1.99-0.03-3.99-0.05-5.98-0.1c-13.11-0.36-26.24,0.52-39.35-0.57c-5.22-2.26-10.55-1.42-15.87-0.56
		c-6.07,0.76-12.07-0.4-18.11-0.61c-5.32-1.77-10.65-1.61-16-0.12c-14.76,0.03-29.51,0.13-44.27,0.09
		c-14.92-0.05-29.83-0.23-44.75-0.35c-0.4-1.78-1.8-1.68-3.14-1.66c-6.14,0.06-12.28,0.14-18.42,0.21c-4.1,0.86-8.39-0.77-12.43,0.9
		c-1-0.08-2-0.15-3-0.23c-3.68-0.99-7.38-0.71-11.09-0.18c-5.33-0.77-10.63-0.05-15.94,0.24c-7.01-0.07-14.02-0.13-21.03-0.2
		c-0.63-0.81-1.27-0.81-1.91-0.02c-2.7,0.97-5.98-1.58-8.35,1.39c-1.08,1.15-0.32,1.59,0.74,1.92c0.15,1.67,0.31,3.34,0.46,5.01
		c-1.42,1.62-1.04,2.6,1.06,2.96c0.1,2.47,0.21,4.94,0.31,7.4c-0.29,1.24-0.16,2.27,1.33,2.61c0.12,1.67,0.24,3.34,0.36,5
		c-1.86,2.51-0.7,4.35,1.32,5.99c0.75,2.64,0.66,5.34,0.61,8.03c-1.43,1.55-1.04,2.51,0.95,2.96c1.36,9.86,2.67,19.72,4.1,29.57
		c1.28,8.84,2.7,17.66,4.05,26.49C260.74,287.92,260.61,289.12,261.79,289.85z M342.84,455.12c1.3,0.19,2.6,0.38,3.9,0.58
		c2.13,1.88,4.61,0.99,7,0.92c4.32,0.39,8.64,0.79,12.96,1.18c3.31,1.46,6.71,0.73,10.1,0.42c2.95,0.04,5.9,0.09,8.85,0.13
		c4.15,0.13,8.3,0.35,12.46,0.38c18.97,0.16,37.92,0.01,56.64-3.62c8.44-1.64,8.41-1.6,10.26-9.96c0.54-2.42,1.45-4.76,2.05-7.18
		c1.04-4.18,2.41-8.29,2.49-12.66c0.05-2.68-0.66-3.86-3.85-3.27c-13.74,2.53-27.64,3.96-41.59,4.28
		c-20.14,0.46-40.29,0.47-60.44,0.67c-6.65-0.45-13.29-0.91-19.94-1.36c-1.92-1.29-4.01-0.72-6.06-0.56
		c-2.65-0.15-5.29-0.3-7.94-0.45c-2.29-1.98-5.13-0.98-7.69-1.31c-7.57-0.99-15.13-1.92-22.62-3.45c-3.01-0.62-4.96-0.03-3.93,3.85
		c0.89,3.35,1.99,6.81,1.96,10.21c-0.09,11.89,6.19,16.62,17.38,17.52C324.2,452.2,333.35,455.04,342.84,455.12z"/>
	<path class="st1" d="M246.43,176.56c14.24-5.4,29.25-6.89,44.2-7.6c28.08-1.35,56.2-1.58,84.32-1.33
		c26.26,0.23,52.51,0.78,78.66,3.28c12.19,1.17,24.42,1.98,36.52,4.42c4.9,0.99,10.07,1.85,15.2,1.92c2.06,0.03,3.47,0.69,4.42,2.45
		c0,0-0.21,0.2-0.2,0.2c-2.05-0.6-4.06-1.53-6.15-1.73c-5.91-0.56-11.8-3.22-17.78-0.33c-2.02-0.33-4.2,0.46-6.06-0.92
		c0.94-0.86,1.14-2.04-0.3-2.05c-4.28-0.02-8.42-0.41-12.46-2.02c-1.47-0.59-2.97,0.13-3.24,2.09c-1.55,0-3.1,0-4.66,0
		c-2.57-3.03-8.16-3.21-11.13-0.37c-10.44,0.33-20.77-0.57-31.18-1.55c-12.72-1.2-25.63-0.32-38.46-0.36
		c-3.16-0.01-6.38,0.24-9.47-0.26c-8.79-1.44-17.69-1.3-26.37-0.41c-18.51,1.9-37.21-1.19-55.61,2.46c-1.45-3.62-3.32-3.82-6-0.65
		c-2.24,0-4.48,0.01-6.73,0.01c-3.71-2.78-7.43,0.09-11.15,0.12c-0.47,0,0.76,1.09,0.94,1.81c-2.42,1.75-5.15,2.18-8.05,1.79
		c-0.18-1.08,0.2-3.21-1.83-1.85C251.4,177.33,248.92,176.46,246.43,176.56z"/>
	<path class="st1" d="M499.92,367.29c-0.58-7.39,2.29-14.27,3.42-21.39c2.93-18.32,7.08-36.44,10.18-54.74
		c2.45-14.48,5.17-28.9,7.91-43.32c3.03-15.97,5.57-32.04,8.2-48.08c0.37-2.27,0.28-4.67,0.04-6.97c-0.57-5.51-3.16-6.65-8.33-6.34
		c-6.16,0.37-12.51,1.43-18.62-0.79c1.89-1.6,4.15-0.63,6.23-0.86c1.58-0.17,3.51,0.41,3.77-2.09c2.99-0.71,5.6,1.22,8.51,1.15
		c-2.67-1.54-4.95-5.74-8.51-1.16c-1.02-0.07-2.03-0.15-3.05-0.22c-0.05-0.86-0.1-1.72-0.15-2.58l0.21-0.2
		c3.83-0.64,7.58-0.08,11.1,1.35c9.23,3.75,11.96,9.96,9.89,21.51c-4.86,27.11-9.58,54.24-14.51,81.34
		c-4.74,26.11-9.65,52.19-14.54,78.27C501.35,363.92,500.52,365.58,499.92,367.29z"/>
	<path class="st1" d="M245.66,181.73c-3.93,0.74-4.71,3.91-4.8,7.02c-0.12,4.28-0.22,8.54,0.53,12.88
		c1.23,7.12,1.37,14.43,2.44,21.59c1.08,7.25,2.04,14.52,3.26,21.76c1.2,7.12,1.27,14.47,2.69,21.59c1.58,7.86,1,15.97,3.6,23.76
		c1.14,3.4,0.98,7.53-0.2,11.27c-2.52-12.22-3.56-24.66-5.18-37c-1.95-14.83-4-29.65-5.8-44.5c-1.26-10.39-2.9-20.77-2.55-31.28
		c0.13-4.06,0.9-8.07,4.1-11.08c-0.01,1.44-0.06,2.9,1.98,2.98C245.7,181.05,245.68,181.39,245.66,181.73z"/>
	<path class="st1" d="M359.81,466.47c3.83-1.64,7.91-1.02,11.74-0.61c11.87,1.27,23.75,2.31,35.66,1.74
		c14.51-0.7,29.15-1.02,43.44-3.33c7.78-1.26,15.82-3.26,23.35-6.54c3.4-1.48,6.69-2.99,9.76-5.02c0.16,2.79-1.57,4.05-3.88,4.95
		c-17.03,6.59-34.8,9.45-52.93,10.21C404.54,468.8,382.14,469.25,359.81,466.47z"/>
	<path class="st1" d="M253.45,304.68c1.6,0.69,2.13,2.21,2.18,3.65c0.44,13.56,3.01,26.9,4.59,40.32c0.8,6.8,0.72,13.91,2.96,20.74
		c1.59,4.86,1.43,10.4,2.05,15.64c0.91,7.67,3.73,15.17,2.36,23.08c-2.48-5.92-2.35-12.35-3.26-18.53
		c-2.78-18.71-5.05-37.5-7.45-56.27C255.65,323.78,254.59,314.22,253.45,304.68z"/>
	<path class="st1" d="M483.88,451.12c-0.97-6.73,1.81-12.94,2.81-19.39c1.37-8.87,3.32-17.68,5.23-26.44
		c1.95-8.96,2.15-18.25,5.32-26.97c0.65-1.79,0.38-3.92,0.47-5.89c0.08-1.64-0.26-3.47,2.16-3.74c-0.81,9.77-3.36,19.24-5.06,28.85
		c-2.93,16.51-6.23,32.96-9.44,49.42C485.1,448.38,484.39,449.73,483.88,451.12z"/>
	<path class="st1" d="M300.34,456.85c4.96-1.37,9.37,1.31,14,2.11c13.55,2.34,26.9,5.95,40.8,5.75c1.26-0.02,2.31,0.26,2.6,1.7
		c-13.72-0.67-27.27-2.72-40.72-5.33C311.4,460,305.57,459.55,300.34,456.85z"/>
	<path class="st1" d="M267.78,411.72c0.59,0.96,1.68,1.93,1.68,2.9c0.02,5.28,1.76,10.35,2.03,15.47
		c0.32,6.07,1.29,11.31,5.99,15.47c0.69,0.61,0.93,1.71,1.38,2.59c-4.63-1.54-6.81-5.51-7.56-9.62
		C269.69,429.67,268.9,420.67,267.78,411.72z"/>
	<path class="st1" d="M279.38,448.53c6.8,1.87,13.39,4.25,19.34,8.14C291.74,455.22,285.08,453.01,279.38,448.53z"/>
	<path class="st0" d="M245.72,180.71c-2.03-0.08-1.99-1.54-1.98-2.98c0,0,0.01-0.01,0.01-0.01c0.3-0.17,0.6-0.34,0.89-0.51
		c0.59-0.21,1.19-0.43,1.78-0.64c2.49-0.11,4.97,0.77,7.44-0.88c2.03-1.36,1.65,0.77,1.83,1.85c-2.5,0.94-5.07,1.51-7.76,1.31
		c-1.39-0.17-2.13,0.45-2.21,1.84L245.72,180.71z"/>
	<path class="st1" d="M244.65,177.2c-0.3,0.17-0.6,0.34-0.89,0.51C244.05,177.55,244.35,177.37,244.65,177.2z"/>
	<path class="st2" d="M524.79,192.71c-7.64,26.15-11.13,53.17-16.87,79.71c-0.49,2.25,0.52,5.62-3.18,6.43
		c-0.31-1.15-1.41-1.54-2.27-1.73c-6.9-1.58-13.77-3.32-20.94-3.45c-11.29-0.2-22.64-0.07-33.86-1.13
		c-25.84-2.44-51.79-2.24-77.68-3.66c-17.06-0.93-34.21-0.52-51.22,1.86c-0.81-8.02-2.97-15.82-3.62-23.9
		c-0.71-8.84-2.08-17.64-3.49-26.4c-1.74-10.86-1.65-22-4.93-32.62c4.04-1.68,8.33-0.04,12.43-0.9c0.71,1.07,1.77,1.36,2.97,1.38
		c6.2,0.07,12.39,0.72,18.59,0.08c14.92,0.12,29.83,0.31,44.75,0.35c14.75,0.04,29.51-0.05,44.27-0.08c5.32,1.11,10.66,1,16,0.12
		c6.04,0.2,12.04,1.37,18.11,0.61c5.24,1.77,10.56,1.05,15.88,0.56c13.1,1.09,26.23,0.22,39.35,0.57c1.99,0.05,3.99,0.07,5.98,0.1
		C524.97,191.31,524.88,192.01,524.79,192.71z"/>
	<path class="st3" d="M503.75,291.66c0.07,6.91-1.72,13.47-3.67,20.01c-1.02,3.41-1.2,7.11-1.71,10.51
		c-0.77,5.14-2.15,10.22-2.91,15.37c-1.3,8.73-1.88,17.68-5.22,26.11c-1.04,2.62-0.27,5.93-0.57,8.89
		c-0.39,3.77-1.13,7.49-4.08,10.28c-6-0.65-11.73,1.24-17.59,1.95c-9.86,1.19-19.14-2.29-28.73-3.28
		c-16.71-1.71-33.25-1.4-49.52,3.24c-1.67-0.07-3.36-0.28-4.9,0.64c-2.11,0.38-4.22,1.03-6.34,1.1c-6.67,0.23-13.04,3.15-20.03,1.52
		c-2.19-0.51-6.25-1.06-7.99,2.56c-0.98,0.4-1.97,0.79-2.95,1.19c-0.24-0.08-0.49-0.11-0.75-0.09c-1.47-3.89-2.7-7.88-4.44-11.64
		c-8.36-18.16-12.69-37.33-14.69-57.11c0.02-4.06,0.05-8.13,0.07-12.19c7.3-0.22,14.57,0.8,21.83,0.84
		c14.42,0.08,28.84,0.14,43.29-0.54c19.03-0.9,38.09-1.26,57.13-2.14C469.59,307.97,487.99,304.19,503.75,291.66z M341.29,318.61
		c0,0.03,0,0.05,0,0.08c2.64,0,5.28,0.02,7.92-0.02c0.78-0.01,1.83,0.08,1.95-1.01c0.14-1.24-0.86-1.67-1.86-1.83
		c-0.81-0.13-1.68-0.23-2.46-0.06c-4.33,0.93-8.61,2.08-12.73-0.9c-0.67-0.49-2.55-0.66-2.85,0.88c-0.27,1.39,0.61,2.7,2.12,2.81
		C336,318.74,338.65,318.61,341.29,318.61z"/>
	<path class="st4" d="M384.85,385.38c1.54-0.93,3.23-0.72,4.9-0.64c2.72,4.03,6.88,2.47,9.7,1.29c15.08-6.29,30.78-4.13,45.62-1.47
		c12.18,2.19,23.74,3.1,35.73,0.97c0.9-0.16,1.93-1.1,2.61,0.17c0.55,1.03-0.29,1.82-0.85,2.66c-1,1.5-4.2,2.91-2.08,4.65
		c1.5,1.24,3-1.74,4.21-3.2c0.31-0.38,0.64-0.75,0.96-1.12c0.52,4.92-1.78,9.41-2.31,14.2c-0.31,2.84-2.63,5.15-5.86,6.21
		c-3.98,1.3-8.05,1.95-12.12,2.78c-13.35,2.74-26.93,3.66-40.44,4.55c-14.41,0.95-28.88,1.74-43.38,1.38
		c-7.99-0.2-15.94-0.72-23.9-1.26c-2.93-6.23-5.85-12.46-8.78-18.69c2.93-1.5,5.55-0.96,8.43,0.54c3.08,1.61,5.94,4.06,10.06,4.11
		c-2.12-4.33-6.58-4.81-9.66-7.17c-2.93-2.25-6.08-2.43-9.02,0.24c-0.65-0.64-1.3-1.28-1.95-1.91c0.27-0.64,0.54-1.28,0.81-1.92
		c0.98-0.4,1.97-0.79,2.95-1.19c6.16-0.47,12.22,0.98,18.47,0.58c5.49-0.35,10.56-2.56,16.02-2.44c1.35,0.03,3.13-0.04,3.23-1.56
		C388.36,384.82,385.85,386.28,384.85,385.38z M384.63,403.77c-9.46,1.33-18.81,3.21-28.4,1.55
		C361.86,409.64,376.19,408.85,384.63,403.77z M453.92,398.23c-4.8,0.96-9.47,0.53-14.19-0.46c-2.07-0.44-4.32-0.1-6.48-0.05
		c-0.78,0.02-1.79-0.09-1.98,1.02c-0.17,0.99,0.56,1.73,1.36,1.73C439.78,400.47,447.08,402.04,453.92,398.23z M414.97,393.98
		c-4.69-3.32-11.53-2.96-16.16,0.48C404.54,395.2,409.68,392.77,414.97,393.98z M404.31,401.48c5.49,3,10.53-2.24,15.95-1.09
		C414.84,397.16,409.62,401.41,404.31,401.48z M428.75,389.07c-0.14,0.47-0.28,0.94-0.43,1.41c4.99,1.5,9.98,3.01,14.97,4.51
		C439.4,390.2,434.02,389.78,428.75,389.07z M466.59,397.94c3.1-0.9,6.61,0.71,10.51-1.57
		C472.71,395.25,469.51,395.46,466.59,397.94z"/>
	<path class="st5" d="M306.75,187.82c3.28,10.62,3.19,21.76,4.93,32.62c1.41,8.76,2.77,17.56,3.49,26.4
		c0.65,8.08,2.81,15.88,3.62,23.9c0,0,0.01,0.03,0.01,0.03c-2.61,0.3-5.24,0.49-7.82,0.93c-8.58,1.44-17.25,2.5-25.57,5.24
		c-0.28,0.02-0.5-0.08-0.68-0.3c-1.2-11.34-3.72-22.47-5.46-33.73c-2.59-16.79-3.97-33.53-3.59-50.46c0.04-1.7,0.19-3.31,1.04-4.8
		c5.31-0.29,10.62-1.01,15.94-0.24c3.66,2.22,7.36,1.86,11.09,0.18C304.75,187.67,305.75,187.75,306.75,187.82z"/>
	<path class="st3" d="M274.04,388.94c0.46-8.59-1.53-17.08-2.84-25.35c-1.49-9.46-0.3-19.64-5.28-28.49
		c-0.15-0.27-0.15-0.66-0.11-0.98c1.22-8.64-3.06-16.81-2.11-25.43c0.38-3.49-3.09-6.28-1.91-9.95c7.91,2.7,15.79,5.51,24.16,6.56
		c1.81,0.23,3.55,0.91,5.06-0.7c0.21,0.44,0.54,0.86,0.61,1.32c4.75,30.47,12.62,60.03,25.56,88.13
		c-5.56,1.46-11.24,0.34-16.85,0.71c-2.66,0.18-4.9-0.18-7.21-2.2c-4.92-4.29-10.61-6.85-17.31-3.71
		C275.22,388.88,274.63,388.91,274.04,388.94z"/>
	<path class="st6" d="M363.67,427c20.15-0.2,40.3-0.21,60.44-0.67c13.95-0.32,27.85-1.75,41.59-4.28c3.19-0.59,3.9,0.58,3.85,3.27
		c-0.07,4.37-1.44,8.49-2.49,12.66c-0.6,2.41-1.52,4.75-2.05,7.18c-1.85,8.36-1.82,8.32-10.26,9.96
		c-18.73,3.63-37.68,3.78-56.64,3.62c-4.15-0.03-8.3-0.25-12.46-0.38c-0.54-2.34-2.1-4.06-3.55-5.82
		C375.41,444.41,369.55,435.7,363.67,427z"/>
	<path class="st7" d="M247.94,178.85c2.69,0.19,5.26-0.37,7.76-1.31c2.9,0.39,5.62-0.04,8.05-1.79c2.65-0.06,5.31-0.11,7.96-0.17
		c1.28,0.12,1.97-0.48,2.1-1.75l0.14-0.01c2.24,0,4.48-0.01,6.73-0.02c2,0.2,3.91,1.26,6,0.65c18.4-3.64,37.09-0.56,55.61-2.46
		c8.69-0.89,17.58-1.03,26.37,0.41c3.09,0.5,6.31,0.25,9.47,0.26c12.83,0.04,25.74-0.84,38.46,0.36
		c10.41,0.98,20.74,1.88,31.18,1.55c3.7,0.52,7.35,2.37,11.13,0.37c1.55,0,3.1,0,4.66,0c5.22,1.54,10.58,2.01,15.99,1.98
		c1.86,1.37,4.04,0.59,6.06,0.92c6.62,1.24,13.19,2.91,19.98,2.96c0.23,1.19,0.81,1.94,2.17,1.67c0.64,0.01,1.28,0.01,1.91,0.02
		c1.02,0.07,2.03,0.15,3.05,0.22l0.01,0.01c-0.26,2.51-2.2,1.92-3.78,2.09c-2.08,0.23-4.34-0.74-6.23,0.86
		c-14.99-0.01-29.99-0.01-44.99-0.02c-0.68-0.88-1.36-0.88-2.03,0c-13.98-0.02-27.97-0.03-41.95-0.05
		c-9.02-1.42-18.05-1.36-27.08-0.05c-0.92,0.01-1.85,0.02-2.77,0.03c-2.9-3.7-6.81-1.11-10.21-1.64
		c-40.99-0.07-81.99-0.13-122.98-0.2c-1.07-1.38-2.61-0.85-3.99-0.99c-0.35-0.34-0.71-0.68-1.06-1.01c0.02-0.34,0.04-0.68,0.05-1.02
		c0,0,0.01-0.01,0.01-0.01C247,180.72,247.68,180.04,247.94,178.85z"/>
	<path class="st8" d="M276.72,187.65c-0.86,1.49-1.01,3.1-1.04,4.8c-0.38,16.94,1,33.67,3.59,50.46
		c1.73,11.25,4.26,22.39,5.46,33.73c-9.21,0.53-16.95,4.52-24.01,10.14c-1.36-8.83-2.77-17.65-4.05-26.49
		c-1.43-9.85-2.74-19.71-4.1-29.57c0.2-1.15,0.21-2.24-0.95-2.96c0.05-2.7,0.14-5.4-0.61-8.03c0.31-2.16-0.27-4.13-1.32-5.99
		c-0.12-1.67-0.24-3.34-0.36-5c0.3-1.25-0.29-2.04-1.33-2.61c-0.1-2.47-0.21-4.94-0.31-7.4c0.15-1.17,0.01-2.23-1.06-2.96
		c-0.15-1.67-0.31-3.34-0.46-5.01c0.31-0.85,0.16-1.53-0.74-1.92c2.37-2.97,5.65-0.42,8.35-1.39c0.64,0.01,1.27,0.01,1.91,0.02
		C262.7,187.52,269.71,187.58,276.72,187.65z"/>
	<path class="st9" d="M503.75,291.66c-15.75,12.53-34.16,16.31-53.76,17.21c-19.04,0.88-38.11,1.24-57.13,2.14
		c-14.45,0.68-28.87,0.62-43.29,0.54c-7.26-0.04-14.53-1.06-21.83-0.84c-0.64-0.02-1.27-0.04-1.91-0.05
		c-0.88-1.2-1.2-2.54-0.99-4.01c7.98-0.01,15.95,0.66,23.91,0.85c23.44,0.57,46.87-0.62,70.29-1.69
		c15.75-0.72,31.53-0.39,47.17-3.05c12.31-2.09,23.76-6.03,33.52-14.06c2.36-1.94,4.33-5.93,1.54-6.88
		c-4.27-1.45-7.6-5.33-12.4-5.05c-10.17,0.58-20.23-1.3-30.4-1.11c-7.13,0.13-14.27-0.4-21.4-0.69c-24.22-1-48.44-1.68-72.65-3.11
		c-14.94-0.88-29.86,0.93-44.76,2c-0.29-1.03-0.58-2.06-0.87-3.09c0,0-0.01-0.03-0.01-0.03c17.01-2.39,34.15-2.8,51.22-1.86
		c25.88,1.42,51.83,1.22,77.68,3.66c11.22,1.06,22.57,0.92,33.86,1.13c7.17,0.13,14.04,1.87,20.94,3.45
		c0.86,0.2,1.95,0.58,2.27,1.73C506.65,283.29,506.13,287.55,503.75,291.66z"/>
	<path class="st5" d="M363.67,427c5.88,8.7,11.74,17.41,18.42,25.53c1.45,1.77,3.02,3.49,3.55,5.82c-2.95-0.04-5.9-0.09-8.85-0.13
		c-3.26-2.68-6.66-1.93-10.1-0.42c-4.32-0.39-8.64-0.79-12.96-1.18c-1.96-3.17-4.45-2.22-7-0.92c-1.3-0.19-2.6-0.38-3.9-0.58
		c-2.1-3.7-4.23-7.35-6.66-10.89c-3.24-4.73-5.61-10.06-8.51-15.04c-1.58-2.7-0.35-3.82,2.06-4.57c2.65,0.15,5.29,0.3,7.94,0.45
		c1.79,2.72,3.9,1.93,6.06,0.56C350.38,426.09,357.03,426.55,363.67,427z"/>
	<path class="st6" d="M329.74,424.63c-2.4,0.75-3.63,1.86-2.06,4.57c2.9,4.98,5.26,10.31,8.51,15.04c2.42,3.53,4.56,7.18,6.66,10.89
		c-9.49-0.08-18.64-2.92-28.01-3.68c-11.19-0.9-17.47-5.63-17.38-17.52c0.03-3.4-1.07-6.86-1.96-10.21
		c-1.03-3.88,0.92-4.47,3.93-3.85c7.49,1.53,15.05,2.46,22.62,3.45C324.61,423.66,327.45,422.66,329.74,424.63z"/>
	<path class="st4" d="M274.04,388.94c0.59-0.03,1.18-0.06,1.77-0.09c0.24,1.34-0.7,2.87,0.57,4.1c4.03-3.73,8.6-4.35,10.57-0.74
		c2.8,5.12,7.3,5.32,11.91,5.47c6.6,0.22,13.21,0.06,19.82,0.06c1.32,2.97,2.64,5.95,3.96,8.92c-2.63,0.39-5.78,1.16-7.65-0.66
		c-2.68-2.61-5.79-2.02-8.78-2.62c-0.93-0.19-2.08-0.86-2.24,0.75c-0.13,1.34,1.02,1.46,2.04,1.57c1.94,0.23,4.22-0.71,5.77,0.83
		c3.57,3.54,7.67,3.24,11.99,2.16c2.27,1.35,2.73,3.91,3.97,5.96c-15.96-0.62-31.54-3.11-46.61-8.73
		c-6.92-2.58-5.37-8.64-6.71-13.58C274.13,391.26,274.16,390.08,274.04,388.94z M288.08,401.14c2.98,2.04,6.41,1.96,9.83,1.91
		C294.98,400.79,291.65,400.41,288.08,401.14z"/>
	<path class="st10" d="M327.75,414.65c-1.24-2.04-1.7-4.6-3.97-5.96c-0.08-0.84-0.3-1.61-1.14-2.03c-1.32-2.97-2.64-5.95-3.96-8.92
		c0.33-0.68,0.66-1.35,0.99-2.03c1.36,0,2.71,0.01,4.07,0.01c-0.95,1.09-2.02,2.3,0.72,1.96c7.49-0.93,15.05-1.54,22.27-4.02
		c0.65,0.64,1.3,1.28,1.95,1.92c0.06,0.76,0.12,1.52,0.19,2.28c2.93,6.23,5.85,12.46,8.78,18.69
		C347.63,416.7,337.61,416.92,327.75,414.65z M331.42,406.91c5.81,0.4,10.96-2.82,16.68-3.16
		C342.01,401.61,336.87,405.15,331.42,406.91z"/>
	<path class="st11" d="M261.74,293.72c0.02-1.29,0.04-2.58,0.06-3.87c7.33-4.53,14.22-10.16,23.68-9.21
		c2.37,6.86,3.66,13.96,4.87,21.08C280.41,300.47,270.48,299.23,261.74,293.72z"/>
	<path class="st12" d="M485.65,388.69c-0.32,0.37-0.65,0.74-0.96,1.12c-1.21,1.47-2.71,4.44-4.21,3.2
		c-2.12-1.75,1.08-3.15,2.08-4.65c0.56-0.84,1.4-1.63,0.85-2.66c-0.68-1.27-1.7-0.33-2.61-0.17c-11.99,2.13-23.55,1.22-35.73-0.97
		c-14.84-2.67-30.54-4.83-45.62,1.47c-2.81,1.17-6.97,2.74-9.7-1.29c16.28-4.63,32.81-4.95,49.52-3.24
		c9.59,0.98,18.86,4.47,28.73,3.28c5.85-0.71,11.58-2.6,17.59-1.95C487.1,384.77,486.69,386.72,485.65,388.69z"/>
	<path class="st9" d="M261.74,293.72c8.74,5.5,18.67,6.75,28.6,8c0.22,0.96,0.44,1.92,0.67,2.87c-1.5,1.6-3.25,0.92-5.06,0.69
		c-8.37-1.05-16.24-3.86-24.16-6.56C261.78,297.06,261.76,295.39,261.74,293.72z"/>
	<path class="st9" d="M285.47,280.64c-9.46-0.95-16.35,4.68-23.68,9.21c-1.18-0.73-1.05-1.93-1.08-3.07
		c7.06-5.62,14.81-9.61,24.01-10.14c0.17,0.22,0.4,0.32,0.67,0.3C285.42,278.17,285.45,279.4,285.47,280.64z"/>
	<path class="st1" d="M386.68,185.55c9.03-1.31,18.06-1.37,27.08,0.05c-5.38,2.36-11.03,0.85-16.54,0.97
		C393.75,186.65,389.98,187.97,386.68,185.55z"/>
	<path class="st1" d="M340.74,188.38c-6.2,0.64-12.39-0.01-18.59-0.08c-1.2-0.01-2.26-0.31-2.97-1.38
		c6.14-0.07,12.28-0.14,18.42-0.2C338.94,186.71,340.34,186.6,340.74,188.38z"/>
	<path class="st1" d="M479.74,189.94c-5.32,0.49-10.64,1.21-15.88-0.56C469.19,188.52,474.52,187.68,479.74,189.94z"/>
	<path class="st1" d="M445.75,188.77c-5.34,0.87-10.67,0.99-16-0.12C435.1,187.16,440.43,187.01,445.75,188.77z"/>
	<path class="st2" d="M303.75,187.59c-3.72,1.68-7.43,2.03-11.09-0.18C296.37,186.89,300.07,186.6,303.75,187.59z"/>
	<path class="st1" d="M373.7,183.93c3.41,0.53,7.32-2.06,10.21,1.64C380.53,184.92,376.61,187.58,373.7,183.93z"/>
	<path class="st6" d="M366.7,457.81c3.43-1.52,6.84-2.27,10.1,0.42C373.41,458.54,370.01,459.26,366.7,457.81z"/>
	<path class="st6" d="M346.74,455.7c2.54-1.3,5.04-2.25,7,0.92C351.36,456.69,348.87,457.58,346.74,455.7z"/>
	<path class="st1" d="M249.68,213.73c1.05,1.86,1.64,3.83,1.32,5.99C248.98,218.08,247.82,216.24,249.68,213.73z"/>
	<path class="st6" d="M343.74,425.64c-2.16,1.37-4.28,2.16-6.06-0.56C339.73,424.92,341.82,424.35,343.74,425.64z"/>
	<path class="st1" d="M246.73,182.74c1.38,0.14,2.92-0.39,3.99,0.99C248.97,185.08,247.46,185.46,246.73,182.74z"/>
	<path class="st1" d="M246.63,195.75c1.07,0.73,1.21,1.79,1.06,2.96C245.59,198.35,245.2,197.37,246.63,195.75z"/>
	<path class="st1" d="M251.61,227.76c1.16,0.72,1.15,1.81,0.95,2.96C250.57,230.27,250.18,229.31,251.61,227.76z"/>
	<path class="st1" d="M245.43,188.83c0.9,0.39,1.05,1.06,0.74,1.92C245.11,190.41,244.35,189.97,245.43,188.83z"/>
	<path class="st1" d="M247.99,206.11c1.04,0.57,1.63,1.36,1.33,2.61C247.83,208.39,247.7,207.36,247.99,206.11z"/>
	<path class="st1" d="M524.79,192.71c0.09-0.7,0.19-1.4,0.28-2.09c0.63,0.18,1.36,0.36,1.23,1.19
		C526.18,192.58,525.44,192.64,524.79,192.71z"/>
	<path class="st1" d="M455.72,185.65c0.68-0.88,1.35-0.88,2.03,0C457.07,186.72,456.39,186.72,455.72,185.65z"/>
	<path class="st1" d="M255.69,187.45c-0.64-0.01-1.28-0.01-1.91-0.02C254.42,186.64,255.06,186.64,255.69,187.45z"/>
	<path class="st0" d="M505.6,180.79c-6.8-0.05-13.36-1.72-19.98-2.96c5.97-2.89,11.87-0.23,17.77,0.33c2.09,0.2,4.1,1.13,6.15,1.73
		c0.05,0.86,0.1,1.72,0.14,2.58c-0.64-0.01-1.28-0.01-1.91-0.02C507.59,181.2,506.83,180.69,505.6,180.79z"/>
	<path class="st0" d="M479.55,176.92c-5.42,0.02-10.77-0.45-15.99-1.98c0.27-1.95,1.77-2.67,3.24-2.08c4.04,1.61,8.17,2,12.46,2.02
		C480.69,174.88,480.5,176.06,479.55,176.92z"/>
	<path class="st0" d="M458.9,174.93c-3.78,2-7.43,0.15-11.13-0.37C450.74,171.72,456.34,171.91,458.9,174.93z"/>
	<path class="st0" d="M271.71,175.58c-2.65,0.06-5.31,0.11-7.96,0.17c-0.18-0.72-1.41-1.81-0.94-1.81c3.71-0.03,7.43-2.9,11.15-0.12
		c0,0-0.14,0.01-0.14,0.01C272.51,173.7,271.83,174.3,271.71,175.58z"/>
	<path class="st0" d="M286.68,174.45c-2.09,0.61-4-0.45-6-0.65C283.36,170.63,285.23,170.83,286.68,174.45z"/>
	<path class="st0" d="M512.73,182.7c3.57-4.58,5.84-0.39,8.51,1.16C518.35,183.93,515.74,182,512.73,182.7
		C512.74,182.71,512.73,182.7,512.73,182.7z"/>
	<path class="st1" d="M247.94,178.85c-0.26,1.18-0.94,1.87-2.21,1.84C245.81,179.3,246.55,178.68,247.94,178.85z"/>
	<path class="st13" d="M285.47,280.64c-0.02-1.23-0.05-2.46-0.07-3.7c8.32-2.74,16.99-3.79,25.57-5.24
		c2.59-0.43,5.21-0.63,7.82-0.93c0.29,1.03,0.58,2.06,0.87,3.09c0.43,3.22,0.85,6.44,1.28,9.66c-0.42,0.38-0.84,0.76-1.27,1.14
		c-7.73,1.04-15.15,3.14-22.92,5.96c2.12,1.6,3.83,1.04,5.42,1.13c7,0.39,13.78-1.65,20.73-1.89c-0.78,5.77,1.15,11.22,1.93,16.81
		c-0.22,1.47,0.11,2.81,0.99,4.01c-0.53,4.25,0.63,8.25,1.84,12.25c2.01,19.78,6.33,38.95,14.69,57.11
		c1.73,3.76,2.97,7.75,4.44,11.64c-6.33,1.33-12.66,2.66-18.99,3.99c-1.37-1.23-2.73-1.38-4.05,0.07l-0.01,0.01
		c-1.36,0-2.71-0.01-4.07-0.01c-0.83-0.56-1.66-1.12-2.49-1.68c-12.94-28.09-20.81-57.66-25.56-88.13c-0.07-0.46-0.4-0.88-0.61-1.32
		c-0.22-0.96-0.44-1.91-0.67-2.87C289.13,294.6,287.84,287.49,285.47,280.64z"/>
	<path class="st12" d="M384.85,385.38c1,0.9,3.51-0.56,3.35,1.76c-0.1,1.52-1.88,1.59-3.23,1.56c-5.46-0.12-10.54,2.09-16.02,2.44
		c-6.26,0.4-12.32-1.05-18.47-0.58c1.75-3.62,5.81-3.07,8-2.56c6.99,1.63,13.36-1.29,20.03-1.52
		C380.63,386.41,382.74,385.76,384.85,385.38z"/>
	<path class="st11" d="M341.29,318.61c-2.64,0-5.29,0.13-7.92-0.05c-1.51-0.1-2.39-1.42-2.12-2.81c0.3-1.54,2.18-1.37,2.85-0.88
		c4.13,2.98,8.4,1.83,12.73,0.9c0.78-0.17,1.66-0.07,2.46,0.06c1,0.16,2,0.59,1.86,1.83c-0.12,1.09-1.17,1-1.95,1.01
		c-2.64,0.04-5.28,0.02-7.92,0.02C341.29,318.67,341.29,318.64,341.29,318.61z"/>
	<path class="st14" d="M327.8,395.65c6.33-1.33,12.66-2.66,18.99-3.99c0.25-0.02,0.5,0.01,0.75,0.09c-0.27,0.64-0.54,1.28-0.81,1.92
		c-7.22,2.48-14.77,3.09-22.27,4.02c-2.74,0.34-1.66-0.87-0.72-1.96c0,0,0.01-0.01,0.01-0.01
		C325.1,395.7,326.45,395.68,327.8,395.65z"/>
	<path class="st11" d="M327.66,322.92c-1.21-3.99-2.37-7.99-1.84-12.25c0.64,0.02,1.28,0.04,1.91,0.05
		C327.71,314.79,327.68,318.85,327.66,322.92z"/>
	<path class="st12" d="M384.63,403.77c-8.43,5.08-22.76,5.87-28.4,1.55C365.81,406.97,375.16,405.1,384.63,403.77z"/>
	<path class="st12" d="M453.92,398.23c-6.84,3.81-14.14,2.24-21.29,2.24c-0.81,0-1.53-0.74-1.36-1.73c0.19-1.11,1.2-1,1.98-1.02
		c2.16-0.05,4.41-0.39,6.48,0.05C444.46,398.76,449.13,399.19,453.92,398.23z"/>
	<path class="st12" d="M348.86,397.87c-0.06-0.76-0.12-1.52-0.19-2.28c2.94-2.68,6.09-2.5,9.02-0.24c3.07,2.37,7.53,2.84,9.66,7.17
		c-4.12-0.05-6.98-2.5-10.06-4.11C354.41,396.9,351.79,396.36,348.86,397.87z"/>
	<path class="st12" d="M414.97,393.98c-5.29-1.21-10.43,1.22-16.16,0.48C403.44,391.02,410.28,390.66,414.97,393.98z"/>
	<path class="st12" d="M404.31,401.48c5.32-0.07,10.54-4.32,15.95-1.09C414.84,399.25,409.79,404.48,404.31,401.48z"/>
	<path class="st12" d="M428.75,389.07c5.27,0.71,10.65,1.13,14.55,5.92c-4.99-1.5-9.98-3.01-14.97-4.51
		C428.47,390.01,428.61,389.54,428.75,389.07z"/>
	<path class="st12" d="M466.59,397.94c2.91-2.49,6.12-2.69,10.51-1.57C473.2,398.66,469.69,397.04,466.59,397.94z"/>
	<path class="st12" d="M317.18,394.04c0.83,0.56,1.66,1.12,2.49,1.68c-0.33,0.68-0.66,1.35-0.99,2.03c-6.61,0-13.22,0.16-19.82-0.06
		c-4.61-0.16-9.11-0.36-11.91-5.47c-1.97-3.61-6.53-2.99-10.57,0.74c-1.28-1.23-0.33-2.76-0.57-4.1c6.7-3.14,12.38-0.58,17.31,3.71
		c2.31,2.02,4.55,2.37,7.21,2.2C305.94,394.38,311.61,395.5,317.18,394.04z"/>
	<path class="st1" d="M271.71,175.58c0.12-1.28,0.81-1.88,2.1-1.75C273.68,175.1,272.99,175.7,271.71,175.58z"/>
	<path class="st1" d="M505.6,180.79c1.24-0.1,1.99,0.41,2.17,1.67C506.41,182.73,505.83,181.99,505.6,180.79z"/>
	<path class="st11" d="M324.83,306.66c-0.79-5.59-2.71-11.04-1.93-16.81c0.29,0,0.55-0.07,0.79-0.23
		c23.65-0.69,47.31-1.37,70.96-2.06c15.06,0,30.11,0,45.17-0.01c2.04,0.1,4.15-0.35,6.78,0.77c-5.83,1.64-11.59,1.16-16.44,3.83
		c-2.09,1.15-6.08,1.51-5.27,4.94c0.69,2.9,4.26,2.63,6.82,3.16c0.48,0.1,1.01,0.08,1.49-0.01c12.43-2.17,24.87-4.29,37.27-6.59
		c2.89-0.54,5.37-2.01,5.51-5.51c0.14-3.53-2.23-5.05-5.11-5.84c-6.89-1.87-13.88-3.53-21.02-3.69c-27.44-0.63-54.88-0.09-82.3,1.21
		c-6.13,0.29-12.25,0.96-18.37,1.45c-9.42,0.75-18.84,1.49-28.25,2.23c-0.43-3.22-0.85-6.44-1.28-9.66
		c14.91-1.06,29.82-2.88,44.76-2c24.2,1.43,48.43,2.11,72.65,3.11c7.13,0.29,14.27,0.82,21.4,0.69c10.16-0.18,20.23,1.69,30.4,1.11
		c4.8-0.27,8.13,3.61,12.4,5.05c2.79,0.94,0.81,4.94-1.54,6.88c-9.76,8.03-21.21,11.97-33.52,14.06
		c-15.64,2.66-31.42,2.33-47.17,3.05c-23.43,1.07-46.85,2.26-70.29,1.69C340.78,307.32,332.81,306.66,324.83,306.66z M409.16,298.92
		c-1.33-0.84-1.82-1.33-2.4-1.49c-8.57-2.45-17.37-1.4-26.08-1.62c-0.89-0.02-1.66,0.48-1.8,1.39c-0.22,1.41,0.74,2.06,1.93,2.45
		c4.77,1.59,9.79,1.53,14.7,1.82C399.86,301.72,404.34,301.32,409.16,298.92z"/>
	<path class="st12" d="M322.64,406.67c0.84,0.42,1.06,1.19,1.14,2.03c-4.32,1.08-8.42,1.38-11.99-2.16
		c-1.55-1.54-3.83-0.6-5.77-0.83c-1.02-0.12-2.17-0.23-2.04-1.57c0.15-1.62,1.31-0.94,2.24-0.75c2.99,0.6,6.1,0.01,8.78,2.62
		C316.86,407.83,320.01,407.06,322.64,406.67z"/>
	<path class="st12" d="M288.08,401.14c3.57-0.73,6.9-0.35,9.83,1.91C294.49,403.1,291.06,403.17,288.08,401.14z"/>
	<path class="st14" d="M331.42,406.91c5.46-1.77,10.59-5.31,16.68-3.16C342.37,404.09,337.22,407.31,331.42,406.91z"/>
	<path class="st14" d="M394.66,287.58c-23.65,0.69-47.31,1.37-70.96,2.06c-2.48-0.74-1.04-4.64-4.02-4.97
		c0.42-0.38,0.84-0.76,1.27-1.14c9.42-0.74,18.84-1.48,28.25-2.23c6.12-0.49,12.24-1.16,18.37-1.45c27.42-1.3,54.85-1.84,82.3-1.21
		c7.14,0.16,14.13,1.82,21.02,3.69c2.88,0.78,5.26,2.31,5.11,5.84c-0.14,3.49-2.62,4.97-5.51,5.51c-12.4,2.3-24.84,4.42-37.27,6.59
		c-0.48,0.08-1.01,0.11-1.49,0.01c-2.56-0.54-6.13-0.27-6.82-3.16c-0.81-3.43,3.17-3.78,5.27-4.94c4.85-2.66,10.61-2.19,16.44-3.83
		c-2.63-1.12-4.73-0.67-6.78-0.77c-11.41-1.68-22.88-0.48-34.32-0.71C401.9,286.78,398.19,286.13,394.66,287.58z"/>
	<path class="st5" d="M319.67,284.66c2.98,0.33,1.54,4.23,4.02,4.97c-0.24,0.15-0.51,0.23-0.79,0.23
		c-6.95,0.24-13.73,2.28-20.73,1.89c-1.59-0.09-3.3,0.48-5.42-1.13C304.52,287.8,311.95,285.7,319.67,284.66z"/>
	<path class="st10" d="M327.8,395.65c-1.35,0.02-2.7,0.05-4.05,0.07C325.07,394.28,326.43,394.43,327.8,395.65z"/>
	<path class="st14" d="M409.16,298.92c-4.82,2.39-9.3,2.79-13.65,2.54c-4.91-0.29-9.93-0.23-14.7-1.82
		c-1.19-0.4-2.15-1.04-1.93-2.45c0.14-0.91,0.91-1.41,1.8-1.39c8.71,0.23,17.51-0.82,26.08,1.62
		C407.35,297.6,407.84,298.08,409.16,298.92z"/>
	<path class="st7" d="M394.66,287.58c3.53-1.44,7.24-0.79,10.85-0.72c11.44,0.24,22.91-0.97,34.32,0.71
		C424.77,287.57,409.71,287.57,394.66,287.58z"/>
</g>
</svg>
