<?xml version="1.0" encoding="utf-8"?>
<!-- Generator: Adobe Illustrator 26.0.3, SVG Export Plug-In . SVG Version: 6.00 Build 0)  -->
<svg version="1.1" id="Layer_1" xmlns="http://www.w3.org/2000/svg" xmlns:xlink="http://www.w3.org/1999/xlink" x="0px" y="0px"
	 viewBox="0 0 792 612" style="enable-background:new 0 0 792 612;" xml:space="preserve">
<style type="text/css">
	.st0{fill:#245D7D;}
	.st1{fill:#336385;}
	.st2{fill:#A9CFF0;}
	.st3{fill:#4644AD;}
	.st4{fill:#D2E8F7;}
	.st5{fill:#A6CDEE;}
	.st6{fill:#5A80B2;}
	.st7{fill:#A8CEEF;}
	.st8{fill:#262667;}
	.st9{fill:#399B8D;}
	.st10{fill:#4845AC;}
	.st11{fill:#A5D1D2;}
	.st12{fill:#2D6187;}
	.st13{fill:#B2BAE1;}
	.st14{fill:#CFE2ED;}
</style>
<g>
	<path class="st0" d="M379.76,471.06c-0.68-0.02-1.37-0.03-2.05-0.05c-0.26-1.45-1.28-1.81-2.57-1.75
		c-10.99,0.5-21.56-2.31-32.32-3.79c-15.39-2.13-30.32-5.43-44.27-12.35c-4.2-2.08-7.93-5.5-8.71-10.17
		c-1.19-7.08-3.08-14.09-3.11-21.35c-0.01-2.35,0.02-4.69-2.04-6.37c-0.04-0.86-0.08-1.73-0.12-2.59
		c0.27-5.98-0.08-11.83-1.34-17.78c-2.02-9.51-3.52-19.18-4.35-28.87c-0.64-7.51-2.07-14.89-2.78-22.39
		c-1.24-13.1-3.4-26.14-5.03-39.2c-1.02-8.22-3.7-16.43-2.45-24.92c0.11-0.76-0.29-1.62-0.52-2.41c-3.43-11.64-2.85-23.86-5.16-35.7
		c-1.18-6.05-3.29-12.18-2.35-18.59c0.13-0.9-0.79-1.36-1.66-1.55c-0.03-0.68-0.05-1.36-0.08-2.04c0.96-2.94,1.4-6.12,0.68-8.98
		c-0.97-3.85-1.52-7.65-1.92-11.59c-0.6-5.88,2.44-10.85,3.11-16.36c0,0,0.01-0.01,0.01-0.01c1.12-0.04,2.38,0.23,2.87-1.25
		c0,0-0.08,0.07-0.08,0.07c2.1-0.45,5.08,1.9,6.13-1.92c0,0-0.03,0.03-0.03,0.03c2.29,0.95,5.68-1.77,7.1,2.11
		c-1.9,1.1-4.01,0.87-6.08,0.94c-0.82,0.02-1.54,0.23-1.94,1.03c-1.26,0.04-2.53,0.08-3.79,0.11c-1.39-0.17-2.13,0.45-2.22,1.85
		l-0.01,0.01c-0.13,0.09-0.39,0.21-0.38,0.27c0.07,0.26,0.21,0.5,0.32,0.75c0.35,0.34,0.71,0.68,1.06,1.02c1.12,3.05,3,2.31,5,1
		c40.66,0.07,81.32,0.14,121.99,0.2c3.26,3.7,7.48,0.98,11.19,1.66c0.59-0.02,1.19-0.03,1.78-0.05c2.6,2.28,5.75,1.18,8.55,1.03
		c5.84-0.3,11.83,1.48,17.54-0.99c14.32,0.02,28.63,0.03,42.95,0.05c0.68,1.07,1.36,1.07,2.04,0c14.99,0.01,29.98,0.01,44.97,0.02
		c6.29,2.11,12.71,0.85,19.08,0.65c0.32-0.01,0.6-1.04,0.9-1.6c1.59,0.36,3.17,0.72,4.76,1.08c0,0,0.13,0.28,0.13,0.28
		c1.69,4.37,2.86,8.88,2.07,13.57c-2.75,16.37-5.22,32.8-8.59,49.04c-2.55,12.3-4.69,24.68-7.05,37
		c-3.25,16.93-6.46,33.91-9.1,50.97c-1.53,9.93-5.32,19.48-4.94,29.72c-0.03,0.77-0.07,1.53-0.1,2.3c-2.43,0.27-2.09,2.12-2.16,3.76
		c-0.06,1.49,0.19,3.11-0.32,4.44c-2.36,6.06-2.6,12.49-3.69,18.77c-1.41,8.09-2.55,16.25-4.33,24.26
		c-2.1,9.42-4.92,18.66-5.78,28.37c-0.37,4.16-2.36,7.31-7.24,8.59c-5.66,1.48-11.16,3.43-16.95,4.68
		c-5.01,1.08-9.72,3.54-15.12,3.23c-1.61-0.09-3.84-0.93-4.57,1.7c-0.68,0.03-1.37,0.05-2.05,0.08c-3.3-1.68-6.9-1.12-10.22-0.67
		c-17.17,2.3-34.28,1.34-51.43,0C388.63,470.06,384.08,469.27,379.76,471.06z M344.79,419.17c9.79,2.97,19.87,1.68,29.83,2
		c3.79,0.26,7.49,1.07,11.34,1.12c27.02,0.32,54.01-0.29,80.88-3.18c9.66-1.04,19.21-3.18,28.75-5.09c3.58-0.71,5.64-2.8,3.11-6.69
		c2.79-2.89,4.05-6.6,3.86-10.34c-0.3-5.86,1.96-11.27,2.71-16.91c0.52-3.89,0.27-8.32,1.93-11.94c3.83-8.33,3.76-17.38,5.21-26.09
		c0.85-5.11,2.24-10.18,2.91-15.37c0.41-3.21,0.67-6.78,1.63-10.01c2-6.71,3.76-13.43,3.76-20.5c2.69-3.84,2-8.2,1.94-12.46
		c1.78-1.98,1.85-4.55,2.33-6.95c4.11-20.5,8.17-41.01,12.25-61.51c1.1-0.31,1.85-0.75,0.76-1.92c0.2-1.36,0.4-2.71,0.59-4.07
		c1.15-1.1,2.69-2.08,1.25-3.99c0.15-1.01,0.29-2.01,0.44-3.02c1.32-0.36,1.47-1.31,1.25-2.45c0.81-3.9-0.72-5.14-4.66-4.87
		c-4.94,0.34-9.93,0.15-14.9,0.02c-9.42-0.24-18.86,0.6-28.26-0.59c-4.89-2.15-9.87-1.29-14.86-0.51
		c-5.99,0.81-11.92-0.49-17.9-0.47c-28.6,0.05-57.2-0.06-85.8-0.15c-5.81-0.02-11.62-0.23-17.43-0.35c-0.4-1.78-1.81-1.67-3.15-1.66
		c-6.14,0.06-12.28,0.13-18.42,0.2c-4.1,0.88-8.39-0.76-12.43,0.91c-1.01-0.07-2.02-0.15-3.03-0.22c-3.66-0.05-7.32-0.1-10.97-0.14
		c-5.35-0.4-10.69-0.22-16.03,0.19c-8.99-0.06-17.99-0.03-26.98-0.22c-2.59-0.05-3.74,0.61-3.28,3.36c0.82,4.9,1.53,9.82,2.25,14.74
		c2.6,17.74,5.18,35.48,7.79,53.22c1.38,9.34,2.8,18.68,4.2,28.02c0.03,1.14-0.1,2.34,1.08,3.07c-0.02,1.29-0.04,2.58-0.06,3.87
		c0.02,1.67,0.04,3.34,0.06,5.01c1.24,6.58,2.54,13.15,2.03,19.9c-0.01,0.16,0.02,0.34,0.08,0.49c3.23,7.48,1.07,15.88,3.92,23.36
		c2.05,5.39,0.68,11.28,2.28,16.38c2.86,9.06,1.02,18.45,3.4,27.53c1.36,5.16,1.33,10.51,6.09,14.05c-1.29,0.42-3.32-0.44-3.62,1.71
		c-0.22,1.56,1.17,2.21,2.34,2.88c0.71,0.41,1.33,1.08,2.08,1.33C312.76,415.99,328.5,419.17,344.79,419.17z M360.71,430.16
		c-1.92-1.28-4.01-0.72-6.06-0.56c-2.65-0.15-5.29-0.3-7.94-0.45c-2.29-1.96-5.13-0.98-7.69-1.31c-7.57-0.99-15.13-1.92-22.62-3.45
		c-3.02-0.62-4.96-0.03-3.93,3.85c0.89,3.35,1.99,6.81,1.96,10.21c-0.09,11.89,6.19,16.62,17.38,17.52
		c9.37,0.75,18.52,3.59,28.01,3.68c1.3,0.19,2.6,0.39,3.9,0.58c2.13,1.88,4.61,0.99,7,0.92c4.32,0.39,8.64,0.79,12.96,1.18
		c2.98,1.38,6.04,0.79,9.1,0.39c3.28,0.05,6.57,0.11,9.85,0.16c4.15,0.13,8.3,0.35,12.46,0.38c18.97,0.16,37.91,0.01,56.64-3.62
		c8.45-1.64,8.41-1.6,10.26-9.96c0.54-2.42,1.45-4.76,2.05-7.18c1.04-4.18,2.41-8.29,2.49-12.66c0.05-2.68-0.65-3.86-3.85-3.27
		c-13.9,2.55-27.96,3.98-42.08,4.3c-19.97,0.44-39.96,0.47-59.94,0.67C374.01,431.08,367.36,430.62,360.71,430.16z"/>
	<path class="st1" d="M544.43,190.32c-1.59-0.36-3.17-0.72-4.76-1.08c-3.41-0.27-6.32-3.05-10-2c-3.94,0.81-7.34-1.81-11.04-1.9
		c-10.26-0.26-20.34-2.28-30.42-3.59c-20.4-2.65-40.92-2.4-61.33-4.3c-12.21-1.13-24.6-0.24-36.91-0.28c-1.49,0-3.01,0.02-4.47-0.24
		c-8.76-1.51-17.65-1.3-26.33-0.41c-18.49,1.9-37.15-1.18-55.52,2.45c-1.45-3.62-3.32-3.82-6-0.65c-2.24,0.01-4.48,0.01-6.73,0.01
		c-3.87-1.82-7.44-2.02-10.21,1.93c-1.08,1.33-2.61,0.86-3.99,1.01c-1.42-3.89-4.81-1.16-7.1-2.11c12.49-3.52,25.32-5.18,38.2-5.75
		c28.1-1.24,56.22-1.38,84.35-1.28c31.94,0.12,63.83,1.36,95.56,4.91c16.02,1.79,32.17,3.45,47.78,7.96
		C538.91,185.99,542.46,186.88,544.43,190.32z"/>
	<path class="st1" d="M258.92,221.22c0.87,0.19,1.79,0.65,1.66,1.55c-0.93,6.41,1.17,12.54,2.35,18.59
		c2.32,11.84,1.73,24.06,5.16,35.7c0.23,0.79,0.63,1.65,0.52,2.41c-1.25,8.5,1.43,16.71,2.45,24.92c1.63,13.06,3.79,26.1,5.03,39.2
		c0.71,7.5,2.13,14.88,2.78,22.39c0.83,9.68,2.33,19.36,4.35,28.87c1.27,5.96,1.61,11.8,1.34,17.78
		c-2.86-10.11-3.43-20.6-4.88-30.93c-3.36-23.84-6.43-47.72-9.54-71.59c-2.38-18.27-4.65-36.55-6.96-54.83
		C261.75,243.93,260.34,232.57,258.92,221.22z"/>
	<path class="st1" d="M516.96,370.9c-0.38-10.24,3.41-19.79,4.94-29.72c2.63-17.06,5.85-34.04,9.1-50.97
		c2.36-12.32,4.5-24.7,7.05-37c3.37-16.24,5.84-32.67,8.59-49.04c0.79-4.69-0.38-9.2-2.07-13.57c5.53,4.34,3.89,10.42,3.03,15.69
		c-5.13,31.58-10.88,63.06-16.93,94.48c-4.2,21.81-8.01,43.69-12,65.53C518.36,367.93,518.2,369.62,516.96,370.9z"/>
	<path class="st1" d="M456.69,470.99c0.73-2.64,2.96-1.8,4.57-1.7c5.4,0.31,10.11-2.15,15.12-3.23c5.8-1.25,11.29-3.19,16.95-4.68
		c4.88-1.28,6.87-4.43,7.24-8.59c0.85-9.71,3.67-18.95,5.78-28.37c1.79-8.01,2.92-16.17,4.33-24.26c1.1-6.28,1.34-12.72,3.69-18.77
		c0.51-1.32,0.26-2.95,0.32-4.44c0.07-1.64-0.28-3.49,2.16-3.76c-1.54,8.95-2.96,17.93-4.66,26.85
		c-3.52,18.41-7.37,36.77-10.68,55.22c-0.88,4.87-3.73,5.74-7.66,7.48c-10.05,4.46-20.59,6.24-31.23,7.95
		C460.65,471.02,458.7,471.52,456.69,470.99z"/>
	<path class="st1" d="M284.69,415.23c2.06,1.68,2.03,4.02,2.04,6.37c0.03,7.25,1.93,14.27,3.11,21.35
		c0.78,4.67,4.51,8.09,8.71,10.17c13.95,6.92,28.88,10.22,44.27,12.35c10.76,1.49,21.33,4.29,32.32,3.79
		c1.28-0.06,2.3,0.3,2.57,1.75c-9.99,0.13-19.8-1.62-29.63-3.02c-14.42-2.06-28.81-4.54-42.44-9.86
		c-7.54-2.94-15.31-6.21-17.5-15.36c-0.85-3.53-1.22-7.19-1.65-10.81C285.82,426.39,285.28,420.81,284.69,415.23z"/>
	<path class="st1" d="M379.76,471.06c4.32-1.79,8.87-1,13.23-0.66c17.16,1.34,34.27,2.3,51.43,0c3.32-0.44,6.92-1.01,10.22,0.67
		c-5.42,0.58-10.82,1.54-16.25,1.69c-18.6,0.52-37.2,0.35-55.76-0.98C381.66,471.7,380.71,471.3,379.76,471.06z"/>
	<path class="st1" d="M260.71,182.25c-0.67,5.51-3.71,10.48-3.11,16.36c0.4,3.94,0.96,7.74,1.92,11.59
		c0.72,2.86,0.28,6.04-0.68,8.98c-1.5-8.76-2.63-17.56-2.1-26.46C256.97,188.92,257.5,185.02,260.71,182.25z"/>
	<path class="st1" d="M269.65,179.14c-1.05,3.82-4.03,1.47-6.13,1.92C265.56,180.42,267.6,179.78,269.65,179.14z"/>
	<path class="st1" d="M263.6,180.99c-0.49,1.48-1.75,1.21-2.87,1.25C261.41,181.21,262.53,181.15,263.6,180.99z"/>
	<path class="st2" d="M323.72,192.35c4.04-1.68,8.33-0.04,12.43-0.91c0.71,1.07,1.77,1.36,2.97,1.38c6.2,0.07,12.39,0.72,18.59,0.09
		c5.81,0.12,11.62,0.33,17.43,0.35c28.6,0.1,57.2,0.21,85.8,0.15c5.98-0.01,11.91,1.29,17.9,0.48c4.9,1.66,9.88,1.16,14.86,0.51
		c9.4,1.19,18.84,0.34,28.26,0.59c4.97,0.13,9.96,0.32,14.9-0.02c3.94-0.27,5.47,0.97,4.66,4.87c-0.84,0.6-1.67,1.21-1.25,2.45
		c-0.15,1.01-0.29,2.01-0.44,3.02c-0.9,1.18-2.14,2.25-1.25,3.99c-0.2,1.36-0.4,2.71-0.59,4.07c-0.86,0.4-1.07,1.06-0.76,1.92
		c-4.08,20.5-8.14,41.01-12.25,61.51c-0.48,2.4-0.55,4.97-2.33,6.95c-7.15-4.39-15.24-4.99-23.26-5.42
		c-11.6-0.63-23.28-0.17-34.83-1.24c-26-2.41-52.09-2.24-78.13-3.66c-16.89-0.92-33.85-0.48-50.68,1.87
		c-0.81-8.02-2.97-15.82-3.62-23.9c-0.71-8.84-2.08-17.64-3.49-26.4C326.91,214.11,327.01,202.97,323.72,192.35z"/>
	<path class="st3" d="M520.72,296.18c0,7.06-1.76,13.78-3.76,20.5c-0.96,3.23-1.22,6.8-1.63,10.01c-0.67,5.19-2.06,10.26-2.91,15.37
		c-1.45,8.71-1.38,17.76-5.21,26.09c-1.66,3.62-1.42,8.05-1.93,11.94c-0.75,5.64-3.01,11.05-2.71,16.91
		c0.19,3.75-1.07,7.46-3.86,10.34c-11.12,3.21-22.62,4.21-34,5.93c-4.06,0-8.11-0.03-12.17,0c-1.55,0.01-3.41-0.46-3.83,1.9
		c-11.4-0.61-22.54,3.62-34.01,1.86c-0.38-0.86-0.86-1.59-1.93-1.6c-2.05,0.92-3.96,1.53-6.41,0.95c-7.8-1.86-15.79-1.12-23.72-1.14
		c-0.88,0.05-1.76,0.09-2.64,0.14c-2.39-3.46-5.99-1.7-9.09-2.12c-0.21-0.11-0.43-0.16-0.66-0.17c-3.59-9.43-6.74-19.06-10.85-28.26
		c-8.19-18.33-12.74-37.51-14.76-57.38c0.02-4.06,0.05-8.13,0.07-12.19c7.3-0.22,14.57,0.8,21.83,0.84
		c14.42,0.08,28.84,0.16,43.29-0.55c19.02-0.94,38.09-1.29,57.13-2.14C486.57,312.51,504.97,308.71,520.72,296.18z M450.92,389.22
		c0.55,2.34,0.82,2.44,2.56,0.9C453.06,387.83,452.79,387.74,450.92,389.22z M446.7,406.19c-1.22-1.31-2.73-1.46-3.61,0.02
		c-0.83,1.4-0.37,2.85,1.69,3.04C446.82,409.1,446.78,407.66,446.7,406.19z M476.72,401.3c-2.11,0.18-2.43,1.7-1.56,3
		c0.88,1.32,2.4,1.43,3.46-0.23C478.75,402.63,478.64,401.35,476.72,401.3z M362.63,360.16c0.27-2.17-0.67-3.15-2.85-2.92
		c-1.38,0.94-1.44,2.31-0.47,3.33C360.32,361.63,361.67,361.49,362.63,360.16z M387.88,403.1c0.59,0.02,1.17,0.03,1.76,0.05
		c1.34-0.98,1.37-2.24,0.37-3.34c-0.71-0.78-1.95-0.76-2.64,0.04C386.42,400.96,386.35,402.23,387.88,403.1z M420.78,384.44
		c-0.4,1.43-0.74,3.04,1.11,3.55c1.88,0.52,2.37-1.07,2.74-2.51C424.09,382.39,422.67,382.55,420.78,384.44z M418.61,371.24
		c-0.83,0.02-1.72-0.15-2.48,0.09c-1.59,0.5-3.51,1.27-2.67,3.34c0.7,1.7,2.29,2.9,4.41,1.48c0.55-0.37,1.17-0.64,1.75-0.95
		C421.2,373.39,421.38,371.94,418.61,371.24z M376.76,397.36c-1.96,0.54-3.77,1.72-3.72,3.88c0.05,2.04,1.54,3.92,3.81,3.69
		c2.03-0.21,3.69-1.73,3.62-4.03C380.41,398.82,378.93,397.73,376.76,397.36z M404.58,392.94c-0.76-1.68-1.87-3.61-4.09-3.32
		c-1.93,0.26-3.92,1.67-3.43,4.03c0.41,1.96,1.93,3.62,4.25,3.33C403.32,396.72,404.41,395.26,404.58,392.94z M472.78,384.75
		c2.27,0.05,3.71-1.13,3.66-3.2c-0.05-2.34-1.4-3.86-4.1-3.75c-2.28,0.09-3.53,1.32-3.37,3.37
		C469.13,383.24,470.47,384.68,472.78,384.75z M374.57,377.47c0.02-2.08-1.3-2.25-2.71-2.26c-1.52,0-3.14-0.06-3.1,2.17
		c0.03,1.75,1.4,2.27,2.69,2.35C373.02,379.82,374.39,379.18,374.57,377.47z M459.96,399.27c-1.48,0.06-3.11-0.02-3.04,2.15
		c0.05,1.63,1.37,2.29,2.64,2.34c1.48,0.07,2.96-0.49,3.02-2.41C462.63,399.55,461.38,399.27,459.96,399.27z M430.68,362.25
		c0.14-2.03-0.71-2.98-2.83-3.02c-2.35-0.05-3.2,0.97-3.15,3.24c0.05,2.18,1.18,2.76,3.13,2.76
		C429.92,365.23,430.83,364.3,430.68,362.25z M436.49,397.06c-0.08-1.55-1.19-1.75-2.38-1.77c-1.3-0.02-2.3,0.42-2.04,1.96
		c0.21,1.28,1.08,1.93,2.41,1.89C435.82,399.1,436.6,398.5,436.49,397.06z M484.61,395.2c-0.04-1.14-0.59-1.81-1.77-1.85
		c-1.12-0.03-1.88,0.46-1.96,1.64c-0.1,1.38,0.57,2.15,1.99,2.1C484.04,397.05,484.57,396.34,484.61,395.2z M496.01,401.2
		c0.01-1.21-0.61-1.91-1.8-1.8c-0.91,0.08-1.42,0.8-1.4,1.73c0.02,1.15,0.6,1.89,1.82,1.77
		C495.57,402.81,496.04,402.16,496.01,401.2z M440.03,365.53c-0.82,0.03-1.34,0.43-1.43,1.15c-0.13,0.99,0.4,1.54,1.42,1.51
		c0.68-0.02,1.39-0.18,1.42-1.01C441.46,366.24,440.8,365.77,440.03,365.53z M455.43,363.63c-0.69,0.16-1.2,0.58-1.15,1.28
		c0.06,0.8,0.44,1.63,1.32,1.74c0.81,0.1,0.96-0.69,1-1.33C456.67,364.47,456.46,363.74,455.43,363.63z M410.19,404.36
		c-0.64,0.13-1.21,0.35-1.29,1.13c-0.11,0.98,0.39,1.54,1.3,1.57c0.64,0.02,1.22-0.32,1.3-1.1
		C411.6,404.99,411.09,404.52,410.19,404.36z M367.16,322.05c-0.33-0.69-0.95-0.82-1.6-0.73c-0.61,0.08-1.51,0.16-1.2,1.05
		c0.13,0.39,0.99,0.68,1.54,0.73C366.49,323.15,367.24,323,367.16,322.05z M350.3,319.39c-0.74,0.04-1.38,0.42-1.18,1.15
		c0.14,0.52,0.75,1.14,1.28,1.28c0.72,0.2,1.17-0.45,1.14-1.17C351.5,319.93,351.01,319.51,350.3,319.39z M443.04,381.16
		c-0.36,0.4-0.87,0.72-0.86,1.03c0.01,0.3,0.53,0.79,0.88,0.84c0.66,0.09,1.39-0.15,1.17-1.03
		C444.14,381.69,443.53,381.5,443.04,381.16z M391.61,362.87c0.26-0.13,0.64-0.2,0.71-0.38c0.08-0.19-0.14-0.51-0.22-0.77
		c-0.31,0.16-0.63,0.32-0.94,0.49C391.3,362.42,391.45,362.64,391.61,362.87z M391.82,373.31c-1.63-0.59-2.02-0.73-2.4-0.87
		c-0.14,0.39-0.33,0.78-0.37,1.19c-0.01,0.1,0.5,0.38,0.75,0.35C390.24,373.93,390.65,373.71,391.82,373.31z M372.64,359.62
		c-0.16-0.47-0.26-0.74-0.36-1.02c-0.36,0.17-0.75,0.29-1.05,0.53c-0.07,0.05,0.16,0.72,0.28,0.73
		C371.87,359.87,372.24,359.71,372.64,359.62z M496.51,380.11c-0.16-0.25-0.27-0.64-0.48-0.7c-0.25-0.08-0.6,0.12-0.9,0.19
		c0.27,0.34,0.53,0.69,0.8,1.03C496.12,380.46,496.31,380.29,496.51,380.11z M475.03,367.75c-0.1-0.11-0.22-0.32-0.3-0.3
		c-0.26,0.04-0.5,0.17-0.75,0.27c0.24,0.11,0.47,0.25,0.73,0.31C474.78,368.04,474.92,367.85,475.03,367.75z"/>
	<path class="st3" d="M296.57,404.96c-4.77-3.54-4.74-8.89-6.09-14.05c-2.39-9.08-0.55-18.47-3.4-27.53
		c-1.61-5.1-0.23-10.98-2.28-16.38c-2.85-7.48-0.69-15.89-3.92-23.36c-0.06-0.15-0.09-0.33-0.08-0.49
		c0.51-6.76-0.79-13.33-2.03-19.9c8.04,2.85,16.13,5.49,24.67,6.46c1.65,0.19,3.19,0.93,4.54-0.6c1.22,5.47,2.79,10.9,3.59,16.43
		c4.33,30.27,15.74,58.17,28.36,85.68c-5.61,0.01-11.22,0.05-16.83,0c-6.8-0.06-13.68,0.88-19.8-3.75
		C301.6,406.2,299.22,404.67,296.57,404.96z M304.54,398.06c0.54-2.4-0.41-3.29-2.78-2.76c-1.42,0.94-1.4,2.3-0.41,3.28
		C302.34,399.55,303.71,399.64,304.54,398.06z M322.68,400.15c0-0.97,0.01-1.95,0.01-2.92c-0.68-3.01-2.98-2.15-4.7-1.66
		c-1.85,0.53-1.4,2.46-1.15,3.81c0.48,2.65,3.47,1.81,5.03,3.14C322.33,402.9,322.55,401.05,322.68,400.15z M308.74,357.23
		c-0.02-0.33-0.04-0.67-0.05-1c-0.25-0.94,0.37-2.99-1.38-2.27c-1.64,0.68-3.54,2.39-1.98,4.67c0.64,0.93,1.51,3.08,3.38,1.41
		C309.54,359.31,312.06,358.18,308.74,357.23z M303.75,369.41c-1.13,0.52-2.65,1.22-2.52,2.59c0.16,1.66,1.56,2.89,3.34,3.12
		c1.42,0.19,2.25-0.69,2.07-2.09C306.43,371.39,306.02,369.73,303.75,369.41z M317.94,388.19c0.58-0.74,1.08-1.1,1.1-1.48
		c0.02-0.36-0.48-0.74-0.74-1.12c-0.41,0.41-0.99,0.75-1.17,1.25C317.03,387.11,317.58,387.63,317.94,388.19z"/>
	<path class="st4" d="M323.72,192.35c3.28,10.62,3.19,21.76,4.93,32.62c1.41,8.76,2.77,17.56,3.49,26.4
		c0.65,8.08,2.81,15.88,3.62,23.9c0,0,0.01,0.03,0.01,0.03c-2.61,0.3-5.24,0.49-7.82,0.93c-8.58,1.44-17.25,2.5-25.57,5.24
		c-0.28,0.02-0.5-0.08-0.67-0.3c-1.2-11.34-3.72-22.47-5.46-33.73c-2.59-16.79-3.97-33.53-3.59-50.46c0.04-1.7,0.19-3.31,1.04-4.8
		c5.34-0.41,10.68-0.59,16.03-0.19c3.63,2.07,7.29,1.87,10.97,0.14C321.7,192.2,322.71,192.27,323.72,192.35z"/>
	<path class="st5" d="M380.65,431.54c19.98-0.2,39.96-0.23,59.94-0.67c14.12-0.31,28.18-1.75,42.08-4.3
		c3.2-0.59,3.89,0.59,3.85,3.27c-0.08,4.37-1.44,8.49-2.49,12.66c-0.6,2.41-1.52,4.75-2.05,7.18c-1.85,8.35-1.82,8.32-10.26,9.96
		c-18.73,3.63-37.68,3.78-56.64,3.62c-4.15-0.03-8.3-0.25-12.46-0.38C395.3,452.43,387.98,441.99,380.65,431.54z"/>
	<path class="st6" d="M290.92,178.34c2.24-0.01,4.48-0.01,6.72-0.02c2,0.2,3.91,1.26,6,0.65c18.37-3.63,37.04-0.55,55.52-2.45
		c8.68-0.89,17.57-1.1,26.33,0.41c1.46,0.25,2.98,0.23,4.47,0.24c12.31,0.04,24.71-0.85,36.91,0.28c20.41,1.9,40.93,1.66,61.33,4.3
		c10.08,1.31,20.16,3.33,30.42,3.59c3.7,0.09,7.09,2.71,11.04,1.9c-0.21,2.57-2.19,1.9-3.75,2.08c-2.08,0.24-4.34-0.73-6.24,0.87
		c-14.99-0.01-29.98-0.01-44.97-0.02c-0.68-0.88-1.36-0.88-2.04,0c-14.32-0.02-28.63-0.03-42.95-0.05
		c-8.69-1.43-17.39-1.38-26.09-0.05c-0.59,0.02-1.19,0.03-1.78,0.05c-3.28-3.61-7.44-1.23-11.19-1.66
		c-40.66-0.07-81.32-0.14-121.99-0.2c-1.42-1.58-3.32-0.75-5-1c-0.35-0.34-0.71-0.68-1.06-1.02c0.02-0.34,0.04-0.68,0.05-1.01
		c0,0,0.01-0.01,0.01-0.01c1.28,0.03,1.96-0.66,2.22-1.85c1.26-0.04,2.53-0.08,3.79-0.12c0.82-0.02,1.55-0.2,1.94-1.03
		c2.06-0.07,4.17,0.16,6.08-0.94c1.38-0.15,2.91,0.32,3.99-1.01c2.66-0.06,5.31-0.11,7.97-0.17c1.29,0.12,1.97-0.48,2.11-1.75
		L290.92,178.34z"/>
	<path class="st7" d="M293.69,192.18c-0.86,1.49-1.01,3.1-1.04,4.8c-0.38,16.94,1,33.67,3.59,50.46
		c1.73,11.25,4.26,22.39,5.46,33.73c-9.21,0.53-16.96,4.52-24.01,10.14c-1.4-9.34-2.83-18.68-4.2-28.02
		c-2.61-17.74-5.19-35.48-7.79-53.22c-0.72-4.92-1.44-9.84-2.25-14.74c-0.46-2.75,0.69-3.41,3.28-3.36
		C275.7,192.14,284.7,192.12,293.69,192.18z"/>
	<path class="st8" d="M520.72,296.18c-15.75,12.53-34.15,16.33-53.76,17.21c-19.05,0.85-38.11,1.21-57.13,2.14
		c-14.45,0.71-28.87,0.62-43.29,0.55c-7.26-0.04-14.53-1.06-21.83-0.84c-0.64-0.02-1.27-0.04-1.91-0.05
		c-0.88-1.2-1.2-2.54-0.99-4.01c7.97,0,15.93,0.65,23.87,0.85c23.41,0.57,46.8-0.64,70.19-1.68c16.06-0.72,32.17-0.34,48.09-3.13
		c12.09-2.12,23.37-6.16,32.93-14.12c2.32-1.93,4.02-6.26,1.23-6.89c-4.7-1.06-7.87-5.2-13-5.03c-13.45,0.43-26.86-1.59-40.33-0.95
		c-2.16,0.1-4.33,0-6.49-0.11c-18.53-0.9-37.07-1.83-55.6-2.74c-5.33-0.05-10.67-0.1-16-0.14c-8.66-1.55-17.32-1.55-25.99,0
		c-4.01,0.04-8.02,0.09-12.02,0.13c-4.02,0.34-8.04,0.68-12.06,1.02c-0.29-1.03-0.58-2.06-0.87-3.09c0,0-0.01-0.03-0.01-0.03
		c16.83-2.35,33.8-2.79,50.69-1.87c26.03,1.41,52.13,1.24,78.13,3.66c11.55,1.07,23.23,0.61,34.83,1.24
		c8.01,0.44,16.11,1.04,23.26,5.42C522.72,287.99,523.41,292.35,520.72,296.18z"/>
	<path class="st4" d="M380.65,431.54c7.32,10.45,14.64,20.89,21.96,31.34c-3.28-0.05-6.57-0.11-9.85-0.16
		c-2.93-2.49-6-1.87-9.1-0.39c-4.32-0.39-8.64-0.79-12.96-1.18c-1.96-3.17-4.45-2.22-7-0.92c-1.3-0.19-2.6-0.39-3.9-0.58
		c-2.09-3.7-4.23-7.35-6.66-10.89c-3.24-4.73-5.6-10.06-8.51-15.04c-1.58-2.71-0.33-3.82,2.06-4.57c2.65,0.15,5.29,0.3,7.94,0.45
		c1.79,2.72,3.9,1.93,6.06,0.56C367.36,430.62,374.01,431.08,380.65,431.54z"/>
	<path class="st5" d="M346.71,429.16c-2.39,0.75-3.64,1.86-2.06,4.57c2.9,4.98,5.26,10.31,8.51,15.04
		c2.42,3.53,4.56,7.18,6.66,10.89c-9.49-0.08-18.64-2.92-28.01-3.68c-11.19-0.9-17.47-5.63-17.38-17.52
		c0.03-3.4-1.07-6.86-1.96-10.21c-1.03-3.88,0.92-4.47,3.93-3.85c7.49,1.53,15.05,2.46,22.62,3.45
		C341.58,428.18,344.41,427.19,346.71,429.16z"/>
	<path class="st9" d="M414.69,417.02c11.47,1.76,22.61-2.47,34.01-1.86c0.63,0.02,1.26,0.04,1.88,0.06
		c1.07,1.16,2.14,3.06,3.22,0.01c3.57-0.55,7.35,1.12,10.77-1.02c0.03-0.32,0.07-0.63,0.12-0.95c11.38-1.72,22.88-2.72,34-5.93
		c2.54,3.89,0.47,5.97-3.11,6.69c-9.55,1.9-19.1,4.04-28.75,5.09c-26.87,2.9-53.86,3.51-80.88,3.18c-3.85-0.05-7.55-0.86-11.34-1.12
		c-0.35-3.06-2.99-5.04-3.73-7.93c3.1,0.42,6.7-1.33,9.08,2.12c0,1.43-1.12,3.71,1.56,3.49c2.18-0.19,2.04-2,1.09-3.63
		c7.93,0.02,15.92-0.72,23.72,1.14c2.45,0.58,4.37-0.03,6.41-0.95c-0.18,0.68-1.16,1.3-0.18,2.06
		C413.44,418.14,414.02,417.33,414.69,417.02z M481.59,414.1c-0.62-0.34-1-0.71-1.4-0.73c-0.72-0.03-1.3,0.41-1,1.19
		c0.11,0.28,0.83,0.5,1.23,0.46C480.77,414.97,481.08,414.52,481.59,414.1z"/>
	<path class="st10" d="M278.71,298.25c0.02-1.29,0.04-2.58,0.06-3.88c7.33-4.53,14.22-10.16,23.68-9.21
		c2.37,6.86,3.66,13.96,4.87,21.08C297.38,305,287.45,303.75,278.71,298.25z"/>
	<path class="st9" d="M296.57,404.96c2.65-0.29,5.02,1.24,6.72,2.52c6.12,4.63,13,3.69,19.8,3.75c5.61,0.05,11.22,0,16.82-0.01
		c0.25,0.03,0.49,0.08,0.73,0.14c0.47,3.08,3.15,4.99,4.14,7.8c-16.29,0-32.03-3.18-47.42-8.29c-0.76-0.25-1.37-0.92-2.08-1.33
		c-1.16-0.67-2.56-1.32-2.34-2.88C293.26,404.52,295.28,405.39,296.57,404.96z"/>
	<path class="st11" d="M344.79,419.17c-0.99-2.81-3.67-4.72-4.14-7.8c2.72,1.04,5.35,3.31,8.24,2.67
		c7.11-1.57,14.26-0.22,21.35-0.97c0.23,0.01,0.45,0.06,0.66,0.17c0.73,2.88,3.38,4.86,3.73,7.93
		C364.66,420.85,354.58,422.14,344.79,419.17z"/>
	<path class="st8" d="M278.71,298.25c8.74,5.5,18.67,6.75,28.61,8c0.22,0.96,0.44,1.92,0.67,2.87c-1.35,1.53-2.89,0.79-4.54,0.6
		c-8.55-0.97-16.63-3.62-24.67-6.46C278.74,301.59,278.73,299.92,278.71,298.25z"/>
	<path class="st8" d="M302.44,285.16c-9.46-0.95-16.35,4.69-23.68,9.21c-1.18-0.73-1.05-1.93-1.08-3.07
		c7.06-5.62,14.81-9.61,24.01-10.14c0.17,0.22,0.4,0.32,0.67,0.3C302.39,282.7,302.42,283.93,302.44,285.16z"/>
	<path class="st12" d="M519.69,190.19c1.89-1.6,4.15-0.62,6.24-0.87c1.55-0.18,3.54,0.48,3.75-2.08c3.68-1.05,6.59,1.73,10,2
		c-0.3,0.56-0.59,1.59-0.9,1.6C532.39,191.04,525.98,192.3,519.69,190.19z"/>
	<path class="st12" d="M403.65,190.08c8.7-1.33,17.4-1.38,26.09,0.05c-5.71,2.46-11.69,0.68-17.54,0.99
		C409.39,191.26,406.25,192.36,403.65,190.08z"/>
	<path class="st12" d="M357.71,192.9c-6.2,0.64-12.39-0.01-18.59-0.09c-1.2-0.01-2.26-0.31-2.97-1.38
		c6.14-0.07,12.28-0.14,18.41-0.2C355.9,191.23,357.31,191.12,357.71,192.9z"/>
	<path class="st1" d="M493.7,194.38c-4.98,0.65-9.96,1.15-14.86-0.51C483.83,193.09,488.82,192.23,493.7,194.38z"/>
	<path class="st12" d="M390.68,188.47c3.75,0.43,7.91-1.95,11.19,1.66C398.16,189.45,393.94,192.17,390.68,188.47z"/>
	<path class="st5" d="M383.67,462.33c3.1-1.48,6.17-2.1,9.1,0.39C389.72,463.12,386.65,463.72,383.67,462.33z"/>
	<path class="st5" d="M363.72,460.23c2.54-1.3,5.04-2.25,7,0.92C368.33,461.22,365.84,462.11,363.72,460.23z"/>
	<path class="st5" d="M360.71,430.16c-2.16,1.37-4.27,2.16-6.06-0.56C356.7,429.45,358.79,428.88,360.71,430.16z"/>
	<path class="st2" d="M320.69,192.13c-3.68,1.72-7.34,1.93-10.97-0.14C313.37,192.03,317.03,192.08,320.69,192.13z"/>
	<path class="st12" d="M263.69,187.27c1.68,0.25,3.58-0.58,5,1C266.69,189.58,264.81,190.32,263.69,187.27z"/>
	<path class="st1" d="M538.59,209.27c-0.89-1.74,0.35-2.81,1.25-3.99C541.27,207.19,539.74,208.17,538.59,209.27z"/>
	<path class="st1" d="M537.24,215.26c-0.31-0.86-0.1-1.52,0.76-1.92C539.09,214.51,538.34,214.96,537.24,215.26z"/>
	<path class="st1" d="M540.28,202.26c-0.42-1.24,0.41-1.85,1.25-2.45C541.74,200.95,541.59,201.9,540.28,202.26z"/>
	<path class="st12" d="M472.68,190.18c0.68-0.88,1.36-0.88,2.04,0C474.04,191.24,473.36,191.25,472.68,190.18z"/>
	<path class="st12" d="M264.91,183.37c-0.26,1.19-0.94,1.88-2.22,1.85C262.78,183.82,263.52,183.2,264.91,183.37z"/>
	<path class="st1" d="M270.65,182.22c-0.39,0.83-1.12,1.01-1.94,1.03C269.11,182.45,269.83,182.25,270.65,182.22z"/>
	<path class="st12" d="M262.69,185.23c-0.02,0.34-0.04,0.68-0.05,1.01c-0.12-0.25-0.26-0.49-0.32-0.75
		C262.29,185.44,262.55,185.32,262.69,185.23z"/>
	<path class="st0" d="M288.68,180.1c-2.66,0.06-5.31,0.11-7.97,0.17c2.78-3.96,6.34-3.76,10.21-1.93c0,0-0.14,0.01-0.14,0.01
		C289.48,178.22,288.8,178.82,288.68,180.1z"/>
	<path class="st0" d="M303.65,178.97c-2.09,0.61-4-0.45-6-0.65C300.33,175.15,302.2,175.35,303.65,178.97z"/>
	<path class="st13" d="M302.44,285.16c-0.02-1.23-0.05-2.46-0.07-3.7c8.32-2.74,16.99-3.79,25.57-5.24
		c2.59-0.43,5.21-0.63,7.82-0.93c0.29,1.03,0.58,2.06,0.87,3.09c0.43,3.22,0.85,6.44,1.28,9.66c-0.42,0.38-0.85,0.76-1.27,1.14
		c-7.73,1.04-15.15,3.14-22.92,5.96c2.12,1.6,3.83,1.04,5.42,1.13c7,0.39,13.78-1.65,20.73-1.89c-0.78,5.77,1.15,11.22,1.93,16.81
		c-0.22,1.47,0.11,2.81,0.99,4.01c0.15,2.03,0.31,4.06,0.46,6.09c0.11,0.33,0.23,0.66,0.34,1c0.24,1.74-0.18,3.62,1.04,5.16
		c2.01,19.87,6.57,39.05,14.76,57.38c4.11,9.2,7.27,18.82,10.85,28.26c-7.09,0.75-14.24-0.6-21.35,0.97
		c-2.89,0.64-5.52-1.63-8.24-2.67c-0.24-0.06-0.49-0.11-0.73-0.14c-12.62-27.51-24.03-55.41-28.36-85.68
		c-0.79-5.54-2.37-10.96-3.59-16.43c-0.22-0.96-0.44-1.91-0.66-2.87C306.1,299.12,304.81,292.02,302.44,285.16z M350.93,401.06
		c0.67-0.03,1.48-0.1,1.34-0.97c-0.08-0.53-0.62-1.18-1.12-1.39c-0.67-0.29-1.28,0.13-1.29,0.96
		C349.85,400.37,350.13,400.93,350.93,401.06z"/>
	<path class="st9" d="M376.76,397.36c2.17,0.36,3.65,1.46,3.71,3.54c0.07,2.29-1.59,3.82-3.62,4.03c-2.27,0.23-3.77-1.65-3.81-3.69
		C372.99,399.08,374.8,397.9,376.76,397.36z"/>
	<path class="st9" d="M404.58,392.94c-0.16,2.33-1.26,3.78-3.27,4.04c-2.33,0.29-3.84-1.37-4.25-3.33c-0.49-2.36,1.5-3.77,3.43-4.03
		C402.7,389.32,403.81,391.25,404.58,392.94z"/>
	<path class="st9" d="M472.78,384.75c-2.31-0.06-3.65-1.51-3.81-3.58c-0.16-2.05,1.09-3.28,3.37-3.37c2.71-0.11,4.05,1.41,4.1,3.75
		C476.49,383.62,475.05,384.8,472.78,384.75z"/>
	<path class="st6" d="M419.62,375.2c-0.59,0.32-1.2,0.59-1.75,0.95c-2.12,1.41-3.71,0.22-4.41-1.48c-0.85-2.06,1.08-2.83,2.67-3.34
		c0.76-0.24,1.65-0.07,2.48-0.09C418.95,372.56,419.29,373.88,419.62,375.2z"/>
	<path class="st9" d="M374.57,377.47c-0.18,1.72-1.55,2.35-3.11,2.26c-1.29-0.07-2.66-0.6-2.69-2.35c-0.04-2.24,1.57-2.18,3.1-2.17
		C373.27,375.21,374.59,375.39,374.57,377.47z"/>
	<path class="st9" d="M459.96,399.27c1.43,0,2.68,0.28,2.62,2.08c-0.06,1.92-1.54,2.47-3.02,2.41c-1.27-0.06-2.59-0.71-2.64-2.34
		C456.84,399.25,458.47,399.32,459.96,399.27z"/>
	<path class="st12" d="M430.68,362.25c0.16,2.05-0.75,2.98-2.86,2.98c-1.95-0.01-3.08-0.58-3.13-2.76c-0.05-2.27,0.8-3.28,3.15-3.24
		C429.97,359.27,430.82,360.22,430.68,362.25z M427.6,360.33c-1.19,0.06-1.79,0.68-1.81,1.87c-0.03,1.53,0.83,2.07,2.22,1.94
		c1.25-0.12,1.62-0.98,1.57-2.1C429.52,360.8,428.78,360.32,427.6,360.33z"/>
	<path class="st9" d="M436.49,397.05c0.11,1.45-0.67,2.04-2.02,2.08c-1.33,0.04-2.19-0.61-2.41-1.89c-0.26-1.54,0.74-1.98,2.04-1.96
		C435.3,395.3,436.4,395.51,436.49,397.05z"/>
	<path class="st1" d="M450.59,415.22c-0.63-0.02-1.26-0.04-1.88-0.06c0.42-2.36,2.28-1.88,3.83-1.9c4.06-0.04,8.11-0.01,12.17,0
		c-0.05,0.32-0.09,0.63-0.12,0.95c-3.68,0.04-7.36,0.08-11.04,0.12C452.4,414.13,451.33,414.14,450.59,415.22z"/>
	<path class="st10" d="M344.63,327.44c-1.22-1.54-0.8-3.42-1.04-5.16c-0.11-0.33-0.23-0.66-0.34-1c-0.15-2.03-0.31-4.06-0.46-6.09
		c0.64,0.02,1.27,0.04,1.91,0.05C344.68,319.31,344.65,323.38,344.63,327.44z"/>
	<path class="st6" d="M484.61,395.21c-0.03,1.13-0.56,1.85-1.74,1.89c-1.42,0.05-2.09-0.71-1.99-2.1c0.08-1.18,0.84-1.67,1.96-1.64
		C484.02,393.39,484.57,394.07,484.61,395.21z"/>
	<path class="st11" d="M496.01,401.19c0.04,0.97-0.43,1.61-1.37,1.7c-1.22,0.12-1.79-0.63-1.82-1.77c-0.02-0.93,0.49-1.64,1.4-1.73
		C495.4,399.29,496.02,399.98,496.01,401.19z"/>
	<path class="st11" d="M424.64,385.49c-0.37,1.44-0.86,3.02-2.74,2.51c-1.85-0.51-1.51-2.12-1.11-3.55
		C422.27,384.05,423.55,384.39,424.64,385.49z"/>
	<path class="st11" d="M382.63,415.23c0.95,1.62,1.1,3.44-1.09,3.63c-2.68,0.23-1.56-2.06-1.56-3.49
		C380.87,415.32,381.75,415.28,382.63,415.23z"/>
	<path class="st1" d="M387.88,403.1c-1.53-0.87-1.46-2.13-0.51-3.25c0.68-0.8,1.93-0.82,2.64-0.04c1.01,1.1,0.97,2.36-0.37,3.34
		c0.08-0.92,0.5-2.38-0.56-2.5C387.35,400.45,387.84,402.03,387.88,403.1z"/>
	<path class="st11" d="M440.03,365.53c0.78,0.24,1.44,0.71,1.41,1.65c-0.03,0.84-0.74,0.99-1.42,1.01
		c-1.02,0.04-1.54-0.51-1.42-1.51C438.69,365.97,439.21,365.56,440.03,365.53z"/>
	<path class="st6" d="M455.44,363.62c1.03,0.12,1.23,0.85,1.18,1.69c-0.04,0.64-0.19,1.42-1,1.33c-0.88-0.11-1.26-0.94-1.32-1.74
		C454.23,364.21,454.75,363.78,455.44,363.62z"/>
	<path class="st6" d="M359.78,357.24c2.18-0.23,3.13,0.75,2.85,2.92C360.33,360.51,359.49,359.42,359.78,357.24z"/>
	<path class="st6" d="M410.19,404.37c0.9,0.15,1.41,0.62,1.31,1.6c-0.08,0.78-0.67,1.12-1.3,1.1c-0.91-0.03-1.41-0.59-1.3-1.57
		C408.98,404.72,409.54,404.5,410.19,404.37z"/>
	<path class="st11" d="M476.72,401.3c1.92,0.04,2.03,1.32,1.89,2.77C476.24,404.34,475.07,403.79,476.72,401.3z"/>
	<path class="st10" d="M367.17,322.06c0.08,0.94-0.67,1.09-1.27,1.04c-0.55-0.04-1.41-0.34-1.54-0.73c-0.31-0.89,0.59-0.96,1.2-1.05
		C366.21,321.23,366.83,321.36,367.17,322.06z"/>
	<path class="st10" d="M350.3,319.39c0.72,0.12,1.2,0.54,1.23,1.26c0.03,0.72-0.41,1.37-1.14,1.17c-0.52-0.14-1.14-0.76-1.28-1.28
		C348.92,319.82,349.56,319.44,350.3,319.39z"/>
	<path class="st6" d="M446.7,406.19c0.08,1.47,0.12,2.92-1.92,3.06C443.12,406.79,444.32,406.12,446.7,406.19z"/>
	<path class="st1" d="M476.72,401.3c-1.65,2.49-0.48,3.04,1.89,2.77c-1.05,1.67-2.58,1.55-3.46,0.23
		C474.28,403,474.61,401.48,476.72,401.3z"/>
	<path class="st12" d="M446.7,406.19c-2.37-0.07-3.57,0.6-1.92,3.06c-2.05-0.19-2.51-1.65-1.69-3.04
		C443.97,404.73,445.48,404.87,446.7,406.19z"/>
	<path class="st12" d="M359.78,357.24c-0.28,2.18,0.55,3.27,2.85,2.92c-0.96,1.33-2.31,1.46-3.32,0.41
		C358.33,359.55,358.4,358.18,359.78,357.24z"/>
	<path class="st5" d="M387.88,403.1c-0.04-1.06-0.53-2.65,1.2-2.45c1.06,0.12,0.64,1.58,0.56,2.5
		C389.06,403.13,388.47,403.11,387.88,403.1z"/>
	<path class="st6" d="M443.04,381.16c0.49,0.33,1.1,0.52,1.18,0.85c0.22,0.88-0.51,1.12-1.17,1.03c-0.35-0.05-0.87-0.54-0.88-0.84
		C442.17,381.89,442.69,381.56,443.04,381.16z"/>
	<path class="st1" d="M419.62,375.2c-0.34-1.32-0.68-2.64-1.02-3.96C421.38,371.94,421.2,373.39,419.62,375.2z"/>
	<path class="st11" d="M453.48,390.12c-1.74,1.53-2.01,1.44-2.56-0.9C451.77,389.52,452.63,389.82,453.48,390.12z"/>
	<path class="st11" d="M414.69,417.02c-0.67,0.31-1.25,1.12-2.11,0.45c-0.98-0.76,0-1.38,0.18-2.06
		C413.84,415.43,414.32,416.16,414.69,417.02z"/>
	<path class="st1" d="M424.64,385.49c-1.08-1.09-2.37-1.43-3.85-1.04C422.67,382.55,424.09,382.39,424.64,385.49z"/>
	<path class="st6" d="M391.61,362.87c-0.16-0.23-0.3-0.45-0.45-0.67c0.31-0.16,0.63-0.32,0.94-0.49c0.09,0.26,0.3,0.57,0.22,0.77
		C392.24,362.68,391.87,362.74,391.61,362.87z"/>
	<path class="st2" d="M391.82,373.31c-1.17,0.41-1.59,0.63-2.03,0.67c-0.25,0.03-0.76-0.25-0.75-0.35c0.04-0.4,0.23-0.79,0.37-1.19
		C389.81,372.58,390.19,372.72,391.82,373.31z"/>
	<path class="st13" d="M372.64,359.62c-0.4,0.1-0.77,0.25-1.13,0.23c-0.12-0.01-0.35-0.67-0.28-0.73c0.3-0.24,0.69-0.36,1.05-0.53
		C372.38,358.87,372.48,359.15,372.64,359.62z"/>
	<path class="st5" d="M453.48,390.12c-0.85-0.3-1.71-0.6-2.56-0.9C452.79,387.74,453.06,387.83,453.48,390.12z"/>
	<path class="st13" d="M496.51,380.12c-0.19,0.18-0.39,0.35-0.58,0.52c-0.27-0.34-0.53-0.69-0.8-1.03c0.3-0.08,0.64-0.27,0.9-0.19
		C496.24,379.48,496.35,379.87,496.51,380.12z"/>
	<path class="st13" d="M475.03,367.75c-0.11,0.1-0.25,0.3-0.33,0.28c-0.25-0.06-0.49-0.2-0.73-0.31c0.25-0.1,0.49-0.22,0.75-0.27
		C474.81,367.43,474.93,367.64,475.03,367.75z"/>
	<path class="st6" d="M303.75,369.41c2.27,0.33,2.68,1.98,2.89,3.62c0.18,1.4-0.65,2.28-2.07,2.09c-1.78-0.24-3.17-1.46-3.34-3.12
		C301.1,370.63,302.62,369.93,303.75,369.41z"/>
	<path class="st10" d="M308.74,357.23c3.33,0.95,0.8,2.07-0.03,2.81c-1.87,1.66-2.74-0.48-3.38-1.41c-1.56-2.28,0.34-3.99,1.98-4.67
		c1.75-0.72,1.13,1.33,1.38,2.27c-0.89,0.03-1.91-0.3-2.49,0.71c-0.11,0.18,0.01,0.67,0.19,0.81
		C307.35,358.5,308.09,358.03,308.74,357.23z"/>
	<path class="st12" d="M322.68,400.15c-0.12,0.9-0.35,2.76-0.81,2.37c-1.57-1.33-4.56-0.49-5.03-3.14c-0.24-1.35-0.7-3.28,1.15-3.81
		c1.72-0.49,4.02-1.35,4.7,1.66c-1.43-0.73-2.91-1.62-4.42-0.34c-0.34,0.28-0.42,1.25-0.21,1.72c0.81,1.85,2.52,1.66,4.14,1.57
		C322.36,400.17,322.52,400.16,322.68,400.15z"/>
	<path class="st6" d="M322.68,400.15c-0.16,0.01-0.32,0.02-0.48,0.03c-1.62,0.09-3.33,0.28-4.14-1.57
		c-0.21-0.47-0.12-1.44,0.21-1.72c1.51-1.28,2.99-0.39,4.42,0.34C322.69,398.2,322.68,399.17,322.68,400.15z"/>
	<path class="st12" d="M304.54,398.06c-0.83,1.58-2.2,1.49-3.18,0.52c-1-0.98-1.01-2.34,0.41-3.28
		C301.61,397.31,302.52,398.24,304.54,398.06z"/>
	<path class="st11" d="M304.54,398.06c-2.02,0.18-2.93-0.75-2.78-2.76C304.13,394.77,305.08,395.66,304.54,398.06z"/>
	<path class="st6" d="M308.74,357.23c-0.65,0.8-1.39,1.26-2.35,0.52c-0.18-0.14-0.29-0.63-0.19-0.81c0.58-1,1.6-0.67,2.49-0.71
		C308.7,356.57,308.71,356.9,308.74,357.23z"/>
	<path class="st13" d="M317.94,388.19c-0.36-0.56-0.91-1.08-0.81-1.35c0.18-0.49,0.76-0.84,1.17-1.25c0.27,0.37,0.76,0.76,0.74,1.12
		C319.02,387.09,318.52,387.45,317.94,388.19z"/>
	<path class="st1" d="M288.68,180.1c0.12-1.28,0.81-1.88,2.11-1.75C290.65,179.62,289.96,180.22,288.68,180.1z"/>
	<path class="st10" d="M341.8,311.19c-0.79-5.59-2.71-11.04-1.93-16.81c0.29,0,0.55-0.07,0.79-0.23
		c23.65-0.69,47.31-1.37,70.96-2.06c15.06,0,30.11,0,45.17-0.01c2.28,0.13,4.57,0.26,6.85,0.39c-0.03,0.17-0.04,0.34-0.02,0.5
		c-4.81,1.28-9.98,0.93-14.59,2.97c-2.85,1.27-7.86,1.84-7.03,5.58c0.8,3.61,5.59,3.49,9.08,3.06c4.6-0.56,9.17-1.47,13.74-2.28
		c7.34-1.3,14.69-2.58,22.02-3.99c3.06-0.59,5.83-1.79,6.11-5.51c0.26-3.5-2.08-4.97-4.94-5.96c-0.47-0.16-0.91-0.4-1.37-0.6
		c-0.84-1.21-2.02-1.03-3.22-0.8c-10.13-2.05-20.36-2.38-30.67-2.53c-28.05-0.41-56.05,1.05-84.05,2.24c0-0.65,0-1.29,0-1.94l0,0
		c4.15-0.46,8.59,1.26,12.42-1.78c0.49-0.39,1.87-0.35,2.36,0.06c3.66,3.04,7.96,1.17,11.93,1.74c4.57,0.65,6.55-1.8,7.28-5.87
		c18.53,0.92,37.07,1.84,55.6,2.74c2.16,0.11,4.33,0.21,6.49,0.11c13.47-0.63,26.88,1.38,40.33,0.95c5.14-0.16,8.3,3.97,13,5.03
		c2.78,0.63,1.08,4.96-1.23,6.89c-9.56,7.96-20.84,12.01-32.93,14.12c-15.92,2.79-32.03,2.42-48.09,3.13
		c-23.39,1.04-46.78,2.25-70.19,1.68C357.73,311.84,349.77,311.19,341.8,311.19z M425.79,303.25c-1.81-1.31-3.23-1.83-4.93-2.11
		c-7.23-1.21-14.52-0.64-21.77-0.84c-1.29-0.03-2.95-0.29-3.2,1.48c-0.27,2,1.46,2.26,2.93,2.6c5.5,1.27,11.11,1.98,16.69,1.51
		C418.78,305.62,422.47,306.02,425.79,303.25z"/>
	<path class="st3" d="M402.7,277.38c-0.73,4.06-2.71,6.52-7.28,5.87c-3.97-0.56-8.27,1.3-11.93-1.74c-0.49-0.41-1.87-0.45-2.36-0.06
		c-3.83,3.04-8.27,1.32-12.42,1.78c-1.41-3.46-3.39-1.71-6.68-1.33c3.05,1.77,4.91,1.15,6.68,1.33c0,0.65,0,1.29,0,1.94
		c-0.6,0.04-1.19,0.09-1.79,0.13c-3.96-0.43-7.87,0.29-11.88-1.74c-4.25-2.16-7.75-0.12-8.33,3.48c-0.94,0.09-1.87,0.19-2.81,0.28
		c-4.83-0.43-2.03-6.19-5.61-7.69c2.02-0.4,3.8-0.26,5.55-0.44c1.74-0.18,4.12,1.1,4.86-1.82c4.01-0.04,8.02-0.09,12.02-0.13
		c8.66,0,17.32,0,25.99,0C392.03,277.28,397.37,277.33,402.7,277.38z"/>
	<path class="st10" d="M348.69,277.37c-0.74,2.92-3.12,1.64-4.86,1.82c-1.75,0.18-3.53,0.04-5.55,0.44c3.58,1.5,0.79,7.26,5.61,7.68
		c-1.88,1.19-3.93,0.97-5.98,0.73c-0.43-3.22-0.85-6.44-1.28-9.66C340.65,278.05,344.67,277.71,348.69,277.37z"/>
	<path class="st10" d="M386.7,277.23c-8.66,0-17.32,0-25.99,0C369.37,275.69,378.04,275.68,386.7,277.23z"/>
	<path class="st6" d="M453.53,414.34c3.68-0.04,7.36-0.08,11.04-0.12c-3.42,2.14-7.2,0.46-10.77,1.02
		C453.71,414.93,453.62,414.64,453.53,414.34z"/>
	<path class="st11" d="M453.53,414.34c0.09,0.3,0.18,0.6,0.27,0.89c-1.08,3.05-2.15,1.15-3.22-0.01
		C451.33,414.14,452.4,414.13,453.53,414.34z"/>
	<path class="st11" d="M481.59,414.1c-0.51,0.42-0.81,0.88-1.17,0.92c-0.41,0.05-1.13-0.17-1.23-0.46c-0.29-0.78,0.28-1.22,1-1.19
		C480.58,413.39,480.97,413.76,481.59,414.1z"/>
	<path class="st14" d="M337.91,288.05c2.05,0.24,4.1,0.45,5.98-0.73c0.94-0.09,1.87-0.19,2.81-0.28c6.76-0.35,13.53-0.55,20.21-1.73
		c0.6-0.04,1.19-0.09,1.79-0.13c28-1.19,56-2.65,84.05-2.24c10.31,0.15,20.55,0.48,30.67,2.53c0.91,0.9,2.06,0.86,3.22,0.8
		c0.46,0.2,0.9,0.44,1.37,0.6c2.85,0.99,5.2,2.45,4.94,5.96c-0.28,3.72-3.04,4.92-6.11,5.51c-7.32,1.4-14.67,2.69-22.02,3.99
		c-4.57,0.81-9.14,1.72-13.74,2.28c-3.49,0.43-8.28,0.55-9.08-3.06c-0.82-3.73,4.18-4.31,7.03-5.58c4.61-2.05,9.78-1.69,14.59-2.97
		c1.27,0,2.53,0,3.8,0c0-0.17-0.01-0.34-0.01-0.51c-1.26,0-2.51,0-3.77,0c-2.28-0.13-4.57-0.26-6.85-0.38
		c-11.41-1.68-22.88-0.48-34.32-0.71c-3.6-0.07-7.32-0.73-10.85,0.72c-23.65,0.69-47.31,1.37-70.96,2.06
		c-2.48-0.74-1.04-4.64-4.02-4.97C337.06,288.81,337.49,288.43,337.91,288.05z"/>
	<path class="st4" d="M336.64,289.19c2.98,0.33,1.54,4.23,4.02,4.97c-0.24,0.15-0.51,0.23-0.79,0.23
		c-6.95,0.24-13.73,2.28-20.73,1.89c-1.59-0.09-3.3,0.48-5.42-1.13C321.49,292.33,328.92,290.23,336.64,289.19z"/>
	<path class="st14" d="M350.93,401.06c-0.8-0.13-1.08-0.69-1.07-1.4c0.02-0.83,0.63-1.25,1.29-0.96c0.5,0.21,1.04,0.87,1.12,1.39
		C352.41,400.96,351.61,401.04,350.93,401.06z"/>
	<path class="st6" d="M343.25,321.28c0.11,0.33,0.23,0.67,0.34,1C343.48,321.95,343.36,321.62,343.25,321.28z"/>
	<path class="st6" d="M427.61,360.33c1.17-0.01,1.91,0.47,1.97,1.72c0.05,1.12-0.32,1.98-1.57,2.1c-1.39,0.13-2.25-0.41-2.22-1.94
		C425.81,361.01,426.42,360.38,427.61,360.33z M427.77,361.57c-0.25,0.15-0.63,0.25-0.69,0.44c-0.06,0.22,0.17,0.52,0.27,0.78
		c0.31-0.2,0.63-0.4,0.94-0.6C428.13,361.99,427.95,361.79,427.77,361.57z"/>
	<path class="st14" d="M425.79,303.25c-3.32,2.78-7,2.37-10.29,2.65c-5.58,0.47-11.19-0.24-16.69-1.51
		c-1.47-0.34-3.21-0.59-2.93-2.6c0.24-1.77,1.9-1.52,3.2-1.48c7.26,0.19,14.54-0.37,21.77,0.84
		C422.55,301.42,423.97,301.94,425.79,303.25z"/>
	<path class="st6" d="M411.63,292.1c3.53-1.45,7.24-0.79,10.85-0.72c11.44,0.24,22.91-0.97,34.32,0.71
		C441.74,292.1,426.68,292.1,411.63,292.1z"/>
	<path class="st6" d="M463.65,292.48c1.26,0,2.51,0,3.77,0c0,0.17,0.01,0.34,0.01,0.51c-1.27,0-2.53,0-3.8,0
		C463.61,292.81,463.62,292.65,463.65,292.48z"/>
	<path class="st6" d="M486.64,286.27c-1.15,0.05-2.3,0.1-3.22-0.8C484.62,285.24,485.8,285.06,486.64,286.27z"/>
	<path class="st10" d="M366.91,285.3c-6.69,1.18-13.45,1.38-20.21,1.73c0.58-3.6,4.08-5.64,8.33-3.48
		C359.04,285.59,362.95,284.88,366.91,285.3z"/>
	<path class="st10" d="M368.7,283.23c-1.77-0.18-3.63,0.44-6.68-1.33C365.31,281.52,367.29,279.78,368.7,283.23L368.7,283.23z"/>
	<path class="st9" d="M427.77,361.57c0.18,0.22,0.36,0.43,0.53,0.63c-0.31,0.2-0.63,0.4-0.94,0.6c-0.1-0.27-0.34-0.57-0.27-0.78
		C427.14,361.82,427.52,361.72,427.77,361.57z"/>
</g>
</svg>
