<?xml version="1.0" encoding="utf-8"?>
<!-- Generator: Adobe Illustrator 26.1.0, SVG Export Plug-In . SVG Version: 6.00 Build 0)  -->
<svg version="1.1" id="Layer_1" xmlns="http://www.w3.org/2000/svg" xmlns:xlink="http://www.w3.org/1999/xlink" x="0px" y="0px"
	 viewBox="0 0 279.53 1080" style="enable-background:new 0 0 279.53 1080;" xml:space="preserve">
<style type="text/css">
	.st0{fill:#A1D0F2;}
	.st1{fill:#980123;}
	.st2{fill:#83B4DF;}
	.st3{fill:#6F0023;}
</style>
<g>
	<path class="st0" d="M201.73,116.75c0,14-0.51,28.02,0.11,41.99c1.33,29.97-0.01,59.97,1.13,89.91c0.64,16.82-0.13,33.65,0.9,50.42
		c1.36,22.31,0.03,44.63,0.96,66.91c1.04,24.97,0.08,49.97,1.11,74.9c0.94,22.65-0.13,45.31,1,67.91
		c0.74,14.82,1.17,29.64,0.54,44.41c-1.37,32.1-1.42,64.22-2.15,96.32c-0.4,17.43-0.65,34.94-1.98,52.3
		c-1.54,20.12-2.01,40.21-1.58,60.31c0.28,13.08,1.88,26.14,3.05,39.19c0.17,1.93,0.85,4.03,1.93,5.62
		c9.03,13.38,16.55,27.56,29.86,38.06c15.3,12.07,23.07,29.37,27.17,48.54c3.25,15.19,3.34,30.26,2.06,45.56
		c-0.5,5.96-0.33,12-0.15,17.99c0.69,23.06-5.5,44.15-17.49,63.75c-10.23,16.72-24.73,28.85-41.44,38.43
		c-9.15,5.24-18.22,10.67-28.15,14.61c-12.29,4.88-24.85,5.71-37.68,4.82c-9.95-0.69-19.9-2.55-29.09-6.16
		c-12.18-4.79-23.77-11-34.1-19.38c-13.99-11.35-26.75-23.7-37.19-38.55c-6.29-8.95-8.89-19.01-11.72-29.14
		c-4.08-14.6-6.24-29.35-6.54-44.65c-0.22-11.46,0.89-22.32,3.55-33.37c1.77-7.35,2.1-14.92,5.51-22.01
		c5.45-11.35,13.37-20.94,20.51-31.12c7.09-10.1,15.43-19.13,24.25-27.64c4.51-4.35,5.28-9.59,5.45-14.93
		c1.06-33.76,3.43-67.52,1.94-101.3c-1.19-27.15-0.63-54.28-0.6-81.41c0.02-15.76,3.55-31.36,2.79-47.21
		c-1.82-37.62-0.12-75.28-1.27-112.89c-0.48-15.76-0.13-31.57-1.67-47.32c-2.23-22.92,2.14-45.76,1.01-68.7
		c-0.78-15.63,1.21-31.28,0.8-46.89c-0.64-24.27-0.99-48.58-2.34-72.79c-0.6-10.68,1.15-21.04,0.64-31.59
		c-0.6-12.6-0.95-25.22-1.56-37.82c-0.39-8,0.24-16.23,0.31-24.36c0.17-18.16,0.2-36.33,0.16-54.5c-0.04-15.31,2.59-30.43,3.06-45.7
		c0.02-0.65,0.1-1.41,0.45-1.91c9.32-13.4,19.79-26.11,36.24-30.22c19.39-4.84,38.23-3.25,56.09,7.89
		c13.31,8.3,17.08,21.37,21.04,34.61c3.06,10.23,3.22,20.95,3.05,31.63c-0.18,11.83-0.04,23.67-0.04,35.5
		C201.68,116.75,201.71,116.75,201.73,116.75z M118.79,657c-10.63,3.61-10.64,3.77-10.99,15.15c-0.6,19.14-0.15,38.28-1.08,57.44
		c-1.08,22.27-1.86,44.61-1,66.92c0.52,13.58-5.64,23.78-15.68,31.68c-18.75,14.76-30.57,33.97-37.28,56.46
		c-8.79,29.46-8.65,59.04-0.19,88.61c8.56,29.88,24.13,55.13,49.83,73.11c24.06,16.83,50.61,22.02,78.7,12.08
		c25.96-9.18,43.8-27.91,55.43-52.41c17.03-35.87,18.87-73.06,7.7-110.95c-5.76-19.53-14.47-37.5-29.77-51.58
		c-11.18-10.29-21.11-21.71-29.63-34.22c-6.55-9.62-11.03-19.79-10.79-32.36c0.36-18.58-0.61-37.22-0.76-55.85
		c-0.13-16.64-0.33-33.28-2.15-49.88c-1.34-12.24-1.38-13.06-10.69-16.13c4.94,0.82,6.61-0.97,6.39-6.2
		c-0.74-17.94-0.35-35.91-0.86-53.87c-1.3-44.93,0.42-89.9-1.08-134.86c-1.33-39.93,0.25-79.89-0.96-119.86
		c-1.4-46.43,0.76-92.91-1.11-139.36c-0.56-13.97,0.06-27.99-0.13-41.99c-0.5-35.45,1.35-70.93-1.02-106.35
		c-1.03-15.28-13.31-25.75-28.29-21.58c-10.99,3.07-17.47,11.83-17.64,25.63c-0.68,55.78,0.42,111.56-0.81,167.36
		c-1.46,65.93,0.1,131.89-0.96,197.85c-1.23,76.43,0.4,152.9-1.34,229.33C112.51,656.08,113.97,657.97,118.79,657z"/>
	<path class="st1" d="M160.43,655.08c9.31,3.07,9.34,3.88,10.69,16.13c1.82,16.6,2.02,33.24,2.15,49.88
		c0.15,18.63,1.12,37.27,0.76,55.85c-0.24,12.57,4.24,22.74,10.79,32.36c8.52,12.51,18.46,23.93,29.63,34.22
		c15.3,14.08,24.01,32.04,29.77,51.58c11.17,37.89,9.33,75.08-7.7,110.95c-11.63,24.5-29.47,43.23-55.43,52.41
		c-28.1,9.93-54.64,4.75-78.7-12.08c-25.7-17.98-41.28-43.22-49.83-73.11c-8.47-29.57-8.6-59.16,0.19-88.61
		c6.71-22.5,18.53-41.7,37.28-56.46c10.04-7.9,16.2-18.1,15.68-31.68c-0.85-22.31-0.08-44.65,1-66.92
		c0.93-19.16,0.48-38.3,1.08-57.44c0.36-11.38,0.37-11.54,10.99-15.15C132.73,657.71,146.56,655.95,160.43,655.08z M150.47,1046.88
		c9.63,1.15,18.69-0.11,26.71-5.98c9.64-7.05,21.06-11.88,28.35-21.85c6.39-8.73,11.31-18.44,14.95-28.55
		c2.5-6.95,5.23-13.86,7.46-20.95c2.37-7.54,4.18-15.16,4.57-22.9c0.33-6.6-0.24-13.27-1.26-20.02c-1.45-9.62-1.24-19.43-4.36-28.95
		c-1.77-5.38-3.48-10.6-7.34-14.77c-3.28-3.54-11.62-2.64-14.39,1.28c-3.68,5.21-3.91,11.66-4.08,17.3
		c-0.33,10.74-1.39,21.36-2.42,32.01c-0.08,0.81-0.36,1.6-0.56,2.39c-1.8,6.85-3.54,13.71-5.41,20.54
		c-1.54,5.62-2.41,11.38-5.03,16.75c-3.5,7.18-8.49,13.44-13.72,19.04c-6.09,6.52-10.13,15.16-20.43,18.04
		c-8.19,2.29-16.09,2.64-24.27,2.7c-1.04,0.01-1.82-0.48-2.66-1.12c-5.23-3.96-10.53-7.82-15.8-11.72
		c-3.07-2.27-6.39-1.38-8.38,1.81c-3.58,5.73-0.23,10.91,2,15.36c5.21,10.4,15.19,16.9,22.93,25.25c1.18,1.27,3.05,1.81,4.68,2.59
		C138.04,1048.01,144.34,1046.58,150.47,1046.88z"/>
	<path class="st2" d="M160.43,655.08c-13.87,0.87-27.7,2.63-41.65,1.93c-4.82,0.96-6.28-0.93-6.17-5.84
		c1.74-76.44,0.11-152.9,1.34-229.33c1.06-65.96-0.51-131.92,0.96-197.85c1.24-55.79,0.13-111.58,0.81-167.36
		c0.17-13.79,6.65-22.56,17.64-25.63c14.97-4.18,27.26,6.29,28.29,21.58c2.38,35.42,0.53,70.9,1.02,106.35
		c0.2,13.99-0.43,28.01,0.13,41.99c1.87,46.45-0.29,92.93,1.11,139.36c1.21,39.97-0.37,79.93,0.96,119.86
		c1.49,44.96-0.22,89.93,1.08,134.86c0.52,17.97,0.13,35.93,0.86,53.87C167.04,654.11,165.38,655.89,160.43,655.08z"/>
	<path class="st3" d="M150.47,1046.88c-6.14-0.3-12.43,1.13-18.46-1.74c-1.63-0.78-3.51-1.32-4.68-2.59
		c-7.75-8.35-17.73-14.86-22.93-25.25c-2.23-4.45-5.58-9.63-2-15.36c1.99-3.19,5.31-4.08,8.38-1.81c5.27,3.9,10.57,7.76,15.8,11.72
		c0.84,0.64,1.62,1.13,2.66,1.12c8.18-0.07,16.08-0.41,24.27-2.7c10.3-2.88,14.34-11.52,20.43-18.04
		c5.23-5.6,10.21-11.86,13.72-19.04c2.62-5.37,3.49-11.13,5.03-16.75c1.87-6.83,3.62-13.69,5.41-20.54
		c0.21-0.79,0.49-1.58,0.56-2.39c1.03-10.65,2.09-21.27,2.42-32.01c0.17-5.63,0.4-12.09,4.08-17.3c2.77-3.92,11.11-4.83,14.39-1.28
		c3.86,4.17,5.57,9.38,7.34,14.77c3.13,9.52,2.91,19.33,4.36,28.95c1.02,6.75,1.59,13.41,1.26,20.02c-0.39,7.74-2.2,15.35-4.57,22.9
		c-2.23,7.09-4.96,14-7.46,20.95c-3.64,10.11-8.56,19.82-14.95,28.55c-7.29,9.97-18.71,14.8-28.35,21.85
		C169.16,1046.77,160.1,1048.03,150.47,1046.88z"/>
</g>
</svg>
