<?xml version="1.0" encoding="utf-8"?>
<!-- Generator: Adobe Illustrator 26.1.0, SVG Export Plug-In . SVG Version: 6.00 Build 0)  -->
<svg version="1.1" id="Layer_1" xmlns="http://www.w3.org/2000/svg" xmlns:xlink="http://www.w3.org/1999/xlink" x="0px" y="0px"
	 viewBox="0 0 276.71 1084.82" style="enable-background:new 0 0 276.71 1084.82;" xml:space="preserve">
<style type="text/css">
	.st0{fill:#A1D0F2;}
	.st1{fill:#980223;}
	.st2{fill:#83B4DF;}
	.st3{fill:#AB86AB;}
	.st4{fill:#6F0023;}
</style>
<g>
	<path class="st0" d="M193.28,116.56c0,15.17-0.59,30.36,0.13,45.49c1.35,28.81-0.12,57.64,1.08,86.41
		c0.7,16.82-0.09,33.65,0.9,50.42c1.44,24.31-0.11,48.64,1.05,72.91c1.11,23.15-0.15,46.31,1,69.41
		c1.11,22.32-0.09,44.64,1.02,66.91c0.71,14.32,1.14,28.63,0.59,42.91c-1.27,32.77-1.54,65.54-2.19,98.32
		c-0.35,17.59-0.67,35.27-1.98,52.8c-1.45,19.29-1.72,38.53-1.68,57.82c0.03,13.79,2.09,27.46,3.13,41.19
		c0.15,1.93,0.81,4.04,1.88,5.63c9.03,13.38,16.5,27.59,29.8,38.11c15.57,12.31,23.37,29.9,27.44,49.47
		c3.14,15.07,3.08,29.95,1.91,45.07c-0.45,5.8-0.31,11.67-0.13,17.49c0.71,23.05-5.43,44.16-17.39,63.78
		c-10.3,16.9-24.95,29.1-41.82,38.73c-9.01,5.14-17.93,10.46-27.7,14.37c-12.29,4.92-24.84,5.8-37.66,4.92
		c-10.11-0.69-20.24-2.52-29.57-6.28c-12.29-4.96-24.12-11.11-34.46-19.74c-11.36-9.49-22.15-19.44-31.46-31.09
		c-8.7-10.89-13.63-23.11-16.97-36.41c-3.7-14.71-6.08-29.39-6.37-44.69c-0.2-11.12,0.75-21.67,3.41-32.38
		c1.9-7.66,2.13-15.58,5.77-22.97c5.48-11.14,13.23-20.64,20.27-30.68c7.08-10.11,15.41-19.14,24.25-27.64
		c4.49-4.32,5.42-9.52,5.57-14.88c0.95-32.93,3.39-65.85,1.97-98.8c-1.21-27.98-0.69-55.94-0.65-83.91
		c0.02-15.6,3.55-31.03,2.81-46.71c-1.79-37.95-0.44-75.94-1.13-113.9c-0.29-15.78-0.96-31.55-1.91-47.31
		c-1.52-25.44,2.36-50.77,1.1-76.2c-0.58-11.64,0.98-23.28,0.81-34.9c-0.37-25.61-1.09-51.24-2.34-76.8
		c-0.62-12.81,1.51-25.36,0.64-38.09c-0.72-10.59-1.66-21.26-1.61-31.8c0.04-9.93,0.2-19.92,0.37-29.88
		c0.29-17.83-0.26-35.68,0.27-53.49c0.4-13.75,1.81-27.48,2.99-41.2c0.33-3.87,3.81-6.1,5.93-9.01
		c6.98-9.58,16.09-16.67,26.68-21.81c4.68-2.27,9.94-2.45,15.04-3.06c17.78-2.15,34.06,2.11,48.73,12.13
		c6.79,4.64,10.13,12.03,13.21,19.46c5.1,12.32,7.18,25.16,7.18,38.41c-0.01,13.83,0,27.67,0,41.5
		C193.21,116.56,193.24,116.56,193.28,116.56z M161.42,530.95l-0.2-0.03c-2.11-1.06-4.09-1.61-4.12-5.05
		c-0.19-22.28,0.15-44.56-0.63-66.86c-1.37-39.41,0.11-78.87-1-118.32c-1.37-48.41,0.26-96.87-1.05-145.31
		c-0.91-33.79-0.08-67.63-0.25-101.45c-0.07-13.79,0.7-27.58-0.86-41.37c-1.84-16.29-14.67-26.17-29.36-21.35
		c-10.74,3.53-16.5,11.59-16.68,25.39c-0.71,56.26,0.89,112.54-0.91,168.81c-0.74,23.3,0.07,46.64-0.18,69.96
		c-0.45,41.94,0.51,83.87-0.71,125.83c-1.05,35.95-0.14,71.96-0.1,107.94c-0.99,2.66-5.14,2.95-5.02,6.27
		c0.36,10.21-1.34,20.54,1.76,30.6c0.25,4.66,0.5,9.31,0.75,13.97c0.4,7.48,2,15.13,0.98,22.4c-3.2,22.76-2.31,45.72-4.29,68.54
		c-1.68,19.38-0.37,38.93-1.3,58.43c-1.08,22.77-1.78,45.61-1.05,68.43c0.4,12.61-5.51,22.25-14.74,29.58
		c-15.67,12.45-27.05,27.85-34.35,46.3c-10.62,26.84-12.91,54.61-7.89,82.9c6.16,34.73,21.15,64.75,49.54,86.72
		c24.78,19.18,52.57,25.67,82.67,15.23c26.03-9.02,43.9-27.8,55.55-52.29c17.13-36.02,19-73.37,7.66-111.43
		c-5.72-19.19-14.19-36.91-29.21-50.78c-11.04-10.19-21-21.4-29.37-33.79c-4.92-7.3-10.46-14.66-11.09-24.12
		c-1.58-23.69,0.22-47.24,2.8-70.77c2.62-23.9,3.42-47.9,1.34-71.83c-1.05-12.04-2.96-23.79-1.45-36.08
		c1.52-12.33,0.75-24.94,1.03-37.43c0.21-9.64-0.17-19.33,1.99-28.84c1-4.38-0.69-7.44-4.64-9.38
		C165.33,530.37,163.3,531.16,161.42,530.95z"/>
	<path class="st1" d="M167.05,531.76c3.94,1.94,5.64,5,4.64,9.38c-2.17,9.51-1.78,19.2-1.99,28.84c-0.28,12.49,0.49,25.1-1.03,37.43
		c-1.51,12.29,0.4,24.03,1.45,36.08c2.08,23.93,1.28,47.93-1.34,71.83c-2.58,23.53-4.38,47.08-2.8,70.77
		c0.63,9.46,6.17,16.83,11.09,24.12c8.37,12.4,18.33,23.61,29.37,33.79c15.02,13.87,23.5,31.59,29.21,50.78
		c11.34,38.06,9.47,75.41-7.66,111.43c-11.65,24.49-29.52,43.27-55.55,52.29c-30.1,10.44-57.89,3.94-82.67-15.23
		c-28.39-21.97-43.37-51.99-49.54-86.72c-5.02-28.29-2.73-56.06,7.89-82.9c7.3-18.45,18.67-33.85,34.35-46.3
		c9.22-7.33,15.14-16.97,14.74-29.58c-0.73-22.82-0.03-45.65,1.05-68.43c0.93-19.49-0.38-39.04,1.3-58.43
		c1.98-22.82,1.09-45.78,4.29-68.54c1.02-7.28-0.58-14.93-0.98-22.4c-0.25-4.66-0.5-9.31-0.75-13.97c0.41-8.43-0.1-16.85-0.46-25.27
		c-0.31-7.43,0.66-8.27,7.94-8.36c2.89-0.04,6.01,0.76,8.6-1.36c1.47-0.2,3.02-0.18,4.41-0.64c8.35-2.81,16.75-3.63,25.43-1.56
		c4.32,1.03,8.78,1.43,13.18,2.12c0,0,0.2,0.03,0.2,0.03C163.19,531.94,165.1,531.96,167.05,531.76z M142.5,1046.95
		c9,0.57,17.4-0.13,25.33-5.68c9.91-6.93,21.2-12.05,28.84-21.87c6.76-8.7,11.55-18.67,15.32-28.89c2.55-6.92,5.25-13.85,7.47-20.94
		c2.37-7.55,3.64-15.18,4.74-22.89c1.28-8.93-1.45-17.61-1.96-26.44c-0.27-4.56,0.25-9.03-1.56-13.66
		c-1.03-2.64-2.04-5.75-2.45-8.82c-0.76-5.7-3.3-10.65-7.14-14.83c-3.26-3.55-11.73-2.73-14.36,1.27
		c-3.65,5.53-4.22,12.25-4.15,18.26c0.11,10.65-0.87,21.21-2.73,31.46c-1.71,9.42-4.99,18.75-7.08,28.13
		c-2.38,10.69-8.28,18.57-14.63,26.71c-2.86,3.66-5.94,7.04-9.03,10.47c-3.83,4.24-6.93,8.36-13.16,10.56
		c-8.11,2.86-15.98,3.2-24.17,3.2c-1.33,0-2.49-0.21-3.68-1.12c-5.19-4-10.52-7.83-15.79-11.73c-3.09-2.29-6.38-1.41-8.39,1.78
		c-3.62,5.74-0.23,10.93,1.99,15.36c5.21,10.39,15.17,16.91,22.93,25.26c1.18,1.27,3.05,1.82,4.68,2.59
		C129.72,1048.08,136.19,1046.53,142.5,1046.95z"/>
	<path class="st2" d="M161.22,530.92c-4.4-0.69-8.87-1.09-13.18-2.12c-8.69-2.07-17.08-1.25-25.43,1.56
		c-1.38,0.47-2.93,0.44-4.41,0.64c-4.36-0.04-8.76,0.22-12.82-1.86c-0.04-35.98-0.95-71.99,0.1-107.94
		c1.23-41.95,0.26-83.89,0.71-125.83c0.25-23.32-0.56-46.66,0.18-69.96c1.8-56.27,0.19-112.54,0.91-168.81
		c0.17-13.8,5.94-21.87,16.68-25.39c14.69-4.82,27.52,5.06,29.36,21.35c1.56,13.79,0.79,27.58,0.86,41.37
		c0.17,33.82-0.67,67.65,0.25,101.45c1.31,48.45-0.32,96.9,1.05,145.31c1.11,39.46-0.37,78.91,1,118.32
		c0.77,22.3,0.44,44.58,0.63,66.86C157.13,529.31,159.11,529.86,161.22,530.92z"/>
	<path class="st3" d="M105.38,529.14c4.06,2.09,8.46,1.82,12.82,1.86c-2.59,2.13-5.71,1.33-8.6,1.36c-7.28,0.1-8.25,0.93-7.94,8.36
		c0.35,8.42,0.86,16.84,0.46,25.27c-3.1-10.05-1.4-20.39-1.76-30.6C100.24,532.09,104.39,531.8,105.38,529.14z"/>
	<path class="st2" d="M167.05,531.76c-1.94,0.21-3.86,0.19-5.63-0.81C163.3,531.16,165.33,530.37,167.05,531.76z"/>
	<path class="st4" d="M142.5,1046.95c-6.31-0.42-12.78,1.12-18.98-1.82c-1.64-0.78-3.5-1.32-4.68-2.59
		c-7.76-8.35-17.72-14.87-22.93-25.26c-2.22-4.44-5.61-9.62-1.99-15.36c2.01-3.19,5.3-4.07,8.39-1.78
		c5.27,3.9,10.59,7.73,15.79,11.73c1.19,0.92,2.34,1.12,3.68,1.12c8.19,0,16.06-0.34,24.17-3.2c6.24-2.2,9.34-6.32,13.16-10.56
		c3.09-3.43,6.17-6.81,9.03-10.47c6.35-8.14,12.25-16.02,14.63-26.71c2.09-9.37,5.37-18.71,7.08-28.13
		c1.86-10.26,2.83-20.82,2.73-31.46c-0.06-6.01,0.51-12.73,4.15-18.26c2.63-4,11.1-4.82,14.36-1.27c3.84,4.18,6.37,9.13,7.14,14.83
		c0.41,3.06,1.42,6.18,2.45,8.82c1.81,4.63,1.29,9.1,1.56,13.66c0.51,8.83,3.24,17.51,1.96,26.44c-1.1,7.72-2.37,15.35-4.74,22.89
		c-2.22,7.09-4.92,14.02-7.47,20.94c-3.77,10.22-8.56,20.19-15.32,28.89c-7.63,9.82-18.93,14.93-28.84,21.87
		C159.91,1046.82,151.5,1047.52,142.5,1046.95z"/>
</g>
</svg>
