<?xml version="1.0" encoding="utf-8"?>
<!-- Generator: Adobe Illustrator 26.1.0, SVG Export Plug-In . SVG Version: 6.00 Build 0)  -->
<svg version="1.1" id="Layer_1" xmlns="http://www.w3.org/2000/svg" xmlns:xlink="http://www.w3.org/1999/xlink" x="0px" y="0px"
	 viewBox="0 0 268.24 1080" style="enable-background:new 0 0 268.24 1080;" xml:space="preserve">
<style type="text/css">
	.st0{fill:#A1D0F2;}
	.st1{fill:#990223;}
	.st2{fill:#83B4DF;}
	.st3{fill:#A7BBD5;}
	.st4{fill:#6F0023;}
</style>
<g>
	<path class="st0" d="M193.28,117.12c0,15-0.57,30.02,0.12,44.99c1.36,29.14-0.1,58.3,1.1,87.41c0.7,16.82-0.11,33.65,0.89,50.41
		c1.43,23.97-0.11,47.97,1.04,71.91c1.12,23.31-0.13,46.64,1,69.9c1.08,22.32-0.11,44.64,1.02,66.91c0.8,15.82,1.27,31.65,0.51,47.4
		c-1.49,30.77-1.29,61.55-2.08,92.32c-0.46,17.93-0.76,35.93-2.02,53.8c-1.29,18.29-1.63,36.53-1.72,54.81
		c-0.08,14.64,2,29.13,3.14,43.69c0.16,2.09,0.79,4.41,1.94,6.12c9.05,13.37,16.44,27.65,29.83,38.15
		c15.47,12.13,23.22,29.62,27.33,48.98c3.23,15.22,3.15,30.27,1.98,45.56c-0.51,6.63-0.27,13.33-0.14,19.99
		c0.43,22.2-6,42.41-17.43,61.23c-10.25,16.87-24.88,29.13-41.77,38.72c-9.02,5.13-17.94,10.46-27.71,14.37
		c-12.12,4.86-24.53,5.93-37.16,4.96c-16.23-1.24-31.66-5.76-45.91-13.81c-19.33-10.91-35.29-25.63-49.53-42.61
		c-11.54-13.77-15.25-30.26-19.93-46.85c-3.93-13.95-3-28-4.29-41.99c-0.69-7.55,0.5-15.23,3.2-22.51c0.57-1.55,1.18-3.21,1.21-4.82
		c0.26-17.19,9.77-30.28,19.18-43.39c9.69-13.5,20.15-26.34,32.17-37.88c3.71-3.56,3.68-8.58,3.81-13.06
		c0.96-32.93,3.42-65.85,1.99-98.79c-1.21-27.81-0.77-55.61-0.62-83.41c0.09-16.59,3.62-33.03,2.77-49.71
		c-1.87-36.95-0.37-73.94-1.12-110.9c-0.34-16.61-0.81-33.23-1.97-49.8c-1.55-22.13,2.26-44.1,1.18-66.21
		c-0.75-15.29,1.03-30.61,0.76-45.89c-0.45-24.61-0.97-49.25-2.28-73.79c-0.72-13.48,1.53-26.69,0.61-40.09
		c-0.69-10.09-1.9-20.27-1.63-30.29c0.28-10.29,0.18-20.6,0.4-30.89c0.33-15.83,0.18-31.66,0.14-47.49
		c-0.04-15.14,2.54-30.1,3.06-45.2c0.03-0.8,0.2-1.72,0.65-2.35c9.64-13.58,20.34-26.53,37.35-30.3
		c18.93-4.19,37.31-2.62,54.68,8.22c13.3,8.29,17.35,21.27,21.1,34.56c4.99,17.7,2.68,36.03,3.04,54.12c0.09,4.5,0.01,9,0.01,13.5
		C193.22,117.12,193.25,117.12,193.28,117.12z M100.26,372.96c-0.01,13.46-0.16,26.92,0.05,40.38c0.06,3.88,1.11,7.75,1.71,11.62
		c0.06,1.06,0.11,2.12,0.17,3.17c0,7.5-0.57,15.05,0.15,22.48c0.72,7.4-1.44,14.52-0.66,22.05c0.48,4.54,0.17,9.68,0.51,14.51
		c0.62,8.82-1.55,17.41-1.71,26.09c-0.09,5.06-1.57,9.66-2.6,14.33c-1.46,6.6-4.18,12.88,2.04,18.5c0.37,0.34,0.33,1.27,0.29,1.92
		c-0.94,13.33,1.74,26.5,1.88,39.76c0.1,9.7-0.01,19.34-1.41,29.14c-2.14,14.93,0.68,30.3-2.27,45.41
		c-0.97,4.97-0.88,10.18-0.49,15.48c0.92,12.43,0.28,24.98,0.23,37.47c-0.01,1.61,0.36,3.28-0.91,4.76
		c-1.98,2.31-0.88,4.27,1.02,6.01c-0.53,23.98-1.74,47.95-1.05,71.94c0.35,12.43-5.46,21.97-14.52,29.18
		c-15.81,12.57-27.3,28.07-34.64,46.7c-10.58,26.86-12.84,54.65-7.78,82.92c6.21,34.73,21.31,64.67,49.69,86.65
		c20.83,16.13,44.39,23.49,70.7,18.17c32.21-6.51,53.6-27,67.39-55.68c17.22-35.8,18.88-73.07,7.66-110.96
		c-5.69-19.19-14.12-36.95-29.15-50.82c-10.92-10.07-20.54-21.3-29.17-33.33c-4.64-6.47-10.08-13.4-10.83-21.1
		c-1.42-14.53-2.21-29.29-0.73-43.91c1.8-17.73,3.84-35.43,4.7-53.23c0.83-17.31,0.47-34.63-0.11-51.96
		c-1.21-36.28-0.54-72.55,1.17-108.81c1.18-25.13-0.66-50.25,0.15-75.41c0.48-14.97-0.36-30.1-0.87-45.13
		c-0.61-17.85,0.16-35.94,0.73-53.92c0.27-8.36-3.71-12.6-12.02-13.57c-1.48-0.17-2.95-0.45-4.42-0.68
		c0.04-1.66,0.13-3.33,0.11-4.99c-0.56-45.28,0.31-90.56-0.74-135.85c-1.08-46.46-0.19-92.97-0.35-139.45
		c-0.02-7.23-0.91-14.42-4.09-21.22c-4.65-9.97-19.88-14.68-29.38-9.13c-9.42,5.5-13.32,13.83-13.43,24.22
		c-0.57,57.94,0.62,115.89-0.85,173.83c-0.88,34.97-0.14,69.98-0.23,104.96c-0.01,3.8-0.35,7.46,4.02,9.21
		c-10.22,2.61-12.03,4.96-11.24,15.1c0.3,3.77,0.98,7.51,1.48,11.26C100.38,371.67,100.32,372.32,100.26,372.96z"/>
	<path class="st1" d="M102.18,428.14c-0.06-1.06-0.11-2.12-0.17-3.17c0.05-3.55,0.11-7.11,0.16-10.67
		c0.02-12.81,0.03-25.62,0.05-38.43c0-1.84,0.17-3.73-1.78-4.84c-0.51-3.75-1.19-7.49-1.48-11.26c-0.79-10.14,1.02-12.49,11.24-15.1
		c14.99-0.2,29.92-2.05,44.94-1.59c1.47,0.23,2.94,0.51,4.42,0.68c8.31,0.97,12.29,5.21,12.02,13.57
		c-0.57,17.98-1.34,36.07-0.73,53.92c0.52,15.03,1.35,30.16,0.87,45.13c-0.81,25.16,1.04,50.28-0.15,75.41
		c-1.71,36.26-2.39,72.53-1.17,108.81c0.58,17.33,0.94,34.65,0.11,51.96c-0.85,17.8-2.9,35.5-4.7,53.23
		c-1.48,14.62-0.68,29.38,0.73,43.91c0.75,7.7,6.19,14.63,10.83,21.1c8.64,12.03,18.26,23.26,29.17,33.33
		c15.04,13.88,23.47,31.63,29.15,50.82c11.23,37.89,9.56,75.16-7.66,110.96c-13.8,28.69-35.18,49.17-67.39,55.68
		c-26.31,5.32-49.88-2.04-70.7-18.17c-28.38-21.98-43.48-51.93-49.69-86.65c-5.06-28.28-2.8-56.06,7.78-82.92
		c7.34-18.63,18.83-34.13,34.64-46.7c9.07-7.21,14.88-16.75,14.52-29.18c-0.68-23.99,0.52-47.96,1.05-71.94
		c1.63-6.73,0.71-13.58,0.79-20.36c0.2-17.27,0.5-34.51,1.85-51.75c0.53-6.76,0.38-13.63,0.63-20.45c0.6-16.59,3.43-33.05,1.8-49.77
		c-1.21-12.41-0.11-25.1-2-37.37c-1.66-10.8-0.76-21.17,0.53-31.7c2.08-17.02,0.55-34.15,1.67-51.21
		c0.49-7.56-0.57-15.28-0.12-22.94C103.65,436.29,103.59,432.14,102.18,428.14z M141.82,1046.93c9.32,0.61,18.14,0.08,26.3-5.76
		c9.83-7.04,21.2-12.11,28.77-21.98c6.6-8.61,11.3-18.44,15.09-28.48c2.61-6.9,5.28-13.86,7.41-21.01c2.3-7.71,4.38-15.41,4.7-23.36
		c0.27-6.64,0.25-13.24-1.47-20.03c-1.77-6.99,0.23-14.71-2.32-21.96c-2.36-6.71-3.49-13.78-7.71-19.87
		c-3.33-4.81-7.96-3.77-12.13-3.25c-3.78,0.47-5.69,4.47-6.01,7.67c-0.76,7.63-3.48,15.11-2.21,22.93
		c1.25,7.69-3.01,14.86-2.13,22.53c0.05,0.45-0.27,0.94-0.4,1.42c-1.84,7.17-3.42,14.42-5.59,21.49
		c-1.62,5.26-2.27,10.76-4.83,15.82c-3.6,7.1-8.52,13.38-13.72,19.04c-6.15,6.7-10.45,15.39-20.83,18.29
		c-8.19,2.29-16.13,2.52-24.32,2.56c-1.1,0.01-1.75-0.75-2.56-1.36c-5.24-3.93-10.5-7.84-15.8-11.68c-2.87-2.08-6.3-1.1-8.08,1.83
		c-3.56,5.86-0.34,11.1,2.08,15.79c5.25,10.21,15.05,16.6,22.64,24.87c1.17,1.28,2.98,1.9,4.64,2.69
		C129.37,1047.96,135.66,1046.67,141.82,1046.93z"/>
	<path class="st2" d="M155.14,343.08c-15.01-0.46-29.95,1.39-44.94,1.59c-4.37-1.76-4.03-5.41-4.02-9.21
		c0.09-34.99-0.65-70,0.23-104.96c1.46-57.95,0.28-115.89,0.85-173.83c0.1-10.4,4.01-18.73,13.43-24.22
		c9.51-5.55,24.73-0.84,29.38,9.13c3.18,6.81,4.06,13.99,4.09,21.22c0.16,46.49-0.73,92.99,0.35,139.45
		c1.05,45.29,0.19,90.57,0.74,135.85C155.26,339.75,155.17,341.42,155.14,343.08z"/>
	<path class="st3" d="M102.18,428.14c1.41,4.01,1.48,8.15,1.23,12.33c-0.45,7.66,0.62,15.38,0.12,22.94
		c-1.12,17.07,0.42,34.2-1.67,51.21c-1.29,10.53-2.19,20.9-0.53,31.7c1.88,12.27,0.79,24.96,2,37.37c1.63,16.73-1.2,33.19-1.8,49.77
		c-0.25,6.82-0.1,13.69-0.63,20.45c-1.35,17.24-1.64,34.49-1.85,51.75c-0.08,6.79,0.84,13.63-0.79,20.36c-1.9-1.74-3-3.7-1.02-6.01
		c1.26-1.48,0.9-3.15,0.91-4.76c0.05-12.5,0.68-25.04-0.23-37.47c-0.39-5.3-0.48-10.51,0.49-15.48c2.95-15.11,0.13-30.48,2.27-45.41
		c1.4-9.81,1.51-19.44,1.41-29.14c-0.14-13.26-2.82-26.42-1.88-39.76c0.05-0.64,0.09-1.58-0.29-1.92c-6.22-5.62-3.5-11.9-2.04-18.5
		c1.03-4.67,2.51-9.27,2.6-14.33c0.15-8.68,2.33-17.27,1.71-26.09c-0.34-4.83-0.03-9.97-0.51-14.51
		c-0.79-7.53,1.38-14.65,0.66-22.05C101.61,443.19,102.18,435.63,102.18,428.14z"/>
	<path class="st3" d="M102.17,414.3c-0.05,3.56-0.11,7.11-0.16,10.67c-0.6-3.87-1.65-7.74-1.71-11.62
		c-0.2-13.46-0.06-26.92-0.05-40.38c1.56,5.49,0.77,11.13,1.03,16.71C101.67,397.88,100.45,406.14,102.17,414.3z"/>
	<path class="st4" d="M102.17,414.3c-1.72-8.16-0.5-16.42-0.88-24.63c-0.26-5.57,0.52-11.21-1.03-16.71
		c0.06-0.65,0.12-1.29,0.19-1.94c1.95,1.11,1.78,3,1.78,4.84C102.2,388.67,102.19,401.49,102.17,414.3z"/>
	<path class="st4" d="M141.82,1046.93c-6.16-0.26-12.45,1.03-18.47-1.81c-1.66-0.78-3.47-1.41-4.64-2.69
		c-7.59-8.27-17.39-14.67-22.64-24.87c-2.41-4.69-5.63-9.93-2.08-15.79c1.78-2.93,5.21-3.91,8.08-1.83
		c5.31,3.84,10.57,7.74,15.8,11.68c0.8,0.6,1.46,1.36,2.56,1.36c8.18-0.04,16.13-0.27,24.32-2.56c10.38-2.9,14.68-11.6,20.83-18.29
		c5.2-5.65,10.12-11.93,13.72-19.04c2.57-5.06,3.22-10.56,4.83-15.82c2.17-7.07,3.75-14.32,5.59-21.49c0.12-0.48,0.45-0.97,0.4-1.42
		c-0.89-7.66,3.38-14.84,2.13-22.53c-1.27-7.82,1.45-15.29,2.21-22.93c0.32-3.2,2.23-7.2,6.01-7.67c4.17-0.52,8.8-1.56,12.13,3.25
		c4.21,6.09,5.35,13.16,7.71,19.87c2.55,7.24,0.55,14.97,2.32,21.96c1.72,6.79,1.74,13.39,1.47,20.03
		c-0.33,7.95-2.4,15.65-4.7,23.36c-2.13,7.15-4.8,14.11-7.41,21.01c-3.79,10.04-8.49,19.88-15.09,28.48
		c-7.57,9.87-18.94,14.94-28.77,21.98C159.97,1047.01,151.15,1047.54,141.82,1046.93z"/>
</g>
</svg>
