<?xml version="1.0" encoding="utf-8"?>
<!-- Generator: Adobe Illustrator 26.1.0, SVG Export Plug-In . SVG Version: 6.00 Build 0)  -->
<svg version="1.1" id="Layer_1" xmlns="http://www.w3.org/2000/svg" xmlns:xlink="http://www.w3.org/1999/xlink" x="0px" y="0px"
	 viewBox="0 0 294.35 1080" style="enable-background:new 0 0 294.35 1080;" xml:space="preserve">
<style type="text/css">
	.st0{fill:#A1D0F2;}
	.st1{fill:#980223;}
	.st2{fill:#83B4DF;}
	.st3{fill:#6F0023;}
</style>
<g>
	<path class="st0" d="M212.33,116.7c0,14.33-0.53,28.69,0.11,42.99c1.33,29.64-0.04,59.3,1.12,88.91
		c0.66,16.82-0.13,33.65,0.9,50.42c1.39,22.64,0,45.3,0.97,67.91c1.06,24.64,0.05,49.3,1.1,73.9c0.97,22.65-0.12,45.31,1,67.91
		c0.72,14.32,1.12,28.64,0.56,42.91c-1.29,32.6-1.5,65.21-2.18,97.82c-0.37,17.59-0.61,35.28-1.99,52.8
		c-1.61,20.46-1.94,40.88-1.55,61.32c0.24,12.58,1.87,25.14,3.03,37.69c0.18,1.93,0.84,4.03,1.92,5.62
		c9.04,13.37,16.53,27.57,29.84,38.08c15.44,12.19,23.19,29.65,27.3,49.01c3.23,15.22,3.15,30.28,1.96,45.57
		c-0.45,5.8-0.3,11.67-0.12,17.49c0.7,23.06-5.47,44.16-17.46,63.76c-10.33,16.88-24.98,29.07-41.85,38.7
		c-9.02,5.14-17.95,10.47-27.72,14.37c-12.28,4.9-24.86,5.89-37.67,4.79c-8.55-0.73-17.04-2.27-25.3-5.08
		c-13.81-4.69-26.42-11.4-37.87-20.42c-14.29-11.26-27.04-23.91-37.54-38.9c-6.07-8.66-8.61-18.43-11.33-28.26
		c-4.09-14.76-6.43-29.65-6.65-45.14c-0.16-11.44,0.83-22.33,3.53-33.37c1.8-7.34,2.1-14.92,5.5-22.01
		c5.45-11.35,13.35-20.96,20.5-31.12c7.1-10.09,15.41-19.14,24.24-27.65c4.51-4.34,5.33-9.56,5.49-14.91
		c1.04-33.76,3.42-67.52,1.94-101.3c-1.19-27.15-0.67-54.28-0.59-81.41c0.05-16.26,3.61-32.36,2.78-48.71
		c-1.88-37.12-0.39-74.27-1.13-111.4c-0.32-15.94-0.8-31.9-1.95-47.8c-1.65-22.79,2.27-45.44,1.15-68.21
		c-0.77-15.63,1.18-31.28,0.79-46.89c-0.61-24.27-0.95-48.59-2.33-72.79c-0.65-11.34,1.27-22.37,0.66-33.6
		c-0.64-11.93-1.44-23.91-1.57-35.81c-0.12-10.74,0.14-21.58,0.34-32.37c0.27-14.66,0.28-29.33,0.09-44
		c-0.2-16.16,2.56-32.1,3.09-48.2c0.03-0.79,0.23-1.71,0.68-2.34c9.64-13.59,20.35-26.52,37.38-30.27
		c18.94-4.16,37.31-2.58,54.68,8.28c13.29,8.31,17.12,21.35,21.07,34.59c3.05,10.23,3.24,20.95,3.07,31.63
		c-0.19,11.83-0.04,23.67-0.04,35.5C212.27,116.7,212.3,116.7,212.33,116.7z M171.06,593.05c6.72-0.05,7.06-0.5,5.72-7.18
		c-0.29-1.45-0.43-2.96-0.45-4.44c-0.54-41.62,0.54-83.24-0.86-124.88c-1.3-38.6,0.17-77.23-0.93-115.87
		c-1.37-48.26,0.25-96.57-1.05-144.87c-0.92-34.31-0.09-68.66-0.25-102.98c-0.06-13.46,0.58-26.91-0.84-40.38
		c-2-18.97-19.65-27.51-33.54-19.42c-9.22,5.36-12.46,14.02-12.57,24.22c-0.61,55.12,0.43,110.24-0.77,165.37
		c-1.47,67.27,0.31,134.57-0.99,201.86c-1.06,54.47-0.23,108.98-0.24,163.48c0,1.33,0.3,2.76-0.07,3.98
		c-1.17,3.82,0.53,5.1,4.04,5.04c-4.99,2.79-6.15,7.66-6.49,12.71c-1.41,20.52-1.78,41.1-3.21,61.64
		c-1.34,19.25-0.31,38.6-1.22,57.92c-1.06,22.44-1.9,44.94-1.02,67.41c0.52,13.39-5.55,23.52-15.42,31.29
		c-18.89,14.87-30.87,34.15-37.57,56.84c-9.32,31.54-8.73,63.06,1.72,94.29c11.33,33.85,30.92,60.97,64.11,76.38
		c20.71,9.61,42.25,10.71,63.63,2.62c25.55-9.67,43.14-28.22,54.6-52.63c16.88-35.98,18.57-73.1,7.25-110.96
		c-5.69-19.02-14.1-36.58-28.97-50.34c-10.9-10.08-20.53-21.29-29.17-33.32c-4.64-6.47-10.08-13.4-10.84-21.08
		c-1.44-14.52-2.25-29.28-0.74-43.89c1.75-16.89,3.12-33.81,4.7-50.71c2.93-31.26-2.67-62.1-4.23-93.13
		c-0.26-5.21-3.08-7.49-8.52-7.77C174.83,594.16,172.81,594.28,171.06,593.05z"/>
	<path class="st1" d="M171.06,593.05c1.75,1.22,3.77,1.1,5.76,1.21c5.45,0.28,8.26,2.55,8.52,7.77c1.56,31.04,7.17,61.88,4.23,93.13
		c-1.59,16.9-2.95,33.82-4.7,50.71c-1.51,14.61-0.71,29.38,0.74,43.89c0.76,7.68,6.2,14.62,10.84,21.08
		c8.64,12.03,18.27,23.23,29.17,33.32c14.88,13.76,23.28,31.32,28.97,50.34c11.33,37.85,9.64,74.98-7.25,110.96
		c-11.46,24.41-29.05,42.96-54.6,52.63c-21.38,8.09-42.92,6.99-63.63-2.62c-33.19-15.41-52.78-42.53-64.11-76.38
		c-10.45-31.22-11.04-62.74-1.72-94.29c6.7-22.69,18.68-41.97,37.57-56.84c9.88-7.78,15.94-17.91,15.42-31.29
		c-0.87-22.48-0.04-44.98,1.02-67.41c0.91-19.32-0.12-38.67,1.22-57.92c1.43-20.54,1.8-41.11,3.21-61.64
		c0.35-5.06,1.5-9.92,6.49-12.71c5.36-0.28,10.03-3.1,15.2-4.07C152.66,591.17,161.85,593.41,171.06,593.05z M161.02,1046.84
		c9.67,1.36,18.66-0.17,26.73-5.92c9.72-6.93,20.98-11.98,28.33-21.84c6.46-8.68,11.36-18.42,14.97-28.52
		c2.48-6.95,5.29-13.84,7.48-20.94c2.33-7.55,3.57-15.19,4.75-22.89c1.41-9.11-1.77-17.92-2-26.94c-0.11-4.4,0.2-8.7-1.53-13.16
		c-1.03-2.65-2.04-5.76-2.45-8.82c-0.76-5.7-3.32-10.64-7.13-14.84c-3.25-3.58-11.73-2.78-14.37,1.21
		c-3.66,5.53-4.23,12.25-4.17,18.26c0.11,10.65-0.86,21.21-2.72,31.47c-1.71,9.42-5,18.75-7.08,28.13
		c-2.37,10.7-8.27,18.58-14.62,26.71c-2.86,3.65-5.95,7.03-9.01,10.49c-3.8,4.3-7,8.33-13.18,10.55c-8.1,2.91-15.98,3.23-24.17,3.23
		c-1.33,0-2.49-0.19-3.68-1.1c-5.19-4-10.52-7.83-15.79-11.73c-3.12-2.32-6.37-1.44-8.4,1.74c-3.67,5.75-0.23,10.94,1.98,15.37
		c5.2,10.39,15.16,16.92,22.92,25.26c1.18,1.27,3.04,1.82,4.68,2.6C148.59,1048.01,154.89,1046.58,161.02,1046.84z"/>
	<path class="st2" d="M171.06,593.05c-9.21,0.36-18.4-1.88-27.62-0.15c-5.17,0.97-9.85,3.79-15.2,4.07
		c-3.51,0.06-5.2-1.22-4.04-5.04c0.37-1.22,0.07-2.65,0.07-3.98c0.01-54.49-0.81-109,0.24-163.48c1.31-67.3-0.47-134.59,0.99-201.86
		c1.2-55.13,0.16-110.25,0.77-165.37c0.11-10.2,3.35-18.86,12.57-24.22c13.89-8.08,31.54,0.45,33.54,19.42
		c1.42,13.47,0.78,26.92,0.84,40.38c0.16,34.33-0.67,68.68,0.25,102.98c1.3,48.3-0.32,96.61,1.05,144.87
		c1.1,38.64-0.36,77.27,0.93,115.87c1.4,41.63,0.32,83.25,0.86,124.88c0.02,1.48,0.16,2.99,0.45,4.44
		C178.12,592.56,177.78,593.01,171.06,593.05z"/>
	<path class="st3" d="M161.02,1046.84c-6.13-0.26-12.43,1.17-18.45-1.7c-1.64-0.78-3.5-1.34-4.68-2.6
		c-7.76-8.34-17.72-14.88-22.92-25.26c-2.21-4.42-5.66-9.62-1.98-15.37c2.03-3.18,5.28-4.06,8.4-1.74
		c5.27,3.91,10.59,7.73,15.79,11.73c1.19,0.92,2.35,1.1,3.68,1.1c8.19,0,16.07-0.32,24.17-3.23c6.18-2.22,9.38-6.25,13.18-10.55
		c3.06-3.46,6.15-6.83,9.01-10.49c6.36-8.13,12.26-16.01,14.62-26.71c2.07-9.37,5.37-18.71,7.08-28.13
		c1.86-10.26,2.83-20.82,2.72-31.47c-0.06-6.01,0.51-12.73,4.17-18.26c2.64-3.99,11.12-4.8,14.37-1.21c3.8,4.2,6.36,9.14,7.13,14.84
		c0.41,3.06,1.42,6.17,2.45,8.82c1.73,4.46,1.42,8.76,1.53,13.16c0.23,9.02,3.4,17.83,2,26.94c-1.19,7.7-2.43,15.33-4.75,22.89
		c-2.19,7.11-4.99,13.99-7.48,20.94c-3.61,10.1-8.5,19.84-14.97,28.52c-7.35,9.87-18.61,14.91-28.33,21.84
		C179.68,1046.67,170.7,1048.2,161.02,1046.84z"/>
</g>
</svg>
