<?xml version="1.0" encoding="utf-8"?>
<!-- Generator: Adobe Illustrator 26.1.0, SVG Export Plug-In . SVG Version: 6.00 Build 0)  -->
<svg version="1.1" id="Layer_1" xmlns="http://www.w3.org/2000/svg" xmlns:xlink="http://www.w3.org/1999/xlink" x="0px" y="0px"
	 viewBox="0 0 264 1085.41" style="enable-background:new 0 0 264 1085.41;" xml:space="preserve">
<style type="text/css">
	.st0{fill:#A1D0F3;}
	.st1{fill:#980123;}
	.st2{fill:#83B4DF;}
	.st3{fill:#6F0023;}
</style>
<g>
	<path class="st0" d="M193.04,116.63c0,14.83-0.57,29.69,0.12,44.49c1.36,29.14-0.1,58.3,1.1,87.41c0.69,16.82-0.1,33.65,0.9,50.42
		c1.43,24.14-0.1,48.31,1.05,72.41c1.11,23.31-0.14,46.64,1.01,69.91c1.09,22.15-0.06,44.3,1,66.41c0.68,14.15,1.14,28.3,0.61,42.41
		c-1.23,33.1-1.6,66.21-2.2,99.32c-0.32,17.59-0.65,35.27-1.99,52.8c-1.51,19.79-1.98,39.54-1.56,59.32
		c0.28,13.25,1.87,26.47,3.03,39.69c0.17,1.93,0.82,4.04,1.9,5.63c9.02,13.38,16.51,27.58,29.82,38.09
		c15.44,12.19,23.23,29.63,27.33,49c3.22,15.21,3.22,30.28,1.98,45.56c-0.47,5.8-0.31,11.67-0.13,17.49
		c0.71,23.05-5.45,44.16-17.42,63.77c-10.31,16.89-24.96,29.09-41.83,38.72c-9.02,5.14-17.95,10.46-27.72,14.37
		c-12.28,4.92-24.84,5.78-37.66,4.89c-10.11-0.71-20.22-2.58-29.57-6.3c-12.17-4.85-23.74-11.08-34.06-19.47
		c-13.98-11.37-26.71-23.78-37.11-38.64c-6.06-8.66-8.64-18.42-11.35-28.25c-4.07-14.76-6.43-29.65-6.67-45.14
		c-0.18-11.62,1.02-22.63,3.63-33.86c1.71-7.38,2.22-14.91,5.61-21.98c5.37-11.2,13.22-20.65,20.26-30.69
		c7.08-10.1,15.41-19.14,24.24-27.65c4.49-4.33,5.38-9.53,5.53-14.9c0.94-32.93,3.4-65.85,1.97-98.8
		c-1.22-27.98-0.77-55.94-0.62-83.91c0.09-16.59,3.64-33.03,2.77-49.71c-1.91-36.78-0.36-73.6-1.12-110.4
		c-0.33-15.94-0.97-31.89-1.91-47.81c-1.51-25.44,2.42-50.78,1.07-76.2c-0.67-12.65,1.31-25.27,0.9-37.9
		c-0.81-24.6-1.06-49.25-2.4-73.79c-0.66-12,1.4-23.69,0.65-35.6c-0.7-11.26-1.26-22.56-1.59-33.82
		c-0.24-8.38,0.22-16.91,0.31-25.37c0.17-16.16,0.4-32.34,0.12-48.5c-0.3-17,2.47-33.78,3.1-50.7c0.03-0.8,0.2-1.73,0.65-2.35
		c9.64-13.58,20.34-26.53,37.35-30.3c18.93-4.19,37.31-2.62,54.68,8.22c13.3,8.29,17.17,21.32,21.11,34.56
		c3.05,10.23,3.25,20.94,3.08,31.62c-0.19,11.83-0.04,23.67-0.04,35.5C192.97,116.63,193.01,116.63,193.04,116.63z M157.99,720.95
		c-0.5-42.11,0.51-84.22-0.78-126.35c-1.39-45.09,0.48-90.22-1.03-135.34c-1.32-39.59-0.34-79.22-0.84-118.85
		c-0.8-63.6-0.67-127.22-1.37-190.83c-0.36-32.28,1.33-64.59-0.99-96.85c-1.17-16.31-14.4-26.3-29.11-21.56
		c-10.78,3.47-16.64,11.57-16.82,25.29c-0.73,56.27,0.4,112.55-0.84,168.84c-1.45,65.42,0.36,130.88-1.01,196.33
		c-1.42,67.92,0.7,135.88-1.05,203.82c-0.78,30.3-0.15,60.65-0.13,90.97c0,2.34-0.02,4.66-0.85,6.88c-2.62,1.39-5.32,2.39-5.36,6.32
		c-0.24,22.3-1.62,44.6-0.8,66.91c0.5,13.57-5.65,23.76-15.7,31.67c-18.75,14.76-30.56,33.97-37.27,56.46
		c-8.78,29.45-8.66,59.03-0.19,88.59c8.56,29.88,24.12,55.12,49.82,73.1c24.05,16.82,50.59,22.03,78.68,12.11
		c25.96-9.17,43.82-27.88,55.44-52.38c17.11-36.03,18.92-73.35,7.58-111.4c-5.77-19.36-14.41-37.16-29.57-51.11
		c-11.17-10.29-21.23-21.63-29.56-34.25c-4.65-7.05-10.24-14.1-10.49-23.29c-0.38-13.81-0.38-27.64-1.44-41.43
		c-0.31-3.97-0.49-8.04,0.03-11.96C165.36,725.07,164.78,723.61,157.99,720.95z"/>
	<path class="st1" d="M157.99,720.95c6.79,2.66,7.36,4.13,6.36,11.7c-0.52,3.92-0.34,7.99-0.03,11.96
		c1.06,13.79,1.06,27.62,1.44,41.43c0.25,9.19,5.84,16.24,10.49,23.29c8.33,12.62,18.39,23.96,29.56,34.25
		c15.16,13.95,23.8,31.75,29.57,51.11c11.34,38.05,9.52,75.37-7.58,111.4c-11.63,24.49-29.48,43.21-55.44,52.38
		c-28.09,9.92-54.63,4.72-78.68-12.11c-25.7-17.98-41.26-43.23-49.82-73.1c-8.47-29.57-8.59-59.15,0.19-88.59
		c6.7-22.49,18.51-41.7,37.27-56.46c10.04-7.9,16.2-18.1,15.7-31.67c-0.82-22.31,0.56-44.61,0.8-66.91
		c0.04-3.93,2.74-4.93,5.36-6.32C121.4,721.71,139.7,721.35,157.99,720.95z M141.83,1046.95c9.16,0.58,17.82,0.08,25.81-5.72
		c9.78-7.1,21.24-12,28.87-21.86c6.64-8.6,11.37-18.43,15.2-28.44c2.81-7.33,5.67-14.73,7.94-22.31c2.21-7.38,4.03-14.87,4.21-22.51
		c0.15-6.48-0.28-12.94-1.33-19.52c-1.51-9.43-1.12-19.07-4.23-28.48c-1.68-5.07-3.43-9.9-6.5-14.12
		c-3.57-4.89-12.32-4.35-15.62,0.71c-3.34,5.12-3.69,11.37-3.82,16.87c-0.25,10.75-1.4,21.36-2.41,32.01
		c-0.08,0.81-0.39,1.59-0.59,2.38c-1.79,6.85-3.49,13.73-5.39,20.55c-1.56,5.61-2.35,11.39-5.07,16.74
		c-3.76,7.4-8.98,13.81-14.39,19.77c-5.83,6.42-10.01,14.63-19.78,17.42c-8.17,2.34-16.16,2.6-24.37,2.52
		c-0.79-0.01-1.71-0.23-2.33-0.68c-5.12-3.78-10.26-7.55-15.25-11.51c-3.8-3.02-7.02-2.52-9.33,1.66
		c-3.07,5.55,0.06,10.57,2.25,14.91c5.26,10.38,15.21,16.89,22.95,25.24c1.18,1.27,3.09,1.77,4.69,2.56
		C129.37,1048.12,135.69,1046.5,141.83,1046.95z"/>
	<path class="st2" d="M157.99,720.95c-18.29,0.4-36.59,0.77-54.83,2.36c0.83-2.23,0.85-4.54,0.85-6.88
		c-0.02-30.32-0.65-60.67,0.13-90.97c1.76-67.94-0.36-135.9,1.05-203.82c1.36-65.45-0.44-130.9,1.01-196.33
		c1.25-56.29,0.12-112.56,0.84-168.84c0.18-13.72,6.03-21.81,16.82-25.29c14.71-4.74,27.94,5.25,29.11,21.56
		c2.32,32.25,0.64,64.56,0.99,96.85c0.7,63.61,0.57,127.23,1.37,190.83c0.5,39.62-0.49,79.26,0.84,118.85
		c1.51,45.12-0.36,90.26,1.03,135.34C158.51,636.72,157.49,678.83,157.99,720.95z"/>
	<path class="st3" d="M141.83,1046.95c-6.14-0.45-12.45,1.17-18.48-1.8c-1.61-0.79-3.51-1.3-4.69-2.56
		c-7.75-8.35-17.7-14.86-22.95-25.24c-2.2-4.34-5.32-9.36-2.25-14.91c2.31-4.18,5.53-4.69,9.33-1.66
		c4.98,3.96,10.12,7.73,15.25,11.51c0.62,0.45,1.54,0.68,2.33,0.68c8.21,0.08,16.2-0.18,24.37-2.52c9.77-2.79,13.96-11,19.78-17.42
		c5.42-5.96,10.63-12.37,14.39-19.77c2.72-5.35,3.5-11.13,5.07-16.74c1.9-6.82,3.6-13.7,5.39-20.55c0.21-0.79,0.52-1.58,0.59-2.38
		c1.01-10.65,2.15-21.26,2.41-32.01c0.13-5.5,0.48-11.75,3.82-16.87c3.3-5.06,12.05-5.61,15.62-0.71c3.07,4.21,4.82,9.05,6.5,14.12
		c3.11,9.41,2.72,19.05,4.23,28.48c1.05,6.59,1.48,13.05,1.33,19.52c-0.18,7.64-2,15.13-4.21,22.51
		c-2.27,7.58-5.13,14.98-7.94,22.31c-3.84,10.01-8.56,19.84-15.2,28.44c-7.63,9.87-19.09,14.76-28.87,21.86
		C159.64,1047.04,150.99,1047.53,141.83,1046.95z"/>
</g>
</svg>
