<?xml version="1.0" encoding="utf-8"?>
<!-- Generator: Adobe Illustrator 26.1.0, SVG Export Plug-In . SVG Version: 6.00 Build 0)  -->
<svg version="1.1" id="Layer_1" xmlns="http://www.w3.org/2000/svg" xmlns:xlink="http://www.w3.org/1999/xlink" x="0px" y="0px"
	 viewBox="0 0 349 1108" style="enable-background:new 0 0 349 1108;" xml:space="preserve">
<style type="text/css">
	.st0{fill:#A2CFF0;}
	.st1{fill:#990123;}
	.st2{fill:#9C1E3F;}
	.st3{fill:#6F0023;}
	.st4{fill:#96082C;}
</style>
<g>
	<path class="st0" d="M247.03,174.37c0,13.83-0.5,27.69,0.1,41.49c1.34,30.64,0.01,61.3,1.15,91.91c0.61,16.32-0.1,32.65,0.87,48.92
		c1.49,24.97-0.12,49.97,1.07,74.91c1.08,22.65-0.15,45.31,0.98,67.91c1.14,22.82-0.1,45.64,1.04,68.41
		c0.78,15.49,1.21,30.98,0.51,46.41c-1.44,31.77-1.27,63.56-2.14,95.32c-0.47,17.09-0.7,34.26-1.93,51.31
		c-1.31,18.11-1.65,36.19-1.78,54.31c-0.1,14.99,2.15,29.79,3.15,44.69c0.1,1.46,0.43,3.11,1.22,4.29
		c8.96,13.43,15.88,28.08,29.31,38.53c14.5,11.28,23.08,27.03,27.47,45.1c3.41,14.04,4.71,28.17,3.83,42.51
		c-1.21,19.86-0.55,39.86-3.99,59.57c-0.09,0.49-0.08,1.03-0.29,1.46c-5.65,11.45-10.29,23.53-17.67,33.95
		c-11.22,15.85-26.57,27.11-43.53,36.35c-11.92,6.5-23.69,13.2-37.4,15.33c-14.54,2.26-28.91,1.01-42.9-2.96
		c-35.24-10-60.54-33.31-81.5-62.16c-7.62-10.48-8.7-23.36-12.58-35.21c-4.69-14.32-3.63-29.24-4.83-43.91
		c-0.79-9.72,3.16-18.93,4.07-28.42c1.97-20.64,14.64-35.44,25.98-51.13c7.72-10.67,16.68-20.2,25.96-29.48
		c3.57-3.57,3.54-8.61,3.68-13.14c1-33.76,3.42-67.52,1.93-101.3c-1.2-27.15-0.56-54.28-0.62-81.41
		c-0.03-15.43,3.56-30.69,2.82-46.21c-1.82-37.95-0.45-75.94-1.14-113.9c-0.29-15.78-0.96-31.55-1.91-47.31
		c-1.54-25.61,2.43-51.11,1.08-76.7c-0.69-12.99,1.38-25.93,0.9-38.9c-0.9-23.93-0.98-47.92-2.34-71.8
		c-0.84-14.81,1.65-29.37,0.54-44.1c-0.67-8.93-2.13-17.96-1.67-26.78c0.56-10.65,0.26-21.27,0.47-31.9
		c0.32-16.49-0.26-33.01,0.27-49.49c0.45-14.25,1.89-28.47,2.95-42.7c0.07-0.93,0.52-1.93,1.05-2.72
		c8.17-11.96,18.13-21.91,31.38-28.29c3.87-1.86,8.03-2.47,12.08-2.65c10.08-0.46,20.16-1.62,30.23,1.25
		c21.83,6.22,34.47,20.59,39.15,42.48c2.2,10.28,3.16,20.64,2.97,31.16c-0.21,11.66-0.05,23.33-0.05,35
		C246.97,174.37,247,174.37,247.03,174.37z M148.09,425c-0.01,22.34-0.02,44.67-0.03,67.01c-4.22,32.72-7.55,65.46-6.4,98.58
		c1.41,40.62-0.95,81.27,1.36,121.92c1.51,26.57-0.89,53.25,0.67,79.91c0.99,16.91-0.25,33.89,5.24,50.41
		c5.9,17.77,0.77,33.08-13.99,44.71c-18.6,14.66-30.25,33.81-36.9,56.14c-7.86,26.37-8.55,53.03-2.35,79.93
		c7.72,33.47,23.65,61.78,52.07,81.77c24.35,17.13,51.26,22.11,79.64,11.68c25.48-9.37,43-27.95,54.45-52.14
		c17-35.9,18.81-73.08,7.6-110.97c-5.73-19.36-14.32-37.21-29.5-51.17c-10.94-10.06-20.52-21.33-29.11-33.38
		c-4.52-6.33-9.82-13.14-10.55-20.69c-1.41-14.53-2.15-29.29-0.72-43.91c1.83-18.72,4.08-37.41,4.82-56.22
		c1.08-27.49-0.29-54.96-0.9-82.44c-0.56-24.98,1.03-49.89,1.96-74.82c0.9-23.98-0.14-47.94,0-71.9
		c0.27-46.79,1.29-93.54,2.71-140.3c0.49-16.32,3.43-32.53,2.58-48.87c-0.8-15.51,0.28-30.97,0.29-46.45
		c0.01-15.34,2.71-30.55,2.82-45.84c0.11-16.14-0.17-32.29-0.09-48.44c0.02-4.16-0.22-8.38-1.57-12.35
		c-2.14-6.27-2.39-12.71-2.36-19.22c0.07-14.51-0.12-29.04-3.83-43.17c-2.2-8.37-5.23-16.54-11.43-22.97
		c-10.04-10.41-22.37-10.09-35.67-8.68c-17.56,1.87-25.76,14.27-28.17,28.31c-1.64,9.57-2.36,19.15-1.95,28.85
		c0.76,18.11,3.93,36.18,1.78,54.35c-1.53,12.89-3.61,25.7-2.68,38.77c0.34,4.8,0.92,9.58,0.47,14.45
		c-1.52,16.25-3.49,32.49-4.03,48.78c-1.29,38.5,3.28,76.87,3.21,115.35C147.52,416.35,147.89,420.68,148.09,425z"/>
	<path class="st1" d="M148.09,425c-0.2-4.32-0.57-8.65-0.57-12.97c0.07-38.49-4.5-76.86-3.21-115.35
		c0.55-16.29,2.51-32.54,4.03-48.78c0.46-4.88-0.12-9.66-0.47-14.45c-0.93-13.07,1.15-25.88,2.68-38.77
		c2.15-18.18-1.03-36.24-1.78-54.35c-0.4-9.7,0.31-19.28,1.95-28.85c2.41-14.05,10.61-26.44,28.17-28.31
		c13.3-1.42,25.63-1.74,35.67,8.68c6.2,6.43,9.23,14.6,11.43,22.97c3.71,14.13,3.9,28.66,3.83,43.17
		c-0.03,6.51,0.22,12.95,2.36,19.22c1.35,3.97,1.59,8.19,1.57,12.35c-0.08,16.15,0.2,32.3,0.09,48.44
		c-0.1,15.29-2.81,30.5-2.82,45.84c-0.01,15.48-1.09,30.94-0.29,46.45c0.84,16.34-2.09,32.55-2.58,48.87
		c-1.41,46.76-2.44,93.51-2.71,140.3c-0.14,23.96,0.9,47.92,0,71.9c-0.93,24.93-2.52,49.84-1.96,74.82
		c0.61,27.47,1.98,54.95,0.9,82.44c-0.74,18.81-2.99,37.5-4.82,56.22c-1.43,14.62-0.69,29.38,0.72,43.91
		c0.73,7.55,6.03,14.36,10.55,20.69c8.6,12.05,18.17,23.32,29.11,33.38c15.18,13.96,23.77,31.8,29.5,51.17
		c11.21,37.89,9.41,75.07-7.6,110.97c-11.45,24.18-28.97,42.77-54.45,52.14c-28.38,10.44-55.3,5.45-79.64-11.68
		c-28.42-19.99-44.35-48.3-52.07-81.77c-6.21-26.91-5.51-53.56,2.35-79.93c6.65-22.33,18.3-41.48,36.9-56.14
		c14.76-11.63,19.89-26.94,13.99-44.71c-5.48-16.52-4.25-33.5-5.24-50.41c-1.56-26.66,0.84-53.34-0.67-79.91
		c-2.31-40.66,0.05-81.31-1.36-121.92c-1.15-33.12,2.18-65.86,6.4-98.58c1.26-0.08,1.87-0.79,1.91-2.02
		c3.69-1.02,1.36-4.01,1.98-6.03c0-0.83,0.01-1.66,0.01-2.49c-0.04-16.99,0.56-34.01-1.98-50.91
		C149.68,428.57,149.35,426.64,148.09,425z M195.04,1106c4.77,0,8.77-0.14,12.76,0.04c3.64,0.17,7.06-1.29,9.75-2.92
		c8.64-5.22,16.78-11.26,25.12-16.98c1.72-1.18,3.95-1.94,5.12-3.51c6.6-8.83,11.75-18.55,16.14-28.61
		c4.01-9.17,7.25-18.67,10.12-28.29c2.35-7.86,4.15-15.81,3.92-24.07c-0.15-5.36-0.95-10.73-1.46-16
		c-0.96-9.97-1.45-19.84-4.36-29.56c-1.64-5.48-3.76-10.48-7.71-14.51c-3.17-3.25-11.37-2.1-14,1.61
		c-3.68,5.21-3.91,11.66-4.08,17.3c-0.31,10.74-1.4,21.36-2.41,32.01c-0.06,0.65-0.11,1.35-0.37,1.94
		c-2.85,6.4-3.7,13.38-5.33,20.06c-2.87,11.77-6.88,22.45-15.14,31.73c-4.04,4.54-8.1,9.35-11.73,14.41
		c-1.81,2.52-4.2,6.52-7.92,7.15c-4.1,0.7-7.72,2.69-11.66,3.5c-6.35,1.3-13.31,2.2-19.13-0.19c-5.88-2.42-10.85-7.25-15.86-11.44
		c-2.45-2.05-5.29-2.45-7.32-1.29c-2.19,1.25-4.11,4.28-3.36,7.07c1.72,6.36,3.09,12.96,8.14,17.9c6.17,6.03,12.21,12.2,18.34,18.28
		c1.15,1.14,2.57,1.8,4.1,2.51C182.94,1107.06,189.44,1105.54,195.04,1106z"/>
	<path class="st2" d="M148.09,425c1.26,1.64,1.58,3.57,1.88,5.54c2.55,16.9,1.94,33.92,1.98,50.91c0,0.83-0.01,1.66-0.01,2.49
		c-1.89,1.61-2.08,3.77-1.98,6.03c-0.04,1.24-0.64,1.94-1.91,2.02C148.07,469.67,148.08,447.34,148.09,425z"/>
	<path class="st3" d="M195.04,1106c-5.59-0.46-12.09,1.07-18.32-1.84c-1.52-0.71-2.95-1.37-4.1-2.51
		c-6.13-6.07-12.17-12.24-18.34-18.28c-5.05-4.93-6.42-11.54-8.14-17.9c-0.75-2.79,1.18-5.81,3.36-7.07
		c2.04-1.17,4.87-0.76,7.32,1.29c5.02,4.19,9.99,9.02,15.86,11.44c5.82,2.4,12.78,1.5,19.13,0.19c3.94-0.81,7.55-2.8,11.66-3.5
		c3.72-0.64,6.11-4.63,7.92-7.15c3.63-5.06,7.69-9.87,11.73-14.41c8.26-9.28,12.26-19.96,15.14-31.73
		c1.63-6.68,2.48-13.67,5.33-20.06c0.26-0.59,0.31-1.28,0.37-1.94c1.01-10.65,2.09-21.27,2.41-32.01c0.16-5.64,0.4-12.09,4.08-17.3
		c2.62-3.71,10.82-4.86,14-1.61c3.94,4.04,6.06,9.04,7.71,14.51c2.91,9.72,3.41,19.59,4.36,29.56c0.51,5.27,1.3,10.64,1.46,16
		c0.24,8.25-1.57,16.2-3.92,24.07c-2.87,9.61-6.11,19.11-10.12,28.29c-4.4,10.06-9.54,19.78-16.14,28.61
		c-1.17,1.57-3.41,2.33-5.12,3.51c-8.34,5.71-16.48,11.75-25.12,16.98c-2.69,1.63-6.11,3.09-9.75,2.92
		C203.81,1105.86,199.8,1106,195.04,1106z"/>
	<path class="st4" d="M149.97,489.99c-0.1-2.26,0.09-4.42,1.98-6.03C151.33,485.98,153.66,488.97,149.97,489.99z"/>
</g>
</svg>
