<?xml version="1.0" encoding="utf-8"?>
<!-- Generator: Adobe Illustrator 26.1.0, SVG Export Plug-In . SVG Version: 6.00 Build 0)  -->
<svg version="1.1" id="Layer_1" xmlns="http://www.w3.org/2000/svg" xmlns:xlink="http://www.w3.org/1999/xlink" x="0px" y="0px"
	 viewBox="0 0 297.88 1080" style="enable-background:new 0 0 297.88 1080;" xml:space="preserve">
<style type="text/css">
	.st0{fill:#A1D0F2;}
	.st1{fill:#990223;}
	.st2{fill:#83B4DF;}
	.st3{fill:#A7BBD5;}
	.st4{fill:#6F0023;}
</style>
<g>
	<path class="st0" d="M220.1,117.17c0,15-0.58,30.02,0.12,44.99c1.36,29.14-0.1,58.3,1.1,87.41c0.7,16.82-0.13,33.65,0.9,50.41
		c1.39,22.81-0.04,45.63,0.98,68.41c1.1,24.47-0.01,48.97,1.07,73.4c0.99,22.32-0.11,44.64,1.01,66.91
		c0.73,14.65,1.16,29.3,0.55,43.91c-1.32,31.93-1.47,63.87-2.14,95.81c-0.38,17.93-0.74,35.93-2.01,53.8
		c-1.31,18.45-1.64,36.86-1.72,55.31c-0.06,14.48,2.01,28.8,3.14,43.19c0.16,2.09,0.8,4.41,1.95,6.12
		c9.06,13.37,16.45,27.64,29.84,38.14c15.47,12.13,23.21,29.63,27.32,48.99c3.23,15.22,3.13,30.28,1.98,45.56
		c-0.5,6.63-0.27,13.33-0.14,19.99c0.43,22.21-5.98,42.43-17.45,61.25c-10.28,16.86-24.91,29.11-41.8,38.69
		c-8.88,5.04-17.68,10.24-27.26,14.17c-12.27,5.03-24.82,6.1-37.62,5.12c-16.05-1.22-31.31-5.71-45.45-13.61
		c-19.55-10.91-35.6-25.76-49.95-42.86c-11.55-13.77-15.22-30.27-19.9-46.86c-3.98-14.11-3-28.34-4.27-42.49
		c-0.66-7.37,0.53-14.89,3.22-22c0.58-1.54,1.17-3.21,1.2-4.82c0.38-17.54,10.21-30.75,19.83-44.15
		c9.51-13.25,19.87-25.71,31.55-37.1c3.66-3.57,3.63-8.59,3.77-13.09c1.06-33.76,3.43-67.52,1.95-101.29
		c-1.18-26.98-0.69-53.94-0.59-80.91c0.06-16.42,3.59-32.7,2.76-49.21c-1.85-37.12-0.37-74.27-1.11-111.39
		c-0.33-16.61-0.81-33.23-1.97-49.8c-1.55-22.13,2.29-44.1,1.17-66.2c-0.8-15.63,1.18-31.28,0.78-46.89
		c-0.62-24.27-0.93-48.58-2.29-72.79c-0.76-13.48,1.52-26.69,0.61-40.09c-0.69-10.09-1.95-20.27-1.65-30.29
		c0.32-10.46,0.17-20.93,0.41-31.39c0.33-14.49,0.31-29,0.11-43.49c-0.23-16.33,2.53-32.44,3.09-48.7c0.03-0.79,0.22-1.72,0.67-2.34
		c9.64-13.59,20.35-26.52,37.37-30.27c18.94-4.17,37.31-2.59,54.68,8.26c13.29,8.31,17.33,21.3,21.06,34.59
		c5.06,18.04,2.63,36.7,3.04,55.12c0.09,4.16,0.01,8.33,0.01,12.5C220.04,117.17,220.07,117.17,220.1,117.17z M195,794.03
		c0,0,0.01,0.03,0.01,0.03c1.1-3.2-1.84-5.47-1.88-8.5c-0.23-19.35-0.12-38.68,2.05-57.95c0.04-0.33,0-0.68,0.1-0.99
		c3.24-9.24,3.28-19.19,3.33-28.51c0.17-31.44,2.16-62.94-1.28-94.38c-1.24-11.35-0.29-22.94,1.71-34.29
		c0.55-3.15-0.72-6.06-0.4-9.3c1.24-12.72,0.84-25.57,0.87-38.32c0.03-12.6-0.62-25.28-0.16-37.87c0.15-4.06-0.4-7.41-1.94-10.81
		c-2.32-5.12-9.23-7.22-13.4-4.22c-0.69-2.41-0.95-4.84-0.98-7.36c-0.56-40.29,0.4-80.57-0.76-120.88
		c-1.38-48.1,0.25-96.24-1.04-144.37c-0.93-34.81-0.1-69.66-0.25-104.49c-0.06-13.13,0.67-26.26-0.87-39.38
		c-1.92-16.37-14.88-26.07-29.51-21.16c-10.6,3.56-16.38,11.59-16.55,26.03c-0.66,55.12,0.32,110.24-0.77,165.38
		c-1.4,70.6,0.76,141.25-1.18,211.86c-0.3,10.82-0.05,21.66-0.06,32.5c-3.6,3.51-6.07,7.64-4.69,12.75
		c2.45,9.11,2.52,18.06-0.02,27.15c-0.68,2.44-1.97,6.27-1.28,7.37c3.29,5.21-0.91,9.31-1.6,13.62c-1.04,6.5-3.69,12.55,2.18,18.03
		c0.38,0.36,0.38,1.25,0.37,1.9c-0.19,12.11,0.78,24.14,1.77,36.22c1.05,12.78-0.21,25.64-1.45,38.5
		c-1.52,15.73,1.02,31.82-4.13,47.28c-0.23,0.7-0.13,1.92,0.33,2.37c2.12,2.08,1.47,4.65,1.48,7.07c0.04,8.99,0.15,17.99-0.08,26.98
		c-0.12,4.86,1.19,9.86-1.65,14.55c-1.08,1.79,0.12,3.84,1.81,5.22c-0.44,23.3-1.92,46.6-0.99,69.9
		c0.55,13.97-5.67,24.37-16.03,32.53c-18.6,14.66-30.27,33.78-36.94,56.1c-8.8,29.44-8.69,59.02-0.23,88.59
		c8.55,29.87,24.08,55.13,49.76,73.13c24.04,16.86,50.56,22.07,78.67,12.2c25.98-9.13,43.86-27.84,55.5-52.32
		c17.12-36.01,18.97-73.34,7.65-111.4c-6.31-21.22-16.43-40.02-33.52-54.91c-7.57-6.59-14.1-14.53-19.89-22.9
		c0-4.48-0.99-8.41-5.52-10.57c-0.7-0.33-1.56-1.11-1.65-1.78C201.23,799.99,198.13,797.01,195,794.03z"/>
	<path class="st1" d="M209.07,816.97c5.78,8.37,12.32,16.31,19.89,22.9c17.09,14.89,27.21,33.69,33.52,54.91
		c11.32,38.05,9.47,75.38-7.65,111.4c-11.64,24.48-29.52,43.19-55.5,52.32c-28.11,9.88-54.63,4.66-78.67-12.2
		c-25.69-18.01-41.21-43.26-49.76-73.13c-8.46-29.57-8.56-59.15,0.23-88.59c6.67-22.31,18.34-41.44,36.94-56.1
		c10.35-8.16,16.58-18.56,16.03-32.53c-0.93-23.3,0.55-46.6,0.99-69.9c1.64-6.73,0.69-13.58,0.79-20.37
		c0.26-17.1,0.44-34.18,1.85-51.26c0.58-7.08,0.45-14.29,0.68-21.45c0.54-16.42,3.43-32.72,1.75-49.29
		c-1.23-12.07-0.19-24.41-1.91-36.38c-1.39-9.73-1.48-19.23-0.11-28.74c1.72-11.95,1.85-23.87,1.34-35.86
		c-0.11-2.64,0-5.35,0.44-7.95c0.62-3.68,3.26-5.81,6.79-5.08c7.68,1.58,15.26,0.16,22.89,0.1c8.48-0.07,16.97,0.56,25.45,0.39
		c8.15-0.16,11.28,1.97,12.01,10.28c1.75,19.91,2.76,39.97,1.27,59.84c-2.66,35.47-1.53,70.89-1.03,106.35
		c0.3,21.14,0.79,42.27-1.36,63.38c-2.53,24.83-5.2,49.7-3.34,74.74c0.24,3.24-0.52,6.78,2.43,9.32c0,0-0.01-0.03-0.01-0.03
		C198.5,802.4,202.55,810.44,209.07,816.97z M169.34,1047.11c4.87-0.59,10.13,0.85,15.13-0.69c5.64-1.74,10.31-5.45,15.42-8.28
		c7.31-4.05,14.63-8.74,20.34-14.28c7.85-7.62,12.38-18.37,16.7-28.61c3.88-9.2,6.89-18.77,10.11-28.24
		c2.37-6.97,3.81-14.2,3.95-21.55c0.12-6.52-0.01-12.93-1.56-19.53c-1.62-6.88,0.15-14.38-2.28-21.47
		c-2.31-6.73-3.47-13.79-7.65-19.89c-3.44-5.02-8.27-3.93-12.57-3.27c-3.34,0.51-5.36,4.42-5.62,7.47
		c-0.64,7.49-3.51,14.78-2.22,22.43c1.33,7.86-2.99,15.21-2.11,23.03c0.05,0.46-0.25,0.95-0.37,1.43
		c-1.85,7.17-3.49,14.4-5.62,21.49c-1.59,5.27-2.26,10.78-4.8,15.84c-3.57,7.12-8.47,13.44-13.72,19.03
		c-6.22,6.63-10.36,15.46-20.8,18.35c-8.2,2.27-16.12,2.54-24.31,2.6c-1.09,0.01-1.78-0.68-2.59-1.29
		c-5.23-3.94-10.5-7.83-15.8-11.69c-2.98-2.17-6.29-1.09-8.3,2.15c-3.59,5.79-0.07,10.84,2.21,15.33
		c5.19,10.22,14.99,16.64,22.6,24.9c1.29,1.4,3.35,1.94,5.1,2.8C156.63,1048.16,162.93,1046.43,169.34,1047.11z"/>
	<path class="st2" d="M132.06,467.03c0.01-10.83-0.24-21.67,0.06-32.5c1.94-70.62-0.22-141.26,1.18-211.86
		c1.09-55.13,0.11-110.25,0.77-165.38c0.17-14.44,5.95-22.48,16.55-26.03c14.64-4.91,27.59,4.79,29.51,21.16
		c1.54,13.12,0.82,26.26,0.87,39.38c0.15,34.83-0.68,69.68,0.25,104.49c1.29,48.13-0.34,96.28,1.04,144.37
		c1.15,40.3,0.19,80.59,0.76,120.88c0.04,2.52,0.29,4.96,0.98,7.37C166.71,468.29,149.27,470.86,132.06,467.03z"/>
	<path class="st3" d="M132.06,467.03c17.21,3.83,34.65,1.26,51.97,1.88c4.17-3,11.08-0.9,13.4,4.22c1.54,3.4,2.08,6.75,1.94,10.81
		c-0.45,12.6,0.19,25.27,0.16,37.87c-0.03,12.75,0.37,25.6-0.87,38.32c-0.32,3.24,0.96,6.15,0.4,9.3c-2,11.35-2.95,22.94-1.71,34.29
		c3.44,31.45,1.45,62.94,1.28,94.38c-0.05,9.32-0.09,19.27-3.33,28.51c-0.11,0.3-0.07,0.66-0.1,0.99
		c-2.17,19.26-2.28,38.6-2.05,57.95c0.04,3.03,2.98,5.3,1.88,8.5c-2.95-2.55-2.19-6.08-2.43-9.32c-1.86-25.04,0.81-49.91,3.34-74.74
		c2.15-21.11,1.66-42.24,1.36-63.38c-0.5-35.46-1.63-70.88,1.03-106.35c1.49-19.88,0.48-39.93-1.27-59.84
		c-0.73-8.31-3.86-10.44-12.01-10.28c-8.48,0.17-16.97-0.46-25.45-0.39c-7.63,0.06-15.21,1.48-22.89-0.1
		c-3.53-0.73-6.17,1.4-6.79,5.08c-0.44,2.6-0.55,5.31-0.44,7.95c0.51,11.99,0.38,23.92-1.34,35.86c-1.37,9.52-1.28,19.01,0.11,28.74
		c1.72,11.97,0.68,24.31,1.91,36.38c1.68,16.57-1.21,32.86-1.75,49.29c-0.23,7.15-0.1,14.36-0.68,21.45
		c-1.4,17.08-1.59,34.16-1.85,51.26c-0.1,6.79,0.84,13.63-0.79,20.37c-1.68-1.38-2.89-3.44-1.81-5.22c2.84-4.69,1.53-9.7,1.65-14.55
		c0.23-8.99,0.12-17.98,0.08-26.98c-0.01-2.42,0.64-4.99-1.48-7.07c-0.46-0.45-0.56-1.67-0.33-2.37
		c5.15-15.46,2.61-31.55,4.13-47.28c1.24-12.86,2.5-25.71,1.45-38.5c-0.99-12.08-1.95-24.11-1.77-36.22
		c0.01-0.64,0.02-1.54-0.37-1.9c-5.88-5.48-3.22-11.53-2.18-18.03c0.69-4.31,4.88-8.4,1.6-13.62c-0.69-1.1,0.6-4.92,1.28-7.37
		c2.54-9.09,2.47-18.04,0.02-27.15C125.99,474.67,128.46,470.53,132.06,467.03z M197.67,617.71c-0.14,0.28-0.36,0.52-0.37,0.76
		c-0.01,0.25,0.19,0.51,0.3,0.77c0.13-0.24,0.37-0.48,0.38-0.73C197.99,618.27,197.79,618,197.67,617.71z"/>
	<path class="st3" d="M209.07,816.97c-6.51-6.53-10.57-14.56-14.06-22.94c3.12,2.99,6.22,5.96,6.89,10.59
		c0.1,0.67,0.96,1.45,1.65,1.78C208.07,808.55,209.07,812.49,209.07,816.97z"/>
	<path class="st4" d="M169.34,1047.11c-6.4-0.68-12.71,1.05-18.76-1.93c-1.75-0.86-3.81-1.4-5.1-2.8
		c-7.61-8.26-17.41-14.68-22.6-24.9c-2.28-4.49-5.8-9.54-2.21-15.33c2.01-3.24,5.32-4.32,8.3-2.15c5.3,3.85,10.57,7.75,15.8,11.69
		c0.81,0.61,1.5,1.3,2.59,1.29c8.18-0.06,16.11-0.33,24.31-2.6c10.45-2.89,14.58-11.72,20.8-18.35
		c5.25-5.59,10.15-11.92,13.72-19.03c2.54-5.06,3.21-10.56,4.8-15.84c2.13-7.08,3.77-14.32,5.62-21.49
		c0.12-0.48,0.42-0.97,0.37-1.43c-0.87-7.83,3.44-15.17,2.11-23.03c-1.29-7.66,1.57-14.94,2.22-22.43c0.26-3.05,2.28-6.96,5.62-7.47
		c4.29-0.66,9.13-1.75,12.57,3.27c4.19,6.1,5.34,13.16,7.65,19.89c2.44,7.09,0.67,14.59,2.28,21.47c1.55,6.6,1.68,13.01,1.56,19.53
		c-0.13,7.35-1.58,14.58-3.95,21.55c-3.21,9.47-6.23,19.04-10.11,28.24c-4.32,10.24-8.85,20.98-16.7,28.61
		c-5.71,5.54-13.03,10.23-20.34,14.28c-5.11,2.83-9.78,6.55-15.42,8.28C179.46,1047.96,174.21,1046.52,169.34,1047.11z"/>
	<path class="st0" d="M197.67,617.71c0.12,0.29,0.32,0.56,0.31,0.81c-0.01,0.25-0.24,0.48-0.38,0.73c-0.11-0.26-0.31-0.52-0.3-0.77
		C197.3,618.23,197.52,617.98,197.67,617.71z"/>
</g>
</svg>
