<?xml version="1.0" encoding="utf-8"?>
<!-- Generator: Adobe Illustrator 26.1.0, SVG Export Plug-In . SVG Version: 6.00 Build 0)  -->
<svg version="1.1" id="Layer_1" xmlns="http://www.w3.org/2000/svg" xmlns:xlink="http://www.w3.org/1999/xlink" x="0px" y="0px"
	 viewBox="0 0 283.76 1080" style="enable-background:new 0 0 283.76 1080;" xml:space="preserve">
<style type="text/css">
	.st0{fill:#A1D0F2;}
	.st1{fill:#990223;}
	.st2{fill:#83B4DF;}
	.st3{fill:#A7BBD5;}
	.st4{fill:#6F0023;}
</style>
<g>
	<path class="st0" d="M191.86,117.25c0,14.67-0.55,29.36,0.12,43.99c1.35,29.3-0.06,58.63,1.11,87.9
		c0.68,16.99-0.12,33.98,0.91,50.91c1.34,21.98,0.01,43.96,0.94,65.91c1.07,25.3,0.09,50.63,1.12,75.9
		c0.91,22.32-0.12,44.64,1,66.91c0.72,14.32,1.12,28.64,0.56,42.91c-1.26,32.27-1.53,64.54-2.16,96.81
		c-0.35,17.76-0.74,35.59-1.99,53.3c-1.32,18.78-1.7,37.53-1.72,56.31c-0.02,14.3,2.02,28.46,3.13,42.69
		c0.16,2.09,0.82,4.4,1.98,6.11c9.05,13.38,16.49,27.62,29.86,38.12c15.46,12.15,23.16,29.66,27.27,49.01
		c3.23,15.22,3.15,30.28,1.95,45.56c-0.45,5.8-0.3,11.67-0.12,17.49c0.7,23.06-5.47,44.17-17.49,63.74
		c-10.34,16.83-24.93,29.09-41.83,38.66c-8.89,5.04-17.67,10.25-27.26,14.17c-12.28,5.01-24.83,6.06-37.62,5.09
		c-16.23-1.23-31.68-5.76-45.88-13.86c-21.5-12.27-39.2-28.72-53.93-48.66c-8.9-12.04-10.91-26.28-15.19-39.92
		c-4.33-13.8-3.33-27.95-4.53-41.94c-0.67-7.76,0.49-15.56,3.09-23.03c0.6-1.72,1.33-3.52,1.37-5.29
		c0.37-17.56,10.25-30.73,19.87-44.14c9.5-13.25,19.88-25.7,31.55-37.1c3.64-3.55,3.59-8.59,3.73-13.11
		c1.05-33.76,3.43-67.52,1.94-101.29c-1.19-26.98-0.62-53.94-0.6-80.91c0.01-15.59,3.5-31.03,2.78-46.71
		c-1.75-37.95-0.14-75.94-1.26-113.89c-0.46-15.76-0.17-31.57-1.68-47.31c-2.2-22.92,2-45.76,1.07-68.7
		c-0.57-14.11,0.63-28.28,0.66-42.39c0.05-25.6-1.08-51.22-2.14-76.8c-0.68-16.59,1.87-33.05,0.32-49.57
		c-0.66-7.1-2.18-14.3-1.54-21.29c0.93-10.17,0.3-20.28,0.51-30.4c0.33-15.83,0.2-31.66,0.14-47.49
		c-0.06-15.31,2.58-30.43,3.05-45.7c0.02-0.65,0.1-1.41,0.45-1.91c9.32-13.4,19.79-26.11,36.24-30.21
		c19.39-4.84,38.23-3.25,56.08,7.89c13.31,8.3,17.08,21.37,21.04,34.61c3.06,10.23,3.21,20.95,3.05,31.62c-0.18,12-0.04,24-0.04,36
		C191.8,117.25,191.83,117.25,191.86,117.25z M100.77,428.14c0,7.5-0.57,15.05,0.15,22.48c0.72,7.39-1.44,14.52-0.66,22.05
		c0.47,4.54,0.23,9.67,0.49,14.51c0.47,8.61-1.2,17.03-1.64,25.53c-0.27,5.17-1.53,10-2.62,14.82c-1.49,6.6-4.19,12.86,1.97,18.51
		c0.38,0.35,0.33,1.26,0.33,1.91c0.02,11.79,0.74,23.51,1.67,35.28c0.89,11.25,0.62,22.65-1.22,34.12
		c-1.8,11.22-0.45,22.93-0.52,34.43c-0.01,1.94-0.29,3.73-1.05,5.7c-1.76,4.5-2.43,9.98-1.98,14.21c0.47,4.46,1.23,9.1,0.98,13.56
		c-0.7,12.5,2.27,25.16-1.68,37.51c-0.51,1.6,1.19,2.21,1.86,3.29c-0.53,23.98-1.74,47.95-1.05,71.94
		c0.35,12.43-5.45,21.97-14.52,29.18c-15.81,12.57-27.3,28.07-34.64,46.7c-10.59,26.86-12.84,54.64-7.78,82.92
		c6.21,34.73,21.3,64.68,49.69,86.65c20.82,16.12,44.39,23.5,70.7,18.18c32.21-6.52,53.6-27,67.39-55.68
		c17.22-35.8,18.87-73.06,7.66-110.96c-5.73-19.37-14.33-37.22-29.49-51.19c-11.05-10.18-20.99-21.41-29.34-33.82
		c-4.82-7.16-10.28-14.41-10.9-23.69c-1.59-23.69,0.15-47.25,2.78-70.78c2.63-23.57,2.61-47.2,1.75-70.87
		c-0.62-16.81-1.1-33.66-0.82-50.47c0.42-25.44,2.64-50.9,2.11-76.31c-0.62-29.67,0.43-59.28,0.47-88.92
		c0.03-19.98-2.27-40.05,0.27-59.92c2.7-21.19,1.58-42.22-0.09-63.32c-0.65-8.19-3.58-11.57-11.39-13.72
		c-1.92-0.53-3.88-0.9-5.83-1.35c-0.55-0.67-1.27-0.74-2.06-0.59c-3.75-0.31-7.5-0.61-11.25-0.92c2.17,0,4.33,0.01,6.5-0.01
		c6.83-0.05,6.77-0.06,6.83-6.69c0.51-53.29-1.47-106.57-1.13-159.86c0.15-23.28,1.25-46.6-0.87-69.87
		c-1.48-16.31-14.51-26.24-29.22-21.48c-10.64,3.44-16.61,11.62-16.78,25.84c-0.67,55.45,0.99,110.91-0.89,166.36
		c-0.68,20.14-0.01,40.32-0.23,60.49c-0.04,3.43,0.99,5.19,4.11,6c-1.12,0.15-2.28-0.12-3.32,0.72c-5.67,4.58-7.69,10.24-7.43,17.69
		c0.5,14.1,0.21,28.26-0.28,42.37c-0.5,14.44-1.39,28.84-0.39,43.29C98.19,405.38,101.49,416.56,100.77,428.14z"/>
	<path class="st1" d="M140.51,289.09c3.75,0.31,7.5,0.61,11.25,0.92c0.5,0.86,1.25,0.82,2.06,0.6c1.94,0.45,3.91,0.82,5.83,1.35
		c7.8,2.16,10.74,5.54,11.39,13.72c1.67,21.1,2.8,42.13,0.09,63.32c-2.54,19.87-0.24,39.94-0.27,59.92
		c-0.04,29.64-1.08,59.25-0.47,88.92c0.53,25.41-1.69,50.86-2.11,76.31c-0.28,16.82,0.2,33.66,0.82,50.47
		c0.87,23.67,0.88,47.3-1.75,70.87c-2.63,23.53-4.37,47.09-2.78,70.78c0.62,9.27,6.08,16.52,10.9,23.69
		c8.35,12.41,18.29,23.64,29.34,33.82c15.16,13.97,23.76,31.82,29.49,51.19c11.21,37.9,9.56,75.16-7.66,110.96
		c-13.8,28.68-35.18,49.17-67.39,55.68c-26.31,5.32-49.88-2.06-70.7-18.18c-28.38-21.98-43.48-51.93-49.69-86.65
		c-5.06-28.28-2.8-56.06,7.78-82.92c7.34-18.63,18.83-34.13,34.64-46.7c9.07-7.21,14.87-16.75,14.52-29.18
		c-0.68-23.99,0.52-47.96,1.05-71.94c1.63-6.73,0.68-13.58,0.8-20.36c0.29-17.26,0.32-34.52,1.83-51.76
		c0.59-6.75,0.39-13.63,0.64-20.45c0.61-16.58,3.41-33.05,1.79-49.77c-1.2-12.41-0.11-25.1-2-37.37c-1.66-10.8-0.76-21.17,0.53-31.7
		c2.08-17.02,0.55-34.15,1.67-51.21c0.49-7.56-0.57-15.28-0.12-22.94c0.25-4.18,0.18-8.32-1.23-12.33
		c0.72-11.57-2.58-22.75-3.36-34.18c-0.99-14.45-0.11-28.86,0.39-43.29c0.49-14.11,0.78-28.26,0.28-42.37
		c-0.27-7.45,1.76-13.11,7.43-17.69c1.04-0.84,2.2-0.58,3.32-0.72c0.39,0.97,1.26,1.03,2.05,0.9
		C120.7,289.08,130.61,289.25,140.51,289.09z M140.48,1046.89c9.37,0.8,18.15-0.01,26.3-5.75c9.89-6.97,21.21-12.13,28.76-22.01
		c6.58-8.61,11.29-18.44,15.06-28.5c2.59-6.92,5.21-13.9,7.44-21c2.38-7.55,3.57-15.18,4.77-22.88c1.42-9.11-1.79-17.92-2-26.94
		c-0.1-4.4,0.21-8.7-1.53-13.16c-1.03-2.65-2.05-5.76-2.44-8.82c-0.73-5.72-3.37-10.63-7.12-14.84c-3.22-3.62-11.72-2.82-14.37,1.17
		c-3.67,5.53-4.23,12.24-4.18,18.25c0.09,10.64-0.86,21.21-2.72,31.46c-1.71,9.42-5.01,18.75-7.07,28.13
		c-2.35,10.7-8.24,18.59-14.62,26.71c-2.86,3.65-5.95,7.03-9,10.49c-3.8,4.31-7.03,8.3-13.18,10.54
		c-8.09,2.94-15.97,3.26-24.16,3.26c-1.54,0-2.75-0.42-4.05-1.44c-5.16-4.03-10.46-7.88-15.77-11.71c-2.75-1.98-6.3-0.88-8.04,1.97
		c-3.59,5.89-0.25,11.09,2.14,15.78c5.23,10.22,15.06,16.59,22.66,24.86c1.17,1.28,3.01,1.86,4.66,2.65
		C128.04,1048,134.33,1046.63,140.48,1046.89z"/>
	<path class="st2" d="M140.51,289.09c-9.9,0.15-19.81-0.01-29.63,1.68c-0.8,0.14-1.67,0.08-2.05-0.9c-3.12-0.81-4.15-2.57-4.11-6
		c0.22-20.16-0.45-40.35,0.23-60.49c1.88-55.45,0.22-110.91,0.89-166.36c0.17-14.22,6.15-22.4,16.78-25.84
		c14.71-4.76,27.74,5.18,29.22,21.48c2.11,23.27,1.01,46.59,0.87,69.87c-0.34,53.3,1.64,106.57,1.13,159.86
		c-0.06,6.63,0,6.64-6.83,6.69C144.84,289.1,142.68,289.09,140.51,289.09z"/>
	<path class="st3" d="M100.77,428.14c1.41,4.01,1.48,8.15,1.23,12.33c-0.45,7.66,0.61,15.38,0.12,22.94
		c-1.12,17.07,0.42,34.2-1.67,51.21c-1.29,10.53-2.19,20.9-0.53,31.7c1.88,12.27,0.8,24.96,2,37.37
		c1.62,16.73-1.19,33.19-1.79,49.77c-0.25,6.82-0.05,13.7-0.64,20.45c-1.51,17.24-1.54,34.49-1.83,51.76
		c-0.11,6.79,0.84,13.63-0.8,20.36c-0.67-1.08-2.37-1.69-1.86-3.29c3.94-12.35,0.97-25.01,1.68-37.51c0.25-4.46-0.51-9.1-0.98-13.56
		c-0.45-4.24,0.22-9.71,1.98-14.21c0.77-1.97,1.04-3.76,1.05-5.7c0.07-11.5-1.28-23.22,0.52-34.43c1.84-11.47,2.11-22.87,1.22-34.12
		c-0.93-11.77-1.64-23.49-1.67-35.28c0-0.65,0.05-1.56-0.33-1.91c-6.16-5.64-3.47-11.91-1.97-18.51c1.09-4.83,2.36-9.66,2.62-14.82
		c0.44-8.49,2.12-16.91,1.64-25.53c-0.26-4.84-0.02-9.97-0.49-14.51c-0.78-7.52,1.37-14.65,0.66-22.05
		C100.2,443.19,100.76,435.63,100.77,428.14z"/>
	<path class="st2" d="M153.82,290.61c-0.81,0.22-1.57,0.27-2.06-0.6C152.55,289.86,153.27,289.93,153.82,290.61z"/>
	<path class="st4" d="M140.48,1046.89c-6.15-0.27-12.44,1.1-18.47-1.77c-1.65-0.78-3.49-1.37-4.66-2.65
		c-7.59-8.27-17.42-14.64-22.66-24.86c-2.4-4.68-5.74-9.89-2.14-15.78c1.74-2.86,5.29-3.96,8.04-1.97
		c5.31,3.83,10.61,7.68,15.77,11.71c1.3,1.02,2.51,1.44,4.05,1.44c8.19-0.01,16.07-0.32,24.16-3.26c6.15-2.24,9.38-6.23,13.18-10.54
		c3.05-3.46,6.14-6.85,9-10.49c6.37-8.12,12.26-16.01,14.62-26.71c2.06-9.38,5.36-18.71,7.07-28.13
		c1.86-10.26,2.81-20.82,2.72-31.46c-0.05-6.01,0.51-12.73,4.18-18.25c2.65-3.99,11.15-4.79,14.37-1.17
		c3.75,4.22,6.39,9.12,7.12,14.84c0.39,3.06,1.41,6.17,2.44,8.82c1.74,4.46,1.42,8.76,1.53,13.16c0.21,9.02,3.42,17.83,2,26.94
		c-1.2,7.7-2.4,15.34-4.77,22.88c-2.23,7.1-4.85,14.08-7.44,21c-3.76,10.06-8.48,19.89-15.06,28.5
		c-7.55,9.89-18.86,15.04-28.76,22.01C158.64,1046.88,149.85,1047.69,140.48,1046.89z"/>
</g>
</svg>
