<?xml version="1.0" encoding="utf-8"?>
<!-- Generator: Adobe Illustrator 26.1.0, SVG Export Plug-In . SVG Version: 6.00 Build 0)  -->
<svg version="1.1" id="Layer_1" xmlns="http://www.w3.org/2000/svg" xmlns:xlink="http://www.w3.org/1999/xlink" x="0px" y="0px"
	 viewBox="0 0 285.18 1080" style="enable-background:new 0 0 285.18 1080;" xml:space="preserve">
<style type="text/css">
	.st0{fill:#A2CFF1;}
	.st1{fill:#990123;}
	.st2{fill:#83B3DF;}
	.st3{fill:#9C1E3F;}
	.st4{fill:#6F0023;}
</style>
<g>
	<path class="st0" d="M203.14,115.92c0,13.66-0.49,27.35,0.1,40.99c1.32,30.63,0.02,61.29,1.15,91.89
		c0.61,16.65-0.1,33.31,0.87,49.91c1.45,24.64-0.12,49.3,1.06,73.9c1.09,22.64-0.15,45.3,0.98,67.9c1.14,22.81-0.09,45.63,1.04,68.4
		c0.75,15.15,1.18,30.3,0.52,45.4c-1.38,31.76-1.35,63.54-2.14,95.3c-0.43,17.42-0.7,34.93-1.96,52.3
		c-1.35,18.45-1.66,36.85-1.75,55.31c-0.07,14.64,2.13,29.12,3.15,43.68c0.12,1.77,0.61,3.76,1.59,5.2
		c9.05,13.36,16.21,27.8,29.6,38.28c15.62,12.23,23.69,29.72,27.85,49.25c3.24,15.19,3.25,30.25,2.07,45.55
		c-0.59,7.62,0.21,15.35-0.31,22.98c-0.67,9.91-1.19,19.96-3.36,29.59c-1.46,6.46-5.93,12.19-8.6,18.44
		c-10.47,24.53-30.01,39.89-52.43,52.43c-11.84,6.62-23.66,13.26-37.36,15.4c-14.7,2.3-29.25,1.03-43.38-3.05
		c-33.69-9.73-58.32-31.69-78.96-59.15c-8.92-11.87-10.64-25.99-14.94-39.41c-4.42-13.77-3.36-27.94-4.57-41.93
		c-0.68-7.77,0.6-15.54,3.03-23.05c0.76-2.35,1.38-4.83,1.5-7.28c0.71-14.88,8.52-26.6,16.77-38.11
		c10.55-14.72,21.57-29.02,34.83-41.5c3.47-3.27,3.37-8.33,3.48-12.7c0.88-32.92,3.4-65.84,1.97-98.78
		c-1.22-27.97-0.76-55.93-0.63-83.9c0.08-16.42,3.62-32.69,2.78-49.21c-1.89-36.94-0.37-73.92-1.12-110.88
		c-0.34-16.61-0.97-33.22-1.93-49.8c-1.43-24.77,2.44-49.43,1.09-74.19c-0.66-12.15,1.17-24.27,0.87-36.39
		c-0.62-25.1-1.09-50.23-2.34-75.29c-0.71-14.3,1.63-28.36,0.57-42.58c-0.68-9.09-2.07-18.29-1.67-27.28
		c0.48-10.81,0.23-21.6,0.47-32.39c0.32-14.32,0.31-28.66,0.1-42.99c-0.24-16.33,2.5-32.44,3.05-48.7c0.04-1.22,0.47-2.22,1.16-3.21
		c8.23-11.93,18.1-22.05,31.5-28.1c5.5-2.48,11.58-2.53,17.52-3.23c17.27-2.03,32.57,3.25,46.69,12.43
		c6.8,4.41,9.69,11.99,12.74,19.18c5.2,12.27,7.25,25.13,7.25,38.38c-0.01,13.66,0,27.33,0,40.99
		C203.09,115.92,203.11,115.92,203.14,115.92z M184.44,159.86l-0.31-0.27c-4.72-3.01-9.69-0.15-14.54-0.44
		c-4.31-0.26-5.52-1.25-5.57-5.68c-0.4-33.58,1.29-67.18-0.86-100.74c-0.6-9.39-7.06-19.34-15.06-21.49
		c-9.8-2.64-16.82-1.77-25.3,7.74c-4.9,5.5-5.62,12.5-5.64,19.44c-0.11,31.62-0.13,63.25,0.04,94.87c0.02,4.06-0.31,7.06-5.04,7.57
		c-1.54,0.93-2.99,2.15-4.66,2.71c-2.43,0.83-3.56,2.23-3.28,4.75c0.91,8.23,0.16,16.47,0.02,24.7
		c-1.31,14.92-3.32,29.81-3.81,44.75c-1.25,38.47,3.28,76.81,3.21,115.27c-0.01,4.32,0.37,8.64,0.57,12.96
		c-0.01,22.34-0.02,44.67-0.03,67.01c-2.61,20.48-5.34,40.97-6.19,61.6c-0.63,15.46-0.25,30.98,0,46.47
		c0.61,37.47-1.07,74.93,1.17,112.41c1.55,25.9-0.8,51.9,0.57,77.9c1,19.09,0.75,38.01,6.34,56.75
		c4.64,15.55-1.18,29.37-13.85,39.37c-15.57,12.3-26.86,27.59-34.11,45.85c-10.5,26.47-12.93,53.87-8.17,81.89
		c6.04,35.53,21.25,66.07,50.24,88.44c20.69,15.97,44.16,23.19,70.27,17.94c32.21-6.48,53.63-26.95,67.44-55.61
		c17.24-35.77,18.92-73.04,7.74-110.93c-5.76-19.53-14.46-37.51-29.78-51.56c-11.08-10.16-20.73-21.58-29.36-33.81
		c-4.28-6.08-9.4-12.63-10.07-19.83c-1.36-14.71-2.15-29.61-0.7-44.4c1.99-20.21,4.43-40.38,4.93-60.71
		c0.37-14.99,0.09-29.97-0.39-44.96c-1.14-35.94-0.48-71.87,1.16-107.79c1.16-25.45-0.7-50.91,0.3-76.38
		c0.94-23.96-0.38-47.98,0.01-71.94c0.34-20.94,3.06-41.82,2.66-62.84c-0.32-16.66,3.18-33.19,2.51-49.87
		c-0.82-20.67,0.18-41.29,0.91-61.92c0.44-12.32,2.54-24.53,2.41-36.88c-0.05-4.29-0.7-8.31-4.08-11.38
		C185.57,160.49,185,160.18,184.44,159.86z"/>
	<path class="st1" d="M186.14,160.8c3.38,3.07,4.03,7.09,4.08,11.38c0.13,12.36-1.97,24.56-2.41,36.88
		c-0.73,20.63-1.74,41.25-0.91,61.92c0.66,16.68-2.83,33.2-2.51,49.87c0.4,21.02-2.32,41.9-2.66,62.84
		c-0.39,23.96,0.93,47.99-0.01,71.94c-1,25.48,0.87,50.94-0.3,76.38c-1.64,35.92-2.3,71.85-1.16,107.79
		c0.48,14.99,0.75,29.97,0.39,44.96c-0.5,20.33-2.95,40.5-4.93,60.71c-1.45,14.79-0.66,29.7,0.7,44.4
		c0.66,7.2,5.78,13.75,10.07,19.83c8.63,12.23,18.28,23.65,29.36,33.81c15.32,14.05,24.02,32.03,29.78,51.56
		c11.19,37.89,9.5,75.16-7.74,110.93c-13.81,28.66-35.23,49.13-67.44,55.61c-26.11,5.26-49.58-1.97-70.27-17.94
		c-29-22.38-44.2-52.91-50.24-88.44c-4.76-28.01-2.33-55.42,8.17-81.89c7.25-18.27,18.54-33.55,34.11-45.85
		c12.66-10,18.48-23.82,13.85-39.37c-5.58-18.73-5.33-37.66-6.34-56.75c-1.37-26,0.98-52-0.57-77.9
		c-2.24-37.48-0.56-74.95-1.17-112.41c-0.25-15.49-0.63-31,0-46.47c0.85-20.63,3.58-41.12,6.19-61.6c3.29-2.59,3.46-6.89,3.62-10.09
		c0.87-17.64,0.41-35.3-1.91-52.85c-0.19-1.41-1.1-2.72-1.68-4.07c-0.2-4.32-0.57-8.64-0.57-12.96c0.07-38.46-4.47-76.8-3.21-115.27
		c0.49-14.94,2.49-29.84,3.81-44.75c4.05-4.15,5.78-17.54,2.48-22.17c-1.82-2.56-0.99-3.44,1.24-4.78c2.25-1.35,5.52-1.61,6.17-4.98
		c23.28-2.73,46.65-1.55,69.99-1.5c0,0,0.31,0.27,0.31,0.27C184.69,160.75,185.37,160.85,186.14,160.8z M151.28,1047
		c4.78,0,8.78-0.03,12.77,0.01c3.74,0.04,7.11-1.52,10.11-3.27c9.31-5.42,18.23-11.5,26.64-18.28c0.97-0.79,2.38-0.47,3.32-1.84
		c6.31-9.22,11.75-18.91,16.12-29.19c3.86-9.08,7.1-18.38,9.96-27.83c2.33-7.7,4.09-15.48,3.9-23.57
		c-0.13-5.53-0.27-10.94-1.58-16.54c-1.66-7.05,0.01-14.66-2.25-21.99c-2.16-7-3.45-14.25-8.05-20.24
		c-3.9-5.07-12.53-4.83-15.95,0.49c-3.3,5.13-3.69,11.37-3.79,16.88c-0.2,10.76-1.48,21.36-2.41,32.02
		c-0.07,0.8-0.43,1.58-0.63,2.37c-1.78,6.86-3.53,13.72-5.33,20.57c-1.48,5.64-2.6,11.41-5.27,16.66
		c-4.73,9.3-11.78,16.86-18.61,24.58c-4.18,4.73-7.36,9.79-14.54,12.01c-8.15,2.53-16.03,3.2-24.25,3.12
		c-0.96-0.01-2.1-0.12-2.83-0.64c-5.2-3.7-10.51-7.3-15.38-11.41c-2.56-2.16-5.55-2.81-7.72-1.46c-2.04,1.27-4.05,4.27-3.27,7.15
		c1.73,6.37,3.19,12.93,8.25,17.86c6.06,5.91,11.97,11.97,17.99,17.92c1.26,1.25,2.8,2.01,4.48,2.79
		C139.21,1048.11,145.7,1046.48,151.28,1047z"/>
	<path class="st2" d="M184.12,159.59c-23.34-0.05-46.71-1.23-69.99,1.5c-0.66-0.08-1.32-0.15-1.98-0.23
		c4.73-0.51,5.06-3.51,5.04-7.57c-0.16-31.62-0.14-63.25-0.04-94.87c0.02-6.94,0.74-13.95,5.64-19.44
		c8.48-9.51,15.49-10.38,25.3-7.74c8,2.16,14.46,12.1,15.06,21.49c2.14,33.56,0.45,67.16,0.86,100.74c0.05,4.43,1.26,5.42,5.57,5.68
		C174.44,159.44,179.4,156.58,184.12,159.59z"/>
	<path class="st3" d="M104.21,366c0.58,1.35,1.49,2.67,1.68,4.07c2.32,17.55,2.79,35.21,1.91,52.85c-0.16,3.2-0.33,7.5-3.62,10.09
		C104.19,410.67,104.2,388.34,104.21,366z"/>
	<path class="st3" d="M112.15,160.86c0.66,0.08,1.32,0.15,1.98,0.23c-0.65,3.37-3.92,3.63-6.17,4.98c-2.23,1.34-3.06,2.22-1.24,4.78
		c3.3,4.63,1.56,18.02-2.48,22.17c0.13-8.23,0.89-16.47-0.02-24.7c-0.28-2.52,0.85-3.92,3.28-4.75
		C109.16,163,110.61,161.78,112.15,160.86z"/>
	<path class="st2" d="M186.14,160.8c-0.77,0.05-1.45-0.05-1.71-0.94C185,160.18,185.57,160.49,186.14,160.8z"/>
	<path class="st4" d="M151.28,1047c-5.58-0.51-12.07,1.11-18.32-1.81c-1.68-0.79-3.22-1.54-4.48-2.79
		c-6.02-5.95-11.93-12.02-17.99-17.92c-5.05-4.92-6.52-11.48-8.25-17.86c-0.78-2.88,1.23-5.89,3.27-7.15
		c2.17-1.35,5.16-0.7,7.72,1.46c4.87,4.11,10.18,7.7,15.38,11.41c0.73,0.52,1.87,0.63,2.83,0.64c8.22,0.08,16.11-0.59,24.25-3.12
		c7.17-2.23,10.35-7.29,14.54-12.01c6.83-7.72,13.88-15.28,18.61-24.58c2.67-5.25,3.79-11.02,5.27-16.66
		c1.8-6.85,3.55-13.72,5.33-20.57c0.21-0.79,0.56-1.57,0.63-2.37c0.93-10.66,2.2-21.26,2.41-32.02c0.1-5.5,0.49-11.75,3.79-16.88
		c3.42-5.32,12.05-5.56,15.95-0.49c4.61,5.98,5.89,13.24,8.05,20.24c2.26,7.33,0.59,14.94,2.25,21.99c1.32,5.6,1.45,11,1.58,16.54
		c0.19,8.09-1.58,15.87-3.9,23.57c-2.85,9.45-6.1,18.75-9.96,27.83c-4.37,10.28-9.81,19.96-16.12,29.19
		c-0.94,1.37-2.34,1.06-3.32,1.84c-8.41,6.78-17.32,12.86-26.64,18.28c-3,1.74-6.36,3.31-10.11,3.27
		C160.05,1046.96,156.06,1047,151.28,1047z"/>
</g>
</svg>
