<?xml version="1.0" encoding="utf-8"?>
<!-- Generator: Adobe Illustrator 26.1.0, SVG Export Plug-In . SVG Version: 6.00 Build 0)  -->
<svg version="1.1" id="Layer_1" xmlns="http://www.w3.org/2000/svg" xmlns:xlink="http://www.w3.org/1999/xlink" x="0px" y="0px"
	 viewBox="0 0 275.29 1080" style="enable-background:new 0 0 275.29 1080;" xml:space="preserve">
<style type="text/css">
	.st0{fill:#A1D0F2;}
	.st1{fill:#990223;}
	.st2{fill:#83B4DF;}
	.st3{fill:#A7BBD5;}
	.st4{fill:#6F0023;}
</style>
<g>
	<path class="st0" d="M193.29,116.85c0,15.67-0.61,31.36,0.13,46.99c1.35,28.47-0.14,56.97,1.07,85.41
		c0.73,16.99-0.1,33.98,0.91,50.91c1.39,23.31-0.07,46.63,1.01,69.91c1.12,23.97-0.08,47.97,1.04,71.9
		c1.04,22.15-0.11,44.31,1,66.41c0.76,14.99,1.18,29.97,0.55,44.91c-1.34,31.77-1.44,63.54-2.14,95.31
		c-0.39,17.76-0.7,35.6-1.99,53.3c-1.41,19.29-1.76,38.53-1.68,57.81c0.05,13.79,1.95,27.47,3.11,41.19
		c0.18,2.09,0.85,4.39,2.01,6.1c9.05,13.38,16.52,27.61,29.89,38.1c15.33,12.03,23,29.41,27.13,48.55
		c3.27,15.19,3.22,30.26,2.06,45.56c-0.59,7.79,0.21,15.68-0.31,23.48c-0.65,9.75-1.34,19.58-3.33,29.11
		c-1.15,5.51-5.28,10.32-7.42,15.7c-9.49,23.87-27.3,39.96-48.95,52.29c-8.73,4.98-17.39,10.07-26.84,13.9
		c-12.28,4.98-24.83,6.06-37.63,5.04c-15.87-1.26-30.99-5.64-44.99-13.44c-19.7-10.98-35.92-25.86-50.35-43.15
		c-11.41-13.67-15.09-29.98-19.71-46.41c-3.91-13.92-3.14-27.98-4.37-41.97c-0.67-7.57,0.52-15.22,3.11-22.53
		c0.61-1.72,1.32-3.52,1.36-5.3c0.37-17.36,10.08-30.47,19.6-43.72c9.61-13.37,20.03-26.01,31.86-37.48
		c3.61-3.5,3.55-8.6,3.67-13.13c0.84-31.93,3.33-63.84,2-95.79c-1.2-28.81-0.82-57.6-0.68-86.4c0.08-15.6,3.52-31.03,2.79-46.71
		c-1.76-37.95-0.43-75.93-1.12-113.89c-0.3-16.27-0.96-32.55-1.92-48.8c-1.47-24.94,2.44-49.77,1.09-74.7
		c-0.67-12.32,1.19-24.6,0.88-36.89c-0.64-24.94-1.09-49.91-2.35-74.79c-0.69-13.64,1.51-27.03,0.59-40.59
		c-0.67-9.93-1.89-19.94-1.63-29.79c0.27-10.29,0.21-20.6,0.41-30.89c0.31-15.99,0.17-32,0.14-47.99
		c-0.03-15.14,2.58-30.1,3.05-45.2c0.02-0.64,0.15-1.39,0.5-1.89c9.49-13.47,20.01-26.31,36.77-30.28
		c18.34-4.34,36.24-3.1,53.49,6.74c14.5,8.27,19.22,21.75,23.07,36c5.07,18.75,2.48,38.05,2.99,57.13c0.09,3.33,0.01,6.67,0.01,10
		C193.22,116.85,193.26,116.85,193.29,116.85z M102.14,421.82l-0.01,0.15c-2.4,1.38-2.6,4.03-1.54,5.67
		c2.24,3.44,1.32,7.04,1.63,10.59c1,11.48-0.87,22.93-0.43,34.46c0.17,4.57,0.36,9.35,0.33,14.04c-0.05,8.06,0.03,16.05-1.66,24.09
		c-1.14,5.43-0.75,11.27-2.42,16.67c-2,6.51-4.29,12.81,1.79,18.47c0.38,0.36,0.36,1.25,0.36,1.9c0.16,11.76,0.63,23.47,1.63,35.22
		c0.92,10.85,0.41,21.89-1.12,33.02c-2.12,15.38,0.29,31.22-2.38,46.77c-0.84,4.89-0.73,9.87-0.39,14.97
		c0.81,12.43,0.26,24.95,0.2,37.44c-0.01,1.61,0.35,3.27-0.91,4.75c-1.97,2.31-0.87,4.27,1.03,6c-0.42,23.31-1.92,46.62-0.99,69.93
		c0.56,13.97-5.7,24.36-16.06,32.53c-18.6,14.67-30.29,33.8-36.92,56.14c-9.35,31.54-8.8,63.07,1.64,94.31
		c11.31,33.87,30.87,61.01,64.05,76.46c20.54,9.57,41.92,10.74,63.18,2.88c25.65-9.48,43.39-27.97,54.93-52.33
		c17.01-35.9,18.84-73.08,7.64-110.98c-5.73-19.37-14.31-37.23-29.48-51.2c-11.05-10.18-20.99-21.41-29.35-33.82
		c-4.82-7.16-10.29-14.42-10.91-23.68c-1.58-23.69,0.11-47.25,2.76-70.78c2.66-23.56,2.59-47.19,1.77-70.87
		c-0.6-17.47-0.45-34.97-0.72-52.46c-0.43-27.31,2.89-54.51,2.19-81.82c-0.28-10.65-1.68-21.31-0.72-31.96
		c1.75-19.3-0.05-38.64,0.79-57.95c0.23-5.39-3.34-8.56-8.83-8.67c-2.65-0.05-5.3,0.18-7.95,0.29c-0.49-0.08-1.02-0.08-1.47-0.27
		c-0.51-0.21-0.77-0.7,0.06-0.73c2.46-0.1,2.73-1.88,2.31-3.51c-0.96-3.66,0.22-7.22,0.11-10.84c-0.58-18.61-0.33-37.23-0.76-55.86
		c-1.16-49.75,0-99.53-1.07-149.31c-0.93-42.96-0.12-85.96-0.3-128.94c-0.03-7.23-0.93-14.41-4.15-21.21
		c-5.48-11.55-23.56-14.49-32.02-7.41c-7.7,6.44-10.66,14.25-10.77,23.82c-0.58,54.93,0.26,109.86-0.7,164.81
		c-1.13,64.7-0.32,129.44-0.35,194.15c-0.23,0.23-0.5,0.31-0.82,0.26C100.03,415.78,101.31,418.95,102.14,421.82z"/>
	<path class="st1" d="M105.35,417.05c0.32,0.06,0.59-0.03,0.82-0.26c6.83-1.29,13.75-1.63,20.68-1.91
		c9.53-0.38,19.11-0.26,28.43-2.81c2.65-0.1,5.31-0.34,7.95-0.29c5.49,0.11,9.07,3.28,8.83,8.67c-0.84,19.31,0.96,38.65-0.79,57.95
		c-0.96,10.66,0.44,21.31,0.72,31.96c0.71,27.31-2.61,54.51-2.19,81.82c0.27,17.49,0.12,34.99,0.72,52.46
		c0.82,23.67,0.89,47.3-1.77,70.87c-2.65,23.53-4.34,47.09-2.76,70.78c0.62,9.26,6.09,16.52,10.91,23.68
		c8.35,12.41,18.3,23.64,29.35,33.82c15.17,13.97,23.75,31.83,29.48,51.2c11.21,37.9,9.38,75.08-7.64,110.98
		c-11.54,24.35-29.28,42.85-54.93,52.33c-21.25,7.86-42.64,6.68-63.18-2.88c-33.18-15.45-52.74-42.59-64.05-76.46
		c-10.44-31.25-10.99-62.77-1.64-94.31c6.62-22.34,18.32-41.48,36.92-56.14c10.36-8.17,16.61-18.56,16.06-32.53
		c-0.93-23.31,0.57-46.62,0.99-69.93c1.63-6.73,0.7-13.58,0.79-20.37c0.23-17.11,0.47-34.19,1.85-51.27
		c0.57-7.09,0.45-14.3,0.68-21.45c0.54-16.43,3.44-32.73,1.75-49.3c-1.22-11.91-0.5-24.02-1.8-35.91
		c-0.87-7.97-2.24-15.85-0.72-23.76c3.57-18.6,2.04-37.49,2.72-56.18c0.56-15.12,1.08-30.62-1.42-45.83c0,0,0.01-0.15,0.01-0.15
		C103.21,420.23,104.28,418.64,105.35,417.05z M142.03,1046.93c9.17,0.61,17.76,0,25.83-5.67c9.9-6.95,21.21-12.05,28.83-21.88
		c6.74-8.71,11.58-18.65,15.31-28.89c2.53-6.93,5.24-13.86,7.47-20.94c2.37-7.54,4.19-15.16,4.57-22.9
		c0.33-6.61-0.17-13.25-1.28-20.02c-1.54-9.42-1.17-19.07-4.24-28.48c-1.65-5.08-3.43-9.9-6.48-14.12
		c-3.55-4.91-12.31-4.38-15.62,0.65c-3.37,5.12-3.69,11.38-3.83,16.87c-0.26,10.75-1.38,21.36-2.41,32.01
		c-0.08,0.81-0.37,1.6-0.58,2.39c-1.79,6.85-3.51,13.72-5.4,20.55c-1.56,5.61-2.39,11.38-5.05,16.75
		c-3.54,7.16-8.48,13.45-13.72,19.04c-6.11,6.5-10.13,15.17-20.44,18.04c-8.2,2.28-16.1,2.6-24.28,2.68
		c-1.05,0.01-1.81-0.52-2.65-1.15c-5.22-3.95-10.51-7.81-15.78-11.7c-3.04-2.25-6.41-1.33-8.37,1.83
		c-3.54,5.72-0.23,10.9,2.01,15.36c5.22,10.4,15.19,16.9,22.94,25.25c1.18,1.27,3.06,1.8,4.69,2.58
		C129.59,1048.04,135.89,1046.55,142.03,1046.93z"/>
	<path class="st2" d="M155.27,412.07c-9.32,2.55-18.9,2.43-28.43,2.81c-6.93,0.28-13.85,0.62-20.68,1.91
		c0.03-64.72-0.78-129.45,0.35-194.15c0.96-54.95,0.12-109.88,0.7-164.81c0.1-9.57,3.07-17.37,10.77-23.82
		c8.46-7.08,26.55-4.15,32.02,7.41c3.22,6.79,4.12,13.98,4.15,21.21c0.18,42.98-0.63,85.98,0.3,128.94
		c1.08,49.78-0.08,99.56,1.07,149.31c0.43,18.63,0.18,37.25,0.76,55.86c0.11,3.62-1.07,7.18-0.11,10.84
		c0.43,1.64,0.16,3.41-2.31,3.51c-0.83,0.03-0.57,0.52-0.06,0.73C154.26,411.99,154.78,411.99,155.27,412.07z"/>
	<path class="st3" d="M102.12,421.97c2.5,15.2,1.97,30.7,1.42,45.83c-0.69,18.69,0.85,37.58-2.72,56.18
		c-1.52,7.9-0.15,15.79,0.72,23.76c1.3,11.89,0.58,24,1.8,35.91c1.69,16.57-1.21,32.87-1.75,49.3c-0.23,7.16-0.11,14.36-0.68,21.45
		c-1.38,17.08-1.62,34.17-1.85,51.27c-0.09,6.79,0.84,13.64-0.79,20.37c-1.9-1.74-3-3.69-1.03-6c1.26-1.48,0.9-3.14,0.91-4.75
		c0.05-12.49,0.61-25.01-0.2-37.44c-0.33-5.1-0.44-10.08,0.39-14.97c2.67-15.55,0.26-31.4,2.38-46.77
		c1.53-11.12,2.05-22.16,1.12-33.02c-1-11.76-1.48-23.46-1.63-35.22c-0.01-0.65,0.02-1.54-0.36-1.9c-6.09-5.66-3.8-11.97-1.79-18.47
		c1.66-5.4,1.27-11.24,2.42-16.67c1.69-8.05,1.61-16.03,1.66-24.09c0.03-4.68-0.16-9.47-0.33-14.04
		c-0.44-11.53,1.43-22.98,0.43-34.46c-0.31-3.55,0.62-7.15-1.63-10.59C99.52,426,99.73,423.35,102.12,421.97z"/>
	<path class="st3" d="M105.35,417.05c-1.07,1.59-2.14,3.18-3.21,4.77C101.31,418.95,100.03,415.78,105.35,417.05z"/>
	<path class="st4" d="M142.03,1046.93c-6.14-0.38-12.45,1.11-18.48-1.79c-1.63-0.78-3.51-1.31-4.69-2.58
		c-7.75-8.35-17.73-14.86-22.94-25.25c-2.24-4.46-5.55-9.63-2.01-15.36c1.96-3.16,5.33-4.07,8.37-1.83
		c5.27,3.89,10.56,7.74,15.78,11.7c0.84,0.63,1.6,1.16,2.65,1.15c8.18-0.08,16.08-0.4,24.28-2.68
		c10.31-2.87,14.33-11.54,20.44-18.04c5.25-5.58,10.18-11.88,13.72-19.04c2.65-5.37,3.49-11.13,5.05-16.75
		c1.89-6.82,3.61-13.7,5.4-20.55c0.21-0.79,0.5-1.58,0.58-2.39c1.02-10.65,2.15-21.27,2.41-32.01c0.13-5.49,0.45-11.75,3.83-16.87
		c3.32-5.03,12.07-5.56,15.62-0.65c3.05,4.22,4.83,9.04,6.48,14.12c3.07,9.42,2.69,19.06,4.24,28.48c1.11,6.77,1.6,13.41,1.28,20.02
		c-0.38,7.75-2.19,15.36-4.57,22.9c-2.23,7.09-4.94,14.01-7.47,20.94c-3.74,10.24-8.57,20.19-15.31,28.89
		c-7.61,9.83-18.93,14.93-28.83,21.88C159.79,1046.93,151.2,1047.54,142.03,1046.93z"/>
</g>
</svg>
