<?xml version="1.0" encoding="utf-8"?>
<!-- Generator: Adobe Illustrator 26.1.0, SVG Export Plug-In . SVG Version: 6.00 Build 0)  -->
<svg version="1.1" id="Layer_1" xmlns="http://www.w3.org/2000/svg" xmlns:xlink="http://www.w3.org/1999/xlink" x="0px" y="0px"
	 viewBox="0 0 313 1080" style="enable-background:new 0 0 313 1080;" xml:space="preserve">
<style type="text/css">
	.st0{fill:#A2CFF0;}
	.st1{fill:#990123;}
	.st2{fill:#85B2DB;}
	.st3{fill:#9C1E3F;}
	.st4{fill:#6F0023;}
</style>
<g>
	<path class="st0" d="M224.04,116.11c0,14.83-0.57,29.69,0.12,44.49c1.36,29.3-0.07,58.63,1.1,87.89
		c0.66,16.48-0.08,32.97,0.89,49.41c1.46,24.64-0.11,49.3,1.06,73.9c1.1,23.14-0.15,46.3,1,69.39c1.11,22.31-0.09,44.63,1.01,66.9
		c0.72,14.48,1.13,28.96,0.59,43.4c-1.23,32.6-1.56,65.2-2.18,97.8c-0.34,17.59-0.71,35.26-1.99,52.79
		c-1.37,18.78-1.64,37.52-1.72,56.31c-0.06,14.31,2.23,28.45,3.14,42.68c0.09,1.46,0.45,3.1,1.25,4.28
		c9.04,13.36,15.89,28.01,29.33,38.48c16.11,12.55,24.37,30.36,28.57,50.46c3.15,15.07,3.08,29.95,1.92,45.06
		c-0.44,5.8-0.31,11.66-0.13,17.49c0.71,23.04-5.44,44.13-17.34,63.79c-10.26,16.94-24.96,29.03-41.76,38.75
		c-8.99,5.2-17.97,10.38-27.71,14.35c-12.27,4.99-24.83,5.99-37.63,5.01c-21.69-1.66-41.49-9.18-58.88-22.08
		c-17.23-12.78-32.63-27.42-44.2-45.96c-6.46-10.34-7.64-22.03-11.42-33.03c-4.9-14.25-3.68-29.22-4.87-43.89
		c-0.79-9.72,3.17-18.92,4.07-28.41c1.97-20.63,14.64-35.44,25.98-51.12c7.72-10.67,16.67-20.2,25.95-29.48
		c3.57-3.58,3.55-8.6,3.68-13.13c1-33.75,3.42-67.51,1.93-101.28c-1.19-27.14-0.62-54.26-0.61-81.39
		c0.01-15.43,3.51-30.69,2.79-46.21c-1.77-37.95-0.44-75.92-1.13-113.88c-0.28-15.77-0.79-31.57-1.95-47.29
		c-1.69-22.96,2.22-45.76,1.17-68.7c-0.69-15.12,0.94-30.28,0.74-45.39c-0.33-24.44-0.94-48.91-2.23-73.28
		c-0.78-14.64,1.6-29.03,0.55-43.59c-0.66-9.09-2.1-18.29-1.67-27.28c0.51-10.48,0.24-20.93,0.46-31.39
		c0.33-15.32,0.24-30.66,0.12-45.99c-0.12-15.65,2.57-31.1,3.09-46.69c0.03-0.93,0.44-1.96,0.97-2.75
		c8.16-11.96,18-22.14,31.37-28.23c6.12-2.79,12.89-2.63,19.48-3.44c16.91-2.06,31.46,3.99,45.14,12.62
		c6.81,4.3,9.63,12.03,12.67,19.24c5.18,12.28,7.19,25.15,7.18,38.4c-0.01,13.66,0,27.33,0,40.99
		C223.97,116.11,224,116.11,224.04,116.11z M138.74,63.91c-0.24,0.27-0.49,0.53-0.73,0.8c-5.96,8.3-7.83,17.74-8.2,27.75
		c-0.29,7.71,0.17,15.36-0.57,23.16c-1.48,15.53-3.94,31-4.42,46.61c-0.27,8.95,0.84,17.97,0.33,26.9
		c-0.93,16.26-3.29,32.46-3.83,48.73c-1.27,38.44,3.28,76.76,3.21,115.19c-0.01,4.32,0.37,8.64,0.56,12.95
		c-0.01,22.34-0.02,44.67-0.03,67.01c-4.22,32.72-7.55,65.46-6.4,98.58c1.41,40.61-0.95,81.26,1.36,121.92
		c1.51,26.57-0.7,53.25,0.61,79.91c0.9,18.28,0.9,36.36,6.23,54.26c4.69,15.77-0.96,29.71-13.8,39.86
		c-15.57,12.3-26.85,27.6-34.09,45.87c-10.5,26.47-12.93,53.89-8.15,81.9c6.06,35.53,21.27,66.07,50.29,88.43
		c20.71,15.95,44.19,23.16,70.29,17.87c32.2-6.52,53.6-26.99,67.39-55.68c17.21-35.79,18.88-73.06,7.67-110.95
		c-5.73-19.36-14.31-37.21-29.49-51.17c-10.94-10.06-20.51-21.33-29.12-33.37c-4.52-6.33-9.82-13.14-10.56-20.68
		c-1.43-14.53-2.14-29.28-0.74-43.91c1.99-20.88,4.63-41.7,4.99-62.71c0.24-14.16,0.08-28.3-0.39-42.46
		c-1.21-36.28-0.49-72.55,1.17-108.8c1.15-25.12-0.88-50.24,0.32-75.39c1.35-28.28-0.9-56.62,0.39-84.93
		c0.32-6.97,2.11-13.95,1.86-20.87c-1.2-32.51,3.68-64.81,2.67-97.35c-0.8-25.45,1.75-50.89,3.31-76.32
		c0.75-12.24-1.11-24.64,0.04-36.92c1.41-15.01-5.07-29.13-4.28-44.07c0.47-8.79-0.24-17.64-1.48-26.4
		c-1.13-7.95-4.92-12.3-12.56-14.26c-2.89-0.74-5.7-1.76-8.55-2.65c-0.18-3.51-1.64-6.59-2.81-9.85
		c-4.87-13.59-26.38-18.25-37.02-4.69c-6.03,7.69-7.18,16.27-5.37,25.54C138.85,63.71,138.74,63.91,138.74,63.91z"/>
	<path class="st1" d="M125.09,366c-0.2-4.32-0.57-8.64-0.56-12.95c0.06-38.43-4.48-76.75-3.21-115.19
		c0.54-16.27,2.9-32.46,3.83-48.73c0.51-8.93-0.61-17.94-0.33-26.9c0.48-15.61,2.94-31.08,4.42-46.61
		c0.74-7.8,0.29-15.45,0.57-23.16c0.37-10.01,2.24-19.45,8.2-27.75c0.55,0.02,0.97-0.09,0.73-0.8c0,0,0.11-0.2,0.11-0.2
		c4.58-2.53,7.94-6.97,13.1-8.58c10.51-3.27,21.11-5.5,32.1-2.43c2.85,0.89,5.66,1.91,8.55,2.65c7.64,1.96,11.43,6.31,12.56,14.26
		c1.24,8.77,1.95,17.61,1.48,26.4c-0.79,14.95,5.69,29.06,4.28,44.07c-1.16,12.28,0.71,24.68-0.04,36.92
		c-1.56,25.43-4.11,50.87-3.31,76.32c1.02,32.54-3.86,64.84-2.67,97.35c0.25,6.92-1.54,13.9-1.86,20.87
		c-1.29,28.3,0.96,56.64-0.39,84.93c-1.2,25.15,0.83,50.27-0.32,75.39c-1.67,36.25-2.38,72.52-1.17,108.8
		c0.47,14.16,0.63,28.3,0.39,42.46c-0.36,21.02-3,41.83-4.99,62.71c-1.39,14.63-0.69,29.38,0.74,43.91
		c0.74,7.54,6.04,14.35,10.56,20.68c8.6,12.05,18.18,23.32,29.12,33.37c15.18,13.96,23.76,31.81,29.49,51.17
		c11.21,37.89,9.55,75.15-7.67,110.95c-13.79,28.68-35.19,49.15-67.39,55.68c-26.11,5.29-49.59-1.92-70.29-17.87
		c-29.02-22.36-44.23-52.9-50.29-88.43c-4.78-28.01-2.35-55.42,8.15-81.9c7.24-18.27,18.52-33.57,34.09-45.87
		c12.84-10.14,18.49-24.09,13.8-39.86c-5.33-17.9-5.33-35.99-6.23-54.26c-1.31-26.66,0.9-53.34-0.61-79.91
		c-2.32-40.65,0.05-81.3-1.36-121.92c-1.15-33.12,2.18-65.86,6.4-98.58c3.29-2.59,3.47-6.88,3.62-10.08
		c0.85-17.64,0.43-35.31-1.91-52.86C126.58,368.66,125.67,367.36,125.09,366z M172.3,1047c4.83,0,8.83-0.04,12.83,0.01
		c3.58,0.05,7.21-1.2,9.6-3.15c4.12-3.37,9.21-4.85,13.26-8.38c6.53-5.69,15-9.1,20.1-16.56c5.93-8.67,10.49-18.13,14.7-27.68
		c3.25-7.36,5.41-15.21,7.91-22.89c2.43-7.47,4.2-15.15,4.23-23.02c0.03-6.34-0.61-12.65-1.42-19.01
		c-1.22-9.56-1.45-19.12-4.19-28.58c-1.51-5.21-3.69-9.8-6.7-13.99c-3.33-4.64-12.26-4.03-15.3,0.78
		c-3.42,5.42-3.97,11.97-3.96,17.82c0.02,10.63-1.86,21.01-2.4,31.53c-0.03,0.65-0.31,1.28-0.48,1.92
		c-1.82,6.84-3.74,13.66-5.44,20.54c-1.4,5.68-2.55,11.48-5.17,16.7c-4.66,9.3-11.76,16.87-18.55,24.61
		c-4.29,4.89-7.74,9.94-14.95,12.26c-8.14,2.62-16.04,3.14-24.27,3.08c-0.99-0.01-1.93-0.1-2.81-0.76
		c-5.12-3.82-10.46-7.36-15.35-11.45c-2.43-2.04-5.17-2.51-7.32-1.42c-2.33,1.18-4.16,4.19-3.48,6.98
		c1.56,6.42,3.05,12.98,8.05,17.93c6.13,6.07,12.19,12.2,18.31,18.27c1.28,1.27,2.9,1.89,4.54,2.67
		C160.28,1048.18,166.79,1046.42,172.3,1047z"/>
	<path class="st2" d="M184.05,52.71c-10.99-3.07-21.6-0.85-32.1,2.43c-5.16,1.61-8.52,6.04-13.1,8.58
		c-1.82-9.27-0.66-17.85,5.37-25.54c10.64-13.57,32.16-8.9,37.02,4.69C182.4,46.12,183.87,49.2,184.05,52.71z"/>
	<path class="st3" d="M125.09,366c0.58,1.35,1.49,2.66,1.68,4.07c2.34,17.55,2.76,35.22,1.91,52.86c-0.15,3.19-0.33,7.49-3.62,10.08
		C125.07,410.67,125.08,388.34,125.09,366z"/>
	<path class="st2" d="M138.74,63.91c0.23,0.71-0.18,0.82-0.73,0.8C138.25,64.44,138.49,64.18,138.74,63.91z"/>
	<path class="st4" d="M172.3,1047c-5.52-0.58-12.02,1.18-18.27-1.8c-1.64-0.78-3.26-1.4-4.54-2.67
		c-6.12-6.08-12.19-12.21-18.31-18.27c-4.99-4.95-6.49-11.51-8.05-17.93c-0.68-2.79,1.15-5.8,3.48-6.98
		c2.15-1.09,4.89-0.62,7.32,1.42c4.88,4.1,10.23,7.64,15.35,11.45c0.88,0.66,1.82,0.75,2.81,0.76c8.22,0.06,16.12-0.47,24.27-3.08
		c7.21-2.32,10.66-7.38,14.95-12.26c6.8-7.74,13.89-15.31,18.55-24.61c2.62-5.22,3.77-11.02,5.17-16.7
		c1.69-6.88,3.62-13.69,5.44-20.54c0.17-0.64,0.44-1.27,0.48-1.92c0.54-10.52,2.42-20.89,2.4-31.53c-0.01-5.85,0.53-12.4,3.96-17.82
		c3.04-4.81,11.97-5.42,15.3-0.78c3.01,4.19,5.19,8.77,6.7,13.99c2.74,9.46,2.98,19.02,4.19,28.58c0.81,6.36,1.45,12.67,1.42,19.01
		c-0.03,7.87-1.8,15.54-4.23,23.02c-2.49,7.68-4.66,15.53-7.91,22.89c-4.21,9.55-8.77,19-14.7,27.68
		c-5.1,7.47-13.56,10.87-20.1,16.56c-4.05,3.53-9.14,5.01-13.26,8.38c-2.39,1.95-6.02,3.2-9.6,3.15
		C181.13,1046.96,177.13,1047,172.3,1047z"/>
</g>
</svg>
