<?xml version="1.0" encoding="utf-8"?>
<!-- Generator: Adobe Illustrator 26.1.0, SVG Export Plug-In . SVG Version: 6.00 Build 0)  -->
<svg version="1.1" id="Layer_1" xmlns="http://www.w3.org/2000/svg" xmlns:xlink="http://www.w3.org/1999/xlink" x="0px" y="0px"
	 viewBox="0 0 272.47 1078.94" style="enable-background:new 0 0 272.47 1078.94;" xml:space="preserve">
<style type="text/css">
	.st0{fill:#A2CFF1;}
	.st1{fill:#990123;}
	.st2{fill:#83B3DE;}
	.st3{fill:#9C1E3F;}
	.st4{fill:#6F0023;}
</style>
<g>
	<path class="st0" d="M198.91,116.3c0,14-0.52,28.02,0.11,41.99c1.35,30.13-0.02,60.29,1.13,90.39c0.63,16.48-0.12,32.98,0.89,49.41
		c1.39,22.47,0.04,44.96,0.96,67.4c1.03,25.13,0.09,50.29,1.12,75.39c0.93,22.65-0.13,45.3,1,67.9c0.72,14.32,1.11,28.63,0.56,42.9
		c-1.24,32.6-1.5,65.2-2.19,97.8c-0.37,17.59-0.59,35.27-1.98,52.79c-1.63,20.45-1.94,40.87-1.55,61.31
		c0.24,12.58,1.89,25.13,3.01,37.68c0.14,1.62,0.6,3.41,1.49,4.72c9.07,13.34,16.17,27.81,29.57,38.31
		c15.76,12.34,23.85,29.96,28.01,49.7c3.21,15.22,3.15,30.28,1.95,45.56c-0.45,5.8-0.3,11.66-0.12,17.49
		c0.7,23.05-5.46,44.15-17.45,63.75c-10.23,16.71-24.72,28.81-41.38,38.45c-9.13,5.29-18.25,10.58-28.15,14.58
		c-12.27,4.95-24.83,5.79-37.66,4.9c-10.11-0.71-20.22-2.57-29.57-6.3c-12.16-4.85-23.74-11.07-34.05-19.46
		c-13.97-11.37-26.72-23.76-37.12-38.63c-5.85-8.37-8.51-17.69-11.07-27.24c-3.95-14.78-6.55-29.6-7-45.08
		c-0.36-12.66,2.27-24.57,3.66-36.84c2.32-20.42,14.62-35.12,25.81-50.69c7.69-10.69,16.63-20.25,25.93-29.5
		c3.66-3.64,3.75-8.55,3.88-13.03c0.92-32.92,3.41-65.84,1.99-98.78c-1.21-27.97-0.69-55.93-0.65-83.9
		c0.02-15.6,3.55-31.02,2.81-46.71c-1.8-37.95-0.43-75.92-1.13-113.88c-0.31-17.11-0.56-34.26-2.11-51.28
		c-1.16-12.74,1.1-25.15,1.2-37.71c0.14-17.66,0.06-35.33,0.13-52.99c0.02-5.64,1.15-11.21,0.95-16.9
		c-0.88-25.43-1.32-50.89-2.41-76.29c-0.68-15.77,1.67-31.36,0.44-47.08c-0.61-7.77-2.18-15.63-1.63-23.27
		c0.75-10.5,0.3-20.94,0.5-31.4c0.32-16.99-0.26-34,0.26-50.98c0.43-13.92,1.83-27.81,2.97-41.7c0.32-3.9,3.77-6.12,5.88-9.03
		c6.94-9.61,15.95-16.81,26.61-21.86c5.01-2.37,10.58-2.51,16.01-3.19c17.7-2.22,33.62,2.61,48.19,12.28
		c6.78,4.5,9.73,11.96,12.79,19.14c5.21,12.26,7.31,25.11,7.3,38.37c-0.01,13.83,0,27.66,0,41.49
		C198.85,116.3,198.88,116.3,198.91,116.3z M99.94,433.01c-4.51,33.71-7.55,67.47-6.38,101.58c1.35,39.62-1,79.27,1.36,118.92
		c1.54,25.9-0.8,51.91,0.57,77.91c1,19.09,0.77,38.02,6.34,56.75c4.63,15.55-1.21,29.36-13.88,39.36
		c-15.58,12.29-26.85,27.6-34.09,45.87c-10.5,26.47-12.93,53.89-8.15,81.9c6.06,35.52,21.27,66.07,50.28,88.43
		c20.71,15.95,44.18,23.16,70.29,17.87c32.2-6.52,53.6-26.99,67.39-55.67c17.21-35.79,18.88-73.06,7.67-110.95
		c-5.73-19.36-14.31-37.21-29.49-51.17c-10.94-10.06-20.51-21.33-29.12-33.37c-4.52-6.33-9.82-13.14-10.57-20.68
		c-1.44-14.53-2.14-29.28-0.75-43.91c1.99-20.88,4.63-41.7,4.99-62.71c0.24-14.16,0.07-28.3-0.39-42.46
		c-1.18-36.28-0.51-72.55,1.17-108.8c1.16-25.12-0.87-50.24,0.32-75.39c1.34-28.28-0.9-56.62,0.39-84.93
		c0.32-6.97,2.11-13.95,1.86-20.87c-1.2-32.51,3.69-64.81,2.67-97.35c-0.79-25.28,2.17-50.55,3.16-75.82
		c0.61-15.73,0.35-31.61,0.04-47.42c-0.06-2.99-0.35-6-0.82-8.95c-1.79-11.16-6.74-15.85-18.02-17.28
		c-2.31-0.29-4.62-0.62-6.92-0.93c-0.24-0.96-0.77-1.96-0.66-2.89c1.54-12.58,0.53-25.21,0.54-37.81
		c0.01-7.04-0.94-14.04-4.04-20.68c-4.64-9.92-19.88-14.68-29.33-9.17c-9,5.25-13.25,13.13-13.43,23.14
		c-0.28,15.62-0.07,31.26-0.1,46.88c0,2.11,0.16,4.03,2.56,4.82c-2.08,0.58-4.2,1.04-6.22,1.78c-2.99,1.09-5.29,3.04-5.39,6.44
		c-0.44,15.64-3.52,31.06-4.1,46.67c-0.33,8.95,0.84,17.97,0.33,26.91c-0.93,16.27-3.3,32.48-3.83,48.75
		c-1.28,38.46,3.28,76.8,3.21,115.25c-0.01,4.32,0.37,8.64,0.57,12.96C99.96,388.34,99.95,410.67,99.94,433.01z"/>
	<path class="st1" d="M159.88,102.93c2.31,0.31,4.61,0.64,6.92,0.93c11.28,1.43,16.23,6.13,18.02,17.28
		c0.47,2.95,0.76,5.96,0.82,8.95c0.31,15.81,0.57,31.69-0.04,47.42c-0.99,25.27-3.95,50.54-3.16,75.82
		c1.02,32.54-3.86,64.84-2.67,97.35c0.25,6.92-1.54,13.9-1.86,20.87c-1.28,28.3,0.95,56.64-0.39,84.93
		c-1.19,25.15,0.84,50.27-0.32,75.39c-1.68,36.25-2.35,72.52-1.17,108.8c0.46,14.16,0.63,28.3,0.39,42.46
		c-0.36,21.02-3,41.83-4.99,62.71c-1.39,14.63-0.69,29.38,0.75,43.91c0.75,7.54,6.04,14.35,10.57,20.68
		c8.61,12.04,18.18,23.31,29.12,33.37c15.18,13.96,23.76,31.81,29.49,51.17c11.21,37.89,9.54,75.15-7.67,110.95
		c-13.79,28.68-35.2,49.15-67.39,55.67c-26.11,5.29-49.59-1.92-70.29-17.87c-29.02-22.36-44.22-52.91-50.28-88.43
		c-4.78-28.01-2.35-55.42,8.15-81.9c7.24-18.27,18.51-33.58,34.09-45.87c12.67-10,18.51-23.81,13.88-39.36
		c-5.57-18.74-5.34-37.66-6.34-56.75c-1.36-26,0.98-52.01-0.57-77.91c-2.36-39.65-0.01-79.3-1.36-118.92
		c-1.17-34.11,1.87-67.87,6.38-101.58c3.29-2.59,3.46-6.89,3.62-10.09c0.87-17.64,0.42-35.3-1.91-52.85
		c-0.19-1.41-1.1-2.72-1.68-4.07c-0.2-4.32-0.57-8.64-0.57-12.96c0.07-38.45-4.49-76.79-3.21-115.25
		c0.54-16.27,2.9-32.48,3.83-48.75c0.51-8.93-0.66-17.95-0.33-26.91c0.58-15.61,3.66-31.02,4.1-46.67c0.1-3.41,2.41-5.35,5.39-6.44
		c2.02-0.74,4.14-1.2,6.21-1.78c2.47-0.06,4.9-0.28,7.29-1.05c8.71-2.81,17.65-3.95,26.8-3.5
		C152.95,102.86,156.42,102.86,159.88,102.93z M146.97,1047c4.77,0,8.77-0.03,12.76,0.01c3.74,0.04,7.14-1.47,10.13-3.22
		c9.29-5.45,18.24-11.47,26.62-18.3c0.98-0.8,2.4-0.45,3.35-1.81c6.33-9.03,11.71-18.62,15.95-28.73
		c3.42-8.17,6.29-16.59,9.09-25.03c2.65-8.01,4.45-16.05,4.88-24.33c0.33-6.48,0.06-12.92-1.5-19.53
		c-1.65-7.04,0.03-14.69-2.28-21.97c-2.17-6.82-3.39-13.94-7.96-19.77c-3.96-5.05-12.54-4.89-15.97,0.39
		c-3.32,5.12-3.69,11.37-3.81,16.87c-0.24,10.75-1.42,21.36-2.41,32.02c-0.07,0.8-0.4,1.59-0.61,2.38
		c-1.78,6.86-3.57,13.71-5.35,20.57c-1.46,5.65-2.6,11.41-5.25,16.66c-4.71,9.31-11.78,16.87-18.6,24.59
		c-4.18,4.73-7.35,9.79-14.52,12.04c-8.15,2.55-16.03,3.2-24.25,3.14c-0.96-0.01-2.11-0.09-2.84-0.61
		c-5.33-3.81-10.74-7.53-15.77-11.72c-2.46-2.05-5.37-2.42-7.32-1.21c-2.09,1.3-4.07,4.3-3.3,7.12c1.7,6.19,2.96,12.67,7.87,17.5
		c6.27,6.16,12.42,12.44,18.65,18.63c1.15,1.15,2.6,1.77,4.11,2.47C134.89,1048.06,141.38,1046.54,146.97,1047z"/>
	<path class="st2" d="M159.88,102.93c-3.46-0.08-6.92-0.07-10.38-0.24c-9.15-0.45-18.09,0.68-26.8,3.5
		c-2.4,0.77-4.82,0.99-7.29,1.05c-2.4-0.79-2.56-2.71-2.56-4.82c0.03-15.63-0.18-31.26,0.1-46.88c0.18-10.01,4.43-17.89,13.43-23.14
		c9.45-5.51,24.69-0.76,29.33,9.17c3.1,6.63,4.05,13.64,4.04,20.68c-0.02,12.6,0.99,25.23-0.54,37.81
		C159.1,100.97,159.64,101.97,159.88,102.93z"/>
	<path class="st3" d="M99.97,366c0.58,1.36,1.49,2.67,1.68,4.07c2.33,17.55,2.78,35.21,1.91,52.85c-0.16,3.2-0.33,7.5-3.62,10.09
		C99.95,410.67,99.96,388.34,99.97,366z"/>
	<path class="st4" d="M146.97,1047c-5.59-0.46-12.09,1.06-18.32-1.84c-1.52-0.71-2.96-1.33-4.11-2.47
		c-6.23-6.19-12.39-12.47-18.65-18.63c-4.91-4.83-6.17-11.3-7.87-17.5c-0.77-2.82,1.21-5.82,3.3-7.12c1.95-1.22,4.86-0.85,7.32,1.21
		c5.03,4.18,10.44,7.91,15.77,11.72c0.73,0.52,1.88,0.61,2.84,0.61c8.22,0.06,16.1-0.59,24.25-3.14c7.18-2.25,10.34-7.3,14.52-12.04
		c6.83-7.72,13.89-15.28,18.6-24.59c2.65-5.25,3.79-11.01,5.25-16.66c1.77-6.86,3.56-13.71,5.35-20.57
		c0.21-0.79,0.54-1.57,0.61-2.38c0.98-10.66,2.17-21.27,2.41-32.02c0.12-5.5,0.48-11.75,3.81-16.87c3.43-5.28,12.01-5.44,15.97-0.39
		c4.57,5.83,5.79,12.95,7.96,19.77c2.31,7.28,0.63,14.94,2.28,21.97c1.55,6.61,1.83,13.05,1.5,19.53
		c-0.42,8.28-2.22,16.32-4.88,24.33c-2.8,8.44-5.66,16.86-9.09,25.03c-4.24,10.12-9.62,19.71-15.95,28.73
		c-0.95,1.36-2.37,1.01-3.35,1.81c-8.38,6.82-17.33,12.84-26.62,18.3c-2.98,1.75-6.39,3.26-10.13,3.22
		C155.74,1046.97,151.74,1047,146.97,1047z"/>
</g>
</svg>
