<?xml version="1.0" encoding="utf-8"?>
<!-- Generator: Adobe Illustrator 26.1.0, SVG Export Plug-In . SVG Version: 6.00 Build 0)  -->
<svg version="1.1" id="Layer_1" xmlns="http://www.w3.org/2000/svg" xmlns:xlink="http://www.w3.org/1999/xlink" x="0px" y="0px"
	 viewBox="0 0 268.47 1080" style="enable-background:new 0 0 268.47 1080;" xml:space="preserve">
<style type="text/css">
	.st0{fill:#A1D0F2;}
	.st1{fill:#990223;}
	.st2{fill:#83B3DF;}
	.st3{fill:#A7BBD5;}
	.st4{fill:#6F0023;}
</style>
<g>
	<path class="st0" d="M193.26,116.42c0,13.5-0.47,27.02,0.1,40.49c1.28,30.63,0.06,61.29,1.16,91.9
		c0.61,16.98-0.11,33.98,0.88,50.91c1.41,24.14-0.1,48.3,1.05,72.41c1.12,23.31-0.15,46.64,1,69.9c1.1,22.15-0.12,44.31,1.02,66.41
		c0.8,15.65,1.25,31.31,0.52,46.9c-1.49,31.43-1.28,62.88-2.12,94.31c-0.47,17.43-0.66,34.94-1.98,52.3
		c-1.48,19.45-1.78,38.86-1.68,58.31c0.07,13.62,1.93,27.13,3.1,40.68c0.18,2.09,0.87,4.38,2.03,6.1
		c9.04,13.39,16.57,27.57,29.91,38.09c15.45,12.17,23.1,29.7,27.17,49.06c3.16,15.05,3.1,29.94,1.97,45.06
		c-0.55,7.29-0.16,14.66-0.19,21.99c-0.05,10.32-1.7,20.55-3.54,30.59c-1.18,6.45-6.02,12.14-8.54,18.44
		c-8.05,20.05-23.09,34.19-40.55,45.3c-13.82,8.79-27.94,17.79-44.48,21.46c-16.85,3.74-33.46,2.31-49.66-2.57
		c-34.12-10.29-58.95-33-79.31-61.25c-7.76-10.76-9.02-23.93-12.95-36.13c-4.47-13.88-3.54-28.25-4.67-42.41
		c-0.62-7.78,0.51-15.56,2.98-23.06c0.62-1.89,1.48-3.84,1.51-5.77c0.26-17.04,9.76-29.94,19.02-42.94
		c9.64-13.54,20.13-26.37,32.15-37.89c3.74-3.59,3.81-8.53,3.93-13.01c0.94-32.93,3.42-65.85,1.99-98.79
		c-1.22-27.98-0.75-55.94-0.63-83.9c0.07-15.92,3.54-31.7,2.77-47.71c-1.8-37.62-0.4-75.27-1.12-112.89
		c-0.32-17.11-0.57-34.26-2.11-51.29c-1.15-12.73,1.08-25.15,1.19-37.72c0.15-17.66,0.07-35.33,0.13-52.99
		c0.02-5.64,1.15-11.22,0.95-16.9c-0.87-25.43-1.24-50.9-2.47-76.29c-0.67-13.97,1.6-27.69,0.58-41.59
		c-0.7-9.59-1.94-19.28-1.63-28.79c0.33-10.3,0.21-20.6,0.41-30.89c0.32-15.83,0.19-31.66,0.14-47.49
		c-0.05-15.31,2.48-30.43,3.12-45.7c0.16-3.89,3.76-6.11,5.86-9.03c6.92-9.64,16.01-16.8,26.65-21.81
		c5.9-2.78,12.55-2.63,18.99-3.35c16.82-1.87,31.59,3.59,45.17,12.51c6.63,4.35,9.87,11.83,12.87,19.13
		c5.06,12.33,7.22,25.15,7.21,38.4c-0.01,13.83,0,27.66,0,41.5C193.2,116.42,193.23,116.42,193.26,116.42z M165.2,225.08
		c0,0-0.02,0-0.02,0c-2.41-4.63-6.75-4.15-10.92-4.11c1.7-5.87,0-11.75,0-17.63c0.01-46.79,0.05-93.59-0.09-140.38
		c-0.02-7.41-0.81-14.8-4.26-21.67c-5.13-10.22-19.62-14.19-29.03-8.94c-9.86,5.5-13.64,14.26-13.64,25.08
		c-0.01,50.12-0.01,100.25-0.04,150.37c0,3.97-0.23,7.92-0.66,11.9c-0.37,3.42-1.9,7.93,2.74,10.34l0.01-0.01
		c-0.79-0.16-1.5-0.05-2.02,0.64c-1.46,0.35-2.9,0.78-4.37,1.02c-9.73,1.6-11.26,3.41-10.86,13.04c0.88,21.45,1.86,42.92,5.11,64.14
		c2.13,13.91,2.62,27.77,2.1,41.71c-0.54,14.61-1.47,29.2-0.38,43.84c0.84,11.27,4.04,22.3,3.32,33.72c0,7.49-0.55,15.04,0.15,22.47
		c0.7,7.39-2.75,14.66-0.15,21.99c0.16,0.44,0.17,1.09-0.05,1.47c-1.9,3.37-0.65,6.62-0.15,10.09c1.75,12.23-1.86,24.27-1.81,36.47
		c0,0.33,0.07,0.71-0.06,0.99c-1.98,4.25-3.89,10.86-3.83,13.86c0.08,3.71-0.79,7.74,3.36,10.2c0.48,0.28,0.59,1.53,0.55,2.31
		c-0.66,12.32,1.51,24.5,1.79,36.74c0.24,10.64,0.35,21.25-1.27,32.06c-2.29,15.24,0.6,30.98-2.32,46.43
		c-0.94,4.96-0.69,10.21-0.4,15.44c0.67,12.29,0.19,24.64,0.17,36.96c0,1.33,0.48,3.19-0.2,3.9c-2.41,2.48-0.74,4.41,0.31,6.52
		c-0.42,23.3-1.92,46.6-0.99,69.91c0.56,13.97-5.68,24.37-16.03,32.53c-18.59,14.66-30.27,33.79-36.93,56.11
		c-7.87,26.36-8.55,53-2.41,79.92c7.27,31.88,22.23,59.03,48.36,79.16c20.7,15.95,44.16,23.21,70.27,17.98
		c32.21-6.45,53.66-26.9,67.46-55.56c17.31-35.93,18.99-73.34,7.63-111.39c-5.73-19.19-14.23-36.88-29.24-50.75
		c-11.04-10.19-20.92-21.44-29.4-33.77c-6.78-9.84-11.41-20.22-11.47-33.16c-0.1-18.71,0.75-37.24,2.79-55.79
		c2.92-26.55,3.28-53.15,2.13-79.82c-0.69-15.8-1.01-31.65-0.72-47.46c0.46-25.44,2.63-50.88,2.12-76.28
		c-0.6-29.66,0.66-59.26,0.38-88.89c-0.16-16.99-1.24-34.03-0.19-50.94c1.14-18.45,2.7-36.85,2.41-55.35
		c-0.05-3.49,0.3-6.99,0.42-10.48c0.64-18.27,3.82-36.46,1.25-54.84c-0.99-7.08-1.19-14.27-1.75-21.4
		C174,227.9,171.57,225.06,165.2,225.08z"/>
	<path class="st1" d="M102.18,428.13c0.72-11.42-2.49-22.45-3.32-33.72c-1.08-14.63-0.16-29.22,0.38-43.84
		c0.52-13.94,0.03-27.8-2.1-41.71c-3.25-21.21-4.22-42.69-5.11-64.14c-0.4-9.63,1.13-11.43,10.86-13.04
		c1.47-0.24,2.91-0.68,4.37-1.02c0.8,0.18,1.56,0.24,2.02-0.64c0,0-0.01,0.01-0.01,0.01c5.81-1.21,11.48-2.85,16.98-5.08
		c3.84,0.01,7.46-1.04,11.05-2.22c5.95-0.03,11.9-0.06,17.86-0.09c3.33,0.83,6.46,2.53,10.02,2.43c0,0,0.02,0,0.02,0
		c4.21,2.56,7.56,5.86,9.12,10.68c0.56,7.14,0.76,14.33,1.75,21.4c2.57,18.37-0.61,36.57-1.25,54.84c-0.12,3.5-0.48,6.99-0.42,10.48
		c0.29,18.5-1.27,36.9-2.41,55.35c-1.04,16.91,0.04,33.96,0.19,50.94c0.28,29.63-0.98,59.24-0.38,88.89
		c0.51,25.4-1.66,50.85-2.12,76.28c-0.29,15.81,0.03,31.66,0.72,47.46c1.16,26.67,0.8,53.27-2.13,79.82
		c-2.04,18.54-2.88,37.08-2.79,55.79c0.07,12.94,4.7,23.32,11.47,33.16c8.48,12.32,18.37,23.58,29.4,33.77
		c15.02,13.86,23.52,31.56,29.24,50.75c11.36,38.05,9.68,75.46-7.63,111.39c-13.8,28.66-35.25,49.11-67.46,55.56
		c-26.1,5.23-49.56-2.02-70.27-17.98c-26.13-20.13-41.09-47.28-48.36-79.16c-6.14-26.92-5.47-53.56,2.41-79.92
		c6.67-22.32,18.34-41.44,36.93-56.11c10.35-8.16,16.59-18.56,16.03-32.53c-0.93-23.31,0.57-46.61,0.99-69.91
		c1.63-6.73,0.66-13.58,0.8-20.37c0.35-17.26,0.21-34.52,1.82-51.76c0.63-6.74,0.4-13.63,0.65-20.45
		c0.61-16.58,3.41-33.05,1.79-49.77c-1.2-12.41-0.11-25.1-2-37.37c-1.66-10.8-0.76-21.17,0.53-31.7
		c2.08-17.02,0.55-34.15,1.67-51.21c0.49-7.56-0.57-15.28-0.12-22.94C103.66,436.29,103.59,432.14,102.18,428.13z M141.7,1047.03
		c7.69-0.22,15.19,0.99,22.05-3.03c9.07-5.3,17.75-11.17,25.99-17.65c1.43-1.12,3.3-1.01,4.49-2.76
		c6.28-9.25,11.76-18.91,16.13-29.2c3.79-8.94,6.97-18.1,9.87-27.36c2.2-7.03,3.84-14.23,3.9-21.58c0.05-6.34-0.61-12.67-1.38-19.02
		c-1.18-9.75-1.53-19.48-4.31-29.07c-1.56-5.36-3.79-10.12-7.22-14.26c-3.27-3.94-11.92-3.03-14.64,1.37
		c-3.45,5.58-4.1,12.23-4.05,18.31c0.09,10.48-1.08,20.8-2.57,31.01c-1.22,8.4-3.77,16.71-6.1,24.92c-1.37,4.8-2.07,9.89-4.66,14.44
		c-5.15,9.05-11.98,16.74-18.69,24.57c-4.38,5.11-8.12,10.11-15.41,12.49c-8.17,2.67-16.11,2.7-24.29,2.78
		c-1.28,0.01-2.08-0.73-3.03-1.45c-5.22-3.96-10.49-7.87-15.81-11.69c-2.75-1.97-6.2-0.79-8.04,2.05
		c-3.72,5.74-0.24,10.95,1.98,15.37c5.2,10.39,15.17,16.94,22.94,25.28c1.18,1.27,3.05,1.81,4.69,2.59
		C129.57,1048.01,135.87,1046.58,141.7,1047.03z"/>
	<path class="st2" d="M126.25,224.96c-5.5,2.23-11.17,3.87-16.98,5.08c-4.64-2.41-3.11-6.92-2.74-10.34
		c0.43-3.98,0.66-7.93,0.66-11.9c0.03-50.12,0.03-100.25,0.04-150.37c0-10.83,3.78-19.59,13.64-25.08
		c9.42-5.25,23.91-1.28,29.03,8.94c3.44,6.86,4.23,14.26,4.26,21.67c0.14,46.79,0.1,93.58,0.09,140.38c0,5.88,1.7,11.75,0,17.63
		c-8.59,0.15-17.25-0.61-25.67,2C127.38,223.35,126.39,223.53,126.25,224.96z"/>
	<path class="st3" d="M102.18,428.13c1.41,4.01,1.48,8.15,1.23,12.33c-0.45,7.66,0.61,15.38,0.12,22.94
		c-1.12,17.07,0.41,34.2-1.67,51.21c-1.29,10.53-2.19,20.9-0.53,31.7c1.88,12.27,0.8,24.96,2,37.37
		c1.62,16.73-1.19,33.19-1.79,49.77c-0.25,6.82-0.02,13.71-0.65,20.45c-1.61,17.24-1.47,34.5-1.82,51.76
		c-0.14,6.79,0.83,13.63-0.8,20.37c-1.04-2.11-2.72-4.04-0.31-6.52c0.68-0.7,0.2-2.57,0.2-3.9c0.02-12.32,0.5-24.67-0.17-36.96
		c-0.28-5.23-0.54-10.47,0.4-15.44c2.92-15.45,0.04-31.19,2.32-46.43c1.62-10.81,1.51-21.42,1.27-32.06
		c-0.28-12.24-2.45-24.42-1.79-36.74c0.04-0.78-0.07-2.03-0.55-2.31c-4.15-2.46-3.28-6.48-3.36-10.2c-0.06-3,1.85-9.61,3.83-13.86
		c0.13-0.28,0.06-0.66,0.06-0.99c-0.05-12.2,3.55-24.24,1.81-36.47c-0.5-3.47-1.75-6.73,0.15-10.09c0.22-0.39,0.21-1.04,0.05-1.47
		c-2.61-7.33,0.85-14.6,0.15-21.99C101.63,443.17,102.18,435.63,102.18,428.13z"/>
	<path class="st3" d="M126.25,224.96c0.15-1.42,1.13-1.61,2.34-1.98c8.42-2.62,17.07-1.85,25.67-2c4.17-0.04,8.51-0.52,10.92,4.11
		c-3.56,0.1-6.68-1.6-10.02-2.43c-5.96-1.02-11.91-1.13-17.86,0.09C133.71,223.91,130.08,224.97,126.25,224.96z"/>
	<path class="st3" d="M174.32,235.76c-1.57-4.82-4.91-8.12-9.12-10.68C171.57,225.06,174,227.9,174.32,235.76z"/>
	<path class="st2" d="M109.28,230.03c-0.46,0.89-1.22,0.82-2.02,0.64C107.78,229.98,108.49,229.87,109.28,230.03z"/>
	<path class="st4" d="M141.7,1047.03c-5.83-0.45-12.13,0.98-18.17-1.89c-1.64-0.78-3.51-1.32-4.69-2.59
		c-7.77-8.34-17.73-14.89-22.94-25.28c-2.21-4.42-5.69-9.63-1.98-15.37c1.84-2.84,5.29-4.02,8.04-2.05
		c5.32,3.82,10.59,7.73,15.81,11.69c0.95,0.72,1.75,1.47,3.03,1.45c8.18-0.08,16.12-0.11,24.29-2.78
		c7.29-2.38,11.03-7.38,15.41-12.49c6.71-7.83,13.54-15.52,18.69-24.57c2.59-4.55,3.29-9.64,4.66-14.44
		c2.34-8.21,4.88-16.51,6.1-24.92c1.49-10.22,2.66-20.54,2.57-31.01c-0.05-6.08,0.6-12.73,4.05-18.31
		c2.72-4.4,11.36-5.31,14.64-1.37c3.44,4.14,5.67,8.89,7.22,14.26c2.78,9.59,3.13,19.33,4.31,29.07c0.77,6.36,1.43,12.68,1.38,19.02
		c-0.06,7.35-1.7,14.55-3.9,21.58c-2.9,9.26-6.07,18.42-9.87,27.36c-4.37,10.29-9.85,19.96-16.13,29.2
		c-1.19,1.75-3.06,1.63-4.49,2.76c-8.24,6.48-16.93,12.35-25.99,17.65C156.89,1048.02,149.39,1046.81,141.7,1047.03z"/>
	<path class="st2" d="M137.3,222.73c5.95-1.22,11.9-1.11,17.86-0.09C149.2,222.68,143.25,222.7,137.3,222.73z"/>
</g>
</svg>
