<?xml version="1.0" encoding="utf-8"?>
<!-- Generator: Adobe Illustrator 26.0.3, SVG Export Plug-In . SVG Version: 6.00 Build 0)  -->
<svg version="1.1" id="Layer_1" xmlns="http://www.w3.org/2000/svg" xmlns:xlink="http://www.w3.org/1999/xlink" x="0px" y="0px"
	 viewBox="0 0 2434.2 1890.99" style="enable-background:new 0 0 2434.2 1890.99;" xml:space="preserve">
<style type="text/css">
	.st0{fill:#38A48B;}
	.st1{fill:#25245F;}
	.st2{fill:#3F215A;}
	.st3{fill:#1B597A;}
	.st4{fill:#168E96;}
	.st5{fill:#E0E3E8;}
	.st6{fill:#7B83AF;}
	.st7{fill:#32327C;}
	.st8{fill:#402669;}
</style>
<g>
	<path class="st0" d="M2432.94,1141.46c0,251.81,0,503.62,0,755.52c-810.53,0-1621.05,0-2431.58,0c0-258.57,0-517.04,0-775.51
		c5.6-1.05,9.21-5.28,13.11-8.72c12.72-11.22,25.42-22.47,37.36-34.54c5.37-5.42,11.12-10.54,17.17-15.19
		c7.17-5.52,8.1-7.91,4.24-16.26c-0.69-1.5-1.6-2.94-2.11-4.5c-1.68-5.13-0.76-6.76,4.79-6.84c17.44-0.25,33.22-6.19,48.63-13.53
		c21.39-10.19,41.76-22.09,60.67-36.42c23.12-17.51,45.23-36.15,63.55-58.81c9.87-12.22,18.74-25.03,22.01-40.9
		c1.26-6.08,3.03-6.63,8-3.23c6.17,4.23,10.22,10.34,14.36,16.42c4.28,6.3,6.39,6.34,13.17,3.08c17.38-8.37,34.85-16.57,52.37-24.65
		c20.85-9.61,42.28-17.85,63.47-26.65c20.44-8.49,40.76-16.07,63.13-17.11c7.93-0.37,9.52-4.58,4.92-11.2
		c-8.38-12.05-6.75-23.74,4.63-33.16c0,0,0.72,0.6,0.72,0.6c-0.04,0.66,0.02,1.36-0.15,1.99c-2.41,8.64,2.75,16.11,4.54,23.92
		c0.79,3.44,8.59-1.34,12.91,1.33c0.82,0.51,1.88,0.66,2.85,0.91c8.07,2.13,16.21,3.53,24.62,3.73c18.37,0.44,36.56-0.8,54.67-4.05
		c47.94-8.61,93.79-23.37,135.71-48.39c15.07-8.99,32.04-17.12,38.61-35.81c0.21-0.6,0.66-1.18,1.13-1.63
		c2.37-2.27,4.76-2.42,6.68,0.43c1.1,1.63,1.8,3.55,2.59,5.37c6.19,14.21,10.21,28.81,8.21,44.55c-0.35,2.76-0.04,5.63,3.09,6.59
		c3.21,0.98,4.85-1.37,6.07-3.89c1.03-2.11,1.96-4.58,4.57-4.87c12.89-1.39,24.98-7.07,38.27-6.53c33.32,1.35,66.55-2.14,99.85-2.32
		c10.3-0.06,20.62-0.95,30.88-1.93c31.81-3.04,63.63-5.54,95.63-5.45c45.98,0.14,91.96-0.1,137.94-0.18c2.33,0,4.67,0.1,7-0.05
		c7.77-0.51,11.41-3.76,11.91-11.66c0.38-5.99,2.96-10.89,6.2-15.53c4.38-6.29,8.2-6.37,12.03,0.21
		c9.45,16.23,23.86,26.65,40.08,34.92c46.7,23.83,97.1,31.71,148.75,33.94c13,0.56,25.92-0.75,38.88-1.7
		c24.82-1.81,48.98-6.55,71.4-17.38c18.99-9.17,34.61-21.82,34.57-45.8c0-0.33,0.07-0.66,0.14-0.99c0.55-2.61,2.07-3.24,4.31-1.94
		c2.36,1.37,4.14,3.4,5.41,5.76c3.04,5.68,4.58,11.74,4.47,18.23c-0.14,8.66-0.39,17.32-0.12,25.97c0.19,6.31,2.41,8.8,8,9.62
		c6.58,0.96,13.23,2.25,19.83,2.1c27.86-0.62,54.82,6.33,82.24,9.35c22.96,2.53,44.61,10.74,66.75,16.82
		c21.17,5.81,41.94,12.94,63.65,17.05c17.62,3.34,35.06,8.21,52.08,13.91c21.19,7.09,42.24,13.95,64.84,14.8
		c7.03,0.26,12.44-1.74,16.13-7.7c1.75-2.82,3.32-5.79,4.61-8.85c4.76-11.28,12.12-20.36,21.38-28.4
		c7.67-6.66,15.68-8.16,24.97-5.37c5.1,1.53,10.18,3.17,15.26,4.75c-7.56,3.57-15.63,4.05-23.8,3.99c-3.72-2.58-6.31,0-8.77,2.15
		c-12.53,10.92-14.64,25.26-5.46,39.32c6.04,9.25,11.49,18.32,22.35,24.19c14.03,7.58,27.52,16.26,42.45,21.99
		c27.81,10.67,56.51,17.17,86.46,18.62c19.1,0.92,37.79,0.49,56.21-5.07c8.31-2.51,12.01,1.05,10.36,9.66
		c-0.49,2.57-1.83,4.98-2.69,7.49c-1.72,5.03-4.53,9.64-5.5,14.96c-2.18,12.04,0.21,16.04,12.13,18.11
		c8.77,1.52,16.48,4.9,23.5,10.27c32.72,25.07,67.36,47.72,96.8,76.94c5.1,5.07,9.02,4.05,12.54-2.44
		c2.38-4.39,4.21-9.11,6.94-13.26c12.15-18.5,29.81-29.29,50.43-17.12c-3.42,4.93-8.69,6.59-14.12,7.94
		c-0.05-1.63,0.23-3.4-1.26-4.59c-1.89-1.5-3.86-0.76-5.52,0.33c-7.23,4.78-9.77,12.07-10.96,20.24
		c-1.89,12.96,2.9,23.86,9.54,34.48C2393.64,1114.68,2411.63,1129.86,2432.94,1141.46z M293.28,1231.38
		c6.07,4.37,11.05,9.57,19.59,10.8c18.23,2.63,36.17,5.35,54.19-0.63c0.93-0.31,1.99-0.19,2.97-0.35
		c21.7-3.43,43.31-7.43,64.58-12.91c40.69-10.49,80.45-23.76,118.62-41.45c21.17-9.81,41.75-20.67,60.06-35.41
		c3.54-2.85,6.11-7.06,11.71-8.9c4.33,14.8,14.41,26.24,20.89,39.68c2.84,5.9,7.26,10.34,12.34,14.16c4.38,3.29,8.38,3.16,10.6-0.08
		c2.77-4.03,0.33-6.86-2.65-9.35c-3.58-2.99-7.56-5.7-9.87-9.8c-4.27-7.59-9.83-14.23-14.86-21.25
		c-6.1-8.51-11.14-17.86-11.63-28.29c-0.53-11.15-6.51-16.18-16.05-18.63c-7.74-1.99-15.62-3.35-23.67-3.25
		c-22.03,0.27-43.84,3.04-65.27,7.76c-21.02,4.62-42.14,8.56-62.31,17.22c-15.13,6.5-31.8,9.69-47.43,15.38
		c-34.15,12.43-67.69,26.2-97.92,46.87c-6.66,4.56-12.5,9.93-17.96,15.78c-6.06,6.49-9.23,13.81-5.84,22.77
		c-3.53-1.86-6.99-2.17-7.04,2.9c-0.17,15.62,0.3,31.25-8.37,45.32c-1.22,1.99-1.14,4.77,1.27,6.22c2.52,1.51,4.51-0.17,5.96-2.07
		c3.32-4.33,4.59-9.5,5.94-14.69C294.41,1256.69,292.31,1243.96,293.28,1231.38z M1763.1,1117.58c0.32,4.42-1.75,9.94,3.09,12.64
		c5.72,3.19,10.46,8,16.8,10.07c3.31,1.08,6.54,3.5,10.23,1.02c0.64,0.2,1.32,0.3,1.9,0.6c34.5,18.46,71.01,31.71,108.63,42.2
		c39.48,11.01,79.31,19.95,120.22,23.77c19.63,1.84,39.13,2.77,58.62-0.94c8.06-1.54,8-1.44,11.74,6.45
		c5.28,11.12,10.15,22.45,16.79,32.87c2.14,3.36,4.39,6.76,8.42,8.21c3.46,1.24,6.61,0.69,9.06-2.18c2.14-2.51,2.53-5.41,0.98-8.36
		c-0.77-1.46-1.83-2.78-2.85-4.08c-8.5-10.79-14-23.38-21.1-35.02c-2.2-3.6-3.04-7.15-0.92-11.27c3.9-7.6,0.7-14.31-3.62-20.45
		c-3.26-4.63-7.55-8.43-12.22-11.67c-8.75-6.07-17.7-11.8-27.25-16.61c-25.95-13.06-53.28-22.64-80.66-32.02
		c-12.86-4.41-26.03-8.07-39.27-11.22c-20.38-4.85-41.49-5.23-61.95-10.06c-21.73-5.14-44.12-5.87-66.31-7.58
		c-13.02-1.01-25.89,0.8-38.53,3.99C1759.8,1091.73,1753.86,1104.32,1763.1,1117.58z M678.38,1625.6c0.9,4.36,1.54,7.6,2.23,10.83
		c6.33,29.41,22.82,53.04,43.35,73.99c25.16,25.68,54.87,45.33,86.43,62.22c47.49,25.4,97.51,44.5,149.16,59.52
		c37.43,10.89,75.29,19.97,113.55,27.53c29.41,5.81,59.13,9.61,88.6,14.96c36.09,6.55,72.5,10.13,109.03,11.94
		c27.58,1.36,55.24,1.49,82.87,2.15c55.94,1.32,111.81-0.87,167.62-5.3c23.23-1.84,46.43-3.95,69.5-6.91
		c58.16-7.45,115.82-17.86,172.28-34.03c60.14-17.23,118.31-39.08,170.39-74.67c19.33-13.21,36.87-28.52,51.24-47.15
		c5.42-7.03,10.26-14.51,15.27-21.65c2.91,0.9,2.94,3.17,3.64,4.95c10.44,26.3,20.2,52.88,31.78,78.72
		c2.88,6.44,6.19,12.6,11.58,17.28c4.33,3.76,9.39,4.09,12.76,1.27c3.56-2.98,3.7-6.98-0.57-12.33c-4.02-5.02-6.68-10.7-9.58-16.32
		c-8.58-16.59-15.39-33.96-22.78-51.07c-5.42-12.53-11.29-24.85-15.41-37.92c-1.75-5.54-2.34-10.82-0.93-16.62
		c2.54-10.4,3.13-20.97,1.56-31.7c-4.4-30.13-18.72-55.13-38.98-77.25c-26.69-29.14-58.99-50.76-93.48-69.27
		c-46.86-25.16-96.55-43.39-147.43-58.46c-9.21-2.73-18.45-5.62-28.38-4.96c-3.18,0.21-6.51-1.17-9.72-2
		c-29.6-7.71-59.11-15.62-89.26-21.18c-62.58-11.54-125.56-19.76-188.98-24.32c-32.84-2.36-65.81-3.38-98.74-4.1
		c-21.27-0.47-42.58-0.79-63.89,1.14c-17.2,1.56-34.56,0.91-51.87,1.94c-36.89,2.19-73.61,5.61-110.25,10.26
		c-49.28,6.26-97.98,15.48-146.04,27.97c-54.35,14.13-106.99,32.79-156.44,59.74c-28.58,15.58-54.72,34.44-76.36,58.9
		c-15.85,17.92-27.85,38.15-32.85,61.95c-0.27,1.29-0.29,3.06-1.13,3.73c-6.2,4.97-5.83,12.3-7.1,19.02
		c-2.16,11.47-4.56,22.9-8.91,33.75c-5.57,13.92-9.64,28.35-14.61,42.45c-14.05,39.84-27.11,80.12-46.62,117.82
		c-1.36,2.63-2.45,5.49-3.11,8.37c-0.62,2.7,0.12,5.38,2.7,7c2.8,1.76,5.71,1.57,8.5-0.1c2.08-1.25,3.42-3.19,4.34-5.36
		c7.63-18.08,17.47-35.23,22.53-54.39c1.61-6.09,3.79-12.07,6.17-17.91c4.41-10.82,7.46-22.08,11.34-33.05
		c6.78-19.17,9.01-39.57,16.72-58.49c2.99-7.33,4.55-15.3,5.42-23.3C675.78,1632.26,676.16,1629.27,678.38,1625.6z M283.49,1651.17
		c29.51,1.23,62.28-1.35,94.98-5.78c35.14-4.76,69.53-12.3,101.91-27.09c10.25-4.68,20.02-10.73,26.1-20.98
		c5.02-8.47,3.74-19.48-2.65-26.68c-6.14-6.92-13.8-11.29-22.11-14.99c-10.43-4.65-21.44-7.51-32.47-9.68
		c-26.78-5.26-53.96-8-81.23-8.5c-21.26-0.39-42.52-0.4-63.85,1.32c-17.57,1.42-35.11,3.23-52.56,5.29
		c-27.08,3.2-53.85,8.81-79.9,17.16c-15.88,5.09-31.03,11.71-44.53,21.95c-12.64,9.6-16.04,25.07-1.35,37.97
		c7.72,6.77,16.53,11.22,25.99,14.44c29.21,9.96,59.57,13.72,90.19,15.44C254.64,1651.76,267.33,1651.17,283.49,1651.17z
		 M1620.72,1037.49c6.99,0,13.99,0.27,20.97-0.05c15.76-0.73,31.09-3.77,45.23-10.94c19.47-9.86,21.67-30.73,5.05-44.81
		c-0.51-0.43-1.04-0.83-1.57-1.23c-11.23-8.45-23.42-15.04-36.7-19.76c-12.58-4.47-25.43-7.9-38.47-10.51
		c-14.66-2.94-29.51-6.32-44.48-4.33c-11.3,1.51-22.53,1.67-33.81,1.65c-16.71-0.02-32.36,4.66-46.96,12.01
		c-15.15,7.63-16.49,25.37-6.27,36.03c11.98,12.48,26.84,19.72,42.37,25.48C1556.52,1032.31,1588.07,1038.4,1620.72,1037.49z
		 M1078.12,861.78c-12.68,1.2-33.1-0.87-53.76,3.12c-21.04,4.07-43.03,3.54-64.43,6.81c-28.34,4.34-56.51,9.4-83.56,19.34
		c-9.12,3.35-17.96,7.29-25.7,13.17c-11.65,8.84-11.22,20.35,0.72,28.63c0.82,0.57,1.62,1.19,2.5,1.65
		c16.39,8.63,34.15,14.18,52.16,16.24c16.72,1.92,33.82,2.63,50.79,2.79c37.3,0.35,74.53,0.17,111.74-3.65
		c30.19-3.1,60.1-7.43,89.65-14.29c15.93-3.7,31.5-8.51,46.29-15.66c7.09-3.43,7.46-3.16,12.01,3.59c1.12,1.66,2.14,3.37,3.17,5.09
		c8.7,14.58,17.41,29.16,26.04,43.78c1.81,3.07,3.85,6.04,7.78,4.34c4.39-1.89,3.99-5.81,2.28-9.37c-1.57-3.28-3.53-6.4-5.56-9.43
		c-9.09-13.56-18.25-27.06-27.41-40.57c-2.1-3.1-3.57-5.68-1.35-9.91c6.85-13.02,4.48-20.51-8.1-28.27
		c-11.02-6.8-23.54-9.07-35.96-11.46C1147.16,861.89,1116.59,860.73,1078.12,861.78z M2248.35,1561.27c7.39,0,12.73-0.08,18.05,0.02
		c18.91,0.35,37.01-3.45,54.53-10.4c16.59-6.58,24.85-17.87,24.03-32.72c-0.54-9.84-6.12-17.06-13.25-22.55
		c-10.79-8.31-22.53-15.36-35.42-20.19c-33.09-12.4-67.39-17.7-102.62-18.25c-9.73-0.15-19.24,1.31-28.82,2.2
		c-18.45,1.71-35.66,6.3-50.54,18.75c-15.5,12.98-13.3,29.72-2.82,40.84c12.29,13.03,27.63,20.72,43.98,26.63
		C2186.12,1556.68,2217.66,1562.79,2248.35,1561.27z M551.53,991.59c21.86,1.26,42.91-4.83,62.11-9.91
		c9.76-2.58,18.64-7.24,27.3-12.18c10.72-6.11,10.84-13.47,0.8-20.35c-15.02-10.28-31.56-12.01-48.7-7.64
		c-12.59,3.21-24.9,6.66-38.18,6.31c-9.26-0.24-18.53,2.17-27.2,5.7c-10.13,4.13-14.35,13.45-12.22,25.58
		c1.19,6.78,8.53,11.75,18.4,12.41c1.33,0.09,2.66,0.07,4,0.07C542.5,991.59,547.17,991.59,551.53,991.59z M105.34,1203.34
		c3.87,0.12,7.78-0.35,11.68-1.51c17.02-5.08,32.86-12.61,47.86-22.1c14.7-9.31,27.69-20.61,40.25-32.57
		c10.68-10.16,20.19-21.11,27.25-34.07c3.22-5.91,5.31-12.19,4.91-19.09c-0.5-8.69-3.63-12.55-12.25-14.55
		c-8.03-1.86-16.02-0.62-23.58,1.85c-13.95,4.56-27.02,11.17-39.7,18.6c-22.48,13.19-38.98,32.98-56.65,51.4
		c-5.92,6.16-10.7,13.68-14.85,21.21C83.3,1185.17,86.75,1204.96,105.34,1203.34z M2305.61,1167.55c-2.99,0-6-0.19-8.98,0.03
		c-14.99,1.13-26.79,7.49-33.43,21.49c-3.72,7.84-3.07,15.34,2.69,22.34c5,6.07,10.87,10.29,18.41,12.94
		c10.75,3.79,21.63,3.78,32.51,2.41c11.47-1.44,21.71-5.78,29.26-15.35c7.05-8.95,6.61-20.37-0.84-28.91
		C2334.59,1170.3,2320.64,1167.65,2305.61,1167.55z M1148.98,1149.55c-6.29,0.19-12.54,0.06-18.86,1.07
		c-20.91,3.33-40.15,11.15-59,20.35c-3.35,1.64-6.18,3.85-9.14,5.97c-6.83,4.9-9.91,11.5-8.63,19.86
		c1.19,7.76,7.17,10.82,13.7,12.84c14.37,4.46,28.81,5.95,44.08,4.3c20.08-2.17,39.15-7.1,57.69-14.74
		c9.17-3.78,16.58-9.85,22.62-17.5c5.51-6.97,4.62-13.92-1.44-20.52c-4.74-5.15-10.68-7.82-17.29-9.25
		C1164.91,1150.24,1157.05,1148.8,1148.98,1149.55z M1753.87,1102.73c-0.63-2.79-2.4-3.41-4.49-2.61
		c-5.06,1.94-9.05,5.51-12.97,9.14c-9.97,9.24-18.99,19.59-30.81,26.71c-2.89,1.74-4.4,4.33-2.64,7.55
		c1.91,3.47,5.12,4.21,8.55,2.42c2.33-1.21,4.66-2.7,6.46-4.58c11.29-11.75,22.45-23.63,33.62-35.49
		C1752.48,1104.93,1753.13,1103.76,1753.87,1102.73z M811.27,974.13c0.13,1.65,0.12,2.66,0.31,3.62c0.49,2.4,1.49,4.71,4.31,4.62
		c3.19-0.1,3.36-2.8,3.21-5.13c-0.42-6.49,1.87-12.38,3.8-18.36c3.15-9.77,6.32-19.53,9.36-29.33c0.49-1.58,0.35-3.53-1.88-3.85
		c-1.48-0.21-2.2,1.08-2.73,2.35c-5.48,13.14-11.06,26.25-15.2,39.9C811.8,970.15,811.58,972.48,811.27,974.13z"/>
	<path class="st1" d="M2432.94,785.64c0,85.96,0,171.91,0,257.87c-5.17-3.21-8.75-8.15-13.19-12.15
		c-20.66-18.66-49.73-19.18-67.61,1.83c-3.24,3.81-6.57,7.43-9.01,11.88c-4.14,7.56-4.67,7.68-11.83,2.16
		c-8.17-6.29-15.86-13.21-24.14-19.33c-19.27-14.25-38.78-28.18-58.19-42.24c-9.44-6.84-18.63-14.13-31.17-14.41
		c-3.85-0.09-5.29-2.88-4.12-6.31c1.6-4.72,3.28-9.51,5.72-13.82c5.54-9.79,4.56-19.08-1.07-28.29c-2.95-4.82-6.94-9.07-8.7-14.53
		c-2.26-7.01-6.53-12.16-12.63-16.17c-2.74-1.81-5.11-4.29-7.33-6.75c-4.55-5.05-10.02-8.59-16.12-11.53
		c-12.59-6.08-25.22-12.1-36.27-20.94c-12.09-9.68-25.86-17.01-40.57-20.91c-26.36-7-51.97-16.49-78.39-23.09
		c-14.01-3.5-27.79-2.77-38.73,9.15c-6.75,7.36-13.66,14.69-21.26,21.12c-13.46,11.39-28.22,16.36-46.14,9.57
		c-17.09-6.48-34.7-11.72-52.35-16.55c-20.52-5.61-41.56-9.15-62.01-15.16c-21.39-6.28-42.89-12.19-64.34-18.27
		c-14.78-4.18-29.96-5.9-45.14-7.97c-23.11-3.15-46.15-6.41-69.56-5.13c-1.99,0.11-4,0.1-6,0.06c-8.85-0.18-11.13-2.12-9.18-10.82
		c2.7-12.06-0.2-23.03-3.83-34.21c-2.27-7-6.55-12.1-12.16-16.61c-20.69-16.64-45.52-23.42-70.71-28.07
		c-20.22-3.73-41.06-4.69-61.07-9.45c-22.61-5.38-45.28-7.07-68.32-6.87c-10.63,0.09-21.33-1.56-31.88-0.77
		c-15.41,1.16-30.55-1.1-45.74-2.25c-10.67-0.81-21.28-0.91-31.91-0.67c-5.38,0.12-10.57,1.93-14.96,5.11
		c-21.58,15.58-41.22,32.88-49.79,59.34c-1.7,5.25-4.78,7.64-10.26,7.38c-3.99-0.19-8,0.04-11.99-0.03
		c-57.96-0.98-115.86,2.44-173.82,2.19c-12.54-0.06-25.25,1.15-37.8,2.43c-14.9,1.53-29.71,3.63-44.74,3.29
		c-6.99-0.16-14.09-0.54-20.97,0.4c-19.84,2.72-39.85,1.86-59.76,3.12c-15.34,0.97-30.51,0.96-45.11,6.79
		c-7.19,2.87-8.87,1.46-9.57-6.14c-1.32-14.23-6.66-27.04-13.67-39.26c-2.36-4.12-5.35-7.47-10.29-8.83
		c-18.4-5.07-37.29-6.84-56.2-7.78c-20.65-1.03-41.23,1.6-61.64,4.42c-30.43,4.21-60.09,11.89-88.93,22.58
		c-22.26,8.26-43.44,18.6-62.86,32.42c-9.03,6.42-17.12,13.85-23.49,22.83c-5.21,7.34-9.86,15.53-7.72,25.01
		c1.9,8.38-0.71,11.38-9.7,12.08c-11.52,0.9-22.35,4.19-32.43,9.39c-10.71,5.52-22.02,9.44-33.09,14c-4,1.65-8.02,3.25-11.99,4.96
		c-25.08,10.82-49.52,22.96-73.61,35.81c-8.44,4.5-8.64,4.33-14.53-2.9c-12.82-15.72-29.13-23.26-49.59-23.23
		c-18.91,0.03-36.03,5.79-52.73,13.6c-31.42,14.69-58.63,35.33-83.25,59.54c-4.53,4.45-9.03,8.83-14.67,11.92
		c-14.57,7.96-24.43,20.27-31.64,34.88c-9.16,18.55-11.6,38.18-7.34,58.29c1.57,7.42-0.95,11.74-5.78,16.57
		c-16.01,16.01-32.81,31.25-47.6,48.46c-1.38,1.61-3.12,2.44-5.13,2.83c0-364.48,0-728.96,0-1093.44c2.37-3.11,3.04-7.24,6-9.99
		c808.53,0,1617.05,0,2425.58,0c0,250.54,0,501.08,0,751.62c-5.55-1.62-9.84-5.34-14.57-8.41c-7.85-5.1-13.72-12.55-21.49-17.66
		c-19.9-13.08-35.91-30.43-52.42-47.24c-7.68-7.82-13.14-17.91-22.6-23.82c-15.5-9.69-31.52-18.6-48.2-26.06
		c-18.15-8.12-36.46-15.84-55.49-22c-14.74-4.77-28.92-11.23-43.82-15.91c-18.64-5.85-36.91-12.94-56.02-17.24
		c-8.47-1.9-16.5-5.51-24.9-7.04c-12.77-2.33-24.91-6.65-37.42-9.75c-10.02-2.48-19.96-5.26-29.92-7.99
		c-4.48-1.23-9.23-0.42-13.68-2.46c-7.61-3.49-15.94-4.81-24.11-6.04c-23.03-3.49-45.35-10.21-68.2-14.59
		c-19.18-3.68-38.18-8.93-57.31-12.89c-12.97-2.69-25.9-5.62-38.78-8.67c-15.83-3.75-31.61-8.09-47.51-11.2
		c-16.32-3.19-32.46-6.4-48.02-12.31c-1.21-0.46-2.63-0.52-3.95-0.48c-11.81,0.38-22.82-3.88-34.14-6.16
		c-16.92-3.41-33.7-7.43-50.75-10.32c-8.79-1.49-17.77-2.67-26.28-5.24c-5.43-1.64-10.85-3.36-16.39-4.05
		c-20.15-2.48-39.63-8.3-59.62-11.7c-19.6-3.33-39.06-7.66-58.72-10.91c-33.45-5.52-66.83-11.49-100.32-16.79
		c-13.8-2.18-27.33-5.7-41.29-7.1c-18.5-1.86-36.86-5.11-55.36-7.04c-17.17-1.79-34.17-5.55-51.59-4.8c-4,0.17-7.93-0.56-11.9-1.09
		c-13.83-1.82-27.68-3.76-41.58-4.69c-14.58-0.98-29.21-0.75-43.84-1.68c-21.21-1.35-42.44-2.52-63.65-3.82
		c-22.55-1.38-44.96-4.92-67.61-4.76c-1.54,0.01-3.43,0.18-4.31-2.56c5.41-4.24,12.31-4.14,18.56-5.02
		c30.18-4.26,60.61-6.73,90.52-13c6.48-1.36,13.15-1.87,19.76-2.5c13.2-1.25,25.87-6.5,39.44-5c1.91,0.21,3.92-0.78,5.9-0.88
		c7.73-0.36,14.71-4.04,22.33-4.89c12.88-1.45,25.82-2.49,38.6-4.52c26.03-4.14,52.13-6.41,78.5-5.58c6.3,0.2,12.63,0.29,18.95-0.58
		c14.15-1.95,28.34-3.59,42.51-5.39c18.46-2.34,36.9-4.74,55.36-7.07c13.18-1.66,26.34-4.01,39.58-4.68
		c15.31-0.77,30.58-2.95,45.47-5.4c16.87-2.77,33.81-1.97,50.58-4.6c17.04-2.67,34.2-5.3,51.6-4.47c1.3,0.06,2.61-0.5,3.93-0.67
		c18.45-2.35,36.85-5.65,55.38-6.76c21.28-1.27,42.06-5.33,62.82-9.29c7.46-1.42,15.34-1.52,22.37-4.06
		c15.72-5.68,32.26-6.2,48.17-5.6c19.55,0.74,39.16,0.33,58.78,2.12c21.45,1.95,43.08,3.14,64.63,4.13
		c26.89,1.23,53.76,3.05,80.64,4.12c44.22,1.76,88.53-1.16,132.79,2.14c30.26,2.26,60.5-2.26,90.79-1.91
		c2.68,0.03,5.35-0.16,7.77-1.47c6.04-3.26,11.99-3.29,18.09,0.02c3.71,2.01,8.03,2.45,11.49,0.07c7.76-5.35,16.6-8.33,24.9-12.49
		c7.06-3.54,14.34-6.94,19.9-13.12c4.07-4.53,9.29-5.72,15.47-3.21c4.62,1.88,6.72-0.46,5.96-5.31c-0.46-2.95-2.56-4.5-4.5-6.33
		c-17.96-16.9-39.55-28.21-61.98-37.22c-18.69-7.51-37.94-13.96-57.45-19.52c-17.23-4.91-34.57-9.31-51.92-13.7
		c-15.42-3.9-30.56-9.1-46.6-10.4c-3.56-0.29-7.21-1.34-10.44-3.24c-2.05-1.21-4.3-1.82-6.67-1.85
		c-11.71-0.13-22.77-4.12-34.21-5.91c-11.46-1.8-22.96-3.83-34.42-5.58c-6.94-1.06-13.15-4.17-20.18-4.74
		c-12.9-1.04-25.97-2.01-38.53-4.92c-22.76-5.26-46.04-6.86-69.01-10.2c-31.49-4.58-63.16-8.64-94.97-11.23
		c-9.56-0.78-19.37-0.19-28.75-2.59c-15.29-3.92-30.99-3.79-46.53-4.67c-10.98-0.62-21.85-1.91-32.74-3.09
		c-19.48-2.11-38.81-5.74-58.54-5.2c-4.31,0.12-8.66-0.16-12.94-0.7c-16.12-2.04-32.62-0.57-48.47-5.18c-0.31-0.09-0.66-0.02-1-0.03
		c-15.62-0.35-31.21-0.61-46.84-1.6c-20.54-1.29-41.12-3.81-61.79-2.51c-1.98,0.12-4.03,0.03-5.98-0.33
		c-20.99-3.87-42.4-4.79-63.51-5.09c-38.94-0.55-77.82-3.89-116.8-2.57c-2.99,0.1-6.02,0.08-8.98-0.25
		c-20.16-2.27-40.43-2.75-60.68-3.6c-9.98-0.42-19.99-0.25-29.99-0.06C1079.82,85.95,975.23,80,870.75,87.7
		c-26.49,1.95-53.19,0.75-79.81,1.81c-25.57,1.03-51.18,1.95-76.79,2.57c-1.33,0.03-2.7,0.03-3.97,0.35
		c-21.88,5.37-44.4,2.72-66.53,5.3c-17.13,2-34.45,3.01-51.79,2.43c-2.91-0.1-5.97,0.7-8.78,1.64c-5.15,1.73-10.36,2.34-15.74,2.17
		c-15.66-0.51-31.16,2.06-46.81,2.46c-16.84,0.43-33.23,5.7-50.32,6.23c-14.87,0.46-29.67,3.47-44.49,5.34
		c-17.8,2.25-35.7,3.92-53.37,6.91c-17.76,3.01-35.55,4.79-53.53,5.08c-2.99,0.05-6.1-0.19-8.95,0.52
		c-13.52,3.41-27.52,0.59-41.35,4.7c-9.59,2.85-20.93,3.16-31.55,1.29c-3.46-0.27-8.19-2.93-7.73,4.13
		c-11.86,1.77-23.46,4.85-34.88,8.29c-8.52,2.57-17.06,5.28-25.15,9.43c-9.21,4.73-17.75,10.41-26.53,15.79
		c-12.54,7.69-24.57,15.44-31.46,29.5c-4.23,8.64-12.1,14.83-19.48,21.05c-3.25,2.74-5.31,6.06-3.23,10.53
		c2.1,4.5,6.19,6.55,11.46,5.46c2.92-0.6,5.91-1.29,8.61-2.51c20.44-9.25,42.23-14.02,63.8-19.53c4.5-1.15,9.21-0.4,13.67-2.48
		c10.64-4.98,22.23-6.55,33.71-8.17c18.75-2.64,37.51-5.34,56.36-7.08c8.69-0.81,16.53-4.47,25.22-5.23
		c13.22-1.17,26.62-2.1,39.57-4.54c31.6-5.95,63.59-4.9,95.38-7.14c6.63-0.47,13.23-0.4,19.87-1.51
		c11.14-1.86,22.39-2.93,33.78-2.62c12.32,0.34,24.83,1.21,36.94-0.43c18.55-2.52,37.19-1.69,55.75-2.95
		c18.18-1.23,36.45-3.46,54.79-2.63c0.99,0.04,2-0.11,2.98-0.3c14.75-2.96,29.82-2.11,44.7-3.17c17.2-1.23,34.45-3.59,51.8-2.55
		c1.63,0.1,3.33-0.22,4.95-0.58c20.28-4.46,41.04-4.89,61.52-4.97c66.59-0.26,133.18-0.97,199.8,1.17
		c27.3,0.88,54.36,3.94,81.61,4.98c28.22,1.07,56.4,3.4,84.67,3.51c15.31,0.06,30.75,0.83,45.75,2.76
		c25.83,3.33,51.78,2.44,77.59,4.98c15.82,1.56,31.89-0.07,47.8,2.24c15.78,2.29,31.72,3.17,47.62,4.49
		c7.86,0.65,15.96,0.69,23.71,2.87c12.2,3.44,24.86,4.34,37.3,6.45c17.35,2.94,34.94,4.45,52.29,7.43
		c19.34,3.33,38.73,6.47,58.22,8.36c16.24,1.57,32.26,4.42,48.42,6.35c2.2,0.26,5.43-0.07,5.43,3.03c0,3.09-3.16,2.8-5.4,2.94
		c-2.32,0.16-4.67,0.15-6.99,0.08c-27.27-0.83-54.55-0.68-81.83-1.39c-47.9-1.25-95.82-4.05-143.79-2.56
		c-2,0.06-4.02-0.06-5.99,0.21c-24.12,3.31-48.47,1.76-72.69,3.46c-28.19,1.97-56.5,0-84.83,1.69c-22.51,1.34-45.15,2.94-67.78,2.64
		c-8.31-0.11-16.55,0.27-24.86,1.52c-11.8,1.77-23.74,3.15-35.79,2.49c-12.67-0.69-25.21,1.71-37.79,2.54
		c-9.94,0.66-20.07,0.1-29.82,1.79c-19.41,3.35-39.13,2.55-58.53,5.46c-6.56,0.98-13.24,2.23-19.81,1.98
		c-18.79-0.72-36.89,4.86-55.5,5.43c-15.97,0.5-31.3,5.15-47.06,7.11c-27.7,3.44-55.27,7.84-82.93,11.66
		c-5.01,0.69-9.27,3.92-14.41,3.83c-8.69-0.14-17.01,1.94-25.5,3.32c-17.03,2.76-33.68,7.2-50.7,9.97
		c-19.3,3.13-38.28,8.19-57.48,12.06c-14.67,2.96-29.28,6.19-43.52,10.68c-9.21,2.91-18.17,6.33-27.94,6.81
		c-1.63,0.08-3.34,0.55-4.83,1.23c-14.6,6.66-30.63,8.36-45.81,13.1c-21.23,6.62-43.11,11.11-64.2,18.32
		c-5.02,1.72-10.18,3.05-15.27,4.58c-14.2,4.29-28.68,7.87-42.52,13.11c-13.04,4.94-26.58,8.01-39.73,12.47
		c-23.9,8.11-48.18,15.07-72.29,22.56c-3.49,1.08-6.81,2.88-10.36,3.54c-14.45,2.66-27.72,8.76-41.37,13.72
		c-7.44,2.71-14.69,5.91-22.06,8.82c-9.59,3.78-19.5,6.88-28.74,11.36c-16.7,8.1-33.48,16.07-49.8,25
		c-10.72,5.87-19.84,13.23-28,22.08c-12.11,13.15-7.76,30.14,8.72,37.22c10.94,4.7,22.15,5.19,33.25,3.56
		c15.72-2.31,31.19-1.94,46.65,0.95c6.29,1.18,12.53,1.74,18.86,1.51c12.71-0.46,25.17,1.66,37.7,3.34
		c12.85,1.72,25.71,3.46,38.76,2.74c6.32-0.35,12.42-2.03,18.82-2.15c36.6-0.69,73.2,1.41,109.83-1.52
		c16.17-1.29,32.44-3.55,48.79-2.5c1.31,0.08,2.66-0.16,3.97-0.39c31.87-5.62,64.14-6.23,96.34-7.34
		c19.31-0.66,38.65-0.12,57.98-0.18c8.64-0.03,17.23,0.01,25.87-1.56c8.46-1.54,17.17-2.18,25.79-2.29
		c24.32-0.29,48.65-0.12,72.98-0.08c2.99,0,6.03,0.02,8.96,0.5c14.8,2.45,29.65,3.63,44.69,3.53c40.65-0.27,81.31-0.09,121.97-0.12
		c3.66,0,7.32-0.16,10.97-0.42c15.9-1.13,31.8-3.45,47.68-3.3c54.89,0.52,109.76-1.81,164.68,3.19c32.34,2.94,65.07,2.43,97.61,4.36
		c21.55,1.28,43.1,2.71,64.65,3.9c21.57,1.19,43.1,2.89,64.65,3.95c21.91,1.08,43.77,2.01,65.67,3.81
		c27.77,2.28,55.82,1.97,83.58,4.88c13.23,1.39,26.52,1.18,39.73,3.21c17.38,2.67,34.88,5.24,52.6,4.53
		c1.65-0.07,3.35,0.08,4.97,0.38c25.3,4.75,51.01,3.89,76.53,5.26c13.61,0.73,27.17,2.15,40.78,2.82
		c22.88,1.14,45.8,2.73,68.48,5.77c14.73,1.98,30.03-1.06,44.27,5.18c2,0.88,4.6,0.4,6.93,0.47c17.3,0.51,34.44,2.77,51.61,4.62
		c24.1,2.6,47.94,7.65,72.33,7.46c2.68-0.02,5.4,0.11,7.76,1.51c3.6,2.14,7.66,1.83,11.54,2.6c8.53,1.7,17.71,0.06,25.65,3.06
		c14.59,5.52,29.77,8.88,44.61,13.36c20.64,6.23,41.78,10.82,62.21,17.87c10.66,3.68,21.68,6.58,31.9,11.24
		c14.74,6.72,29.88,12.49,44.46,19.62c14.85,7.26,30.59,12.7,45.54,19.76c25.24,11.92,49.65,25.55,75.15,36.95
		c20.04,8.96,39.54,18.92,58.38,30.22c12.83,7.7,25.17,16.25,38.69,22.81c9.3,4.52,17.71,10.49,26.33,16.14
		C2422.78,778.38,2426.79,783.57,2432.94,785.64z M2181.82,542.65c-10.53-0.23-18.94,6.23-19.15,14.7
		c-0.26,10.68,9.94,20.64,21.25,20.72c7.56,0.06,15.24-8.73,15.42-17.65C2199.54,550.7,2191.82,542.87,2181.82,542.65z
		 M1531.9,404.39c9.49-0.18,17.01-7.92,16.8-17.29c-0.21-9.32-8.31-16.92-17.58-16.49c-9.31,0.43-16.55,8.45-16.16,17.91
		C1515.34,397.61,1522.75,404.56,1531.9,404.39z M1178.5,594.58c6.09,0.63,11.2-3.54,11.6-9.46c0.4-5.83-3.85-10.72-9.91-11.44
		c-6.29-0.74-12.2,2.93-12.94,8.03C1166.45,587.21,1172.34,593.95,1178.5,594.58z M245.16,718.9c0.21-2.58-0.57-5.03,2.26-6.72
		c3.65-2.19,3.53-6.02-0.19-7.85c-4.37-2.15-9.27-3.63-14.29-3.66c-3.16-0.02-5.86,1.33-6.85,4.67c-0.9,3.05,0.9,5.14,3.1,6.7
		C233.82,715.33,239.12,717.12,245.16,718.9z M665.19,193.53c-5.04-1.71-9.68-3.26-14.23-5.25c-2.77-1.22-6.18-1.56-7.53,2.24
		c-1.3,3.65,1.48,5.34,4.16,6.9C654.54,201.45,659.74,197.09,665.19,193.53z M1770.76,653.85c-4.09-4-6.98-9.18-12.96-10.22
		c-2.68-0.47-5.54-0.66-6.69,2.56c-1.28,3.57,0.71,6,3.88,6.78C1760.01,654.19,1765.13,655.56,1770.76,653.85z M213.62,319.33
		c-2.3-4.21,3.89-6.25,0.7-9.47c-2.33-2.35-5.76-3.05-8.89-4.08c-0.31-0.1-0.64-0.18-0.96-0.22c-2-0.25-4.09-0.51-5.03,1.86
		c-0.8,2.03-0.31,3.95,1.34,5.38C204.05,315.65,207.82,317.61,213.62,319.33z M1900.81,412.05c5.84,4.84,10.8,8.32,16.83,9.96
		c1.23,0.33,2.67,0.35,3.31-1.13c0.39-0.92,0.37-2.2-0.6-2.64C1914.64,415.65,1909.96,410.06,1900.81,412.05z M631.65,526.73
		c-4.47-4.51-9.32-5.3-14.59-4.77c-1.18,0.12-1.54,1.13-1.54,2.12c0,0.56,0.46,1.59,0.73,1.59
		C621.11,525.72,625.7,530.23,631.65,526.73z M2230.78,93.96c-1.91-3.99-4.35-6.86-8.39-8.05c-1.64-0.48-3.37-0.23-4.28,1.58
		c-0.97,1.94,0.14,3.59,1.7,3.95C2223.25,92.21,2226.15,95.23,2230.78,93.96z M1298.64,200.48c-1.56-2.93-4.05-4.77-7.68-4.68
		c-1.76,0.04-3.51,0.91-3.29,2.88c0.49,4.37,4.09,4.52,7.37,4.7C1296.74,203.47,1298.25,202.83,1298.64,200.48z M2271.2,300.24
		c-0.18,1.42,0.14,2.58,1.49,3.11c1.16,0.46,1.77-0.33,1.95-1.31c0.25-1.44-0.7-2.3-1.82-2.98
		C2271.22,298.09,2271.63,299.76,2271.2,300.24z"/>
	<path class="st2" d="M2432.94,785.64c-6.15-2.07-10.16-7.26-15.4-10.7c-8.63-5.65-17.03-11.63-26.33-16.14
		c-13.51-6.56-25.85-15.11-38.69-22.81c-18.84-11.3-38.34-21.26-58.38-30.22c-25.5-11.4-49.91-25.03-75.15-36.95
		c-14.96-7.06-30.69-12.5-45.54-19.76c-14.58-7.13-29.72-12.9-44.46-19.62c-10.22-4.66-21.24-7.56-31.9-11.24
		c-20.43-7.05-41.57-11.64-62.21-17.87c-14.84-4.48-30.02-7.84-44.61-13.36c-7.94-3-17.12-1.37-25.65-3.06
		c-3.88-0.77-7.94-0.47-11.54-2.6c-2.36-1.4-5.08-1.53-7.76-1.51c-24.39,0.19-48.23-4.85-72.33-7.46
		c-17.17-1.86-34.32-4.12-51.61-4.62c-2.33-0.07-4.93,0.4-6.93-0.47c-14.23-6.24-29.54-3.2-44.27-5.18
		c-22.68-3.04-45.61-4.64-68.48-5.77c-13.62-0.68-27.17-2.09-40.78-2.82c-25.52-1.37-51.23-0.51-76.53-5.26
		c-1.63-0.31-3.32-0.45-4.97-0.38c-17.72,0.71-35.22-1.87-52.6-4.53c-13.21-2.03-26.5-1.82-39.73-3.21
		c-27.76-2.91-55.8-2.59-83.58-4.88c-21.9-1.8-43.76-2.73-65.67-3.81c-21.55-1.06-43.09-2.77-64.65-3.95
		c-21.55-1.18-43.1-2.62-64.65-3.9c-32.54-1.93-65.27-1.41-97.61-4.36c-54.92-5-109.8-2.67-164.68-3.19
		c-15.88-0.15-31.78,2.17-47.68,3.3c-3.65,0.26-7.32,0.41-10.97,0.42c-40.66,0.03-81.31-0.15-121.97,0.12
		c-15.04,0.1-29.89-1.08-44.69-3.53c-2.94-0.49-5.97-0.5-8.96-0.5c-24.33-0.04-48.66-0.21-72.98,0.08
		c-8.61,0.1-17.33,0.75-25.79,2.29c-8.64,1.57-17.22,1.53-25.87,1.56c-19.33,0.06-38.67-0.49-57.98,0.18
		c-32.2,1.11-64.47,1.71-96.34,7.34c-1.31,0.23-2.66,0.48-3.97,0.39c-16.35-1.05-32.63,1.21-48.79,2.5
		c-36.63,2.93-73.23,0.83-109.83,1.52c-6.4,0.12-12.5,1.8-18.82,2.15c-13.05,0.72-25.92-1.03-38.76-2.74
		c-12.53-1.68-24.98-3.8-37.7-3.34c-6.33,0.23-12.57-0.33-18.86-1.51c-15.45-2.89-30.92-3.26-46.65-0.95
		c-11.1,1.63-22.32,1.14-33.25-3.56c-16.49-7.08-20.83-24.08-8.72-37.22c8.15-8.85,17.28-16.21,28-22.08
		c16.32-8.93,33.09-16.9,49.8-25c9.24-4.48,19.15-7.58,28.74-11.36c7.37-2.91,14.62-6.11,22.06-8.82
		c13.65-4.97,26.93-11.06,41.37-13.72c3.55-0.65,6.88-2.46,10.36-3.54c24.11-7.48,48.4-14.45,72.29-22.56
		c13.16-4.46,26.7-7.53,39.73-12.47c13.84-5.25,28.32-8.82,42.52-13.11c5.09-1.54,10.24-2.87,15.27-4.58
		c21.1-7.21,42.98-11.69,64.2-18.32c15.18-4.74,31.21-6.44,45.81-13.1c1.49-0.68,3.2-1.15,4.83-1.23c9.77-0.48,18.73-3.9,27.94-6.81
		c14.24-4.49,28.85-7.72,43.52-10.68c19.19-3.87,38.17-8.92,57.48-12.06c17.02-2.76,33.67-7.21,50.7-9.97
		c8.5-1.38,16.81-3.46,25.5-3.32c5.14,0.08,9.4-3.14,14.41-3.83c27.65-3.82,55.23-8.22,82.93-11.66
		c15.76-1.96,31.09-6.62,47.06-7.11c18.61-0.58,36.71-6.15,55.5-5.43c6.57,0.25,13.24-0.99,19.81-1.98
		c19.41-2.91,39.13-2.1,58.53-5.46c9.76-1.69,19.88-1.13,29.82-1.79c12.59-0.83,25.13-3.24,37.79-2.54
		c12.05,0.66,23.99-0.72,35.79-2.49c8.32-1.24,16.55-1.63,24.86-1.52c22.64,0.3,45.28-1.3,67.78-2.64
		c28.33-1.68,56.64,0.28,84.83-1.69c24.22-1.69,48.57-0.15,72.69-3.46c1.97-0.27,3.99-0.15,5.99-0.21
		c47.96-1.49,95.89,1.31,143.79,2.56c27.28,0.71,54.56,0.56,81.83,1.39c2.33,0.07,4.67,0.08,6.99-0.08c2.24-0.15,5.4,0.15,5.4-2.94
		c0-3.1-3.22-2.76-5.43-3.03c-16.16-1.93-32.18-4.78-48.42-6.35c-19.49-1.88-38.88-5.03-58.22-8.36
		c-17.34-2.98-34.94-4.49-52.29-7.43c-12.43-2.11-25.09-3.01-37.3-6.45c-7.75-2.18-15.85-2.22-23.71-2.87
		c-15.89-1.32-31.84-2.2-47.62-4.49c-15.92-2.31-31.98-0.69-47.8-2.24c-25.81-2.54-51.76-1.65-77.59-4.98
		c-14.99-1.93-30.44-2.7-45.75-2.76c-28.27-0.11-56.45-2.44-84.67-3.51c-27.25-1.04-54.31-4.1-81.61-4.98
		c-66.61-2.14-133.2-1.44-199.8-1.17c-20.48,0.08-41.24,0.51-61.52,4.97c-1.62,0.36-3.31,0.68-4.95,0.58
		c-17.35-1.04-34.6,1.32-51.8,2.55c-14.88,1.07-29.95,0.21-44.7,3.17c-0.98,0.2-1.99,0.35-2.98,0.3c-18.33-0.83-36.6,1.4-54.79,2.63
		c-18.56,1.26-37.2,0.43-55.75,2.95c-12.12,1.64-24.62,0.76-36.94,0.43c-11.39-0.31-22.64,0.76-33.78,2.62
		c-6.64,1.11-13.24,1.05-19.87,1.51c-31.79,2.24-63.77,1.19-95.38,7.14c-12.95,2.44-26.35,3.37-39.57,4.54
		c-8.69,0.77-16.53,4.43-25.22,5.23c-18.84,1.75-37.61,4.44-56.36,7.08c-11.48,1.62-23.07,3.19-33.71,8.17
		c-4.46,2.09-9.17,1.34-13.67,2.48c-21.57,5.51-43.37,10.27-63.8,19.53c-2.7,1.22-5.68,1.91-8.61,2.51
		c-5.27,1.09-9.37-0.96-11.46-5.46c-2.08-4.47-0.02-7.79,3.23-10.53c7.39-6.23,15.25-12.42,19.48-21.05
		c6.89-14.06,18.92-21.81,31.46-29.5c8.78-5.38,17.31-11.06,26.53-15.79c8.09-4.15,16.63-6.86,25.15-9.43
		c11.42-3.44,23.02-6.52,34.88-8.29c2.89-0.8,7.37,1.39,7.72-4.13c10.62,1.87,21.96,1.56,31.55-1.29
		c13.83-4.11,27.83-1.29,41.35-4.7c2.85-0.72,5.96-0.48,8.95-0.52c17.98-0.28,35.77-2.06,53.53-5.08c17.67-3,35.57-4.66,53.37-6.91
		c14.83-1.88,29.62-4.89,44.49-5.34c17.08-0.52,33.47-5.8,50.32-6.23c15.65-0.4,31.15-2.97,46.81-2.46
		c5.38,0.17,10.6-0.44,15.74-2.17c2.8-0.94,5.86-1.74,8.78-1.64c17.34,0.58,34.66-0.43,51.79-2.43c22.14-2.58,44.66,0.07,66.53-5.3
		c1.28-0.31,2.65-0.31,3.97-0.35c25.6-0.62,51.22-1.54,76.79-2.57c26.62-1.07,53.32,0.14,79.81-1.81
		c104.48-7.7,209.08-1.75,313.59-3.67c9.99-0.18,20.01-0.35,29.99,0.06c20.24,0.84,40.51,1.33,60.68,3.6
		c2.97,0.33,5.99,0.35,8.98,0.25c38.97-1.32,77.85,2.02,116.8,2.57c21.11,0.3,42.52,1.21,63.51,5.09c1.95,0.36,4,0.45,5.98,0.33
		c20.68-1.29,41.26,1.22,61.79,2.51c15.63,0.98,31.22,1.24,46.84,1.6c0.33,0.01,0.69-0.06,1,0.03c15.85,4.6,32.35,3.14,48.47,5.18
		c4.28,0.54,8.63,0.82,12.94,0.7c19.73-0.54,39.06,3.09,58.54,5.2c10.89,1.18,21.76,2.47,32.74,3.09
		c15.54,0.87,31.23,0.75,46.53,4.67c9.38,2.4,19.19,1.81,28.75,2.59c31.81,2.59,63.47,6.66,94.97,11.23
		c22.97,3.34,46.25,4.93,69.01,10.2c12.56,2.9,25.63,3.88,38.53,4.92c7.03,0.57,13.24,3.68,20.18,4.74
		c11.45,1.75,22.95,3.79,34.42,5.58c11.44,1.79,22.5,5.78,34.21,5.91c2.37,0.03,4.62,0.63,6.67,1.85c3.23,1.91,6.87,2.95,10.44,3.24
		c16.04,1.3,31.18,6.5,46.6,10.4c17.34,4.39,34.69,8.79,51.92,13.7c19.52,5.57,38.76,12.01,57.45,19.52
		c22.43,9.01,44.02,20.33,61.98,37.22c1.94,1.83,4.03,3.38,4.5,6.33c0.76,4.84-1.34,7.19-5.96,5.31c-6.18-2.51-11.4-1.32-15.47,3.21
		c-5.56,6.18-12.84,9.59-19.9,13.12c-8.29,4.16-17.13,7.14-24.9,12.49c-3.46,2.38-7.78,1.95-11.49-0.07
		c-6.1-3.31-12.05-3.28-18.09-0.02c-2.42,1.31-5.1,1.5-7.77,1.47c-30.29-0.34-60.54,4.17-90.79,1.91
		c-44.26-3.3-88.57-0.38-132.79-2.14c-26.88-1.07-53.75-2.88-80.64-4.12c-21.55-0.99-43.18-2.18-64.63-4.13
		c-19.62-1.78-39.23-1.38-58.78-2.12c-15.92-0.6-32.45-0.08-48.17,5.6c-7.03,2.54-14.91,2.64-22.37,4.06
		c-20.76,3.97-41.55,8.02-62.82,9.29c-18.53,1.11-36.93,4.41-55.38,6.76c-1.32,0.17-2.63,0.73-3.93,0.67
		c-17.4-0.83-34.57,1.81-51.6,4.47c-16.77,2.62-33.71,1.83-50.58,4.6c-14.89,2.44-30.16,4.63-45.47,5.4
		c-13.24,0.67-26.39,3.01-39.58,4.68c-18.46,2.33-36.91,4.73-55.36,7.07c-14.17,1.8-28.36,3.44-42.51,5.39
		c-6.32,0.87-12.65,0.77-18.95,0.58c-26.37-0.83-52.47,1.44-78.5,5.58c-12.78,2.03-25.73,3.08-38.6,4.52
		c-7.61,0.86-14.59,4.54-22.33,4.89c-1.98,0.09-3.99,1.09-5.9,0.88c-13.57-1.49-26.24,3.75-39.44,5c-6.61,0.62-13.28,1.14-19.76,2.5
		c-29.91,6.26-60.34,8.74-90.52,13c-6.25,0.88-13.14,0.78-18.56,5.02c0.88,2.73,2.77,2.57,4.31,2.56
		c22.65-0.16,45.06,3.38,67.61,4.76c21.21,1.3,42.44,2.46,63.65,3.82c14.64,0.93,29.26,0.71,43.84,1.68
		c13.91,0.93,27.75,2.87,41.58,4.69c3.97,0.52,7.9,1.26,11.9,1.09c17.41-0.75,34.42,3.01,51.59,4.8c18.5,1.93,36.85,5.18,55.36,7.04
		c13.97,1.4,27.5,4.92,41.29,7.1c33.49,5.29,66.87,11.27,100.32,16.79c19.66,3.25,39.12,7.58,58.72,10.91
		c20,3.39,39.47,9.21,59.62,11.7c5.54,0.68,10.96,2.41,16.39,4.05c8.51,2.56,17.49,3.75,26.28,5.24
		c17.05,2.89,33.83,6.91,50.75,10.32c11.32,2.28,22.32,6.54,34.14,6.16c1.31-0.04,2.74,0.02,3.95,0.48
		c15.56,5.91,31.69,9.12,48.02,12.31c15.9,3.1,31.68,7.44,47.51,11.2c12.88,3.05,25.81,5.98,38.78,8.67
		c19.13,3.96,38.12,9.21,57.31,12.89c22.85,4.39,45.17,11.1,68.2,14.59c8.17,1.24,16.5,2.55,24.11,6.04
		c4.45,2.05,9.2,1.23,13.68,2.46c9.96,2.73,19.9,5.51,29.92,7.99c12.51,3.09,24.65,7.42,37.42,9.75c8.4,1.53,16.43,5.14,24.9,7.04
		c19.11,4.3,37.38,11.39,56.02,17.24c14.9,4.68,29.08,11.13,43.82,15.91c19.03,6.16,37.33,13.88,55.49,22
		c16.68,7.46,32.7,16.37,48.2,26.06c9.45,5.91,14.92,16,22.6,23.82c16.51,16.81,32.52,34.17,52.42,47.24
		c7.77,5.11,13.64,12.56,21.49,17.66c4.73,3.07,9.02,6.8,14.57,8.41C2432.94,765.65,2432.94,775.64,2432.94,785.64z M1972.83,152.41
		c-5.64,0.07-9.45,3.82-9.42,9.28c0.03,6.04,5.97,11.54,12.56,11.62c5.9,0.08,10.42-4.32,10.1-9.82
		C1985.73,157.68,1979.34,152.33,1972.83,152.41z M1619.49,138.42c-4.45-1.39-6.3,0.73-7.25,3.72c-0.91,2.85-0.78,5.84,1.01,8.41
		c0.44,0.64,1.71,1.2,2.4,1.02c0.76-0.2,1.6-1.19,1.85-2.01C1618.62,145.89,1617.62,141.97,1619.49,138.42z M1041.26,123.56
		c-0.56-2.99-2.15-5.76-5.17-6.3c-2.83-0.51-6.54,0.16-6.84,3.91c-0.31,3.89,3.43,4.3,6.26,4.88
		C1037.77,126.5,1040.17,126.61,1041.26,123.56z M1099.49,408.94c-0.53-3.12-3.12-3.57-5.1-4.57c-2.05-1.04-4.28-2.23-6.5-0.38
		c-1.54,1.28-1.68,3.11-0.28,4.35c2.88,2.55,6.44,3.35,10.2,2.55C1098.51,410.73,1099,409.53,1099.49,408.94z M333.21,400
		c2.17-0.23,4.51-0.52,4.39-3.13c-0.18-4.01-3.54-4.28-6.51-4.5c-2.37-0.18-5.28,0.09-4.73,3.35
		C326.95,399.26,330.3,399.68,333.21,400z"/>
	<path class="st3" d="M1.36,1107.47c2.02-0.39,3.75-1.22,5.13-2.83c14.79-17.21,31.59-32.45,47.6-48.46
		c4.83-4.83,7.36-9.16,5.78-16.57c-4.26-20.11-1.82-39.73,7.34-58.29c7.21-14.61,17.07-26.92,31.64-34.88
		c5.64-3.08,10.14-7.47,14.67-11.92c24.62-24.21,51.83-44.85,83.25-59.54c16.7-7.8,33.83-13.56,52.73-13.6
		c20.47-0.03,36.78,7.51,49.59,23.23c5.89,7.23,6.09,7.4,14.53,2.9c24.1-12.85,48.53-24.99,73.61-35.81
		c3.97-1.71,7.99-3.31,11.99-4.96c11.07-4.56,22.37-8.48,33.09-14c10.08-5.2,20.9-8.49,32.43-9.39c8.99-0.7,11.59-3.69,9.7-12.08
		c-2.14-9.47,2.51-17.67,7.72-25.01c6.37-8.98,14.47-16.4,23.49-22.83c19.41-13.82,40.59-24.16,62.86-32.42
		c28.84-10.69,58.5-18.37,88.93-22.58c20.4-2.83,40.98-5.45,61.64-4.42c18.9,0.94,37.8,2.71,56.2,7.78
		c4.94,1.36,7.93,4.72,10.29,8.83c7.01,12.22,12.34,25.03,13.67,39.26c0.71,7.61,2.38,9.01,9.57,6.14
		c14.6-5.83,29.77-5.82,45.11-6.79c19.91-1.26,39.91-0.41,59.76-3.12c6.88-0.94,13.98-0.56,20.97-0.4
		c15.04,0.33,29.85-1.76,44.74-3.29c12.55-1.29,25.26-2.49,37.8-2.43c57.96,0.25,115.86-3.17,173.82-2.19c4,0.07,8-0.16,11.99,0.03
		c5.48,0.26,8.56-2.13,10.26-7.38c8.57-26.46,28.21-43.76,49.79-59.34c4.4-3.17,9.58-4.99,14.96-5.11
		c10.63-0.24,21.23-0.13,31.91,0.67c15.19,1.15,30.33,3.41,45.74,2.25c10.55-0.79,21.25,0.86,31.88,0.77
		c23.04-0.2,45.71,1.49,68.32,6.87c20,4.76,40.84,5.72,61.07,9.45c25.19,4.65,50.01,11.43,70.71,28.07
		c5.6,4.51,9.89,9.61,12.16,16.61c3.63,11.19,6.53,22.16,3.83,34.21c-1.95,8.69,0.33,10.63,9.18,10.82c2,0.04,4,0.05,6-0.06
		c23.41-1.28,46.45,1.98,69.56,5.13c15.18,2.07,30.36,3.78,45.14,7.97c21.45,6.07,42.95,11.98,64.34,18.27
		c20.45,6.01,41.49,9.55,62.01,15.16c17.65,4.82,35.26,10.07,52.35,16.55c17.92,6.79,32.68,1.82,46.14-9.57
		c7.6-6.43,14.51-13.76,21.26-21.12c10.94-11.92,24.72-12.65,38.73-9.15c26.43,6.6,52.03,16.09,78.39,23.09
		c14.71,3.91,28.48,11.23,40.57,20.91c11.04,8.84,23.68,14.85,36.27,20.94c6.09,2.94,11.57,6.49,16.12,11.53
		c2.22,2.46,4.59,4.95,7.33,6.75c6.1,4.01,10.37,9.16,12.63,16.17c1.76,5.45,5.76,9.71,8.7,14.53c5.63,9.21,6.61,18.5,1.07,28.29
		c-2.44,4.31-4.12,9.1-5.72,13.82c-1.16,3.43,0.27,6.23,4.12,6.31c12.54,0.29,21.73,7.57,31.17,14.41
		c19.41,14.06,38.91,28,58.19,42.24c8.28,6.12,15.97,13.04,24.14,19.33c7.16,5.52,7.69,5.4,11.83-2.16
		c2.44-4.45,5.77-8.07,9.01-11.88c17.88-21.01,46.94-20.49,67.61-1.83c4.44,4.01,8.01,8.95,13.19,12.15c0,6.66,0,13.33,0,19.99
		c-3.44-0.59-4.31-3.74-6.16-6c-6.91-8.44-13.82-16.93-23.84-22.02c-20.61-12.17-38.27-1.38-50.43,17.12
		c-2.73,4.15-4.56,8.87-6.94,13.26c-3.52,6.49-7.44,7.5-12.54,2.44c-29.44-29.22-64.08-51.87-96.8-76.94
		c-7.02-5.38-14.73-8.76-23.5-10.27c-11.92-2.06-14.31-6.06-12.13-18.11c0.96-5.33,3.78-9.93,5.5-14.96
		c0.86-2.51,2.2-4.92,2.69-7.49c1.65-8.61-2.05-12.17-10.36-9.66c-18.42,5.56-37.11,6-56.21,5.07
		c-29.95-1.45-58.64-7.95-86.46-18.62c-14.94-5.73-28.42-14.41-42.45-21.99c-10.86-5.87-16.31-14.94-22.35-24.19
		c-9.18-14.07-7.07-28.4,5.46-39.32c2.46-2.14,5.05-4.72,8.77-2.15c-0.61,2.68-2.36,4.67-3.91,6.85
		c-9.61,13.47-7.84,24.73,5.41,35.3c1.02,3.75,3.63,6.32,6.56,8.57c6.87,5.26,13.84,10.35,21.62,14.29
		c44.76,22.64,91.96,32.2,142,26.67c4.74,0.51,9.22-1.07,13.78-1.81c6.41-1.04,7.61-3.81,4.47-9.64c-0.93-1.73-2.1-3.48-3.58-4.73
		c-10.62-8.92-20.14-19.45-33.75-24.13c-9.6-3.3-17.42-9.42-25.63-15.08c-15.91-10.95-32.32-20.96-51.78-24.6
		c-7.84-1.46-15.56-3.61-22.91-6.75c-9.2-3.93-18.86-6.33-28.47-8.93c-5.09-1.59-10.16-3.22-15.26-4.75
		c-9.3-2.79-17.3-1.28-24.97,5.37c-9.26,8.04-16.62,17.12-21.38,28.4c-1.29,3.06-2.86,6.03-4.61,8.85c-3.69,5.96-9.1,7.97-16.13,7.7
		c-22.59-0.85-43.64-7.71-64.84-14.8c-17.02-5.69-34.47-10.57-52.08-13.91c-21.71-4.11-42.47-11.24-63.65-17.05
		c-22.14-6.08-43.79-14.29-66.75-16.82c-27.42-3.02-54.38-9.97-82.24-9.35c-6.59,0.15-13.25-1.14-19.83-2.1
		c-5.59-0.82-7.81-3.31-8-9.62c-0.26-8.65-0.02-17.32,0.12-25.97c0.11-6.49-1.43-12.55-4.47-18.23c-1.27-2.37-3.06-4.39-5.41-5.76
		c-2.24-1.3-3.76-0.68-4.31,1.94c-0.07,0.32-0.14,0.66-0.14,0.99c0.04,23.97-15.58,36.62-34.57,45.8
		c-22.43,10.83-46.58,15.57-71.4,17.38c-12.96,0.95-25.88,2.26-38.88,1.7c-51.65-2.24-102.05-10.11-148.75-33.94
		c-16.21-8.27-30.63-18.69-40.08-34.92c-3.83-6.57-7.64-6.49-12.03-0.21c-3.24,4.64-5.82,9.54-6.2,15.53
		c-0.5,7.91-4.14,11.16-11.91,11.66c-2.32,0.15-4.66,0.05-7,0.05c-45.98,0.08-91.96,0.31-137.94,0.18
		c-32-0.09-63.82,2.41-95.63,5.45c-10.26,0.98-20.58,1.88-30.88,1.93c-33.3,0.18-66.53,3.68-99.85,2.32
		c-13.29-0.54-25.38,5.14-38.27,6.53c-2.61,0.28-3.54,2.75-4.57,4.87c-1.23,2.52-2.86,4.87-6.07,3.89
		c-3.13-0.96-3.44-3.83-3.09-6.59c2.01-15.73-2.02-30.34-8.21-44.55c-0.8-1.82-1.49-3.74-2.59-5.37c-1.92-2.86-4.32-2.71-6.68-0.43
		c-0.47,0.45-0.91,1.03-1.13,1.63c-6.57,18.69-23.54,26.81-38.61,35.81c-41.91,25.02-87.77,39.77-135.71,48.39
		c-18.11,3.25-36.3,4.49-54.67,4.05c-8.4-0.2-16.55-1.6-24.62-3.73c-0.97-0.25-2.02-0.4-2.85-0.91c-4.32-2.68-12.12,2.1-12.91-1.33
		c-1.8-7.81-6.95-15.29-4.54-23.92c0.18-0.63,0.11-1.32,0.15-1.99c0.44-0.68,1.6-1.25,0.32-2.18c-0.35,0.53-0.69,1.06-1.04,1.59
		c-11.38,9.42-13.01,21.11-4.63,33.16c4.6,6.62,3.01,10.83-4.92,11.2c-22.36,1.04-42.69,8.63-63.13,17.11
		c-21.19,8.8-42.62,17.04-63.47,26.65c-17.52,8.08-34.98,16.29-52.37,24.65c-6.78,3.27-8.89,3.22-13.17-3.08
		c-4.14-6.08-8.19-12.19-14.36-16.42c-4.97-3.41-6.74-2.85-8,3.23c-3.28,15.87-12.14,28.68-22.01,40.9
		c-18.32,22.67-40.43,41.3-63.55,58.81c-18.91,14.32-39.28,26.23-60.67,36.42c-15.41,7.34-31.2,13.29-48.63,13.53
		c-5.55,0.08-6.46,1.71-4.79,6.84c0.51,1.56,1.42,2.99,2.11,4.5c3.86,8.35,2.92,10.75-4.24,16.26c-6.04,4.65-11.8,9.77-17.17,15.19
		c-11.95,12.07-24.65,23.32-37.36,34.54c-3.9,3.44-7.51,7.67-13.11,8.72C1.36,1116.8,1.36,1112.14,1.36,1107.47z M515,805.85
		c4,2.7,8.52,3.73,13.23,3.78c16.27,0.18,32.49,0.77,48.76-1.59c47.15-6.86,92.04-20.64,134.34-42.57
		c9.38-4.87,19.03-9.6,26.33-17.69c8.73-3.86,13.8-11.27,17.96-19.26c2.48-4.76,0.73-7.78-4.5-8.54c-6.89-1.01-13.83-1.9-20.78-2.2
		c-33.35-1.45-66.4,1.35-99.07,8.08c-36.94,7.6-72.65,18.67-105.75,37.36c-10.03,5.66-17.26,12.54-20.37,24.1
		C502.41,797.46,504.37,802.44,515,805.85z M95.36,1021.93c5.64-0.86,10.77-3.21,16.02-5.27c18.06-7.11,34.07-17.77,49.96-28.6
		c23.34-15.91,45.29-33.58,64.5-54.36c7.38-7.98,14.95-15.96,19.66-26.02c6.42-5.49,8.98-13.09,11-20.83
		c1.9-7.29-0.71-10.96-8.39-10.99c-7.23-0.03-14.68,0.24-21.66,1.92c-10.99,2.64-21.66,6.55-31.65,12.07
		c-21.93,12.12-42.28,26.53-61.4,42.63c-12.71,10.7-24.24,22.92-37.55,32.76c-17.44,12.9-23.18,31-26.26,50.74
		c-1.11,7.07,1.94,9.99,9.25,9.21C84.38,1024.6,90.1,1024.3,95.36,1021.93z M1275.31,753.18c10.52,7.1,21.99,12.39,33.85,16.67
		c39.7,14.34,80.99,19.88,122.95,21.63c12.99,0.54,25.86-1.24,38.69-2.37c15.12-1.34,30.33-3.42,44.62-9.3
		c15.25-3.65,28.6-10.55,39.22-22.4c3.08-3.44,4.34-7.15,4.67-11.7c0.43-5.91-3.03-10.99-3.06-16.52c-0.03-4.75-2.32-6.83-6.02-7.85
		c-11.21-3.1-21.94-7.81-33.5-9.78c-21.63-3.69-43.65-4.8-65.05-9.94c-10.03-2.41-20.09-5.41-30.37-5.62
		c-21.95-0.45-43.87-1.05-65.81-2.1c-19.25-0.92-38.5-0.09-57.69-3.61c-14.57-2.67-28.67-0.52-38.88,12.37
		c-1.62,2.04-4.01,3.48-6.1,5.12c-9.04,7.13-9.9,11.33-3.48,21.14C1256,739.08,1264.39,747.52,1275.31,753.18z"/>
	<path class="st4" d="M2402.95,1035.48c10.02,5.1,16.93,13.58,23.84,22.02c1.85,2.26,2.72,5.41,6.16,6c0,12.66,0,25.32,0,37.98
		c-23.73-26.41-19.19-21.63-46.07-21.93c-5.31-8.11-7.55-16.67-3.9-26.12c0.65-1.33,1.3-2.67,1.95-4l-0.07,0.05
		c3.25-0.75,3.96-3.19,4.05-6.06l-0.08,0C2394.26,1042.07,2399.52,1040.41,2402.95,1035.48z"/>
	<path class="st3" d="M2382.98,1053.43c-3.66,9.44-1.41,18.01,3.9,26.12c0.85,5.01,3.52,9.15,6.41,13.15
		c10.55,14.63,23.97,25.99,39.66,34.77c0,4.66,0,9.33,0,13.99c-21.32-11.59-39.3-26.78-52.31-47.57
		c-6.65-10.63-11.44-21.52-9.54-34.48c1.19-8.16,3.74-15.46,10.96-20.24c1.66-1.09,3.63-1.83,5.52-0.33
		c1.48,1.18,1.2,2.96,1.26,4.59c0,0,0.08,0,0.08,0c-2.24,1.43-3.67,3.39-4.05,6.06c0,0,0.07-0.05,0.07-0.05
		C2383.71,1050.48,2383.18,1051.88,2382.98,1053.43z"/>
	<path class="st0" d="M2432.94,1127.46c-15.68-8.78-29.11-20.14-39.66-34.77c-2.89-4.01-5.56-8.14-6.41-13.15
		c26.87,0.3,22.33-4.47,46.07,21.93C2432.94,1110.14,2432.94,1118.8,2432.94,1127.46z"/>
	<path class="st5" d="M7.36,4.03c-2.96,2.76-3.62,6.89-6,9.99c0-1.67,0.35-3.42-0.06-4.98C-0.35,2.78,4.05,4.13,7.36,4.03z"/>
	<path class="st3" d="M678.38,1625.6c-2.22,3.67-2.6,6.66-2.92,9.59c-0.87,8-2.43,15.96-5.42,23.3
		c-7.71,18.92-9.94,39.32-16.72,58.49c-3.88,10.97-6.93,22.24-11.34,33.05c-2.38,5.84-4.56,11.82-6.17,17.91
		c-5.07,19.16-14.91,36.31-22.53,54.39c-0.91,2.17-2.26,4.11-4.34,5.36c-2.79,1.67-5.7,1.86-8.5,0.1c-2.58-1.62-3.32-4.3-2.7-7
		c0.66-2.88,1.75-5.74,3.11-8.37c19.52-37.7,32.57-77.99,46.62-117.82c4.97-14.09,9.04-28.52,14.61-42.45
		c4.35-10.86,6.74-22.28,8.91-33.75c1.27-6.72,0.9-14.05,7.1-19.02c0.84-0.67,0.86-2.44,1.13-3.73c5.01-23.8,17-44.03,32.85-61.95
		c21.64-24.46,47.78-43.32,76.36-58.9c49.45-26.96,102.09-45.62,156.44-59.74c48.07-12.49,96.76-21.71,146.04-27.97
		c36.65-4.65,73.37-8.07,110.25-10.26c17.31-1.03,34.66-0.38,51.87-1.94c21.32-1.93,42.62-1.61,63.89-1.14
		c32.93,0.72,65.89,1.74,98.74,4.1c63.42,4.56,126.41,12.77,188.98,24.32c30.16,5.56,59.66,13.47,89.26,21.18
		c3.21,0.84,6.54,2.21,9.72,2c9.93-0.66,19.17,2.23,28.38,4.96c50.89,15.07,100.57,33.3,147.43,58.46
		c34.49,18.51,66.79,40.14,93.48,69.27c20.26,22.11,34.58,47.12,38.98,77.25c1.57,10.73,0.98,21.3-1.56,31.7
		c-1.41,5.8-0.82,11.08,0.93,16.62c4.12,13.07,10,25.39,15.41,37.92c7.4,17.11,14.2,34.48,22.78,51.07
		c2.9,5.61,5.57,11.29,9.58,16.32c4.28,5.35,4.14,9.35,0.57,12.33c-3.37,2.82-8.43,2.49-12.76-1.27
		c-5.39-4.68-8.69-10.85-11.58-17.28c-11.58-25.84-21.34-52.42-31.78-78.72c-0.71-1.78-0.74-4.05-3.64-4.95
		c-5.01,7.14-9.85,14.62-15.27,21.65c-14.37,18.63-31.91,33.93-51.24,47.15c-52.08,35.6-110.25,57.44-170.39,74.67
		c-56.46,16.18-114.11,26.58-172.28,34.03c-23.07,2.96-46.27,5.06-69.5,6.91c-55.81,4.43-111.68,6.62-167.62,5.3
		c-27.62-0.65-55.29-0.78-82.87-2.15c-36.53-1.81-72.94-5.39-109.03-11.94c-29.46-5.34-59.19-9.14-88.6-14.96
		c-38.26-7.56-76.11-16.64-113.55-27.53c-51.64-15.02-101.67-34.12-149.16-59.52c-31.56-16.88-61.28-36.54-86.43-62.22
		c-20.52-20.95-37.01-44.58-43.35-73.99C679.92,1633.2,679.28,1629.96,678.38,1625.6z M704.87,1659.15
		c4.74,12.21,12.73,22.36,21.46,31.74c7.55,8.12,14.33,17.31,24.65,22.48c9.68,10.73,21.66,19.04,33.58,26.48
		c18.8,11.74,38,23.19,58.42,32.19c14,6.17,27.64,13.43,42.09,18.28c16.69,5.59,33.1,11.94,49.84,17.4
		c25.3,8.24,50.64,16.23,76.52,22.32c15.8,3.72,31.7,7.13,47.57,10.56c17.24,3.72,34.56,7.33,51.91,9.92
		c32.19,4.81,64.36,9.92,96.8,13.21c27.44,2.79,54.94,4.91,82.41,6.98c24.5,1.85,49.19,0.83,73.81,2.13
		c36.92,1.95,73.87-0.88,110.8-1.8c12.95-0.32,25.97-0.81,38.79-2.49c8.3-1.09,16.67-0.57,24.84-1.96
		c19.35-3.28,38.96-4.28,58.38-7.11c28.29-4.12,56.71-7.69,84.61-13.72c35.05-7.57,69.98-15.79,104.2-26.89
		c21.87-7.09,43.37-15.1,64.41-24.08c23.19-9.9,45.86-21.21,66.87-35.44c2.97-2.01,7.5-3.23,6.69-7.65
		c-0.74-4.08-5.95-1.78-8.38-4.04c13.94,1.15,25.84-2.5,34.13-14.58c23.62-21.08,41.78-44.57,44.55-78.28
		c1.49-18.18-1.02-34.32-8.97-50.07c-12.83-25.44-31.66-46.01-53.83-63.43c-38.3-30.1-81.52-51.56-126.43-69.74
		c-25.95-10.5-52.47-19.45-79.35-27.29c-8.95-2.61-17.08-7.37-25.67-10.52c-13.04-4.79-26.93-7.53-40.65-10.13
		c-24.18-4.59-48.19-9.99-72.55-13.78c-31.56-4.91-63.14-9.46-94.92-12.69c-15.88-1.62-31.82-2.64-47.67-4.3
		c-31.81-3.33-63.73-4.43-95.61-5.21c-45.6-1.11-91.27-1.19-136.82,1.97c-11.29,0.78-22.68,0.77-33.83,2.22
		c-22.43,2.92-45.01,4.18-67.45,7.08c-32.68,4.22-65.34,8.66-97.58,15.3c-52.87,10.88-105.16,23.9-155.35,44.5
		c-41.82,17.16-81.99,36.69-116.14,67.07c-16.38,14.57-30.38,30.8-39.42,50.85C688.97,1604.59,690.44,1632.17,704.87,1659.15z"/>
	<path class="st4" d="M283.49,1651.17c-16.17,0-28.86,0.59-41.48-0.12c-30.62-1.72-60.97-5.48-90.19-15.44
		c-9.46-3.23-18.28-7.67-25.99-14.44c-14.69-12.9-11.29-28.38,1.35-37.97c13.5-10.25,28.65-16.86,44.53-21.95
		c26.05-8.35,52.82-13.96,79.9-17.16c17.45-2.06,35-3.87,52.56-5.29c21.33-1.72,42.59-1.71,63.85-1.32
		c27.27,0.5,54.45,3.25,81.23,8.5c11.03,2.16,22.04,5.03,32.47,9.68c8.31,3.7,15.97,8.07,22.11,14.99
		c6.39,7.2,7.66,18.21,2.65,26.68c-6.07,10.25-15.85,16.3-26.1,20.98c-32.38,14.79-66.77,22.32-101.91,27.09
		C345.78,1649.82,313,1652.4,283.49,1651.17z"/>
	<path class="st4" d="M1620.72,1037.49c-32.65,0.92-64.2-5.17-94.63-16.46c-15.53-5.76-30.4-13-42.37-25.48
		c-10.23-10.66-8.89-28.4,6.27-36.03c14.6-7.35,30.24-12.02,46.96-12.01c11.28,0.01,22.51-0.15,33.81-1.65
		c14.97-2,29.82,1.39,44.48,4.33c13.04,2.61,25.89,6.04,38.47,10.51c13.28,4.72,25.47,11.31,36.7,19.76c0.53,0.4,1.07,0.8,1.57,1.23
		c16.62,14.08,14.41,34.95-5.05,44.81c-14.14,7.16-29.48,10.2-45.23,10.94C1634.71,1037.76,1627.71,1037.49,1620.72,1037.49z"/>
	<path class="st3" d="M1763.1,1117.58c-9.24-13.26-3.3-25.85,11.77-29.65c12.64-3.18,25.51-4.99,38.53-3.99
		c22.19,1.72,44.58,2.45,66.31,7.58c20.46,4.83,41.58,5.22,61.95,10.06c13.23,3.15,26.4,6.81,39.27,11.22
		c27.38,9.38,54.71,18.96,80.66,32.02c9.56,4.81,18.5,10.54,27.25,16.61c4.68,3.25,8.96,7.05,12.22,11.67
		c4.32,6.13,7.52,12.85,3.62,20.45c-2.11,4.12-1.27,7.67,0.92,11.27c7.1,11.63,12.6,24.23,21.1,35.02c1.03,1.3,2.08,2.62,2.85,4.08
		c1.55,2.95,1.16,5.85-0.98,8.36c-2.45,2.86-5.6,3.42-9.06,2.18c-4.03-1.45-6.28-4.84-8.42-8.21
		c-6.64-10.42-11.51-21.75-16.79-32.87c-3.74-7.89-3.68-7.99-11.74-6.45c-19.49,3.72-38.99,2.78-58.62,0.94
		c-40.91-3.83-80.74-12.76-120.22-23.77c-37.62-10.49-74.13-23.74-108.63-42.2c-0.58-0.31-1.26-0.41-1.9-0.6
		C1782.93,1133.71,1771.73,1127.28,1763.1,1117.58z M1808.71,1133.82c6.8,5.57,15.08,8.3,23.02,11.48
		c45.44,18.2,92.28,31.63,140.48,40.21c24.82,4.42,49.66,8.91,75.06,7.98c6.98-0.02,13.96-0.06,20.95-0.04
		c4.03,0.01,7.89-0.92,11.82-1.67c4.48-0.85,7.12-3.37,8.21-7.62c1.01-3.93-1.6-6.32-4.19-8.37c-4.16-3.29-8.44-6.48-12.91-9.32
		c-28.89-18.34-61.08-29.05-93.05-40.35c-18.34-6.48-38.46-7.67-55.29-18.64c-1.06-0.69-2.52-0.81-3.83-1.07
		c-39.46-7.92-79.07-14.48-119.55-12.84c-7.61,0.31-15.29,1.12-22.44,4.02c-8.87,3.6-9.61,6.96-3.17,13.74
		C1783.61,1121.65,1795.47,1128.82,1808.71,1133.82z"/>
	<path class="st3" d="M1078.12,861.78c38.47-1.06,69.04,0.11,99.28,5.93c12.43,2.39,24.94,4.66,35.96,11.46
		c12.58,7.76,14.95,15.24,8.1,28.27c-2.23,4.23-0.76,6.81,1.35,9.91c9.16,13.51,18.33,27.01,27.41,40.57
		c2.03,3.03,3.99,6.15,5.56,9.43c1.71,3.57,2.11,7.48-2.28,9.37c-3.93,1.7-5.96-1.27-7.78-4.34c-8.63-14.62-17.35-29.19-26.04-43.78
		c-1.02-1.72-2.05-3.43-3.17-5.09c-4.55-6.76-4.92-7.02-12.01-3.59c-14.79,7.15-30.36,11.96-46.29,15.66
		c-29.54,6.86-59.45,11.19-89.65,14.29c-37.21,3.82-74.44,4.01-111.74,3.65c-16.98-0.16-34.07-0.88-50.79-2.79
		c-18.01-2.06-35.78-7.61-52.16-16.24c-0.88-0.46-1.68-1.08-2.5-1.65c-11.93-8.28-12.36-19.79-0.72-28.63
		c7.74-5.87,16.58-9.82,25.7-13.17c27.05-9.94,55.23-15,83.56-19.34c21.39-3.27,43.38-2.75,64.43-6.81
		C1045.02,860.91,1065.44,862.98,1078.12,861.78z M1163.7,919.71c14.15-2.67,27.53-7.39,39.81-15.01c1.41-0.87,2.81-1.82,4.02-2.95
		c4.3-4.01,4.32-7.18-0.26-10.65c-2.35-1.78-5.1-3.16-7.85-4.27c-10.53-4.24-21.46-7.35-32.65-8.96c-32.6-4.7-65.48-6.31-98.35-5.88
		c-14.9,0.2-29.74,2.52-44.62-0.34c-1.91-0.37-4-0.09-5.97,0.16c-15.15,1.91-30.34,3.52-45.42,5.92
		c-27.89,4.43-55.9,8.37-82.76,17.68c-9.43,3.27-19.01,6.21-27.48,11.59c-4.63,2.94-10.96,5.9-10.03,12.4
		c0.87,6.1,6.95,8.56,12.43,10.23c19.8,6.03,40.03,9.56,60.77,9.79c3.49,1.1,6.98,2.08,10.7,2.08c34.82-0.02,69.62,1.29,104.45-1.38
		c28.81-2.2,57.42-5.47,85.76-10.82C1138.9,926.92,1151.85,925.35,1163.7,919.71z"/>
	<path class="st3" d="M293.36,1231.49c-3.39-8.95-0.23-16.27,5.84-22.77c5.46-5.85,11.3-11.23,17.96-15.78
		c30.24-20.68,63.77-34.44,97.92-46.87c15.63-5.69,32.3-8.88,47.43-15.38c20.17-8.67,41.29-12.6,62.31-17.22
		c21.43-4.71,43.24-7.48,65.27-7.76c8.05-0.1,15.93,1.26,23.67,3.25c9.54,2.45,15.52,7.48,16.05,18.63
		c0.49,10.43,5.53,19.78,11.63,28.29c5.04,7.03,10.59,13.66,14.86,21.25c2.31,4.11,6.29,6.81,9.87,9.8
		c2.98,2.49,5.42,5.32,2.65,9.35c-2.22,3.24-6.22,3.37-10.6,0.08c-5.08-3.82-9.49-8.26-12.34-14.16
		c-6.48-13.44-16.56-24.88-20.89-39.68c-5.6,1.84-8.17,6.05-11.71,8.9c-18.31,14.74-38.89,25.61-60.06,35.41
		c-38.17,17.69-77.93,30.96-118.62,41.45c-21.28,5.49-42.88,9.48-64.58,12.91c-0.99,0.16-2.04,0.04-2.97,0.35
		c-18.02,5.98-35.96,3.27-54.19,0.63c-8.54-1.23-13.52-6.43-19.59-10.8L293.36,1231.49z M555.48,1171.59
		c21.05-7.28,39.1-19.48,55.48-34.25c3.28-2.96,7.34-6.51,5.67-11.95c-1.76-5.74-7.19-6.87-12.03-7.4
		c-10.49-1.14-20.91-1.8-31.67-1.08c-30.71,2.05-60.56,7.93-90.03,16.31c-3.85,1.09-7.64,2.4-11.71,2.15
		c-5.1-0.31-9.85,1.06-14.63,2.63c-24.03,7.88-47.6,16.98-70.73,27.15c-24.05,10.59-47.76,21.88-68.65,38.21
		c-5.27,4.12-10.42,8.4-13.85,14.19c-3.66,6.18-1.97,10.82,4.55,13.63c4.36,1.88,8.99,2.21,13.68,2.32
		c15.31,0.35,30.58-0.06,45.75-2.33c6.9-0.98,13.86-1.66,20.69-3c49.15-9.62,96.73-24.5,142.85-43.91
		C539.31,1180.71,548.64,1178.43,555.48,1171.59z"/>
	<path class="st4" d="M2028.99,825.68c9.61,2.6,19.26,4.99,28.47,8.93c7.35,3.14,15.07,5.29,22.91,6.75
		c19.46,3.63,35.87,13.65,51.78,24.6c8.21,5.65,16.03,11.77,25.63,15.08c13.61,4.68,23.13,15.21,33.75,24.13
		c1.48,1.24,2.66,3,3.58,4.73c3.14,5.84,1.94,8.6-4.47,9.64c-4.56,0.74-9.05,2.32-13.78,1.81c-10.54-9.72-22.42-17.62-34.57-25.1
		c-16.39-10.09-34.41-14.83-53.38-17.95c-27.3-4.5-54.53-7.97-82.23-6.48c-13.26-10.57-15.02-21.83-5.41-35.3
		c1.55-2.17,3.3-4.17,3.91-6.85C2013.36,829.73,2021.43,829.25,2028.99,825.68z"/>
	<path class="st4" d="M2248.35,1561.27c-30.69,1.52-62.23-4.59-92.86-15.67c-16.35-5.91-31.7-13.61-43.98-26.63
		c-10.49-11.12-12.69-27.86,2.82-40.84c14.88-12.46,32.08-17.05,50.54-18.75c9.58-0.89,19.09-2.35,28.82-2.2
		c35.23,0.55,69.53,5.85,102.62,18.25c12.9,4.83,24.63,11.88,35.42,20.19c7.13,5.49,12.71,12.71,13.25,22.55
		c0.81,14.85-7.44,26.14-24.03,32.72c-17.52,6.95-35.62,10.74-54.53,10.4C2261.08,1561.19,2255.74,1561.27,2248.35,1561.27z
		 M2199.23,1471.24c-5.21,0-8.87,0.07-12.54-0.01c-21.32-0.51-41.66,4.21-61.42,11.7c-15.87,6.01-18.18,21.06-5.08,31.79
		c0.26,0.21,0.57,0.35,0.82,0.57c14.77,13.23,32.7,20.37,51.32,25.74c32.63,9.41,66.11,12,99.9,10.07
		c13.27-0.76,26.38-3.2,39.06-7.58c7.43-2.57,13.85-6.45,18.91-12.51c5.89-7.06,5.97-12.49-0.16-19.54
		c-3.71-4.27-7.83-8.13-12.65-11.25c-13.55-8.78-28.34-14.78-43.76-19.16C2248.84,1474,2223.54,1470.37,2199.23,1471.24z"/>
	<path class="st4" d="M551.53,991.59c-4.36,0-9.03,0-13.69,0c-1.33,0-2.67,0.02-4-0.07c-9.87-0.66-17.2-5.62-18.4-12.41
		c-2.13-12.13,2.08-21.45,12.22-25.58c8.67-3.54,17.94-5.94,27.2-5.7c13.28,0.34,25.59-3.11,38.18-6.31
		c17.14-4.37,33.67-2.64,48.7,7.64c10.04,6.87,9.93,14.24-0.8,20.35c-8.67,4.94-17.55,9.6-27.3,12.18
		C594.44,986.76,573.39,992.85,551.53,991.59z"/>
	<path class="st4" d="M105.34,1203.34c-18.59,1.63-22.04-18.17-15.07-30.83c4.15-7.53,8.93-15.05,14.85-21.21
		c17.67-18.41,34.17-38.21,56.65-51.4c12.67-7.43,25.75-14.05,39.7-18.6c7.55-2.47,15.55-3.71,23.58-1.85
		c8.61,2,11.75,5.86,12.25,14.55c0.4,6.91-1.69,13.18-4.91,19.09c-7.06,12.95-16.57,23.91-27.25,34.07
		c-12.57,11.96-25.55,23.26-40.25,32.57c-15,9.5-30.84,17.03-47.86,22.1C113.12,1202.99,109.21,1203.45,105.34,1203.34z
		 M108.89,1191.29c6.41-1.05,13.3-3.47,19.93-6.64c30.08-14.39,56.2-34.19,78.73-58.65c5.14-5.59,9.55-11.99,13.47-18.51
		c2.43-4.03,6.01-9.18,2.19-13.79c-3.39-4.09-8.62-1.91-13.16-0.9c-14.2,3.16-26.72,10.02-38.8,17.78
		c-10.06,6.46-19.67,13.64-29.6,20.24c-15.35,10.2-26.68,23.78-37.3,38.29c-2.8,3.83-4.48,8.2-4.87,12.93
		C98.92,1188.7,101.49,1191.39,108.89,1191.29z"/>
	<path class="st4" d="M2305.61,1167.55c15.03,0.11,28.99,2.75,39.62,14.95c7.45,8.54,7.89,19.97,0.84,28.91
		c-7.54,9.57-17.78,13.91-29.26,15.35c-10.88,1.37-21.76,1.38-32.51-2.41c-7.54-2.66-13.41-6.87-18.41-12.94
		c-5.76-7-6.4-14.5-2.69-22.34c6.64-14,18.44-20.35,33.43-21.49C2299.6,1167.35,2302.61,1167.55,2305.61,1167.55z"/>
	<path class="st4" d="M1148.98,1149.55c8.07-0.75,15.93,0.68,23.73,2.37c6.61,1.43,12.55,4.1,17.29,9.25
		c6.06,6.6,6.95,13.55,1.44,20.52c-6.04,7.65-13.45,13.72-22.62,17.5c-18.54,7.65-37.6,12.57-57.69,14.74
		c-15.27,1.65-29.71,0.16-44.08-4.3c-6.53-2.03-12.51-5.08-13.7-12.84c-1.28-8.35,1.8-14.95,8.63-19.86
		c2.96-2.12,5.79-4.33,9.14-5.97c18.84-9.2,38.09-17.03,59-20.35C1136.44,1149.61,1142.69,1149.75,1148.98,1149.55z
		 M1145.79,1163.22c-12.87-1.68-28.37,3.25-44.11,5.35c-12.97,1.73-24.36,8.62-34.48,17c-6.03,5-5.3,10.75,1.58,13.96
		c4.19,1.95,8.44,3.69,13.28,3.91c23.86,1.08,47.13-1.96,69.62-9.97c9.36-3.34,18.71-7.19,26.26-13.95
		c7.18-6.43,5.94-11.16-3.11-14.14C1166.38,1162.61,1157.7,1163.63,1145.79,1163.22z"/>
	<path class="st3" d="M1753.87,1102.73c-0.74,1.04-1.39,2.2-2.28,3.14c-11.17,11.87-22.32,23.75-33.62,35.49
		c-1.8,1.87-4.14,3.37-6.46,4.58c-3.43,1.79-6.65,1.05-8.55-2.42c-1.77-3.22-0.25-5.81,2.64-7.55
		c11.82-7.12,20.84-17.47,30.81-26.71c3.91-3.63,7.9-7.2,12.97-9.14C1751.47,1099.32,1753.23,1099.94,1753.87,1102.73z"/>
	<path class="st3" d="M293.28,1231.38c-0.97,12.58,1.12,25.31-2.15,37.78c-1.36,5.18-2.63,10.36-5.94,14.69
		c-1.45,1.9-3.44,3.59-5.96,2.07c-2.41-1.45-2.5-4.23-1.27-6.22c8.67-14.07,8.2-29.69,8.37-45.32c0.05-5.07,3.51-4.76,7.04-2.9
		C293.36,1231.49,293.28,1231.38,293.28,1231.38z"/>
	<path class="st3" d="M811.27,974.13c0.31-1.65,0.52-3.98,1.19-6.18c4.13-13.65,9.71-26.76,15.2-39.9c0.53-1.27,1.24-2.56,2.73-2.35
		c2.23,0.32,2.36,2.27,1.88,3.85c-3.04,9.8-6.21,19.56-9.36,29.33c-1.93,5.98-4.22,11.87-3.8,18.36c0.15,2.33-0.02,5.03-3.21,5.13
		c-2.83,0.08-3.82-2.22-4.31-4.62C811.39,976.79,811.41,975.78,811.27,974.13z"/>
	<path class="st4" d="M1763.1,1117.58c8.63,9.7,19.83,16.13,30.11,23.73c-3.68,2.47-6.92,0.06-10.23-1.02
		c-6.33-2.07-11.08-6.88-16.8-10.07C1761.36,1127.52,1763.43,1122,1763.1,1117.58z"/>
	<path class="st5" d="M2181.82,542.65c10,0.22,17.72,8.05,17.52,17.77c-0.18,8.92-7.86,17.71-15.42,17.65
		c-11.31-0.09-21.51-10.04-21.25-20.72C2162.88,548.88,2171.29,542.42,2181.82,542.65z"/>
	<path class="st5" d="M1531.9,404.39c-9.15,0.17-16.57-6.78-16.94-15.87c-0.39-9.46,6.85-17.48,16.16-17.91
		c9.27-0.43,17.37,7.17,17.58,16.49C1548.91,396.47,1541.39,404.21,1531.9,404.39z"/>
	<path class="st5" d="M1178.5,594.58c-6.16-0.63-12.05-7.37-11.26-12.86c0.74-5.1,6.65-8.77,12.94-8.03
		c6.07,0.71,10.31,5.61,9.91,11.44C1189.7,591.04,1184.59,595.2,1178.5,594.58z"/>
	<path class="st5" d="M245.16,718.9c-6.04-1.78-11.34-3.58-15.96-6.86c-2.2-1.56-4-3.64-3.1-6.7c0.99-3.35,3.69-4.69,6.85-4.67
		c5.02,0.03,9.91,1.51,14.29,3.66c3.72,1.83,3.84,5.66,0.19,7.85C244.59,713.88,245.37,716.33,245.16,718.9z"/>
	<path class="st5" d="M665.19,193.53c-5.46,3.55-10.66,7.92-17.6,3.89c-2.69-1.56-5.46-3.25-4.16-6.9c1.35-3.8,4.76-3.46,7.53-2.24
		C655.51,190.27,660.15,191.83,665.19,193.53z"/>
	<path class="st5" d="M1770.76,653.85c-5.63,1.72-10.74,0.34-15.77-0.88c-3.18-0.77-5.16-3.21-3.88-6.78
		c1.15-3.22,4.01-3.03,6.69-2.56C1763.78,644.67,1766.67,649.84,1770.76,653.85z"/>
	<path class="st5" d="M213.62,319.33c-5.8-1.73-9.57-3.69-12.84-6.53c-1.64-1.43-2.14-3.36-1.34-5.38c0.94-2.37,3.03-2.11,5.03-1.86
		c0.33,0.04,0.65,0.12,0.96,0.22c3.13,1.02,6.56,1.72,8.89,4.08C217.5,313.08,211.32,315.12,213.62,319.33z"/>
	<path class="st5" d="M1900.81,412.05c9.15-1.99,13.83,3.6,19.54,6.19c0.97,0.44,0.99,1.72,0.6,2.64c-0.64,1.48-2.08,1.46-3.31,1.13
		C1911.61,420.37,1906.65,416.89,1900.81,412.05z"/>
	<path class="st5" d="M631.65,526.73c-5.94,3.5-10.53-1.02-15.4-1.06c-0.26,0-0.72-1.04-0.73-1.59c-0.01-0.98,0.36-2,1.54-2.12
		C622.33,521.43,627.18,522.22,631.65,526.73z"/>
	<path class="st5" d="M2230.78,93.96c-4.63,1.27-7.53-1.75-10.96-2.52c-1.57-0.35-2.67-2.01-1.7-3.95c0.91-1.8,2.64-2.06,4.28-1.58
		C2226.42,87.11,2228.86,89.97,2230.78,93.96z"/>
	<path class="st5" d="M1298.64,200.48c-0.39,2.35-1.9,2.99-3.6,2.9c-3.28-0.18-6.89-0.33-7.37-4.7c-0.22-1.97,1.53-2.84,3.29-2.88
		C1294.59,195.71,1297.08,197.55,1298.64,200.48z"/>
	<path class="st5" d="M236.96,136.5c-0.35,5.53-4.84,3.34-7.72,4.13C228.77,133.58,233.5,136.23,236.96,136.5z"/>
	<path class="st5" d="M2271.2,300.24c0.43-0.48,0.02-2.15,1.62-1.17c1.12,0.68,2.07,1.53,1.82,2.98c-0.17,0.98-0.79,1.76-1.95,1.31
		C2271.34,302.82,2271.02,301.65,2271.2,300.24z"/>
	<path class="st6" d="M1972.83,152.41c6.51-0.08,12.9,5.27,13.23,11.08c0.32,5.5-4.2,9.9-10.1,9.82
		c-6.58-0.08-12.53-5.59-12.56-11.62C1963.38,156.23,1967.19,152.48,1972.83,152.41z"/>
	<path class="st6" d="M1619.49,138.42c-1.87,3.54-0.87,7.47-1.99,11.14c-0.25,0.82-1.1,1.81-1.85,2.01
		c-0.69,0.18-1.96-0.39-2.4-1.02c-1.79-2.57-1.92-5.55-1.01-8.41C1613.19,139.15,1615.04,137.04,1619.49,138.42z"/>
	<path class="st6" d="M1041.26,123.56c-1.08,3.05-3.49,2.94-5.75,2.48c-2.84-0.58-6.57-0.99-6.26-4.88c0.3-3.75,4.01-4.41,6.84-3.91
		C1039.11,117.8,1040.69,120.57,1041.26,123.56z"/>
	<path class="st6" d="M1099.49,408.94c-0.49,0.59-0.97,1.79-1.68,1.94c-3.76,0.81-7.32,0-10.2-2.55c-1.4-1.24-1.26-3.07,0.28-4.35
		c2.22-1.85,4.45-0.66,6.5,0.38C1096.37,405.37,1098.96,405.82,1099.49,408.94z"/>
	<path class="st6" d="M333.21,400c-2.9-0.32-6.26-0.74-6.85-4.28c-0.55-3.26,2.36-3.53,4.73-3.35c2.97,0.22,6.33,0.49,6.51,4.5
		C337.71,399.48,335.38,399.77,333.21,400z"/>
	<path class="st4" d="M1275.31,753.18c-10.92-5.66-19.31-14.1-25.96-24.26c-6.42-9.81-5.56-14.01,3.48-21.14
		c2.09-1.65,4.48-3.08,6.1-5.12c10.22-12.89,24.31-15.04,38.88-12.37c19.19,3.52,38.44,2.69,57.69,3.61
		c21.93,1.05,43.86,1.65,65.81,2.1c10.28,0.21,20.34,3.21,30.37,5.62c21.41,5.13,43.42,6.25,65.05,9.94
		c11.56,1.97,22.29,6.68,33.5,9.78c3.7,1.02,5.99,3.11,6.02,7.85c0.03,5.54,3.5,10.61,3.06,16.52c-0.33,4.55-1.59,8.26-4.67,11.7
		c-10.61,11.85-23.97,18.75-39.22,22.4c0.34-9.98-4.2-16.06-13.85-19.21c-13.58-4.43-26.83-9.89-40.41-14.33
		c-7.54-2.47-14.89-6.17-22.97-6.42c-11.95-0.38-23.85-1.06-35.78-1.99c-16.86-1.31-33.78-1.8-50.59-3.82
		c-2.27-0.27-4.65-0.04-6.94,0.27c-15.9,2.12-31.76,1.8-47.68,0.06c-7.24-0.79-14.61-0.74-21.91-0.51
		c-5.26,0.17-6.26,2.13-4.33,7.21C1272.48,745.08,1275.06,748.71,1275.31,753.18z"/>
	<path class="st0" d="M1275.31,753.18c-0.25-4.48-2.83-8.11-4.35-12.12c-1.93-5.08-0.92-7.04,4.33-7.21
		c7.3-0.23,14.67-0.29,21.91,0.51c15.93,1.75,31.79,2.07,47.68-0.06c2.29-0.31,4.67-0.54,6.94-0.27
		c16.81,2.02,33.73,2.51,50.59,3.82c11.93,0.93,23.83,1.61,35.78,1.99c8.08,0.26,15.43,3.95,22.97,6.42
		c13.58,4.45,26.83,9.91,40.41,14.33c9.65,3.14,14.19,9.23,13.85,19.21c-14.28,5.89-29.5,7.96-44.61,9.3
		c-12.84,1.14-25.71,2.91-38.69,2.37c-41.95-1.74-83.25-7.29-122.95-21.63C1297.3,765.57,1285.83,760.28,1275.31,753.18z"/>
	<path class="st4" d="M95.36,1021.93c-5.25,2.37-10.98,2.67-16.53,3.26c-7.3,0.78-10.35-2.14-9.25-9.21
		c3.09-19.74,8.83-37.84,26.26-50.74c13.31-9.85,24.84-22.06,37.55-32.76c19.12-16.1,39.48-30.51,61.4-42.63
		c9.99-5.52,20.66-9.43,31.65-12.07c6.98-1.68,14.43-1.95,21.66-1.92c7.69,0.03,10.3,3.7,8.39,10.99c-2.02,7.75-4.58,15.34-11,20.83
		c-10.62,3.89-21.31,7.9-30.59,14.39c-19.01,13.3-39.46,24.59-56.97,40.03c-4.79,4.23-10.22,7.41-16.45,9.07
		c-5.69,1.52-10.42,4.66-13.79,9.34c-4.5,6.25-10.12,11.43-15.24,17.08C105.78,1004.97,99.52,1012.74,95.36,1021.93z"/>
	<path class="st4" d="M515,805.85c-10.63-3.41-12.59-8.39-9.86-18.54c3.11-11.56,10.34-18.44,20.37-24.1
		c33.1-18.68,68.82-29.75,105.75-37.36c32.67-6.72,65.72-9.52,99.07-8.08c6.95,0.3,13.89,1.2,20.78,2.2
		c5.23,0.76,6.98,3.78,4.5,8.54c-4.16,7.99-9.24,15.4-17.97,19.26c-3.32,0.03-6.72-0.41-9.95,0.15c-21.36,3.7-43.01,1.01-64.49,3.36
		c-14.21,1.56-28.24,3.3-42.13,6.67c-20.11,4.87-39.18,12.58-57.91,21.06C546.42,786.61,527.89,791.24,515,805.85z"/>
	<path class="st0" d="M515,805.85c12.89-14.61,31.42-19.24,48.17-26.83c18.72-8.49,37.8-16.19,57.91-21.06
		c13.89-3.36,27.92-5.11,42.13-6.67c21.48-2.35,43.14,0.34,64.49-3.36c3.23-0.56,6.62-0.13,9.95-0.15
		c-7.29,8.09-16.94,12.82-26.32,17.69c-42.3,21.93-87.19,35.72-134.34,42.57c-16.26,2.36-32.49,1.77-48.76,1.59
		C523.52,809.58,519,808.55,515,805.85z"/>
	<path class="st0" d="M2006.68,871.81c27.7-1.49,54.93,1.98,82.23,6.48c18.96,3.12,36.99,7.86,53.38,17.95
		c12.15,7.48,24.03,15.38,34.57,25.1c-50.04,5.52-97.24-4.03-142-26.68c-7.78-3.93-14.75-9.02-21.62-14.29
		C2010.31,878.14,2007.7,875.56,2006.68,871.81z"/>
	<path class="st0" d="M95.36,1021.93c4.17-9.2,10.43-16.96,17.12-24.35c5.12-5.66,10.74-10.83,15.24-17.08
		c3.37-4.68,8.1-7.81,13.79-9.34c6.22-1.66,11.65-4.85,16.45-9.07c17.51-15.44,37.95-26.72,56.97-40.03
		c9.28-6.49,19.96-10.49,30.59-14.39c-4.71,10.06-12.29,18.04-19.66,26.02c-19.22,20.78-41.16,38.45-64.5,54.36
		c-15.89,10.83-31.91,21.5-49.96,28.6C106.12,1018.73,100.99,1021.07,95.36,1021.93z"/>
	<path class="st0" d="M494.83,789.24c0.35-0.53,0.69-1.06,1.04-1.59c1.28,0.93,0.12,1.51-0.32,2.18
		C495.55,789.83,494.83,789.24,494.83,789.24z"/>
	<path class="st0" d="M2384.85,1049.48c0.38-2.66,1.81-4.63,4.05-6.06C2388.82,1046.29,2388.11,1048.73,2384.85,1049.48z"/>
	<path class="st0" d="M2382.98,1053.43c0.2-1.55,0.73-2.94,1.94-4C2384.28,1050.76,2383.63,1052.09,2382.98,1053.43z"/>
	<path class="st7" d="M1915.15,1747.66c2.42,2.26,7.64-0.04,8.38,4.04c0.8,4.42-3.73,5.64-6.69,7.65
		c-21.01,14.22-43.69,25.54-66.87,35.44c-21.04,8.98-42.54,16.99-64.41,24.08c-34.23,11.1-69.15,19.31-104.2,26.89
		c-27.91,6.03-56.32,9.6-84.61,13.72c-19.42,2.83-39.03,3.83-58.38,7.11c-8.18,1.38-16.54,0.87-24.84,1.96
		c-12.82,1.68-25.84,2.17-38.79,2.49c-36.93,0.92-73.88,3.74-110.8,1.8c-24.62-1.3-49.31-0.29-73.81-2.13
		c-27.47-2.07-54.97-4.2-82.41-6.98c-32.45-3.29-64.61-8.4-96.8-13.21c-17.35-2.59-34.67-6.2-51.91-9.92
		c-15.87-3.42-31.77-6.84-47.57-10.56c-25.88-6.1-51.22-14.08-76.52-22.32c-16.74-5.46-33.16-11.8-49.84-17.4
		c-14.45-4.84-28.08-12.11-42.09-18.28c-20.42-9-39.62-20.45-58.42-32.19c-11.91-7.44-23.89-15.75-33.57-26.48
		c7.08-8.26,16.52-13.33,25.61-18.85c21.66-13.15,45.76-21.61,67.32-34.98c11.11-6.89,23.12-11.9,35.72-15.22
		c17.38-4.57,34.84-8.84,52.34-12.97c27.53-6.5,55.7-9.83,83.19-16.63c14.91-3.69,30.14-5.32,45.49-5.57
		c14.72-0.23,29.32-1.78,43.35-6.19c21.66-6.8,44.07-10.26,66.08-15.49c35.44-8.43,71.82-9.34,107.95-12.08
		c23.57-1.79,47.26-1.28,70.83-2.7c18.67-1.13,37.19-1.7,55.77,0.55c23.79,2.87,47.6,5.45,70.77,12.04
		c16.33,4.65,32.77,8.9,49.15,13.38c21.52,5.89,41.95,15.17,63.68,20.46c16.3,3.97,31.57,10.73,45.94,19.19
		c12.38,7.29,25.15,13.62,38.37,19.16c3.67,1.54,7.27,3.34,10.71,5.34c16.13,9.34,32.24,18.72,48.26,28.26
		c4.12,2.45,8.31,3.95,13.1,4.29c6.64,0.47,13.29,1.04,19.85,2.09c19.95,3.17,38.54,9.68,55.39,21.29
		c18.02,12.41,37.83,21.34,59.78,23.67C1891.58,1743.66,1903.34,1745.67,1915.15,1747.66z M1181.6,1653.4
		c-1.26-0.41-2.51-1.08-3.79-1.19c-19.59-1.58-39.22-0.94-58.83-0.95c-2.29,0-4.83,0.13-6.82,1.09
		c-17.06,8.25-35.75,12.01-53.12,19.37c-14.63,6.2-30.02,10.31-44.69,16.49c-8.56,3.61-17.09,7.62-25.93,10.27
		c-14,4.19-27.37,9.89-40.94,15.13c-14.24,5.5-28.03,12.43-42.61,16.7c-16.98,4.97-32.62,13.15-49.37,18.5
		c-2.02,0.64-3.48,1.89-4.29,3.86c-2.32-1.29-4.79-2.37-6.92-3.91c-8.21-5.91-9.42-12.09-3.8-20.51c2.01-3,4.51-5.86,7.33-8.09
		c5.47-4.32,11.13-8.48,17.06-12.13c22.56-13.88,47.17-23.05,72.34-30.9c37.9-11.81,76.45-20.49,116.02-24.35
		c7.28-0.71,14.57-1.41,21.81-2.46c3.27-0.47,6.99-1.51,6.69-5.93c-0.29-4.26-3.68-5.06-7.25-5.15c-8.01-0.21-15.91,0.86-23.86,1.71
		c-43.19,4.62-85.4,13.59-126.41,27.95c-23.61,8.26-46.63,17.86-67.49,31.96c-8.6,5.81-16.59,12.3-22.37,21.09
		c-9.25,14.07-5.96,27.33,8.84,35.06c13.89,7.25,28.98,9.43,44.41,9.91c1.67,0.05,3.35-0.25,3.98-3.23
		c-7.03-3.54-15.47-2.45-22.68-5.6c2.18-2.83,5.4-3.9,8.65-4.51c8.77-1.65,17.08-5.08,25.56-7.55
		c25.01-7.31,50.23-13.94,75.14-21.59c12.62-3.88,25.39-7.23,38.06-10.94c20.9-6.12,41.22-14.33,62.92-17.57
		c13.29-0.36,26.41-1.34,39.5-4.39c10.47-2.44,20.08-6.78,30.03-10.4c9.48,2.31,19.15,2.03,28.8,2.08
		c9.97,0.05,19.92-0.47,29.85,1.63c6.79,1.44,13.87,2.31,20.79,2.15c16.35-0.39,32.47,3.33,48.82,2.29
		c1.31-0.08,2.65,0.21,3.97,0.42c13.15,2.05,26.32,3.3,39.67,3.7c12.6,0.38,25.23,1.27,37.81,2.18c22.88,1.64,45.7,3.72,68.67,3.63
		c6.65-0.03,13.56-0.75,19.91,0.73c13.16,3.07,26.37,3.42,39.7,3.21c16.98-0.27,33.79,2.88,50.82,2.29
		c5.53-0.19,11.42,0.92,16.66,2.78c24.08,8.55,48.17,17,72.87,23.66c2.83,0.76,5.97,2.22,6.45,5.54c0.45,3.11-2.44,4.57-4.72,5.81
		c-7.96,4.34-15.01,10.05-20.82,16.76c-11.78,13.59-26.7,18.71-43.79,16.74c-10.99-1.27-21.89-1.35-32.86-1.62
		c-2.98-0.07-6.03-0.14-8.93-0.74c-14.95-3.08-29.35-8.27-43.92-12.61c-13.8-4.11-27.13-10.64-40.18-16.95
		c-13.4-6.47-27.99-8.13-41.75-13.01c-11.04-3.91-23.04-5.84-34.69-8.33c-20.16-4.31-39.97-9.54-60.97-8.51
		c-20.81,1.02-41.71-0.97-62.33,4.29c-15.11,3.86-31.1,3.09-46.2,7.52c-13.61,4-27.82,4.83-41.67,7.58
		c-15.57,3.09-31.43,5.1-47.02,8.47c-1.61,0.35-3.32,0.28-4.98,0.31c-12.28,0.22-23.9,5.83-36.39,4.52
		c-1.18-0.12-2.57,0.69-3.71,1.33c-3.01,1.7-6.26,2.31-9.63,2.11c-5.42-0.32-10.52,1.56-15.81,2.1c-2.87,0.29-5.23,1.27-5.67,4.54
		c-0.48,3.5-0.11,6.85,3.4,8.63c2.35,1.19,4.95,2.03,7.53,2.59c4.72,1.02,7.58,3.56,8.8,8.36c4.46,17.53,18.81,26.08,32.83,34.19
		c9.42,5.45,19.3,10.31,29.06,15.24c1.87,0.94,3.41,2.04,4.17,4.03c-3.26-0.6-6.78-0.61-9.73-1.9
		c-20.15-8.85-41.96-12.82-62.21-21.34c-11.56-4.86-23.65-7.77-37.04-9.84c3.21,4.08,7.08,4.36,10.46,5.32
		c8.33,2.38,16.57,4.99,24.47,8.56c20.33,9.16,42.35,13.72,62.6,23.14c3.25,1.51,7.04,1.91,10.63,2.63
		c7.5,1.52,15.14,2.46,22.51,4.44c21.14,5.68,42.78,5.7,64.38,6.35c4.67,0.14,9.36-0.13,13.37-3.08c9.67,0.71,18.94,3.53,28.15,6.15
		c10.83,3.08,21.97,4.67,32.87,7.39c7.31,1.82,15.64,2.17,22.1,5.44c10.9,5.52,20.26,2.04,29.62-1.91
		c6.47-2.73,9.47-8.99,9.64-16.26c0.16-6.61-3.68-10.47-9.06-13.13c-3.89-1.92-8.05-3.07-12.42-3.58c-8.62-1-17.01-3.07-25.27-5.74
		c-2.34-0.75-4.38-1.58-5.21-4.1c13.04-1.33,25.87,0.8,38.8,2.01c16.21,1.52,32.52,2.09,48.79,2.63c3.92,0.13,8.59,0.22,11.57-4.39
		c-2.87-2.35-5.9-2.22-8.82-2.51c-9.61-0.95-19.19-2.36-28.82-2.83c-23.91-1.15-47.51-5.83-71.65-4.92
		c-15.95,0.6-31.9,1.85-47.89,1.49c-1.39-3.73-4.82-4.61-8.04-5.02c-13.16-1.71-26.35-4.18-39.56-4.41
		c-29.15-0.51-57.29-5.75-84.85-14.83c-5.76-1.9-10.6-5.53-15.85-8.38c-1.52-0.82-2.44-2.41-2.17-4.19c0.3-1.97,1.97-2.5,3.7-2.61
		c1.99-0.13,4.03,0.1,5.98-0.21c13.8-2.16,27.79-1.97,41.66-3.31c9.9-0.96,18.9-6.26,29.21-4.77c7.64,1.1,15.3-0.38,22.72-2.26
		c7.42-1.88,15.01-2.75,22.45-4.25c24.08-4.84,48.68-4.49,72.89-8.77c21.62-3.83,43.48,0.16,64.52,7.54
		c14.33,5.03,28.8,10.16,43.63,13.12c26.48,5.27,49.83,18.12,73.98,28.88c11.56,5.15,23.62,8.72,35.37,13.07
		c6.34,2.35,12.73,5.56,19.72,6.48c24.75,3.28,49.55,5.16,74.55,4.35c12.9-0.42,23.61-7.09,33.81-13.19
		c7.56-4.52,13.6-12.32,20.5-18.51c8.18-7.32,16.45-14.48,24.94-21.42c3.15-2.58,6.15-4.4,10.34-5.25
		c14.68-3,27.26-17.48,29.05-32.51c4.22,1.96,8.49,3.83,12.67,5.89c12.87,6.37,25.91,11.89,40.38,13.94
		c10.18,1.44,20.16,4.31,30.18,6.76c3.2,0.78,6.4,1.94,9.28,3.51c5.44,2.97,6.08,5.79,3.6,11.54c-3.16,7.33-9.64,8.57-16.46,9.07
		c-14.35,1.04-27.42,8.2-41.93,8.62c-2.46,0.07-4.08,2.31-4.02,4.96c0.06,2.75,1.94,4.3,4.49,4.45c3.97,0.23,8.05,0.55,11.95-0.03
		c14.47-2.18,28.32-7.06,42.54-10.39c10.36-2.42,13.56-12.1,14.65-21.75c1.08-9.52-6.16-13.21-13.13-16.7
		c-2.06-1.03-4.33-1.75-6.58-2.3c-9.69-2.39-19.41-4.65-29.12-6.97c-8.4-2.01-17.13-2.99-25.01-6.75
		c-18.63-8.88-37.52-17.29-55.28-27.82c-24.05-14.27-48.55-27.7-73.12-41.04c-9.69-5.26-19.71-9.6-30.19-13.06
		c-17.06-5.64-34-11.65-50.99-17.51c-7.86-2.71-15.71-5.47-23.61-8.1c-2.33-0.78-4.89-2.36-7.28,0.67c0.78,2.2,2.87,2.61,4.57,3.35
		c20.42,8.95,40.84,17.98,61.92,25.26c20.57,7.11,40.05,16.26,58.1,28.44c-2.21,2.62-5.05,3.17-8.14,2.17
		c-16.36-5.27-32.77-10.32-49.23-15.28c-8.11-2.44-15.95-3.98-24.37-4.14c-17.94-0.34-35.96,1.65-53.81-1.74
		c-2.94-0.56-6-0.2-8.62,1.67c-1.65-0.16-3.37-0.06-4.94-0.51c-32.65-9.24-65.69-17.28-96.78-31.38
		c-27.44-12.45-56.11-18.63-86.35-16.05c-30.14,2.57-59.12,9.2-85.6,24.64C1196.57,1647.74,1189.23,1650.94,1181.6,1653.4z
		 M1374.52,1844.2c7.98,3.66,16.66,2.98,25.12,2.77c30.32-0.77,60.55,1.43,90.77,2.85c32.91,1.55,65.79,2.93,98.75,2.75
		c13.74-0.07,26.03-4.01,38.09-10.19c10.03-5.14,19.24-11.97,30.29-15.1c2.79-0.79,6.87-1.27,5.87-5.24
		c-1.09-4.38-5.33-2.95-8.48-2.53c-1.94,0.26-3.87,1.05-5.64,1.92c-5.07,2.5-10.11,5.06-15.05,7.79
		c-11.36,6.29-22.61,13.36-36.02,13.63c-20.96,0.42-41.97,0.68-62.9-0.18C1481.76,1840.48,1428.24,1840.02,1374.52,1844.2z"/>
	<path class="st0" d="M1915.15,1747.66c-11.8-2-23.57-4-35.52-5.26c-21.95-2.33-41.76-11.25-59.78-23.67
		c-16.85-11.61-35.45-18.12-55.39-21.29c-6.56-1.04-13.22-1.62-19.85-2.09c-4.79-0.34-8.99-1.84-13.1-4.29
		c-16.01-9.54-32.13-18.92-48.26-28.26c-3.45-2-7.04-3.8-10.71-5.34c-13.22-5.54-25.98-11.87-38.37-19.16
		c-14.37-8.46-29.63-15.22-45.94-19.19c-21.73-5.29-42.16-14.57-63.68-20.46c-16.38-4.48-32.82-8.74-49.15-13.38
		c-23.17-6.6-46.98-9.17-70.77-12.04c-18.58-2.24-37.09-1.67-55.77-0.55c-23.57,1.42-47.26,0.91-70.83,2.7
		c-36.13,2.74-72.51,3.66-107.95,12.08c-22.01,5.23-44.42,8.69-66.08,15.49c-14.03,4.4-28.63,5.95-43.35,6.19
		c-15.35,0.24-30.58,1.88-45.49,5.57c-27.49,6.8-55.65,10.14-83.19,16.63c-17.49,4.13-34.96,8.4-52.34,12.97
		c-12.61,3.32-24.61,8.33-35.72,15.22c-21.56,13.37-45.66,21.83-67.32,34.98c-9.09,5.52-18.52,10.59-25.61,18.85
		c-10.32-5.17-17.1-14.35-24.65-22.47c-8.73-9.38-16.72-19.53-21.45-31.74c0.96-1.75,2.5-3.41,2.79-5.26
		c1.15-7.35,6.05-11.36,11.91-14.95c12.2-7.48,24.31-15.12,36.33-22.89c26.03-16.84,53.66-30.76,81.39-44.48
		c27.75-13.74,56.26-25.74,85.16-36.83c10.86-4.17,21.58-8.89,32.7-12.19c17.84-5.31,35.52-11.17,53.35-16.51
		c30.33-9.09,61.04-16.4,92-22.68c36.51-7.4,73.31-12.96,110.46-16.53c31.47-3.03,62.9-5.56,94.52-5.62
		c3.65-0.01,7.37-0.1,10.92-0.82c6.3-1.27,12.75-1.77,18.9-0.74c21.14,3.54,42.52,0.65,63.76,3.24c16.1,1.96,32.43,2.55,48.63,4.15
		c33.78,3.34,67.17,8.85,100.37,15.87c37.18,7.86,73.78,17.85,109.59,30.44c40.58,14.27,79.54,32.26,116.92,53.68
		c48.08,27.55,90.59,61.97,127.85,102.85c7.13,7.82,13.92,16.04,20.4,24.52c9.52,12.46,17.79,25.71,26.46,38.71
		C1940.98,1745.16,1929.09,1748.81,1915.15,1747.66z"/>
	<path class="st4" d="M1949.28,1733.08c-8.67-13.01-16.94-26.25-26.46-38.71c-6.48-8.48-13.27-16.69-20.4-24.52
		c-37.26-40.88-79.77-75.3-127.85-102.85c-37.38-21.42-76.34-39.41-116.92-53.68c-35.81-12.59-72.41-22.58-109.59-30.44
		c-33.2-7.02-66.59-12.54-100.37-15.87c-16.21-1.6-32.54-2.19-48.63-4.15c-21.24-2.59-42.62,0.3-63.76-3.24
		c-6.15-1.03-12.6-0.53-18.9,0.74c-3.55,0.72-7.28,0.82-10.92,0.82c-31.62,0.06-63.05,2.6-94.52,5.62
		c-37.15,3.58-73.94,9.13-110.46,16.53c-30.96,6.27-61.67,13.59-92,22.68c-17.83,5.34-35.51,11.21-53.35,16.51
		c-11.13,3.31-21.84,8.02-32.7,12.19c-28.9,11.09-57.41,23.09-85.16,36.83c-27.72,13.73-55.35,27.64-81.39,44.48
		c-12.02,7.78-24.13,15.41-36.33,22.89c-5.87,3.6-10.76,7.6-11.91,14.95c-0.29,1.85-1.82,3.51-2.79,5.26
		c-14.43-26.98-15.91-54.56-3.29-82.53c9.04-20.05,23.04-36.27,39.42-50.85c34.15-30.38,74.32-49.91,116.14-67.07
		c50.19-20.6,102.48-33.62,155.35-44.5c32.24-6.63,64.9-11.08,97.58-15.3c22.44-2.89,45.02-4.15,67.45-7.08
		c11.16-1.45,22.55-1.44,33.83-2.22c45.55-3.16,91.22-3.08,136.82-1.97c31.88,0.78,63.8,1.88,95.61,5.21
		c15.85,1.66,31.79,2.68,47.67,4.3c31.78,3.24,63.36,7.78,94.92,12.69c24.36,3.79,48.37,9.2,72.55,13.78
		c13.72,2.6,27.61,5.35,40.65,10.13c8.59,3.15,16.71,7.91,25.67,10.52c26.88,7.84,53.41,16.79,79.35,27.29
		c44.91,18.18,88.13,39.64,126.43,69.74c22.17,17.42,41,37.98,53.83,63.43c7.95,15.76,10.46,31.9,8.97,50.07
		C1991.06,1688.52,1972.89,1712,1949.28,1733.08z"/>
	<path class="st4" d="M1808.71,1133.82c-13.23-5-25.1-12.17-34.88-22.47c-6.44-6.78-5.7-10.13,3.17-13.74
		c7.15-2.9,14.83-3.71,22.44-4.02c40.47-1.64,80.09,4.91,119.55,12.84c1.3,0.26,2.77,0.38,3.83,1.07
		c16.83,10.97,36.95,12.16,55.29,18.64c31.97,11.3,64.16,22.01,93.05,40.35c4.48,2.84,8.75,6.03,12.91,9.32
		c2.59,2.05,5.2,4.44,4.19,8.37c-1.09,4.25-3.73,6.77-8.21,7.62c-3.92,0.74-7.79,1.68-11.82,1.67c-6.98-0.02-13.96,0.03-20.95,0.04
		c-2.37-3.86-6.25-5.73-9.96-7.99c-17.6-10.7-36.61-18.75-54.18-29.59c-13.18-8.13-26.55-16.64-42.31-19.4
		c-6.94-1.21-13.58-3.32-19.87-6.28c-12.11-5.7-25.34-7.62-37.94-11.65c-2.79-0.89-5.88-0.88-8.85-1.16
		c-19.19-1.81-38.38,0.89-57.57,0.02c-0.99-0.04-2,0.01-2.98,0.15c-7.76,1.1-9.2,3.82-6.21,11.47
		C1807.99,1130.6,1808.28,1132.24,1808.71,1133.82z"/>
	<path class="st0" d="M1808.71,1133.82c-0.43-1.58-0.72-3.22-1.32-4.74c-2.99-7.65-1.55-10.38,6.21-11.47
		c0.98-0.14,1.99-0.19,2.98-0.15c19.19,0.86,38.38-1.83,57.57-0.02c2.97,0.28,6.06,0.27,8.85,1.16c12.6,4.03,25.82,5.95,37.94,11.65
		c6.29,2.96,12.94,5.06,19.87,6.28c15.76,2.76,29.13,11.27,42.31,19.4c17.57,10.84,36.58,18.89,54.18,29.59
		c3.71,2.26,7.59,4.13,9.96,7.99c-25.4,0.93-50.24-3.56-75.06-7.98c-48.2-8.58-95.04-22.01-140.48-40.21
		C1823.79,1142.12,1815.51,1139.39,1808.71,1133.82z"/>
	<path class="st4" d="M925.35,939.43c-20.75-0.23-40.97-3.76-60.77-9.79c-5.49-1.67-11.56-4.13-12.43-10.23
		c-0.93-6.5,5.4-9.46,10.03-12.4c8.46-5.38,18.05-8.32,27.48-11.59c26.86-9.32,54.87-13.26,82.76-17.68
		c15.07-2.39,30.27-4.01,45.42-5.92c1.97-0.25,4.06-0.53,5.97-0.16c14.88,2.86,29.73,0.53,44.62,0.34
		c32.87-0.43,65.75,1.18,98.35,5.88c11.18,1.61,22.12,4.72,32.65,8.96c2.75,1.11,5.5,2.49,7.85,4.27c4.58,3.47,4.56,6.64,0.26,10.65
		c-1.21,1.12-2.61,2.07-4.02,2.95c-12.28,7.62-25.66,12.34-39.81,15c-3.6-1.74-7.2-3.48-10.8-5.23
		c-15.07-7.33-30.88-12.55-47.48-14.69c-17.5-2.25-35.15-2.04-52.79-2.32c-28.65-0.46-57.17,3.24-85.81,2.19
		c-4.07-0.15-8.33,0.3-11.59,2.48c-7.04,4.71-14.68,5.57-22.81,5.67c-6.15,0.07-11.77,2.48-16.11,7c-5.5,5.73-5.21,9.69,0.5,15.29
		C919.8,933.06,924.49,934.49,925.35,939.43z"/>
	<path class="st0" d="M925.35,939.43c-0.85-4.93-5.55-6.37-8.56-9.32c-5.7-5.6-5.99-9.56-0.5-15.29c4.34-4.52,9.96-6.93,16.11-7
		c8.13-0.1,15.77-0.96,22.81-5.67c3.26-2.18,7.53-2.63,11.59-2.48c28.64,1.05,57.16-2.65,85.81-2.19
		c17.64,0.28,35.3,0.07,52.79,2.32c16.6,2.14,32.41,7.36,47.48,14.69c3.59,1.75,7.19,3.49,10.8,5.23
		c-11.84,5.65-24.8,7.22-37.43,9.6c-28.35,5.34-56.96,8.61-85.76,10.82c-34.83,2.67-69.63,1.36-104.45,1.38
		C932.33,941.51,928.83,940.52,925.35,939.43z"/>
	<path class="st4" d="M367.33,1231.18c-15.18,2.27-30.44,2.69-45.75,2.33c-4.69-0.11-9.33-0.44-13.68-2.32
		c-6.52-2.81-8.21-7.45-4.55-13.63c3.43-5.79,8.59-10.07,13.85-14.19c20.88-16.33,44.59-27.62,68.65-38.21
		c23.13-10.18,46.7-19.27,70.73-27.15c4.77-1.57,9.52-2.94,14.63-2.63c4.07,0.25,7.86-1.06,11.71-2.15
		c29.47-8.38,59.32-14.27,90.03-16.31c10.76-0.72,21.17-0.06,31.67,1.08c4.84,0.53,10.26,1.66,12.03,7.4
		c1.67,5.43-2.38,8.98-5.67,11.95c-16.38,14.77-34.43,26.98-55.48,34.25c-14.4-2.41-28.66,4.6-43.09,0.68
		c-0.29-0.08-0.64,0.15-0.97,0.18c-12.2,1.14-24.35,2.63-36.63,3.25c-14.89,0.75-29.53,4.11-44.15,7.08
		c-3.19,0.65-6.7,1.75-9.13,3.77c-8.57,7.12-18.58,11.14-28.88,14.75c-2.18,0.76-4.45,1.67-6.23,3.07
		C377.48,1211.44,367.76,1218.03,367.33,1231.18z"/>
	<path class="st0" d="M367.33,1231.18c0.43-13.14,10.15-19.74,19.08-26.81c1.78-1.41,4.05-2.31,6.23-3.07
		c10.3-3.61,20.31-7.63,28.88-14.75c2.43-2.02,5.94-3.12,9.13-3.77c14.62-2.97,29.26-6.33,44.15-7.08
		c12.28-0.62,24.43-2.1,36.63-3.25c0.33-0.03,0.69-0.26,0.97-0.18c14.43,3.93,28.69-3.09,43.09-0.68
		c-6.84,6.84-16.17,9.12-24.61,12.68c-46.12,19.42-93.69,34.29-142.85,43.91C381.19,1229.52,374.23,1230.19,367.33,1231.18z"/>
	<path class="st0" d="M2199.23,1471.24c24.31-0.87,49.6,2.77,74.4,9.81c15.42,4.38,30.21,10.38,43.76,19.16
		c4.82,3.12,8.94,6.98,12.65,11.25c6.13,7.06,6.05,12.49,0.16,19.54c-5.06,6.06-11.48,9.94-18.91,12.51
		c-12.68,4.38-25.79,6.82-39.06,7.58c-33.79,1.93-67.27-0.66-99.9-10.07c-18.61-5.37-36.55-12.51-51.32-25.74
		c-0.25-0.22-0.56-0.36-0.82-0.57c-13.1-10.73-10.79-25.78,5.08-31.79c19.76-7.49,40.11-12.2,61.42-11.7
		C2190.36,1471.31,2194.03,1471.24,2199.23,1471.24z"/>
	<path class="st0" d="M108.89,1191.29c-7.4,0.1-9.96-2.59-9.42-9.25c0.39-4.73,2.06-9.09,4.87-12.93
		c10.62-14.52,21.95-28.09,37.3-38.29c9.93-6.6,19.54-13.78,29.6-20.24c12.08-7.76,24.59-14.62,38.8-17.78
		c4.54-1.01,9.76-3.18,13.16,0.9c3.83,4.6,0.24,9.75-2.19,13.79c-3.92,6.52-8.33,12.93-13.47,18.51
		c-22.53,24.47-48.65,44.26-78.73,58.65C122.19,1187.82,115.3,1190.24,108.89,1191.29z"/>
	<path class="st0" d="M1145.79,1163.22c11.91,0.4,20.6-0.62,29.04,2.16c9.06,2.98,10.3,7.7,3.11,14.14
		c-7.55,6.76-16.89,10.62-26.26,13.95c-22.48,8.01-45.76,11.05-69.62,9.97c-4.84-0.22-9.1-1.96-13.28-3.91
		c-6.88-3.21-7.6-8.96-1.58-13.96c10.12-8.38,21.51-15.27,34.48-17C1117.41,1166.48,1132.92,1161.55,1145.79,1163.22z"/>
	<path class="st8" d="M1477.12,1667.02c2.62-1.86,5.68-2.22,8.62-1.66c17.85,3.4,35.87,1.41,53.81,1.74
		c8.42,0.16,16.26,1.7,24.37,4.14c16.45,4.96,32.87,10.02,49.23,15.28c3.09,0.99,5.93,0.45,8.14-2.17c2.7,1.4,5.4,2.79,8.11,4.18
		c0.75,4.88,4.41,4.52,7.93,4.39c22.12,12.46,44.24,24.91,66.36,37.37c-1.8,15.04-14.37,29.52-29.06,32.52
		c-4.19,0.85-7.19,2.68-10.34,5.25c-8.49,6.95-16.77,14.1-24.94,21.42c-6.9,6.18-12.94,13.99-20.5,18.51
		c-10.2,6.1-20.9,12.77-33.81,13.19c-25,0.81-49.8-1.07-74.55-4.35c-6.98-0.93-13.38-4.14-19.72-6.48
		c-11.75-4.35-23.81-7.91-35.37-13.07c-24.15-10.76-47.49-23.61-73.98-28.88c-14.83-2.95-29.3-8.09-43.63-13.12
		c-21.03-7.38-42.9-11.36-64.52-7.54c-24.21,4.29-48.81,3.93-72.89,8.77c-7.44,1.49-15.03,2.37-22.45,4.25
		c-7.42,1.88-15.09,3.36-22.72,2.26c-10.31-1.49-19.31,3.81-29.21,4.77c-13.88,1.34-27.87,1.15-41.66,3.31
		c-1.96,0.31-3.99,0.08-5.98,0.21c-1.73,0.11-3.4,0.64-3.7,2.61c-0.27,1.78,0.65,3.37,2.17,4.19c5.25,2.85,10.09,6.48,15.85,8.38
		c27.56,9.08,55.71,14.33,84.85,14.83c13.21,0.23,26.39,2.7,39.56,4.41c3.22,0.42,6.65,1.3,8.04,5.02
		c-11.29,1.34-22.89,1.03-33.54,7.42c30.52,0.36,61.03,0.73,91.55,1.09c0.83,2.53,2.87,3.35,5.21,4.1
		c8.26,2.67,16.65,4.74,25.27,5.74c4.36,0.51,8.53,1.66,12.42,3.58c5.37,2.66,9.21,6.52,9.06,13.13
		c-0.17,7.27-3.18,13.53-9.64,16.26c-9.36,3.95-18.72,7.43-29.62,1.91c-6.46-3.27-14.79-3.62-22.1-5.44
		c-10.9-2.72-22.04-4.31-32.87-7.39c-9.2-2.62-18.48-5.43-28.14-6.15c-0.24-3.98-2.65-4.37-6.12-4.46
		c-22.08-0.6-44.18-0.83-65.96-5.42c-9.03-1.9-18.23-2.96-27.35-4.4c-0.76-2-2.31-3.09-4.17-4.03c-9.77-4.93-19.64-9.79-29.06-15.24
		c-14.02-8.11-28.37-16.66-32.83-34.19c-1.22-4.79-4.07-7.34-8.8-8.36c-2.58-0.56-5.18-1.4-7.53-2.59c-3.5-1.78-3.87-5.14-3.4-8.63
		c0.45-3.27,2.81-4.25,5.67-4.54c5.29-0.54,10.39-2.42,15.81-2.1c3.37,0.2,6.62-0.41,9.63-2.11c1.14-0.64,2.53-1.45,3.71-1.33
		c12.5,1.31,24.11-4.3,36.39-4.52c1.66-0.03,3.37,0.04,4.98-0.31c15.59-3.37,31.45-5.38,47.02-8.47
		c13.85-2.75,28.06-3.58,41.67-7.58c15.09-4.44,31.08-3.67,46.2-7.52c20.62-5.26,41.52-3.27,62.33-4.29
		c21.01-1.03,40.81,4.2,60.97,8.51c11.65,2.49,23.65,4.41,34.69,8.33c13.76,4.88,28.35,6.54,41.75,13.01
		c13.06,6.3,26.38,12.83,40.18,16.95c14.56,4.34,28.97,9.53,43.92,12.61c2.91,0.6,5.95,0.67,8.93,0.74
		c10.97,0.27,21.87,0.35,32.86,1.62c17.09,1.97,32.01-3.15,43.79-16.74c5.81-6.7,12.86-12.41,20.82-16.76
		c2.28-1.24,5.17-2.7,4.72-5.81c-0.48-3.32-3.62-4.78-6.45-5.54c-24.7-6.65-48.79-15.1-72.87-23.66
		c-5.25-1.86-11.13-2.97-16.66-2.78c-17.03,0.6-33.84-2.56-50.82-2.29c-13.33,0.21-26.54-0.14-39.7-3.21
		c-6.35-1.48-13.26-0.76-19.91-0.73c-22.96,0.1-45.79-1.98-68.67-3.63c-12.58-0.9-25.21-1.8-37.81-2.18
		c-13.35-0.4-26.52-1.65-39.67-3.7c-1.31-0.21-2.66-0.5-3.97-0.42c-16.35,1.04-32.47-2.68-48.82-2.29c-6.92,0.16-14-0.71-20.79-2.15
		c-9.93-2.1-19.89-1.58-29.85-1.63c-9.66-0.05-19.32,0.23-28.8-2.08c1.65-1.07,3.21-2.35,4.97-3.16
		c19.77-9.06,39.58-18.05,59.38-27.05c1.31,4.05,4.67,4.23,8.07,4.22c12.59-0.07,25.15,1.37,37.67,1.68
		c38.09,0.96,76.22-0.21,114.29,2.34c7.59,0.51,15.26-0.72,22.8,1.16c2.1,0.52,3.91-0.18,5.36-1.79
		c22.84,6.97,45.75,13.73,68.93,19.5c13.29,3.3,26.94,3.51,40.46,4.8c1.96,0.19,4.01,0.09,5.94-0.28c2.47-0.47,4.19-2.03,4.39-4.71
		c0.2-2.66-1.19-4.61-3.6-5.33c-2.5-0.75-5.18-0.9-7.79-1.31C1498.84,1669.5,1487.74,1670.18,1477.12,1667.02z"/>
	<path class="st8" d="M851.21,1752.67c0.81-1.97,2.27-3.22,4.29-3.86c16.75-5.35,32.38-13.53,49.37-18.5
		c14.58-4.27,28.37-11.2,42.61-16.7c13.57-5.24,26.93-10.94,40.94-15.13c8.84-2.65,17.37-6.66,25.93-10.27
		c14.66-6.18,30.05-10.29,44.69-16.49c17.37-7.35,36.06-11.12,53.12-19.37c1.99-0.96,4.54-1.09,6.82-1.09
		c19.61,0.01,39.24-0.63,58.83,0.95c1.29,0.1,2.53,0.78,3.79,1.19c-16.8,10.18-34.63,18.55-52.86,25.46
		c-17.93,6.8-36.8,11.46-56.49,10.34c-9.32-0.53-18.6,0.39-27.72,2.44c-1.55,0.35-4.17-0.37-4.15,2.98
		c13.02,0.21,25.98-0.26,38.86,1.3c-21.71,3.24-42.02,11.45-62.92,17.57c-12.67,3.71-25.45,7.06-38.06,10.94
		c-24.91,7.65-50.13,14.28-75.14,21.59c-8.48,2.48-16.79,5.9-25.56,7.55c-3.25,0.61-6.46,1.68-8.64,4.51
		C862.71,1757.26,856.73,1755.74,851.21,1752.67z"/>
	<path class="st6" d="M1079.24,1695.93c-12.88-1.56-25.84-1.1-38.86-1.3c-0.02-3.35,2.6-2.64,4.15-2.98
		c9.12-2.05,18.4-2.97,27.72-2.44c19.69,1.12,38.56-3.54,56.49-10.34c18.23-6.91,36.06-15.28,52.86-25.46
		c7.63-2.46,14.97-5.66,21.86-9.68c26.48-15.44,55.46-22.07,85.6-24.64c30.24-2.58,58.9,3.6,86.35,16.05
		c31.08,14.1,64.12,22.14,96.78,31.38c1.57,0.44,3.29,0.35,4.94,0.51c10.61,3.16,21.72,2.49,32.52,4.18
		c2.6,0.41,5.29,0.56,7.79,1.31c2.41,0.72,3.8,2.67,3.6,5.33c-0.2,2.68-1.92,4.24-4.39,4.71c-1.93,0.37-3.98,0.47-5.94,0.28
		c-13.52-1.29-27.17-1.5-40.46-4.8c-23.19-5.77-46.09-12.52-68.93-19.49c-16.6-6.84-32.83-14.86-49.9-20.23
		c-19.65-6.17-40.01-10.31-60.94-8.41c-19.63,1.78-38.79,5.99-57.59,11.81c-6.98,2.16-13.97,4.45-19.76,9.22
		c-19.8,9.01-39.61,17.99-59.38,27.05c-1.77,0.81-3.32,2.1-4.97,3.16c-9.95,3.63-19.55,7.96-30.03,10.4
		C1105.65,1694.59,1092.52,1695.58,1079.24,1695.93z"/>
	<path class="st6" d="M1629.4,1688.54c-2.7-1.39-5.4-2.79-8.11-4.18c-18.05-12.18-37.52-21.33-58.1-28.44
		c-21.08-7.29-41.5-16.31-61.92-25.26c-1.7-0.74-3.79-1.15-4.57-3.35c2.39-3.04,4.95-1.45,7.28-0.67c7.89,2.63,15.74,5.39,23.61,8.1
		c16.99,5.85,33.93,11.86,50.99,17.51c10.47,3.46,20.5,7.8,30.19,13.06c24.56,13.35,49.06,26.78,73.12,41.04
		c17.76,10.53,36.66,18.95,55.28,27.82c7.88,3.76,16.61,4.74,25.01,6.75c9.71,2.33,19.43,4.59,29.12,6.97
		c2.25,0.55,4.52,1.27,6.58,2.3c6.97,3.49,14.2,7.18,13.13,16.7c-1.09,9.65-4.29,19.33-14.65,21.75
		c-14.22,3.33-28.07,8.22-42.54,10.39c-3.9,0.59-7.97,0.27-11.95,0.03c-2.55-0.15-4.43-1.7-4.49-4.45
		c-0.06-2.64,1.57-4.88,4.02-4.96c14.5-0.42,27.58-7.58,41.93-8.62c6.82-0.5,13.3-1.74,16.46-9.07c2.48-5.75,1.84-8.57-3.6-11.54
		c-2.88-1.57-6.09-2.73-9.28-3.51c-10.02-2.45-20-5.32-30.18-6.76c-14.46-2.05-27.51-7.57-40.38-13.94
		c-4.17-2.07-8.44-3.93-12.66-5.89c-22.12-12.46-44.24-24.91-66.36-37.37C1635.14,1690.65,1632.32,1689.5,1629.4,1688.54z"/>
	<path class="st6" d="M851.21,1752.67c5.51,3.07,11.5,4.59,17.7,5.43c7.21,3.16,15.65,2.06,22.68,5.6c-0.63,2.97-2.3,3.28-3.98,3.23
		c-15.43-0.49-30.53-2.66-44.41-9.91c-14.8-7.73-18.09-20.98-8.84-35.06c5.78-8.79,13.77-15.28,22.37-21.09
		c20.86-14.1,43.88-23.7,67.49-31.96c41.01-14.35,83.23-23.32,126.41-27.95c7.95-0.85,15.85-1.92,23.86-1.71
		c3.58,0.09,6.96,0.89,7.25,5.15c0.3,4.42-3.41,5.46-6.69,5.93c-7.24,1.05-14.53,1.74-21.81,2.46
		c-39.57,3.86-78.12,12.54-116.02,24.35c-25.16,7.84-49.78,17.01-72.34,30.9c-5.93,3.65-11.59,7.81-17.06,12.13
		c-2.82,2.23-5.33,5.08-7.33,8.09c-5.63,8.42-4.41,14.59,3.8,20.51C846.43,1750.3,848.9,1751.38,851.21,1752.67z"/>
	<path class="st6" d="M1374.52,1844.2c53.72-4.18,107.24-3.72,160.79-1.53c20.94,0.86,41.94,0.6,62.9,0.18
		c13.41-0.27,24.65-7.34,36.02-13.63c4.94-2.74,9.99-5.29,15.05-7.79c1.77-0.88,3.71-1.67,5.64-1.92c3.15-0.42,7.39-1.85,8.48,2.53
		c0.99,3.97-3.09,4.45-5.87,5.24c-11.05,3.13-20.26,9.96-30.29,15.1c-12.06,6.18-24.35,10.12-38.09,10.19
		c-32.96,0.18-65.83-1.21-98.75-2.75c-30.22-1.42-60.45-3.62-90.77-2.85C1391.18,1847.19,1382.5,1847.86,1374.52,1844.2z"/>
	<path class="st6" d="M1283.15,1819.28c-30.52-0.36-61.03-0.73-91.55-1.09c10.66-6.4,22.25-6.08,33.54-7.42
		c15.99,0.35,31.94-0.9,47.89-1.49c24.14-0.9,47.74,3.77,71.65,4.92c9.63,0.46,19.21,1.88,28.82,2.83c2.92,0.29,5.95,0.16,8.82,2.51
		c-2.98,4.61-7.65,4.52-11.57,4.39c-16.28-0.54-32.59-1.11-48.79-2.63C1309.02,1820.08,1296.2,1817.95,1283.15,1819.28z"/>
	<path class="st6" d="M1113.3,1830.76c9.12,1.44,18.32,2.5,27.35,4.4c21.78,4.59,43.88,4.82,65.96,5.42
		c3.47,0.09,5.88,0.48,6.12,4.46c-4.01,2.95-8.7,3.22-13.37,3.08c-21.6-0.65-43.24-0.67-64.38-6.35
		c-7.37-1.98-15.01-2.92-22.51-4.44c-3.58-0.72-7.38-1.12-10.63-2.63c-20.24-9.42-42.27-13.98-62.6-23.14
		c-7.9-3.56-16.14-6.18-24.47-8.56c-3.38-0.97-7.25-1.24-10.46-5.32c13.38,2.07,25.48,4.98,37.04,9.84
		c20.25,8.52,42.06,12.49,62.21,21.34C1106.52,1830.15,1110.04,1830.15,1113.3,1830.76z"/>
	<path class="st7" d="M1213.12,1650.92c5.79-4.77,12.78-7.06,19.76-9.22c18.8-5.81,37.97-10.02,57.59-11.81
		c20.93-1.9,41.3,2.23,60.94,8.41c17.07,5.36,33.3,13.38,49.9,20.23c-1.45,1.6-3.26,2.31-5.36,1.79c-7.53-1.88-15.21-0.65-22.8-1.16
		c-38.07-2.55-76.2-1.38-114.29-2.34c-12.52-0.32-25.08-1.75-37.67-1.68C1217.78,1655.16,1214.42,1654.97,1213.12,1650.92z"/>
	<path class="st7" d="M1629.4,1688.54c2.92,0.96,5.74,2.12,7.93,4.4C1633.8,1693.06,1630.15,1693.42,1629.4,1688.54z"/>
</g>
</svg>
