<?xml version="1.0" encoding="utf-8"?>
<!-- Generator: Adobe Illustrator 26.0.3, SVG Export Plug-In . SVG Version: 6.00 Build 0)  -->
<svg version="1.1" id="Layer_1" xmlns="http://www.w3.org/2000/svg" xmlns:xlink="http://www.w3.org/1999/xlink" x="0px" y="0px"
	 viewBox="0 0 1400 1831" style="enable-background:new 0 0 1400 1831;" xml:space="preserve">
<style type="text/css">
	.st0{fill:#1C5676;}
	.st1{fill:#FFFFFF;}
</style>
<g>
	<path class="st0" d="M63.65,291.47c1.96-7.57,7.28-13.15,11.71-19.18c18.55-25.24,43.76-42.9,69.65-59.46
		c39.91-25.52,83.91-41.1,129.95-51.38c18.8-4.2,37.75-7.22,56.93-9.05c12.49-1.19,24.97-2.32,37.5-3.06
		c11.06-0.65,22.12-1.26,33.18-1.96c16.5-1.05,33.01-2.03,49.51-2.98c16.64-0.95,33.25-2.41,49.85-3.96
		c13.82-1.29,27.65-2.31,41.51-3.08c12.72-0.71,25.48-1.11,38.16-2.1c12.14-0.94,24.24-0.21,36.33-0.78
		c47.12-2.21,94.27-1.12,141.39-0.7c26.8,0.24,53.63,0.06,80.42,0.86c15.41,0.46,30.84,1.09,46.23,2.02
		c14.16,0.85,28.37,1.5,42.48,2.96c17.5,1.81,35.04,3.36,52.5,5.67c15.45,2.04,30.95,3.84,46.32,6.35
		c20.85,3.4,41.68,6.91,62.47,10.67c31.36,5.66,62.33,12.9,93.03,21.31c13.34,3.65,26.63,7.9,38.32,15.79
		c8.13,5.48,13.81,13.09,18.57,21.5c1.51,2.67,1.59,5.88,0.72,8.24c-2.96,8.03-1.17,16.41-2.65,24.54
		c-3.47,19.04-12.37,34.07-29.96,43.11c-2.58,1.33-3.95,3.19-4.8,5.79c-5.28,16.33-9.01,33-11.42,50c-4.59,32.4-3.19,65-2.69,97.5
		c0.22,14.46,0.36,28.95,0.68,43.43c1.31,59.3,0.62,118.62,1.26,177.92c0.18,16.46-0.23,33,0.94,49.42
		c1.09,15.33,1.24,30.66,0.62,45.93c-1.15,28.49,0.14,56.99-0.97,85.44c-1.56,39.82-0.76,79.63-0.58,119.44
		c0.07,15.12,0.15,30.31,0.81,45.44c3.69,84.58,1.39,169.21,1.75,253.81c0.07,16.03-1.25,32.12-1.89,48.18
		c-0.56,13.86-1.72,27.7-2.98,41.51c-1.58,17.41-3.15,34.81-4.21,52.28c-1.15,18.98-0.95,37.94-0.5,56.86
		c0.48,19.79,3.95,39.47,3.71,59.33c-0.26,21.03-5.36,41.08-12.63,60.74c-9.37,25.33-24.71,46.41-43.44,65.62
		c-19.03,19.51-39.1,37.56-61.83,52.67c-28.22,18.76-59.15,30.2-92.33,36.64c-21.9,4.25-43.93,7.05-66,9.93
		c-25.04,3.27-50.18,4.7-75.36,6.13c-22.26,1.27-44.55,1.16-66.8,2.18c-22.64,1.03-45.23,0.14-67.82-0.55
		c-25.25-0.77-50.46-2.45-75.7-3.6c-12.97-0.59-25.95-1.16-38.93-1.21c-18.31-0.07-36.58-1.23-54.82-2.33
		c-28.16-1.7-56.03-5.92-83.89-10.53c-36.4-6.03-72.61-12.55-108.06-23.04c-26.98-7.99-52.08-19.89-76.38-33.82
		c-20.34-11.66-39.07-25.33-54.85-42.77c-19.2-21.21-32.06-45.64-38.27-73.73c-3.84-17.37-3.67-34.84-2.63-52.29
		c0.54-9.15,1.54-18.38,2.49-27.55c0.79-7.63-0.7-15.49-1.21-23.25c-0.08-1.15-0.49-2.29-0.47-3.43c0.35-17.15-0.87-34.26-1.21-51.4
		c-1.04-52.13-1.36-104.26-2.03-156.4c-0.65-50.64-2.04-101.28-1.75-151.93c0.33-57.66-0.79-115.31-1.27-172.96
		c-0.62-74.65-1.3-149.29-1.92-223.94c-0.5-60.65-1.36-121.3-1.78-181.95c-0.06-8.79,1.73-17.5,1.75-26.22
		c0.03-12.01-2.47-23.9-3.62-35.86c-1.73-18.02-5.68-35.57-10.26-52.98c-4.96-18.82-10.5-37.47-18.77-55.18
		c-6.39-13.68-18.31-21.78-30.16-29.96c-1.65-1.14-3.64-0.79-5.3-0.37c-11.58,2.93-22.49-1.89-28.56-11.27
		c-3.84-6.69-3.5-13.5-0.62-20.26c1.68,0.92,1.5,2.8,1.9,4.29c4.13,15.45,17.4,16.63,28.38,9.98c10.55-6.4,21.48-11.65,33.49-14.74
		c12-3.09,24.21-5.35,36.5-4.96c14.42,0.45,28.67,3.31,42.95,5.6c24.7,3.95,48.98,9.77,73.23,15.69
		c19.45,4.75,38.84,9.8,58.55,13.25c15.33,2.69,30.79,4.73,46.31,6.43c15.7,1.72,31.43,3.15,47.15,4.6
		c11.02,1.02,22.13,1.53,33.2,1.99c16.07,0.67,32.14,1.48,48.2,1.98c12.44,0.39,24.88,1.25,37.34,1.44
		c6.75,0.11,13.61,0.12,20.34,0.84c16.49,1.78,33.06,2.58,49.59,2.73c48.99,0.45,97.98,0.35,146.97-0.02
		c8.09-0.06,16.27-0.31,24.36-0.94c12.64-0.98,25.23-2.6,37.86-3.86c10.84-1.08,21.72-1.8,32.52-3.11
		c17.3-2.1,34.53-4.92,51.85-6.77c17.67-1.89,35.16-5.01,52.77-7.27c20.55-2.63,40.99-6.14,61.54-8.79
		c17.13-2.21,34.03-5.64,51.07-8.33c17.36-2.74,34.64-6.06,52.01-8.69c18.25-2.76,35.88-7.19,52.59-15.33
		c20.09-9.79,31.88-26.18,39.01-46.66c0.64-1.83,1.15-3.23-0.5-4.92c-5.1-5.23-10.27-10.3-17.31-12.89
		c-9.78-3.6-19.49-7.41-29.54-10.26c-40.33-11.46-81.23-20.27-122.6-27.08c-23.12-3.8-46.24-7.54-69.45-10.7
		c-19.07-2.59-38.26-4.34-57.43-6.1c-14.47-1.32-28.98-2.27-43.5-3c-15.91-0.8-31.83-1.31-47.75-1.91
		c-25.12-0.96-50.3-0.73-75.43-0.84c-62.4-0.26-124.84-1.87-187.23,1.57c-12.89,0.71-25.8,1.33-38.7,1.98
		c-14.86,0.76-29.68,1.9-44.52,3.05c-14.49,1.12-29,2.19-43.51,2.95c-19.18,1-38.36,1.99-57.54,3.01
		c-10.89,0.58-21.77,1.32-32.65,1.97c-15.94,0.96-31.74,2.87-47.55,5.04c-18.66,2.56-36.97,6.58-55.08,11.66
		c-32.38,9.09-63.47,21.22-92.55,38.34c-24.99,14.72-48.46,31.48-70.29,50.56c-6.19,5.41-12.43,10.8-19.76,14.67
		C67.95,291.67,65.98,293.41,63.65,291.47z M1169.72,383.77c0.2-0.4,0.39-0.81,0.59-1.21c0.64-4.19,1.41-8.36,1.91-12.56
		c1.06-9.06,4.34-17.57,6.36-26.39c1.51-0.62,0.71-2.04,1.06-3.06c2.98-7.3,5.96-14.6,8.95-21.91c1.13-1.14,1.81-2.5,2.01-4.1
		c2.25-3.9,4.5-7.81,7.16-12.41c-1.64,0.4-2.3,0.46-2.87,0.72c-23.24,10.6-47.94,15.43-73.07,18.81
		c-5.77,0.78-11.71,0.97-17.28,3.04c-7.77,0.09-15.29,2.07-22.95,3.02c-5.68,0.99-11.37,1.99-17.05,2.98c-1.85-0.6-3.39,0.34-4.99,1
		c-1.16-0.02-2.35-0.23-3.47-0.04c-9.85,1.65-19.7,3.36-29.54,5.06c-2.46-0.62-4.54,1.28-6.95,1.01c-0.69,0-1.38,0.01-2.07,0.01
		c-0.66-0.18-0.89,0.25-1.06,0.76c-1.82,0.02-3.66-0.16-5.44,0.1c-13.5,1.99-26.98,4.07-40.47,6.12c-3.51,0.27-7.03,0.51-10.39,1.69
		c-11.92,1.39-23.84,2.71-35.74,4.2c-17.92,2.24-35.8,4.79-53.74,6.88c-19.1,2.22-38.23,4.31-57.38,5.96
		c-16.31,1.4-32.67,2.89-49.01,2.96c-51.75,0.22-103.52,0.77-155.26-0.86c-0.33-0.01-0.67,0-1-0.03
		c-17.82-1.41-35.64-2.89-53.53-2.97c-8.52-2.3-17.38,0.14-25.93-1.83c-14.38-0.73-28.75-1.53-43.13-2.16
		c-10.59-0.46-21.25-0.19-31.78-1.2c-5.63-0.54-11.24-0.44-16.83-0.96c-13.43-1.24-26.86-2.52-40.27-3.91
		c-7.17-0.75-14.32-1.77-21.47-2.66c-9.11-1.13-18.21-2.25-27.32-3.38c-3.6-1.37-7.37-1.76-11.17-2.02
		c-1.19-1.78-3.06-0.7-4.58-1.02c-26.15-5.41-51.89-12.53-77.87-18.62c-15.22-3.56-30.48-7-45.98-9.37
		c-11.64-1.78-23.23-3.8-34.94-5.16c-12.77-1.48-25.27-0.9-37.67,2.44c-2.84-0.06-5.51,0.63-8.08,1.78
		c-4.18,0.06-7.95,1.57-13.42,3.22c17.28,4.55,24.98,16.8,31.48,30.31c5.07,10.55,8.36,21.8,12.96,32.53
		c0.22,2.18,0.7,4.26,2.03,6.07c2.28,7.99,4.55,15.98,6.83,23.96c0.6,1.29-0.5,3.07,1.17,4.05c-0.45,2.2,0.6,4.18,1.14,6.18
		c2,7.51,2.51,15.35,5.07,22.72c-0.26,3.95,0.66,7.73,1.71,11.49c0.35,5.92,1.57,11.76,2.05,17.64c1.32,16.15,2.58,32.33,2.97,48.52
		c0.55,22.82,0.9,45.66,0.87,68.47c-0.13,101.65,1.16,203.3,1.32,304.95c0.07,43.48-0.62,86.97,0.73,130.46
		c1.23,39.46,0.77,78.97,0.9,118.44c0.32,100.28,1.4,200.58-0.57,300.86c-0.29,14.61-0.71,29.23-1.44,43.81
		c-0.32,6.5-0.44,13.14-1.45,19.73c-1.49,9.74-1.58,19.69,0.68,29.48c0.54,2.36-0.63,5.04,1.24,7.19c0.01,0.97,0.01,1.95,0.02,2.92
		c0.62,3.32,1.07,6.69,1.88,9.96c4.2,17.03,9.77,33.48,19.57,48.29c9.71,14.65,21.94,26.96,35.35,38.05
		c6.98,5.77,14.39,11.22,22.9,14.78c0.64,1.25,1.94,1.51,3.08,2.02c13.36,8.3,27.55,15,42.11,20.77
		c34.76,13.76,71.21,21.06,107.92,27.03c23.79,3.87,47.68,7.21,71.62,9.96c18.02,2.07,36.18,3.6,54.3,3.96
		c19.45,0.38,38.88,1.58,58.36,1.32c11.77-0.16,23.56,0.15,35.35,0.6c22.05,0.83,44.12,1.68,66.17,2.08
		c36.72,0.66,73.45,0.47,110.18-1.58c15.86-0.89,31.74-2.03,47.65-2.41c5.23-0.13,10.57-0.34,15.82-0.88
		c17.66-1.84,35.27-4.2,52.94-5.83c17.51-1.61,34.76-4.58,51.97-8.09c27.61-5.63,52.28-17.87,75.63-33.17
		c1.14-0.08,1.61-0.93,2.08-1.78c0.61-0.18,1.32-0.22,1.81-0.56c12.98-9.05,25.33-18.92,37.39-29.16
		c13.15-11.18,26.61-21.99,36.96-36.06c8.3-11.29,14.85-23.34,17.78-37.16c1.18-2.21,1.85-4.57,2.04-7.07
		c2.61-6.72,3.43-13.81,4.27-20.89c1.31-11.04,2.76-22.19,1.44-33.2c-2.02-16.91-2.89-33.88-3.67-50.83
		c-1.07-23.23,0.63-46.44,1.94-69.63c0.48-8.54,1.64-17.05,2.49-25.57c0.55-8.55,1.73-17.06,1.56-25.66
		c0.75-0.56,0.86-1.37,0.87-2.22c0.07-13.09,1.67-26.14,1.83-39.18c0.22-18.3,1.36-36.56,1.33-54.87
		c-0.04-21.95-0.84-43.91,0.7-65.88c1.14-16.23,0.7-32.59,0.88-48.87c0.39-35.46,0.91-70.94-0.51-106.42
		c-0.92-22.95-0.69-45.97-1.01-68.95c-0.65-46.64,0.85-93.27,1.57-139.91c0.54-34.96,1.37-69.91,0.54-104.93
		c-1.61-67.61-1.61-135.27-2.11-202.9c-0.27-36.3,0.62-72.59,1.9-108.87c1.89-3.21,0.24-6.84,1.2-10.17
		C1169.82,383.58,1169.72,383.77,1169.72,383.77z"/>
	<path class="st0" d="M119.85,275.57c3.27-7.27,9.8-10.72,15.28-15.05c14.81-11.71,30.78-21.64,47.83-29.84
		c20.15-9.69,41.47-16.1,62.89-22.07c24.08-6.71,48.35-12.73,72.99-17.12c10.63-1.89,21.25-3.87,31.83-6.04
		c2.13-0.44,4.03-1.97,6.08-2.91c5.68-2.6,11.97-2.59,17.89-2.85c12.93-0.55,25.85-1.61,38.84-1.27c14.87,0.39,29.53-2.68,44.3-3.65
		c11.39-0.75,22.89-0.67,34.37,0.37c11.82,1.07,23.71,2.78,35.63,0.5c2.09-0.4,4.33-0.23,6.48-0.12c13.31,0.7,26.58-0.56,39.83-1.21
		c18-0.9,35.99-2.09,54-2.97c12.22-0.6,24.44-1.34,36.66-1.98c17.07-0.89,34.17-2.33,51.23-1.64c12.81,0.52,25.62,0.23,38.39,0.89
		c14.73,0.75,29.46,1.36,44.19,2.05c17.34,0.82,34.67,1.84,52,2.96c14.5,0.94,29,2.01,43.51,2.95c16.45,1.06,32.9,2.33,49.3,4.01
		c19.78,2.02,39.59,4.05,59.24,7.03c22.47,3.41,44.86,7.42,67.21,11.66c20.69,3.93,41.34,7.88,61.44,14.24
		c11.49,3.64,22.53,8.24,31.51,16.69c4.85,4.57,5.64,10.06,4.18,16.29c-3.06,13.13-11.71,20.91-23.59,26.34
		c-17.38,7.94-35.81,12.01-54.36,15.63c-18.76,3.66-37.59,6.97-56.47,9.93c-13.63,2.14-27.41,3.38-41.1,5.18
		c-19.55,2.57-39.27,3.67-58.77,6.83c-11.82,1.91-23.82,2.62-35.7,4.17c-17.85,2.33-35.75,3.49-53.74,4.22
		c-7.77,0.32-15.56,0.54-23.33,0.73c-18.14,0.42-36.29,0.85-54.44,0.97c-13.49,0.09-26.97-1.69-40.46-0.88
		c-16.14,0.97-32.33,0.21-48.42,1.16c-11.98,0.71-23.97-0.25-35.85,0.93c-12.65,1.26-25.29,1.06-37.89,0.67
		c-18.47-0.57-36.92-1.68-55.35-3.59c-11.61-1.21-23.26-2.36-34.9-3.35c-14.91-1.27-29.74-3.45-44.66-4.68
		c-8.21-0.68-16.41-1.46-24.62-2.2c-11.94-1.09-23.85-2.38-35.76-3.77c-10.61-1.24-21.18-2.61-31.75-4.16
		c-12.82-1.87-25.39-4.91-38.08-7.42c-18.61-3.7-37-8.46-55.9-10.73c-13.65-1.64-27.2-4.04-40.84-5.77
		c-8.17-1.04-16.42-1.44-24.64-2.15c-15.6-1.34-31.23-1.08-46.85-0.95c-14.63,0.11-29.23,1.46-43.88,1
		C123.89,274.52,122.13,275.15,119.85,275.57z M153.07,260.44c1.82,0,2.67,0.18,3.41-0.03c10.62-3.04,21.64-4.29,32.51-4.65
		c14.4-0.46,28.86-0.84,43.34,0.56c18.02,1.74,35.85,4.54,53.74,7.08c22.51,3.2,44.43,9.14,66.63,13.73
		c14.58,3.01,29.22,5.66,44.03,7.38c9.47,1.1,18.92,2.41,28.44,3.19c12.12,0.99,24.18,2.57,36.28,3.77
		c8.03,0.8,16.1,1.22,24.12,2.13c13.22,1.5,26.41,3.36,39.63,4.87c10.31,1.18,20.69,1.71,30.96,3.16
		c15.72,2.21,31.53,3.35,47.34,3.73c25.06,0.6,50.12-0.12,75.16-1.79c12.26-0.82,24.57-0.21,36.89-0.8
		c18.28-0.88,36.65,0.13,54.97-0.11c24.43-0.31,48.86,0.19,73.31-0.97c19.65-0.94,39.18-2.44,58.64-5.2
		c14.95-2.12,29.93-4.06,44.89-6.1c14.32-1.95,28.65-3.87,42.96-5.89c12.02-1.7,24.08-3.25,36.03-5.35
		c16.93-2.97,33.83-6.18,50.65-9.68c16.5-3.44,33.14-6.46,48.83-12.96c6.82-2.83,13.58-5.82,19.13-10.91
		c1.93-1.77,2.04-2.6-0.55-4.21c-7.3-4.52-15.27-7.31-23.35-9.82c-24.71-7.68-50.12-12.24-75.45-17.27
		c-31.02-6.16-62.23-10.99-93.61-14.69c-17.64-2.08-35.35-3.61-53.06-5.03c-16.42-1.31-32.84-2.67-49.26-3.94
		c-18.94-1.47-37.9-2.69-56.85-4.01c-10.72-0.74-21.46-1.34-32.18-2.01c-17.39-1.08-34.81-1.79-52.23-2.03
		c-23.9-0.33-47.74,1.32-71.6,2.78c-11.73,0.72-23.48,1.21-35.22,2.03c-18.84,1.32-37.7,2.7-56.57,2.95
		c-25.8,0.34-51.58,1.46-77.39,1.37c-12-0.04-24.04,1.54-36,2.91c-13.9,1.6-27.8,3.03-41.77,3.88c-5.28,0.32-10.69,0.36-15.79,1.24
		c-23.33,4-46.74,7.56-69.89,12.66c-36.86,8.11-73.39,17.42-109.14,29.47C180.86,246.68,167.17,252.89,153.07,260.44z"/>
	<path class="st0" d="M805.58,1553.31c7.84-3.42,14.35-1.66,20.51,3.5c3.29,2.76,6.01,1.57,7.32-2.44c1.62-4.94,3.97-9.5,7.03-13.7
		c0.68-0.94,1.49-1.85,1.9-2.91c3.42-8.67,9.26-10.83,17.53-6.43c9.64,5.13,15.99,18.41,14.45,30.23c-0.19,1.45-0.99,2.9-0.12,4.36
		c1.96,3.28,2.63,6.39-1.07,8.99c1.49,7.62-7.07,7.02-9.67,11.56c-1.21,2.12-5.3,1.8-8.36,1.2c-8.54-1.69-17.01-3.68-25.68-4.74
		c-2.53-0.31-3.94,0.38-5.51,2.17c-3.97,4.53-8.47,8.51-14.02,11.03c-5.07,2.31-9.49,1.54-12.26-1.93
		c-2.9-3.63-3.42-12.48-0.92-15.68c1.33-1.7,3.24-1.64,5.03-1.33c1.91,0.32,3.49,1.36,3.59,3.56c0.26,5.83,3.11,3.89,5.41,1.61
		c3.05-3.03,5.77-6.41,8.48-9.77c2.13-2.64,2.38-5.23-0.33-7.95c-2.68-2.69-5.46-3.91-8.82-1.7c-2.34,1.54-4.43,3.47-6.61,5.24
		c-2.72,2.21-5.95,2.94-8.78,1.05c-2.71-1.8-2.96-5.06-2.02-8.14c1.01-3.3,2.23-6.55,3.24-9.85c0.58-1.9,1.14-3.85,1.36-5.82
		c0.92-8.4,0.86-8.46,8.91-10.87c3.97-1.18,7.98-2.25,12.03-3.07c1.79-0.36,4.38-1.24,5.16,1.34c0.83,2.74-1.88,3.02-3.64,3.72
		c-2.77,1.1-5.53,2.3-8.4,3.1c-4.05,1.12-6.2,3.23-5.54,7.72C806.06,1549.11,805.69,1550.96,805.58,1553.31z M851.95,1540.43
		c-3.85,3.43-5.55,7.95-7.42,12.3c-2.85,6.63-2.58,6.92,4.53,8.34c1.6,0.32,3.09,1.12,4.8,0.94c2.97-0.31,6.56,3.77,8.82-0.76
		c1.71-3.42,0.78-7.18-0.62-10.62c-0.74-1.82-1.65-3.62-2.76-5.24c-2.26-3.28-2.54-3.23-5.17,0.19
		C853.4,1543.86,852.73,1542.28,851.95,1540.43z"/>
	<path class="st0" d="M684.16,1255.64c29.65,0,59.29-0.01,88.94,0.02c1.99,0,4.03-0.03,5.96,0.39c5.25,1.15,7.05,4.57,6.22,11.72
		c-0.57,4.88-4.67,4.21-7.74,4.18c-51.12-0.55-102.26-0.5-153.34-2.65c-14.95-0.63-29.97-0.58-44.85-2.61
		c-0.82-0.11-1.68-0.13-2.46-0.39c-1.77-0.59-3.61-1.35-3.6-3.57c0-2.22,1.67-2.98,3.61-3.43c6.38-1.47,12.92-1.46,19.37-1.64
		C625.55,1256.81,654.84,1255.58,684.16,1255.64z"/>
	<path class="st0" d="M680.92,1421.76c-31.31-0.13-62.61-0.59-93.9-2.04c-3.82-0.18-7.62-0.71-11.42-1.13
		c-2.06-0.22-4.24-0.67-4.32-3.23c-0.08-2.87,2.4-3.46,4.52-3.67c8.44-0.84,16.89-1.81,25.37-2.13
		c58.58-2.2,117.17-3.78,175.79-4.42c1.66-0.02,3.36-0.03,4.96,0.34c3.77,0.86,6.18,3.17,6.5,7.18c0.31,3.97-1.48,6.62-5.19,8.15
		c-2.58,1.06-5.24,0.92-7.88,0.92C743.87,1421.77,712.39,1421.76,680.92,1421.76z"/>
	<path class="st0" d="M701.94,948.28c15.83-0.4,42.62-1.09,69.41-1.77c0.83-0.02,1.66-0.04,2.5-0.04c5.67,0.05,9.17,2.68,9.22,6.92
		c0.06,4.48-3.11,7.25-8.72,7.51c-4.32,0.2-8.65,0.3-12.98,0.36c-49.27,0.65-98.54,1.43-147.81,1.83
		c-14.8,0.12-29.61-0.82-44.41-1.29c-1.16-0.04-2.32-0.19-3.48-0.36c-1.77-0.25-3.36-0.94-3.44-2.95c-0.08-2.03,1.41-2.91,3.21-3.14
		c5.27-0.66,10.54-1.41,15.83-1.83C617.79,950.62,654.4,949.88,701.94,948.28z"/>
	<path class="st0" d="M764.67,1100.01c1.6,0.32,2.95,0.46,3.46,2.7c2.16,9.41,0.4,12.21-8.56,12.42
		c-58.58,1.36-117.16,2.77-175.77,2.5c-2.81-0.01-5.63-0.41-8.43-0.77c-2.59-0.34-5.13-1.08-5.13-4.33
		c0.01-3.25,2.64-4.02,5.16-4.38c4.77-0.68,9.56-1.38,14.36-1.6c45.89-2.12,91.79-4.13,137.72-5.22c2.14-0.05,4.34,0.28,6.4-0.65
		c6.22-0.09,12.44-0.18,18.66-0.27c1.67-0.07,3.33-0.13,5-0.2C759.93,1100.48,762.31,1100.55,764.67,1100.01z"/>
	<path class="st0" d="M667.45,811.78c-31.97,1.03-63.93,2.23-95.93,1.95c-2-0.02-4-0.06-5.98-0.28c-2.36-0.25-4.24-1.3-4.19-4.02
		c0.04-2.57,1.48-3.82,4.1-4.05c6.13-0.54,12.23-1.51,18.37-1.83c27.11-1.42,54.22-2.78,81.34-3.96c31.78-1.38,63.58-2.56,95.36-3.8
		c3.99-0.16,7.97-0.39,11.94,0.47c3.06,0.67,4.79,2.59,4.83,5.52c0.04,3.15-1.77,5.3-5.03,5.86c-8.41,1.43-16.92,1.42-25.4,1.72
		C720.4,810.28,693.93,810.99,667.45,811.78z"/>
	<path class="st0" d="M671.04,515.4c35.99,0,71.98,0,107.97,0.01c1.5,0,3.04-0.1,4.48,0.2c2.76,0.56,4.38,2.23,4.25,5.25
		c-0.12,2.74-1.58,4.34-4.22,4.74c-1.64,0.25-3.32,0.24-4.99,0.24c-64.15-0.1-128.3-0.31-192.44-1.58
		c-6.66-0.13-13.32-0.33-19.98-0.55c-1.99-0.07-4.01-0.19-5.96-0.55c-2.31-0.43-4.89-0.96-4.62-4.15c0.25-2.98,2.52-3.56,5.05-3.65
		c8.32-0.28,16.65-0.83,24.97-0.86c28.49-0.11,56.99-0.04,85.49-0.04C671.04,514.77,671.04,515.09,671.04,515.4z"/>
	<path class="st0" d="M671.12,664.48c-35.81,0-71.62,0.02-107.43-0.03c-2.82,0-5.63-0.48-8.45-0.75c-2.11-0.2-4.24-0.79-4.23-3.27
		c0.01-2.13,1.92-2.75,3.87-3.14c7.9-1.59,15.94-1.36,23.89-1.53c37.8-0.8,75.61-1.17,113.41-1.63c29.48-0.36,58.96-0.63,88.43-0.96
		c3.63-0.04,7.02,0.53,7.11,5.01c0.1,4.7-3.26,5.52-7.17,5.52c-36.48-0.03-72.95-0.02-109.43-0.02
		C671.12,663.95,671.12,664.22,671.12,664.48z"/>
	<path class="st0" d="M672.4,1570.28c-27.64,0.73-55.29,1.42-82.94,1.13c-1.82-0.02-3.64-0.23-5.46-0.34
		c-2.35-0.14-4.5-0.87-4.62-3.54c-0.14-2.94,2.19-4.01,4.62-4.28c4.79-0.53,9.61-0.91,14.43-1.14c24.11-1.14,48.18-2.87,72.32-3.51
		c34.12-0.9,68.22-2.49,102.32-3.79c0.83-0.03,1.67-0.05,2.5-0.05c5.67,0,8.6,2.03,8.63,5.98c0.03,4.01-2.95,6.26-8.43,6.41
		c-15.81,0.44-31.62,0.86-47.44,1.34C709.68,1569.06,691.04,1569.68,672.4,1570.28z"/>
	<path class="st0" d="M710.04,1499.89c-16.32,0.39-32.64,0.46-48.94,1.52c-14.06,0.91-27.85-1.97-41.72-3.66
		c-1.55-0.19-3.07-0.44-3.36-2.32c-0.35-2.21,1.31-3.01,2.93-3.32c3.75-0.72,7.55-1.66,11.33-1.64c30.73,0.19,61.08-4.77,91.66-6.55
		c8.82-0.51,17.62-1.1,26.45-1.22c6.9-0.09,10.94,3.14,10.76,8.38c-0.17,4.98-4.77,8.69-11.16,8.23
		C735.31,1498.38,722.69,1499.46,710.04,1499.89z"/>
	<path class="st0" d="M684.33,1348.56c-16.02-0.8-36.47-1.79-56.92-2.88c-3.31-0.18-6.63-0.66-9.9-1.25
		c-1.98-0.36-4.12-1.19-3.94-3.71c0.15-2.21,2.25-2.75,4.01-3.12c7.54-1.56,15.25-1.5,22.88-1.7c32.79-0.86,65.58-1.42,98.37-2.04
		c1.65-0.03,3.35,0.15,4.96,0.52c4.06,0.93,6.44,3.61,6.47,7.76c0.03,3.97-2.34,6.57-6.14,7.46c-2.24,0.52-4.63,0.59-6.94,0.52
		C721.05,1349.69,704.91,1349.18,684.33,1348.56z"/>
	<path class="st0" d="M679.05,889.32c-18.16,1.62-36.31,0.5-54.46,0.32c-2.81-0.03-5.61-0.67-8.42-0.99
		c-2.05-0.23-3.44-1.13-3.68-3.34c-0.28-2.61,1.39-3.5,3.51-3.99c8.98-2.04,18.17-2.3,27.28-2.72c30.28-1.4,60.57-2.46,90.85-3.63
		c1.98-0.08,3.97-0.35,5.93,0.38c2.94,1.1,4.75,3.07,4.93,6.23c0.2,3.4-1.5,5.82-4.61,6.94c-1.67,0.61-3.58,0.75-5.39,0.75
		C716.36,889.34,697.7,889.32,679.05,889.32z"/>
	<path class="st0" d="M695.25,1182.34c13.32,0,26.65,0,39.97,0c2.34,0,4.67,0.05,6.74,1.4c2.44,1.58,3.74,3.81,3.53,6.71
		c-0.22,2.88-1.72,4.97-4.47,6.07c-1.72,0.69-3.5,0.95-5.37,0.94c-30.32-0.15-60.6-1.33-90.83-3.55
		c-7.46-0.55-14.94-0.97-22.38-1.77c-2.07-0.22-5.46-0.05-5.37-3.23c0.09-3.38,3.56-3.14,5.82-3.31c11.62-0.84,23.25-1.7,34.88-2.02
		c12.48-0.34,24.98-0.08,37.46-0.08C695.25,1183.13,695.25,1182.73,695.25,1182.34z"/>
	<path class="st0" d="M720.48,1030.55c3.64,0.2,7.29,0.34,10.92,0.63c4.46,0.36,7.2,2.79,7.19,7.32c-0.01,4.54-2.86,7.22-7.23,7.33
		c-8.81,0.23-17.63,0.14-26.45-0.05c-25.3-0.55-50.59-1.1-75.83-3.09c-4.64-0.36-9.27-0.81-13.43-3.21
		c-0.02-0.99-0.04-1.97-0.05-2.96c8.13-4.36,17.14-3.62,25.81-3.95c23.57-0.9,47.17-1.18,70.75-1.72c0.82-0.02,1.63-0.2,2.45-0.31
		C716.57,1030.95,718.53,1030.95,720.48,1030.55z"/>
	<path class="st0" d="M683.14,1637.66c15.98,0.56,31.96,1.13,47.93,1.68c1.84,0.06,3.67,0.17,5.31,1.13c2.07,1.2,3.13,3.04,2.88,5.4
		c-0.25,2.3-1.41,4.2-3.81,4.71c-2.09,0.44-4.29,0.74-6.42,0.65c-29.78-1.32-59.57-2.36-89.29-4.65c-2.98-0.23-5.98-0.44-8.8-1.61
		c-1.64-0.68-3.06-1.62-2.93-3.58c0.12-1.9,1.52-2.93,3.26-3.3c1.77-0.38,3.59-0.74,5.39-0.75c15.49-0.06,30.98-0.03,46.47-0.03
		C683.14,1637.43,683.14,1637.54,683.14,1637.66z"/>
	<path class="st0" d="M616.63,730.55c1.13-0.58,2.25-1.16,3.38-1.75c1.17-0.17,2.35-0.34,3.52-0.5c29.58-1.49,59.17-2.95,88.8-3.02
		c4.66-0.01,9.32,0.03,13.99,0.03c3.11,0,5.23,1.39,5.44,4.58c0.23,3.29-1.98,4.76-4.92,5.18c-2.14,0.3-4.31,0.51-6.46,0.52
		c-28.97,0.24-57.92,1.8-86.9,0.75c-5.58-0.2-11.34,0.48-16.71-1.9C616.73,733.14,616.68,731.85,616.63,730.55z"/>
	<path class="st0" d="M912.89,1564.9c-0.01,4.35-0.51,7.19,0.38,10.15c0.6,2,0.64,4.19-0.12,6.34c-0.99,2.78-2.97,3.94-5.71,3.85
		c-2.93-0.1-4.55-2-5.06-4.66c-0.69-3.62-1.07-7.3-2.42-10.94c0,4,0,8,0,11.99c0,3.59-0.68,7.01-5.11,7.06
		c-4.33,0.05-5.34-3.31-5.53-6.88c-0.31-5.79-0.49-11.59-0.7-17.39c-0.05-1.52,0.22-3.96,1.64-3.64c3.98,0.88,5.89-3.66,8.57-3.36
		c5.71,0.64,11.04-0.86,16.55-1.19c2.5-0.15,4.45,2.05,5.96,4.12c5.7,7.82,7.47,16.84,7.38,26.23c-0.03,2.82-0.63,6.55-4.62,6.62
		c-4.03,0.08-5.68-2.99-6.12-6.58c-0.46-3.77-1.26-7.47-1.08-11.36C917.02,1571.99,915.95,1568.78,912.89,1564.9z"/>
	<path class="st0" d="M955.29,526.16c0.29,5,0.53,8.55,0.69,12.1c0.13,3.04-0.41,5.8-4.07,6.35c-3.57,0.54-5.18-1.8-5.97-4.73
		c-1.22-4.49-2.64-8.85-5.75-12.84c-1.96,1.66-1.49,3.74-1.64,5.57c-0.36,4.47-0.53,8.96-0.97,13.42c-0.24,2.47-1.81,3.88-4.37,3.86
		c-2.71-0.01-3.71-1.68-3.95-4.16c-0.72-7.42-0.11-14.94-1.61-22.31c-0.5-2.44,1.37-2.76,2.64-1.89c2.25,1.54,3.38,0.28,5.08-0.87
		c2.98-2.01,6.34-2.04,9.38-0.08c1.84,1.19,2.75,1.89,4.64-0.38c3.08-3.71,7.57-3.68,11.62-0.81c4,2.84,5.91,7.08,7.66,11.42
		c2.25,5.58,3.21,11.5,4.59,17.31c0.59,2.49,0.37,4.82-2.32,5.84c-2.63,1-4.45-0.57-5.84-2.63c-2.56-3.81-3.41-8.24-4.56-12.57
		C959.48,534.86,958.73,530.8,955.29,526.16z"/>
	<path class="st0" d="M839.55,535.4c-0.19,10.6-12.24,19.04-22,15.38c-3.88-1.45-6.37-4.13-7.09-8.27c-0.4-2.32,0.58-3.74,2.83-4.55
		c2.36-0.85,2.62,0.26,3.61,2.2c1.61,3.18,4.9,2.83,7.87,1.53c3.89-1.71,6.34-4.39,5.28-8.96c-0.76-3.29-3.03-4.65-6.34-4.17
		c-3.01,0.43-5.8,1.07-7.39,4.26c-1.07,2.16-3.18,2.83-5.56,1.97c-2.28-0.82-2.9-2.79-2.69-4.84c0.36-3.64,1.04-7.24,1.63-10.85
		c0.55-3.41,1.54-6.55-2.38-9.2c-2.12-1.43-0.88-4.32,1.63-4.95c8.93-2.23,17.17-6.13,25.48-9.92c1.76-0.8,3.81-1.12,4.82,0.94
		c1.15,2.34-0.94,3.19-2.57,3.99c-5.67,2.75-11.32,5.58-17.09,8.1c-1.84,0.8-2.73,1.52-2.02,3.51c0.11,0.31,0.07,0.66,0.14,0.99
		c0.57,2.77-1.16,6.47,0.79,8.12c1.43,1.21,4.98-0.25,7.58-0.22C833.79,520.52,839.69,527.15,839.55,535.4z"/>
	<path class="st0" d="M960.75,1572.21c5.65,0.21,11.32,0.02,16.92,1.13c1.84,0.36,3.55,0.92,5.04,2.02c1.52,1.12,2.73,2.6,2.43,4.58
		c-0.31,1.99-2.17,2.21-3.78,2.72c-4.52,1.43-9.24,1.16-13.86,1.56c-7.27,0.62-14.6,0.86-21.9,0.83
		c-7.89-0.03-10.74-3.24-10.32-11.2c0.37-7.03,2.77-13.67,4.24-20.5c0.73-3.41,1.4-6.84,1.86-10.29c0.23-1.77,0.31-3.31,2.53-3.61
		c1.93-0.26,3.33,0.61,4.13,2.16c1.25,2.4,1.74,5.08,1.41,7.76c-0.74,6.1-1.52,12.21-2.55,18.27c-0.56,3.34-0.07,5.03,3.86,4.63
		C954.06,1571.95,957.42,1572.21,960.75,1572.21z"/>
	<path class="st0" d="M679.64,579.47c11.48,0,22.97,0.01,34.45-0.01c2.02-0.01,4.01,0.09,5.87,0.91c2.19,0.98,3.32,2.71,3.16,5.15
		c-0.15,2.24-1.43,3.62-3.49,4.38c-2.09,0.77-4.25,0.73-6.41,0.65c-25.1-0.93-50.2-1.95-75.24-3.94c-0.66-0.05-1.36-0.01-1.98-0.2
		c-1.85-0.56-4.42-0.71-4.3-3.3c0.12-2.61,2.54-2.57,4.55-2.75C650.69,579.06,665.17,579.54,679.64,579.47z"/>
	<path class="st0" d="M917.53,523.45c-0.03,0.36-0.03,1.54-0.22,2.68c-1.76,10.46-8.23,17.05-16.18,16.53
		c-11.38-0.75-21.1-10.54-21.54-21.8c-0.21-5.42,1.13-10.57,3.49-15.39c2.53-5.16,10.2-8.05,16.46-6.5
		C909.7,501.48,917.57,511.84,917.53,523.45z M910.37,522.23c-0.51-3.68-1.28-7.24-3.86-9.72c-2.16-2.08-3.52-7.38-8.35-3.14
		c-0.93,0.81-1.57-0.62-2.24-1.33c-2.6-2.75-5.68-2.26-7.36,1.1c-5.15,10.29-0.35,21.53,10.48,24.9c3.76,1.17,6.47,0.22,8.52-3.03
		C909.29,528.27,909.83,525.17,910.37,522.23z"/>
	<path class="st0" d="M1009.49,542.27c-7.39-0.35-15.34-1.01-23.18-2.49c-6.84-1.29-10.18-5.29-9.59-12.32
		c1-12.08,2.55-24.12,3.81-36.18c0.19-1.77,0.84-2.83,2.75-2.76c2.04,0.08,2.87,1.47,3.22,3.2c0.98,4.92,1.14,9.88,0.8,14.89
		c-0.4,5.97-0.47,11.97-0.97,17.93c-0.3,3.54,0.75,5.05,4.51,5.31c8.28,0.58,16.54,1.56,24.79,2.48c3.09,0.34,6.38,1.21,6.2,5.05
		c-0.16,3.52-3.31,4.14-6.27,4.39C1013.73,541.92,1011.91,542.07,1009.49,542.27z"/>
	<path class="st0" d="M877.87,527.89c0.05,9.97-6.48,17.28-14.95,16.75c-9.57-0.61-17.86-10.5-17.26-19.72
		c0.42-6.43,4.1-11.34,6.43-16.87c0.85-2.03,3.21-2.2,5.22-2.06C864.7,506.5,878.79,517.55,877.87,527.89z M852.81,522.38
		c-0.08,6.54,3.14,11.55,8.1,13.61c2.09,0.87,4.17,1.04,6.15-0.33c3.35-2.32,4.78-8.03,3.04-12.09c-2.12-4.96-5.9-7.53-9.97-6.77
		c-1,0.19-1.4-0.6-1.95-1.16c-2.36-2.39-3.58-0.57-4.28,1.41C853.2,519.07,853.03,521.25,852.81,522.38z"/>
</g>
<path class="st1" d="M413.41,500.4c-2.84-5.85-6.96-11.09-11.91-15.36c-6.13-13.89-21.46-23.19-36.91-18.46
	c-28.33,8.68-48.37,32.02-57.02,59.85c-4.18,13.44-5.52,28.15-5.27,42.19c0.13,7.25,0.24,15.3,2.14,22.26
	c3.65,13.39,13.89,24.14,27.14,28.27c29.69,9.24,57.64-14.24,73.04-37.23C420.22,558.64,425.91,526.13,413.41,500.4z"/>
<path class="st1" d="M384.83,868.35c-2.64-30.24-5.62-60.44-8.9-90.62c-0.92-8.46-2.85-15.69-9.08-21.92
	c-5.38-5.38-14.2-9.43-21.92-9.08c-8.02,0.36-16.33,2.99-21.92,9.08c-5.21,5.68-9.95,13.91-9.08,21.92
	c11.7,107.58,19.36,215.59,22.86,323.74c0.98,30.34,1.64,60.68,1.98,91.03c0.18,16.21,14.13,31.76,31,31
	c16.64-0.75,31.2-13.63,31-31C399.55,1084.31,394.25,976.15,384.83,868.35z"/>
</svg>
