<?xml version="1.0" encoding="utf-8"?>
<!-- Generator: Adobe Illustrator 26.0.3, SVG Export Plug-In . SVG Version: 6.00 Build 0)  -->
<svg version="1.1" id="Layer_1" xmlns="http://www.w3.org/2000/svg" xmlns:xlink="http://www.w3.org/1999/xlink" x="0px" y="0px"
	 viewBox="0 0 1325.65 1723.76" style="enable-background:new 0 0 1325.65 1723.76;" xml:space="preserve">
<style type="text/css">
	.st0{fill:#1B5676;}
	.st1{fill:#C6C2C7;}
	.st2{fill:#5F5D87;}
	.st3{fill:#7E5882;}
	.st4{fill:#38A38C;}
</style>
<g>
	<path class="st0" d="M421.59,390.89c24.38-8.8,47.92-19.89,73.13-26.49c46.13-12.08,92.89-19.16,140.64-19.8
		c27.5-0.37,55-1.04,82.36,2.39c33.91,4.25,67.11,12.13,100.36,19.84c26.92,6.24,54.25,10.44,81.64,14.19
		c16.82,2.3,33.5,5.6,50.27,8.27c8.73,1.39,17.57,1.61,26.41,1.37c7.5-0.21,14.83,0.33,22.28,1.9c7.75,1.64,15.9,1.33,23.88,1.89
		c30.83,2.16,61.57,1.44,92.21-2.81c3.36-0.47,4.4-1.41,3.4-5.06c-5.18-18.84-10.49-37.67-14.93-56.69
		c-3.42-14.63-5.44-29.54,0.3-44.26c2.74-7.04,6.43-13.57,10.71-19.72c8.5-12.21,8.11-24.47,0.86-36.9
		c-1.26-2.15-2.37-4.31-3.28-7.24c7.5,1.8,12.56,6.48,16.8,12.12c9.93,13.2,8.69,27.14,2.36,41.32c-1.73,3.87-3.52,7.7-5.28,11.56
		c-5.11,11.17-3.34,22.41-0.43,33.7c5.28,20.52,13.64,40.04,19.73,60.3c7.39,24.59,13.96,49.33,17.78,74.79
		c2.31,15.39,4.22,30.81,5.96,46.27c2.08,18.5,3.89,37,5.04,55.59c0.68,10.88,1.4,21.76,2.01,32.65
		c0.83,14.72,1.62,29.42,2.07,44.15c0.14,4.57,0.79,9.2,0.79,13.82c0.03,6.29,0.42,12.56,0.79,18.84
		c0.72,12.24,0.35,24.54,1.07,36.82c1.17,19.75-0.88,39.51-0.87,59.28c0.01,18.74-1.04,37.44-1.83,56.15
		c-0.02,0.33-0.05,0.67-0.05,1c-0.37,18.28-0.19,36.59-1.29,54.83c-0.81,13.47-0.01,26.94-0.94,40.33
		c-1.83,26.28-0.93,52.57-0.57,78.82c0.16,11.42,0.04,22.9,0.77,34.31c0.95,14.88,1.59,29.75,2.05,44.65
		c0.48,15.66,1.75,31.31,2.95,46.94c1.12,14.46,2.46,28.9,3.99,43.32c1.45,13.7,3.62,27.32,4.8,41.04
		c1.06,12.29,2.89,24.48,4.23,36.72c1.33,12.2,3.18,24.34,4.75,36.51c0.5,3.91,0.67,7.87,0.99,11.78
		c1.97,24.39,2.15,48.92,0.89,73.28c-2.02,39.14-9.09,77.58-20.16,115.26c-7.95,27.06-20.03,51.95-36.52,74.81
		c-9.3,12.91-20.76,23.59-32.79,33.81c-14.08,11.96-28.25,23.79-43.58,34.15c-13.56,9.16-27.74,17.3-41.81,25.66
		c-17.24,10.25-35.83,12.65-54.9,14.62c-19.71,2.03-39.46,3.56-59.22,5.1c-12.03,0.93-24.05,1.93-36.08,2.92
		c-18.1,1.5-36.18,3.27-54.28,4.84c-4.78,0.42-9.62,0.72-14.37,0.88c-15.93,0.53-31.85,1.54-47.73,2.48
		c-16.47,0.98-32.95,0.78-49.4,1.23c-22.43,0.61-44.91-0.31-67.37-1.3c-12.75-0.56-25.49-1.34-38.18-2.35
		c-16.66-1.32-33.29-3.13-49.87-5.52c-23.11-3.33-45.97-7.72-68.37-14.35c-26.4-7.82-52.7-15.92-76.37-30.59
		c-1.47-0.91-2.7-1.83-3.9,1.07c-2.64,6.38-6.73,7.5-12.95,4.55c-20.12-9.54-37.89-22.45-54.6-37.06
		c-13.16-11.51-26.08-23.27-37.37-36.6c-14.41-17.02-26.99-35.35-38.16-54.72c-13.23-22.96-25.58-46.34-35.41-70.95
		c-9.45-23.68-16.91-47.97-21.49-73.12c-2.54-13.95-4.05-27.94-5.13-42.08c-1.14-14.98-0.95-29.93-0.57-44.85
		c0.39-15.39,1.31-30.78,1.96-46.18c0.51-12.04,1.3-24.09,1.99-36.13c1.04-18.16,2.19-36.3,2.98-54.48
		c0.64-14.56,1.4-29.12,2.03-43.68c0.7-16.06,1.16-32.14,2.11-48.17c0.65-10.98-0.21-21.97,0.9-32.84
		c1.32-12.97-0.17-25.96,0.96-38.84c1.6-18.13-0.24-36.29,1.03-54.35c1.3-18.48-0.17-36.96,1.06-55.37
		c0.74-11.15-0.18-22.31,0.96-33.35c1.11-10.65,0.26-21.26,0.88-31.86c1.1-18.88,1.52-37.78,2.1-56.68
		c0.46-14.89,1.4-29.77,1.99-44.67c0.6-15.06,1.57-30.11,1.92-45.2c0.57-25.23-3.33-49.74-10.45-73.87
		c-5.47-18.53-5.87-37.71-4.33-56.62c2.73-33.45,13.27-65.17,24.29-96.67c12.12-34.66,26.3-68.53,39.12-102.91
		c3.62-9.72,6.54-19.65,8.2-29.91c0.43-2.64-0.89-4.81-1.94-7c-2.41-5-4.97-9.92-7.5-14.87c-6.94-13.61-5.65-26.44,3.55-38.57
		c3.07-4.05,5.94-8.29,11.79-10.39c-6.51-2.93-12.41-5.4-17.62-9.26c-13.15-9.73-19.97-23.52-25.2-38.38
		c-6.97-19.82-3.36-38.84,4.55-57.5c4.73-11.16,10.06-22,16.99-31.98c1.37-1.97,1.67-3.57-0.02-6.13
		c-6.46-9.78-0.79-22.56,10.66-25.96c12.56-3.73,25.46-4.59,38.36-5.94c14.21-1.49,28.47-2.43,42.61-4.73
		c11.66-1.89,23.48-2.77,35.22-4.18c13.02-1.57,26.02-3.34,39.04-4.85c10.3-1.19,20.63-2.17,30.95-3.13
		c14.78-1.37,29.56-2.69,44.35-3.92c6.43-0.53,12.92-0.63,19.33-0.8c10.95-0.29,21.86-1.21,32.82-1.39
		c22.9-0.37,45.78-1.54,68.68-2.2c10.94-0.32,21.9-0.33,32.85-0.71c58.95-2.04,117.91-0.74,176.87-0.87
		c13.6-0.03,27.25,0.49,40.86,1.02c15.89,0.61,31.8,1.11,47.66,2.05c16.79,1,33.6,1.94,50.37,3.56c11.95,1.16,23.93,2.24,35.89,3.35
		c12.42,1.15,24.73,3.64,37.16,4.63c17.24,1.38,34.01,5.69,51.21,7.35c22.74,2.21,44.07,8.89,62.49,22.87
		c16.52,12.53,27.65,29.05,31.92,49.35c3.83,18.22-0.04,35.89-7.32,52.79c-5.65,13.12-12.75,25.16-23.73,34.87
		c-12.09,10.68-26.09,16.83-41.58,19.98c-29.24,5.96-58.77,4.55-88.3,3.15c-1.16-0.06-2.33-0.06-3.5-0.05
		c-21.64,0.28-43.28-0.64-64.81-2.24c-41.23-3.07-82.49-3.17-123.75-2.59c-22.94,0.33-45.89,1.28-68.84,1.98
		c-17.26,0.53-34.53,1.19-51.79,1.94c-22.54,0.98-45.08,2.1-67.62,3.07c-17.93,0.77-35.87,1.18-53.79,2
		c-34.31,1.58-68.62,0.6-102.92,0.67c-18.48,0.04-36.97-0.55-55.44-1.05c-17.44-0.46-34.88-2.26-52.33-1.65
		c-14.45,0.51-28.91,0.77-43.37,1.58c-13.87,0.78-27.73-1.01-41.48-3.13c-0.97-0.15-1.92-0.39-2.88-0.6
		c-4.25-0.93-8.49-1.87-12.74-2.8c-1.85,5.35-3.5,10.78-5.58,16.04c-4.88,12.36,1.71,21.65,7.9,31.18
		c3.28,5.05,7.66,9.49,9.11,15.62c2.59,10.98,0.3,21.59-2.65,32.1c-6.83,24.31-16.28,47.72-24.66,71.5
		c-9.36,26.55-18.56,53.14-26.15,80.26c-0.65,2.31-1.17,4.66-2.12,8.44c2.89-2.44,4.9-3.77,6.47-5.51
		c15.41-16.99,34.22-28.89,55.22-37.73c18.54-7.8,36.32-17.4,55.75-23.14c14.53-4.29,29.5-6.74,44.04-10.98
		c-3.86,8.98-9.44,16.94-14.87,24.99c-9.04,0.35-17.65,3.09-26.08,5.78c-21.71,6.92-42,17.37-62.73,26.7
		c-6.17,2.77-12.61,5.37-17.84,9.77c-13.68,11.5-26.47,24.06-40.73,34.89c-2.14,1.63-2.08,3.13-0.24,4.9
		c2.66,2.58,6.16,3.25,9.52,3.94c14.33,2.95,28.85,4.06,43.46,4.08c16.81,0.02,33.62,0.06,50.43,0.09
		c-1.94,6.27-3.88,12.54-5.82,18.81c-14.16,0.02-28.33-0.01-42.49,0.06c-20.02,0.1-39.78-1.49-58.76-8.57
		c-2.01-0.75-3.14-0.52-3.89,2.09c-1.39,4.87,0.04,9.53,0,14.28c-0.1,11.07,1.63,21.79,4.66,32.36
		c6.23,21.75,10.32,43.88,10.36,66.55c0.03,14.95,0.22,29.9-0.67,44.89c-1.01,17.22-1.52,34.5-2.08,51.75
		c-0.63,19.59-1.4,39.17-2.02,58.75c-0.64,20.09-1.57,40.18-1.91,60.26c-0.32,18.46-1.27,36.9-1.31,55.37
		c-0.03,11.46,0.15,22.9-0.68,34.4c-1.06,14.73,0.02,29.58-1.17,44.37c-0.76,9.43-0.47,18.92-0.8,28.38
		c-0.88,25.22-1.77,50.43-3.12,75.63c-0.77,14.41-1.31,28.83-1.99,43.25c-0.89,18.89-1.94,37.76-3.02,56.63
		c-0.65,11.42-1.49,22.83-1.94,34.25c-0.68,17.25-1.57,34.5-2.04,51.75c-0.33,12.27-0.34,24.56,0.58,36.89
		c0.79,10.58,1.83,21.09,3.29,31.59c1.67,11.97,4.37,23.77,7.78,35.29c3.88,13.11,7.77,26.25,12.8,39.06
		c4.37,11.15,9.57,21.83,14.58,32.64c4.18,9.02,8.98,17.65,13.98,26.26c4.6,7.93,9.24,15.84,14.22,23.52
		c4.05,6.24,8.82,12.01,13.19,18.04c8.06,11.11,17.38,21.02,26.96,30.75c6.69,6.8,14.31,12.53,21.35,18.9
		c11.59,10.47,24.34,18.99,37.84,26.73c6.07,3.48,13.98,4.83,17.3,12.39c0.56,1.27,2.1,1.4,3.44,1.69
		c6.79,1.5,13.64,2.76,20.41,4.22c24.62,5.31,49.51,8.62,74.45,11.91c16.6,2.19,33.27,3.2,49.91,4.69
		c13.21,1.18,26.53,1.72,39.74,1.8c21.41,0.12,42.82,1.05,64.26,0.47c23.09-0.63,46.19-0.53,69.26-2.14
		c13.07-0.91,26.2-1.05,39.23-2.27c4.97-0.46,9.94-0.41,14.89-0.91c12.5-1.26,25.02-2.44,37.5-3.91c8.4-0.99,16.81-1.64,25.23-2.36
		c13.83-1.18,27.59-3.15,41.41-4.56c11.86-1.21,23.76-1.97,35.62-3.15c18.3-1.83,36.6-3.66,55.01-3.89
		c1.83-0.02,3.67-0.02,5.49-0.19c10.05-0.91,20.09-1.89,30.14-2.81c2.55-0.23,4.91,0.24,7.13,1.7c3.2,2.11,6.55,2.03,9.78-0.05
		c9.3-5.97,18.71-11.7,27.79-18.05c12.52-8.75,23.95-18.72,35.47-28.59c3.5-2.99,7.65-5.45,10.47-9.01
		c9.27-11.72,20.18-22.24,26.58-36.11c2.58-5.58,6.32-10.56,8.74-16.27c6.71-15.86,11.16-32.39,15.08-49.1
		c4.32-18.38,7.42-36.96,10.12-55.66c2.61-18.07,4.25-36.2,4.65-54.4c0.29-13.27,0.13-26.57-0.53-39.89
		c-0.63-12.95-2.31-25.75-3.62-38.58c-0.41-4.02,0.98-8.69-2.16-12.33c1.45-3.93-0.11-7.79-0.49-11.63
		c-0.71-7.01-1.98-13.97-3.01-20.95c0.64-5.69-0.77-11.25-1.28-16.84c-1.3-14.31-3.32-28.56-4.71-42.86
		c-1.15-11.86-2.1-23.75-3.32-35.59c-1.57-15.32-2.2-30.69-3.53-46.02c-0.96-11.03-1.56-22.14-2-33.22
		c-0.7-17.4-1.99-34.82-1.99-52.21c0.01-38.27-1.34-76.55,0.76-114.81c0.73-13.27,0.34-26.57,0.76-39.86
		c0.82-25.89,1.89-51.8,2.12-77.7c0.32-36.23,0.82-72.47-1.6-108.69c-0.78-11.71-1.09-23.55-1.45-35.33
		c-0.18-6.1-0.47-12.25-0.92-18.37c-1.22-16.5-2.47-33-3.9-49.48c-0.77-8.9-1.77-17.78-2.42-26.69c-0.8-10.87-2.36-21.69-3.54-32.53
		c-0.74-6.74-1.39-13.49-2.09-20.24c-0.11-1.03-0.44-2.01-1.64-2.19c-1.07-0.16-1.31,0.84-1.73,1.5c-2.39,3.79-4.85,7.48-7.8,10.91
		c-6.58,7.65-15.27,12.15-23.79,16.96c-1.22,0.52-2.57,0.85-3.63,1.59c-16.16,11.23-34.8,15.12-53.74,17.29
		c-12.32,1.41-24.64,2.9-36.86,4.77c-14.21,2.18-28.33,4.86-42.71,5.74c-2.97,0.28-5.95,0.56-8.92,0.84
		c-1.71,0.03-3.42,0.07-5.12,0.1c-0.3-0.09-0.59-0.09-0.89,0.02c-10.37,0.26-20.74,0.52-31.11,0.78
		c-21.11-0.16-42.22-0.69-63.31-0.71c-68.53-0.05-137.08-1.58-205.6,0.73c-8.33,0.28-16.6-1.49-24.86-0.8
		c-7.14,0.6-14.15,0.57-21.29,0.03c-5.86-0.44-11.94-1.23-17.79,0.7c-12.08-0.19-24.15-0.44-36.25-0.14
		c-14.44,0.36-28.91,0.17-43.3,1.33c-6.12,0.5-12.26,0.46-18.35,1.09c-15,1.55-30.04,2.28-45.11,2.64c-0.3-6.56-0.6-13.13-0.9-19.69
		c20.37,0.53,40.53-2.7,60.84-3.38c2.35-0.24,4.69-0.49,7.04-0.73l0.45,0.02l0.44-0.06c11.31,0.27,22.57-1.01,33.89-1.1
		c24.29-0.17,48.58,0.41,72.88-0.61c25.92-1.09,51.91-0.59,77.87-0.96c86.41-1.21,172.85,0.76,259.26-1.36
		c6.14-0.15,12.33-0.24,18.38-1.14c22.76-3.39,45.49-6.94,68.32-9.87c15.64-2.01,31.41-3.87,44.5-14.04
		c0.31-0.29,0.62-0.57,0.93-0.86c0.72-0.62,1.44-1.25,2.16-1.87c0.27-0.04,0.53-0.1,0.8-0.16c2.12-0.31,3.61-1.66,5.07-3.06
		c8.47-2.58,14.28-8.25,17.97-16.06c4.12-8.71,7.29-17.84,10.99-26.73c2.13-5.12,0.8-9.22-1.17-13.68c-1.4-3.19-3.28-4.43-6.63-2.66
		c-1.15,0.61-2.49,0.88-3.77,1.21c-11.22,2.86-22.77,1.88-34.16,2.77c-20.12,1.56-40.13-2.01-60.26-2.14
		c-6.44-0.04-13.4,0.44-19.59-2.58c-5.38-2.63-10.96-3.44-16.91-3.23c-9.8,0.34-19.87,0.91-29.06-2.84
		c-8.37-3.42-17.08-3.7-25.68-4.94c-16.55-2.38-33.34-3.32-49.71-6.52c-22.59-4.42-45.45-7.32-67.9-12.54
		c-24.67-5.74-49.49-10.93-74.57-14.57c-14.41-2.09-28.88-4.29-43.48-4.39c-32.25-0.23-64.52-0.58-96.65,2.94
		c-11.68,1.28-23.37,2.56-34.97,4.42c-21.28,3.42-42.18,8.64-62.86,14.64c-14.03,4.07-27.82,8.74-41.14,14.92
		c-9.75,4.52-19.97,8.09-30.4,10.91C421.68,404.19,421.63,397.54,421.59,390.89z M715.46,49.99c-11.23,0-22.46,0-33.68-0.01
		c-10-0.91-19.9,0.96-29.89,0.97c-13.12,0-26.23,0.06-39.38,0.7c-20.06,0.97-40.17,1.23-60.24,2.24
		c-12.11,0.61-24.25,0.59-36.37,1.13c-10.26,0.46-20.52,1.14-30.75,2.04c-13.01,1.14-26,2.56-39,3.91
		c-13.16,1.36-26.32,2.7-39.47,4.19c-13.3,1.51-26.57,3.3-39.88,4.75c-14.64,1.6-29.3,2.96-43.95,4.42
		c-5.02-0.12-10.03-0.24-15.05-0.36c-7.33-0.01-14.67,0.21-21.99-0.12c-3.52-0.16-5.47,1.17-7.18,3.99
		c-8.36,13.8-12.91,29.03-17.29,44.4c-4.92,17.27-2.72,33.42,5.93,48.93c4.88,8.75,11.37,15.44,21.61,17.67
		c13.62,2.96,27.31,5.2,41.3,5.1c12.96-0.09,25.92-0.47,38.87-0.79c26.58-0.65,53.18-0.44,79.74,1.66
		c13.23,1.05,26.6,0.8,39.86,0.86c38.62,0.15,77.25,1.24,115.87-0.58c16.07-0.76,32.16-1.25,48.24-2.01
		c19.38-0.91,38.74-2.01,58.11-3.03c13.24-0.69,26.49-1.45,39.73-1.96c16.25-0.63,32.48-1.37,48.73-2
		c16.75-0.65,33.49-1.47,50.23-1.97c15.28-0.46,30.59-0.54,45.88-1.19c9.32-0.39,18.53,1.45,27.87,1.11
		c6.61-0.25,13.26,0.31,19.89,0.64c16.4,0.82,32.81,1.21,49.21,2.2c12.94,0.78,25.91,0.36,38.88,0.77
		c23.55,0.74,47.16,0.87,70.72-1.56c20.98-2.16,37.74-11.3,49.9-28.23c8.94-12.44,12.61-26.56,8.71-41.86
		c-3.57-14.01-13.33-23.1-25.46-29.72c-12.49-6.82-26.1-10.38-40.11-12.79c-17.93-3.08-35.79-6.56-53.89-8.5
		c-15.96-1.71-31.9-3.58-47.85-5.36c-17.79-1.98-35.63-3.15-53.45-4.58c-12.22-0.98-24.51-1.47-36.77-1.94
		c-19.59-0.76-39.19-1.23-58.78-2.16c-11.95-0.56-23.93-0.45-35.89-0.74C777.45,49.47,746.45,49.98,715.46,49.99z"/>
	<path class="st1" d="M339.66,529.87c1.94-6.27,3.88-12.54,5.82-18.81c1.42-3.5,2.8-7.02,4.27-10.51
		c3.89-9.21,7.81-18.41,11.72-27.61c1.83-2.43,3.31-5.03,3.8-8.09c0.77-0.83,1.75-1.55,2.27-2.52c4.54-8.43,9.09-16.86,13.45-25.38
		c2.77-5.42,6.68-10.21,8.71-16.02c5.43-8.05,11.01-16.01,14.87-24.99c5.67-1.68,11.35-3.37,17.02-5.05
		c0.04,6.65,0.09,13.3,0.13,19.96c0.7,11.37,0.16,22.82,2.27,34.09c0.41,4.12,1,8.19,2.87,11.95c-0.47,1.69,0.15,3.18,0.61,4.8
		c4.62,16.27,9.61,32.46,11.35,49.39c0.3,6.56,0.6,13.13,0.9,19.69c-0.01,9.9-1.17,19.65-3.83,29.2
		c-4.97,20.87-13.89,39.99-25.84,57.7c-5.05,7.49-11.37,13.79-19.92,17.41c-7.59,3.21-11.2,2.62-16.95-3.15
		c-2.5-2.51-5.47-4.32-8.4-6.2c-4.32-2.76-7.44-6.5-9.86-10.99c-4.3-8-8.75-15.92-13.14-23.88c-1.12-2.99-2.23-5.98-3.35-8.96
		C336.79,564.52,335.01,547.12,339.66,529.87z"/>
	<path class="st2" d="M712.24,289.05c-82.12,2.42-164.25,3.49-246.4,4.09c-35.16,0.26-70.31,0.42-105.47-0.19
		c-7-0.12-14.01-0.4-20.84-2.1c-2.11-0.53-5.04-0.7-4.87-3.96c0.16-3,2.86-3.38,5.05-3.94c11.05-2.84,22.42-3.1,33.69-3.83
		c50.2-3.23,100.49-4.62,150.75-6.75c38.11-1.61,76.26-2.63,114.4-3.63c43.31-1.14,86.62-1.88,129.93-2.94
		c86.78-2.14,173.56-4.4,260.34-6.55c14.16-0.35,28.33-0.36,42.49-0.49c4.92-0.05,9.4,1.15,11.92,5.81
		c3.65,6.78-1.14,14.36-9.73,15.04c-8.13,0.64-16.31,0.8-24.47,1.03c-65.78,1.89-131.58,3.28-197.38,4.56
		C805.17,286.13,758.71,287.75,712.24,289.05z"/>
	<path class="st2" d="M1177.81,819.14c0.79-18.71,1.84-37.41,1.83-56.15c-0.01-19.77,2.04-39.53,0.87-59.28
		c-0.73-12.29-0.36-24.58-1.07-36.82c-0.37-6.28-0.76-12.55-0.79-18.84c6.06,18.78,9.46,37.95,9.78,57.77
		c0.51,31.3-1.27,62.47-4.56,93.57C1183.14,806.25,1182.16,813.27,1177.81,819.14z"/>
	<path class="st2" d="M341.77,590.88c4.39,7.95,8.84,15.87,13.14,23.88c2.41,4.49,5.54,8.23,9.86,10.99c2.93,1.87,5.89,3.69,8.4,6.2
		c5.76,5.77,9.36,6.36,16.95,3.15c8.56-3.61,14.87-9.92,19.92-17.41c11.94-17.71,20.87-36.84,25.83-57.7
		c7.93,0.06,15.24-3.16,22.82-4.76c3.2-0.67,7.32,0.26,9.39-1.63c5.73-5.22,13.49-2.31,19.32-5.8c3.81-2.28,7.99-1.33,11.87-2.49
		c6.45-1.91,12.89-4.28,19.5-5.16c5.95-0.79,11.71-2.61,17.91-2.62c3.17-0.01,7.06-1.01,10.38-2.24c4.89-1.8,10.1-2.67,15.06-3.05
		c5.42-0.41,10.35-3.08,15.93-2.63c1.39,0.11,4.09-1.25,4.64-3.75c5.86-1.92,11.93-1.14,17.79-0.7c7.15,0.54,14.15,0.57,21.29-0.03
		c8.25-0.69,16.52,1.08,24.86,0.8c68.52-2.31,137.07-0.78,205.6-0.73c21.09,0.01,42.21,0.55,63.31,0.71
		c-0.09,0.87-0.35,1.74-1.3,1.89c-8.46,1.29-16.86,2.01-24.94,5.84c-5.81,2.75-13.1,2.24-19.19,4.58
		c-4.24,1.63-8.56,0.73-12.48,2.12c-6.88,2.45-14.06,3.92-21.08,5.27c-8.88,1.71-17.63,3.7-26.38,5.95
		c-2.82,0.72-5.26,2.8-8.39,2.41c-4.55-0.57-8.92,1.35-12.91,2.57c-6.48,1.98-13.15,3.16-19.62,5.2
		c-9.35,2.94-19.55,2.92-28.39,7.88c-0.67,0.37-1.62,0.31-2.44,0.32c-6.78,0.13-13.06,2.27-19.16,4.96
		c-1.25,0.55-2.39,1.14-3.76,1.05c-9.49-0.6-17.07,6-26.35,6.8c-5.6,0.48-11.11,3.11-16.44,5.29c-4.06,1.66-8.69,0.85-12.31,2.59
		c-4.45,2.14-8.63,3.82-13.58,3.36c-1.1-0.1-2.67-0.26-2.93,1.22c-0.54,3.12-2.8,2.96-4.92,2.69c-2.86-0.36-5.12,0.76-7.36,2.23
		c-1.07,0.71-1.88,1.76-3.42,1.82c-8.28,0.31-15.62,4.37-23.12,7.04c-8.38,2.98-17.16,4.86-25.27,8.83
		c-6.61,3.23-13.74,5.6-20.88,7.45c-4.07,1.06-7.4,4.48-11.26,4.4c-5.95-0.13-10.55,3.48-15.31,5.38
		c-6.71,2.67-14.24,4.55-20.04,9.28c-2.96,2.41-6.68,0.85-9.73,3.16c-3.56,2.69-8.54,5.39-12.1,5.7
		c-8.69,0.75-14.84,6.48-21.73,9.78c-9.41,4.49-20.7,6.19-28.12,14.65c-0.18,0.21-0.64,0.32-0.93,0.26
		c-5.29-1.09-8.31,4.02-12.58,4.75c-4.86,0.84-7.85,4.68-12.44,5.82c-2.57,0.64-4.39,4.77-6.88,5.16
		c-4.61,0.73-8.06,3.55-11.87,5.39c-8.95,4.33-17.77,9.03-26.06,14.74c-6.2,4.27-12.81,8.08-19.4,11.75
		c-2.11,1.18-3.16,3.06-5.13,4.21c-5.59,3.27-10.98,6.81-16.03,11.02c-3.2,2.66-5.42,5.88-8.23,8.68
		c-5.32,5.31-7.89,18.17-4.29,24.67c3.61,6.52,7.52,12.89,11.34,19.29c3.12,5.24,8.97,7.19,13.69,10.2c2.43,1.55,7,1.26,10.64,1.43
		c-3.43,15.31-6.84,30.62-10.29,45.92c-5.55,24.63-10.16,49.45-14.48,74.32c-3.95,22.76-6.69,45.7-8.97,68.68
		c-1.82,18.43-3.33,36.92-3.95,55.42c-0.81,23.9-0.66,47.84,2.91,71.58c3.43,22.84,6.91,45.67,11.96,68.22
		c7.33,32.74,17.37,64.6,32.09,94.8c12,24.62,25.18,48.63,39.86,71.78c19.81,31.25,43.6,58.91,72.89,81.78
		c13.76,10.75,27.99,20.05,45.4,23.76c4.84,1.03,9.01-0.11,11.82-3.11c7.84-8.38,12.96-18.39,14.7-29.91
		c0.22-1.49,0.09-3.22,1.54-4.04c3.73-2.12,3.74-5.95,4.68-9.41c1.52-5.59,2.42-11.36,2.55-17.06c0.11-4.7,1.12-11.18-4.24-13.25
		c-6.35-2.45-12.46-4.86-17.85-9.08c-1.19-0.93-3.13-0.97-4.75-1.26c-7.68-1.38-13.81-5.38-18.98-11.06c2.12-1.26,4.47-1,6.8-1.12
		c23.31-1.12,46.68,1.96,70.01-1.7c7.49-1.17,15.08-3.66,22.92-2.34c0.32,0.05,0.71,0.03,0.98-0.11c7.14-3.88,15.42-3.08,22.95-5.66
		c8.04-2.76,17.28-1.75,24.66-6.41c4.2-2.65,8.84-0.44,12.78-2.94c7.06-4.49,16.73-2.25,23.08-8.75c0.09-0.09,0.32-0.05,0.49-0.04
		c8.5,0.73,14.67-5.36,22.13-7.72c6.2-1.96,12.25-4.56,18.16-7.71c4.96-2.64,10.77-5.05,16.6-6.36c2.21-0.5,4.69-0.04,5.18-3.34
		c0.15-1.03,1.66-0.75,2.62-0.93c4.14-0.78,8.05-2.15,11.84-4.08c4.14-2.12,8.06-4.56,12.03-6.95c6.03-3.63,12.85-5.93,19.2-9.05
		c3.7-1.82,7.8-2.55,11.04-5.76c2.5-2.47,6.19-5.08,9.19-5.72c6.25-1.34,11.16-5.29,16.27-8.02c4.78-2.55,10.23-4.7,15-7.54
		c4.83-2.87,9.4-6.82,15.12-8.82c7.11-2.48,14.44-5.77,20.07-10.58c4-3.42,9.03-3.12,13.01-6.97c5.73-5.54,14.14-8.18,20.87-12.83
		c5.52-3.81,11.74-6.33,17.11-10.35c5.62-4.2,10.92-9.56,16.93-12.33c8.62-3.97,14.24-11.22,21.7-16.31
		c6.06-4.14,11.55-10.08,16.89-15.56c5.86-6,9.37-14.07,16-19.57c0.33-0.28,0.53-0.87,0.56-1.33c0.23-4.3,3.71-7.02,5.66-10.26
		c5.01-8.3,8.99-17.16,14.25-25.32c5.13-7.97,6.34-17.87,11.91-25.72c0.26-0.36,0.25-0.96,0.25-1.45c0.02-5.33,0.02-10.67,0.02-16
		c0-1.02-0.07-2.3-1-2.68c-5.24-2.15-9.99-6.72-15.55-6.57c-27.15,0.74-54.28-1.35-81.52,1.26c-15.14,1.45-30.57,2.14-45.9,2.62
		c-27.82,0.88-55.66-2.02-83.49,1.66c-12.32,1.63-24.94,0.66-37.46,1.99c-19.37,2.06-38.88-0.47-58.48,1.82
		c-22.43,2.62-45.22,0.09-67.94,2.06c-30.68,2.67-61.66-1.83-92.45,2.21c-8.03,1.05-16.31,0.17-24.48,0.15
		c-1.63,0-3.48,0.28-3.68-2.23c-0.16-2.03,0.25-3.24,2.58-4.01c6.12-2.01,11.45-5.93,16.94-9.03c6.88-3.89,12.71-9.75,20.67-11.9
		c4.7-1.27,8.48-4.41,13.61-5.32c3.65-0.65,7.92-0.84,11.58-3.2c5.01-3.22,11.42-4.39,16.84-5.56c5.8-1.25,10.64-4.56,16.43-5.56
		c2.58-0.44,5.86-0.12,8.02-1.76c6.85-5.21,17.03-1.96,22.94-9.28c6.09,0.98,11.1-2.19,16.53-4.02c7.32-2.47,14.39-5.67,22-7.4
		c3.3-0.75,7.69,0.09,9.21-4.52c5.83,0.64,10.67-2.37,15.96-3.91c7.31-2.12,13.97-5.97,21.55-7.28c3.97-0.69,7.33-3.9,11.02-4.71
		c9.28-2.03,17.26-7.2,26.31-9.67c5.29-1.44,10.2-4.12,15.25-6.3c9.9-4.3,20.33-7.38,30.45-11.24c4.07-1.55,7.53-4.94,11.98-4.97
		c4.31-0.02,7.57-1.99,10.92-4.1c0.96-0.61,1.82-1.65,2.85-1.85c9.87-1.95,18.53-7.29,27.49-11.19
		c10.41-4.54,21.27-8.62,31.18-14.58c3.05-1.83,6.88-3.08,10.25-4.62c8.11-3.71,17.75-4.24,24.32-11.3
		c0.52-0.56,1.89-0.35,2.86-0.47c1.14-0.15,2.76,0.17,3.36-0.47c4.7-5.07,11.59-6.72,16.79-10.76c9.31-7.24,19.47-13.2,29.03-20.04
		c8.41-6.01,15.87-13.85,26.13-17.18c0.44-0.14,0.7-1.06,0.9-1.66c0.93-2.75,3.23-4.23,5.52-5.48c2.86-1.56,4.46-4.27,6.69-6.27
		c2.67-2.4,3.62-5.85,6.4-8.02c8.14-6.34,13.09-15.26,17.13-24.27c2.99-6.67,8.71-12.34,8.62-20.33c6.28-3.18,0.57-12.27,7.46-15.21
		c0.28-0.12,0.21-1.26,0.15-1.92c-0.74-8.32,0.83-16.59-1.68-25.05c-2.94-9.92-9.32-16.8-16.53-23.19c-1.47-1.3-1.29-3.42-3.59-4.23
		c-10.76-3.79-19.83-11.07-30.45-15.2c-7.71-3-15.31-7.27-23.3-8.31c-7.82-1.02-15.18-3.57-22.87-4.87
		c-8.67-1.47-17.16-3.8-26.06-3.58c-1.99,0.05-4.39,0.61-5.92-0.26c-6.31-3.58-13.42-1.81-20.1-3.3c-10.3-2.3-21.36-1.63-31.89-1.83
		c-27.11-0.51-54.35-2.82-81.48,1.23c-10.52,1.57-21.25-0.42-32,1.86c-10.18,2.16-21-1.15-31.45,2.15
		c-4.54,1.43-9.89-1.1-14.44,2.02c-0.7,0.48-2.06,0.32-2.74-0.59c-0.55-0.73-0.45-1.94,0.29-2.21c2.52-0.92,3.73-3.83,5.62-4.61
		c5.48-2.28,11.59-2.29,16.84-6.18c4.05-3,9.5-4.32,14.5-5.77c3.98-1.15,6.08-5.69,9.42-6.15c6.03-0.84,10.63-4.86,16.41-5.81
		c2.71-0.45,5.54-0.67,6.38-4.12c0.07-0.27,1.21-0.38,1.85-0.39c7.35-0.11,13.28-4.8,19.97-6.93c3.95-1.26,8.29-4.3,12.72-6.14
		c11.48-4.8,22.25-11.2,33.98-15.46c7.98-2.9,14.71-8.84,23.53-9.71c0.59-0.06,1.33-0.53,1.64-1.04c1.71-2.74,4.75-3.39,7.33-4.68
		c5.5-2.74,11.46-4.69,16.59-7.96c3.77-2.4,8.22-2.67,12.01-5.64c2.76-2.16,7.07-4.01,11.06-5.41c5.5-1.93,10.04-6.61,16.35-7.29
		c0.55-0.06,1.19-0.65,1.53-1.16c2.94-4.43,8.21-6.95,12.28-7.96c5.86-1.45,10.06-5.5,15.16-7.75c4.81-2.12,10.02-5.82,14.76-9.27
		c2.75-2,5.84-3.85,8.88-5.37c1.88-0.94,3.67-1.81,5.35-3.13c4.61-3.62,10.07-5.39,15.56-7.27c4.44-1.52,9.58-0.79,13.38-3.96
		c1.83-1.53,3.65-2,5.9-1.94c1.62,0.05,3.35,0.44,4.85-0.62c5.84-4.13,13.23-4.31,19.39-7.45c7.22-3.68,15.4-6.39,17.35-16.22
		c0.45-2.29,0.59-6.11,2.57-7.08c6.12-2.98,2.89-5.21,0.01-7.77c8.52-4.82,17.22-9.31,23.79-16.96c2.95-3.44,5.41-7.12,7.8-10.91
		c0.42-0.66,0.66-1.66,1.73-1.5c1.19,0.18,1.53,1.17,1.64,2.19c0.71,6.75,1.36,13.5,2.09,20.24c1.19,10.84,2.74,21.66,3.54,32.53
		c0.66,8.92,1.65,17.79,2.42,26.69c1.43,16.48,2.69,32.98,3.9,49.48c0.45,6.11,0.74,12.27,0.92,18.37
		c0.36,11.78,0.66,23.62,1.45,35.33c2.42,36.23,1.92,72.47,1.6,108.69c-0.23,25.9-1.3,51.8-2.12,77.7
		c-0.42,13.29-0.03,26.59-0.76,39.86c-2.1,38.26-0.75,76.54-0.76,114.81c0,17.39,1.29,34.81,1.99,52.21
		c0.45,11.07,1.04,22.19,2,33.22c1.33,15.32,1.96,30.7,3.53,46.02c1.21,11.84,2.17,23.73,3.32,35.59
		c1.39,14.31,3.41,28.55,4.71,42.86c0.51,5.59,1.92,11.15,1.28,16.84c-0.17,11,0.88,21.88,3.51,32.58
		c3.14,3.64,1.75,8.31,2.16,12.33c1.32,12.84,2.99,25.64,3.62,38.58c0.65,13.32,0.82,26.62,0.53,39.89
		c-0.4,18.2-2.04,36.33-4.65,54.4c-2.7,18.69-5.79,37.28-10.12,55.66c-3.93,16.7-8.37,33.24-15.08,49.1
		c-2.42,5.71-6.16,10.69-8.74,16.27c-6.4,13.87-17.32,24.39-26.58,36.11c-2.82,3.57-6.97,6.02-10.47,9.01
		c-11.53,9.87-22.95,19.84-35.47,28.59c-9.09,6.35-18.5,12.09-27.79,18.05c-3.23,2.07-6.58,2.16-9.78,0.05
		c-2.22-1.46-4.58-1.94-7.13-1.7c-10.05,0.92-20.09,1.9-30.14,2.81c-1.82,0.17-3.66,0.16-5.49,0.19
		c-18.41,0.23-36.71,2.06-55.01,3.89c-11.86,1.19-23.77,1.94-35.62,3.15c-13.81,1.41-27.58,3.39-41.41,4.56
		c-8.42,0.72-16.83,1.38-25.23,2.36c-12.48,1.46-24.99,2.65-37.5,3.91c-4.95,0.5-9.92,0.44-14.89,0.91
		c-13.03,1.21-26.16,1.35-39.23,2.27c-23.07,1.61-46.17,1.51-69.26,2.14c-21.44,0.58-42.85-0.34-64.26-0.47
		c-13.21-0.08-26.53-0.62-39.74-1.8c-16.64-1.48-33.31-2.5-49.91-4.69c-24.94-3.29-49.83-6.6-74.45-11.91
		c-6.78-1.46-13.63-2.72-20.41-4.22c-1.34-0.3-2.89-0.42-3.44-1.69c-3.32-7.55-11.23-8.91-17.3-12.39
		c-13.5-7.74-26.25-16.26-37.84-26.73c-7.04-6.36-14.65-12.1-21.35-18.9c-9.59-9.73-18.9-19.65-26.96-30.75
		c-4.37-6.02-9.14-11.79-13.19-18.04c-4.98-7.68-9.62-15.59-14.22-23.52c-5-8.61-9.8-17.23-13.98-26.26
		c-5.01-10.81-10.22-21.49-14.58-32.64c-5.02-12.82-8.92-25.95-12.8-39.06c-3.41-11.52-6.11-23.32-7.78-35.29
		c-1.46-10.49-2.5-21-3.29-31.59c-0.92-12.33-0.92-24.62-0.58-36.89c0.47-17.25,1.36-34.5,2.04-51.75
		c0.45-11.41,1.28-22.83,1.94-34.25c1.08-18.87,2.13-37.74,3.02-56.63c0.68-14.42,1.22-28.84,1.99-43.25
		c1.35-25.2,2.24-50.41,3.12-75.63c0.33-9.46,0.04-18.95,0.8-28.38c1.19-14.79,0.11-29.64,1.17-44.37
		c0.83-11.5,0.65-22.94,0.68-34.4c0.05-18.47,1-36.91,1.31-55.37c0.34-20.08,1.27-40.17,1.91-60.26
		c0.62-19.58,1.39-39.16,2.02-58.75c0.56-17.25,1.07-34.53,2.08-51.75c0.88-14.99,0.69-29.93,0.67-44.89
		c-0.04-22.67-4.13-44.8-10.36-66.55c-3.03-10.58-4.76-21.29-4.66-32.36c0.04-4.74-1.39-9.41,0-14.28c0.75-2.61,1.88-2.84,3.89-2.09
		c18.97,7.08,38.73,8.68,58.76,8.57c14.16-0.07,28.33-0.04,42.49-0.06c-4.65,17.25-2.87,34.65-1.24,52.04
		c-5.46,0.16-9.18,4.26-13.88,6.19c-6.48,2.66-11.16,8.31-17.49,11.23c-2.18,1.01-4.67,1.37-6.88,2.54
		c-1.25,0.67-2.63,1.17-2.26,2.77c0.41,1.76,2.12,1.19,3.37,1.28c5.96,0.43,10.89-2.44,15.26-5.78c2.07-1.58,3.79-2.2,6.14-2.22
		C329.9,597.9,335.78,594.24,341.77,590.88z M712.62,1493.96c26.8-0.77,58.71,0.31,90.6,1.94c2.33,0.12,4.67-0.02,6.99,0.17
		c15.51,1.26,31.02,2.52,46.52,3.89c9.23,0.81,18.45,1.71,27.65,2.77c7.22,0.83,14.42,2.42,21.59,2.94
		c17.28,1.25,33.84,5.96,50.69,9.24c8.67,1.69,17.18,4.33,25.73,6.62c9.84,2.63,18.93,6.71,28.11,10.73
		c2.44,1.07,4.37,3.46,6.27,5.5c1.2,1.28,1.56,2.91-0.49,4.14c-4.37,2.64-8.54,5.67-13.07,7.98c-5.07,2.59-8.66,6.25-10.56,11.57
		c-1.91,5.36,2.66,11.89,8.23,12.56c7.34,0.89,13.64-1.41,19.78-5.06c7.57-4.51,14.42-9.4,19.14-17.37
		c5.96-10.08,4.26-19.01-1.26-28.34c-5.29-8.95-14.16-12.99-22.78-17.3c-9.09-4.54-18.93-7.11-28.59-10.2
		c-8.52-2.73-17.15-5.04-25.89-6.63c-18.68-3.39-37.44-6.24-56.32-8.49c-19.71-2.35-39.42-4.96-59.18-6.37
		c-15.53-1.11-31.16-1.31-46.75-2.08c-17.43-0.86-34.91-0.46-52.37-1.05c-17.94-0.61-35.91,0.05-53.88,0.67
		c-17.26,0.6-34.51,1.03-51.76,1.86c-21.54,1.03-43.01,2.46-64.52,3.96c-15.39,1.08-30.68,2.88-45.94,4.65
		c-16.48,1.91-32.94,4.24-49.32,7.24c-9.34,1.71-19.04,2.66-28.25,4.81c-27.16,6.34-54.89,11.59-78.51,27.92
		c-4.52,3.12-8.91,6.63-11.71,11.64c-1.92,3.44-2,6.78,1.15,9.3c2.7,2.15,5.03,2.51,8.56-0.37c2.77-2.26,5.99-4.76,9.87-6.17
		c11.78-4.29,23.39-8.84,35.59-12.08c8.88-2.36,17.92-4.06,26.76-6.57c8.1-2.3,16.44-3.83,24.72-5.42c8.9-1.71,17.84-3.3,26.81-4.58
		c11.62-1.65,23.29-3.01,34.95-4.38c11.17-1.31,22.34-2.73,33.55-3.59c9.74-0.75,19.43-1.99,29.23-2.35
		c18.52-0.69,36.99-2.93,55.52-3.55C668.8,1493.46,688.15,1493.96,712.62,1493.96z"/>
	<path class="st3" d="M352.48,804.97c-3.64-0.17-8.21,0.12-10.64-1.43c-4.71-3.01-10.56-4.96-13.69-10.2
		c-3.82-6.41-7.72-12.77-11.34-19.29c-3.6-6.5-1.03-19.36,4.29-24.67c2.81-2.81,5.03-6.02,8.23-8.68
		c5.06-4.21,10.44-7.75,16.03-11.02c1.97-1.15,3.02-3.04,5.13-4.21c6.59-3.67,13.19-7.48,19.4-11.75c8.28-5.7,17.1-10.4,26.06-14.74
		c3.81-1.84,7.26-4.66,11.87-5.39c2.5-0.39,4.31-4.52,6.88-5.16c4.6-1.14,7.58-4.98,12.44-5.82c4.27-0.73,7.29-5.84,12.58-4.75
		c0.29,0.06,0.75-0.05,0.93-0.26c7.42-8.47,18.71-10.16,28.12-14.65c6.9-3.29,13.05-9.03,21.73-9.78c3.56-0.31,8.53-3.01,12.1-5.7
		c3.05-2.3,6.77-0.74,9.73-3.16c5.81-4.73,13.33-6.61,20.04-9.28c4.76-1.9,9.36-5.51,15.31-5.38c3.86,0.08,7.19-3.34,11.26-4.4
		c7.13-1.85,14.27-4.22,20.88-7.45c8.11-3.97,16.9-5.84,25.27-8.83c7.5-2.67,14.84-6.73,23.12-7.04c1.54-0.06,2.35-1.11,3.42-1.82
		c2.24-1.48,4.5-2.59,7.36-2.23c2.12,0.27,4.38,0.43,4.92-2.69c0.26-1.47,1.82-1.32,2.93-1.22c4.95,0.47,9.13-1.22,13.58-3.36
		c3.63-1.74,8.25-0.93,12.31-2.59c5.34-2.18,10.84-4.81,16.44-5.29c9.28-0.8,16.87-7.41,26.35-6.8c1.37,0.09,2.51-0.5,3.76-1.05
		c6.1-2.69,12.38-4.84,19.16-4.96c0.82-0.02,1.78,0.05,2.44-0.32c8.84-4.96,19.04-4.94,28.39-7.88c6.47-2.04,13.14-3.21,19.62-5.2
		c3.99-1.22,8.36-3.14,12.91-2.57c3.13,0.39,5.57-1.68,8.39-2.41c8.75-2.25,17.49-4.23,26.38-5.95c7.02-1.35,14.2-2.83,21.08-5.27
		c3.92-1.39,8.23-0.49,12.48-2.12c6.09-2.34,13.38-1.83,19.19-4.58c8.08-3.83,16.48-4.55,24.94-5.84c0.96-0.15,1.21-1.02,1.3-1.89
		c10.37-0.26,20.74-0.52,31.1-0.79c0.31,0.48,0.6,0.47,0.89-0.02c1.71-0.03,3.42-0.07,5.12-0.11c3.1,1.03,6.22,2.39,8.92-0.84
		c14.38-0.88,28.5-3.56,42.71-5.74c12.22-1.87,24.55-3.36,36.86-4.77c18.95-2.17,37.59-6.06,53.74-17.29
		c1.06-0.74,2.41-1.07,3.63-1.59c2.88,2.56,6.12,4.79-0.01,7.77c-1.98,0.97-2.12,4.79-2.57,7.08c-1.94,9.83-10.13,12.54-17.35,16.22
		c-6.16,3.14-13.55,3.33-19.39,7.45c-1.5,1.06-3.23,0.67-4.85,0.62c-2.25-0.06-4.07,0.41-5.9,1.94c-3.81,3.18-8.95,2.45-13.38,3.96
		c-5.49,1.88-10.95,3.65-15.56,7.27c-1.68,1.32-3.47,2.19-5.35,3.13c-3.04,1.51-6.13,3.36-8.88,5.37
		c-4.74,3.45-9.95,7.15-14.76,9.27c-5.1,2.25-9.3,6.3-15.16,7.75c-4.07,1.01-9.33,3.53-12.28,7.96c-0.34,0.51-0.98,1.1-1.53,1.16
		c-6.31,0.68-10.86,5.35-16.35,7.29c-3.99,1.4-8.31,3.25-11.06,5.41c-3.79,2.97-8.24,3.24-12.01,5.64
		c-5.14,3.27-11.1,5.22-16.59,7.96c-2.57,1.28-5.62,1.93-7.33,4.68c-0.31,0.5-1.06,0.98-1.64,1.04c-8.82,0.88-15.55,6.81-23.53,9.71
		c-11.73,4.26-22.49,10.66-33.98,15.46c-4.42,1.85-8.77,4.89-12.72,6.14c-6.69,2.13-12.62,6.82-19.97,6.93
		c-0.64,0.01-1.78,0.12-1.85,0.39c-0.84,3.44-3.67,3.67-6.38,4.12c-5.78,0.95-10.38,4.98-16.41,5.81c-3.34,0.46-5.43,4.99-9.42,6.15
		c-5.01,1.45-10.45,2.77-14.5,5.77c-5.26,3.89-11.36,3.9-16.84,6.18c-1.89,0.79-3.1,3.69-5.62,4.61c-0.74,0.27-0.84,1.48-0.29,2.21
		c0.68,0.91,2.04,1.07,2.74,0.59c4.55-3.12,9.9-0.59,14.44-2.02c10.45-3.3,21.27,0.01,31.45-2.15c10.76-2.28,21.49-0.29,32-1.86
		c27.13-4.05,54.37-1.74,81.48-1.23c10.53,0.2,21.59-0.47,31.89,1.83c6.67,1.49,13.79-0.28,20.1,3.3c1.53,0.87,3.93,0.31,5.92,0.26
		c8.9-0.22,17.39,2.11,26.06,3.58c7.69,1.3,15.05,3.86,22.87,4.87c7.99,1.04,15.59,5.31,23.3,8.31
		c10.62,4.14,19.69,11.41,30.45,15.2c2.31,0.81,2.12,2.93,3.59,4.23c7.21,6.39,13.59,13.26,16.53,23.19
		c2.51,8.46,0.94,16.73,1.68,25.05c0.06,0.65,0.13,1.8-0.15,1.92c-6.89,2.94-1.18,12.03-7.46,15.21c0.08,7.98-5.63,13.65-8.62,20.33
		c-4.04,9.01-8.99,17.93-17.13,24.27c-2.78,2.17-3.73,5.62-6.4,8.02c-2.23,2-3.83,4.71-6.69,6.27c-2.29,1.25-4.59,2.73-5.52,5.48
		c-0.2,0.6-0.47,1.52-0.9,1.66c-10.26,3.33-17.72,11.17-26.13,17.18c-9.57,6.83-19.73,12.8-29.03,20.04
		c-5.2,4.04-12.09,5.68-16.79,10.76c-0.59,0.64-2.22,0.32-3.36,0.47c-0.98,0.12-2.34-0.09-2.86,0.47
		c-6.57,7.06-16.21,7.59-24.32,11.3c-3.37,1.54-7.2,2.78-10.25,4.62c-9.91,5.95-20.77,10.03-31.18,14.58
		c-8.96,3.91-17.62,9.24-27.49,11.19c-1.03,0.2-1.89,1.24-2.85,1.85c-3.35,2.12-6.61,4.08-10.92,4.1
		c-4.45,0.02-7.91,3.41-11.98,4.97c-10.12,3.86-20.55,6.95-30.45,11.24c-5.04,2.19-9.96,4.86-15.25,6.3
		c-9.05,2.47-17.03,7.64-26.31,9.67c-3.69,0.81-7.05,4.02-11.02,4.71c-7.58,1.31-14.24,5.16-21.55,7.28
		c-5.29,1.54-10.13,4.55-15.96,3.91c-1.52,4.61-5.91,3.78-9.21,4.52c-7.6,1.72-14.67,4.92-22,7.4c-5.43,1.83-10.45,4.99-16.53,4.02
		c-5.91,7.32-16.09,4.07-22.94,9.28c-2.16,1.65-5.44,1.32-8.02,1.76c-5.79,0.99-10.63,4.31-16.43,5.56
		c-5.41,1.16-11.83,2.34-16.84,5.56c-3.66,2.36-7.93,2.55-11.58,3.2c-5.12,0.91-8.9,4.05-13.61,5.32
		c-7.96,2.15-13.79,8.01-20.67,11.9c-5.49,3.1-10.82,7.02-16.94,9.03c-2.33,0.77-2.74,1.98-2.58,4.01c0.2,2.51,2.04,2.22,3.68,2.23
		c8.17,0.02,16.45,0.9,24.48-0.15c30.79-4.04,61.77,0.46,92.45-2.21c22.72-1.98,45.51,0.56,67.94-2.06
		c19.6-2.29,39.11,0.24,58.48-1.82c12.53-1.33,25.14-0.36,37.46-1.99c27.83-3.67,55.67-0.78,83.49-1.66
		c15.33-0.48,30.77-1.17,45.9-2.62c27.24-2.6,54.37-0.52,81.52-1.26c5.56-0.15,10.31,4.42,15.55,6.57c0.94,0.38,1,1.66,1,2.68
		c0,5.33,0,10.67-0.02,16c0,0.49,0.01,1.09-0.25,1.45c-5.56,7.85-6.77,17.75-11.91,25.72c-5.26,8.16-9.24,17.02-14.25,25.32
		c-1.95,3.24-5.44,5.97-5.66,10.26c-0.02,0.46-0.23,1.06-0.56,1.33c-6.63,5.5-10.14,13.57-16,19.57
		c-5.35,5.48-10.83,11.42-16.89,15.56c-7.46,5.09-13.08,12.34-21.7,16.31c-6.01,2.77-11.31,8.13-16.93,12.33
		c-5.37,4.01-11.59,6.53-17.11,10.35c-6.73,4.65-15.14,7.3-20.87,12.83c-3.98,3.85-9.01,3.55-13.01,6.97
		c-5.63,4.82-12.96,8.1-20.07,10.58c-5.72,2-10.29,5.95-15.12,8.82c-4.77,2.83-10.22,4.99-15,7.54c-5.11,2.72-10.02,6.68-16.27,8.02
		c-3,0.64-6.69,3.25-9.19,5.72c-3.24,3.2-7.34,3.94-11.04,5.76c-6.35,3.13-13.17,5.42-19.2,9.05c-3.97,2.39-7.89,4.83-12.03,6.95
		c-3.78,1.94-7.7,3.3-11.84,4.08c-0.96,0.18-2.47-0.1-2.62,0.93c-0.48,3.3-2.97,2.84-5.18,3.34c-5.83,1.32-11.64,3.72-16.6,6.36
		c-5.91,3.15-11.96,5.74-18.16,7.71c-7.46,2.36-13.63,8.45-22.13,7.72c-0.16-0.01-0.4-0.05-0.49,0.04
		c-6.35,6.5-16.01,4.26-23.08,8.75c-3.93,2.5-8.58,0.29-12.78,2.94c-7.38,4.66-16.62,3.65-24.66,6.41
		c-7.52,2.58-15.8,1.78-22.95,5.66c-0.27,0.15-0.67,0.17-0.98,0.11c-7.84-1.32-15.43,1.16-22.92,2.34
		c-23.33,3.66-46.7,0.58-70.01,1.7c-2.33,0.11-4.68-0.15-6.8,1.11c-0.26,0.04-0.5,0-0.72-0.13c-0.37-0.31-0.74-0.62-1.12-0.93
		c-5.35-5.32-10.7-10.65-16.04-15.97c3.83-0.06,7.93,0.74,11.44-0.35c10.13-3.16,20.82-2.96,30.92-5.83
		c4.16-1.18,8.73-0.87,12.46-2.31c10.06-3.91,20.53-5.63,30.99-7.59c1.05-0.2,2.07-0.38,2.23-1.57c0.37-2.64,2.35-2.7,4.13-2.35
		c6.71,1.31,12.81-2.21,17.49-5.08c6.27-3.85,13.73-1.92,19.66-6.6c2.44-1.92,7.29-2.15,10.79-3.77c6.45-2.99,13.25-5.9,19.75-7.81
		c5.78-1.7,10.52-5.06,16.12-6.76c6.02-1.82,11.81-4.39,17.89-6.14c4.03-1.16,8.64-2.55,11.54-4.79c7.6-5.88,16.05-8.9,25.02-11.25
		c0.56-0.15,1.38-0.68,1.44-1.12c0.44-3.18,2.77-2.71,4.91-2.77c1.12-0.03,2.39,0.28,3.11-1.02c2.34-4.26,6.86-5.17,10.79-6.92
		c4.12-1.84,9.04-2.87,12.48-5c4.72-2.93,9.62-5.8,14.32-8.89c8.99-5.92,20.47-7.25,28.39-15.22c0.43-0.44,1.26-0.47,1.75-0.87
		c4.5-3.67,11.15-3.82,14.73-9.03c0.32-0.47,1.08-0.89,1.66-0.91c4.68-0.17,7.86-3.85,12.09-5.08c8.21-2.39,13.65-10.42,22.67-11.24
		c0.39-0.04,0.78-0.53,1.1-0.87c4.68-4.95,10.44-8.23,16.58-10.97c3.18-1.42,6.82-3.15,8.97-5.09c3.48-3.15,7.17-5.86,11.05-8.31
		c6.47-4.09,13.1-7.99,18.98-12.89c4.34-3.61,8.17-7.62,13.42-10.27c1.99-1.01,4.47-3.33,6.27-5.48c1.75-2.11,1.3-3.38-1.68-3.97
		c-4.05-0.8-7.25,1.88-11.05,2.12c-11.82,0.72-23.58-0.67-35.54,1.56c-13.01,2.43-26.55-0.48-39.95,2.09
		c-12.05,2.31-24.54-0.64-36.98,1.94c-10.98,2.27-22.65,1.5-33.91,1.89c-60.94,2.09-121.96-1.5-182.94,2.26
		c-20.92,1.29-41.99,0.67-62.98,0.09c-24.49-0.67-48.94,1.29-73.51-1.37c-13.94-1.51-28.23-2.26-42.4-2.54
		c-2.42-0.05-4.61,0.16-6.27,2.14c-0.71-3.52-1.47-7.03-2.12-10.56c-2.79-15.07-5.13-30.2-6.64-45.46
		c-0.76-7.71-2.09-15.36-2.78-23.07c-0.75-8.39-3.12-16.55-3.25-25c7.11-4.25,12.94-10.36,20.38-14.14
		c6.36-3.23,11.03-9.68,18.95-9.98c0.44-0.02,1.19-0.33,1.25-0.63c0.99-4.54,5.47-4.86,8.41-7c3.81-2.77,8.07-5.99,11.83-7.46
		c4.73-1.85,8.51-5.63,13.65-6.43c8.61-1.34,14.15-9.5,22.96-10.5c1.23-0.14,1.5-1.14,1.7-2.15c0.24-1.18,1.1-1.45,2.15-1.69
		c10.31-2.33,19.57-7.52,29.54-10.8c3.56-1.17,6.49-4.13,9.88-4.92c5.52-1.29,10.33-4.07,15.28-6.3c8.04-3.63,16.46-6.19,24.54-9.66
		c5.27-2.26,11.3-3.44,16-6.6c5.24-3.53,10.99-6.2,16.39-9.23c5.89-3.3,12.94-4.87,18.85-8.59c2.98-1.87,5.33-4.93,9.5-4.05
		c0.85,0.18,1.6-0.58,1.69-1.5c0.25-2.33,2.11-1.86,3.59-2.48c6.87-2.85,14.5-4.36,20.37-9.04c3.81-3.04,8.43-5.33,12.4-6.25
		c7.02-1.64,12.51-6.2,19.34-7.9c2.11-0.52,4.73,0.2,6.51-1.85c3.55-4.1,9.21-4.22,13.7-6.3c6.15-2.85,13.27-4.73,19.42-7.53
		c7.49-3.4,15.41-5.72,22.71-9.39c12.9-6.5,27.11-9.51,40.11-15.67c1.17-0.56,2.24-1.47,3.46-1.78c11.3-2.83,21.76-7.93,32.4-12.41
		c5.18-2.18,12.1-1.36,15.41-7.53c0.14-0.26,0.94-0.22,1.43-0.22c6.76,0.03,11.38-5.27,17.04-7.75c4.4-1.93,9.43-4.79,13.86-7.55
		c7.61-4.75,16.43-7.96,24.6-12.14c1.54-0.79,4.34-0.27,5.05-1.35c3.47-5.23,9.84-5.45,14.48-8.75c5.71-4.07,13.74-4.52,19.06-9.98
		c0.38-0.39,1.26-0.53,1.87-0.44c3.76,0.51,6.02-2.32,8.91-3.8c5.15-2.63,10.27-5.6,16.15-6.17c2.73-0.27,4.07-1.43,4.13-3.91
		c0.07-2.74-1.27-4.3-4.3-4.19c-3.66,0.13-7.33-0.06-11,0.03c-49.48,1.21-98.99-2.18-148.47,1.8c-22.4,1.8-44.95-0.8-67.47,1.92
		c-19.82,2.39-39.95-1.44-59.97,1.99c-10.74,1.84-21.94-0.08-32.96,2.06c-9.61,1.86-19.52,0.01-29.5,1.76
		c-11.85,2.07-24.26,0.03-36.41,2.29c-9.31,1.73-18.85-0.17-28.51,1.72c-10.58,2.06-21.64,3.79-32.35,4
		c-15.54,0.3-30.92,2.54-46.45,2.55c-5.5,0-11.06,0.74-16.52,1.31c-7.77,0.81-15.49,2.58-23.4,2.73c-8.32,0.17-16.6,0.09-25.04,1.3
		c-9.93,1.42-20.09,3.97-30.38,2.59c-0.88-16.24,1.26-32.61-1.83-50.18C360.46,772.25,356.65,788.67,352.48,804.97z"/>
	<path class="st4" d="M322.85,74.33c14.65-1.46,29.31-2.82,43.95-4.42c13.31-1.45,26.58-3.25,39.88-4.75
		c13.15-1.49,26.31-2.83,39.47-4.19c13-1.35,25.99-2.77,39-3.91c10.23-0.89,20.49-1.58,30.75-2.04c12.11-0.54,24.26-0.52,36.37-1.13
		c20.08-1.01,40.18-1.27,60.24-2.24c13.14-0.63,26.26-0.69,39.38-0.7c9.99,0,19.89-1.88,29.89-0.97c4.03,2.11,8.4,1.07,12.56,1.01
		c7.04-0.11,14.17,1.05,21.13-1c30.99-0.01,62-0.52,92.97,0.23c11.96,0.29,23.94,0.18,35.89,0.74c19.59,0.92,39.19,1.4,58.78,2.16
		c12.25,0.47,24.54,0.96,36.77,1.94c17.82,1.43,35.66,2.59,53.45,4.58c15.95,1.78,31.89,3.65,47.85,5.36
		c18.1,1.94,35.96,5.42,53.89,8.5c14.01,2.41,27.62,5.97,40.11,12.79c12.13,6.62,21.89,15.71,25.46,29.72
		c3.89,15.29,0.23,29.41-8.71,41.86c-12.16,16.92-28.92,26.07-49.9,28.23c-23.57,2.43-47.17,2.3-70.72,1.56
		c-12.97-0.41-25.94,0.01-38.88-0.77c-16.4-0.99-32.82-1.38-49.21-2.2c-6.63-0.33-13.28-0.89-19.89-0.64
		c-9.34,0.35-18.55-1.5-27.87-1.11c-15.29,0.64-30.59,0.73-45.88,1.19c-16.74,0.5-33.49,1.32-50.23,1.97
		c-16.24,0.63-32.48,1.37-48.73,2c-13.24,0.51-26.49,1.27-39.73,1.96c-19.37,1.01-38.73,2.11-58.11,3.03
		c-16.08,0.76-32.16,1.25-48.24,2.01c-38.63,1.82-77.26,0.73-115.87,0.58c-13.26-0.05-26.63,0.19-39.86-0.86
		c-26.57-2.11-53.17-2.32-79.74-1.66c-12.96,0.32-25.91,0.7-38.87,0.79c-13.99,0.1-27.68-2.15-41.3-5.1
		c-10.24-2.22-16.73-8.91-21.61-17.67c-8.66-15.51-10.86-31.66-5.93-48.93c4.38-15.37,8.93-30.6,17.29-44.4
		c1.71-2.82,3.66-4.15,7.18-3.99c7.32,0.33,14.66,0.11,21.99,0.12c0.45,2.97,2.79,1.81,4.29,1.71
		C315.69,75.43,319.26,74.8,322.85,74.33z"/>
	<path class="st3" d="M426.86,456.89c-1.87-3.77-2.47-7.84-2.87-11.95c11.21-2.94,22.35-6.17,33.64-8.77
		c27.73-6.37,55.27-13.52,83.31-18.63c21.78-3.97,43.6-7.64,65.54-10.54c13.27-1.76,26.6-2.97,39.93-4.25
		c24.78-2.39,49.59-3.47,74.45-3.73c8.95-0.09,17.9,0.25,26.87,0.67c16.06,0.74,32.01,2.17,47.95,4.17
		c22.05,2.77,43.73,7.18,65.01,13.59c7.61,2.29,15.24,5.96,22.95,6.21c26.63,0.88,53.31-0.32,79.91,2.28
		c6.89,0.67,14.36-1.96,20.31,3.8c0.28,0.27,0.97,0.22,1.46,0.18c9.61-0.74,18.42,3.99,27.91,4.1c0.75,0.01,1.72,0.33,2.22,0.86
		c4.47,4.77,10.69,3.78,15.92,3.72c7.06-0.08,12.83,0.22,15.62,7.79c0.14,0.37,0.68,0.82,1.05,0.83c6.64,0.24,9.72,8.74,17.11,7.39
		c0.58-0.11,1.37,1.35,2.17,1.94c3.97,2.93,8.45,5.04,12.56,7.68c3.94,2.53,7.73,5.33,11.8,7.71c-1.46,1.4-2.95,2.75-5.07,3.06
		c-0.44-0.82-0.67-0.62-0.8,0.16c-0.72,0.62-1.44,1.25-2.16,1.87c-0.31,0.29-0.62,0.57-0.93,0.86
		c-13.1,10.17-28.87,12.03-44.5,14.04c-22.83,2.93-45.56,6.48-68.32,9.87c-6.05,0.9-12.25,0.99-18.38,1.14
		c-86.41,2.12-172.85,0.15-259.26,1.36c-25.96,0.36-51.94-0.13-77.87,0.96c-24.31,1.02-48.59,0.43-72.88,0.61
		c-11.32,0.08-22.58,1.36-33.89,1.1c-0.32-0.61-0.62-0.57-0.89,0.03c-2.35,0.24-4.69,0.49-7.04,0.73c-0.77-4.53,0.98-6.56,5.66-5.77
		c3.81,0.65,6.49-1.78,9.48-3.45c1.57-0.88,2.83-2.26,4.79-2.54c7.3-1.04,14.21-4.12,20.66-7.01c6.34-2.84,13.54-2.7,19.36-6.93
		c4.39-3.18,10.52-2.73,15.09-4.63c9.1-3.78,18.38-5.81,27.86-7.63c0.45-0.09,1.18-0.44,1.22-0.74c0.57-4.42,4.44-3.36,7.07-4.3
		c5.46-1.95,11.63,0.64,16.97-2.72c1.41-0.89,2.81-2.01,4.87-2.15c5.46-0.38,10.69-2.12,16-3.42c4.22-1.03,8.28-3.49,12.96-2.54
		c1.24,0.25,2.51-0.24,3.81-0.69c7.01-2.4,13.84-5.26,21.54-5.41c4.8-0.09,9.66-1.41,14.39-2.33c6.48-1.26,12.73-3.68,19.49-3.54
		c0.98,0.02,2.04-0.04,2.92-0.4c5.8-2.35,11.71-3.99,18.07-3.6c3.46,0.21,6.91,0.22,9.96-1.98c1.75-1.26,3.73-1.21,5.94-1.17
		c4.44,0.07,8.89-0.75,13.45-1.21c-0.48-1.52-1.17-1.5-1.8-1.6c-16.22-2.65-32.66-3.33-48.98-3.74
		c-21.75-0.54-43.55-0.75-65.36,0.47c-18.36,1.03-36.76,1.53-55.09,3.24c-11.69,1.09-23.46,1.65-35.08,3.25
		c-16.2,2.23-32.43,4.17-48.62,6.53c-19.64,2.86-39.12,6.52-58.69,9.73C447.33,453.12,437.25,455.9,426.86,456.89z"/>
	<path class="st2" d="M1091.65,471.92c-4.06-2.38-7.86-5.18-11.8-7.71c-4.11-2.64-8.59-4.76-12.56-7.68
		c-0.8-0.59-1.59-2.04-2.17-1.94c-7.39,1.35-10.47-7.15-17.11-7.39c-0.37-0.01-0.91-0.46-1.05-0.83c-2.79-7.57-8.56-7.87-15.62-7.79
		c-5.23,0.06-11.45,1.05-15.92-3.72c-0.49-0.53-1.46-0.85-2.22-0.86c-9.49-0.11-18.3-4.84-27.91-4.1c-0.49,0.04-1.17,0.09-1.46-0.18
		c-5.95-5.77-13.42-3.13-20.31-3.8c-26.59-2.6-53.28-1.4-79.91-2.28c-7.71-0.26-15.34-3.92-22.95-6.21
		c-21.28-6.41-42.95-10.82-65.01-13.59c-15.94-2-31.88-3.42-47.95-4.17c-8.96-0.42-17.92-0.76-26.87-0.67
		c-24.86,0.26-49.67,1.35-74.45,3.73c-13.33,1.28-26.66,2.5-39.93,4.25c-21.94,2.9-43.76,6.57-65.54,10.54
		c-28.03,5.11-55.58,12.26-83.31,18.63c-11.29,2.6-22.43,5.83-33.64,8.77c-2.11-11.27-1.57-22.72-2.27-34.09
		c10.43-2.82,20.65-6.39,30.4-10.91c13.32-6.18,27.11-10.85,41.14-14.92c20.69-6,41.58-11.21,62.86-14.64
		c11.59-1.87,23.29-3.14,34.97-4.42c32.13-3.52,64.4-3.18,96.65-2.94c14.6,0.1,29.07,2.3,43.48,4.39
		c25.08,3.64,49.89,8.83,74.57,14.57c22.45,5.22,45.31,8.12,67.9,12.54c16.37,3.2,33.17,4.14,49.71,6.52
		c8.6,1.24,17.31,1.52,25.68,4.94c9.19,3.76,19.26,3.18,29.06,2.84c5.95-0.2,11.52,0.6,16.91,3.23c6.18,3.02,13.14,2.54,19.59,2.58
		c20.13,0.14,40.14,3.71,60.26,2.14c11.39-0.88,22.94,0.1,34.16-2.77c1.28-0.33,2.62-0.6,3.77-1.21c3.35-1.78,5.22-0.53,6.63,2.66
		c1.97,4.46,3.3,8.56,1.17,13.68c-3.7,8.89-6.87,18.01-10.99,26.73C1105.94,463.67,1100.12,469.33,1091.65,471.92z"/>
	<path class="st2" d="M426.86,456.89c10.39-0.99,20.47-3.77,30.74-5.45c19.57-3.21,39.05-6.87,58.69-9.73
		c16.19-2.36,32.42-4.3,48.62-6.53c11.62-1.6,23.39-2.16,35.08-3.25c18.33-1.71,36.72-2.21,55.09-3.24
		c21.81-1.22,43.61-1.01,65.36-0.47c16.32,0.41,32.76,1.09,48.98,3.74c0.63,0.1,1.33,0.08,1.8,1.6c-4.56,0.46-9.01,1.28-13.45,1.21
		c-2.21-0.03-4.18-0.09-5.94,1.17c-3.05,2.2-6.5,2.19-9.96,1.98c-6.36-0.39-12.27,1.25-18.07,3.6c-0.89,0.36-1.95,0.42-2.92,0.4
		c-6.76-0.14-13.01,2.28-19.49,3.54c-4.73,0.92-9.59,2.24-14.39,2.33c-7.69,0.15-14.53,3.01-21.54,5.41
		c-1.3,0.45-2.57,0.94-3.81,0.69c-4.68-0.95-8.75,1.51-12.96,2.54c-5.31,1.3-10.53,3.04-16,3.42c-2.06,0.14-3.46,1.27-4.87,2.15
		c-5.34,3.36-11.5,0.77-16.97,2.72c-2.64,0.94-6.5-0.13-7.07,4.3c-0.04,0.3-0.77,0.65-1.22,0.74c-9.48,1.82-18.76,3.85-27.86,7.63
		c-4.57,1.9-10.71,1.45-15.09,4.63c-5.82,4.23-13.02,4.09-19.36,6.93c-6.45,2.89-13.36,5.96-20.66,7.01
		c-1.96,0.28-3.22,1.66-4.79,2.54c-2.99,1.67-5.67,4.1-9.48,3.45c-4.68-0.8-6.43,1.24-5.66,5.77c-20.3,0.68-40.47,3.91-60.84,3.38
		c-1.74-16.93-6.73-33.12-11.35-49.39C427.01,460.07,426.39,458.58,426.86,456.89z"/>
	<path class="st2" d="M389.7,420.93c-2.03,5.81-5.94,10.6-8.71,16.02c-4.36,8.53-8.91,16.95-13.45,25.38
		c-0.52,0.97-1.5,1.69-2.27,2.52c-0.83,0.07-1.74-0.07-2.47,0.24c-13.75,5.77-27.49,11.59-41.21,17.42c-0.71,0.3-1.6,0.63-1.31,2.4
		c13.78-4,27.48-7.98,41.19-11.97c-3.91,9.2-7.84,18.4-11.72,27.61c-1.47,3.48-2.85,7-4.27,10.51c-16.81-0.03-33.62-0.07-50.42-0.09
		c-14.61-0.02-29.13-1.12-43.46-4.08c-3.35-0.69-6.86-1.36-9.52-3.94c-1.83-1.78-1.9-3.27,0.24-4.9
		c14.26-10.83,27.05-23.38,40.73-34.89c5.23-4.39,11.67-6.99,17.84-9.77c20.73-9.32,41.02-19.78,62.73-26.7
		C372.05,424.02,380.66,421.28,389.7,420.93z"/>
	<path class="st3" d="M582.73,525.86c-0.55,2.5-3.25,3.87-4.64,3.75c-5.58-0.46-10.51,2.21-15.93,2.63
		c-4.97,0.38-10.17,1.25-15.06,3.05c-3.33,1.23-7.22,2.23-10.38,2.24c-6.2,0.02-11.96,1.83-17.91,2.62
		c-6.61,0.88-13.05,3.24-19.5,5.16c-3.89,1.15-8.07,0.21-11.87,2.49c-5.83,3.49-13.59,0.59-19.32,5.8c-2.07,1.88-6.2,0.95-9.39,1.63
		c-7.59,1.6-14.9,4.82-22.82,4.76c2.67-9.55,3.82-19.3,3.83-29.2c15.07-0.35,30.11-1.08,45.11-2.64c6.09-0.63,12.23-0.6,18.35-1.09
		c14.39-1.17,28.86-0.98,43.3-1.33C558.58,525.41,570.65,525.66,582.73,525.86z"/>
	<path class="st1" d="M1166.16,1250.6c-2.62-10.7-3.68-21.57-3.51-32.58c1.03,6.98,2.3,13.94,3.01,20.95
		C1166.05,1242.81,1167.61,1246.67,1166.16,1250.6z"/>
	<path class="st1" d="M715.46,49.99c-6.95,2.05-14.09,0.89-21.13,1c-4.16,0.06-8.53,1.11-12.56-1.01
		C693,49.98,704.23,49.99,715.46,49.99z"/>
	<path class="st1" d="M322.85,74.33c-3.58,0.47-7.16,1.11-10.76,1.35c-1.5,0.1-3.85,1.26-4.29-1.71
		C312.81,74.08,317.83,74.2,322.85,74.33z"/>
	<path class="st2" d="M961.62,524.15c-2.7,3.23-5.82,1.87-8.92,0.84C955.68,524.71,958.65,524.43,961.62,524.15z"/>
	<path class="st2" d="M1085.79,475.13c0.12-0.78,0.36-0.97,0.8-0.16C1086.32,475.03,1086.05,475.09,1085.79,475.13z"/>
	<path class="st2" d="M1082.7,477.86c0.31-0.29,0.62-0.57,0.93-0.86C1083.32,477.29,1083.01,477.57,1082.7,477.86z"/>
	<path class="st2" d="M506.69,506.97c0.28-0.6,0.57-0.64,0.89-0.03c0,0-0.45,0.06-0.45,0.06L506.69,506.97z"/>
	<path class="st2" d="M947.58,525.09c-0.29,0.49-0.58,0.5-0.89,0.02C946.99,525,947.28,525,947.58,525.09z"/>
	<path class="st3" d="M341.77,590.88c-5.99,3.36-11.88,7.02-19.08,7.05c-2.35,0.01-4.07,0.63-6.14,2.22
		c-4.36,3.33-9.3,6.21-15.26,5.78c-1.25-0.09-2.96,0.48-3.37-1.28c-0.37-1.6,1.01-2.1,2.26-2.77c2.21-1.18,4.7-1.54,6.88-2.54
		c6.33-2.92,11.01-8.57,17.49-11.23c4.7-1.93,8.42-6.03,13.88-6.19C339.54,584.9,340.66,587.89,341.77,590.88z"/>
	<path class="st3" d="M361.47,472.94c-13.7,3.98-27.41,7.96-41.19,11.97c-0.29-1.76,0.6-2.09,1.31-2.4
		c13.73-5.84,27.46-11.65,41.21-17.42c0.73-0.31,1.64-0.17,2.47-0.24C364.78,467.91,363.3,470.51,361.47,472.94z"/>
	<path class="st1" d="M352.48,804.97c4.17-16.3,7.97-32.72,16.47-49.18c3.09,17.57,0.96,33.94,1.83,50.18
		c-0.28,28.74-0.5,57.49,0.85,86.22c0.36,7.78,0.61,15.61,0.72,23.35c0.31,20.89,2.01,41.68,3.32,62.49
		c0.52,8.23,1.27,16.45,2.14,24.65c1.16,10.98,2.41,21.95,3.88,32.89c0.83,6.14,1.09,12.38,2.89,18.38c0.14,8.46,2.51,16.62,3.25,25
		c0.69,7.71,2.02,15.37,2.78,23.07c1.51,15.26,3.85,30.4,6.64,45.46c0.65,3.53,1.41,7.04,2.13,10.56c0.75,4.05,1.4,8.12,2.27,12.14
		c10.1,46.68,27.19,90.47,53.92,130.26c10.81,16.09,21.87,31.99,35.9,45.56c5.35,5.32,10.7,10.65,16.04,15.97
		c0.37,0.31,0.74,0.62,1.12,0.93c0.23,0.13,0.47,0.18,0.72,0.13c5.16,5.68,11.3,9.68,18.98,11.06c1.62,0.29,3.57,0.33,4.75,1.26
		c5.39,4.23,11.5,6.63,17.85,9.08c5.37,2.07,4.35,8.55,4.24,13.25c-0.13,5.7-1.03,11.47-2.55,17.06c-0.94,3.45-0.95,7.28-4.68,9.41
		c-1.45,0.82-1.31,2.55-1.54,4.04c-1.74,11.51-6.86,21.52-14.7,29.91c-2.81,3.01-6.99,4.15-11.82,3.11
		c-17.41-3.71-31.64-13.02-45.4-23.76c-29.29-22.87-53.08-50.53-72.89-81.78c-14.68-23.15-27.86-47.16-39.86-71.78
		c-14.72-30.2-24.76-62.06-32.09-94.8c-5.05-22.56-8.52-45.39-11.96-68.22c-3.57-23.75-3.71-47.69-2.91-71.58
		c0.62-18.5,2.13-36.99,3.95-55.42c2.27-22.97,5.01-45.92,8.97-68.68c4.32-24.87,8.93-49.69,14.48-74.32
		C345.64,835.59,349.05,820.28,352.48,804.97z"/>
	<path class="st0" d="M712.62,1493.96c-24.47,0-43.82-0.5-63.12,0.14c-18.52,0.62-36.99,2.86-55.52,3.55
		c-9.81,0.36-19.49,1.61-29.23,2.35c-11.21,0.86-22.38,2.29-33.55,3.59c-11.66,1.36-23.33,2.72-34.95,4.38
		c-8.97,1.28-17.91,2.87-26.81,4.58c-8.28,1.59-16.62,3.12-24.72,5.42c-8.85,2.51-17.88,4.21-26.76,6.57
		c-12.2,3.24-23.81,7.79-35.59,12.08c-3.88,1.42-7.11,3.92-9.87,6.17c-3.53,2.88-5.86,2.53-8.56,0.37c-3.16-2.52-3.08-5.86-1.15-9.3
		c2.8-5.01,7.19-8.52,11.71-11.64c23.63-16.32,51.35-21.58,78.51-27.92c9.21-2.15,18.92-3.1,28.25-4.81
		c16.38-3,32.84-5.33,49.32-7.24c15.26-1.77,30.55-3.58,45.94-4.65c21.5-1.5,42.98-2.93,64.52-3.96
		c17.26-0.83,34.51-1.26,51.76-1.86c17.96-0.62,35.94-1.28,53.88-0.67c17.46,0.59,34.95,0.19,52.37,1.05
		c15.59,0.77,31.22,0.97,46.75,2.08c19.77,1.41,39.47,4.02,59.18,6.37c18.88,2.25,37.64,5.11,56.32,8.49
		c8.74,1.58,17.37,3.9,25.89,6.63c9.65,3.09,19.5,5.65,28.59,10.2c8.62,4.31,17.49,8.35,22.78,17.3c5.51,9.33,7.21,18.25,1.26,28.34
		c-4.71,7.97-11.56,12.86-19.14,17.37c-6.13,3.65-12.43,5.94-19.78,5.06c-5.58-0.67-10.14-7.2-8.23-12.56
		c1.89-5.32,5.49-8.97,10.56-11.57c4.53-2.32,8.7-5.35,13.07-7.98c2.05-1.24,1.68-2.86,0.49-4.14c-1.9-2.04-3.84-4.43-6.27-5.5
		c-9.18-4.02-18.27-8.1-28.11-10.73c-8.55-2.29-17.06-4.93-25.73-6.62c-16.85-3.28-33.41-7.99-50.69-9.24
		c-7.17-0.52-14.37-2.1-21.59-2.94c-9.2-1.06-18.42-1.96-27.65-2.77c-15.5-1.37-31.01-2.63-46.52-3.89
		c-2.32-0.19-4.66-0.05-6.99-0.17C771.33,1494.27,739.42,1493.19,712.62,1493.96z"/>
	<path class="st2" d="M384.59,1053.95c-1.79-5.99-2.06-12.24-2.89-18.38c-1.48-10.94-2.72-21.91-3.88-32.89
		c-0.87-8.2-1.62-16.42-2.14-24.65c-1.31-20.82-3.02-41.6-3.32-62.49c-0.11-7.74-0.36-15.57-0.72-23.35
		c-1.34-28.73-1.13-57.47-0.85-86.22c10.29,1.38,20.45-1.18,30.38-2.59c8.44-1.2,16.72-1.13,25.04-1.3
		c7.91-0.16,15.63-1.92,23.4-2.73c5.46-0.57,11.01-1.31,16.52-1.31c15.53,0,30.9-2.25,46.45-2.55c10.71-0.21,21.77-1.94,32.35-4
		c9.66-1.88,19.2,0.01,28.51-1.72c12.16-2.26,24.56-0.22,36.41-2.29c9.98-1.75,19.89,0.1,29.5-1.76
		c11.03-2.13,22.22-0.22,32.96-2.06c20.03-3.43,40.15,0.4,59.97-1.99c22.53-2.72,45.07-0.12,67.47-1.92
		c49.48-3.98,98.99-0.58,148.47-1.8c3.66-0.09,7.34,0.1,11-0.03c3.03-0.11,4.37,1.45,4.3,4.19c-0.06,2.48-1.4,3.64-4.13,3.91
		c-5.88,0.57-11,3.54-16.15,6.17c-2.9,1.48-5.15,4.3-8.91,3.8c-0.6-0.08-1.49,0.05-1.87,0.44c-5.32,5.46-13.35,5.91-19.06,9.98
		c-4.64,3.31-11.01,3.52-14.48,8.75c-0.72,1.08-3.51,0.56-5.05,1.35c-8.16,4.19-16.99,7.39-24.6,12.14
		c-4.43,2.76-9.46,5.63-13.86,7.55c-5.66,2.48-10.27,7.78-17.04,7.75c-0.49,0-1.29-0.04-1.43,0.22c-3.31,6.17-10.22,5.34-15.41,7.53
		c-10.64,4.48-21.1,9.58-32.4,12.41c-1.22,0.31-2.29,1.22-3.46,1.78c-12.99,6.16-27.2,9.18-40.11,15.67
		c-7.29,3.67-15.22,5.99-22.71,9.39c-6.15,2.79-13.28,4.68-19.42,7.53c-4.49,2.08-10.16,2.2-13.7,6.3
		c-1.77,2.05-4.39,1.33-6.51,1.85c-6.83,1.7-12.32,6.26-19.34,7.9c-3.96,0.92-8.58,3.21-12.4,6.25c-5.88,4.68-13.5,6.19-20.37,9.04
		c-1.48,0.61-3.35,0.14-3.59,2.48c-0.1,0.92-0.85,1.68-1.69,1.5c-4.17-0.88-6.53,2.18-9.5,4.05c-5.91,3.72-12.97,5.29-18.85,8.59
		c-5.4,3.03-11.15,5.7-16.39,9.23c-4.7,3.16-10.73,4.34-16,6.6c-8.09,3.47-16.51,6.03-24.54,9.66c-4.95,2.24-9.76,5.01-15.28,6.3
		c-3.39,0.79-6.31,3.75-9.88,4.92c-9.96,3.28-19.23,8.48-29.54,10.8c-1.06,0.24-1.92,0.51-2.15,1.69c-0.2,1.01-0.47,2.01-1.7,2.15
		c-8.81,1-14.35,9.16-22.96,10.5c-5.14,0.8-8.92,4.59-13.65,6.43c-3.76,1.47-8.02,4.69-11.83,7.46c-2.94,2.14-7.43,2.46-8.41,7
		c-0.06,0.3-0.81,0.61-1.25,0.63c-7.92,0.3-12.58,6.76-18.95,9.98C397.52,1043.59,391.7,1049.7,384.59,1053.95z"/>
	<path class="st2" d="M491.47,1346.01c-14.02-13.56-25.08-29.47-35.9-45.56c-26.73-39.79-43.83-83.58-53.92-130.26
		c-0.87-4.02-1.52-8.09-2.27-12.14c1.66-1.97,3.85-2.18,6.27-2.14c14.17,0.28,28.46,1.04,42.4,2.54
		c24.58,2.66,49.03,0.69,73.51,1.37c20.98,0.58,42.06,1.2,62.98-0.09c60.98-3.76,122-0.17,182.94-2.26
		c11.26-0.39,22.92,0.38,33.91-1.89c12.45-2.58,24.94,0.38,36.98-1.94c13.4-2.58,26.94,0.33,39.95-2.09
		c11.96-2.23,23.72-0.83,35.54-1.56c3.8-0.23,7-2.92,11.05-2.12c2.97,0.59,3.43,1.87,1.68,3.97c-1.79,2.15-4.27,4.47-6.27,5.48
		c-5.25,2.65-9.08,6.66-13.42,10.27c-5.89,4.9-12.51,8.79-18.98,12.89c-3.88,2.45-7.57,5.16-11.05,8.31
		c-2.15,1.94-5.79,3.68-8.97,5.09c-6.14,2.74-11.9,6.03-16.58,10.97c-0.32,0.34-0.71,0.83-1.1,0.87
		c-9.02,0.83-14.46,8.86-22.67,11.24c-4.23,1.23-7.41,4.91-12.09,5.08c-0.57,0.02-1.33,0.44-1.66,0.91
		c-3.57,5.21-10.23,5.35-14.73,9.03c-0.49,0.4-1.31,0.44-1.75,0.87c-7.92,7.97-19.4,9.3-28.39,15.22c-4.69,3.09-9.6,5.97-14.32,8.89
		c-3.43,2.13-8.35,3.15-12.48,5c-3.92,1.75-8.45,2.66-10.79,6.92c-0.72,1.31-1.99,1-3.11,1.02c-2.14,0.06-4.48-0.41-4.91,2.77
		c-0.06,0.44-0.88,0.98-1.44,1.12c-8.96,2.35-17.42,5.37-25.02,11.25c-2.9,2.24-7.51,3.63-11.54,4.79
		c-6.08,1.75-11.88,4.32-17.89,6.14c-5.6,1.69-10.34,5.06-16.12,6.76c-6.5,1.91-13.3,4.82-19.75,7.81
		c-3.5,1.62-8.36,1.85-10.79,3.77c-5.93,4.67-13.39,2.74-19.66,6.6c-4.68,2.88-10.79,6.4-17.49,5.08c-1.77-0.35-3.76-0.29-4.13,2.35
		c-0.16,1.19-1.19,1.37-2.23,1.57c-10.46,1.96-20.92,3.68-30.99,7.59c-3.73,1.45-8.3,1.14-12.46,2.31
		c-10.1,2.86-20.79,2.67-30.92,5.83C499.4,1346.75,495.3,1345.94,491.47,1346.01z"/>
	<path class="st2" d="M508.63,1362.91c-0.37-0.31-0.74-0.62-1.12-0.93C507.89,1362.29,508.26,1362.6,508.63,1362.91z"/>
</g>
</svg>
