<?xml version="1.0" encoding="utf-8"?>
<!-- Generator: Adobe Illustrator 26.0.3, SVG Export Plug-In . SVG Version: 6.00 Build 0)  -->
<svg version="1.1" id="Layer_1" xmlns="http://www.w3.org/2000/svg" xmlns:xlink="http://www.w3.org/1999/xlink" x="0px" y="0px"
	 viewBox="0 0 792 612" style="enable-background:new 0 0 792 612;" xml:space="preserve">
<style type="text/css">
	.st0{fill:#255B7C;}
	.st1{fill:#4744AD;}
	.st2{fill:#A9CFF0;}
	.st3{fill:#ED131A;}
	.st4{fill:#BB2147;}
	.st5{fill:#B2B9E1;}
	.st6{fill:#D2E8F7;}
</style>
<g>
	<path class="st0" d="M509.68,207.67c12.03,0.86,23.44,2.39,34.26,6.72c5.77,2.31,8.8,6.67,8.48,13.13c-0.6,12-3.3,23.69-5.28,35.47
		c-2.36,14.09-5.07,28.12-7.68,42.17c-4.13,22.21-8.31,44.42-12.47,66.63c-4.47,23.84-8.92,47.69-13.44,71.52
		c-2.63,13.87-5.39,27.72-8.12,41.57c-0.4,2.04-1.34,3.78-3.43,4.56c-15.98,5.89-32.41,9.1-49.49,10.23
		c-14.66,0.97-29.3,1.26-43.91,0.8c-29.77-0.94-59.39-3.69-88.34-11.26c-7.21-1.89-14.16-4.54-20.49-8.69
		c-4.06-2.66-6.6-6.3-7.31-10.82c-1.95-12.31-3.51-24.68-5.17-37.04c-1.9-14.17-3.71-28.35-5.59-42.52
		c-1.91-14.33-3.88-28.65-5.78-42.98c-2.63-19.77-5.31-39.53-7.83-59.31c-1.85-14.5-3.45-29.04-5.24-43.55
		c-0.81-6.6-1.5-13.19-1.82-19.85c-0.2-4.28,1.13-8.1,2.06-12.06c0.61-2.59,3.07-3.49,5.27-4.09c15.87-4.37,32.06-6.63,48.52-7.23
		c27.14-0.99,54.28-0.91,81.43-1.23c12.85-0.16,25.57,1.44,38.4,1.29c4.43-0.05,6.32-1.43,7.66-5.62
		c4.61-14.39,10.12-28.46,17.14-41.88c1.31-2.5,2.6-5.03,4.14-7.38c1.54-2.35,3.16-3.89,6.56-2.02c2.09,1.15,5.13,0.7,7.75,0.76
		c14.67,0.3,29.17,2.47,43.73,3.99c3.21,0.34,4.37,1.92,4.42,5.3c0.13,9.51-4.59,17.54-7.56,26.07
		C517.33,189.51,513.37,198.46,509.68,207.67z M483.2,265.88c1.09-0.62,0.92-1.67,0.89-2.66c1.02-0.9,1.06-2.06,0.85-3.28
		c0.11-0.35,0.23-0.69,0.34-1.04c1.56-1.57,1.93-3.54,1.87-5.65c0.06-3.82,2.08-7.06,3.14-10.59c1.66-5.57,3.34-11.14,4.93-16.73
		c0.42-1.48,0.61-3.21-1.73-3.17c-7.47,0.14-14.88-1.79-22.22-1.43c-6.76,0.33-13.33,0.79-20.12-0.17
		c-9.14-1.29-9.44-0.99-12.9,7.61c-3.21,7.95-5.29,16.28-7.19,24.64c-1.4,6.15-2.85,12.41-4.7,18.31
		c-3.63,11.56-6.51,23.1-7.32,35.16c-1.36,1.86-2.56,11.72-1.6,13.12c0.91,1.32,1.97,0.59,3.05,0.26c9.02-2.78,18.5-2.18,27.67-2.6
		c5.25-0.24,11.06,0.96,16.64,1.33c4.48,0.3,6.45-1.62,6.11-6.03c0.09-1.31,0.18-2.62,0.27-3.92c2.24-0.69,1.77-2.47,1.65-4.11
		c0.68-2.15,0.9-4.47,1.33-6.61c1.29-6.56,4.65-12.55,5.02-19.3c2.85-1.3,1.43-4.07,2.1-6.12c0.48-1.21,0.95-2.42,1.43-3.62
		c0.08-1.06,0.17-2.12,0.25-3.17C482.96,266.09,483.2,265.88,483.2,265.88z M306.95,312.87c-7.6-0.26-14.23,2.12-20.02,7.1
		c-1.56,1.34-4.23,1.67-3.72,4.56c0.43,2.46,2.51,3.43,4.54,4.14c7.8,2.76,15.8,4.69,24.07,5.33c0.2,0.91,0.4,1.81,0.6,2.72
		c-0.92,1.26-2.26,1.42-3.59,1.13c-5.82-1.27-11.63-2.55-17.42-3.96c-2.54-0.62-5.4-3.52-7.33-2.14c-2.89,2.07,0.4,4.93,0.98,7.46
		c0.04,0.16,0.02,0.33,0.02,0.5c0.1,10.33,1.45,20.52,4.04,30.5c2.13,8.21,2.23,16.7,3.56,25.02c1.73,10.89,2.4,21.98,4.25,32.93
		c1.41,8.37,4.43,11.31,12.93,13.1c4.69,0.99,9.39,1.16,14,2.06c8.44,1.64,16.71,4.27,25.47,3.52c9.81,2.06,19.76,2.09,29.71,2.11
		c11.75,0.57,23.62-1.18,35.24,1.9c1.24,0.33,2.96,0.52,3.93-0.07c4.64-2.83,9.73-1.99,14.54-1.64c13.29,0.97,26.24-3.1,39.48-2.2
		c0.49,0.03,1.02-0.01,1.48-0.16c6.97-2.3,14.08-3.63,21.46-3.92c3.94-0.15,8.78-1.27,9.51-5.5c0.75-4.33,2.16-8.66,2.27-13
		c0.15-5.95,2.15-11.53,2.72-17.41c0.33-3.47,0.44-7.59,1.88-10.95c3.51-8.2,3.85-17.04,5.25-25.57c0.86-5.26,1.68-10.82,3-15.78
		c1.15-4.31,1.62-8.96,2.62-13.23c1.22-5.2,4.06-10.76,2.29-16.92c-5.98,3.02-10.67,7.66-16.75,9.97
		c-6.24,2.37-12.84,3.21-19.24,4.88c-6.39,1.67-12.81,1.67-19.28,1.67c0.26-2.03-1.35-4.58,1.6-5.87
		c2.34,2.14,11.26,2.22,13.04,0.07c0.05-0.06-0.59-0.71-0.91-1.08c4.71-0.12,9.36-0.62,13.87-2.08c0.71,0.89,1.76,1.14,2.7,0.8
		c8.12-2.94,15.54-7.24,22.25-12.58c1.91-1.52,3.47-5.83,0.28-6.6c-5.58-1.35-9.99-6.27-16.55-4.83c-3.62,0.8-7.7,0.58-11.37-0.15
		c-4.65-0.93-9.24-0.39-13.85-0.7c-2.16-0.15-3.6,0.47-3.41,2.99c-3.15,4.79-2.75,6.69,2,9.52c-2.81,1.31-4.09,5.28-8.03,4.64
		c-18.65-0.28-37.28-5.06-55.96-0.35c-0.79-3.47-4.43-0.61-5.87-2.63c4.54,0.28,3.53-3.1,3.74-5.67c0.13-0.82,0.08-1.73,0.43-2.44
		c4.01-8.32,0.82-8.67-4.99-8.89c-9.1-0.34-18.22-1.04-27.3-0.97c-13.39,0.1-26.77,1.24-40.15,1.94c-0.27-1.04-0.55-2.08-0.82-3.12
		l0.03-0.05c16.84-2.45,33.79-2.19,50.73-1.99c6.64,0.08,13.28,0.52,19.92,0.8c1.71,0.07,2.95,0.14,3.39-2.34
		c4.48-25,11.23-49.41,19.9-73.26c1.59-4.38,0.7-5.23-3.79-5.22c-26.95,0.07-53.9-0.15-80.85-0.23c-7.13-0.02-14.21-1.84-21.37-0.62
		c-0.99-0.07-1.99-0.14-2.98-0.21c-3.66-0.05-7.32-0.1-10.98-0.14c-5.35-0.4-10.69-0.23-16.02,0.2c-8.97-0.05-17.94,0.02-26.9-0.23
		c-3.08-0.09-3.81,1.05-3.32,3.77c1.08,6.02,2.26,12.02,3.12,18.08c3.02,21.32,5.91,42.65,8.86,63.98c0.6,4.36,1.24,8.72,2.04,14.38
		c7.14-7.42,15.28-10.21,24.2-11.06c0.21,0.19,0.46,0.3,0.74,0.3C306.89,310.38,306.92,311.63,306.95,312.87z M388.09,490.05
		c2.98,1.39,6.04,0.79,9.09,0.39c3.29,0.06,6.57,0.11,9.86,0.17c4.32,0.13,8.64,0.35,12.95,0.38c18.79,0.12,37.57,0.02,56.12-3.62
		c8.46-1.66,8.42-1.62,10.28-9.94c0.58-2.58,1.72-5.04,2.23-7.63c0.81-4.06,2.32-7.98,2.31-12.21c-0.01-2.68-0.65-3.84-3.85-3.27
		c-13.91,2.5-27.96,4-42.08,4.3c-19.97,0.41-39.95,0.45-59.93,0.64c-6.65-0.45-13.3-0.9-19.95-1.35c-1.92-1.28-4-0.73-6.05-0.56
		c-2.65-0.15-5.3-0.3-7.95-0.46c-2.14-1.87-4.79-0.88-7.19-1.26c-7.69-1.22-15.4-2.35-23.1-3.53c-3.04-0.46-4.97-0.02-3.94,3.86
		c0.89,3.35,1.98,6.81,1.96,10.21c-0.08,11.87,6.18,16.61,17.37,17.51c9.36,0.75,18.51,3.58,28,3.67c1.3,0.19,2.61,0.39,3.91,0.58
		c2.12,1.88,4.61,0.99,6.99,0.92C379.45,489.27,383.77,489.66,388.09,490.05z M523.77,222.74c0-0.02,0-0.03,0-0.05
		c-3.83,0-7.67,0.01-11.5,0c-11-0.04-10.86,0-13.73,10.58c-6.13,22.6-12.4,45.16-18.63,67.74c-0.5,1.81-2.1,3.84,1.74,3.93
		c6.65,0.16,13.29,0.88,19.93,0.87c7.55-0.01,15.11,0.9,21.9,3.62c5.5,2.2,5.2-0.53,5.82-3.87c1.81-9.8,3.46-19.63,5.57-29.37
		c3.61-16.7,5.85-33.69,10.77-50.1c0.85-2.84-0.29-3.43-2.88-3.38C536.43,222.82,530.1,222.74,523.77,222.74z M470.98,217.21
		c0,0.15,0,0.31,0,0.46c7.81,0,15.62,0.04,23.42-0.03c1.68-0.01,4.11,0.95,4.64-1.56c0.66-3.12,2.42-5.63,3.64-8.44
		c6.85-15.71,11.58-32.29,19.82-47.43c0.85-1.57,1.05-2.81-1.51-3.57c-8.92-2.64-18.21-2.05-27.28-3.29
		c-6.48-0.88-12.91-2.3-19.45-2.99c-2.95-0.31-3.9,0.36-5.13,2.52c-10.77,18.96-16.45,40.11-25.68,59.74
		c-1.44,3.06-0.38,4.8,3.57,4.67C455.01,217.01,463,217.21,470.98,217.21z M267.02,213.46c3.13,2.14,5.68,2.48,8.36,2.49
		c51.6,0.2,103.21-0.58,154.81,1.01c7.47,0.23,7.25-0.02,9.05-7.33c0.92-3.76-0.16-4.67-3.73-4.72
		c-17.29-0.26-34.57,0.59-51.87-0.82c-7.72-0.63-15.63,0.54-23.36,0.55c-23.76,0.03-47.44,0.96-71.05,3.4
		C281.91,208.81,274.62,210.23,267.02,213.46z M538.69,217.33c-0.5-1.31-1.38-1.25-2.14-1.4c-8.68-1.67-17.52-2.78-25.99-5.2
		c-5.42-1.55-3.3,2.84-4.08,4.28c-1.25,2.3,0.91,2.94,3.01,2.93c7.65-0.03,15.29,0.03,22.94-0.03
		C534.45,217.9,536.61,218.43,538.69,217.33z"/>
	<path class="st1" d="M469.44,340.99c6.47,0,12.9,0,19.28-1.67c6.4-1.67,12.99-2.51,19.24-4.88c6.08-2.3,10.77-6.95,16.75-9.97
		c1.76,6.16-1.07,11.72-2.29,16.92c-1,4.27-1.47,8.92-2.62,13.23c-1.32,4.96-2.14,10.52-3,15.78c-1.4,8.54-1.74,17.37-5.25,25.57
		c-1.44,3.36-1.55,7.48-1.88,10.95c-0.57,5.88-2.57,11.46-2.72,17.41c-0.11,4.34-1.52,8.67-2.27,13c-0.73,4.23-5.57,5.35-9.51,5.5
		c-7.38,0.29-14.48,1.62-21.46,3.92c-0.46,0.15-0.99,0.19-1.48,0.16c-13.24-0.9-26.19,3.18-39.48,2.2c-4.8-0.35-9.9-1.19-14.54,1.64
		c-0.98,0.6-2.69,0.4-3.93,0.07c-11.63-3.09-23.5-1.33-35.24-1.9c-4.89-9.29-8.2-19.27-12.45-28.82
		c-11.1-24.91-16.6-51.1-19.77-77.95c7.88,0.59,15.75,1.51,23.64,1.7c12.25,0.29,24.52,0.1,36.78,0.09c1.81,0,3.67,0.25,5.32-0.79
		c0.63,1.67-1.23,2.51-1.28,4.1c-0.31,9.2-0.27,18.38-1.76,27.57c-1.85,11.34,2.24,22.62,1.61,34.04c-0.14,2.65,0.2,5.33,0.07,7.98
		c-0.23,4.33,2.2,5.07,5.29,3.5c3.72-1.88,7.81-2.2,11.67-3.19c7.54-1.93,15.14-3.76,22.95-4.68c2.56-0.3,5.26-1.37,8.01-1.76
		c2.51-0.35,4.04-1.94,3.98-4.78c-0.1-4.32-0.09-8.65-0.04-12.98c0.08-7.48-0.94-15.22,0.62-22.39
		C465.83,360.76,466.68,350.69,469.44,340.99z"/>
	<path class="st2" d="M328.09,220.07c7.16-1.22,14.24,0.6,21.37,0.62c26.95,0.08,53.9,0.3,80.85,0.23c4.48-0.01,5.38,0.84,3.79,5.22
		c-8.67,23.86-15.42,48.26-19.9,73.26c-0.44,2.48-1.68,2.41-3.39,2.34c-6.64-0.28-13.27-0.72-19.92-0.8
		c-16.94-0.19-33.89-0.45-50.73,1.99c-0.87-8.06-2.94-15.91-3.64-24.02c-0.77-8.89-2.01-17.75-3.45-26.55
		C331.29,241.62,331.45,230.57,328.09,220.07z"/>
	<path class="st3" d="M471.18,309.03c-0.09,1.31-0.18,2.62-0.27,3.92c-1.78,0.28-3.37,1.14-5.28,1.13
		c-14.53-0.06-28.89,1.86-43.26,3.72c-2.5,0.32-3.28-0.67-3.24-2.99c0.05-2.64-0.06-5.29-0.11-7.93c0.8-12.07,3.69-23.6,7.32-35.16
		c1.85-5.9,3.31-12.16,4.7-18.31c1.9-8.37,3.98-16.69,7.19-24.64c3.47-8.59,3.76-8.9,12.9-7.61c6.79,0.96,13.36,0.5,20.12,0.17
		c7.33-0.36,14.75,1.57,22.22,1.43c2.34-0.04,2.15,1.69,1.73,3.17c-1.59,5.59-3.27,11.16-4.93,16.73
		c-1.05,3.53-3.07,6.77-3.14,10.59c-2.3,1.33-1.79,3.59-1.87,5.65c-0.11,0.35-0.23,0.69-0.34,1.04c-1.26,0.65-2.04,1.57-1.68,3.1
		c-0.02,0.94-0.03,1.89-0.05,2.83c0,0-0.24,0.21-0.24,0.21c-1.57,0.52-1.98,1.68-1.75,3.19c-0.08,0.88-0.16,1.76-0.24,2.64
		c-2.78,1.81-1.8,4.57-1.8,7.09c-0.37,6.75-3.73,12.74-5.02,19.3c-0.42,2.14-0.65,4.46-1.33,6.61
		C470.27,305.48,471.19,307.45,471.18,309.03z"/>
	<path class="st4" d="M469.44,340.99c-2.76,9.7-3.61,19.77-5.75,29.61c-1.57,7.17-0.54,14.91-0.62,22.39
		c-0.05,4.33-0.06,8.65,0.04,12.98c0.06,2.84-1.47,4.43-3.98,4.78c-2.76,0.39-5.45,1.45-8.01,1.76c-7.81,0.92-15.41,2.75-22.95,4.68
		c-3.86,0.99-7.95,1.3-11.67,3.19c-3.09,1.56-5.52,0.83-5.29-3.5c0.14-2.65-0.21-5.33-0.07-7.98c0.62-11.42-3.46-22.7-1.61-34.04
		c1.5-9.19,1.45-18.37,1.76-27.57c0.05-1.59,1.91-2.42,1.28-4.1c0.09-1.38,0.18-2.76,0.26-4.14c0.14-2.44,0.27-4.88,0.41-7.32
		c1.33-1.43,1.54-3.05,0.81-4.83c1.07-0.36,0.91-1.32,1.05-2.14c18.69-4.7,37.31,0.07,55.96,0.35c-0.01,3.34-0.01,6.67-0.02,10.01
		C468.09,336.41,469.71,338.96,469.44,340.99z"/>
	<path class="st2" d="M523.77,222.74c6.33,0,12.67,0.08,19-0.04c2.58-0.05,3.73,0.54,2.88,3.38c-4.92,16.41-7.16,33.41-10.77,50.1
		c-2.1,9.74-3.76,19.57-5.57,29.37c-0.62,3.34-0.32,6.07-5.82,3.87c-6.79-2.72-14.35-3.63-21.9-3.62
		c-6.64,0.01-13.28-0.72-19.93-0.87c-3.84-0.09-2.25-2.12-1.74-3.93c6.23-22.57,12.5-45.14,18.63-67.74
		c2.87-10.58,2.74-10.61,13.73-10.58c3.83,0.01,7.67,0,11.5,0C523.77,222.71,523.77,222.73,523.77,222.74z"/>
	<path class="st1" d="M349.33,446.83c-8.76,0.75-17.03-1.88-25.47-3.52c-4.61-0.9-9.31-1.07-14-2.06
		c-8.51-1.79-11.52-4.73-12.93-13.1c-1.85-10.95-2.51-22.04-4.25-32.93c-1.32-8.32-1.42-16.81-3.56-25.02
		c-2.59-9.98-3.94-20.17-4.04-30.5c0-0.17,0.01-0.34-0.02-0.5c-0.58-2.53-3.88-5.39-0.98-7.46c1.93-1.38,4.79,1.52,7.33,2.14
		c5.79,1.41,11.6,2.7,17.42,3.96c1.33,0.29,2.67,0.13,3.59-1.13c1.22,5.65,2.67,11.26,3.62,16.95
		C321.58,386.73,332.65,417.77,349.33,446.83z"/>
	<path class="st5" d="M349.33,446.83c-16.68-29.05-27.75-60.1-33.29-93.15c-0.95-5.69-2.4-11.31-3.62-16.95
		c-0.2-0.91-0.4-1.81-0.6-2.72c-0.29-1.97-0.58-3.95-0.87-5.92l0.4-0.29c2.29,2.5,4.85,4.13,8.5,4.31
		c8.84,0.46,17.65,1.31,26.47,2.01c-0.59,1.59-0.38,3.21-0.17,4.83c-0.13,1.14-0.17,2.27,0.67,3.21
		c3.17,26.85,8.67,53.04,19.77,77.95c4.25,9.54,7.56,19.53,12.45,28.82C369.09,448.92,359.14,448.88,349.33,446.83z"/>
	<path class="st3" d="M470.98,217.21c-7.99,0-15.98-0.19-23.96,0.08c-3.95,0.14-5.01-1.61-3.57-4.67
		c9.23-19.63,14.9-40.78,25.68-59.74c1.23-2.17,2.18-2.84,5.13-2.52c6.54,0.69,12.97,2.11,19.45,2.99
		c9.07,1.24,18.36,0.65,27.28,3.29c2.56,0.76,2.36,2.01,1.51,3.57c-8.24,15.14-12.97,31.72-19.82,47.43
		c-1.22,2.8-2.98,5.32-3.64,8.44c-0.53,2.51-2.96,1.55-4.64,1.56c-7.81,0.07-15.62,0.03-23.42,0.03
		C470.99,217.51,470.98,217.36,470.98,217.21z"/>
	<path class="st6" d="M328.09,220.07c3.36,10.5,3.2,21.54,4.97,32.29c1.45,8.8,2.69,17.67,3.45,26.55
		c0.7,8.11,2.78,15.96,3.64,24.02c0,0-0.03,0.05-0.03,0.05c-2.6,0.32-5.21,0.55-7.79,0.98c-8.55,1.44-17.18,2.52-25.48,5.18
		c-0.28-0.01-0.53-0.11-0.74-0.3c-1.2-11-3.74-21.78-5.4-32.71c-2.59-17.1-4.15-34.15-3.65-51.42c0.05-1.69,0.19-3.31,1.04-4.79
		c5.34-0.42,10.68-0.59,16.02-0.2c3.63,2.07,7.3,1.87,10.98,0.14C326.1,219.93,327.1,220,328.09,220.07z"/>
	<path class="st2" d="M385.08,459.26c19.98-0.2,39.96-0.23,59.93-0.64c14.12-0.29,28.17-1.8,42.08-4.3c3.2-0.57,3.84,0.59,3.85,3.27
		c0.01,4.22-1.5,8.15-2.31,12.21c-0.51,2.59-1.66,5.05-2.23,7.63c-1.86,8.33-1.82,8.29-10.28,9.94
		c-18.55,3.64-37.33,3.74-56.12,3.62c-4.32-0.03-8.64-0.25-12.95-0.38c-0.56-2.32-2.12-4.04-3.57-5.82
		C396.82,476.66,390.91,467.99,385.08,459.26z"/>
	<path class="st2" d="M298.11,219.91c-0.86,1.49-1,3.1-1.04,4.79c-0.49,17.26,1.06,34.32,3.65,51.42c1.66,10.93,4.2,21.71,5.4,32.71
		c-8.92,0.85-17.06,3.64-24.2,11.06c-0.8-5.67-1.44-10.02-2.04-14.38c-2.95-21.33-5.84-42.66-8.86-63.98
		c-0.86-6.05-2.04-12.06-3.12-18.08c-0.49-2.73,0.23-3.86,3.32-3.77C280.17,219.93,289.14,219.86,298.11,219.91z"/>
	<path class="st1" d="M346.15,338.95c-0.21-1.62-0.42-3.24,0.17-4.83c2.16-0.22,5.34,0.78,5.64-2.36c0.31-3.28-3.05-3.16-5.32-3.76
		c-0.47-0.12-0.98-0.05-1.47-0.07c-0.87-2.38-2.67-4.76-0.04-7.16c10.02,0.6,19.91-0.99,29.85-1.69c1.39-0.1,2.79-0.38,2.98-2.03
		c0.2-1.82-1.3-2-2.62-2.35c-2.29-0.61-4.61-0.68-6.94-0.42c-8.63,0.96-17.27,0.9-25.92,0.36c-0.51-2.85-1.02-5.7-1.53-8.54
		c13.38-0.7,26.76-1.84,40.15-1.94c9.08-0.07,18.2,0.63,27.3,0.97c5.81,0.22,9,0.57,4.99,8.89c-0.35,0.72-0.29,1.62-0.43,2.44
		c-1.13,0.12-2.27,0.17-3.39,0.38c-2.38,0.45-6.42-1.28-6.74,1.85c-0.38,3.66,4.17,2.27,6.39,3.44c1.45,2.02,5.08-0.84,5.87,2.63
		c-0.14,0.82,0.02,1.78-1.05,2.14c-5.23,0.98-10.45,1.95-16.07,3c2.47,2.85,5.1,1.93,7.47,2c2.59,0.07,5.15-1.51,7.78-0.17
		c-0.14,2.44-0.27,4.88-0.41,7.32c-2.55,0.89-5.19,0.92-7.86,0.93C385.35,340.04,365.74,340.05,346.15,338.95z M373.93,329.45
		c0-0.36,0-0.73-0.01-1.09c-1.9-0.44-3.78-1.04-5.7-1.25c-1.1-0.12-2.51,0.39-2.42,1.83c0.08,1.34,1.42,1.89,2.59,1.74
		C370.27,330.44,372.09,329.88,373.93,329.45z"/>
	<path class="st1" d="M267.02,213.46c7.6-3.24,14.89-4.65,22.21-5.41c23.61-2.44,47.29-3.38,71.05-3.4
		c7.74-0.01,15.64-1.18,23.36-0.55c17.29,1.41,34.58,0.56,51.87,0.82c3.57,0.05,4.65,0.96,3.73,4.72c-1.8,7.3-1.58,7.56-9.05,7.33
		c-51.6-1.6-103.21-0.81-154.81-1.01C272.7,215.95,270.15,215.6,267.02,213.46z"/>
	<path class="st6" d="M385.08,459.26c5.83,8.73,11.74,17.4,18.4,25.53c1.45,1.77,3.01,3.49,3.57,5.82
		c-3.29-0.06-6.57-0.11-9.86-0.17c-2.93-2.47-5.99-1.85-9.09-0.39c-4.32-0.39-8.64-0.79-12.96-1.18c-1.95-3.17-4.45-2.21-6.99-0.92
		c-1.3-0.19-2.61-0.39-3.91-0.58c-2.08-3.71-4.23-7.35-6.65-10.88c-3.24-4.73-5.6-10.05-8.5-15.03c-1.57-2.69-0.36-3.82,2.05-4.56
		c2.65,0.15,5.3,0.3,7.94,0.45c1.78,2.71,3.89,1.91,6.05,0.56C371.77,458.36,378.43,458.81,385.08,459.26z"/>
	<path class="st2" d="M351.12,456.9c-2.41,0.74-3.62,1.87-2.05,4.56c2.9,4.98,5.26,10.3,8.5,15.03c2.42,3.53,4.56,7.17,6.65,10.88
		c-9.49-0.09-18.64-2.92-28-3.67c-11.19-0.9-17.45-5.64-17.37-17.51c0.02-3.4-1.07-6.86-1.96-10.21c-1.03-3.88,0.9-4.33,3.94-3.86
		c7.7,1.17,15.41,2.31,23.1,3.53C346.33,456.02,348.98,455.03,351.12,456.9z"/>
	<path class="st1" d="M471.04,335.12c0.01-3.34,0.01-6.67,0.02-10.01c3.94,0.64,5.21-3.33,8.03-4.64c3.61-0.67,7.09-0.66,10.79,0.19
		c4.53,1.04,9.25,0.89,13.75-3.72c-10.09,0.08-17.68-5.5-26.54-5.99c-0.19-2.51,1.24-3.13,3.41-2.99c4.6,0.31,9.2-0.23,13.85,0.7
		c3.67,0.73,7.75,0.95,11.37,0.15c6.56-1.44,10.97,3.48,16.55,4.83c3.19,0.77,1.63,5.08-0.28,6.6c-6.72,5.34-14.13,9.65-22.25,12.58
		c-0.93,0.34-1.98,0.09-2.69-0.8c0.33-1.06,2.35-1.04,1.77-2.61c-0.47-1.26-1.68-1.43-2.86-1.47c-4.29-0.13-8.66-0.55-12.8,0.58
		c-2.35,0.64-6.85-1.14-6.64,2.97c0.14,2.67,4.26,2,6.67,2.62c0.32,0.37,0.97,1.02,0.91,1.08
		C482.3,337.34,473.39,337.25,471.04,335.12z"/>
	<path class="st5" d="M340.95,306.1c0.51,2.85,1.02,5.7,1.53,8.54c-8.49,0.24-16.7,1.9-24.8,4.46c-4.52,1.43-6.54,4.11-6.34,8.7
		c0,0-0.4,0.29-0.39,0.29c-1.33-5.07-2.67-10.14-4-15.21c-0.03-1.24-0.06-2.49-0.09-3.73c8.3-2.65,16.93-3.74,25.48-5.18
		c2.58-0.43,5.19-0.66,7.79-0.98C340.4,304.02,340.68,305.06,340.95,306.1z"/>
	<path class="st1" d="M306.95,312.87c1.33,5.07,2.67,10.14,4,15.21c0.29,1.97,0.58,3.95,0.87,5.92c-8.28-0.64-16.27-2.58-24.07-5.33
		c-2.03-0.72-4.11-1.68-4.54-4.14c-0.51-2.88,2.16-3.22,3.72-4.56C292.72,314.99,299.35,312.62,306.95,312.87z"/>
	<path class="st4" d="M419.03,306.88c0.04,2.64,0.16,5.29,0.11,7.93c-0.05,2.31,0.74,3.31,3.24,2.99
		c14.37-1.86,28.73-3.77,43.26-3.72c1.91,0.01,3.5-0.84,5.28-1.13c0.33,4.42-1.64,6.33-6.11,6.03c-5.58-0.37-11.39-1.57-16.64-1.33
		c-9.18,0.42-18.65-0.18-27.67,2.6c-1.08,0.33-2.14,1.07-3.05-0.26C416.46,318.6,417.67,308.74,419.03,306.88z"/>
	<path class="st6" d="M477.09,310.95c8.86,0.49,16.44,6.06,26.54,5.99c-4.5,4.61-9.22,4.77-13.75,3.72
		c-3.7-0.85-7.18-0.86-10.79-0.19C474.34,317.63,473.94,315.74,477.09,310.95z"/>
	<path class="st1" d="M538.69,217.33c-2.09,1.1-4.24,0.57-6.27,0.58c-7.65,0.07-15.29,0-22.94,0.03c-2.1,0.01-4.26-0.63-3.01-2.93
		c0.79-1.44-1.33-5.83,4.08-4.28c8.47,2.42,17.31,3.53,25.99,5.2C537.31,216.08,538.19,216.02,538.69,217.33z"/>
	<path class="st6" d="M483.17,334.11c-2.41-0.62-6.53,0.05-6.67-2.62c-0.21-4.11,4.29-2.33,6.64-2.97c4.14-1.13,8.51-0.71,12.8-0.58
		c1.18,0.04,2.39,0.21,2.86,1.47c0.58,1.57-1.44,1.55-1.77,2.61C492.53,333.49,487.88,333.99,483.17,334.11z"/>
	<path class="st6" d="M409.23,322.12c-2.22-1.17-6.77,0.22-6.39-3.44c0.32-3.13,4.36-1.4,6.74-1.85c1.11-0.21,2.26-0.26,3.39-0.38
		C412.76,319.03,413.76,322.4,409.23,322.12z"/>
	<path class="st2" d="M388.09,490.05c3.1-1.47,6.16-2.09,9.09,0.39C394.13,490.85,391.07,491.44,388.09,490.05z"/>
	<path class="st2" d="M368.14,487.95c2.54-1.29,5.04-2.24,6.99,0.92C372.75,488.94,370.26,489.83,368.14,487.95z"/>
	<path class="st4" d="M479.18,279.01c0-2.52-0.99-5.28,1.8-7.09c0.1,0.32,0.2,0.65,0.3,0.97
		C480.61,274.94,482.03,277.7,479.18,279.01z"/>
	<path class="st2" d="M365.12,457.91c-2.16,1.35-4.27,2.15-6.05-0.56C361.12,457.18,363.21,456.63,365.12,457.91z"/>
	<path class="st2" d="M325.11,219.86c-3.68,1.73-7.35,1.93-10.98-0.14C317.79,219.76,321.45,219.81,325.11,219.86z"/>
	<path class="st1" d="M485.28,258.9c0.07-2.07-0.43-4.32,1.87-5.65C487.2,255.36,486.84,257.33,485.28,258.9z"/>
	<path class="st4" d="M471.18,309.03c0.02-1.58-0.91-3.55,1.65-4.11C472.95,306.56,473.42,308.34,471.18,309.03z"/>
	<path class="st5" d="M481.27,272.89c-0.1-0.32-0.2-0.65-0.3-0.97c0.08-0.88,0.16-1.76,0.24-2.64c0.5-0.01,0.99-0.01,1.49-0.02
		C482.23,270.47,481.75,271.68,481.27,272.89z"/>
	<path class="st4" d="M483.25,263.04c-0.36-1.54,0.42-2.45,1.68-3.1c0.22,1.22,0.17,2.38-0.85,3.28
		C483.83,263.04,483.55,262.98,483.25,263.04z"/>
	<path class="st4" d="M482.7,269.26c-0.5,0.01-0.99,0.01-1.49,0.02c-0.23-1.51,0.18-2.67,1.74-3.19
		C482.87,267.15,482.79,268.2,482.7,269.26z"/>
	<path class="st1" d="M483.25,263.04c0.3-0.06,0.58,0,0.84,0.17c0.03,1,0.2,2.04-0.89,2.66
		C483.22,264.93,483.23,263.99,483.25,263.04z"/>
	<path class="st0" d="M346.15,338.95c19.59,1.09,39.2,1.09,58.81,1.01c2.67-0.01,5.31-0.04,7.86-0.93
		c-0.09,1.38-0.17,2.76-0.26,4.14c-1.66,1.04-3.52,0.79-5.33,0.79c-12.26,0.01-24.52,0.21-36.78-0.09
		c-7.89-0.19-15.76-1.11-23.64-1.7C345.98,341.22,346.02,340.1,346.15,338.95z"/>
	<path class="st6" d="M413.23,331.72c-2.63-1.33-5.19,0.25-7.78,0.17c-2.37-0.07-5.01,0.85-7.47-2c5.61-1.05,10.84-2.03,16.07-3
		C414.78,328.67,414.56,330.29,413.23,331.72z"/>
	<path class="st6" d="M311.34,327.8c-0.2-4.59,1.82-7.27,6.34-8.7c8.1-2.56,16.31-4.22,24.8-4.46c8.65,0.54,17.29,0.6,25.92-0.36
		c2.33-0.26,4.65-0.18,6.94,0.42c1.31,0.35,2.82,0.53,2.62,2.35c-0.19,1.66-1.59,1.94-2.98,2.03c-9.94,0.7-19.83,2.29-29.85,1.69
		c-8.6-1.32-16.91,0.42-25.17,2.45c-1.18,0.29-3.58,0.15-3.26,2.18c0.27,1.72,2.3,1.48,3.78,1.51c8.24,0.17,16.51-0.49,24.7,1.02
		c0.49,0.02,1.01-0.05,1.47,0.07c2.27,0.59,5.63,0.47,5.32,3.76c-0.29,3.13-3.48,2.14-5.64,2.36c-8.82-0.7-17.64-1.55-26.47-2.01
		C316.19,331.93,313.64,330.3,311.34,327.8z"/>
	<path class="st5" d="M345.16,327.94c-8.18-1.51-16.46-0.85-24.7-1.02c-1.48-0.03-3.51,0.21-3.78-1.51
		c-0.32-2.03,2.09-1.89,3.26-2.18c8.26-2.03,16.57-3.78,25.17-2.45C342.5,323.18,344.3,325.56,345.16,327.94z"/>
	<path class="st6" d="M373.93,329.45c-1.84,0.43-3.67,0.99-5.54,1.23c-1.17,0.15-2.51-0.39-2.59-1.74
		c-0.09-1.43,1.32-1.95,2.42-1.83c1.92,0.21,3.8,0.81,5.7,1.25C373.93,328.73,373.93,329.09,373.93,329.45z"/>
</g>
</svg>
