<?xml version="1.0" encoding="utf-8"?>
<!-- Generator: Adobe Illustrator 26.0.3, SVG Export Plug-In . SVG Version: 6.00 Build 0)  -->
<svg version="1.1" id="Layer_1" xmlns="http://www.w3.org/2000/svg" xmlns:xlink="http://www.w3.org/1999/xlink" x="0px" y="0px"
	 viewBox="0 0 1419.06 1121.06" style="enable-background:new 0 0 1419.06 1121.06;" xml:space="preserve">
<style type="text/css">
	.st0{fill:#33327C;}
	.st1{fill:#402D71;}
	.st2{fill:#5C6099;}
	.st3{fill:#5E4B89;}
	.st4{fill:#B0A7C0;}
</style>
<g>
	<path class="st0" d="M407.53,165.19c-2.06-0.6-4.24-0.96-6.18-1.84c-8.84-4.01-17.92-7.17-27.63-8.21
		c-3.77-0.4-5.42-2.23-5.07-6.17c0.6-6.56-0.91-12.95-2.6-19.2c-0.77-2.85,0.19-4.11,2.32-5.13c6.1-2.92,12.04-4.53,19.16-2.39
		c9.02,2.72,18.58,3.69,27.89,5.06c11.58,1.71,22.56,5.53,33.97,7.64c3.76,0.7,7.58,1.12,11.39,1.42c1.55,0.12,2.69,0.53,4.01,1.44
		c5.94,4.07,12.61,6.77,19.34,9.14c3.43,1.21,7.51,2.23,10.55-1.46c1.01-1.22,2.16-0.44,3.23-0.32c4,0.42,7.85,1.54,11.54,3.09
		c19.38,8.14,39.72,13.57,59.74,19.58c16.73,5.02,33.93,8.82,50.81,13.58c2.99,0.84,6.25,1.23,7.64,4.82
		c0.71,1.85,2.79,1.6,4.33,1.9c21.73,4.23,43.09,9.94,64.45,15.67c8.1,2.17,16.5,1.86,24.75,2.86c23.54,2.87,46.34,8.52,68.7,16.47
		c14.2,5.05,27.64,11.39,40.6,18.99c5.51,3.23,9.34,8,12.9,13c3.23,4.53,0.33,16.64-4.67,19.91c-15.5,10.14-31.58,19.15-49.52,24.32
		c-3.09,0.89-4.69,2.51-5.56,5.58c-3.17,11.25-4.71,22.84-7.44,34.17c-0.54,2.24,0.38,3.06,2.35,3.39
		c12.58,2.05,24.18,7.43,36.4,10.68c1.13,0.3,2.53,0.32,2.92,1.58c1.69,5.53,6.66,5.46,10.92,6.29c2.15,0.42,3.33,1.15,4.59,3.01
		c3.02,4.47,7.53,7.47,12.01,10.36c4.05,2.62,8.09,5.28,12.32,7.61c3.08,1.7,3.16,3.66,1.88,6.56c-3.26,7.34-9.18,11.57-16.19,14.81
		c-2.14,0.99-5.75,1.5-5.66,4.02c0.08,2.21,3.68,2.24,5.78,2.99c47.77,17.11,93.74,38.2,137.92,63.11
		c11.02,6.21,22,12.48,33.11,18.53c13.33,7.27,23.42,18.66,34.43,28.74c12.31,11.27,26.48,20.25,38.19,32.18
		c0.73,0.74,1.58,1.08,2.6,1.33c27.36,6.83,50.31,20.49,67.11,43.57c8.45,11.6,18.17,22.1,27.74,32.75
		c7.17,7.97,12.33,16.97,12.2,28.21c-0.03,2.56,1.15,4.81,2.35,7.03c12.7,23.45,22.66,47.96,26.47,74.47
		c2.01,14,2.4,28.28-0.51,42.29c-3.73,17.97-15.31,31.15-27.91,43.49c-2.88,2.82-3.64,4.86-2.13,8.92
		c3.55,9.53,0.71,18.04-6.39,25.08c-2.47,2.45-5.25,4.65-8.13,6.61c-6.2,4.22-12.39,8.37-17.31,14.2c-1.68,1.99-3.95,3.7-6.29,4.85
		c-14.54,7.17-27.58,16.82-41.59,24.81c-23.7,13.52-49.78,20.28-76.31,25.87c-39.77,8.39-80.13,13.66-119.74,22.8
		c-20.99,4.84-41.1,12.48-61.49,19.24c-26.63,8.82-53.93,15.71-81.59,19.3c-31.86,4.14-64.16,4.11-96.14-1.19
		c-31.26-5.19-62.22-11.66-91.93-22.97c-13.42-5.11-25.72-12.58-38.3-19.41c-17.88-9.7-36.41-17.95-55.03-26.08
		c-29.23-12.77-55.38-30.66-78.99-51.91c-16.59-14.93-33.76-29.18-50.31-44.14c-22.77-20.56-43.79-42.86-63.71-66.18
		c-7.21-8.44-11.98-18.4-16.05-28.66c-4-10.08-8.87-19.7-13.98-29.26c-17.88-33.49-23.85-69.08-16.59-106.43
		c13.41-68.94,47.63-125.81,100.75-171.51c18.84-16.2,36.93-33.14,51.68-53.32c1.72-2.35,3.26-5.11,6.75-5.47
		c0.67-0.07,1.55-0.83,1.85-1.49c5.98-13.37,15.82-24.42,22.29-37.51c3.48-7.04,6.99-14.06,8.94-21.66
		c1.13-4.39,3.34-7.76,6.43-10.95c5.87-6.07,12.84-11.19,16.83-18.95c0.75-1.46,2.05-2.08,3.67-2.19c1.6-0.11,3.08-0.9,3.66-2.29
		c1.08-2.61,2.77-3.37,5.54-3.65c3.08-0.31,4.25-2.93,5.11-5.95c4.73-16.61-1.87-30.94-8.75-45.23c-1.08-2.24-2.39-4.36-3.6-6.53
		c2-3.02,7.26-3.8,9.5-0.91c2.63,3.39,6.83,4.34,9.78,4.05c7.17-0.69,12.6,2.82,18.75,4.96c4.73,1.65,8.96,4.52,13.98,5.4
		c4.58,0.8,10.36-2.62,13.42,3.72c0.09,0.18,0.62,0.14,0.94,0.21c5.29,1.22,9.91,4.12,14.92,5.96c3.8,1.4,5.82,5.6,9.92,5.97
		c2.4,0.22,4.27,0.89,6.35,2.14c5.82,3.49,12.85,4.35,18.63,8.04c3.75,2.39,8.22,2.89,12.24,4.73c3.73,1.71,7.74,2.87,11.22,5.24
		c2.44,1.66,5.48,2.7,7.37,4.81c1.8,2.02,2.52,5.26-0.81,7.03c-1.41,0.75-2.18,1.43-2.04,2.91c0.22,2.41-1.1,3.09-3.2,3.46
		c-1.63,0.29-3.21,1.2-4.15,2.61c-4.59,6.82-13.54,6.91-19.12,12.45c-1.65,1.64-5.61,0.87-6.65,4.38c-0.08,0.26-1.25,0.33-1.89,0.27
		c-2.1-0.17-3.75,0.77-5.6,1.64c-4.19,1.97-7.76,5.95-13.16,4.46c-0.8-0.22-1.53,0.33-2.17,0.97c-6.01,5.98-13.79,8.52-21.59,10.96
		c-0.95,0.3-2.15,0.22-2.31,1.44c-0.39,2.94-2.53,2.53-4.51,2.58c-1.14,0.03-2.78-0.38-3.2,0.8c-1.74,4.91-8.76,2.01-10.24,7.12
		c-7.36,0.98-12.79,6.48-19.71,8.53c-0.78,0.23-1.23,1.49-1.91,2.19c-1.04,1.06-1.99,2.51-3.27,2.98
		c-5.7,2.09-10.43,5.41-14.01,10.28c-1.83,2.48-2.21,6.03-4.8,7.87c-2.49,1.76-2.52,3.94-2.59,6.5c-0.07,2.78,0.93,5.78-0.68,8.3
		c-4.49,7.04-2.91,10.3-0.73,17.29c1.7,5.47,5.82,7.7,8.27,11.75c1.53,2.54,3.21,4.67,6.6,4.44c0.61-0.04,1.55,0.1,1.84,0.5
		c3.55,5,8.02,8.08,14.46,7.53c0.58-0.05,1.66,0.33,1.73,0.67c1.01,4.78,4.79,2.98,7.62,3.22c2.65,0.22,5.72-0.66,7.9,0.39
		c6.96,3.35,14.54,1.84,21.75,3.21c11.84,2.25,23.59,4.89,34.64,9.23c5.03,1.98,9.79,4.37,15.22,5.42c2.77,0.53,5.02,2.74,5.3,5.89
		c0.14,1.66-0.58,3.25-2.54,3.82c-7.5,2.18-13.24,7.25-19.52,11.55c-6.1,4.17-11.58,9.02-17.37,13.53
		c-0.63,0.49-1.46,0.76-2.24,0.98c-0.81,0.22-2,0.37-1.93,1.24c0.42,5.1-2.94,4.97-6.41,4.9c-0.52-0.01-1.46,0.59-1.51,0.99
		c-0.55,4.8-4.52,5.56-7.84,7.77c-7.59,5.03-12.91,12.72-18.91,19.49c-3.83,4.32-5.65,10.27-10.3,14.25c-2.91,2.49-3.58,6-3.4,9.92
		c0.32,6.98,0.39,14.01-0.02,20.99c-0.26,4.34,0.68,8.74,3.66,10.89c4.69,3.39,4.26,11.47,11.58,12.01
		c0.22,0.02,0.61,0.52,0.57,0.74c-0.76,4.78,4.28,4.15,5.87,6.38c4.88,6.88,14.43,6.79,19.18,13.57c0.32,0.46,1.14,0.61,1.76,0.83
		c4.24,1.55,8.32,3.62,12.29,5.6c7,3.5,14.44,5.74,21.47,8.97c3.23,1.48,7.44,0.31,9.69,3.22c4.32,5.61,9.73,6.93,16.19,5.25
		c5.11-1.33,9.2,3.29,13.63,2.8c10.95-1.23,21.11,2.29,31.25,4.72c10.68,2.56,21.58,2.99,32.27,5.22
		c7.97,1.67,16.01,4.36,24.45,3.46c1.05-0.11,2.51,0.38,3.24,1.12c2.07,2.09,4.59,1.4,7,1.75c3.82,0.55,8.85-2.41,10.99,3.53
		c0.09,0.26,0.9,0.35,1.38,0.36c6.13,0.18,12.36-0.71,18,3.04c2.7,1.79,6.3,0.37,9.25,1.45c7.67,2.81,15.85,1.55,23.72,3.32
		c6.85,1.54,14.19,0.86,21.31,1.32c1.6,0.11,3.49,0.5,4.66,1.47c1.77,1.47,3.62,1.34,5.59,1.47c26.35,1.72,52.68-1.94,79.22,2.41
		c19.53,3.2,39.84,2.75,59.82,3.35c6.77,0.2,10.47,5.1,15.55,7.62c3.31,1.64,6.3,6.07,9.82,7.84c7.12,3.58,13.96,7.74,21.28,10.94
		c1.66,0.73,1.14,2.14,1.43,3.37c1.73,7.3-2.6,12.94-5.11,19.08c-3.12,7.63-8,14.43-12.29,21.22c-2.76,4.38-6.45,10.49-12.89,12.2
		c-0.9,0.24-1.5,0.68-1.66,1.6c-0.59,3.48-4.44,5.49-6.15,5.69c-5.26,0.64-8.79,2.4-13.05,5.97c-4.25,3.57-8.56,7.22-12.21,11.3
		c-6.7,7.48-13.93,13.15-24.64,12.42c-2.3-0.16-5.82-0.78-6.74,0.4c-2.92,3.75-6.58,2.21-9.98,2.53c-1.98,0.19-4.63-0.67-5.88,0.32
		c-6.62,5.27-14.94,2.61-22.36,5.01c-9.28,3-19.82,3.28-29.82,4.4c-12.08,1.36-24.38,1.43-36.52,1.83
		c-19.61,0.65-39.3,1.54-59.08-1.12c-13.74-1.85-27.98-0.49-41.9-2.41c-1.13-0.16-2.95,0.29-3.19-0.81c-1-4.54-4.47-3.13-7.17-3.16
		c-7.63-0.07-15.88,0.62-22.58-2.17c-7.23-3.02-15.6,1.06-21.76-4.87c-13.92,0.57-27.55-2.81-41.41-3.02
		c-1.13-0.02-2.88,0.33-3.14-0.88c-0.9-4.28-4.14-3-6.73-3.06c-2.2-0.04-4.65,0.16-6.28-1.15c-3.55-2.87-7.65-4.24-11.65-6.14
		c-6.72-3.18-13.81-5.52-20.29-9.03c-3.98-2.16-9.72,0.04-12.3-5.22c-0.22-0.44-1.61-0.64-2.33-0.45
		c-8.8,2.29-16.05-3.65-24.32-4.57c-8.75-0.97-17.37-3.36-25.92-5.62c-3.26-0.86-7.34-0.82-9.64-2.82
		c-3.97-3.44-8.23-3.31-12.61-2.96c-5.51,0.45-10.91-2.98-16.49-0.18c-1.17,0.59-2.94,0.23-4.13-1.06c-0.73-0.79-1.97-1.15-2.74-0.5
		c-3.39,2.84-7.34,1.4-11.03,1.61c-4.46,0.25-8.75-0.49-12.5,3.6c-4.62,5.04-13.1,6.29-14.44,14.7c-0.09,0.54-0.88,0.97-1.32,1.47
		c-3.02,3.44-5.99,7.53-5.52,11.88c0.63,5.81-4.01,12.91,3.38,17.47c0.37,0.23,0.35,1.26,0.32,1.91c-0.14,3.93,2.88,6.06,5.62,6.73
		c5.07,1.23,7.06,8.34,13.38,6.6c0.09-0.03,0.34,0.18,0.37,0.3c1.06,4.98,6.03,3.49,9.01,5.29c6.87,4.14,14.97,5.31,22.43,8.07
		c5.78,2.14,11.03,5.3,16.79,7.43c2.23,0.83,4.6,0.11,6.76,1.41c5.55,3.36,11.8,3.88,18.14,4.26c6.74,0.41,13.72-0.06,20.06,2.72
		c4.87,2.13,9.82,2.37,14.94,2.25c1.52-0.03,3.77-0.81,4.29,1.39c0.66,2.83,2.61,2.78,4.57,2.53c8.51-1.12,16.54,3.34,25.05,2.08
		c0.6-0.09,1.5,0.04,1.88,0.44c3.62,3.81,8.39,3.53,12.94,3.44c6.43-0.12,12.48,1.5,18.08,4.19c4.78,2.29,10.76,1.3,14.69,5.66
		c0.25,0.28,0.96,0.23,1.45,0.19c5.36-0.41,10.17,3.19,15.64,2.08c1.41-0.28,1.88,1.14,2.64,1.97l0.27,0.13l0.26-0.15
		c-0.37,1.82,0.12,3.39,1.9,4.05c1.83,0.67,3.15-0.3,3.97-1.98c0.26-0.03,0.52-0.08,0.78-0.13c7.69,0.63,15.2,3,23.03,2.24
		c0.46-0.04,0.94,0.4,1.42,0.41c6.73,0.19,13.5,3.13,19.69,2.96c27.08-0.71,54.28,3.62,81.33-2.23c7.05-1.52,14.84-1.22,22.29-1.57
		c6.53-0.3,13.42,0.46,19.62-2.17c2.57-1.09,4.96-1.83,7.61-1.56c12.62,1.25,25.1-1.01,37.5-2.41c5.67-0.64,11.35-1.39,17.08-1.66
		c0.63-0.03,1.71-0.23,1.79-0.55c1.34-5.09,5.45-3.21,8.58-3.34c5.16-0.22,10.34,0.15,15.49-0.14c3.39-0.19,7.81,2.01,9.63-3.37
		c0.18-0.54,2.44-0.42,3.74-0.55c3.45-0.34,6.92,0.54,10.37-0.67c8.31-2.91,16.42-6.87,25.67-5.37c1.3,0.21,2.79,0.38,3.97-0.05
		c7.87-2.87,15.2-7.73,24.19-6.16c5.21-4.64,12.14-4.08,18.16-6.18c12.67-4.41,26.02-7.08,37.66-14.36
		c6.93-4.33,14.8-7.3,21.25-12.21c4.57-3.48,9.66-5.66,14.53-8.16c4.68-2.4,7.88-8.05,14.26-7.09c0.85,0.13,1.11-1.07,1.43-1.84
		c0.49-1.19,1.41-1.86,2.7-1.87c5.04-0.07,8.92-3.25,13.11-5.28c7.04-3.41,14.14-7.11,20.24-11.91c4.45-3.5,12.07-4.66,11.98-12.67
		c0-0.37,0.52-0.98,0.91-1.1c7.1-2.16,7.24-11.53,14.27-13.81c0.41-0.13,0.63-1.5,0.58-2.27c-0.15-2.39,1.05-3.71,3.1-4.56
		c1.74-0.72,3.08-1.87,4.01-3.58c2.6-4.74,4.71-9.65,8.4-13.87c3.85-4.4,3.32-25.68,0.11-30.14c-0.1-0.13-0.2-0.37-0.31-0.37
		c-5.97-0.44-6.29-6.78-8.48-9.99c-4.14-6.06-10.44-9.16-15.01-14.41c-4-4.59-9.06-8.59-14.42-12.09c-4.9-3.19-9.63-6.85-14.68-9.73
		c-6.57-3.74-10.83-12.03-20.13-10.73c-0.45,0.06-1.13-1.09-1.61-1.75c-2.1-2.87-4.85-4.98-7.85-6.77
		c-1.61-0.96-3.32-2.06-3.77-3.83c-0.78-3.04-2.79-3.38-5.3-3.21c-2.16,0.15-3.97-0.02-4.22-2.89c-0.07-0.83-0.93-1.99-1.71-2.3
		c-7.2-2.86-13.8-7.24-22.16-6.94c-6.93,0.25-14.49,0.9-20.69-1.47c-5.95-2.27-11.5-2.1-17.33-2.36c-2.82,0.08-2.75-3.37-4.95-4.04
		c-2.71-5.14-3.29-10.67-3-16.37c0.27-5.28,1.59-10.77,0.61-15.82c-3.34-17.18-14.44-29.15-28.7-38.15
		c-6.26-3.95-13.53-6.32-20.39-9.3c-2.12-0.92-4.38-1.57-6.62-2.19c-1.35-0.38-2.89-0.23-3.36,1.3c-0.49,1.56,1.14,1.78,2.12,2.23
		c3.17,1.45,6.32,2.98,9.59,4.18c14.65,5.4,27.24,13.39,36.12,26.73c4.17,6.26,7.58,12.41,6.75,20.25
		c-0.89,8.4-0.91,16.81,0.85,25.14c-8.05-2.05-16.39-1.87-24.56-3.59c-8.32-1.75-16.96-3.17-25.67-2.45
		c-1.43,0.12-3.77,0.63-4.12-0.81c-1.03-4.21-4.12-3.05-6.74-3.12c-3.66-0.1-7.38-0.4-10.99,0.06c-4.81,0.62-7.07-1.43-8.7-5.72
		c-3.59-9.44-11.24-14.38-21.36-14.38c-4.33,0-8.69-0.27-12.99,0.07c-5.79,0.45-12.16-0.42-17.19,1.51
		c-4.68,1.79-8.98,2.52-13.64,2.35c-2.97-0.11-5.16,0.38-5.8,5.03c-2.31-5.97-6.38-4.8-10.03-4.97
		c-14.41-0.66-28.78,1.41-43.26,0.21c-11.42-0.95-22.98-0.13-34.48-0.24c-3.01-0.03-6.86,1.51-8.11-3.3c-0.1-0.38-1.51-0.7-2.25-0.6
		c-8.56,1.2-16.74-2.26-25.2-2.04c-1.96,0.05-3.69-0.07-4.01-2.58c-0.12-0.94-0.95-1.31-1.84-1.36c-5.76-0.3-10.52-2.32-15.72-5.27
		c-3.68-2.09-7.26-5.17-11.44-6.48c-2.61-0.82-2.45-2.32-2.9-4.34c-1.97-8.9,2.78-16.44,5.04-24.34c2.77-9.71,9.6-17.95,11.26-28.22
		c0.07-0.41,0.5-0.97,0.88-1.08c4.33-1.24,4.53-5.53,4.61-8.38c0.14-4.71,0.99-7.9,5.61-9.92c2.53-1.11,5.13-5.57,6.01-5.46
		c7.68,0.92,8.48-7.42,13.94-9.95c4.6-2.13,9.52-6.23,13.89-10.03c1.61-1.4,2.32-4.38,4.52-4.37c5.98,0.01,9.58-5.03,12.73-8
		c6.95-6.54,16.29-12,17.87-22.98c0.14-0.94,1.11-1.13,1.94-1.29c1.76-0.36,1.79-1.72,1.79-3.09c0-3.33,0.02-6.67-0.01-10
		c-0.01-0.98,0.05-2.32-1.1-2.52c-3.78-0.66-2.74-3.52-2.86-5.85c-0.09-1.67-6.75-10.78-8.03-10.36c-5.98,1.96-9.58-3.05-13.52-5.23
		c-10.13-5.59-21.21-5.05-31.84-6.58c-7.41-1.07-15.16-1.76-22.82-1.37c-0.8,0.04-2.02,0-2.36-0.48c-2.39-3.42-5.9-2.42-9.1-2.46
		c-5.5-0.07-11,0.13-16.5-0.08c-3.12-0.12-7.23,1.75-8.58-3.33c-0.09-0.33-1.2-0.63-1.78-0.55c-8.84,1.28-17.21-2.96-26.05-2.1
		c-9.4,0.91-18.68-0.67-27.96-1.97c-1.28-0.18-2.31-0.43-2.33-1.98c-0.01-0.9,0.36-1.53,1.3-1.86c7.27-2.52,15.21-3.27,21.67-8.01
		c0.23-0.17,0.65-0.13,0.98-0.13c5.49,0.07,10.58-3.03,16.2-2.09c0.72,0.12,1.96-0.17,2.25-0.68c2.31-4.09,6.17-3.11,9.76-3.28
		c6.69-0.32,13.12-3.07,19.96-2.08c1.04,0.15,2.09-0.5,2.37-1.51c0.72-2.69,2.77-2.31,4.77-2.41c3.8-0.19,7.66,0.65,11.41-0.52
		c5.18-1.61,10.29-3.45,15.82-3.46c8.39-0.01,15.7-4.22,21.18-9.29c4.24-3.92,7.09-11.05,6.94-17.47
		c-0.15-6.36-0.76-12.58-5.04-18.73c-3.78-5.43-7.3-11.34-10.87-17.09c-4.68-7.53-13.64-8.02-19.8-13.11
		c-2.28-1.88-6.11-1.13-9.57-3.48c-4.56-3.11-10.7-5.34-16.55-6.79c-6.99-1.73-14.07-4.28-20.23-7.13
		c-6.43-2.98-13.75-2.83-19.56-6.99c-1.54-1.1-3.32-1.89-5.49-2c-5.61-0.3-11.03-1.93-15.99-4.45c-4.24-2.16-9.88-0.71-13.13-5.31
		c-0.29-0.41-1.59-0.18-2.42-0.14c-5.18,0.25-9.84-3.13-15.15-2.11c-0.47,0.09-1.46-0.46-1.59-0.89c-1.16-3.88-4.38-3.26-7.02-2.93
		c-5.78,0.73-11.38-0.89-16.17-3.08c-4.27-1.95-8.15-3.22-12.7-3.04c-0.96,0.04-2.39,0.04-2.83-0.53
		c-4.01-5.14-10.37-3.46-15.48-5.14c-7.86-2.58-15.89-4.86-23.46-8.11c-5-2.15-10.55-2.33-15.32-5.82
		c-3.39-2.49-8.48-2.64-12.45-5.2c-2.63-1.7-5.61-3.68-9.2-3.18c-0.63-5.94-3.13-7.09-8.41-3.9c-2.28-0.13-4.28-0.73-6.47-1.71
		c-6.51-2.9-13.36-5.14-19.56-8.68c-3.46-1.98-7.6-1.78-10.84-4.23c-6.84-5.17-8.52,4.85-13.76,4.86c-1.7,0-3.04,1.55-2.64,3.55
		C413.39,162.42,411.5,164.52,407.53,165.19z M466.8,731.19c1.68-0.72,3.33-0.01,4.87,0.39c7.7,1.99,15.35,4.18,23.23,5.35
		c3.67,0.54,7.4,0.75,11.1,1.11c-9.01-6.77-19.35-9.35-29.39-12.69c-15.5-5.15-30.18-11.86-43-22.28
		c-5.52-4.49-11.02-9.29-17.26-12.56c-14.53-7.61-24.84-19.78-35.86-31.25c-4.03-4.2-7.38-8.98-10.05-14.15
		c-5.22-10.11-8.27-21.03-10.69-32.04c-2.05-9.29-2.64-18.78,2.37-27.63c0.07-0.12-0.31-0.49-0.78-1.18
		c-4.88,4.1-5.27,9.88-5.72,15.27c-1.18,14.18,3.13,27.58,7.06,40.9c3.91,13.23,12.83,23.42,21.85,33.47
		c10.64,11.86,23.76,20.44,36.6,29.64c12.47,8.93,24.69,17.92,38.94,23.77c1.24,0.51,0.64,1.24,0.42,1.97
		c-2.39,1.44-3.63,3.38-2.18,6.1c1.36,2.53,3.83,2.48,5.98,1.59C466.75,735.98,468.27,734.11,466.8,731.19z M523.51,855.36
		c-0.29,0.36-0.58,0.72-0.88,1.07c4.48,6.23,10.58,10.97,16.52,15.54c34.46,26.51,73.59,43.54,115.17,55.26
		c19.94,5.62,40.28,9.38,60.81,12.31c16.42,2.35,32.91,4.49,49.44,4.59c25.08,0.16,50.18,1.34,75.29-1.48
		c12.64-1.42,25.46-2.1,38.09-3.65c22.18-2.72,44.1-7.22,65.78-12.79c23.96-6.16,47.39-13.94,70.21-23.37
		c15.62-6.45,30.72-14.13,45.49-22.42c21.51-12.07,41.64-26.1,59.92-42.61c14.42-13.02,27.4-27.39,38.14-43.76
		c10.27-15.66,18.51-32.18,23.09-50.38c3.92-15.58,5.19-31.36,3.02-47.37c-0.62-4.59-3.07-8.21-6.61-7.75
		c-4.59,0.59-5.45,4.02-5.53,8.09c-0.17,8.63,0.41,17.23-0.8,25.89c-2.4,17.17-8.09,33.18-16,48.43
		c-7.12,13.73-16.21,26.17-26.21,37.98c-8.19,9.67-17.33,18.4-26.91,26.56c-14.54,12.37-30.24,23.22-46.66,33.02
		c-14.13,8.44-28.73,16.01-43.75,22.64c-16.97,7.49-34.3,14.1-52.07,19.6c-16.3,5.04-32.76,9.59-49.36,13.28
		c-15.8,3.51-31.78,6.39-47.88,8.63c-18.76,2.62-37.6,3.9-56.46,4.47c-26.57,0.81-53.1-0.3-79.55-3.65
		c-14.79-1.87-29.57-3.78-44.14-6.75c-22.91-4.68-45.39-10.98-67.31-19.28c-27.32-10.34-52.97-23.66-76.4-41.16
		C533.1,862.7,528.32,859.01,523.51,855.36z M764.89,895.99c0.98,1.94,2.48,1.11,3.65,1.36c1.29,0.28,2.6,0.51,3.88,0.8
		c15.94,3.67,32.06,5.28,48.31,3.05c5.48-0.75,10.93-0.58,16.38-1.01c13.53-1.04,27.05-2.09,40.52-3.82
		c10.33-1.33,20.7-2.32,31.03-3.61c8.76-1.09,17.08-4.01,25.56-6.29c17.4-4.66,35.23-7.67,51.81-15.32
		c13.11-6.05,26.84-10.62,40.67-14.88c4.05-1.25,8.05-3.17,10.34-7.4c-3.93,1.57-7.96,2.2-11.93,3.11
		c-17.68,4.09-34.58,10.4-51.24,17.56c-14.81,6.37-30.74,9.29-46.17,13.73c-11.94,3.44-24.01,6.17-36.47,7.2
		c-12.53,1.03-24.99,2.8-37.5,4c-14.82,1.42-29.65,2.89-44.51,3.73c-9.92,0.56-19.86,0.27-29.76-1.67
		C774.87,895.65,769.93,894.08,764.89,895.99z M632.6,676.35c4.24-0.84,9.19-3.21,8.94-6.06c-0.27-3.09-4.2-6.21-8.47-6.18
		c-4.15,0.03-6.96,2.56-6.77,6.31C626.51,674.5,629.08,676.15,632.6,676.35z M912.67,707.74c2.57-0.83,6.07-0.96,5.8-4.83
		c-0.25-3.61-3.23-5.02-6.38-4.97c-2.73,0.04-4.64,1.85-4.57,4.88C907.59,706.04,909.47,707.57,912.67,707.74z M534.92,275.3
		c1.89-0.05,3.44-0.54,3.61-2.64c0.17-1.97-0.8-3.12-2.85-3.18c-2.05-0.07-3.76,0.68-3.89,2.86
		C531.67,274.27,533.11,275.2,534.92,275.3z M295.25,530.4c-0.27-1.4-0.61-3.33-2.99-3.27c-1.93,0.05-2.79,1.35-2.77,3.29
		c0.02,2.01,1.01,3.12,2.97,2.97C293.9,533.28,295.42,532.87,295.25,530.4z M813.14,449.45c-1.21,0.3-2.34,0.87-2.23,2.51
		c0.09,1.35,0.99,2.05,2.28,2.02c1.5-0.04,2.47-0.86,2.38-2.44C815.49,450.2,814.59,449.58,813.14,449.45z M744.46,260.56
		c-0.03-1.34-0.63-2.19-2.05-2.29c-1.61-0.12-2.59,0.62-2.6,2.23c-0.01,1.38,0.88,2.13,2.24,2.07
		C743.3,262.52,744.29,261.99,744.46,260.56z M386.11,494.22c1.12,0.01,1.96-0.51,2.11-1.6c0.17-1.3-0.47-2.2-1.87-2.31
		c-1.14-0.09-1.92,0.48-2.09,1.57C384.04,493.25,384.79,494.01,386.11,494.22z"/>
	<path class="st1" d="M1006.42,596.38c5.83,0.27,11.38,0.09,17.33,2.36c6.2,2.37,13.76,1.72,20.69,1.47
		c8.36-0.3,14.96,4.08,22.16,6.94c0.78,0.31,1.64,1.47,1.71,2.3c0.25,2.86,2.06,3.03,4.22,2.89c2.51-0.17,4.52,0.17,5.3,3.21
		c0.45,1.76,2.16,2.87,3.77,3.83c3.01,1.79,5.76,3.9,7.85,6.77c0.48,0.66,1.16,1.81,1.61,1.75c9.3-1.3,13.55,6.99,20.13,10.73
		c5.06,2.88,9.79,6.54,14.68,9.73c5.37,3.5,10.43,7.49,14.42,12.09c4.57,5.25,10.87,8.35,15.01,14.41c2.19,3.2,2.51,9.55,8.48,9.99
		c0.11,0.01,0.21,0.24,0.31,0.37c3.21,4.46,3.74,25.74-0.11,30.14c-3.7,4.22-5.8,9.14-8.4,13.87c-0.93,1.7-2.27,2.86-4.01,3.58
		c-2.05,0.85-3.26,2.17-3.1,4.56c0.05,0.77-0.17,2.14-0.58,2.27c-7.03,2.28-7.17,11.65-14.27,13.81c-0.39,0.12-0.92,0.72-0.91,1.1
		c0.09,8.01-7.53,9.17-11.98,12.67c-6.1,4.81-13.2,8.51-20.24,11.91c-4.19,2.03-8.07,5.21-13.11,5.28c-1.29,0.02-2.21,0.68-2.7,1.87
		c-0.31,0.77-0.57,1.96-1.43,1.84c-6.38-0.96-9.57,4.69-14.26,7.09c-4.88,2.5-9.96,4.68-14.53,8.16
		c-6.44,4.9-14.32,7.87-21.25,12.21c-11.64,7.28-24.99,9.95-37.66,14.36c-6.02,2.1-12.95,1.54-18.16,6.18
		c-8.99-1.57-16.33,3.29-24.19,6.16c-1.18,0.43-2.67,0.26-3.97,0.05c-9.26-1.5-17.36,2.46-25.67,5.37
		c-3.45,1.21-6.93,0.32-10.37,0.67c-1.3,0.13-3.56,0-3.74,0.55c-1.82,5.38-6.23,3.18-9.63,3.37c-5.15,0.29-10.34-0.07-15.49,0.14
		c-3.13,0.13-7.24-1.75-8.58,3.34c-0.09,0.33-1.17,0.52-1.79,0.55c-5.73,0.26-11.41,1.02-17.08,1.66c-12.4,1.4-24.87,3.67-37.5,2.41
		c-2.65-0.26-5.04,0.47-7.61,1.56c-6.2,2.64-13.09,1.87-19.62,2.17c-7.46,0.35-15.24,0.04-22.29,1.57
		c-27.04,5.85-54.24,1.51-81.33,2.23c-6.2,0.16-12.96-2.77-19.69-2.96c-0.48-0.01-0.97-0.46-1.42-0.41
		c-7.83,0.76-15.34-1.61-23.03-2.24c0.09-2.64,3.56-6.16-0.52-7.66c-3.6-1.32-5.14,2.44-6.48,5.29c-0.07,0.15-0.12,0.3-0.19,0.45
		c-0.75-0.84-1.23-2.26-2.64-1.97c-5.47,1.11-10.28-2.5-15.64-2.08c-0.49,0.04-1.2,0.09-1.45-0.19c-3.93-4.36-9.91-3.37-14.69-5.66
		c-5.6-2.69-11.65-4.31-18.08-4.19c-4.54,0.09-9.31,0.36-12.94-3.44c-0.38-0.4-1.27-0.53-1.88-0.44
		c-8.51,1.26-16.54-3.21-25.05-2.08c-1.96,0.26-3.91,0.31-4.57-2.53c-0.51-2.2-2.76-1.43-4.29-1.39
		c-5.12,0.12-10.07-0.12-14.94-2.25c-6.35-2.78-13.32-2.31-20.06-2.72c-6.34-0.38-12.59-0.9-18.14-4.26
		c-2.16-1.31-4.53-0.59-6.76-1.41c-5.75-2.13-11.01-5.29-16.79-7.43c-7.47-2.77-15.57-3.93-22.43-8.07
		c-2.98-1.8-7.95-0.31-9.01-5.29c-0.03-0.13-0.28-0.33-0.37-0.3c-6.32,1.74-8.31-5.38-13.38-6.6c-2.74-0.66-5.76-2.79-5.62-6.73
		c0.02-0.65,0.04-1.68-0.32-1.91c-7.39-4.56-2.75-11.65-3.38-17.47c-0.47-4.35,2.5-8.45,5.52-11.88c0.44-0.5,1.23-0.92,1.32-1.47
		c1.34-8.41,9.82-9.66,14.44-14.7c3.74-4.08,8.04-3.34,12.5-3.6c3.7-0.21,7.65,1.23,11.03-1.61c0.77-0.65,2.01-0.29,2.74,0.5
		c1.18,1.29,2.96,1.65,4.13,1.06c5.58-2.8,10.98,0.63,16.49,0.18c4.37-0.36,8.63-0.48,12.61,2.96c2.31,2,6.38,1.96,9.64,2.82
		c8.55,2.26,17.17,4.65,25.92,5.62c8.27,0.92,15.52,6.86,24.32,4.57c0.72-0.19,2.11,0.01,2.33,0.45c2.59,5.26,8.32,3.06,12.3,5.22
		c6.48,3.52,13.58,5.86,20.29,9.03c4,1.89,8.1,3.27,11.65,6.14c1.63,1.32,4.08,1.11,6.28,1.15c2.58,0.05,5.83-1.22,6.73,3.06
		c0.26,1.21,2,0.87,3.14,0.88c13.86,0.21,27.49,3.58,41.41,3.02c6.17,5.92,14.54,1.85,21.76,4.87c6.7,2.79,14.94,2.11,22.58,2.17
		c2.7,0.02,6.18-1.38,7.17,3.16c0.24,1.09,2.06,0.65,3.19,0.81c13.93,1.92,28.16,0.56,41.9,2.41c19.77,2.66,39.47,1.77,59.08,1.12
		c12.14-0.4,24.45-0.47,36.52-1.83c10-1.12,20.54-1.4,29.82-4.4c7.42-2.4,15.73,0.26,22.36-5.01c1.25-0.99,3.9-0.13,5.88-0.32
		c3.4-0.32,7.06,1.22,9.98-2.53c0.92-1.18,4.44-0.56,6.74-0.4c10.72,0.73,17.94-4.94,24.64-12.42c3.66-4.08,7.96-7.73,12.21-11.3
		c4.26-3.57,7.79-5.33,13.05-5.97c1.71-0.21,5.56-2.21,6.15-5.69c0.16-0.92,0.76-1.36,1.66-1.6c6.44-1.72,10.13-7.83,12.89-12.2
		c4.29-6.8,9.17-13.6,12.29-21.22c2.51-6.14,6.84-11.78,5.11-19.08c-0.29-1.23,0.23-2.65-1.43-3.37
		c-7.31-3.2-14.15-7.36-21.28-10.94c-3.52-1.77-6.52-6.2-9.82-7.84c-5.08-2.52-8.77-7.41-15.55-7.62
		c-19.98-0.6-40.29-0.14-59.82-3.35c-26.54-4.35-52.87-0.69-79.22-2.41c-1.98-0.13-3.82,0-5.59-1.47c-1.17-0.97-3.06-1.37-4.66-1.47
		c-7.11-0.47-14.45,0.21-21.31-1.32c-7.87-1.77-16.05-0.51-23.72-3.32c-2.95-1.08-6.56,0.35-9.25-1.45
		c-5.63-3.74-11.86-2.85-18-3.04c-0.48-0.01-1.29-0.1-1.38-0.36c-2.13-5.95-7.17-2.98-10.99-3.53c-2.41-0.35-4.94,0.34-7-1.75
		c-0.73-0.74-2.19-1.24-3.24-1.12c-8.44,0.9-16.47-1.79-24.45-3.46c-10.69-2.24-21.59-2.67-32.27-5.22
		c-10.14-2.43-20.3-5.95-31.25-4.72c-4.43,0.5-8.52-4.13-13.63-2.8c-6.47,1.68-11.87,0.35-16.19-5.25
		c-2.25-2.91-6.46-1.74-9.69-3.22c-7.03-3.23-14.47-5.48-21.47-8.97c-3.97-1.98-8.05-4.04-12.29-5.6c-0.61-0.23-1.43-0.37-1.76-0.83
		c-4.75-6.78-14.31-6.69-19.18-13.57c-1.58-2.23-6.63-1.6-5.87-6.38c0.04-0.22-0.35-0.72-0.57-0.74
		c-7.33-0.53-6.89-8.62-11.58-12.01c-2.97-2.15-3.91-6.54-3.66-10.89c0.41-6.97,0.34-14,0.02-20.99c-0.18-3.93,0.49-7.44,3.4-9.92
		c4.65-3.98,6.47-9.92,10.3-14.25c6-6.78,11.32-14.46,18.91-19.49c3.32-2.2,7.29-2.97,7.84-7.77c0.05-0.4,0.99-1,1.51-0.99
		c3.47,0.06,6.83,0.2,6.41-4.9c-0.07-0.87,1.12-1.01,1.93-1.24c0.78-0.22,1.62-0.49,2.24-0.98c5.79-4.5,11.27-9.36,17.37-13.53
		c6.28-4.29,12.02-9.37,19.52-11.55c1.96-0.57,2.68-2.15,2.54-3.82c-0.27-3.15-2.52-5.36-5.3-5.89c-5.43-1.05-10.19-3.44-15.22-5.42
		c-11.06-4.34-22.8-6.98-34.64-9.23c-7.21-1.37-14.79,0.14-21.75-3.21c-2.19-1.05-5.26-0.17-7.9-0.39
		c-2.84-0.23-6.61,1.57-7.62-3.22c-0.07-0.34-1.16-0.72-1.73-0.67c-6.44,0.56-10.91-2.53-14.46-7.53c-0.29-0.41-1.22-0.55-1.84-0.5
		c-3.38,0.23-5.06-1.91-6.6-4.44c-2.45-4.05-6.57-6.28-8.27-11.75c-2.18-6.99-3.76-10.25,0.73-17.29c1.61-2.52,0.62-5.53,0.68-8.3
		c0.06-2.56,0.1-4.74,2.59-6.5c2.59-1.83,2.97-5.38,4.8-7.87c3.58-4.87,8.31-8.2,14.01-10.28c1.28-0.47,2.23-1.92,3.27-2.98
		c0.69-0.7,1.13-1.96,1.91-2.19c6.92-2.06,12.34-7.55,19.71-8.53c1.47-5.1,8.5-2.21,10.24-7.12c0.42-1.18,2.07-0.77,3.2-0.8
		c1.98-0.05,4.12,0.36,4.51-2.58c0.16-1.23,1.36-1.15,2.31-1.44c7.81-2.44,15.58-4.98,21.59-10.96c0.64-0.64,1.36-1.19,2.17-0.97
		c5.4,1.49,8.97-2.49,13.16-4.46c1.84-0.87,3.49-1.81,5.6-1.64c0.64,0.05,1.81-0.01,1.89-0.27c1.04-3.51,5-2.74,6.65-4.38
		c5.58-5.54,14.53-5.62,19.12-12.45c0.95-1.41,2.52-2.33,4.15-2.61c2.1-0.37,3.42-1.05,3.2-3.46c-0.14-1.48,0.63-2.16,2.04-2.91
		c3.33-1.77,2.61-5.01,0.81-7.03c-1.88-2.11-4.93-3.15-7.37-4.81c-3.49-2.38-7.5-3.53-11.22-5.24c-4.02-1.84-8.49-2.34-12.24-4.73
		c-5.78-3.69-12.8-4.55-18.63-8.04c-2.07-1.24-3.95-1.92-6.35-2.14c-4.11-0.37-6.12-4.57-9.92-5.97c-5.01-1.85-9.63-4.74-14.92-5.96
		c-0.32-0.07-0.86-0.03-0.94-0.21c-3.06-6.35-8.84-2.93-13.42-3.72c-5.02-0.87-9.25-3.75-13.98-5.4
		c-6.15-2.14-11.58-5.65-18.75-4.96c-2.95,0.28-7.15-0.66-9.78-4.05c-2.25-2.9-7.5-2.11-9.5,0.91c-18.27-23.04-40.93-40-68.85-49.67
		c3.97-0.67,5.86-2.77,5.03-6.97c-0.4-1.99,0.95-3.55,2.64-3.55c5.24,0,6.92-10.03,13.76-4.86c3.24,2.45,7.38,2.25,10.84,4.23
		c6.2,3.54,13.04,5.78,19.56,8.68c2.2,0.98,4.2,1.58,6.47,1.71c-0.48,2.38-0.69,4.86,1.95,6.01c2.56,1.11,4.83,0.21,6.46-2.11
		c3.59-0.5,6.57,1.48,9.2,3.18c3.97,2.56,9.06,2.71,12.45,5.2c4.77,3.5,10.32,3.68,15.32,5.82c7.56,3.25,15.6,5.53,23.46,8.11
		c5.11,1.68,11.47-0.01,15.48,5.14c0.45,0.58,1.87,0.57,2.83,0.53c4.55-0.18,8.43,1.09,12.7,3.04c4.79,2.19,10.4,3.81,16.17,3.08
		c2.64-0.33,5.86-0.95,7.02,2.93c0.13,0.44,1.12,0.99,1.59,0.89c5.3-1.03,9.97,2.36,15.15,2.11c0.83-0.04,2.13-0.27,2.42,0.14
		c3.25,4.6,8.9,3.15,13.13,5.31c4.96,2.53,10.38,4.15,15.99,4.45c2.17,0.12,3.95,0.9,5.49,2c5.81,4.16,13.14,4.02,19.56,6.99
		c6.15,2.85,13.24,5.4,20.23,7.13c5.85,1.45,11.99,3.69,16.55,6.79c3.46,2.35,7.29,1.6,9.57,3.48c6.16,5.09,15.13,5.58,19.8,13.11
		c3.57,5.75,7.09,11.66,10.87,17.09c4.27,6.15,4.89,12.37,5.04,18.73c0.15,6.43-2.7,13.56-6.94,17.47
		c-5.48,5.06-12.79,9.27-21.18,9.29c-5.53,0.01-10.65,1.86-15.82,3.46c-3.75,1.16-7.61,0.33-11.41,0.52
		c-1.99,0.1-4.04-0.27-4.77,2.41c-0.27,1.01-1.33,1.66-2.37,1.51c-6.84-0.99-13.28,1.76-19.96,2.08c-3.58,0.17-7.45-0.81-9.76,3.28
		c-0.28,0.5-1.53,0.8-2.25,0.68c-5.63-0.95-10.71,2.16-16.2,2.09c-0.33,0-0.75-0.04-0.98,0.13c-6.46,4.74-14.39,5.48-21.67,8.01
		c-0.94,0.33-1.3,0.95-1.3,1.86c0.01,1.54,1.05,1.8,2.33,1.98c9.28,1.3,18.55,2.88,27.96,1.97c8.83-0.86,17.2,3.38,26.05,2.1
		c0.58-0.08,1.7,0.22,1.78,0.55c1.35,5.08,5.45,3.21,8.58,3.33c5.49,0.21,11,0.01,16.5,0.08c3.21,0.04,6.71-0.96,9.1,2.46
		c0.34,0.48,1.56,0.52,2.36,0.48c7.66-0.38,15.41,0.31,22.82,1.37c10.63,1.53,21.71,0.98,31.84,6.58c3.95,2.18,7.55,7.19,13.52,5.23
		c1.28-0.42,7.95,8.68,8.03,10.36c0.12,2.33-0.92,5.19,2.86,5.85c1.16,0.2,1.1,1.53,1.1,2.52c0.03,3.33,0.01,6.67,0.01,10
		c0,1.37-0.03,2.73-1.79,3.09c-0.82,0.17-1.8,0.35-1.94,1.29c-1.58,10.98-10.92,16.44-17.87,22.98c-3.15,2.97-6.75,8-12.73,8
		c-2.2,0-2.91,2.97-4.52,4.37c-4.37,3.8-9.29,7.9-13.89,10.03c-5.46,2.53-6.25,10.87-13.94,9.95c-0.88-0.11-3.48,4.35-6.01,5.46
		c-4.62,2.02-5.47,5.21-5.61,9.92c-0.08,2.85-0.28,7.14-4.61,8.38c-0.37,0.11-0.81,0.67-0.88,1.08
		c-1.65,10.27-8.48,18.52-11.26,28.22c-2.26,7.9-7.01,15.44-5.04,24.34c0.45,2.02,0.29,3.52,2.9,4.34
		c4.18,1.31,7.76,4.39,11.44,6.48c5.19,2.95,9.95,4.97,15.72,5.27c0.89,0.05,1.72,0.42,1.84,1.36c0.33,2.52,2.05,2.64,4.01,2.58
		c8.47-0.22,16.64,3.24,25.2,2.04c0.74-0.1,2.15,0.22,2.25,0.6c1.25,4.81,5.1,3.27,8.11,3.3c11.5,0.11,23.06-0.71,34.48,0.24
		c14.48,1.2,28.84-0.87,43.26-0.21c3.65,0.17,7.73-1,10.03,4.97c0.64-4.65,2.83-5.14,5.8-5.03c4.66,0.17,8.97-0.56,13.64-2.35
		c5.04-1.93,11.41-1.06,17.19-1.51c4.31-0.33,8.66-0.07,12.99-0.07c10.13,0,17.77,4.94,21.36,14.38c1.63,4.28,3.89,6.34,8.7,5.72
		c3.61-0.46,7.32-0.16,10.99-0.06c2.62,0.07,5.71-1.09,6.74,3.12c0.35,1.44,2.7,0.93,4.12,0.81c8.71-0.72,17.35,0.7,25.67,2.45
		c8.17,1.72,16.51,1.53,24.56,3.59c0.7,1,1.39,1.99,2.09,2.99c4.35,7.1,10.16,12.94,16.22,18.53c5.2,4.8,8.08,10.4,6.54,17.67
		c-0.21,0.99-1.39,1.98-0.11,3.05c3.58-3.63,4.58-10.04,2.4-15.1c-2.42-5.59-6.42-9.98-10.61-14.28
		C1009.94,601.12,1007.09,599.61,1006.42,596.38z M540.27,797.66c0.99,1.07,1.23,1.53,1.61,1.73c12.35,6.42,25.34,11.47,38.5,15.73
		c17.17,5.56,35.1,8.21,52.87,11.32c19.21,3.36,38.6,5.62,57.69,9.83c10.8,2.38,21.96,3.02,32.89,4.65
		c18.88,2.8,37.82,4.52,56.82,5.22c10.88,0.4,21.81-1.39,32.73-2.06c8.53-0.52,17.28-0.43,25.61-2.84
		c18.33-5.31,37-8.72,55.92-11.18c4.9-0.64,9.98,0.18,15.35-1.36c-3.62-2.6-7.16-2.73-10.57-2.24c-19.11,2.73-38.41,3.87-57.11,9.67
		c-17.99,5.58-37.05,4.8-55.66,5.99c-19.38,1.24-38.72-1.44-57.97-3.86c-9.35-1.17-18.86-1.52-28.05-3.45
		c-22.36-4.69-44.98-7.69-67.47-11.53c-17.41-2.97-35.07-4.92-51.84-11.02c-10.1-3.67-20.57-6.33-30.3-11.06
		C548.12,799.65,545.05,797.5,540.27,797.66z M1039.9,745.12c5.07-1.3,9.95-2.45,14.77-3.81c18.08-5.1,35.56-11.59,50.8-22.97
		c5.17-3.86,10.23-7.88,15.3-11.88c1.01-0.8,2.42-1.94,1.3-3.27c-1.14-1.35-2.36,0.25-3.45,0.77c-0.58,0.27-1,0.87-1.49,1.31
		c-9.31,8.33-19.94,14.83-30.94,20.44c-13.81,7.05-28.54,12.05-43.39,16.58C1041.54,742.67,1040.09,742.6,1039.9,745.12z
		 M1054.19,639.47c3.01-0.04,7.78-3.95,7.94-6.5c0.19-3-5.16-7.61-8.8-7.59c-4.05,0.03-6.96,3.03-6.79,7
		C1046.72,636.24,1050.26,639.53,1054.19,639.47z M1062.14,772.46c3.67-0.07,6.02-2.1,6.01-5.17c-0.02-3.59-2.88-6.05-7.1-5.97
		c-3.22,0.06-6.05,0.93-6.33,4.78C1054.48,769.58,1058.05,772.54,1062.14,772.46z M683.39,306.11c0.1,2.59,1.78,4.82,5.36,4.99
		c3.82,0.18,5.46-2.51,5.43-5.73c-0.03-3.33-2.22-5.7-5.71-5.66C685.2,299.75,683.33,301.75,683.39,306.11z M845.16,574.91
		c-0.34-2.79-1.61-4.49-4.43-4.56c-2.81-0.07-4.9,1.04-5.23,4.05c-0.3,2.76,1.37,4.61,3.93,4.73
		C842.22,579.26,844.43,577.76,845.16,574.91z M551.99,542.35c2.08,0.04,4.02-0.09,3.83-2.37c-0.21-2.58-2.02-4.12-4.6-4.41
		c-1.89-0.21-3.45,0.69-3.47,2.65C547.73,541.06,549.72,542.15,551.99,542.35z M711.15,446.16c1.59-0.5,3.16-1.13,3.33-3.08
		c0.14-1.52-0.68-2.67-2.29-2.54c-1.76,0.14-3.14,1.2-3.46,3.01C708.44,445.23,709.79,445.74,711.15,446.16z M648.32,227.55
		c-0.03-1.41-0.82-2.05-2.16-2.15c-1.18-0.09-1.94,0.51-2.1,1.6c-0.2,1.33,0.46,2.22,1.84,2.36
		C647.22,229.51,648.12,228.97,648.32,227.55z M558.67,388.14c1.33,0.11,1.81-0.67,1.81-1.78c0-1.12,0.11-2.51-1.31-2.83
		c-1.49-0.33-1.93,0.89-2.15,2.07C556.77,386.96,557.44,387.77,558.67,388.14z M574.84,220.21c0.1-1.14-0.32-1.78-1.28-1.89
		c-1-0.11-2.08-0.05-2.42,1.12c-0.35,1.2,0.36,1.87,1.5,1.97C573.66,221.51,574.62,221.3,574.84,220.21z"/>
	<path class="st2" d="M523.51,855.36c4.81,3.65,9.59,7.34,14.43,10.95c23.43,17.49,49.08,30.81,76.4,41.16
		c21.92,8.3,44.4,14.61,67.31,19.28c14.58,2.97,29.36,4.88,44.14,6.75c26.45,3.34,52.98,4.46,79.55,3.65
		c18.85-0.58,37.69-1.86,56.46-4.47c16.1-2.25,32.08-5.12,47.88-8.63c16.61-3.69,33.06-8.24,49.36-13.28
		c17.77-5.49,35.1-12.11,52.07-19.6c15.03-6.63,29.62-14.2,43.75-22.64c16.42-9.81,32.13-20.65,46.66-33.02
		c9.58-8.16,18.72-16.89,26.91-26.56c10-11.81,19.09-24.24,26.21-37.98c7.91-15.25,13.6-31.26,16-48.43
		c1.21-8.66,0.62-17.26,0.8-25.89c0.08-4.07,0.94-7.5,5.53-8.09c3.54-0.45,5.99,3.16,6.61,7.75c2.18,16.01,0.9,31.79-3.02,47.37
		c-4.58,18.2-12.81,34.71-23.09,50.38c-10.73,16.37-23.72,30.74-38.14,43.76c-18.28,16.51-38.42,30.54-59.92,42.61
		c-14.77,8.29-29.88,15.96-45.49,22.42c-22.82,9.43-46.24,17.22-70.21,23.37c-21.69,5.57-43.6,10.07-65.78,12.79
		c-12.63,1.55-25.45,2.23-38.09,3.65c-25.11,2.83-50.2,1.64-75.29,1.48c-16.53-0.1-33.02-2.25-49.44-4.59
		c-20.52-2.93-40.86-6.68-60.81-12.31c-41.58-11.72-80.71-28.76-115.17-55.26c-5.94-4.57-12.04-9.3-16.52-15.54
		C522.92,856.08,523.22,855.72,523.51,855.36z"/>
	<path class="st2" d="M460.51,729.29c0.22-0.73,0.82-1.46-0.42-1.97c-14.26-5.85-26.47-14.84-38.94-23.77
		c-12.84-9.2-25.96-17.79-36.6-29.64c-9.02-10.05-17.94-20.24-21.85-33.47c-3.94-13.32-8.25-26.72-7.06-40.9
		c0.45-5.39,0.84-11.17,5.72-15.27c0.46,0.69,0.84,1.06,0.78,1.18c-5.01,8.85-4.41,18.33-2.37,27.63
		c2.42,11.01,5.47,21.93,10.69,32.04c2.67,5.17,6.02,9.95,10.05,14.15c11.02,11.47,21.33,23.64,35.86,31.25
		c6.24,3.27,11.74,8.07,17.26,12.56c12.81,10.42,27.5,17.13,43,22.28c10.04,3.34,20.38,5.92,29.39,12.69
		c-3.7-0.36-7.42-0.57-11.1-1.11c-7.88-1.17-15.54-3.36-23.23-5.35c-1.54-0.4-3.18-1.11-4.86-0.39c0.03-0.37,0.23-0.55,0.59-0.55
		c-0.33-1.32-0.73-0.41-1.11-0.03C464.6,729.14,462.5,729.45,460.51,729.29z"/>
	<path class="st2" d="M764.89,895.99c5.05-1.91,9.98-0.34,14.58,0.56c9.9,1.94,19.84,2.23,29.76,1.67
		c14.86-0.84,29.69-2.31,44.51-3.73c12.51-1.2,24.98-2.97,37.5-4c12.46-1.03,24.53-3.76,36.47-7.2
		c15.43-4.45,31.35-7.37,46.17-13.73c16.66-7.16,33.55-13.47,51.24-17.56c3.96-0.92,8-1.54,11.93-3.11
		c-2.28,4.23-6.29,6.16-10.34,7.4c-13.82,4.25-27.56,8.83-40.67,14.88c-16.58,7.65-34.41,10.66-51.81,15.32
		c-8.48,2.27-16.81,5.19-25.56,6.29c-10.33,1.29-20.7,2.28-31.03,3.61c-13.47,1.73-26.99,2.78-40.52,3.82
		c-5.45,0.42-10.9,0.25-16.38,1.01c-16.26,2.23-32.37,0.62-48.31-3.05c-1.29-0.3-2.59-0.53-3.88-0.8
		C767.37,897.1,765.87,897.93,764.89,895.99z"/>
	<path class="st2" d="M997.53,593.34c-0.7-1-1.39-1.99-2.09-2.99c-1.76-8.33-1.75-16.74-0.86-25.14c0.83-7.84-2.58-13.99-6.75-20.25
		c-8.88-13.34-21.46-21.33-36.12-26.73c-3.27-1.2-6.41-2.73-9.59-4.18c-0.98-0.45-2.61-0.67-2.12-2.23c0.48-1.53,2.01-1.68,3.36-1.3
		c2.24,0.62,4.5,1.27,6.62,2.19c6.86,2.98,14.13,5.35,20.39,9.3c14.26,8.99,25.35,20.97,28.7,38.15c0.98,5.04-0.34,10.53-0.61,15.82
		c-0.29,5.69,0.3,11.22,3,16.37C1000.26,593.04,998.97,593.48,997.53,593.34z"/>
	<path class="st3" d="M997.53,593.34c1.44,0.15,2.73-0.29,3.95-1c2.2,0.67,2.13,4.13,4.95,4.04c0.67,3.22,3.51,4.74,5.55,6.83
		c4.19,4.3,8.19,8.69,10.61,14.28c2.19,5.05,1.18,11.47-2.4,15.1c-1.28-1.07-0.1-2.06,0.11-3.05c1.53-7.27-1.34-12.87-6.54-17.67
		C1007.69,606.27,1001.88,600.44,997.53,593.34z"/>
	<path class="st4" d="M474.24,168.33c-1.63,2.32-3.9,3.22-6.46,2.11c-2.64-1.15-2.43-3.63-1.95-6.01
		C471.12,161.23,473.61,162.39,474.24,168.33z"/>
	<path class="st4" d="M637.2,860.37c0.06-0.15,0.12-0.31,0.19-0.45c1.34-2.85,2.88-6.61,6.48-5.29c4.08,1.49,0.61,5.02,0.52,7.66
		c-0.26,0.05-0.52,0.09-0.78,0.13c-1.27-2.64-3.79-1.74-5.87-2.07l-0.26,0.15L637.2,860.37z"/>
	<path class="st4" d="M813.14,449.45c1.45,0.12,2.35,0.75,2.43,2.08c0.08,1.58-0.88,2.41-2.38,2.44c-1.29,0.03-2.19-0.66-2.28-2.02
		C810.8,450.32,811.93,449.75,813.14,449.45z"/>
	<path class="st4" d="M744.46,260.57c-0.17,1.43-1.16,1.96-2.41,2.01c-1.36,0.06-2.25-0.69-2.24-2.07c0.02-1.61,0.99-2.35,2.6-2.23
		C743.84,258.38,744.43,259.22,744.46,260.57z"/>
	<path class="st4" d="M386.11,494.23c-1.32-0.22-2.07-0.98-1.85-2.34c0.17-1.1,0.96-1.67,2.09-1.57c1.4,0.12,2.05,1.02,1.87,2.31
		C388.08,493.71,387.23,494.23,386.11,494.23z"/>
	<path class="st3" d="M540.27,797.66c4.78-0.16,7.84,1.99,11.03,3.54c9.73,4.72,20.2,7.38,30.3,11.06
		c16.77,6.1,34.42,8.05,51.84,11.02c22.49,3.84,45.11,6.84,67.47,11.53c9.19,1.93,18.7,2.27,28.05,3.45
		c19.26,2.42,38.6,5.09,57.97,3.86c18.61-1.19,37.67-0.41,55.66-5.99c18.7-5.8,38-6.94,57.11-9.67c3.41-0.49,6.95-0.36,10.57,2.24
		c-5.37,1.54-10.45,0.72-15.35,1.36c-18.92,2.46-37.59,5.87-55.92,11.18c-8.34,2.41-17.08,2.32-25.61,2.84
		c-10.92,0.67-21.85,2.45-32.73,2.06c-19-0.69-37.94-2.42-56.82-5.22c-10.93-1.62-22.09-2.26-32.89-4.65
		c-19.09-4.21-38.48-6.46-57.69-9.83c-17.78-3.11-35.71-5.76-52.87-11.32c-13.16-4.26-26.15-9.31-38.5-15.73
		C541.51,799.19,541.26,798.73,540.27,797.66z"/>
	<path class="st3" d="M1039.9,745.12c0.19-2.52,1.64-2.45,2.9-2.83c14.84-4.53,29.58-9.53,43.39-16.58
		c11-5.61,21.63-12.11,30.94-20.44c0.5-0.44,0.92-1.04,1.49-1.31c1.1-0.52,2.32-2.11,3.45-0.77c1.12,1.32-0.29,2.47-1.3,3.27
		c-5.07,4-10.13,8.02-15.3,11.88c-15.24,11.38-32.72,17.87-50.8,22.97C1049.84,742.67,1044.97,743.82,1039.9,745.12z"/>
	<path class="st4" d="M1054.19,639.47c-3.93,0.06-7.48-3.23-7.64-7.09c-0.17-3.97,2.74-6.97,6.79-7c3.64-0.03,8.99,4.59,8.8,7.59
		C1061.97,635.52,1057.2,639.43,1054.19,639.47z"/>
	<path class="st4" d="M1062.14,772.46c-4.09,0.08-7.67-2.88-7.41-6.36c0.28-3.86,3.11-4.72,6.33-4.78c4.22-0.08,7.08,2.38,7.1,5.97
		C1068.17,770.36,1065.81,772.39,1062.14,772.46z"/>
	<path class="st4" d="M683.39,306.11c-0.06-4.35,1.81-6.36,5.07-6.4c3.5-0.04,5.68,2.33,5.71,5.66c0.03,3.22-1.61,5.91-5.43,5.73
		C685.17,310.93,683.48,308.7,683.39,306.11z"/>
	<path class="st4" d="M845.16,574.91c-0.73,2.85-2.93,4.35-5.73,4.22c-2.55-0.12-4.22-1.96-3.93-4.73c0.32-3.01,2.41-4.12,5.23-4.05
		C843.55,570.42,844.81,572.12,845.16,574.91z"/>
	<path class="st4" d="M551.99,542.35c-2.26-0.2-4.26-1.29-4.24-4.13c0.02-1.96,1.58-2.86,3.47-2.65c2.59,0.29,4.39,1.83,4.6,4.41
		C556,542.26,554.07,542.39,551.99,542.35z"/>
	<path class="st4" d="M711.15,446.16c-1.36-0.42-2.72-0.93-2.42-2.61c0.33-1.81,1.7-2.86,3.46-3.01c1.61-0.13,2.42,1.02,2.29,2.54
		C714.31,445.03,712.74,445.67,711.15,446.16z"/>
	<path class="st4" d="M648.32,227.56c-0.21,1.41-1.1,1.95-2.42,1.81c-1.38-0.14-2.04-1.04-1.84-2.36c0.17-1.09,0.92-1.69,2.1-1.6
		C647.5,225.5,648.29,226.15,648.32,227.56z"/>
	<path class="st4" d="M558.67,388.14c-1.23-0.38-1.9-1.19-1.65-2.54c0.22-1.18,0.66-2.4,2.15-2.07c1.42,0.32,1.31,1.7,1.31,2.83
		C560.48,387.48,560,388.25,558.67,388.14z"/>
	<path class="st4" d="M574.84,220.21c-0.22,1.08-1.19,1.29-2.21,1.21c-1.14-0.1-1.85-0.77-1.5-1.97c0.35-1.18,1.42-1.24,2.42-1.12
		C574.53,218.44,574.94,219.08,574.84,220.21z"/>
	<path class="st0" d="M467.4,730.65c-0.37-0.01-0.74-0.02-1.11-0.03C466.67,730.24,467.06,729.33,467.4,730.65z"/>
</g>
</svg>
