<?xml version="1.0" encoding="utf-8"?>
<!-- Generator: Adobe Illustrator 26.0.3, SVG Export Plug-In . SVG Version: 6.00 Build 0)  -->
<svg version="1.1" id="Layer_1" xmlns="http://www.w3.org/2000/svg" xmlns:xlink="http://www.w3.org/1999/xlink" x="0px" y="0px"
	 viewBox="0 0 1513.41 715.41" style="enable-background:new 0 0 1513.41 715.41;" xml:space="preserve">
<style type="text/css">
	.st0{fill:#34337C;}
	.st1{fill:#7B83AF;}
	.st2{fill:#402669;}
	.st3{fill:#797DAA;}
</style>
<g>
	<path class="st0" d="M1334.69,531.46c-0.66,0.25-1.33,0.5-1.99,0.74c-1.06-0.22-1.72,0.23-2.06,1.23c-0.6,0.26-1.2,0.51-1.8,0.77
		c-7.89,5.15-15.79,10.29-23.68,15.44c0,0-0.35,0.13-0.35,0.13c-6.19,1.43-11.56,4.84-17.35,7.23c-5.16,2.13-10.71,3.75-14.16,8.7
		c0,0-0.44,0.3-0.44,0.3c-1.11-0.05-1.71,0.54-1.98,1.56c0,0-0.09,0.06-0.09,0.06c-3.63,1.39-7.1,3.08-10.07,5.64
		c-0.63,0.24-1.26,0.47-1.89,0.71c-3.06,0.42-5.91,1.35-8.28,3.43l-0.97-0.02c0,0-0.82,0.51-0.82,0.51
		c-2.12-0.32-3.85,0.49-5.39,1.86c0,0-0.57,0.12-0.57,0.12c-2.17-0.31-4.05,0.33-5.68,1.77c0,0-0.35,0.08-0.35,0.08
		c-2.23-0.2-4.37-0.02-6.05,1.72c0,0-0.05-0.01-0.05-0.01c-6.73,0.43-13.35,1.4-19.56,4.23c0,0-0.32,0.07-0.32,0.07
		c-8,1.93-15.99,3.86-23.99,5.79c-0.68,0.1-1.36,0.21-2.04,0.31c-2.2-0.42-4.03,0.29-5.56,1.87c0,0-0.42,0.11-0.41,0.11
		c-2.15-0.22-4.03,0.35-5.63,1.83c-0.82,0.13-1.64,0.27-2.46,0.4c-2.74-0.21-5.52-0.54-7.82,1.51c-11.95,2.89-24.47,4.36-35.71,8.98
		c-18.2,7.48-37.56,7.92-56.28,12.05c-6.19,1.37-12.34,2.69-18.16,5.26c-1.76,0.78-3.57,2.33-5.48,0.61
		c-2.19-1.99-2.67-4.5-1.44-7.26c0.94-2.11,1.88-4.22,3.08-6.92c-7.21-0.01-13.54,1.83-19.95,3.09
		c-14.68,2.89-29.39,5.64-43.99,8.91c-7.56,1.69-15.21,1.6-22.81,2.33c-18.88,1.83-37.9,1.95-56.68,4.9
		c-1.32,0.21-2.87,0.02-3.91,0.66c-11.57,7.17-24.51,4.42-36.9,5.03c-44.55,2.2-89.08,5.08-133.74,4.33
		c-27.99-0.47-55.83-2.55-83.69-5.12c-46.24-4.26-91.07-15.6-136.14-25.79c-13.3-3.01-26.26-7.45-38.79-12.81
		c-12.89-5.52-26.25-9.48-39.59-13.58c-2.22-0.68-4.61-1.68-6.79-1.44c-9.74,1.1-18.32-2.72-26.87-6.19
		c-11.7-4.74-23.21-9.92-35.58-12.82c-27.03-6.33-51.37-19.94-77.51-28.68c-3.12-1.04-5.79-3.32-9.24-3.52
		c-8.42-4.96-16.82-9.97-25.85-13.81c-0.2-0.55-0.57-0.73-1.12-0.55c-4.3-3.31-8.2-7.44-14.58-5.76c-2.36,0.62-4.3-1.1-6.17-2.41
		c-2.64-1.85-4.7-4.5-7.87-5.6c-0.38-1.11-1.15-1.75-2.3-1.94c-5.28-5.53-11.08-10.4-17.82-14.08c0,0-0.02,0.01-0.01,0.01
		c-0.26-1.12-0.98-1.68-2.12-1.76c0,0-0.16-0.12-0.16-0.12c-2.49-4.39-6.76-6.71-10.56-9.73c-4.06-3.22-4.91,0.42-6.98,1.85
		c0,0-0.39,0.05-0.39,0.05c-0.58-0.29-1.19-0.44-1.84-0.44c0.01-1.78,0.01-3.57,0.02-5.35c7.66-9.89,18.5-15.86,28.39-22.99
		c0.79,0.01,1.28-0.37,1.46-1.13c6.6-2.68,12.89-5.96,18.81-9.93c0.53,0.21,0.92,0.06,1.16-0.47c9.81-3.72,19.41-7.87,28.16-13.75
		c0.6-0.24,1.21-0.48,1.81-0.72c11.06-5.03,21.41-11.37,31.95-17.36c0,0,0.13-0.05,0.13-0.05c3.62-0.62,6.96-1.92,9.97-4.04
		c1.65,0.04,3.18-0.3,4.44-1.45c0,0,0.83,0.2,0.83,0.2l0.61-0.65c0,0,0.18-0.05,0.18-0.05c5.53-0.5,10.83-1.88,15.93-4.07
		c1.4-0.26,2.81-0.52,4.21-0.77c1.45,0.35,2.62-0.18,3.67-1.13c1.42-0.23,2.83-0.45,4.25-0.68c1.54,0.34,2.8-0.21,3.9-1.25
		c0.67-0.11,1.34-0.23,2.02-0.34c2.23,0.32,4.25-0.16,5.98-1.64c0,0,0.06-0.01,0.06-0.01c8.2-0.94,16.05-3.29,23.79-6.06
		c0.7-0.1,1.4-0.2,2.1-0.3c10.7-1.83,21.56-2.78,32.05-5.76c2.14,0.29,4.21,0.09,6.18-0.84c1.48,0.41,2.71-0.08,3.8-1.06
		c2.15,0.19,4.25,0.03,6.21-0.99c1.42,0.35,2.6-0.13,3.65-1.07c0.7-0.11,1.41-0.21,2.11-0.32c1.3-0.12,2.65-0.07,3.9-0.4
		c23.43-6.11,47.25-9.27,71.47-9.52c4.28-0.04,8.6-0.16,12.66-1.84c0.68-0.06,1.36-0.12,2.04-0.18c2.86,0.4,5.54,0.01,7.95-1.68
		c1.37-0.23,2.75-0.46,4.12-0.69c6.71-1.04,13.25-2.73,19.48-5.46c0.84-0.17,1.68-0.34,2.51-0.51c2.01,0.29,3.73-0.47,5.35-1.53
		c0.87-0.14,1.74-0.29,2.6-0.43c8.69-1.62,17.53-2.53,25.93-5.51c1.39-0.23,2.77-0.46,4.16-0.7c1.48,0.33,2.69-0.22,3.75-1.21
		c0,0,0.15-0.03,0.15-0.03c2.85,0.28,5.49-0.25,7.83-1.98c0.7-0.12,1.4-0.23,2.1-0.35c5.99-0.99,12.06-1.61,17.82-3.72
		c1.44-0.15,2.87-0.3,4.31-0.45c17.89-1.49,35.8-2.76,53.56-5.54c1.46-0.08,2.92-0.15,4.37-0.23c9.28,0.51,18.47-0.42,27.63-1.77
		c2.81-0.16,5.62-0.31,8.44-0.47c14.55-0.5,29.1-1,43.65-1.5c4.14,0.57,8.25,0.25,12.34-0.47c20.63-0.3,41.27-1.74,61.89,0.27
		c0.76,0.06,1.53,0.13,2.29,0.19c13.79,2.88,27.81,4.07,41.76,5.78c0.72,0.08,1.43,0.16,2.15,0.24c1.74,1.14,3.6,1.78,5.72,1.39
		c1.4,0.22,2.8,0.44,4.2,0.66c1.06,0.97,2.27,1.5,3.74,1.17c1.38,0.26,2.76,0.52,4.14,0.77c3.69,2.3,7.91,2.8,12.05,3.58
		c0.71,0.14,1.43,0.28,2.14,0.41c1.69,1.42,3.61,2.1,5.84,1.79c0,0,0.41,0.09,0.41,0.09c1.66,1.13,3.41,1.96,5.49,1.66
		c0.77,0.15,1.54,0.29,2.32,0.44c1.01,0.97,2.14,1.55,3.59,1.19c1.39,0.27,2.77,0.53,4.16,0.8c1.17,0.98,2.47,1.58,4.05,1.29
		c1.36,0.26,2.73,0.51,4.09,0.77c2.35,1.68,4.98,2.24,7.82,1.98c0,0,0.14,0.03,0.14,0.03c5.71,2.75,11.86,4.07,17.95,5.58
		c2.44,1.28,4.86,2.65,7.76,2.53c15.99,7.59,32.93,12.17,50.16,15.83c0,0,0.19,0.05,0.19,0.05c0,0,0.61,0.67,0.61,0.67l0.85-0.17
		c1.24,1.16,2.74,1.52,4.39,1.49c13.35,6.63,26.69,13.25,40.04,19.88c1,1.3,2.26,2.13,3.95,2.18c4.72,3.91,10.23,6.2,16.09,7.75
		c0,0,0.34,0.11,0.34,0.11c0,0,0.43,0.59,0.43,0.59l0.66-0.21c1.18,1.32,2.72,1.79,4.43,1.88c3.68,2.64,7.69,4.57,12.05,5.8
		c0,0,0.12,0.06,0.12,0.06c17.89,10.76,35.76,21.54,53.7,32.21c1.65,0.98,3.72,1.47,5.66,1.7c11.52,1.38,23.06,2.62,34.6,3.9
		c0,0,0.28,0.05,0.28,0.05c1.7,1.11,3.51,1.81,5.58,1.51c0.82,0.17,1.65,0.34,2.47,0.51c15.16,5.87,29.97,12.39,43.12,22.25
		c3.63,2.72,7.58,5.43,12.41,5.95c2.43,2.12,5.25,3.37,8.44,3.81c7.27,4.45,15.15,7.07,23.65,7.83c0.7,0.08,1.39,0.17,2.09,0.25
		c3.77,1.9,7.78,1.82,11.83,1.44c1.36,0.12,2.71,0.24,4.07,0.36c6.54,2.04,13.34,2.57,20.08,3.49c1.99,0.47,3.97,0.94,5.96,1.41
		c4.66,2.33,9.31,2.24,13.97-0.03c2.69-0.36,5.38-0.73,8.07-1.09c1.97,0.05,3.94,0.09,5.92,0.14c0.39,0.49,0.88,0.66,1.49,0.52
		c2.77,7.26,2.08,9.34-4.33,10.83c-3.86,0.9-7.93,0.85-11.87,1.46c-2.12,0.33-4.96,0.01-5.07,3.46c-0.46,0.44-0.59,0.96-0.38,1.56
		c-1.05,0.47-1.56,1.32-1.7,2.43c0,0-0.14,0.15-0.14,0.15c-1.07,0.14-1.76,0.71-2.03,1.78c0,0-0.06,0.04-0.06,0.04
		C1345.06,525.54,1339.52,527.78,1334.69,531.46z M888.89,417.57c-1.18-1.32-2.79-1.61-4.41-2.06c-11.5-3.2-23.07-6.21-34.45-9.83
		c-17.41-5.54-34.19-12.74-51.09-19.69c-33.41-13.74-68.27-16.34-103.58-9.28c-18.85,3.77-37.82,8.08-54.57,18.15
		c-10.05,6.04-20.77,10.36-31.49,14.84c-4.54-1.99-8.79-4.53-14.15-4.2c-6.31,0.39-12.66,0.06-18.99,0.09
		c-15.17,0.09-30.01-0.36-44.77,6.17c-9.98,4.42-21.46,6.54-31.51,10.95c-19.68,8.64-40.44,14.1-60.3,22.12
		c-8.75,3.54-16.89,9.39-26.94,9.35c-17.54,9.1-36.55,14.55-54.77,21.94c-9.45,3.83-18.97,7.42-28.69,10.65
		c-14.71,4.89-28.49,12.42-43.45,16.85c-1.88,0.56-2.61,1.87-2.9,3.61c-2.57-1.51-5.3-2.81-7.68-4.57
		c-7.58-5.62-8.73-13.11-2.99-20.77c2.98-3.99,6.69-7.34,10.73-10.37c21.86-16.41,46.67-26.95,72.24-35.62
		c41.64-14.11,84.24-24.08,128.07-28.77c7.89-0.84,15.97-0.56,23.73-2.61c2.83-0.75,6.19-1.25,5.96-5.41
		c-0.24-4.34-3.21-5.47-6.89-5.47c-7.65-0.01-15.21,0.81-22.83,1.61c-32.45,3.43-64.37,9.45-95.76,18.28
		c-30.52,8.58-60.2,19.31-88,34.78c-12.05,6.71-22.99,14.84-31.66,25.6c-10.01,12.42-10.45,28.51,6.96,37.57
		c13.89,7.23,28.95,9.44,44.35,9.96c1.86,0.06,4.11,0,4.22-3.38c-7.59-4.04-16.93-1.94-24.55-6.17c0.73-0.65,1.44-1.83,2.21-1.87
		c11.69-0.69,21.92-6.75,33.16-9.4c9.38-2.21,18.97-5.29,28.49-7.82c6.75-1.79,13.01-5.49,19.57-6.62
		c6.23-1.07,12.11-2.01,17.67-5.07c1.68-0.92,3.82-0.98,5.73-1.5c13.64-3.69,27.53-6.68,40.83-11.35
		c8.38-2.94,16.92-5.74,25.35-8.09c12.32-3.43,24.22-8.69,37.09-10.13c9.54-1.1,19.11,0.32,28.74-1.48
		c16.4-3.07,32.04-8.02,47.06-15.15c2.11,4.64,6.28,4.08,10.3,4.21c15.25,0.48,30.51-0.93,45.79,1.66
		c5.77,0.98,11.66,2.69,17.69,2.3c16.99-1.08,33.75,3.26,50.74,2.04c0.66-0.05,1.37-0.09,1.99,0.09c18.75,5.18,38.2,4.04,57.27,5.38
		c21.47,1.52,42.98,2.41,64.48,4.19c21.77,1.8,43.61,1.27,65.53,3.47c22.28,2.24,45.04,3.31,67.66,2.85
		c11.15-0.23,21.83,2.54,31.84,6.99c6.31,2.81,12.87,4.83,19.33,6.83c14.15,4.37,27.85,10.28,42.55,12.92
		c2.47,0.45,5.48,1.6,6.16,4.51c0.73,3.14-2.09,4.57-4.17,6.17c-0.52,0.4-1.18,0.61-1.75,0.96c-8.69,5.41-16.15,12.21-23.33,19.51
		c-8.79,8.93-18.58,15.24-32.44,14.34c-15.54-1-31.06-3.4-46.74-2.39c-2.2,0.14-4.59-0.76-6.71-1.63
		c-10.04-4.12-21.83-2.78-30.88-9.95c-6.63,0.86-12.02-2.82-17.92-4.75c-10.67-3.48-20.38-9.17-30.85-13.22
		c-7.7-2.99-15.39-5.95-23.36-8.02c-3.16-0.82-6.71-0.69-9.62-2.27c-9.17-4.98-19.59-5.18-29.34-7.92
		c-14.95-4.2-30.25-7.17-45.34-10.9c-2.62-0.65-5.14-1.21-7.83-1.21c-22,0.01-44-0.01-65.99,0.05c-1.96,0.01-4.36-0.15-5.81,0.85
		c-7.04,4.87-15.41,3.98-23.03,4.75c-14.86,1.49-30.04,2.78-43.92,7.32c-11.79,3.85-24.67-0.13-35.41,7
		c-14.33,0.03-28.09,3.87-41.87,6.98c-6.58,1.48-13.37-0.5-19.68,2.38c-5.9,2.7-12.22,2.91-18.59,2.7c-2.66-0.09-5.86-0.8-7.89,0.38
		c-8.76,5.08-18.7,3.36-27.94,5.5c-2.88,0.66-6.31-0.14-6.58,4.22c-0.25,4.04-0.67,8.21,4.54,9.77c1.59,0.48,3.11,1.45,4.71,1.59
		c6.55,0.56,9.82,3.64,11.13,10.43c1.18,6.14,4.85,11.66,9.63,16c12.56,11.41,27.21,19.4,42.39,26.78
		c5.29,2.57,12.01,3.32,15.52,9.11c-7.44-0.1-14.26-2.69-21.08-5.29c-8.97-3.43-17.66-7.65-27.23-9.46
		c-8.52-1.61-16.58-4.7-24.48-8.26c-12.11-5.47-25.12-7.55-38.44-10.72c1.73,4.27,5.17,4.32,7.84,4.96
		c23.32,5.59,44.69,16.63,67.49,23.85c16.07,5.09,31.79,10.77,48.36,14.53c25.2,5.72,50.48,7.48,76.11,6.79
		c3.75-0.1,7.43-0.03,9.29-4.17c8.72,1.54,16.85,5.07,25.67,6.77c14.61,2.82,28.84,7.85,43.71,9.98c0.64,0.09,1.24,0.47,1.85,0.73
		c8.3,3.51,17.2,4.49,25.96,5.87c11.55,1.82,23.29-7.62,24.84-19.2c1.3-9.69-6.29-15.92-16.8-17.08
		c-11.49-1.27-22.17-5.3-33.41-7.08c-2.36-0.37-3.49-1.61-3.79-3.84c0.33-0.03,0.66-0.08,0.99-0.1c26-1.18,51.6,3.98,77.46,5.12
		c6.73,0.29,13.11-1.44,19.71-1.71c1.49-0.06,3.21-1.18,2.89-3.29c-0.26-1.7-1.86-1.77-3.11-1.89c-8.26-0.82-16.55-1.37-24.79-2.35
		c-10.9-1.29-22-0.86-32.73-2.57c-12.53-1.99-24.97-2.98-37.63-3.31c-19.65-0.52-39.19,1.79-58.8,1.63
		c-0.31-2.29-1.64-3.23-3.92-3.74c-13.59-3.05-27.46-4.93-41.22-5.57c-12.6-0.59-25.18-1.48-37.71-2.6
		c-9.17-0.82-18.35-2.83-27.31-4.73c-7.8-1.66-15.49-5.33-23.27-8.03c-5.27-1.83-10.11-4.95-15.01-7.7
		c-1.79-1.01-2.83-3.05-2.63-5.07c0.2-2.05,2.2-2.01,3.87-2.22c14.79-1.83,29.74-1.53,44.52-3.82c6.46-1,13.27,0.43,19.13-3.84
		c0.91-0.66,2.63-0.5,3.92-0.31c19.28,2.79,37.24-5.42,56.08-6.73c17.11-1.19,33.97-5.47,51.27-5.31c4.71,0.04,9.05-1.27,13.58-2.31
		c15.37-3.53,31.06-1.5,46.64-1.18c9.34,6.11,20.71,5.4,30.91,9c8.21,2.9,16.38,7.58,25.69,7.01c14.07,7.45,30.18,8.47,44.83,14.83
		c13.82,6,27.33,12.78,41.13,18.81c11.25,4.91,22.88,8.98,34.29,12.99c10.21,3.58,20.74,7.95,32.4,7.82
		c9.82-0.11,19.56,3.1,29.55,3.02c9-0.07,18.03-0.46,26.99,0.13c8.64,0.56,16.67-1.28,23.98-5.25c5.21-2.83,12.29-3.17,15.77-7.17
		c7.88-9.08,17.42-16.14,26.11-24.19c7.06-6.53,14.58-12.56,21.83-18.88c1.26-1.1,2.37-2.17,4.11-2.57
		c9.78-2.26,17.25-7.16,24.46-14.81c5.66-6.01,8.5-11.12,8.05-18.76c4.51,2.11,9.19,3.94,13.5,6.4
		c14.06,8.04,29.24,12.44,45.12,15.09c10.46,1.74,20.91,3.8,30.93,7.49c4.15,1.52,8.7,3.02,8.41,8.41
		c-0.28,5.2-2.77,9.59-7.84,11.87c-1.81,0.81-3.8,1.69-5.71,1.71c-15.49,0.15-29.39,8.41-44.86,8.62c-2.95,0.04-5.29,1.66-5.36,4.81
		c-0.09,3.8,2.65,5.15,5.97,5.17c5.64,0.05,11.19-0.11,16.84-1.24c9.13-1.82,17.38-6.69,26.95-6.94
		c12.27-0.32,19.43-7.58,23.12-18.68c3.01-9.03,0.93-14.39-7.43-19.34c-4.29-2.54-8.73-4.86-13.72-5.83
		c-12.38-2.39-24.39-6.39-36.88-8.34c-4.55-0.71-9.15-2.03-13.33-3.93c-29.67-13.52-58.33-28.95-86.44-45.47
		c-21.48-12.62-42.95-25.47-66.28-34.5c-14.86-5.75-30.16-10.33-45.24-15.51c-12.26-4.21-24.47-8.54-36.7-12.83
		c-2.69-0.95-5.4-2.5-7.99,0.2c0.41,0.82,0.54,1.68,0.97,1.87c19.16,8.46,38.14,17.49,58.01,24.09
		c29.26,9.72,56.1,24.07,82.14,40.22c-2.65-0.05-5.56,0.6-7.92-0.26c-11.01-3.99-21.78-8.55-33.28-11.27
		c-10.16-2.41-19.25-8.67-30.19-8.56c-1.24,0.01-2.64-0.59-3.71-1.3c-6.77-4.46-14.32-4.38-22.04-4.55
		c-18.22-0.4-36.52,1.78-54.66-1.77c-2.74-0.54-6.05-0.98-8.41,1.71C901.91,421.66,895.77,417.68,888.89,417.57z M803.46,598.34
		c5.8,2.03,10.17,3.08,14.84,3.09c30.26,0.05,60.51,0.13,90.72,2.27c4.64,0.33,9.36-0.3,13.97,0.21
		c23.81,2.67,47.75,2.28,71.63,3.31c10.94,0.47,21.89-0.55,32.84-1.07c11.4-0.54,21.29-4.24,31.16-9.17
		c10.37-5.18,19.66-12.57,31.18-15.42c2.72-0.67,5.6-1.97,4.88-5.19c-0.93-4.14-4.71-2.9-7.47-2.44c-2.58,0.43-5.1,1.49-7.53,2.55
		c-4.87,2.13-9.63,4.48-14.13,7.38c-14.84,9.58-30.72,14.75-48.85,13.86c-25.88-1.27-51.82-0.63-77.76-1.5
		C894.44,594.73,849.83,594.29,803.46,598.34z"/>
	<path class="st1" d="M1360.81,502.26c-4.65,2.27-9.31,2.35-13.97,0.03C1351.5,501.8,1356.15,501.63,1360.81,502.26z"/>
	<path class="st2" d="M546.9,585.4c-3.51-5.79-10.23-6.54-15.52-9.11c-15.18-7.38-29.84-15.37-42.39-26.78
		c-4.78-4.34-8.45-9.86-9.63-16c-1.31-6.79-4.58-9.87-11.13-10.43c-1.6-0.14-3.12-1.11-4.71-1.59c-5.21-1.56-4.79-5.73-4.54-9.77
		c0.27-4.36,3.7-3.55,6.58-4.22c9.24-2.13,19.18-0.41,27.94-5.5c2.03-1.18,5.24-0.47,7.89-0.38c6.37,0.22,12.69,0,18.59-2.7
		c6.3-2.88,13.1-0.9,19.68-2.38c13.79-3.11,27.54-6.96,41.87-6.98c10.74-7.14,23.62-3.15,35.41-7c13.88-4.54,29.06-5.83,43.92-7.32
		c7.62-0.77,15.99,0.13,23.03-4.75c1.45-1,3.85-0.85,5.81-0.85c22-0.06,44-0.03,65.99-0.05c2.68,0,5.21,0.57,7.83,1.21
		c15.09,3.72,30.39,6.7,45.34,10.9c9.75,2.74,20.18,2.93,29.34,7.92c2.91,1.58,6.46,1.46,9.62,2.27c7.97,2.06,15.66,5.03,23.36,8.02
		c10.46,4.06,20.18,9.74,30.85,13.22c5.9,1.93,11.3,5.6,17.92,4.75c9.04,7.17,20.84,5.83,30.88,9.95c2.12,0.87,4.51,1.77,6.71,1.63
		c15.67-1,31.19,1.39,46.74,2.39c13.86,0.89,23.66-5.41,32.44-14.34c7.18-7.3,14.64-14.1,23.33-19.51c0.56-0.35,1.22-0.56,1.75-0.96
		c2.09-1.59,4.9-3.03,4.17-6.17c-0.67-2.91-3.68-4.07-6.16-4.51c-14.7-2.65-28.4-8.55-42.55-12.92c-6.46-2-13.02-4.02-19.33-6.83
		c-10.01-4.45-20.69-7.22-31.84-6.99c-22.62,0.46-45.39-0.62-67.66-2.85c-21.92-2.2-43.76-1.67-65.53-3.47
		c-21.5-1.78-43.01-2.67-64.48-4.19c-19.07-1.35-38.52-0.2-57.27-5.38c-0.63-0.17-1.33-0.13-1.99-0.09
		c-16.99,1.22-33.76-3.13-50.74-2.04c-6.03,0.38-11.92-1.32-17.69-2.3c-15.28-2.59-30.54-1.18-45.79-1.66
		c-4.01-0.13-8.18,0.43-10.29-4.21c20.05-9.34,40.1-18.68,60.14-28.02c0.32,3.43,2.55,4.17,5.56,4.2
		c13.22,0.13,26.45,1.27,39.61,1.59c39.42,0.98,78.88,0.1,118.28,2.41c6.9,0.41,13.93-1.04,20.7,1.6c1.68,0.66,3.15-0.5,4.05-2.08
		c8.22,1.11,15.41,5.94,23.77,6.54c9.48,2.93,18.97,5.79,28.42,8.8c17.54,5.58,35.71,7.33,53.91,8.9c2.97,0.26,6.01,0.2,8.97-0.1
		c3.02-0.31,4.74-2.24,4.83-5.36c0.09-3.13-1.69-5.04-4.52-5.75c-1.91-0.48-3.99-0.22-5.94-0.56c-11.12-1.97-22.58-1.1-33.56-4.15
		c2.36-2.69,5.66-2.25,8.41-1.71c18.14,3.56,36.44,1.37,54.66,1.77c7.72,0.17,15.27,0.09,22.04,4.55c1.07,0.71,2.47,1.31,3.71,1.3
		c10.94-0.1,20.03,6.15,30.19,8.56c11.49,2.73,22.26,7.28,33.28,11.27c2.36,0.86,5.27,0.21,7.92,0.26
		c5.22,2.86,10.42,5.73,15.65,8.56c16.86,9.1,32.71,20.03,50.15,28.1c0.45,7.64-2.39,12.75-8.05,18.76
		c-7.21,7.65-14.68,12.56-24.46,14.81c-1.75,0.4-2.85,1.47-4.11,2.57c-7.25,6.33-14.77,12.35-21.83,18.88
		c-8.69,8.05-18.23,15.1-26.11,24.19c-3.47,4-10.56,4.34-15.77,7.17c-7.31,3.97-15.34,5.81-23.98,5.25
		c-8.96-0.59-17.99-0.2-26.99-0.13c-9.99,0.08-19.74-3.13-29.55-3.02c-11.66,0.13-22.2-4.24-32.4-7.82
		c-11.41-4.01-23.04-8.09-34.29-12.99c-13.81-6.02-27.31-12.81-41.13-18.81c-14.65-6.36-30.77-7.38-44.83-14.83
		c-9.32,0.58-17.48-4.11-25.69-7.01c-10.2-3.6-21.57-2.9-30.91-9c-15.58-0.33-31.27-2.35-46.64,1.18
		c-4.54,1.04-8.88,2.35-13.58,2.31c-17.3-0.16-34.16,4.13-51.27,5.31c-18.84,1.31-36.8,9.51-56.08,6.73
		c-1.29-0.19-3.01-0.35-3.92,0.31c-5.86,4.27-12.67,2.83-19.13,3.84c-14.78,2.29-29.73,1.99-44.52,3.82
		c-1.67,0.21-3.67,0.16-3.87,2.22c-0.2,2.02,0.84,4.07,2.63,5.07c4.91,2.76,9.75,5.88,15.01,7.7c7.78,2.7,15.46,6.37,23.27,8.03
		c8.96,1.9,18.15,3.91,27.31,4.73c12.53,1.12,25.11,2.01,37.71,2.6c13.77,0.64,27.64,2.52,41.22,5.57c2.28,0.51,3.6,1.45,3.92,3.75
		c-11.76,0.79-23.67,0.85-34.56,5.86c0.08,0.87,0.16,1.74,0.24,2.61c30.11,0,60.23,0,90.34,0c0.3,2.23,1.43,3.47,3.79,3.84
		c11.24,1.79,21.93,5.82,33.41,7.08c10.51,1.16,18.09,7.4,16.8,17.08c-1.55,11.59-13.3,21.02-24.84,19.2
		c-8.76-1.38-17.66-2.37-25.96-5.87c-0.61-0.26-1.21-0.64-1.85-0.73c-14.87-2.12-29.11-7.16-43.71-9.98
		c-8.82-1.7-16.95-5.23-25.67-6.77c-0.83-1.48-1.96-3.31-3.63-2.95c-10.94,2.34-21.64-1.67-32.54-0.97
		c-7.56,0.48-15.12-0.39-22.65-1.84C573,589.37,559.92,587.52,546.9,585.4z"/>
	<path class="st2" d="M508.85,450.04c-12.87,1.44-24.77,6.69-37.09,10.13c-8.43,2.35-16.97,5.15-25.35,8.09
		c-13.3,4.67-27.19,7.66-40.83,11.35c-1.91,0.52-4.05,0.58-5.73,1.5c-5.56,3.05-11.44,4-17.67,5.07
		c-6.57,1.13-12.83,4.83-19.57,6.62c-9.52,2.52-19.11,5.6-28.49,7.82c-11.23,2.65-21.46,8.7-33.16,9.4
		c-0.77,0.05-1.47,1.22-2.21,1.87c-5.84,0.3-10.73-2.66-15.91-4.64c0.3-1.74,1.02-3.05,2.9-3.61c14.96-4.43,28.74-11.96,43.45-16.85
		c9.71-3.23,19.24-6.81,28.69-10.65c18.23-7.39,37.23-12.85,54.77-21.94c10.05,0.04,18.19-5.81,26.94-9.35
		c19.86-8.02,40.62-13.48,60.3-22.12c10.05-4.42,21.54-6.53,31.51-10.95c14.75-6.53,29.6-6.08,44.77-6.17
		c6.33-0.04,12.68,0.3,18.99-0.09c5.37-0.34,9.62,2.21,14.15,4.2c-11.57,8.01-24.9,12.48-37.44,18.51
		c-19.93,9.58-41.07,15.01-63.31,15.31c-11.3,0.15-22.6-0.08-33.71,2.46c-1.69,0.39-4.19-0.12-3.78,4.06
		C483.62,450.04,496.23,450.04,508.85,450.04z"/>
	<path class="st1" d="M508.85,450.04c-12.62,0-25.23,0-37.78,0c-0.42-4.18,2.09-3.68,3.78-4.06c11.11-2.54,22.42-2.31,33.71-2.46
		c22.25-0.29,43.38-5.72,63.31-15.31c12.54-6.03,25.87-10.5,37.44-18.51c10.72-4.48,21.44-8.8,31.49-14.84
		c16.75-10.07,35.72-14.38,54.57-18.15c35.31-7.06,70.18-4.46,103.58,9.28c16.9,6.95,33.68,14.15,51.09,19.69
		c11.37,3.62,22.94,6.63,34.45,9.83c1.62,0.45,3.23,0.74,4.41,2.06c-5.66,0.62-11.1,1.77-17.05,0.32
		c-4.8-1.16-10.35-1.23-15.09,1.76c-8.36-0.6-15.55-5.43-23.77-6.54c-5.74-4.26-12.91-5.02-19.23-7.91
		c-19.02-8.72-38.31-16.54-59.4-19c-10.21-1.19-20.35-3.55-30.65-2.19c-11.8,1.56-23.72,2.96-35.24,5.83
		c-15,3.73-30.7,5.94-43.67,15.54c-20.05,9.34-40.09,18.68-60.14,28.02c-15.02,7.13-30.67,12.08-47.06,15.15
		C527.96,450.36,518.38,448.95,508.85,450.04z"/>
	<path class="st1" d="M1134.86,484.1c-17.44-8.07-33.29-19-50.15-28.1c-5.23-2.83-10.44-5.7-15.65-8.56
		c-26.03-16.15-52.88-30.5-82.13-40.22c-19.87-6.6-38.85-15.63-58.01-24.09c-0.43-0.19-0.56-1.05-0.97-1.87
		c2.59-2.7,5.29-1.15,7.99-0.2c12.23,4.29,24.45,8.61,36.7,12.83c15.08,5.18,30.39,9.76,45.24,15.51
		c23.33,9.03,44.79,21.88,66.28,34.5c28.12,16.52,56.78,31.95,86.44,45.47c4.18,1.91,8.78,3.22,13.33,3.93
		c12.5,1.95,24.5,5.95,36.88,8.34c4.99,0.96,9.43,3.29,13.72,5.83c8.36,4.95,10.44,10.31,7.43,19.34
		c-3.7,11.1-10.86,18.37-23.12,18.68c-9.57,0.25-17.82,5.12-26.95,6.94c-5.65,1.13-11.21,1.29-16.84,1.24
		c-3.32-0.03-6.06-1.37-5.97-5.17c0.07-3.15,2.41-4.77,5.36-4.81c15.47-0.21,29.37-8.48,44.86-8.62c1.91-0.02,3.91-0.9,5.71-1.71
		c5.06-2.28,7.56-6.67,7.84-11.87c0.29-5.39-4.26-6.89-8.41-8.41c-10.03-3.68-20.47-5.74-30.93-7.49
		c-15.88-2.65-31.06-7.05-45.12-15.09C1144.04,488.03,1139.37,486.21,1134.86,484.1z"/>
	<path class="st1" d="M282.84,507.24c5.18,1.98,10.07,4.94,15.91,4.64c7.62,4.23,16.96,2.13,24.55,6.17
		c-0.1,3.38-2.36,3.44-4.22,3.38c-15.4-0.52-30.45-2.73-44.35-9.96c-17.42-9.06-16.98-25.15-6.96-37.57
		c8.67-10.76,19.61-18.89,31.66-25.6c27.81-15.47,57.48-26.2,88-34.78c31.39-8.83,63.3-14.85,95.76-18.28
		c7.62-0.81,15.18-1.62,22.83-1.61c3.68,0.01,6.65,1.13,6.89,5.47c0.23,4.16-3.13,4.67-5.96,5.41c-7.76,2.05-15.84,1.76-23.73,2.61
		c-43.83,4.69-86.44,14.66-128.07,28.77c-25.58,8.67-50.38,19.21-72.24,35.62c-4.04,3.04-7.75,6.38-10.73,10.37
		c-5.73,7.67-4.59,15.15,2.99,20.77C277.54,504.44,280.27,505.73,282.84,507.24z"/>
	<path class="st1" d="M803.46,598.34c46.37-4.05,90.98-3.61,135.48-2.11c25.94,0.87,51.88,0.23,77.76,1.5
		c18.13,0.89,34-4.28,48.85-13.86c4.5-2.91,9.26-5.25,14.13-7.38c2.43-1.06,4.95-2.12,7.53-2.55c2.76-0.46,6.54-1.7,7.47,2.44
		c0.73,3.22-2.16,4.52-4.88,5.19c-11.53,2.86-20.81,10.24-31.18,15.42c-9.87,4.93-19.76,8.63-31.16,9.17
		c-10.95,0.52-21.9,1.54-32.84,1.07c-23.88-1.03-47.82-0.65-71.63-3.31c-4.61-0.52-9.33,0.12-13.97-0.21
		c-30.21-2.15-60.46-2.22-90.72-2.27C813.63,601.42,809.26,600.38,803.46,598.34z"/>
	<path class="st3" d="M712.81,573.75c-30.11,0-60.23,0-90.34,0c-0.08-0.87-0.16-1.74-0.24-2.61c10.89-5,22.8-5.07,34.56-5.86
		c19.62,0.16,39.15-2.15,58.8-1.63c12.65,0.33,25.09,1.32,37.63,3.31c10.73,1.7,21.84,1.28,32.73,2.57
		c8.24,0.98,16.53,1.53,24.79,2.35c1.25,0.12,2.85,0.19,3.11,1.89c0.32,2.11-1.39,3.23-2.89,3.29c-6.59,0.27-12.98,2.01-19.71,1.71
		c-25.86-1.13-51.45-6.3-77.46-5.12C713.47,573.67,713.14,573.72,712.81,573.75z"/>
	<path class="st1" d="M546.9,585.4c13.02,2.12,26.1,3.97,39.05,6.46c7.53,1.45,15.09,2.33,22.65,1.84c10.9-0.7,21.6,3.31,32.54,0.97
		c1.67-0.36,2.8,1.47,3.63,2.95c-1.86,4.15-5.54,4.07-9.29,4.17c-25.64,0.69-50.91-1.07-76.11-6.79
		c-16.57-3.76-32.29-9.44-48.36-14.53c-22.79-7.22-44.17-18.26-67.49-23.85c-2.67-0.64-6.11-0.69-7.84-4.96
		c13.33,3.17,26.33,5.25,38.44,10.72c7.89,3.56,15.96,6.65,24.48,8.26c9.57,1.81,18.25,6.02,27.23,9.46
		C532.64,582.71,539.46,585.29,546.9,585.4z"/>
	<path class="st3" d="M856.75,419.66c4.74-3,10.29-2.93,15.09-1.76c5.94,1.44,11.39,0.3,17.05-0.32c6.88,0.11,13.02,4.09,19.97,3.86
		c10.98,3.04,22.45,2.17,33.56,4.15c1.95,0.35,4.04,0.08,5.94,0.56c2.83,0.72,4.61,2.62,4.52,5.75c-0.09,3.12-1.81,5.06-4.83,5.36
		c-2.97,0.3-6,0.36-8.97,0.1c-18.2-1.57-36.37-3.32-53.91-8.9C875.73,425.45,866.23,422.58,856.75,419.66z"/>
	<path class="st0" d="M644.79,405.38c12.97-9.6,28.67-11.81,43.67-15.54c11.52-2.87,23.43-4.27,35.24-5.83
		c10.3-1.36,20.44,1,30.65,2.19c21.09,2.46,40.39,10.28,59.4,19c6.32,2.9,13.5,3.65,19.23,7.91c-0.9,1.58-2.37,2.74-4.05,2.08
		c-6.77-2.65-13.8-1.2-20.7-1.6c-39.4-2.31-78.86-1.44-118.28-2.41c-13.15-0.33-26.38-1.47-39.61-1.59
		C647.34,409.56,645.11,408.81,644.79,405.38z"/>
</g>
</svg>
