<?xml version="1.0" encoding="utf-8"?>
<!-- Generator: Adobe Illustrator 26.0.3, SVG Export Plug-In . SVG Version: 6.00 Build 0)  -->
<svg version="1.1" id="Layer_1" xmlns="http://www.w3.org/2000/svg" xmlns:xlink="http://www.w3.org/1999/xlink" x="0px" y="0px"
	 viewBox="0 0 792 612" style="enable-background:new 0 0 792 612;" xml:space="preserve">
<style type="text/css">
	.st0{fill:#1B5677;}
	.st1{fill:#2F4B79;}
	.st2{fill:#26255F;}
	.st3{fill:#1A5678;}
	.st4{fill:#38A38B;}
</style>
<g>
	<path class="st0" d="M584.41,108.84c1.27,2.53,0.21,5.27,0.71,7.86c-0.04,3.45-0.12,6.9-0.09,10.35c0.01,1.53-0.59,3.46,1.82,3.94
		c0.05,7.33,0.11,14.65,0.14,21.98c0,1.12,0.29,2.38-0.95,3.14c-0.14-0.08-0.28-0.2-0.43-0.21c-0.12-0.01-0.36,0.11-0.37,0.18
		c-0.06,3.05-0.1,6.1-0.14,9.15c-0.09,4.63,0.23,9.31-1.22,13.82c-1.47,1.54-0.84,3.46-0.85,5.21c-0.05,14.56-0.03,29.12-0.03,43.67
		c0,29.19-0.03,58.39,0.02,87.58c0.02,12.15,0.42,24.28,0.8,36.42c0.97,31.77-1.73,63.54-0.88,95.34c0.03,1.25-0.67,2.52-1.03,3.78
		c-1.33,1.19-0.89,2.78-0.89,4.22c0,23.62,0.02,47.24,0.04,70.86c-1.26,12.06-6,22.55-15.27,30.39c-4.39,3.71-9.91,5.18-16.11,4.02
		c-3.72-0.69-7.75,0.27-11.63,0.48c-49.39-0.01-98.78-0.03-148.18,0.02c-1.75,0-4.22-1.1-4.86,1.96c-45.67,0-91.33,0-137,0
		c-8.48-2.2-16.4-5.55-22.52-12.05c-8.9-9.47-15.23-20.84-15.11-33.69c0.1-11.83-5.2-22.65-3.78-34.69
		c1.37-11.67,0.39-23.62,0.41-35.45c0.02-12,0-24,0.01-35.99c0-11.83-0.41-23.68,0.1-35.49c1.22-27.98,0.19-55.99,1.09-83.95
		c0.57-17.82-0.42-35.72,1.14-53.42c1.24-14.02-3.14-27-4-40.51c-0.79-12.42-0.95-24.92,0.25-37.37c0.48-4.92,0.93-9.85,1.43-14.77
		c0.16-1.58-0.65-3.37,0.95-4.66c1.99-2.12,0.67-4.7,0.99-7.06c1.04-7.08-0.94-13.54-4.03-19.78c-0.03-1.84-0.05-3.68-0.08-5.52
		c1.46-11.69,4.78-23.37,11.94-32.23c8.1-10.02,19.62-16.65,33.15-18.44c11.72-1.55,23.39-1.33,35.07,0.21
		c1.17,1.3,2.7,0.74,4.1,0.8c5.22-0.01,10.44-0.02,15.66-0.04c4.06-0.26,8.22,0.99,12.18-0.77c7.88-2.13,15.94-0.72,23.9-1.2
		c9.2,0.02,18.41,0.07,27.61,0.03c1.53-0.01,3.37,0.68,4.41-1.25c1.62-1.3,3.52-0.69,5.28-0.7c11-0.06,22.03,0.58,32.98-0.15
		c22.45-1.5,44.93,0.15,67.32-1.1c21.48-1.2,42.92-0.23,64.37-0.77c1.48-0.04,3.03-0.26,4.2,1.04c2.5,1.92,5.37,0.57,8.05,0.93
		c8.22-0.2,13.85,4.86,17.8,10.8c4.86,7.33,10.37,14.8,10.14,24.44c-0.09,3.86,0.04,7.73,0.07,11.6
		C583.49,104.16,581.7,106.92,584.41,108.84z M476.96,542.01c4.48-0.05,8.86-0.99,13.36-1.11c18.79-0.5,37.53,1.3,56.31,1.09
		c12.28-0.14,21.23-9.44,21.45-21.7c0.09-5.35-1.06-10.56-1.06-15.86c-0.02-69.42-0.02-138.84,0.01-208.26
		c0-1.75-0.63-3.7,0.94-5.21c1.47-1.1,1.01-2.71,1.01-4.15c0.02-32.77,0.02-65.54-0.04-98.31c0-0.78,1.04-2.33-0.97-2.44
		c-1.52-1.52-1.02-3.47-0.91-5.21c0.57-9.89,1.45-19.77,1.91-29.67c1.03-22.43-1.64-44.55-6.02-66.5c-0.6-3-2.3-4.99-5.08-6.28
		c-12.02-5.58-23.87-11.7-37.85-9.42c-0.97,0.16-1.99,0.03-2.99,0.04c-9.12-0.01-18.24-0.04-27.36,0.01
		c-1.58,0.01-3.37-0.59-4.63,1.01c-1.5,1.56-3.44,0.92-5.18,0.93c-10.94,0.06-21.88,0.04-32.82,0.05
		c-13.62-0.01-27.24-0.04-40.86,0.02c-1.73,0.01-3.7-0.7-5.14,1c-0.74,0.32-1.48,0.91-2.21,0.91c-33.94-0.15-67.91,1.01-101.82-1.16
		c-7.69-0.49-15.47-0.9-23.16-2.49c-13.57-2.81-26.35-0.26-37.85,7.72c-2.89,2-5.56,4.31-6.8,7.75
		c-5.16,14.24-6.18,29.19-5.92,44.04c0.2,11.72,1.55,23.48,1.65,35.24c0.24,30.65,0.09,61.3,0.09,91.95
		c0.01,16.01,0.01,32.02,0.02,48.03c-0.03,43.66-0.05,87.33-0.08,130.99c-3.02,0.69-1.89,3.14-1.9,4.88
		c-0.07,19.72-0.03,39.43-0.03,59.15c0.33,10.14,3.56,19.48,8.22,28.32c4.43,8.41,10.64,14.9,20.82,15.58
		c5.62,0.38,11.29,0.09,16.94,0.11c0.53,2.76,2.75,1.9,4.39,1.92c7.3,0.08,14.61,0.1,21.91,0c1.9-0.02,4.02,0.79,5.65-0.96
		c6.52-1.93,13.16-1.27,19.7-0.51c6.81,0.79,13.57,0.51,20.35,0.32c15.66-0.45,31.27-2.92,46.97-0.81c27.93,0,55.87,0.02,83.8-0.02
		C473.53,542.97,475.49,543.66,476.96,542.01z"/>
	<path class="st1" d="M385,563c0.64-3.05,3.11-1.95,4.86-1.96c49.39-0.05,98.78-0.03,148.18-0.02c-1.6,1.85-3.75,0.96-5.62,0.96
		c-46.97,0.06-93.93,0.03-140.9,0.1c-1.82,0-3.95-0.99-5.52,0.91C385.67,563,385.33,563,385,563z"/>
	<path class="st1" d="M581.06,526.13c-0.02-23.62-0.05-47.24-0.04-70.86c0-1.44-0.44-3.03,0.89-4.22c0.04,24,0.09,47.99,0.1,71.99
		C582.01,524.12,582.44,525.42,581.06,526.13z"/>
	<path class="st1" d="M583,227.92c0-14.56-0.02-29.12,0.03-43.67c0.01-1.75-0.63-3.67,0.85-5.21c0.05,15.24,0.1,30.49,0.16,45.73
		C584.04,225.95,584.08,227.12,583,227.92z"/>
	<path class="st1" d="M372.89,55.72c-1.04,1.92-2.88,1.24-4.41,1.25c-9.2,0.04-18.4-0.01-27.61-0.03c1.62-1.79,3.74-0.9,5.62-0.94
		C355.29,55.83,364.09,55.8,372.89,55.72z"/>
	<path class="st1" d="M586.85,130.99c-2.41-0.47-1.81-2.4-1.82-3.94c-0.03-3.45,0.05-6.9,0.09-10.35
		C586.95,121.31,585.49,126.32,586.85,130.99z"/>
	<path class="st1" d="M316.97,58.14c-3.97,1.76-8.12,0.51-12.18,0.77C308.74,56.91,312.9,58.32,316.97,58.14z"/>
	<path class="st1" d="M585.1,165.22c0.04-3.05,0.08-6.1,0.14-9.15c0-0.07,0.24-0.19,0.37-0.18c0.15,0.01,0.29,0.14,0.43,0.21
		C585.56,159.13,587.1,162.36,585.1,165.22z"/>
	<path class="st1" d="M555.09,54.96c-2.68-0.36-5.55,1-8.05-0.93C549.72,54.36,552.6,52.98,555.09,54.96z"/>
	<path class="st1" d="M208.96,133.91c-0.32,2.35,1,4.94-0.99,7.06C208.38,138.62,206.97,136.03,208.96,133.91z"/>
	<path class="st1" d="M584.41,108.84c-2.71-1.92-0.92-4.68-1.32-7.03C585.18,103.84,583.3,106.62,584.41,108.84z"/>
	<path class="st1" d="M204.85,108.6c0.03,1.84,0.05,3.68,0.08,5.52C203.31,112.31,203.54,110.46,204.85,108.6z"/>
	<path class="st1" d="M289.12,58.94c-1.41-0.06-2.94,0.5-4.1-0.8C286.43,58.16,288.03,57.24,289.12,58.94z"/>
	<path class="st2" d="M224.95,435.01c0.03-43.66,0.05-87.33,0.08-130.99c1.03-0.85,0.96-2.03,0.96-3.19c0-13.89,0-27.77-0.01-41.66
		c0-1.15,0.07-2.34-0.97-3.18c0-30.65,0.15-61.3-0.09-91.95c-0.09-11.75-1.44-23.51-1.65-35.24c-0.26-14.84,0.76-29.8,5.92-44.04
		c1.25-3.44,3.91-5.74,6.8-7.75c11.5-7.98,24.28-10.53,37.85-7.72c7.69,1.59,15.47,2,23.16,2.49c33.9,2.17,67.87,1.01,101.82,1.16
		c0.74,0,1.48-0.59,2.21-0.91c13.61-0.01,27.21,0,40.82-0.06c1.75-0.01,3.69,0.61,5.18-0.96c10.94-0.01,21.88,0.02,32.82-0.05
		c1.75-0.01,3.68,0.64,5.18-0.93c8.77-0.01,17.55,0.02,26.32-0.07c1.9-0.02,4.01,0.74,5.66-0.94c1-0.01,2.02,0.12,2.99-0.04
		c13.97-2.28,25.83,3.85,37.85,9.42c2.79,1.29,4.48,3.28,5.08,6.28c4.39,21.95,7.05,44.07,6.02,66.5
		c-0.46,9.9-1.34,19.78-1.91,29.67c-0.1,1.74-0.61,3.69,0.92,5.21c0,34.97,0,69.93,0,104.9c-1.56,1.5-0.94,3.45-0.94,5.21
		c-0.03,69.42-0.03,138.84-0.01,208.26c0,5.3,1.15,10.51,1.06,15.86c-0.21,12.26-9.17,21.56-21.45,21.7
		c-18.78,0.21-37.52-1.59-56.31-1.09c-4.5,0.12-8.89,1.06-13.36,1.11c-27.93,0-55.86-0.02-83.79,0.02c-1.75,0-3.7-0.64-5.18,0.96
		c-15.7-2.11-31.32,0.36-46.97,0.81c-6.78,0.2-13.55,0.48-20.35-0.32c-6.54-0.76-13.18-1.41-19.7,0.51
		c-10.65-0.27-21.35,0.73-31.96-0.96c-5.65-0.01-11.31,0.27-16.94-0.11c-10.19-0.68-16.39-7.17-20.82-15.58
		c-4.66-8.84-7.89-18.18-8.22-28.32c1.69-1.67,0.89-3.78,0.95-5.7C224.55,473.9,222.89,454.42,224.95,435.01z M374.99,80.98
		c-9.82,0.01-19.63,0-29.45,0.02c-4.99,0.01-10-0.18-14.97,0.14c-13.12,0.84-26.14,1.24-39.35,0.17
		c-16.33-1.33-32.8-0.33-49.13,1.71c-2.32,0.29-3.11,1.61-3.07,3.72c0.26,14.93-0.87,29.81-2.08,44.67
		c-0.93,11.37,2.09,22.42,2.07,33.69c-0.03,21.63-0.02,43.26-0.03,64.89c-1.56,1.5-0.94,3.45-0.94,5.2
		c-0.03,59.55-0.03,119.09,0,178.64c0,1.75-0.63,3.7,0.94,5.2c0.01,11.48-0.04,22.95,0.05,34.43c0.03,4.37,2.08,8.06,5.14,10.95
		c2.37,2.24,5.07,2.23,7.25-0.71c0.14-0.2,0.93,0.05,1.4,0.14c7.94,1.53,15.91,2.84,23.98,3.63c10.17,0.99,20.3,2.5,30.48,3.44
		c3.65,0.34,7.05-1.21,9.75-3.88c2.37-0.68,4.75-1.1,7.26-1.06c8.23,0.11,16.46,0.06,24.69,0.07c1.5,1.58,3.45,0.93,5.2,0.93
		c51.22,0.03,102.44,0.03,153.66,0c1.75,0,3.7,0.62,5.21-0.93c11.31-0.02,22.62-0.04,33.93-0.06c0.69,0,1.38-0.01,2.07-0.01
		c0.34-0.31,0.68-0.63,1.02-0.94c2.52-1.52,3.73-3.92,5.04-6.49c2.74-5.36,1.64-10.98,1.93-16.52c1.22-0.99,0.98-2.38,0.98-3.68
		c0.01-16.56,0.01-33.12,0-49.68c0-1.3,0.22-2.69-0.98-3.68c0-18.94,0.01-37.88-0.04-56.82c0-1.75,0.65-3.69-0.93-5.19
		c-0.01-15.94-0.01-31.88-0.07-47.82c-0.01-1.75,0.63-3.69-0.95-5.19c-0.01-19.73-0.05-39.45,0-59.18c0.01-2.68-0.27-5.27-1.05-7.81
		c0.01-10.78,0.04-21.56,0-32.33c0-1.6,0.52-3.36-0.95-4.69c0.22-4.13-0.29-8.24,0.53-12.41c2.43-12.33,1.5-24.8,1.03-37.23
		c-0.35-9.19-2.39-18.42,1.81-27.4c2.12-4.53,0.29-8.17-3.93-8.77c-4.09-0.58-8.23-1.05-12.35-1.08
		c-17.48-0.12-34.96-0.06-52.45-0.02c-1.61,0-3.37-0.51-4.73,0.91c-34.1,0.02-68.19,0.03-102.29,0.1
		C378.77,80.04,376.65,79.3,374.99,80.98z M426.2,500.04c-0.48-4.27,0.11-7.23-0.75-10.22c-3.94-13.76-16.22-19-30.34-16.32
		c-6.47,1.23-12.33,3.86-16.2,9.67c-10.76,16.13-8.59,30.62,2.46,44.47c9.66,12.12,25.13,10.41,33.12,1.46
		C422.29,520.38,425.68,510.19,426.2,500.04z"/>
	<path class="st1" d="M567.97,290.97c0-34.97,0-69.93,0-104.9c2.02,0.11,0.97,1.66,0.97,2.44c0.06,32.77,0.06,65.54,0.04,98.31
		C568.98,288.25,569.44,289.86,567.97,290.97z"/>
	<path class="st1" d="M387.99,542.99c1.48-1.6,3.43-0.96,5.18-0.96c27.93-0.04,55.86-0.02,83.79-0.02
		c-1.47,1.65-3.43,0.95-5.17,0.96C443.86,543.01,415.92,542.99,387.99,542.99z"/>
	<path class="st1" d="M224.95,435.01c-2.05,19.42-0.4,38.89-0.97,58.33c-0.06,1.92,0.73,4.03-0.95,5.7
		c-0.01-19.72-0.04-39.43,0.03-59.15C223.06,438.15,221.93,435.69,224.95,435.01z"/>
	<path class="st1" d="M225.01,255.99c1.04,0.84,0.97,2.03,0.97,3.18c0,13.89,0.01,27.77,0.01,41.66c0,1.16,0.07,2.34-0.96,3.19
		C225.02,288.01,225.02,272,225.01,255.99z"/>
	<path class="st1" d="M447.04,71.02c-1.49,1.57-3.43,0.95-5.18,0.96c-13.61,0.06-27.21,0.05-40.82,0.06c1.44-1.7,3.41-1,5.14-1
		C419.8,70.98,433.42,71.01,447.04,71.02z"/>
	<path class="st1" d="M269,543.04c10.61,1.69,21.31,0.68,31.96,0.96c-1.63,1.75-3.76,0.94-5.65,0.96c-7.3,0.1-14.61,0.08-21.91,0
		C271.75,544.94,269.53,545.8,269,543.04z"/>
	<path class="st1" d="M517.03,69.02c-1.65,1.69-3.76,0.92-5.66,0.94c-8.77,0.09-17.55,0.06-26.32,0.07
		c1.26-1.61,3.05-1.01,4.63-1.01C498.79,68.98,507.91,69.02,517.03,69.02z"/>
	<path class="st3" d="M482.97,79.94c1.36-1.42,3.12-0.91,4.73-0.91c17.48-0.03,34.97-0.09,52.45,0.02c4.12,0.03,8.26,0.5,12.35,1.08
		c4.22,0.6,6.05,4.24,3.93,8.77c-4.2,8.98-2.16,18.21-1.81,27.4c0.47,12.44,1.4,24.91-1.03,37.23c-0.82,4.17-0.31,8.28-0.53,12.41
		c-0.01,10.78-0.05,21.57-0.01,32.35c0.01,1.59-0.57,3.36,0.96,4.67c0.78,2.55,1.06,5.13,1.05,7.81c-0.05,19.73-0.01,39.45,0,59.18
		c-0.01,16.12-0.03,32.25,0,48.37c0,1.58-0.6,3.38,1.02,4.64c1.57,1.5,0.92,3.44,0.93,5.19c0.05,18.94,0.04,37.88,0.04,56.82
		c0,19.01,0,38.02,0.01,57.03c-0.29,5.54,0.81,11.16-1.93,16.52c-1.31,2.57-2.52,4.97-5.04,6.49c-0.34,0.31-0.68,0.63-1.02,0.94
		c-0.69,0-1.38,0.01-2.06,0.01c-0.96-1.25-2.36-0.97-3.64-0.97c-8.89-0.01-17.79-0.01-26.68,0c-1.28,0-2.68-0.27-3.61,1.03
		c-1.51,1.55-3.45,0.93-5.21,0.93c-51.22,0.03-102.44,0.03-153.66,0c-1.75,0-3.7,0.65-5.2-0.93c-0.39-0.29-0.78-0.84-1.17-0.84
		c-9.48-0.09-18.96-0.12-28.44-0.18c-1.38-0.01-2.19,0.6-2.33,2.01c-2.71,2.67-6.1,4.21-9.75,3.88c-10.18-0.94-20.3-2.45-30.48-3.44
		c-8.07-0.79-16.03-2.1-23.98-3.63c-0.48-0.09-1.26-0.33-1.4-0.14c-2.18,2.94-4.88,2.95-7.25,0.71c-3.06-2.9-5.11-6.59-5.14-10.95
		c-0.09-11.48-0.04-22.95-0.05-34.43c0-63.01,0-126.03,0-189.04c0.01-21.63,0-43.26,0.03-64.89c0.02-11.27-3-22.33-2.07-33.69
		c1.21-14.86,2.34-29.73,2.08-44.67c-0.04-2.11,0.76-3.43,3.07-3.72c16.33-2.03,32.8-3.03,49.13-1.71
		c13.21,1.07,26.23,0.67,39.35-0.17c4.97-0.32,9.98-0.13,14.97-0.14c9.82-0.02,19.63-0.02,29.45-0.02
		c34.28,0.01,68.57,0.02,102.85-0.02C479.57,80.96,481.55,81.68,482.97,79.94z M254,344.15c-0.03,0-0.06,0-0.09,0
		c0,35.16,0.06,70.32-0.1,105.48c-0.01,3.1,1.25,2.41,2.9,1.95c7.36-2.02,14.8-3.36,22.48-3.65c14.9-0.56,29.56,3.38,44.64,1.3
		c11.46-1.58,23.21-0.51,34.85-1c27.59-1.15,55.24-0.14,82.88-1.01c31.13-0.99,62.32-0.3,93.48-0.15c3.92,0.02,4.98-1.07,5.1-5.03
		c0.36-11.84-1.26-23.59-1.1-35.4c0.49-37.46-0.29-74.92,0.71-112.4c1.44-53.76-0.82-107.58,1.22-161.36
		c0.34-8.99,0.05-18,0.05-26.99c0-8.06,0-8-8-7.92c-36.96,0.37-73.92-0.29-110.89,0.8c-23.09,0.68-46.24,0.47-69.38-0.57
		C330.19,97.21,307.58,98.01,285,98c-1.82,0-3.66-0.47-5.42-0.5c-6.56-0.13-12.97-2.52-19.72-0.67c-3.36,0.92-4.57,2.2-4.95,5.57
		c-0.77,6.78-0.29,13.65-1.16,20.35c-1.95,14.98-0.08,29.84,0.64,44.73c0.35,7.2,2.31,14.38-0.83,21.4
		c-0.79,1.77-0.54,3.6-0.54,5.42c-0.01,17.63,0.48,35.25,0.81,52.88C254.43,279.49,254,311.82,254,344.15z"/>
	<path class="st0" d="M426.2,500.04c-0.51,10.15-3.9,20.34-11.7,29.06c-8,8.94-23.46,10.65-33.12-1.46
		c-11.05-13.86-13.22-28.34-2.46-44.47c3.87-5.8,9.73-8.44,16.2-9.67c14.12-2.67,26.4,2.56,30.34,16.32
		C426.3,492.81,425.72,495.77,426.2,500.04z M408.98,500.57c0.17-6.7-2.18-9.22-7.91-9.57c-6.38-0.38-13.77,3.61-15.72,8.49
		c-1.61,4.02,1.08,12.66,5.1,16.4c4.11,3.82,7.07,3.76,11.21-0.04C406.46,511.44,408.21,505.71,408.98,500.57z"/>
	<path class="st1" d="M238.98,229.98c0,63.01,0,126.03,0,189.04c-1.57-1.5-0.94-3.45-0.94-5.2c-0.03-59.55-0.03-119.09,0-178.64
		C238.04,233.43,237.42,231.49,238.98,229.98z"/>
	<path class="st1" d="M482.97,79.94c-1.42,1.75-3.4,1.03-5.13,1.03c-34.28,0.04-68.57,0.02-102.85,0.02
		c1.66-1.68,3.78-0.94,5.69-0.95C414.78,79.97,448.87,79.96,482.97,79.94z"/>
	<path class="st1" d="M557.02,442.01c0-19.01,0-38.02-0.01-57.03c1.2,0.99,0.98,2.38,0.98,3.68c0.01,16.56,0.01,33.12,0,49.68
		C558,439.64,558.23,441.02,557.02,442.01z"/>
	<path class="st1" d="M556.05,322.97c-1.62-1.26-1.02-3.05-1.02-4.64c-0.03-16.12-0.01-32.25,0-48.37c1.57,1.49,0.94,3.44,0.95,5.19
		C556.04,291.09,556.03,307.03,556.05,322.97z"/>
	<path class="st1" d="M553.98,202.96c-1.53-1.3-0.95-3.08-0.96-4.67c-0.03-10.78,0-21.57,0.01-32.35c1.46,1.33,0.94,3.09,0.95,4.69
		C554.02,181.41,553.99,192.19,553.98,202.96z"/>
	<path class="st1" d="M317.02,467.03c0.14-1.41,0.95-2.02,2.33-2.01c9.48,0.05,18.96,0.08,28.44,0.18c0.39,0,0.78,0.55,1.17,0.84
		c-8.23-0.01-16.46,0.04-24.69-0.07C321.77,465.93,319.39,466.34,317.02,467.03z"/>
	<path class="st1" d="M513.03,466.04c0.93-1.3,2.33-1.03,3.61-1.03c8.89-0.02,17.79-0.02,26.68,0c1.28,0,2.68-0.28,3.64,0.97
		C535.65,466,524.34,466.02,513.03,466.04z"/>
	<path class="st1" d="M549.03,465.97c0.34-0.31,0.68-0.63,1.02-0.94C549.71,465.34,549.37,465.65,549.03,465.97z"/>
	<path class="st4" d="M254,344.15c0-32.33,0.44-64.67-0.17-96.98c-0.33-17.62-0.82-35.25-0.81-52.88c0-1.81-0.25-3.65,0.54-5.42
		c3.14-7.03,1.18-14.2,0.83-21.4c-0.73-14.89-2.59-29.74-0.64-44.73c0.87-6.7,0.39-13.57,1.16-20.35c0.38-3.37,1.59-4.65,4.95-5.57
		c6.76-1.85,13.16,0.55,19.72,0.67c1.75,0.03,3.59,0.5,5.42,0.5c22.58,0.01,45.19-0.79,67.72,0.22c23.15,1.04,46.29,1.25,69.38,0.57
		c36.97-1.09,73.93-0.43,110.89-0.8c8-0.08,8-0.14,8,7.92c0,9,0.29,18.01-0.05,26.99c-2.04,53.78,0.22,107.59-1.22,161.36
		c-1,37.48-0.23,74.94-0.71,112.4c-0.15,11.81,1.47,23.56,1.1,35.4c-0.12,3.96-1.17,5.04-5.1,5.03
		c-31.16-0.15-62.35-0.84-93.48,0.15c-27.64,0.88-55.28-0.14-82.88,1.01c-11.64,0.49-23.39-0.59-34.85,1
		c-15.08,2.08-29.74-1.86-44.64-1.3c-7.68,0.29-15.11,1.62-22.48,3.65c-1.64,0.45-2.91,1.15-2.9-1.95
		c0.16-35.16,0.1-70.32,0.1-105.48C253.94,344.15,253.97,344.15,254,344.15z M350.98,115.39c0.07-6.45,0.01-7.2-4.49-8.5
		c-6.05-1.74-11.43,0.62-15.7,4.84c-12.31,12.15-22.2,26.3-32.62,40.02c-4.41,5.8-8.85,11.6-12.41,17.98
		c-0.76,1.35-1.97,3.08-0.63,4.56c1.34,1.48,3.09,0.58,4.59-0.19c2.65-1.38,5.36-2.67,7.9-4.23c18.32-11.23,32.97-26.69,47.82-41.88
		C349.07,124.27,350.32,119.07,350.98,115.39z M310.08,116.34c0.79-3.9-1.26-5.72-4.45-6.19c-4.22-0.62-8.84-0.17-11.76,2.78
		c-7.73,7.8-13.93,16.86-18.58,26.85c-0.57,1.22-1.61,3.27-0.04,4.62c1.46,1.25,3.09,0.33,4.67-0.3c8.42-3.35,15.48-8.9,22.92-13.87
		C308.08,126.74,307.95,120.99,310.08,116.34z"/>
	<path class="st2" d="M408.98,500.57c-0.77,5.14-2.52,10.87-7.33,15.28c-4.14,3.8-7.1,3.86-11.21,0.04
		c-4.02-3.74-6.71-12.38-5.1-16.4c1.95-4.88,9.34-8.87,15.72-8.49C406.8,491.35,409.15,493.87,408.98,500.57z"/>
	<path class="st3" d="M350.98,115.39c-0.66,3.68-1.92,8.88-5.54,12.59c-14.85,15.18-29.5,30.65-47.82,41.88
		c-2.54,1.56-5.25,2.85-7.9,4.23c-1.5,0.78-3.24,1.68-4.59,0.19c-1.34-1.47-0.12-3.2,0.63-4.56c3.56-6.38,8-12.18,12.41-17.98
		c10.41-13.71,20.31-27.87,32.62-40.02c4.27-4.21,9.66-6.58,15.7-4.84C350.99,108.19,351.06,108.94,350.98,115.39z"/>
	<path class="st3" d="M310.08,116.34c-2.12,4.65-2,10.4-7.24,13.9c-7.45,4.97-14.5,10.52-22.92,13.87c-1.58,0.63-3.21,1.55-4.67,0.3
		c-1.57-1.35-0.53-3.4,0.04-4.62c4.66-9.99,10.85-19.05,18.58-26.85c2.92-2.95,7.54-3.41,11.76-2.78
		C308.82,110.62,310.87,112.44,310.08,116.34z"/>
</g>
</svg>
