<?xml version="1.0" encoding="utf-8"?>
<!-- Generator: Adobe Illustrator 26.0.3, SVG Export Plug-In . SVG Version: 6.00 Build 0)  -->
<svg version="1.1" id="Layer_1" xmlns="http://www.w3.org/2000/svg" xmlns:xlink="http://www.w3.org/1999/xlink" x="0px" y="0px"
	 viewBox="0 0 792 612" style="enable-background:new 0 0 792 612;" xml:space="preserve">
<style type="text/css">
	.st0{fill:#245C7E;}
	.st1{fill:#A9CFF0;}
	.st2{fill:#4644AE;}
	.st3{fill:#D2E8F7;}
	.st4{fill:#5A80B2;}
</style>
<g>
	<path class="st0" d="M347.39,190.2c26.29-1.29,54.08,0.16,81.85,1.09c18.58,0.62,37.18,2.75,55.62,5.3
		c10.88,1.51,21.86,2.77,32.56,5.83c13.96,3.99,15.3,10.76,13.37,22.18c-4.57,27.03-9.33,54.02-14.3,80.98
		c-5.6,30.39-11.5,60.73-17.28,91.09c-4.88,25.63-9.84,51.24-14.65,76.88c-0.7,3.74-2.29,5.37-6.19,6.47
		c-6.49,1.83-12.64,4.69-19.36,6.17c-11.94,2.62-24.07,3.63-36.15,4.12c-29.31,1.21-58.56,0.02-87.66-4.15
		c-15.47-2.22-30.82-4.81-45.59-10.06c-3.91-1.39-7.53-3.39-11.06-5.63c-4.09-2.59-6.55-6.34-7.25-10.86
		c-1.94-12.65-3.46-25.36-5.2-38.04c-1.99-14.5-4.07-28.98-6.02-43.49c-1.84-13.68-3.54-27.37-5.33-41.05
		c-2.01-15.33-4.13-30.64-6.07-45.97c-2.38-18.8-4.61-37.61-6.94-56.41c-0.9-7.26-1.66-14.51-1.85-21.85
		c-0.1-3.81,1.49-7.03,2.15-10.55c0.47-2.54,3.13-3.35,5.33-4c13.88-4.09,28.17-6.46,42.55-6.89
		C308.56,190.81,327.19,189.23,347.39,190.2z M366.97,480.08c3.31,1.46,6.7,0.73,10.09,0.42c2.96,0.04,5.91,0.09,8.87,0.13
		c4.15,0.13,8.3,0.35,12.45,0.38c18.96,0.15,37.91,0.01,56.63-3.62c8.44-1.63,8.41-1.6,10.26-9.95c0.54-2.42,1.45-4.76,2.05-7.17
		c1.05-4.17,2.41-8.29,2.49-12.66c0.05-2.69-0.66-3.84-3.85-3.25c-13.73,2.54-27.63,3.95-41.58,4.27
		c-20.14,0.47-40.28,0.46-60.42,0.66c-6.65-0.45-13.3-0.9-19.96-1.35c-1.92-1.28-4-0.73-6.05-0.56c-2.65-0.15-5.3-0.3-7.95-0.46
		c-2.29-1.97-5.13-0.98-7.69-1.32c-7.56-0.98-15.13-1.91-22.61-3.45c-3.01-0.62-4.96-0.05-3.93,3.84c0.89,3.35,1.99,6.81,1.96,10.21
		c-0.08,11.88,6.18,16.6,17.37,17.51c9.36,0.76,18.51,3.57,28,3.67c1.31,0.19,2.61,0.39,3.92,0.58c2.12,1.88,4.61,0.99,6.99,0.92
		C358.33,479.3,362.65,479.69,366.97,480.08z M303.99,209.89c-3.66-0.05-7.32-0.1-10.97-0.14c-5.35-0.4-10.69-0.23-16.03,0.2
		c-6.14,0.02-12.29-0.06-18.43,0.1c-3.78,0.1-8.73-1.96-11.05,0.45c-2.71,2.81,0.4,7.39,0.95,11.23
		c3.52,24.59,6.88,49.21,10.3,73.82c0.61,4.36,1.23,8.72,2.04,14.39c7.14-7.43,15.28-10.22,24.2-11.06
		c0.25,0.21,0.53,0.32,0.85,0.32c0.01,1.23,0.02,2.46,0.03,3.69c-7.82-0.3-14.53,2.39-20.49,7.35c-1.36,1.13-3.47,1.49-3.35,3.83
		c0.13,2.61,2.11,3.7,4.14,4.45c7.94,2.92,16.12,4.85,24.57,5.53c0.19,0.88,0.38,1.76,0.57,2.64c-1.4,1.79-3.18,1.25-5.01,0.92
		c-7-1.29-14-2.51-20.56-5.48c-0.92-0.42-2.23-1.4-3.2-0.31c-0.94,1.05-0.88,2.76-0.27,3.8c3.85,6.55,0.35,14.16,3.43,21.07
		c1.87,4.18-0.05,9.52,2.08,14.38c3.35,7.65,2.4,16.27,3.75,24.41c1.77,10.68,2.42,21.61,4.29,32.37
		c1.57,9.04,4.27,11.57,13.05,13.44c4.52,0.97,9.06,1.08,13.48,1.99c8.58,1.77,17.02,4.29,25.93,3.58
		c9.77,1.97,19.67,2.01,29.57,2.09c7.66,0.03,15.33,0.26,22.99,0.04c7.34-0.22,14.71,0.1,22,0.33c16.11,0.51,31.95-2.64,47.99-2.36
		c0.5,0.01,1.03,0.04,1.49-0.12c7.13-2.38,14.43-3.56,21.96-4.05c3.56-0.23,8.72-1.2,9.23-5.22c0.6-4.74,2.38-9.26,2.44-14.01
		c0.07-5.76,2.06-11.21,2.65-16.91c0.35-3.34,0.3-7.35,1.79-10.46c3.68-7.67,3.64-16.11,5.16-24.12c1.04-5.48,1.72-11.44,3.02-16.78
		c1.08-4.46,1.74-9.27,2.72-13.7c1.17-5.3,3.9-10.85,2.37-17.21c-2.34,1.43-4.66,2.44-6.48,4.03c-5.04,4.39-11.13,6.59-17.31,8.38
		c-12,3.46-24.43,4.58-36.82,5.1c-22.91,0.97-45.84,1.38-68.75,2.14c-16.15,0.54-32.24-1.04-48.37-1.1
		c-0.9-1.16-1.15-2.48-0.92-3.91c7.98-0.26,15.93,0.7,23.88,0.84c23.43,0.44,46.83-0.66,70.24-1.73c15.9-0.72,31.84-0.39,47.62-3.09
		c12.3-2.1,23.72-6.15,33.45-14.18c2.34-1.93,4.03-6.22,1.25-6.89c-4.54-1.09-7.61-5.31-12.52-4.98
		c-10.65,0.72-21.21-1.37-31.87-1.07c-6.45,0.18-12.95-0.5-19.38-0.67c-24.73-0.64-49.42-2.07-74.12-3.18
		c-14.62-0.66-29.17,1.14-43.74,2.03c-0.66-0.92-1.02-1.91-0.75-3.06c14.69-2.18,29.47-2.4,44.27-2.1
		c6.98,0.14,13.95,0.55,20.93,0.82c16.63,0.64,33.26,1.2,49.88,1.93c14.94,0.65,29.87,1.72,44.81,2.14
		c9.49,0.26,18.66,1.63,27.92,5.15c1.43-7.1,2.75-14.09,4.25-21.04c4.58-21.23,7.43-42.82,13.34-63.77c0.76-2.68-0.09-3.5-2.83-3.44
		c-37.96,0.74-75.88-1.61-113.83-1.71c-28.14-0.08-56.28,0.36-84.42-0.49c-5.47-0.16-10.9-1.46-16.4-0.43
		C305.98,210.04,304.98,209.96,303.99,209.89z M512.54,205.39c-3.9,0.59-6.9-2.28-10.48-2.35c-10.27-0.19-20.48-1.98-30.45-3.63
		c-17.76-2.94-35.65-1.85-53.42-4.01c-18.24-2.21-36.87,0.15-55.33-1.32c-8.4-0.67-16.96,0.58-25.37,0.56
		c-23.61-0.06-47.12,1.12-70.56,3.53c-6.91,0.71-14.01,1.84-20.42,5.22c1.31,3.07,3.83,2.54,6.1,2.58
		c46.78,0.65,93.56-0.46,140.35,0.88c38.29,1.09,76.63,0.27,114.96,0.24C509.43,207.09,511.21,207.79,512.54,205.39z"/>
	<path class="st1" d="M306.97,210.11c5.5-1.03,10.93,0.27,16.4,0.43c28.13,0.85,56.28,0.41,84.42,0.49
		c37.95,0.1,75.87,2.45,113.83,1.71c2.73-0.05,3.58,0.76,2.83,3.44c-5.91,20.95-8.76,42.54-13.34,63.77
		c-1.5,6.95-2.82,13.94-4.25,21.04c-9.25-3.52-18.42-4.89-27.92-5.15c-14.95-0.42-29.87-1.48-44.81-2.14
		c-16.62-0.72-33.25-1.29-49.88-1.93c-6.98-0.27-13.95-0.68-20.93-0.82c-14.8-0.3-29.58-0.08-44.27,2.1c0,0-0.26-0.26-0.26-0.26
		c-0.36-8.09-2.85-15.86-3.46-23.95c-0.67-8.87-1.96-17.72-3.4-26.5C310.18,231.61,310.33,220.58,306.97,210.11z"/>
	<path class="st2" d="M325.91,332.93c16.13,0.06,32.22,1.63,48.37,1.1c22.92-0.76,45.85-1.17,68.75-2.14
		c12.4-0.52,24.82-1.64,36.82-5.1c6.18-1.78,12.28-3.99,17.31-8.38c1.82-1.58,4.14-2.6,6.48-4.03c1.53,6.36-1.2,11.91-2.37,17.21
		c-0.98,4.43-1.64,9.25-2.72,13.7c-1.3,5.34-1.98,11.3-3.02,16.78c-1.51,8.01-1.48,16.45-5.16,24.12
		c-1.49,3.11-1.44,7.12-1.79,10.46c-0.6,5.71-2.58,11.15-2.65,16.91c-0.06,4.75-1.84,9.27-2.44,14.01
		c-0.51,4.02-5.67,4.98-9.23,5.22c-7.53,0.49-14.82,1.67-21.96,4.05c-0.46,0.15-0.99,0.13-1.49,0.12
		c-16.04-0.28-31.88,2.87-47.99,2.36c-7.28-0.23-14.65-0.55-22-0.33c-7.66,0.23-15.33,0-22.99-0.04
		c-5.49-10.12-8.86-21.15-13.46-31.63c-9.47-21.54-14.86-44.01-17.55-67.25c-0.1-0.34-0.21-0.67-0.31-1.01
		C326.32,337.02,326.12,334.97,325.91,332.93z"/>
	<path class="st1" d="M325.91,332.93c0.21,2.05,0.41,4.09,0.61,6.14c0.1,0.33,0.21,0.67,0.32,1.01
		c2.69,23.24,8.08,45.71,17.55,67.25c4.61,10.48,7.97,21.51,13.46,31.63c-9.9-0.08-19.8-0.12-29.57-2.09
		c-12.81-20.48-20.66-43.1-27.42-66.01c-4.25-14.41-6.44-29.43-9.55-44.17c-0.19-0.88-0.38-1.76-0.57-2.64
		c-1.37-7.11-2.66-14.25-4.87-21.17c-0.01-1.23-0.02-2.46-0.03-3.69c10.73-3.41,21.93-4.43,32.94-6.4c0,0,0.26,0.26,0.26,0.26
		c-0.26,1.15,0.09,2.14,0.75,3.06c0.45,3.25,0.9,6.49,1.35,9.74c-7.66,2.98-16.1,3.49-23.94,7.18c1.93,1.5,3.63,0.91,5.22,1
		c6.98,0.39,13.74-1.6,20.66-1.87c-0.74,5.78,1.27,11.24,1.9,16.86C324.76,330.45,325.01,331.77,325.91,332.93z"/>
	<path class="st2" d="M291.32,326.68c3.11,14.74,5.3,29.76,9.55,44.17c6.76,22.91,14.61,45.54,27.42,66.01
		c-8.91,0.71-17.34-1.81-25.93-3.58c-4.42-0.91-8.96-1.02-13.48-1.99c-8.78-1.88-11.47-4.41-13.05-13.44
		c-1.87-10.76-2.52-21.68-4.29-32.37c-1.35-8.14-0.4-16.76-3.75-24.41c-2.13-4.86-0.22-10.21-2.08-14.38
		c-3.09-6.91,0.42-14.52-3.43-21.07c-0.61-1.04-0.67-2.75,0.27-3.8c0.97-1.09,2.28-0.11,3.2,0.31c6.56,2.97,13.56,4.19,20.56,5.48
		C288.14,327.94,289.92,328.47,291.32,326.68z"/>
	<path class="st2" d="M321.14,305.85c-0.45-3.25-0.9-6.49-1.35-9.74c14.57-0.89,29.12-2.68,43.74-2.03
		c24.71,1.11,49.39,2.54,74.12,3.18c6.43,0.17,12.93,0.85,19.38,0.67c10.66-0.3,21.22,1.79,31.87,1.07
		c4.91-0.33,7.97,3.89,12.52,4.98c2.78,0.67,1.1,4.96-1.25,6.89c-9.73,8.03-21.15,12.08-33.45,14.18
		c-15.78,2.69-31.72,2.37-47.62,3.09c-23.41,1.06-46.81,2.17-70.24,1.73c-7.95-0.15-15.9-1.11-23.88-0.84
		c-0.63-5.62-2.64-11.09-1.9-16.86c23.94-0.77,47.88-1.53,71.82-2.3c15.07,0,30.14,0,45.21-0.01c2.28,0.13,4.55,0.25,6.83,0.38
		c-0.03,0.18-0.04,0.36-0.02,0.54c-5.13,1.32-10.66,0.97-15.51,3.3c-2.49,1.2-6.94,1.81-6.17,5.24c0.75,3.36,5.1,3.4,8.16,3.12
		c4.94-0.45,9.82-1.51,14.71-2.37c7.34-1.29,14.68-2.58,21.99-3.98c3.06-0.58,5.83-1.77,6.11-5.48c0.27-3.5-2.07-4.96-4.92-5.95
		c-0.47-0.16-0.91-0.4-1.37-0.6c-0.84-1.24-2.04-1.05-3.24-0.81c-5.42-0.78-10.82-2.12-16.25-2.26
		c-27.58-0.69-55.16-0.17-82.71,1.17c-6.13,0.3-12.23,0.98-18.35,1.46C339.97,304.37,330.55,305.11,321.14,305.85z M409.67,321.39
		c-1.61-1.02-2.22-1.64-2.95-1.82c-8.5-2.12-17.18-1.3-25.8-1.45c-0.9-0.02-1.65,0.49-1.77,1.43c-0.18,1.44,0.8,2.12,2.03,2.38
		C390.34,323.83,399.48,324.94,409.67,321.39z"/>
	<path class="st3" d="M318.79,292.79c-11.01,1.97-22.21,2.99-32.94,6.4c-0.32,0-0.61-0.11-0.85-0.32
		c-1.23-11.32-3.72-22.46-5.46-33.7c-2.61-16.78-3.95-33.5-3.58-50.43c0.04-1.7,0.19-3.31,1.04-4.8c5.34-0.42,10.68-0.59,16.03-0.2
		c3.63,2.07,7.29,1.87,10.97,0.14c0.99,0.07,1.99,0.14,2.98,0.21c3.35,10.48,3.21,21.5,4.96,32.23c1.44,8.79,2.73,17.63,3.4,26.5
		C315.94,276.93,318.43,284.7,318.79,292.79z"/>
	<path class="st1" d="M363.96,449.29c20.14-0.2,40.29-0.19,60.42-0.66c13.95-0.32,27.84-1.73,41.58-4.27
		c3.19-0.59,3.9,0.56,3.85,3.25c-0.08,4.37-1.44,8.49-2.49,12.66c-0.6,2.41-1.51,4.75-2.05,7.17c-1.85,8.36-1.82,8.32-10.26,9.95
		c-18.73,3.62-37.67,3.77-56.63,3.62c-4.15-0.03-8.3-0.25-12.45-0.38c-0.57-2.32-2.12-4.04-3.57-5.81
		C375.7,466.69,369.79,458.02,363.96,449.29z"/>
	<path class="st4" d="M512.54,205.39c-1.33,2.39-3.12,1.7-4.63,1.7c-38.32,0.03-76.67,0.85-114.96-0.24
		c-46.79-1.34-93.57-0.23-140.35-0.88c-2.27-0.03-4.79,0.49-6.1-2.58c6.41-3.38,13.51-4.51,20.42-5.22
		c23.44-2.41,46.95-3.59,70.56-3.53c8.41,0.02,16.97-1.23,25.37-0.56c18.46,1.47,37.09-0.89,55.33,1.32
		c17.77,2.16,35.66,1.07,53.42,4.01c9.97,1.65,20.17,3.44,30.45,3.63C505.65,203.11,508.65,205.98,512.54,205.39z"/>
	<path class="st1" d="M276.99,209.95c-0.85,1.49-1,3.1-1.04,4.8c-0.37,16.92,0.98,33.65,3.58,50.43c1.75,11.24,4.23,22.38,5.46,33.7
		c-8.92,0.85-17.06,3.64-24.2,11.06c-0.8-5.67-1.43-10.03-2.04-14.39c-3.42-24.61-6.78-49.23-10.3-73.82
		c-0.55-3.83-3.66-8.42-0.95-11.23c2.32-2.4,7.27-0.35,11.05-0.45C264.7,209.89,270.84,209.97,276.99,209.95z"/>
	<path class="st3" d="M363.96,449.29c5.83,8.73,11.74,17.4,18.4,25.53c1.45,1.77,3,3.49,3.57,5.81c-2.96-0.04-5.91-0.09-8.87-0.13
		c-3.26-2.68-6.65-1.92-10.09-0.42c-4.32-0.39-8.64-0.79-12.96-1.18c-1.95-3.17-4.45-2.21-6.99-0.92c-1.31-0.19-2.61-0.39-3.92-0.58
		c-2.08-3.71-4.22-7.35-6.65-10.88c-3.24-4.73-5.6-10.05-8.5-15.03c-1.57-2.69-0.37-3.82,2.05-4.56c2.65,0.15,5.3,0.3,7.95,0.46
		c1.78,2.71,3.89,1.91,6.05,0.56C350.65,448.4,357.31,448.84,363.96,449.29z"/>
	<path class="st1" d="M330,446.93c-2.42,0.74-3.61,1.87-2.05,4.56c2.9,4.98,5.26,10.3,8.5,15.03c2.42,3.53,4.56,7.17,6.65,10.88
		c-9.49-0.1-18.63-2.91-28-3.67c-11.19-0.91-17.45-5.64-17.37-17.51c0.02-3.4-1.07-6.86-1.96-10.21c-1.03-3.88,0.92-4.46,3.93-3.84
		c7.48,1.54,15.04,2.46,22.61,3.45C324.88,445.95,327.71,444.96,330,446.93z"/>
	<path class="st2" d="M285.88,302.88c2.22,6.92,3.5,14.05,4.87,21.17c-8.45-0.68-16.63-2.61-24.57-5.53c-2.02-0.75-4-1.84-4.14-4.45
		c-0.12-2.35,2-2.7,3.35-3.83C271.35,305.27,278.06,302.58,285.88,302.88z"/>
	<path class="st1" d="M366.97,480.08c3.43-1.49,6.83-2.26,10.09,0.42C373.68,480.81,370.28,481.55,366.97,480.08z"/>
	<path class="st1" d="M347.02,477.98c2.54-1.29,5.04-2.24,6.99,0.92C351.63,478.97,349.14,479.86,347.02,477.98z"/>
	<path class="st1" d="M344,447.95c-2.16,1.35-4.27,2.15-6.05-0.56C340,447.22,342.09,446.66,344,447.95z"/>
	<path class="st1" d="M303.99,209.89c-3.68,1.72-7.34,1.93-10.97-0.14C296.67,209.8,300.33,209.84,303.99,209.89z"/>
	<path class="st4" d="M326.84,340.07c-0.11-0.34-0.21-0.67-0.32-1.01C326.63,339.4,326.74,339.74,326.84,340.07z"/>
	<path class="st3" d="M446.95,310.23c-2.28-0.13-4.55-0.25-6.83-0.38c-11.42-1.7-22.9-0.48-34.35-0.72
		c-3.61-0.08-7.32-0.73-10.85,0.73c-23.94,0.77-47.88,1.53-71.82,2.3c-6.92,0.27-13.69,2.27-20.66,1.87c-1.58-0.09-3.29,0.5-5.22-1
		c7.83-3.69,16.28-4.2,23.94-7.18c9.41-0.74,18.82-1.47,28.23-2.22c6.12-0.49,12.23-1.17,18.35-1.46
		c27.56-1.34,55.13-1.86,82.71-1.17c5.43,0.14,10.84,1.47,16.25,2.26c0.92,0.92,2.08,0.87,3.24,0.81c0.45,0.2,0.9,0.44,1.37,0.6
		c2.85,0.99,5.19,2.45,4.92,5.95c-0.28,3.71-3.05,4.9-6.11,5.48c-7.32,1.4-14.66,2.69-21.99,3.98c-4.89,0.86-9.78,1.93-14.71,2.37
		c-3.07,0.28-7.41,0.23-8.16-3.12c-0.77-3.44,3.67-4.04,6.17-5.24c4.86-2.33,10.38-1.98,15.51-3.3c1.29,0.1,2.61,0.43,4.36-0.54
		C449.48,310.23,448.21,310.23,446.95,310.23z"/>
	<path class="st3" d="M409.67,321.39c-10.19,3.55-19.34,2.44-28.49,0.54c-1.23-0.26-2.2-0.94-2.03-2.38
		c0.11-0.93,0.87-1.44,1.77-1.43c8.62,0.15,17.3-0.68,25.8,1.45C407.45,319.75,408.06,320.37,409.67,321.39z"/>
	<path class="st4" d="M394.91,309.85c3.53-1.46,7.25-0.8,10.85-0.73c11.45,0.24,22.93-0.98,34.35,0.72
		C425.05,309.85,409.98,309.85,394.91,309.85z"/>
	<path class="st4" d="M446.95,310.23c1.27,0,2.54,0,4.33,0c-1.74,0.96-3.06,0.63-4.36,0.54
		C446.91,310.59,446.91,310.41,446.95,310.23z"/>
	<path class="st4" d="M469.94,304.05c-1.16,0.06-2.32,0.12-3.24-0.81C467.9,303,469.1,302.81,469.94,304.05z"/>
</g>
</svg>
