<?xml version="1.0" encoding="utf-8"?>
<!-- Generator: Adobe Illustrator 26.0.3, SVG Export Plug-In . SVG Version: 6.00 Build 0)  -->
<svg version="1.1" id="Layer_1" xmlns="http://www.w3.org/2000/svg" xmlns:xlink="http://www.w3.org/1999/xlink" x="0px" y="0px"
	 viewBox="0 0 1564.24 1840.94" style="enable-background:new 0 0 1564.24 1840.94;" xml:space="preserve">
<style type="text/css">
	.st0{fill:#1C5676;}
	.st1{fill:#4643AD;}
	.st2{fill:#262560;}
	.st3{fill:#BBB8D6;}
</style>
<g>
	<path class="st0" d="M1316.25,244.07c-4.76-8.41-10.44-16.02-18.56-21.5c-11.69-7.89-25-12.04-38.31-15.82
		c-51.03-14.49-103.16-23.85-155.5-32c-18.16-2.83-36.42-5.05-54.67-7.3c-18.8-2.32-37.66-3.96-56.51-5.64
		c-16.28-1.45-32.65-2.48-48.98-2.93c-14.45-0.39-28.9-1.33-43.38-1.33c-19.64,0-39.3-0.39-58.93-0.55
		c-48.46-0.4-96.92-1.1-145.4,0.45c-25.68,0.82-51.34,1.4-76.99,3.11c-13.35,0.89-26.69,1.75-40.01,3.01
		c-16.92,1.6-33.88,2.99-50.84,4.01c-16.17,0.97-32.35,1.88-48.52,2.95c-11.22,0.74-22.45,1.31-33.68,1.98
		c-12.53,0.75-25.01,1.86-37.5,3.06c-19.18,1.84-38.13,4.85-56.93,9.05c-46.03,10.28-90.04,25.86-129.95,51.38
		c-25.89,16.56-51.1,34.23-69.65,59.46c-4.43,6.03-9.75,11.61-11.71,19.18c2.34,1.94,4.31,0.2,6.19-0.8
		c7.33-3.87,13.57-9.26,19.76-14.67c21.84-19.08,45.3-35.84,70.29-50.56c29.08-17.12,60.18-29.25,92.55-38.34
		c18.1-5.08,36.42-9.1,55.08-11.66c15.81-2.17,31.61-4.08,47.55-5.04c10.88-0.66,21.76-1.39,32.65-1.97
		c19.18-1.02,38.36-2.01,57.54-3.01c14.5-0.76,29.02-1.83,43.51-2.95c14.83-1.15,29.65-2.29,44.51-3.05
		c12.9-0.66,25.8-1.27,38.7-1.98c62.39-3.44,124.82-1.83,187.23-1.57c25.13,0.1,50.3-0.12,75.43,0.84
		c15.91,0.61,31.84,1.11,47.75,1.91c14.51,0.73,29.03,1.68,43.5,3c19.17,1.75,38.36,3.5,57.43,6.1c23.2,3.16,46.33,6.89,69.45,10.7
		c41.38,6.81,82.27,15.62,122.61,27.08c10.05,2.86,19.76,6.66,29.54,10.26c7.04,2.6,12.22,7.66,17.31,12.89
		c1.65,1.69,1.14,3.09,0.5,4.92c-7.13,20.48-18.92,36.87-39.01,46.66c-16.71,8.14-34.34,12.57-52.59,15.33
		c-17.38,2.63-34.65,5.95-52.01,8.69c-17.04,2.69-33.94,6.12-51.07,8.33c-20.55,2.65-40.99,6.16-61.54,8.79
		c-17.61,2.26-35.1,5.38-52.77,7.27c-17.33,1.86-34.55,4.67-51.85,6.77c-10.81,1.31-21.69,2.03-32.52,3.11
		c-12.62,1.26-25.21,2.88-37.86,3.86c-8.09,0.63-16.27,0.88-24.36,0.94c-48.99,0.37-97.98,0.47-146.97,0.02
		c-16.52-0.15-33.1-0.96-49.59-2.74c-6.73-0.72-13.59-0.73-20.34-0.84c-12.46-0.2-24.9-1.05-37.34-1.44
		c-16.07-0.51-32.14-1.32-48.2-1.98c-11.07-0.46-22.18-0.97-33.2-1.99c-15.72-1.45-31.45-2.88-47.15-4.6
		c-15.51-1.7-30.97-3.76-46.31-6.43c-16.99-2.96-33.76-7.11-50.52-11.26c-25.01-6.2-50.03-12.32-75.46-16.67
		c-16.19-2.76-32.35-6.01-48.75-6.61c-12.28-0.45-24.5,1.87-36.5,4.95c-12.01,3.09-22.93,8.36-33.49,14.75
		c-10.98,6.65-24.27,5.47-28.36-9.98c-0.4-1.51-0.49-3.25-1.87-4.39c-2.93,6.86-3.27,13.66,0.57,20.35
		c6.06,9.37,16.96,14.21,28.56,11.27c1.67-0.42,3.65-0.77,5.3,0.37c11.85,8.17,23.76,16.28,30.15,29.96
		c8.28,17.71,13.81,36.36,18.77,55.18c4.59,17.42,8.52,34.96,10.26,52.98c1.22,12.62,4.72,25.28,3.57,37.82
		c-1.44,15.61-1.86,31.16-1.72,46.76c0.53,57.15,1.63,114.3,1.88,171.45c0.32,70.32,0.9,140.63,1.95,210.94
		c0.58,38.82,0.69,77.65,0.94,116.47c0.46,70.31,0.72,140.62,1.96,210.93c0.91,51.79,1.05,103.6,2.04,155.39
		c0.32,16.97,1.59,33.91,1.21,50.9c-0.03,1.14,0.4,2.28,0.47,3.43c0.51,7.76,2,15.62,1.21,23.25c-0.95,9.17-1.97,18.39-2.48,27.55
		c-0.97,17.28-1.05,34.53,2.57,51.8c8.26,39.43,29.97,70.08,60.44,95.1c17.07,14.01,36.59,24.33,56.07,34.57
		c28.41,14.93,58.99,23.58,90,30.93c27.5,6.52,55.48,10.39,83.29,15.23c23.95,4.16,48.02,7.08,72.22,8.57
		c18.58,1.15,37.19,1.96,55.82,2.44c12.47,0.32,24.96,0.44,37.43,1.05c25.06,1.21,50.11,2.87,75.19,3.62
		c22.76,0.68,45.51,1.6,68.32,0.55c21.92-1,43.87-0.88,65.8-2.12c25.51-1.44,50.98-2.85,76.35-6.19c22.07-2.9,44.1-5.69,66-9.93
		c33.02-6.39,63.84-17.75,91.94-36.34c22.9-15.14,43.1-33.33,62.23-52.97c18.72-19.22,34.07-40.29,43.44-65.62
		c7.68-20.78,12.59-41.97,12.76-64.24c0.1-12.12-1.76-24.07-2.35-36.13c-0.27-5.42-0.23-10.92-0.82-16.34
		c-2.03-18.76-1.27-37.6-0.62-56.34c0.65-18.74,2.5-37.48,4.6-56.16c1.55-13.78,2.54-27.65,3.02-41.51
		c0.57-16.57,1.25-33.13,2.01-49.69c0.45-9.81,0.15-19.66,0.07-29.49c-0.6-74.44,1.54-148.9-1.92-223.32
		c-0.69-14.96-0.76-29.98-0.82-44.93c-0.16-39.81-0.98-79.62,0.59-119.44c1.12-28.45-0.18-56.95,0.97-85.44
		c0.62-15.26,0.47-30.6-0.62-45.93c-1.16-16.42-0.76-32.95-0.94-49.42c-0.64-59.3,0.05-118.62-1.26-177.92
		c-0.32-14.47-0.46-28.96-0.68-43.43c-0.5-32.5-1.9-65.11,2.69-97.5c2.41-16.99,6.18-33.66,11.38-50.01
		c0.93-2.91,2.6-4.67,5.25-6.04c17.43-9.02,26.05-24.04,29.54-42.84c1.51-8.13-0.32-16.51,2.65-24.54
		C1317.84,249.95,1317.77,246.74,1316.25,244.07z M1258.46,358.52c-5.56,15.06-9.63,30.43-11.47,46.48
		c-1.86,16.18-2.98,32.34-2.92,48.62c0,1.31,0.92,3.02-0.9,3.99c1.39,5.55,1.02,11.08,0.38,16.73c-0.62,5.42-0.38,10.94-0.35,16.42
		c0.02,2.69-0.25,5.29-1.09,7.83c1.56,1.28,1.01,3.07,1.02,4.67c0.05,8.16-0.27,16.34,0.07,24.49c1.27,30.61,0.33,61.24,1.07,91.84
		c1.81,75.1,0.4,150.2,0.85,225.3c-3.78,16.37-0.19,33.1-2.15,49.45c-3.72,31.15-2.13,62.38-1.1,93.45
		c0.55,16.64-0.23,33.41,1.45,49.98c3.98,39.46,1.07,78.98,1.65,118.46c0.53,35.98,0.36,71.97-0.03,107.95
		c-0.21,19.49-2.43,38.92-2.19,58.48c0.05,3.99,0.89,8.59-0.09,11.96c-2.75,9.46-0.19,19.22-3.15,28.65
		c-1.83,5.85,0.1,12.55-1.35,18.79c-1.33,5.72-0.38,11.64-1.17,17.35c-4.31,31.13-3.9,62.43-3.8,93.72
		c0.03,11.52,1.95,22.89,3.11,34.31c1.1,10.82,0.89,21.43-0.47,32.2c-0.92,7.28-1.97,14.67-3.23,21.78
		c-1.18,6.64-2.42,13.94-6.19,20.09c-0.34,0.55-1.05,1.09-1.03,1.62c0.22,6.24-4.7,10.5-6.13,16.08c-0.59,2.29-2.05,3.52-4.11,4.57
		c-3.37,1.72-1.92,6.25-4.75,8.62c-1.7,1.42-2.49,3.93-5.11,4.33c-0.22,0.51-0.4,1.07-1.1,1.02c0.24,1.6-0.71,2.41-2.02,2.99
		c-0.41,0.93-0.97,1.7-2,2c-0.58,1.45-1.86,2.19-3.05,3.02l0.07-0.08c-0.36,0.36-0.72,0.72-1.08,1.08l0.07-0.08l-1.07,1.08
		l0.07-0.08c-0.32,0.33-0.64,0.66-0.96,0.99c0,0-0.19,0.18-0.19,0.18c-0.19,0.2-0.4,0.34-0.64,0.44
		c-4.27,4.95-9.76,8.46-14.66,12.67c-4.82,4.13-9.79,8.11-14.26,12.75c-4.95,5.13-11.54,8.67-17.32,13.02
		c-3.57,2.69-7.52,4.94-10.23,8.65c-0.28,0.39-0.58,0.94-0.97,1.04c-10.53,2.6-17.91,10.69-27.16,15.51
		c-0.84,0.44-1.85,0.61-2.81,0.75c-0.98,0.14-2.7-0.22-2.89,0.18c-2.31,5.09-8.07,3.53-11.82,6.19c-4.18,2.96-9.72,4.25-14.86,5.49
		c-2.46,0.59-4.97,0.79-6.73,2.64c-1.51,1.58-3.23,1.59-5.03,1.48c-6.5-0.38-12.57,0.93-18.54,3.62c-3.33,1.5-7.44,1.5-10.92,1.91
		c-6.31,0.74-12.38,2.88-18.94,2.71c-9.74-0.25-19.44,1.27-28.98,3.61c-2.84,0.7-5.98,0.34-8.97,0.21
		c-8.28-0.36-16.28,0.91-24.07,3.72c-0.6,0.22-1.38,0.36-1.97,0.18c-6.44-2.07-12.84,0.25-19.26,0.15
		c-17.5-0.27-34.87,1.43-52.21,3.7c-3.2,0.42-6.6-0.88-9.86-0.68c-26.61,1.68-53.25,0.93-79.87,0.83
		c-26.17-0.1-52.44-0.59-78.47-2.39c-30.78-2.13-61.46-0.49-92.17-1.44c-15.99-0.49-31.89-1.73-47.73-3.93
		c-1.31-0.18-2.66-0.16-3.99-0.12c-8.22,0.2-16.15-1.43-23.96-3.8c-0.47-0.14-1-0.22-1.48-0.16c-8,1.14-15.85-1.24-23.41-2.59
		c-9.36-1.68-19.47,0.17-28.27-5.12c-1.74-1.05-4.58-0.43-6.9-0.3c-6.51,0.39-12.45-1.53-18.56-3.51c-4.55-1.47-9.59-1.25-14.43-2.3
		c-7.88-1.71-15.65-3.67-23.43-5.74c-5.75-1.53-11.62-2.66-17.35-4.41c-6.5-1.98-12.47-5.37-19.21-6.71
		c-5.22-1.04-10.6-3.23-14.66-5.97c-4.31-2.91-9.5-3.02-13.74-6.8c-4.07-3.63-10.42-5.52-15.64-8.43
		c-10.45-5.84-21.25-11.11-30.43-19c-5.92-5.09-11.96-9.78-16.95-16.14c-3.86-4.91-7.97-10.6-14.22-13.47
		c-0.27-0.13-0.61-0.44-0.65-0.7c-1.06-8.11-8.54-12.68-11.15-19.42c-2.37-6.11-5.02-12.22-7.22-18.45
		c-2.59-7.32-2.81-15.17-5.59-22.51c-1.64-4.31-1-9.32-1.86-14.05c-1.22-6.64-4.28-13.51-2.35-20.36c2.2-7.81,0.34-15.99,2.22-23.43
		c2.64-10.45,0.99-20.75,1.55-31.08c0.47-8.64-0.23-17.34,0.14-25.99c4.33-99.62,2.77-199.32,1.25-298.92
		c-1.35-88.66-0.65-177.3-1.23-265.94c-0.58-88.64-0.14-177.29-0.15-265.94c-4.31-27.57-0.75-55.33-2.09-82.97
		c-1.05-3.82-1.64-7.73-1.8-11.68c-0.38-9.78-0.21-19.6-1.11-29.33c-2.46-26.61-6.71-52.94-13.98-78.7
		c-5.43-19.27-11.59-38.3-19.98-56.52c-6.28-13.64-14.17-25.77-30.97-30.3c6.81-2.86,12.98-3.83,18.97-5.08
		c10.32-2.15,20.74-3.68,31.39-3.25c11.55,0.46,22.9,2.48,34.24,4.27c14.65,2.32,29.2,5.3,43.7,8.55
		c21.6,4.85,42.97,10.61,64.52,15.6c16.91,3.91,33.94,7.09,51.09,9.77c15.09,2.36,30.3,3.65,45.41,5.76
		c9.13,1.27,18.43,1.39,27.64,2.14c18.99,1.55,38.01,2.47,57.06,3.15c13.4,0.48,26.8,1.4,40.21,1.91
		c18.7,0.72,37.43,1.38,56.04,3.19c6.7,0.65,13.51-0.24,20.14,0.95c0.62-0.76,1.58-1.27,2.56-1.27h5.18c0.06,0,0.11,0.01,0.17,0.01
		c0.51-0.83,1.39-1.42,2.65-1.42c32.57-0.02,65.14-0.47,97.72-0.47c14.37,0,28.35,3.35,42.57,4.9c0.74-0.01,1.48-0.02,2.22-0.03
		c0.53-0.66,1.33-1.1,2.43-1.1h14.12c0.57,0,1.05,0.12,1.46,0.33c12.42,0.09,24.77-1.34,37.12-2.32c19.34-1.54,38.64-3.65,57.9-5.94
		c16.64-1.99,33.28-3.99,49.92-6c18.25-2.2,36.39-5.26,54.6-7.8c15.25-2.13,30.57-3.84,45.8-6.17c17.51-2.68,34.92-5.95,52.42-8.74
		c12.16-1.94,24.39-3.4,36.57-5.22c29.06-4.36,58.25-8.23,85.27-20.94c0.39-0.18,0.95-0.02,1.91-0.02
		C1267.78,336.36,1262.63,347.22,1258.46,358.52z"/>
	<path class="st1" d="M1242.11,498.59c1.56,1.29,1.01,3.07,1.02,4.67c0.05,8.16-0.27,16.34,0.07,24.49
		c1.27,30.61,0.33,61.24,1.07,91.84c1.81,75.1,0.4,150.2,0.85,225.3c-3.78,16.37-0.19,33.1-2.15,49.45
		c-3.72,31.15-2.13,62.38-1.1,93.45c0.55,16.64-0.23,33.41,1.45,49.98c3.98,39.46,1.07,78.98,1.65,118.46
		c0.53,35.98,0.36,71.97-0.03,107.95c-0.21,19.49-2.43,38.92-2.19,58.48c0.05,3.99,0.89,8.59-0.09,11.96
		c-2.75,9.46-0.19,19.22-3.15,28.65c-1.83,5.85,0.1,12.55-1.35,18.79c-1.33,5.72-0.38,11.64-1.17,17.35
		c-4.31,31.13-3.9,62.43-3.8,93.72c0.03,11.52,1.95,22.89,3.11,34.31c1.1,10.82,0.89,21.43-0.47,32.2
		c-0.92,7.28-1.97,14.67-3.23,21.78c-1.18,6.64-2.42,13.94-6.19,20.09c-0.34,0.55-1.05,1.09-1.03,1.62
		c0.22,6.24-4.7,10.5-6.13,16.08c-0.59,2.29-2.05,3.52-4.11,4.57c-3.37,1.72-1.92,6.25-4.75,8.62c-1.7,1.42-2.49,3.93-5.11,4.33
		c-0.39,0.34-0.78,0.68-1.17,1.02c0,0,0.07-0.07,0.07-0.07c-0.95,0.85-2.17,1.52-2.04,3.08c0,0,0.05-0.06,0.05-0.06
		c-1.3,0.07-2.11,0.63-2.05,2.06c0,0,0.05-0.06,0.05-0.06c-1.9,0.14-2.55,1.53-3.07,3.06c0,0,0.07-0.08,0.07-0.08
		c-0.36,0.36-0.72,0.72-1.08,1.08c0,0,0.07-0.08,0.07-0.08c-0.36,0.36-0.71,0.72-1.07,1.08c0,0,0.07-0.08,0.07-0.08
		c-0.32,0.33-0.64,0.66-0.96,0.99c0,0-0.19,0.18-0.19,0.18c-0.14,0.24-0.36,0.39-0.64,0.45c-4.27,4.95-9.76,8.46-14.66,12.67
		c-4.82,4.13-9.79,8.11-14.26,12.75c-4.95,5.13-11.54,8.67-17.32,13.02c-3.57,2.69-7.52,4.94-10.23,8.65
		c-0.28,0.39-0.58,0.94-0.97,1.04c-10.53,2.6-17.91,10.69-27.16,15.51c-0.84,0.44-1.85,0.61-2.81,0.75
		c-0.98,0.14-2.7-0.22-2.89,0.18c-2.31,5.09-8.07,3.53-11.82,6.19c-4.18,2.96-9.72,4.25-14.86,5.49c-2.46,0.59-4.97,0.79-6.73,2.64
		c-1.51,1.58-3.23,1.59-5.03,1.48c-6.5-0.38-12.57,0.93-18.54,3.62c-3.33,1.5-7.44,1.5-10.92,1.91c-6.31,0.74-12.38,2.88-18.94,2.71
		c-9.74-0.25-19.44,1.27-28.98,3.61c-2.84,0.7-5.98,0.34-8.97,0.21c-8.28-0.36-16.28,0.91-24.07,3.72c-0.6,0.22-1.38,0.36-1.97,0.18
		c-6.44-2.07-12.84,0.25-19.26,0.15c-17.5-0.27-34.87,1.43-52.21,3.7c-3.2,0.42-6.6-0.88-9.86-0.68
		c-26.61,1.68-53.25,0.93-79.87,0.83c-26.17-0.1-52.44-0.59-78.47-2.39c-30.78-2.13-61.46-0.49-92.17-1.44
		c-15.99-0.49-31.89-1.73-47.73-3.93c-1.31-0.18-2.66-0.16-3.99-0.12c-8.22,0.2-16.15-1.43-23.96-3.8c-0.47-0.14-1-0.22-1.48-0.16
		c-8,1.14-15.85-1.24-23.41-2.59c-9.36-1.68-19.47,0.17-28.27-5.12c-1.74-1.05-4.58-0.43-6.9-0.3c-6.51,0.39-12.45-1.53-18.56-3.51
		c-4.55-1.47-9.59-1.25-14.43-2.3c-7.88-1.71-15.65-3.67-23.43-5.74c-5.75-1.53-11.62-2.66-17.35-4.41
		c-6.5-1.98-12.47-5.37-19.21-6.71c-5.22-1.04-10.6-3.23-14.66-5.97c-4.31-2.91-9.5-3.02-13.74-6.8
		c-4.07-3.63-10.42-5.52-15.64-8.43c-10.45-5.84-21.25-11.11-30.43-19c-5.92-5.09-11.96-9.78-16.95-16.14
		c-3.86-4.91-7.97-10.6-14.21-13.47c-0.27-0.13-0.61-0.44-0.65-0.7c-1.06-8.11-8.54-12.68-11.15-19.42
		c-2.37-6.11-5.02-12.22-7.22-18.45c-2.59-7.32-2.81-15.17-5.59-22.51c-1.64-4.31-1-9.32-1.86-14.05
		c-1.22-6.64-4.28-13.51-2.35-20.36c2.2-7.81,0.34-15.99,2.22-23.43c2.64-10.45,0.99-20.75,1.55-31.08
		c0.47-8.64-0.23-17.34,0.14-25.99c4.33-99.62,2.77-199.32,1.25-298.92c-1.35-88.66-0.65-177.3-1.23-265.94
		c-0.58-88.64-0.14-177.29-0.15-265.94c-4.31-27.57-0.75-55.33-2.09-82.97c-0.05-1.76,1.07-3.08,1.76-4.55
		c6.84-14.44,19-23.33,32.36-30.97c-2.87,5.94-6.65,11.61-6.94,18.43c-0.59,14.05,10.8,27.58,25.15,31.19
		c13.39,3.37,27.03,5.55,40.66,5.81c21.75,0.41,43.56,1.29,65.33-0.57c5.74-0.49,11.63-0.81,17.39,0.46
		c-0.4,0.91-0.76,1.84-1.22,2.72c-10.31,19.62-20.79,39.16-28.45,60.03c-6.34,17.28-12,34.7-10.92,53.53
		c0.2,3.48,1.63,6.79,1.1,10.35c-1.04,6.99,0.94,13.49,3.96,19.58c4.48,9.02,9.37,17.85,14.25,26.67c2.11,3.81,5.06,6.97,8.86,9.27
		c3.71,2.24,7.23,4.73,10.17,7.98c3,3.31,6.66,3.79,10.93,2.78c9.24-2.19,15.84-8.1,21.48-15.16c6.53-8.19,11.13-17.53,15.88-26.86
		c9.07-17.79,14.82-36.5,16.26-56.26c1.39-19.09-1.41-37.9-6.32-56.46c-3.62-13.67-9.15-26.92-9.78-41.31
		c10.43-2.5,21.17-1.77,31.7-2.19c23.39-0.93,46.82-0.93,70.21-2.25c9.78-0.55,19.56-0.2,29.38-0.77c16.22-0.94,32.47-1.5,48.71-2.1
		c21.26-0.79,42.57-0.65,63.85-0.93c53.46-0.69,106.93-0.28,160.39-0.31c2.66,3.36,5.34,3.35,8.03,0.04
		c4.01,0.36,8.01,0.73,12.02,1.09c0.86,4.46-2.08,7.12-5.29,8.56c-2.59,1.16-6.02,1.39-7.52-2.96c-0.46-1.33-3.4-1.18-4.79,0.35
		c-1.42,1.56-0.15,8.24,1.6,9.56c4.07,3.09,15.26,4.09,18.9,1.01c5.02-4.25,8.92-9.44,9.08-16.52c2.31-0.03,4.62-0.06,6.93-0.09
		c3.13,5.47,6.95,9.95,13.71,11.04c8.46,1.37,13.15-3.07,16.37-10.06c2.32-0.01,4.64-0.03,6.96-0.04c0.78,4.69,5.46,3.29,8.05,5.16
		c5.25,3.78,13.79,4.13,18.65,0.69c1.79-1.27,1.56-4.4,4.31-4.89c4.33,0.05,8.66,0.1,12.99,0.16c0.03,3.5-0.04,7,0.13,10.5
		c0.12,2.44,1.71,3.89,4.02,4.38c2.35,0.5,3.11-0.89,4.33-2.83c1.72-2.72,1.28-5.37,1.56-8.1c0.21-2.03,1.31-3.43,3.33-3.84
		c2.47-0.5,2.21,1.42,2.84,2.98c1.17,2.94,3.14,5.46,6.69,5.85c2.56,0.28,4.11-1.31,4.87-3.42c0.48-1.35,0.2-2.96,0.3-4.46
		c0.07-1.15,0.66-1.84,1.86-1.9c1.2-0.06,2.14,0.57,1.96,1.69c-0.96,5.73,2.28,10.21,3.95,15.23c1.16,3.49,3.09,2.71,5.23,2.87
		c2.56,0.2,2.85-1.37,3.01-3.47c0.43-5.64-0.41-11.09-2.02-16.47c1.99-0.03,3.98-0.07,5.98-0.1c3.45,2.09,6.42,4.89,10.46,6.07
		c8.53,2.49,17.26,1.84,25.94,2.02c2.56,0.05,4.68-0.75,7.01-1.73c3.67-1.53,2.83-3.03,0.77-5.01c-1.51-1.44-2.62-2.99-2.2-5.22
		c9.66,0.11,19.13-1.81,28.58-3.32c23.67-3.78,47.27-8.03,69.84-16.62C1212.95,526.41,1230.46,516.58,1242.11,498.59z
		 M426.85,880.89c-1.97,0.26-2.05,1.46-2.42,2.28c-7.76,17.1-12.07,35.26-16.29,53.43c-7.57,32.61-14.56,65.33-20.37,98.32
		c-2.77,15.74-5.49,31.49-7.52,47.33c-1.78,13.92-2.9,27.95-4.35,41.91c-1.71,16.46-2.95,32.98-3.52,49.46
		c-0.77,22.36-0.68,44.73,2.54,67.09c3.47,24.17,7.06,48.28,12.26,72.13c6.82,31.24,16.37,61.65,29.99,90.59
		c12.43,26.39,26.61,51.9,42.25,76.54c19.7,31.03,43.37,58.52,72.53,81.22c13.92,10.83,28.28,20.25,45.87,23.89
		c4.36,0.9,7.89-0.35,11.09-2.73c8.5-6.31,9.06-17.49,15.12-25.34c0.39-0.51,0.19-1.67-0.03-2.44c-0.96-3.29-0.03-5.83,2.75-7.76
		c1.45-1.01,2.01-2.47,2.45-4.16c1.91-7.19,3.35-14.53,3.59-21.88c0.14-4.1,0.91-10.22-3.67-12.14c-6.68-2.81-13.34-5.35-19.12-9.81
		c-0.33-0.25-1,0-1.47-0.14c-5.53-1.61-11.09-2.91-15.83-6.69c-17.65-14.1-32.87-30.5-46.26-48.59
		c-24.91-33.67-44.56-70.11-56.92-110.27c-6.66-21.64-11.84-43.63-15.5-65.99c-2.29-14-4.65-27.98-5.95-42.12
		c-0.68-7.39-1.73-14.74-2.77-22.09c-1.31-9.3-3.03-18.56-4.11-27.89c-1.76-15.25-3.7-30.48-5.28-45.76
		c-1.8-17.43-3.07-34.89-4.7-52.33c-1.35-14.53-1.28-29.17-1.88-43.75c-0.61-14.76-0.96-29.57-1.11-44.36
		c-0.32-30.83-0.17-61.66-0.03-92.48C428.22,891.17,427.13,886.21,426.85,880.89z M780.63,1445.61c0,0.01,0,0.01,0,0.02
		c25.16,0,50.31-0.12,75.46,0.1c4.96,0.04,7.55-3.46,8.68-6.43c2.44-6.41-2.17-11.76-9.16-11.54c-16,0.51-31.96,0.18-48.02,1.47
		c-31.22,2.51-62.63-0.85-94.03,2.03c-18.67,1.71-37.65,0.8-56.45,2.38c-3.49,0.29-6.31,1.77-8.71,3.97
		c-1.85,1.7-1.99,3.71,1.29,3.97c4.88,0.38,9.76,1.26,14.52,1.69c14.59,1.3,29.29,1.05,43.97,1.94
		C732.25,1446.68,756.47,1445.61,780.63,1445.61z M780.59,1277.73c-18.98,1.75-42.78-1.61-66.67,1.55
		c-15.74,2.09-31.98-0.02-47.91,2.32c-3.42,0.5-6.98,0.02-10.48,0.11c-1.85,0.05-4.23-0.67-4.38,2.54
		c-0.13,2.73,1.25,4.98,3.61,5.16c3.36,0.26,6.41,1.86,9.55,2.03c12.16,0.64,24.32,1.15,36.48,1.84c38.07,2.17,76.27-1.6,114.4,2.12
		c13.19,1.29,26.62,0.16,39.94,0.24c2.82,0.02,5.39-0.83,5.75-3.54c0.44-3.3,1.97-7.93-0.88-9.84c-3.58-2.4-7.61-4.72-12.66-4.66
		C826.69,1277.89,806.04,1277.73,780.59,1277.73z M930.99,1609.65c3.15-1.41,10.11,3.63,10.76-5.22c0.01-0.13,0.24-0.36,0.33-0.34
		c6.06,0.96,4.77-4.59,6.31-7.41c2.13-3.9,1.51-8.76,1.85-12.83c0.28-3.39,0-8.14-1.29-11.88c-1.32-3.84-2.6-7.69-5.37-11.24
		c-3.57-4.59-6.62-8.32-12.95-7.24c-0.28,0.05-0.64-0.16-0.92-0.32c-4.33-2.55-6.63,0-8.85,3.31c-1.55,2.3-2.81,4.79-4.28,7.13
		c-2.97,4.71-5.4,9.88-7.28,15.14c-1.05,2.93-1.64,3.5-4.33,1.89c-5.97-3.58-11.56-8.34-19.38-6.97c-1.58,0.28-2.34-0.77-2.5-2.39
		c-0.32-3.41,0.22-6.16,3.92-7.62c3.33-1.32,6.58-2.91,9.67-4.73c1.27-0.75,3.05-2.04,2.07-4.03c-0.95-1.94-3.57-1.69-4.34-0.88
		c-3.01,3.19-6.86,3.38-10.7,4.22c-2.47,0.54-4.22,3.55-7.45,2.09c-0.93-0.42-1.17,0.94-1.15,1.73c0.2,7.73-2.61,14.58-5.62,21.51
		c-1.09,2.52-1.57,5.96,1.9,8.47c3.29,2.38,4.97,1.02,7.68-0.94c4.25-3.08,8.48-6.8,14.64-5.45c2.07,0.45,3.25,0.71,3.4,3.17
		c0.3,4.99-6.44,16.87-11.1,18.49c-1.86,0.65-4.77,1.33-4.75-2.21c0.03-4.03-2.58-3.4-5.08-3.48c-3.37-0.11-3.13,2.18-3.11,4.39
		c0.02,2.83-0.07,5.67,0.06,8.49c0.11,2.44,5.56,7.74,7.52,7.02c4.52-1.67,8.98-3.58,13.24-5.81c4.23-2.22,7.9-5.32,11.11-8.9
		c0.88-0.98,1.91-1.23,3.15-0.84C915.31,1608.24,922.54,1610.04,930.99,1609.65z M751.16,985.66c28.91-1.47,65.45,2.32,101.86-1.88
		c4.12-0.47,6.64-2.59,7.77-5.82c1.31-3.74-1.61-5.25-4.75-6.81c-2.25-1.12-4.3-1.57-6.59-1.44c-18.64,1.01-37.24-0.75-55.99,1.56
		c-21.59,2.65-43.54-0.57-65.41,2.1c-20.61,2.52-41.58-1.22-62.43,1.97c-7.13,1.09-14.45,2.91-21.89,2.44
		c-2.39-0.15-4.32,1.54-4.32,3.89c0,2.34,1.89,3.74,4.31,3.95c1.32,0.11,2.66,0.05,3.99,0.05
		C679.69,985.66,711.66,985.66,751.16,985.66z M701.46,1128.25c-7.95-2.09-15.41,1.02-23.09,1.33c-7.48,0.31-14.99-0.08-22.47,0.25
		c-3.51,0.16-7.25,1.69-8.35,5.17c-1.03,3.25,2.68,4.51,4.88,6.02c0.97,0.66,2.55,0.62,3.85,0.58c37.46-1.17,74.94,1.79,112.42-1.67
		c22.52-2.08,45.3,1.01,67.94-2.04c9.8-1.32,8.11,1.05,8.57-8.62c0.2-4.28-0.91-6-5.48-5.67c-16.13,1.13-32.27,0.32-48.5,1.55
		C761.38,1127.4,731.25,1124.08,701.46,1128.25z M681.01,837.64c11.08-1.44,24.56,1.31,38.17-1.63c10.81-2.34,22.27-1.1,33.44-1.77
		c26.9-1.62,53.95-0.34,80.91-2.34c5.14-0.38,10.38-1.69,15.74-0.55c1.9,0.4,3.4-1.71,3.84-3.86c1.47-7.2-0.75-9.44-7.8-7.91
		c-0.48,0.1-1,0.05-1.49,0.07c-22.48,0.91-44.99-1.3-67.5,1.8c-15.32,2.11-30.91,0.3-46.49,1.65c-17.51,1.51-35.27,2.31-52.93,2.42
		c-11.24,0.07-22.32,1.19-33.46,2.17c-1.82,0.16-3.09,1.22-4.48,2.01c-2.65,1.49-2.4,4.44,0.24,5.99c2.48,1.46,5.04,2.06,7.96,2.03
		C657.64,837.56,668.13,837.64,681.01,837.64z M820.64,687.65c0-0.01,0-0.02,0-0.03c12.17,0,24.33-0.11,36.5,0.06
		c4.06,0.06,6.33-2.43,7.55-5.37c1.16-2.79-2.23-4.06-3.85-5.77c-1.42-1.5-3.49-0.86-5.25-0.79c-26.15,1.08-52.28-0.29-78.52,1.43
		c-43.05,2.82-86.35-1.66-129.48,2.4c-5.12,0.48-10.33,0.1-15.49,0.11c-2.51,0-4.19,1.41-4.74,3.62c-0.62,2.48,2.16,1.91,3.2,2.93
		c1.82,1.79,4.01,1.44,6.11,1.37c33.48-1.11,66.97,1.7,100.51-1.54c18.34-1.77,36.99-0.6,55.48,1.4
		C801.89,688.48,811.31,687.65,820.64,687.65z M827.13,1589.72c8.49,0,16.99-0.2,25.47,0.11c2.97,0.11,4.99-1.54,7.36-2.49
		c2.14-0.85,1.04-3.21,1.19-4.93c0.1-1.18-0.14-2.71-1.61-2.61c-4.68,0.31-9.02-1.16-13.47-2.11c-2.44-0.52-3.92,1.98-6.48,1.97
		c-25.81-0.08-51.62-0.3-77.41,1.75c-13.07,1.04-26.29,0.19-39.44,0.21c-1.33,0-2.73-0.19-3.98,0.16
		c-9.14,2.57-18.56,3.45-27.93,3.63c-9.22,0.18-18.46,1.18-27.68,0.19c-2.69-0.29-4.77,0.84-5.66,3.1c-0.72,1.8-1.42,5.11,1.95,4.84
		c6.85-0.53,13.13,3.45,19.95,2.12c4.3-0.84,8.45-1.92,12.96-2.07c25.46-0.88,50.89,0.82,76.44-1.3
		C788.08,1590.71,807.6,1588.38,827.13,1589.72z M714.33,1513.66c0,0.02,0,0.03,0,0.05c-5.33,0-10.66-0.04-15.98,0.02
		c-3.11,0.03-4.96,1.62-5.16,4.8c-0.25,3.86,2.66,2.9,4.83,3.13c4.18,0.46,8.27,0.18,12.59,1.42c4.82,1.38,9.86,3.31,15.35,2.64
		c8.6-1.06,17.49,1.55,25.97-1.96c1.14-0.47,2.64-0.14,3.97-0.07c24.53,1.39,48.9-2.77,73.41-2.09c4.91,0.14,5.87-1.55,5.82-8.19
		c-0.04-5.78-1.43-7.92-5.98-7.65c-11.48,0.69-22.88-0.5-34.52,1.46c-12.85,2.17-26.13,3.64-39.37,2.51
		c-1.48-0.13-3.07-0.23-4.47,0.15c-9.16,2.53-18.59,2.96-27.97,3.73C720,1513.86,717.16,1513.66,714.33,1513.66z M768.07,1357.67
		c-21.15,0.23-44.32-0.63-67.42,1.92c-3.06,0.34-5.41,2.35-8.49,2.49c-1.32,0.06-0.99,1.87-1,2.99c-0.01,1.26,0.43,2.7,1.82,2.44
		c4.62-0.85,8.53,1.9,12.94,2.18c9.99,0.65,19.91-0.48,30.04,1.51c10.99,2.16,22.52,0.8,33.9,1.98c15.98,1.66,32.25,0.45,48.4,0.43
		c5.17,0,8.77-3.25,8.82-7.84c0.05-4.75-3.67-8.11-9.07-8.11C802.03,1357.66,786.05,1357.67,768.07,1357.67z M821.12,905.36
		c0.04-6.55-1.04-7.72-7.28-7.63c-6.7,0.09-13.37,1-20,1.54c-22.24,1.83-44.64-0.95-66.98,2.14c-10.84,1.5-22.05-0.24-32.96,2.2
		c-2.02,0.45-3.42,1.4-4.34,2.92c-1.12,1.85,0.61,2.97,1.64,4.25c1.82,2.27,4.09,2.9,6.98,2.89c26.99-0.09,53.98-0.01,80.97-0.08
		c3.88-0.01,7.87,0.76,11.59-1.63c1.17-0.75,3.62-0.74,4.84-0.01c7.09,4.23,14.65-0.29,21.83,1.45c0.39,0.09,1.32-0.6,1.43-1.06
		C819.46,909.84,822.11,907.95,821.12,905.36z M761.82,1053.71c-13.8,1.5-30.99-1.78-48.18,1.62c-5.9,1.17-12.21,1.72-18.35,2.42
		c-2.03,0.23-3.18,1.65-3.89,3.39c-0.33,0.8-0.06,2,0.76,2.11c2.2,0.29,3.53,2.35,5.89,2.42c6.03,0.16,12,0.77,18.03,1.57
		c12.67,1.69,25.56,0.75,38.44,1.96c17.49,1.64,35.26,0.2,52.89,0.59c4.23,0.09,5.91-1.79,7.27-4.88c2.32-5.28-1.45-11.19-7.09-11.2
		C793.42,1053.7,779.28,1053.71,761.82,1053.71z M767.18,1205.69c-18.91-1.83-42.63,1.91-66.45,1.99c-2.03,0.01-3.36,1.13-5,1.82
		c-1.05,0.45-2.33,0.44-2.44,2.02c-0.12,1.83,1.27,2.98,2.45,3.46c2.82,1.16,5.82,2.32,8.82,2.53c16.28,1.14,32.64-1.28,48.96,1.93
		c9.92,1.96,20.19-0.28,30.5,1.75c9.78,1.92,20.23,0.57,30.39,0.37c4.21-0.09,7-4.89,6.77-10.34c-0.2-4.74-3.07-5.58-7.06-5.55
		C800.12,1205.75,786.14,1205.69,767.18,1205.69z M736.49,1659.71c-8.66,0-17.32,0.01-25.98-0.01c-3.17-0.01-5.05,1.51-5.31,4.67
		c-0.25,2.97,1.43,4.94,4.21,5.14c4.73,0.34,9.36,1.19,14.01,1.82c12.04,1.61,24.23,0.38,36.49,1.81
		c16.27,1.89,32.92,0.51,49.41,0.57c4.17,0.02,5.93-2.89,7.63-5.96c-2.95-1.47-3.27-6.19-7.55-6.05
		c-20.35,0.68-40.64-0.63-60.93-1.94C744.5,1659.5,740.49,1659.72,736.49,1659.71z M770.1,759.66c0-0.01,0-0.03,0-0.04
		c10.83,0,21.66,0.02,32.49-0.03c1.41-0.01,3.4,0.69,4.06-0.99c0.98-2.51,3.56-4.74,2.15-7.81c-1.42-3.08-4.23-3.13-7.2-3.12
		c-22.83,0.14-45.67-0.28-68.46,1.89c-8.59,0.82-17.33,0.48-25.97,0.03c-4.05-0.21-7.35,1.47-10.89,2.48c-2,0.57-3.4,2.49-3.11,5.1
		c0.22,1.98,1.3,2.64,3.01,2.43c10.79-1.36,21.37,2.94,31.93,1.69c6.85-0.81,13.64-1.59,20.52-1.62
		C755.77,759.64,762.94,759.66,770.1,759.66z M707.67,609.33c4.22,0.6,8.45,1.77,12.12,1.88c10.87,0.31,21.62,1.83,32.43,2.27
		c13.62,0.56,27.28,0.06,40.92,0.25c4.09,0.06,6.26-2.56,7.52-5.4c1.22-2.75-2.31-3.97-3.83-5.76c-1.23-1.45-3.13-0.82-4.73-0.82
		c-15.3-0.04-30.62-0.33-45.91,0.08c-10.64,0.29-21.31-1.45-32.01,1.52C710.27,604.42,708.83,605.86,707.67,609.33z M989.18,1587.85
		c2.46,1.23,4.1,2.27,3.81,4.03c-1.03,6.22,2.87,11.8,2.09,17.94c-0.53,4.17,2.26,3.95,5.07,3.95c2.81,0,5.29,0.21,5.13-3.97
		c-0.27-6.88-0.45-13.38-3.76-20.02c-3.46-6.91-5.92-10.13-13.48-10.07c-3.16,0.02-6.32,0.07-9.48,0c-2.92-0.06-5.88-0.35-5.55,4.05
		c0.07,0.89-0.54,1.68-1.48,1.69c-6.35,0.09-5.36,5.5-6.27,9.12c-0.92,3.68,0.93,7.31,1.57,10.96c0.64,3.67,2.51,5.56,5.09,7.35
		c1.92,1.33,3.41,0.74,3.19-1.63c-0.32-3.52,1.35-6.15,3.29-9.58c1.14,3.99,2.92,6.91,6.98,5.89c4.22-1.05,3.93-4.69,3.85-8.08
		C989.11,1595.84,989.18,1592.21,989.18,1587.85z M1025.16,1573.61c0-1.33-0.04-2.67,0.01-4c0.07-2.15-0.02-3.97-2.99-4.02
		c-2.95-0.05-3.15,1.69-3.12,3.89c0.05,3.97-1.81,7.56-2.63,11.34c-1.35,6.17-3.65,12.08-3.4,18.58c0.22,5.83,2.6,8.84,8.52,8.21
		c10.81-1.14,21.58-2.48,32.48-1.9c2.53,0.13,4.27-1.26,4.88-3.42c0.66-2.34-1.33-3.7-3.15-4.43c-8.87-3.55-17.99-3.13-26.97-0.77
		c-2.67,0.7-3.73-0.58-5.04-1.91c-1.3-1.32-3.04-2.38-2.03-5.03C1023.75,1584.85,1025.03,1579.33,1025.16,1573.61z"/>
	<path class="st2" d="M1243.16,457.61c-6.21-9.67-15.48-15.26-25.98-18.91c-20.46-7.13-42.01-9.76-63.01-14.7
		c-11.39-2.68-23.38-2.73-35-4.57c-11.33-1.79-22.69-3.32-34.06-4.78c-8.96-1.15-17.92-2.32-26.92-3.18
		c-13.38-1.28-26.69-3.34-40.07-4.75c-11.8-1.24-23.65-1.97-35.46-3.08c-16.85-1.59-33.68-3.49-50.55-4.92
		c-11.5-0.98-23.11-0.89-34.55-2.26c-4.98-0.6-10.02-0.21-14.95-1.01c-0.27,0.07-0.55,0.11-0.86,0.12
		c-15.52,0.09-31.08,2.36-46.59,0.94c-11.19-1.02-22.22-3.34-33.37-4.49c-0.35,0.48-0.85,0.84-1.48,1.03
		c-0.49-0.24-1.07-0.39-1.74-0.41c-6.84-0.14-13.65-0.54-20.46-1.2c-0.85-0.08-1.54,0.08-2.11,0.39c-0.12-0.14-0.22-0.29-0.31-0.45
		c-27.47,0.09-54.95,0.4-82.42,0.42c-0.74-0.24-1.56-0.28-2.37-0.15c-0.49,0.08-0.98,0.15-1.47,0.22c-0.51-0.26-1.08-0.39-1.7-0.32
		c-0.76,0.08-1.53,0.12-2.3,0.09c-0.3-0.01-0.61-0.04-0.91-0.06c-0.08-0.02-0.56-0.08-0.69-0.11c-0.82-0.16-1.69-0.09-2.47,0.18
		c-0.04-0.07-0.09-0.13-0.13-0.2c-0.39,0.02-0.78,0.04-1.17,0.06c-4.76,0.43-9.57,0.73-14.3,0.94c-11.89,0.53-23.74,1.31-35.61,2.09
		c-14.94,0.99-29.82,2.4-44.7,4.03c-15,1.64-29.9,3.76-44.82,5.95c-22.29,3.27-44.35,7.62-66.14,13.22
		c-45.81,11.76-90.4,26.87-131.42,50.98c-19.27,11.33-36.95,24.68-50.03,43.25c-2.87,5.94-6.65,11.61-6.94,18.43
		c-0.59,14.05,10.8,27.58,25.15,31.19c13.39,3.37,27.03,5.55,40.66,5.81c21.75,0.41,43.56,1.29,65.33-0.57
		c5.74-0.49,11.63-0.81,17.39,0.46c3.82-5.11,6.28-10.99,9.33-16.54c-15.2,0.95-30.39,2.19-45.6,2.75
		c-12.48,0.47-25,0.46-37.48,0.08c-16.87-0.52-33.9-0.99-49.93-7.04c-13.6-5.13-16.26-14.89-7.85-26.51
		c11.3-15.61,26.36-26.98,42.33-37.01c15.94-10.02,32.89-18.32,50.33-25.6c15.13-6.31,30.45-12.04,46.03-17.12
		c26.66-8.69,53.86-15.29,81.37-20.57c21.11-4.05,42.36-7.41,63.7-9.89c14.95-1.74,29.93-3.34,44.97-4.29
		c16.04-1.02,32.06-2.24,48.12-3.06c23.42-1.19,46.82-1.92,70.26-1.81c16.99,0.08,33.99,0.14,50.98-0.05
		c17.14-0.2,34.23,1.07,51.36,1.24c19.22,0.19,38.43,1.67,57.62,2.85c18.85,1.16,37.68,2.56,56.51,4.02
		c19.98,1.56,40.01,2.81,59.9,5.14c17.41,2.04,34.88,3.43,52.28,5.52c15.75,1.89,31.56,3.51,47.33,5.32
		c13.95,1.61,27.82,3.98,41.74,5.92c1.59,0.22,2.27,1.26,3.05,2.28c4.84,6.31,11.75,9.64,18.81,12.37
		c10.72,4.15,20.88,9.44,30.41,15.65c10.07,6.56,14.28,14.74,4.85,27.15c-9.51,12.51-22.88,19.62-36.95,25.54
		c-11.48,4.83-23.41,8.3-35.54,11.07c-13.08,2.99-26.31,5.02-39.55,7.07c-13.26,2.06-26.62,3.01-39.91,4.67
		c-3.28,0.41-6.65,0.17-9.98,0.23c-0.02,3.14,0.24,6.31-0.12,9.41c-0.51,4.43,0.93,7.23,5.6,7.19c8.83-0.08,17.61,2.91,26.47,0.44
		c9.66,0.11,19.13-1.81,28.58-3.32c23.67-3.78,47.27-8.03,69.84-16.62c19.4-7.38,36.91-17.21,48.56-35.2
		c0.84-2.54,1.1-5.14,1.09-7.83c-0.03-5.48-0.27-11,0.35-16.42C1244.19,468.68,1244.56,463.16,1243.16,457.61z"/>
	<path class="st3" d="M1197.11,1645.73c0.52-1.53,1.17-2.92,3.07-3.06C1199.61,1644.14,1198.31,1644.89,1197.11,1645.73z"/>
	<path class="st3" d="M1202.12,1640.72c-0.13-1.56,1.1-2.23,2.04-3.08C1204.45,1639.31,1203.47,1640.13,1202.12,1640.72z"/>
	<path class="st3" d="M1200.12,1642.72c-0.06-1.43,0.75-1.99,2.05-2.06C1201.77,1641.62,1201.2,1642.42,1200.12,1642.72z"/>
	<path class="st3" d="M1204.1,1637.71c0.39-0.34,0.78-0.68,1.17-1.02C1205.05,1637.23,1204.87,1637.81,1204.1,1637.71z"/>
	<path class="st3" d="M1196.11,1646.72c0.36-0.36,0.72-0.72,1.08-1.08C1196.82,1646,1196.47,1646.36,1196.11,1646.72z"/>
	<path class="st3" d="M1195.11,1647.73c0.36-0.36,0.71-0.72,1.07-1.08C1195.82,1647.01,1195.46,1647.37,1195.11,1647.73z"/>
	<path class="st3" d="M1194.22,1648.63c0.32-0.33,0.64-0.66,0.96-0.99C1194.86,1647.97,1194.54,1648.3,1194.22,1648.63z"/>
	<path class="st3" d="M1193.39,1649.25c0.28-0.06,0.5-0.21,0.64-0.45C1193.84,1649,1193.63,1649.15,1193.39,1649.25z"/>
	<path class="st0" d="M196.44,298.71c3.28-7.35,10-10.83,15.6-15.27c14.79-11.73,30.81-21.59,47.86-29.77
		c20.01-9.6,41.17-15.97,62.44-21.89c24.08-6.7,48.35-12.72,72.99-17.14c10.63-1.91,21.22-4.03,31.86-5.92
		c2.4-0.43,3.87-2.28,6.02-3.11c5.96-2.3,12.32-2.54,18.42-2.78c13.6-0.53,27.19-1.44,40.84-1.31c14,0.14,27.86-2.59,41.8-3.59
		c11.38-0.82,22.89-0.7,34.38,0.33c11.82,1.06,23.7,2.79,35.63,0.55c2.42-0.45,4.99-0.27,7.48-0.14c12.98,0.69,25.9-0.71,38.84-1.22
		c11.88-0.47,23.77-1.33,35.66-1.96c12.06-0.64,24.13-1.22,36.18-2c15.56-1.01,31.19-0.9,46.67-2.14
		c20.68-1.65,41.18,0.78,61.78,0.55c14.86-0.16,29.78,1.3,44.69,1.89c11.72,0.46,23.45,1.26,35.16,1.98
		c15.33,0.95,30.65,2.02,45.99,2.93c17.12,1.01,34.26,2.17,51.31,4.02c17.66,1.91,35.36,3.36,52.99,5.69
		c28.92,3.81,57.61,8.87,86.28,14.17c23.45,4.33,46.89,8.71,69.28,17.15c8.45,3.19,16.53,7.31,23.09,13.84
		c4.57,4.55,5.33,9.93,3.94,15.94c-3.03,13.12-11.66,20.97-23.53,26.41c-17.38,7.95-35.81,12.03-54.36,15.66
		c-18.75,3.67-37.59,6.97-56.47,9.93c-13.63,2.14-27.42,3.32-41.09,5.21c-14.33,1.98-28.78,2.69-43.1,4.81
		c-14.29,2.11-28.71,3.33-43.04,5.18c-20.62,2.67-41.27,4.49-62.07,5.21c-8.77,0.3-17.57,0.79-26.33,0.66
		c-17.33-0.26-34.6,1.68-51.94,1.11c-13.65-0.45-27.31-1.78-40.96-0.94c-15.98,0.98-32,0.15-47.92,1.15
		c-11.81,0.74-23.64-0.27-35.35,0.91c-13.48,1.36-26.96,1.16-40.38,0.65c-17.63-0.66-35.26-1.65-52.85-3.55
		c-11.6-1.25-23.25-2.42-34.9-3.36c-11.47-0.93-22.87-2.6-34.32-3.78c-8.2-0.85-16.44-1.35-24.65-2.13
		c-12.43-1.18-24.87-2.25-37.28-3.77c-8.96-1.1-17.94-2.11-26.92-3.16c-14.35-1.68-28.5-4.46-42.63-7.38
		c-19.53-4.03-38.89-8.81-58.65-11.77c-17.35-2.6-34.75-4.67-52.14-6.96c-25.6-3.38-51.32-3.48-77-2.69
		c-11.13,0.34-22.26,0.39-33.38,0.77C200.45,297.78,198.57,298.34,196.44,298.71z M229.66,283.6c1.82,0,2.67,0.18,3.42-0.03
		c10.63-3.04,21.64-4.3,32.51-4.65c14.4-0.46,28.86-0.84,43.34,0.56c18.01,1.75,35.85,4.55,53.74,7.08
		c22.51,3.19,44.43,9.15,66.63,13.74c14.58,3.01,29.22,5.65,44.03,7.38c9.47,1.11,18.91,2.42,28.44,3.19
		c12.12,0.99,24.18,2.56,36.29,3.77c8.03,0.8,16.1,1.22,24.12,2.13c13.22,1.5,26.41,3.35,39.63,4.87
		c10.31,1.18,20.7,1.71,30.96,3.16c15.55,2.19,31.2,3.34,46.84,3.72c25.23,0.61,50.44-0.46,75.66-1.69
		c22.42-1.1,44.91-0.95,67.37-1.11c10.99-0.08,22,0.86,32.97,0.48c32.5-1.14,65.06,0.28,97.5-3.38c14.55-1.64,29.14-3.16,43.58-5.43
		c20.6-3.23,41.26-5.97,61.93-8.6c14.66-1.87,29.3-3.94,43.85-6.4c20.33-3.43,40.52-7.72,60.74-11.8
		c13.5-2.73,26.95-5.74,39.71-11.07c6.64-2.77,13.28-5.7,18.67-10.76c1.94-1.82,2-2.64-0.58-4.21c-4.52-2.76-9.25-5.04-14.17-6.77
		c-26.87-9.47-54.81-14.64-82.68-20.06c-14.11-2.74-28.26-5.33-42.44-7.68c-12.13-2.01-24.29-3.94-36.51-5.23
		c-10.95-1.16-21.89-2.51-32.9-3.29c-16.4-1.15-32.71-3.37-49.1-4.76c-12.15-1.03-24.3-2.04-36.46-2.91
		c-19.28-1.38-38.56-2.75-57.84-4.06c-10.56-0.72-21.12-1.33-31.69-1.98c-17.55-1.08-35.15-1.79-52.73-2.03
		c-23.73-0.32-47.41,1.34-71.1,2.79c-11.73,0.71-23.48,1.21-35.22,2.03c-18.84,1.32-37.7,2.71-56.57,2.95
		c-25.8,0.33-51.58,1.46-77.39,1.37c-12-0.04-24.04,1.54-36,2.91c-13.9,1.6-27.8,3.03-41.77,3.88c-5.28,0.32-10.69,0.36-15.79,1.24
		c-23.33,4-46.74,7.56-69.89,12.66c-36.86,8.11-73.39,17.41-109.15,29.47C257.45,269.85,243.75,276.04,229.66,283.6z"/>
	<path class="st3" d="M426.85,880.89c0.27,5.32,1.37,10.28,1.35,15.45c-0.14,30.83-0.29,61.66,0.03,92.48
		c0.16,14.78,0.5,29.59,1.11,44.36c0.6,14.58,0.52,29.22,1.88,43.75c1.62,17.44,2.89,34.9,4.7,52.33
		c1.58,15.28,3.52,30.51,5.28,45.76c1.08,9.33,2.8,18.58,4.11,27.89c1.03,7.35,2.09,14.71,2.77,22.09
		c1.3,14.14,3.65,28.12,5.95,42.12c3.66,22.36,8.84,44.35,15.5,65.99c12.37,40.16,32.01,76.6,56.92,110.27
		c13.39,18.09,28.61,34.49,46.26,48.59c4.73,3.78,10.29,5.09,15.83,6.69c0.47,0.14,1.14-0.12,1.47,0.14
		c5.78,4.47,12.45,7.01,19.12,9.81c4.58,1.93,3.8,8.04,3.67,12.14c-0.24,7.35-1.69,14.69-3.59,21.88c-0.45,1.68-1.01,3.15-2.45,4.16
		c-2.78,1.94-3.71,4.48-2.75,7.76c0.23,0.77,0.43,1.93,0.03,2.44c-6.06,7.85-6.62,19.04-15.12,25.34c-3.2,2.37-6.73,3.63-11.09,2.73
		c-17.59-3.64-31.95-13.05-45.87-23.89c-29.16-22.7-52.83-50.19-72.53-81.22c-15.64-24.64-29.82-50.15-42.25-76.54
		c-13.63-28.94-23.18-59.35-29.99-90.59c-5.2-23.85-8.79-47.96-12.26-72.13c-3.21-22.36-3.31-44.73-2.54-67.09
		c0.57-16.48,1.81-32.99,3.52-49.46c1.45-13.96,2.57-27.99,4.35-41.91c2.02-15.84,4.75-31.59,7.52-47.33
		c5.81-32.98,12.8-65.71,20.37-98.32c4.22-18.17,8.52-36.34,16.29-53.43C424.8,882.35,424.89,881.15,426.85,880.89z"/>
	<path class="st3" d="M434.67,567.29c3.82-5.11,6.28-10.99,9.33-16.54c8.75-14.63,17.43-29.3,26.83-43.54
		c3.27-4.96,6.31-10.07,9.57-15.03c0.99-1.5,2.31-3.15,4.47-1.91c1.8,1.03,1.36,2.85,0.99,4.48c-0.18,0.8-0.55,1.57-0.94,2.29
		c-8.85,16.53-6.05,34.11-4.62,51.56c-0.03,5.18-1.06,10.41,0.57,15.53c0.62,14.39,6.15,27.64,9.78,41.31
		c4.92,18.55,7.71,37.37,6.32,56.46c-1.44,19.76-7.19,38.47-16.26,56.26c-4.76,9.33-9.36,18.67-15.88,26.86
		c-5.63,7.06-12.23,12.98-21.48,15.16c-4.27,1.01-7.93,0.53-10.93-2.78c-2.94-3.25-6.46-5.73-10.17-7.98
		c-3.8-2.3-6.75-5.46-8.86-9.27c-4.88-8.82-9.77-17.64-14.25-26.67c-3.02-6.08-5.01-12.59-3.96-19.58c0.53-3.56-0.9-6.87-1.1-10.35
		c-1.08-18.83,4.58-36.25,10.92-53.53c7.66-20.87,18.14-40.41,28.45-60.03C433.91,569.13,434.26,568.2,434.67,567.29z"/>
	<path class="st2" d="M480.87,564.14c-1.63-5.12-0.61-10.34-0.57-15.53c0.94-0.3,1.87-0.81,2.82-0.87
		c13.39-0.73,26.78-1.73,40.19-1.99c16.24-0.32,32.45-1.49,48.67-1.87c20.06-0.47,40.06-2.38,60.14-2.22
		c-0.08,2.3,0.73,3.58,3.26,4.11c7.68,1.59,15.51,1.31,23.24,1.71c20.74,1.05,41.53,0.47,62.31,0.88
		c45.52,0.91,91.07,0.32,136.6,0.31c3.1,0,6.5-0.31,6.52-4.39c0.02-4.05-2.75-5.66-6.66-5.65c-19.44,0.04-38.88,0.02-58.32-0.88
		c-9.3-0.43-18.64-0.1-27.96-0.12c1.67-1.67,3.79-0.94,5.7-0.94c36.1-0.05,72.2-0.05,108.3-0.06c3.03,0.74,2.15,2.99,1.58,4.76
		c-1.5,4.65-1.69,9.39-1.55,14.2c-53.46,0.03-106.94-0.38-160.39,0.31c-21.28,0.27-42.59,0.14-63.85,0.93
		c-16.24,0.6-32.5,1.16-48.71,2.1c-9.81,0.57-19.6,0.22-29.38,0.77c-23.39,1.32-46.82,1.32-70.21,2.25
		C502.04,562.37,491.3,561.63,480.87,564.14z"/>
	<path class="st0" d="M780.63,1445.61c-24.16,0-48.38,1.06-72.44-0.39c-14.68-0.89-29.38-0.65-43.97-1.94
		c-4.76-0.42-9.64-1.31-14.52-1.69c-3.28-0.25-3.14-2.27-1.29-3.97c2.39-2.21,5.22-3.68,8.71-3.97c18.8-1.58,37.78-0.67,56.45-2.38
		c31.39-2.88,62.81,0.48,94.03-2.03c16.06-1.29,32.02-0.96,48.02-1.47c6.99-0.22,11.6,5.12,9.16,11.54
		c-1.13,2.97-3.72,6.47-8.68,6.43c-25.15-0.22-50.31-0.1-75.46-0.1C780.63,1445.63,780.63,1445.62,780.63,1445.61z"/>
	<path class="st0" d="M780.59,1277.73c25.45,0,46.1,0.16,66.74-0.12c5.05-0.07,9.08,2.25,12.66,4.66c2.84,1.91,1.32,6.54,0.88,9.84
		c-0.36,2.71-2.93,3.56-5.75,3.54c-13.32-0.08-26.75,1.05-39.94-0.24c-38.12-3.73-76.33,0.04-114.4-2.12
		c-12.16-0.69-24.32-1.2-36.48-1.84c-3.13-0.16-6.19-1.77-9.55-2.03c-2.36-0.18-3.74-2.43-3.61-5.16c0.15-3.22,2.52-2.5,4.38-2.54
		c3.49-0.09,7.06,0.39,10.48-0.11c15.93-2.34,32.17-0.23,47.91-2.32C737.81,1276.12,761.61,1279.48,780.59,1277.73z"/>
	<path class="st0" d="M930.99,1609.65c-8.45,0.39-15.68-1.41-22.83-3.71c-1.24-0.4-2.27-0.14-3.15,0.84
		c-3.21,3.59-6.88,6.69-11.11,8.9c-4.26,2.23-8.73,4.14-13.24,5.81c-1.96,0.72-7.41-4.57-7.52-7.02c-0.12-2.83-0.04-5.66-0.06-8.49
		c-0.01-2.21-0.25-4.5,3.11-4.39c2.49,0.08,5.1-0.55,5.08,3.48c-0.02,3.54,2.88,2.86,4.75,2.21c4.66-1.62,11.41-13.5,11.1-18.49
		c-0.15-2.46-1.33-2.71-3.4-3.17c-6.16-1.35-10.4,2.37-14.64,5.45c-2.71,1.97-4.4,3.32-7.68,0.94c-3.47-2.51-2.99-5.95-1.9-8.47
		c3-6.94,5.81-13.79,5.62-21.51c-0.02-0.79,0.22-2.15,1.15-1.73c3.24,1.45,4.98-1.55,7.45-2.09c3.83-0.84,7.69-1.03,10.7-4.22
		c0.76-0.81,3.39-1.05,4.34,0.88c0.98,2-0.8,3.29-2.07,4.03c-3.09,1.81-6.34,3.4-9.67,4.73c-3.7,1.47-4.24,4.22-3.92,7.62
		c0.15,1.62,0.92,2.67,2.5,2.39c7.81-1.37,13.4,3.39,19.38,6.97c2.69,1.61,3.29,1.04,4.33-1.89c1.88-5.26,4.3-10.43,7.28-15.14
		c1.47-2.34,2.73-4.82,4.28-7.13c2.23-3.31,4.52-5.86,8.85-3.31c0.28,0.16,0.64,0.37,0.92,0.32c6.33-1.08,9.37,2.65,12.95,7.24
		c2.76,3.55,4.05,7.4,5.37,11.24c1.29,3.75,1.57,8.49,1.29,11.88c-0.34,4.07,0.28,8.93-1.85,12.83c-1.54,2.82-0.25,8.36-6.31,7.41
		c-0.09-0.01-0.32,0.21-0.33,0.34C941.1,1613.28,934.14,1608.24,930.99,1609.65z M930.62,1585.7c8.51,0.06,10.71-2.47,8.32-10.33
		c-0.98-3.21-2.74-6.25-5.59-8.48c-2.42-1.9-6.16-2.16-7.23-0.57c-2.17,3.22-4.76,6.61-5.01,10.87c-0.46,7.96,0.01,8.46,8.02,8.5
		C929.63,1585.7,930.13,1585.7,930.62,1585.7z"/>
	<path class="st0" d="M751.16,985.66c-39.5,0-71.48,0-103.45,0c-1.33,0-2.67,0.06-3.99-0.05c-2.42-0.21-4.31-1.6-4.31-3.95
		c0-2.35,1.92-4.04,4.32-3.89c7.45,0.47,14.77-1.35,21.89-2.44c20.85-3.2,41.82,0.55,62.43-1.97c21.87-2.68,43.82,0.55,65.41-2.1
		c18.75-2.3,37.36-0.55,55.99-1.56c2.29-0.12,4.34,0.32,6.59,1.44c3.14,1.57,6.07,3.08,4.75,6.81c-1.14,3.24-3.66,5.35-7.77,5.82
		C816.61,987.97,780.08,984.19,751.16,985.66z"/>
	<path class="st0" d="M701.46,1128.25c29.79-4.17,59.92-0.85,89.76-3.1c16.23-1.22,32.37-0.41,48.5-1.55
		c4.57-0.32,5.68,1.4,5.48,5.67c-0.46,9.67,1.22,7.3-8.57,8.62c-22.64,3.05-45.42-0.04-67.94,2.04
		c-37.49,3.47-74.97,0.5-112.42,1.67c-1.29,0.04-2.88,0.09-3.85-0.58c-2.2-1.51-5.91-2.77-4.88-6.02c1.11-3.48,4.85-5.02,8.35-5.17
		c7.48-0.33,14.99,0.06,22.47-0.25C686.04,1129.27,693.51,1126.16,701.46,1128.25z"/>
	<path class="st0" d="M681.01,837.64c-12.87,0-23.37-0.09-33.86,0.06c-2.92,0.04-5.48-0.56-7.96-2.03c-2.64-1.55-2.88-4.5-0.24-5.99
		c1.4-0.79,2.66-1.85,4.48-2.01c11.14-0.98,22.22-2.1,33.46-2.17c17.66-0.11,35.42-0.91,52.93-2.42
		c15.58-1.34,31.17,0.47,46.49-1.65c22.51-3.11,45.02-0.89,67.5-1.8c0.5-0.02,1.01,0.04,1.49-0.07c7.04-1.54,9.26,0.71,7.8,7.91
		c-0.44,2.15-1.94,4.26-3.84,3.86c-5.35-1.13-10.59,0.17-15.74,0.55c-26.96,2.01-54.01,0.72-80.91,2.34
		c-11.16,0.67-22.63-0.57-33.44,1.77C705.57,838.96,692.09,836.21,681.01,837.64z"/>
	<path class="st0" d="M820.64,687.65c-9.33,0-18.76,0.82-27.98-0.17c-18.49-2-37.14-3.17-55.48-1.4
		c-33.53,3.24-67.02,0.43-100.51,1.54c-2.1,0.07-4.29,0.42-6.11-1.37c-1.04-1.02-3.82-0.46-3.2-2.93c0.56-2.21,2.23-3.61,4.74-3.62
		c5.17-0.01,10.37,0.38,15.49-0.11c43.12-4.06,86.43,0.42,129.48-2.4c26.24-1.72,52.36-0.35,78.52-1.43
		c1.76-0.07,3.83-0.72,5.25,0.79c1.62,1.72,5.01,2.99,3.85,5.77c-1.23,2.94-3.49,5.42-7.55,5.37c-12.16-0.17-24.33-0.06-36.5-0.06
		C820.64,687.64,820.64,687.64,820.64,687.65z"/>
	<path class="st0" d="M827.13,1589.73c-19.53-1.35-39.05,0.98-58.34,2.58c-25.55,2.12-50.98,0.42-76.44,1.3
		c-4.51,0.16-8.66,1.24-12.96,2.07c-6.82,1.33-13.1-2.66-19.95-2.12c-3.38,0.26-2.67-3.04-1.95-4.84c0.9-2.26,2.98-3.39,5.66-3.1
		c9.23,0.99,18.47-0.01,27.68-0.19c9.37-0.18,18.79-1.06,27.93-3.63c1.24-0.35,2.65-0.16,3.98-0.16
		c13.15-0.02,26.37,0.83,39.44-0.21c25.8-2.05,51.6-1.83,77.41-1.75c2.56,0.01,4.04-2.49,6.48-1.97c4.45,0.94,8.79,2.42,13.47,2.11
		c1.48-0.1,1.72,1.43,1.61,2.61c-0.15,1.71,0.96,4.08-1.19,4.93c-2.37,0.94-4.38,2.6-7.36,2.49
		C844.12,1589.52,835.62,1589.72,827.13,1589.73z"/>
	<path class="st0" d="M714.33,1513.66c2.83,0,5.68,0.2,8.49-0.04c9.38-0.77,18.81-1.2,27.97-3.73c1.4-0.39,2.99-0.28,4.47-0.15
		c13.25,1.13,26.53-0.35,39.37-2.51c11.64-1.96,23.04-0.77,34.52-1.46c4.54-0.27,5.93,1.86,5.98,7.65c0.05,6.63-0.9,8.32-5.82,8.19
		c-24.51-0.68-48.88,3.47-73.41,2.09c-1.33-0.08-2.83-0.4-3.97,0.07c-8.48,3.51-17.37,0.9-25.97,1.96
		c-5.49,0.68-10.54-1.26-15.35-2.64c-4.32-1.24-8.41-0.96-12.59-1.42c-2.17-0.24-5.08,0.73-4.83-3.13c0.21-3.18,2.05-4.77,5.16-4.8
		c5.33-0.06,10.66-0.02,15.98-0.02C714.33,1513.69,714.33,1513.68,714.33,1513.66z"/>
	<path class="st0" d="M768.07,1357.67c17.98,0,33.96-0.01,49.94,0c5.4,0,9.12,3.36,9.07,8.11c-0.05,4.59-3.65,7.83-8.82,7.84
		c-16.15,0.01-32.42,1.22-48.4-0.43c-11.37-1.18-22.91,0.18-33.9-1.98c-10.14-1.99-20.05-0.86-30.04-1.51
		c-4.4-0.29-8.32-3.04-12.94-2.18c-1.39,0.26-1.83-1.19-1.82-2.44c0.01-1.12-0.32-2.93,1-2.99c3.08-0.14,5.43-2.15,8.49-2.49
		C723.75,1357.04,746.92,1357.9,768.07,1357.67z"/>
	<path class="st0" d="M821.12,905.36c0.99,2.59-1.66,4.48-2.28,6.99c-0.11,0.46-1.04,1.15-1.43,1.06
		c-7.18-1.75-14.74,2.78-21.83-1.45c-1.22-0.73-3.67-0.75-4.84,0.01c-3.72,2.39-7.71,1.62-11.59,1.63
		c-26.99,0.07-53.98-0.01-80.97,0.08c-2.89,0.01-5.16-0.62-6.98-2.89c-1.02-1.28-2.76-2.4-1.64-4.25c0.92-1.52,2.32-2.47,4.34-2.92
		c10.91-2.45,22.12-0.7,32.96-2.2c22.34-3.09,44.74-0.31,66.98-2.14c6.63-0.55,13.3-1.45,20-1.54
		C820.08,897.65,821.16,898.81,821.12,905.36z"/>
	<path class="st0" d="M761.82,1053.71c17.45,0,31.6-0.01,45.75,0.01c5.64,0.01,9.41,5.92,7.09,11.2c-1.36,3.09-3.04,4.97-7.27,4.88
		c-17.64-0.39-35.4,1.05-52.89-0.59c-12.87-1.21-25.77-0.28-38.44-1.96c-6.03-0.8-11.99-1.41-18.03-1.57
		c-2.36-0.06-3.68-2.13-5.89-2.42c-0.82-0.11-1.08-1.31-0.76-2.11c0.71-1.74,1.86-3.16,3.89-3.39c6.14-0.7,12.46-1.26,18.35-2.42
		C730.83,1051.93,748.02,1055.22,761.82,1053.71z"/>
	<path class="st0" d="M767.18,1205.69c18.96,0,32.95,0.05,46.93-0.03c3.98-0.02,6.86,0.82,7.06,5.55
		c0.23,5.45-2.56,10.26-6.77,10.34c-10.15,0.21-20.61,1.56-30.39-0.37c-10.31-2.02-20.58,0.21-30.5-1.75
		c-16.32-3.22-32.67-0.79-48.96-1.93c-2.99-0.21-6-1.37-8.82-2.53c-1.18-0.48-2.57-1.63-2.45-3.46c0.1-1.57,1.39-1.57,2.44-2.02
		c1.63-0.7,2.97-1.82,5-1.82C724.55,1207.6,748.27,1203.86,767.18,1205.69z"/>
	<path class="st0" d="M736.49,1659.72c4,0.01,8.01-0.22,11.99,0.04c20.29,1.32,40.58,2.62,60.93,1.94c4.28-0.14,4.6,4.57,7.55,6.05
		c-1.7,3.07-3.47,5.97-7.63,5.96c-16.49-0.06-33.14,1.32-49.41-0.57c-12.26-1.43-24.45-0.2-36.49-1.81
		c-4.65-0.62-9.28-1.48-14.01-1.82c-2.78-0.2-4.46-2.17-4.21-5.14c0.26-3.16,2.14-4.68,5.31-4.67
		C719.17,1659.72,727.83,1659.71,736.49,1659.72z"/>
	<path class="st0" d="M770.1,759.66c-7.16,0-14.33-0.02-21.49,0.01c-6.88,0.03-13.67,0.81-20.52,1.62
		c-10.56,1.25-21.14-3.05-31.93-1.69c-1.7,0.21-2.79-0.45-3.01-2.43c-0.29-2.61,1.12-4.53,3.11-5.1c3.55-1.01,6.85-2.69,10.89-2.48
		c8.64,0.46,17.38,0.79,25.97-0.03c22.8-2.17,45.63-1.75,68.46-1.89c2.97-0.02,5.79,0.04,7.2,3.12c1.41,3.07-1.17,5.31-2.15,7.81
		c-0.66,1.68-2.65,0.99-4.06,0.99c-10.83,0.05-21.66,0.03-32.49,0.03C770.1,759.63,770.1,759.65,770.1,759.66z"/>
	<path class="st0" d="M1047.16,557.7c1.6,5.37,2.44,10.82,2.02,16.47c-0.16,2.1-0.46,3.67-3.01,3.47c-2.13-0.17-4.07,0.61-5.23-2.87
		c-1.67-5.02-4.91-9.5-3.95-15.23c0.19-1.12-0.76-1.76-1.96-1.69c-1.2,0.06-1.79,0.76-1.86,1.9c-0.1,1.49,0.18,3.11-0.3,4.46
		c-0.76,2.11-2.31,3.7-4.87,3.42c-3.55-0.39-5.52-2.91-6.69-5.85c-0.62-1.57-0.37-3.48-2.84-2.98c-2.03,0.41-3.13,1.81-3.33,3.84
		c-0.28,2.73,0.16,5.38-1.56,8.1c-1.23,1.94-1.98,3.33-4.33,2.83c-2.31-0.5-3.9-1.94-4.02-4.38c-0.17-3.49-0.1-7-0.13-10.5
		c0.01-1.5,0.03-3,0.03-4.5c0-6.94,0-6.94,5.52-9.54c0.15-0.07,0.26-0.21,0.4-0.29c3.69-2.06,7.33-2.96,11,0.14
		c1.39,1.18,2.42,1.09,3.44-0.85c0.6-1.13,2.28-1.87,3.63-2.4c4.69-1.84,12.41,2.27,14.04,7.03
		C1044.28,551.5,1044.83,554.99,1047.16,557.7z"/>
	<path class="st0" d="M707.67,609.33c1.16-3.47,2.6-4.91,6.5-5.99c10.7-2.96,21.37-1.23,32.01-1.52
		c15.29-0.42,30.61-0.12,45.91-0.08c1.61,0,3.5-0.63,4.73,0.82c1.53,1.79,5.05,3.01,3.83,5.76c-1.26,2.85-3.43,5.46-7.52,5.4
		c-13.64-0.19-27.3,0.32-40.92-0.25c-10.81-0.45-21.56-1.96-32.43-2.27C716.12,611.1,711.89,609.93,707.67,609.33z"/>
	<path class="st0" d="M885.12,555.59c-0.14-4.8,0.05-9.55,1.55-14.2c0.57-1.77,1.45-4.02-1.58-4.76
		c-2.13-8.17-0.44-10.29,8.66-10.97c0.97-0.07,2.36-0.01,2.81-0.58c3.38-4.34,9.35-3.47,13.25-6.8c1.32-1.13,3.78-1.32,4.85,0.5
		c1.02,1.72,0.9,3.99-1.11,5.3c-2.42,1.58-4.89,2.93-7.82,3.67c-4.66,1.18-10.02,2.11-9.65,8.93c-2.7,1.46-2.26,3.97-1.63,6.13
		c0.8,2.74,3,0.98,4.63,0.9c5.27-0.25,10.01,0.25,13.77,4.93c2.04,2.53,1.25,6.3,4.29,8.09c-0.16,7.08-4.07,12.27-9.08,16.52
		c-3.64,3.08-14.83,2.08-18.9-1.01c-1.75-1.33-3.01-8.01-1.6-9.56c1.39-1.53,4.33-1.68,4.79-0.35c1.5,4.35,4.93,4.12,7.52,2.96
		c3.21-1.44,6.15-4.1,5.29-8.56c2.7-0.75,2.03-1.92,0.53-3.42c-3.25-3.24-9.41-2.14-12.55,2.33
		C890.45,558.94,887.78,558.96,885.12,555.59z"/>
	<path class="st0" d="M989.18,1587.85c0,4.36-0.07,8,0.02,11.63c0.08,3.39,0.37,7.03-3.85,8.08c-4.06,1.01-5.84-1.91-6.98-5.89
		c-1.94,3.43-3.61,6.05-3.29,9.58c0.21,2.37-1.28,2.96-3.19,1.63c-2.58-1.79-4.45-3.68-5.09-7.35c-0.64-3.64-2.49-7.28-1.57-10.96
		c0.91-3.62-0.08-9.03,6.27-9.12c0.95-0.01,1.55-0.81,1.48-1.69c-0.32-4.4,2.63-4.11,5.55-4.05c3.16,0.07,6.32,0.02,9.48,0
		c7.57-0.05,10.03,3.16,13.48,10.07c3.32,6.63,3.5,13.14,3.76,20.02c0.16,4.17-2.32,3.97-5.13,3.97c-2.8,0-5.6,0.23-5.07-3.95
		c0.78-6.14-3.12-11.72-2.09-17.94C993.28,1590.12,991.64,1589.08,989.18,1587.85z"/>
	<path class="st0" d="M992.12,558.52c-2.75,0.49-2.52,3.62-4.31,4.89c-4.86,3.45-13.4,3.09-18.65-0.69
		c-2.59-1.86-7.27-0.47-8.05-5.16c-4.21-5.6-4.71-12.18-4.95-18.83c2.19-2.55-0.1-5.99,1.59-8.55c6.97-10.55,18.97-11.61,27.39-3.6
		c3.83,3.64,5.41,9.06,9.97,12.03c-2.44,0.41-2.25,2.34-1.75,3.82c1.49,4.4,0.08,8.41-1.35,12.39
		C991.5,556.22,991.33,557.32,992.12,558.52z M965.18,538.62c-2.31,1.1-2.21,3.1-1.85,5.14c1.25,7.14,6.01,11.2,12.38,13.55
		c4.03,1.49,7.65-0.45,9.23-4.41c3.14-7.89,2.65-11.78-1.8-14.26c0.51-2.93-1.22-4.76-2.82-6.99c-2.35-3.27-5-0.32-7.4-1.12
		c-6.83-2.29-7.86-1.48-7.82,5.6C965.1,536.96,965.15,537.79,965.18,538.62z"/>
	<path class="st0" d="M1063.17,536.69c-0.02,3.14,0.24,6.31-0.12,9.41c-0.51,4.43,0.93,7.23,5.6,7.19
		c8.83-0.08,17.61,2.91,26.47,0.44c-0.42,2.23,0.7,3.77,2.2,5.22c2.06,1.98,2.89,3.48-0.77,5.01c-2.34,0.98-4.45,1.78-7.01,1.73
		c-8.69-0.18-17.41,0.47-25.94-2.02c-4.04-1.18-7.02-3.98-10.46-6.07c0.36-4.77-0.62-9.58,0.6-14.33c0.48-1.87,1.05-3.9-0.6-5.61
		c0.33-1.92,2.49-3.08,2.02-5.39c-1.15-5.66,1.74-10.87,1.99-16.38c0.08-1.9,1.4-3.38,2.96-3.38c1.53,0,3.01,1.45,2.97,3.34
		c-0.05,2.69,0.55,5.06,1.74,7.52c0.7,1.44,0.71,4.05-0.17,5.25C1062.73,531.24,1063.31,533.95,1063.17,536.69z"/>
	<path class="st0" d="M954.15,557.61c-3.22,7-7.91,11.43-16.37,10.06c-6.76-1.09-10.58-5.58-13.71-11.04
		c-3.59-6.32-0.63-12.61,0.08-18.9c3.27-7.12,5.51-8.47,13.31-8.02c3.57,0.21,10.6,5.6,11.68,8.97
		C955.42,543.77,954.05,550.89,954.15,557.61z M938.67,556.68c7.26,0,9.68-2.81,8.42-8.9c-1.08-5.25-9.76-11.1-14.71-9.84
		c-0.54,0.14-1.16,0.72-1.39,1.24c-2.02,4.73-2.19,9.65-0.19,14.31C932.39,557.18,936.08,556.89,938.67,556.68z"/>
	<path class="st0" d="M1025.16,1573.61c-0.13,5.72-1.42,11.24-3.45,16.53c-1.02,2.65,0.72,3.71,2.03,5.03
		c1.31,1.33,2.37,2.61,5.04,1.91c8.98-2.36,18.1-2.78,26.97,0.77c1.82,0.73,3.81,2.09,3.15,4.43c-0.61,2.16-2.35,3.56-4.88,3.42
		c-10.9-0.58-21.67,0.76-32.48,1.9c-5.93,0.62-8.3-2.38-8.52-8.21c-0.25-6.5,2.05-12.41,3.4-18.58c0.83-3.78,2.69-7.37,2.63-11.34
		c-0.03-2.2,0.17-3.94,3.12-3.89c2.98,0.05,3.07,1.87,2.99,4.02C1025.13,1570.94,1025.16,1572.27,1025.16,1573.61z"/>
	<path class="st2" d="M1053.14,537.66c1.65,1.71,1.09,3.74,0.6,5.61c-1.23,4.75-0.25,9.56-0.6,14.33c-1.99,0.03-3.98,0.07-5.98,0.1
		c-2.33-2.71-2.88-6.2-3.98-9.42c-1.63-4.76-9.34-8.87-14.04-7.03c-1.35,0.53-3.04,1.26-3.63,2.4c-1.02,1.94-2.05,2.03-3.44,0.85
		c-3.67-3.1-7.31-2.2-11-0.14c-0.14,0.08-0.26,0.22-0.4,0.29c-5.52,2.6-5.52,2.59-5.52,9.54c0,1.5-0.02,3-0.03,4.5
		c-4.33-0.05-8.66-0.1-12.99-0.15c-0.79-1.21-0.61-2.31-0.12-3.69c1.43-3.98,2.84-8,1.35-12.39c-0.5-1.48-0.69-3.41,1.75-3.82
		C1014.45,538.52,1033.81,539.28,1053.14,537.66z"/>
	<path class="st2" d="M924.15,537.73c-0.7,6.3-3.67,12.59-0.08,18.9c-2.31,0.03-4.62,0.06-6.93,0.09c-3.04-1.79-2.25-5.55-4.29-8.09
		c-3.76-4.68-8.5-5.18-13.77-4.93c-1.62,0.08-3.83,1.84-4.63-0.9c-0.63-2.16-1.07-4.67,1.63-6.13
		C905.38,538.8,914.81,537.09,924.15,537.73z"/>
	<path class="st2" d="M954.15,557.61c-0.11-6.72,1.27-13.84-5-18.93c2.34,0.02,4.67,0.04,7.01,0.07c0.24,6.65,0.74,13.23,4.95,18.83
		C958.79,557.58,956.47,557.6,954.15,557.61z"/>
	<path class="st2" d="M893.14,555.63c3.14-4.47,9.3-5.57,12.55-2.33c1.5,1.5,2.18,2.67-0.53,3.42
		C901.15,556.36,897.15,555.99,893.14,555.63z"/>
	<path class="st1" d="M956.16,538.74c-2.34-0.02-4.67-0.04-7.01-0.07c-1.09-3.37-8.11-8.77-11.68-8.97
		c-7.8-0.45-10.04,0.9-13.31,8.02c-9.34-0.63-18.77,1.07-28.06-1.05c-0.38-6.82,4.99-7.75,9.64-8.93c2.93-0.74,5.4-2.09,7.82-3.67
		c2.02-1.32,2.13-3.58,1.11-5.3c-1.07-1.81-3.53-1.63-4.85-0.5c-3.91,3.33-9.88,2.47-13.25,6.8c-0.45,0.58-1.84,0.51-2.81,0.58
		c-9.1,0.68-10.79,2.8-8.66,10.97c-36.1,0.01-72.2,0.01-108.3,0.06c-1.91,0-4.03-0.73-5.69,0.94c-42.86,0.02-85.72,0.04-128.58,0.05
		c-3.99,0-7.89,0.15-10.4,3.98c-20.08-0.16-40.07,1.75-60.14,2.22c-16.22,0.38-32.42,1.55-48.67,1.87
		c-13.4,0.26-26.79,1.26-40.19,1.99c-0.95,0.05-1.88,0.57-2.82,0.87c-1.42-17.45-4.23-35.03,4.62-51.56
		c0.39-0.73,0.76-1.5,0.94-2.29c0.38-1.63,0.82-3.45-0.99-4.48c-2.16-1.24-3.49,0.41-4.47,1.91c-3.26,4.96-6.3,10.07-9.57,15.03
		c-9.4,14.23-18.08,28.91-26.83,43.54c-15.2,0.95-30.39,2.19-45.6,2.75c-12.48,0.47-25,0.46-37.48,0.08
		c-16.87-0.52-33.9-0.99-49.93-7.04c-13.6-5.13-16.26-14.89-7.85-26.51c11.3-15.61,26.36-26.98,42.33-37.01
		c15.94-10.02,32.89-18.32,50.33-25.6c15.13-6.31,30.45-12.04,46.03-17.12c26.66-8.69,53.86-15.29,81.38-20.57
		c21.11-4.05,42.36-7.41,63.7-9.89c14.95-1.74,29.93-3.34,44.97-4.29c16.04-1.02,32.06-2.24,48.12-3.06
		c23.42-1.19,46.82-1.92,70.26-1.81c16.99,0.08,33.99,0.14,50.98-0.05c17.14-0.2,34.23,1.07,51.36,1.24
		c19.22,0.19,38.43,1.67,57.62,2.85c18.85,1.16,37.68,2.56,56.51,4.02c19.98,1.56,40.01,2.81,59.9,5.14
		c17.41,2.04,34.88,3.43,52.28,5.52c15.75,1.89,31.56,3.51,47.33,5.32c13.95,1.61,27.82,3.98,41.74,5.92
		c1.59,0.22,2.27,1.26,3.06,2.28c4.84,6.31,11.75,9.64,18.81,12.37c10.72,4.15,20.88,9.44,30.41,15.65
		c10.07,6.56,14.28,14.74,4.85,27.15c-9.51,12.51-22.88,19.62-36.95,25.54c-11.48,4.83-23.41,8.3-35.54,11.07
		c-13.08,2.99-26.31,5.02-39.55,7.07c-13.26,2.06-26.62,3.01-39.91,4.67c-3.28,0.41-6.65,0.17-9.98,0.23
		c0.14-2.74-0.44-5.45,1.47-8.07c0.88-1.2,0.86-3.81,0.17-5.25c-1.19-2.46-1.79-4.83-1.74-7.52c0.04-1.89-1.44-3.34-2.97-3.34
		c-1.55,0-2.87,1.49-2.96,3.38c-0.25,5.52-3.13,10.73-1.99,16.38c0.47,2.3-1.69,3.47-2.02,5.39c-19.32,1.61-38.69,0.86-58.03,0.96
		c-4.56-2.98-6.14-8.39-9.97-12.03c-8.42-8.01-20.42-6.95-27.39,3.6C956.05,532.75,958.34,536.19,956.16,538.74z"/>
	<path class="st0" d="M632.11,541.67c2.51-3.83,6.42-3.98,10.4-3.98c42.86-0.01,85.72-0.03,128.58-0.05
		c9.32,0.02,18.66-0.32,27.96,0.12c19.44,0.91,38.87,0.93,58.32,0.88c3.92-0.01,6.68,1.6,6.66,5.65c-0.02,4.08-3.42,4.39-6.52,4.39
		c-45.54,0.01-91.08,0.61-136.6-0.31c-20.78-0.42-41.57,0.17-62.31-0.88c-7.73-0.39-15.56-0.11-23.24-1.71
		C632.84,545.26,632.02,543.97,632.11,541.67z"/>
	<path class="st1" d="M930.62,1585.7c-0.5,0-1,0-1.49,0c-8.01-0.03-8.48-0.54-8.02-8.5c0.25-4.26,2.84-7.66,5.01-10.87
		c1.07-1.59,4.81-1.33,7.23,0.57c2.84,2.23,4.61,5.27,5.59,8.48C941.33,1583.24,939.13,1585.76,930.62,1585.7z"/>
	<path class="st2" d="M983.14,538.64c4.45,2.48,4.94,6.38,1.8,14.26c-1.58,3.96-5.19,5.9-9.23,4.41
		c-6.37-2.36-11.14-6.42-12.38-13.55c-0.36-2.03-0.46-4.04,1.85-5.14C971.17,538.62,977.15,538.63,983.14,538.64z"/>
	<path class="st1" d="M983.14,538.64c-5.99-0.01-11.97-0.01-17.96-0.02c-0.03-0.83-0.08-1.66-0.08-2.49c-0.04-7.08,1-7.89,7.82-5.6
		c2.4,0.8,5.05-2.15,7.4,1.12C981.92,533.87,983.65,535.7,983.14,538.64z"/>
	<path class="st2" d="M938.67,556.68c-2.59,0.21-6.28,0.5-7.86-3.19c-2-4.66-1.83-9.58,0.19-14.31c0.22-0.53,0.84-1.11,1.39-1.24
		c4.95-1.26,13.63,4.59,14.71,9.84C948.35,553.87,945.93,556.68,938.67,556.68z"/>
</g>
<path class="st1" d="M1206.63,1633.64c-0.25-2.05-1.05-3.72-3.07-4.57c-1.67-0.7-4.24-0.51-5.46,1.03c-1.35,1.71-2.7,3.42-4.05,5.13
	c-0.08,0.1-0.16,0.2-0.24,0.3c-0.01,0-0.01,0.01-0.02,0.01c-1.29,0.58-2.07,1.85-2.33,3.23c-0.3,0.65-0.46,1.28-0.52,1.94
	c-4.72,1.56-4.17,9.75,1.66,9.75c2.79,0,4.37-1.88,4.74-4.01c1.66-0.57,2.72-1.71,3.19-3.13
	C1204.05,1641.3,1207.17,1638.02,1206.63,1633.64z"/>
</svg>
