<?xml version="1.0" encoding="utf-8"?>
<!-- Generator: Adobe Illustrator 26.0.3, SVG Export Plug-In . SVG Version: 6.00 Build 0)  -->
<svg version="1.1" id="Layer_1" xmlns="http://www.w3.org/2000/svg" xmlns:xlink="http://www.w3.org/1999/xlink" x="0px" y="0px"
	 viewBox="0 0 811 707" style="enable-background:new 0 0 811 707;" xml:space="preserve">
<style type="text/css">
	.st0{fill:#B5D7F4;}
	.st1{fill:#ACD0F0;}
	.st2{fill:#215974;}
	.st3{fill:#4B49AD;}
	.st4{fill:#8CA7DD;}
	.st5{fill:#829EC6;}
	.st6{fill:#A0BFE1;}
	.st7{fill:#178D95;}
	.st8{fill:#286E85;}
	.st9{fill:#175B77;}
	.st10{fill:#CFE1F6;}
	.st11{fill:#A4C1E9;}
	.st12{fill:#155C77;}
	.st13{fill:#37A28D;}
	.st14{fill:#178C95;}
</style>
<g>
	<path class="st0" d="M616.65,24.4c46.83,0,93.67,0.04,140.5-0.08c2.98-0.01,3.77,0.58,3.59,3.59c-0.31,5.15-0.09,10.33-0.09,15.49
		c-2.05,0.11-2.29,1.68-3.16,3.16c-1.91,3.27-0.71,7.48-2.98,10.22c-3.38,4.07-7.15,7.96-11.32,11.21
		c-15.39,11.98-29.34,25.63-44.26,38.17c-6.53,5.49-13.04,11.09-19.16,17.14c-4.35,4.31-9.16,8.52-14.16,12.09
		c-4.51,3.22-7.69,8.17-13.17,10.04c-0.29-0.67-0.58-1.33-0.87-2c3.3-4.66,3.19-9.79,2.02-15.05c0.39-2.58-0.07-4.49-3.09-5.24
		c-2.71-0.67-5.26-1.98-7.96-2.72c-16.21-4.47-32.93-5.07-49.55-5.86c-12.05-0.57-24.19-0.8-36.22,0.97
		c-7.7,0.63-15.43,0.99-23.08,1.95c-9.08,1.13-18.21,2.11-27.03,4.81c-7.66,0.42-14.54,4.14-22.04,5.26
		c-0.07-1.64,1.19-2.42,2.33-2.95c6.75-3.16,11.59-8.91,17.58-13.13c10.99-7.74,21.09-16.74,32.02-24.67
		c11.59-8.4,22.4-17.87,33.85-26.48c11.47-8.63,22.38-18,34.41-25.93C609.02,31.62,614.19,29.46,616.65,24.4z"/>
	<path class="st1" d="M652.45,145.43c5.48-1.87,8.66-6.82,13.17-10.05c5-3.57,9.81-7.78,14.16-12.09
		c6.12-6.05,12.63-11.65,19.16-17.14c14.91-12.54,28.86-26.18,44.26-38.17c4.17-3.25,7.94-7.13,11.32-11.21
		c2.27-2.74,1.07-6.95,2.98-10.22c0.87-1.48,1.11-3.06,3.16-3.16c0,8.67,0,17.33,0,26c-8.11,7.3-16.22,14.6-24.34,21.89
		c-16.56,14.87-33.5,29.3-50.48,43.68c-17.61,14.92-34.92,30.2-52.5,45.16c-20.86,17.75-41.84,35.35-62.81,52.97
		c-8.63,7.26-16.64,15.18-25.68,22.04c-10.3,7.81-22.21,11.81-33.55,17.24c-10.6,5.07-21.96,7.32-33.18,10.29
		c-5,1.32-10.08,3.34-14.49,6.35c-14.27,9.71-29.11,18.73-42.58,29.46c-15.32,12.2-32.32,21.55-48.9,31.59
		c-6.83,4.13-12.78,8.83-18.12,14.55c-2.55,2.74-5.5,4.05-9.3,3.93c-2.03-0.06-4.36-0.98-6.15,0.93c-1.12-0.51-1.23-1.41-1.03-2.49
		c0.52-2.87-0.82-4.25-3.57-4.92c-4.15-1.01-7.37-3.68-10.45-6.5c2.54-0.48,4.78,0.27,7.14,1.25c11.57,4.78,17.93,3.32,25.02-5.45
		c1.87-1.04,3.84-1.94,5.59-3.15c11.15-7.77,22.45-15.36,33.34-23.5c20.32-15.2,41.46-29.28,61.38-45.02
		c0.74-0.59,1.71-1.09,2.64-1.22c7.02-0.96,13.85-2.76,20.72-4.27c9.76-2.14,18.77-6.04,28.22-8.76
		c11.59-3.33,20.75-10.51,30.11-17.84c16.99-13.31,33.16-27.55,49.68-41.4c11.83-9.91,23.56-19.92,35.37-29.85
		c8.54-7.18,16.58-14.89,24.37-22.87c1.44-1.48,1.64-3.19,1.65-5.04C649.97,147.46,651.21,146.44,652.45,145.43z"/>
	<path class="st1" d="M616.65,24.4c-2.46,5.06-7.63,7.21-11.84,9.99c-12.03,7.93-22.94,17.3-34.41,25.93
		c-11.45,8.61-22.26,18.08-33.85,26.48c-10.93,7.93-21.03,16.93-32.02,24.67c-5.99,4.22-10.82,9.97-17.58,13.13
		c-1.14,0.53-2.4,1.31-2.33,2.95c-6.15,3.63-12.27,7.3-17.04,12.77c-9.14,6.01-18.61,11.98-24.76,21.11
		c-9.34,13.88-17.21,28.67-22.94,44.5c-2.79,7.7-3.88,16.34-11.11,21.78c-9.71,7.3-18.12,16.07-26.99,24.28
		c-21.68,20.09-42.93,40.65-64.29,61.1c-6.45,6.17-8.4,13.67-5.79,22.28c-0.35,2.61-0.69,5.23-1.04,7.84
		c-0.48,0.12-0.96,0.23-1.44,0.35c-13.47-9.42-10.86-31.15,2.68-39.2c2.33-1.38,4.37-3,6.2-4.95c14.87-15.91,32.1-29.24,47.89-44.14
		c11.93-11.25,22.57-23.79,32.65-36.76c9.84-12.66,17.14-26.62,23.59-41.35c7.19-16.44,17.1-31.14,32.05-42.37
		c26.11-19.61,51.44-40.25,77.1-60.47c21.1-16.63,42.19-33.28,63.28-49.92C601.98,24.4,609.32,24.4,616.65,24.4z"/>
	<path class="st2" d="M334.97,670.59c-34.03,0.33-67.59-3.23-100.49-12.16c-8.96-2.43-17.18-6.95-25.86-10.02
		c-10.38-3.68-19.61-8.85-27.83-15.88c-19.22-16.45-34.16-36.1-38.7-61.42c-3.34-18.63,3.01-35.76,14.77-50.36
		c16.99-21.08,40.47-32.16,65.52-40.26c19.25-6.23,39.07-9.74,59.29-11.28c20.13-1.54,40.28-1.74,60.31,0.31
		c38.66,3.97,75.9,13.28,109.9,32.88c15.39,8.87,29.02,20,39.39,34.69c12.16,17.2,14.58,35.63,8.06,55.72
		c-3.86,11.89-9.09,22.96-15.69,33.48c-3.84,6.12-9.53,10.45-15.55,13.75c-13.71,7.51-27.07,15.76-42.47,19.95
		c-18.96,5.16-38.2,8.01-57.72,9.67C356.92,670.59,345.95,670.45,334.97,670.59z M155.64,531.4c0.8,0.43,0.98,1.17,1,1.99
		c-0.03,1.1,0.15,2.28-1.02,3c-0.97,0.01-1.94,0.01-2.91,0.02c-1-3.3-2.08-1.28-2.57,0.12c-2.84,8.12-6.21,16.31-6.27,24.91
		c-0.1,12.9,5.81,24.25,11.74,35.3c4.2,7.83,9.27,15.06,15.74,21.38c7.55,7.38,15.12,14.62,24.1,20.3
		c3.54,2.24,7.63,3.12,11.11,5.13c9.44,5.46,19.64,8.94,30.02,11.68c14.69,3.89,29.62,6.65,44.78,8.49
		c17.8,2.16,35.64,3.46,53.49,3.38c9.08-0.04,18.26-0.18,27.35-0.84c4.62-0.33,9.27-0.51,13.86-1.03c13.78-1.56,27.49-3.72,41-6.93
		c9.5-2.26,19-4.96,27.46-9.76c6.11-3.47,12.06-7.35,18.13-10.95c11.55-6.87,20.67-16.25,26.53-28.1c3.97-8.03,6.31-17,8.42-25.78
		c2.83-11.8,0.95-23.38-4.03-34.42c-0.6-1.32-1.08-2.91-3.01-2.91c-0.75-0.43-0.9-1.14-0.92-1.91c0.01-0.87-0.18-1.64-1.03-2.09
		c-0.42-2.53-1.61-4.72-3.2-6.66c-11.55-14.07-25.83-24.81-41.79-33.25c-19.8-10.48-40.79-17.81-62.71-22.53
		c-21.11-4.55-42.31-7.69-64.01-7.71c-21.29-0.02-42.56,0.09-63.47,4.34c-17.53,3.57-34.9,7.77-51.32,15.42
		c-18.16,8.46-34.7,18.74-46.48,35.44C154.95,528.74,152.13,530.07,155.64,531.4z"/>
	<path class="st3" d="M309.23,343.56c0.48-0.12,0.96-0.23,1.44-0.35c2.08,0.16,3.09,1.73,4.14,3.2c1.88,2.61,3.36,5.54,6.19,7.33
		c0.49,1.11,1.35,1.7,2.54,1.82l-0.04,0.01c3.08,2.83,6.3,5.49,10.45,6.5c2.75,0.67,4.09,2.06,3.57,4.92
		c-0.19,1.08-0.09,1.98,1.03,2.49c3.34,9.9-5.6,27.31-15.49,30.19c-7.6,2.22-15.33-1.27-19.09-9.68c-6.7-14.97-5.43-29.64,3.2-43.63
		C307.78,345.39,308.54,344.5,309.23,343.56z M306.53,378.6c-0.13,8.34,4.76,13.99,12.05,13.95c2.7-0.02,5.06-0.71,5.31-3.92
		c0.23-2.9-1.49-4.21-4.22-4.36c-3.28-0.18-5.04-2.12-6.04-5.02c-0.54-1.56-1.17-3.08-1.74-4.63c-0.5-1.35-1.31-2.4-2.88-2.2
		c-1.78,0.23-2.39,1.58-2.47,3.2C306.49,376.62,306.53,377.61,306.53,378.6z M312.79,359.38c0.03-2.09,0.07-4.64-2.79-4.83
		c-3.62-0.23-3.51,2.99-3.66,5.32c-0.13,2.04-0.21,4.92,2.72,5C312.38,364.95,312.61,362.06,312.79,359.38z"/>
	<path class="st4" d="M648.74,148.47c-0.02,1.86-0.21,3.57-1.65,5.04c-7.79,7.98-15.83,15.69-24.37,22.87
		c-11.81,9.93-23.55,19.94-35.37,29.85c-16.52,13.84-32.69,28.09-49.68,41.4c-9.35,7.32-18.51,14.51-30.11,17.84
		c-9.46,2.71-18.47,6.61-28.22,8.76c-6.87,1.51-13.7,3.31-20.72,4.27c-0.92,0.13-1.89,0.63-2.64,1.22
		c-19.92,15.74-41.06,29.82-61.38,45.02c-10.88,8.14-22.18,15.72-33.34,23.5c-1.75,1.22-3.72,2.11-5.59,3.15
		c-1.34,0.02-2.67,0.03-4.01,0.05l-0.01-0.01c1.45-1.9,1.97-3.98,2.09-6.43c0.38-7.87-3.31-14.03-7.9-19.83
		c-1.15-1.46-2.49-2.69-2.21-4.75c8.25-6.39,16.97-12.15,24.8-19.11c6.19-5.5,12.52-10.9,19.2-15.77
		c9.82-7.16,19.15-14.83,27.78-23.37c8.76-8.67,17.84-17.03,26.27-26.01c5.16-5.5,10.02-11.31,14.26-17.7
		c6.18-9.3,8.94-20.11,14.91-29.62c8.48-13.52,19.01-24.95,29.83-36.34c-0.29,2.64,1.35,2.78,3.41,2.98
		c12.54,1.22,25.12,1.93,37.71,1.83c2.46-0.02,6.92,1.94,7.12-1.54c0.14-2.56-4.47-1.2-6.9-1.27c-10.95-0.28-21.92,0.37-32.84-1.02
		c-2.01-0.26-3.7-0.27-3.59-2.88c7.4,1.9,14.67,0.66,21.9-1.01c1.38-0.32,3.34-0.63,2.63-2.7c-0.58-1.68-2.29-1.52-3.84-1.21
		c-5.47,1.12-10.96,2.07-16.58,1.69c10.99-5.54,20.6-13.25,31.03-19.67c1.14-0.7,1.95-1.78,1.94-3.25l0,0
		c0.66-0.01,1.32-0.01,1.98-0.02c1.65-0.68,3.31-1.36,4.96-2.04c0.59,0.77,1.32,0.58,2.19,0.54c9.91-0.43,19.64-2.72,29.63-2.55
		c11.11,0.19,22.33-0.7,33.28,1.25c6.33,1.12,12.71,0.5,19.13,2.28c6.42,1.78,12.94,4.06,19.75,4.5c1.17,5.26,1.28,10.38-2.01,15.05
		c-3.28,0.22-6.66-0.75-9.8,0.91c-6.82,3.59-14.46,4.24-21.76,6.05c-12.15,3.01-24.81,3.65-36.74,7.69
		c-1.75,0.59-5.31-0.33-4.9,2.01c0.49,2.78,4.03,1.4,6.03,1.18c15.88-1.81,31.68-3.95,47.15-8.41
		C637.18,151.24,642.74,148.82,648.74,148.47z M632.63,134.64c-1.58,2.91-3.82,2.91-5.59,3.48c-7.1,2.28-14.38,3.86-21.76,5
		c-1.52,0.23-3.69,0.44-3.16,2.9c0.5,2.3,2.16,2.54,4.27,2.02c2.89-0.72,5.88-1.02,8.76-1.77c6.42-1.66,13.06-2.73,18.88-6.15
		c1.83-1.08,3.87-2.47,3.52-5.01c-0.35-2.54-2.18-4.08-4.62-4.64c-9.42-2.13-19-3.28-28.61-2.84c-10.4,0.48-20.79,1.61-31.15,2.83
		c-8.86,1.05-17.75,2.15-26.35,4.77c-1.49,0.45-3.19,0.62-4.07,3.68C572.78,133.73,602.23,129.59,632.63,134.64z M588.21,142.25
		c-5.5-1.84-9.4,0.45-13.47,1.15c-1.01,0.17-2.06,0.4-1.79,1.75c0.25,1.27,1.46,1.41,2.35,1.18
		C579.33,145.32,583.63,145.11,588.21,142.25z"/>
	<path class="st5" d="M653.6,128.39c-6.81-0.44-13.33-2.73-19.75-4.5c-6.42-1.77-12.79-1.15-19.13-2.28
		c-10.96-1.95-22.17-1.06-33.28-1.25c-9.98-0.17-19.72,2.12-29.63,2.55c-0.87,0.04-1.6,0.24-2.19-0.54
		c1.63-3.07,6.57-2.67,7.15-6.84c12.03-1.77,24.17-1.54,36.22-0.97c16.62,0.79,33.34,1.39,49.55,5.86c2.7,0.74,5.25,2.05,7.96,2.72
		C653.53,123.9,653.99,125.81,653.6,128.39z"/>
	<path class="st6" d="M556.77,115.53c-0.58,4.17-5.52,3.77-7.15,6.84c-1.66,0.68-3.31,1.36-4.97,2.04
		c-0.15-0.73-0.14-1.73-1.23-1.49c-0.35,0.08-0.51,0.98-0.75,1.51c0,0,0,0,0,0c-6.14-0.25-12.11,1.08-18.16,1.73
		c-8.66,0.94-17.11,3.48-25.91,3.21c2.01-3.13,6.45-3.5,8.06-7.09c8.81-2.7,17.95-3.68,27.03-4.81
		C541.34,116.52,549.07,116.16,556.77,115.53z"/>
	<path class="st5" d="M648.74,148.47c-6,0.35-11.56,2.77-17.18,4.39c-15.48,4.46-31.27,6.6-47.15,8.41c-2,0.23-5.54,1.6-6.03-1.18
		c-0.41-2.34,3.15-1.42,4.9-2.01c11.93-4.04,24.59-4.68,36.74-7.69c7.31-1.81,14.95-2.46,21.76-6.05c3.14-1.66,6.53-0.69,9.8-0.91
		c0.29,0.67,0.58,1.33,0.87,2C651.21,146.44,649.97,147.46,648.74,148.47z"/>
	<path class="st5" d="M506.66,122.29c-1.61,3.58-6.05,3.96-8.06,7.09c-3.22-0.48-5.07,2.6-7.92,3.06
		c-7.15,0.9-13.76,3.07-19.42,7.77c-0.97,0.81-2.36,4.17-3.68,0.11c4.77-5.48,10.89-9.14,17.04-12.77
		C492.12,126.43,499,122.71,506.66,122.29z"/>
	<path class="st0" d="M351.66,351.42c1.34-0.02,2.67-0.03,4.01-0.05c-7.09,8.77-13.45,10.23-25.02,5.45
		c-2.36-0.97-4.6-1.73-7.14-1.25c0,0,0.04-0.01,0.04-0.01c0-1.8-0.98-2.22-2.54-1.82c-2.84-1.79-4.32-4.72-6.19-7.33
		c-1.05-1.46-2.06-3.04-4.14-3.2c0.35-2.61,0.69-5.23,1.04-7.84c2.22-0.33,3.71,0.57,4.95,2.46c1.45,2.21,3.13,4.28,4.88,6.27
		C330.04,353.75,341.5,356.51,351.66,351.42z"/>
	<path class="st4" d="M351.66,351.42c-10.16,5.09-21.62,2.34-30.13-7.32c-1.75-1.98-3.43-4.06-4.88-6.27
		c-1.24-1.89-2.72-2.79-4.95-2.46c-2.61-8.61-0.65-16.11,5.79-22.28c21.36-20.44,42.61-41,64.29-61.1
		c8.87-8.22,17.28-16.98,26.99-24.28c7.23-5.44,8.32-14.08,11.11-21.78c5.73-15.84,13.6-30.63,22.94-44.5
		c6.15-9.13,15.62-15.1,24.76-21.11c1.31,4.05,2.71,0.69,3.68-0.12c5.65-4.7,12.27-6.88,19.42-7.77c-0.09,1.11-0.82,1.65-1.66,2.29
		c-15.88,12.26-31.45,24.68-41.15,43.01c-5.54,10.46-11.09,20.84-13.58,32.47c-2.79,12.97-9.75,22.79-21.24,29.18
		c-10.19,5.67-18.42,13.75-26.11,22.08c-13.46,14.59-29.22,26.46-44,39.49c-4.04,3.56-9.38,5.58-12.3,10.44
		c-2.88-0.45-5.53,0.93-8.34,1.08c-1.51,0.08-2.42,1.04-2.6,2.55c-0.18,1.53-0.15,3.11,1.39,3.97c1.58,0.89,3.25,1.66,4.93,2.36
		c10.02,4.15,17.08,10.6,17.62,22.26c0.37,7.87,0.39,7.86,8.01,7.8L351.66,351.42z"/>
	<path class="st7" d="M155.62,536.39c1.17-0.72,0.99-1.89,1.02-3c1.25-1,1.31-2,0-3c-0.33-0.99-0.67-1.99-1-2.98
		c11.77-16.7,28.31-26.98,46.48-35.44c16.42-7.64,33.79-11.85,51.32-15.42c20.91-4.25,42.18-4.36,63.47-4.34
		c21.7,0.02,42.9,3.16,64.01,7.71c21.92,4.73,42.91,12.06,62.71,22.53c15.96,8.44,30.24,19.18,41.79,33.25
		c1.6,1.95,2.78,4.13,3.2,6.66c-1.28,0.04-1.93,0.71-2.01,1.98c-1.78,1.65-0.51,3.33-0.14,5.06c1.35,6.3,2.92,12.5,1.66,19.14
		c-2.83,14.96-11.93,25.64-23.3,34.7c-12.59,10.03-27.07,16.5-42.2,21.79c-21.9,7.66-44.6,11.74-67.53,13.03
		c-20.49,1.15-41.12,1.02-61.7-1.46c-23.81-2.87-46.98-7.96-69.44-16.28c-20.63-7.65-39.64-18.06-54.95-34.16
		C155.65,572.11,149.85,555.74,155.62,536.39z M165.64,557.4c0.29,2.08,2.2,3.18,3,4.95c-1,0.97-2.96,0.5-3.66,2.75
		c9.75,1.11,19.17-1.09,29.37-1.56c-1.19,0.99-1.64,1.47-2.19,1.81c-5.06,3.17-10.17,6.28-15.2,9.51c-1.21,0.78-2.78,1.81-1.91,3.57
		c0.76,1.54,2.26,0.76,3.55,0.51c2.92-0.57,5.86-1.02,8.78-1.58c7.15-1.38,14.3-2.73,21.42-4.27c1.48-0.32,3.72-0.82,3.34-2.98
		c-0.33-1.87-2.01-1.61-3.64-1.21c-3.85,0.95-7.74,1.82-11.67,2.39c-1.85,0.27-3.87,2.28-6.14-0.2c3.91-2.63,7.66-5.06,11.29-7.64
		c1.1-0.78,3.05-1.27,2.41-3.29c-0.57-1.79-2.2-1.78-3.73-1.78c-2.01-0.34-4.26,0.81-6.02-1.01c2.8-2.1,6.42-3.57,6.08-8.04
		c1.26-1.28,2.68-2.45,3.75-3.87c3-3.99,2.81-9.46-0.32-13.92c-2.56-3.66-8.36-5.58-12.69-4.26c-7.57,2.32-12.73,7.88-18.04,13.27
		c-2.43,3.7-7.33,2.6-10.34,5.46c-2.81,2.68-3.46,5.63-0.81,8.46C163.29,555.57,164.51,556.44,165.64,557.4z M330.65,484.42
		c-12.28-0.25-24.62-0.48-36.76,1.26c-13.87,1.99-27.79,4.02-41.14,8.68c-11.36,3.97-22.41,8.57-32.15,15.75
		c-5.85,4.32-5.73,13.21-0.02,17.62c4.91,3.8,8.67,3.22,16.42-1.12c10.54-5.91,21.52-10.92,33.51-13.27
		c-2.11,4.86-0.47,9.57,2.19,13.19c4.15,5.64,10.35,1.77,16.92,1.52c-7.09,9.79-5.1,19.32-0.79,29.31
		c-3.22-0.79-4.28-2.63-5.44-4.41c-1.96-3.01-4.12-4.68-7.61-1.7c-1.78,1.52-4.49,2.81-6.19,0.36c-3.08-4.44-6.56-3.08-10.6-1.97
		c-5.69,1.56-11.02,3.64-15.64,7.37c-0.91,0.74-2.21,1.41-1.16,2.72c0.99,1.24,2.07,0.3,3.01-0.41c1.46-1.1,2.81-2.46,4.43-3.19
		c5.97-2.71,11.84-7.49,18.36-0.67c2.04,2.13,5.23,2.8,7.61,0.28c2.98-3.15,4.56-1.86,6.38,1.13c1.02,1.67,2.68,2.94,4.03,4.41
		c1.28,1.39,2.35,2.35-0.7,3.26c-5.32,1.6-5.77,3.41-3.41,8.48c1.02,2.19,3.28,3.87,3.32,7.15c-4.25-3.61-6.33-7.96-8.54-12.2
		c-0.64-1.24-1.14-2.79-2.71-2.29c-2.27,0.73-0.84,2.43-0.44,3.7c3.25,10.18,10.75,16.99,18.79,23.27
		c4.42,3.45,9.49,5.49,15.31,4.76c1.7-0.21,4.32,0.6,4.44-1.9c0.13-2.64-2.53-2.1-4.21-2.07c-2.72,0.06-5.33-0.31-7.78-1.41
		c-1.26-0.57-3.6-1.02-2.88-2.74c0.83-1.96,2.56-0.17,3.81,0.29c7.35,2.69,8.6,2.18,10.31-4.64c0.74,0.5,1.45,0.9,2.06,1.41
		c1.15,0.95-0.38,1.28-0.5,1.95c-0.92,5.19,1.29,10.46,5,10.9c2.93,0.35,5.34,0.3,3.89,4.36c-0.33,0.93,0.36,2.01,1.39,2.39
		c0.53,0.2,1.73,0.09,1.78-0.1c0.6-2.37,1.41-4.78,1.44-7.19c0.02-2.22-2.38-3.12-3.99-3.02c-5.41,0.33-5.33-3.44-6.16-6.84
		c2.19-0.71,3.15,0.8,4.29,1.59c7.95,5.5,17.25,6.72,26.4,7.85c7.4,0.92,14.46-4.34,22.17-2.15c0.25,0.07,0.6-0.25,0.9-0.38
		c6.71-2.82,13.25-13.09,13-20.6c-0.04-1.16,0.39-1.9,1.1-2.61c6.12-6.19,6.57-13.51,3.9-21.23c-1.15-3.33-1.46-5.25,3.09-5.04
		c2.23,0.1,3.43-2,4.02-3.94c1.2-3.97,1.52-8.68-1.16-11.47c-4.34-4.51-3.06-9.47-3.2-14.46c6.7,0.48,12.8,3.36,19.01,5.4
		c14.6,4.8,28.63,11.16,42.17,18.51c4.81,2.61,9.71,5.04,14.58,7.52c2.82,1.43,5.29,0.45,7.2-1.63c1.82-1.98,1.09-4.35,0.03-6.5
		c-1.06-2.14-2.86-3.64-4.72-5.05c-7.62-5.78-15.4-11.27-23.64-16.21c-11.2-6.71-23-12.22-34.93-17.26
		c-10.13-4.28-21.09-6.61-31.73-9.62c-1.19-0.34-2.7-1.83-4.07-0.1c-6.95-4.66-14.2-7.18-22.46-3.4c-0.64,0.29-1.76,0.23-2.34-0.15
		C343.94,483.9,337.25,484.43,330.65,484.42z M325.42,626.23c-4.48-2.41-7.42-5.8-10.91-8.45c-3.03-2.3-5.87-4.98-9.2-6.73
		c-1.98-1.05-6.46-2.16-6.02,1.83c0.73,6.56-0.66,12.45-2.41,18.51c-0.42,1.47-0.94,3.57,1.6,3.9c2.08,0.27,2.88-1.1,3.16-3.01
		c0.6-4.08,1.3-8.15,2-12.22c0.24-1.4-0.78-3.47,0.85-4.06c1.87-0.67,3.27,1.11,4.59,2.34c4.74,4.4,9.49,8.79,14.2,13.22
		c1.26,1.18,2.52,2.22,4.4,1.62c1.28-0.4,1.87-1.36,1.9-2.63c0.12-6.13-0.12-12.26,1.02-18.34c0.26-1.36-0.16-2.74-2.06-2.67
		c-1.55,0.05-1.66,1.16-1.92,2.39C325.67,616.43,325.65,621.02,325.42,626.23z M276.83,604.41c-5.49-0.05-5.45-0.03-7.38,4.04
		c-0.41,0.87-1.09,1.7-1.83,2.31c-3.93,3.23-5.8,8.02-8.97,11.82c-0.77,0.93-1.71,3.09-0.06,3.36c5.58,0.91,10.34,4.66,16.18,4.45
		c1.15-0.04,2.52,0.07,2.66-1.53c0.12-1.37-0.83-2.07-2.09-2.37c-3.06-0.72-6.12-1.44-9.17-2.19c-1.4-0.34-2.5-0.86-1.98-2.71
		c1.13-3.98,4.4-5.88,8.33-4.81c1.11,0.3,2.26,0.58,3.4,0.63c2.21,0.09,5.55,2.95,6.36-0.59c0.9-3.89-3.64-1.93-5.51-3.09
		c-1.38-0.85-3.64,0.11-3.05-3.14c0.63-3.48,2.95-2.16,4.53-2.01c2.94,0.27,5.81,1.19,8.74,1.65c1.39,0.22,3.19,0.61,3.53-1.59
		c0.28-1.83-1.05-2.13-2.47-2.36C283.82,605.62,279.6,604.88,276.83,604.41z M210.29,592.07c1.02,0.05,1.66-0.42,2.03-1.24
		c0.58-1.28-0.22-2.14-0.89-3.13c-0.95-1.42-4.07-2.41-1.61-4.73c2.08-1.97,4.26-1.79,6.53,0.41c1.46,1.41,3.21,2.97,5.57,3
		c1.4,0.02,2.88-0.04,2.41-2.09c-0.3-1.3-9.42-6.75-10.69-6.31c-8.9,3.05-17.8,6.12-26.65,9.34c-2.7,0.98-3.19,2.98-0.89,4.92
		c2.78,2.35,5.75,4.47,8.7,6.6c0.98,0.71,2.31,0.97,3.2-0.01c1.25-1.37,0.03-2.41-0.88-3.37c-1.86-1.95-6.42-2.42-5.69-5.27
		c0.68-2.67,5.35-1.7,7.78-3.51c0.37-0.28,1.02-0.17,1.42-0.42c2.83-1.8,4.79-1.4,6,1.97C207.26,589.98,208.7,591.2,210.29,592.07z
		 M345.06,612.52c2.55-0.15,2.94,1.7,3.7,3.12c2.61,4.83,5.22,9.65,7.78,14.51c0.88,1.66,2.13,2.89,3.95,1.97
		c2.09-1.06,1.07-2.9,0.28-4.31c-2.12-3.76-4.4-7.43-6.56-11.17c-2.06-3.56-1.38-4.79,2.85-5.2c2.3-0.22,4.67,0.34,6.91-0.67
		c1.16-0.52,2.9-0.54,2.42-2.47c-0.39-1.56-1.65-1.82-3.16-1.61c-9.16,1.26-18.33,2.46-27.5,3.69c-1.05,0.14-2.73-0.33-2.51,1.47
		c0.16,1.3,1.59,1.53,2.81,1.54C339.18,613.42,342.36,613.65,345.06,612.52z M238.01,618.36c2.23,0.32,4.3-0.25,6.34-1.03
		c1.34-0.51,2.55-1.25,1.92-2.9c-0.55-1.42-1.95-1.09-3.03-0.76c-3.29,1.02-6.47,1.12-9.71-0.28c-3.25-1.41-3.56-3.08-0.92-5.46
		c1.85-1.67,3.46-3.61,5.34-5.25c4.78-4.16,10.63-4.46,15.37-0.82c0.79,0.61,1.29,1.72,2.27,0.42c0.6-0.79,1.23-1.79,0.46-2.72
		c-0.72-0.87-1.66-1.61-2.61-2.24c-8.5-5.64-19.65,1.36-25.09,9.86c-2.58,4.02-1.05,8.2,3.38,10.06
		C233.69,618.09,235.79,618.76,238.01,618.36z"/>
	<path class="st8" d="M490.56,546.38c1.93,0,2.42,1.59,3.01,2.91c4.99,11.04,6.86,22.62,4.03,34.42
		c-2.11,8.78-4.45,17.75-8.42,25.78c-5.85,11.85-14.97,21.23-26.53,28.1c-6.07,3.61-12.02,7.49-18.13,10.95
		c-8.46,4.8-17.96,7.5-27.46,9.76c-13.51,3.21-27.21,5.37-41,6.93c-4.59,0.52-9.24,0.7-13.86,1.03c-9.09,0.66-18.27,0.8-27.35,0.84
		c-17.85,0.08-35.69-1.22-53.49-3.38c-15.16-1.84-30.09-4.6-44.78-8.49c-10.38-2.74-20.58-6.22-30.02-11.68
		c-3.48-2.02-7.57-2.89-11.11-5.13c-8.99-5.68-16.55-12.92-24.1-20.3c-6.47-6.32-11.54-13.55-15.74-21.38
		c-5.93-11.06-11.84-22.4-11.74-35.3c0.06-8.6,3.43-16.79,6.27-24.91c0.49-1.4,1.57-3.42,2.57-0.12
		c-5.72,19.88-0.59,37.03,13.31,51.81c7.28,7.74,15.66,14.09,24.69,19.82c16.41,10.42,34.23,17.21,52.75,22.45
		c21.24,6,42.86,9.58,64.95,11.14c21.65,1.52,43.15,0.75,64.61-1.43c15.65-1.59,31.05-4.95,46.05-9.85
		c21.51-7.04,41.8-16.37,57.89-32.85c10.48-10.73,16.78-23.33,15.76-38.91C492.45,554.39,490.49,550.58,490.56,546.38z"/>
	<path class="st9" d="M490.56,546.38c-0.08,4.2,1.89,8.01,2.17,12.21c1.02,15.58-5.28,28.18-15.76,38.91
		c-16.1,16.48-36.38,25.81-57.89,32.85c-15,4.91-30.41,8.26-46.05,9.85c-21.46,2.18-42.96,2.96-64.61,1.43
		c-22.09-1.56-43.7-5.14-64.95-11.14c-18.52-5.23-36.34-12.02-52.75-22.45c-9.03-5.74-17.41-12.08-24.69-19.82
		c-13.9-14.78-19.03-31.93-13.31-51.81c0.97-0.01,1.94-0.01,2.91-0.02c-5.77,19.34,0.02,35.72,13.39,49.78
		c15.31,16.1,34.33,26.52,54.95,34.16c22.46,8.32,45.63,13.41,69.44,16.28c20.58,2.48,41.21,2.61,61.7,1.46
		c22.93-1.29,45.63-5.37,67.53-13.03c15.14-5.3,29.61-11.77,42.2-21.79c11.37-9.05,20.47-19.73,23.3-34.7
		c1.25-6.64-0.31-12.84-1.66-19.14c-0.37-1.73-1.64-3.42,0.14-5.06c1.01,0.04,2.02,0.08,3.03,0.11
		C489.67,545.24,489.82,545.95,490.56,546.38z"/>
	<path class="st8" d="M155.64,527.41c0.33,0.99,0.67,1.99,1,2.98c-0.33,0.34-0.67,0.67-1,1.01
		C152.13,530.07,154.95,528.74,155.64,527.41z"/>
	<path class="st8" d="M489.64,544.47c-1.01-0.04-2.02-0.08-3.03-0.11c0.07-1.26,0.72-1.94,2.01-1.98
		C489.47,542.83,489.65,543.6,489.64,544.47z"/>
	<path class="st9" d="M155.64,531.4c0.33-0.34,0.67-0.67,1-1.01c1.31,1,1.25,2,0,3C156.62,532.57,156.44,531.83,155.64,531.4z"/>
	<path class="st10" d="M306.53,378.6c0-0.99-0.04-1.99,0.01-2.98c0.08-1.62,0.69-2.96,2.47-3.2c1.58-0.21,2.38,0.85,2.88,2.2
		c0.58,1.54,1.2,3.07,1.74,4.63c1.01,2.9,2.77,4.84,6.04,5.02c2.73,0.15,4.45,1.46,4.22,4.36c-0.25,3.21-2.62,3.91-5.31,3.92
		C311.3,392.6,306.4,386.95,306.53,378.6z"/>
	<path class="st10" d="M312.79,359.38c-0.17,2.69-0.41,5.58-3.73,5.49c-2.93-0.08-2.85-2.96-2.72-5c0.15-2.33,0.04-5.55,3.66-5.32
		C312.86,354.73,312.82,357.29,312.79,359.38z"/>
	<path class="st1" d="M321,353.73c1.57-0.4,2.55,0.02,2.54,1.82C322.35,355.44,321.49,354.84,321,353.73z"/>
	<path class="st11" d="M330.64,311.39c2.91-4.85,8.26-6.88,12.3-10.44c14.78-13.03,30.53-24.9,44-39.49
		c7.69-8.34,15.92-16.42,26.11-22.08c11.49-6.39,18.45-16.22,21.24-29.18c2.5-11.63,8.05-22.01,13.58-32.47
		c9.7-18.33,25.28-30.75,41.15-43.01c0.84-0.65,1.57-1.18,1.66-2.29c2.86-0.46,4.7-3.53,7.92-3.05c8.8,0.27,17.25-2.28,25.91-3.22
		c6.05-0.65,12.02-1.99,18.16-1.73c0,1.47-0.8,2.55-1.94,3.25c-10.43,6.42-20.04,14.13-31.03,19.67c-4.18-0.17-7.72-3.02-11.95-2.91
		c-1.21,0.03-3.08-0.74-3.47,0.92c-0.43,1.8,1.44,1.71,2.67,2.1c2.34,0.74,4.72,1.43,6.71,2.98c-0.54,1.32-1.58,1.93-2.96,2.04
		c-10.82,11.39-21.35,22.82-29.83,36.34c-5.97,9.52-8.73,20.33-14.91,29.62c-4.25,6.39-9.1,12.2-14.26,17.7
		c-8.43,8.98-17.51,17.34-26.27,26.01c-8.63,8.54-17.97,16.21-27.78,23.37c-6.68,4.87-13.01,10.27-19.2,15.77
		c-7.83,6.96-16.56,12.71-24.8,19.11C339.3,317.4,334.97,314.39,330.64,311.39z M503.76,136.97c4.04-1.69,8.55-3.56,13.03-5.51
		c0.26-0.12,0.45-1.19,0.34-1.25c-0.51-0.3-1.22-0.69-1.7-0.53c-4.21,1.36-8.4,2.78-12.55,4.3c-0.75,0.27-1.17,1.13-1.05,2.06
		C501.95,136.87,502.5,137.06,503.76,136.97z"/>
	<path class="st0" d="M632.63,134.64c-30.39-5.05-59.84-0.91-89.87,4.28c0.87-3.06,2.58-3.22,4.07-3.68
		c8.59-2.62,17.48-3.72,26.35-4.77c10.35-1.22,20.74-2.35,31.15-2.83c9.61-0.44,19.19,0.71,28.61,2.84c2.45,0.55,4.27,2.1,4.62,4.64
		c0.35,2.55-1.69,3.94-3.52,5.01c-5.82,3.42-12.46,4.49-18.88,6.15c-2.88,0.74-5.87,1.05-8.76,1.77c-2.11,0.52-3.77,0.28-4.27-2.02
		c-0.53-2.46,1.63-2.67,3.16-2.9c7.38-1.13,14.66-2.72,21.76-5C628.81,137.55,631.05,137.55,632.63,134.64z"/>
	<path class="st1" d="M330.64,311.39c4.33,3,8.66,6.01,12.99,9.01c-0.28,2.06,1.05,3.29,2.21,4.75c4.59,5.8,8.28,11.95,7.9,19.83
		c-0.12,2.44-0.64,4.53-2.09,6.43c-7.62,0.06-7.64,0.06-8.01-7.8c-0.54-11.66-7.61-18.11-17.62-22.26c-1.68-0.7-3.35-1.46-4.93-2.36
		c-1.54-0.87-1.57-2.44-1.39-3.97c0.18-1.51,1.1-2.47,2.6-2.55C325.12,312.32,327.76,310.94,330.64,311.39z"/>
	<path class="st0" d="M503.65,150.44c-1.98-1.56-4.37-2.25-6.71-2.98c-1.23-0.39-3.1-0.31-2.67-2.1c0.39-1.66,2.26-0.89,3.47-0.92
		c4.23-0.11,7.77,2.74,11.95,2.91c5.63,0.38,11.12-0.57,16.59-1.69c1.55-0.32,3.27-0.47,3.84,1.21c0.71,2.07-1.25,2.38-2.63,2.7
		c-7.23,1.67-14.5,2.91-21.9,1.01C504.95,150.53,504.3,150.49,503.65,150.44z"/>
	<path class="st5" d="M503.65,150.44c0.65,0.04,1.3,0.09,1.95,0.13c-0.11,2.61,1.58,2.63,3.59,2.88
		c10.93,1.39,21.89,0.74,32.84,1.02c2.43,0.06,7.04-1.29,6.9,1.27c-0.19,3.48-4.65,1.52-7.12,1.54c-12.59,0.1-25.17-0.61-37.71-1.83
		c-2.06-0.2-3.7-0.33-3.41-2.98C502.07,152.37,503.11,151.77,503.65,150.44z"/>
	<path class="st0" d="M588.21,142.25c-4.59,2.87-8.89,3.07-12.91,4.09c-0.89,0.23-2.1,0.09-2.35-1.18
		c-0.27-1.36,0.77-1.58,1.79-1.75C578.81,142.7,582.71,140.41,588.21,142.25z"/>
	<path class="st11" d="M542.67,124.43c0.25-0.53,0.41-1.43,0.75-1.51c1.09-0.24,1.08,0.76,1.23,1.49
		C543.99,124.42,543.33,124.42,542.67,124.43z"/>
	<path class="st12" d="M390.75,516.36c0.14,4.99-1.14,9.95,3.2,14.46c2.68,2.79,2.36,7.5,1.16,11.47c-0.59,1.94-1.79,4.04-4.02,3.94
		c-4.54-0.21-4.24,1.71-3.09,5.04c2.67,7.72,2.21,15.04-3.9,21.23c-0.71,0.72-1.14,1.45-1.1,2.61c0.25,7.51-6.29,17.78-13,20.6
		c-0.31,0.13-0.66,0.45-0.9,0.38c-7.71-2.19-14.77,3.06-22.17,2.15c-9.15-1.13-18.45-2.35-26.4-7.85c-1.14-0.79-2.1-2.3-4.29-1.59
		c0.83,3.41,0.75,7.17,6.16,6.84c1.61-0.1,4.02,0.8,3.99,3.02c-0.03,2.41-0.83,4.82-1.44,7.19c-0.05,0.19-1.25,0.3-1.78,0.1
		c-1.02-0.39-1.72-1.46-1.39-2.39c1.46-4.06-0.95-4.01-3.89-4.36c-3.71-0.45-5.92-5.71-5-10.9c0.12-0.66,1.65-1,0.5-1.95
		c-0.62-0.51-1.33-0.91-2.06-1.41c-1.71,6.82-2.96,7.33-10.31,4.64c-1.25-0.46-2.98-2.25-3.81-0.29c-0.72,1.72,1.62,2.18,2.88,2.74
		c2.45,1.1,5.06,1.47,7.78,1.41c1.68-0.04,4.34-0.57,4.21,2.07c-0.12,2.51-2.74,1.69-4.44,1.9c-5.82,0.72-10.9-1.31-15.31-4.76
		c-8.04-6.28-15.54-13.1-18.79-23.27c-0.4-1.27-1.83-2.97,0.44-3.7c1.57-0.5,2.07,1.05,2.71,2.29c2.2,4.24,4.28,8.59,8.54,12.2
		c-0.03-3.28-2.3-4.96-3.32-7.15c-2.36-5.07-1.92-6.88,3.41-8.48c3.04-0.92,1.98-1.87,0.7-3.26c-1.35-1.47-3.01-2.74-4.03-4.41
		c-1.82-2.99-3.4-4.27-6.38-1.13c-2.39,2.52-5.57,1.85-7.61-0.28c-6.52-6.82-12.39-2.04-18.36,0.67c-1.63,0.74-2.97,2.1-4.43,3.19
		c-0.95,0.71-2.02,1.65-3.01,0.41c-1.05-1.31,0.25-1.99,1.16-2.72c4.62-3.72,9.95-5.8,15.64-7.37c4.04-1.11,7.51-2.47,10.6,1.97
		c1.7,2.45,4.41,1.16,6.19-0.36c3.49-2.98,5.65-1.31,7.61,1.7c1.16,1.78,2.22,3.62,5.44,4.41c-4.31-9.99-6.3-19.51,0.79-29.31
		c-6.56,0.24-12.77,4.12-16.92-1.52c-2.66-3.62-4.3-8.33-2.19-13.19c2.75-7.7,7.71-13.86,13.88-18.98c6.77-5.61,13.57-5.3,20,0.62
		c1.06,0.98,1.64,1.38,2.8,0.39c6.81-5.8,15.17-8.3,23.46-10.96c6.6,0.01,13.29-0.52,19.2,3.44c0.57,0.38,1.7,0.45,2.34,0.15
		c8.25-3.78,15.51-1.26,22.46,3.4C383.51,497.48,390.09,505.01,390.75,516.36z M294.62,587.43c0.16,0.14,0.32,0.28,0.48,0.42
		c-0.14-0.16-0.28-0.32-0.43-0.47c-0.37-0.25-0.73-0.49-1.11-0.72c-0.01-0.01-0.17,0.24-0.26,0.37
		C293.74,587.16,294.18,587.3,294.62,587.43z M276.55,510.38c-0.13,0.11-0.29,0.2-0.37,0.33c-2.6,4.14-3.11,8.73-0.27,12.57
		c2.45,3.31,6.09,1.73,9.54,0.48c3.57-1.3,5.6,0.92,6.16,4.4c0.2,1.25,0.03,2.56,0.03,3.99c1.5-0.47,2.94-1.36,4.33-1.28
		c5.66,0.31,7.27-2.73,9.3-7.69c3.48-8.49,10.57-13.67,19.29-12.71c12.74,1.4,24.82,16.89,26.86,26.56
		c0.72,3.39,1.88,4.71,5.12,4.36c5.08-0.53,9.46,1.45,13.7,3.84c6,3.39,10.66,16.74,8,22.88c-0.44,1.02-0.9,2.35-2.44,1.96
		c-1.25-0.32-1.09-1.51-1.14-2.47c-0.05-1,0.04-2-0.03-3c-0.82-11.1-2.52-18.1-18.7-19.19c-4.69-0.31-8.04-2.58-9.19-7
		c-2.06-7.95-6.87-14.21-12.9-19.03c-11.06-8.84-20.02-5.82-24.82,6.26c-2.59,6.53-5.52,9.21-12.55,8.94
		c-7.31-0.28-8.62,2.43-7.47,9.66c2.06,12.93,10.37,22.25,18.56,31.21c9.63,10.54,22.21,16.27,36.59,18.42
		c11.74,1.75,24.6-4.95,28.22-16.01c0.92-2.81,0.2-7.3,5.69-4.9c0.42,0.18,1.52-1.11,2.26-1.76c8.67-7.5,5.58-21.57-1.05-26.99
		c-1.8-1.47-3.66-2.9-5.26-4.57c-0.84-0.88-1.99-2.29-0.83-3.52c1.17-1.23,2.02,0.44,2.91,0.96c3.27,1.92,6.12,4.74,10.09,5.18
		c2.04,0.22,4.46,0.79,5.34-2.2c1.27-4.32-1.96-8.64-6.49-8.68c-1.83-0.01-3.7,0.08-5.46-0.27c-1.38-0.28-3.28-0.73-3.37-2.47
		c-0.09-1.78,1.96-1.48,3.05-1.91c6.06-2.38,7.85-5.71,6.39-12.37c-0.76-10.02-13.09-21.17-24.44-23.13
		c-4.63-0.8-9.21,1.31-13.6-0.54c-10.41-4.38-20.12-2.41-29.14,3.5c-4.12,2.7-7.58,6.39-11.4,9.56c-1.1,0.91-2.22,2.25-3.94,1.29
		c-1.68-0.94-0.46-2.37-0.47-3.58c-0.03-4.13-2.06-6.51-6.17-7.03c-3.82-0.49-7.29,0.48-10.2,2.97
		C282.08,501,278.49,505.08,276.55,510.38z M303.54,586.18c2.82,0.38,3.12-1.24,3.98-2.16c1.2-1.28,0.19-2.14-0.67-2.89
		c-3.91-3.45-6.46-7.99-9.72-11.96c-3.04-3.71-6.8-4.6-10.87-1.36c-3.44,2.74,1.26,4.23,1.66,6.46c0.11,0.63,0.46,1.24,0.76,1.82
		C292.07,582.48,298.94,583.47,303.54,586.18z M366.43,592.24c5.16-1.28,12.82-9.24,13.01-12.78c0.03-0.57-0.21-1.43-0.61-1.68
		c-0.75-0.46-1.77-0.24-2.06,0.66C375.01,583.9,370.9,587.7,366.43,592.24z"/>
	<path class="st13" d="M330.65,484.42c-8.28,2.66-16.64,5.16-23.46,10.96c-1.16,0.99-1.74,0.59-2.8-0.39
		c-6.43-5.92-13.23-6.23-20-0.62c-6.18,5.12-11.14,11.28-13.88,18.98c-11.99,2.35-22.97,7.36-33.51,13.27
		c-7.75,4.34-11.5,4.92-16.42,1.12c-5.71-4.41-5.83-13.3,0.02-17.62c9.74-7.19,20.79-11.78,32.15-15.75
		c13.35-4.66,27.27-6.69,41.14-8.68C306.03,483.94,318.37,484.18,330.65,484.42z"/>
	<path class="st13" d="M390.75,516.36c-0.66-11.35-7.24-18.88-16.1-24.94c1.37-1.73,2.89-0.24,4.07,0.1
		c10.64,3.01,21.6,5.34,31.73,9.62c11.93,5.03,23.72,10.54,34.93,17.26c8.24,4.94,16.02,10.43,23.64,16.21
		c1.86,1.41,3.66,2.91,4.72,5.05c1.07,2.15,1.79,4.52-0.03,6.5c-1.91,2.08-4.38,3.06-7.2,1.63c-4.88-2.48-9.78-4.92-14.58-7.52
		c-13.55-7.34-27.57-13.7-42.17-18.51C403.55,519.72,397.45,516.84,390.75,516.36z"/>
	<path class="st13" d="M173.43,540.58c5.3-5.38,10.47-10.95,18.04-13.27c4.33-1.33,10.12,0.59,12.69,4.26
		c3.13,4.47,3.32,9.94,0.32,13.92c-1.07,1.42-2.49,2.59-3.75,3.87c-2.21-4.4-6.38-5.66-10.68-7.02
		C184.59,540.62,178.82,542.49,173.43,540.58z"/>
	<path class="st12" d="M200.67,558.41c1.53,0,3.16-0.01,3.73,1.78c0.64,2.02-1.3,2.51-2.41,3.29c-3.64,2.58-7.38,5.01-11.29,7.64
		c2.27,2.48,4.29,0.47,6.14,0.2c3.92-0.57,7.81-1.45,11.67-2.39c1.63-0.4,3.31-0.66,3.64,1.21c0.38,2.16-1.86,2.66-3.34,2.98
		c-7.11,1.54-14.27,2.89-21.42,4.27c-2.92,0.56-5.87,1.01-8.78,1.58c-1.29,0.25-2.79,1.03-3.55-0.51c-0.87-1.76,0.69-2.8,1.91-3.57
		c5.03-3.23,10.13-6.34,15.2-9.51c0.54-0.34,1-0.82,2.19-1.81c-10.2,0.47-19.63,2.67-29.37,1.56c0.7-2.26,2.66-1.78,3.66-2.75
		c4.31-0.38,8.62-0.76,12.92-1.14C187.86,559.8,194.45,560.36,200.67,558.41z M189.06,572.96c-0.31-0.09-0.49-0.15-0.68-0.2
		c0.04,0.12,0.07,0.35,0.11,0.35C188.62,573.12,188.77,573.05,189.06,572.96z"/>
	<path class="st12" d="M325.42,626.23c0.23-5.22,0.24-9.81,1.21-14.3c0.26-1.22,0.38-2.34,1.92-2.39c1.89-0.06,2.31,1.31,2.06,2.67
		c-1.14,6.08-0.91,12.22-1.02,18.34c-0.02,1.27-0.62,2.23-1.9,2.63c-1.88,0.59-3.14-0.44-4.4-1.62c-4.72-4.43-9.47-8.82-14.2-13.22
		c-1.33-1.23-2.73-3.01-4.59-2.34c-1.63,0.58-0.61,2.66-0.85,4.06c-0.69,4.07-1.39,8.14-2,12.22c-0.28,1.91-1.08,3.28-3.16,3.01
		c-2.54-0.33-2.02-2.43-1.6-3.9c1.74-6.06,3.13-11.95,2.41-18.51c-0.44-3.99,4.03-2.87,6.02-1.83c3.33,1.75,6.16,4.43,9.2,6.73
		C318,620.43,320.94,623.83,325.42,626.23z"/>
	<path class="st12" d="M173.43,540.58c5.39,1.91,11.16,0.04,16.62,1.77c4.3,1.36,8.46,2.62,10.68,7.02
		c0.33,4.47-3.28,5.94-6.08,8.04c-4.4,0.46-8.54,2.53-13.08,2.08c-5.43,0.23-10.72-0.67-15.94-2.08c-1.13-0.96-2.35-1.83-3.36-2.91
		c-2.65-2.83-2-5.78,0.81-8.46C166.1,543.17,171.01,544.28,173.43,540.58z M179.36,555.37c3.65,0.31,7.47,0.09,11.12-1.13
		c2.41-0.8,5.97-0.96,5.92-4.32c-0.05-3.41-3.74-3.56-6.1-3.99c-5.72-1.04-11.57-0.92-17.33-0.05c-2.09,0.31-4.14,1.23-6.07,2.14
		c-1.16,0.55-2.56,1.5-2.56,2.85c0.01,1.38,1.49,2.03,2.68,2.66C170.86,555.56,175,555.58,179.36,555.37z"/>
	<path class="st12" d="M276.83,604.41c2.77,0.47,6.99,1.21,11.23,1.89c1.42,0.23,2.75,0.53,2.47,2.36c-0.34,2.2-2.14,1.81-3.53,1.59
		c-2.93-0.47-5.8-1.38-8.74-1.65c-1.59-0.15-3.91-1.47-4.53,2.01c-0.59,3.25,1.68,2.29,3.05,3.14c1.87,1.15,6.41-0.8,5.51,3.09
		c-0.82,3.54-4.15,0.68-6.36,0.59c-1.14-0.05-2.29-0.33-3.4-0.63c-3.93-1.07-7.21,0.83-8.33,4.81c-0.52,1.85,0.58,2.37,1.98,2.71
		c3.05,0.74,6.11,1.46,9.17,2.19c1.26,0.3,2.21,1,2.09,2.37c-0.14,1.6-1.51,1.49-2.66,1.53c-5.84,0.21-10.6-3.54-16.18-4.45
		c-1.65-0.27-0.71-2.43,0.06-3.36c3.17-3.8,5.05-8.59,8.97-11.82c0.74-0.61,1.42-1.44,1.83-2.31
		C271.38,604.39,271.34,604.37,276.83,604.41z"/>
	<path class="st12" d="M210.29,592.07c-1.59-0.87-3.03-2.08-3.65-3.84c-1.2-3.38-3.17-3.78-6-1.97c-0.4,0.26-1.05,0.14-1.42,0.42
		c-2.43,1.81-7.1,0.84-7.78,3.51c-0.73,2.85,3.83,3.32,5.69,5.27c0.91,0.95,2.13,1.99,0.88,3.37c-0.89,0.98-2.22,0.72-3.2,0.01
		c-2.95-2.13-5.92-4.26-8.7-6.6c-2.3-1.94-1.81-3.93,0.89-4.92c8.84-3.22,17.74-6.29,26.65-9.34c1.27-0.44,10.39,5.01,10.69,6.31
		c0.47,2.05-1.02,2.11-2.41,2.09c-2.35-0.04-4.11-1.59-5.57-3c-2.27-2.2-4.44-2.38-6.53-0.41c-2.46,2.32,0.66,3.31,1.61,4.73
		c0.67,0.99,1.47,1.85,0.89,3.13C211.95,591.65,211.31,592.11,210.29,592.07z"/>
	<path class="st12" d="M345.06,612.52c-2.71,1.13-5.88,0.9-9.04,0.88c-1.22-0.01-2.65-0.24-2.81-1.54c-0.23-1.8,1.46-1.33,2.51-1.47
		c9.17-1.23,18.34-2.43,27.5-3.69c1.51-0.21,2.77,0.06,3.16,1.61c0.49,1.93-1.26,1.95-2.42,2.47c-2.24,1.01-4.6,0.44-6.91,0.67
		c-4.23,0.41-4.91,1.64-2.85,5.2c2.17,3.73,4.45,7.4,6.56,11.17c0.79,1.41,1.81,3.25-0.28,4.31c-1.82,0.93-3.08-0.31-3.95-1.97
		c-2.56-4.85-5.17-9.68-7.78-14.51C348,614.22,347.62,612.37,345.06,612.52z"/>
	<path class="st12" d="M238.01,618.36c-2.22,0.4-4.32-0.27-6.29-1.11c-4.43-1.87-5.96-6.04-3.38-10.06
		c5.44-8.5,16.59-15.5,25.09-9.86c0.95,0.63,1.88,1.37,2.61,2.24c0.77,0.93,0.14,1.93-0.46,2.72c-0.98,1.3-1.48,0.19-2.27-0.42
		c-4.74-3.65-10.58-3.35-15.37,0.82c-1.88,1.64-3.49,3.57-5.34,5.25c-2.63,2.38-2.33,4.05,0.92,5.46c3.24,1.41,6.42,1.3,9.71,0.28
		c1.08-0.33,2.48-0.66,3.03,0.76c0.63,1.64-0.58,2.38-1.92,2.9C242.32,618.11,240.25,618.68,238.01,618.36z"/>
	<path class="st13" d="M165.64,557.4c5.22,1.42,10.5,2.32,15.94,2.08c0,0.58-0.01,1.15-0.01,1.73c-4.31,0.38-8.62,0.76-12.92,1.14
		C167.84,560.58,165.92,559.49,165.64,557.4z"/>
	<path class="st14" d="M181.56,561.22c0-0.58,0.01-1.15,0.01-1.73c4.54,0.44,8.68-1.62,13.07-2.08c1.76,1.82,4.01,0.67,6.02,1.01
		C194.45,560.36,187.86,559.8,181.56,561.22z"/>
	<path class="st0" d="M503.76,136.97c-1.26,0.09-1.82-0.11-1.93-0.94c-0.12-0.93,0.29-1.78,1.05-2.06c4.15-1.52,8.34-2.94,12.55-4.3
		c0.48-0.15,1.19,0.23,1.7,0.53c0.11,0.07-0.08,1.14-0.34,1.25C512.31,133.41,507.8,135.28,503.76,136.97z"/>
	<path class="st14" d="M385.63,514.37c1.45,6.67-0.33,10-6.39,12.38c-1.09,0.43-3.15,0.13-3.05,1.91c0.09,1.74,1.99,2.19,3.37,2.47
		c1.77,0.36,3.64,0.26,5.46,0.27c4.53,0.03,7.76,4.36,6.49,8.68c-0.88,2.99-3.3,2.43-5.34,2.2c-3.97-0.44-6.82-3.25-10.09-5.18
		c-0.89-0.52-1.74-2.2-2.91-0.96c-1.16,1.22-0.01,2.64,0.83,3.52c1.6,1.67,3.46,3.1,5.26,4.57c6.63,5.41,9.72,19.49,1.05,26.99
		c-0.75,0.65-1.84,1.94-2.26,1.76c-5.49-2.4-4.77,2.09-5.69,4.9c-3.62,11.07-16.49,17.77-28.22,16.01
		c-14.39-2.15-26.96-7.89-36.59-18.42c-8.19-8.96-16.5-18.28-18.56-31.21c-1.15-7.23,0.15-9.94,7.47-9.66
		c7.04,0.27,9.96-2.42,12.55-8.94c4.8-12.08,13.76-15.1,24.82-6.26c6.03,4.82,10.84,11.08,12.9,19.03c1.15,4.42,4.5,6.68,9.19,7
		c16.18,1.08,17.88,8.09,18.7,19.19c0.07,0.99-0.02,2,0.03,3c0.05,0.97-0.11,2.15,1.14,2.47c1.55,0.39,2-0.94,2.44-1.96
		c2.66-6.14-2-19.49-8-22.88c-4.24-2.4-8.62-4.38-13.7-3.84c-3.24,0.34-4.4-0.97-5.12-4.36c-2.04-9.67-14.12-25.16-26.86-26.56
		c-8.72-0.96-15.81,4.22-19.29,12.71c-2.04,4.96-3.64,8-9.3,7.69c-1.39-0.08-2.83,0.81-4.33,1.28c0-1.43,0.17-2.74-0.03-3.99
		c-0.57-3.48-2.6-5.7-6.16-4.4c-3.45,1.25-7.09,2.83-9.54-0.48c-2.84-3.85-2.34-8.43,0.27-12.57c0.08-0.14,0.25-0.22,0.37-0.33
		c1.39,0.04,2.78,0.07,4.18,0.11c-0.02,1.16-0.18,2.33-0.04,3.47c0.29,2.49,0.85,5.18,3.33,6.19c2.54,1.03,4.78-0.53,6.66-2.28
		c3.41-3.18,6.7-6.44,7.07-11.49c1.45,0.98,3.09,1.22,4.76,0.99c8.8-1.21,17.62-1.12,26.5-1.15
		C348.35,506.14,366.95,510.32,385.63,514.37z M317.56,553.33c2.24-0.43,4.82-0.22,6.36-1.38c3.19-2.42,9.07-2.87,8.42-8.53
		c-0.52-4.55-2.32-8.95-3.36-13.45c-0.53-2.32-1.65-2-3.57-1.76c-6.55,0.82-10.91,4.85-14.37,9.8c-2.04,2.91-3.5,6.48-1.45,10.31
		C311.36,551.59,314.27,552.83,317.56,553.33z M347.71,577.38c0.26-0.06,0.9-0.23,1.55-0.33c7.29-1.06,11-6.97,15.52-11.67
		c1.61-1.67-0.2-2.63-1.79-2.93c-3.73-0.69-7.49-1.2-11.22-1.89c-7.61-1.41-9.83,0.05-11.6,7.77
		C339.06,573.15,342.47,577.46,347.71,577.38z M305.61,566.84c0.86,0.98,1.11,1.56,1.46,1.63c7.11,1.49,13.43,3.82,14.46,12.43
		c0.13,1.04,1.24,1.48,2.36,1.37c1.58-0.16,1.81-1.33,1.71-2.53c-0.1-1.3-0.54-2.58-0.67-3.88c-0.26-2.75-3.58-5.04-1.8-7.92
		c1.83-2.96,5.2-1.06,7.86-1.52c0.98-0.17,2.15-0.07,2.37-1.32c0.22-1.29-0.88-1.63-1.86-1.87c-2.75-0.68-5.41-1.38-6.43-4.61
		c-0.3-0.95-1.52-1.44-2.53-0.9c-1.11,0.59-0.56,1.64-0.45,2.63c0.5,4.66-1.96,6.95-6.37,6.29
		C312.63,566.17,309.49,566.17,305.61,566.84z"/>
	<path class="st13" d="M280.72,510.49c-1.39-0.04-2.78-0.07-4.18-0.11c1.94-5.3,5.53-9.38,9.72-12.97c2.92-2.5,6.38-3.46,10.2-2.97
		c4.11,0.52,6.14,2.9,6.17,7.03c0.01,1.21-1.21,2.64,0.47,3.58c1.71,0.96,2.84-0.37,3.94-1.29c3.82-3.17,7.28-6.86,11.4-9.56
		c9.02-5.91,18.73-7.89,29.14-3.5c4.39,1.85,8.98-0.25,13.6,0.54c11.34,1.96,23.68,13.1,24.44,23.13
		c-18.68-4.05-37.28-8.23-56.62-8.16c-8.88,0.03-17.7-0.06-26.5,1.15c-1.68,0.23-3.31-0.01-4.77-0.99
		c-0.33-2.43,0.97-5.59-2.62-6.63c-3.69-1.07-6.83,0.01-9.12,3.11C284.16,505.33,282.48,507.94,280.72,510.49z"/>
	<path class="st14" d="M303.54,586.18c-4.6-2.71-11.47-3.7-14.85-10.09c-0.31-0.58-0.65-1.19-0.76-1.82
		c-0.4-2.23-5.09-3.72-1.66-6.46c4.07-3.24,7.83-2.35,10.87,1.36c3.26,3.97,5.81,8.51,9.72,11.96c0.86,0.76,1.87,1.61,0.67,2.89
		C306.66,584.94,306.35,586.56,303.54,586.18z"/>
	<path class="st14" d="M366.43,592.24c4.47-4.54,8.58-8.35,10.33-13.8c0.29-0.91,1.31-1.13,2.06-0.66c0.41,0.25,0.64,1.11,0.61,1.68
		C379.24,583,371.59,590.96,366.43,592.24z"/>
	<path class="st7" d="M294.62,587.43c-0.44-0.14-0.88-0.27-1.32-0.41c0.09-0.13,0.25-0.37,0.26-0.37c0.38,0.23,0.75,0.48,1.11,0.72
		L294.62,587.43z"/>
	<path class="st7" d="M294.68,587.38c0.14,0.16,0.28,0.32,0.43,0.47c-0.16-0.14-0.32-0.28-0.48-0.42
		C294.62,587.43,294.68,587.38,294.68,587.38z"/>
	<path class="st7" d="M189.06,572.96c-0.29,0.08-0.43,0.15-0.57,0.15c-0.04,0-0.07-0.23-0.11-0.35
		C188.56,572.82,188.75,572.87,189.06,572.96z"/>
	<path class="st13" d="M179.36,555.37c-4.36,0.21-8.5,0.19-12.33-1.84c-1.19-0.63-2.68-1.29-2.68-2.66c-0.01-1.35,1.4-2.3,2.56-2.85
		c1.94-0.91,3.98-1.83,6.07-2.14c5.76-0.87,11.61-0.99,17.33,0.05c2.36,0.43,6.05,0.58,6.1,3.99c0.05,3.36-3.51,3.52-5.92,4.32
		C186.83,555.46,183.01,555.68,179.36,555.37z"/>
	<path class="st12" d="M317.56,553.33c-3.29-0.5-6.2-1.74-7.96-5.02c-2.05-3.83-0.59-7.4,1.45-10.31c3.46-4.95,7.82-8.98,14.37-9.8
		c1.92-0.24,3.03-0.56,3.57,1.76c1.04,4.51,2.84,8.9,3.36,13.45c0.64,5.66-5.24,6.11-8.42,8.53
		C322.38,553.11,319.8,552.9,317.56,553.33z M321.63,533.38c-4.59,1.63-6.91,5.35-8.64,9.55c-0.71,1.71-0.22,3.27,1.21,4.44
		c1.17,0.96,2.41,0.92,2.33-0.81c-0.25-5.2,3.68-8.67,5.15-13.14c0.44-0.13,0.87-0.27,1.31-0.4c-0.09-0.13-0.24-0.37-0.25-0.36
		C322.36,532.89,322,533.14,321.63,533.38z"/>
	<path class="st9" d="M347.71,577.38c-5.25,0.08-8.65-4.22-7.55-9.03c1.78-7.73,3.99-9.19,11.6-7.77c3.73,0.69,7.49,1.2,11.22,1.89
		c1.59,0.29,3.4,1.26,1.79,2.93c-4.52,4.69-8.23,10.61-15.52,11.67C348.61,577.15,347.97,577.32,347.71,577.38z M346.16,572.82
		c0.48-1.41,0.67-2.58,1.24-3.53c1.02-1.69,1.99-3.34,1.47-5.39c-0.05-0.2-0.92-0.38-1.31-0.26c-2.47,0.73-2.76,3.04-3.5,5.01
		C343.34,570.57,344.17,571.78,346.16,572.82z"/>
	<path class="st12" d="M280.72,510.49c1.75-2.55,3.44-5.16,5.28-7.64c2.29-3.09,5.43-4.18,9.12-3.11c3.58,1.04,2.29,4.2,2.62,6.63
		c-0.37,5.05-3.67,8.31-7.07,11.49c-1.88,1.75-4.12,3.31-6.66,2.28c-2.49-1.01-3.04-3.7-3.33-6.19
		C280.55,512.81,280.7,511.64,280.72,510.49z M292.59,508.39c1-1.9,2.22-4.37-0.03-5.56c-2.1-1.11-3.16,1.53-4.24,3.1
		c-0.55,0.81-1.08,1.62-1.62,2.43c-0.38,0.73-0.76,1.46-1.13,2.19c-0.85,1.66-1.82,3.98-0.34,5.01c1.93,1.35,2.9-1.38,4.11-2.47
		C290.76,511.83,292.6,510.71,292.59,508.39z"/>
	<path class="st12" d="M305.61,566.84c3.88-0.68,7.02-0.67,10.12-0.2c4.4,0.67,6.87-1.63,6.37-6.29c-0.11-0.99-0.66-2.04,0.45-2.63
		c1.02-0.54,2.23-0.05,2.53,0.9c1.02,3.23,3.68,3.93,6.43,4.61c0.98,0.24,2.08,0.58,1.86,1.87c-0.21,1.25-1.38,1.15-2.37,1.32
		c-2.65,0.46-6.02-1.45-7.86,1.52c-1.78,2.87,1.54,5.16,1.8,7.92c0.12,1.3,0.56,2.58,0.67,3.88c0.1,1.2-0.14,2.38-1.71,2.53
		c-1.12,0.11-2.24-0.32-2.36-1.37c-1.03-8.61-7.35-10.94-14.46-12.43C306.71,568.4,306.46,567.82,305.61,566.84z"/>
	<path class="st14" d="M321.67,533.43c-1.47,4.47-5.39,7.94-5.15,13.14c0.08,1.73-1.16,1.77-2.33,0.81
		c-1.43-1.18-1.91-2.73-1.21-4.44c1.73-4.2,4.05-7.92,8.64-9.55L321.67,533.43z"/>
	<path class="st14" d="M321.63,533.38c0.36-0.24,0.73-0.49,1.1-0.72c0.01,0,0.16,0.24,0.25,0.36c-0.44,0.13-0.87,0.27-1.31,0.4
		C321.67,533.43,321.63,533.38,321.63,533.38z"/>
	<path class="st14" d="M346.16,572.82c-1.99-1.04-2.83-2.25-2.1-4.17c0.74-1.97,1.03-4.28,3.5-5.01c0.4-0.12,1.26,0.06,1.31,0.26
		c0.53,2.05-0.45,3.7-1.47,5.39C346.84,570.23,346.64,571.41,346.16,572.82z"/>
	<path class="st14" d="M292.59,508.39c0.02,2.32-1.83,3.44-3.24,4.71c-1.21,1.09-2.17,3.82-4.11,2.47
		c-1.48-1.04-0.51-3.35,0.34-5.01c0.37-0.73,0.75-1.46,1.13-2.19C288.66,508.37,290.62,508.38,292.59,508.39z"/>
	<path class="st13" d="M292.59,508.39c-1.96-0.01-3.92-0.02-5.88-0.03c0.54-0.81,1.07-1.63,1.62-2.43c1.07-1.58,2.14-4.21,4.24-3.1
		C294.81,504.02,293.59,506.49,292.59,508.39z"/>
</g>
</svg>
