<?xml version="1.0" encoding="utf-8"?>
<!-- Generator: Adobe Illustrator 26.0.3, SVG Export Plug-In . SVG Version: 6.00 Build 0)  -->
<svg version="1.1" id="Layer_1" xmlns="http://www.w3.org/2000/svg" xmlns:xlink="http://www.w3.org/1999/xlink" x="0px" y="0px"
	 viewBox="0 0 787 675" style="enable-background:new 0 0 787 675;" xml:space="preserve">
<style type="text/css">
	.st0{fill:#B5D7F4;}
	.st1{fill:#ACD0F0;}
	.st2{fill:#292961;}
	.st3{fill:#225874;}
	.st4{fill:#2F2D63;}
	.st5{fill:#8CA7DD;}
	.st6{fill:#829EC6;}
	.st7{fill:#A0BFE1;}
	.st8{fill:#B5D4F6;}
	.st9{fill:#526DAE;}
	.st10{fill:#7D7BC5;}
	.st11{fill:#3A5AA6;}
	.st12{fill:#286D84;}
	.st13{fill:#3F50A2;}
	.st14{fill:#3D4FA1;}
	.st15{fill:#3D4A9D;}
	.st16{fill:#384C9F;}
	.st17{fill:#7070BF;}
	.st18{fill:#A4C1E9;}
	.st19{fill:#A9CEF2;}
	.st20{fill:#D0E6F6;}
	.st21{fill:#CEE4F6;}
	.st22{fill:#4260A4;}
	.st23{fill:#4864A6;}
	.st24{fill:#3959A7;}
	.st25{fill:#D1E4F7;}
	.st26{fill:#D1E2F7;}
	.st27{fill:#3C5AA6;}
</style>
<g>
	<path class="st0" d="M634.86,19.13c46.83,0,93.67,0.04,140.5-0.08c2.98-0.01,3.77,0.58,3.59,3.59c-0.31,5.15-0.09,10.33-0.09,15.49
		c-2.14,0.18-2.1,2.22-3.07,3.43c-2.55,3.22-0.72,7.8-3.24,10.68c-3.26,3.73-6.89,7.25-10.81,10.28
		c-15.69,12.1-29.76,26.05-44.92,38.76c-6.42,5.39-12.77,10.9-18.83,16.76c-4.42,4.27-9.17,8.51-14.17,12.08
		c-4.51,3.22-7.69,8.17-13.16,10.04c-0.29-0.67-0.58-1.33-0.87-2c3.3-4.66,3.19-9.79,2.02-15.05c0.39-2.58-0.07-4.49-3.09-5.24
		c-2.71-0.67-5.26-1.98-7.96-2.72c-16.21-4.47-32.93-5.07-49.55-5.86c-12.05-0.57-24.19-0.8-36.22,0.97
		c-7.7,0.63-15.43,0.99-23.08,1.95c-9.08,1.13-18.21,2.11-27.03,4.81c-2.34-0.06-4.55,0.6-6.8,1.14c-5.12,1.22-9.92,3.63-15.24,4.12
		c2.69-5.43,8.52-7.36,12.86-10.72c12.88-9.96,25.45-20.33,38.76-29.76c11.53-8.17,22.17-17.57,33.44-26.12
		c11.56-8.77,22.56-18.25,34.75-26.24C627.01,26.58,632.18,24.19,634.86,19.13z"/>
	<path class="st1" d="M670.66,140.17c5.48-1.87,8.66-6.82,13.16-10.04c5-3.57,9.75-7.81,14.17-12.08
		c6.06-5.86,12.41-11.38,18.83-16.76c15.15-12.71,29.23-26.66,44.92-38.76c3.92-3.02,7.55-6.55,10.81-10.28
		c2.52-2.88,0.69-7.46,3.24-10.68c0.97-1.22,0.93-3.25,3.07-3.43c0,8.67,0,17.33,0,26c-8.11,7.29-16.22,14.59-24.34,21.88
		c-16.56,14.87-33.49,29.29-50.47,43.67c-17.61,14.92-34.92,30.19-52.49,45.15c-20.85,17.75-41.83,35.35-62.8,52.96
		c-8.88,7.46-17.07,15.66-26.46,22.6c-10.24,7.56-22.02,11.5-33.24,16.85c-10.6,5.05-22.03,7.04-33.15,10.24
		c-7.23,2.08-13.96,5.88-20.29,10.31c-17.41,12.16-34.86,24.24-52.04,36.74c-11.5,8.38-24.14,15.28-36.61,22.23
		c-5.27,2.93-9.35,6.89-13.26,11.13c-3.39,3.68-7.06,5.99-12.19,5.38c-0.54-0.05-1.08-0.11-1.62-0.16c0.2-2.46-1.11-3.37-3.38-4.03
		c-3.44-1.01-7.06-1.86-9.74-4.59c-0.04-5.01,3.06-2.45,4.93-1.86c10.22,3.23,15.54,1.73,22.17-6.53c1.87-1.04,3.84-1.93,5.59-3.15
		c11.15-7.77,22.43-15.38,33.34-23.49c20.37-15.14,41.43-29.33,61.39-45.03c0.75-0.59,1.72-1.09,2.64-1.21
		c7.02-0.94,13.85-2.77,20.72-4.27c9.76-2.13,18.77-6.04,28.22-8.75c11.59-3.32,20.75-10.51,30.1-17.84
		c16.99-13.31,33.16-27.55,49.68-41.39c11.82-9.91,23.56-19.92,35.37-29.85c8.54-7.18,16.57-14.89,24.36-22.86
		c1.44-1.48,1.64-3.19,1.65-5.04C668.19,142.19,669.43,141.18,670.66,140.17z"/>
	<path class="st1" d="M634.86,19.13c-2.68,5.05-7.85,7.44-12.21,10.3c-12.19,7.99-23.19,17.47-34.75,26.24
		c-11.27,8.55-21.92,17.95-33.44,26.12c-13.31,9.43-25.88,19.8-38.76,29.76c-4.34,3.36-10.17,5.29-12.86,10.72
		c-6.15,3.63-12.27,7.3-17.04,12.77c-9.14,6.01-18.61,11.98-24.76,21.11c-9.34,13.88-17.21,28.67-22.94,44.5
		c-2.79,7.7-3.88,16.34-11.11,21.78c-9.71,7.3-18.12,16.07-26.99,24.28c-21.68,20.09-42.93,40.65-64.29,61.1
		c-6.44,6.17-8.42,13.66-5.79,22.28c-1.31,2.17-0.57,4.03,0.77,5.9c1.12,1.56,1.42,3.01-1.19,3.31c-0.42,0.05-0.84,0.11-1.26,0.17
		c-0.13-1.81,0.4-4-2.45-4.24c-0.93,0.01-1.87,0.03-2.8,0.04c-4.18-7.01-5.35-14.32-3.28-22.37c1.01-3.93,2.5-7.52,5.67-9.64
		c9.1-6.07,15.51-14.93,23.69-21.95c12.22-10.49,24.58-20.89,36.02-32.21c17.59-17.41,33.82-36.09,46.46-57.54
		c5.15-8.74,8.21-18.5,12.74-27.59c9.11-18.29,23.07-31.62,39.6-43.04c10.5-7.25,20.18-15.67,30.24-23.57
		c13.32-10.45,26.68-20.85,39.95-31.36c17.05-13.51,34.02-27.1,51.03-40.66c2.59-2.07,5.18-4.14,7.77-6.22
		C620.2,19.13,627.53,19.13,634.86,19.13z"/>
	<path class="st2" d="M198.87,627.04c-7.61,6.45-17.33,9.55-24.94,16.12c-5.83,5.03-13.05,7.39-20.84,6.89
		c-11.77-0.75-23.55-1.29-33.84-8.53c-6.03-4.24-9.52-9.38-11.63-16.58c-4.2-14.28,0.34-25.38,8.46-37.05
		c8.62-12.38,19.46-22.73,28.41-34.72c5.01-6.71,7.82-14.16,9.3-22.23c0.63-3.41,2.04-6.16,4.88-8.28
		c9.34-6.96,16.95-15.26,21.35-26.35c3.24-8.16,9.05-14.65,15.05-20.99c15.01-15.84,33.67-26.44,53.47-34.13
		c18.01-6.99,37.23-10.96,56.64-13.04c31.37-3.37,62.52-2.2,93.3,5c30.19,7.06,58.33,18.55,81.88,39.42
		c10.96,9.72,18.89,21.67,24.87,34.96c1.72,3.82,3.8,7.51,6.97,10.22c7.86,6.72,12.77,15.19,15.44,25.02
		c1.74,6.42,4.99,11.63,11.02,14.7c2.61,1.33,3.86,3.62,4.97,6c4.37,9.38,10.34,17.8,15.65,26.62
		c6.71,11.15,17.09,15.75,29.07,18.04c9.13,1.75,18.34,3.1,27.42,5.1c14.12,3.12,18.2,14.33,10.26,26.43
		c-11.26,17.16-28.12,24.41-47.45,26.63c-16.58,1.9-33.17,0.88-49.52-3.1c-6.48-1.58-11.81-5.27-17.49-8.3
		c-11.48-6.12-23.66-10.43-35.95-14.5c-2.23-0.77-4.46-1.55-6.69-2.33c-1.83-0.71-3.66-1.43-5.49-2.11
		c-11.21-4.17-22.55-6.15-34.63-4.01c-11.23,1.98-22.69,2.59-33.96,4.37c-5.83,0.92-12.04-0.83-17.33,1.11
		c-12.19,4.49-24.55,2.67-36.88,2.6c-5.28-0.03-10.6-0.62-15.81-1.52c-11.7-2.01-23.39-4.33-34.52-8.56
		c-5.73-2.18-11.75-1.94-17.47-3.19c-9.89-2.17-19.72-3.56-29.81-3.75c-2.62-0.05-5.39-0.42-7.79-1.39
		c-6.28-2.55-12.55-3.4-19.35-2.67c-4.77,0.51-9.17,1.2-13.02,4.17C200.79,623.69,199.49,625.02,198.87,627.04z M168.81,523.15
		l0.05-0.07c-0.83,0.44-1.41,1.01-1.04,2.06l0.02-0.05c-5.96,1.27-8.23,6.36-9.4,11.07c-3.22,12.93-10.67,23.15-19.52,32.45
		c-9.35,9.83-16.62,21.12-24.15,32.25c-3.16,4.66-4.48,9.85-2.49,15.59c1.08,3.11,1.68,6.42,2.2,9.68c0.61,3.77,2.91,6.1,5.75,8.35
		c8.42,6.63,18.3,8.06,28.54,8.69c8.03,0.49,15.53-0.33,22.01-5.78c6.91-5.81,14.85-9.9,23.22-13.2c2.32-2.33,4.64-4.66,6.95-7
		c10.37-4.39,20.93-6.95,32.09-3.1c2.22,0.76,4.45,1.33,6.82,1.07c0.95,0.03,1.9,0.05,2.84,0.08c0.53,0.72,1.29,0.89,2.13,0.86
		c10.67,1,21.34,2.01,32.02,3.01c1.99,0.43,3.9,1.38,6.03,0.96c0.65,0.05,1.3,0.09,1.95,0.14c3.38,2.03,7.15,2.64,11,2.97l0.01-0.01
		c0.72,1.13,1.9,0.97,3,1.06c2.63,2.02,5.66,2.87,8.93,2.97c0.36,0.28,0.73,0.55,1.09,0.83c0.67,0.04,1.34,0.09,2.01,0.13
		c5.55,1.54,11.1,3.13,16.94,3.09c13.17,3.33,26.81,2.68,40,2.16c9.16-0.36,18.68-2,28.03-3.17c7.73-0.97,15.2-3.65,23.11-3.33
		c0.81,0.17,1.5,0.01,1.96-0.74c0,0,0,0.01,0,0.01c2.11,0.33,3.99-0.62,5.97-1.02c5.06,0.45,10-0.73,15-1.03
		c7.14,0.41,13.95,2.28,20.75,4.36c7.39,2.27,14.47,5.57,22.21,6.66c0.76,2.15,2.9,2.09,4.53,2.63c5.85,1.92,11.38,4.59,17.05,6.92
		c8.17,3.35,15.12,9.07,23.68,11.54c15.94,4.6,32.19,5.13,48.43,2.84c16.95-2.39,32.05-8.59,41.78-23.95
		c4.56-7.2,2.4-12.79-5.87-15.01c-9.01-2.42-18.27-3.41-27.4-5.1c-13.6-2.52-25.73-7.67-33.25-20.48
		c-5.13-8.74-11.12-16.99-15.29-26.28c-2.34-5.22-5.56-9.88-9.34-14.09c-4.47-4.98-8.08-10.53-11.86-16
		c-3.56-5.14-6.4-10.97-12.1-14.34c-0.35-0.33-0.7-0.66-1.05-0.98c-2.9-4.8-6.47-9.23-8.5-14.52c-3.33-8.69-8.57-16.13-14.83-22.88
		c-17.57-18.95-39.78-30.32-63.86-38.42c-36.91-12.42-74.9-14.76-113.32-10.68c-22.91,2.44-45.08,8.36-66.01,18.28
		c-19.21,9.1-36.58,20.65-47.86,39.3c-2.27,3.76-6.48,6.32-7,11.14l0.07,0.03c-1.06,0.31-1.23,1.07-1.01,2.03
		c0,0,0.04-0.04,0.04-0.04c-0.36,0.35-0.73,0.7-1.09,1.05c-1.81,2.1-2.93,4.66-4.97,6.67c-2.17,2.13-5.08,3.76-5.91,7.06
		C169.52,522.3,169.17,522.72,168.81,523.15z"/>
	<path class="st3" d="M198.87,627.04c0.62-2.02,1.92-3.34,3.97-3.91c-0.21,2.09,0.99,3.13,2.54,4.4c6.89,5.7,14.97,9.17,22.97,12.81
		c14.23,6.48,29.1,10.89,44.44,13.88c15.28,2.98,30.62,5.16,46.17,6c16.19,0.88,32.27,2.26,48.6,1.2
		c17.35-1.13,34.63-2.07,51.79-5.17c14.72-2.66,29.19-6.02,42.66-12.56c2.35-1.14,6.48-1.52,6.91-5.61
		c2.23,0.78,4.46,1.55,6.69,2.33c-18.87,12.33-40.22,17.16-62.04,20.82c-28.07,4.72-56.37,5-84.6,3.68
		c-28-1.31-56.01-4.46-82.61-13.93C229.63,645.04,212.35,639.64,198.87,627.04z"/>
	<path class="st4" d="M322.99,335.28c0.93-0.01,1.87-0.03,2.8-0.04c-0.32,1.3-0.64,2.59-0.95,3.89c-6.62,7.6-10.23,16.32-8.95,26.47
		c1.32,10.45,3.17,20.8,12.74,27.53c11.04,7.77,20.59,4.57,24.56-8.34c2.15-6.99,4.08-14.02,3.95-21.43
		c0.92-0.08,1.83-0.16,2.75-0.25c0.54,0.05,1.08,0.11,1.62,0.16c0.1,12.2-1.51,24.03-10.63,33.07c-7.07,7.01-18.12,6.16-25.71-0.29
		c-15.99-13.58-17.14-34.57-9.38-51.36C317.5,341.01,320.22,338.13,322.99,335.28z"/>
	<path class="st5" d="M666.95,143.2c-0.02,1.85-0.21,3.57-1.65,5.04c-7.79,7.98-15.83,15.68-24.36,22.86
		c-11.81,9.93-23.55,19.94-35.37,29.85c-16.52,13.84-32.69,28.09-49.68,41.39c-9.35,7.32-18.51,14.51-30.1,17.84
		c-9.46,2.71-18.46,6.62-28.22,8.75c-6.87,1.5-13.7,3.33-20.72,4.27c-0.92,0.12-1.89,0.63-2.64,1.21
		c-19.96,15.7-41.02,29.9-61.39,45.03c-10.91,8.11-22.18,15.72-33.34,23.49c-1.75,1.22-3.72,2.11-5.59,3.15
		c-1.34,0.02-2.67,0.03-4.01,0.05c0,0-0.01-0.01-0.01-0.01c1.46-1.9,1.97-3.98,2.09-6.42c0.38-7.87-3.31-14.03-7.9-19.83
		c-1.15-1.46-2.49-2.68-2.21-4.75c11.76-8.62,23.18-17.66,34.37-27.03c12.7-10.64,26.44-20.04,38.14-31.9
		c8.42-8.53,17.35-16.58,25.54-25.32c5.16-5.5,10.01-11.31,14.26-17.7c6.18-9.3,8.94-20.1,14.91-29.62
		c8.48-13.52,19.01-24.95,29.83-36.34c-0.29,2.64,1.35,2.78,3.41,2.98c12.54,1.22,25.11,1.93,37.71,1.83
		c2.46-0.02,6.93,1.93,7.12-1.54c0.14-2.56-4.47-1.2-6.9-1.27c-10.95-0.28-21.92,0.37-32.84-1.02c-2.01-0.26-3.7-0.27-3.59-2.88
		c7.4,1.9,14.67,0.67,21.9-1.01c1.38-0.32,3.34-0.63,2.63-2.7c-0.57-1.68-2.29-1.53-3.84-1.21c-5.47,1.12-10.96,2.07-16.59,1.69
		c10.99-5.5,20.55-13.26,30.99-19.64c1.16-0.71,1.98-1.79,1.98-3.28l0,0c0.66,0,1.32-0.01,1.98-0.01c1.65-0.68,3.31-1.37,4.96-2.05
		c0.59,0.77,1.32,0.58,2.19,0.54c9.91-0.43,19.64-2.72,29.63-2.55c11.11,0.19,22.33-0.7,33.28,1.25c6.33,1.12,12.71,0.5,19.13,2.28
		c6.42,1.78,12.94,4.06,19.75,4.5c1.17,5.26,1.28,10.38-2.01,15.05c-3.28,0.22-6.66-0.75-9.8,0.91c-6.82,3.59-14.46,4.24-21.76,6.05
		c-12.15,3.01-24.81,3.65-36.74,7.69c-1.75,0.59-5.31-0.33-4.9,2.01c0.49,2.78,4.03,1.4,6.03,1.18c15.88-1.81,31.68-3.95,47.15-8.41
		C655.39,145.97,660.96,143.55,666.95,143.2z M561.39,132.72c29.62-4.23,59.11-8.45,90.06-3.2c-3.67,3.21-7.15,3.74-10.39,4.55
		c-6.08,1.52-12.26,2.66-18.4,3.97c-1.38,0.3-2.72,0.84-2.39,2.56c0.31,1.6,1.35,2.82,3.18,2.39c9.33-2.2,18.99-3.22,27.72-7.58
		c2.38-1.19,5.08-2.65,4.51-5.84c-0.52-2.88-2.88-4.15-5.79-4.62c-10.44-1.69-20.75-2.99-31.51-2.11
		c-13.69,1.12-27.35,2.24-40.91,4.38C571.93,128.1,566.12,128.6,561.39,132.72z M606.45,137.02c-5.43-1.91-9.3,0.38-13.34,1.09
		c-1,0.17-2.14,0.31-1.98,1.63c0.2,1.58,1.67,1.61,2.71,1.32C597.73,140,601.89,139.78,606.45,137.02z"/>
	<path class="st6" d="M671.81,123.12c-6.81-0.44-13.33-2.73-19.75-4.5c-6.42-1.77-12.79-1.15-19.13-2.28
		c-10.96-1.94-22.17-1.06-33.28-1.25c-9.98-0.17-19.72,2.12-29.63,2.55c-0.87,0.04-1.6,0.24-2.19-0.54
		c1.63-3.07,6.57-2.67,7.15-6.84c12.03-1.77,24.17-1.54,36.22-0.97c16.62,0.79,33.34,1.39,49.55,5.86c2.7,0.74,5.25,2.05,7.96,2.72
		C671.74,118.63,672.2,120.54,671.81,123.12z"/>
	<path class="st6" d="M666.95,143.2c-6,0.35-11.56,2.77-17.18,4.39c-15.48,4.46-31.27,6.6-47.15,8.41c-2,0.23-5.54,1.6-6.03-1.18
		c-0.41-2.34,3.15-1.42,4.9-2.01c11.93-4.04,24.59-4.68,36.74-7.69c7.31-1.81,14.95-2.46,21.76-6.05c3.14-1.66,6.53-0.69,9.8-0.91
		c0.29,0.67,0.58,1.33,0.87,2C669.43,141.18,668.19,142.19,666.95,143.2z"/>
	<path class="st7" d="M574.98,110.27c-0.58,4.17-5.52,3.77-7.15,6.84c-1.65,0.68-3.31,1.37-4.96,2.05c-0.15-0.73-0.13-1.74-1.23-1.5
		c-0.35,0.08-0.51,0.98-0.76,1.51c0,0,0,0,0,0c-6.14-0.25-12.11,1.08-18.16,1.73c-8.66,0.94-17.11,3.47-25.91,3.22
		c2.01-3.13,6.45-3.5,8.06-7.09c8.81-2.7,17.95-3.68,27.03-4.81C559.56,111.25,567.29,110.89,574.98,110.27z"/>
	<path class="st6" d="M524.88,117.02c-1.61,3.59-6.05,3.96-8.06,7.09c-1.98,0.68-3.96,1.36-5.94,2.03
		c-7.71,1.56-15.18,3.68-21.44,8.84c-0.98,0.81-2.38,4.07-3.64,0.07c4.76-5.48,10.89-9.14,17.04-12.77
		c5.31-0.49,10.11-2.9,15.24-4.12C520.33,117.62,522.53,116.96,524.88,117.02z"/>
	<path class="st8" d="M369.87,346.15c1.34-0.02,2.67-0.03,4.01-0.05c-6.63,8.25-11.95,9.76-22.17,6.53
		c-1.87-0.59-4.97-3.15-4.93,1.85c-4.96-4.47-9.3-9.68-15.4-12.77c-0.63-0.8-1.25-1.59-1.88-2.39c2.61-0.3,2.31-1.76,1.2-3.32
		c-1.34-1.87-2.08-3.72-0.77-5.9c2.54-0.49,4.07,0.86,5.2,2.88c1.9,3.4,4.7,6.05,7.62,8.47
		C352.13,349.23,357.98,350.89,369.87,346.15z"/>
	<path class="st9" d="M331.37,341.7c6.1,3.09,10.45,8.3,15.4,12.77c2.67,2.74,6.29,3.58,9.74,4.6c2.27,0.67,3.58,1.57,3.38,4.03
		c-0.92,0.08-1.83,0.16-2.75,0.25c-0.78-0.59-1.48-1.45-2.36-1.74c-9.2-2.97-15.38-10.19-22.61-15.93c-1.21-0.96-1.3-2.21-1.3-3.56
		C331.04,341.99,331.21,341.85,331.37,341.7z"/>
	<path class="st5" d="M369.87,346.15c-11.89,4.74-17.75,3.08-27.14-4.7c-2.91-2.41-5.71-5.07-7.62-8.47
		c-1.13-2.02-2.66-3.37-5.2-2.88c-2.63-8.61-0.65-16.11,5.79-22.28c21.36-20.44,42.61-41,64.29-61.1
		c8.87-8.22,17.28-16.98,26.99-24.28c7.23-5.44,8.32-14.08,11.11-21.78c5.73-15.84,13.6-30.63,22.94-44.5
		c6.15-9.13,15.62-15.1,24.76-21.11c1.25,4,2.65,0.75,3.63-0.07c6.25-5.16,13.72-7.28,21.44-8.84c-0.07,1.11-0.76,1.68-1.64,2.29
		c-17.12,11.89-32.76,25.14-43.02,43.89c-5.69,10.4-11.16,20.83-13.66,32.47c-2.78,12.96-9.67,22.86-21.2,29.26
		c-10.21,5.66-18.46,13.74-26.15,22.09c-13.47,14.62-29.24,26.49-44.03,39.54c-4.04,3.57-9.39,5.6-12.31,10.44
		c-2.77,0.35-5.54,0.69-8.31,1.05c-1.49,0.19-2.44,1.03-2.62,2.53c-0.19,1.52-0.2,3.1,1.33,3.98c1.57,0.9,3.23,1.68,4.9,2.37
		c10.17,4.2,17.31,10.72,17.7,22.59c0.25,7.53,0.28,7.53,8.01,7.49L369.87,346.15z"/>
	<path class="st10" d="M324.84,339.13c0.32-1.3,0.63-2.59,0.95-3.89c2.85,0.24,2.32,2.43,2.45,4.24c0,0-0.02-0.02-0.02-0.02
		C327.09,339.35,325.96,339.24,324.84,339.13z"/>
	<path class="st9" d="M328.22,339.46c0,0,0.02,0.02,0.02,0.02c0.42-0.06,0.84-0.11,1.26-0.17c0.62,0.8,1.25,1.6,1.87,2.39
		c-0.16,0.14-0.33,0.29-0.5,0.42C329.08,342.14,328.68,340.77,328.22,339.46z"/>
	<path class="st11" d="M310.86,628.16c-0.67-0.04-1.34-0.09-2.01-0.13c-0.36-0.28-0.73-0.55-1.09-0.83
		c-3.27-0.11-6.29-0.95-8.93-2.97c-0.67-1.29-1.88-1.05-3-1.06c0,0-0.01,0.01-0.01,0.01c-3.05-3.26-6.95-3.4-11-2.97
		c-0.65-0.05-1.3-0.09-1.95-0.14c0.12-8.8,1.9-10.27,10.13-8.37c0.32,0.07,0.69,0.36,0.94,0.27c2.23-0.8,5.55,2.95,6.48-0.29
		c1.16-4.03-3.47-2.07-5.3-3.16c-1.52-0.91-3.64-0.75-3.2-3.38c0.47-2.83,2.71-2.07,4.32-1.87c3.26,0.41,6.46,1.25,9.71,1.79
		c1.15,0.19,2.43,0.09,2.74-1.44c0.27-1.31-0.28-2.51-1.54-2.73c-5.34-0.94-10.72-1.64-16.16-1.59c-1.03,0.01-1.53,1.09-2.18,1.86
		c-4.65,5.54-9.04,11.25-11.97,17.93c-10.67-1-21.34-2.01-32.01-3.01c-0.49-0.83-1.27-0.95-2.13-0.86c-0.95-0.03-1.9-0.05-2.84-0.08
		c-0.13-0.85-0.35-1.77-1.33-1.86c-7.23-0.66-12.89-5.26-18.77-8.54c-15.43-8.62-30.2-18.18-40.01-33.93
		c-8.36-13.43-10.83-26.88-4.58-41.59c1.13-2.66,0.94-4.52-2.3-5.11c3.68-5.81,7.16-11.73,12.86-15.96
		c8.57-6.36,16.9-12.95,26.62-17.73c10.51-5.17,20.98-10.13,32.58-12.27c-0.37,0.93-0.74,1.85-1.12,2.78
		c-0.17,0.22-0.38,0.37-0.65,0.45c-2.45,0.08-3.61,1.62-4.26,3.75l-0.08-0.04c-0.89,0.04-1.63,0.25-1.77,1.31l0.07-0.02
		c-1.46-0.39-2.69,0.25-3.63,1.17c-5.31,5.21-10.56,10.48-15.8,15.75c-1.07,1.08-1.86,2.34-1.7,3.97l0.04-0.07
		c-0.9,0.21-1.17,0.87-1.21,1.69c-0.09,0.24-0.26,0.37-0.51,0.4c-3.28,1.22-4.67,3.83-5.18,7.08l0.02-0.06
		c-1.83,0.09-2.64,1.72-3.16,2.88c-2.9,6.47-7.81,11.45-12.1,16.89c-3.28,1.44-7.19,0.91-10.19,3.21c-2.19,1.68-5.21,3.09-4.65,6.39
		c0.54,3.18,2.34,5.82,5.97,6.44c1.5,0.26,2.87,0.73,3.85,1.99c1.14,3.8-2.63,3.76-5.36,5.6c5.34,0.39,9.51,0.65,13.76-0.22
		c3.49-0.72,7.31-1.61,9.62,2.57c-3.76,2.4-7.53,4.77-11.27,7.2c-1.22,0.8-2.9,1.61-2.25,3.41c0.63,1.71,2.49,1.74,3.9,1.34
		c9.72-2.76,19.69-4.21,29.58-6.09c1.45-0.28,2.9-0.95,3.03-2.84c1.13-0.66,2.3-1.26,3.38-2c8.77-6.05,14.03-14.33,15.66-24.87
		l0.03-0.06c0.24-0.41,0.49-0.82,0.73-1.22l-0.07,0.06c1.9-1.29,3.74-2.61,2.98-5.37c-0.03-0.24,0.06-0.4,0.28-0.49
		c1.41-0.09,2.05-0.79,1.79-2.23l-0.04,0.04c3.34-0.66,4.65-2.69,4.07-6.01l-0.04,0.04c2.26,0.19,2.22-1.35,2.18-2.89
		c0,0-0.02,0.02-0.02,0.02c4.33-0.91,6.46-5.2,10.45-6.72c5.36-2.05,10.02-7.39,16.59-3.26c2.22,14.57,4.9,16.42,16.52,12.74
		c2.84-0.9,2.7,0.57,1.68,2.55c-2.96,5.74-4.08,11.5-1.78,17.96c1.06,2.98,1.74,6.16,3.68,9.54c-4.05-0.63-4.51-4.02-6.44-5.8
		c-2.44-2.25-4.34-3.94-7.52-1.13c-1.67,1.48-5.02,2.18-6.01,0.74c-3.95-5.73-8.56-2.7-12.91-1.53c-4.44,1.2-8.66,3.13-12.45,5.82
		c-1.05,0.75-2.37,1.95-1.31,3.29c1.13,1.42,2.03-0.23,2.77-0.91c2.99-2.77,6.88-4.05,10.41-5.72c2.91-1.38,6.37-1.93,9.66,1
		c2.79,2.48,6.33,5.1,10.48,1.36c2.13-1.92,4.08-0.18,5.65,1.29c1.2,1.12,2.03,2.62,3.13,3.85c1.71,1.91,2.13,3.31-0.94,4.26
		c-4.04,1.25-4.35,4.04-2.73,7.5c0.39,0.82,1.3,1.66,0.39,2.75c-2.25,0.14-2.26-2.11-3.33-3.2c-1.49-1.52-1.44-5.9-4.03-4.5
		c-2.39,1.29,0.43,4.67,0.8,7.15c0.06,0.42,0.7,0.72,0.92,1.15c3.2,6.27,9.33,9.79,13.81,14.85c4.65,5.25,10.35,7.53,17.27,7.02
		c1.92-0.14,4.72,0.49,4.52-2.39c-0.18-2.47-2.9-1.54-4.57-1.58c-7.44-0.18-8.68-0.7-12.07-5.7c2.41,0.53,4.51,1.22,6.67,1.93
		c2.35,0.77,5.45,3.32,7.9-0.46c0.73-1.13,0.31-3.65,2.34-3.23c2.03,0.43,1.38,2.7,1.56,4.29c0.14,1.3,0.81,2.73,0.44,3.85
		c-1.19,3.66,1.34,4.72,3.76,5.04c2.89,0.39,5.26,0.45,4.89,4.37c-0.13,1.32,0.94,2.3,2.3,1.18c2.19-1.81,1.13-8.2-1.54-8.34
		c-5.72-0.31-6.67-4.45-8.45-8.56c3.58,0.01,5.2,2.77,7.56,4.16c14.66,8.6,30.32,5.68,45.72,3.85c7.31-0.87,15.15-12.79,14.5-20.13
		c-0.12-1.32,0.3-2.25,1.15-3.12c5.27-5.35,6.61-11.68,4.54-18.77c-1.12-3.84-3.8-8.14,3.78-8c0.99,0.02,2.64-1.87,2.92-3.12
		c0.98-4.46,1.09-9.38-2-12.78c-2.23-2.46-2.67-4.67-2.6-7.51c0.06-2.33,0.02-4.66,0.02-7c5.08,0.52,9.49,3.63,14.11,4.58
		c7.26,1.48,13.42,5.27,20.34,7.23c8.17,2.31,14.59,9.15,23.66,9.29c0.54,0.01,1.27,0.48,1.58,0.96c3.21,4.81,8.77,6.63,13.47,8.39
		c4.19,1.57,5.12,3.14,4.87,6.85c-0.09,1.3,0.21,2.64,0.34,3.95l-0.1-0.01c-3.22-0.1-1.99,2.32-2.22,3.92
		c-0.86,1.21-1.64,2.49-2.61,3.61c-2.35,2.74-4.11,5.69-0.8,8.66c3.16,2.83,6.28,1.25,8.79-1.31c5.83-5.94,9.86-12.72,10.9-21.27
		c0.74-6.09-0.76-11.87-1.14-17.79c1.55,1.04,2.89,2.29,3.8,3.95c0.79,2.61,1.24,5.26,0.99,7.99c-2.78,4.5,0.86,8.55,1.48,12.6
		c1.76,11.56-1.8,21.25-7.97,30.28c-8.79,12.86-21.16,21.79-34.93,28.43c-4.57,2.2-8.9,5.98-14.57,5.7c-1.59-1.52-1.8-0.27-2,1
		c-3.36,1.27-6.1,4.09-10,4c-1.76,0.42-4.34-1.19-5,1.99c-1,0-1.99,0-2.99,0.01c-1.77,0-3.54,0.06-5.31,0
		c-2.19-0.08-2.8,1.12-2.66,3.03c0,0,0-0.01,0-0.01c-0.65,0.25-1.31,0.5-1.96,0.75c-7.9-0.32-15.38,2.36-23.11,3.33
		c-9.34,1.17-18.87,2.81-28.03,3.17c-13.19,0.52-26.82,1.17-40-2.16c-0.08-2.12-1.61-2.06-3.12-2.11c-2.15-0.07-4.39,0.66-5.06-2.88
		c-0.63-3.38,1.06-4.3,3.46-5.19c11.84,6.55,25.12,5.29,37.86,6.91c1.62,0.21,3.34,0.01,4.96-0.31
		c18.23-3.66,36.53-6.94,54.72-10.79c9.46-2,17.93-5.9,26.3-10.31c3.09-1.63,5.86-3.82,7.82-6.83c2-3.08,3.74-6.5,0.42-9.44
		c-3.23-2.86-6.54-1.21-9.29,1.43c-4.93,4.72-10.92,7.46-17.29,9.6c-13.91,4.67-28.66,5.69-42.67,9.9
		c-2.73,0.82-5.58,0.73-8.41,0.89c-21.42,1.22-42.7-1.95-64.08-1.94c-2.66,0-5.37-0.19-7.95,0.28c-3.09,0.55-4.97,2.21-2.56,5.57
		c-0.02,0.38-0.04,0.75-0.05,1.13c-0.07,0.14-0.15,0.29-0.22,0.43c0.08-0.14,0.16-0.28,0.24-0.41c1.36-0.03,2.72-0.06,4.08-0.08
		l0-0.09c1.72,4.41,5.38,1.25,8.03,2.05l0.14-0.21C317.19,624.86,316.75,625.81,310.86,628.16z M241.71,579.64
		c0.15-2.61-7.5-7.71-10.25-6.81c-7.06,2.3-14.17,4.52-21.09,7.2c-2.6,1.01-6.79,0.8-7.19,4.41c-0.38,3.45,3.76,4.19,5.76,6.27
		c0.12,0.12,0.22,0.29,0.37,0.33c2.54,0.76,4.76,5.6,6.77,3.21c2.9-3.46-2.32-4.67-4.23-6.31c-3.35-2.89-1.61-4.08,1.05-5.25
		c1.96-0.86,4.18-1.17,6.04-2.18c2.54-1.38,4.23-1.4,5.46,1.6c0.89,2.17,2.38,4.94,5,3.71c2.98-1.4-1.01-3-0.83-4.86
		c0.13-1.32-1.29-2.75,0.57-3.91c1.63-1.01,3.1-1.12,4.48,0.36c1.52,1.64,3.57,2.41,5.54,3.3
		C240.37,581.26,241.46,581.2,241.71,579.64z M273.33,597.95c0.48-4.98-1.74-7.37-6.85-7.79c-8.95-0.74-17.16,6.19-21.3,13.77
		c-1.01,1.84-0.24,3.8,1.35,5.41c4.24,4.28,9.27,4.64,14.67,3.1c1.44-0.41,3.85-0.41,3.09-2.86c-0.57-1.84-2.28-1.18-3.82-0.86
		c-3.09,0.65-6.25,0.97-9.26-0.45c-1.9-0.89-3.24-2.34-1.53-4.25c2.65-2.97,5.34-6.04,8.54-8.33
		C262.48,592.64,269.51,593.85,273.33,597.95z M377.83,601.95c-7.22,0.99-15.06,2.06-22.9,3.15c-1.08,0.15-2.69-0.22-2.72,1.42
		c-0.04,2.04,1.78,1.48,2.99,1.6c4.47,0.45,9.37-1.44,13.19,2.59c0.57,0.6,1.99,0.38,2.09-0.47c0.63-5.47,4.81-3.64,7.98-4.2
		c2.07-0.36,5.74-0.04,5.63-2.38C383.96,601.17,380.49,602.5,377.83,601.95z"/>
	<path class="st10" d="M182.76,505.07c0.52-4.82,4.73-7.39,7-11.14c11.29-18.65,28.65-30.2,47.86-39.3
		c20.93-9.92,43.1-15.84,66.01-18.28c38.42-4.09,76.41-1.74,113.32,10.68c24.07,8.1,46.29,19.46,63.86,38.42
		c6.26,6.75,11.51,14.19,14.83,22.88c2.03,5.3,5.6,9.72,8.5,14.52c-0.13,0.13-0.25,0.27-0.38,0.41c-3.16,0.08-3.33-4.97-6.97-4.08
		l0.03,0.03c0.16-0.94-0.05-1.7-1.04-2.05c0,0,0.06,0.06,0.06,0.06c-0.98-2.22-2.89-3.64-4.64-5.12
		c-15.88-13.48-34-23.05-53.5-30.06c-15.25-5.48-30.44-11.33-46.94-12.01c1.76-1.37,3.85-0.64,5.79-0.9
		c4.67-0.64,8.66-4.69,9.1-9.26c0.4-4.21-2.48-8.04-7.02-9.78c-4.7-1.8-9.28-0.57-13.66,0.69c-8.73,2.5-10.73,5.88-9.89,15
		c-10.5-1.04-20.99-2.09-31.49-3.14c2.4-2.72,6.7-4.52,5.1-9.28c-1.62-4.78-5.77-5.78-10.22-6.64c-4.06-0.79-7.95-0.17-11.88,0.35
		c-22.53,2.99-44.36,8.21-64.05,20.28c-2.07,1.27-3.35,3.78-6.13,3.91c-0.51-0.04-1.01-0.07-1.52-0.11
		c-0.61,0.25-1.21,0.6-1.85,0.74c-22.58,5.21-43.36,14.33-62.08,28.1C188.4,501.87,186.62,505.21,182.76,505.07z"/>
	<path class="st12" d="M468.91,638.08c-0.42,4.09-4.55,4.47-6.91,5.61c-13.47,6.54-27.94,9.9-42.66,12.56
		c-17.16,3.1-34.44,4.04-51.79,5.17c-16.33,1.06-32.41-0.32-48.6-1.2c-15.55-0.84-30.9-3.03-46.17-6
		c-15.35-2.99-30.21-7.39-44.44-13.88c-8-3.64-16.08-7.11-22.97-12.81c-1.54-1.28-2.75-2.32-2.54-4.4
		c3.85-2.96,8.25-3.66,13.02-4.17c6.81-0.73,13.08,0.12,19.35,2.67c2.4,0.97,5.17,1.34,7.79,1.39c10.08,0.19,19.92,1.59,29.81,3.75
		c5.72,1.25,11.74,1.01,17.47,3.19c11.13,4.23,22.81,6.55,34.52,8.56c5.21,0.89,10.53,1.49,15.81,1.52
		c12.33,0.07,24.69,1.9,36.88-2.6c5.29-1.95,11.5-0.19,17.33-1.11c11.27-1.78,22.73-2.39,33.96-4.37
		c12.09-2.14,23.42-0.16,34.63,4.01C465.25,636.66,467.07,637.38,468.91,638.08z"/>
	<path class="st10" d="M505.19,523.82c5.7,3.37,8.54,9.2,12.1,14.34c3.78,5.47,7.39,11.02,11.86,16c3.78,4.21,7,8.86,9.34,14.09
		c4.17,9.3,10.16,17.54,15.29,26.28c7.51,12.81,19.64,17.96,33.25,20.48c9.13,1.69,18.39,2.68,27.4,5.1
		c8.26,2.22,10.43,7.81,5.87,15.01c-9.73,15.36-24.83,21.57-41.78,23.95c-16.24,2.29-32.49,1.75-48.43-2.84
		c-8.56-2.47-15.51-8.19-23.68-11.54c-5.67-2.33-11.2-4.99-17.05-6.92c-1.63-0.54-3.77-0.48-4.53-2.63c1.44,0.04,2.44-0.64,3.08-1.9
		c5.5-2.59,9.63-6.84,13.42-11.4c1.04-1.25,2.51-2.91,0.82-4.84c0.04-0.18-0.01-0.34-0.14-0.47c2.34-0.06,3.22-1.75,4.42-3.45
		c6.16-8.75,8.65-18.98,11.83-28.9c4.65-14.51,3.72-28.67-3-42.56c-2.99-6.18-7.92-11.06-10.54-17.39
		C504.88,524.11,505.04,523.97,505.19,523.82z M560.99,652.75c9.31,0.18,17.33-2.57,25.47-4.9c7.99-2.28,13.64-7.37,18.02-14.12
		c1.84-2.83,2.77-6.09-0.24-8.55c-2.93-2.39-5.93-1.3-8.39,1.32c-13.32,14.23-29.45,16.07-47.6,11.79
		c-12.21-2.88-24.55-7.16-37.47-3.23c-1.1,0.33-2.43,0.13-2.78,1.57c-0.32,1.32,0.25,2.16,1.61,2.62c6.36,2.13,11.79,6.1,17.8,8.93
		C538.34,653.33,550.21,651.72,560.99,652.75z"/>
	<path class="st10" d="M194,624.18c-8.37,3.3-16.31,7.39-23.22,13.2c-6.48,5.45-13.98,6.27-22.01,5.78
		c-10.24-0.63-20.12-2.06-28.54-8.69c-2.84-2.24-5.14-4.58-5.75-8.35c-0.53-3.26-1.13-6.57-2.2-9.68
		c-1.99-5.73-0.66-10.93,2.49-15.59c7.53-11.12,14.81-22.42,24.15-32.25c8.84-9.3,16.29-19.52,19.52-32.45
		c1.18-4.72,3.44-9.8,9.4-11.07c0.04,1.77-1.13,3.09-1.76,4.61c-6.53,15.81-9.09,31.82-2.72,48.38
		c4.34,11.27,10.67,21.33,17.79,31.04C185.09,614.48,191.03,618.06,194,624.18z M145.88,582.11c1.02-0.95,1.54-2.25,0.54-3.23
		c-0.55-0.54-1.16,0.63-1.45,1.35c-5.25,7.03-8.31,15.13-10.71,23.4c-2.84,9.75,0.15,16.82,8.03,20.56
		c6.26,2.97,12.59,2.24,18.81-0.26c1.52-0.61,3.58-1.21,3.48-3.1c-0.13-2.58-2.54-1.21-3.94-1.62
		c-14.17-4.13-19.59-9.01-17.37-23.46C143.98,591.18,145,586.66,145.88,582.11z"/>
	<path class="st13" d="M502.01,616.55c0.13,0.13,0.18,0.28,0.14,0.46c-1.28,0.15-2.33,0.74-3.49,1.32
		c-3.75,1.87-5.07,6.13-8.58,8.07c-2.96,1.64-3.54,3.9-2.17,6.85c-0.64,1.26-1.64,1.94-3.08,1.9c-7.74-1.09-14.82-4.39-22.21-6.66
		c-6.8-2.09-13.61-3.96-20.75-4.36c3.1-2.38,7.15-2.46,10.46-4.25c12.31-6.66,25.28-12.07,36.12-21.39
		c16.44-14.13,25.8-30.75,21.3-53.1c-0.58-2.87-1.69-5.4-4.89-6.26c0.25-2.74-0.2-5.39-0.99-7.99c0.85,0.11,1.49,0.42,1.94,1.28
		c2.83,5.32,5.69,10.49,7.67,16.35c4.18,12.37,5.39,24.35,0.22,36.61c-0.56,1.33-0.53,2.9-0.85,4.34
		c-1.13,5.11-2.84,10.19-5.96,14.26C503.92,607.85,502.13,611.76,502.01,616.55z"/>
	<path class="st14" d="M172.87,524.13c3.24,0.59,3.44,2.45,2.3,5.11c-6.25,14.71-3.78,28.15,4.58,41.59
		c9.81,15.75,24.58,25.31,40.01,33.93c5.88,3.29,11.53,7.88,18.77,8.54c0.99,0.09,1.2,1.01,1.33,1.86c-2.37,0.25-4.6-0.31-6.82-1.07
		c-11.16-3.84-21.72-1.29-32.09,3.1c-2.68-1.18-4.94,3.26-7.74,0.58c-2.11-2.02-4.69-3.74-6.22-6.13
		c-5.9-9.25-12.27-18.11-17.33-28.01c-7.07-13.82-9.08-27.5-5.08-42.17C166.27,535.25,168.34,529.05,172.87,524.13z"/>
	<path class="st15" d="M172.87,524.13c-4.54,4.92-6.6,11.12-8.29,17.32c-4,14.67-1.99,28.35,5.08,42.17
		c5.07,9.9,11.43,18.77,17.33,28.01c1.53,2.39,4.11,4.11,6.22,6.13c2.79,2.68,5.05-1.76,7.74-0.58c-2.32,2.33-4.63,4.66-6.95,7
		c-2.97-6.12-8.91-9.69-12.84-15.06c-7.12-9.71-13.45-19.77-17.79-31.04c-6.37-16.56-3.82-32.57,2.72-48.38
		c0.63-1.52,1.79-2.84,1.76-4.61c0,0-0.02,0.05-0.02,0.05c0.91-0.4,1.07-1.18,1.04-2.06c0,0-0.05,0.07-0.05,0.07
		c0.36-0.43,0.72-0.85,1.07-1.28c0.82-3.29,3.74-4.92,5.91-7.06c2.04-2.01,3.16-4.57,4.97-6.67c0.36-0.35,0.73-0.7,1.09-1.05
		c0,0-0.04,0.04-0.04,0.04c0.99-0.35,1.21-1.09,1.01-2.03c0,0-0.07-0.03-0.07-0.03c3.86,0.14,5.65-3.2,8.22-5.09
		c18.72-13.77,39.5-22.89,62.08-28.1c0.64-0.15,1.23-0.49,1.85-0.74c0.08,0.43,0.15,0.86,0.23,1.29c-0.38,0.27-0.77,0.54-1.15,0.81
		c-0.39,0.27-0.77,0.55-1.16,0.82l-0.05,0.04c-0.34,0.25-0.68,0.5-1.02,0.75l-0.19,0.13c-1,0.17-2.21,0.02-2.38,1.51l-0.08,0.04
		c-0.65-0.11-0.98,0.18-1.07,0.81l0,0.02c-1.2-0.34-2.11,0.41-3.11,0.83c-11.6,2.13-22.07,7.1-32.58,12.27
		c-9.72,4.78-18.04,11.37-26.62,17.73C180.04,512.39,176.56,518.32,172.87,524.13z"/>
	<path class="st16" d="M504.86,539.13c3.2,0.86,4.31,3.39,4.89,6.26c4.5,22.35-4.86,38.97-21.3,53.1
		c-10.85,9.32-23.81,14.73-36.12,21.39c-3.31,1.79-7.36,1.86-10.46,4.25c-5,0.3-9.95,1.48-15,1.03c0.67-0.67,1.34-1.34,2-2.01
		c1,0,1.99,0,2.99-0.01c1.76-0.42,4.35,1.22,5-1.99c3.9,0.09,6.65-2.73,10-4c0.82-0.02,1.57-0.2,2-1c5.67,0.28,10-3.5,14.57-5.7
		c13.77-6.64,26.15-15.58,34.93-28.43c6.17-9.02,9.73-18.71,7.97-30.28C505.72,547.67,502.08,543.62,504.86,539.13z"/>
	<path class="st16" d="M276.86,619.1c2.93-6.68,7.32-12.39,11.97-17.93c0.65-0.77,1.14-1.86,2.18-1.86
		c5.44-0.05,10.82,0.65,16.16,1.59c1.27,0.22,1.81,1.42,1.54,2.73c-0.31,1.53-1.59,1.63-2.74,1.44c-3.25-0.54-6.45-1.38-9.71-1.79
		c-1.61-0.2-3.85-0.96-4.32,1.87c-0.44,2.64,1.68,2.47,3.2,3.38c1.83,1.09,6.46-0.87,5.3,3.16c-0.93,3.24-4.26-0.51-6.48,0.29
		c-0.25,0.09-0.62-0.19-0.94-0.27c-8.23-1.9-10.01-0.43-10.13,8.37C280.76,620.48,278.85,619.54,276.86,619.1z"/>
	<path class="st16" d="M310.86,628.16c5.89-2.35,6.33-3.3,4.26-9.34c2.78,0.29,5.6,0.45,7.96,2.24c-2.4,0.89-4.09,1.81-3.46,5.19
		c0.66,3.55,2.91,2.81,5.06,2.88c1.52,0.05,3.04-0.01,3.12,2.11C321.96,631.29,316.41,629.7,310.86,628.16z"/>
	<path class="st16" d="M284.84,620.2c4.05-0.42,7.94-0.29,11,2.97C291.99,622.84,288.22,622.23,284.84,620.2z"/>
	<path class="st14" d="M428.87,623.14c-0.67,0.67-1.34,1.34-2,2.01c-1.98,0.4-3.87,1.35-5.97,1.02c-0.14-1.91,0.47-3.12,2.66-3.03
		C425.32,623.2,427.1,623.14,428.87,623.14z"/>
	<path class="st16" d="M295.84,623.17c1.12,0,2.33-0.24,3,1.06C297.74,624.14,296.56,624.3,295.84,623.17z"/>
	<path class="st14" d="M242.71,615.23c0.86-0.08,1.64,0.03,2.13,0.86C244,616.12,243.24,615.95,242.71,615.23z"/>
	<path class="st10" d="M182.83,505.1c0.2,0.94-0.02,1.68-1.01,2.03C181.6,506.18,181.77,505.42,182.83,505.1z"/>
	<path class="st14" d="M418.93,626.9c0.65-0.25,1.31-0.5,1.96-0.75C420.43,626.92,419.74,627.07,418.93,626.9z"/>
	<path class="st10" d="M168.86,523.08c0.03,0.87-0.13,1.66-1.04,2.06C167.45,524.09,168.03,523.52,168.86,523.08z"/>
	<path class="st10" d="M181.86,507.09c-0.36,0.35-0.73,0.7-1.09,1.05C181.13,507.79,181.49,507.44,181.86,507.09z"/>
	<path class="st10" d="M169.88,521.87c-0.36,0.43-0.72,0.85-1.07,1.28C169.17,522.72,169.52,522.3,169.88,521.87z"/>
	<path class="st10" d="M504.14,522.84c0.35,0.33,0.7,0.66,1.05,0.98c-0.16,0.14-0.31,0.29-0.47,0.43c-0.32-0.33-0.64-0.67-0.96-1
		C503.89,523.12,504.02,522.98,504.14,522.84z"/>
	<path class="st16" d="M307.76,627.2c0.36,0.28,0.73,0.56,1.09,0.83C308.49,627.75,308.13,627.47,307.76,627.2z"/>
	<path class="st17" d="M328.22,339.46c0.46,1.31,0.86,2.68,2.65,2.67c0,1.34,0.09,2.59,1.3,3.56c7.23,5.74,13.41,12.96,22.61,15.93
		c0.88,0.28,1.57,1.14,2.36,1.74c0.13,7.41-1.79,14.45-3.94,21.43c-3.98,12.9-13.52,16.1-24.56,8.34
		c-9.57-6.73-11.42-17.08-12.74-27.53c-1.28-10.15,2.33-18.88,8.95-26.47C325.96,339.24,327.09,339.35,328.22,339.46z
		 M336.53,387.26c2.71,0.13,5.25-0.39,5.73-3.48c0.47-3.02-1.31-4.6-4.33-4.76c-3.28-0.17-5.02-2.13-6.04-5.05
		c-0.66-1.87-1.24-3.85-2.34-5.46c-1.61-2.35-3.46-1.75-4.51,0.59C321.55,376.9,328.04,387.08,336.53,387.26z M330.96,354.54
		c-0.06-2.29,0.39-5.16-2.96-5.25c-3.64-0.1-3.28,3.29-3.56,5.52c-0.27,2.12,0.31,4.81,3.07,4.83
		C330.52,359.66,330.85,356.98,330.96,354.54z"/>
	<path class="st18" d="M348.86,306.12c2.93-4.85,8.27-6.88,12.31-10.44c14.79-13.05,30.56-24.92,44.03-39.54
		c7.69-8.35,15.94-16.43,26.15-22.09c11.53-6.4,18.42-16.29,21.2-29.26c2.5-11.64,7.97-22.07,13.66-32.47
		c10.25-18.75,25.9-31.99,43.02-43.89c0.88-0.61,1.58-1.18,1.64-2.29c1.98-0.68,3.96-1.36,5.94-2.03c8.8,0.26,17.25-2.28,25.91-3.22
		c6.05-0.66,12.02-1.99,18.16-1.73c0,1.49-0.82,2.57-1.98,3.28c-10.44,6.37-20,14.14-30.99,19.64c-4.19-0.17-7.72-3.02-11.96-2.91
		c-1.21,0.03-3.08-0.74-3.47,0.92c-0.43,1.8,1.44,1.72,2.67,2.1c2.34,0.74,4.73,1.42,6.71,2.99c-0.54,1.33-1.6,1.89-2.96,2.04
		c-10.82,11.39-21.35,22.81-29.83,36.34c-5.97,9.52-8.73,20.32-14.91,29.62c-4.25,6.39-9.11,12.2-14.26,17.7
		c-8.19,8.74-17.12,16.79-25.54,25.32c-11.71,11.86-25.44,21.26-38.14,31.9c-11.19,9.37-22.6,18.41-34.37,27.03
		C357.52,312.13,353.19,309.12,348.86,306.12z M535.44,125.56c0.01-1.01-0.69-1.45-1.27-1.24c-4.51,1.61-9,3.29-13.45,5.06
		c-0.37,0.15-0.65,1.17-0.54,1.7c0.15,0.73,0.88,0.84,1.59,0.56c4.28-1.68,8.57-3.34,12.84-5.06
		C534.99,126.42,535.21,125.85,535.44,125.56z"/>
	<path class="st8" d="M561.39,132.72c4.73-4.12,10.54-4.61,16.09-5.49c13.55-2.14,27.22-3.26,40.91-4.38
		c10.76-0.88,21.07,0.42,31.51,2.11c2.91,0.47,5.27,1.75,5.79,4.62c0.57,3.19-2.13,4.66-4.51,5.84c-8.73,4.35-18.39,5.38-27.72,7.58
		c-1.84,0.43-2.87-0.78-3.18-2.39c-0.33-1.72,1.01-2.27,2.39-2.56c6.14-1.31,12.32-2.45,18.4-3.97c3.24-0.81,6.72-1.34,10.39-4.55
		C620.5,124.26,591.01,128.49,561.39,132.72z"/>
	<path class="st19" d="M348.86,306.12c4.33,3,8.66,6.01,13,9.01c-0.28,2.06,1.05,3.29,2.21,4.75c4.59,5.8,8.28,11.95,7.9,19.83
		c-0.12,2.44-0.63,4.53-2.09,6.42c-7.72,0.04-7.76,0.04-8.01-7.49c-0.39-11.87-7.54-18.39-17.7-22.59c-1.68-0.69-3.33-1.47-4.9-2.37
		c-1.53-0.88-1.52-2.46-1.33-3.98c0.19-1.51,1.13-2.34,2.62-2.53C343.31,306.81,346.09,306.47,348.86,306.12z"/>
	<path class="st8" d="M521.87,145.18c-1.98-1.56-4.37-2.25-6.71-2.99c-1.23-0.39-3.1-0.31-2.67-2.1c0.39-1.66,2.26-0.89,3.47-0.92
		c4.23-0.11,7.77,2.74,11.96,2.91c5.63,0.38,11.12-0.57,16.59-1.69c1.55-0.32,3.27-0.47,3.84,1.21c0.71,2.07-1.25,2.38-2.63,2.7
		c-7.23,1.67-14.5,2.91-21.9,1.01C523.16,145.27,522.51,145.22,521.87,145.18z"/>
	<path class="st6" d="M521.87,145.18c0.65,0.04,1.3,0.09,1.95,0.13c-0.11,2.61,1.58,2.62,3.59,2.88c10.92,1.4,21.89,0.74,32.84,1.02
		c2.43,0.06,7.04-1.29,6.9,1.27c-0.19,3.48-4.65,1.52-7.12,1.54c-12.59,0.1-25.17-0.61-37.71-1.83c-2.06-0.2-3.7-0.33-3.41-2.98
		C520.26,147.07,521.33,146.51,521.87,145.18z"/>
	<path class="st8" d="M606.45,137.02c-4.56,2.76-8.72,2.98-12.6,4.04c-1.04,0.28-2.51,0.26-2.71-1.32
		c-0.17-1.31,0.98-1.45,1.98-1.63C597.14,137.4,601.02,135.11,606.45,137.02z"/>
	<path class="st18" d="M560.89,119.16c0.25-0.53,0.41-1.43,0.76-1.51c1.09-0.24,1.07,0.77,1.23,1.5
		C562.21,119.16,561.55,119.16,560.89,119.16z"/>
	<path class="st20" d="M253.99,473.23c0.38-0.27,0.77-0.54,1.15-0.81c0.43-0.39,0.86-0.79,1.29-1.18c2.78-0.13,4.06-2.64,6.13-3.91
		c19.68-12.07,41.51-17.29,64.05-20.28c3.92-0.52,7.81-1.14,11.88-0.35c4.44,0.86,8.6,1.86,10.22,6.64c1.61,4.76-2.7,6.56-5.1,9.28
		c-3.82,0.36-6.96,2.26-10,4.4c-0.28-0.08-0.51,0-0.7,0.23c-2.45,0.71-4.77,1.66-6.5,3.64c-0.22-0.06-0.4,0.01-0.53,0.2
		c-0.41,0.27-0.82,0.53-1.22,0.8c0,0-0.04-0.07-0.04-0.07c-0.3-0.06-0.55,0.03-0.74,0.28c-0.37,0.24-0.75,0.48-1.12,0.73
		c-1.44,0.21-2.66,0.79-3.5,2.04l-0.39,0.1c-1.43,0.17-2.51,0.93-3.43,1.99c-0.25-0.07-0.43,0-0.56,0.23
		c-10.35,4.32-19.78,10.17-28.34,17.39c-9.25,7.81-18.44,15.72-25.71,25.53c0,0,0.02-0.02,0.02-0.02c-1.24,0.58-2,1.51-2.18,2.89
		c0,0,0.04-0.04,0.04-0.04c-2.31,1.36-3.21,3.67-4.07,6.01c0,0,0.04-0.04,0.05-0.03c-1.1,0.34-1.71,1.07-1.79,2.22
		c-0.22,0.09-0.32,0.26-0.28,0.49c-1.84,1.32-2.78,3.14-2.98,5.37c0,0,0.07-0.06,0.07-0.06c-0.24,0.41-0.49,0.82-0.73,1.22
		c0,0-0.03,0.06-0.03,0.06c-3.58,4.98-4.93,11.13-8.79,16.05c-9.15,11.67-25.06,12.68-35.13,1.91c-6.52-6.97-7.21-17.44-1.89-27.91
		c2.02-3.97,4.95-7.49,6.03-11.94c0,0-0.02,0.06-0.02,0.06c2.69-1.65,4.05-4.28,5.18-7.08c0.25-0.03,0.42-0.16,0.51-0.4
		c0.91-0.2,1.15-0.88,1.21-1.69c0,0-0.04,0.07-0.04,0.07c7.04-6.96,14.09-13.93,21.13-20.89c0,0-0.07,0.02-0.07,0.01
		c0.86-0.07,1.48-0.46,1.77-1.3c0,0,0.08,0.04,0.08,0.04c2.06-0.52,3.36-1.91,4.26-3.75c0.26-0.08,0.48-0.23,0.65-0.45
		c1.84-0.7,3.52-1.58,4.22-3.61c0,0,0-0.02,0-0.02c0.36-0.27,0.71-0.54,1.07-0.81c0,0,0.08-0.04,0.08-0.04
		c1.01-0.16,2.02-0.31,2.38-1.51c0,0,0.19-0.13,0.19-0.13c0.59,0.1,0.9-0.2,1.02-0.75c0,0,0.05-0.04,0.05-0.04
		C253.21,473.77,253.6,473.5,253.99,473.23z"/>
	<path class="st16" d="M408.87,510.13c0,2.33,0.04,4.67-0.02,7c-0.07,2.84,0.36,5.05,2.6,7.51c3.09,3.4,2.99,8.32,2,12.78
		c-0.27,1.24-1.93,3.14-2.92,3.12c-7.58-0.14-4.9,4.16-3.78,8c2.07,7.09,0.73,13.42-4.54,18.77c-0.85,0.87-1.26,1.79-1.15,3.12
		c0.64,7.34-7.2,19.25-14.5,20.13c-15.4,1.84-31.06,4.75-45.72-3.85c-2.36-1.38-3.98-4.14-7.56-4.16c1.77,4.11,2.73,8.25,8.45,8.56
		c2.67,0.14,3.73,6.53,1.54,8.34c-1.36,1.12-2.42,0.14-2.3-1.18c0.38-3.92-1.99-3.98-4.89-4.37c-2.42-0.33-4.95-1.39-3.76-5.04
		c0.36-1.12-0.3-2.56-0.44-3.85c-0.18-1.59,0.48-3.86-1.56-4.29c-2.02-0.43-1.6,2.09-2.34,3.23c-2.44,3.77-5.55,1.22-7.9,0.46
		c-2.16-0.7-4.26-1.39-6.67-1.93c3.39,5,4.63,5.51,12.07,5.7c1.67,0.04,4.39-0.89,4.57,1.58c0.21,2.88-2.6,2.25-4.52,2.39
		c-6.92,0.5-12.61-1.77-17.27-7.02c-4.48-5.06-10.61-8.58-13.81-14.85c-0.22-0.43-0.86-0.73-0.92-1.15
		c-0.37-2.48-3.18-5.86-0.8-7.15c2.59-1.4,2.54,2.99,4.03,4.5c1.07,1.09,1.09,3.34,3.33,3.2c0.91-1.09,0-1.93-0.39-2.75
		c-1.63-3.46-1.32-6.25,2.73-7.5c3.07-0.95,2.65-2.34,0.94-4.26c-1.1-1.23-1.93-2.73-3.13-3.85c-1.57-1.47-3.52-3.22-5.65-1.29
		c-4.15,3.74-7.69,1.13-10.48-1.36c-3.29-2.93-6.75-2.38-9.66-1c-3.53,1.67-7.41,2.94-10.41,5.72c-0.74,0.68-1.65,2.33-2.77,0.91
		c-1.07-1.34,0.25-2.54,1.31-3.29c3.79-2.69,8.01-4.62,12.45-5.82c4.35-1.17,8.96-4.2,12.91,1.53c1,1.45,4.34,0.74,6.01-0.74
		c3.18-2.81,5.08-1.12,7.52,1.13c1.93,1.78,2.4,5.17,6.44,5.8c-1.93-3.38-2.62-6.56-3.68-9.54c-2.3-6.46-1.18-12.22,1.78-17.96
		c1.02-1.98,1.16-3.45-1.68-2.55c-11.63,3.67-14.3,1.83-16.52-12.74c2.85-6.73,6.14-13.14,11.66-18.18
		c8.93-8.15,15.3-9.32,22.18-3.07c2.44,2.22,3.68,1.67,5.75,0.21c4.76-3.36,9.85-6.12,15.41-7.97c8.23-2.43,16.37-3.49,24.17,1.44
		c1.34,0.85,3.03,0.97,4.29,0.16c4.27-2.75,8.47-1.05,12.89-0.53c4.8,0.56,7.68,5.32,12.64,4.95c0.03,2.1,1.84,3,2.92,4.41
		C404.05,497.13,409.2,502.29,408.87,510.13z M403.85,507.13c0.12-1.67-1.26-2.65-1.88-3.98c-4.73-10.13-13.38-14.68-23.77-17.14
		c-4.21-1-8.52,1.62-12.2-0.22c-12.21-6.1-22.67-1.83-32.28,5.38c-3.22,2.42-7.54,4.41-8.88,8.96c-2.06-0.29-4.95,0.91-4.42-3.3
		c0.66-5.27-1.65-7.55-7.06-7.69c-8.92-0.23-20.49,12.66-20.5,22.85c-0.01,7.34,2.69,9.5,9.57,7.05c4.05-1.44,6.33-0.69,7.46,3.53
		c0.39,1.45,0.68,3.98,2.97,2.93c2.92-1.34,7.26,1.94,9-3.12c4.9-14.21,11.84-18.47,26-16.24c9.02,3.89,13.98,11.95,19.6,19.29
		c1.12,1.46,1.54,3.28,1.42,5.2c-0.26,4.11,1.93,5.34,5.81,5.58c15.15,0.94,22.61,7.69,22.16,22.43c-0.07,2.21,0.56,5.63-2.21,5.64
		c-2.14,0-1.69-3.46-1.79-5.57c-0.52-11.69-6.06-17.45-17.56-18.62c-4.54-0.46-9.09-1.52-10.37-6.87c-2.16-9-7.71-15.69-14.93-20.78
		c-3.64-2.56-8.57-4.15-13.17-2.47c-5.18,1.9-8.74,5.77-10,11.42c-1.22,5.47-4.84,7.85-10.31,7.77c-1.66-0.02-3.27,0.21-4.92,0.53
		c-3.9,0.76-5.42,2.95-4.7,6.7c0.74,3.88,1.01,8.04,2.65,11.53c3.89,8.28,9.37,16.06,15.78,22.1
		c12.22,11.51,26.41,20.07,44.67,18.27c6.78-0.67,11.63-3.28,16.12-8.28c4.32-4.8,4.11-13.47,12.83-14.68
		c1.95-0.27,3.04-3.25,3.92-5.5c2.37-6.09,0.03-15.98-5.41-20.88c-1.73-1.56-3.43-3.16-5.07-4.81c-0.9-0.91-2.27-2.05-0.91-3.33
		c1.04-0.98,2.12,0.26,3,0.93c2.89,2.21,5.64,4.77,9.38,5.31c1.85,0.27,4.27,0.87,5.46-1.31c1.45-2.66-0.01-5.21-1.15-7.56
		c-0.86-1.76-2.03-3.46-4.66-2.19c-0.95,0.46-2.3,0.09-3.46,0.16c-1.99,0.12-3.96-0.34-4.56-2.28c-0.74-2.38,1.85-2.34,3.12-3.03
		c3.93-2.12,6.59-4.79,5.26-9.7C403.86,509.8,403.86,508.47,403.85,507.13z M325.69,578.16c0.22-1.52-0.71-2.28-1.46-3.17
		c-2.55-3.03-5.76-5.75-7.44-9.21c-2.8-5.78-6.71-5.19-11.57-3.72c-2.34,0.7-2.38,1.35-1.55,3.41c3.33,8.24,10.45,11.97,17.86,15.33
		C324.05,581.94,325.1,580.09,325.69,578.16z"/>
	<path class="st21" d="M323.08,621.06c-2.36-1.79-5.18-1.95-7.96-2.24c0,0-0.14,0.21-0.14,0.21c-2.49-1.42-5.19-1.99-8.03-2.05
		c0,0,0,0.09,0,0.09c-1.13-1.19-2.7-0.69-4.04-1.06c-2.4-3.35-0.53-5.01,2.56-5.57c2.58-0.46,5.3-0.28,7.95-0.28
		c21.38,0,42.66,3.17,64.08,1.94c2.83-0.16,5.67-0.07,8.41-0.89c14.01-4.21,28.76-5.23,42.67-9.9c6.37-2.14,12.36-4.88,17.29-9.6
		c2.75-2.64,6.05-4.28,9.29-1.43c3.32,2.93,1.58,6.36-0.42,9.44c-1.96,3.01-4.73,5.2-7.82,6.83c-8.37,4.41-16.84,8.31-26.3,10.31
		c-18.19,3.85-36.49,7.13-54.72,10.79c-1.61,0.32-3.34,0.52-4.96,0.31C348.2,626.35,334.92,627.61,323.08,621.06z"/>
	<path class="st22" d="M408.87,510.13c0.32-7.84-4.83-13-9.11-18.58c-1.08-1.41-2.89-2.31-2.92-4.41
		c7.31,0.76,14.04,3.52,20.98,5.71c19.29,6.09,37.32,14.54,54.04,25.97c2.35,1.6,5.44,3.83,9.01,2.31c0.58,0.09,1.17,0.17,1.75,0.26
		c-1.71,5.85,2.27,10.08,4.35,14.8c2.26,5.11,3.08,10.07,0.28,15.19c-0.12-1.32-0.43-2.65-0.34-3.95c0.26-3.71-0.68-5.28-4.87-6.85
		c-4.7-1.76-10.26-3.57-13.47-8.39c-0.32-0.47-1.04-0.95-1.58-0.96c-9.07-0.14-15.49-6.98-23.66-9.29
		c-6.93-1.96-13.09-5.75-20.34-7.23C418.36,513.77,413.95,510.66,408.87,510.13z"/>
	<path class="st21" d="M487.24,551.38c2.8-5.12,1.98-10.08-0.28-15.19c-2.08-4.71-6.06-8.94-4.35-14.8
		c0.29-0.18,0.43-0.44,0.43-0.78c1.39-1.12,2.78-2.24,4.17-3.35c0.56-0.15,1.12-0.3,1.67-0.44c2.32,0.13,4.64,0.26,6.96,0.39
		c0,0-0.06-0.06-0.06-0.06c-0.62,1.18,0.23,1.61,1.04,2.05c0,0-0.03-0.03-0.03-0.03c1.09,2.67,2.18,5.34,3.27,8.01
		c0.38,5.92,1.88,11.7,1.14,17.79c-1.04,8.55-5.07,15.34-10.9,21.27c-2.51,2.56-5.63,4.14-8.79,1.31c-3.31-2.97-1.55-5.93,0.8-8.66
		c0.96-1.12,1.74-2.4,2.61-3.61c1.3-0.99,2-2.32,2.22-3.92L487.24,551.38z"/>
	<path class="st23" d="M342.85,481.12c-5.56,1.84-10.65,4.61-15.41,7.97c-2.07,1.46-3.32,2.01-5.75-0.21
		c-6.88-6.26-13.25-5.08-22.18,3.07c-5.52,5.04-8.81,11.46-11.66,18.18c-6.56-4.13-11.22,1.21-16.59,3.26
		c-3.99,1.52-6.12,5.81-10.45,6.72c7.28-9.81,16.46-17.72,25.71-25.53c8.55-7.22,17.98-13.07,28.34-17.39
		c-0.54,4.05,2.23,5.01,4.82,3.67c7-3.62,14.31-0.22,21.34-1.62C342.2,479,342.73,480.01,342.85,481.12z"/>
	<path class="st9" d="M209.15,516.33c-1.08,4.45-4.01,7.97-6.03,11.94c-5.32,10.47-4.63,20.94,1.89,27.91
		c10.07,10.77,25.99,9.77,35.13-1.91c3.86-4.92,5.21-11.07,8.79-16.05c-1.64,10.55-6.9,18.82-15.66,24.87
		c-1.07,0.74-2.25,1.34-3.38,2c-5.7-0.29-11.34,0.5-17,0.98c-0.07-1.93-1.73-2.24-3-2.96c-1-0.35-1.99-0.7-2.99-1.05
		c-2.31-4.18-6.13-3.29-9.62-2.57c-4.25,0.88-8.42,0.61-13.76,0.22c2.74-1.84,6.5-1.8,5.36-5.6c2.65,0.01,5.3,0.02,7.95,0.03
		c0.17,1.59,1.12,2.19,2.6,1.89c1.33-0.28,1.41-1.01,0.48-1.92c0.19-3.05-1.38-4.2-4.26-4.02c-3.52,0.22-6.97-0.1-10.17-1.75
		c-3.25-1.68-3.38-3.48-0.27-5.29c2.73-1.59,5.63-2.81,8.89-2.92c1.56-0.05,3.73,0.48,3.64-2.12c-0.1-2.61-2.34-1.67-3.82-1.92
		c4.29-5.44,9.2-10.42,12.1-16.89C206.51,518.05,207.32,516.42,209.15,516.33z"/>
	<path class="st15" d="M500.07,527.18c-1.09-2.67-2.18-5.34-3.27-8.01c3.64-0.9,3.81,4.15,6.97,4.08c0.32,0.34,0.64,0.67,0.95,1
		c2.62,6.33,7.55,11.21,10.54,17.39c6.72,13.89,7.64,28.05,3,42.56c-3.18,9.92-5.67,20.15-11.83,28.9c-1.2,1.7-2.09,3.39-4.42,3.45
		c0.12-4.78,1.92-8.7,4.89-12.58c3.12-4.07,4.83-9.14,5.96-14.26c0.32-1.44,0.29-3.01,0.85-4.34c5.16-12.26,3.96-24.25-0.22-36.61
		c-1.98-5.85-4.84-11.03-7.67-16.35c-0.46-0.86-1.09-1.16-1.94-1.28C502.96,529.47,501.62,528.22,500.07,527.18z"/>
	<path class="st16" d="M241.71,579.64c-0.24,1.55-1.34,1.62-2.55,1.07c-1.96-0.89-4.01-1.66-5.54-3.3
		c-1.38-1.49-2.85-1.38-4.48-0.36c-1.86,1.16-0.45,2.59-0.57,3.91c-0.18,1.86,3.81,3.46,0.83,4.86c-2.61,1.23-4.11-1.54-5-3.71
		c-1.23-3-2.91-2.97-5.46-1.6c-1.86,1.01-4.09,1.31-6.04,2.18c-2.67,1.17-4.41,2.36-1.05,5.25c1.9,1.64,7.13,2.85,4.23,6.31
		c-2.01,2.39-4.23-2.45-6.77-3.21c-0.14-0.04-0.25-0.21-0.37-0.33c-2-2.07-6.15-2.81-5.76-6.27c0.4-3.61,4.59-3.4,7.19-4.41
		c6.92-2.68,14.03-4.9,21.09-7.2C234.21,571.94,241.86,577.03,241.71,579.64z"/>
	<path class="st16" d="M273.33,597.95c-3.82-4.1-10.85-5.31-15.11-2.26c-3.2,2.29-5.89,5.36-8.54,8.33
		c-1.71,1.91-0.37,3.35,1.53,4.25c3.01,1.42,6.17,1.1,9.26,0.45c1.54-0.32,3.25-0.99,3.82,0.86c0.76,2.46-1.64,2.45-3.09,2.86
		c-5.41,1.54-10.43,1.18-14.67-3.1c-1.6-1.61-2.36-3.57-1.35-5.41c4.14-7.58,12.35-14.5,21.3-13.77
		C271.59,590.58,273.81,592.98,273.33,597.95z"/>
	<path class="st16" d="M206.89,562.08c1,0.35,1.99,0.7,2.99,1.05c-0.14,0.46-0.18,0.98-0.43,1.36c-0.64,1.01-2.84,1.4-2,2.85
		c1,1.73,2.56-0.06,3.87-0.25c0.55-0.08,1.04-0.65,1.55-1c5.66-0.48,11.3-1.28,17-0.98c-0.12,1.89-1.57,2.56-3.03,2.84
		c-9.89,1.88-19.87,3.33-29.58,6.09c-1.41,0.4-3.27,0.37-3.9-1.34c-0.66-1.79,1.03-2.61,2.25-3.41
		C199.36,566.85,203.13,564.48,206.89,562.08z"/>
	<path class="st16" d="M193.89,536.11c1.49,0.24,3.73-0.69,3.82,1.92c0.1,2.6-2.08,2.07-3.64,2.12c-3.26,0.11-6.16,1.33-8.89,2.92
		c-3.11,1.81-2.98,3.61,0.27,5.29c3.19,1.66,6.64,1.98,10.17,1.75c2.88-0.18,4.45,0.97,4.26,4.02c-1.02,0.01-2.05,0.02-3.07,0.03
		c-2.65-0.01-5.3-0.02-7.95-0.03c-0.97-1.26-2.35-1.74-3.85-1.99c-3.63-0.62-5.44-3.26-5.97-6.44c-0.56-3.3,2.46-4.71,4.65-6.39
		C186.7,537.02,190.61,537.54,193.89,536.11z"/>
	<path class="st16" d="M377.83,601.95c2.66,0.54,6.13-0.78,6.25,1.71c0.11,2.34-3.56,2.02-5.63,2.38c-3.17,0.55-7.35-1.27-7.98,4.2
		c-0.1,0.85-1.52,1.07-2.09,0.47c-3.82-4.03-8.72-2.13-13.19-2.59c-1.21-0.12-3.03,0.44-2.99-1.6c0.03-1.64,1.65-1.27,2.72-1.42
		C362.77,604.01,370.61,602.94,377.83,601.95z"/>
	<path class="st9" d="M237.12,486.4c-7.04,6.96-14.09,13.93-21.13,20.89c-0.16-1.63,0.63-2.89,1.7-3.97
		c5.24-5.27,10.49-10.54,15.8-15.75C234.44,486.65,235.66,486.01,237.12,486.4z"/>
	<path class="st9" d="M214.32,509.31c-1.13,2.8-2.49,5.43-5.18,7.08C209.65,513.15,211.03,510.54,214.32,509.31z"/>
	<path class="st23" d="M254.63,528.95c0.86-2.34,1.77-4.65,4.07-6.01C259.28,526.26,257.97,528.29,254.63,528.95z"/>
	<path class="st16" d="M306.96,616.97c2.83,0.07,5.54,0.63,8.03,2.05C312.34,618.22,308.68,621.38,306.96,616.97z"/>
	<path class="st14" d="M436.86,621.14c-0.65,3.21-3.24,1.57-5,1.99C432.52,619.94,435.1,621.56,436.86,621.14z"/>
	<path class="st9" d="M249.62,537.01c0.2-2.23,1.14-4.05,2.98-5.37C253.36,534.4,251.53,535.72,249.62,537.01z"/>
	<path class="st17" d="M248.04,477.34c-0.7,2.03-2.39,2.91-4.22,3.61c0.37-0.93,0.74-1.86,1.12-2.78
		C245.93,477.75,246.84,477,248.04,477.34z"/>
	<path class="st17" d="M243.17,481.4c-0.91,1.84-2.2,3.23-4.26,3.75C239.55,483.02,240.72,481.48,243.17,481.4z"/>
	<path class="st22" d="M487.14,551.37c-0.22,1.6-0.92,2.93-2.22,3.92C485.15,553.69,483.93,551.27,487.14,551.37z"/>
	<path class="st23" d="M258.66,522.98c0.17-1.38,0.94-2.32,2.18-2.89C260.88,521.63,260.92,523.17,258.66,522.98z"/>
	<path class="st24" d="M448.87,616.14c-0.43,0.8-1.18,0.98-2,1C447.06,615.86,447.27,614.62,448.87,616.14z"/>
	<path class="st16" d="M302.91,616c1.34,0.37,2.92-0.13,4.04,1.06c-1.36,0.03-2.72,0.06-4.08,0.08l-0.02-0.01
		C302.87,616.75,302.89,616.37,302.91,616z"/>
	<path class="st23" d="M252.88,531.14c0.08-1.16,0.69-1.89,1.79-2.22C254.93,530.35,254.29,531.05,252.88,531.14z"/>
	<path class="st9" d="M216.03,507.22c-0.06,0.81-0.3,1.49-1.21,1.69C214.86,508.09,215.13,507.43,216.03,507.22z"/>
	<path class="st9" d="M238.82,485.11c-0.29,0.84-0.91,1.24-1.77,1.3C237.19,485.36,237.94,485.15,238.82,485.11z"/>
	<path class="st9" d="M248.96,538.17c0.24-0.41,0.49-0.81,0.73-1.22C249.44,537.35,249.2,537.76,248.96,538.17z"/>
	<path class="st16" d="M302.87,617.14c-0.08,0.14-0.16,0.28-0.24,0.41c0.07-0.14,0.15-0.29,0.22-0.43
		C302.86,617.13,302.87,617.14,302.87,617.14z"/>
	<path class="st25" d="M375.08,465.76c-0.84-9.11,1.16-12.5,9.89-14.99c4.38-1.25,8.96-2.49,13.66-0.69
		c4.53,1.74,7.42,5.57,7.02,9.78c-0.44,4.57-4.42,8.62-9.1,9.26c-1.93,0.26-4.02-0.47-5.79,0.9c-1.77,0.23-3.62-0.06-5.27,0.88
		c-0.41,0.01-0.82,0.02-1.23,0.03c-2-0.75-4-1.5-5.99-2.25c-0.36-0.27-0.73-0.55-1.09-0.82l-0.07-0.07
		c-0.29-0.31-0.57-0.61-0.86-0.92l-0.12-0.16c-0.32-0.28-0.65-0.57-0.97-0.85L375.08,465.76z"/>
	<path class="st15" d="M385.5,470.91c1.65-0.95,3.5-0.65,5.27-0.88c16.5,0.67,31.69,6.52,46.94,12.01
		c19.49,7.01,37.61,16.58,53.5,30.06c1.75,1.48,3.66,2.9,4.64,5.12c-2.32-0.13-4.64-0.26-6.96-0.39c-0.3-2.22-2.03-3.5-3.58-4.61
		c-5.11-3.69-10.21-7.43-15.64-10.59c-7.97-4.63-16.44-8.32-24.71-12.37c-11.27-5.53-23.18-8.66-35.05-12.09
		C401.84,474.83,393.64,472.97,385.5,470.91z"/>
	<path class="st15" d="M378.27,468.7c2,0.75,4,1.5,5.99,2.25c-1.82,0.05-3.74,0.51-5.45,0.09c-14.88-3.63-30.02-4.14-45.23-4.01
		c3.04-2.14,6.18-4.03,10-4.4c10.5,1.04,20.99,2.09,31.49,3.14c0,0,0.08,0.11,0.08,0.11c0.04,0.61,0.36,0.9,0.97,0.85
		c0,0,0.12,0.16,0.12,0.16c-0.07,0.64,0.22,0.94,0.86,0.92c0,0,0.07,0.07,0.07,0.07C377.24,468.55,377.61,468.81,378.27,468.7z"/>
	<path class="st15" d="M496.83,519.2c-0.81-0.45-1.66-0.88-1.04-2.05C496.78,517.5,496.99,518.26,496.83,519.2z"/>
	<path class="st17" d="M256.42,471.24c-0.43,0.39-0.86,0.79-1.29,1.18c-0.08-0.43-0.15-0.86-0.23-1.29
		C255.41,471.17,255.92,471.2,256.42,471.24z"/>
	<path class="st25" d="M560.99,652.75c-10.77-1.03-22.64,0.59-33.59-4.57c-6.01-2.83-11.45-6.81-17.8-8.93
		c-1.36-0.45-1.92-1.3-1.61-2.62c0.35-1.44,1.68-1.24,2.78-1.57c12.92-3.93,25.26,0.35,37.47,3.23c18.16,4.28,34.28,2.44,47.6-11.79
		c2.45-2.62,5.46-3.71,8.39-1.32c3.02,2.46,2.08,5.72,0.24,8.55c-4.38,6.75-10.03,11.84-18.02,14.12
		C578.32,650.18,570.3,652.93,560.99,652.75z"/>
	<path class="st15" d="M487.91,633.25c-1.36-2.95-0.79-5.21,2.17-6.85c3.5-1.94,4.82-6.2,8.58-8.07c1.16-0.58,2.21-1.17,3.49-1.32
		c1.69,1.93,0.22,3.6-0.81,4.84C497.54,626.42,493.41,630.66,487.91,633.25z"/>
	<path class="st26" d="M145.88,582.11c-0.88,4.55-1.91,9.07-2.61,13.64c-2.22,14.45,3.2,19.33,17.37,23.46
		c1.4,0.41,3.81-0.96,3.94,1.62c0.09,1.88-1.97,2.49-3.48,3.1c-6.23,2.51-12.56,3.24-18.81,0.26c-7.88-3.74-10.87-10.81-8.03-20.56
		c2.4-8.26,5.46-16.37,10.71-23.4C145.77,580.62,145.78,581.38,145.88,582.11z"/>
	<path class="st18" d="M145.88,582.11c-0.1-0.73-0.11-1.49-0.91-1.88c0.29-0.72,0.91-1.89,1.45-1.35
		C147.42,579.86,146.9,581.16,145.88,582.11z"/>
	<path class="st17" d="M251.57,474.96c-0.36,1.19-1.37,1.35-2.38,1.51C249.36,474.98,250.56,475.13,251.57,474.96z"/>
	<path class="st17" d="M249.11,476.51c-0.36,0.27-0.71,0.54-1.07,0.81C248.12,476.68,248.46,476.39,249.11,476.51z"/>
	<path class="st17" d="M253.99,473.23c-0.39,0.27-0.77,0.55-1.16,0.82C253.21,473.77,253.6,473.5,253.99,473.23z"/>
	<path class="st17" d="M252.77,474.08c-0.12,0.55-0.42,0.85-1.02,0.75C252.09,474.58,252.43,474.33,252.77,474.08z"/>
	<path class="st26" d="M336.53,387.26c-8.49-0.19-14.98-10.36-11.49-18.17c1.04-2.34,2.9-2.94,4.51-0.59
		c1.1,1.61,1.68,3.59,2.34,5.46c1.02,2.92,2.77,4.88,6.04,5.05c3.02,0.16,4.8,1.74,4.33,4.76
		C341.78,386.87,339.23,387.38,336.53,387.26z"/>
	<path class="st26" d="M330.95,354.55c-0.1,2.44-0.43,5.11-3.45,5.09c-2.76-0.02-3.34-2.71-3.07-4.83c0.28-2.23-0.08-5.62,3.56-5.52
		C331.34,349.38,330.9,352.25,330.95,354.55z"/>
	<path class="st8" d="M535.44,125.56c-0.23,0.29-0.45,0.86-0.83,1.02c-4.26,1.72-8.56,3.38-12.84,5.06
		c-0.71,0.28-1.44,0.17-1.59-0.56c-0.11-0.53,0.17-1.55,0.54-1.7c4.45-1.77,8.93-3.46,13.45-5.06
		C534.75,124.11,535.45,124.55,535.44,125.56z"/>
	<path class="st11" d="M333.59,467.02c15.21-0.13,30.35,0.38,45.23,4.01c1.71,0.42,3.63-0.04,5.45-0.09
		c0.41-0.01,0.82-0.02,1.23-0.03c8.14,2.07,16.34,3.92,24.4,6.25c11.87,3.43,23.78,6.57,35.05,12.09
		c8.27,4.05,16.74,7.74,24.71,12.37c5.43,3.16,10.54,6.9,15.64,10.59c1.54,1.11,3.28,2.39,3.58,4.61c-0.56,0.15-1.12,0.3-1.67,0.44
		c-1.69,0.08-3.86-0.97-4.36,1.87c-1.3,0.04-1.96,0.71-1.99,2c-3.57,1.51-6.66-0.71-9.01-2.31c-16.72-11.43-34.75-19.87-54.04-25.97
		c-6.94-2.19-13.67-4.95-20.98-5.71c-4.96,0.37-7.84-4.39-12.64-4.95c-4.42-0.51-8.62-2.22-12.89,0.53
		c-1.26,0.81-2.94,0.69-4.29-0.16c-7.8-4.93-15.94-3.87-24.17-1.44c-0.12-1.11-0.65-2.12-1.83-1.88c-7.03,1.4-14.34-1.99-21.34,1.62
		c-2.58,1.33-5.36,0.38-4.82-3.67c0.12-0.23,0.31-0.3,0.56-0.23c1.65,0.21,3.28,0.4,3.42-1.99c0,0,0.39-0.1,0.39-0.1
		c1.71,0.25,3.49,0.62,3.5-2.04c0.37-0.24,0.75-0.48,1.12-0.73c0.19,0.15,0.38,0.29,0.57,0.44c0.06-0.24,0.11-0.48,0.17-0.72
		c0,0,0.04,0.07,0.04,0.07c0.41-0.27,0.82-0.53,1.22-0.8c0.13-0.19,0.3-0.26,0.53-0.2c2.95,0.18,6.14,0.79,6.5-3.64
		C333.07,467.02,333.3,466.95,333.59,467.02z"/>
	<path class="st9" d="M332.89,467.25c-0.36,4.43-3.55,3.82-6.5,3.64C328.12,468.91,330.44,467.97,332.89,467.25z"/>
	<path class="st23" d="M322.74,472.83c-0.01,2.66-1.79,2.29-3.5,2.04C320.08,473.62,321.3,473.04,322.74,472.83z"/>
	<path class="st23" d="M318.85,474.97c-0.14,2.39-1.78,2.19-3.42,1.99C316.34,475.9,317.42,475.14,318.85,474.97z"/>
	<path class="st9" d="M324.6,471.83c-0.06,0.24-0.11,0.48-0.17,0.72c-0.19-0.15-0.38-0.29-0.57-0.44
		C324.05,471.86,324.3,471.77,324.6,471.83z"/>
	<path class="st9" d="M325.86,471.1c-0.41,0.27-0.81,0.54-1.22,0.8C325.05,471.63,325.46,471.37,325.86,471.1z"/>
	<path class="st24" d="M403.87,511.13c1.34,4.91-1.33,7.57-5.26,9.7c-1.27,0.69-3.86,0.65-3.12,3.03c0.6,1.94,2.57,2.41,4.56,2.28
		c1.16-0.07,2.51,0.3,3.46-0.16c2.63-1.27,3.79,0.43,4.66,2.19c1.15,2.35,2.61,4.9,1.15,7.56c-1.19,2.18-3.61,1.57-5.46,1.31
		c-3.74-0.54-6.49-3.1-9.38-5.31c-0.88-0.67-1.96-1.91-3-0.93c-1.36,1.28,0.01,2.42,0.91,3.33c1.64,1.66,3.34,3.25,5.07,4.81
		c5.44,4.9,7.79,14.78,5.41,20.88c-0.88,2.25-1.97,5.23-3.92,5.5c-8.72,1.21-8.51,9.88-12.83,14.68c-4.5,5-9.35,7.61-16.12,8.28
		c-18.26,1.8-32.45-6.75-44.67-18.27c-6.42-6.04-11.9-13.82-15.78-22.1c-1.64-3.49-1.91-7.65-2.65-11.53
		c-0.72-3.75,0.81-5.94,4.7-6.7c1.65-0.32,3.27-0.56,4.92-0.53c5.46,0.08,9.08-2.3,10.31-7.77c1.26-5.65,4.82-9.52,10-11.42
		c4.6-1.68,9.53-0.09,13.17,2.47c7.23,5.09,12.78,11.78,14.93,20.78c1.28,5.35,5.83,6.41,10.37,6.87
		c11.51,1.17,17.05,6.93,17.56,18.62c0.09,2.11-0.36,5.57,1.79,5.57c2.78,0,2.15-3.43,2.21-5.64c0.45-14.73-7.01-21.48-22.16-22.43
		c-3.88-0.24-6.07-1.47-5.81-5.58c0.12-1.92-0.3-3.74-1.42-5.2c-5.62-7.34-10.58-15.39-19.6-19.29c0.67-1.67,1.33-3.33,2-5
		c3,0,6,0,9,0c0.14,0.85,0.47,1.91,1.36,1.81c4.93-0.56,9.29,2.3,14.13,2.21c2.83-0.05,5.67,2.4,8.51-0.03c0.67,0,1.33,0,2,0
		c0.12,1.1,0.66,1.73,1.81,1.99C392.42,508.42,398.14,509.79,403.87,511.13z M336.19,547.13c1.69,0,2.86,0.08,4.02-0.01
		c3.96-0.33,10.88-5.72,10.52-8.39c-0.49-3.59-1.05-7.23-2.13-10.67c-1.65-5.25-3.61-5.61-9.01-3.92c-4.29,1.35-7.36,4.38-9.69,7.45
		c-2.25,2.96-4.25,7.1-1.96,11.54C329.9,546.9,332.98,547.58,336.19,547.13z M367.5,555.08c-2.13,0.29-4.23-0.53-5.92,1.04
		c-2.67,2.48-4.25,9.63-2.35,12.4c2.49,3.63,6.18,3.7,10.11,2.7c5.36-1.36,8.54-5.38,11.76-9.37c0.85-1.05,3.12-1.39,2.2-3.35
		c-0.75-1.59-2.57-2.35-4.19-2.24C375.08,556.53,371.26,555.13,367.5,555.08z M325.28,562.6c1.01,0.49,1.97,1.15,3.03,1.44
		c5.29,1.42,10.2,3.07,10.73,9.8c0.13,1.63,1.34,3.35,3.36,2.75c1.74-0.52,1.58-2.4,1.36-3.87c-0.19-1.3-0.61-2.59-1.13-3.8
		c-3.07-7.12-3-7.26,4.85-7.81c1.24-0.09,2.96,0.4,3.11-1.54c0.13-1.63-1.15-2.42-2.6-2.37c-2.44,0.09-4.08-0.45-4.58-3.24
		c-0.18-1.02-1.66-1.87-2.82-1.29c-1.09,0.55-0.3,1.7-0.19,2.66c0.47,4.25-2.18,6.71-6.25,6.07
		C331.28,560.96,328.36,560.89,325.28,562.6z"/>
	<path class="st22" d="M358.86,501.14c-3,0-6,0-9,0c-2.08-1.31-4.41-0.99-6.68-1c-6.11-0.01-12.22-0.01-18.34-0.01
		c1.34-4.55,5.65-6.54,8.88-8.96c9.61-7.21,20.07-11.48,32.28-5.38c3.68,1.84,7.99-0.78,12.2,0.22c10.4,2.46,19.04,7.01,23.77,17.14
		c0.62,1.33,2,2.31,1.88,3.98c-2.02,0.43-3.91,0.66-6.13,0.3c-4.3-0.69-8.32-3.11-12.86-2.3c-0.67,0-1.33,0-2,0
		C375.09,502.46,367.07,501.22,358.86,501.14z"/>
	<path class="st27" d="M324.85,500.13c6.11,0,12.22,0,18.34,0.01c2.27,0.01,4.6-0.31,6.68,1c-0.67,1.67-1.33,3.33-2,5
		c-14.15-2.23-21.1,2.03-26,16.24c-1.74,5.06-6.08,1.78-9,3.12c-2.29,1.05-2.58-1.48-2.97-2.93c-1.13-4.23-3.42-4.98-7.46-3.53
		c-6.88,2.46-9.58,0.3-9.57-7.05c0.02-10.19,11.59-23.08,20.5-22.85c5.41,0.14,7.72,2.42,7.06,7.69
		C319.9,501.04,322.79,499.83,324.85,500.13z M315.97,500.21c-0.11-5.64-1.32-6.8-6.34-6.03c-5.89,0.9-12.76,12.64-10.49,18.12
		c1.39,3.33,4.82,3.95,7.04,2.34C311.04,511.11,315.79,507.05,315.97,500.21z"/>
	<path class="st24" d="M325.69,578.16c-0.58,1.94-1.63,3.78-4.15,2.64c-7.41-3.36-14.53-7.09-17.86-15.33
		c-0.83-2.06-0.79-2.71,1.55-3.41c4.86-1.47,8.77-2.06,11.57,3.72c1.67,3.46,4.89,6.18,7.44,9.21
		C324.97,575.88,325.9,576.64,325.69,578.16z"/>
	<path class="st27" d="M384.86,505.14c4.55-0.82,8.56,1.61,12.86,2.3c2.22,0.35,4.1,0.13,6.13-0.3c0,1.33,0.01,2.67,0.01,4
		c-5.73-1.34-11.45-2.71-17.19-4.01C385.52,506.87,384.99,506.24,384.86,505.14z"/>
	<path class="st27" d="M480.86,521.13c0.03-1.29,0.69-1.96,1.99-2c0.06,0.5,0.13,0.99,0.19,1.49c0,0.34-0.14,0.6-0.43,0.78
		C482.03,521.31,481.45,521.22,480.86,521.13z"/>
	<path class="st22" d="M483.04,520.62c-0.06-0.5-0.13-0.99-0.19-1.49c0.5-2.84,2.67-1.79,4.36-1.87
		C485.82,518.38,484.43,519.5,483.04,520.62z"/>
	<path class="st27" d="M212.88,566.09c-0.52,0.35-1,0.92-1.55,1c-1.31,0.19-2.87,1.98-3.87,0.25c-0.84-1.45,1.35-1.84,2-2.85
		c0.25-0.39,0.29-0.91,0.43-1.36C211.15,563.85,212.82,564.16,212.88,566.09z"/>
	<path class="st13" d="M196.82,554.16c1.02-0.01,2.05-0.02,3.07-0.03c0.94,0.91,0.85,1.64-0.47,1.92
		C197.94,556.36,196.99,555.75,196.82,554.16z"/>
	<path class="st17" d="M378.27,468.7c-0.66,0.12-1.03-0.15-1.09-0.82C377.54,468.15,377.91,468.42,378.27,468.7z"/>
	<path class="st17" d="M377.11,467.8c-0.64,0.03-0.93-0.27-0.86-0.92C376.54,467.19,376.82,467.49,377.11,467.8z"/>
	<path class="st17" d="M376.13,466.72c-0.62,0.05-0.93-0.24-0.97-0.85C375.48,466.16,375.81,466.44,376.13,466.72z"/>
	<path class="st16" d="M336.19,547.13c-3.21,0.45-6.29-0.22-8.25-4.01c-2.29-4.44-0.29-8.57,1.96-11.54
		c2.33-3.07,5.4-6.11,9.69-7.45c5.4-1.7,7.35-1.33,9.01,3.92c1.08,3.44,1.64,7.08,2.13,10.67c0.36,2.67-6.56,8.06-10.52,8.39
		C339.05,547.21,337.88,547.13,336.19,547.13z"/>
	<path class="st16" d="M367.5,555.08c3.76,0.05,7.58,1.45,11.61,1.18c1.62-0.11,3.43,0.65,4.19,2.24c0.93,1.96-1.34,2.29-2.2,3.35
		c-3.22,3.99-6.4,8.01-11.76,9.37c-3.93,1-7.62,0.93-10.11-2.7c-1.91-2.77-0.33-9.92,2.35-12.4
		C363.27,554.55,365.37,555.37,367.5,555.08z"/>
	<path class="st16" d="M325.28,562.6c3.08-1.71,5.99-1.64,8.88-1.18c4.06,0.64,6.72-1.82,6.25-6.07c-0.11-0.95-0.9-2.11,0.19-2.66
		c1.16-0.59,2.64,0.26,2.82,1.29c0.5,2.79,2.14,3.33,4.58,3.24c1.44-0.05,2.72,0.74,2.6,2.37c-0.15,1.94-1.87,1.45-3.11,1.54
		c-7.85,0.55-7.93,0.68-4.85,7.81c0.52,1.21,0.94,2.5,1.13,3.8c0.22,1.47,0.37,3.35-1.36,3.87c-2.02,0.6-3.24-1.13-3.36-2.75
		c-0.53-6.73-5.44-8.39-10.73-9.8C327.25,563.75,326.29,563.09,325.28,562.6z"/>
	<path class="st27" d="M358.86,501.14c8.21,0.09,16.22,1.32,24,4c-2.83,2.43-5.67-0.02-8.51,0.03c-4.84,0.09-9.2-2.77-14.13-2.21
		C359.34,503.05,359.01,501.99,358.86,501.14z"/>
	<path class="st14" d="M315.97,500.21c-0.18,6.85-4.93,10.91-9.78,14.43c-2.22,1.61-5.66,0.99-7.04-2.34
		c-2.28-5.48,4.6-17.22,10.49-18.12C314.65,493.41,315.86,494.56,315.97,500.21z"/>
</g>
</svg>
