<?xml version="1.0" encoding="utf-8"?>
<!-- Generator: Adobe Illustrator 26.0.3, SVG Export Plug-In . SVG Version: 6.00 Build 0)  -->
<svg version="1.1" id="Layer_1" xmlns="http://www.w3.org/2000/svg" xmlns:xlink="http://www.w3.org/1999/xlink" x="0px" y="0px"
	 viewBox="0 0 2154.82 2731.76" style="enable-background:new 0 0 2154.82 2731.76;" xml:space="preserve">
<style type="text/css">
	.st0{fill:#205A79;}
	.st1{fill:#F7CE93;}
	.st2{fill:#581C59;}
	.st3{fill:#38A28D;}
	.st4{fill:#D86B5F;}
	.st5{fill:#FFFFFF;}
</style>
<g>
	<path class="st0" d="M1247.99,665.51c-0.48-103.49,35.65-190.24,101.77-264.82c63.51-71.63,143.65-113.32,238.33-126.66
		c45.03-6.34,89.73-3.07,133.82,8.05c6.46,1.63,12.47,3.3,19.32,0.31c6.07-2.64,12.44,0.54,18.4,2.56
		c22.47,7.62,44.07,17.31,64.27,29.7c98.33,60.29,158.23,147.28,175.92,261.25c15.99,103.01-7.88,198.08-66.99,283.59
		c-62.74,90.75-149.5,146.39-258,164.97c-98.45,16.86-190.45-2.9-272.56-60.96c-80.72-57.08-129.47-135.28-148.29-232.23
		C1249.57,708.64,1247.39,685.81,1247.99,665.51z M1594.2,665.36c-0.28-1.04-0.94-1.71-1.99-1.99c-0.32-0.29-0.64-0.57-0.96-0.86
		c0.28,0.33,0.56,0.65,0.84,0.98c0.66,0.66,1.32,1.33,1.98,1.99c0.64,0.69,1.29,1.37,1.93,2.06c2.21,3.32,4.71,6.29,7.7,9.02
		c16.11,14.72,34.57,26,54.02,35.33c27.92,13.39,57.31,23.07,87.8,28.71c6.78,1.25,13.86,3.67,22.77,1.94
		c-17.22-15.65-27.7-34.54-38.75-52.97c-11.44-19.09-28.84-30.95-48.17-40.44c-5.47-2.68-11.37-5.36-18.31-2.73
		c1.49,4.8,3.03,9.18,4.2,13.66c2.43,9.36,0.5,17.87-5.91,25.12c-4.21,4.76-9.02,6.95-15.96,5.15c-9.46-2.46-18.02-6.42-26.6-10.95
		c-7.53-3.98-13.69-10.57-22.5-12.11C1595.59,666.63,1594.9,665.99,1594.2,665.36z M1516.13,627.46c-0.45-0.47-0.82-1.08-1.37-1.37
		c-0.85-0.45-2.28-0.74-2.52,0.22c-0.29,1.17,1.19,0.88,1.96,1.02c0.64,0.11,1.32,0.05,1.98,0.06c3.12,3.14,6.96,5.02,11.25,5.7
		c1.7,0.27,3.19-1.07,3.62-2.83c0.58-2.41-1.31-2.72-2.96-2.76C1524.1,627.4,1520.11,627.46,1516.13,627.46z M1578.13,673.41
		c-4.21,4.61-8.33,9.32-12.68,13.8c-2.89,2.97-4.71,6.37-5.59,10.35c-3.66,16.44-7.92,32.78-7.78,49.83
		c0.1,12.46,0,12.48,12.72,11.9c0.57-0.03,1.11-0.6,1.39-0.76c0-3.44,0.07-6.71-0.01-9.98c-0.49-21.1,4.65-41.3,9.83-61.48
		c1.16-4.51,2.77-8.87,2.17-13.63c1.04-0.65,2.48-1.18,0.78-2.64C1578.67,671.67,1578.4,672.54,1578.13,673.41z M1541.77,535.59
		c-0.21,0.16-0.63,0.4-0.61,0.46c0.18,0.42,0.44,0.81,0.68,1.2c0.41,4.12,0.72,8.24,0.04,12.36c-2.59,0.47-5.66-1.83-7.76,1.38
		c-8.2,6.7-16.54,12.8-27.39,15.09c-9.4,1.99-18.66,5.08-27.26,9.56c-12.22,6.37-12.84,16.66-1.02,23.4
		c7.21,4.11,14.65,7.8,21.62,12.34c2.24,1.46,4.97,1.73,7.59,2.29c10.39,2.2,20.79,4.21,31.73,3.53c-0.26,1.8-0.26,2.81-0.56,3.72
		c-4.41,13.01-5.64,26.65-7.76,40.09c-1.06,6.72,0.36,13.26,4.53,18.96c5.06,6.92,10.74,8.02,18.01,3.27c4-2.61,6.93-6.24,9.15-10.4
		c5.38-10.08,12.93-18.55,20.21-27.2c4.48-5.33,4.75-5.28,10.28-0.56c12.75,10.88,27.02,19.37,41.8,27.12
		c3.58,1.88,7.48,2.71,11.26,3.97c4.47,1.49,6.57-0.87,7.15-4.44c1.2-7.34,1.03-14.64-3.73-21.02
		c-8.14-10.89-14.74-23.03-25.89-31.44c-1.05-0.79-1.9-1.88-2.7-2.93c-1.18-1.55-2.8-3.23-1.25-5.25c1.25-1.63,3.05-0.57,4.57-0.14
		c8.16,2.33,15.34,0.2,23.05-3.11c17.41-7.48,31.8-19.3,46.74-30.38c2.53-1.88,5.55-3.75,5.82-7.54c-2.43-2.89-6.02-3.62-9.11-3.52
		c-11.72,0.35-23.07-3.11-34.75-2.85c-10.04,0.22-19.87-0.86-29.58-3.81c-6.1-1.85-12.62-2.35-11.79-11.26
		c0.1-1.09-1.13-2.36-1.86-3.46c-3.92-5.92-6.03-12.49-7.63-19.37c-3.39-14.57-5.87-29.36-10.88-43.54
		c-2.07-5.86-5.06-10.7-9.9-14.61c-2.1-1.7-3.54-1.64-6.13-0.92c-7.9,2.19-12.47,8.67-18.56,13.16c-7,5.16-11.12,12.2-13.63,20.38
		C1542.67,511.66,1541.57,523.54,1541.77,535.59z M1736.03,876.84c-11.28-3.2-22.98-1.66-34.47-2.92
		c-17.44-1.91-35.13-0.25-52.75-2.08c-17.46-1.82-35.18-1.29-52.74-1.76c-26.9-0.73-53.77-2.78-80.7-2.71
		c-18.59,0.05-37.1-2.94-55.75-1.99c-7.03,0.36-8.3,1.46-7.33,8.27c2.39,16.77,3.76,33.59,3.8,50.53c0.01,2.33-0.08,4.75,0.52,6.96
		c2.92,10.76,1.29,20.92-3.99,30.74c29.72,15.14,60.25,26.57,92.78,32.3c15.67,2.76,31.29,5.48,47.33,5.48
		c25.59,0,51.19,0.56,76.46-4.36c14.61-2.85,29.19-5.86,43.32-10.81c4.75-1.66,5.94-4.32,5.8-8.85
		c-0.52-17.62-0.27-35.24,1.97-52.74c1.64-12.8,3.93-25.52,5.56-38.32c0.71-5.54,3.51-7.51,8.7-7.02
		c5.57,6.86,9.16,14.71,10.67,23.35c2.29,13.11,4.48,26.26,4.73,39.63c0.18,9.46,0.45,18.93,0.68,27.91c2.98,1.01,4.42,0,5.89-0.68
		c4.54-2.08,9.13-4.08,13.55-6.39c39.07-20.41,73.48-46.84,103.2-79.45c59.79-65.59,91.93-142.86,96.52-231.27
		c1.96-37.79-2.91-75.11-13.4-111.63c-21.48-74.72-63.05-135.33-126.46-180.61c-25.37-18.11-52.93-32.12-82.36-42.41
		c-5.38-1.88-11.21-3.52-14.42-8.44c-3.48-5.35-8.41-7.01-14.05-8.21c-63.96-13.67-127.25-11.16-189.41,9.3
		c-67.5,22.22-123.85,61.3-169.51,115.69c-49.1,58.49-75.06,126.83-83.72,201.97c-5.13,44.51-0.44,88.58,12.03,131.56
		c22.23,76.64,65.51,138.53,131.29,184.24c2.88,2,5.59,4.57,10.56,5.06c0.31-28.06,1.1-55.51,5.79-82.41
		c-2.5-1.69-4.89-1.3-7.19-1.47c-16.28-1.22-32.58-2.14-48.81-3.8c-11.3-1.16-16.41-6.84-15.18-18.03
		c2.25-20.48,3.84-41.13,9.44-61.1c0.67-2.38,1.37-4.2-0.62-6.31c-4.36-4.65-5.08-10.26-2.22-15.71c3.13-5.95,8.92-7.59,15.34-7.28
		c23.95,1.18,47.91,2.31,71.86,3.55c25.61,1.33,51.23,2.72,76.83,4.24c4.82,0.29,6.59-1.37,6.28-6.23
		c-0.95-15.1,1.5-29.88,4.56-44.6c0.52-2.5,2.12-4.93,0.45-8.52c-6.74,1.08-12.44-1.66-17.21-6.92
		c-6.8-7.48-10.87-15.85-10.08-26.23c0.43-5.64,0.28-11.33,2.15-16.79c1.27-3.7,0.44-6.18-3.56-7.84
		c-37.2-15.39-75.71-23.32-116.06-19.91c-8.52,0.72-17.25,2.35-23.67,9.28c-1.95,2.1-4.52,2.89-7.18,0.96
		c-2.66-1.92-3.89-0.97-5.1,1.84c-1.78,4.16-4.02,2.66-5.28-0.37c-0.87-2.09-1.02-4.53-1.18-6.84
		c-1.42-20.38,4.38-38.88,15.18-55.89c29.12-45.85,89.38-68.77,143.58-54.95c4.36,1.11,8.99,5.36,13.08,2.57
		c3.83-2.61,2.82-8.56,4.04-12.99c3.24-11.67,6.76-23.13,16.1-31.58c6.42-5.81,13.16-11.26,19.75-16.88
		c3.47-2.96,7.46-4.26,12.02-3.91c6.6,0.49,9.86,5.37,12.58,10.28c8.87,16.02,17.54,32.17,21.88,50.19
		c0.45,1.87,0.24,4.09,2.33,5.15c1.65,0.1,2.43-1.01,3.08-2.12c11.72-20.22,27.88-36.52,45.95-50.93
		c25.26-20.14,54.49-32.2,85.9-38.13c31.32-5.91,61.61-0.41,90.65,12.56c13.59,6.07,26.77,13.94,42.84,10.53
		c3.26-0.69,5.3,1.66,5.56,5.46c0.37,5.31-2.06,7.72-6.91,9.28c-10.76,3.46-21.75,6.75-27.85,17.74
		c-17.5,31.53-46.89,50.38-75.35,70.16c-5.19,3.61-11.23,5.78-17.14,8.08c-14.21,5.54-29.18,6.6-44.15,7.39
		c-4.47,0.24-7.33,1.39-9.18,5.87c-2.59,6.3-7.93,10.58-12.91,15.04c-2.58,2.31-6.24,3.62-7.8,7.35c1.39,0.43,2.31,0.82,3.28,1.01
		c2.62,0.51,5.25,0.92,7.87,1.39c25.29,4.49,45.29,16.22,57.8,39.75c10.1,19,17.55,38.76,22.15,59.72
		c2.72,12.41,9.66,22.66,18.23,31.66c7.04,7.4,11.56,7.34,19.32,1.09c1.62-1.3,3.17-2.38,5.28-2.47c2.61-0.11,4.45,0.92,5.43,3.45
		c2.47,6.42-0.28,12.55-6.53,15.49c-20.62,9.72-42.29,11.11-64.5,8.44c-32.73-3.93-63.82-13.56-93.48-27.67
		c-29.37-13.97-57.12-30.36-77.72-56.51c-0.26-0.33-1.14-0.16-2.56-0.31c-1.3,4.95-2.74,10.02-3.96,15.15
		c-4.72,19.81-8.34,39.76-7.53,60.27c0.48,12.23,1.98,13.57,13.88,14.06c21.97,0.9,43.93,1.98,65.89,3.13
		c29.6,1.55,59.19,3.25,88.79,4.87c13.3,0.72,26.62,1.2,39.91,2.13c13.09,0.92,18.15,6.43,17.54,19.03
		c-0.37,7.64-1.11,15.28-2.14,22.85c-2.24,16.48-4.48,32.97-7.29,49.36c-1.65,9.62-6.03,12.96-15.68,13.56
		c-3.65,0.23-7.34-0.06-11,0.1C1755.96,876.96,1745.97,874.75,1736.03,876.84z M1408.81,779.38c-4.33,0-8.66-0.09-12.99,0.02
		c-7.56,0.19-8.28,0.37-7.55,8.05c1.14,11.91,1.95,23.8,1.97,35.77c0.02,9.36,0.83,9.84,10.42,10.18
		c19.24,0.67,38.5,0.56,57.76,1.34c26.54,1.07,53.09,2.95,79.7,3.08c12.55,0.06,25.32,0.48,37.73,2.08
		c18.85,2.43,37.78,1.74,56.63,2.95c23.15,1.49,46.4,3.81,69.7,2.76c0.99-0.04,2,0.03,2.99,0.16c17.78,2.32,35.66,3.13,53.56,3.65
		c8.92,0.26,10.49-1.02,11.12-9.99c0.81-11.58,1.93-23.1,3.94-34.54c0.99-5.67-0.29-7.16-6.16-7.29
		c-26.21-0.56-52.35-2.71-78.52-3.82c-26.19-1.11-52.35-2.71-78.53-3.96c-25.85-1.24-51.67-3.07-77.5-3.99
		c-19.92-0.71-39.76-3.44-59.74-2.45c-0.99,0.05-2.01,0.08-2.99-0.07C1449.95,780.19,1429.25,781.87,1408.81,779.38z
		 M1855.36,462.28c-0.52-2.53-1.81-3.02-2.94-3.63c-14.14-7.53-28.96-13.37-44.5-17.21c-16.23-4.01-32.51-5.02-49.28-2.45
		c-16.97,2.6-32.64,8.79-48.46,14.7c-24.94,9.33-44.27,26.74-62.19,45.53c-9.09,9.53-15.76,21.29-23.07,32.38
		c-3.83,5.82-0.38,11.62-2.19,17.28c-0.65,2.05,2.56,2.5,4.55,2.52c5.99,0.08,11.98,0,17.97,0.14c3.45,0.08,5.47-1.57,7.06-4.48
		c9.59-17.64,24.75-28.76,42.22-38.02c20.78-11.01,42.77-17.98,65.39-23.54c14.48-3.56,28.75-8.73,43.6-9.76
		C1821.74,474.5,1838.74,469.97,1855.36,462.28z M1382.94,594.97c-0.36-3.53,1.45-4.71,2.75-6.15
		c9.14-10.07,20.82-16.52,32.79-22.34c23.5-11.44,48.69-12.66,74.11-10.7c4.75,0.37,9.23,0.46,13.64-0.77
		c8.29-2.31,16.47-5.06,24.7-7.6c1.3-0.4,2.43-0.81,2.78-2.4c0.72-3.29-3.24-12.23-6.26-13.43c-11.49-4.55-23.39-7.42-35.76-8.14
		c-19.93-1.16-39.17,2.25-57.33,10.27c-31.95,14.1-55.31,36.52-64.79,71.12c-1.89,6.9-4.35,14.19-1.86,23.36
		c6.19-9.72,14.4-14,23.62-15.96c7.42-1.58,15.08-2.35,22.67-2.65c10.61-0.41,21.17,0.16,31.8,1.54c15.83,2.05,31.48,4.5,46.72,9.34
		c3.08,0.98,6.1,3.14,10.37,2.08c-5.22-4.08-10.76-5.39-16.09-7.21c-4.72-1.61-9.48-3.03-13.88-5.51
		c-15.47-8.74-17.68-29.5-4.9-39.42c1.51-1.17,3.92-2.05,3.91-4.64c-5.36,0-10.43-0.58-15.32,0.1
		c-23.04,3.22-44.47,10.71-63.38,24.72C1390.47,592.63,1387.31,594.72,1382.94,594.97z M1656.55,553.38
		c10.98,0,20.53-0.06,30.08,0.03c3.98,0.03,8.01,0.05,11.94,0.61c20.28,2.86,40.35,2.97,60.01-3.76c9.82-3.36,18.97-7.9,27.12-14.49
		c14.43-11.68,31.2-20.48,43.6-34.66c5.07-5.8,11-11.16,14.15-19.84c-9.56,1.23-17.67,4.13-26.19,5.13
		c-5.87,0.69-11.85,0.96-17.75,1.94c-15.1,2.51-29.65,7.16-44.56,10.21c-20.71,4.23-40.06,11.48-59.01,20.7
		C1680.25,526.87,1667.13,536.88,1656.55,553.38z M1794.63,740.62c-0.02-0.37,0.08-0.79-0.08-1.02c-0.75-1.07-1.55-2.12-2.39-3.12
		c-9.5-11.37-16.89-23.9-19.9-38.54c-4.06-19.75-12.09-37.88-21.63-55.47c-7.68-14.17-19.22-23.63-34.67-27.98
		c-9.55-2.69-19.28-4.84-29.02-6.75c-3.79-0.74-8.08-1.35-11.54,1.44c-9.02,7.28-18.95,12.97-30.15,16.55
		c5.87,7.8,13.62,9.13,21.7,9.59c3.96,0.22,7.88,0.08,11.82,1.29c22.99,7.11,41.36,20.71,55.77,39.71
		c11.03,14.54,19.08,31.1,30.38,45.53c6.13,7.83,14.14,12.85,22.23,17.99C1789.41,741.26,1791.96,742.15,1794.63,740.62z"/>
	<path class="st0" d="M1260.8,2297.5c-0.34-102.45,36.26-190.55,104.22-266.09c56.12-62.39,125.9-101.53,207.78-119.29
		c26.11-5.66,52.6-8.48,79.25-7.97c29.32,0.56,58.33,4.55,86.72,12.19c4.65,1.25,8.83,1.72,13.54-0.22
		c6.18-2.55,12.56-0.69,18.55,1.37c30.05,10.36,58.58,23.98,84.72,42.09c78,54,128.7,127.11,151.59,219.21
		c7.49,30.14,10.93,60.92,10.3,92.01c-3.3,163.04-104.23,312.22-264.33,369.63c-35.32,12.66-71.66,19.7-109.22,21.5
		c-66.68,3.2-130-9.58-188.69-41.11c-94.47-50.75-155.11-128.93-182.93-232.45C1264.33,2358.65,1260.78,2328.26,1260.8,2297.5z
		 M1680.09,2089.35c-6.4,1.62-11.71,4.78-16.92,12.07c8.55-2.5,15.06-3.93,17.08-11.89c0.77-0.47,3.1,0.78,1.98-1.58
		C1681.98,2087.43,1680.56,2088.42,1680.09,2089.35z M1716.15,2139.42c0.33,1,0.65,1.16,0.81,0.45c0.02-0.08-0.54-0.29-0.83-0.43
		c0.7-5.94-3.64-9.74-6.07-14.37c-2.79-5.31-1.5-9.01,3.83-11.14c1.21-0.48,2.66-0.32,3.91-0.74c9.91-3.32,19.45-7.45,30.7-13.48
		c-11.01-0.43-19.56-1.13-27.74,2.44c-2.22,0.97-4.41,1.64-6.52-0.19c-2.49-2.16-1.86-4.62-0.84-7.27
		c1.67-4.33,3.13-8.75,4.68-13.13c2.55-7.2,5.17-14.38,7.6-21.62c0.61-1.83,1.17-4.3-0.94-5.37c-2.3-1.17-3.54,0.96-4.53,2.7
		c-7.17,12.46-17.57,22.42-26.06,33.79c-12.32,16.5-28.28,24.46-48.05,26.47c-1.96,0.2-4.1,0.34-4.34,3.96
		c6.3-0.53,12.5,0.56,18.73-1.17c5.2-1.44,11.01-2.11,15.76-0.2C1689.97,2125.62,1705.11,2128.37,1716.15,2139.42z M1747.89,2511.5
		c5.34,6.24,8.43,13.63,9.9,21.54c2.37,12.75,4.47,25.54,4.69,38.59c0.17,10.18,0.98,20.35,1.51,30.52
		c4.69,0.29,7.71-2.06,10.91-3.62c61.65-30.05,111.13-74.04,148.72-131.24c33.55-51.06,53.13-107.31,58.19-168.16
		c3.9-46.9-1.06-93.07-15.63-138.08c-23.14-71.48-64.73-129.28-126.64-172.2c-24.23-16.8-50.32-29.95-78.12-39.72
		c-5.67-1.99-11.96-3.67-15.33-8.84c-3.77-5.79-9.29-7.11-15.1-8.38c-51.88-11.35-103.77-10.95-155.55,0.52
		c-57.36,12.71-108.26,38.68-153.36,76.05c-45.12,37.38-80.1,82.55-102.93,136.75c-17.05,40.49-28.15,82.56-30.91,126.47
		c-2.39,38.12,1.43,75.78,11.38,112.78c21.64,80.39,66.25,144.58,134.83,191.94c2.34,1.62,4.43,4.08,7.99,3.88
		c0.44-0.81,1.3-1.65,1.29-2.48c-0.37-25.67,2.06-51.24,2.45-76.88c0.06-4.02-1.64-5.31-5.31-5.25c-2.66,0.04-5.34-0.11-7.99-0.38
		c-13.9-1.38-27.98-0.84-41.75-3.45c-9.74-1.85-12.81-6.03-13.12-15.77c-0.24-7.73,1.48-15.23,2.47-22.81
		c1.6-12.2,2.5-24.58,5.88-36.43c1.38-4.85,1.69-8.23-1.39-12.71c-4.31-6.26-1.64-14.59,4.81-17.99c3.9-2.05,8.2-2.56,12.63-2.13
		c5.63,0.55,11.27,1.07,16.91,1.38c23.26,1.29,46.53,2.57,69.8,3.71c12.81,0.63,25.64,0.96,38.22,1.42c0.44-1.4,0.85-2.03,0.8-2.63
		c-2.12-28.43,3.75-55.65,12.52-82.4c1.5-4.56,1.82-9.1,1.67-13.78c1.72-0.33,2.92-1.13,3.7-2.87c3.3-7.27,6.65-14.51,10.17-21.67
		c3.76-7.65,6.77-15.01-1.93-21.63c-1.75-1.33-2.5-3.9-3.97-5.69c-5.04-6.16-9.45-13.09-15.42-18.18
		c-34.16-29.08-73.42-34.92-115.84-23.57c-14.87,3.98-28.37,11.18-41.07,19.97c-2.97,2.06-5.69,5.73-10.44,4.85
		c6.79-17.48,41.93-37.51,79.5-40.79c49.91-4.36,91.01,13.2,118.61,58.56c1.42-13.02-0.32-24.39-4.62-35.17
		c-10.47-26.22-30.37-42.25-56.95-50.06c-23.51-6.91-47.34-6.36-70.73,0.57c-27.33,8.1-49.31,23.85-65.54,47.65
		c-12.38,18.16-15.42,38.49-15.67,59.69c-5.29,0.59-5.81-2.95-6.21-6.9c-2.27-22.6,4.33-42.8,16.66-61.37
		c28.48-42.89,87.87-66.51,141.94-52.07c35.22,9.41,60.12,30.56,70.99,66.39c0.28,0.93,0.17,2.61,2.21,2.32
		c6.86-28.21,21.94-52.58,36.89-76.99c-3.48-2.27-7.12-1.94-9.75-4.2c-4.67-4-3.97-9.39,1.69-11.54c1.86-0.71,3.87-1.01,5.78-1.6
		c14.05-4.32,27.65-9.13,38.13-20.5c8.17-8.86,18.18-16.01,29.37-20.4c16.86-6.6,30.78-16.51,41.68-30.93
		c2.59-3.43,6.08-6.29,10.14-7.95c5.71-2.34,9.95,1.1,9.16,7.3c-0.35,2.8-2.31,5.44-0.69,8.88c3.97-0.19,7.93-0.48,11.89-0.56
		c12.64-0.23,25.33-1.45,37.89,0.9c17.1,3.2,33.62,8.43,49.19,16.16c10.69,5.31,21.51,8.91,33.58,7.32c0.33-0.04,0.66-0.05,1-0.07
		c3.9-0.33,6.53,1.52,7.53,5.13c1.22,4.36-1.34,6.92-5.05,8.5c-2.75,1.17-5.5,2.54-8.39,3.16c-13.3,2.83-20.82,12.18-27.22,23.14
		c-1.93,3.3-2.39,5.55,0.22,8.79c7.14,8.88,11.99,19.19,17.05,29.3c3.88,7.76,6.93,15.98,7.72,24.68
		c2.11,23.14,0.39,45.91-7.91,67.86c-8.25,21.83-20.97,40.92-37.3,57.39c-13.09,13.19-22.44,28.85-32.29,44.29
		c-2.61,4.09-1.49,6.62,1.85,9.27c6.86,5.43,10.4,5.35,18.04-0.71c4.24-3.36,7.98-3.23,10.19,0.36c2.89,4.69,0.74,13.5-4.53,15.41
		c-6.86,2.48-13.43,5.67-20.53,7.64c-17.17,4.76-34.48,3.54-51.59,1.01c-43.05-6.36-82.93-21.78-120.07-44.33
		c-17.73-10.77-33.64-23.74-46.6-40.84c-1.04,1.99-1.85,3.09-2.22,4.32c-5.11,16.95-8.1,34.34-10.12,51.87
		c-1.07,9.23-1.58,18.67,0.41,27.86c2.48,11.48,2.73,11.41,14.42,11.7c3,0.07,5.99,0.16,8.99,0.32
		c50.86,2.7,101.72,5.41,152.57,8.14c20.27,1.09,40.56,1.93,60.8,3.47c11.76,0.9,15.79,6.95,15.09,18.8
		c-1.38,23.29-5.61,46.21-8.68,69.27c-1.53,11.52-6.23,15.54-17.84,15.99c-2.99,0.11-5.99-0.17-8.99-0.13
		c-10.31,0.12-20.63-1.07-30.93,0.34c-2.28-2.77-5.47-1.94-8.38-2.04c-17.93-0.65-35.84-0.05-53.82-1.68
		c-17.82-1.62-35.85-0.74-53.78-2.19c-17.87-1.44-35.84-0.56-53.81-1.68c-22.18-1.38-44.51-1.38-66.76-2.54
		c-10.6-0.55-21.27,0.77-31.82-1.75c-3.47-0.83-7.3-0.19-10.97-0.17c-4.04,0.02-4.65,1.87-4.16,5.8c1.67,13.48,3.39,26.99,3.3,40.63
		c-0.04,5.31,0.62,10.54,1.29,15.83c1.21,9.53,2.04,19.43-0.39,28.8c-1.54,5.94,0.09,8.45,5,10.93c12.48,6.3,25.5,11.29,38.68,15.78
		c11.27,3.83,22.7,7.53,34.34,9.91c15.23,3.11,30.7,4.93,46.16,6.9c24.39,3.1,48.47,0.68,72.56-1.25
		c18.49-1.48,36.5-6.57,54.44-11.41c11.11-3,12.08-3.65,11.78-14.8c-0.78-28.31,1.22-56.39,6.04-84.29
		C1739.43,2512.32,1739.19,2512.28,1747.89,2511.5z M1854.3,2187.59c1.01-16.43-11.29-37.9-26.87-57.92
		c-11.86-15.23-29.45-22.32-45.99-30.78c-2.7-1.38-5.67-1.93-8.7-1.97c-2.17-0.03-4.2,0.5-4.22,3.08c-0.03,5.82-4.72,6.76-8.6,8.29
		c-10.21,4.05-20.46,7.99-30.25,13.03c-6.32,3.25-6.55,3.36-3.52,9.55c3.58,7.32,5.54,14.95,5.68,23.07
		c0.06,3.35,0.43,7.03-3.13,8.85c-3.82,1.95-7.23-0.04-10.01-2.52c-3.98-3.54-7.99-7.13-11.37-11.22
		c-8.92-10.78-21.7-13.68-34.17-17c-4.03-1.07-8.66-0.93-12.69,1.3c-16.96,9.38-29.91,22.05-34.57,41.69
		c-4.82,20.34-1.28,39.58,7.06,58.32c13.04,29.27,33.64,52.53,58.05,72.66c22.18,18.29,46.27,33.61,72.62,45.25
		c6.74,2.98,6.75,2.95,10.88-3.37c0.55-0.84,1.12-1.66,1.61-2.53c10.74-19.29,24.26-36.34,39.28-52.6
		C1839.93,2266.22,1853.03,2234.39,1854.3,2187.59z M1423.95,2465.52c9-0.38,17.9,1.42,26.8,1.6c31.57,0.65,63.06,2.43,94.58,3.99
		c25.52,1.27,51.04,2.73,76.55,3.95c28.52,1.36,57.04,2.75,85.57,4.08c19.25,0.89,38.45,3.35,57.79,2.48
		c2.28-0.1,4.61,0.43,6.89,0.83c8.1,1.42,9.63,0.34,10.03-7.56c0.59-11.59,1.79-23.09,3.78-34.54c1.24-7.11,0.03-8.21-7.57-9.02
		c-3.95-0.42-7.89-1.79-11.8-1.66c-20.99,0.71-41.79-2.94-62.79-2.39c-16.28,0.42-32.45-2.92-48.78-2.07
		c-0.66,0.03-1.34-0.03-1.99-0.15c-17.06-3.28-34.44-1.95-51.64-3.08c-19.18-1.26-38.44-3.41-57.76-2.72
		c-0.66,0.02-1.34,0.01-1.99-0.1c-18.07-3.1-36.42-2.42-54.61-3.31c-20.56-1.01-41.1-3.56-61.76-2.67c-1.62,0.07-3.32-0.31-4.9-0.78
		c-4.58-1.38-9.27-0.93-13.9-0.86c-5.77,0.09-6.9,1.48-5.87,7.42c0.62,3.6,1.59,7.12,1.48,10.83c-0.3,9.99,0.75,19.88,1.86,29.8
		c0.46,4.1,1.77,6.09,6.03,5.95C1414.61,2465.4,1419.28,2465.52,1423.95,2465.52z M1631.77,2261.26
		c-8.27-20.06-10.1-23.66-29.09-9.49c-0.27,0.2-0.46,0.49-0.73,0.68c-5.52,3.77-10.23,8.48-15.05,13.06c-1,0.95-2.34,1.6-3.56,0.74
		c-1.24-0.86-1.25-2.54-0.5-3.6c2.17-3.08,2.64-6.55,3.58-10.09c3.78-14.22,9.54-27.86,19.13-39.08c4.71-5.51,6.89-10.57,6.76-17.73
		c-0.38-21.26,6.34-39.79,22.61-54.3c2.29-2.04,5.52-3.69,5.84-7.45c-9.06-2.42-14.92,0.87-19.34,8.5
		c-5.66,9.77-12.51,18.88-17.8,28.83c-11.07,20.86-21.63,42.05-21.4,66.59c0.03,3.56-1.28,6.53-3.21,9.26
		c-15.85,22.35-24.83,47.82-32.11,73.75c-5.55,19.75-10.14,39.91-8.89,60.83c0.56,9.45,1.82,10.73,11.31,9.77
		c4.04-0.41,5.28-2.36,4.43-5.95c-2.51-10.55-1.21-20.93-0.02-31.58c3.14-27.99,12.32-54.3,20.81-80.83
		c0.76-2.37,1.33-5.67,5.92-6.49c-1.29,6.28-2.21,11.78-3.6,17.16c-0.92,3.53-0.86,6.52,1.92,9.15
		c5.79,5.48,10.89,11.67,17.35,16.49c17.37,12.95,35.75,24.01,55.58,32.97c28.06,12.67,57.34,20.93,87.43,26.62
		c4.32,0.82,8.92,0.11,14.32,0.11c-4.91-7.64-10.82-12.46-17.66-15.75c-13.28-6.38-25.35-14.69-37.25-23.14
		c-17.12-12.16-32.68-26.15-45.68-42.8c-12.92-16.54-14.96-17.54-31.84-16.02c-5.05,0.45-9.61,2.46-14.21,4.42
		c-4.57,1.95-9.13,4.13-14.35,3.56c-1.72-0.19-3.42-0.51-3.83-2.48c-0.41-1.99,1.01-2.76,2.62-3.57
		C1603.75,2267.15,1616.46,2261.59,1631.77,2261.26z M1841.75,2089.05c-1.29-1.67-1.59-2.37-2.11-2.67
		c-29.69-17.08-61.6-24.03-95.7-20.78c-2.61,0.25-5.14,1.31-7.75,1.74c-2.19,0.36-3.73,1.43-4.56,3.39
		c-1.81,4.28-3.76,8.52-5.15,12.93c-1.22,3.85,0.31,5.41,4.55,4.36c10.76-2.66,21.7-2.3,32.63-2.74
		c14.17-0.56,26.91,3.07,38.55,10.94c4.05,2.74,8.49,4.22,13.22,2.91C1824.3,2096.67,1833,2093.68,1841.75,2089.05z
		 M1596.49,2245.53c4.82-2.95,8.86-6.97,14.14-9.09c9.76-3.93,8.37-3.99,5.62-13.12c-0.52-1.72,0.01-4.17-3.3-4.57
		C1606.41,2226.74,1600.81,2235.61,1596.49,2245.53z"/>
	<path class="st0" d="M1013.59,823.31c-1.27,184.47-117.88,339.4-288.08,388.67c-130.47,37.77-271.04,2.29-363.94-93.74
		c-78.02-80.65-111.04-177.82-104.07-289.86c8.35-134.32,104.27-280.64,252-335.96c56.46-21.14,114.56-29.84,174.67-22.72
		c17.54,2.08,34.87,5.45,51.95,10.03c2.83,0.76,5.61,2.43,8.66,0.7c7.46-4.24,14.84-2.15,22.21,0.29
		c22.54,7.46,44.19,17.09,64.43,29.38c96.87,58.83,155.95,143.98,176.66,255.54C1011.98,786.66,1013.58,807.91,1013.59,823.31z
		 M816.14,925.43c0.32,0.97,0.63,1.13,0.81,0.44C816.97,925.79,816.43,925.58,816.14,925.43c-2.02-3.04-3.92-6.16-6.08-9.1
		c-8.61-11.67-14.61-24.5-17.49-38.73c-3.67-18.14-11.34-34.55-20.35-50.62c-7.81-13.94-19.32-22.36-33.98-27.36
		c-6.93-2.37-14.01-3.9-21.26-5.06c-24.75-3.96-48.27,0.16-70.99,10.03c-2.38,1.04-4.52,2.8-6.53,4.5
		c-5.58,4.72-11.03,9.6-16.54,14.4c-1.05,0.91-2.36,1.59-3.56,0.73c-0.61-0.44-1.06-1.92-0.79-2.62
		c4.48-11.31,7.12-23.26,12.61-34.24c11.2-22.43,29.05-35.14,53.59-40.31c20.67-4.35,41.34-5.73,62.32-5.85
		c18.24-0.11,36.07-4.32,51.27-14.26c20.82-13.62,41.63-27.64,58.04-46.85c3.47-4.06,7.29-8.05,9.29-13.97
		c-6.84,0.49-12.45,2.69-18.19,3.84c-7.25,1.45-14.54,1-21.74,2.43c-15.62,3.11-31.01,7.23-46.55,10.58
		c-38.12,8.22-73.51,21.11-99.65,52.03c-0.86,1.01-1.84,1.93-2.85,2.8c-2.13,1.84-4.42,2.21-7.96,0.41
		c3.14-1.32,3.69-3.72,4.94-5.66c8.4-12.99,18.22-24.91,31.82-32.48c12.75-7.1,25.76-13.84,39.62-18.89
		c11.92-4.35,24.26-6.89,36.37-10.34c18.82-5.37,37.82-9.84,57.44-11.62c13.54-1.23,26.39-5.57,38.35-12.14
		c-0.95-3.18-3.49-3.6-5.43-4.76c-8.92-5.34-18.85-8.36-28.44-12.1c-21.01-8.21-43.13-8.42-64.97-6.18
		c-17.9,1.84-34.34,9.97-51,16.65c-16.05,6.44-29.21,17.13-41.84,28.44c-7.91,7.08-15.46,14.58-22.07,23.04
		c-9.68,12.38-17.73,25.8-25.24,39.45c-11.09,20.16-20.42,41.16-20.12,64.97c0.04,3.2-1.31,5.87-3.04,8.3
		c-8.94,12.57-15.65,26.32-21.05,40.68c-11.75,31.24-21.16,62.98-20.03,96.92c0.43,13.07,2.28,15.08,15.19,14.86
		c1.27-0.02,2.66,0.11,3.81-2.34c-4.91-11.13-6.09-23.77-4.63-36.37c1.52-13.14,3.68-26.32,6.99-39.11
		c4.08-15.74,9.65-31.1,14.55-46.63c0.98-3.12,1.81-6.31,5.36-8.76c1.65,6.08-0.91,11.11-2.1,15.87c-1.43,5.73-0.1,9.19,3.67,13.28
		c17.72,19.22,39.86,32.2,62.79,43.57c26.87,13.33,55.43,22.49,84.94,28.04c7.72,1.45,15.78,4.43,24.45,1.68
		c-0.9-1.42-1.27-2.37-1.94-3c-12.29-11.48-21.76-25.08-29.84-39.71c-12.13-21.96-29.47-38.32-52.17-49.08
		c-7.35-3.49-14.93-5.35-23.06-5.46c-15.65-0.21-31.34-1.02-45.76,6.97c-3.02,1.67-6.52,1.72-9.75,0.7c-2.33-0.73-3.08-3.72-1-4.51
		c8.68-3.31,16.18-9.13,25.47-11.21c11.55-2.58,23.18-1.7,34.8-1.85c10.55-0.14,20.3,2.97,29.61,7.7
		c22.93,11.66,39.86,29.11,52.65,51.45c9.03,15.76,18.2,31.84,34.28,42.2C806.71,923.63,810.79,926.15,816.14,925.43z
		 M918.42,637.17c0.03-1.18-0.55-1.96-1.59-2.46c-0.54-2.72-2.29-4.79-3.86-6.91c-22.43-30.29-49.42-55.84-80.57-76.97
		c-23-15.6-47.6-28.1-73.85-37.3c-5.96-2.09-12.84-3.48-16.4-8.94c-3.98-6.11-9.63-7.65-15.85-8.97
		c-66.81-14.18-133.11-11.69-196.73,13.05c-147.2,57.26-228.39,166.53-244.73,322.86c-6.15,58.87,5.23,116.28,29.85,170.47
		c25.24,55.54,62.75,101.07,113.03,135.84c3.08,2.13,5.79,5.61,10.36,4.97c1.81-4.75,0.87-9.45,0.95-14.06
		c0.32-19.01,2.04-37.92,3.77-56.83c0.32-3.54,3.68-7.48,1.39-10.31c-2.55-3.14-7.48-1.72-11.4-2.05
		c-3.98-0.34-8.02-0.23-11.97-0.77c-11.24-1.52-22.69-0.48-33.84-2.76c-9.75-1.99-14.26-7.07-13.5-16.63
		c1.56-19.59,4.15-39.08,8.22-58.31c1.04-4.89,2.18-8.64-1.31-13.69c-5.38-7.79,0.06-17.91,9.57-19.66
		c2.91-0.54,5.98-0.38,8.97-0.22c10.31,0.57,20.61,1.38,30.92,1.92c35.27,1.83,70.54,3.6,105.81,5.33
		c9.9,0.49,19.82,1.39,30.24,0.38c-1.82-9.98-2.53-19.53-2.01-29.16c1.07-19.76,5.43-38.87,11.21-57.7
		c1.86-6.04,4.16-11.98,3.79-18.48c1.04-0.76,2.57-1.3,3.05-2.33c4.81-10.2,9.46-20.47,14.12-30.73c1.36-3,1.16-5.51-1.57-7.96
		c-2.44-2.19-4.59-4.86-6.31-7.66c-7.39-12.06-17-21.96-28.58-30c-32.09-22.3-67.22-24.68-103.87-15.25
		c-16.6,4.27-31.29,12.86-45.35,22.52c-2.03,1.4-3.82,4.08-7.87,1.42c20.63-25.11,48.66-36.72,78.97-39.62
		c50.5-4.82,92.23,12.77,120.15,58.46c1.33-9.78,0.29-18.08-1.76-26.09c-3.96-15.46-11.6-29.05-23.67-39.66
		c-26.02-22.85-57.44-27-89.94-22.82c-29.26,3.76-54.03,18.04-73.79,40.15c-16.15,18.06-24.04,39.45-23.96,63.73
		c-0.02,0.67,0.02,1.34-0.06,2c-0.24,1.9,0.23,4.55-2.24,4.93c-3.11,0.48-3.51-2.32-3.93-4.61c-0.24-1.3-0.29-2.65-0.41-3.97
		c-1.71-19.28,3.23-37.11,13.04-53.4c34.03-56.54,101.08-73,154.06-55.25c30.84,10.33,52.4,30.87,62.19,62.63
		c0.4,1.29,0.33,3.19,2.61,3.6c1.95-9.56,5.61-18.5,9.4-27.35c24.37-56.96,62.66-99.48,122.33-121.34
		c40.96-15.01,80.83-14.06,120.36,3.24c15.68,6.86,31.02,13.73,48.7,11.44c0.32-0.04,0.66,0.06,1,0.09c0.35,1.06,1,1.77,2.17,1.88
		c1.04,6.79-1.91,10.66-8.52,12.29c-15.03,3.71-25.47,12.75-33.38,26.2c-9.54,16.23-23.2,29.06-38.62,39.91
		c-5.17,3.64-10.6,6.96-15.44,11c-22.27,18.56-48.02,26.36-76.73,26c-19.28-0.24-38.47,0.2-57.62,3.93
		c-24.91,4.85-42.35,18.07-52.11,41.45c-0.7,0.58-1.45,1.4-0.65,2.15c0.86,0.81,1.49-0.1,1.92-0.88c4.68-2.49,9.2-5.36,14.07-7.39
		c26.26-10.93,53.2-14.05,81.08-6.91c22.58,5.78,40.71,16.77,52.06,38.35c9.86,18.74,17.47,38.08,21.91,58.7
		c2.69,12.47,9.51,22.61,17.71,31.94c3.12,3.55,7.1,6.18,11.87,6.92c4.32,0.67,6.31-3.07,8.98-5.45c0.74-0.66,1.53-1.33,2.42-1.71
		c3.32-1.44,5.9-0.28,7.57,2.71c2.9,5.19,0.55,12.87-4.9,15.32c-17.58,7.91-35.9,11.61-55.31,10.14
		c-34.62-2.64-67.43-12.05-98.9-26.23c-26.83-12.09-52.34-26.44-73.19-47.77c-3.82-3.91-7.39-8.07-11.26-12.32
		c-7.1,16.11-11.46,45.23-12.6,60.98c-0.41,5.63-0.35,11.33-0.05,16.98c0.96,18.32,6.67,24.07,24.68,24.99
		c43.9,2.25,87.8,4.43,131.7,6.66c12.64,0.64,25.29,1.13,37.91,2.06c15.17,1.12,19.81,7.2,18.56,22.03
		c-1.84,21.92-5.41,43.6-8.51,65.34c-2.04,14.3-6.32,17.86-21.01,18.17c-10.98,0.24-21.95-1.28-32.92,0.05
		c-1.22-1.27-2.74-1.8-4.48-1.84c-16.28-0.29-32.54-0.38-48.82-1.84c-17.52-1.57-35.21-1.03-52.81-1.66
		c-25.91-0.92-51.83-2.65-77.78-2.63c-22.28,0.01-44.46-3.16-66.78-2.16c-0.99,0.04-2.05,0.06-2.98-0.22
		c-9.48-2.85-19.21-1.21-28.81-1.53c-5.5-0.18-6.24,1.22-5.29,6.74c2.07,12.11,3.69,24.26,3.43,36.6c-0.1,4.63,0.71,9.26,1.07,13.84
		c0.91,11.81,3.08,23.89-1.55,35.47c-1.42,3.56-0.64,5.46,2.8,7.06c23.53,10.98,47.67,20.48,72.88,26.56
		c18,4.34,36.53,6.12,55.02,8.11c20.08,2.16,39.87,1,59.63-0.93c21.43-2.09,42.56-6.61,63.22-13c10.74-3.33,11.07-3.19,10.73-14.3
		c-0.8-25.98,0.87-51.79,4.23-77.54c1.84-14.13,2.65-15.19,16.11-14.4c0.54,2.59,0.81,5.26,1.66,7.74
		c8.08,23.67,9.28,48.21,9.44,72.9c0.02,2.86-0.89,5.96,1.22,8.53c3.03,0.99,5.19-1.01,7.5-2.1
		c118.51-55.72,200.48-174.24,209.56-304.67c5.34-76.65-12.37-148.02-53.17-213.38C922.81,642.06,921.78,638.64,918.42,637.17z
		 M759.68,1045.46c4,0,7.99,0.04,11.99-0.01c3.42-0.05,5.94-1.57,6.14-5.19c0.71-13.25,2.06-26.42,4.25-39.51
		c0.5-3.02-0.86-5.34-4.32-5.29c-5.69,0.1-11.01-2.27-16.78-2.01c-20.96,0.92-41.77-3.06-62.75-2.11c-0.66,0.03-1.34,0.04-1.99-0.07
		c-19.72-3.33-39.72-1.98-59.58-3.39c-19.5-1.39-39.11-2.46-58.72-2.94c-11.18-0.27-22.62-0.31-33.73-1.83
		c-18.82-2.58-37.77-2.23-56.61-3.19c-19.88-1.01-39.73-3.62-59.71-2.67c-1.63,0.08-3.34-0.21-4.93-0.63
		c-6.89-1.83-13.92-1.04-20.87-1.02c-5.33,0.02-6.59,1.52-5.56,6.74c0.91,4.58,1.89,9.09,1.65,13.79c-0.49,9.34,1,18.54,1.84,27.79
		c0.33,3.64,1.77,5.54,5.52,5.46c1.66-0.03,3.33,0.13,4.99,0.06c30.29-1.19,60.46,2.66,90.74,2.11c1-0.02,2.02-0.09,2.99,0.09
		c18.39,3.33,37.08,2.28,55.59,3.29c21.54,1.18,43.09,3.73,64.73,2.66c0.66-0.03,1.34,0,2,0.08c19.79,2.26,39.64,3.74,59.57,3.79
		c4,0.01,8.1-0.49,11.97,0.23C718.49,1045.49,739.36,1040.95,759.68,1045.46z"/>
	<path class="st0" d="M1950.49,1406c-2.13,112.87-42.54,209.66-123.62,288.46c-54.58,53.05-119.91,87.65-194.69,101.83
		c-106.3,20.16-204.87,0.06-292.16-65.07c-80.13-59.78-127.06-140.53-141.94-239.21c-10.65-70.65-2.54-139.55,26.07-205.35
		c21.6-49.68,51.43-93.99,90.45-131.79c58.41-56.57,127.99-91.32,208.02-104.92c48.88-8.31,97.47-5.77,145.52,6.53
		c6.45,1.65,12.67,3.61,19.27,0.09c3.34-1.78,7.16-0.43,10.74,0.51c20.11,5.27,38.97,13.76,57.07,23.65
		c98.19,53.67,159.84,135.51,186.09,244.01C1947.73,1351.3,1950.82,1378.47,1950.49,1406z M1592.03,1467.56
		c4.09,2.73,4.58,5.43,1.53,9.83c-10.6,15.3-20.83,30.85-30.94,46.48c-5.4,8.35-10.29,17.01-14.98,25.81
		c-11.33,21.27-18.24,44.26-26.71,66.64c-4.13,10.9-6.6,22.4-6.74,34.04c-0.29,23.89-1.84,47.9,4.02,71.48
		c1.39,5.59,2.08,11.36,3.08,16.94c3.67-0.15,5.77-1.81,7.93-3.33c7.9-5.55,15.04-12.03,22.27-18.4
		c10.03-8.84,18.29-19.35,27.06-29.33c10.49-11.95,21.67-23.54,28.73-38.1c8.27-17.05,17.74-33.41,27.52-49.64
		c11.57-19.19,19.39-39.42,22.32-62.25c2.79-21.75-3.26-40.14-13.61-57.8c-6.17-10.54-14.28-19.96-21.73-29.72
		c-2.61-3.42-6.01-6.24-8.77-9.57c-2.68-3.24-2.21-5.75,1.96-7.76c6.37-3.06,12.73-5.59,19.99-5.44c9.33,0.19,18.67-0.22,28,0.02
		c16.84,0.44,31.95,6.01,44.89,16.79c6.4,5.34,12.87,10.57,19.96,14.87c12.01,7.28,20.63,17.55,27.95,29.27
		c3.98,6.37,8.66,12.29,12.91,18.25c2.13-0.99,2.93-2,3.15-3.39c2.97-18.82,3.88-37.66,0.17-56.49
		c-4.88-24.81-19.43-41.7-42.61-51.3c-11.67-4.83-23.48-9.32-35.16-14.14c-3.15-1.3-6.28-2.04-9.67-2.02
		c-11,0.06-22.01-0.29-32.99,0.17c-9.32,0.39-18.43,2.39-26.89,6.64c-7.12,3.57-14.21,7.22-21.41,10.62
		c-2.48,1.17-4.91,3.96-8.54,0.98c1.76-4.86,5.74-7.68,9.77-10.52c17.34-12.21,36.8-18.27,57.77-19.62
		c16.1-1.04,31.91-0.02,46.56,8.02c4.03,2.21,8.44,4,13.28,3.86c0.32,0.26,0.63,0.52,0.95,0.78c-0.28-0.3-0.55-0.6-0.83-0.89
		c-0.2-5.84-5.78-7.09-9.11-9.83c-12.3-10.1-25.84-17.25-42.66-16.24c-8.57,0.52-17.16-0.13-25.81-1.45
		c-12.95-1.97-25.63-0.18-37.8,5.92c-10.84,5.43-20.36,12.55-29.67,20.02c-6.57,5.27-13.55,8.07-21.98,7.7
		c-6.32-0.28-12.66,0.01-18.99-0.04c-9.51-0.09-18.49,2.3-26.9,6.44c-17.25,8.49-31.12,21.55-44.56,34.85
		c-12.56,12.44-22.23,27.3-31.13,42.52c-8.45,14.45-15.2,29.63-15.44,46.82c-0.21,15.35-0.65,13.41,13.4,13.47
		c1.9,0.01,3.85,1.18,6.46-0.57c0-5.13,0.11-10.74-0.02-16.35c-0.34-14.11,3.61-27.18,11.3-38.68
		c14.48-21.66,30.44-42.19,54.21-54.64c12.59-6.59,24.06-15.33,38.53-18.34c20.42-4.24,46.46,10.3,51.63,30.7
		c3.79,14.95,9.94,28.8,15.93,42.85c5.88,13.79,10.92,27.86,6.74,43.39c-1.28,4.76-1.51,9.81-2.24,14.72
		c-3.13,20.92-9.97,40.47-20.6,58.83c-6.36,11-15.47,19.9-21.94,30.8c-10.02,16.88-20.65,33.27-22.28,53.77
		c-0.43,5.43-0.29,11.91-4.88,16.46c-3.02-0.99-3.77-3.48-3.96-5.59c-1.34-14.76-1.01-29.54,6.66-42.69
		c9.87-16.92,19.74-33.84,31.42-49.68c16.93-22.96,24.9-49.51,29.93-77.32c3.73-20.61-1.82-38.6-12.14-55.85
		c-1.97-4.94-4.29-9.76-5.85-14.83c-4.29-13.91-13.15-23.24-26.24-29.59c-8.8-4.27-17.33-5.11-25.91-1.39
		c-24.91,10.81-47.82,24.36-65.4,45.99c-15.14,18.63-25.3,38.86-26.5,63.17c-0.23,4.55,0.64,6.58,5.71,6.79
		c28.23,1.17,56.45,2.56,84.66,4.12c4.27,0.24,6.63-1.17,8.86-4.68c6.95-10.94,13.95-21.88,21.52-32.4
		C1574.88,1487.81,1582.01,1476.51,1592.03,1467.56z M1680.3,1653.07c8.72,7.23,9.94,17.78,11.79,27.82
		c3.38,18.38,4.27,36.99,4.18,55.67c-0.04,7.84,0.6,8.11,7.95,4.89c1.22-0.53,2.38-1.2,3.58-1.78
		c51.19-24.9,94.34-59.86,129.5-104.53c48.24-61.29,74.39-131.15,78.47-208.9c2.02-38.46-2.67-76.42-13.44-113.59
		c-18.06-62.34-50.12-115.83-99.08-158.85c-32.44-28.5-69.08-49.79-109.83-63.99c-5.42-1.89-11.17-3.69-14.32-8.58
		c-3.5-5.44-8.57-6.74-14.12-7.99c-48.82-10.97-97.83-11.34-146.81-1.74c-81.71,16.01-149.46,56.78-204.87,118.27
		c-37.66,41.79-63.18,90.43-78.11,144.65c-8.6,31.24-14.65,62.89-14.76,95.41c-0.1,31.77,3.55,63.11,11.67,93.86
		c21.24,80.46,65.48,144.99,133.87,192.69c2.84,1.98,5.57,4.63,10.51,4.82c0.21-28.15,0.89-55.84,6.12-83.54
		c-18.33-1.36-36.25-2.61-54.15-4.05c-14.17-1.14-19.23-7.66-17.36-22c1.12-8.58,2.01-17.2,3.45-25.72
		c1.83-10.79,1.71-22.01,6.34-32.2c1.52-3.35-0.84-4.79-2.15-6.97c-6.23-10.37-1.05-20.33,11.08-21.38c1.98-0.17,4-0.11,6-0.01
		c21.61,1.13,43.23,2.24,64.84,3.48c7.59,0.44,8,0.56,7.34-7.41c-1.25-15.04,1.96-29.25,7.8-42.82
		c14.65-34.05,37.29-62.14,65.81-85.53c23.9-19.61,51.06-26.65,81.36-19.17c4.94,1.22,7.45,0.36,10.72-3.69
		c16.59-20.55,38.24-32.33,64.8-31.97c13.26,0.18,26.6,1.15,39.91,1.27c9.56,0.09,18.29,2.63,26.67,7.27
		c28.85,15.99,51.25,39.08,71.28,64.69c5.96,7.63,9.42,16.7,11.56,26.33c8.26,37.12,1.32,72.79-9.87,108.08
		c-0.77,2.43-1.36,5.26-4.54,6.08c-4.59-2.73-6.5-7.22-8.54-11.86c-12.69-28.86-26.96-56.61-54.84-74.32
		c-3.06-1.95-5.85-4.47-8.37-7.11c-18.17-19.1-41.39-17.69-65.97-17c4.1,6.56,8.23,11.26,12.81,15.49
		c5.73,5.3,10.04,11.51,13.57,18.39c9.65,18.76,15.02,38.36,12.74,59.7c-0.85,7.96-0.53,7.97,7.86,8.23
		c6.66,0.2,13.33,0.37,19.98,0.73c9.97,0.53,19.98,0.85,29.9,1.91c11.25,1.21,15.81,6.89,15.35,18.02
		c-0.15,3.65-0.74,7.28-0.98,10.92c-1.21,17.96-4.91,35.59-6.96,53.43c-2.16,18.71-7.16,23.04-25.82,21.93
		c-0.66-0.04-1.32-0.16-1.99-0.2c-10.65-0.69-21.3-0.73-31.96-0.33c-15.25-0.85-30.42-2.92-45.77-2.52
		c-4.82,0.13-8.36,1.2-10.68,5.5c-9.07,16.78-22.07,30.48-34.26,44.93c-12.96,15.36-27.81,28.57-42.78,41.71
		c-4.41,3.87-8.97,8.1-14.79,10.01c-7.74,2.54-14.33,5.98-18.82,13.56c-3.26,5.51-5.56,5.21-12.97,1.94
		c3.35-4.24,6.78-8.68,5.6-14.34c-2.92-13.98-2.57-28.35-5.4-42.37c-1.83-9.07-2.28-18.37-2.44-27.72
		c-0.17-10.05,2.13-19.82,2.02-29.79c-0.08-8.05-0.83-9.37-8.24-9.09c-22.99,0.86-45.8-2.61-68.76-2.29
		c-6.6,0.09-13.23,0.6-19.86-1.14c-4.78-1.26-7.37,1.33-6.3,5.86c4.61,19.53,5.04,39.41,5.36,59.31c0.04,2.32-0.01,4.75,0.67,6.92
		c2.1,6.71,1.55,13.31-1.25,19.49c-2.21,4.9-0.67,7.19,3.67,9.38c10.99,5.56,22.41,10.09,33.81,14.71
		c27.29,11.06,55.82,17.69,85.02,19.12c25.82,1.26,51.83,2.08,77.72-1.46c19.76-2.71,38.89-7.76,58.05-12.99
		c4.68-1.28,6.55-3.72,6.16-8.51c-0.32-3.97,0.11-8-0.1-11.99c-1.3-25,1.73-49.74,4.36-74.51
		C1671.14,1655.56,1672.5,1654.25,1680.3,1653.07z M1356.5,1553.35c-4.99,0-9.99-0.1-14.98,0.02c-7.09,0.17-7.37,0.4-7.4,7.3
		c-0.06,13.29,3.01,26.41,2.11,39.76c-0.3,4.4,2.02,6.85,6.56,6.92c2.33,0.03,4.66-0.01,6.99,0.06c22.24,0.66,44.46,0.18,66.74,1.42
		c22.17,1.23,44.38,3.24,66.66,2.84c6.25-0.11,12.51,1.18,18.78,1.66c3.47,0.27,6.48-0.35,8.02-4.3
		c5.06-12.96,10.5-25.78,15.43-38.79c2.02-5.33-0.14-8.58-5.93-8.56c-12.65,0.05-25.2-1.84-37.76-1.93
		c-21.28-0.15-42.4-3.38-63.7-2.5c-0.66,0.03-1.34,0.01-1.99-0.07C1396.28,1554.65,1376.34,1554.91,1356.5,1553.35z
		 M1719.66,1578.97c0.6-3.76-0.38-7.18-4.63-7.16c-14.28,0.09-28.44-1.59-42.67-2.26c-3.48-0.16-5.08,2.06-6.35,5.19
		c-2.6,6.42-5.29,12.8-8.4,19.04c-3.56,7.14-7.73,13.85-11.58,20.78c-2.68,4.8-1.87,6.26,3.76,6.69c2.31,0.18,4.65,0.17,6.97,0.07
		c16.62-0.72,33.07,1.79,49.62,2.56c6.99,0.33,9.42-0.71,9.5-7.44C1716,1603.81,1717.72,1591.39,1719.66,1578.97z"/>
	<path class="st0" d="M330.05,2058.22c-0.7-95.32,33.42-180.03,95.97-253.82c50.46-59.54,113.58-99.93,188.62-121.44
		c27.57-7.9,55.65-12.57,84.41-14.12c36.94-1.98,72.99,2.54,108.65,11.53c4.65,1.17,8.86,1.67,13.58-0.19
		c7.31-2.89,14.49-0.17,21.37,2.27c28.05,9.94,54.78,22.69,79.42,39.42c75.08,50.97,125.39,120.14,150.58,207.32
		c11.94,41.32,16.09,83.66,12.93,126.52c-11.52,156.42-111.7,297.29-270.95,351.39c-32.92,11.18-66.83,17.21-101.69,18.84
		c-64.54,3.02-126.14-8.6-183.34-38.47c-106.21-55.47-170.41-142.93-193.69-260.44C331.56,2105.08,329.6,2082.9,330.05,2058.22z
		 M854.09,2071.48c0.42,0.78-0.77,3.02,1.54,1.95c0.5-0.23-0.51-1.61-1.45-2.03c-1.34-6.47-6.75-9.68-11.24-13.39
		c-12.82-10.61-28.08-17.54-41.75-26.91c-6.08-4.16-13.26-5.61-20.81-5.87c-7.91-0.27-15.85-1.26-23.64-2.66
		c-9.68-1.74-18.91-1.24-28.42,1.59c-16.26,4.84-31.96,11.12-47.29,18.17c-10.75,4.95-21.5,10.48-29.04,20.39
		c-13.86,18.22-27.87,36.29-37.37,57.39c-3.44,7.64-7.04,15.01-6.49,23.69c0.26,4.05-0.86,7.35-5.85,7.42
		c-1.56-12.05-0.78-23.49,4.29-35.06c10.57-24.12,25.69-45.08,42.25-65.19c3.44-4.17,7.9-7.07,12.5-9.83
		c20.42-12.25,42.47-20.65,65.05-27.83c7.72-2.46,15.52-3.2,23.65-2.34c10.25,1.08,20.44,2.73,30.82,2.89
		c7.65,0.12,15.47,1.64,22.16,5.43c15.03,8.54,30.28,16.84,44.12,27.25c18.32,13.78,28.21,33.58,35.71,54.37
		c4.64,12.86,2.97,26.33-2.57,39.03c-1.09,2.51-2.73,5.34-5.61,4.93c-3.64-0.52-2.28-4.17-2.5-6.6c-0.15-1.63,0.16-3.32,0.43-4.97
		c2.27-14.02-1.52-26.62-10.48-37.17c-7.54-8.88-16.54-17.15-27.07-21.75c-17.63-7.7-35.99-13.94-54.95-17.91
		c-2.26-0.47-4.63-0.58-6.95-0.59c-12-0.06-24,0.02-35.99-0.03c-21.2-0.1-38.51,8.9-53.88,22.67c-8.68,7.77-17.53,15.35-26.25,23.09
		c-13.99,12.42-22.58,27.83-25.05,46.42c-1.06,8.02-0.26,8.79,7.45,9.17c41.24,2.06,82.48,4.05,123.71,6.11
		c31.93,1.59,63.85,3.22,95.78,4.9c3.98,0.21,7.97,0.67,11.91,1.3c8.75,1.4,13.41,6.89,13.29,15.84c-0.05,3.98-0.69,7.95-1.01,11.93
		c-1.39,17.59-4.79,34.92-6.87,52.42c-2.51,21.13-5.86,24.27-27.16,23.62c-7.99-0.25-15.99-0.37-23.99-0.38
		c-8.23-0.01-8.52,0.4-4.65,7.18c3.52,6.17,5.91,12.79,7,19.67c2.14,13.45,4.45,26.91,4.46,40.63c0.01,8.44,0.49,16.89,0.77,25.47
		c2.25-0.14,3.32,0.05,4.17-0.31c3.68-1.53,7.39-3.05,10.93-4.88c80.28-41.38,138.93-103.11,175.03-186.07
		c19.4-44.59,28.93-91.27,29.18-139.8c0.19-35.5-4.92-70.27-15.25-104.35c-22.11-73.01-63.59-132.01-125.97-176.12
		c-24.9-17.61-51.86-31.26-80.64-41.36c-5.98-2.1-12.36-4.09-15.96-9.66c-2.68-4.15-6.23-5.44-10.6-6.47
		c-56.21-13.26-112.4-12.36-168.17,1.74c-73.83,18.66-136.23,57.11-186.06,114.38c-66.38,76.28-96.72,165.66-91.71,266.85
		c1.61,32.51,8.11,64.06,18.88,94.66c24.07,68.44,65.95,123.51,125.55,164.97c2.84,1.98,5.49,4.81,10.45,4.85
		c0.2-27.87,0.71-55.35,6.07-82.76c-3.06-1.84-6.71-1.77-10.36-1.98c-13.96-0.8-27.93-1.53-41.87-2.59
		c-16.07-1.22-21.16-7.74-18.96-23.54c1.1-7.91,1.78-15.88,3.08-23.76c1.67-10.16,1.83-20.65,5.43-30.39
		c1.42-3.83,1.39-6.3-1.11-9.83c-4.63-6.56-3.41-13.11,2.11-17.83c3.8-3.24,8.39-4.21,13.12-3.65c13.92,1.65,27.92,1.62,41.88,2.37
		c29.91,1.62,59.83,3.13,89.75,4.69c4.98,0.14,9.96,0.37,14.95,0.39c9.21,0.02,9.17-0.03,9.45-9.32c0.66-21.57,10.92-38.67,26-52.97
		c5.26-4.99,11.06-9.55,16.11-14.79c7.88-8.19,16.79-14.93,26.22-21.25c12.03-8.06,24.98-11.94,39.35-11.82
		c13.97,0.12,27.94,0.2,41.9-0.1c6.76-0.14,13.27,0.91,19.58,2.92c11.36,3.63,22.49,7.97,33.86,11.55
		C837.97,2062.53,845.55,2067.99,854.09,2071.48z M815.31,2274.55c-2.4-3.35-4.87-2.98-7.14-3.01c-11.96-0.18-23.88-0.93-35.82-1.6
		c-23.89-1.33-47.87-0.36-71.8-2.29c-17.87-1.44-35.87-0.98-53.8-1.62c-26.58-0.94-53.14-3.39-79.78-2.75
		c-3.3,0.08-6.77,0.15-9.9-0.71c-5.29-1.45-10.6-1.06-15.89-1.03c-6.78,0.04-7.13,0.61-7.02,7.64c0.02,1.66,0.05,3.34,0.26,4.99
		c2.06,15.8,3.47,31.65,3.69,47.59c0.08,5.96-0.27,11.93,1.49,17.84c1.03,3.48,0.44,7.16-0.93,10.76
		c-3.73,9.85-3.45,10.31,6.59,14.45c14.73,6.08,29.55,11.86,44.62,17.13c28.85,10.09,58.64,13.96,88.86,15.38
		c21.28,1,42.43-0.87,63.58-3.59c18.56-2.39,36.33-7.68,54.3-12.34c3.6-0.93,5.1-3.45,4.71-6.61c-2.06-16.61-1.21-33.14,0.72-49.69
		c1.57-13.5,2.82-27.03,4.38-40.53C806.99,2279.63,809.52,2275.92,815.31,2274.55z M470.05,2188.46c2.14,9.79,1.94,21.76,2.22,33.72
		c0.14,6.08,1.52,7.18,8.17,7.33c12.94,0.29,25.87,1.09,38.77,1.5c31.2,1,62.35,2.59,93.53,4.04c25.85,1.2,51.67,2.57,77.5,4.03
		c26.82,1.51,53.68,2.98,80.51,3.99c21.91,0.82,43.76,3.47,65.73,2.53c1.33-0.06,2.67-0.02,3.99,0.09
		c8.88,0.78,10.43,0.08,11.23-8.8c1.04-11.54,2.02-23.06,4.11-34.48c0.69-3.74-1.03-7.01-5.23-6.85c-7.72,0.3-15.1-2.38-22.79-2.07
		c-21.29,0.84-42.43-3.01-63.73-2.18c-0.99,0.04-2.01-0.01-2.99-0.18c-16.73-2.98-33.76-1.43-50.59-3.43
		c-11.49-1.37-23.17-1.05-34.77-1.74c-24.83-1.47-49.7-2.44-74.52-4.34c-11.23-0.86-22.5-0.82-33.78-1.64
		c-17.18-1.25-34.5-1.02-51.72-2.45c-8.91-0.74-17.9,0.35-26.82-1.67c-4.44-1.01-9.28-0.23-13.94-0.3c-3.31-0.05-4.89,1.61-4.9,4.86
		C470.04,2182.41,470.05,2184.41,470.05,2188.46z"/>
	<path class="st1" d="M1736.03,876.84c9.94-2.1,19.93,0.11,29.9-0.3c3.66-0.15,7.34,0.13,11-0.1c9.65-0.61,14.03-3.95,15.68-13.56
		c2.81-16.39,5.05-32.88,7.29-49.36c1.03-7.58,1.77-15.22,2.14-22.85c0.61-12.6-4.45-18.11-17.54-19.03
		c-13.29-0.94-26.61-1.41-39.91-2.13c-29.6-1.61-59.19-3.32-88.79-4.87c-21.96-1.15-43.92-2.23-65.89-3.13
		c-11.9-0.49-13.39-1.83-13.88-14.06c-0.81-20.51,2.81-40.46,7.53-60.27c1.22-5.12,2.66-10.2,3.96-15.15
		c1.42,0.15,2.3-0.02,2.56,0.31c20.6,26.14,48.36,42.54,77.72,56.51c29.66,14.11,60.76,23.74,93.48,27.67
		c22.22,2.67,43.88,1.27,64.5-8.44c6.26-2.95,9-9.07,6.53-15.49c-0.97-2.53-2.82-3.56-5.43-3.45c-2.11,0.09-3.66,1.17-5.28,2.47
		c-7.76,6.25-12.28,6.31-19.32-1.09c-8.57-9-15.5-19.25-18.23-31.66c-4.6-20.96-12.05-40.73-22.15-59.72
		c-12.51-23.53-32.52-35.26-57.8-39.75c-2.62-0.47-5.26-0.88-7.87-1.39c-0.97-0.19-1.9-0.57-3.28-1.01c1.56-3.74,5.22-5.04,7.8-7.35
		c4.98-4.46,10.31-8.74,12.91-15.04c1.85-4.48,4.71-5.63,9.18-5.87c14.97-0.8,29.94-1.86,44.15-7.39c5.91-2.3,11.95-4.47,17.14-8.08
		c28.45-19.78,57.84-38.62,75.35-70.16c6.1-10.99,17.08-14.27,27.85-17.74c4.85-1.56,7.27-3.97,6.91-9.28
		c-0.26-3.8-2.3-6.15-5.56-5.46c-16.07,3.41-29.26-4.46-42.84-10.53c-29.04-12.97-59.34-18.47-90.65-12.56
		c-31.41,5.93-60.64,17.99-85.9,38.13c-18.07,14.41-34.23,30.71-45.95,50.93c-0.64,1.11-1.42,2.22-3.08,2.12
		c-2.09-1.06-1.88-3.28-2.33-5.15c-4.33-18.02-13.01-34.17-21.88-50.19c-2.72-4.92-5.98-9.79-12.58-10.28
		c-4.56-0.34-8.55,0.96-12.02,3.91c-6.59,5.62-13.33,11.07-19.75,16.88c-9.34,8.44-12.85,19.9-16.1,31.58
		c-1.23,4.42-0.21,10.38-4.04,12.99c-4.09,2.79-8.72-1.46-13.08-2.57c-54.2-13.82-114.46,9.1-143.58,54.95
		c-10.8,17.01-16.59,35.51-15.18,55.89c0.16,2.31,0.31,4.75,1.18,6.84c1.26,3.03,3.49,4.53,5.28,0.37c1.21-2.81,2.44-3.76,5.1-1.84
		c2.67,1.92,5.23,1.14,7.18-0.96c6.43-6.93,15.15-8.56,23.67-9.28c40.35-3.41,78.86,4.52,116.06,19.91c4,1.66,4.84,4.14,3.56,7.84
		c-1.88,5.46-1.72,11.15-2.15,16.79c-0.79,10.38,3.28,18.75,10.08,26.23c4.77,5.25,10.47,7.99,17.21,6.92
		c1.67,3.59,0.07,6.02-0.45,8.52c-3.06,14.71-5.51,29.5-4.56,44.6c0.31,4.86-1.46,6.52-6.28,6.23c-25.6-1.52-51.22-2.91-76.83-4.24
		c-23.95-1.25-47.91-2.37-71.86-3.55c-6.42-0.32-12.21,1.32-15.34,7.28c-2.87,5.45-2.15,11.07,2.22,15.71
		c1.99,2.12,1.28,3.94,0.62,6.31c-5.6,19.97-7.19,40.61-9.44,61.1c-1.23,11.19,3.88,16.88,15.18,18.03
		c16.23,1.66,32.54,2.58,48.81,3.8c2.3,0.17,4.69-0.22,7.19,1.47c-4.69,26.9-5.49,54.35-5.79,82.41c-4.97-0.49-7.68-3.06-10.56-5.06
		c-65.79-45.71-109.07-107.6-131.29-184.24c-12.47-42.99-17.15-87.06-12.03-131.56c8.66-75.14,34.62-143.48,83.72-201.97
		c45.66-54.38,102.01-93.47,169.51-115.69c62.15-20.46,125.44-22.96,189.41-9.3c5.63,1.2,10.56,2.87,14.05,8.21
		c3.2,4.92,9.04,6.56,14.42,8.44c29.43,10.29,57,24.3,82.36,42.41c63.41,45.28,104.98,105.89,126.46,180.61
		c10.5,36.52,15.37,73.84,13.4,111.63c-4.59,88.41-36.73,165.68-96.52,231.27c-29.72,32.6-64.14,59.03-103.2,79.45
		c-4.42,2.31-9.01,4.31-13.55,6.39c-1.47,0.67-2.91,1.69-5.89,0.68c-0.22-8.98-0.5-18.45-0.68-27.91
		c-0.25-13.37-2.44-26.52-4.73-39.63c-1.51-8.64-5.1-16.48-10.67-23.35C1735.19,877.63,1735.68,877.39,1736.03,876.84z"/>
	<path class="st2" d="M1736.03,876.84c-0.34,0.55-0.84,0.79-1.48,0.71c-5.19-0.5-7.99,1.47-8.7,7.02
		c-1.64,12.8-3.93,25.52-5.56,38.32c-2.24,17.51-2.49,35.12-1.97,52.74c0.13,4.53-1.05,7.19-5.8,8.85
		c-14.13,4.95-28.71,7.96-43.32,10.81c-25.27,4.92-50.87,4.37-76.46,4.36c-16.05,0-31.66-2.72-47.33-5.48
		c-32.53-5.73-63.06-17.16-92.78-32.3c5.28-9.82,6.91-19.98,3.99-30.74c-0.6-2.21-0.51-4.63-0.52-6.96
		c-0.04-16.94-1.41-33.77-3.8-50.53c-0.97-6.81,0.3-7.92,7.33-8.27c18.65-0.95,37.15,2.03,55.75,1.99
		c26.93-0.07,53.8,1.99,80.7,2.71c17.56,0.47,35.28-0.06,52.74,1.76c17.62,1.84,35.31,0.17,52.75,2.08
		C1713.04,875.18,1724.75,873.65,1736.03,876.84z"/>
	<path class="st2" d="M1408.81,779.38c20.44,2.49,41.14,0.8,61.53,3.93c0.98,0.15,2,0.12,2.99,0.07c19.98-1,39.83,1.73,59.74,2.45
		c25.84,0.92,51.66,2.75,77.5,3.99c26.18,1.25,52.33,2.85,78.53,3.96c26.17,1.11,52.31,3.26,78.52,3.82
		c5.87,0.13,7.16,1.62,6.16,7.29c-2.01,11.44-3.12,22.96-3.94,34.54c-0.63,8.97-2.2,10.26-11.12,9.99
		c-17.89-0.53-35.78-1.33-53.56-3.65c-0.99-0.13-2-0.2-2.99-0.16c-23.3,1.05-46.55-1.27-69.7-2.76
		c-18.85-1.21-37.78-0.52-56.63-2.95c-12.41-1.6-25.18-2.02-37.73-2.08c-26.61-0.13-53.16-2-79.7-3.08
		c-19.26-0.78-38.51-0.67-57.76-1.34c-9.59-0.34-10.41-0.82-10.42-10.18c-0.02-11.97-0.83-23.86-1.97-35.77
		c-0.73-7.68-0.01-7.85,7.55-8.05C1400.15,779.29,1404.49,779.38,1408.81,779.38z"/>
	<path class="st3" d="M1855.36,462.28c-16.62,7.69-33.62,12.22-51.82,13.48c-14.85,1.03-29.13,6.2-43.6,9.76
		c-22.61,5.55-44.61,12.53-65.39,23.54c-17.47,9.26-32.63,20.38-42.22,38.02c-1.59,2.92-3.61,4.56-7.06,4.48
		c-5.99-0.14-11.98-0.06-17.97-0.14c-1.99-0.03-5.21-0.47-4.55-2.52c1.8-5.65-1.65-11.45,2.19-17.28
		c7.31-11.1,13.98-22.85,23.07-32.38c17.91-18.79,37.25-36.2,62.19-45.53c15.82-5.92,31.48-12.1,48.46-14.7
		c16.77-2.57,33.05-1.56,49.28,2.45c15.54,3.84,30.36,9.68,44.5,17.21C1853.55,459.26,1854.84,459.75,1855.36,462.28z"/>
	<path class="st3" d="M1382.94,594.97c4.37-0.26,7.53-2.34,10.3-4.39c18.91-14,40.34-21.49,63.38-24.72
		c4.89-0.68,9.96-0.1,15.32-0.1c0,2.59-2.41,3.47-3.91,4.64c-12.78,9.92-10.56,30.68,4.9,39.42c4.4,2.49,9.17,3.9,13.88,5.51
		c5.32,1.81,10.86,3.13,16.09,7.21c-4.27,1.06-7.29-1.1-10.37-2.08c-15.25-4.84-30.89-7.29-46.72-9.34
		c-10.63-1.38-21.19-1.95-31.8-1.54c-7.59,0.3-15.26,1.07-22.67,2.65c-9.22,1.96-17.43,6.25-23.62,15.96
		c-2.49-9.18-0.04-16.46,1.86-23.36c9.49-34.59,32.84-57.01,64.79-71.12c18.16-8.02,37.41-11.43,57.33-10.27
		c12.36,0.72,24.27,3.58,35.76,8.14c3.02,1.2,6.98,10.13,6.26,13.43c-0.35,1.58-1.47,2-2.78,2.4c-8.23,2.54-16.41,5.28-24.7,7.6
		c-4.41,1.23-8.89,1.14-13.64,0.77c-25.43-1.96-50.61-0.74-74.11,10.7c-11.97,5.83-23.65,12.28-32.79,22.34
		C1384.39,590.26,1382.58,591.45,1382.94,594.97z"/>
	<path class="st3" d="M1656.55,553.38c10.58-16.51,23.7-26.51,39.4-34.15c18.95-9.21,38.3-16.46,59.01-20.7
		c14.9-3.05,29.46-7.7,44.56-10.21c5.9-0.98,11.89-1.25,17.75-1.94c8.51-1,16.63-3.89,26.19-5.13c-3.15,8.68-9.08,14.05-14.15,19.84
		c-12.4,14.17-29.16,22.97-43.6,34.66c-8.15,6.59-17.3,11.13-27.12,14.49c-19.66,6.73-39.73,6.63-60.01,3.76
		c-3.93-0.56-7.96-0.58-11.94-0.61C1677.09,553.33,1667.54,553.38,1656.55,553.38z"/>
	<path class="st3" d="M1596.29,667.26c8.81,1.55,14.97,8.13,22.5,12.11c8.58,4.54,17.14,8.5,26.6,10.95
		c6.93,1.8,11.75-0.38,15.96-5.15c6.41-7.25,8.34-15.76,5.91-25.12c-1.16-4.48-2.71-8.86-4.2-13.66c6.94-2.63,12.85,0.05,18.31,2.73
		c19.34,9.49,36.73,21.35,48.17,40.44c11.05,18.44,21.53,37.32,38.75,52.97c-8.9,1.73-15.99-0.68-22.77-1.94
		c-30.49-5.65-59.88-15.32-87.8-28.71c-19.45-9.33-37.91-20.61-54.02-35.33c-3-2.74-5.5-5.71-7.7-9.02L1596.29,667.26z"/>
	<path class="st3" d="M1794.63,740.62c-2.67,1.54-5.23,0.64-7.48-0.79c-8.08-5.14-16.09-10.16-22.23-17.99
		c-11.3-14.43-19.35-30.99-30.38-45.53c-14.41-18.99-32.78-32.6-55.77-39.71c-3.94-1.22-7.86-1.07-11.82-1.29
		c-8.09-0.46-15.83-1.79-21.7-9.59c11.2-3.58,21.13-9.26,30.15-16.55c3.46-2.79,7.75-2.18,11.54-1.44
		c9.74,1.91,19.47,4.06,29.02,6.75c15.45,4.35,26.98,13.81,34.67,27.98c9.54,17.59,17.57,35.72,21.63,55.47
		c3.01,14.64,10.4,27.17,19.9,38.54c0.84,1,1.63,2.05,2.39,3.12C1794.71,739.83,1794.61,740.24,1794.63,740.62z"/>
	<path class="st3" d="M1578.17,673.44c0.61,4.76-1.01,9.12-2.17,13.63c-5.18,20.18-10.32,40.39-9.83,61.48
		c0.08,3.27,0.01,6.54,0.01,9.98c-0.28,0.16-0.82,0.74-1.39,0.76c-12.72,0.57-12.61,0.56-12.72-11.9
		c-0.14-17.05,4.12-33.39,7.78-49.83c0.89-3.98,2.7-7.38,5.59-10.35c4.35-4.47,8.47-9.19,12.68-13.8L1578.17,673.44z"/>
	<path class="st3" d="M1516.13,627.46c3.99,0,7.98-0.06,11.96,0.04c1.66,0.04,3.54,0.35,2.96,2.76c-0.42,1.76-1.92,3.1-3.62,2.83
		c-4.3-0.68-8.13-2.56-11.25-5.7C1516.19,627.39,1516.13,627.46,1516.13,627.46z"/>
	<path class="st3" d="M1541.88,549.61c-1.97,3.93-5.31,0.18-7.77,1.38C1536.22,547.78,1539.3,550.08,1541.88,549.61z"/>
	<path class="st3" d="M1516.19,627.39c-0.66-0.01-1.34,0.05-1.98-0.06c-0.78-0.14-2.25,0.16-1.96-1.02
		c0.24-0.96,1.67-0.67,2.52-0.22c0.54,0.29,0.92,0.9,1.37,1.37C1516.13,627.46,1516.19,627.39,1516.19,627.39z"/>
	<path class="st3" d="M1578.13,673.41c0.27-0.87,0.54-1.74,0.81-2.61c1.7,1.46,0.26,1.99-0.78,2.64
		C1578.17,673.44,1578.13,673.41,1578.13,673.41z"/>
	<path class="st3" d="M1592.1,663.49c-0.28-0.33-0.56-0.65-0.84-0.98c0.32,0.29,0.64,0.57,0.96,0.86
		C1592.21,663.37,1592.1,663.49,1592.1,663.49z"/>
	<path class="st3" d="M1596.01,667.54c-0.64-0.69-1.29-1.37-1.93-2.06l0.13-0.13c0.69,0.64,1.39,1.27,2.09,1.9
		C1596.29,667.26,1596.01,667.54,1596.01,667.54z"/>
	<path class="st3" d="M1541.77,535.59c0.47,0.54,0.49,1.09,0.07,1.66c-0.24-0.4-0.5-0.78-0.68-1.2
		C1541.14,535.99,1541.56,535.74,1541.77,535.59z"/>
	<path class="st3" d="M1594.08,665.48c-0.66-0.66-1.32-1.33-1.98-1.99c0,0,0.12-0.12,0.12-0.12c1.05,0.28,1.71,0.94,1.99,1.98
		C1594.21,665.35,1594.08,665.48,1594.08,665.48z"/>
	<path class="st1" d="M1542.36,2291.73c0.15,4.68-0.18,9.21-1.67,13.78c-8.77,26.75-14.65,53.97-12.52,82.4
		c0.04,0.6-0.36,1.24-0.8,2.63c-12.59-0.46-25.41-0.79-38.22-1.42c-23.27-1.14-46.54-2.42-69.8-3.71
		c-5.65-0.31-11.28-0.84-16.91-1.38c-4.43-0.43-8.74,0.08-12.63,2.13c-6.45,3.4-9.11,11.73-4.81,17.99
		c3.08,4.48,2.78,7.86,1.39,12.71c-3.39,11.85-4.28,24.23-5.88,36.43c-0.99,7.57-2.72,15.08-2.47,22.81
		c0.31,9.74,3.37,13.92,13.12,15.77c13.77,2.61,27.85,2.07,41.75,3.45c2.65,0.26,5.33,0.42,7.99,0.38c3.67-0.06,5.37,1.23,5.31,5.25
		c-0.4,25.64-2.82,51.22-2.45,76.88c0.01,0.83-0.85,1.68-1.29,2.48c-3.55,0.2-5.64-2.26-7.99-3.88
		c-68.58-47.36-113.2-111.55-134.83-191.94c-9.96-37-13.78-74.66-11.38-112.78c2.75-43.9,13.85-85.98,30.91-126.47
		c22.83-54.2,57.81-99.38,102.93-136.75c45.1-37.36,96.01-63.34,153.36-76.05c51.78-11.47,103.67-11.86,155.55-0.52
		c5.81,1.27,11.34,2.59,15.1,8.38c3.37,5.17,9.66,6.85,15.33,8.84c27.81,9.77,53.89,22.92,78.12,39.72
		c61.91,42.91,103.5,100.72,126.64,172.2c14.57,45.01,19.53,91.18,15.63,138.08c-5.05,60.85-24.64,117.1-58.19,168.16
		c-37.58,57.2-87.07,101.19-148.72,131.24c-3.21,1.56-6.23,3.91-10.91,3.62c-0.53-10.16-1.33-20.34-1.51-30.52
		c-0.22-13.05-2.32-25.84-4.69-38.59c-1.47-7.92-4.56-15.3-9.9-21.55c0.34-0.6,0.49-1.24,0.46-1.93
		c10.29-1.41,20.62-0.22,30.93-0.34c3-0.03,6,0.25,8.99,0.13c11.61-0.45,16.31-4.47,17.84-15.99c3.06-23.07,7.3-45.98,8.68-69.27
		c0.7-11.85-3.34-17.91-15.09-18.8c-20.24-1.54-40.53-2.38-60.8-3.47c-50.86-2.73-101.71-5.43-152.57-8.14
		c-2.99-0.16-5.99-0.25-8.99-0.32c-11.68-0.28-11.93-0.22-14.42-11.7c-1.99-9.19-1.47-18.63-0.41-27.86
		c2.02-17.53,5.01-34.92,10.12-51.87c0.37-1.23,1.18-2.33,2.22-4.32c12.97,17.1,28.87,30.07,46.6,40.84
		c37.14,22.56,77.01,37.98,120.07,44.33c17.11,2.53,34.42,3.75,51.59-1.01c7.1-1.97,13.67-5.16,20.53-7.64
		c5.27-1.91,7.42-10.72,4.53-15.41c-2.21-3.59-5.96-3.72-10.19-0.36c-7.64,6.07-11.18,6.15-18.04,0.71
		c-3.34-2.65-4.46-5.18-1.85-9.27c9.85-15.44,19.2-31.1,32.29-44.29c16.33-16.47,29.04-35.56,37.3-57.39
		c8.3-21.95,10.02-44.72,7.91-67.86c-0.79-8.7-3.84-16.92-7.72-24.68c-5.06-10.11-9.92-20.43-17.05-29.3
		c-2.6-3.24-2.15-5.49-0.22-8.79c6.4-10.96,13.92-20.31,27.22-23.14c2.89-0.62,5.64-1.99,8.39-3.16c3.71-1.59,6.27-4.14,5.05-8.5
		c-1.01-3.61-3.63-5.46-7.53-5.13c-0.33,0.03-0.67,0.03-1,0.07c-12.08,1.59-22.9-2.01-33.58-7.32
		c-15.58-7.73-32.09-12.96-49.19-16.16c-12.56-2.35-25.25-1.13-37.89-0.9c-3.96,0.07-7.92,0.36-11.89,0.56
		c-1.62-3.44,0.34-6.08,0.69-8.88c0.78-6.2-3.45-9.64-9.16-7.3c-4.06,1.66-7.55,4.52-10.14,7.95
		c-10.9,14.42-24.82,24.32-41.68,30.93c-11.19,4.38-21.21,11.54-29.37,20.4c-10.49,11.37-24.08,16.18-38.13,20.5
		c-1.91,0.59-3.92,0.89-5.78,1.6c-5.66,2.15-6.37,7.54-1.69,11.54c2.64,2.26,6.27,1.92,9.75,4.2
		c-14.95,24.41-30.03,48.78-36.89,76.99c-2.03,0.29-1.93-1.39-2.21-2.32c-10.86-35.83-35.76-56.99-70.99-66.39
		c-54.08-14.44-113.47,9.18-141.94,52.07c-12.33,18.57-18.93,38.78-16.66,61.37c0.4,3.95,0.92,7.49,6.21,6.9
		c1.95,0.27,3.37-0.38,4.08-2.31c1.62-0.36,3.44-0.37,4.81-1.16c3.72-2.14,7.06-4.99,10.89-6.88c8.86-4.36,18.53-5.15,28.22-5.43
		c18.76-0.53,37.25,2.05,55.5,5.99c25.5,5.51,50.2,13.3,72.09,28.18c2.44,1.66,4.89,3.57,8.19,2.98
		C1539.05,2286.21,1539.69,2289.91,1542.36,2291.73z"/>
	<path class="st4" d="M1854.3,2187.59c-1.27,46.8-14.37,78.64-38.91,105.19c-15.02,16.26-28.54,33.3-39.28,52.6
		c-0.48,0.87-1.06,1.69-1.61,2.53c-4.13,6.33-4.14,6.35-10.88,3.37c-26.35-11.64-50.44-26.97-72.62-45.25
		c-24.41-20.13-45.01-43.38-58.05-72.66c-8.35-18.74-11.89-37.98-7.06-58.32c4.66-19.64,17.61-32.31,34.57-41.69
		c4.02-2.23,8.66-2.37,12.69-1.3c12.47,3.31,25.25,6.21,34.17,17c3.38,4.08,7.39,7.68,11.37,11.22c2.79,2.48,6.19,4.47,10.01,2.52
		c3.56-1.81,3.19-5.5,3.13-8.85c-0.14-8.12-2.1-15.74-5.68-23.07c-3.03-6.19-2.8-6.3,3.52-9.55c9.78-5.04,20.03-8.99,30.25-13.03
		c3.88-1.54,8.57-2.48,8.6-8.29c0.01-2.59,2.05-3.11,4.22-3.08c3.04,0.04,6,0.58,8.7,1.97c16.54,8.46,34.14,15.55,45.99,30.78
		C1843.01,2149.69,1855.31,2171.16,1854.3,2187.59z M1713.81,2276.07c0.74,8.48,6.84,16.94,12.26,25.67
		c1.62,2.6,3.99,4.73,7.48,3.68c4.08-1.23,4.77-4.89,3.95-8.11c-1.88-7.44-0.25-14.42,1.18-21.63c1.67-8.44-3.99-15.72-11.95-16.21
		C1719.07,2258.99,1713.71,2264.92,1713.81,2276.07z M1687.33,2232.75c0.34,0,0.69,0,1.03,0c0-4.3,0.17-8.61-0.04-12.9
		c-0.36-7.32-5.18-12.24-11.64-12.21c-6.72,0.03-13.28,6.08-12.08,12.94c1.87,10.67,4.4,21.42,12.08,29.91
		c1.88,2.08,3.98,3.55,6.95,2.59c2.62-0.85,3.46-3.28,3.6-5.48C1687.55,2242.67,1687.33,2237.7,1687.33,2232.75z M1811.49,2169.9
		c0.12,0,0.24,0,0.36,0c0-4.62,0.25-9.27-0.07-13.87c-0.36-5.34-4.71-9.77-9.27-10.03c-5.2-0.3-9.69,3.95-10.32,9.95
		c-0.17,1.62-0.02,3.31,0.21,4.94c1.36,9.62,6.49,17.92,9.61,26.94c0.77,2.23,2.96,3.63,5.62,3.03c2.62-0.6,3.8-2.55,3.84-5.1
		C1811.55,2180.47,1811.49,2175.18,1811.49,2169.9z M1759.25,2211.17c-0.09-7.36-5.31-12.34-12.09-11.79
		c-7.61,0.62-11.76,8.18-8.19,16.66c2.95,7,6.32,13.85,9.14,20.93c1.03,2.59,2.82,4.82,5.98,4.04c3.07-0.76,3.65-3.64,3.79-6.31
		C1758.3,2226.76,1757.48,2218.76,1759.25,2211.17z M1807.93,2257.94c0-1.66,0-3.32,0-4.99c-0.01-1.99,0.23-4.03-0.08-5.97
		c-0.69-4.34-5.06-8.66-8.78-8.1c-3.93,0.59-8.23,1.86-8.57,6.87c-0.72,10.57,2.67,20.35,7.48,29.45c2.17,4.11,6.42,3.09,8.15-1.47
		C1808.05,2268.64,1807.63,2263.25,1807.93,2257.94z"/>
	<path class="st2" d="M1748.35,2509.58c0.03,0.69-0.12,1.33-0.46,1.93c-8.7,0.78-8.46,0.82-9.84,8.84
		c-4.82,27.91-6.82,55.98-6.04,84.29c0.31,11.14-0.66,11.8-11.78,14.8c-17.94,4.84-35.95,9.93-54.44,11.41
		c-24.09,1.93-48.18,4.36-72.56,1.25c-15.45-1.97-30.93-3.79-46.16-6.9c-11.64-2.38-23.06-6.07-34.34-9.91
		c-13.18-4.48-26.2-9.47-38.68-15.78c-4.91-2.48-6.54-4.99-5-10.93c2.43-9.37,1.61-19.27,0.39-28.8
		c-0.67-5.29-1.33-10.52-1.29-15.83c0.09-13.64-1.63-27.14-3.3-40.63c-0.49-3.93,0.12-5.78,4.16-5.8c3.67-0.02,7.49-0.66,10.97,0.17
		c10.55,2.52,21.22,1.2,31.82,1.75c22.25,1.15,44.58,1.16,66.76,2.54c17.97,1.12,35.94,0.24,53.81,1.68
		c17.94,1.45,35.97,0.57,53.78,2.19c17.98,1.63,35.89,1.03,53.82,1.68C1742.87,2507.64,1746.07,2506.8,1748.35,2509.58z"/>
	<path class="st2" d="M1423.95,2465.52c-4.66,0-9.33-0.12-13.99,0.04c-4.27,0.14-5.57-1.85-6.03-5.95
		c-1.11-9.92-2.16-19.81-1.86-29.8c0.11-3.71-0.86-7.22-1.48-10.83c-1.03-5.95,0.1-7.33,5.87-7.42c4.63-0.08,9.32-0.52,13.9,0.86
		c1.57,0.47,3.27,0.85,4.9,0.78c20.66-0.89,41.19,1.66,61.76,2.67c18.19,0.89,36.54,0.21,54.61,3.31c0.65,0.11,1.33,0.12,1.99,0.1
		c19.32-0.69,38.57,1.46,57.76,2.72c17.2,1.13,34.58-0.2,51.64,3.08c0.65,0.12,1.33,0.18,1.99,0.15c16.33-0.85,32.5,2.5,48.78,2.07
		c20.99-0.55,41.8,3.11,62.79,2.39c3.91-0.13,7.85,1.24,11.8,1.66c7.6,0.81,8.81,1.91,7.57,9.02c-2,11.44-3.2,22.95-3.78,34.54
		c-0.4,7.9-1.94,8.98-10.03,7.56c-2.28-0.4-4.61-0.94-6.89-0.83c-19.33,0.86-38.54-1.59-57.79-2.48
		c-28.52-1.32-57.04-2.72-85.57-4.08c-25.52-1.22-51.03-2.69-76.55-3.95c-31.52-1.56-63.02-3.34-94.58-3.99
		C1441.85,2466.94,1432.94,2465.15,1423.95,2465.52z"/>
	<path class="st3" d="M1356.25,2261.09c-0.7,1.93-2.13,2.58-4.08,2.31c0.25-21.2,3.29-41.53,15.67-59.69
		c16.23-23.79,38.21-39.55,65.54-47.65c23.39-6.93,47.22-7.48,70.73-0.57c26.58,7.81,46.48,23.84,56.95,50.06
		c4.3,10.78,6.04,22.14,4.62,35.17c-27.61-45.37-68.7-62.93-118.61-58.56c-37.57,3.28-72.71,23.31-79.5,40.79
		c4.76,0.88,7.47-2.79,10.44-4.85c12.69-8.79,26.2-15.99,41.07-19.97c42.42-11.35,81.68-5.51,115.84,23.57
		c5.97,5.08,10.38,12.02,15.42,18.18c1.47,1.79,2.22,4.36,3.97,5.69c8.7,6.62,5.69,13.98,1.93,21.63
		c-3.52,7.16-6.87,14.41-10.17,21.67c-0.79,1.74-1.98,2.54-3.7,2.87c-2.67-1.82-3.31-5.52-6.41-6.96c0.98-4.83-1.45-8.14-4.7-11.33
		c-9.72-9.51-21.77-15.07-34.11-19.93c-34.78-13.69-71-18.23-108.16-16.01c-8.31,0.5-16.31,2.71-23.81,6.4
		C1356.12,2248.36,1354.94,2250.77,1356.25,2261.09z"/>
	<path class="st3" d="M1631.77,2261.26c-15.31,0.33-28.01,5.89-40.5,12.17c-1.6,0.81-3.03,1.57-2.62,3.57
		c0.41,1.96,2.11,2.29,3.83,2.48c5.22,0.57,9.78-1.61,14.35-3.56c4.6-1.96,9.16-3.97,14.21-4.42c16.87-1.52,18.92-0.52,31.84,16.02
		c13,16.65,28.57,30.64,45.68,42.8c11.9,8.45,23.98,16.76,37.25,23.14c6.84,3.29,12.75,8.11,17.66,15.75c-5.4,0-10,0.7-14.32-0.11
		c-30.09-5.7-59.37-13.95-87.43-26.62c-19.83-8.96-38.21-20.01-55.58-32.97c-6.46-4.82-11.56-11.01-17.35-16.49
		c-2.78-2.63-2.84-5.62-1.92-9.15c1.39-5.38,2.31-10.88,3.6-17.16c-4.59,0.82-5.16,4.12-5.92,6.49
		c-8.5,26.53-17.67,52.84-20.81,80.83c-1.2,10.65-2.49,21.03,0.02,31.58c0.85,3.58-0.38,5.53-4.43,5.95
		c-9.49,0.96-10.75-0.32-11.31-9.77c-1.25-20.92,3.34-41.09,8.89-60.83c7.29-25.94,16.27-51.41,32.11-73.75
		c1.93-2.73,3.24-5.69,3.21-9.26c-0.23-24.54,10.33-45.72,21.4-66.59c5.28-9.95,12.14-19.06,17.8-28.83
		c4.42-7.63,10.28-10.92,19.34-8.5c-0.32,3.76-3.55,5.41-5.84,7.45c-16.27,14.5-22.99,33.04-22.61,54.3
		c0.13,7.16-2.05,12.22-6.76,17.73c-9.59,11.22-15.35,24.85-19.13,39.08c-0.94,3.54-1.41,7.01-3.58,10.09
		c-0.75,1.07-0.74,2.74,0.5,3.6c1.22,0.85,2.56,0.21,3.56-0.74c4.82-4.58,9.52-9.29,15.05-13.06c0.27-0.19,0.47-0.48,0.73-0.68
		C1621.66,2237.6,1623.5,2241.2,1631.77,2261.26z"/>
	<path class="st3" d="M1841.75,2089.05c-8.75,4.63-17.45,7.63-26.32,10.09c-4.73,1.31-9.17-0.17-13.22-2.91
		c-11.64-7.87-24.38-11.5-38.55-10.94c-10.94,0.43-21.87,0.07-32.63,2.74c-4.24,1.05-5.77-0.52-4.55-4.36
		c1.4-4.41,3.35-8.65,5.15-12.93c0.83-1.96,2.37-3.03,4.56-3.39c2.61-0.43,5.14-1.49,7.75-1.74c34.1-3.26,66.01,3.7,95.7,20.78
		C1840.16,2086.68,1840.45,2087.38,1841.75,2089.05z"/>
	<path class="st3" d="M1716.15,2139.42c-11.04-11.05-26.18-13.8-39.88-19.3c-4.76-1.91-10.56-1.24-15.76,0.2
		c-6.23,1.73-12.44,0.63-18.73,1.17c0.23-3.62,2.38-3.76,4.34-3.96c19.77-2.02,35.73-9.97,48.05-26.47
		c8.49-11.37,18.89-21.33,26.06-33.79c1-1.73,2.24-3.87,4.53-2.7c2.11,1.08,1.55,3.54,0.94,5.37c-2.43,7.24-5.05,14.42-7.6,21.62
		c-1.55,4.38-3.01,8.8-4.68,13.13c-1.02,2.65-1.66,5.11,0.84,7.27c2.11,1.83,4.3,1.16,6.52,0.19c8.18-3.57,16.73-2.87,27.74-2.44
		c-11.25,6.03-20.79,10.16-30.7,13.48c-1.25,0.42-2.7,0.26-3.91,0.74c-5.33,2.13-6.62,5.83-3.83,11.14
		c2.43,4.63,6.77,8.42,6.07,14.37L1716.15,2139.42z"/>
	<path class="st1" d="M1596.49,2245.53c4.32-9.92,9.92-18.79,16.47-26.79c3.3,0.4,2.78,2.86,3.3,4.57
		c2.75,9.13,4.14,9.19-5.62,13.12C1605.34,2238.56,1601.31,2242.58,1596.49,2245.53z"/>
	<path class="st3" d="M1680.25,2089.54c-2.03,7.95-8.53,9.38-17.08,11.88c5.21-7.28,10.52-10.45,16.92-12.07L1680.25,2089.54z"/>
	<path class="st3" d="M1680.09,2089.35c0.47-0.93,1.89-1.92,2.14-1.4c1.11,2.36-1.22,1.11-1.98,1.58
		C1680.25,2089.54,1680.09,2089.35,1680.09,2089.35z"/>
	<path class="st3" d="M1716.14,2139.43c0.29,0.15,0.84,0.36,0.83,0.43c-0.17,0.71-0.48,0.55-0.81-0.45
		C1716.15,2139.42,1716.14,2139.43,1716.14,2139.43z"/>
	<path class="st1" d="M915.58,635.98c-0.33-0.04-0.67-0.14-0.99-0.1c-17.68,2.3-33.02-4.57-48.7-11.44
		c-39.54-17.3-79.4-18.25-120.36-3.24c-59.67,21.86-97.96,64.39-122.33,121.34c-3.79,8.86-7.45,17.79-9.4,27.35
		c-2.28-0.41-2.22-2.31-2.61-3.6c-9.79-31.76-31.35-52.3-62.19-62.63c-52.98-17.75-120.03-1.29-154.06,55.25
		c-9.81,16.29-14.74,34.12-13.04,53.4c0.12,1.33,0.16,2.67,0.41,3.97c0.42,2.28,0.83,5.08,3.93,4.61c2.47-0.38,2-3.03,2.24-4.93
		c0.08-0.66,0.04-1.33,0.06-2c1.03,0,2.06,0,3.08,0c2.26,5.48,5.99,4.89,9.3,1.56c5.31-5.33,12.05-6.8,18.93-8.13
		c19.99-3.87,39.83-1.39,59.55,1.98c30.06,5.13,59.09,13.25,84.73,30.7c2.68,1.82,5.53,4.01,9.16,2.05
		c2.48,2.12,4.12,4.85,5.61,7.69c0.37,6.49-1.94,12.43-3.79,18.48c-5.78,18.83-10.14,37.94-11.21,57.7
		c-0.52,9.63,0.19,19.18,2.01,29.16c-10.42,1.01-20.34,0.1-30.24-0.38c-35.27-1.73-70.54-3.5-105.81-5.33
		c-10.31-0.53-20.61-1.35-30.92-1.92c-2.98-0.16-6.06-0.32-8.97,0.22c-9.51,1.75-14.95,11.87-9.57,19.66
		c3.49,5.05,2.34,8.8,1.31,13.69c-4.07,19.24-6.67,38.73-8.22,58.31c-0.76,9.56,3.75,14.63,13.5,16.63
		c11.16,2.28,22.6,1.24,33.84,2.76c3.95,0.54,7.99,0.42,11.97,0.77c3.92,0.34,8.85-1.09,11.4,2.05c2.29,2.82-1.07,6.76-1.39,10.31
		c-1.73,18.91-3.45,37.82-3.77,56.83c-0.08,4.61,0.86,9.32-0.95,14.06c-4.57,0.64-7.28-2.84-10.36-4.97
		c-50.28-34.77-87.79-80.3-113.03-135.84c-24.62-54.19-36.01-111.6-29.85-170.47c16.34-156.33,97.53-265.6,244.73-322.86
		c63.61-24.74,129.92-27.23,196.73-13.05c6.21,1.32,11.87,2.86,15.85,8.97c3.56,5.47,10.43,6.85,16.4,8.94
		c26.25,9.2,50.85,21.7,73.85,37.3c31.15,21.13,58.15,46.68,80.57,76.97c1.57,2.13,3.33,4.19,3.86,6.91
		C916.42,635.14,916,635.56,915.58,635.98z"/>
	<path class="st1" d="M748.49,1073.46c10.97-1.33,21.94,0.19,32.92-0.05c14.7-0.32,18.98-3.87,21.01-18.17
		c3.1-21.75,6.66-43.42,8.51-65.34c1.25-14.83-3.39-20.91-18.56-22.03c-12.62-0.93-25.27-1.42-37.91-2.06
		c-43.9-2.23-87.8-4.42-131.7-6.66c-18.01-0.92-23.72-6.66-24.68-24.99c-0.3-5.65-0.35-11.35,0.05-16.98
		c1.14-15.75,5.5-44.87,12.6-60.98c3.87,4.24,7.44,8.41,11.26,12.32c20.86,21.33,46.36,35.68,73.19,47.77
		c31.47,14.18,64.28,23.59,98.9,26.23c19.41,1.48,37.73-2.22,55.31-10.14c5.46-2.45,7.8-10.13,4.9-15.32
		c-1.67-2.99-4.25-4.15-7.57-2.71c-0.89,0.39-1.69,1.06-2.42,1.71c-2.67,2.37-4.66,6.12-8.98,5.45c-4.77-0.74-8.76-3.37-11.87-6.92
		c-8.21-9.34-15.03-19.47-17.71-31.94c-4.44-20.63-12.05-39.96-21.91-58.7c-11.35-21.58-29.47-32.56-52.06-38.35
		c-27.88-7.14-54.82-4.01-81.08,6.91c-4.87,2.03-9.39,4.91-14.07,7.39c-0.42-0.43-0.85-0.86-1.28-1.28
		c9.77-23.38,27.2-36.59,52.11-41.45c19.15-3.73,38.33-4.17,57.62-3.93c28.7,0.36,54.46-7.44,76.73-26
		c4.84-4.03,10.27-7.36,15.44-11c15.42-10.85,29.08-23.67,38.62-39.91c7.9-13.44,18.35-22.49,33.38-26.2
		c6.61-1.63,9.56-5.5,8.52-12.29c0,0,0.66-0.69,0.66-0.69c3.36,1.47,4.39,4.89,6.1,7.63c40.81,65.36,58.51,136.73,53.17,213.38
		c-9.08,130.44-91.05,248.96-209.56,304.67c-2.31,1.09-4.47,3.08-7.5,2.1c-2.12-2.57-1.21-5.67-1.22-8.53
		c-0.16-24.69-1.36-49.23-9.44-72.9c-0.85-2.48-1.12-5.16-1.66-7.75C748.37,1075,748.43,1074.23,748.49,1073.46z"/>
	<path class="st3" d="M816.14,925.43c-5.35,0.72-9.43-1.8-13.77-4.6c-16.08-10.36-25.25-26.44-34.28-42.2
		c-12.79-22.34-29.72-39.8-52.65-51.45c-9.31-4.73-19.06-7.85-29.61-7.7c-11.61,0.16-23.24-0.73-34.8,1.85
		c-9.29,2.08-16.79,7.89-25.47,11.21c-2.08,0.79-1.32,3.77,1,4.51c3.22,1.02,6.73,0.97,9.75-0.7c14.42-7.99,30.11-7.18,45.76-6.97
		c8.13,0.11,15.71,1.97,23.06,5.46c22.69,10.77,40.04,27.12,52.17,49.08c8.08,14.63,17.55,28.23,29.84,39.71
		c0.67,0.63,1.04,1.58,1.94,3c-8.67,2.75-16.73-0.22-24.45-1.68c-29.51-5.55-58.06-14.71-84.94-28.04
		c-22.94-11.37-45.08-24.35-62.79-43.57c-3.77-4.1-5.1-7.56-3.67-13.28c1.19-4.76,3.75-9.79,2.1-15.87
		c-3.55,2.45-4.37,5.65-5.36,8.76c-4.91,15.53-10.48,30.89-14.55,46.63c-3.31,12.79-5.47,25.97-6.99,39.11
		c-1.46,12.6-0.27,25.24,4.63,36.37c-1.16,2.45-2.54,2.32-3.81,2.34c-12.91,0.22-14.76-1.8-15.19-14.86
		c-1.12-33.94,8.28-65.68,20.03-96.92c5.4-14.36,12.12-28.11,21.05-40.68c1.73-2.44,3.08-5.11,3.04-8.3
		c-0.3-23.81,9.03-44.81,20.12-64.97c7.51-13.65,15.56-27.07,25.24-39.45c6.61-8.46,14.17-15.96,22.07-23.04
		c12.63-11.31,25.79-22,41.84-28.44c16.66-6.69,33.1-14.82,51-16.65c21.84-2.24,43.96-2.03,64.97,6.18
		c9.59,3.75,19.52,6.76,28.44,12.1c1.94,1.16,4.48,1.58,5.43,4.76c-11.96,6.58-24.81,10.91-38.35,12.14
		c-19.62,1.78-38.62,6.25-57.44,11.62c-12.12,3.45-24.46,5.99-36.37,10.34c-13.86,5.06-26.87,11.79-39.62,18.89
		c-13.59,7.57-23.42,19.48-31.82,32.48c-1.25,1.94-1.8,4.33-4.94,5.66c3.54,1.8,5.83,1.42,7.96-0.41c1.01-0.87,2-1.78,2.85-2.8
		c26.14-30.92,61.53-43.81,99.65-52.03c15.54-3.35,30.93-7.47,46.55-10.58c7.2-1.43,14.49-0.98,21.74-2.43
		c5.74-1.15,11.34-3.35,18.19-3.84c-2,5.92-5.82,9.91-9.29,13.97c-16.41,19.21-37.21,33.23-58.04,46.85
		c-15.2,9.94-33.03,14.15-51.27,14.26c-20.99,0.13-41.66,1.5-62.32,5.85c-24.54,5.17-42.39,17.88-53.59,40.31
		c-5.48,10.98-8.12,22.93-12.61,34.24c-0.28,0.7,0.18,2.18,0.79,2.62c1.19,0.86,2.51,0.18,3.56-0.73c5.51-4.8,10.96-9.68,16.54-14.4
		c2.01-1.7,4.15-3.47,6.53-4.5c22.72-9.87,46.24-13.99,70.99-10.03c7.25,1.16,14.33,2.69,21.26,5.06
		c14.65,5,26.16,13.42,33.98,27.36c9.01,16.07,16.68,32.49,20.35,50.62c2.88,14.23,8.88,27.06,17.49,38.73
		C812.22,919.27,814.13,922.39,816.14,925.43L816.14,925.43z"/>
	<path class="st2" d="M748.49,1073.46c-0.06,0.77-0.13,1.53-0.19,2.3c-13.46-0.79-14.27,0.27-16.11,14.4
		c-3.36,25.76-5.03,51.56-4.23,77.54c0.34,11.1,0.02,10.97-10.73,14.3c-20.66,6.39-41.79,10.91-63.22,13
		c-19.75,1.93-39.55,3.09-59.63,0.93c-18.49-1.99-37.02-3.77-55.02-8.11c-25.21-6.07-49.36-15.57-72.88-26.56
		c-3.44-1.6-4.22-3.5-2.8-7.06c4.63-11.58,2.46-23.65,1.55-35.47c-0.35-4.58-1.17-9.21-1.07-13.84c0.26-12.34-1.36-24.48-3.43-36.6
		c-0.94-5.52-0.2-6.92,5.29-6.74c9.61,0.32,19.33-1.32,28.81,1.53c0.93,0.28,1.99,0.27,2.98,0.22c22.32-1,44.5,2.18,66.78,2.16
		c25.95-0.01,51.87,1.71,77.78,2.63c17.6,0.63,35.29,0.08,52.81,1.66c16.28,1.46,32.53,1.55,48.82,1.84
		C745.75,1071.66,747.27,1072.19,748.49,1073.46z"/>
	<path class="st2" d="M759.68,1045.46c-20.32-4.51-41.19,0.03-61.58-3.76c-3.87-0.72-7.97-0.22-11.97-0.23
		c-19.94-0.05-39.78-1.53-59.57-3.79c-0.66-0.08-1.33-0.11-2-0.08c-21.65,1.07-43.2-1.48-64.73-2.66
		c-18.51-1.01-37.21,0.03-55.59-3.29c-0.97-0.18-1.99-0.11-2.99-0.09c-30.27,0.55-60.45-3.3-90.74-2.11
		c-1.66,0.07-3.33-0.1-4.99-0.06c-3.75,0.08-5.19-1.82-5.52-5.46c-0.84-9.25-2.33-18.45-1.84-27.79c0.25-4.7-0.73-9.21-1.65-13.79
		c-1.04-5.22,0.23-6.72,5.56-6.74c6.96-0.02,13.98-0.82,20.87,1.02c1.59,0.42,3.3,0.71,4.93,0.63c19.98-0.95,39.83,1.66,59.71,2.67
		c18.85,0.95,37.79,0.61,56.61,3.19c11.12,1.52,22.55,1.56,33.73,1.83c19.61,0.47,39.22,1.55,58.72,2.94
		c19.85,1.41,39.86,0.06,59.58,3.39c0.65,0.11,1.33,0.1,1.99,0.07c20.98-0.96,41.79,3.03,62.75,2.11
		c5.77-0.25,11.09,2.11,16.78,2.01c3.47-0.06,4.83,2.26,4.32,5.29c-2.18,13.09-3.53,26.26-4.25,39.51
		c-0.19,3.62-2.71,5.14-6.14,5.19C767.67,1045.5,763.68,1045.46,759.68,1045.46z"/>
	<path class="st3" d="M391.61,813.96c-1.03,0-2.06,0-3.08,0c-0.07-24.27,7.82-45.67,23.96-63.73c19.76-22.1,44.53-36.38,73.79-40.15
		c32.5-4.18,63.92-0.03,89.94,22.82c12.07,10.6,19.71,24.2,23.67,39.66c2.05,8.01,3.09,16.32,1.76,26.09
		c-27.91-45.68-69.65-63.28-120.15-58.46c-30.31,2.89-58.34,14.51-78.97,39.62c4.05,2.66,5.83-0.03,7.87-1.42
		c14.06-9.66,28.75-18.25,45.35-22.52c36.65-9.42,71.78-7.05,103.87,15.25c11.57,8.04,21.18,17.93,28.58,30
		c1.72,2.8,3.87,5.47,6.31,7.66c2.73,2.45,2.93,4.96,1.57,7.96c-4.67,10.26-9.32,20.53-14.12,30.73c-0.48,1.03-2.01,1.57-3.05,2.33
		c-1.49-2.84-3.13-5.57-5.6-7.68c-0.79-5.67-4.46-9.51-8.52-12.98c-9.46-8.08-20.57-13.3-32.03-17.76
		c-34.53-13.47-70.41-18.05-107.25-15.9c-9.01,0.53-17.55,3.06-25.68,7.08C394.97,804.95,391.79,808.32,391.61,813.96z"/>
	<path class="st3" d="M816.15,925.43c0.28,0.15,0.82,0.37,0.8,0.44C816.78,926.56,816.47,926.4,816.15,925.43L816.15,925.43z"/>
	<path class="st1" d="M916.83,634.71c1.04,0.49,1.61,1.28,1.59,2.46c0,0-0.66,0.68-0.66,0.68c-1.18-0.11-1.82-0.82-2.18-1.88
		C916,635.56,916.42,635.14,916.83,634.71z"/>
	<path class="st1" d="M636.61,799.91c-0.43,0.78-1.06,1.68-1.92,0.88c-0.8-0.75-0.05-1.56,0.65-2.15
		C635.77,799.05,636.19,799.47,636.61,799.91z"/>
	<path class="st1" d="M1680.26,1649.87c10.66-0.41,21.32-0.37,31.96,0.33c0.66,0.04,1.32,0.16,1.99,0.2
		c18.66,1.11,23.66-3.22,25.82-21.93c2.06-17.84,5.76-35.47,6.96-53.43c0.24-3.65,0.83-7.28,0.98-10.92
		c0.46-11.13-4.1-16.81-15.35-18.02c-9.92-1.07-19.92-1.38-29.9-1.91c-6.65-0.35-13.32-0.52-19.98-0.73
		c-8.4-0.26-8.71-0.27-7.86-8.23c2.28-21.34-3.1-40.94-12.74-59.7c-3.54-6.88-7.84-13.09-13.57-18.39
		c-4.57-4.23-8.71-8.93-12.81-15.49c24.58-0.68,47.8-2.1,65.97,17c2.51,2.64,5.3,5.17,8.37,7.11
		c27.89,17.71,42.15,45.45,54.84,74.32c2.04,4.65,3.96,9.13,8.54,11.86c3.18-0.82,3.77-3.65,4.54-6.08
		c11.19-35.3,18.13-70.96,9.87-108.08c-2.14-9.62-5.6-18.7-11.56-26.33c-20.03-25.6-42.43-48.69-71.28-64.69
		c-8.38-4.64-17.1-7.19-26.67-7.27c-13.32-0.12-26.65-1.09-39.91-1.27c-26.56-0.36-48.21,11.42-64.8,31.97
		c-3.27,4.05-5.78,4.91-10.72,3.69c-30.3-7.48-57.46-0.44-81.36,19.17c-28.51,23.39-51.15,51.48-65.81,85.53
		c-5.84,13.58-9.05,27.78-7.8,42.82c0.66,7.97,0.25,7.84-7.34,7.41c-21.61-1.24-43.22-2.35-64.84-3.48c-1.99-0.1-4.01-0.16-6,0.01
		c-12.13,1.05-17.3,11.01-11.08,21.38c1.31,2.18,3.67,3.62,2.15,6.97c-4.63,10.19-4.51,21.41-6.34,32.2
		c-1.45,8.52-2.34,17.14-3.45,25.72c-1.87,14.34,3.19,20.86,17.36,22c17.9,1.44,35.82,2.69,54.15,4.05
		c-5.23,27.7-5.91,55.39-6.12,83.54c-4.94-0.19-7.67-2.83-10.51-4.82c-68.39-47.7-112.63-112.23-133.87-192.69
		c-8.12-30.75-11.78-62.1-11.67-93.86c0.11-32.53,6.16-64.18,14.76-95.41c14.93-54.22,40.45-102.86,78.11-144.65
		c55.42-61.48,123.16-102.25,204.87-118.27c48.98-9.6,97.99-9.23,146.81,1.74c5.56,1.25,10.62,2.55,14.12,7.99
		c3.15,4.89,8.89,6.68,14.32,8.58c40.75,14.21,77.39,35.5,109.83,63.99c48.96,43.01,81.01,96.51,99.08,158.85
		c10.77,37.16,15.45,75.13,13.44,113.59c-4.08,77.76-30.23,147.62-78.47,208.9c-35.17,44.68-78.31,79.63-129.5,104.53
		c-1.2,0.58-2.36,1.24-3.58,1.78c-7.35,3.21-7.99,2.95-7.95-4.89c0.09-18.68-0.8-37.29-4.18-55.67
		c-1.85-10.04-3.07-20.58-11.78-27.81C1680.29,1652,1680.27,1650.94,1680.26,1649.87z"/>
	<path class="st3" d="M1596.3,1461.37c10.32,17.25,15.88,35.24,12.14,55.85c-5.04,27.81-13,54.36-29.93,77.32
		c-11.68,15.84-21.55,32.77-31.42,49.68c-7.67,13.15-8,27.93-6.66,42.69c0.19,2.12,0.94,4.6,3.96,5.59
		c4.59-4.55,4.45-11.04,4.88-16.46c1.62-20.5,12.26-36.89,22.28-53.77c6.47-10.9,15.57-19.8,21.94-30.8
		c10.63-18.37,17.47-37.92,20.6-58.83c0.73-4.91,0.96-9.96,2.24-14.72c4.19-15.53-0.86-29.6-6.74-43.39
		c-5.99-14.05-12.14-27.91-15.93-42.85c-5.17-20.41-31.21-34.94-51.63-30.7c-14.48,3.01-25.95,11.75-38.53,18.34
		c-23.77,12.44-39.73,32.97-54.21,54.64c-7.69,11.5-11.64,24.57-11.3,38.68c0.14,5.6,0.02,11.21,0.02,16.35
		c-2.6,1.74-4.56,0.57-6.46,0.57c-14.05-0.06-13.61,1.88-13.4-13.47c0.24-17.19,6.99-32.37,15.44-46.82
		c8.9-15.22,18.57-30.08,31.13-42.52c13.44-13.31,27.31-26.36,44.56-34.85c8.41-4.14,17.39-6.53,26.9-6.44
		c6.33,0.06,12.67-0.23,18.99,0.04c8.43,0.37,15.41-2.42,21.98-7.7c9.3-7.47,18.83-14.58,29.67-20.02c12.17-6.1,24.85-7.9,37.8-5.92
		c8.65,1.32,17.24,1.96,25.81,1.45c16.83-1.01,30.37,6.14,42.66,16.24c3.34,2.74,8.92,3.98,9.11,9.83l-0.12,0.12
		c-4.84,0.14-9.25-1.65-13.28-3.87c-14.65-8.04-30.46-9.07-46.56-8.02c-20.97,1.36-40.43,7.41-57.77,19.62
		c-4.04,2.84-8.01,5.66-9.77,10.52c3.63,2.97,6.06,0.19,8.54-0.98c7.2-3.41,14.29-7.05,21.41-10.62c8.46-4.24,17.57-6.25,26.89-6.64
		c10.98-0.46,21.99-0.11,32.99-0.17c3.39-0.02,6.52,0.72,9.67,2.02c11.68,4.82,23.49,9.31,35.16,14.14
		c23.18,9.6,37.73,26.49,42.61,51.3c3.7,18.82,2.8,37.67-0.17,56.49c-0.22,1.39-1.02,2.4-3.15,3.39
		c-4.25-5.96-8.93-11.88-12.91-18.25c-7.32-11.73-15.94-22-27.95-29.27c-7.1-4.3-13.56-9.53-19.96-14.87
		c-12.94-10.78-28.05-16.35-44.89-16.79c-9.33-0.24-18.67,0.17-28-0.02c-7.27-0.15-13.62,2.38-19.99,5.44
		c-4.16,2-4.64,4.52-1.96,7.76c2.76,3.33,6.16,6.14,8.77,9.57c7.45,9.76,15.56,19.18,21.73,29.72c10.35,17.66,16.4,36.05,13.61,57.8
		c-2.93,22.83-10.76,43.06-22.32,62.25c-9.78,16.22-19.25,32.58-27.52,49.64c-7.06,14.56-18.24,26.16-28.73,38.1
		c-8.76,9.98-17.02,20.49-27.06,29.33c-7.23,6.37-14.36,12.85-22.27,18.4c-2.16,1.52-4.26,3.18-7.93,3.33
		c-0.99-5.58-1.69-11.35-3.08-16.94c-5.86-23.59-4.31-47.59-4.02-71.48c0.14-11.64,2.62-23.14,6.74-34.04
		c8.47-22.38,15.38-45.37,26.71-66.64c4.69-8.8,9.58-17.47,14.98-25.81c10.11-15.63,20.35-31.18,30.94-46.48
		c3.05-4.4,2.55-7.11-1.53-9.84C1593.46,1465.5,1594.88,1463.44,1596.3,1461.37z"/>
	<path class="st2" d="M1680.26,1649.87c0.01,1.07,0.03,2.14,0.04,3.2c-7.8,1.18-9.16,2.49-10.01,10.51
		c-2.63,24.76-5.66,49.51-4.36,74.51c0.21,3.99-0.23,8.02,0.1,11.99c0.39,4.79-1.48,7.24-6.16,8.51
		c-19.15,5.23-38.28,10.28-58.05,12.99c-25.89,3.55-51.9,2.73-77.72,1.46c-29.2-1.43-57.72-8.06-85.02-19.12
		c-11.4-4.62-22.82-9.15-33.81-14.71c-4.34-2.19-5.88-4.48-3.67-9.38c2.79-6.18,3.35-12.78,1.25-19.49
		c-0.68-2.17-0.63-4.6-0.67-6.92c-0.32-19.9-0.75-39.78-5.36-59.31c-1.07-4.53,1.52-7.12,6.3-5.86c6.62,1.74,13.26,1.23,19.86,1.14
		c22.96-0.32,45.78,3.16,68.76,2.29c7.41-0.28,8.15,1.05,8.24,9.09c0.1,9.97-2.2,19.74-2.02,29.79c0.16,9.35,0.61,18.65,2.44,27.72
		c2.83,14.02,2.48,28.39,5.4,42.37c1.18,5.66-2.24,10.1-5.6,14.34c7.41,3.27,9.71,3.57,12.97-1.94
		c4.48-7.58,11.08-11.02,18.82-13.56c5.83-1.92,10.39-6.15,14.79-10.01c14.97-13.13,29.82-26.35,42.78-41.71
		c12.19-14.45,25.19-28.15,34.26-44.93c2.32-4.3,5.86-5.37,10.68-5.5C1649.84,1646.95,1665.01,1649.01,1680.26,1649.87z"/>
	<path class="st1" d="M1596.3,1461.37c-1.42,2.06-2.84,4.12-4.27,6.19c-10.02,8.94-17.15,20.25-24.89,31
		c-7.57,10.52-14.57,21.46-21.52,32.4c-2.23,3.51-4.59,4.92-8.86,4.68c-28.21-1.56-56.43-2.95-84.66-4.12
		c-5.07-0.21-5.93-2.24-5.71-6.79c1.2-24.31,11.36-44.54,26.5-63.17c17.58-21.63,40.49-35.18,65.4-45.99
		c8.58-3.72,17.11-2.89,25.91,1.39c13.09,6.35,21.96,15.68,26.24,29.59C1592.02,1451.61,1594.33,1456.44,1596.3,1461.37z"/>
	<path class="st2" d="M1356.5,1553.35c19.83,1.56,39.77,1.29,59.54,3.83c0.66,0.08,1.33,0.1,1.99,0.07
		c21.29-0.89,42.42,2.35,63.7,2.5c12.56,0.09,25.11,1.98,37.76,1.93c5.79-0.02,7.96,3.22,5.93,8.56
		c-4.93,13.01-10.37,25.83-15.43,38.79c-1.54,3.95-4.54,4.57-8.02,4.3c-6.27-0.48-12.53-1.77-18.78-1.66
		c-22.28,0.4-44.49-1.62-66.66-2.84c-22.28-1.23-44.5-0.76-66.74-1.42c-2.33-0.07-4.66-0.02-6.99-0.06
		c-4.54-0.07-6.86-2.52-6.56-6.92c0.89-13.35-2.17-26.47-2.11-39.76c0.03-6.9,0.31-7.13,7.4-7.3
		C1346.52,1553.26,1351.51,1553.35,1356.5,1553.35z"/>
	<path class="st2" d="M1719.66,1578.97c-1.94,12.42-3.65,24.84-3.79,37.48c-0.07,6.74-2.51,7.77-9.5,7.44
		c-16.54-0.77-33-3.28-49.62-2.56c-2.32,0.1-4.66,0.1-6.97-0.07c-5.63-0.43-6.43-1.89-3.76-6.69c3.86-6.93,8.02-13.64,11.58-20.78
		c3.12-6.24,5.81-12.62,8.4-19.04c1.27-3.14,2.87-5.36,6.35-5.19c14.22,0.67,28.39,2.35,42.67,2.26
		C1719.28,1571.79,1720.26,1575.21,1719.66,1578.97z"/>
	<path class="st3" d="M1722.21,1379.37c0.28,0.3,0.55,0.6,0.83,0.89c-0.32-0.26-0.63-0.52-0.95-0.78
		C1722.1,1379.49,1722.21,1379.37,1722.21,1379.37z"/>
	<path class="st1" d="M601.65,2155.1c-29.92-1.56-59.84-3.07-89.75-4.69c-13.96-0.76-27.96-0.73-41.88-2.37
		c-4.73-0.56-9.31,0.4-13.12,3.65c-5.52,4.71-6.74,11.27-2.11,17.83c2.49,3.53,2.52,5.99,1.11,9.83c-3.6,9.75-3.76,20.23-5.43,30.39
		c-1.29,7.87-1.98,15.85-3.08,23.76c-2.19,15.8,2.89,22.32,18.96,23.54c13.94,1.06,27.91,1.79,41.87,2.59
		c3.65,0.21,7.3,0.14,10.36,1.98c-5.36,27.41-5.86,54.89-6.07,82.76c-4.97-0.05-7.61-2.87-10.45-4.85
		c-59.6-41.46-101.48-96.52-125.55-164.97c-10.76-30.6-17.27-62.16-18.88-94.66c-5.01-101.2,25.34-190.57,91.71-266.85
		c49.83-57.27,112.23-95.72,186.06-114.38c55.78-14.1,111.96-15,168.17-1.74c4.37,1.03,7.92,2.32,10.6,6.47
		c3.6,5.58,9.98,7.56,15.96,9.66c28.78,10.1,55.74,23.75,80.64,41.36c62.37,44.11,103.86,103.11,125.97,176.12
		c10.32,34.09,15.43,68.85,15.25,104.35c-0.25,48.53-9.78,95.21-29.18,139.8c-36.09,82.96-94.74,144.7-175.03,186.07
		c-3.54,1.83-7.25,3.35-10.93,4.88c-0.85,0.35-1.91,0.16-4.17,0.31c-0.28-8.59-0.76-17.03-0.77-25.47
		c-0.02-13.72-2.32-27.18-4.46-40.63c-1.1-6.89-3.48-13.51-7-19.67c-3.87-6.78-3.58-7.19,4.65-7.18c8,0.01,16,0.13,23.99,0.38
		c21.3,0.65,24.65-2.49,27.16-23.62c2.08-17.5,5.48-34.83,6.87-52.42c0.31-3.98,0.95-7.95,1.01-11.93
		c0.12-8.95-4.54-14.45-13.29-15.84c-3.94-0.63-7.93-1.09-11.91-1.3c-31.92-1.68-63.85-3.31-95.78-4.9
		c-41.24-2.06-82.48-4.05-123.71-6.11c-7.71-0.39-8.51-1.15-7.45-9.17c2.47-18.59,11.06-34.01,25.05-46.42
		c8.72-7.73,17.57-15.32,26.25-23.09c15.37-13.76,32.69-22.77,53.88-22.67c12,0.06,24-0.02,35.99,0.03
		c2.32,0.01,4.69,0.12,6.95,0.59c18.96,3.97,37.32,10.21,54.95,17.91c10.53,4.6,19.53,12.88,27.07,21.75
		c8.96,10.55,12.75,23.15,10.48,37.17c-0.27,1.64-0.58,3.34-0.43,4.97c0.22,2.42-1.14,6.07,2.5,6.6c2.88,0.41,4.52-2.42,5.61-4.93
		c5.54-12.7,7.21-26.17,2.57-39.03c-7.5-20.79-17.39-40.59-35.71-54.37c-13.84-10.41-29.09-18.71-44.12-27.25
		c-6.69-3.8-14.52-5.32-22.16-5.43c-10.38-0.16-20.57-1.8-30.82-2.89c-8.13-0.86-15.93-0.12-23.65,2.34
		c-22.58,7.18-44.63,15.58-65.05,27.83c-4.6,2.76-9.06,5.65-12.5,9.83c-16.56,20.12-31.67,41.08-42.25,65.19
		c-5.07,11.57-5.86,23.01-4.29,35.06C602.09,2152.52,601.87,2153.81,601.65,2155.1z"/>
	<path class="st2" d="M815.31,2274.55c-5.79,1.37-8.32,5.08-8.89,10.02c-1.56,13.5-2.81,27.03-4.38,40.53
		c-1.93,16.55-2.77,33.08-0.72,49.69c0.39,3.16-1.1,5.68-4.71,6.61c-17.98,4.66-35.74,9.95-54.3,12.34
		c-21.15,2.72-42.31,4.58-63.58,3.59c-30.22-1.42-60-5.29-88.86-15.38c-15.07-5.27-29.89-11.05-44.62-17.13
		c-10.04-4.14-10.32-4.61-6.59-14.45c1.36-3.59,1.96-7.28,0.93-10.76c-1.76-5.91-1.41-11.88-1.49-17.84
		c-0.22-15.95-1.63-31.79-3.69-47.59c-0.21-1.65-0.24-3.32-0.26-4.99c-0.1-7.04,0.25-7.6,7.02-7.64c5.29-0.03,10.6-0.43,15.89,1.03
		c3.13,0.86,6.6,0.79,9.9,0.71c26.64-0.64,53.2,1.81,79.78,2.75c17.93,0.63,35.93,0.18,53.8,1.62c23.93,1.93,47.91,0.96,71.8,2.29
		c11.94,0.67,23.86,1.42,35.82,1.6C810.44,2271.57,812.92,2271.2,815.31,2274.55z"/>
	<path class="st2" d="M470.05,2188.46c0-4.05-0.01-6.05,0-8.05c0.01-3.25,1.59-4.9,4.9-4.86c4.66,0.07,9.5-0.71,13.94,0.3
		c8.92,2.03,17.91,0.93,26.82,1.67c17.23,1.43,34.54,1.2,51.72,2.45c11.27,0.82,22.55,0.78,33.78,1.64
		c24.82,1.89,49.68,2.87,74.52,4.34c11.6,0.69,23.28,0.37,34.77,1.74c16.83,2,33.86,0.45,50.59,3.43c0.98,0.17,1.99,0.22,2.99,0.18
		c21.3-0.83,42.44,3.02,63.73,2.18c7.7-0.31,15.07,2.37,22.79,2.07c4.2-0.16,5.91,3.11,5.23,6.85c-2.09,11.42-3.06,22.94-4.11,34.48
		c-0.8,8.87-2.35,9.57-11.23,8.8c-1.32-0.12-2.66-0.15-3.99-0.09c-21.97,0.94-43.83-1.72-65.73-2.53c-26.84-1-53.69-2.48-80.51-3.99
		c-25.83-1.45-51.65-2.82-77.5-4.03c-31.17-1.45-62.33-3.04-93.53-4.04c-12.9-0.41-25.83-1.21-38.77-1.5
		c-6.65-0.15-8.03-1.24-8.17-7.33C471.99,2210.22,472.18,2198.25,470.05,2188.46z"/>
	<path class="st3" d="M601.65,2155.1c0.22-1.29,0.44-2.58,0.66-3.87c4.99-0.08,6.11-3.38,5.85-7.43
		c-0.55-8.68,3.05-16.05,6.49-23.69c9.5-21.1,23.5-39.17,37.37-57.39c7.54-9.91,18.29-15.44,29.04-20.39
		c15.32-7.05,31.03-13.33,47.29-18.17c9.51-2.83,18.73-3.33,28.42-1.59c7.79,1.4,15.74,2.38,23.64,2.66
		c7.55,0.26,14.73,1.71,20.81,5.87c13.68,9.37,28.93,16.3,41.75,26.91c4.49,3.72,9.89,6.93,11.24,13.39l-0.1,0.08
		c-8.54-3.49-16.12-8.95-25.04-11.76c-11.37-3.58-22.5-7.92-33.86-11.55c-6.3-2.02-12.82-3.07-19.58-2.92
		c-13.96,0.29-27.93,0.21-41.9,0.1c-14.37-0.12-27.32,3.76-39.35,11.82c-9.43,6.32-18.34,13.05-26.22,21.25
		c-5.05,5.25-10.85,9.8-16.11,14.79c-15.08,14.3-25.34,31.4-26,52.97c-0.28,9.28-0.25,9.34-9.45,9.32
		C611.61,2155.47,606.63,2155.24,601.65,2155.1z"/>
	<path class="st3" d="M854.19,2071.4c0.93,0.42,1.94,1.8,1.45,2.03c-2.31,1.08-1.12-1.17-1.54-1.95
		C854.09,2071.48,854.19,2071.4,854.19,2071.4z"/>
	<path class="st0" d="M1574.56,507.09c0.54,0.33,1.87,0.8,2.66,1.73c1.06,1.24,1.93,2.75,2.49,4.29
		c5.78,16.08,14.76,30.48,23.16,45.22c2.05,3.6,4.3,5.38,8.09,6.2c6.5,1.4,12.94,3.04,19.39,4.66c3.79,0.95,8.57,1.06,9.24,6.09
		c0.65,4.9-3.91,6.56-7.13,8.68c-6.94,4.57-13.95,9.06-21.12,13.26c-7.5,4.4-7.35,2.8-4.46,11.25c2.15,6.29,4.51,12.51,6.63,18.81
		c1.08,3.2,2.02,6.79-1.13,9.23c-3.53,2.74-6.89,0.89-9.96-1.46c-5.55-4.25-11.22-8.35-16.64-12.75c-2.92-2.37-5.02-2.28-7.52,0.58
		c-4.6,5.26-9.46,10.29-14.21,15.42c-1.62,1.75-3.32,3.44-5.99,2.6c-3.05-0.96-3.69-3.46-3.83-6.29c-0.5-9.97-1.24-19.94-1.5-29.91
		c-0.12-4.6-2.17-6.42-6.46-7.09c-7.88-1.24-15.7-2.85-23.54-4.31c-2.67-0.5-5.39-1.14-6.22-4.18c-0.86-3.14,1.41-4.94,3.52-6.57
		c10.03-7.71,19.86-15.7,30.27-22.86c4.6-3.17,6.45-6.9,7.61-12.03c2.77-12.32,6.43-24.41,11.27-36.11
		C1570.06,509.41,1570.82,507.09,1574.56,507.09z M1534.23,584.57c3.86,2.21,6.54,2.31,9.17,2.64c2.64,0.33,5.3,0.53,7.92,0.98
		c10.76,1.84,10.75,1.87,11.4,12.44c0.44,7.16,0.92,14.31,1.46,22.68c4.9-3.45,7.4-7.36,10.47-10.67c5.61-6.04,6.63-6.15,13.58-2.29
		c2.44,1.36,4.34,4,8.2,3.63c-0.26-1.8-0.34-3.43-0.74-4.98c-3.34-12.96-3.39-13.01,7.26-20.46c5.36-3.75,10.87-7.3,16.57-11.11
		c-3.4-3.24-7.03-4.04-10.4-4.84c-10.27-2.43-16.57-8.96-21.17-18.1c-4.54-9.02-9.65-17.74-13.43-29.84
		c-2.85,12.79-7.04,22.56-10.02,32.71c-1.51,5.14-4.1,8.83-8.46,11.77C1548.91,573.91,1542.01,579.03,1534.23,584.57z"/>
	<path class="st0" d="M1356.25,2261.09c-1.31-10.32-0.13-12.73,8.92-17.18c7.5-3.69,15.5-5.91,23.81-6.4
		c37.15-2.22,73.38,2.32,108.16,16.01c12.34,4.86,24.39,10.41,34.11,19.93c3.25,3.19,5.68,6.49,4.7,11.33
		c-3.31,0.59-5.76-1.33-8.19-2.98c-21.89-14.88-46.59-22.67-72.09-28.18c-18.25-3.94-36.73-6.53-55.5-5.99
		c-9.68,0.28-19.36,1.07-28.22,5.43c-3.83,1.89-7.17,4.74-10.89,6.88C1359.69,2260.71,1357.87,2260.72,1356.25,2261.09z"/>
	<path class="st0" d="M1713.81,2276.07c-0.1-11.15,5.26-17.08,12.92-16.61c7.96,0.5,13.62,7.77,11.95,16.21
		c-1.43,7.2-3.06,14.19-1.18,21.63c0.81,3.22,0.13,6.88-3.95,8.11c-3.48,1.05-5.86-1.08-7.48-3.68
		C1720.65,2293.01,1714.55,2284.55,1713.81,2276.07z"/>
	<path class="st0" d="M1687.33,2232.75c0,4.95,0.22,9.91-0.1,14.84c-0.14,2.2-0.98,4.63-3.6,5.48c-2.97,0.96-5.07-0.51-6.95-2.59
		c-7.67-8.49-10.2-19.24-12.08-29.91c-1.2-6.86,5.35-12.91,12.08-12.94c6.46-0.03,11.28,4.9,11.64,12.21
		c0.21,4.29,0.04,8.6,0.04,12.9C1688.02,2232.75,1687.67,2232.75,1687.33,2232.75z"/>
	<path class="st0" d="M1811.49,2169.9c0,5.28,0.05,10.57-0.02,15.85c-0.04,2.55-1.22,4.5-3.84,5.1c-2.66,0.6-4.85-0.8-5.62-3.03
		c-3.12-9.01-8.25-17.32-9.61-26.94c-0.23-1.63-0.38-3.32-0.21-4.94c0.63-6,5.12-10.25,10.32-9.95c4.56,0.26,8.91,4.69,9.27,10.03
		c0.31,4.6,0.07,9.24,0.07,13.87C1811.73,2169.9,1811.61,2169.9,1811.49,2169.9z"/>
	<path class="st0" d="M1759.25,2211.17c-1.77,7.59-0.95,15.59-1.36,23.53c-0.14,2.67-0.72,5.55-3.79,6.31
		c-3.17,0.78-4.95-1.45-5.98-4.04c-2.82-7.08-6.19-13.93-9.14-20.93c-3.57-8.48,0.58-16.03,8.19-16.66
		C1753.94,2198.82,1759.16,2203.81,1759.25,2211.17z"/>
	<path class="st0" d="M1807.93,2257.94c-0.3,5.31,0.12,10.7-1.81,15.79c-1.73,4.55-5.97,5.58-8.15,1.47
		c-4.82-9.11-8.2-18.88-7.48-29.45c0.34-5.01,4.64-6.28,8.57-6.87c3.72-0.55,8.09,3.76,8.78,8.1c0.31,1.95,0.08,3.98,0.08,5.97
		C1807.94,2254.62,1807.93,2256.28,1807.93,2257.94z"/>
	<path class="st0" d="M391.61,813.96c0.18-5.64,3.35-9,8.21-11.41c8.13-4.02,16.67-6.55,25.68-7.08
		c36.84-2.16,72.73,2.43,107.25,15.9c11.46,4.47,22.57,9.68,32.03,17.76c4.06,3.47,7.73,7.32,8.52,12.98
		c-3.64,1.95-6.49-0.23-9.17-2.06c-25.64-17.45-54.68-25.57-84.73-30.7c-19.73-3.36-39.56-5.85-59.55-1.98
		c-6.88,1.33-13.61,2.8-18.93,8.13C397.6,818.85,393.88,819.44,391.61,813.96z"/>
	<path class="st1" d="M1534.23,584.57c7.78-5.54,14.68-10.66,21.8-15.45c4.36-2.94,6.95-6.63,8.46-11.77
		c2.99-10.15,7.18-19.92,10.02-32.71c3.78,12.11,8.9,20.83,13.43,29.84c4.6,9.14,10.9,15.67,21.17,18.1c3.37,0.8,6.99,1.6,10.4,4.84
		c-5.7,3.81-11.21,7.36-16.57,11.11c-10.65,7.45-10.6,7.49-7.26,20.46c0.4,1.55,0.48,3.18,0.74,4.98c-3.87,0.37-5.77-2.27-8.2-3.63
		c-6.95-3.86-7.97-3.75-13.58,2.29c-3.08,3.31-5.57,7.22-10.47,10.67c-0.54-8.36-1.02-15.52-1.46-22.68
		c-0.65-10.57-0.63-10.6-11.4-12.44c-2.62-0.45-5.28-0.65-7.92-0.98C1540.78,586.88,1538.09,586.77,1534.23,584.57z"/>
</g>
<path class="st5" d="M1692.82,565.78c-0.98-0.17-1.96-0.29-2.95-0.38c-4.53-2.74-10.98-2.04-16.04-2.05
	c-8.61-0.03-17.22-0.06-25.83-0.09c-0.67,0-1.27,0.11-1.8,0.3c-1.43-0.32-2.86-0.64-4.29-0.96c-2.07-1.54-4.53-2.37-7.05-1.67
	c-5.56-1.38-11.08-2.95-16.42-4.98c-0.19-0.89-0.55-1.81-1.15-2.74c-4.97-7.74-9.05-15.95-12.84-24.31
	c-3.59-18.01-6.5-36.64-13.87-53.46c-0.17-0.39-0.37-0.73-0.59-1.02c-0.9-3.46-4.05-6.3-7.48-6.53c-0.23-0.09-0.46-0.16-0.72-0.21
	c-5.35-1.01-9.18,0.81-11.74,4.01c-0.89,0.23-1.74,0.73-2.44,1.54c-0.32,0.17-0.63,0.35-0.92,0.55c-3.55,2.41-6.25,5.8-8.85,9.17
	c-0.06,0.08-0.12,0.16-0.18,0.24c-2.36,1.48-4.72,2.77-6.49,5.08c-4.04,5.27-5.5,13.35-7.38,19.61
	c-4.13,13.71-5.58,26.76-4.97,40.77c-0.01,0.02-0.02,0.05-0.03,0.07c-0.53,0.15-1.07,0.41-1.61,0.82
	c-4.91,3.71-9.82,7.43-14.73,11.15c-3.85,1.9-7.78,3.64-11.91,4.74c-8.62-0.07-17.08,4.33-24.7,8.34c-2.5,0.96-4.91,2.04-7.17,3.28
	c-6.91,3.8-9.27,11.89-5.49,17.2c3.52,7.12,12.71,11.22,19.75,14.31c11.62,5.09,23.72,8.58,36.47,8.71
	c0.85,0.01,1.58-0.16,2.21-0.46c2.4-0.01,4.75-0.23,7-0.71c-0.61,0.77-0.99,1.78-0.98,3.04c0.03,4.83-0.14,9.66-0.56,14.46
	c-2.65,7.21-4.47,14.61-5.44,22.23c-0.87,6.9-1.81,15-0.17,21.84c2.47,10.29,18.75,11.49,26.26,5.12c0.04-0.02,0.08-0.03,0.11-0.05
	c1.36-0.64,2.12-1.61,2.41-2.68c0.03-0.03,0.07-0.05,0.1-0.08c0.28-0.22,0.54-0.46,0.79-0.72c0.65-0.6,1.26-1.25,1.82-1.93
	c1.55-1.21,2.94-2.57,4.08-4.06c7.19-9.42,12.8-20.44,18.99-30.54c0.19-0.32,0.33-0.63,0.45-0.94c3.11-0.93,7.01,3.84,9.51,5.6
	c0.59,0.42,1.21,0.82,1.83,1.2c4.88,4.99,10.16,9.59,15.86,13.74c5.87,4.28,12.21,7.9,19.05,10.4c5.19,1.9,14.56,5.07,19.67,1.64
	c11.71-7.87-5.29-29.19-10.48-36.01c-7.22-9.49-18.83-17.02-24.58-27.64c3.77,0.54,7.71,0.5,11.29,0.54
	c6.71,0.09,13.48-0.64,19.68-3.33c2.67-1.16,5.09-2.7,7.4-4.41c7.17-2.67,14.05-6.04,20.41-10.32c2.45-1.65,4.94-3.33,7.12-5.23
	c2.02-0.83,3.88-1.96,5.42-3.6c1.02-1.09,2.04-2.25,2.94-3.46c3.23-1.3,6.37-3.15,7.46-6.28
	C1700.64,570.05,1697.02,566.5,1692.82,565.78z M1636.64,581.17c-1.01,0.53-1.83,0.98-2.05,1.1c-2.52,1.46-4.04,3.36-5.93,5.5
	c-0.69,0.32-1.4,0.64-2.1,0.96c-1.58,0.45-3.18,0.85-4.5,1.58c-0.64,0.35-1.23,0.79-1.78,1.26c-2.99,1.39-5.93,2.85-8.63,4.57
	c-0.82,0.52-1.5,1.23-2.04,2.02c-2.77,0.25-5.64,2.66-5.06,6.25c1.02,6.34,3.92,11.73,7.65,16.61c0.04,0.16,0.08,0.32,0.14,0.48
	c0.03,3,0.06,6,0.08,9c0.01,1.51,0.1,3.05,0.06,4.57c-0.92,2.62-6.33-0.16-7.87-0.79c-0.75-0.31-1.55-0.33-2.32-0.14
	c-2.31-1.56-4.58-3.25-7.41-4.1c-0.96-1.27-1.91-2.56-2.82-3.87c-1.35-1.93-3.38-2.47-5.22-2.12c-0.79-3.63-6.97-4.85-9.44-1.25
	c-2.1,3.05-4.19,6.11-6.29,9.16c-0.4,0.49-0.81,0.98-1.21,1.47c-0.97,0.76-2.03,1.49-3.23,2.23c-1.11,0.69-11.17,6.81-11.33,6.09
	c-0.32-1.44-1.08-2.4-2.03-2.97c0.08-0.49,0.16-0.98,0.24-1.48c1.68-10.87,1.74-21.4-0.95-32.12c-0.3-1.21-0.91-2.08-1.69-2.66
	c-0.82-2.24-2.86-3.99-5.59-4.56c-2.74-0.58-5.68-0.27-8.46-0.69c-3.05-0.46-6.06-1.26-9.02-2.12c-2.81-0.82-5.76-1.64-8.47-2.75
	c-1.11-0.45-2.72-0.88-3.43-1.97c-1.3-2,0.48-2.82,2.08-4.05c3.21-2.47,6.38-5.55,6.91-9.7c0.18-0.1,0.36-0.2,0.54-0.3
	c4.27-2.3,7.99-5.25,11.62-8.41c0.13-0.06,0.25-0.11,0.38-0.17c4.44-2.03,11.6-5.42,13.79-10.29c0.75-0.38,1.44-1,1.98-1.9
	c0.76-1.27,1.44-2.59,2.03-3.94c1.14-0.93,2.03-2.31,2.42-4.23c0.88-4.33,1.39-8.69,1.81-13.05c2.09-5.01,3.38-10.34,5.16-15.47
	c1.1-3.16,2.3-6.28,3.59-9.36c0.81-0.62,2.08-1.27,2.52-1.65c0.75-0.66,1.41-1.38,2.01-2.15c1.85,2.23,3.71,4.45,4.94,7.14
	c0.09,0.2,0.2,0.37,0.3,0.54c2.94,8.1,8.64,14.85,11.69,22.98c0.38,1.02,0.98,1.78,1.7,2.33c3.56,7.74,7.43,15.34,12.04,22.52
	c2.38,3.71,6.3,4.34,9.55,3.17c7.8,3.05,15.84,5.24,23.96,7.19c0.34,0.46,0.61,1.01,0.82,1.53c0.71,1.75,0.9,3.69,1.05,5.57
	C1638.14,579.56,1637.4,580.38,1636.64,581.17z M1657.83,586.47c0-0.1,0-0.21-0.01-0.31c0-0.04-0.01-0.08-0.01-0.12
	c0.3-0.12,0.61-0.22,0.92-0.31c0.3-0.08,0.6-0.15,0.9-0.21C1659.04,585.84,1658.44,586.16,1657.83,586.47z"/>
<path class="st0" d="M1635.17,571.13c-4.9-1.41-7.57,4.32-5.42,7.66c-0.43,0.25-0.82,0.48-1.12,0.62c-3.25,1.51-6.5,3.01-9.75,4.52
	c-6.21,2.88-12.41,5.75-18.62,8.63c-2.42,1.12-2.96,3.26-2.35,5.18c-1.19,1.09-1.88,2.73-1.43,4.75c1.19,5.37,2.76,10.36,5.37,15.22
	c2.35,4.37,5.26,8.71,4.51,13.59c-7.81-1.93-14.03-7.6-17.28-15.11c-1.2-2.78-3.76-3.11-5.85-2.08c-2.19-1.54-5.36-1.55-6.93,1.51
	c-1.91,3.73-3.85,7.88-7.14,10.6c-1.21,1-2.57,1.72-3.99,2.37c0.02-5.76-1.96-11.57-3.68-17.41c-0.61-4.06-1.36-8.1-2.28-12.12
	c-0.06-0.25-0.13-0.49-0.22-0.71c-0.14-1.05-0.55-1.92-1.14-2.58c-0.23-1.71-1.32-3.27-3.5-3.84c-7.19-1.9-14.38-3.8-21.57-5.7
	c2.38-1.46,4.66-3.01,6.67-4.76c2.3-2,3.49-4.43,6.08-6.2c2.78-1.89,5.83-3.49,8.72-5.21c1.96-1.17,2.58-3,2.34-4.74
	c0.28-0.21,0.57-0.42,0.85-0.63c0.15-0.11,0.29-0.22,0.42-0.34c1.28-0.18,2.49-0.92,3.31-2.41c4.72-8.54,6-17.02,8.14-26.36
	c1.16-5.05,3.08-9.79,4.75-14.61c5.51,8.87,9.27,18.45,13.76,28.13c4.99,10.75,12.23,20.15,23.59,24.46
	c6.02,2.29,8.63-7.38,2.66-9.64c-11.23-4.26-16.36-16.57-20.62-26.84c-4.37-10.53-9.45-20.18-16.4-29.13
	c-0.17-2.1-1.65-3.32-3.44-3.65c-3.21-1.59-7.04,1.87-6.7,5.53c-1.13,8.03-5.45,15.23-7.25,23.1c-1.83,8.02-2.71,15.28-6.42,22.62
	c-0.28,0.13-0.57,0.3-0.85,0.5c-6.32,4.57-12.37,9.12-19.3,12.71c-6.79,3.52-12.18,9.94-17.65,15.14c-1.12,1.07-1.56,2.28-1.52,3.46
	c-0.72,3.49,2.64,7.56,6.51,5.95c9.58,2.54,19.16,5.07,28.74,7.59c0.36,4.72,1.33,9.21,2.74,13.72c0.92,6.74,1.35,13.53,1.33,20.38
	c-0.69,1.59-0.43,3.1,0.36,4.28c0.6,1.76,2.11,3.17,4.53,3.17c1.19,0,2.15-0.35,2.9-0.91c0.73-0.07,1.5-0.34,2.27-0.9
	c4.11-2.93,9.03-3.93,12.9-7.33c2.59-2.28,4.57-5.13,6.29-8.12c5.89,9.78,16.38,15.88,27.87,16.76c3.43,0.26,5.02-2.47,4.78-5.15
	c0.08-0.16,0.16-0.32,0.22-0.49c2.39-6.03,0.92-12.26-1.79-17.92c-2.9-6.04-5.64-11.17-7.22-17.67
	c10.26-4.71,20.98-8.95,30.88-14.32C1645.03,582.16,1643.39,573.5,1635.17,571.13z"/>
<path class="st0" d="M1580.85,459.06c-18.05,3.25-31.82,17.29-38.61,33.8c-3.82,9.29-5.57,19.29-6.11,29.28
	c-0.06,1.08-0.06,2.23-0.05,3.43c-3.78-2.7-10.05,1.77-7.21,6.65c3.26,5.6,2.74,12.55-1.65,17.42c-0.19,0.21-0.35,0.43-0.5,0.65
	c-0.79,0.68-1.3,1.62-1.53,2.63c-1.69,0.77-3.53,1.33-4.98,1.87c-5.09,1.87-10.29,3.44-15.49,4.99
	c-10.37,3.09-20.75,6.15-31.12,9.22c-6.16,1.82-3.54,11.48,2.66,9.64c12.82-3.8,25.7-7.42,38.45-11.45
	c7.33-2.32,18.83-4.91,23.23-12.22c0.11-0.08,0.23-0.17,0.34-0.26c6.03-5.13,7.4-12.96,7.63-20.51c0.29-9.82,0.27-19.35,2.74-28.95
	c4.48-17.42,16.36-33.2,34.86-36.53C1589.83,467.56,1587.15,457.92,1580.85,459.06z"/>
<path class="st0" d="M1706.14,564.27c-9.83-7.68-24.02-7.66-35.93-9.07c-14.2-1.67-28.45-2.81-42.73-3.5
	c-1.68-3.02-3.15-6.13-4.32-9.4c-1.38-3.87-1.95-8.07-4-11.66c-3.19-5.59-11.83-0.56-8.63,5.05c2.08,3.65,2.62,8.51,4.21,12.45
	c1.66,4.1,3.65,8.01,5.96,11.79c1.6,2.62,4.4,2.84,6.53,1.76c12.43,0.6,24.85,1.53,37.22,2.87c6.29,0.68,12.56,1.45,18.82,2.34
	c5.18,0.73,11.51,1.1,15.8,4.45C1704.08,575.26,1711.21,568.23,1706.14,564.27z"/>
<path class="st0" d="M1530.25,621.52c-9.89,2.48-20,0.72-29.28-3.24c-4.38-1.87-8.56-4.24-12.62-6.74c-3-1.85-9.52-4.59-10.1-8.35
	c-0.99-6.34-10.62-3.65-9.64,2.66c0.87,5.56,5.83,8.56,10.16,11.42c5.48,3.62,11.13,6.98,17.15,9.64c8.81,3.9,18.17,6.11,27.61,5.63
	c1.06,3.55,6.66,5.45,9.24,1.31c1.04-1.67,2.08-3.33,3.12-5C1538.27,625.06,1534.36,620.49,1530.25,621.52z"/>
<path class="st0" d="M1581.18,664.47c-6.43,0-6.45,10,0,10C1587.61,674.47,1587.62,664.47,1581.18,664.47z"/>
</svg>
