<?xml version="1.0" encoding="utf-8"?>
<!-- Generator: Adobe Illustrator 26.0.3, SVG Export Plug-In . SVG Version: 6.00 Build 0)  -->
<svg version="1.1" id="Layer_1" xmlns="http://www.w3.org/2000/svg" xmlns:xlink="http://www.w3.org/1999/xlink" x="0px" y="0px"
	 viewBox="0 0 792 612" style="enable-background:new 0 0 792 612;" xml:space="preserve">
<style type="text/css">
	.st0{fill:#1D5676;}
	.st1{fill:#354F5A;}
	.st2{fill:#37A38D;}
	.st3{fill:#A8D0F1;}
	.st4{fill:#39A48D;}
	.st5{fill:#99CFD1;}
	.st6{fill:#5D81B4;}
	.st7{fill:#C4DFF5;}
	.st8{fill:#1C8E95;}
	.st9{fill:#198F92;}
	.st10{fill:#1B8F8E;}
	.st11{fill:#0F5E67;}
	.st12{fill:#46989F;}
	.st13{fill:#8DC9D1;}
	.st14{fill:#83E6B9;}
</style>
<g>
	<path class="st0" d="M336.5,285.14c-0.65-3.44-1.32-6.89,0.38-10.24c2.17-2.45,0.64-5.37,1.02-8.05c0.59-8.24,3.02-15.69,9.14-21.6
		c2.39-2.3,4.83-4.58,7-7.07c3.69-4.23,7.13-8.52,3.22-14.61c-1.23-1.91,0.02-3.22,2.23-3.9c4.7-1.45,9.38-2.86,14.37-2.76
		c2.68-0.66,6.05,1.85,8.08-1.77c2.25-0.09,4.5-0.18,6.75-0.27c3.06-0.21,6.25,0.99,9.18-0.78c1.08-0.38,2.17-1.13,3.24-1.09
		c11.92,0.48,23.83-2.59,35.65-0.87c5.8,0.85,11.75-0.34,17.37,1.73c2.77,2.21,5.98,0.66,8.96,1.04c2.29,0.54,4.88-0.99,6.97,1
		c1.73,1.97,3.99,0.73,6,0.99c1.96,0.47,4.22-0.79,5.96,1.02c0.72,1.29,1.94,1.02,3.08,0.99c2.69,0.05,2.84,1.98,2.93,3.95
		c-0.01,1.41-0.01,2.81-0.02,4.22c-0.63,0.75-1.26,1.5-1.89,2.25c-2.55,3.02-2.97,5.2,1.12,7.81c5.06,3.23,10.42,6.34,13.96,11.52
		c1.5,2.19,2.87,4.42,2.82,7.21c0,4.74,0,9.48-0.01,14.22c-0.59,2.96,1.06,6.16-0.97,8.96c-1.65,1.22-1.03,3.02-1.05,4.59
		c-0.06,5.45,0,10.91,0.02,16.36c-0.16,13.5-1.42,26.96-1.69,40.42c-0.2,10.08,1.46,20.27,1.7,30.45c0.02,1.48,0.04,2.95,0.06,4.43
		c0.18,9.43-6.43,14.51-12.86,19.53c-1.11,0.87-2.19,2.63-4.16,2.21c-1.47-0.08-2.95-0.17-3.1,1.91c-3.33,2.13-6.78,3.96-10.86,4.11
		c-1.69,0.19-3.63-0.89-4.97,1.02c-3.06,1.87-6.67,1.39-9.92,1.74c-14.99,1.61-30.11,1.67-45.14,1.01
		c-11.92-0.52-23.78-2.41-35.67-3.69c-2.52-0.03-5.03-0.06-7.55-0.08c-10.78-4.44-20.57-10-27.03-20.41
		c-2.53-4.08-3.09-8.06-2.95-12.48c0.02-26.9,0.06-53.8,0.04-80.71C337.92,287.93,338.7,285.99,336.5,285.14z M499,376.01
		c0.84-0.39,0.71-0.78-0.01-1.17c-0.03-0.31-0.08-0.63-0.13-0.94c-0.06-1.37,0.6-2.91-0.87-3.97c-0.03-3.6-0.06-7.2-0.09-10.81
		c-0.31-2.7,0.94-5.55-0.84-8.09c-0.29-1.37,0.35-2.99-1.1-4.04c0.01-4.97,0.02-9.94,0.03-14.92c0.35-0.4,0.71-0.79,1.06-1.19
		c1.99-4.86,0.38-9.93,0.9-14.88c-0.02-3.67-0.04-7.35-0.06-11.02c0.04-1.99,0.07-3.98,0.11-5.98c0,0-0.03-0.05-0.03-0.05l0.47,0.01
		l0.47-0.01c1.79-6.63,1.61-13.27,0.12-19.91c-0.04-0.31-0.06-0.62-0.08-0.93c1.5-4.86,1.68-9.9,2.03-14.92
		c0.34-4.78-0.14-9.53-3.51-12.98c-3.43-3.5-7.58-6.32-11.57-9.23c-5.51-4.01-6.33-6.16-4.01-12.74
		c-8.99,2.98-18.04,2.74-27.08,2.74c-20.63,0-41.26,0.05-61.88-0.85c-0.64-0.12-1.28-0.23-1.92-0.35c-0.36-0.19-0.73-0.38-1.09-0.56
		c-5.64-0.37-11.29-0.73-16.93-1.1c-3.82-1.1-7.65-2.2-12.51-3.6c3.43,4.1,3.05,7.56,1.26,10.9c-3,5.6-7.48,10.03-12.11,14.24
		c-3.45,3.13-5.47,7.06-6.54,11.37c-1.46,5.86-2.78,11.81-2.14,17.96l0.04-0.09c-0.78-0.3-0.75,0.34-0.89,0.78
		c-0.03,0.72-0.07,1.45-0.1,2.17c0.55,5.67-1.37,11.5,1.06,17.06c0.29,0.01,0.59,0.04,0.88,0.07c0,6.97-0.01,13.94-0.01,20.91
		c-0.3,0.03-0.61,0.05-0.91,0.06c-1.69,7.67-1.81,15.33,0.07,22.99l0.43-0.01l0.43,0.03c0.01,5.79-0.15,11.59,0.08,17.38
		c0.16,4.22-1.02,8.55,0.81,12.66c-0.01,0.34-0.01,0.68-0.02,1.02c-1.27,1.64-1.3,3.27,0.06,4.89c0.35,0.39,0.7,0.77,1.04,1.16
		c7.54,10.16,16.99,17.28,29.93,18.89c2.06,0.26,4.36-0.82,6.15,1.04c2.6,1.57,5.24,1.36,7.89,0.15c0,0,0.13-0.42,0.13-0.42
		c6.26,0.32,12.45,2,18.78,1.05c0,0,0.11,0.22,0.11,0.22c0.36,0.35,0.71,0.71,1.07,1.06c0.58,0.28,1.15,0.81,1.73,0.81
		c10.43,0.06,20.87,0.06,31.3,0.08c1.41,0,2.7-0.11,2.93-1.9c4.65-0.04,9.29-0.09,13.94-0.13c2.67-0.46,5.65,1.2,8.06-1.14
		c-0.02-0.27-0.03-0.54-0.01-0.82c2.35-0.01,4.69-0.01,7.04-0.02c1.13,0.02,2.3,0.16,2.99-1.05c3.11-1.54,6.36-2.86,9.3-4.68
		c5.59-3.45,11.38-6.86,12.74-14.17c1.26-0.72,0.9-1.98,1.02-3.08L499,376.01z M482.63,222.46c-19.03-7.97-93.83-7.7-119.44,0.21
		c15.51,4.38,31.57,3.15,47.36,4.06c17.94,1.02,35.98,0.41,53.97,0.14C470.55,226.78,476.75,226.25,482.63,222.46z"/>
	<path class="st1" d="M336.5,285.14c2.2,0.85,1.41,2.79,1.42,4.29c0.02,26.9-0.01,53.8-0.04,80.71c-1.66-1.67-0.91-3.79-0.91-5.69
		c-0.06-24.46-0.03-48.91-0.06-73.37C336.9,289.1,336.64,287.12,336.5,285.14z"/>
	<path class="st1" d="M502.01,299.98c-0.02-5.45-0.08-10.91-0.02-16.36c0.02-1.57-0.6-3.36,1.05-4.59
		c-0.02,5.46,0.03,10.92-0.09,16.38C502.91,296.94,503.71,298.75,502.01,299.98z"/>
	<path class="st1" d="M504.01,270.07c0-4.74,0-9.48,0.01-14.22C505.61,260.59,505.66,265.33,504.01,270.07z"/>
	<path class="st1" d="M397.86,214.08c-2.93,1.77-6.12,0.57-9.18,0.78C391.61,213.02,394.79,214.23,397.86,214.08z"/>
	<path class="st1" d="M463.08,214.9c-2.98-0.39-6.19,1.16-8.96-1.04C457.07,214.53,460.3,212.76,463.08,214.9z"/>
	<path class="st1" d="M381.94,215.13c-2.03,3.62-5.4,1.11-8.08,1.77C376.21,214.75,379.5,216.9,381.94,215.13z"/>
	<path class="st1" d="M337.9,266.84c-0.37,2.68,1.15,5.6-1.02,8.05C337.47,272.25,335.89,269.32,337.9,266.84z"/>
	<path class="st1" d="M367.86,403.03c2.52,0.03,5.03,0.06,7.55,0.08C372.87,404.43,370.35,404.68,367.86,403.03z"/>
	<path class="st1" d="M476.05,216.89c-2.01-0.26-4.27,0.97-6-0.99C472.03,216.36,474.3,215.01,476.05,216.89z"/>
	<path class="st1" d="M466.14,404.06c1.34-1.91,3.28-0.83,4.97-1.02C469.75,404.87,467.77,403.63,466.14,404.06z"/>
	<path class="st1" d="M502.08,375.28c-0.02-1.48-0.04-2.95-0.06-4.43C503.53,372.31,503.37,373.79,502.08,375.28z"/>
	<path class="st1" d="M487.99,227.07c0.01-1.41,0.01-2.81,0.02-4.22C489.54,224.26,489.45,225.67,487.99,227.07z"/>
	<path class="st1" d="M481.97,398.94c0.15-2.07,1.62-1.99,3.1-1.91C484.4,398.26,482.98,398.27,481.97,398.94z"/>
	<path class="st1" d="M485.08,218.89c-1.14,0.03-2.36,0.3-3.08-0.99C483.06,218.15,484.45,217.35,485.08,218.89z"/>
	<path class="st2" d="M457.88,400.93c-4.65,0.04-9.29,0.09-13.94,0.13c-0.64-0.03-1.28-0.06-1.92-0.08
		c-6.02-0.01-12.04-0.02-18.06-0.04c-0.06-1.28,0.13-2.75-1.75-2.89c-2.14-0.16-2.26,1.33-2.24,2.89
		c-4.35,0.02-8.71,0.05-13.06,0.07c0,0-0.11-0.22-0.11-0.22c-0.74-1.74-3.26-2.43-2.85-4.84c1,0.63,1.99,0.55,2.98-0.02
		c0.7,2.78,1.9,2.19,4.34,0.3c-2.16-0.14-3.25-0.22-4.35-0.29c0.12-1.43-0.64-2.01-1.98-2.01c0.03-0.35,0.05-0.71,0.08-1.06
		c1.73,0.28,3.2,0.04,3.89-1.85c2.36,0.03,5.17,0.03,5.48-2.82c0.2-1.79-2.45-1.87-3.91-2.02c-1.8-0.18-2.43,1.36-2.62,2.97
		c-1.17-0.3-2.07,0.37-3.03,0.85c-1.06,0.03-2.2-0.16-2.9,0.97c-1.28,0.03-1.91,0.71-1.97,1.97c-3.12-3.55-6.67-6.73-9.05-10.89
		c1.17-0.22,2.81,0.26,2.86-1.71c0.03-1.06-0.6-1.94-1.68-1.98c-1.7-0.06-1.98,1.29-2.15,2.62c-2.66-2.93-4.54-6.34-6.15-9.92
		c0.7-0.25,2-0.22,1.55-1.31c-0.54-1.3-1.98-0.61-3.05-0.71c-6.09-7.35-6.13-16.22-6.31-25.05c2.47,1.12,4.9,2.16,5.09-2.14
		c1.47,0.05,3.13,0.43,3.49-1.68c0.05-0.28-0.51-0.92-0.86-0.98c-2.02-0.32-2.61,0.92-2.63,2.65c-1.74,0.03-3.47,0.06-5.21,0.1
		c-0.9-7.59-1.29-15.2-1.04-22.85c2.58,0.02,4.01-1.37,3.91-3.83c-0.09-2.2-1.45-3.51-3.85-3.35c0.3-5.37-0.89-10.83,0.89-16.12
		c-0.05,4.2-0.06,8.36,6.17,7.11c0,0,0.4,0.02,0.4,0.02l0.4-0.01c0.51,0.84,1.03,1.86,2.24,1.22c1.29-0.68,0.95-1.94,0.82-3.07
		c0.5-0.04,1.04,0.04,1.49-0.13c2.95-1.08,6.46-4.36,7.41,2.03c0.04,0.25,0.83,0.56,1.24,0.53c0.89-0.07,1.02-0.9,0.8-1.5
		c-0.96-2.64,0.05-3.48,2.53-2.74c1.41,0.42,2.86,0.79,3.23-0.94c0.38-1.74-1.15-2.68-2.59-3.14c-2.04-0.65-4.35,0.31-6.33-0.92
		c-2.23-1.39-3.95-1.19-6.22,0.56c-3.85,2.99-7.15,2.16-10.46-1.78c0.99-0.27,2.82,0.44,2.64-1.28c-0.2-1.83-2.07-1.76-3.56-1.81
		c0.16-0.41,0.31-0.82,0.47-1.23c5.65-2.21,5.81-2.86,1.62-6.64c-0.03-1.67-0.06-3.34-0.1-5.01c1.46-2.5,1.64-5.33,2.05-8.1
		c0.63,0,1.25,0,1.88,0c0.66,0.33,1.31,0.65,1.97,0.98c3.29,1.38,6.19,1.3,8.56-1.86c0.49-0.65,1.69-0.76,2.56-1.12
		c0.32,0.02,0.64,0.07,0.95,0.15c2.43,4.73,4.78,5.19,9.17,1.8c0.77-0.01,1.47-0.14,1.81-0.95c1.34-0.07,2.51,0.11,3.27,1.47
		c1.26,2.27,3.35,2.8,5.77,2.5c1.44,0.86,2.79,1.46,3.12-1.03c2.35-0.35,4.15,0.81,5.91,2.11c-0.06,1.42-0.23,2.92,1.9,2.93
		c0.35,0,0.69-0.01,1.04-0.01c0.3,0.33,0.61,0.66,0.91,1c0.19,0.75,0.08,1.87,1.28,1.64c0.35-0.07,0.53-1.05,0.78-1.62
		c2.87-1.91,4.46-8.37,9.55-2.47c0.98,1.13,3.13,0.68,4.69-0.28c1.15-0.71,2.08-2.33,3.82-1.15c-0.09,0.86-1.29,1.72-0.19,2.56
		c1.17,0.89,2.05-0.23,3-0.68c2.38,0.58,4.73,1.41,7.25,1c0.62,0,1.24,0,1.86,0c0.02,0.35,0.04,0.69,0.06,1.04
		c0.13,0.7-0.09,1.72,1.01,1.69c1.05-0.03,0.87-1.03,0.98-1.74c1.05-2.57,2.01-0.62,3.01,0.05c0.34,0.67,0.67,1.35,1.01,2.02
		c0.14,0.72-0.06,1.79,1.13,1.57c0.33-0.06,0.5-0.99,0.74-1.52c0.38-0.02,0.75-0.05,1.13-0.07c0,1.49-0.21,3.01,0.04,4.45
		c0.32,1.89-0.12,5.21,2.54,4.76c2.13-0.36,2.92-3.29,1.67-5.82c-0.21-0.42-0.15-0.97-0.22-1.46c1.38,0.06,2.02-0.6,1.95-1.98
		c1.9-0.7,3.13,1.91,5.07,1.02c0.97,0.61,1.93,0.51,2.87-0.08c2.11,0.86,5.46-0.7,6.06,3.11c-2.68,0.32-1.82,2.43-2.01,4.01
		c-1.03,0.22-2.05,0.44-3.08,0.66c-1.88-0.98-3.68-3.11-5.84-0.45c1,0.67-1.02,3.65,2.08,2.72c0.96,0.77,1.94,0.58,2.93,0.04
		c1.23-1.09,4.74,0.82,3.91-2.98c1.31,0,2.62-0.01,3.94-0.01c0.36,0.32,0.72,0.64,1.07,0.96c-1.75,3.33-0.85,5.07,3.02,5.02
		c3.61,1.02,1.29,4.02,2,6.01c0,0,0.03,0.05,0.03,0.05c-3.42-0.23-6.72-0.01-10.14-1.63c-2.43-1.15-6.73-1.39-8.66,0.04
		c-5.15,3.82-9.58,1.64-13.69-0.72c-2.97-1.71-5.34-2.1-8.33-0.87c-4.2,1.73-9.13,2.72-13.05,1.76c-5.58-1.37-10.76-1.74-16.22-0.55
		c-2.66-0.02-5.31-0.05-7.97-0.07c0-0.33-0.01-0.66-0.04-0.99c-1.74-1.81-3.97-0.69-5.96-0.99c-1.33,0-2.67-0.01-4-0.01
		c-1.17,0.21-2.65-0.59-3.58,1.17c1.03,1.11,2.37,0.75,3.59,0.83c0.36,0.61,0.71,1.21,1.07,1.82c0.05,0.48,0,1.01,0.17,1.45
		c0.62,1.56,1.46,3.43,3.44,2.46c2.3-1.13-0.39-3.16,0.3-4.73c1.01-0.01,2.01-0.01,3.02-0.02c0.66,0.01,1.32,0.02,1.98,0.04l0,0
		c0.18,0.46,0.32,1.3,0.54,1.32c4,0.41,7.92,2.14,12.04,0.86c1.15-0.35,2.21-1.63,3.5-0.02c4.25,5.34,10.07,3.72,15.62,3.45
		c6.74-0.34,12.99-3.96,20.03-2.74c2.15,0.37,4.28,1.19,6.79,0.59c4.35-1.03,8.78-1.17,12.79,1.94c1.77,1.37,4.26,1.79,6.66,1.6
		c0.02,3.67,0.04,7.35,0.06,11.02c-0.34,0.32-0.69,0.64-1.03,0.96c-2.13,4.92-0.44,10.08-0.93,15.11
		c-0.01,4.97-0.02,9.94-0.03,14.92c0.46,3.97-1.05,8.11,0.95,11.96c0.33,0.06,0.66,0.12,0.98,0.18c0.03,3.6,0.06,7.2,0.09,10.8
		c0.1,1.37-0.5,2.89,0.87,3.97c0.05,0.31,0.09,0.62,0.13,0.94c0,0.39,0,0.78,0.01,1.17c0,0,0.02-0.04,0.02-0.04
		c-1.3,0.71-1.02,1.94-1.02,3.08c-1.36,7.31-7.15,10.72-12.74,14.17c-2.94,1.82-6.19,3.13-9.3,4.68c-0.06-0.97,0.12-2.48-0.91-2.57
		c-3.12-0.29-5.6-0.95-6.16-4.64c-0.11-0.7-1.46-0.83-2.18-0.33c-0.77,0.53-0.63,1.33-0.21,2.17c1.42,2.9,2.46,6.14,6.47,6.42
		c-2.35,0.01-4.69,0.01-7.04,0.02c-2.64,0.45-5.53-1.07-7.95,1.04C457.96,400.32,457.92,400.62,457.88,400.93z M404.07,287.56
		c0.06,0.74-0.21,1.91,0.9,1.83c1.31-0.09,0.83-1.44,1.03-2.29c-0.3-1.08-1.16-1.13-2.06-1.12c0.06-0.36,0.12-0.73,0.17-1.09
		c4.27-2.78,0-3.6-1.18-5.13c0.33-0.81,1.49-1.59,0.25-2.49c-0.31-0.22-1.03-0.23-1.36-0.02c-1.3,0.86-0.16,1.66,0.18,2.47
		c-0.33,1.03-0.67,2.05-1,3.08c-1.75,3.66,1.05,2.99,2.99,3.13C404.01,286.48,404.04,287.02,404.07,287.56z M433.95,389.95
		c0.89-0.13,2.01,0.31,2.48-0.86c0.07-0.19-0.45-0.85-0.75-0.9c-1.33-0.22-1.56,0.77-1.71,1.78c-0.9,0.11-2.02-0.32-2.47,0.87
		c-0.07,0.19,0.45,0.85,0.76,0.9C433.59,391.95,433.82,390.97,433.95,389.95z M440.96,286.97c-1.04,0.24-2.53,0.06-2.29,1.74
		c0.17,1.16,1.31,1.25,2.32,1.23c-0.31,0.95-1.55,1.98,0.12,2.8c0.62,0.3,1.41,0.09,1.59-0.59c0.38-1.41-0.38-2.09-1.77-2.15
		c0-1.02,0-2.05,0-3.07c0.83,0.24,1.52,1.33,2.49,0.49c0.17-0.14,0.06-0.97-0.16-1.12C442.3,285.65,441.51,285.99,440.96,286.97z
		 M485.96,323.96c0.1,1.46-0.17,3.14,1.83,3.56c0.26,0.06,0.92-0.51,0.95-0.83C488.93,324.7,487.58,324.17,485.96,323.96
		c-0.8-1.33-1.66-2.59-3.43-1.41c-0.28,0.19-0.46,0.99-0.3,1.29C483.36,325.93,484.69,324.31,485.96,323.96z M403.95,345.95
		c0-0.34,0-0.68,0-1.02c0.88-0.46,2.18-1.68,1.55-1.98c-1.45-0.68-3.33-0.72-4.99-0.6c-0.97,0.07-1.63,1.16-1.09,2.29
		c0.62,1.3,1.62,0.66,2.53,0.33c0.02,0.33,0.03,0.67,0.05,1c0.03,1.82,1.07,2.95,2.64,3.59c0.24,0.1,0.97-0.33,1.06-0.64
		C406.14,347.39,405.16,346.58,403.95,345.95z M438.96,347.96c-0.15-1.21,0.35-2.9-1.8-2.73c-0.34,0.03-0.9,0.58-0.93,0.92
		C436.07,348.3,437.75,347.8,438.96,347.96c0.84,1.76,2.23,2.35,4.03,1.72c0.7-0.25,0.79-1.06,0.34-1.63
		C441.93,346.29,440.43,347.24,438.96,347.96z M418.9,284.98c-3.71-0.04-3.71,1.62-1.88,4.11c0.59,1.33,1.65,1.91,3.06,1.94
		c-0.1,1.34,0.46,2.3,1.85,1.83c1.38-0.47,0.76-1.36-0.01-2.05c-0.11-2.11,0.8-4.57-1.96-5.79
		C419.61,285.01,419.26,284.99,418.9,284.98z M447.22,286.77c-1.67,1.19-1,2.18,0.38,2.86c1.17,0.58,2.32,0.17,2.83-1.02
		c0.59-1.4-0.64-1.5-1.56-1.72c0.49-0.98,1.27-2.26-0.51-2.46C446.61,284.23,447.09,285.72,447.22,286.77z M400.97,333.96
		c1.26,0.37,2.65,1.96,3.72-0.11c0.5-0.97-0.11-2.08-1.1-2.38c-2.09-0.64-2.4,0.95-2.64,2.47c-0.98-0.22-2.12-1.55-2.82,0.3
		c-0.3,0.78-0.26,1.95,0.57,2.14C400.54,336.81,400.76,335.3,400.97,333.96z M463.93,285.87c0.08-1.39-0.63-1.96-1.95-1.9
		c-0.93,0.11-2.31-0.33-2.53,0.89c-0.29,1.55,1.1,2.38,2.31,2.82C463.21,288.23,463.87,287.28,463.93,285.87z M386.95,332.96
		c1.87-0.03,3.75-0.1,3.85-2.65c0.04-0.9-0.57-1.88-1.32-1.82c-2.43,0.19-2.26,2.28-2.51,3.99
		C386.96,332.63,386.97,332.8,386.95,332.96c-1.2,0.39-3.11-0.93-3.49,1.39c-0.05,0.31,0.47,0.96,0.84,1.06
		C386.44,336.01,386.71,334.47,386.95,332.96z M475.96,354.96c-1.63,0.08-3.27,0.07-4.89,0.28c-0.54,0.07-1.05,0.63-1.5,1.04
		c-0.09,0.08,0.15,0.77,0.3,0.8c1.57,0.28,3.18,0.74,4.74,0.64C476.2,357.63,475.87,356.08,475.96,354.96
		c0.89-0.13,2.01,0.3,2.47-0.88c0.07-0.19-0.45-0.85-0.76-0.9C476.33,352.97,476.1,353.96,475.96,354.96z M398,306.87
		c0.78-0.03,1.96-0.04,1.61-1.07c-0.38-1.11-1.22-0.37-1.78,0.2c-2.3,0.07-5.01-3.31-6.82,0.81c-1.35,0.32-2.91,1.05-1.63,2.46
		c1.2,1.32,2.08-0.38,2.79-1.37C394.13,307.66,396.34,308.81,398,306.87z M386.17,278.02c-0.22-0.91-0.24-2.06-1.67-1.77
		c-0.65,0.13-1.23,0.62-0.99,1.34c0.36,1.07,1.31,1.3,2.35,1.18c0.97,1.87,2.26,2.98,4.24,1.32c1.19-0.99,0.46-2.21-0.23-3.08
		C387.98,274.64,387.25,277.08,386.17,278.02z M412.95,327.91c1.34-0.11,3.39,0.47,3.23-1.67c-0.12-1.57-1.97-1.23-3.23-1.2
		c-1.65,0.27-3.8-1.03-4.76,1.37c-0.2,0.5-0.03,1.53,0.34,1.81C410.02,329.31,411.57,329.34,412.95,327.91z M391.75,370.01
		c-1.24-0.78-2.86-2.04-3.49,0.18c-0.55,1.93,1.39,1.73,2.69,1.73c2.02,1.68,4.17,0.84,6.18,0.1c0.82-0.3,0.71-1.44,0.09-2.11
		C395.38,367.93,393.58,370.13,391.75,370.01z M397,276.95c2.01,0.11,3.31-0.53,2.8-2.85c-0.27-1.26-1.14-2.24-2.44-1.97
		c-1.86,0.39-3.6,1.2-2.35,3.72c-0.78,0.28-2.4,0.25-1.53,1.52C394.52,278.91,396.07,279.13,397,276.95z M386.91,289.99
		c1.59-0.07,3.19-0.18,4.78-0.21c1.18-0.02,2.94,0.72,2.71-1.37c-0.14-1.26-1.3-2.12-2.95-1.74c-2.03,0.47-4.4,0.33-4.53,3.34
		c-0.99,0.2-2.01,0.42-1.71,1.77c0.07,0.32,0.78,0.82,0.98,0.73C387.37,291.99,386.81,290.88,386.91,289.99z M411.95,314.91
		c1.29-0.06,2.27-0.58,1.74-2c-0.39-1.07-1.17-0.65-1.74,0.06c-1.16,0.02-2.33-0.04-3.49,0.08c-1.29,0.12-2.17,0.86-2.33,2.2
		c-0.13,1.12,0.45,1.96,1.45,2.36c1.11,0.44,2.28,0.65,3.09-0.61C411.13,316.32,411.53,315.61,411.95,314.91z M413.08,276.89
		c-1.31,0.23-2.38,0.67-1.33,2.23c1.02,1.52,2.52,1.99,4.32,1.79c1.51-0.17,1.82-1.13,1.88-2.41c0.11-2.01-0.96-2.63-2.76-2.46
		c-0.17-1.23-0.67-2.41-2.1-1.84C411.3,274.89,412.69,275.97,413.08,276.89z M422.96,387.95c-0.15,2.59,0.83,4.15,3.67,3.99
		c1.02-0.06,2.34-0.28,2.06-1.49c-0.56-2.44-2.78-2.38-4.75-2.5c-0.33-0.02-0.66,0-0.99,0.01c-0.58-1.71-0.94-3.55-1.8-5.11
		c-0.85-1.55-2.61-2.61-4.21-1.5c-1.9,1.31-0.5,2.69,0.48,4.15C418.84,387.61,420.65,388.2,422.96,387.95z M387.95,318.95
		c0.66,0,1.31,0,1.97,0c1.51,0.01,3.07-0.03,3.74-1.71c0.44-1.1,0.41-2.27-0.42-3.25c-1.25-1.47-2.62-0.86-4-0.19
		c-0.88,0.42-1.75,0.81-2.82,0.44c-1-0.35-2.12-0.27-2.25,1.05c-0.15,1.45,0.83,1.38,1.95,1.16c2.24-0.43,1.63,1.38,1.83,2.52
		c-0.94-0.21-1.99-1.56-2.75,0.1c-0.17,0.37,0.25,1.41,0.62,1.55C387.28,321.17,387.82,320.25,387.95,318.95z M430.25,287.25
		c-0.4,1.47-2.26,3.3,0.95,3.89c-0.16,0.77-0.41,1.57,0.32,2.17c0.16,0.13,0.7,0.08,0.84-0.08c0.73-0.83-0.18-1.37-0.44-2.03
		c-0.01-2.1,1.85-1.85,3.04-2.58c2.51-1.55,1.99-3.86,0.95-6.13c-1.07-2.32-3.27-1.88-4.7-1.21c-1.71,0.81-3.27,2.51-1.15,4.67
		C430.12,286.38,430.19,286.81,430.25,287.25z M437.95,370.97c0.68-3.35-2.59-2.78-4.03-3.97c-3.25-2.68-5.11,1.82-7.91,1.75
		c-0.17,0-0.64,1-0.5,1.19c1.47,1.96,3.63,0.65,5.45,1.02c0.48,0.1,1.35-0.1,1.43,0.09c1.96,4.65,3.74,0.42,5.57-0.09
		c-0.12,1.64-0.25,3.27-0.37,4.91c-0.11,1.55,1.38,2.55,2.05,1.81c2.5-2.77,6.32-3.49,8.8-6.08c0.91-0.94,0.73-2.51,0.15-3.77
		c-0.3-0.66-1.4-0.98-1.64-0.52C444.99,371.19,440.83,369.48,437.95,370.97z M426.96,360.94c1.1,1.41,2.25,1.15,3.28-0.02
		c0.25-0.28,0.33-1.14,0.14-1.3c-1.2-1-2.39-0.87-3.43,0.33c-3.05,0.32-5.56,0.19-3.51-3.99c0.46-0.93,0.7-1.98-0.38-2.64
		c-0.57-0.35-1.67-0.18-1.68,0.46c-0.04,2.99-1.82,2.97-4.16,3.71c-1.72,0.55-3.14,3.4-4.87,5.09c-0.27,0.27-0.12,1.34,0.2,1.76
		c0.62,0.82,1.38,0.27,2.18-0.05c4.81-1.96,6.95-1.11,8.27,3.21c1.55-0.69,0.62-2.46,1.51-3.45
		C425.4,363.06,426.15,361.97,426.96,360.94z M450.63,312.77c-0.22-2.41-2.4-1.77-3.33-2.87c-0.92-1.09-2.06-0.83-2.88,0.36
		c-2.36,3.44-5.8,6.03-9.5,6.99c-1.37,0.36-1.82,1.29-1.9,2.53c-0.07,1.04,0.2,1.97,1.13,2.58c0.86,0.55,1.63,0.23,2.16-0.47
		c2.07-2.7,5.3-3.73,7.94-5.58C446.28,314.89,448.14,313.19,450.63,312.77z M481.89,308.9c-0.08-2.76-2.99-3.9-6.11-2.27
		c-1.43,0.75-2.65,1.91-4.06,2.71c-0.81,0.46-2.61-0.87-2.54,1.2c0.06,1.64,1.66,1.21,2.68,1.57c1.09,0.39,2.1,1.01,3.19,1.34
		C478.03,314.37,481.98,311.7,481.89,308.9z M497.07,375.41c-4.13-0.12-7.33,0.45-9.45,3.59c-1.37,2.02,0.04,3.82,1.07,5.4
		c0.54,0.82,1.96,0.81,2.63-0.03c1.84-2.31-1.94-2.02-1.81-4.25C492.81,380.45,495.01,378.62,497.07,375.41z M428.8,324.02
		c-1.83,0.24-2.95,1.16-2.7,2.62c0.37,2.22,1.44,4.53,3.71,5.11c1.96,0.5,4-1.72,3.7-3.04C433.01,326.5,430.56,325.25,428.8,324.02z
		 M462.78,377.89c3.67-1.09,1.39-5.57,3.73-7.71c0.76-0.69-0.83-2.32-1.96-2.04c-3.27,0.82-2.86,4.46-4.41,6.65
		C459.33,375.93,460.58,377.57,462.78,377.89z M487.51,341.96c1.92-0.04,3.99,0.09,4.26-2.4c0.17-1.52-0.99-2.76-2.45-2.37
		c-1.91,0.5-4.8,0.21-5.07,3.02C484.03,342.53,486.26,341.72,487.51,341.96z M450.14,393.94c2.36,0.06,3.74-0.76,3.77-3.08
		c0.02-1.32-0.06-3.25-1.83-2.56c-1.79,0.69-3.72,2.21-4.52,3.87C446.95,393.44,449.04,393.86,450.14,393.94z M461.83,317.69
		c-0.12-1.92-1.22-2.66-2.91-2.66c-1.72,0-2.77,0.89-2.89,2.63c-0.1,1.39,0.23,2.9,1.85,2.89
		C459.72,320.55,461.32,319.67,461.83,317.69z M490.7,354.64c-0.16,1.6-1.38,4,1.57,4.03c2.56,0.03,1.59-2.42,1.63-3.84
		c0.03-1.43,0.83-3.8-1.87-3.61C490.07,351.37,489.95,352.98,490.7,354.64z M422.9,311.58c-1.07-1.74-2.17-3.87-4.43-5
		c-0.16-0.08-0.81,0.82-1.23,1.26c1.79,1.69,0.63,5.34,3.87,5.99C422.25,314.06,422.83,313.14,422.9,311.58z M430.96,308.06
		c-0.12-1.24,0.27-3.01-1.72-2.84c-1.62,0.13-3.54,1.24-3.62,2.71c-0.07,1.43,1.5,2.85,3.35,2.9
		C430.82,310.87,430.93,309.45,430.96,308.06z M428.16,380.9c2.65-0.13,1.46-3.47,3.23-4.67c0.54-0.36-0.73-1.4-1.5-1.13
		c-1.91,0.67-4.14,1.37-4.64,3.55C424.93,380.07,426.37,380.81,428.16,380.9z M458.76,330.44c-0.49,2.04-3.22,3.92-0.43,6.04
		c0.88,0.67,1.99,0.52,2.68-0.33C463.26,333.39,460.29,332.2,458.76,330.44z M477.82,293.17c-0.38-1.67-1.61-2.19-3.24-2.19
		c-1.49,0-2.66,0.41-2.51,2.17c0.15,1.81,1.56,2.52,3.08,2.44C476.4,295.52,477.71,294.92,477.82,293.17z M478.74,377.52
		c1.73-0.82,1.02-2.49,1.84-3.51c0.71-0.87,2.75-1.18,1.66-2.99c-0.57-0.94-1.59-1.17-2.59-0.75c-1.67,0.7-1.76,2.21-1.69,3.73
		C478.02,375.1,477.67,376.29,478.74,377.52z M463.64,386.01c-0.33-1.66-1.51-2.05-2.92-1.98c-1.49,0.07-2.57,0.85-2.59,2.38
		c-0.02,1.51,0.93,2.51,2.49,2.37C462.23,388.63,463.19,387.54,463.64,386.01z M439.6,393.64c-0.72,1.63-0.19,2.68,1.33,3.1
		c1.25,0.34,2.96-0.74,2.48-1.38c-1.23-1.64,0.52-4.48-1.6-5.03C439.24,389.66,440.44,392.63,439.6,393.64z M424.69,333.18
		c-0.31-1.58-1.17-2.84-2.85-2.87c-1.21-0.02-2.32,1.05-2.26,2.23c0.07,1.47,0.77,3,2.56,3.22
		C423.94,335.99,424.14,334.4,424.69,333.18z M404.03,354.15c-1.43,1.08-1.89,3.05-2.64,4.72c-0.43,0.96,0.7,1.95,1.72,1.86
		c2.76-0.25,2.12-2.86,2.72-4.52C406.16,355.28,405.71,354.25,404.03,354.15z M464.62,321.78c0.94-1.73,1.16-2.34,1.55-2.8
		c0.51-0.61,1.26-1.02,1.72-1.66c1.4-1.92-0.48-4.21-2.43-2.93C463.13,315.94,463.91,318.23,464.62,321.78z M444.82,333.83
		c0.01-1.64-0.75-2.75-2.32-2.68c-1.61,0.07-2.21,1.52-2.17,2.86c0.04,1.3,0.56,2.85,2.26,2.72
		C444.19,336.61,444.38,335,444.82,333.83z M469.81,344.73c-0.14-1.45-1.04-1.83-2.1-1.68c-1.67,0.23-3.37,0.63-3.64,2.71
		c-0.14,1.09,0.3,2.2,1.57,1.97C467.44,347.39,468.86,346.26,469.81,344.73z M448.76,330.85c1.62,0.05,2.26-0.79,2.12-2.14
		c-0.15-1.47-0.47-3.12-2.17-3.45c-1.65-0.32-1.71,1.14-1.71,2.29C446.99,328.98,446.69,330.65,448.76,330.85z M448.98,382.48
		c-0.21-1.23,0.46-3.06-1.4-3.19c-1.94-0.13-1.55,1.69-1.6,2.91c-0.05,1.33-0.01,3.06,1.55,3.18
		C449.61,385.54,448.65,383.54,448.98,382.48z M405.88,378.35c-0.25-1.25-0.94-2.26-2.52-2.24c-1.07,0.02-1.97,0.59-2.02,1.7
		c-0.07,1.51,1.07,2.46,2.32,2.75C405,380.88,405.65,379.8,405.88,378.35z M470.9,364.86c-0.04-1.23-0.42-2.37-1.78-2.53
		c-1.44-0.16-2.04,0.95-2.02,2.18c0.02,1.26,0.8,2.15,2.13,2.25C470.55,366.86,470.86,365.95,470.9,364.86z M492.61,308.83
		c-0.35-1.35-1.31-1.81-2.56-1.8c-1.08,0.01-2.02,0.36-1.89,1.64c0.15,1.54,1.15,2.31,2.69,2.1
		C491.91,310.63,492.6,309.97,492.61,308.83z M408.47,305.12c-1.28,0.1-2.16,0.74-2.34,2.03c-0.18,1.29,0.4,2.33,1.75,2.41
		c1.42,0.08,1.89-1.06,2-2.27C409.98,306.25,409.74,305.33,408.47,305.12z M486.26,349.09c-1.03,0.16-1.95,0.66-1.92,1.8
		c0.05,1.7,1.37,2.04,2.77,2c1.17-0.04,1.86-0.67,1.62-1.88C488.49,349.74,487.62,349.09,486.26,349.09z M415.51,319.88
		c2.54,1.24,3.34,3.77,5.97,3.64c0.62-0.03,1.15-0.76,0.76-1.47C420.93,319.66,418.64,319.75,415.51,319.88z M475.2,323.86
		c1.21-0.13,1.7-0.85,1.65-2c-0.05-1.19-0.72-1.78-1.88-1.78c-1.5,0-2.03,0.91-1.88,2.25C473.22,323.54,474.08,323.92,475.2,323.86z
		 M401.85,366.99c0-1.15-0.5-1.87-1.72-1.92c-1.12-0.05-1.94,0.37-2.05,1.58c-0.12,1.37,0.47,2.21,1.95,2.18
		C401.22,368.8,401.82,368.18,401.85,366.99z M414.64,339.58c-0.52-1.03-1.33-1.74-2.66-1.43c-1.03,0.24-1.88,0.92-1.65,2.04
		c0.27,1.28,1.3,1.85,2.6,1.57C413.97,341.54,414.67,340.89,414.64,339.58z M437.67,325.11c-1.11,0.08-1.66,0.64-1.53,1.61
		c0.22,1.6,1.36,2.19,2.85,2.17c0.89-0.01,1.82-0.32,1.48-1.4C440.05,326.17,439.01,325.32,437.67,325.11z M415.52,368.67
		c0.24-0.96-0.19-1.5-1.16-1.61c-1.65-0.19-2.39,0.65-2.37,2.23c0.01,0.94-0.11,2.26,1.19,2.19
		C414.67,371.41,414.96,369.85,415.52,368.67z M379.82,330.18c-0.39-1.18-0.58-2.62-2.15-2.97c-1.02-0.23-1.5,0.49-1.62,1.4
		c-0.22,1.65,0.81,2.42,2.17,2.88C379.3,331.85,379.71,331.21,379.82,330.18z M472,369.01c-1.09,0.06-2.04,0.4-1.8,1.72
		c0.24,1.33,1.45,1.76,2.58,1.87c1.13,0.11,1.91-0.64,1.77-1.8C474.37,369.4,473.24,369.06,472,369.01z M450.88,335.3
		c-1.12,0.24-1.72,0.93-1.74,2.01c-0.02,1.27,0.85,1.6,1.92,1.57c1.13-0.03,1.85-0.58,1.69-1.79
		C452.61,336.05,452,335.36,450.88,335.3z M490.87,317.28c-1.12,0.25-1.7,0.95-1.72,2.03c-0.02,1.27,0.86,1.6,1.93,1.57
		c1.14-0.04,1.84-0.6,1.67-1.81C492.59,318.04,491.99,317.33,490.87,317.28z M469.8,329.93c-0.26-0.57-0.57-1.54-1.73-1.61
		c-1.14-0.07-1.76,0.71-1.91,1.75c-0.17,1.2,0.52,1.77,1.67,1.81C468.91,331.91,469.74,331.58,469.8,329.93z M399.79,357.49
		c-0.1-1.32-1.17-1.78-2.26-2.09c-1.07-0.3-1.43,0.48-1.49,1.35c-0.07,1.06,0.29,1.95,1.5,2.09
		C398.56,358.97,399.5,358.82,399.79,357.49z M444.86,365.93c0.66-0.14,1.7-0.07,1.63-1.2c-0.07-1.15-1.03-1.6-2.07-1.68
		c-0.78-0.06-1.85-0.17-1.96,0.9C442.31,365.49,443.56,365.73,444.86,365.93z M479.77,361.44c-0.13-1.32-1.09-1.47-2.11-1.4
		c-0.89,0.06-1.57,0.5-1.53,1.49c0.04,1.06,0.47,1.97,1.73,1.76C478.83,363.12,479.72,362.65,479.77,361.44z M449.8,346.91
		c0.67-0.09,1.73,0.07,1.71-1.09c-0.01-1.17-0.98-1.65-2.01-1.76c-0.98-0.1-2.22-0.11-2.06,1.3
		C447.56,346.43,448.61,346.86,449.8,346.91z M419.34,374.93c0.63-2.04,1.35-3.59-0.55-4.67c-0.28-0.16-1.09,0.06-1.24,0.33
		C416.58,372.34,417.54,373.5,419.34,374.93z M454.01,380.78c1.12,0.12,1.74-0.36,1.8-1.28c0.07-1.06-0.49-1.95-1.54-2.15
		c-1.11-0.21-1.89,0.47-1.94,1.58C452.27,380.09,453.13,380.58,454.01,380.78z M476.65,339.79c-0.28-0.4-0.88-0.8-1.8-0.76
		c-0.93,0.05-1.69,0.45-1.66,1.41c0.04,1.3,1.08,1.53,2.13,1.41C476.21,341.76,476.84,341.27,476.65,339.79z M473.72,381.06
		c-0.43,0.08-1.31,0.09-1.49,1.15c-0.18,1.03,0.45,1.54,1.35,1.64c1.04,0.11,2.09-0.07,2.15-1.38
		C475.77,381.52,475.06,381.06,473.72,381.06z M391.08,341.9c-1.2,1.69-2.21,2.89-1.32,4.59c0.11,0.21,1.06,0.29,1.29,0.08
		C392.49,345.24,392.12,343.83,391.08,341.9z M474.98,332.9c0.89-0.01,1.75-0.27,1.57-1.3c-0.15-0.89-0.42-2.11-1.61-2.09
		c-1.17,0.02-1.46,1.24-1.58,2.13C473.23,332.65,474.11,332.9,474.98,332.9z M478,345.17c-1.29-2.22-2.61-2.54-4.14-1.86
		c-0.75,0.33-0.61,1.08-0.16,1.65C474.98,346.55,476.29,345.12,478,345.17z M459.79,368.96c1.41-1.55,1.91-2.86,1.55-4.79
		C458.68,365.16,458.64,366.61,459.79,368.96z M445.53,357.54c-0.44-1-1.17-1.54-2.3-1.38c-0.8,0.11-1.14,0.72-1.05,1.38
		c0.18,1.26,1.17,1.38,2.22,1.29C445.18,358.76,445.52,358.29,445.53,357.54z M443.91,281.89c0.91,0.01,1.75-0.24,1.58-1.31
		c-0.13-0.85-0.87-1.36-1.78-1.43c-1-0.08-1.6,0.45-1.54,1.42C442.23,281.55,443.01,281.87,443.91,281.89z M437.78,381.44
		c-0.16-0.97-0.74-1.41-1.71-1.28c-0.9,0.12-1.63,0.65-1.67,1.53c-0.06,1.08,0.87,1.22,1.73,1.2
		C437.06,382.85,437.68,382.44,437.78,381.44z M380.1,306.73c0.36-0.93,0.26-1.66-0.92-1.63c-0.89,0.02-1.58,0.59-1.82,1.42
		c-0.26,0.89,0.18,1.68,1.04,1.95C379.93,308.94,379.8,307.57,380.1,306.73z M486.91,313.04c-0.9,0.02-1.67,0.33-1.74,1.31
		c-0.07,0.96,0.51,1.49,1.52,1.43c0.91-0.06,1.65-0.56,1.78-1.41C488.65,313.32,487.82,313.05,486.91,313.04z M398.87,291.72
		c0.04-1-0.5-1.57-1.41-1.61c-0.92-0.03-1.51,0.51-1.43,1.49c0.09,1.06,0.64,1.9,1.75,1.88
		C398.84,293.46,398.87,292.51,398.87,291.72z M482.15,334.38c0.13-1.62,0.43-3.31-1.44-4.06c-0.19-0.07-0.7,0.21-0.8,0.44
		C479.06,332.8,480.92,333.4,482.15,334.38z M385.53,352.29c-0.43-0.68-0.42-1.95-1.73-1.8c-0.77,0.09-0.79,0.87-0.77,1.51
		c0.04,1.07,0.41,1.9,1.68,1.75C385.47,353.65,385.71,353.1,385.53,352.29z M440.59,353.83c-0.18-0.9-0.66-1.52-1.59-1.53
		c-0.95-0.02-1.51,0.6-1.58,1.48c-0.06,0.81,0.65,1.06,1.31,1.1C439.54,354.92,440.37,354.88,440.59,353.83z M492.18,365.1
		c-0.87,0.15-1.67,0.53-1.53,1.52c0.13,0.96,1.03,1.24,1.89,1.18c0.71-0.05,1.24-0.53,1.23-1.28
		C493.76,365.54,493.19,365.06,492.18,365.1z M435.13,395.11c-0.91,0.12-1.66,0.66-1.76,1.5c-0.13,1.08,0.73,1.38,1.65,1.14
		c0.83-0.21,1.54-0.72,1.53-1.68C436.54,395.19,435.82,395.11,435.13,395.11z M422.6,277c-0.14-1.06-0.99-1.07-1.78-1.04
		c-0.86,0.03-1.69,0.34-1.48,1.39c0.16,0.82,0.8,1.43,1.74,1.33C421.99,278.58,422.37,277.86,422.6,277z M425.8,317.13
		c-0.12-0.91-0.65-1.67-1.5-1.76c-1.08-0.12-1.38,0.73-1.14,1.65c0.21,0.84,0.72,1.54,1.69,1.52
		C425.74,318.53,425.81,317.82,425.8,317.13z M402.63,325.29c-0.07-0.83-0.59-1.23-1.3-1.14c-0.97,0.12-1.32,0.88-1.28,1.78
		c0.03,0.64,0.03,1.49,0.91,1.45C402.19,327.32,402.24,326.11,402.63,325.29z M462.89,305.71c-0.17-0.84-0.44-1.71-1.52-1.21
		c-0.48,0.22-0.97,0.9-1.04,1.43c-0.13,0.92,0.56,1.57,1.43,1.57C462.85,307.49,462.85,306.53,462.89,305.71z M494.59,328.18
		c-0.01-0.9-0.66-1.07-1.34-1.06c-0.91,0.01-1.68,0.53-1.84,1.38c-0.21,1.07,0.56,1.43,1.52,1.27
		C493.81,329.62,494.4,329.09,494.59,328.18z M488.78,358.42c-0.11-0.73-0.5-1.24-1.25-1.25c-0.69-0.01-1.3,0.27-1.36,1.09
		c-0.07,1.01,0.45,1.53,1.44,1.49C488.4,359.71,488.68,359.12,488.78,358.42z M401.76,373.35c-0.09-0.77-0.61-1.22-1.3-1.19
		c-0.96,0.05-1.47,0.65-1.24,1.66c0.18,0.76,0.76,1.01,1.48,0.92C401.51,374.64,401.72,374.05,401.76,373.35z M451.68,364.64
		c0.9,0.09,1.49-0.27,1.6-0.98c0.16-1.03-0.63-1.42-1.48-1.55c-0.69-0.11-1.39,0.04-1.44,0.89
		C450.3,363.95,450.94,364.45,451.68,364.64z M471.73,339.23c-0.12-0.8-0.69-1.07-1.39-1.05c-0.77,0.02-1.22,0.59-1.18,1.28
		c0.05,0.95,0.65,1.47,1.65,1.24C471.58,340.53,471.81,339.96,471.73,339.23z M426.22,341.18c-0.8,0.12-1.08,0.69-1.05,1.39
		c0.03,0.78,0.6,1.22,1.29,1.18c0.96-0.05,1.47-0.65,1.24-1.66C427.52,341.34,426.95,341.11,426.22,341.18z M452.97,281.51
		c-0.91,0.1-0.92,0.79-0.93,1.44c0,0.65,0.02,1.43,0.9,1.44c0.88,0.01,0.93-0.77,0.93-1.42
		C453.87,282.33,453.84,281.64,452.97,281.51z M436.8,361.51c-0.08-0.68-0.29-1.29-1.08-1.35c-0.67-0.05-1.45,0.09-1.3,0.94
		c0.09,0.52,0.62,1.16,1.11,1.37C436.17,362.75,436.73,362.34,436.8,361.51z M456.52,308.79c0.81-0.05,1.25-0.59,0.97-1.26
		c-0.21-0.5-0.84-1.03-1.37-1.13c-0.86-0.16-1.01,0.63-0.97,1.3C455.22,308.5,455.82,308.73,456.52,308.79z M392.79,324.51
		c-0.07-0.68-0.29-1.29-1.08-1.35c-0.67-0.05-1.45,0.09-1.3,0.94c0.09,0.52,0.62,1.16,1.11,1.37
		C392.17,325.75,392.73,325.34,392.79,324.51z M455.54,277.1c-0.75,0.04-1.39,0.43-1.19,1.16c0.14,0.53,0.77,1.14,1.3,1.29
		c0.74,0.21,1.18-0.45,1.14-1.18C456.75,277.65,456.26,277.22,455.54,277.1z M417.42,339.6c0.28-0.3,0.88-0.67,1.07-1.19
		c0.25-0.69-0.15-1.26-0.97-1.26c-0.7-0.01-1.3,0.27-1.37,1.06C416.1,338.88,416.23,339.52,417.42,339.6z M384.87,357.4
		c-0.83-0.54-1.29-1.03-1.84-1.15c-0.7-0.16-1.36,0.3-1.44,1.01c-0.11,0.98,0.57,1.55,1.5,1.39
		C383.62,358.55,384.07,357.98,384.87,357.4z M411.46,384.04c0.01-0.84-0.67-0.93-1.31-1c-0.66-0.07-1.4,0.02-1.58,0.75
		c-0.22,0.94,0.63,0.99,1.24,1.07C410.47,384.95,411.1,384.81,411.46,384.04z M459.1,342.03c-0.68-0.03-1.42,0.02-1.6,0.76
		c-0.23,0.94,0.63,1,1.26,1.08c0.66,0.09,1.42-0.01,1.6-0.75C460.58,342.18,459.71,342.19,459.1,342.03z M388.29,360.85
		c-0.35-0.6-0.47-1.71-1.56-1.26c-0.37,0.15-0.69,1.11-0.57,1.58c0.12,0.47,0.81,1.08,1.28,1.11
		C388.16,362.32,388.47,361.66,388.29,360.85z M448.24,348.59c-0.68,0.27-1.21,0.79-0.99,1.47c0.17,0.53,0.79,1.3,1.19,1.29
		c0.92-0.02,1.41-0.8,1.21-1.73C449.52,348.94,449.01,348.52,448.24,348.59z M464.85,359.46c-0.08-0.73-0.43-1.28-1.2-1.13
		c-0.39,0.08-0.89,0.52-1.01,0.9c-0.22,0.73,0.28,1.25,0.99,1.36C464.4,360.71,464.77,360.19,464.85,359.46z M412.86,287.3
		c-0.08-0.77-0.58-1.25-1.25-1.01c-0.47,0.17-0.76,0.84-1.13,1.29c0.47,0.36,0.91,0.97,1.42,1.04
		C412.75,288.74,412.81,287.94,412.86,287.3z M477.24,335.13c-0.78,0.16-1.16,0.63-0.82,1.36c0.18,0.38,0.89,0.93,0.98,0.86
		c0.47-0.33,1.08-0.8,1.16-1.29C478.69,335.23,477.92,335.13,477.24,335.13z M389.64,339.64c-0.2-0.69-0.65-1.18-1.38-1.01
		c-0.69,0.16-1.14,0.75-0.86,1.46c0.14,0.34,0.69,0.69,1.08,0.72C389.19,340.87,389.65,340.44,389.64,339.64z M406.77,299.51
		c-0.36-0.28-0.84-0.97-1.3-0.95c-0.45,0.02-1.12,0.7-1.23,1.19c-0.16,0.72,0.53,1.1,1.23,1.11
		C406.15,300.88,406.69,300.59,406.77,299.51z M389.5,282.18c-0.28,0.35-0.99,0.85-0.95,1.27c0.05,0.47,0.72,1.1,1.24,1.23
		c0.71,0.18,1.16-0.48,1.15-1.16C390.94,282.83,390.52,282.33,389.5,282.18z M383.72,331.97c0.32-0.21,1.02-0.43,1.29-0.89
		c0.44-0.78-0.25-1.19-0.9-1.14c-0.58,0.04-1.42,0.28-1.65,0.69C382.1,331.3,382.73,331.74,383.72,331.97z M422.67,350.38
		c-0.14-1.17-0.78-1.37-1.43-1.21c-0.36,0.09-0.95,0.73-0.89,0.86c0.25,0.52,0.68,1.24,1.11,1.29
		C421.87,351.36,422.36,350.65,422.67,350.38z M462.99,351.61c0.81-0.22,1-0.84,0.76-1.5c-0.14-0.36-0.66-0.81-1-0.8
		c-0.68,0.02-1.23,0.53-1.16,1.26C461.66,351.3,462.27,351.6,462.99,351.61z M453.6,354.98c0-0.72-0.31-1.32-1.03-1.39
		c-0.72-0.07-1.23,0.49-1.26,1.16c-0.01,0.33,0.45,0.86,0.81,0.99C452.76,355.98,453.39,355.8,453.6,354.98z M425.2,295.02
		c0.47,0.76,1.03,1.07,1.67,0.71c0.33-0.18,0.75-0.81,0.66-1.05c-0.24-0.65-0.91-0.91-1.56-0.59
		C425.63,294.26,425.43,294.73,425.2,295.02z M407.18,373.95c0.53-0.28,1.17-0.4,1.26-0.7c0.24-0.76-0.34-1.17-1.02-1.11
		c-0.35,0.03-0.86,0.43-0.94,0.75C406.43,373.15,406.9,373.54,407.18,373.95z M430.2,338.95c0.53-0.27,1.17-0.4,1.26-0.69
		c0.24-0.75-0.33-1.17-1.01-1.11c-0.35,0.03-0.86,0.43-0.94,0.75C429.44,338.15,429.91,338.55,430.2,338.95z M404.59,273.08
		c0.19-0.66-0.29-0.86-0.75-0.97c-0.65-0.15-1.34-0.05-1.51,0.69c-0.06,0.26,0.39,0.82,0.73,0.96
		C403.7,274.01,404.29,273.77,404.59,273.08z M439.95,339.15c-0.43-0.28-0.84-0.74-1.09-0.66c-0.33,0.1-0.71,0.62-0.73,0.98
		c-0.04,0.68,0.4,1.23,1.14,0.96C439.58,340.31,439.68,339.69,439.95,339.15z M429.79,348.04c-0.5-0.4-0.81-0.83-1.15-0.86
		c-0.39-0.03-1.09,0.2-1.17,0.48c-0.24,0.76,0.33,1.16,1.02,1.12C428.86,348.76,429.21,348.38,429.79,348.04z M411.3,350.93
		c-0.34,0.38-0.85,0.7-0.83,1c0.01,0.3,0.51,0.77,0.85,0.82c0.63,0.09,1.34-0.15,1.13-1C412.36,351.44,411.77,351.25,411.3,350.93z
		 M466.86,291.72c0.28-0.24,0.74-0.44,0.89-0.78c0.27-0.63,0.09-1.32-0.58-1.56c-0.24-0.09-0.85,0.33-1.02,0.65
		C465.84,290.65,466.1,291.24,466.86,291.72z M486.81,371.97c-0.54-0.38-0.87-0.8-1.21-0.81c-0.39-0.01-1.05,0.27-1.13,0.55
		c-0.23,0.8,0.42,1.12,1.09,1.06C485.92,372.74,486.25,372.35,486.81,371.97z M442.56,277.32c-0.05-1.02-0.65-1.26-1.3-1.16
		c-0.35,0.06-0.86,0.5-0.9,0.82c-0.09,0.81,0.59,1.06,1.23,0.98C441.97,277.91,442.3,277.51,442.56,277.32z M393.02,273.32
		c-0.44-0.5-0.67-1-1.02-1.1c-0.72-0.2-1.31,0.24-1.52,0.91c-0.24,0.73,0.18,1.4,0.92,1.33
		C391.92,274.41,392.38,273.8,393.02,273.32z M413.84,306.22c-0.39-0.34-0.67-0.59-0.96-0.85c-0.27,0.31-0.71,0.6-0.76,0.94
		c-0.04,0.26,0.41,0.59,0.64,0.9C413.07,306.92,413.39,306.64,413.84,306.22z M454.57,372.7c-0.28-0.12-0.62-0.4-0.82-0.32
		c-0.2,0.08-0.26,0.51-0.38,0.79c0.28,0.12,0.62,0.4,0.81,0.32C454.39,373.41,454.45,372.98,454.57,372.7z M435.67,278.08
		c-0.15-0.26-0.24-0.67-0.43-0.71c-0.23-0.06-0.67,0.12-0.77,0.32c-0.24,0.49,0,0.9,0.56,0.91
		C435.24,278.59,435.45,278.27,435.67,278.08z M408.11,274.26c-0.3,0.22-0.67,0.36-0.72,0.57c-0.05,0.23,0.15,0.7,0.34,0.76
		c0.53,0.18,0.94-0.11,0.89-0.69C408.61,274.68,408.29,274.48,408.11,274.26z M467.59,351.23c-0.11-0.28-0.16-0.72-0.35-0.81
		c-0.2-0.09-0.55,0.18-0.84,0.29c0.11,0.29,0.16,0.72,0.36,0.81C466.95,351.61,467.3,351.34,467.59,351.23z M450.34,323.23
		c0.28,0.12,0.62,0.4,0.82,0.32c0.2-0.08,0.26-0.51,0.38-0.79c-0.28-0.12-0.62-0.4-0.82-0.32
		C450.52,322.52,450.46,322.95,450.34,323.23z M394.57,320.68c-0.28-0.12-0.62-0.4-0.82-0.32c-0.2,0.08-0.26,0.51-0.39,0.79
		c0.28,0.12,0.62,0.4,0.81,0.32C394.38,321.39,394.45,320.96,394.57,320.68z M420.59,345.23c-0.11-0.28-0.15-0.72-0.35-0.8
		c-0.2-0.09-0.55,0.18-0.83,0.28c0.11,0.28,0.15,0.72,0.35,0.8C419.95,345.6,420.3,345.34,420.59,345.23z M394.54,346.68
		c-0.28-0.12-0.56-0.24-0.84-0.36c-0.12,0.28-0.4,0.62-0.32,0.83c0.08,0.2,0.52,0.26,0.8,0.38
		C394.3,347.25,394.42,346.97,394.54,346.68z M410.68,283.35c-0.12,0.28-0.4,0.62-0.32,0.83c0.08,0.2,0.52,0.26,0.8,0.38
		c0.12-0.28,0.4-0.62,0.32-0.83C411.4,283.53,410.96,283.47,410.68,283.35z M425.75,290.59c-0.4-0.1-0.77-0.27-1.14-0.26
		c-0.12,0-0.35,0.67-0.31,0.7c0.32,0.21,0.69,0.34,1.04,0.49C425.47,291.27,425.58,291.01,425.75,290.59z M398,382.49
		c-0.2-0.37-0.33-0.62-0.47-0.88c-0.21,0.31-0.52,0.61-0.6,0.95c-0.05,0.21,0.24,0.5,0.38,0.76
		C397.55,383.04,397.78,382.75,398,382.49z M478.65,366.79c-0.23-0.19-0.46-0.38-0.68-0.57c-0.09,0.25-0.23,0.49-0.26,0.74
		c-0.01,0.08,0.28,0.31,0.35,0.28C478.27,367.14,478.45,366.95,478.65,366.79z M454.36,293.41c-0.16-0.28-0.26-0.64-0.49-0.8
		c-0.13-0.09-0.49,0.13-0.74,0.22c0.12,0.29,0.16,0.71,0.37,0.82C453.69,293.74,454.06,293.51,454.36,293.41z"/>
	<path class="st3" d="M392.93,230.14c20.62,0.9,41.25,0.84,61.88,0.85c9.05,0,18.09,0.23,27.08-2.74c-2.33,6.58-1.5,8.73,4.01,12.74
		c3.99,2.9,8.14,5.73,11.57,9.23c3.37,3.44,3.85,8.2,3.51,12.98c-0.36,5.03-0.54,10.06-2.03,14.92c-1.28-0.33-3-0.25-3.76-1.06
		c-5.28-5.68-12.66-3.85-18.95-4.78c-6.04-0.89-11.97-3.95-18.37-2.34c-0.8,0.2-1.51-0.44-2.04-1.17c-2.45-3.37-5.89-3.48-9.4-2.46
		c-1.82,0.53-2.85,0.49-4.21-1.1c-2.96-3.44-6.64-2.95-9.66-0.23c-2.12,1.91-3.34,3.27-6.48,1.31c-2.24-1.4-5.49-0.9-8.07,0.7
		c-0.42,0.01-0.84,0.03-1.26,0.04c-1.48,0.14-2.43-0.51-3.27-1.75c-2.62-3.87-6.32-3.8-9.49-1.37c-2.64,2.02-4.05,1.57-6.23-0.41
		c-1.39-1.27-3.74-2.44-5.51-1.12c-3.56,2.66-7.34,2.03-11.2,1.62c-0.37-0.03-0.74-0.05-1.11-0.08c0.57-0.6,1.46-1.11,1.65-1.8
		c1.93-7.2,5.13-13.96,7.21-21.07C389.91,237.27,393.83,234.61,392.93,230.14z"/>
	<path class="st4" d="M342.83,373c-1.83-4.11-0.65-8.44-0.81-12.66c-0.22-5.78-0.07-11.58-0.08-17.38c0.02-6,0.03-12.01,0.05-18.01
		c1.32,0.35,2.02,2.49,3.78,1.39c0.44-0.27,0.88-1.15,0.76-1.6c-0.58-2.14-2.43-1.72-4.02-1.76c-0.16,0-0.33,0.01-0.49,0.02
		c-0.03-1.03-0.06-2.06-0.09-3.09c0-6.97,0.01-13.94,0.01-20.91c0.02-2.03,0.05-4.05,0.07-6.08c4.64,0.81,9.66-1.04,13.97,2.04
		c0.33,0.32,0.65,0.65,0.98,0.97c0.3,0.68,0.57,1.49,1.5,1.31c0.24-0.04,0.35-0.75,0.52-1.15c0.28-0.29,0.57-0.58,0.85-0.86
		c0.01,1.23,0.02,2.46,0.03,3.69c-2.54,16.52-2.42,32.91,2.23,49.11c-0.28,1.16,0.36,2.02,0.95,2.9c0.46,4.16,1.74,7.98,3.63,11.78
		c2.58,5.17,4.47,10.67,6.65,16.03c-1.1,0.4-2.73-0.18-3.12,1.55c-0.15,0.66,0.2,1.24,0.9,1.45c1.78,0.53,2.71-0.25,3-1.99
		c1.32,1.74,2.64,3.48,3.97,5.22c-0.4,1.34-2.73,0.41-2.73,2.32c1.42,1.4,3.12,0.3,4.65,0.55c1.61,4.69,6.69,7.04,8.03,11.91
		c0,0-0.13,0.42-0.13,0.42c-2.63-0.05-5.26-0.1-7.89-0.15c-1.79-1.87-4.09-0.79-6.15-1.04c-12.94-1.61-22.4-8.73-29.93-18.9
		C343.57,377.71,344.96,375.09,342.83,373z M348.02,358.85c-0.96,0.56-1.44,1.37-0.78,2.36c0.13,0.2,1.1-0.18,1.69-0.28
		c0.12,1.44-0.14,3.11,1.81,3.57c0.27,0.06,0.91-0.44,1.01-0.79c0.43-1.53-0.03-2.6-1.8-2.74
		C349.64,359.95,350.68,357.72,348.02,358.85z M377.86,392.67c-0.63-0.7-1.16-1.98-2.28-1.3c-0.9,0.55-0.33,1.4,0.44,1.91
		c0.09,0.61,0.26,1.34,1,1.23C378.07,394.36,377.82,393.4,377.86,392.67z M349.99,375.91c0.75,0.06,1.86,0.13,1.68-0.83
		c-0.25-1.31-1.08-0.06-1.66-0.03c-0.11-0.58-0.13-1.5-0.89-1.31c-1.1,0.28-1.35,1.4-0.92,2.3
		C348.7,377.05,349.44,376.65,349.99,375.91z M349.05,367.06c-0.26-0.55-0.52-1.1-0.78-1.65c-0.37,0.21-0.98,0.35-1.06,0.64
		c-0.42,1.53,0.56,2.31,1.78,2.9c0.79-0.09,1.81-0.04,1.64-1.21C350.52,366.98,349.71,367.01,349.05,367.06z M361.9,390.11
		c0.69-0.39,1.83-0.88,1.27-1.67c-0.69-1-2.07-0.4-3.16-0.38c-0.77-1.1-1.59-1.04-2.37-0.05c-0.61,0.77-0.49,1.59,0.25,2.18
		C359.22,391.21,360.59,391.35,361.9,390.11z M357.12,375.99c-1.69,0.13-4.15-0.32-3.65,2.41c0.39,2.12,2.21,1.13,3.53,0.54
		c1.23,0.48,3.01,2.07,3.53-0.01C360.97,377.2,359.47,375.6,357.12,375.99z M351.93,306.94c1.77-0.3,3.6-0.57,4.33-2.53
		c0.09-0.24-0.72-1.14-1.21-1.22c-1.73-0.3-3.72-0.89-4.12,1.86c-1.38-0.06-2.32,0.63-1.74,1.94
		C349.91,308.62,351,307.18,351.93,306.94z M373.91,386.9c-0.01-0.91,0.36-2.14-0.63-2.54c-1.3-0.53-1.9,0.67-2.44,1.64
		c-1.09-0.97-2.73-3.29-3.32-0.33c-0.43,2.17,1.89,4.66,4.26,5.07C374.62,391.23,373.72,388.51,373.91,386.9z M353.9,333.12
		c-0.13-1.65,0.83-3.93-2.08-4.05c-1.88-0.08-3.19,1.17-3.6,2.81c-0.77,3.04,0.89,4.22,3.78,4.06
		C353.92,335.87,353.96,334.52,353.9,333.12z M353.93,317c0.01-0.81,0.05-1.63,0.02-2.44c-0.05-1.6,0.28-3.61-2.2-3.48
		c-2.68,0.14-3.52,2.35-3.56,4.47c-0.03,1.97,1.54,3.1,3.55,3.36c0.33,0.67,0.39,1.99,1.39,1.56
		C354.64,319.8,353.71,318.19,353.93,317z M365.9,374.06c-0.06-0.83-0.13-1.7-1.18-1.86c-1-0.16-1.56,0.39-1.58,1.36
		c-0.02,0.89,0.42,1.64,1.29,1.89C365.55,375.77,365.79,374.94,365.9,374.06z M349.62,351.02c-0.3-0.79-0.98-1.09-1.86-1
		c-0.64,0.06-1.41,0.15-1.4,1.02c0.01,0.93,0.59,1.5,1.51,1.57C348.84,352.68,349.31,352.02,349.62,351.02z M362.45,384.96
		c-0.11-0.89-0.8-0.92-1.45-0.92c-0.65,0-1.43,0.04-1.43,0.92c-0.01,0.89,0.78,0.91,1.43,0.91
		C361.65,385.87,362.33,385.83,362.45,384.96z M363.61,362.59c0.33-0.73,0.04-1.25-0.66-1.47c-0.81-0.25-1.61-0.14-2.09,0.66
		c-0.48,0.8,0.2,1.13,0.74,1.43C362.46,363.68,363.11,363.34,363.61,362.59z M355.54,355.13c-0.7,0.05-1.31,0.27-1.38,1.07
		c-0.06,0.67,0.07,1.47,0.94,1.33c0.53-0.09,1.17-0.62,1.39-1.11C356.78,355.75,356.36,355.19,355.54,355.13z M355.53,340.32
		c-1.05,0.03-1.44,0.51-1.42,1.23c0.03,0.73,0.52,1.21,1.24,1.24c0.72,0.03,1.36-0.39,1.19-1.13
		C356.42,341.12,355.82,340.69,355.53,340.32z M352.63,342.64c-0.21-0.69-0.65-1.18-1.38-1.01c-0.7,0.16-1.14,0.75-0.86,1.46
		c0.13,0.34,0.69,0.69,1.08,0.72C352.17,343.87,352.65,343.44,352.63,342.64z M361.66,352.74c-0.19-0.68-0.58-1.23-1.31-1.16
		c-0.74,0.07-1.14,0.7-0.98,1.39c0.08,0.34,0.62,0.75,1,0.81C361.05,353.9,361.59,353.54,361.66,352.74z M357.14,365.95
		c-0.28,0.43-0.74,0.85-0.66,1.1c0.11,0.33,0.62,0.71,0.98,0.73c0.69,0.04,1.24-0.4,0.96-1.15
		C358.31,366.33,357.68,366.22,357.14,365.95z M352.8,346.94c0.58-0.38,1.07-0.56,1.32-0.91c0.42-0.57-0.07-0.94-0.56-0.94
		c-0.43,0-0.97,0.23-1.23,0.55C352.2,345.8,352.59,346.38,352.8,346.94z M352.75,297.75c-0.38-0.18-0.71-0.39-1.08-0.46
		c-0.09-0.02-0.44,0.61-0.38,0.68c0.25,0.28,0.61,0.46,0.93,0.68C352.37,298.4,352.52,298.15,352.75,297.75z"/>
	<path class="st5" d="M362.08,348.02c-4.65-16.19-4.76-32.59-2.23-49.11c3.9,1.99,7.81,4.09,11.17-0.89
		c0.52-0.77,1.23-1.12,2.1-0.62c0.84,0.48,0.8,1.37,0.81,2.19c0.03,4.14,0.04,8.29,0.05,12.43c0.43,2.31-0.8,4.84,0.88,7l-0.03,0.06
		c-0.25,7.64,0.14,15.26,1.04,22.85c0.04,0.68,0.07,1.36,0.11,2.05c0.18,8.84,0.22,17.71,6.31,25.05c0.5,0.67,1,1.35,1.5,2.02
		c1.61,3.58,3.49,6.99,6.15,9.92c0.32,0.35,0.65,0.71,0.97,1.06c2.38,4.16,5.93,7.34,9.05,10.89c0.62,0.71,1.23,1.43,1.85,2.14
		c0.48,0.85,1.16,1.25,2.15,0.93l-0.02-0.05c-0.41,2.41,2.12,3.1,2.85,4.84c-6.33,0.95-12.52-0.73-18.78-1.05
		c-1.33-4.87-6.42-7.22-8.03-11.91c-0.04-1.36-0.07-2.73-1.92-2.87c-1.32-1.74-2.64-3.48-3.97-5.22c-0.26-0.34-0.52-0.67-0.78-1.01
		c-2.19-5.36-4.08-10.87-6.65-16.03c-1.89-3.79-3.18-7.62-3.63-11.78c0.99-0.14,1.94-0.43,1.7-1.68
		C364.43,347.75,363.13,348.08,362.08,348.02z M368.18,310.4c0.11,1.03,0.73,1.44,1.65,1.44c1.08,0,1.99-0.3,1.84-1.63
		c-0.12-1.04-0.99-1.15-1.83-1.15C368.92,309.07,368.31,309.49,368.18,310.4z M370.33,319.22c0.28,0.12,0.62,0.4,0.82,0.32
		c0.2-0.08,0.26-0.52,0.39-0.8c-0.28-0.12-0.62-0.4-0.82-0.32C370.52,318.5,370.46,318.94,370.33,319.22z"/>
	<path class="st6" d="M482.63,222.46c-5.88,3.79-12.08,4.32-18.11,4.41c-17.99,0.27-36.04,0.88-53.97-0.14
		c-15.79-0.9-31.84,0.33-47.36-4.06C388.81,214.76,463.61,214.49,482.63,222.46z"/>
	<path class="st3" d="M340.96,279c-0.64-6.14,0.68-12.09,2.14-17.96c1.07-4.31,3.09-8.24,6.54-11.37
		c4.64-4.21,9.12-8.64,12.11-14.24c1.79-3.34,2.17-6.8-1.26-10.9c4.86,1.4,8.68,2.5,12.51,3.6c0.69,2.32,0.14,4.55-0.51,6.75
		c-3.24,11.02-6.97,21.89-9.54,33.1c-0.35,0.01-0.71,0.02-1.06,0.03C358.03,268.13,343.86,275.58,340.96,279z"/>
	<path class="st7" d="M362.94,267.98c2.57-11.21,6.3-22.08,9.54-33.1c0.65-2.21,1.2-4.44,0.51-6.75c5.64,0.37,11.29,0.73,16.93,1.1
		c0.17,0.38,0.33,0.75,0.5,1.13c0.2-0.19,0.39-0.38,0.59-0.56c0.64,0.12,1.28,0.23,1.92,0.35c0.9,4.47-3.02,7.13-4.14,10.93
		c-2.08,7.11-5.28,13.87-7.21,21.07c-0.19,0.7-1.08,1.21-1.65,1.8c-3.31,1.48-5.7,5.79-10.4,3.11c-1.12-0.64-2.49,0.46-3.59,1.28
		C364.91,269.11,363.82,269.22,362.94,267.98z"/>
	<path class="st8" d="M418.01,266.99c2.59-1.6,5.84-2.1,8.07-0.7c3.14,1.96,4.36,0.59,6.48-1.31c3.03-2.72,6.7-3.21,9.66,0.23
		c1.36,1.58,2.39,1.62,4.21,1.1c3.51-1.02,6.95-0.91,9.4,2.46c0.53,0.73,1.24,1.37,2.04,1.17c6.4-1.62,12.33,1.44,18.37,2.34
		c6.28,0.93,13.66-0.9,18.95,4.78c0.76,0.81,2.48,0.73,3.76,1.06c0.01,0.31,0.04,0.62,0.08,0.93c-0.05,1.66-0.09,3.31-0.14,4.97
		c-1.44-0.21-2.71,0.26-3.92,0.96c-0.34-0.08-0.68-0.15-1.01-0.23c-0.66-0.25-1.32-0.51-1.98-0.77c-0.44-0.81-1.19-0.99-2.03-1.02
		l0.02,0.01c-0.6-3.81-3.95-2.24-6.06-3.11c-0.06-0.75,0.08-1.7-1.05-1.7c-1.1,0-1.61,0.78-1.82,1.78
		c-1.94,0.88-3.17-1.72-5.07-1.02c-0.64,0.03-1.27,0.06-1.91,0.09c-0.37-0.03-0.74-0.06-1.1-0.09c0.01-0.28,0.02-0.57,0.03-0.85
		c0.28-2.16-1.31-2.56-2.85-3.02c-1.85-0.38-2.42,2.06-4.17,1.91c-0.99-0.67-1.96-2.62-3.01-0.05c-0.66,0.02-1.32,0.03-1.99,0.05
		c-0.02-0.35-0.04-0.69-0.06-1.04c-0.08-0.71,0.09-1.67-0.98-1.67c-1.12,0-0.87,0.95-0.88,1.67c-2.52,0.41-4.87-0.42-7.25-1
		c-0.39-1.44-1.29-2.13-2.81-1.88c-1.74-1.18-2.67,0.44-3.82,1.15c-1.56,0.97-3.71,1.41-4.69,0.28c-5.09-5.9-6.68,0.56-9.55,2.47
		c-0.69-0.01-1.37-0.01-2.06-0.02c-0.3-0.33-0.61-0.66-0.91-0.99c-0.05-1.11,0.18-2.32-1.11-2.95c-0.61,0.01-1.22,0.02-1.83,0.04
		c-1.76-1.3-3.57-2.46-5.91-2.11C418.74,269.6,418.38,268.3,418.01,266.99z M441,268.75c-0.08-0.85-0.29-1.72-1.38-1.39
		c-0.52,0.16-1.13,0.78-1.25,1.3c-0.22,0.92,0.51,1.59,1.33,1.7C440.76,270.51,440.92,269.59,441,268.75z M491.82,277.76
		c-0.37-0.79-0.82-1.31-1.55-1.01c-0.3,0.13-0.65,0.77-0.57,1.07c0.17,0.64,0.71,1.17,1.45,0.89
		C491.47,278.58,491.63,278.04,491.82,277.76z"/>
	<path class="st9" d="M497.9,304.99c-2.4,0.18-4.89-0.24-6.66-1.6c-4.01-3.11-8.45-2.97-12.79-1.94c-2.51,0.6-4.64-0.22-6.79-0.59
		c-7.04-1.22-13.28,2.4-20.03,2.74c-5.55,0.28-11.37,1.89-15.62-3.45c-1.29-1.61-2.35-0.34-3.5,0.02
		c-4.12,1.27-8.04-0.46-12.04-0.86c-0.22-0.02-0.36-0.86-0.54-1.32c2.65-0.46,5.51,0.93,7.99-0.95c5.46-1.19,10.64-0.81,16.22,0.55
		c3.92,0.96,8.85-0.03,13.05-1.76c2.99-1.23,5.36-0.83,8.33,0.87c4.11,2.36,8.54,4.54,13.69,0.72c1.93-1.43,6.23-1.19,8.66-0.04
		c3.42,1.62,6.72,1.4,10.14,1.63C497.97,301,497.93,302.99,497.9,304.99z"/>
	<path class="st8" d="M340.96,279c2.9-3.43,17.07-10.87,20.93-11c0.03,1.66,0.07,3.31,0.1,4.97c0,0-0.32-0.11-0.32-0.11
		c-3.78,0.25-5.72,3.61-8.73,5.17c-0.63,0-1.25,0-1.88,0c-4.66-0.48-5.76,4.49-9.13,5.97c-0.3-0.02-0.59-0.01-0.89,0.01
		c-0.35-0.72-0.7-1.43-1.05-2.15c0.03-0.72,0.07-1.45,0.1-2.17c0.3-0.26,0.6-0.52,0.89-0.78L340.96,279z"/>
	<path class="st10" d="M472.97,398.95c-4.01-0.28-5.05-3.52-6.47-6.42c-0.41-0.84-0.55-1.64,0.21-2.17c0.72-0.5,2.07-0.36,2.18,0.33
		c0.56,3.69,3.05,4.35,6.16,4.64c1.03,0.1,0.85,1.6,0.91,2.57C475.27,399.11,474.09,398.97,472.97,398.95z"/>
	<path class="st11" d="M442.02,400.98c0.64,0.03,1.28,0.05,1.92,0.08c-0.23,1.79-1.52,1.9-2.93,1.9
		c-10.43-0.02-20.87-0.01-31.3-0.08c-0.58,0-1.15-0.53-1.73-0.82c9.63-0.03,19.26-0.03,28.88-0.13
		C438.59,401.91,440.55,402.62,442.02,400.98z"/>
	<path class="st12" d="M442.02,400.98c-1.47,1.65-3.42,0.94-5.16,0.96c-9.63,0.1-19.26,0.1-28.88,0.13
		c-0.36-0.35-0.71-0.71-1.07-1.06c4.35-0.02,8.71-0.05,13.06-0.07c1.33,0,2.66,0,3.99,0C429.98,400.95,436,400.96,442.02,400.98z"/>
	<path class="st12" d="M494.97,284.96c1.21-0.7,2.49-1.17,3.92-0.96c0.01,4.98,0.01,9.96,0.02,14.94l-0.47,0.01
		c0,0-0.47-0.01-0.47-0.01c-0.71-1.99,1.61-4.99-2-6.01c1.37-2.51,1.48-4.5-2.04-5.04C494.28,286.93,494.63,285.95,494.97,284.96z"
		/>
	<path class="st12" d="M341.92,319.9c0.03,1.03,0.06,2.06,0.09,3.09c-0.01,0.65-0.02,1.31-0.02,1.96c-0.02,6-0.03,12.01-0.05,18.01
		c0,0-0.43-0.03-0.43-0.03s-0.43,0.01-0.43,0.01c-0.02-7.66-0.05-15.32-0.07-22.99C341.31,319.96,341.62,319.94,341.92,319.9z"/>
	<path class="st11" d="M341.01,319.96c0.02,7.66,0.05,15.32,0.07,22.99C339.2,335.29,339.32,327.63,341.01,319.96z"/>
	<path class="st11" d="M498.91,298.95c-0.01-4.98-0.01-9.96-0.02-14.94c0.04-1.66,0.09-3.31,0.14-4.97
		C500.52,285.69,500.7,292.33,498.91,298.95z"/>
	<path class="st11" d="M339.99,281.87c0.35,0.72,0.7,1.43,1.05,2.15c0,4.97,0.01,9.94,0.01,14.92
		C338.63,293.37,340.55,287.54,339.99,281.87z"/>
	<path class="st12" d="M496,332.07c0.49-5.02-1.19-10.18,0.93-15.11c0.04,4.64,0.09,9.28,0.13,13.92
		C496.71,331.28,496.35,331.68,496,332.07z"/>
	<path class="st11" d="M497.06,330.89c-0.04-4.64-0.09-9.28-0.13-13.92c0.34-0.32,0.69-0.64,1.03-0.96
		C497.44,320.95,499.05,326.03,497.06,330.89z"/>
	<path class="st12" d="M341.05,298.93c0-4.97-0.01-9.94-0.01-14.92c0.3-0.02,0.59-0.02,0.89-0.01c0.01,0.98,0.02,1.95,0.03,2.93
		c0.01,1.99,0.03,3.99,0.04,5.98c-0.02,2.03-0.05,4.05-0.07,6.08C341.64,298.97,341.35,298.94,341.05,298.93z"/>
	<path class="st12" d="M496.92,358.95c-2-3.85-0.49-7.98-0.95-11.96c1.45,1.05,0.81,2.67,1.09,4.04
		C497.02,353.67,496.97,356.31,496.92,358.95z"/>
	<path class="st12" d="M457.98,400.01c2.42-2.11,5.31-0.59,7.95-1.04c-0.02,0.27-0.01,0.54,0.01,0.82
		C463.29,399.86,460.63,399.94,457.98,400.01z"/>
	<path class="st11" d="M496.92,358.95c0.05-2.64,0.1-5.28,0.14-7.92c1.78,2.54,0.54,5.4,0.84,8.1
		C497.58,359.07,497.25,359.01,496.92,358.95z"/>
	<path class="st11" d="M457.98,400.01c2.65-0.07,5.3-0.15,7.96-0.22c-2.41,2.34-5.38,0.68-8.06,1.14
		C457.92,400.62,457.96,400.32,457.98,400.01z"/>
	<path class="st11" d="M379.99,400.01c2.63,0.05,5.26,0.1,7.89,0.15C385.23,401.37,382.59,401.58,379.99,400.01z"/>
	<path class="st12" d="M342.83,373c2.13,2.09,0.73,4.71,1.08,7.07c-0.35-0.39-0.7-0.77-1.04-1.16c-0.02-1.63-0.04-3.26-0.06-4.89
		C342.82,373.68,342.82,373.34,342.83,373z"/>
	<path class="st11" d="M342.81,374.02c0.02,1.63,0.04,3.26,0.06,4.89C341.51,377.3,341.54,375.66,342.81,374.02z"/>
	<path class="st12" d="M498.87,373.9c-1.37-1.09-0.77-2.61-0.87-3.97C499.47,371,498.81,372.53,498.87,373.9z"/>
	<path class="st12" d="M498,379.05c0-1.14-0.29-2.37,1.02-3.08C498.9,377.07,499.26,378.33,498,379.05z"/>
	<path class="st3" d="M391.01,229.79c-0.2,0.19-0.39,0.38-0.59,0.56c-0.17-0.38-0.33-0.75-0.5-1.13
		C390.29,229.42,390.65,229.6,391.01,229.79z"/>
	<path class="st12" d="M499,376.01c0-0.39,0-0.78-0.01-1.17C499.71,375.23,499.84,375.62,499,376.01z"/>
	<path class="st3" d="M340.99,278.92c-0.3,0.26-0.6,0.52-0.89,0.78C340.24,279.26,340.21,278.62,340.99,278.92z"/>
	<path class="st5" d="M378,277.04c0.03,1.67,0.06,3.34,0.1,5.01c-1.1,2.08-2.21,4.15-1.62,6.64c-0.16,0.41-0.31,0.82-0.47,1.23
		c-0.06,0.67-0.12,1.33-0.18,2c-4.7,1.5-9.26,4.71-14.37,1.08c-0.33-0.24-0.96-0.05-1.45-0.06c-0.24-6.76,1.06-13.39,1.66-20.08
		c0,0,0.32,0.11,0.32,0.11c4.68-1.17,9.36-3.51,14.04,0.02c0,1.2,0.48,1.93,1.81,1.8C377.89,275.54,377.95,276.29,378,277.04z
		 M368.73,283.06c-0.44,0.03-1.4,0.08-1.33,1.18c0.05,0.86,0.77,1.4,1.66,1.52c0.95,0.13,1.65-0.27,1.66-1.26
		C370.73,283.53,370.06,283.09,368.73,283.06z"/>
	<path class="st8" d="M381.05,264.02c3.86,0.41,7.64,1.04,11.2-1.62c1.77-1.32,4.12-0.15,5.51,1.12c2.17,1.98,3.58,2.43,6.23,0.41
		c3.18-2.43,6.87-2.49,9.49,1.37c0.84,1.24,1.79,1.89,3.27,1.75c-0.25,1.63-0.51,3.26-0.76,4.9c-2.41,0.3-4.51-0.23-5.77-2.5
		c-0.75-1.36-1.93-1.54-3.27-1.47c-1.49-1.37-1.95-0.78-1.81,0.95c-4.39,3.39-6.75,2.93-9.17-1.81c0.56-0.33,1.05-0.73,0.77-1.45
		c-0.08-0.21-0.48-0.43-0.72-0.42c-1.14,0.07-0.94,0.98-1,1.72c-0.87,0.36-2.07,0.47-2.56,1.12c-2.37,3.16-5.28,3.24-8.56,1.86
		c0.27-0.84,1.31-1.85,0.01-2.47c-1.17-0.56-1.57,0.65-1.98,1.49c-0.63,0-1.25,0-1.88,0c0.07-0.67,0.13-1.35,0.2-2.02
		c0.23-0.65,0.46-1.3,0.69-1.95C380.95,264.65,380.99,264.33,381.05,264.02z"/>
	<path class="st9" d="M376.93,293.02c3.31,3.94,6.61,4.77,10.46,1.78c2.26-1.75,3.99-1.95,6.22-0.56c1.97,1.23,4.29,0.27,6.33,0.92
		c1.44,0.46,2.97,1.4,2.59,3.14c-0.38,1.74-1.82,1.37-3.23,0.94c-2.48-0.74-3.49,0.09-2.53,2.74c0.22,0.6,0.09,1.43-0.8,1.5
		c-0.41,0.03-1.2-0.29-1.24-0.53c-0.94-6.38-4.45-3.11-7.41-2.03c-0.45,0.17-0.99,0.09-1.48,0.13c-0.59-0.02-1.19-0.04-1.79-0.06
		c-1.29-0.02-2.02,0.58-2.08,1.9c-6.23,1.26-6.22-2.91-6.17-7.1c0.04-1.03,0.08-2.06,0.12-3.08
		C376.25,292.81,376.59,292.91,376.93,293.02z"/>
	<path class="st13" d="M375.9,292.7c-0.04,1.03-0.08,2.06-0.12,3.08c-1.78,5.29-0.59,10.74-0.89,16.12l0.01-0.01
		c-0.31,0.01-0.62,0.06-0.92,0.13c-0.02-4.14-0.03-8.29-0.05-12.43c-0.01-0.82,0.03-1.71-0.81-2.19c-0.87-0.5-1.59-0.15-2.1,0.62
		c-3.35,4.98-7.26,2.88-11.17,0.89c-0.01-1.23-0.02-2.46-0.03-3.69c0.01-0.49,0.02-0.98,0.03-1.47c0.03-0.27,0.09-0.54,0.16-0.8
		c0.49,0.01,1.12-0.18,1.45,0.06c5.11,3.64,9.67,0.42,14.37-1.08C375.89,292.19,375.92,292.44,375.9,292.7z"/>
	<path class="st13" d="M381.05,264.02c-0.06,0.32-0.1,0.64-0.11,0.96c-0.69,0.49-0.9,1.14-0.69,1.95c-0.07,0.67-0.13,1.35-0.2,2.02
		c-0.41,2.77-0.59,5.59-2.05,8.1c-0.05-0.75-0.11-1.5-0.16-2.25c0.04-1.25-0.64-1.77-1.81-1.8c-4.67-3.52-9.36-1.19-14.04-0.02
		c-0.03-1.66-0.07-3.31-0.1-4.97c0.35-0.01,0.71-0.02,1.06-0.03c0.88,1.24,1.96,1.13,3.01,0.34c1.1-0.82,2.47-1.92,3.59-1.28
		c4.69,2.69,7.08-1.63,10.4-3.11C380.31,263.96,380.68,263.99,381.05,264.02z"/>
	<path class="st9" d="M426.96,360.94c-0.81,1.04-1.56,2.13-2.44,3.1c-0.9,0.99,0.04,2.75-1.51,3.45c-1.32-4.32-3.46-5.18-8.27-3.21
		c-0.8,0.33-1.55,0.87-2.18,0.05c-0.32-0.42-0.47-1.49-0.2-1.76c1.73-1.69,3.15-4.55,4.87-5.09c2.33-0.74,4.12-0.72,4.16-3.71
		c0.01-0.64,1.11-0.81,1.68-0.46c1.08,0.66,0.84,1.71,0.38,2.64c-2.05,4.18,0.46,4.32,3.51,3.99
		C426.96,360.27,426.96,360.6,426.96,360.94z"/>
	<path class="st10" d="M450.63,312.77c-2.48,0.43-4.35,2.12-6.37,3.54c-2.65,1.86-5.87,2.88-7.94,5.58
		c-0.53,0.69-1.31,1.02-2.16,0.47c-0.93-0.6-1.2-1.54-1.13-2.58c0.08-1.24,0.53-2.17,1.9-2.53c3.7-0.97,7.14-3.55,9.5-6.99
		c0.81-1.19,1.95-1.45,2.88-0.36C448.22,311,450.4,310.35,450.63,312.77z"/>
	<path class="st9" d="M481.89,308.9c0.09,2.8-3.86,5.47-6.84,4.55c-1.1-0.34-2.11-0.95-3.19-1.34c-1.01-0.36-2.62,0.07-2.68-1.57
		c-0.07-2.07,1.72-0.74,2.54-1.2c1.41-0.8,2.63-1.96,4.06-2.71C478.9,305,481.81,306.15,481.89,308.9z"/>
	<path class="st9" d="M437.95,370.97c2.88-1.48,7.03,0.22,9.01-3.66c0.23-0.46,1.33-0.14,1.64,0.52c0.58,1.25,0.75,2.82-0.15,3.77
		c-2.48,2.59-6.3,3.31-8.8,6.08c-0.67,0.74-2.15-0.26-2.05-1.81c0.11-1.64,0.24-3.27,0.37-4.91L437.95,370.97z"/>
	<path class="st9" d="M437.96,370.95c-1.83,0.51-3.61,4.74-5.57,0.09c-0.08-0.19-0.95,0.01-1.43-0.09
		c-1.82-0.37-3.98,0.94-5.45-1.02c-0.14-0.18,0.33-1.19,0.5-1.19c2.81,0.07,4.67-4.44,7.91-1.75c1.44,1.19,4.71,0.62,4.03,3.97
		C437.95,370.97,437.96,370.95,437.96,370.95z"/>
	<path class="st8" d="M431.2,291.14c-3.21-0.59-1.36-2.42-0.96-3.88c0.99,0.28,1.88,0.07,2.41-0.83c0.15-0.26-0.01-1-0.25-1.15
		c-0.95-0.58-1.76-0.21-2.36,0.67c-2.12-2.17-0.56-3.87,1.15-4.67c1.43-0.67,3.63-1.11,4.7,1.21c1.04,2.27,1.56,4.58-0.95,6.13
		c-1.19,0.73-3.04,0.48-3.04,2.58C431.68,291.14,431.44,291.12,431.2,291.14z"/>
	<path class="st10" d="M497.07,375.41c-2.05,3.21-4.26,5.03-7.56,4.71c-0.13,2.23,3.65,1.94,1.81,4.25
		c-0.67,0.84-2.1,0.86-2.63,0.03c-1.03-1.58-2.44-3.39-1.07-5.4C489.74,375.87,492.94,375.3,497.07,375.41z"/>
	<path class="st9" d="M428.8,324.02c1.77,1.23,4.21,2.48,4.71,4.69c0.3,1.33-1.74,3.54-3.7,3.04c-2.27-0.57-3.34-2.89-3.71-5.11
		C425.85,325.18,426.97,324.26,428.8,324.02z"/>
	<path class="st9" d="M462.78,377.89c-2.2-0.32-3.45-1.96-2.64-3.1c1.55-2.19,1.15-5.83,4.41-6.65c1.13-0.29,2.72,1.34,1.96,2.04
		C464.17,372.32,466.45,376.79,462.78,377.89z"/>
	<path class="st9" d="M387.96,318.97c-0.2-1.15,0.4-2.95-1.83-2.52c-1.13,0.22-2.1,0.3-1.95-1.16c0.13-1.31,1.25-1.4,2.25-1.05
		c1.07,0.38,1.93-0.01,2.82-0.44c1.38-0.66,2.74-1.28,4,0.19c0.83,0.98,0.86,2.15,0.42,3.25c-0.67,1.68-2.23,1.72-3.74,1.71
		c-0.66,0-1.31,0-1.97,0L387.96,318.97z"/>
	<path class="st9" d="M474.01,280.89c0.07,0.49,0.01,1.04,0.22,1.46c1.24,2.53,0.46,5.45-1.67,5.82c-2.66,0.45-2.22-2.87-2.54-4.76
		c-0.25-1.44-0.04-2.96-0.04-4.45c1.54-0.15,1.94,1.4,2.98,1.99c0.35-0.01,0.7-0.02,1.05-0.03
		C474.01,280.91,474.01,280.89,474.01,280.89z"/>
	<path class="st9" d="M422.96,387.95c-2.31,0.25-4.12-0.34-5.53-2.45c-0.98-1.46-2.38-2.84-0.48-4.15c1.6-1.11,3.36-0.05,4.21,1.5
		c0.86,1.56,1.22,3.39,1.8,5.11L422.96,387.95z"/>
	<path class="st10" d="M487.51,341.96c-1.25-0.25-3.48,0.57-3.26-1.75c0.27-2.81,3.16-2.52,5.07-3.02c1.46-0.38,2.62,0.85,2.45,2.37
		C491.5,342.05,489.42,341.92,487.51,341.96z"/>
	<path class="st10" d="M450.14,393.94c-1.1-0.08-3.19-0.5-2.58-1.77c0.8-1.67,2.73-3.18,4.52-3.87c1.78-0.69,1.85,1.24,1.83,2.56
		C453.88,393.17,452.5,394,450.14,393.94z"/>
	<path class="st9" d="M461.83,317.69c-0.51,1.98-2.12,2.86-3.94,2.86c-1.62,0-1.95-1.5-1.85-2.89c0.12-1.75,1.17-2.63,2.89-2.63
		C460.61,315.03,461.71,315.77,461.83,317.69z"/>
	<path class="st9" d="M490.7,354.64c-0.75-1.66-0.63-3.27,1.33-3.42c2.7-0.2,1.9,2.18,1.87,3.61c-0.03,1.42,0.94,3.87-1.63,3.84
		C489.32,358.64,490.54,356.24,490.7,354.64z"/>
	<path class="st9" d="M415.19,276.04c1.8-0.17,2.87,0.45,2.76,2.46c-0.07,1.27-0.38,2.24-1.88,2.41c-1.8,0.2-3.3-0.28-4.32-1.79
		c-1.05-1.56,0.02-2,1.33-2.23C413.78,276.61,414.49,276.32,415.19,276.04z"/>
	<path class="st9" d="M407.86,389.13c0.19-1.61,0.82-3.15,2.62-2.97c1.47,0.15,4.11,0.23,3.91,2.02c-0.32,2.85-3.12,2.85-5.48,2.82
		C408.56,390.38,408.21,389.75,407.86,389.13z"/>
	<path class="st10" d="M422.9,311.58c-0.07,1.56-0.65,2.48-1.79,2.25c-3.24-0.65-2.08-4.3-3.87-5.99c0.42-0.44,1.07-1.34,1.23-1.26
		C420.72,307.71,421.83,309.83,422.9,311.58z"/>
	<path class="st9" d="M430.96,308.06c-0.02,1.39-0.13,2.81-1.98,2.76c-1.85-0.05-3.42-1.47-3.35-2.9c0.08-1.47,2-2.57,3.62-2.71
		C431.24,305.05,430.84,306.82,430.96,308.06z"/>
	<path class="st8" d="M428.16,380.9c-1.78-0.09-3.23-0.83-2.91-2.25c0.5-2.18,2.73-2.87,4.64-3.55c0.77-0.27,2.04,0.76,1.5,1.13
		C429.61,377.43,430.81,380.77,428.16,380.9z"/>
	<path class="st10" d="M458.76,330.44c1.53,1.76,4.5,2.95,2.25,5.72c-0.69,0.84-1.8,0.99-2.68,0.33
		C455.53,334.35,458.27,332.48,458.76,330.44z"/>
	<path class="st8" d="M477.82,293.17c-0.12,1.75-1.42,2.35-2.67,2.42c-1.52,0.08-2.92-0.62-3.08-2.44
		c-0.15-1.76,1.02-2.17,2.51-2.17C476.21,290.98,477.44,291.5,477.82,293.17z"/>
	<path class="st9" d="M411.95,314.91c-0.42,0.7-0.83,1.41-1.27,2.09c-0.81,1.25-1.99,1.05-3.09,0.61c-1-0.4-1.58-1.24-1.45-2.36
		c0.16-1.34,1.04-2.07,2.33-2.2c1.16-0.11,2.33-0.06,3.49-0.08C411.96,313.62,411.96,314.27,411.95,314.91z"/>
	<path class="st8" d="M374.9,311.9c2.4-0.16,3.76,1.15,3.85,3.35c0.1,2.46-1.33,3.85-3.91,3.83c0,0,0.03-0.06,0.03-0.06
		c0.01-2.38,0.03-4.75,0.04-7.13L374.9,311.9z"/>
	<path class="st9" d="M478.74,377.52c-1.07-1.22-0.72-2.41-0.78-3.52c-0.08-1.51,0.02-3.03,1.69-3.73c1-0.42,2.03-0.19,2.59,0.75
		c1.09,1.81-0.96,2.11-1.66,2.99C479.76,375.03,480.47,376.7,478.74,377.52z"/>
	<path class="st8" d="M463.64,386.01c-0.45,1.52-1.41,2.62-3.02,2.77c-1.56,0.14-2.51-0.86-2.49-2.37c0.02-1.54,1.1-2.31,2.59-2.38
		C462.13,383.96,463.31,384.35,463.64,386.01z"/>
	<path class="st10" d="M439.6,393.64c0.84-1-0.36-3.98,2.22-3.31c2.11,0.55,0.37,3.39,1.6,5.03c0.48,0.64-1.23,1.72-2.48,1.38
		C439.41,396.32,438.88,395.27,439.6,393.64z"/>
	<path class="st9" d="M424.69,333.18c-0.55,1.22-0.75,2.81-2.55,2.59c-1.79-0.23-2.49-1.75-2.56-3.22
		c-0.06-1.19,1.05-2.25,2.26-2.23C423.52,330.34,424.39,331.6,424.69,333.18z"/>
	<path class="st10" d="M404.03,354.15c1.68,0.1,2.14,1.13,1.8,2.06c-0.6,1.66,0.04,4.27-2.72,4.52c-1.02,0.09-2.16-0.9-1.72-1.86
		C402.14,357.2,402.6,355.22,404.03,354.15z"/>
	<path class="st10" d="M464.62,321.78c-0.71-3.55-1.49-5.85,0.84-7.39c1.94-1.28,3.82,1.01,2.43,2.93
		c-0.46,0.63-1.21,1.05-1.72,1.66C465.78,319.44,465.56,320.05,464.62,321.78z"/>
	<path class="st9" d="M444.82,333.83c-0.45,1.17-0.64,2.78-2.23,2.9c-1.7,0.13-2.22-1.42-2.26-2.72c-0.04-1.34,0.55-2.79,2.17-2.86
		C444.08,331.08,444.83,332.19,444.82,333.83z"/>
	<path class="st10" d="M469.81,344.73c-0.94,1.54-2.37,2.66-4.18,3c-1.27,0.24-1.71-0.88-1.57-1.97c0.27-2.08,1.97-2.48,3.64-2.71
		C468.77,342.9,469.67,343.28,469.81,344.73z"/>
	<path class="st10" d="M448.76,330.85c-2.06-0.2-1.77-1.87-1.77-3.3c0-1.15,0.06-2.61,1.71-2.29c1.7,0.33,2.02,1.98,2.17,3.45
		C451.01,330.07,450.37,330.9,448.76,330.85z"/>
	<path class="st10" d="M386.92,290.01c0.12-3.01,2.5-2.87,4.53-3.34c1.65-0.38,2.81,0.47,2.95,1.74c0.23,2.09-1.53,1.35-2.71,1.37
		c-1.6,0.03-3.19,0.14-4.78,0.21L386.92,290.01z"/>
	<path class="st10" d="M395.01,275.86c-1.25-2.52,0.48-3.32,2.35-3.72c1.3-0.27,2.17,0.7,2.44,1.97c0.5,2.32-0.79,2.96-2.8,2.85
		C396.33,276.59,395.67,276.22,395.01,275.86z"/>
	<path class="st8" d="M376.48,288.7c-0.59-2.49,0.52-4.56,1.62-6.64C382.29,285.84,382.13,286.49,376.48,288.7z"/>
	<path class="st10" d="M422.95,387.96c0.33,0,0.66-0.02,0.99-0.01c1.97,0.11,4.19,0.06,4.75,2.5c0.28,1.21-1.03,1.43-2.06,1.49
		c-2.84,0.16-3.81-1.4-3.67-3.99C422.96,387.95,422.95,387.96,422.95,387.96z"/>
	<path class="st10" d="M391.75,370.01c1.83,0.13,3.64-2.08,5.47-0.1c0.62,0.67,0.73,1.8-0.09,2.11c-2.01,0.74-4.15,1.59-6.18-0.09
		C391.21,371.28,391.48,370.64,391.75,370.01z"/>
	<path class="st9" d="M493.94,287.91c3.51,0.53,3.41,2.53,2.04,5.04c-3.87,0.05-4.77-1.69-3.02-5.02c0,0,0.49,0.02,0.49,0.02
		L493.94,287.91z"/>
	<path class="st8" d="M412.95,327.91c-1.38,1.43-2.94,1.41-4.42,0.3c-0.37-0.28-0.54-1.31-0.34-1.81c0.96-2.4,3.11-1.1,4.76-1.37
		C412.95,325.99,412.95,326.95,412.95,327.91z"/>
	<path class="st10" d="M448.98,382.48c-0.33,1.06,0.63,3.06-1.45,2.9c-1.56-0.12-1.6-1.85-1.55-3.18c0.05-1.22-0.34-3.04,1.6-2.91
		C449.44,379.41,448.77,381.25,448.98,382.48z"/>
	<path class="st9" d="M386.17,278.02c1.08-0.94,1.81-3.37,3.7-1.01c0.69,0.87,1.42,2.08,0.23,3.08c-1.98,1.66-3.27,0.56-4.24-1.32
		C385.91,278.5,386.01,278.25,386.17,278.02z"/>
	<path class="st10" d="M405.88,378.35c-0.23,1.46-0.87,2.53-2.22,2.22c-1.26-0.29-2.39-1.24-2.32-2.75c0.05-1.11,0.96-1.69,2.02-1.7
		C404.93,376.09,405.62,377.1,405.88,378.35z"/>
	<path class="st8" d="M414.94,297.97c-0.69,1.57,2,3.6-0.3,4.73c-1.98,0.97-2.82-0.9-3.44-2.46c-0.17-0.44-0.12-0.96-0.17-1.45
		c0.64-0.28,1.29-0.55,1.93-0.83C413.62,297.96,414.28,297.96,414.94,297.97z"/>
	<path class="st10" d="M401.94,344.97c-0.9,0.33-1.91,0.97-2.53-0.33c-0.54-1.12,0.13-2.21,1.09-2.29c1.67-0.13,3.54-0.09,4.99,0.6
		c0.63,0.3-0.67,1.52-1.55,1.98C403.26,343.85,402.61,344.89,401.94,344.97z"/>
	<path class="st10" d="M391.01,306.82c1.82-4.12,4.52-0.75,6.82-0.82c0.07,0.29,0.12,0.58,0.17,0.87c-1.66,1.94-3.87,0.79-5.83,1.03
		C391.78,307.54,391.4,307.18,391.01,306.82z"/>
	<path class="st10" d="M470.9,364.87c-0.05,1.08-0.36,1.99-1.67,1.9c-1.33-0.1-2.11-0.98-2.13-2.25c-0.02-1.24,0.57-2.35,2.02-2.18
		C470.48,362.49,470.86,363.63,470.9,364.87z"/>
	<path class="st8" d="M492.61,308.83c-0.02,1.14-0.7,1.8-1.76,1.95c-1.54,0.21-2.54-0.56-2.69-2.1c-0.13-1.28,0.81-1.63,1.89-1.64
		C491.31,307.01,492.26,307.47,492.61,308.83z"/>
	<path class="st9" d="M408.47,305.12c1.26,0.21,1.5,1.13,1.41,2.17c-0.11,1.21-0.58,2.35-2,2.27c-1.35-0.08-1.93-1.11-1.75-2.41
		C406.31,305.86,407.19,305.22,408.47,305.12z"/>
	<path class="st9" d="M486.26,349.09c1.35,0,2.23,0.64,2.48,1.91c0.24,1.21-0.45,1.84-1.62,1.88c-1.41,0.04-2.72-0.3-2.77-2
		C484.31,349.76,485.24,349.26,486.26,349.09z"/>
	<path class="st10" d="M415.51,319.88c3.13-0.13,5.42-0.22,6.73,2.17c0.39,0.71-0.14,1.44-0.76,1.47
		C418.86,323.65,418.05,321.12,415.51,319.88z"/>
	<path class="st10" d="M475.95,354.96c-0.08,1.12,0.24,2.67-1.34,2.77c-1.56,0.1-3.17-0.36-4.74-0.64c-0.15-0.03-0.39-0.72-0.3-0.8
		c0.45-0.42,0.95-0.98,1.5-1.04C472.69,355.04,474.33,355.04,475.95,354.96L475.95,354.96z"/>
	<path class="st10" d="M475.2,323.86c-1.12,0.06-1.98-0.32-2.11-1.53c-0.15-1.34,0.38-2.25,1.88-2.25c1.16,0,1.82,0.59,1.88,1.78
		C476.9,323.01,476.41,323.73,475.2,323.86z"/>
	<path class="st8" d="M401.85,366.99c-0.03,1.18-0.64,1.81-1.82,1.83c-1.48,0.03-2.07-0.81-1.95-2.18c0.11-1.21,0.93-1.63,2.05-1.58
		C401.36,365.12,401.85,365.84,401.85,366.99z"/>
	<path class="st8" d="M420.09,291.03c-1.41-0.03-2.48-0.6-3.06-1.94c0.59-0.06,1.18-0.13,1.77-0.19c1.71-0.9,0.99-2.53,1.17-3.89
		c2.76,1.22,1.85,3.68,1.96,5.79C421.31,290.89,420.7,290.96,420.09,291.03z"/>
	<path class="st10" d="M414.64,339.58c0.02,1.3-0.67,1.95-1.7,2.18c-1.3,0.29-2.34-0.28-2.6-1.57c-0.23-1.12,0.61-1.8,1.65-2.04
		C413.31,337.84,414.12,338.56,414.64,339.58z"/>
	<path class="st8" d="M437.67,325.11c1.34,0.21,2.38,1.06,2.8,2.38c0.34,1.08-0.59,1.39-1.48,1.4c-1.49,0.02-2.62-0.57-2.85-2.17
		C436.01,325.75,436.55,325.18,437.67,325.11z"/>
	<path class="st10" d="M415.52,368.67c-0.55,1.18-0.84,2.74-2.34,2.82c-1.29,0.07-1.17-1.26-1.19-2.19
		c-0.02-1.58,0.72-2.42,2.37-2.23C415.32,367.17,415.76,367.71,415.52,368.67z"/>
	<path class="st8" d="M379.82,330.18c-0.12,1.04-0.52,1.68-1.61,1.31c-1.36-0.45-2.39-1.23-2.17-2.88c0.12-0.92,0.6-1.64,1.62-1.4
		C379.24,327.56,379.43,329,379.82,330.18z"/>
	<path class="st9" d="M472,369.01c1.23,0.05,2.37,0.39,2.54,1.79c0.14,1.16-0.64,1.92-1.77,1.8c-1.12-0.11-2.33-0.54-2.58-1.87
		C469.96,369.41,470.91,369.07,472,369.01z"/>
	<path class="st10" d="M386.96,332.96c0-0.16-0.01-0.33,0.02-0.49c0.25-1.71,0.08-3.8,2.51-3.99c0.75-0.06,1.36,0.93,1.32,1.82
		C390.71,332.86,388.83,332.93,386.96,332.96L386.96,332.96z"/>
	<path class="st10" d="M479.03,287.19c2.16-2.65,3.96-0.53,5.84,0.45c-0.83,0.57-0.96,1.39-0.84,2.31
		c-0.98,0.53-1.96,0.73-2.93-0.04C481.21,288.39,481.4,286.81,479.03,287.19z"/>
	<path class="st8" d="M401.82,395.06c-0.62-0.71-1.23-1.43-1.85-2.14c0.06-1.26,0.68-1.94,1.97-1.97c2.22,0.15,1.97,1.88,2.14,3.34
		c0.02,0.23-0.04,0.45-0.16,0.66C403.22,394.98,402.52,395.02,401.82,395.06z"/>
	<path class="st10" d="M472.96,280.94c-1.04-0.59-1.44-2.14-2.98-1.99c-0.38,0.02-0.75,0.05-1.13,0.07
		c-0.62-0.02-1.25-0.03-1.87-0.05c-0.34-0.67-0.67-1.35-1.01-2.02c1.75,0.15,2.32-2.29,4.17-1.91c-1.89,3.68,1.42,2.46,2.85,3.02
		c-0.01,0.28-0.02,0.57-0.03,0.85C472.96,279.59,472.96,280.27,472.96,280.94z"/>
	<path class="st8" d="M450.88,335.3c1.12,0.06,1.73,0.74,1.87,1.79c0.16,1.21-0.55,1.76-1.69,1.79c-1.07,0.03-1.94-0.3-1.92-1.57
		C449.16,336.23,449.76,335.54,450.88,335.3z"/>
	<path class="st9" d="M490.87,317.28c1.13,0.05,1.72,0.76,1.88,1.79c0.18,1.2-0.52,1.77-1.67,1.81c-1.07,0.03-1.94-0.3-1.93-1.57
		C489.17,318.24,489.75,317.53,490.87,317.28z"/>
	<path class="st10" d="M469.8,329.93c-0.06,1.65-0.89,1.98-1.97,1.95c-1.15-0.03-1.84-0.61-1.67-1.81c0.15-1.04,0.77-1.82,1.91-1.75
		C469.23,328.4,469.54,329.36,469.8,329.93z"/>
	<path class="st10" d="M375.99,343.98c-0.04-0.68-0.07-1.36-0.11-2.05c1.74-0.03,3.47-0.06,5.21-0.1l0,0
		C380.89,346.14,378.46,345.1,375.99,343.98z"/>
	<path class="st9" d="M401,282.8c0.33-1.03,0.67-2.05,1-3.08c0,0,0.46,0.06,0.46,0.06l0.47-0.02c1.18,1.53,5.45,2.35,1.18,5.13
		C403.91,282.94,402.45,282.88,401,282.8z"/>
	<path class="st8" d="M399.79,357.49c-0.29,1.33-1.23,1.48-2.25,1.36c-1.21-0.15-1.57-1.03-1.5-2.09c0.06-0.87,0.42-1.65,1.49-1.35
		C398.62,355.71,399.69,356.16,399.79,357.49z"/>
	<path class="st8" d="M390.92,382.03c-0.32-0.35-0.65-0.71-0.97-1.06c0.17-1.33,0.45-2.68,2.15-2.62c1.09,0.04,1.71,0.91,1.68,1.98
		C393.73,382.29,392.09,381.81,390.92,382.03z"/>
	<path class="st9" d="M444.86,365.93c-1.3-0.21-2.55-0.45-2.4-1.98c0.1-1.08,1.18-0.96,1.96-0.9c1.04,0.07,2,0.53,2.07,1.68
		C446.56,365.87,445.52,365.79,444.86,365.93z"/>
	<path class="st10" d="M463.93,285.87c-0.06,1.41-0.72,2.36-2.17,1.82c-1.21-0.45-2.6-1.27-2.31-2.82c0.23-1.22,1.6-0.78,2.53-0.89
		C461.83,285.43,462.48,286.06,463.93,285.87z"/>
	<path class="st10" d="M400.95,333.95c0.24-1.51,0.55-3.11,2.64-2.47c0.99,0.3,1.6,1.41,1.1,2.38c-1.07,2.07-2.46,0.47-3.72,0.11
		L400.95,333.95z"/>
	<path class="st10" d="M479.78,361.44c-0.06,1.21-0.95,1.68-1.92,1.84c-1.26,0.21-1.69-0.69-1.73-1.76c-0.04-1,0.64-1.44,1.53-1.49
		C478.68,359.97,479.64,360.12,479.78,361.44z"/>
	<path class="st9" d="M449.8,346.91c-1.19-0.05-2.24-0.49-2.36-1.55c-0.16-1.41,1.08-1.4,2.06-1.3c1.03,0.11,1.99,0.59,2.01,1.76
		C451.53,346.98,450.47,346.82,449.8,346.91z"/>
	<path class="st9" d="M448.87,286.89c0.92,0.22,2.15,0.32,1.56,1.72c-0.5,1.19-1.66,1.6-2.83,1.02c-1.38-0.68-2.05-1.67-0.38-2.86
		C447.77,286.81,448.32,286.85,448.87,286.89z"/>
	<path class="st9" d="M419.34,374.93c-1.8-1.43-2.76-2.59-1.79-4.34c0.15-0.27,0.96-0.49,1.24-0.33
		C420.69,371.33,419.97,372.89,419.34,374.93z"/>
	<path class="st10" d="M454.01,380.78c-0.88-0.2-1.74-0.69-1.68-1.84c0.05-1.12,0.83-1.8,1.94-1.58c1.05,0.2,1.61,1.09,1.54,2.15
		C455.75,380.42,455.13,380.89,454.01,380.78z"/>
	<path class="st14" d="M415.99,271.93c0.25-1.63,0.51-3.26,0.76-4.9c0.42-0.01,0.84-0.03,1.26-0.04c0.37,1.3,0.73,2.61,1.1,3.91
		C418.78,273.4,417.43,272.8,415.99,271.93z"/>
	<path class="st10" d="M423.95,400.94c-1.33,0-2.66,0-3.99,0c-0.03-1.56,0.1-3.05,2.24-2.89
		C424.08,398.19,423.9,399.66,423.95,400.94z"/>
	<path class="st9" d="M491.88,286.96c-1.31,0-2.62,0.01-3.94,0.01c0,0,0.01,0.01,0.01,0.01c0.2-1.57-0.67-3.68,2.01-4.01
		c0,0-0.02-0.01-0.02-0.01c0.04,1.31,0.69,2,2.02,2.02C491.94,285.63,491.91,286.3,491.88,286.96z"/>
	<path class="st14" d="M418.8,288.91c-0.59,0.06-1.18,0.12-1.77,0.19c-1.84-2.49-1.84-4.15,1.88-4.11
		C418.87,286.29,418.83,287.6,418.8,288.91z"/>
	<path class="st10" d="M476.65,339.79c0.19,1.48-0.43,1.97-1.33,2.07c-1.05,0.12-2.09-0.11-2.13-1.41
		c-0.03-0.96,0.72-1.36,1.66-1.41C475.77,338.99,476.37,339.39,476.65,339.79z"/>
	<path class="st9" d="M473.72,381.06c1.34,0,2.05,0.46,2.01,1.41c-0.06,1.31-1.11,1.49-2.15,1.38c-0.9-0.1-1.53-0.6-1.35-1.64
		C472.42,381.15,473.29,381.14,473.72,381.06z"/>
	<path class="st10" d="M391.08,341.9c1.04,1.93,1.4,3.33-0.03,4.67c-0.23,0.21-1.18,0.13-1.29-0.08
		C388.88,344.79,389.88,343.6,391.08,341.9z"/>
	<path class="st10" d="M474.98,332.91c-0.88,0-1.76-0.25-1.62-1.27c0.12-0.89,0.41-2.1,1.58-2.13c1.19-0.02,1.46,1.2,1.61,2.09
		C476.73,332.63,475.87,332.9,474.98,332.91z"/>
	<path class="st14" d="M407.86,389.13c0.35,0.63,0.7,1.25,1.05,1.88c-0.69,1.89-2.17,2.13-3.89,1.85c-0.06-0.96-0.12-1.92-0.18-2.88
		C405.79,389.5,406.69,388.83,407.86,389.13z"/>
	<path class="st9" d="M438.95,347.96c1.47-0.72,2.98-1.67,4.36,0.09c0.45,0.57,0.36,1.39-0.34,1.63
		C441.19,350.31,439.79,349.72,438.95,347.96L438.95,347.96z"/>
	<path class="st9" d="M478,345.17c-1.72-0.05-3.03,1.38-4.3-0.21c-0.45-0.56-0.59-1.31,0.16-1.65
		C475.39,342.63,476.72,342.95,478,345.17z"/>
	<path class="st10" d="M403.95,345.95c1.21,0.63,2.19,1.43,1.74,2.97c-0.09,0.31-0.82,0.74-1.06,0.64
		c-1.58-0.65-2.61-1.77-2.64-3.59C402.64,345.97,403.3,345.96,403.95,345.95z"/>
	<path class="st10" d="M459.79,368.96c-1.15-2.35-1.1-3.8,1.55-4.79C461.7,366.09,461.2,367.4,459.79,368.96z"/>
	<path class="st10" d="M426.96,360.94c0-0.33-0.01-0.66-0.01-0.99c1.04-1.2,2.23-1.33,3.43-0.33c0.2,0.16,0.11,1.02-0.14,1.3
		C429.21,362.09,428.06,362.34,426.96,360.94z"/>
	<path class="st8" d="M445.53,357.54c-0.01,0.75-0.35,1.22-1.13,1.29c-1.04,0.1-2.04-0.02-2.22-1.29c-0.1-0.67,0.25-1.27,1.05-1.38
		C444.37,356,445.09,356.54,445.53,357.54z"/>
	<path class="st14" d="M375.9,292.7c0.01-0.26-0.01-0.52-0.07-0.77c0.06-0.67,0.12-1.33,0.18-2c1.49,0.05,3.37-0.02,3.56,1.81
		c0.18,1.71-1.65,1-2.64,1.28C376.59,292.91,376.25,292.81,375.9,292.7z"/>
	<path class="st10" d="M443.91,281.89c-0.9-0.02-1.67-0.33-1.74-1.33c-0.06-0.97,0.53-1.5,1.54-1.42c0.91,0.07,1.65,0.58,1.78,1.43
		C445.65,281.65,444.81,281.9,443.91,281.89z"/>
	<path class="st9" d="M437.77,381.44c-0.1,1-0.72,1.42-1.65,1.44c-0.86,0.02-1.79-0.11-1.73-1.2c0.05-0.88,0.78-1.41,1.67-1.53
		C437.04,380.02,437.62,380.47,437.77,381.44z"/>
	<path class="st10" d="M414.94,297.97c-0.66,0-1.31,0-1.97,0c-0.24-1.12-0.91-1.8-2.04-2.01c-0.32-0.33-0.65-0.65-0.97-0.98
		c1.33,0,2.67,0.01,4,0.01c0.34,2.66,2.44,1.78,4,1.98c0,0.33,0,0.66,0,0.99C416.95,297.95,415.94,297.96,414.94,297.97z"/>
	<path class="st9" d="M380.11,306.73c-0.31,0.84-0.18,2.21-1.71,1.74c-0.86-0.26-1.3-1.05-1.04-1.95c0.25-0.83,0.94-1.4,1.82-1.42
		C380.36,305.07,380.46,305.8,380.11,306.73z"/>
	<path class="st10" d="M486.91,313.05c0.9,0,1.74,0.28,1.56,1.33c-0.14,0.84-0.87,1.35-1.78,1.41c-1,0.07-1.58-0.46-1.52-1.43
		C485.24,313.37,486.02,313.06,486.91,313.05z"/>
	<path class="st14" d="M401,282.8c1.46,0.08,2.92,0.14,3.11,2.09c-0.06,0.36-0.12,0.73-0.17,1.09c0,0,0.05-0.05,0.05-0.05
		C402.04,285.79,399.25,286.46,401,282.8z"/>
	<path class="st14" d="M398.87,291.72c0,0.79-0.04,1.74-1.09,1.76c-1.11,0.02-1.67-0.81-1.75-1.88c-0.08-0.99,0.51-1.53,1.43-1.49
		C398.37,290.14,398.91,290.72,398.87,291.72z"/>
	<path class="st10" d="M482.15,334.38c-1.23-0.98-3.09-1.58-2.24-3.62c0.1-0.23,0.61-0.52,0.8-0.44
		C482.58,331.07,482.29,332.76,482.15,334.38z"/>
	<path class="st10" d="M385.53,352.29c0.18,0.81-0.05,1.36-0.82,1.45c-1.26,0.15-1.64-0.68-1.68-1.75c-0.02-0.63,0-1.42,0.77-1.51
		C385.1,350.33,385.09,351.61,385.53,352.29z"/>
	<path class="st10" d="M440.59,353.83c-0.21,1.04-1.05,1.09-1.86,1.04c-0.66-0.04-1.37-0.28-1.31-1.1c0.07-0.88,0.63-1.5,1.58-1.48
		C439.93,352.32,440.41,352.93,440.59,353.83z"/>
	<path class="st10" d="M492.19,365.11c1-0.05,1.58,0.44,1.59,1.41c0.01,0.75-0.52,1.23-1.23,1.28c-0.87,0.06-1.76-0.22-1.89-1.18
		C490.52,365.63,491.31,365.25,492.19,365.11z"/>
	<path class="st14" d="M391.75,370.01c-0.27,0.64-0.54,1.27-0.8,1.91c-1.3,0-3.24,0.2-2.69-1.73
		C388.88,367.97,390.51,369.22,391.75,370.01z"/>
	<path class="st10" d="M435.13,395.11c0.69,0,1.4,0.07,1.42,0.96c0.01,0.97-0.69,1.47-1.53,1.68c-0.92,0.24-1.78-0.06-1.65-1.14
		C433.47,395.77,434.22,395.23,435.13,395.11z"/>
	<path class="st14" d="M422.6,277c-0.22,0.86-0.6,1.58-1.52,1.68c-0.94,0.11-1.58-0.51-1.74-1.33c-0.21-1.05,0.62-1.36,1.48-1.39
		C421.6,275.94,422.45,275.94,422.6,277z"/>
	<path class="st8" d="M417.96,296.96c-1.56-0.2-3.66,0.68-4-1.98c1.99,0.3,4.22-0.82,5.96,0.99
		C419.11,295.98,418.38,296.17,417.96,296.96z"/>
	<path class="st10" d="M425.8,317.13c0,0.69-0.07,1.4-0.95,1.41c-0.97,0.01-1.48-0.69-1.69-1.52c-0.23-0.92,0.06-1.78,1.14-1.65
		C425.15,315.47,425.68,316.22,425.8,317.13z"/>
	<path class="st10" d="M485.96,323.96c-1.27,0.35-2.6,1.97-3.73-0.11c-0.17-0.3,0.02-1.1,0.3-1.29
		C484.3,321.37,485.16,322.63,485.96,323.96L485.96,323.96z"/>
	<path class="st10" d="M402.63,325.29c-0.39,0.82-0.43,2.03-1.68,2.09c-0.88,0.04-0.88-0.81-0.91-1.45
		c-0.04-0.91,0.31-1.66,1.28-1.78C402.04,324.06,402.56,324.46,402.63,325.29z"/>
	<path class="st10" d="M462.89,305.72c-0.05,0.81-0.05,1.78-1.13,1.78c-0.87,0.01-1.57-0.65-1.43-1.57
		c0.08-0.53,0.56-1.21,1.04-1.43C462.45,304.01,462.72,304.87,462.89,305.72z"/>
	<path class="st10" d="M485.96,323.96c1.62,0.21,2.98,0.74,2.79,2.73c-0.03,0.32-0.69,0.88-0.95,0.83
		C485.79,327.1,486.06,325.42,485.96,323.96C485.96,323.96,485.96,323.96,485.96,323.96z"/>
	<path class="st10" d="M412.95,327.91c0-0.96,0-1.92,0-2.87c1.27-0.02,3.11-0.36,3.23,1.21
		C416.35,328.38,414.29,327.8,412.95,327.91z"/>
	<path class="st10" d="M494.59,328.18c-0.19,0.91-0.78,1.44-1.66,1.59c-0.96,0.16-1.73-0.2-1.52-1.27c0.17-0.85,0.94-1.36,1.84-1.38
		C493.93,327.11,494.59,327.28,494.59,328.18z"/>
	<path class="st10" d="M386.95,332.96c-0.25,1.51-0.52,3.05-2.65,2.45c-0.37-0.1-0.89-0.75-0.84-1.06
		C383.84,332.03,385.75,333.35,386.95,332.96C386.96,332.96,386.95,332.96,386.95,332.96z"/>
	<path class="st8" d="M400.97,333.96c-0.21,1.33-0.43,2.85-2.27,2.42c-0.83-0.19-0.87-1.36-0.57-2.14c0.7-1.85,1.84-0.51,2.82-0.3
		C400.95,333.95,400.97,333.96,400.97,333.96z"/>
	<path class="st14" d="M381.08,341.84c0.02-1.74,0.61-2.97,2.63-2.65c0.35,0.05,0.91,0.7,0.86,0.98
		C384.21,342.28,382.55,341.89,381.08,341.84C381.08,341.84,381.08,341.84,381.08,341.84z"/>
	<path class="st10" d="M488.78,358.42c-0.1,0.7-0.38,1.29-1.17,1.32c-0.99,0.04-1.52-0.48-1.44-1.49c0.06-0.82,0.67-1.1,1.36-1.09
		C488.28,357.18,488.67,357.7,488.78,358.42z"/>
	<path class="st14" d="M395.01,275.86c0.66,0.36,1.32,0.73,1.98,1.09c-0.93,2.17-2.47,1.96-3.51,0.43
		C392.62,276.11,394.24,276.14,395.01,275.86z"/>
	<path class="st14" d="M448.99,273.04c1.52-0.25,2.42,0.44,2.81,1.88c-0.96,0.45-1.83,1.57-3,0.68
		C447.7,274.76,448.9,273.9,448.99,273.04z"/>
	<path class="st10" d="M438.96,347.96c-1.22-0.15-2.89,0.34-2.73-1.8c0.03-0.34,0.58-0.9,0.93-0.92
		C439.3,345.07,438.8,346.75,438.96,347.96C438.95,347.96,438.96,347.96,438.96,347.96z"/>
	<path class="st10" d="M401.76,373.35c-0.05,0.7-0.26,1.29-1.07,1.39c-0.72,0.09-1.31-0.15-1.48-0.92
		c-0.23-1.01,0.28-1.61,1.24-1.66C401.15,372.13,401.67,372.57,401.76,373.35z"/>
	<path class="st10" d="M451.68,364.64c-0.74-0.19-1.38-0.69-1.32-1.64c0.05-0.85,0.76-1,1.44-0.89c0.85,0.14,1.63,0.53,1.48,1.55
		C453.16,364.37,452.57,364.73,451.68,364.64z"/>
	<path class="st10" d="M471.73,339.23c0.08,0.73-0.15,1.3-0.91,1.47c-1,0.23-1.6-0.29-1.65-1.24c-0.04-0.69,0.41-1.26,1.18-1.28
		C471.04,338.15,471.61,338.43,471.73,339.23z"/>
	<path class="st10" d="M426.22,341.19c0.73-0.08,1.31,0.15,1.48,0.92c0.23,1-0.28,1.61-1.24,1.66c-0.69,0.03-1.26-0.41-1.29-1.18
		C425.14,341.88,425.42,341.31,426.22,341.19z"/>
	<path class="st14" d="M384.04,300.99c0.6,0.02,1.19,0.04,1.79,0.06c0.13,1.14,0.47,2.4-0.82,3.07c-1.22,0.63-1.73-0.38-2.24-1.22
		C383.19,302.26,383.61,301.63,384.04,300.99z"/>
	<path class="st14" d="M484.03,289.95c-0.12-0.91,0.01-1.74,0.84-2.31c1.02-0.22,2.05-0.44,3.08-0.66c0,0-0.01-0.01-0.01-0.01
		C488.77,290.76,485.26,288.86,484.03,289.95z"/>
	<path class="st8" d="M409.96,294.97c0.32,0.33,0.65,0.65,0.97,0.98c-0.32,0.34-0.64,0.68-0.96,1.02c-1.22-0.07-2.56,0.28-3.59-0.83
		C407.31,294.38,408.78,295.18,409.96,294.97z"/>
	<path class="st9" d="M452.96,281.51c0.88,0.13,0.9,0.82,0.91,1.47c0,0.65-0.05,1.43-0.93,1.42c-0.88-0.01-0.91-0.79-0.9-1.44
		C452.04,282.31,452.06,281.61,452.96,281.51z"/>
	<path class="st10" d="M436.79,361.52c-0.06,0.82-0.62,1.23-1.27,0.96c-0.49-0.21-1.02-0.85-1.11-1.37
		c-0.15-0.86,0.64-0.99,1.3-0.94C436.51,360.22,436.72,360.84,436.79,361.52z"/>
	<path class="st10" d="M456.52,308.79c-0.7-0.06-1.3-0.29-1.36-1.09c-0.05-0.67,0.11-1.46,0.97-1.3c0.52,0.1,1.16,0.63,1.37,1.13
		C457.77,308.2,457.33,308.74,456.52,308.79z"/>
	<path class="st10" d="M392.79,324.52c-0.06,0.82-0.62,1.24-1.27,0.96c-0.49-0.21-1.02-0.85-1.11-1.37c-0.15-0.86,0.64-1,1.3-0.94
		C392.5,323.22,392.72,323.83,392.79,324.52z"/>
	<path class="st14" d="M391.01,306.82c0.39,0.36,0.77,0.72,1.16,1.09c-0.71,0.99-1.59,2.7-2.79,1.37
		C388.1,307.87,389.66,307.14,391.01,306.82z"/>
	<path class="st9" d="M455.54,277.1c0.72,0.12,1.21,0.55,1.25,1.27c0.04,0.73-0.4,1.38-1.14,1.18c-0.53-0.15-1.15-0.76-1.3-1.29
		C454.15,277.53,454.8,277.14,455.54,277.1z"/>
	<path class="st14" d="M415.19,276.04c-0.71,0.28-1.41,0.56-2.12,0.85c-0.38-0.91-1.77-1.99,0.01-2.69
		C414.53,273.63,415.02,274.81,415.19,276.04z"/>
	<path class="st14" d="M440.93,289.99c1.39,0.06,2.16,0.74,1.77,2.15c-0.18,0.68-0.98,0.89-1.59,0.59c-1.67-0.82-0.43-1.84-0.12-2.8
		L440.93,289.99z"/>
	<path class="st10" d="M417.42,339.6c-1.19-0.08-1.32-0.72-1.26-1.39c0.07-0.79,0.67-1.07,1.37-1.06c0.82,0.01,1.22,0.58,0.97,1.26
		C418.3,338.93,417.7,339.3,417.42,339.6z"/>
	<path class="st10" d="M384.87,357.4c-0.8,0.58-1.25,1.14-1.78,1.24c-0.92,0.16-1.6-0.41-1.5-1.39c0.08-0.7,0.74-1.17,1.44-1.01
		C383.58,356.38,384.05,356.86,384.87,357.4z"/>
	<path class="st8" d="M427.93,297.03c-2.48,1.88-5.34,0.49-7.99,0.95c0,0,0,0,0,0c0.01-0.34,0.01-0.68,0.02-1.03
		C422.62,296.98,425.27,297,427.93,297.03z"/>
	<path class="st14" d="M430.05,285.95c0.6-0.88,1.41-1.25,2.36-0.67c0.24,0.15,0.4,0.89,0.25,1.15c-0.53,0.9-1.42,1.11-2.41,0.83
		C430.19,286.81,430.12,286.38,430.05,285.95z"/>
	<path class="st8" d="M411.46,384.04c-0.36,0.78-0.98,0.91-1.64,0.83c-0.62-0.08-1.47-0.14-1.24-1.07c0.17-0.73,0.92-0.82,1.58-0.75
		C410.79,383.1,411.47,383.2,411.46,384.04z"/>
	<path class="st10" d="M459.11,342.03c0.6,0.17,1.48,0.15,1.25,1.1c-0.18,0.74-0.94,0.84-1.6,0.75c-0.62-0.08-1.48-0.14-1.26-1.08
		C457.68,342.05,458.43,342,459.11,342.03z"/>
	<path class="st10" d="M387.95,318.95c-0.13,1.29-0.67,2.22-2.12,1.67c-0.37-0.14-0.79-1.18-0.62-1.55c0.76-1.67,1.81-0.32,2.75-0.1
		C387.96,318.97,387.95,318.95,387.95,318.95z"/>
	<path class="st14" d="M388.29,360.85c0.18,0.81-0.12,1.47-0.85,1.42c-0.47-0.03-1.16-0.64-1.28-1.11c-0.12-0.47,0.2-1.43,0.57-1.58
		C387.82,359.14,387.93,360.25,388.29,360.85z"/>
	<path class="st9" d="M448.24,348.58c0.77-0.07,1.28,0.36,1.42,1.03c0.19,0.93-0.3,1.71-1.21,1.73c-0.4,0.01-1.02-0.76-1.19-1.29
		C447.03,349.37,447.56,348.85,448.24,348.58z"/>
	<path class="st14" d="M479.03,287.19c2.37-0.38,2.18,1.21,2.08,2.72C478.01,290.83,480.03,287.85,479.03,287.19z"/>
	<path class="st10" d="M464.85,359.46c-0.08,0.73-0.44,1.25-1.22,1.13c-0.7-0.11-1.2-0.63-0.99-1.36c0.11-0.38,0.61-0.82,1.01-0.9
		C464.41,358.18,464.77,358.73,464.85,359.46z"/>
	<path class="st14" d="M440.99,289.93c-1.01,0.02-2.15-0.06-2.32-1.23c-0.24-1.67,1.26-1.5,2.29-1.74l-0.03-0.05
		c0,1.02,0,2.05,0,3.07C440.93,289.99,440.99,289.93,440.99,289.93z"/>
	<path class="st14" d="M412.87,287.3c-0.06,0.64-0.12,1.44-0.96,1.32c-0.51-0.07-0.95-0.68-1.42-1.04c0.37-0.45,0.66-1.12,1.13-1.29
		C412.28,286.05,412.78,286.53,412.87,287.3z"/>
	<path class="st14" d="M491.88,286.96c0.03-0.66,0.06-1.32,0.09-1.99c0,0,0.07,0.07,0.07,0.07c0.64-0.1,1.28-0.2,1.92-0.3
		c0.34,0.08,0.68,0.15,1.01,0.23c-0.34,0.98-0.68,1.96-1.03,2.94c0,0-0.49,0.03-0.49,0.03s-0.49-0.02-0.49-0.02
		C492.6,287.6,492.24,287.28,491.88,286.96z"/>
	<path class="st10" d="M477.24,335.12c0.67,0,1.45,0.11,1.33,0.94c-0.07,0.49-0.68,0.96-1.16,1.29c-0.1,0.07-0.8-0.48-0.98-0.86
		C476.08,335.76,476.47,335.28,477.24,335.12z"/>
	<path class="st14" d="M448.87,286.89c-0.55-0.04-1.1-0.08-1.65-0.12c-0.12-1.05-0.61-2.55,1.14-2.35
		C450.14,284.63,449.36,285.91,448.87,286.89z"/>
	<path class="st10" d="M383.8,371.05c-0.5-0.67-1-1.35-1.5-2.02c1.07,0.1,2.51-0.58,3.05,0.71
		C385.8,370.84,384.5,370.8,383.8,371.05z"/>
	<path class="st8" d="M389.63,339.64c0.02,0.8-0.44,1.23-1.16,1.17c-0.39-0.03-0.95-0.38-1.08-0.72c-0.28-0.71,0.17-1.3,0.86-1.46
		C388.99,338.46,389.43,338.95,389.63,339.64z"/>
	<path class="st14" d="M406.77,299.51c-0.08,1.08-0.62,1.37-1.31,1.36c-0.7-0.01-1.39-0.39-1.23-1.11c0.11-0.49,0.79-1.18,1.23-1.19
		C405.93,298.55,406.41,299.23,406.77,299.51z"/>
	<path class="st14" d="M389.5,282.18c1.02,0.16,1.44,0.66,1.44,1.33c0.01,0.68-0.44,1.35-1.15,1.16c-0.51-0.13-1.18-0.76-1.24-1.23
		C388.51,283.03,389.22,282.53,389.5,282.18z"/>
	<path class="st14" d="M402.93,279.76l-0.47,0.02c0,0-0.46-0.06-0.46-0.06c-0.34-0.81-1.48-1.61-0.18-2.47
		c0.32-0.21,1.05-0.21,1.36,0.02C404.42,278.17,403.26,278.94,402.93,279.76z"/>
	<path class="st14" d="M386.17,278.02c-0.16,0.23-0.26,0.48-0.31,0.76c-1.04,0.11-1.99-0.11-2.35-1.18
		c-0.24-0.72,0.34-1.21,0.99-1.34C385.93,275.96,385.95,277.1,386.17,278.02z"/>
	<path class="st14" d="M403.92,394.94c0.12-0.2,0.17-0.42,0.16-0.66c0.3-0.1,0.58-0.23,0.86-0.37c1.34,0,2.1,0.58,1.98,2.01l0-0.01
		c-0.99,0.58-1.98,0.65-2.98,0.02c0,0,0.02,0.05,0.02,0.05C403.95,395.64,403.93,395.29,403.92,394.94z"/>
	<path class="st14" d="M383.72,331.97c-0.99-0.23-1.62-0.67-1.26-1.34c0.23-0.42,1.06-0.65,1.65-0.69c0.65-0.05,1.35,0.36,0.9,1.14
		C384.75,331.54,384.05,331.76,383.72,331.97z"/>
	<path class="st10" d="M406.92,395.92c1.09,0.07,2.19,0.15,4.35,0.29C408.82,398.11,407.63,398.7,406.92,395.92
		C406.92,395.92,406.92,395.92,406.92,395.92z"/>
	<path class="st8" d="M422.67,350.38c-0.32,0.27-0.8,0.98-1.21,0.94c-0.43-0.05-0.86-0.77-1.11-1.29c-0.06-0.13,0.52-0.78,0.89-0.86
		C421.89,349.01,422.53,349.21,422.67,350.38z"/>
	<path class="st8" d="M462.99,351.61c-0.72,0-1.33-0.31-1.4-1.04c-0.08-0.73,0.48-1.24,1.16-1.26c0.34-0.01,0.86,0.44,1,0.8
		C463.99,350.76,463.8,351.39,462.99,351.61z"/>
	<path class="st10" d="M453.6,354.98c-0.21,0.82-0.84,1-1.48,0.76c-0.36-0.13-0.82-0.66-0.81-0.99c0.02-0.67,0.53-1.23,1.26-1.16
		C453.29,353.66,453.6,354.26,453.6,354.98z"/>
	<path class="st10" d="M404.94,393.91c-0.28,0.15-0.56,0.27-0.86,0.37c-0.17-1.46,0.08-3.19-2.14-3.34c0.7-1.12,1.83-0.94,2.9-0.97
		c0.06,0.96,0.12,1.92,0.18,2.88C404.99,393.21,404.96,393.56,404.94,393.91z"/>
	<path class="st14" d="M425.2,295.02c0.23-0.29,0.43-0.76,0.77-0.93c0.65-0.32,1.32-0.05,1.56,0.59c0.09,0.25-0.33,0.87-0.66,1.05
		C426.24,296.09,425.67,295.78,425.2,295.02z"/>
	<path class="st10" d="M433.96,389.97c0.15-1.01,0.38-2,1.71-1.78c0.31,0.05,0.83,0.72,0.75,0.9c-0.46,1.18-1.58,0.74-2.48,0.86
		L433.96,389.97z"/>
	<path class="st10" d="M407.18,373.95c-0.29-0.41-0.76-0.8-0.69-1.06c0.08-0.32,0.59-0.72,0.94-0.75c0.68-0.06,1.26,0.35,1.02,1.11
		C408.35,373.55,407.72,373.68,407.18,373.95z"/>
	<path class="st10" d="M430.2,338.95c-0.28-0.41-0.76-0.8-0.69-1.05c0.08-0.32,0.59-0.72,0.94-0.75c0.68-0.06,1.25,0.36,1.01,1.11
		C431.36,338.56,430.73,338.68,430.2,338.95z"/>
	<path class="st14" d="M404.59,273.08c-0.3,0.69-0.89,0.94-1.53,0.68c-0.33-0.13-0.79-0.69-0.73-0.96c0.16-0.74,0.86-0.84,1.51-0.69
		C404.3,272.22,404.77,272.42,404.59,273.08z"/>
	<path class="st9" d="M439.95,339.15c-0.27,0.54-0.37,1.16-0.67,1.27c-0.74,0.28-1.18-0.27-1.14-0.96c0.02-0.36,0.4-0.87,0.73-0.98
		C439.1,338.41,439.52,338.88,439.95,339.15z"/>
	<path class="st14" d="M386.91,289.99c-0.1,0.89,0.46,2-0.71,2.51c-0.2,0.09-0.91-0.41-0.98-0.73c-0.3-1.35,0.72-1.57,1.71-1.76
		C386.92,290.01,386.91,289.99,386.91,289.99z"/>
	<path class="st14" d="M425.02,273.02c0.61-0.01,1.22-0.02,1.83-0.04c0.02,0.99,0.05,1.97,0.07,2.96
		C424.79,275.94,424.97,274.44,425.02,273.02z"/>
	<path class="st10" d="M429.79,348.04c-0.58,0.35-0.93,0.72-1.3,0.74c-0.69,0.04-1.27-0.36-1.02-1.12c0.09-0.27,0.78-0.51,1.17-0.48
		C428.98,347.21,429.29,347.64,429.79,348.04z"/>
	<path class="st10" d="M411.3,350.93c0.47,0.32,1.06,0.51,1.14,0.82c0.22,0.85-0.49,1.09-1.13,1c-0.33-0.05-0.83-0.52-0.85-0.82
		C410.45,351.63,410.95,351.32,411.3,350.93z"/>
	<path class="st14" d="M466.86,291.72c-0.76-0.48-1.03-1.07-0.71-1.69c0.17-0.33,0.78-0.74,1.02-0.65c0.67,0.24,0.85,0.94,0.58,1.56
		C467.61,291.28,467.15,291.48,466.86,291.72z"/>
	<path class="st8" d="M475.96,354.96c0.14-1.01,0.37-2,1.7-1.78c0.31,0.05,0.83,0.71,0.76,0.9
		C477.97,355.27,476.85,354.84,475.96,354.96C475.95,354.96,475.96,354.96,475.96,354.96z"/>
	<path class="st9" d="M486.81,371.97c-0.56,0.37-0.89,0.77-1.26,0.8c-0.67,0.06-1.31-0.26-1.09-1.06c0.08-0.28,0.75-0.56,1.13-0.55
		C485.95,371.17,486.28,371.59,486.81,371.97z"/>
	<path class="st14" d="M481.04,279.94c0.21-1,0.72-1.78,1.82-1.78c1.13,0,1,0.95,1.05,1.7
		C482.97,280.45,482.01,280.55,481.04,279.94z"/>
	<path class="st14" d="M442.56,277.32c-0.27,0.19-0.59,0.59-0.96,0.64c-0.64,0.08-1.33-0.16-1.23-0.98c0.04-0.32,0.55-0.76,0.9-0.82
		C441.91,276.06,442.51,276.3,442.56,277.32z"/>
	<path class="st10" d="M433.95,389.95c-0.13,1.02-0.36,2-1.7,1.78c-0.31-0.05-0.83-0.71-0.76-0.9c0.45-1.18,1.57-0.75,2.47-0.87
		C433.96,389.97,433.95,389.95,433.95,389.95z"/>
	<path class="st14" d="M393.02,273.32c-0.64,0.47-1.1,1.09-1.62,1.14c-0.74,0.07-1.15-0.6-0.92-1.33c0.21-0.66,0.8-1.11,1.52-0.91
		C392.35,272.32,392.58,272.83,393.02,273.32z"/>
	<path class="st8" d="M411.95,314.91c0-0.65,0-1.3,0.01-1.94c0.57-0.71,1.34-1.13,1.74-0.06
		C414.22,314.34,413.25,314.86,411.95,314.91z"/>
	<path class="st14" d="M420.09,291.03c0.61-0.07,1.23-0.15,1.84-0.22c0.77,0.69,1.39,1.59,0.01,2.05
		C420.55,293.34,419.99,292.38,420.09,291.03z"/>
	<path class="st10" d="M405.99,287.1c-0.2,0.85,0.28,2.2-1.03,2.29c-1.11,0.08-0.83-1.09-0.9-1.83
		C404.71,287.41,405.35,287.25,405.99,287.1z"/>
	<path class="st10" d="M413.84,306.22c-0.45,0.41-0.77,0.7-1.09,0.99c-0.23-0.3-0.68-0.64-0.64-0.9c0.06-0.35,0.49-0.63,0.76-0.94
		C413.17,305.63,413.45,305.88,413.84,306.22z"/>
	<path class="st14" d="M440.96,286.97c0.55-0.98,1.34-1.32,2.3-0.68c0.22,0.15,0.32,0.98,0.16,1.12c-0.97,0.84-1.66-0.25-2.49-0.49
		C440.93,286.92,440.96,286.97,440.96,286.97z"/>
	<path class="st14" d="M381.93,268.95c0.41-0.85,0.81-2.05,1.98-1.49c1.3,0.62,0.25,1.63-0.01,2.47
		C383.24,269.6,382.59,269.28,381.93,268.95z"/>
	<path class="st14" d="M409.96,296.97c0.32-0.34,0.64-0.68,0.96-1.02c1.13,0.22,1.8,0.89,2.04,2.01c-0.64,0.28-1.29,0.55-1.93,0.83
		C410.68,298.18,410.32,297.57,409.96,296.97z"/>
	<path class="st14" d="M431.2,291.14c0.24-0.01,0.48,0,0.71,0.05c0.26,0.66,1.17,1.2,0.44,2.03c-0.14,0.16-0.68,0.21-0.84,0.08
		C430.8,292.71,431.05,291.9,431.2,291.14z"/>
	<path class="st14" d="M466.98,278.98c0.62,0.02,1.25,0.03,1.87,0.05c-0.24,0.53-0.41,1.47-0.74,1.53
		C466.92,280.77,467.12,279.69,466.98,278.98z"/>
	<path class="st10" d="M454.57,372.7c-0.12,0.28-0.18,0.71-0.39,0.79c-0.2,0.08-0.54-0.2-0.81-0.32c0.12-0.28,0.18-0.71,0.38-0.79
		C453.95,372.3,454.3,372.58,454.57,372.7z"/>
	<path class="st14" d="M460.98,276.96c0.66-0.02,1.32-0.03,1.99-0.05c-0.11,0.71,0.07,1.71-0.98,1.74
		C460.89,278.67,461.11,277.65,460.98,276.96z"/>
	<path class="st14" d="M435.67,278.08c-0.22,0.19-0.43,0.52-0.64,0.51c-0.56,0-0.81-0.41-0.56-0.91c0.1-0.2,0.54-0.38,0.77-0.32
		C435.43,277.41,435.53,277.82,435.67,278.08z"/>
	<path class="st14" d="M428.88,276.93c0.69,0.01,1.37,0.01,2.06,0.02c-0.26,0.56-0.43,1.55-0.78,1.62
		C428.96,278.8,429.07,277.68,428.88,276.93z"/>
	<path class="st14" d="M463.93,285.87c-1.45,0.19-2.1-0.44-1.95-1.9C463.3,283.91,464.01,284.48,463.93,285.87z"/>
	<path class="st9" d="M419.96,296.95c-0.01,0.34-0.01,0.68-0.02,1.03c-0.66-0.01-1.32-0.02-1.99-0.04c0-0.33,0-0.66,0-0.99
		c0.42-0.79,1.15-0.98,1.96-0.99C419.95,296.29,419.96,296.62,419.96,296.95z"/>
	<path class="st10" d="M418.8,288.91c0.04-1.31,0.07-2.62,0.1-3.93c0.36,0.01,0.71,0.02,1.07,0.04
		C419.79,286.38,420.51,288.01,418.8,288.91z"/>
	<path class="st14" d="M459.05,275.92c0.01-0.71-0.23-1.66,0.88-1.67c1.07,0,0.91,0.96,0.98,1.67
		C460.29,275.92,459.67,275.92,459.05,275.92z"/>
	<path class="st14" d="M408.11,274.26c0.19,0.22,0.5,0.42,0.52,0.64c0.04,0.59-0.36,0.87-0.89,0.69c-0.19-0.06-0.39-0.53-0.34-0.76
		C407.43,274.62,407.81,274.48,408.11,274.26z"/>
	<path class="st10" d="M467.59,351.23c-0.29,0.11-0.64,0.38-0.84,0.29c-0.2-0.09-0.24-0.53-0.36-0.81c0.29-0.11,0.64-0.38,0.84-0.29
		C467.43,350.51,467.48,350.95,467.59,351.23z"/>
	<path class="st14" d="M398,306.87c-0.05-0.29-0.1-0.58-0.17-0.87c0.56-0.58,1.4-1.32,1.78-0.2
		C399.96,306.83,398.78,306.84,398,306.87z"/>
	<path class="st10" d="M450.34,323.23c0.12-0.28,0.18-0.71,0.39-0.79c0.2-0.08,0.54,0.2,0.82,0.32c-0.12,0.28-0.18,0.71-0.38,0.79
		C450.96,323.63,450.62,323.36,450.34,323.23z"/>
	<path class="st14" d="M405.14,268.91c-0.14-1.73,0.32-2.33,1.81-0.95C406.61,268.77,405.9,268.9,405.14,268.91z"/>
	<path class="st10" d="M394.57,320.69c-0.12,0.28-0.19,0.7-0.39,0.79c-0.19,0.08-0.54-0.2-0.81-0.32c0.12-0.28,0.18-0.71,0.39-0.79
		C393.95,320.29,394.29,320.56,394.57,320.69z"/>
	<path class="st10" d="M420.58,345.23c-0.28,0.11-0.63,0.37-0.83,0.28c-0.2-0.09-0.24-0.52-0.35-0.8c0.28-0.11,0.63-0.37,0.83-0.28
		C420.43,344.51,420.47,344.95,420.58,345.23z"/>
	<path class="st10" d="M394.54,346.68c-0.12,0.28-0.24,0.56-0.36,0.84c-0.28-0.12-0.72-0.18-0.8-0.38c-0.08-0.2,0.2-0.55,0.32-0.83
		C393.98,346.44,394.26,346.56,394.54,346.68z"/>
	<path class="st8" d="M410.68,283.35c0.28,0.12,0.72,0.18,0.8,0.38c0.08,0.2-0.2,0.55-0.32,0.83c-0.28-0.12-0.72-0.18-0.8-0.38
		C410.28,283.98,410.56,283.63,410.68,283.35z"/>
	<path class="st14" d="M425.75,290.59c-0.18,0.41-0.29,0.68-0.4,0.94c-0.36-0.15-0.73-0.28-1.04-0.49c-0.04-0.03,0.19-0.7,0.31-0.7
		C424.99,290.32,425.36,290.49,425.75,290.59z"/>
	<path class="st14" d="M474.06,279.01c0.64-0.03,1.27-0.06,1.91-0.09c0.07,1.37-0.57,2.03-1.95,1.98c0,0,0,0.02,0,0.02
		C474.03,280.28,474.04,279.64,474.06,279.01z"/>
	<path class="st14" d="M395.02,266.95c0.06-0.73-0.14-1.65,1-1.72c0.24-0.01,0.65,0.21,0.72,0.42c0.27,0.72-0.22,1.12-0.77,1.45
		C395.66,267.02,395.34,266.97,395.02,266.95z"/>
	<path class="st14" d="M405.99,287.1c-0.64,0.15-1.28,0.31-1.93,0.46c-0.03-0.54-0.06-1.09-0.09-1.63c0,0-0.05,0.05-0.05,0.05
		C404.83,285.97,405.69,286.02,405.99,287.1z"/>
	<path class="st14" d="M398,382.49c-0.21,0.26-0.45,0.55-0.68,0.84c-0.14-0.26-0.43-0.55-0.38-0.76c0.08-0.35,0.39-0.64,0.6-0.95
		C397.66,381.87,397.8,382.12,398,382.49z"/>
	<path class="st10" d="M426.92,275.94c-0.02-0.99-0.05-1.97-0.07-2.96c1.29,0.64,1.06,1.85,1.11,2.95
		C427.62,275.93,427.27,275.94,426.92,275.94z"/>
	<path class="st8" d="M403.95,345.95c-0.66,0.01-1.31,0.01-1.97,0.02c-0.02-0.33-0.03-0.67-0.05-1c0.67-0.08,1.32-1.12,2.01-0.04
		C403.95,345.27,403.95,345.61,403.95,345.95z"/>
	<path class="st10" d="M478.65,366.79c-0.2,0.16-0.38,0.35-0.6,0.45c-0.06,0.03-0.36-0.2-0.35-0.28c0.03-0.25,0.17-0.49,0.26-0.74
		C478.19,366.41,478.42,366.6,478.65,366.79z"/>
	<path class="st10" d="M384.04,300.99c-0.43,0.64-0.85,1.28-1.28,1.91c0,0-0.4,0.01-0.4,0.01s-0.4-0.02-0.4-0.02
		C382.02,301.57,382.75,300.97,384.04,300.99z"/>
	<path class="st14" d="M454.36,293.42c-0.3,0.09-0.67,0.33-0.86,0.23c-0.21-0.11-0.26-0.53-0.37-0.82c0.26-0.08,0.61-0.31,0.74-0.22
		C454.11,292.77,454.2,293.13,454.36,293.42z"/>
	<path class="st9" d="M342.01,292.92c-0.01-1.99-0.03-3.99-0.04-5.98c2.86,1.68,5.7,2.81,9.15,1.46c5.1-2,6.79-0.89,7.83,4.68
		c-1.43-0.07-2.81-0.06-2.97,1.88C351.67,291.88,346.64,293.72,342.01,292.92z"/>
	<path class="st9" d="M351.74,318.9c-2-0.26-3.58-1.39-3.55-3.36c0.04-2.12,0.88-4.33,3.56-4.47c2.48-0.13,2.16,1.89,2.2,3.48
		c0.02,0.81-0.01,1.63-0.02,2.44C352.48,316.81,351.93,317.64,351.74,318.9z"/>
	<path class="st9" d="M352,335.94c-2.89,0.15-4.55-1.02-3.78-4.06c0.41-1.64,1.73-2.88,3.6-2.81c2.91,0.12,1.95,2.4,2.08,4.05
		C351.53,332.89,351.16,334,352,335.94z"/>
	<path class="st9" d="M373.91,386.9c-0.19,1.62,0.71,4.33-2.13,3.83c-2.36-0.41-4.69-2.9-4.26-5.07c0.59-2.96,2.23-0.64,3.32,0.33
		C371.58,387.25,372.78,386.97,373.91,386.9z"/>
	<path class="st8" d="M350.94,305.05c0.4-2.75,2.39-2.17,4.12-1.86c0.48,0.09,1.3,0.98,1.21,1.22c-0.73,1.96-2.56,2.23-4.33,2.53
		C351.6,306.31,351.27,305.68,350.94,305.05z"/>
	<path class="st9" d="M341.99,324.95c0.01-0.65,0.01-1.31,0.02-1.96c0.16-0.01,0.33-0.02,0.49-0.01c1.59,0.04,3.44-0.38,4.02,1.76
		c0.12,0.45-0.32,1.33-0.76,1.6C344.01,327.45,343.3,325.3,341.99,324.95z"/>
	<path class="st10" d="M357,378.94c-1.32,0.59-3.14,1.57-3.53-0.54c-0.5-2.73,1.96-2.28,3.65-2.41
		C357.08,376.97,357.04,377.96,357,378.94z"/>
	<path class="st14" d="M357,378.94c0.04-0.98,0.08-1.97,0.11-2.95c2.35-0.39,3.85,1.21,3.42,2.94
		C360.01,381.02,358.23,379.42,357,378.94z"/>
	<path class="st10" d="M373.32,378.73c0.26,0.34,0.52,0.67,0.78,1.01c-0.29,1.74-1.22,2.52-3,1.99c-0.7-0.21-1.05-0.79-0.9-1.45
		C370.59,378.55,372.21,379.13,373.32,378.73z"/>
	<path class="st14" d="M378.06,384.95c1.86,0.15,1.88,1.51,1.92,2.87c-1.53-0.25-3.23,0.85-4.65-0.55
		C375.33,385.36,377.66,386.3,378.06,384.95z"/>
	<path class="st10" d="M361.9,390.11c-1.31,1.24-2.68,1.1-4,0.07c-0.75-0.58-0.86-1.41-0.25-2.18c0.78-0.99,1.6-1.04,2.37,0.05
		C359.78,389.52,360.69,389.96,361.9,390.11z"/>
	<path class="st9" d="M349.94,360.96c1.77,0.15,2.23,1.21,1.8,2.74c-0.1,0.35-0.74,0.85-1.01,0.79c-1.95-0.46-1.69-2.12-1.81-3.57
		l0.08,0.05C349.32,360.97,349.63,360.96,349.94,360.96z"/>
	<path class="st10" d="M365.9,374.07c-0.11,0.87-0.35,1.7-1.47,1.38c-0.86-0.25-1.31-1-1.29-1.89c0.02-0.97,0.58-1.51,1.58-1.36
		C365.77,372.37,365.84,373.23,365.9,374.07z"/>
	<path class="st10" d="M349.62,351.02c-0.31,1-0.78,1.65-1.75,1.58c-0.92-0.07-1.5-0.64-1.51-1.57c-0.01-0.87,0.76-0.96,1.4-1.02
		C348.64,349.94,349.32,350.24,349.62,351.02z"/>
	<path class="st14" d="M355.98,294.95c0.16-1.94,1.54-1.96,2.97-1.88c0.3,0.23,0.6,0.45,0.9,0.68c-0.01,0.49-0.02,0.98-0.03,1.47
		c-0.28,0.29-0.57,0.58-0.85,0.86c-0.67-0.05-1.35-0.11-2.02-0.16C356.63,295.6,356.3,295.28,355.98,294.95z"/>
	<path class="st14" d="M351.74,318.9c0.18-1.26,0.74-2.1,2.19-1.9c-0.22,1.18,0.71,2.8-0.8,3.45
		C352.14,320.89,352.07,319.57,351.74,318.9z"/>
	<path class="st14" d="M373.91,386.9c-1.13,0.07-2.33,0.36-3.07-0.9c0.54-0.97,1.13-2.17,2.44-1.64
		C374.27,384.76,373.9,385.98,373.91,386.9z"/>
	<path class="st10" d="M362.45,384.95c-0.13,0.87-0.81,0.92-1.46,0.92c-0.64,0-1.43-0.02-1.43-0.91c0.01-0.88,0.78-0.92,1.43-0.92
		C361.65,384.03,362.34,384.07,362.45,384.95z"/>
	<path class="st14" d="M363.61,362.59c-0.5,0.76-1.15,1.09-2.01,0.62c-0.54-0.3-1.22-0.63-0.74-1.43c0.48-0.8,1.28-0.9,2.09-0.66
		C363.65,361.34,363.94,361.85,363.61,362.59z"/>
	<path class="st8" d="M355.54,355.13c0.83,0.06,1.24,0.62,0.95,1.29c-0.22,0.5-0.87,1.03-1.39,1.11c-0.87,0.14-1-0.66-0.94-1.33
		C354.22,355.4,354.83,355.17,355.54,355.13z"/>
	<path class="st10" d="M355.53,340.32c0.29,0.36,0.89,0.8,1.01,1.34c0.17,0.74-0.47,1.17-1.19,1.13c-0.72-0.03-1.21-0.51-1.24-1.24
		C354.09,340.84,354.48,340.36,355.53,340.32z"/>
	<path class="st7" d="M362.08,348.02c1.05,0.06,2.35-0.27,2.64,1.22c0.25,1.25-0.71,1.54-1.7,1.68
		C362.44,350.04,361.8,349.18,362.08,348.02z"/>
	<path class="st14" d="M350.94,305.05c0.33,0.63,0.66,1.26,1,1.89c-0.93,0.23-2.03,1.67-2.74,0.05
		C348.62,305.68,349.55,304.99,350.94,305.05z"/>
	<path class="st14" d="M352,335.94c-0.84-1.94-0.47-3.05,1.9-2.82C353.96,334.52,353.92,335.87,352,335.94z"/>
	<path class="st10" d="M348.99,368.95c-1.22-0.59-2.2-1.37-1.78-2.9c0.08-0.29,0.69-0.43,1.06-0.64c0.26,0.55,0.52,1.1,0.78,1.65
		C349.03,367.69,349.01,368.32,348.99,368.95z"/>
	<path class="st10" d="M352.63,342.64c0.02,0.8-0.45,1.23-1.17,1.17c-0.39-0.03-0.95-0.38-1.08-0.72c-0.28-0.71,0.16-1.3,0.86-1.46
		C351.98,341.46,352.42,341.95,352.63,342.64z"/>
	<path class="st9" d="M349.99,375.91c-0.55,0.74-1.29,1.14-1.78,0.13c-0.43-0.9-0.18-2.02,0.92-2.3c0.75-0.19,0.77,0.73,0.89,1.31
		C349.96,375.33,349.96,375.62,349.99,375.91z"/>
	<path class="st14" d="M361.9,390.11c-1.21-0.15-2.12-0.58-1.89-2.06c1.09-0.01,2.47-0.61,3.16,0.39
		C363.73,389.23,362.59,389.72,361.9,390.11z"/>
	<path class="st10" d="M361.66,352.74c-0.07,0.8-0.6,1.16-1.3,1.05c-0.38-0.06-0.92-0.47-1-0.81c-0.16-0.69,0.25-1.32,0.98-1.39
		C361.07,351.51,361.47,352.07,361.66,352.74z"/>
	<path class="st10" d="M357.14,365.95c0.54,0.27,1.17,0.38,1.29,0.68c0.28,0.75-0.27,1.19-0.96,1.15c-0.36-0.02-0.88-0.41-0.98-0.73
		C356.4,366.8,356.86,366.38,357.14,365.95z"/>
	<path class="st14" d="M352.8,346.94c-0.22-0.56-0.6-1.14-0.47-1.3c0.26-0.32,0.8-0.55,1.23-0.55c0.49-0.01,0.98,0.36,0.56,0.94
		C353.87,346.38,353.38,346.56,352.8,346.94z"/>
	<path class="st14" d="M376.03,393.29c-0.77-0.51-1.34-1.36-0.44-1.91c1.12-0.68,1.65,0.6,2.28,1.3
		C377.25,392.88,376.64,393.08,376.03,393.29z"/>
	<path class="st14" d="M348.93,360.93c-0.58,0.11-1.55,0.48-1.69,0.28c-0.67-0.99-0.18-1.8,0.78-2.36c0.94,0.43,0.91,1.3,0.99,2.13
		L348.93,360.93z"/>
	<path class="st14" d="M348.99,368.95c0.02-0.63,0.04-1.26,0.06-1.89c0.65-0.05,1.47-0.07,1.58,0.68
		C350.8,368.91,349.78,368.87,348.99,368.95z"/>
	<path class="st10" d="M349.01,360.98c-0.07-0.83-0.05-1.7-0.99-2.13c2.66-1.13,1.62,1.1,1.92,2.11
		C349.63,360.96,349.32,360.97,349.01,360.98z"/>
	<path class="st14" d="M352.75,297.75c-0.24,0.4-0.38,0.64-0.52,0.89c-0.32-0.22-0.68-0.4-0.93-0.68c-0.06-0.07,0.29-0.69,0.38-0.68
		C352.04,297.36,352.37,297.57,352.75,297.75z"/>
	<path class="st8" d="M376.03,393.29c0.61-0.2,1.22-0.41,1.83-0.61c-0.05,0.73,0.2,1.69-0.84,1.84
		C376.29,394.62,376.12,393.9,376.03,393.29z"/>
	<path class="st10" d="M356.96,295.92c0.67,0.05,1.35,0.11,2.02,0.16c-0.17,0.4-0.28,1.11-0.52,1.15
		C357.53,297.41,357.26,296.6,356.96,295.92z"/>
	<path class="st14" d="M349.99,375.91c-0.03-0.29-0.02-0.57,0.03-0.86c0.58-0.02,1.41-1.27,1.66,0.03
		C351.85,376.04,350.74,375.97,349.99,375.91z"/>
	<path class="st7" d="M368.18,310.4c0.13-0.91,0.74-1.33,1.66-1.33c0.84,0,1.71,0.1,1.83,1.15c0.15,1.33-0.76,1.63-1.84,1.63
		C368.91,311.84,368.29,311.43,368.18,310.4z"/>
	<path class="st2" d="M374.91,311.9c-0.01,2.38-0.03,4.75-0.04,7.13c-1.68-2.16-0.45-4.68-0.88-7
		C374.29,311.96,374.6,311.91,374.91,311.9z"/>
	<path class="st3" d="M370.33,319.22c0.12-0.28,0.18-0.72,0.39-0.79c0.2-0.08,0.54,0.2,0.82,0.32c-0.12,0.28-0.18,0.71-0.39,0.8
		C370.96,319.62,370.61,319.34,370.33,319.22z"/>
	<path class="st2" d="M403.92,394.94c0.01,0.35,0.03,0.7,0.04,1.04c-0.99,0.31-1.66-0.08-2.15-0.93
		C402.52,395.02,403.22,394.98,403.92,394.94z"/>
	<path class="st14" d="M441,268.76c-0.08,0.83-0.23,1.75-1.3,1.61c-0.82-0.11-1.55-0.79-1.33-1.7c0.12-0.52,0.73-1.14,1.25-1.3
		C440.7,267.03,440.91,267.9,441,268.76z"/>
	<path class="st14" d="M472.98,278.06c-1.42-0.56-4.74,0.66-2.85-3.02C471.67,275.5,473.26,275.9,472.98,278.06z"/>
	<path class="st14" d="M491.82,277.76c-0.19,0.28-0.35,0.82-0.67,0.94c-0.74,0.28-1.28-0.25-1.45-0.89
		c-0.08-0.3,0.27-0.94,0.57-1.07C491,276.45,491.44,276.97,491.82,277.76z"/>
	<path class="st2" d="M491.97,284.97c-1.33-0.02-1.98-0.71-2.02-2.02c0.83,0.02,1.59,0.21,2.03,1.02c0.02,0.36,0.04,0.71,0.06,1.07
		L491.97,284.97z"/>
	<path class="st2" d="M474.06,279.01c-0.02,0.64-0.03,1.27-0.05,1.91c-0.35,0.01-0.7,0.02-1.05,0.03c0-0.68,0-1.35-0.01-2.03
		C473.32,278.95,473.69,278.98,474.06,279.01z"/>
	<path class="st12" d="M492.04,285.04c-0.02-0.36-0.04-0.71-0.06-1.07c0.66,0.26,1.32,0.51,1.98,0.77
		C493.31,284.84,492.68,284.94,492.04,285.04z"/>
	<path class="st4" d="M359.85,293.75c-0.3-0.23-0.6-0.46-0.9-0.68c-1.04-5.57-2.74-6.68-7.83-4.68c-3.45,1.35-6.29,0.23-9.15-1.46
		c-0.01-0.98-0.02-1.95-0.03-2.93c3.37-1.49,4.47-6.45,9.13-5.97c0.19,2.14,0.32,4.25,1.31,6.28c0.62,1.28,1.42,1.67,2.66,1.59
		c0.66-0.04,1.38-0.17,1.49-0.95c0.19-1.23-0.92-1.53-1.65-2.13c-1.48-1.22-2.02-2.89-1.93-4.78c3.01-1.56,4.95-4.92,8.73-5.17
		c-0.6,6.69-1.9,13.32-1.66,20.08C359.94,293.21,359.89,293.48,359.85,293.75z"/>
	<path class="st14" d="M352.94,278.04c-0.08,1.89,0.45,3.55,1.93,4.78c0.73,0.6,1.84,0.9,1.65,2.13c-0.12,0.78-0.83,0.92-1.49,0.95
		c-1.24,0.07-2.04-0.31-2.66-1.59c-0.98-2.03-1.12-4.14-1.31-6.28C351.69,278.03,352.32,278.03,352.94,278.04z"/>
	<path class="st7" d="M368.73,283.06c1.32,0.03,2,0.47,1.99,1.43c-0.01,0.99-0.71,1.39-1.66,1.26c-0.89-0.12-1.61-0.66-1.66-1.52
		C367.34,283.14,368.29,283.1,368.73,283.06z"/>
	<path class="st7" d="M376.02,272.99c1.17,0.03,1.85,0.55,1.81,1.8C376.5,274.93,376.03,274.2,376.02,272.99z"/>
	<path class="st12" d="M380.25,266.93c-0.21-0.81-0.01-1.46,0.69-1.95C380.7,265.63,380.48,266.28,380.25,266.93z"/>
</g>
</svg>
