<?xml version="1.0" encoding="utf-8"?>
<!-- Generator: Adobe Illustrator 26.0.3, SVG Export Plug-In . SVG Version: 6.00 Build 0)  -->
<svg version="1.1" id="Layer_1" xmlns="http://www.w3.org/2000/svg" xmlns:xlink="http://www.w3.org/1999/xlink" x="0px" y="0px"
	 viewBox="0 0 792 612" style="enable-background:new 0 0 792 612;" xml:space="preserve">
<style type="text/css">
	.st0{fill:#265E7E;}
	.st1{fill:#5A80B2;}
	.st2{fill:#A9D0F0;}
	.st3{fill:#CFE7EC;}
	.st4{fill:#31B4C4;}
</style>
<g>
	<path class="st0" d="M582.33,193.83c0.91,0.1,1.81,0.19,2.72,0.29c1.27,3.22,3.82,4.14,7.01,3.92c0,0,0,0,0,0
		c2.29,4.84,4.59,9.97,2.93,15.24c-1.93,6.14-1.35,12.51-2.81,18.64c-0.76,3.21-0.63,6.66-1.61,9.78
		c-2.57,8.19-3.29,16.74-5.16,25.07c-2.04,9.12-2.43,18.63-4.67,27.7c-2.21,8.96-3.89,18.03-5.29,27.06
		c-2.11,13.62-5.69,26.94-7.53,40.56c-0.83,6.13-4.07,11.99-2.46,18.44c-0.05,0.52-0.09,1.04-0.14,1.57
		c-0.83,0.19-1.95,0.48-1.9,1.33c0.26,4.37-1.68,8.34-2.14,12.55c-1.4,12.81-4.71,25.28-6.79,37.97
		c-1.53,9.39-4.32,18.55-5.55,28.04c-0.52,4-2.36,6.92-7.02,8.32c-5.81,1.74-12.31,2.4-17.33,4.69c-8.48,3.87-17.19,3.54-25.64,4.58
		c-17.47,2.15-35.17,1.09-52.78,0.58c-4.99-0.14-10.03,0.15-14.98-0.41c-17.88-2-35.85-3.46-53.44-7.54c-4-0.93-7.79-2.9-12.08-1.84
		c-0.55-0.07-1.1-0.13-1.65-0.2c-0.53-1.13-1.45-1.63-2.62-2.04c-4.89-1.73-9.91-3.19-14.39-5.93c-5.92-3.64-10.2-8.33-10.09-15.8
		c0.09-6.28-2.83-12.21-2.1-18.58c0.14-1.21-0.77-2.13-1.86-2.72c-0.08-1.22-0.16-2.45-0.24-3.67c1.03-6.53-0.94-12.75-1.74-19.12
		c-1.41-11.26-3.72-22.42-4.09-33.8c-0.04-1.37-0.66-2.17-2.01-2.41c-0.03-0.92-0.07-1.85-0.1-2.77c1.09-5.74,0.32-11.68-0.51-17.14
		c-1.25-8.26-3.43-16.39-3.42-24.84c0-1.93-0.16-3.7-2.41-4.35c-0.03-0.65-0.05-1.3-0.08-1.95c0.96-1.16,0.46-2.54,0.62-3.83
		c0.55-4.53-1.68-8.72-1.79-13.04c-0.19-7.98-2.17-15.67-2.87-23.57c-1.22-13.87-3.53-27.64-5.35-41.46
		c-0.28-2.15-0.61-4.25-1.94-6.04c-0.03-0.64-0.07-1.29-0.1-1.93c1.33-3.03,1.62-5.92,0.06-9.13c-0.89-1.82-0.58-4.2-0.98-6.29
		c-1.24-6.61,1.93-12.5,2.94-18.75c0,0,0.01,0,0.01,0c0.38-0.2,0.75-0.4,1.13-0.6c10.64-4.62,22.1-5.8,33.38-6.87
		c30.88-2.95,61.89-2.49,92.87-2.48c27.31,0.01,54.59,0.67,81.79,3.18c15.2,1.4,30.34,3.41,45.51,5.17
		c0.43,0.05,0.81,0.49,1.21,0.74c-0.1,0.12-0.28,0.24-0.28,0.37c-0.01,0.13,0.15,0.39,0.24,0.39
		C570.8,190.91,576.09,195.22,582.33,193.83z M358.96,423.2l-0.02-0.01c2.57,1.15,5.15,2.18,8.06,1.61
		c0.68,0.06,1.36,0.11,2.04,0.17c9,2.39,18.19,3.23,27.47,3.4c0.94,1.24,2.09,1.71,3.56,0.92c3.64,0.88,7.34,0.42,11.02,0.47
		c1.96,0.43,3.93,0.58,5.9,0.06c0.68,0,1.37,0.01,2.05,0.01c0.32,0.01,0.65,0.02,0.97,0.03c0.68,0.02,1.37,0.03,2.05,0.05
		c14.27,3.19,28.69,1.44,43.06,1.27c11.72,0.02,23.36-1.68,35.09-1.47c3.53,0.06,7.09-1.07,10.63-1.66c0.4-0.07,0.8-0.15,1.21-0.22
		c9.56-0.59,19.01-1.82,28.21-4.59c5.04-0.17,7.63-3.2,8.62-7.74c0.91-4.16,1.47-8.39,2.18-12.58c1.28-0.85,1.27-2.28,1.48-3.54
		c1.64-9.75,3.26-19.49,4.76-29.26c0.56-3.7,2.53-7.24,1.36-11.15c1.2-3.44,1.95-6.96,1.78-10.63c0.94-0.57,1.26-1.53,1.45-2.51
		c2.76-14.17,5.54-28.34,8.24-42.53c3.6-18.9,7.18-37.8,10.7-56.71c2.46-13.2,4.88-26.41,8.64-39.33c0.78-2.68-0.09-3.48-2.82-3.44
		c-33.3,0.47-66.56-1.07-99.84-1.61c-31.13-0.5-62.27-0.31-93.41-0.4c-7.14-0.02-14.22-1.81-21.39-0.65
		c-0.99-0.07-1.98-0.14-2.96-0.21c-3.67-0.05-7.34-0.09-11.01-0.14c-5.34-0.39-10.66-0.23-15.99,0.2c-7.99,0-15.99,0.07-23.98-0.03
		c-6.9-0.09-7.51,0.41-5.9,7.16c2.81,11.81,4.1,23.87,5.84,35.84c3.67,25.31,6.73,50.71,10.25,76.05c3.34,24.03,6.97,48.01,10,72.08
		c0.68,5.37,0.72,10.92,2.62,16.12c0.01,4.54-0.2,9.28,5.17,11.22c2.93,1.06,5.77,2.56,9.01,2.63
		C356.04,423.54,357.47,423.47,358.96,423.2z M408.12,468.48c1.31,0.19,2.61,0.39,3.92,0.58c2.13,1.86,4.62,0.97,7,0.92
		c4.32,0.39,8.64,0.79,12.96,1.18c3.64,1.34,7.36,0.77,11.07,0.45c2.63,0.03,5.25,0.07,7.88,0.1c22.09,0.8,44.12,0.69,66.06-2.64
		c7.92-1.2,13.92-3.05,14.21-12.92c0.16-5.66,3.2-11.1,3.55-16.93c0.15-2.48-0.09-4.47-3.89-3.76c-13.55,2.53-27.27,3.92-41.03,4.23
		c-20.28,0.47-40.57,0.43-60.85,0.61c-6.32-0.43-12.64-0.86-18.97-1.29c-2.56-1.53-5.34-0.71-8.03-0.75c-2.32-0.1-4.64-0.2-6.96-0.3
		c-10.61-1.61-21.21-3.26-31.83-4.81c-2.58-0.38-2.64,1.55-2.32,3.27c1.46,7.65,3.01,15.28,4.55,22.91
		c0.28,1.38,0.92,2.44,2.49,2.76C381.25,464.74,394.49,467.86,408.12,468.48z M310.92,194.8c8.38,3.06,262.06,4.67,267.31,1.6
		c-4.33,0.1-7.52-2.08-11-2.24c-10.28-0.46-20.51-2.09-30.53-3.67c-17.76-2.81-35.65-1.9-53.43-4.02
		c-18.25-2.18-36.87,0.17-55.34-1.31c-8.4-0.67-16.96,0.58-25.37,0.56c-23.61-0.06-47.12,1.12-70.57,3.53
		C325.08,189.96,317.97,191.09,310.92,194.8z"/>
	<path class="st1" d="M365.68,470.36c4.28-1.06,8.08,0.91,12.08,1.84c17.58,4.08,35.56,5.54,53.44,7.54
		c4.95,0.55,9.98,0.26,14.98,0.41c17.61,0.51,35.31,1.56,52.78-0.58c8.45-1.04,17.15-0.71,25.64-4.58
		c5.02-2.29,11.52-2.95,17.33-4.69c4.67-1.4,6.51-4.32,7.02-8.32c1.23-9.49,4.02-18.65,5.55-28.04c2.07-12.7,5.38-25.16,6.79-37.97
		c0.46-4.21,2.4-8.18,2.14-12.55c-0.05-0.85,1.07-1.14,1.9-1.33c0.19,6.87-2.1,13.36-3.19,20.03c-2.14,13.1-4.95,26.09-7.5,39.12
		c-1.62,8.3-3.31,16.58-4.91,24.88c-0.48,2.52-1.86,4.22-4.2,5.11c-20.27,7.68-41.39,10.47-62.93,10.69
		c-16.15,0.17-32.33,0.57-48.43-0.62c-22.34-1.66-44.6-4.21-66.41-9.65C367,471.44,366.36,470.79,365.68,470.36z"/>
	<path class="st1" d="M565.46,380.51c-1.61-6.44,1.63-12.31,2.46-18.44c1.84-13.61,5.42-26.94,7.53-40.56
		c1.4-9.03,3.08-18.1,5.29-27.06c2.24-9.06,2.62-18.57,4.67-27.7c1.86-8.33,2.59-16.87,5.16-25.07c0.98-3.12,0.85-6.57,1.61-9.78
		c1.45-6.13,0.88-12.5,2.81-18.64c1.66-5.27-0.64-10.4-2.93-15.24c6.88,4.81,5.04,11.94,4.04,18.19
		c-3.92,24.42-8.33,48.77-12.71,73.11c-4.2,23.35-8.32,46.72-13.08,69.96C568.85,366.37,568.76,373.84,565.46,380.51z"/>
	<path class="st1" d="M307.03,227.09c1.33,1.8,1.66,3.9,1.94,6.04c1.82,13.82,4.13,27.59,5.35,41.46c0.7,7.9,2.67,15.59,2.87,23.57
		c0.1,4.32,2.33,8.51,1.79,13.04c-0.16,1.29,0.34,2.68-0.62,3.83c-2.79-11.11-3.45-22.55-5.04-33.84
		c-2.27-16.06-4.16-32.17-6.25-48.25C306.8,230.98,306.22,229.04,307.03,227.09z"/>
	<path class="st1" d="M332.95,425.08c1.09,0.59,2,1.51,1.86,2.72c-0.72,6.37,2.19,12.3,2.1,18.58c-0.11,7.47,4.17,12.16,10.09,15.8
		c4.48,2.75,9.49,4.2,14.39,5.93c1.17,0.41,2.1,0.91,2.62,2.04c-9.81-2.24-19.3-5.01-25.76-13.68c-2.8-3.75-2.59-8.13-3.16-12.31
		C334.24,437.82,332.92,431.52,332.95,425.08z"/>
	<path class="st1" d="M324.87,366.08c1.35,0.24,1.96,1.04,2.01,2.41c0.37,11.38,2.69,22.54,4.09,33.8
		c0.8,6.37,2.77,12.59,1.74,19.12c-2.72-4.3-1.88-9.35-2.68-14.01c-2.29-13.23-3.78-26.6-5.55-39.92
		C324.43,367.04,324.73,366.55,324.87,366.08z"/>
	<path class="st1" d="M318.44,316.98c2.25,0.65,2.41,2.42,2.41,4.35c-0.01,8.45,2.17,16.58,3.42,24.84
		c0.83,5.46,1.6,11.4,0.51,17.14c-2.36-4.74-1.85-10.01-2.51-15.01C320.9,337.88,318.72,327.54,318.44,316.98z"/>
	<path class="st1" d="M308.94,190.99c-1.01,6.24-4.18,12.14-2.94,18.75c0.39,2.1,0.09,4.47,0.98,6.29c1.56,3.2,1.27,6.1-0.06,9.13
		c-2.55-10.72-3.65-21.46-0.08-32.18C307.11,192.17,308.23,191.64,308.94,190.99z"/>
	<path class="st1" d="M582.33,193.83c-6.24,1.39-11.52-2.92-17.52-2.93c-0.09,0-0.25-0.26-0.24-0.39c0.01-0.13,0.18-0.25,0.28-0.37
		C570.87,190.41,576.88,190.8,582.33,193.83z"/>
	<path class="st1" d="M592.05,198.04c-3.19,0.22-5.74-0.7-7.01-3.92C587.71,194.84,590.34,195.62,592.05,198.04z"/>
	<path class="st1" d="M310.08,190.39c-0.38,0.2-0.75,0.4-1.13,0.6C309.12,190.39,309.5,190.19,310.08,190.39z"/>
	<path class="st2" d="M372,201.16c7.17-1.17,14.25,0.63,21.39,0.65c31.14,0.09,62.28-0.11,93.41,0.4
		c33.28,0.54,66.54,2.08,99.84,1.61c2.73-0.04,3.6,0.76,2.82,3.44c-3.76,12.91-6.18,26.12-8.64,39.33
		c-3.52,18.91-7.1,37.81-10.7,56.71c-2.7,14.18-5.48,28.35-8.24,42.53c-0.19,0.98-0.51,1.94-1.45,2.51
		c-1.01-1.96-1.13-4.11-1.49-6.25c-1.47-8.8-0.57-17.88-3.79-26.53c-1.37-3.67-3.47-4.97-6.78-5.42c-12.44-1.71-24.85-3.01-37.5-2.2
		c-9.71,0.62-16.75,5.21-22.83,12.13c-1,3-2,6-3.01,9c-1,0.86-1.04,2.03-0.97,3.19c0.59,9.96,0.73,19.97,1.96,29.85
		c0.87,7.01-0.44,13.24-2.67,20.03c-2.18-2.11-0.4-4.62-2.25-6.03c-1.03-1.4-2.07-2.8-3.1-4.2c1.21-4.1,2.63-8.12,4.59-11.93
		c0.76-1.48,1.02-2.81,0.65-4.67c-1.92-9.48-5.38-18.94-1.54-28.76c0.28-0.73,0.45-1.86,0.08-2.42c-4.7-7.18-6.95-16.88-17.92-17.77
		c-2.48-0.2-4.93-0.76-7.4-0.86c-11.44-0.47-22.9-1.32-34.04,2.58c-4.38,1.54-7.45,4.11-9.04,8.54c-1.57,4.39-3.38,8.7-5.28,13.54
		c-0.53-0.97-0.91-1.34-0.94-1.75c-0.72-8.1-2.34-16.03-4.06-23.97c-0.69-3.19-2.31-4.52-5.49-4.43c-3.49,0.09-6.99-0.02-10.49-0.04
		c-0.33-1.11-0.78-2.21-0.96-3.34c-2.03-12.71-4.13-25.42-5.98-38.16c-1.24-8.5-1.79-17.1-3.22-25.55
		C375.15,222.34,375.36,211.47,372,201.16z"/>
	<path class="st2" d="M339.93,317.1c-2.92,10.24-4.34,20.52-1.47,31.08c0.68,2.49,0.42,5.24,0.5,7.87c0.17,5.68,2.13,7.82,7.72,8
		c2.32,0.08,4.52,0.41,6.64,1.33c-0.15,1.77-2.6,1.85-2.34,3.67l0.04-0.04c-4.33,3.15-5.37,8.46-5.41,12.74
		c-0.09,9.22-2.16,17.83-4.76,26.47c-1.9-5.2-1.95-10.75-2.62-16.12c-3.03-24.07-6.66-48.05-10-72.08
		c-3.52-25.34-6.58-50.74-10.25-76.05c-1.73-11.97-3.03-24.03-5.84-35.84c-1.6-6.75-1-7.25,5.9-7.16c7.99,0.1,15.99,0.03,23.98,0.03
		c-1.24,1.95-0.94,4.14-1.05,6.29c-1.17,24.18,3.24,47.81,7.29,71.43c1.46,8.53,2.95,17.15,5.87,25.39
		c-1.16,2.19-3.32,2.94-5.38,3.98c-3.71,1.88-7.84,3.49-8.66,8.4C340.22,316.75,340.16,316.95,339.93,317.1z"/>
	<path class="st3" d="M354.14,304.11c-2.92-8.24-4.41-16.86-5.87-25.39c-4.04-23.62-8.46-47.25-7.29-71.43
		c0.1-2.15-0.19-4.34,1.05-6.29c5.33-0.42,10.65-0.59,15.99-0.2c3.64,2.08,7.32,1.88,11.01,0.14c0.99,0.07,1.98,0.14,2.96,0.21
		c3.36,10.31,3.15,21.19,4.94,31.76c1.43,8.46,1.98,17.06,3.22,25.55c1.85,12.74,3.95,25.44,5.98,38.16
		c0.18,1.14,0.63,2.23,0.96,3.34c-10.52-1.49-20.93-2.23-30.56,3.73C355.9,304.09,354.95,303.99,354.14,304.11z"/>
	<path class="st2" d="M429,440.3c20.28-0.18,40.57-0.15,60.85-0.61c13.76-0.32,27.48-1.7,41.03-4.23c3.8-0.71,4.04,1.28,3.89,3.76
		c-0.34,5.82-3.38,11.27-3.55,16.93c-0.29,9.88-6.29,11.72-14.21,12.92c-21.95,3.33-43.98,3.44-66.06,2.64
		c-0.57-2.32-2.18-4.01-3.56-5.83C441.04,457.52,434.13,449.55,429,440.3z"/>
	<path class="st1" d="M310.92,194.8c7.05-3.71,14.16-4.84,21.07-5.55c23.44-2.41,46.96-3.59,70.57-3.53
		c8.41,0.02,16.97-1.23,25.37-0.56c18.46,1.48,37.09-0.88,55.34,1.31c17.78,2.13,35.66,1.21,53.43,4.02
		c10.02,1.58,20.25,3.21,30.53,3.67c3.49,0.16,6.67,2.34,11,2.24C572.98,199.47,319.3,197.85,310.92,194.8z"/>
	<path class="st3" d="M429,440.3c5.13,9.25,12.03,17.21,18.39,25.57c1.39,1.82,2.99,3.51,3.56,5.83c-2.63-0.03-5.25-0.07-7.88-0.1
		c-3.59-2.67-7.32-1.92-11.07-0.45c-4.32-0.39-8.64-0.79-12.96-1.18c-1.96-3.19-4.46-2.22-7-0.92c-1.31-0.19-2.61-0.39-3.92-0.58
		c-4.9-8.35-9.82-16.68-14.67-25.05c-1.3-2.25-2.43-4.66,1.59-5.46c2.32,0.1,4.64,0.2,6.96,0.3c2.4,3.21,5.21,2.04,8.03,0.75
		C416.36,439.44,422.68,439.87,429,440.3z"/>
	<path class="st3" d="M512.05,427.82c-0.22-0.92,3.45-2.37-0.41-2.82c-5.08-0.59-10.13-1.41-15.22-1.88
		c-2.97-0.27-5.99,0.02-8.99-0.07c-6.93-0.21-7.32-0.87-4.24-6.45c1.61-2.92,3.18-6,2.78-9.42c-0.6-5.11,0.77-9.19,5.3-11.88
		c3.95-2.34,6-6.57,9.53-9.31c3.02,2.12,4.86,5.06,6.39,8.38c1.17,2.53,3.46,3.75,6.42,3.85c5.68,0.2,8.06-1.5,10.73-7.54
		c0.44-0.99-0.5-4.09,2.63-2.68c0.41,8.47-0.06,16.88-1.76,25.21c-0.23,1.13-0.2,2.32-0.17,3.48c0.18,6.78,2.19,8.47,8.84,7.11
		c2.13-0.43,4.17-1.08,6.36-0.57C531.06,426,521.61,427.24,512.05,427.82z M500.18,415.22c4.51,0,7.71-2.48,7.71-5.98
		c0.01-3.05-3.56-6.11-7.2-6.18c-3.66-0.07-7.22,2.82-7.37,5.98C493.16,412.58,496.1,415.22,500.18,415.22z M518.13,411.78
		c1.21-0.61,2.89-1.26,2.67-3.3c-0.22-2.03-1.79-2.55-3.63-2.48c-1.79,0.06-2.85,0.96-2.7,2.76
		C514.62,410.66,515.85,411.64,518.13,411.78z"/>
	<path class="st2" d="M395.04,437.97c-4.02,0.8-2.89,3.21-1.59,5.46c4.85,8.38,9.77,16.71,14.67,25.05
		c-13.64-0.62-26.87-3.74-40.19-6.39c-1.57-0.31-2.21-1.38-2.49-2.76c-1.54-7.63-3.09-15.26-4.55-22.91
		c-0.33-1.72-0.27-3.64,2.32-3.27C373.83,434.71,384.43,436.35,395.04,437.97z"/>
	<path class="st2" d="M551.06,402.91c2.05-10.1,0.38-19.95-1.92-29.78c-0.71-3.03-0.09-5.68,2.92-7.73c2.5-1.7,4.42-4.26,6.59-6.44
		c1.17,3.91-0.8,7.46-1.36,11.15c-1.49,9.77-3.12,19.52-4.76,29.26C552.32,400.62,552.33,402.06,551.06,402.91z"/>
	<path class="st3" d="M369.04,424.96c2.77-1.73,6.08-1.53,8.63-0.56c9.59,3.63,18.03,1.92,25.8-4.3c2.77-2.22,4.26-2.35,5.13,1.73
		c0.53,2.48,2.33,4.69,3.56,7.03c-0.36,0.3-0.72,0.59-1.08,0.88c-3.68-0.05-7.38,0.41-11.02-0.47c-0.82-1.71-2.22-1.19-3.56-0.92
		C387.23,428.19,378.04,427.35,369.04,424.96z"/>
	<path class="st2" d="M465.04,430.06c0.33-0.01,0.77,0.11,0.98-0.06c5.94-4.66,12-2.27,18.55-1.32c8.6,1.25,17.47-1.37,26.28-0.64
		c-3.55,0.59-7.1,1.72-10.63,1.66c-11.74-0.2-23.38,1.5-35.09,1.47c0,0-0.27-0.32-0.27-0.32
		C464.96,430.6,465.03,430.34,465.04,430.06z"/>
	<path class="st2" d="M422.06,429.9c-0.11-0.28-0.14-0.56-0.07-0.86c2.28,0.12,4.57,0.48,6.8,0.61c5.43,0.31,10.99,1.62,16.33-0.73
		c1.32,0.08,2.64,0.16,3.96,0.24c2.18,1.64,4.67,0.64,7.02,0.81c0,0,0.01,0.04,0.01,0.04c2.76,1.88,5.83,0.66,8.75,0.84
		c0,0,0.27,0.32,0.27,0.32C450.75,431.34,436.33,433.09,422.06,429.9z"/>
	<path class="st2" d="M432,471.16c3.76-1.46,7.49-2.22,11.07,0.45C439.37,471.92,435.65,472.49,432,471.16z"/>
	<path class="st2" d="M410.04,439.02c-2.82,1.3-5.63,2.47-8.03-0.75C404.7,438.3,407.48,437.48,410.04,439.02z"/>
	<path class="st2" d="M412.04,469.06c2.55-1.3,5.05-2.26,7,0.92C416.66,470.03,414.17,470.91,412.04,469.06z"/>
	<path class="st2" d="M369.03,200.94c-3.69,1.74-7.37,1.94-11.01-0.14C361.69,200.85,365.36,200.9,369.03,200.94z"/>
	<path class="st3" d="M358.94,423.18c2.91-0.59,5.47,0.61,8.06,1.61C364.09,425.36,361.5,424.33,358.94,423.18z"/>
	<path class="st2" d="M396.5,428.36c1.34-0.27,2.74-0.79,3.56,0.92C398.59,430.07,397.45,429.6,396.5,428.36z"/>
	<path class="st2" d="M411.08,429.75c0.36-0.29,0.72-0.59,1.08-0.88c1.58,0.47,3.42-0.41,4.82,0.94
		C415.01,430.33,413.05,430.18,411.08,429.75z"/>
	<path class="st3" d="M355.04,422.08c1.43-0.06,2.96-0.47,3.92,1.12C357.47,423.47,356.04,423.54,355.04,422.08z"/>
	<path class="st2" d="M419.04,429.82c0.34-0.56,0.67-0.54,0.98,0.03C419.69,429.84,419.36,429.83,419.04,429.82z"/>
	<path class="st3" d="M524.95,355.98c0.21,5.76-3.45,10.17-5.35,15.19c-0.48,1.27-2.02,0.85-3.14,0.9
		c-6.34,0.27-12.56-0.94-18.63-2.37c-4.58-1.08-7.27-4.27-7.92-9.54c-1.29-10.4-2.14-20.91-4.87-31.09c1-3,2-6,3.01-9
		c0.45,3.18,2.32,4.38,5.41,5.44c7.19,2.48,14.65,2.5,21.99,3.04c6.48,0.48,8.85,3.91,9.56,9.57c-2.2-0.54-2.73,1.44-3.81,2.56
		c-1.14,1.19-2.14,2.51-3.29,3.68c-1.4,1.43-2.83,1.43-4.31,0c-1.4-1.36-0.96-2.68-0.07-4c0.55-0.82,1.28-1.52,1.88-2.31
		c1.36-1.79,2.57-3.86,1.02-5.89c-1.54-2.03-3.99-1.55-5.96-0.62c-3.27,1.54-6.34,3.48-9.57,5.11c-8.09,4.1-9.4,13.59-2.69,19.79
		C506.4,364.01,513.93,363.89,524.95,355.98z"/>
	<path class="st4" d="M481.09,376.1c-1.26,5.73-0.86,11.43-0.42,17.26c0.59,7.87,3.34,16.29-3.29,23.27
		c-1.27,1.33-2.44,2.69-4.29,3.22c-2.05-3.53-2.15-7.18-0.84-11c0.92-2.67,1.77-5.38,2.41-8.12c0.35-1.49,1.27-3.58-0.66-4.43
		c-1.86-0.82-2.87,1.27-3.98,2.38c-0.65,0.66-0.94,1.73-1.28,2.66c-1.15,3.19-3.35,4.86-6.77,4.86c-1.56-5.7-3.11-11.39-4.66-17.09
		c-0.88-3.22,1.5-4.08,3.71-4.86c6.91-2.42,12.67-6.36,16.96-12.36C479.02,373.29,480.06,374.69,481.09,376.1z"/>
	<path class="st4" d="M425.04,319.86c8.11,2.39,16.27,4.46,24.81,4.45c1.43,0,3.38-0.33,3.16,2c-0.63,6.78,2.6,12.97,2.91,19.59
		c-6.57-1.91-8.98-0.07-8.82,6.73c0.17,7.51-4.73,10.43-11.4,6.88c-3.34-1.78-6.24-4.21-7.59-7.61c-2.12-5.37-2.96-11.3-9.43-13.76
		c-1.74-0.66-1.97-3.07-2.14-4.84C416.07,328.4,420.16,322.13,425.04,319.86z"/>
	<path class="st4" d="M411.05,403.06c-0.03-4.99,0.04-9.97-0.12-14.96c-0.08-2.37,0.72-2.97,3.09-3.16
		c11.97-0.93,23.83,0.63,35.74,1.09c2.24,0.09,3.07,1.23,3.8,3.14c0.88,2.3,0.63,4.95,2.22,7.01c-0.2,10.28-10.68,16.75-21.08,13.02
		c-8.05-2.88-9.89-2.28-14.57,4.93c-0.81,1.24-1.42,2.61-2.13,3.92c-1.44-0.53-1.73-1.83-2.21-3.08
		C414.26,410.99,412.64,407.03,411.05,403.06z"/>
	<path class="st3" d="M425.04,319.86c-4.88,2.27-8.97,8.54-8.49,13.43c0.17,1.77,0.4,4.18,2.14,4.84c6.47,2.46,7.31,8.4,9.43,13.76
		c1.35,3.4,4.25,5.83,7.59,7.61c6.67,3.56,11.58,0.63,11.4-6.88c-0.16-6.79,2.25-8.63,8.82-6.73c1.42,4.44,2.22,9.01,2.04,13.65
		c-0.17,4.28-10.3,13.33-15.84,14.52c-5.6,1.2-12.1-1.79-15.17-7.2c-1.79-3.14-3.14-6.06-7.21-7.56c-2.83-1.04-4.71-5.13-3.63-8.6
		c1.77-5.69-0.01-10.87-1.48-16.06c-1.78-6.29,1.09-11.69,2.6-17.37c0.42-1.58,1.91-1.43,2.77-0.5
		C421.44,318.31,423.46,318.7,425.04,319.86z"/>
	<path class="st3" d="M418.01,418.06c0.7-1.31,1.32-2.68,2.13-3.93c4.68-7.21,6.52-7.81,14.57-4.93
		c10.4,3.73,20.88-2.74,21.08-13.02c2.23,8.39,3.26,16.88,1.87,25.53c-0.45,2.76-1.04,5.5-1.57,8.25c-2.35-0.17-4.84,0.83-7.02-0.81
		c1.02-0.82,2.23-1.49,3.01-2.5c1.52-1.96,2.85-4.09,1.42-6.75c-1.4-2.61-3.85-2.09-6.09-2.01c-2.57,0.09-4.34,1.5-5.17,3.89
		c-1.1,3.15,0.48,5.34,2.88,7.14c-5.33,2.35-10.9,1.04-16.33,0.73c-2.23-0.13-4.52-0.49-6.8-0.61c-1.24-2.09-3.57-3.55-3.18-7.11
		c-4.89,4.16-6.09,1.12-7.23-2.52c-0.57-1.81-0.57-3.58-0.5-5.4c1.38,0.2,2.03,1.07,1.88,2.38c-0.36,3.23,1.44,3.96,4.15,3.74
		c0.37,0.58,0.65,0.4,0.91-0.09C418.02,419.38,418.02,418.72,418.01,418.06z"/>
	<path class="st3" d="M350.98,369.06c4.33,0,8.85-0.71,12.11,3.27c-0.66,2.69-2.74,5.9-0.53,8.06c4.41,4.3,1.17,6.37-1.53,9.26
		c-5.07,5.43-5.84,12.8-1.67,17.18c4.7,4.94,10.29,8.43,17.54,8.03c-0.3,3.38-2.35,4.87-5.54,5.24c-8.04,0.93-15.33-1.82-22.47-4.84
		c-3.31-1.4-4.7-4.55-2.77-7.83c3.34-5.69,3.46-11.85,2.76-17.92c-0.82-7.09,2.81-13.53,2.14-20.49
		C351.03,369.02,350.98,369.06,350.98,369.06z"/>
	<path class="st4" d="M524.95,355.98c-11.03,7.91-18.55,8.04-26.77,0.46c-6.71-6.2-5.4-15.7,2.69-19.79
		c3.23-1.63,6.3-3.57,9.57-5.11c1.98-0.93,4.42-1.41,5.96,0.62c1.54,2.03,0.33,4.1-1.02,5.89c-0.6,0.79-1.33,1.49-1.88,2.31
		c-0.89,1.32-1.33,2.64,0.07,4c1.48,1.43,2.92,1.43,4.31,0c1.15-1.18,2.15-2.5,3.29-3.68c1.08-1.12,1.61-3.09,3.81-2.56
		C524.98,344.06,524.97,350.02,524.95,355.98z"/>
	<path class="st4" d="M530.02,352.07c-0.2-5.94,0.6-12-2.27-17.59c-0.61-1.2-0.15-2.13,0.65-3.15c3.53-4.47,15.99-6.62,21.3-4.09
		c5.02,2.4,2.68,7.34,4.43,10.81c-0.61,4.6,0.62,9.25-0.38,13.84c0,0-0.01-0.03-0.01-0.03c-5.25,4.28-9.42,4.83-12.29,0.37
		c-3.34-5.19-6.07-4.23-9.62-0.84C531.4,351.81,530.63,351.86,530.02,352.07z"/>
	<path class="st3" d="M375.92,349.98c2.38,8.14,1.42,10.84-4.02,13.23c-2.45,1.08-4.57-0.07-6.76-0.26
		c-6.37-0.53-12.84-0.89-18.89-3.33c-1.14-0.46-3.21-0.46-3.02-2.08c0.82-7.16-2.18-13.95-1.79-21.03c4.69,1.6,8.31-1.9,12.94-3.07
		c-1.13,7.82,0.13,14.09,8.45,16.46C367.19,350.15,371.55,351.16,375.92,349.98z"/>
	<path class="st4" d="M376.9,414.86c-7.25,0.4-12.84-3.09-17.54-8.03c-4.16-4.38-3.39-11.75,1.67-17.18
		c2.7-2.89,5.94-4.97,1.53-9.26c-2.21-2.16-0.13-5.37,0.53-8.06c5.6,2.27,9.66,8.71,8.85,14.98c-0.9,6.94,0.84,13.07,4.79,18.61
		C378.93,409,377.84,411.87,376.9,414.86z"/>
	<path class="st2" d="M404.53,342.99c0.66,0.7,1.41,1.16,2.43,0.98c1.34,0.05,2.68,0.1,4.02,0.15c1.96,6.86,3.81,13.75,3.05,21
		c-0.27,2.58,1.8,3.36,3.38,4.44c1.62,1.1,3.41,1.95,5.35,3.04c-2.26,2.96-5.65,3.8-8.28,5.7c-0.89,0.64-1.81,0.66-2.55-0.43
		c-3.54-5.25-9.27-7.88-14.02-11.69c-1.01-3.71-1.07-7.68-2.99-11.14c0.2-2.86,3.17-3.17,4.55-4.95c1.3-1.66,3.49-2.69,3.57-5.18
		C403.54,344.27,404.04,343.63,404.53,342.99z"/>
	<path class="st2" d="M375.92,349.98c-4.37,1.19-8.73,0.17-13.09-0.07c-0.06-0.82-0.05-1.66-0.2-2.46
		c-1.9-9.73-3.83-19.46-5.76-29.19c5.74-0.92,10.99,1.95,16.62,2.24c2.38,0.12,3.77,2.21,2.9,5.2
		C374.07,333.72,373.1,341.83,375.92,349.98z"/>
	<path class="st4" d="M356.87,318.26c1.92,9.73,3.85,19.45,5.76,29.19c0.16,0.8,0.14,1.64,0.2,2.46c-8.32-2.37-9.58-8.64-8.45-16.46
		c-4.63,1.17-8.25,4.67-12.94,3.07c-2.38-1.52-1.31-3.91-1.38-5.94c-0.17-4.49-0.1-8.99-0.13-13.48c0.23-0.15,0.29-0.35,0.17-0.6
		C345.99,314.23,351.3,317.49,356.87,318.26z"/>
	<path class="st3" d="M389.04,394.06c-3.2,0.44-5.32-2.09-8.05-2.95c6.53-6.28,7.51-10.05,4.11-15.82
		c-3.09-5.26-10.25-7.46-16.98-5.22c-1.48-1-2.96-2-4.45-3c8.03-0.92,15.91-2.02,23.44,1.96c5.22,2.75,10.61,5.1,15.43,8.63
		c2.9,2.12,5.13,4.17,4.49,8.02c-0.58,3.45-2.75,5.45-6.03,6.37c-2.02-3.33-5.08-4.58-8.75-3.77
		C389.3,388.93,388.88,391.44,389.04,394.06z"/>
	<path class="st3" d="M459.02,326.04c2.23-4.05,6.03-2.03,8.84-1.7c7.39,0.87,10.06,5.08,9.13,12.3
		c-0.92,7.15-0.51,14.33,0.65,21.41c0.4,2.48,0.23,3.95-2.08,5.34c-2.67,1.6-4.95,3.83-7.51,5.62c-1.36,0.95-3.03,1.61-4.67,0.59
		c-1.75-1.1-1.36-2.75-0.95-4.44c1.29-5.4,0.26-10.9,0.57-16.34c0.75-0.3,1.5-0.61,2.25-0.91c5.31-2.11,9.03-9.42,7.54-14.77
		C471.58,328.82,464.34,325.09,459.02,326.04z"/>
	<path class="st4" d="M526.98,388.01c-3.13-1.41-2.2,1.69-2.63,2.68c-2.67,6.05-5.05,7.75-10.73,7.54
		c-2.96-0.11-5.25-1.33-6.42-3.85c-1.53-3.32-3.37-6.26-6.39-8.38c6.35-9.56,16.08-10.21,26.17-9.9c0,3.98,0,7.96,0,11.93
		L526.98,388.01z"/>
	<path class="st3" d="M546.91,388.91c0.84,9.78,0.45,19.29-6.02,27.47c-1.54,1.94-2.96,4.56-5.94,3.45
		c-3.15-1.17-4.76-3.94-3.78-7.22c2.03-6.81,1.76-13.78,1.98-20.73C538.18,392.97,542.94,392.79,546.91,388.91z"/>
	<path class="st3" d="M506.27,322.91c-4.4,0.46-8.46-0.93-13.45-2.36c5.35-4.01,9.43-8.64,16.58-6.7c3.78,1.03,7.65-0.14,11.33-1.01
		c4.84-1.15,9.53-1.13,14.26,0.2c2.58,0.72,5.17,1.15,7.87,1.06c1.32-0.04,3.1,0.24,3.31,1.56c0.23,1.42-1.37,2.04-2.73,2.37
		c-6.56,1.63-13.12,3.28-19.68,4.92c0.06-3.82-1.8-5.67-5.63-5.93C511.29,316.56,507.85,318.18,506.27,322.91z"/>
	<path class="st3" d="M530.02,352.07c0.61-0.22,1.38-0.27,1.81-0.67c3.55-3.4,6.28-4.35,9.62,0.84c2.87,4.46,7.04,3.91,12.29-0.37
		c0.75,2.83-0.75,4.87-2.63,6.53c-4.57,4.06-9.53,7.48-15.27,9.89c-2.85,1.2-4.26-1.13-6.38-1.55c-1.74-0.34-0.51-2.67-0.13-3.81
		C530.51,359.32,529.74,355.68,530.02,352.07z"/>
	<path class="st3" d="M428.82,316.28c-2.7-0.12-5.13-0.92-7.37-2.94c3.96-3.62,9.02-3.61,13.57-4.08c9.93-1.02,19.8,0.58,29.6,2.22
		c1.14,0.19,3.02,0.21,3.16,1.9c0.15,1.93-1.77,2.04-3.06,2.69c-5.46,2.72-11.56,2.52-17.32,3.89c-1.4,0.33-2.59-0.35-3.45-1.52
		c1.43-0.16,2.85-0.31,4.48-0.49C443.12,313.06,436.66,312.57,428.82,316.28z"/>
	<path class="st3" d="M360.04,314.11c-4.33,0-8.66,0-13.88,0c12.54-6.92,23.82-14.44,38.5-10.29c3.81,1.08,8.18,0.16,12.99,0.16
		c-5.18,5.71-11.25,8.64-17.63,11.07c-0.21-1.88,0.55-3.93-1.26-5.5C374.28,305.65,362.64,308.46,360.04,314.11z"/>
	<path class="st4" d="M459.02,326.04c5.33-0.96,12.56,2.77,13.77,7.09c1.5,5.35-2.23,12.66-7.54,14.77c-0.75,0.3-1.5,0.61-2.25,0.91
		C460.41,341.45,457.58,334.12,459.02,326.04z"/>
	<path class="st3" d="M402.02,400.09c0.99-2.36,3.07-2.02,5.01-2.02l-0.01-0.01c1.51,7.28-1.21,14.52-9.1,18.42
		c-4.31,2.13-7.81,5.81-13.02,6.22c-1.79,0.14-3.9,1.12-5.17-0.27c-1.18-1.29,1.04-2.48,1.36-3.91c0.31-1.4,1.24-2.65,1.9-3.97
		c0.62-0.2,1.24-0.41,1.86-0.61C394.31,412.86,399.63,408.57,402.02,400.09z"/>
	<path class="st3" d="M461.98,406.2c3.42,0,5.62-1.67,6.77-4.86c0.33-0.93,0.62-1.99,1.28-2.66c1.11-1.12,2.11-3.21,3.98-2.38
		c1.93,0.85,1.01,2.93,0.66,4.43c-0.64,2.75-1.49,5.45-2.41,8.12c-1.31,3.82-1.21,7.47,0.84,11c-2.53,3.09-5.92,5.12-9.18,7.26
		c-2.08,1.36-3.47,0.38-2.68-1.88C463.45,418.91,462.53,412.56,461.98,406.2z"/>
	<path class="st3" d="M380.05,333.09c0.5-3.42,1.39-6.81,0.99-10.32c-0.32-2.8,0.91-4.03,3.71-3.71c0.33,0.04,0.69-0.08,0.99,0.01
		c6.59,1.98,12.16,1.51,14.5-7.02c1.19,4.61,2.24,8.23,1.77,12.04c-5.23-1.18-7.71,2.19-9.94,5.99
		C388.88,334.33,384.26,332.88,380.05,333.09z"/>
	<path class="st4" d="M392.07,330.08c2.23-3.79,4.71-7.17,9.94-5.99c1.94,6.15,1.25,12.66,2.52,18.9c-0.49,0.64-0.99,1.28-1.48,1.92
		c-1.67,1.12-3.34,2.25-5,3.37c-1.29-0.76-2.59-1.52-3.88-2.27C393.26,340.73,392,335.49,392.07,330.08z"/>
	<path class="st2" d="M368.12,370.07c6.72-2.24,13.89-0.04,16.98,5.22c3.39,5.77,2.41,9.53-4.11,15.82c-3.42-0.6-4.7-1.89-4.29-6.02
		C377.35,378.55,371.99,374.54,368.12,370.07z"/>
	<path class="st4" d="M546.91,388.91c-3.97,3.88-8.73,4.05-13.77,2.97c-2.05-2.93-1.95-6.39-2.45-9.71c0.05-0.33,0.11-0.66,0.16-1
		c0.52-0.48,1.05-0.96,1.57-1.44c2.93,3.39,5.64,5.76,9.28,0.43c1.37-2.01,3.75-1.2,4.31,1.39
		C546.54,383.96,547.37,386.37,546.91,388.91z"/>
	<path class="st2" d="M392.07,330.08c-0.07,5.41,1.19,10.65,2.09,15.93c-4.32-2.75-9.46-1.61-14.07-3c-1.7-3.3-1.6-6.6-0.04-9.92
		C384.26,332.88,388.88,334.33,392.07,330.08z"/>
	<path class="st3" d="M380.09,343.01c4.61,1.39,9.75,0.25,14.07,3c1.29,0.76,2.59,1.51,3.88,2.27c-4.62,2.44-9.38,4.63-12.97,8.65
		c-1.39,1.55-3.04,1.31-2.92-0.85C382.42,351.52,380.29,347.43,380.09,343.01z"/>
	<path class="st2" d="M360.04,314.11c2.6-5.65,14.24-8.45,18.71-4.56c1.81,1.58,1.06,3.62,1.26,5.5c-1.2,1.93-2.8,1.62-4.68,1.09
		c-2.04-0.57-4.19-0.74-6.29-1.09c-0.37-0.3-0.74-0.59-1.11-0.89C365.3,314.15,362.67,314.13,360.04,314.11z"/>
	<path class="st2" d="M402.02,400.09c-2.39,8.49-7.71,12.78-17.17,13.85c0.06-1.8-1.26-3.06-1.83-4.61
		C389.35,406.25,396.03,403.88,402.02,400.09z"/>
	<path class="st4" d="M506.27,322.91c1.57-4.73,5.02-6.35,11.86-5.89c3.84,0.26,5.69,2.11,5.63,5.93c-3.92,3.97-8.49-0.13-12.63,1
		c-1.23-1.06-2.67-0.89-4.11-0.66C506.8,323.11,506.55,322.98,506.27,322.91z"/>
	<path class="st3" d="M394.92,355.04c1.92,3.47,1.98,7.43,2.99,11.14c-3.83-0.1-6.45-2.95-9.74-4.29c-1.45-0.59-1.47-2.01-0.23-2.61
		C390.42,358.07,391.84,355.18,394.92,355.04z"/>
	<path class="st2" d="M389.04,394.06c-0.16-2.62,0.26-5.13,3.22-5.78c3.67-0.8,6.73,0.44,8.75,3.77
		C397.59,396.19,393.37,395.45,389.04,394.06z"/>
	<path class="st3" d="M436.56,381.76c-5.78-1.09-11.67-0.49-18.26-0.82c2.11-1.85,3.6-3.33,5.27-4.56c1.18-0.88,2.81-1.79,4.04-0.41
		c4.33,4.85,10.12,3.99,15.63,4.3c-0.42,0.34-0.85,0.68-1.27,1.02C440.13,381.02,438.33,381.22,436.56,381.76z"/>
	<path class="st4" d="M428.82,316.28c7.84-3.71,14.31-3.22,19.62,1.66c-1.63,0.18-3.05,0.33-4.48,0.49
		C438.91,317.72,433.86,317,428.82,316.28z"/>
	<path class="st2" d="M417.12,420.14c-2.71,0.22-4.5-0.51-4.15-3.74c0.14-1.31-0.5-2.19-1.88-2.38c-0.01-3.65-0.02-7.3-0.03-10.96
		c1.59,3.97,3.21,7.93,4.74,11.92c0.48,1.25,0.77,2.56,2.21,3.08c0.01,0.66,0.01,1.33,0.02,1.99
		C417.72,420.04,417.41,420.07,417.12,420.14z"/>
	<path class="st3" d="M453.03,379.06c4.29,1.31,7.84-3.16,13.31-1.34c-6.25,3.06-11.1,6.95-17.75,6.34
		c-1.02-0.09-1.98-0.17-2.37-1.32c1.45,0.06,2.92,0.06,4.36,0.2C454.03,383.26,454.58,381.84,453.03,379.06z"/>
	<path class="st4" d="M453.03,379.06c1.55,2.78,1,4.21-2.44,3.87c-1.45-0.14-2.91-0.13-4.36-0.2c-1.21-1.09-2.79-0.4-4.13-0.87
		c-0.03-0.19-0.07-0.38-0.12-0.56c0.42-0.34,0.85-0.68,1.27-1.02C446.65,381.07,449.36,376.21,453.03,379.06z"/>
	<path class="st3" d="M530.86,381.17c-0.05,0.33-0.11,0.66-0.16,1c-4.1,0.14-1.23,4.7-3.72,5.86c0-3.98,0-7.96,0-11.93
		c0.85,0.14,1.7,0.27,2.55,0.41C529.27,378.26,529.78,379.8,530.86,381.17z"/>
	<path class="st3" d="M410.98,344.12c-1.34-0.05-2.68-0.1-4.02-0.15c1.91-2.77,0.35-6.07,1.4-9.19
		C410.19,337.76,409.65,341.21,410.98,344.12z"/>
	<path class="st3" d="M553.76,351.9c1-4.59-0.23-9.24,0.38-13.84C555.34,342.7,556.2,347.34,553.76,351.9z"/>
	<path class="st4" d="M383.02,409.32c0.57,1.55,1.89,2.81,1.83,4.61c-0.62,0.2-1.24,0.41-1.86,0.61
		C381.39,412.8,381.53,411.06,383.02,409.32z"/>
	<path class="st1" d="M530.86,381.17c-1.07-1.38-1.59-2.91-1.33-4.67c1.6,0.51,2.25,1.87,2.9,3.23
		C531.91,380.21,531.38,380.69,530.86,381.17z"/>
	<path class="st3" d="M464.85,430.86c-2.93-0.19-5.99,1.04-8.75-0.84c2.98,0.02,5.96,0.03,8.95,0.05
		C465.03,430.34,464.96,430.6,464.85,430.86z"/>
	<path class="st1" d="M441.97,381.3c0.05,0.18,0.09,0.37,0.12,0.56c-1.84-0.03-3.69-0.06-5.53-0.09
		C438.33,381.22,440.13,381.02,441.97,381.3z"/>
	<path class="st3" d="M507.02,323.29c1.44-0.23,2.88-0.4,4.11,0.66C509.7,324.09,508.22,324.55,507.02,323.29z"/>
	<path class="st3" d="M407.03,398.07c0.11-0.74,0.08-1.59,1.2-1.52c0.11,0.01,0.3,0.2,0.31,0.31
		C408.61,397.97,407.76,397.95,407.03,398.07C407.02,398.06,407.03,398.07,407.03,398.07z"/>
	<path class="st3" d="M367.93,314.17c0.37,0.3,0.74,0.59,1.11,0.89C368.67,314.76,368.3,314.46,367.93,314.17z"/>
	<path class="st4" d="M500.18,415.22c-4.09,0-7.02-2.64-6.86-6.18c0.15-3.16,3.71-6.05,7.37-5.98c3.64,0.07,7.21,3.13,7.2,6.18
		C507.89,412.74,504.69,415.22,500.18,415.22z"/>
	<path class="st4" d="M518.13,411.78c-2.28-0.13-3.5-1.12-3.66-3.02c-0.15-1.8,0.9-2.7,2.7-2.76c1.84-0.07,3.42,0.45,3.63,2.48
		C521.02,410.52,519.34,411.17,518.13,411.78z"/>
	<path class="st4" d="M445.11,428.93c-2.4-1.8-3.99-3.99-2.88-7.14c0.83-2.38,2.6-3.8,5.17-3.89c2.24-0.07,4.69-0.6,6.09,2.01
		c1.43,2.66,0.11,4.79-1.42,6.75c-0.78,1.01-1.99,1.68-3.01,2.5C447.75,429.08,446.43,429,445.11,428.93z"/>
</g>
</svg>
