<?xml version="1.0" encoding="utf-8"?>
<!-- Generator: Adobe Illustrator 26.0.3, SVG Export Plug-In . SVG Version: 6.00 Build 0)  -->
<svg version="1.1" id="Layer_1" xmlns="http://www.w3.org/2000/svg" xmlns:xlink="http://www.w3.org/1999/xlink" x="0px" y="0px"
	 viewBox="0 0 792 612" style="enable-background:new 0 0 792 612;" xml:space="preserve">
<style type="text/css">
	.st0{fill:#FAF9EC;}
	.st1{fill:#2CB4C6;}
	.st2{fill:#D0E7EB;}
	.st3{fill:#2FB4C5;}
	.st4{fill:#2CB3C6;}
</style>
<g>
	<path class="st0" d="M365.23,338.97c3.69,0.3,7.43-0.68,11.05,1.65c1.7,1.09,4.96,1.21,6.71-0.24c5.19-4.3,11.95-4.4,17.81-6.83
		c7.04-2.93,15.12-4.39,23.11-3.57c3.87,0.4,7.95,0.22,10.97,3.57c3.08,3.41,4.57,6.9,3.34,11.74c-1.84,7.22,1.48,14.47,0.57,21.78
		c8.02,9.24,4.95,20.96,6.52,31.51c1.1,7.43-1.46,15.08-5.18,22.14c-3.41,6.49-8.51,11.63-12.4,17.68
		c-1.25,1.95-3.39,2.77-5.25,3.59c-2.88,1.27-5,2.26-6.49,5.71c-0.75,1.75-5.51,4.84-9.39,2.45c-2.48-1.53-4.2-1.08-6.73,0.34
		c-7.01,3.91-14.68,3.59-22,1.09c-7.97-2.73-16.2-2.95-24.38-3.53c-7.59-0.54-15.24,0.06-22.85-1.03
		c-7.27-1.04-12.77-8.66-14.29-14.25c-2.88-10.58,3.56-17.79,7.14-25.92c3.46-7.84,5.6-15.84,7.29-24.16
		c2.39-11.77,5.42-23.42,8.23-35.1c0.32-1.32,1.1-2.34,2.6-2.74C349.46,342.73,356.61,337.92,365.23,338.97z M412.75,337.73
		c-7.75,1.43-15.51,2.86-23.59,4.35c6.64,6.09,7.47,6.28,14.4,2.35c3.53-2,6.88-4.32,10.31-6.5c0.63-0.03,1.26-0.04,1.88-0.11
		c0.04,0,0.11-0.62,0.04-0.65C414.66,336.67,413.62,336.82,412.75,337.73z M434.24,383.37c0.96-3.32-0.29-6.57-0.26-9.82
		c0.03-3.35-1.3-5.54-4.08-6.39c-2.76-0.84-3.8,1.93-5.11,3.77c-3.04,4.28-5.73,4.43-9.71,0.95c-2.94-2.57-4.3-6.54-8.75-9.42
		c1.66,8.46,3.89,15.77,4.5,23.34c1.83,11.39,0.81,22.73-1.19,33.95c-1.18,6.6,1.29,10.93,6.41,14.64c1.9,1.38,2.71,1.03,4.03-0.4
		C433.39,419.51,437.17,402.38,434.24,383.37z M359.88,379.06c-7.51,7.26-14.67,14.92-22.63,21.66
		c-7.61,6.45-10.12,15.34-13.15,23.98c-2.1,6,1.83,10.96,8.18,12.33c3.96,0.86,7.9,0.98,11.88,0.91c9.14-0.17,18.18,0.57,27.26,1.83
		c9.32,1.29,18.5,3.88,28.08,3.27c3.37-0.22,4.67-0.57,2.74-4.15c-2.95-5.48-2.85-11.46-2.19-17.5c1.47-13.48,4.52-26.82,3.62-40.51
		c0.03-4.47,0.09-8.94,0.09-13.42c-0.01-3.86-7.14-8.85-10.67-7.37c-4.75,1.98-9.64,2.99-14.79,2.87c-1.62-0.04-2.93-0.01-4.21,1.68
		C370,370.03,364.79,374.41,359.88,379.06z M347.26,350.83c12.66,5.09,25.45,6.52,38.6,2.96c0.98-0.26,2.09-1.29,0.95-2.07
		c-2.52-1.73-3.8-5.45-7.04-5.65C368.66,345.36,357.67,346.17,347.26,350.83z"/>
	<path class="st0" d="M163.74,349.95c0.2-1.73,0.78-3.26,2.39-4.14c5.23-2.86,10.63-5.31,15.47-8.97
		c11.15-8.45,24.37-8.87,37.43-7.57c4.19,0.42,8.77,1.67,13.1,3.31c9.51,3.61,18.66,8.02,27.32,13.11
		c6.78,3.98,13.51,9.02,13.51,18.69c0,2.98,1.64,5.98,2.7,8.92c1.6,4.45,3.2,8.54,2.43,13.77c-0.74,4.99-0.06,10.28-1.34,15.36
		c-1.66,6.57-3.18,13.08-7.21,18.86c-3.65,5.22-7.8,9.51-13.07,13.19c-12.51,8.72-26.03,10.59-40.43,6.97
		c-2.86-0.72-4.01,1.68-6.42,1.6c-8.99-0.28-18.11,0.76-26.96-0.38c-7.26-0.94-14.77-2.54-21.2-6.84
		c-6.15-4.12-11.08-14.38-7.35-23.4c3.71-8.98,3.64-18.84,2.94-28.63c-0.38-5.27-1.59-10.72,1.28-16.06
		c1.2-2.22,0.67-5.59,0.34-8.37C158.14,354.89,160.06,352.02,163.74,349.95c-1.85,9.79-2.42,19.74-0.75,29.48
		c2.25,13.11,2.53,25.95-1.48,38.71c-1.59,5.04,0.49,8.87,4.58,10.79c13.8,6.48,28.29,9.05,43.41,5.55c5.19-1.2,7.08-4.12,7.05-9.81
		c0.26-5.15,2-10.69-1.81-15.11c-5.53-6.43-9.07-13.65-11.15-21.83c-1.26-4.96-0.11-9.97-1.02-14.82
		c-1.74-9.31-8.51-14.87-15.79-19.92C179.51,348.88,171.82,347.89,163.74,349.95z M254.8,395.07c-6.35,6.33-13.75,11.3-22.13,14.13
		c-7.22,2.44-9.28,6.73-7.84,13.6c-0.09,5.78-2.1,10.93-5.41,15.63c1.41,0.86,2.77,0.64,4,0.38c9.62-2.1,18.69-5.31,26.92-11.08
		c13.93-9.77,20.48-22.63,18.37-39.66c-0.14-1.1-0.14-3.82-1.67-2.34C263.29,389.36,258.16,391.05,254.8,395.07z M232.91,386.83
		c8.1,1.59,15.76,1.55,21.41-5.83c12.45-7.46,12.59-17.91,0.31-25.09c-10.92-6.38-22.66-10.82-34.64-14.75
		c-12.37-4.05-24.17-2.17-36.65,2.99c3.67,1.48,6.56,2.65,9.44,3.81c4.02,3.9,8.1,7.73,12.05,11.71c3.62,3.64,6.1,8.32,5.66,13.21
		c-0.6,6.69,2.5,9.22,8.2,10.27C223.24,385.16,227.87,386.79,232.91,386.83z"/>
	<path class="st0" d="M499.76,399c-0.09-4.62-0.73-8.99-2.72-13.36c-2.88-6.34-3.52-13.44-4.09-20.27
		c-0.45-5.3,2.7-10.31,4.09-15.49c1.29-4.84,5.23-8.46,6.23-13.55c0.41-2.06,2.62-3.11,4.57-4.2c5.2-2.9,10.59-4.32,16.5-5.59
		c13.73-2.93,27.36-1.1,41-1.43c8.08-0.19,15.99,2.49,23.82,4.59c2.4,0.64,4.52,2.35,4.97,4.53c1.19,5.78,5.09,9.77,8.34,14.22
		c2.79,3.83,3.29,7.9,1.11,12.09c-0.83,1.61-0.79,3.18-0.85,4.82c-0.47,12.69,0.45,25.18,5.61,37.02c0.6,1.37-0.49,2.03-1,3.03
		c-1.97,3.94-3.9,7.86-4.81,12.29c-1.31,6.4-13.05,15.25-19.77,15.21c-4.52-0.03-9.02-0.32-12.54,3.4
		c-0.98,1.03-2.59,0.82-3.83,0.57c-6.69-1.32-12.94-0.04-19.38,2.01c-8.02,2.55-15.32,1.04-22.09-4.9
		c-5.16-4.52-11.64-7.51-17.51-11.24c-5.14-3.27-6.7-7.08-5.38-13.23c0.34-1.6,1.33-3.15-0.3-4.58
		C500.99,403.01,503.38,400,499.76,399z M523.43,341.17c10.55,2.62,21.32,3.35,32.14,3.68c10.69,0.37,21.11-0.19,30.09-8.18
		c-2.42-1.03-4.15-2.12-6.03-2.52c-17.09-3.72-34.36-5.15-51.75-2.93c-4.86,0.62-9.58,2.49-14.32,3.92
		c-1.06,0.32-2.26,1.16-2.14,2.46c0.11,1.13,1.43,1.15,2.34,1.52C516.87,340.36,520.06,341.17,523.43,341.17z M573.71,354.8
		c-5.11,1.85-6.1,3.69-4.81,9.46c1.97,8.79,4.04,17.56,6.06,26.34c0,1.16-0.23,2.36,0.02,3.46c1.76,7.67,2.09,15.3-0.23,22.91
		c-0.64,2.11-1.12,4.2,0.71,6c2.03,1.99,4.06,0.4,6.04-0.1c1.62-0.41,3-1.3,4.28-2.43c3.33-2.95,6.63-6.01,10.82-7.69
		c2.94-1.17,3.39-2.63,2.38-5.67c-3.67-11.12-2.53-22.54-1.49-33.92c0.35-3.89,1.88-8.46,0.43-11.58
		C594.64,354.58,581.33,351.43,573.71,354.8z M564.95,382.91c-0.36-1.77-0.7-3.55-1.09-5.32c-1.48-6.75-3.91-13.44-2.96-20.44
		c0.4-2.91-0.33-3.24-2.84-3.28c-13.82-0.22-27.19-3.08-40.34-7.16c-2.79-1.42-5.66-2.7-7.84-5.07c-1.06-1.15-2.36-1.81-2.95,0.24
		c-2.92,10.17-8.17,19.9-3.84,31.18c2.47,6.42,4.12,13.24,1.09,20.34c-1.57,3.68,3.24,13.72,6.92,14.21
		c4.77,0.64,6.18,4.19,7.94,7.29c1.66,2.94,3.59,5.59,5.8,8.04c6.41,7.15,14.17,8.48,23.46,5.38c9.18-3.06,12.41-12.61,20-17.29
		c0.6-0.37,0.48-2.21,0.39-3.33c-0.64-7.74-1.36-15.47-2.08-23.2C566.54,383.54,565.81,383.12,564.95,382.91z"/>
	<path class="st0" d="M504.73,186.94c-3.08-5.63-3.02-6.04,2.53-9.72c5.9-3.91,11.61-8.25,17.93-11.34
		c2.99-1.47,6.55-2.77,10.24-2.97c9.23-0.49,18.42,0.33,27.77-1.29c4.5-0.78,10.68,0.46,15.77,2.03c2.24,0.69,4.33,1.3,6.61,1.29
		c6.11-0.01,11.8,2.64,17.96,2.57c2.46-0.03,4.32,1.62,5.43,4.37c3.2,7.93,5.25,15.96,5.98,24.58c0.7,8.27,0.71,16.59,3.41,24.85
		c4.53,13.85-2.41,28-14.98,36.27c-9.29,6.12-20.22,7.42-29.94,11.76c-10.55,4.72-21.33,4.17-32,4.34
		c-12.03,0.19-23.9-2.42-34.77-8.19c-1.16-0.61-2.44-1.15-2.94-2.55c0.13-0.09,0.39-0.24,0.37-0.27c-0.09-0.25-0.25-0.48-0.38-0.71
		c0,0,0,0,0,0c-1.67-4.48-3.53-8.89-4.01-13.74c-0.36-3.73,1.12-7.62-0.95-11.2c0.18-12.62-3.32-25.05-2.05-37.74
		c0.23-2.27-0.48-4.91,2.95-5.36c0.06,3.49-0.13,7,0.22,10.46c1.48,14.92,5.17,29.53,5.99,44.56c0.26,4.8,2.83,8.51,7.49,10.94
		c9.43,4.92,19.68,5.2,29.85,6.02c5.85,0.47,11.18,1.04,13.7-7.1c1.84-5.92,5.31-11.31,4.82-17.88c1.36-1.53,0.99-3.42,1-5.19
		c0.03-7.58,0-15.16-0.01-22.74c-0.06-4.16-2.79-7.7-2.89-11.8c-0.08-3.26-1.56-4.2-4.63-4.26c-12.52-0.23-24.89-2.18-37.18-4.28
		C513.4,191.85,508.05,191.37,504.73,186.94z M559.56,188.82c7.29-3.61,14.77-6.74,22.95-7.63c4.32-0.47,8.57-1.08,12.35-3.35
		c1.17-0.7,3.41-0.73,3.08-2.65c-0.27-1.56-2.16-1.08-3.43-1.3c-10.23-1.78-20.47-3.53-30.68-5.42c-1.38-0.26-2.11,0.48-3.16,0.86
		c-6.38,2.3-13.06,3.46-19.74,2.71c-6.68-0.75-13.13-1.86-19.1,2.44c-2.96,2.13-6.13,3.97-9.06,6.13c-0.95,0.7-2.93,1.09-2.37,2.71
		c0.42,1.22,2.12,1.31,3.4,1.68c6.23,1.83,12.72,1.84,19.06,2.86c2.91,0.35,5.97,0.77,8.74,0.75
		C547.59,188.58,553.58,191.14,559.56,188.82z M570.79,233.88c0,8.28,0.55,16.63-4.12,25.17c2.89-1.03,5.31-1.86,6.84-0.13
		c2.98,3.39,5.67,1.71,8.71,0.3c4.65-2.17,9.2-4.38,13.26-7.65c6.23-5.02,12.85-9.74,14.43-18.24c0.89-4.79,2.66-9.86-0.97-14.44
		c-0.43-6.61-0.86-13.22-1.29-19.84c-0.74-3.9-0.98-7.83-1-11.8c-0.01-3.01-0.91-4.62-4.41-2.42c-4.06,2.55-8.6,3.77-13.51,4.31
		c-6.14,0.69-12.35,1.08-18.31,3.6c-8.34,3.53-8.51,3.13-4.05,11.15C570.95,213.44,571.09,223.63,570.79,233.88z"/>
	<path class="st0" d="M321.71,248.9c-0.21-0.45-0.55-0.89-0.6-1.36c-1.47-12.25-3.95-24.58-2.04-36.83
		c0.76-4.86,0.72-10.05,2.66-14.76c0.14,0.08,0.28,0.15,0.42,0.23c-0.14-0.08-0.28-0.15-0.42-0.23c-2.4-8.81,4.3-13.05,9.83-16.28
		c9.36-5.46,18.47-11.4,28.36-16.08c6.06-2.86,12.27-3.15,18.35-3.43c15.77-0.72,31.54,1.5,47.35,0.78
		c1.69-0.08,2.44,0.74,3.43,2.14c2.03,2.86,2.7,6.38,3.03,9.31c0.61,5.42,2.07,10.67,2.88,16.02c0.76,5.02,1.14,10.26,3.2,15.07
		c0.32,0.74,0.54,1.58,0.55,2.38c0.12,7.47-0.27,14.95,1.02,22.37c0.14,0.81,0.07,1.67-0.01,2.49c-0.58,5.76-1.08,6.09-6.16,4.16
		c-0.97-10.26-1.93-20.52-2.9-30.78c-0.25-0.39-0.5-0.79-0.74-1.18c-0.21-0.26-0.35-0.56-0.4-0.89c0.9-7.04-1.94-13.61-2.53-20.62
		c-1.74,2.51-2.92,5.13-4.17,7.72c-3.19,6.57-4.98,7.48-12,5.97c-4.88-1.05-9.81-1.37-14.79-1.16c-1.72,0.07-3.52,0-2.89,2.67
		c1.63,6.97,0.4,13.77-1.26,20.54c-1.64,5.33-2.51,10.7-0.79,16.19c1.99,7.99,4.39,15.91,3.69,24.32c-0.26,3.09,0.8,3.41,3.35,1.69
		c6.29-4.26,12.76-8.24,19.09-12.45c2.01-1.34,4.04-2.23,6.48-1.99c-0.29,2.7-0.13,5.84-4.01,5.96c-1.94,0.06-3.09,1.12-4.18,2.32
		c-5.04,5.53-11.23,9.58-17.62,13.26c-1.87,1.08-3.65,2.07-5.24,3.54c-0.95,0.88-2.2,2.03-3.32,2.04
		c-7.96,0.08-15.69,3.94-23.68,1.93c-4.72-1.19-9.61,0.8-14.06-1.09c-5.85-2.5-12.04-1.06-17.91-2.15
		c-7.14-1.33-11.35-6.22-11.94-13.75C323.27,254.29,323.26,251.59,321.71,248.9z M356.82,185.87c9.58,0.02,19.14,0.2,28.43,3.04
		c1.81,0.55,3.67,1.93,5.52,0.05c7.43-1.71,12.92-7.09,19.47-10.48c4.52-2.33,8.68-5.62,12.13-9.67c-1.52-1.24-2.9-0.77-4.18-0.83
		c-8.45-0.35-16.88,0-25.36-0.79c-7.5-0.7-15.23-1.09-22.82,0.66c-5.31,1.23-9.72,4.12-14.41,6.59c-6.55,3.44-13.3,6.49-20.88,10.15
		C342.77,185.58,349.91,183.96,356.82,185.87z M384.83,244.97c-0.4-2.27-0.52-4.63-1.24-6.79c-2.21-6.62-2.53-13.31-0.73-19.99
		c1.07-3.98,2.28-7.89,3.01-11.97c1.41-7.83,0.73-8.68-7.38-10.4c-15.28-3.24-31.09-3.39-46.14-8.09c-3.83-1.2-7.61,2.17-7.62,6.08
		c-0.03,8.15-0.03,16.3-0.01,24.46c0,1.64-0.26,3.36,0.98,4.76c0.1,2.15,0.17,4.25,0.65,6.41c1.63,7.42,3.7,14.75,3.46,22.52
		c-0.29,9.5-0.07,9.5,9.17,11.87c0.32,0.08,0.67,0.06,0.99,0.15c11.07,2.85,22.44,3.98,33.68,5.87c5,0.85,8-3.9,12.35-5.06
		c0.41-0.11,0.67-1.46,0.68-2.25C386.81,256.61,387.03,250.66,384.83,244.97z"/>
	<path class="st0" d="M270.71,174.97c2.95-0.08,5.49,0.21,2.91,4.03c-0.69,1.03-0.24,1.84-0.11,2.8c1.11,8.25,1.18,16.81,3.55,24.68
		c2.15,7.13,1.09,14.04,1.66,21.02c0.34,4.18-1.3,8.41-2.69,11.79c-1.16,2.83-3.94,6.46-7.01,8.69
		c-11.15,8.09-20.42,18.77-33.87,23.74c-5.31,1.96-10.71,1.34-16.01,2.01c-10.88,1.38-21.99,0.26-32.75-1.13
		c-10.58-1.36-20.31-5.74-28.83-13.31c-5.91-5.25-6.13-11.39-6.64-17.59c-0.74-8.87-0.87-17.91,0.04-26.75
		c0.7-6.81,2.07-13.53,1.88-20.45c-0.07-2.68,2.1-1.84,3.68-1.57c0.07,12.75-0.24,25.52,0.35,38.25c0.32,6.93-0.14,14.26,3.97,20.56
		c2.73,4.33,6.49,7.45,11.3,9.15c15.7,5.56,32,6.51,48.43,5.9c4.38-0.16,8.56-1.35,10.27-6.85c5.11-16.51,3.41-32.75-0.95-49
		c-1.07-4.3-2.38-8.56-3.15-12.91c-0.97-5.49-4.37-7.19-9.43-7.13c-4.31,0.05-8.75,0.52-12.91-0.32
		c-15.56-3.14-31.22-0.61-46.82-1.27c-0.51-0.02-1.08,1.12-1.62,1.71c-1.52-4.28-0.36-8.5,3.11-10.55
		c10.01-5.89,19.52-12.85,31.03-15.9c3.21-0.85,5.33-5.66,9.63-2.66c-9.6,7.99-21.5,12.48-32.12,20.76
		c10.45,0.73,19.99-0.5,29.4,1.09c5.79,1.77,11.99,0.17,17.75,2.21c1.28,1.4,2.61,1.27,3.97,0.12c0.67-0.01,1.34-0.01,2.02-0.02
		c2,1.29,3.99,1.35,5.98-0.02c0.29-0.12,0.58-0.19,0.89-0.2c10.53-2.67,19.44-8.16,28.54-15.83c-13.59-1.1-25.92-1.84-38.17-3.21
		c-5.61-0.63-11.61-0.8-16.26-4.94c6.39-4.65,13.7-3.4,20.58-2.41c8.8,1.27,17.56,1.38,26.38,1.8c5.38,0.26,10.82,1.62,16.35,1.94
		c2.8,0.16,1.32,3.19,1.64,4.96c-8.37,10.09-18.68,17.28-31.17,21.46c-2.87,0.96-4.04,3.1-2.99,6.7c2.6,8.96,5.02,17.99,6.41,27.25
		c3.69,12.59,1.23,25.05-1.14,38.22c8.45-4.53,15.32-10.04,21.94-15.91c7.77-6.12,12.5-13.51,12.16-24.02
		C271.37,206.25,267.53,190.69,270.71,174.97z"/>
	<path class="st1" d="M160.84,251.75c-4.11-6.3-3.65-13.62-3.97-20.56c-0.58-12.73-0.28-25.5-0.35-38.25
		c-0.19-0.64-0.37-1.28-0.56-1.91c0.54-0.6,1.1-1.74,1.62-1.71c15.59,0.66,31.25-1.87,46.82,1.27c4.16,0.84,8.6,0.38,12.91,0.32
		c5.06-0.06,8.46,1.64,9.43,7.13c0.77,4.35,2.08,8.61,3.15,12.91c0.33,7.4-9.94,16.53-18.14,19.15c-7.72,2.47-14.63-0.04-21.62-2.93
		c-6.53-2.71-8.27-2.24-12.97,3c-4.55,5.08-8.32,10.71-11.25,16.89C164.86,249.3,164,251.79,160.84,251.75z"/>
	<path class="st2" d="M504.73,186.94c3.32,4.43,8.67,4.92,13.28,5.7c12.29,2.1,24.66,4.06,37.18,4.28c3.07,0.06,4.55,1,4.63,4.26
		c0.1,4.1,2.83,7.64,2.89,11.8c-1.18-2.1-2.16-3.58-4.23-0.48c-2.01,3.01-4.65,5.6-6.93,8.45c-2.18,2.72-4.63,2.91-7.35,0.99
		c-3.33-2.35-1.98-4.73,0.02-7.12c1.06-1.27,2.1-2.57,3.08-3.91c2.16-2.98,3.67-6.29,1.11-9.58c-2.54-3.27-5.99-2.29-9.05-0.65
		c-6.56,3.5-13.23,6.86-19.49,10.86c-6.53,4.17-9.37,14.94-6.36,21.79c4.46,10.15,18.1,17.47,29.04,16.21
		c7.44-0.86,13.25-4.74,19.18-8.62c0.49,6.57-2.98,11.95-4.82,17.88c-2.52,8.14-7.85,7.57-13.7,7.1
		c-10.17-0.82-20.42-1.1-29.85-6.02c-4.66-2.43-7.23-6.14-7.49-10.94c-0.82-15.03-4.52-29.65-5.99-44.56
		c-0.34-3.46-0.16-6.97-0.22-10.46C500.25,190.8,501.16,187.9,504.73,186.94z"/>
	<path class="st3" d="M270.71,174.97c-3.18,15.71,0.66,31.28,1.16,46.9c0.34,10.51-4.39,17.9-12.16,24.02
		c-3.35-0.99-3.92-3.76-4.18-6.65c-0.48-5.24,0.69-10.24,2.31-15.18c1.49-4.57,3.28-9.05,3.04-14.04c-0.16-3.4-1.47-3.75-3.98-1.94
		c-3.05,2.2-5.05,5.15-6.47,8.63c-2.54,6.2-4.81,7.46-11.51,6.87c-1.39-9.26-3.81-18.29-6.41-27.25c-1.05-3.61,0.12-5.75,2.99-6.7
		c12.49-4.17,22.8-11.37,31.17-21.46C268.01,170.44,269.36,172.71,270.71,174.97z"/>
	<path class="st3" d="M429.49,202.04c0.05,0.33,0.19,0.63,0.4,0.89c0.25,0.39,0.5,0.79,0.74,1.18c0.97,10.26,1.93,20.52,2.9,30.78
		c-1.97,2.36-5.22,3.24-6.87,5.96c-3.78,2.85-7.06,1.82-10.49-0.93c-1.87-1.5-4.1-3.15-6.68-3.01c-6.47,0.36-12.34-2.09-18.43-3.57
		c-1.72-5.49-0.85-10.86,0.79-16.19c10.99,3.25,19.07,0.03,24.65-10.24C419.17,202.01,424.2,201.12,429.49,202.04z"/>
	<path class="st2" d="M197.02,183.78c-9.41-1.59-18.95-0.36-29.4-1.09c10.61-8.28,22.51-12.77,32.12-20.76
		c0.66-0.01,1.32-0.02,1.99-0.04c4.65,4.14,10.65,4.31,16.26,4.94c12.26,1.37,24.58,2.11,38.17,3.21
		c-9.1,7.67-18.01,13.16-28.54,15.83c-1.63-6.38-5.91-10.45-12.25-10.66C208.14,174.96,201.04,176.47,197.02,183.78z"/>
	<path class="st2" d="M391.07,233.36c6.08,1.48,11.95,3.92,18.43,3.57c2.59-0.14,4.81,1.51,6.68,3.01
		c3.44,2.74,6.71,3.78,10.49,0.93c0.2,2.24-2.54,2.32-3,4.07c-2.44-0.25-4.47,0.65-6.48,1.99c-6.32,4.21-12.8,8.2-19.09,12.45
		c-2.54,1.72-3.6,1.4-3.35-1.69C395.46,249.27,393.05,241.35,391.07,233.36z"/>
	<path class="st2" d="M498.76,237.02c2.08,3.58,0.59,7.47,0.95,11.2c0.47,4.85,2.33,9.26,4.01,13.74c-4.28-0.87-4.34-4.49-4.95-7.7
		C497.68,248.52,497.37,242.77,498.76,237.02z"/>
	<path class="st2" d="M499.76,399c3.62,1,1.23,4.01,1.99,5.96c-0.03,0.16,0,0.36-0.09,0.47c-0.17,0.21-0.4,0.36-0.61,0.54
		C499.89,403.79,499.58,401.44,499.76,399z"/>
	<path class="st2" d="M321.71,248.9c1.55,2.69,1.56,5.39,0,8.08C321.72,254.29,321.72,251.6,321.71,248.9z"/>
	<path class="st2" d="M503.72,261.96c0.13,0.23,0.29,0.46,0.38,0.71c0.01,0.04-0.24,0.18-0.37,0.27
		C503.72,262.62,503.72,262.29,503.72,261.96z"/>
	<path class="st2" d="M403.68,380.88c0.91,13.69-2.15,27.03-3.62,40.51c-0.66,6.04-0.76,12.01,2.19,17.5
		c1.93,3.58,0.63,3.93-2.74,4.15c-9.59,0.61-18.76-1.98-28.08-3.27c-9.07-1.25-18.12-2-27.26-1.83c-3.98,0.08-7.92-0.05-11.88-0.91
		c-6.35-1.37-10.28-6.33-8.18-12.33c3.02-8.64,5.53-17.53,13.15-23.98c7.95-6.74,15.12-14.4,22.63-21.66
		c5.55,1.85,9.07,5.45,10.26,11.32c0.4,1.98,1.98,3.38,3.58,4.63c9.31,7.29,23,1.54,24.79-10.83
		C399.12,380.05,400.46,379.65,403.68,380.88z M359.72,425.12c7.19-0.01,12.34-3.95,12.41-9.51c0.07-5.5-4.97-9.76-11.6-9.81
		c-7.02-0.05-11.53,3.67-11.64,9.6C348.8,421.23,353.13,425.13,359.72,425.12z M388.21,419.07c2.49-0.11,4.47-1.34,4.49-4.37
		c0.02-3.54-2.28-4.84-5.51-4.85c-3.05,0-4.54,1.61-4.48,4.62C382.77,417.81,384.79,419.04,388.21,419.07z"/>
	<path class="st4" d="M403.68,380.88c-3.22-1.23-4.56-0.83-5.16,3.3c-1.79,12.37-15.48,18.12-24.79,10.83
		c-1.61-1.26-3.18-2.66-3.58-4.63c-1.2-5.87-4.72-9.47-10.26-11.32c4.9-4.65,10.12-9.02,14.21-14.42c1.28-1.68,2.59-1.72,4.21-1.68
		c5.14,0.13,10.04-0.89,14.79-2.87c3.54-1.48,10.67,3.51,10.67,7.37C403.77,371.93,403.71,376.41,403.68,380.88z"/>
	<path class="st2" d="M434.24,383.37c2.93,19.01-0.85,36.14-14.15,50.62c-1.32,1.44-2.13,1.78-4.03,0.4
		c-5.12-3.71-7.58-8.04-6.41-14.64c2-11.22,3.02-22.56,1.19-33.95C419.23,390.66,426.96,389.19,434.24,383.37z"/>
	<path class="st3" d="M434.24,383.37c-7.28,5.82-15.01,7.28-23.4,2.43c-0.61-7.57-2.84-14.88-4.5-23.34
		c4.44,2.88,5.81,6.85,8.75,9.42c3.98,3.48,6.67,3.33,9.71-0.95c1.31-1.84,2.35-4.61,5.11-3.77c2.78,0.84,4.11,3.04,4.08,6.39
		C433.95,376.8,435.2,380.05,434.24,383.37z"/>
	<path class="st3" d="M347.26,350.83c10.41-4.66,21.4-5.47,32.51-4.76c3.24,0.21,4.52,3.92,7.04,5.65c1.14,0.78,0.03,1.81-0.95,2.07
		C372.71,357.35,359.93,355.92,347.26,350.83z"/>
	<path class="st3" d="M413.87,337.93c-3.43,2.18-6.78,4.5-10.31,6.5c-6.93,3.93-7.76,3.74-14.4-2.35
		c8.08-1.49,15.84-2.92,23.59-4.35C413.12,337.8,413.49,337.86,413.87,337.93z"/>
	<path class="st2" d="M413.87,337.93c-0.37-0.07-0.75-0.13-1.12-0.2c0.88-0.91,1.91-1.07,3.04-0.57c0.07,0.03,0,0.65-0.04,0.65
		C415.12,337.89,414.5,337.9,413.87,337.93z"/>
	<path class="st2" d="M163.74,349.95c8.09-2.07,15.77-1.08,23.04,3.03c-5.22,7.47-4.44,13.27,2.91,18.81
		c2.6,1.96,2.68,3.33,0.32,5.37c-2.52,2.17-4.64,4.72-6.43,7.55c-8.56,13.56-5.6,26.25,7.76,33.93c7.85,4.51,16.1,6.97,25.21,6.02
		c0.03,5.69-1.85,8.6-7.05,9.81c-15.12,3.5-29.62,0.93-43.41-5.55c-4.09-1.92-6.16-5.76-4.58-10.79
		c4.01-12.75,3.73-25.59,1.48-38.71C161.32,369.7,161.89,359.74,163.74,349.95C163.74,349.95,163.74,349.95,163.74,349.95z"/>
	<path class="st4" d="M216.54,424.68c-9.11,0.95-17.36-1.51-25.21-6.02c-13.35-7.68-16.32-20.37-7.76-33.93
		c1.79-2.83,3.91-5.38,6.43-7.55c2.36-2.04,2.29-3.41-0.32-5.37c-7.35-5.54-8.13-11.35-2.91-18.81
		c7.28,5.05,14.05,10.61,15.79,19.92c0.9,4.85-0.24,9.86,1.02,14.82c2.08,8.18,5.61,15.41,11.15,21.83
		C218.54,413.99,216.8,419.52,216.54,424.68z"/>
	<path class="st2" d="M192.79,347.96c-2.88-1.16-5.77-2.33-9.44-3.81c12.47-5.16,24.28-7.04,36.65-2.99
		c11.98,3.93,23.72,8.37,34.64,14.75c12.28,7.18,12.14,17.63-0.31,25.09c-1.36-1.17-2.62-2.48-4.1-3.49
		c-3.87-2.63-8.18-3.91-12.53-1.65c-4.3,2.23-5.38,6.35-4.79,10.97c-5.04-0.05-9.68-1.67-14.21-3.68c4.06-2.25,5.58-6.33,7.18-10.26
		c3.86-9.48,1.38-17.27-7.3-22.63C210.42,345.22,201.71,345.12,192.79,347.96z"/>
	<path class="st2" d="M254.8,395.07c3.36-4.02,8.49-5.71,12.24-9.34c1.53-1.48,1.53,1.24,1.67,2.34
		c2.11,17.02-4.44,29.89-18.37,39.66c-8.23,5.77-17.3,8.98-26.92,11.08c-1.23,0.27-2.6,0.48-4-0.38c3.31-4.7,5.33-9.84,5.41-15.63
		c10.37-1.96,19.61-6.05,26.73-14.16c3.06-3.49,4.79-7.52,5.18-12.15C256.89,394.8,256.31,394.36,254.8,395.07z"/>
	<path class="st3" d="M192.79,347.96c8.92-2.83,17.63-2.74,25.79,2.3c8.67,5.36,11.15,13.15,7.3,22.63
		c-1.6,3.93-3.12,8.01-7.18,10.26c-5.7-1.05-8.79-3.58-8.2-10.27c0.44-4.9-2.05-9.58-5.66-13.21
		C200.89,355.69,196.81,351.85,192.79,347.96z"/>
	<path class="st3" d="M254.8,395.07c1.51-0.71,2.09-0.27,1.94,1.42c-0.4,4.63-2.12,8.67-5.18,12.15
		c-7.12,8.11-16.36,12.2-26.73,14.16c-1.44-6.87,0.62-11.15,7.84-13.6C241.05,406.37,248.46,401.4,254.8,395.07z"/>
	<path class="st3" d="M232.91,386.83c-0.58-4.61,0.49-8.74,4.79-10.97c4.34-2.26,8.65-0.98,12.53,1.65c1.47,1,2.74,2.32,4.1,3.49
		C248.67,388.38,241.01,388.42,232.91,386.83z"/>
	<path class="st1" d="M517.73,346.7c13.15,4.07,26.52,6.94,40.34,7.16c2.51,0.04,3.23,0.37,2.84,3.28
		c-0.96,7.01,1.48,13.69,2.96,20.44c0.39,1.77,0.73,3.55,1.09,5.32c-0.21,1.21,1.35,2.47-0.08,3.65
		c-8.25-3.84-13.84,0.03-13.14,9.05c0.12,1.49,0.29,2.99,0.19,4.47c-0.43,6.19-4.98,9.96-11.14,9.3c-3.22-0.35-5.95-1.78-8.63-3.56
		c-7.77-5.16-11.44-12.65-12.68-21.58c-0.4-2.88-1.29-4.83-4.68-5.33c-3.89-0.57-6.32-3.42-7.93-6.88
		C503.05,363.81,508.65,350.8,517.73,346.7z"/>
	<path class="st2" d="M517.73,346.7c-9.07,4.1-14.67,17.11-10.86,25.32c1.61,3.46,4.04,6.31,7.93,6.88c3.39,0.5,4.28,2.45,4.68,5.33
		c1.24,8.93,4.91,16.42,12.68,21.58c2.68,1.78,5.41,3.22,8.63,3.56c6.15,0.66,10.71-3.1,11.14-9.3c0.1-1.48-0.08-2.99-0.19-4.47
		c-0.7-9.02,4.89-12.9,13.14-9.05c1.43-1.19-0.13-2.45,0.08-3.65c0.86,0.22,1.58,0.64,1.67,1.59c0.72,7.73,1.43,15.46,2.08,23.2
		c0.09,1.13,0.21,2.97-0.39,3.33c-7.6,4.68-10.82,14.23-20,17.29c-9.29,3.1-17.05,1.76-23.46-5.38c-2.2-2.45-4.13-5.1-5.8-8.04
		c-1.76-3.11-3.17-6.65-7.94-7.29c-3.68-0.49-8.49-10.54-6.92-14.21c3.03-7.1,1.38-13.92-1.09-20.34
		c-4.34-11.29,0.92-21.02,3.84-31.18c0.59-2.05,1.89-1.39,2.95-0.24C512.07,344.01,514.94,345.28,517.73,346.7z"/>
	<path class="st2" d="M573.71,354.8c7.63-3.36,20.93-0.21,24.21,6.78c1.46,3.11-0.07,7.68-0.43,11.58
		c-1.03,11.38-2.17,22.8,1.49,33.92c1,3.04,0.55,4.5-2.38,5.67c-4.19,1.67-7.49,4.73-10.82,7.69c-1.27,1.13-2.66,2.03-4.28,2.43
		c-1.99,0.5-4.01,2.09-6.04,0.1c-1.83-1.8-1.35-3.9-0.71-6c2.32-7.61,1.99-15.24,0.23-22.91c-0.25-1.1-0.03-2.3-0.03-3.46
		c9.48-1.66,14.11-8.07,16.16-16.8c1.62-6.89-1.66-12.57-8.39-14.91C579.58,357.8,576.32,357.03,573.71,354.8z"/>
	<path class="st2" d="M523.43,341.17c-3.37,0-6.57-0.81-9.68-2.07c-0.91-0.37-2.23-0.39-2.34-1.52c-0.12-1.29,1.08-2.14,2.14-2.46
		c4.74-1.43,9.46-3.3,14.32-3.92c17.39-2.22,34.67-0.79,51.75,2.93c1.88,0.41,3.61,1.49,6.03,2.52c-8.97,7.99-19.4,8.56-30.09,8.19
		C547.75,335.68,533.91,336.43,523.43,341.17z"/>
	<path class="st3" d="M573.71,354.8c2.61,2.23,5.88,3,9.01,4.09c6.73,2.33,10.01,8.02,8.39,14.91c-2.05,8.73-6.68,15.14-16.16,16.8
		c-2.02-8.78-4.09-17.55-6.06-26.34C567.6,358.49,568.6,356.64,573.71,354.8z"/>
	<path class="st3" d="M523.43,341.17c10.48-4.74,24.32-5.49,32.14,3.68C544.76,344.52,533.99,343.78,523.43,341.17z"/>
	<path class="st1" d="M561.72,240.92c-5.94,3.88-11.74,7.76-19.18,8.62c-10.94,1.26-24.58-6.06-29.04-16.21
		c-3.01-6.85-0.17-17.62,6.36-21.79c6.26-3.99,12.93-7.36,19.49-10.86c3.06-1.63,6.51-2.61,9.05,0.65c2.56,3.29,1.05,6.6-1.11,9.58
		c-0.97,1.34-2.01,2.64-3.08,3.91c-2,2.38-3.35,4.77-0.02,7.12c2.72,1.92,5.18,1.74,7.35-0.99c2.28-2.85,4.92-5.43,6.93-8.45
		c2.07-3.1,3.05-1.62,4.23,0.48c0.01,7.58,0.04,15.16,0.01,22.74C562.71,237.5,563.08,239.39,561.72,240.92z"/>
	<path class="st1" d="M607.65,199.06c0.43,6.61,0.86,13.22,1.29,19.84c0.92,2.74,0.65,5.56,0.7,8.38c0.09,5.66-3.44,8.9-7.92,11.05
		c-4.38,2.11-8.45,0.62-11.77-2.7c-1.39-1.39-2.68-2.96-3.73-4.62c-2.3-3.64-5.07-3.63-8.45-1.6c-2.37,1.43-3.96,4.09-6.98,4.48
		c0.3-10.25,0.16-20.44-4.41-29.98c0.44-1.9,1.77-3.22,3.14-4.39c4.45-3.81,10.17-4.75,15.51-6.48
		C593.84,190.17,601.37,192.35,607.65,199.06z"/>
	<path class="st2" d="M532.86,187.86c-6.34-1.03-12.83-1.03-19.06-2.86c-1.29-0.38-2.98-0.46-3.4-1.68
		c-0.55-1.62,1.43-2.01,2.37-2.71c2.94-2.16,6.11-4,9.06-6.13c5.97-4.3,12.42-3.19,19.1-2.44c6.68,0.76,13.36-0.4,19.74-2.71
		c1.05-0.38,1.78-1.12,3.16-0.86c10.21,1.9,20.45,3.65,30.68,5.42c1.27,0.22,3.16-0.25,3.43,1.3c0.33,1.92-1.91,1.94-3.08,2.65
		c-3.78,2.27-8.04,2.87-12.35,3.35c-8.18,0.9-15.65,4.02-22.95,7.63c1.91-6.92-0.71-10.65-7.77-10.93
		c-2.66-0.11-5.34-0.21-7.99-0.02C536.86,178.36,532.61,182.32,532.86,187.86z"/>
	<path class="st2" d="M570.79,233.88c3.03-0.39,4.61-3.05,6.98-4.48c3.38-2.03,6.15-2.04,8.45,1.6c1.05,1.66,2.34,3.23,3.73,4.62
		c3.33,3.32,7.39,4.81,11.77,2.7c4.48-2.15,8.01-5.39,7.92-11.05c-0.05-2.81,0.23-5.64-0.7-8.38c3.63,4.58,1.86,9.65,0.97,14.44
		c-1.58,8.5-8.2,13.22-14.43,18.24c-4.06,3.27-8.61,5.49-13.26,7.65c-3.04,1.42-5.73,3.09-8.71-0.3c-1.53-1.74-3.95-0.9-6.84,0.13
		C571.34,250.52,570.79,242.16,570.79,233.88z"/>
	<path class="st3" d="M532.86,187.86c-0.25-5.55,4.01-9.51,10.95-9.99c2.65-0.19,5.33-0.09,7.99,0.02
		c7.05,0.28,9.67,4.01,7.77,10.93c-5.98,2.32-11.98-0.25-17.97-0.21C538.83,188.64,535.77,188.22,532.86,187.86z"/>
	<path class="st2" d="M607.65,199.06c-6.29-6.71-13.81-8.9-22.62-6.03c-5.34,1.74-11.05,2.67-15.51,6.48
		c-1.37,1.17-2.7,2.49-3.14,4.39c-4.46-8.02-4.29-7.62,4.05-11.15c5.96-2.52,12.16-2.92,18.31-3.6c4.91-0.55,9.45-1.77,13.51-4.31
		c3.49-2.2,4.39-0.59,4.41,2.42C606.68,191.23,606.91,195.16,607.65,199.06z"/>
	<path class="st4" d="M325.7,223.03c-1.25-1.39-0.98-3.12-0.98-4.76c-0.02-8.15-0.01-16.3,0.01-24.46c0.01-3.91,3.79-7.28,7.62-6.08
		c15.05,4.7,30.86,4.85,46.14,8.09c8.1,1.72,8.79,2.57,7.38,10.4c-0.73,4.07-1.94,7.99-3.01,11.97c-1.79,6.67-1.47,13.36,0.73,19.99
		c0.72,2.16,0.84,4.52,1.24,6.79c-9.41,6.17-18.69,3.05-27.32-1.31c-11.62-5.86-9.88-16.66-7.86-28.09
		C341.91,220.92,334.91,226.01,325.7,223.03z"/>
	<path class="st2" d="M325.7,223.03c9.2,2.98,16.21-2.12,23.95-7.46c-2.02,11.43-3.77,22.22,7.86,28.09
		c8.63,4.35,17.91,7.48,27.32,1.31c2.2,5.69,1.98,11.65,1.86,17.58c-0.02,0.78-0.28,2.14-0.68,2.25c-4.36,1.16-7.35,5.9-12.35,5.06
		c-11.24-1.9-22.61-3.02-33.68-5.87c-0.32-0.08-0.67-0.06-0.99-0.15c-9.24-2.36-9.46-2.37-9.17-11.87
		c0.24-7.77-1.83-15.1-3.46-22.52C325.88,227.28,325.8,225.18,325.7,223.03z"/>
	<path class="st2" d="M356.82,185.87c-6.91-1.91-14.05-0.29-22.1-1.27c7.59-3.66,14.34-6.72,20.88-10.15
		c4.69-2.47,9.11-5.36,14.41-6.59c7.59-1.75,15.32-1.36,22.82-0.66c8.48,0.79,16.91,0.44,25.36,0.79c1.28,0.05,2.65-0.41,4.18,0.83
		c-3.45,4.05-7.61,7.34-12.13,9.67c-6.56,3.38-12.04,8.77-19.47,10.48c0.18-0.63,0.27-1.3,0.55-1.87c2.74-5.56,1.5-8.13-4.14-10.6
		c-4.84-2.13-9.87-2.13-14.62-1.24C366.03,176.45,359.93,179.18,356.82,185.87z"/>
	<path class="st2" d="M429.49,202.04c-5.3-0.92-10.33-0.03-12.99,4.88c-5.58,10.27-13.66,13.5-24.65,10.24
		c1.66-6.77,2.88-13.58,1.26-20.54c-0.62-2.67,1.17-2.6,2.89-2.67c4.98-0.21,9.9,0.11,14.79,1.16c7.03,1.51,8.81,0.6,12-5.97
		c1.25-2.58,2.43-5.2,4.17-7.72C427.56,188.43,430.39,195,429.49,202.04z"/>
	<path class="st3" d="M356.82,185.87c3.11-6.69,9.21-9.42,15.73-10.63c4.75-0.88,9.78-0.88,14.62,1.24
		c5.64,2.48,6.89,5.04,4.14,10.6c-0.28,0.58-0.37,1.25-0.55,1.87c-1.85,1.89-3.71,0.51-5.52-0.05
		C375.96,186.07,366.4,185.89,356.82,185.87z"/>
	<path class="st2" d="M430.64,204.12c-0.25-0.39-0.5-0.79-0.74-1.18C430.14,203.33,430.39,203.72,430.64,204.12z"/>
	<path class="st2" d="M160.84,251.75c3.16,0.03,4.02-2.46,5.08-4.69c2.93-6.18,6.7-11.81,11.25-16.89c4.7-5.24,6.43-5.71,12.97-3
		c6.98,2.89,13.9,5.4,21.62,2.93c8.2-2.62,18.47-11.75,18.14-19.15c4.35,16.25,6.06,32.5,0.95,49c-1.7,5.5-5.88,6.68-10.27,6.85
		c-16.42,0.61-32.73-0.34-48.43-5.9C167.33,259.2,163.57,256.09,160.84,251.75z M218.4,242.47c-6.54,0.08-11.66,4.44-11.61,9.89
		c0.05,4.77,4.58,9.29,9.35,9.31c5.5,0.03,10.77-5.74,10.7-11.7C226.78,244.94,223.92,242.4,218.4,242.47z"/>
	<path class="st2" d="M238.91,223.59c6.71,0.6,8.97-0.67,11.51-6.87c1.43-3.48,3.42-6.43,6.47-8.63c2.51-1.81,3.81-1.46,3.98,1.94
		c0.24,4.99-1.55,9.47-3.04,14.04c-1.61,4.94-2.78,9.94-2.31,15.18c0.26,2.89,0.84,5.66,4.18,6.65
		c-6.62,5.87-13.49,11.38-21.94,15.91C240.14,248.64,242.6,236.18,238.91,223.59z"/>
	<path class="st3" d="M197.02,183.78c4.03-7.3,11.12-8.82,18.35-8.57c6.34,0.22,10.62,4.28,12.25,10.66
		c-0.31,0.02-0.61,0.08-0.89,0.2c-1.99,0.01-3.99,0.02-5.98,0.02c-0.67,0.01-1.34,0.01-2.01,0.02c-1.32-0.04-2.64-0.08-3.97-0.12
		C209.01,183.95,202.8,185.55,197.02,183.78z"/>
	<path class="st2" d="M220.74,186.1c1.99-0.01,3.99-0.02,5.98-0.02C224.73,187.44,222.74,187.39,220.74,186.1z"/>
	<path class="st2" d="M214.76,185.99c1.32,0.04,2.64,0.08,3.97,0.12C217.37,187.26,216.04,187.39,214.76,185.99z"/>
	<path class="st3" d="M359.72,425.12c-6.59,0.01-10.93-3.89-10.83-9.72c0.1-5.92,4.62-9.64,11.64-9.6c6.63,0.05,11.67,4.3,11.6,9.81
		C372.06,421.17,366.92,425.11,359.72,425.12z"/>
	<path class="st3" d="M388.21,419.07c-3.42-0.03-5.43-1.26-5.51-4.6c-0.06-3.01,1.43-4.62,4.48-4.62c3.24,0,5.53,1.3,5.51,4.85
		C392.68,417.73,390.7,418.96,388.21,419.07z"/>
	<path class="st3" d="M218.4,242.47c5.51-0.07,8.37,2.47,8.44,7.5c0.08,5.96-5.19,11.73-10.7,11.7c-4.77-0.02-9.3-4.54-9.35-9.31
		C206.74,246.91,211.86,242.55,218.4,242.47z"/>
</g>
</svg>
