<?xml version="1.0" encoding="utf-8"?>
<!-- Generator: Adobe Illustrator 26.0.3, SVG Export Plug-In . SVG Version: 6.00 Build 0)  -->
<svg version="1.1" id="Layer_1" xmlns="http://www.w3.org/2000/svg" xmlns:xlink="http://www.w3.org/1999/xlink" x="0px" y="0px"
	 viewBox="0 0 2334 1619" style="enable-background:new 0 0 2334 1619;" xml:space="preserve">
<style type="text/css">
	.st0{fill:#38A38B;}
	.st1{fill:#106B55;}
	.st2{fill:#2D6680;}
	.st3{fill:#168D94;}
	.st4{fill:#25255F;}
	.st5{fill:#1A5778;}
</style>
<g>
	<path class="st0" d="M0.09,771.02c0-153.64,0-307.29,0-460.93c9.15,0.46,18.26,1.27,27.44,1.27
		c765.96-0.04,1531.92-0.03,2297.88-0.04c2.83,0,5.66-0.15,8.49-0.23c0,175.31,0,350.62,0,525.93c-15.43-0.91-30.9-1.15-46.34-1.83
		c-18.43-0.82-36.89-1.29-55.33-2.01c-19.27-0.76-38.55-1.3-57.83-2c-18.61-0.68-37.23-1.34-55.84-1.98
		c-19.78-0.68-39.56-1.27-59.33-2.05c-19.11-0.76-38.23-1.28-57.35-1.98c-20.94-0.76-41.88-1.34-62.82-2
		c-21.11-0.66-42.22-1.36-63.33-1.97c-21.61-0.63-43.24-0.64-64.81-2.24c-17.6-1.3-35.25-0.98-52.87-1.68
		c-24.42-0.97-48.88-1.52-73.32-2.15c-19.96-0.52-39.9-1.38-59.84-1.93c-23.12-0.64-46.23-1.4-69.35-2.06
		c-20.45-0.58-40.9-1.33-61.35-1.95c-22.94-0.7-45.89-1.31-68.83-2.06c-21.28-0.7-42.57-1.29-63.85-1.93
		c-22.78-0.69-45.56-1.35-68.34-2.05c-21.94-0.67-43.89-1.24-65.84-1.97c-22.77-0.75-45.56-1.3-68.33-2.01
		c-21.78-0.67-43.57-1.33-65.35-1.98c-22.44-0.67-44.89-1.29-67.33-2.04c-21.78-0.73-43.56-1.27-65.34-1.98
		c-21.94-0.72-43.89-1.3-65.84-1.99c-21.78-0.68-43.57-1.31-65.35-1.98c-22.11-0.68-44.22-1.29-66.32-2.02
		c-22.28-0.74-44.56-1.28-66.84-2c-22.44-0.73-44.89-1.3-67.34-2c-22.44-0.7-44.89-1.32-67.34-1.98
		c-23.45-0.68-46.9-1.33-70.34-2.03c-23.94-0.72-47.89-1.3-71.83-1.97c-27.27-0.76-54.55-1.33-81.83-2
		c-27.12-0.67-54.24-1.42-81.36-1.99c-30.28-0.63-60.57-0.95-90.84-2.15c-15.63-0.62-31.3-0.54-46.92-0.69
		c-32.97-0.31-65.93-1.96-98.91-1.31c-1.11,0.02-2.42-0.57-3.68,1.13c12.83-1.02,25.16,1.05,37.57,0.84
		C35.89,771.02,17.99,771.02,0.09,771.02z"/>
	<path class="st1" d="M2334,5.19c0.01-4.08-0.66-5.18-5.04-5.18C1554.33,0.13,779.71,0.13,5.08,0.13c-0.83,0-1.69,0.13-2.49-0.02
		c-2.17-0.41-2.58,0.4-2.56,2.53c0.12,13.83,0.06,27.66,0.06,41.49c2.25,8.06,2.89,16.38,3.05,24.64
		c0.77,38.52,1.91,77.06-1.81,115.52c-0.25,2.62-0.82,5.22-1.25,7.82v117.98c9.15,0.46,18.26,1.27,27.44,1.27
		c765.96-0.04,1531.92-0.03,2297.88-0.04c2.83,0,5.66-0.15,8.49-0.23C2333.9,209.12,2333.87,107.15,2334,5.19z"/>
	<path class="st2" d="M2333.9,899c0,72.66,0,145.31,0,217.97c-27.64-0.05-55.28-0.02-82.91,0.86c-3.2,0.1-7.52,2.95-9.54-0.42
		c-1.71-2.85-1.55-7.12-1.44-10.73c0.47-15.34-0.69-30.63-1.35-45.91c-0.49-11.32-0.36-22.63-0.88-33.93
		c-1.28-28.08-2.51-56.16-3.92-84.23c-0.4-7.97-1.32-15.91-2.06-23.86c-0.2-2.14-1.13-4.01-3.49-4.27c-2.69-0.3-3.85,1.61-4.41,3.86
		c-0.44,1.77-0.75,3.58-0.97,5.4c-2.11,18.06-1.67,36.28-1.7,54.36c-0.14,70.61-1.38,141.23,0.61,211.85
		c0.9,31.95-0.74,63.93,0.95,95.9c0.97,18.44,0.2,36.93,0.87,55.42c1.23,33.44-0.57,66.93,1.17,100.39
		c0.74,14.12,0.37,28.28,0.8,42.43c1.02,33.28,0.88,66.59,1.21,99.89c-2.97-0.71-5.45-2.41-8.04-3.9
		c-4.83-2.79-9.54-5.83-14.52-8.34c-13.15-6.65-25.49-14.72-38.64-21.4c-11.64-5.91-22.68-12.99-34.1-19.34
		c-7.68-4.27-16.02-7.51-23.26-12.39c-10.15-6.84-21.23-11.98-31.5-18.59c-8.46-5.44-17.78-9.53-26.63-14.39
		c-7.73-4.24-15.16-9.07-23.03-13.01c-11.27-5.64-21.96-12.32-33.1-18.19c-10.34-5.45-20.33-11.68-30.46-17.61
		c-4.83-2.83-10.2-4.72-14.54-8.42c-1.5-1.28-3.35-2.57-5.43-1.19c-1.97,1.31-1.98,3.66-1.4,5.46c1.6,5,1.08,10.26,2.13,15.23
		c3.42,16.24,4.66,32.79,7.11,49.15c2.1,14.05,3.86,28.33,4.23,42.55c0.7,26.44,3.57,52.82,2.27,79.31c-11,0-22,0-33,0
		c-0.97-26.1-1.91-52.21-2.94-78.31c-0.95-24.27-2.19-48.53-2.96-72.8c-0.77-24.28-2.19-48.54-2.91-72.81
		c-0.7-23.62-1.83-47.21-3.03-70.81c-1.47-28.74-1.99-57.54-3.28-86.29c-0.65-14.46-1.69-28.89-2.13-43.37
		c-0.77-25.27-3.04-50.47-3.86-75.75c-0.49-15.12-1.57-30.22-2.35-45.34c-1.34-25.9-4.05-51.73-5.4-77.63
		c-1.47-28.25-3.13-56.46-6.08-84.59c-0.34-3.22,0.87-8.41-4.02-8.12c-4.31,0.26-3.02,5.27-3,8.34c0.28,29.31-0.73,58.61,0.8,87.93
		c1.07,20.44-0.28,40.94,0.92,61.43c1.14,19.43,0.14,38.93,1.01,58.42c0.9,20.1,1.54,40.24,1.99,60.36
		c0.72,32.45,2.25,64.86,3.09,97.3c0.4,15.31,1.12,30.61,1.42,45.92c0.18,8.96,0.45,17.96,0.88,26.94
		c1.17,24.43,2.98,48.83,2.69,73.31c-1.28-1-1.84-2.39-1.78-3.95c0.22-5.58-1.88-10.8-2.37-16.28c-0.36-4.05-2.22-7.62-5.86-9.38
		c-9.39-4.54-17.95-10.53-27.27-15.15c-10.09-5-19.52-11.13-29.34-16.59c-10.26-5.71-20.64-11.2-30.75-17.2
		c-10.64-6.31-21.75-11.84-32.59-17.84c-8.83-4.89-17.64-9.84-26.33-14.97c-10.03-5.93-21.01-10.28-30.64-16.69
		c-12.3-8.18-25.72-14.24-38.19-22.09c-9.72-6.13-20.27-11.14-30.39-16.74c-12.31-6.81-24.71-13.46-36.9-20.48
		c-3.64-2.1-6.89-4.64-11.41-3.72c-0.46-7.64-0.85-15.28-1.38-22.91c-1.18-16.75-2.43-33.5-3.68-50.25
		c-1.19-15.92-2.37-31.84-3.65-47.75c-1.03-12.76-2.65-25.5-3.2-38.28c-0.84-19.3-3.05-38.48-4.71-57.69
		c-1.25-14.55-2.5-29.15-4.12-43.69c-3.09-27.77-4.79-55.69-9.35-83.3c-1-6.06-0.94-6.11,5.45-6.09c28.3,0.09,56.57,1.1,84.85,1.83
		c26.62,0.69,53.24,1.31,79.85,1.96c29.61,0.72,59.23,1.29,88.85,2.19c15.8,0.48,31.62,0.39,47.43,0.71
		c32.95,0.69,65.89,1.89,98.84,2.14c27.81,0.21,55.61,0.55,83.4,1.35c10.64,0.31,21.27,0.42,31.91,0.62
		c23.29,0.43,46.56,1.5,69.84,2.16c16.3,0.47,32.61,0.11,48.93,0.8c26.24,1.12,52.55,0.89,78.82,1.25
		C2298.03,897.27,2315.99,897.45,2333.9,899z M1987.88,1106.12c-0.9-5.02-1.88-10.91-3.02-16.76c-2.78-14.36-5.31-28.72-6.09-43.4
		c-0.56-10.6-0.54-21.3-2.74-31.78c-0.73-3.46-2.38-5.9-6.2-6.02c-4.07-0.12-5.51,2.69-6,6.05c-1.05,7.24-2.31,14.49-2.76,21.78
		c-1.52,24.55,1.48,48.85,4.77,73.1c1.02,7.48,5.54,11.29,11.89,10.79C1983.29,1119.43,1987.88,1113.61,1987.88,1106.12z
		 M1849.83,1098.63c-0.22-1.02-0.44-2.86-1.03-4.57c-6.73-19.43-9.22-39.77-13.2-59.8c-1.77-8.88-3.65-18-8.6-25.89
		c-1.37-2.19-2.65-5.92-6.2-4.63c-3.82,1.39-2.82,5.14-2.48,8.26c0.07,0.66,0.35,1.29,0.48,1.94c2.66,13.06,4.23,26.31,4.99,39.57
		c0.94,16.28,1.53,32.52,6.38,48.27c1.42,4.62,5.93,8.23,10.35,7.8C1845.4,1109.1,1849.86,1104.24,1849.83,1098.63z"/>
	<path class="st3" d="M268.07,1618.9c-87.99,0-175.99-0.03-263.98,0.1c-3.42,0-4.1-0.67-4.09-4.1c0.1-233.63,0.09-467.27,0.09-700.9
		c7.33-0.25,14.52,1.22,21.76,1.69c21.35,1.4,42.77-0.81,64.19,1.95c15.4,1.98,31.07,0.49,46.7,1.75
		c27.76,2.24,55.77-0.69,83.64,2.29c10.7,1.14,21.62,0.31,32.43,0.21c4.22-0.04,8.29,0.3,12.14,2.15c0.02,1.35,0.04,2.7,0.05,4.04
		c-0.18,0.3-0.18,0.61-0.01,0.92c-0.25,5.03-0.51,10.06-0.76,15.09c-0.92,1.47-0.98,3.14-1.14,4.79
		c-1.83,18.24-1.07,36.53-0.47,54.76c0.22,6.7-0.62,13.64,1.56,20.25c-0.17,15.7-0.1,31.39,0.81,47.06c-0.17,0.32-0.17,0.64,0,0.95
		c0.08,26.74,0.15,53.47,0.23,80.21c-1.01,1.65-1.02,3.48-1.02,5.32c0.01,22.97,0.03,45.94,0.06,68.92c0,1.99-0.15,4.06,1.79,5.43
		c0.63,34.11-0.16,68.23,0.79,102.35c0.95,33.93,0.23,67.9,1.2,101.84c0.69,23.95,0.11,47.91,0.82,71.88
		c0.96,32.09,0.06,64.23,1.3,96.34C266.35,1609.18,266.05,1614.18,268.07,1618.9z M225.1,1034.08c-0.74-18.3-1.56-36.57-3.38-54.76
		c-0.61-6.09-1.96-12.17-5.28-17.53c-1.49-2.41-3.85-3.47-6.41-2.01c-2.27,1.3-3.66,3.34-2.17,6.25c1.24,2.43,1.35,5.12,1.39,7.79
		c0.3,20.45-0.21,40.88-1.96,61.27c-0.21,2.46-0.22,5.03,0.24,7.43c0.87,4.58,4.28,6.89,8.6,6.83c4.15-0.05,7.21-2.44,7.94-6.88
		C224.53,1039.69,224.77,1036.88,225.1,1034.08z"/>
	<path class="st3" d="M576.05,1618.9c-83.99,0-167.99,0-251.98,0c0.01-7.99-1.13-15.9-1.66-23.83c-1.46-21.71,0.02-43.48-1.94-65.29
		c-2.36-26.28,0.32-52.77-1.95-79.24c-1.87-21.82-1.07-43.89-2.15-65.85c-1.24-25.09-0.34-50.23-1.96-75.37
		c-1.39-21.39-0.5-42.9-2.09-64.37c-1.67-22.53,0.15-45.14-1.78-67.79c-2.23-26.15,0.23-52.54-2.22-78.84
		c-1.96-20.98-0.05-42.11-1.72-63.26c-1.99-25.31,0.08-50.89-2.48-76.29c-0.38-3.8-0.88-7.57-1.35-11.34
		c-0.78-6.26-2.82-12.33-2.69-18.72c0.06-3.04,1.29-4.73,4.46-4.71c15.16,0.08,30.42-0.95,45.46,0.47
		c25.53,2.41,51.15,0.77,76.69,3.17c24.46,2.29,49.11,0.01,73.76,1.76c24.5,1.73,49.22,1.46,73.84,2.46
		c0.66,5.31,0.14,10.61,0.07,15.93c-0.6,43.19-0.07,86.38-1.05,129.57c-0.43,18.97,0.41,37.95,0.59,56.93
		c0.84,91.93-0.52,183.86,1.08,275.79c0.62,35.63,0.19,71.29,0.22,106.93c0,2.49,0.44,5.24-1.13,7.29
		c-4.08,5.32-2.94,10.58-0.32,15.93c0.9,1.84,1.43,3.73,1.42,5.76C575.03,1570.29,576.63,1594.58,576.05,1618.9z M312.03,967.81
		c0.65,6.75,1.73,13.86,1.96,21c0.65,19.51,3.85,38.7,6.53,57.97c0.28,2.03,1.21,3.72,2.75,5.18c3.32,3.13,7.03,3.56,11.09,1.88
		c4.01-1.66,5.69-4.76,5.69-9.07c0-5.68-2.68-10.6-4.15-15.87c-5.66-20.26-8.21-41.12-11.97-61.75c-0.51-2.79-0.84-5.62-2.3-8.12
		c-1.19-2.04-2.92-3.2-5.39-2.75c-2.29,0.42-3.43,2.09-3.74,4.17C312.15,962.74,312.19,965.09,312.03,967.81z"/>
	<path class="st3" d="M1267.99,1618.9c-84.66,0-169.32,0-253.98,0c-0.06-2.66-0.17-5.33-0.16-7.99c0-27.33,0.14-54.66-0.07-81.98
		c-0.03-4.44,2.86-8.6,1.59-12.7c-1.85-5.94-1.45-11.87-1.45-17.82c-0.03-123.64,0.02-247.28,0.02-370.91
		c0-30.83,0.43-61.67-0.34-92.47c-0.75-30.3-0.36-60.61-1.45-90.9c11.52-0.68,22.8,2.48,34.36,1.95c10.3-0.47,20.65-0.05,30.97,0.03
		c4.7,0.04,9.41,0.49,13.58,2.79c16.97,9.34,33.89,18.76,50.78,28.26c11.85,6.67,23.56,13.58,35.43,20.22
		c7.23,4.04,14.96,7.27,21.89,11.75c12.11,7.82,24.93,14.31,37.6,21.09c-0.97,8.25-1.12,16.5,0.17,24.73
		c0.02,0.32,0.04,0.64,0.07,0.96c0.31,5.31,0.67,10.61,0.93,15.92c0.35,7.29,2.73,10.01,10.01,11.23
		c-0.97,24.29,3.08,48.42,2.2,72.71c-0.02,0.66,0.02,1.34,0.11,1.99c3.59,24.12,0.6,48.53,3.45,72.75
		c2.09,17.76,0.53,35.78,1.74,53.74c1.58,23.68,1.66,47.53,2.41,71.31c0.85,26.94,3.13,53.84,2.3,80.82
		c-0.02,0.66,0.06,1.33,0.16,1.99c2.79,18.44,1.24,37.1,3.29,55.65c2.3,20.75,0.29,41.75,1.82,62.72
		C1266.9,1577.34,1267.08,1598.17,1267.99,1618.9z"/>
	<path class="st3" d="M1596.96,1618.9c-89.66,0-179.32,0-268.98,0c0.81-21.01-1.3-41.91-2.45-62.84
		c-1.65-29.9-3.71-59.77-5.53-89.66c-1.14-18.76-2.12-37.54-3.26-56.3c-1.54-25.24-3.25-50.47-4.75-75.71
		c-1.2-20.1-2.08-40.21-3.31-60.31c-2.17-35.37-4.44-70.74-6.79-106.1c-1.95-29.38-4.08-58.75-6.13-88.13
		c0.04-2.65,0.04-5.31,0.12-7.96c0.05-1.95-0.4-4.24,1.81-5.31c2.11-1.01,3.78,0.47,5.42,1.6c7.09,4.9,15.26,7.66,22.84,11.59
		c0.67,0.09,1.33,0.18,2,0.27c3.79,4.63,9.28,6.61,14.3,9.4c12.16,6.79,24.16,13.86,36.29,20.71c8.63,4.87,17.49,9.35,26.02,14.39
		c12.37,7.31,25.61,13.02,37.58,21.08c10.1,6.8,21.3,11.82,31.98,17.65c13.2,7.2,25.96,15.17,39.45,21.91
		c15.32,7.65,29.75,17.07,44.86,25.18c3.7,1.99,6.76,5.54,11.41,5.69c0.74,11.63,1.46,23.25,2.24,34.88
		c1.41,21.25,2.86,42.5,4.28,63.75c1.58,23.57,3.29,47.13,4.7,70.71c1.04,17.43,2.18,34.88,3.5,52.28
		c2.24,29.53,4.21,59.07,6.49,88.6c1.42,18.41,2.77,36.83,3.77,55.27C1595.48,1594,1597.36,1606.38,1596.96,1618.9z"/>
	<path class="st2" d="M1325.95,1079.78c-7.58-3.93-15.76-6.69-22.84-11.59c-1.64-1.14-3.31-2.62-5.42-1.6
		c-2.2,1.06-1.75,3.35-1.81,5.31c-0.07,2.65-0.08,5.31-0.11,7.96c-0.28-1.46-0.71-2.92-0.81-4.4c-1.29-18.42-2.05-36.86-3.93-55.24
		c-1.61-15.71-2.67-31.48-3.96-47.23c-1.04-12.76-1.88-25.55-3.14-38.29c-1.64-16.55-3.52-33.08-5.52-49.59
		c-0.31-2.56-0.03-7.01-3.43-6.81c-3.77,0.23-2.93,4.61-2.94,7.43c-0.19,30.97,0.24,61.91,1.75,92.86
		c1.57,32.07,2.16,64.19,3.22,96.28c0.29,8.81,0.59,17.63,1.14,26.43c1.84,29.21,2.75,58.47,4.59,87.69
		c1.31,20.74,2.01,41.53,3.21,62.29c1.54,26.73,3.41,53.44,4.92,80.17c1.52,26.74,2.52,53.5,4.29,80.22
		c0.59,8.82,0.45,17.63,1.05,26.43c1.46,21.4,3.07,42.8,3.83,64.25c0.47,13.3,1.05,26.61,2.26,39.85
		c2.34,25.52,2.9,51.14,4.67,76.68c-13,0-26,0-39,0c-0.91-20.73-1.09-41.56-2.59-62.18c-1.53-20.97,0.48-41.98-1.82-62.72
		c-2.06-18.55-0.5-37.22-3.29-55.65c-0.1-0.66-0.18-1.33-0.16-1.99c0.83-26.98-1.45-53.89-2.3-80.82
		c-0.75-23.78-0.83-47.63-2.41-71.31c-1.2-17.96,0.36-35.98-1.74-53.74c-2.85-24.22,0.14-48.63-3.45-72.75
		c-0.1-0.66-0.14-1.33-0.11-1.99c0.88-24.28-3.17-48.42-2.2-72.71c6.72-1.06,9.26-8.42,7.64-16.54c-1.17-5.87-2.83-11.7-3.39-17.63
		c-1.65-17.7-2.78-35.45-4.31-53.17c-0.35-4.11-1.35-8.19-2.31-12.21c-0.58-2.43-2.21-4.25-4.98-4c-2.14,0.19-3.03,1.74-3.07,3.87
		c-0.15,8.8-0.36,17.59-0.5,26.39c-0.11,6.82-0.17,13.64-0.26,20.47c-12.67-6.78-25.49-13.27-37.6-21.09
		c-6.93-4.48-14.66-7.7-21.89-11.75c-11.87-6.64-23.58-13.55-35.43-20.22c-16.88-9.5-33.8-18.92-50.78-28.26
		c-4.17-2.29-8.88-2.75-13.58-2.79c-10.33-0.08-20.67-0.5-30.97-0.03c-11.56,0.53-22.84-2.63-34.36-1.95
		c-0.71-22.45-1.49-44.89-2.1-67.34c-0.16-5.83,0.87-6.86,6.64-6.68c8.14,0.25,16.27,0.85,24.43,0.96
		c29.46,0.38,58.92-0.22,88.4,0.66c31.76,0.94,63.54,1.85,95.32,2.22c16.65,0.19,33.26,1.69,49.92,1.16
		c1.48-0.05,2.97,0.33,4.47,0.45c14.76,1.17,29.55,2.98,44.33,2.27c16.32-0.79,32.56-0.36,48.87-0.05
		c30.95,0.58,61.89,1.33,92.84,2.16c27.12,0.73,54.26,0.78,81.39,1.13c0.83,0.01,1.66,0.06,2.5,0.09c3.61,0.13,5.06,1.55,5.02,5.59
		c-0.13,14.8,0.07,29.61,0.44,44.42c0.73,29.11,2.24,58.18,3.39,87.26c0.57,14.46,1.06,28.93,2.21,43.35
		c1.79,22.39,2.46,44.83,3.8,67.23c0.81,13.61,1.84,27.2,2.75,40.8c1.03,15.42,2.04,30.85,3.06,46.28
		c-4.64-0.16-7.71-3.71-11.41-5.69c-15.11-8.11-29.54-17.53-44.86-25.18c-13.49-6.74-26.26-14.7-39.45-21.91
		c-10.68-5.83-21.87-10.84-31.98-17.65c-11.97-8.06-25.21-13.77-37.58-21.08c-8.53-5.04-17.39-9.52-26.02-14.39
		c-12.13-6.85-24.13-13.92-36.29-20.71c-5.01-2.8-10.51-4.77-14.3-9.4c9.66-0.24,12.84-3.51,13.04-13.41c0-0.17,0-0.33,0.01-0.5
		c1.89-29.92-4.75-59.33-5.45-89.1c-0.1-4.41-0.21-9-1.65-13.34c-0.8-2.39-1.99-4.31-4.85-4.17c-2.75,0.13-4.13,1.89-4.7,4.41
		c-0.37,1.62-0.85,3.25-0.96,4.9c-1.23,17.44-2.44,34.94-0.99,52.37c1.15,13.88,0.3,27.63-0.88,41.35
		C1320.94,1069.16,1321.86,1074.7,1325.95,1079.78z"/>
	<path class="st4" d="M2333.9,853.01c0,11,0,22,0,33c-5.99-0.3-11.98-0.72-17.97-0.87c-27.13-0.71-54.26-1.61-81.4-1.94
		c-26.48-0.33-52.94-0.94-79.41-1.96c-23.63-0.9-47.3-0.84-70.95-1.22c-10.66-0.17-21.31-0.29-31.97-0.69
		c-36.77-1.37-73.56-2.4-110.36-3.12c-27.31-0.54-54.61-1.15-81.91-1.92c-28.8-0.81-57.6-1.52-86.41-2.03
		c-32.31-0.57-64.61-1.13-96.91-1.93c-31.3-0.77-62.6-1.36-93.9-2.1c-27.97-0.65-55.94-1.33-83.91-1.92
		c-29.64-0.63-59.27-1.43-88.91-2.05c-30.8-0.64-61.61-1.23-92.41-1.93c-33.63-0.76-67.27-1.4-100.91-2.05
		c-34.47-0.67-68.94-1.08-103.41-2.01c-31.63-0.85-63.27-1.32-94.9-2.05c-26.3-0.61-52.6-1.3-78.9-1.89
		c-32.63-0.73-65.27-1.28-97.9-2.07c-31.63-0.77-63.27-1.33-94.91-1.96c-33.14-0.67-66.27-1.44-99.41-2.05
		c-30.14-0.55-60.27-1.31-90.41-1.91c-34.8-0.69-69.6-1.42-104.4-2.15c-29.47-0.61-58.94-1.15-88.41-1.96
		c-34.63-0.95-69.27-1.7-103.91-2.04c-34.48-0.34-68.94-1.1-103.41-1.8c-38.45-0.78-76.93-1.14-115.4-0.41
		c-2.91,0.06-5.26,0.8-6.35,3.78c-11.6,0.14-23.13,1.88-34.76,1.25c0-22.66,0-45.33,0-67.99c2.33,0.03,4.68-0.1,6.99,0.11
		c27.35,2.59,54.83,3.28,82.24,4.43c32.76,1.37,65.52,3.22,98.3,4.08c32.79,0.86,65.55,2.44,98.33,3.31
		c20.47,0.55,40.93,1.24,61.4,1.92c30.12,1,60.22,2.31,90.35,2.99c28.46,0.64,56.9,1.99,85.35,3c30.61,1.08,61.24,1.62,91.85,2.9
		c20.28,0.85,40.59,1.3,60.89,2.06c40.26,1.52,80.52,2.96,120.8,3.99c29.13,0.75,58.23,2.14,87.35,2.98
		c29.78,0.85,59.56,1.94,89.34,2.93c28.95,0.96,57.88,2.34,86.84,3.05c32.45,0.8,64.89,2,97.34,3.05
		c18.13,0.59,36.26,1.2,54.39,1.91c35.1,1.39,70.22,2.34,105.34,3.12c20.81,0.47,41.6,1.28,62.4,1.89
		c30.12,0.88,60.22,1.96,90.34,2.99c28.61,0.98,57.22,2.2,85.83,3.03c27.12,0.79,54.23,1.62,81.34,2.89
		c21.11,0.99,42.26,1.28,63.39,2.06c32.1,1.18,64.22,2.08,96.33,3.05c28.79,0.87,57.55,2.43,86.34,2.96
		c32.8,0.6,65.55,2.21,98.33,3.04c23.63,0.6,47.26,1.38,70.89,1.98c32.12,0.81,64.23,2.24,96.35,2.89
		c31.97,0.64,63.88,2.18,95.82,3.19C2274.3,851.78,2304.1,852.3,2333.9,853.01z"/>
	<path class="st2" d="M0.09,843.01c11.62,0.63,23.16-1.12,34.76-1.25c2.88,2.23,6.16,3.18,9.78,3.23
		c15.97,0.2,31.91,1.34,47.87,1.85c21.62,0.69,43.24,1.42,64.86,1.99c23.79,0.63,47.57,1.29,71.36,1.98
		c25.12,0.72,50.24,1.43,75.36,2.02c30.95,0.73,61.9,1.23,92.85,2.05c29.78,0.79,59.57,1.17,89.35,2
		c26.12,0.73,52.24,1.47,78.36,1.9c33.62,0.55,67.23,1.5,100.84,2.23c11.48,0.25,22.98,0.6,34.43,0.68
		c28.48,0.2,56.88,2.26,85.35,2.36c11.48,0.04,22.96,0.35,34.44,0.67c35.43,0.98,70.86,1.6,106.28,3.07
		c23.26,0.97,46.59,0.82,69.85,2.15c7.03,0.4,7.38,0.57,7.13,7.64c-0.85,23.1-2.09,46.19-2.79,69.3
		c-0.65,21.3-0.02,42.61-1.01,63.92c-0.72,15.46-0.15,30.98-0.23,46.47c-0.01,2.03,0.59,4.87-2.62,5.03
		c-10.79,0.54-21.59,1.67-32.36-0.32c0.03-25.82,0.04-51.65,0.1-77.47c0.01-2.32-0.06-4.73,0.5-6.95c2.45-9.71,3.34-19.6,3.92-29.54
		c0.12-2.12-0.33-3.89-2.69-3.91c-4.71-0.05-9.03-2.11-13.78-2.1c-19.98,0.05-39.92-0.63-59.89-1.65
		c-25.74-1.31-51.56-0.5-77.36-2.03c-26.89-1.6-53.89-0.39-80.87-1.92c-25.23-1.43-50.59-0.39-75.86-2.28
		c-7.96-0.6-16.07,0.45-23.96-0.52c-16.62-2.03-33.25-1.54-49.9-1.46c-0.72-18.62-1.43-37.24-2.19-55.85
		c-0.06-1.48-0.37-2.97-0.78-4.39c-0.27-0.95-0.91-1.85-2.1-1.82c-1.26,0.03-1.68,1.05-1.83,2.04c-0.46,3.12-1.07,6.26-1.17,9.4
		c-0.44,15.14-0.72,30.28-1.11,45.42c-0.04,1.64-0.47,3.27-0.72,4.91c-24.61-1-49.34-0.72-73.84-2.46
		c-24.65-1.74-49.3,0.53-73.76-1.76c-25.55-2.39-51.16-0.76-76.69-3.17c-15.03-1.42-30.3-0.4-45.46-0.47
		c-3.16-0.02-4.39,1.67-4.46,4.71c-0.13,6.39,1.92,12.46,2.69,18.72c0.47,3.77,0.97,7.54,1.35,11.34
		c2.56,25.4,0.49,50.98,2.48,76.29c1.66,21.15-0.24,42.28,1.72,63.26c2.46,26.3-0.01,52.69,2.22,78.84
		c1.93,22.66,0.11,45.27,1.78,67.79c1.59,21.46,0.71,42.97,2.09,64.37c1.63,25.14,0.72,50.29,1.96,75.37
		c1.09,21.96,0.28,44.03,2.15,65.85c2.27,26.47-0.41,52.96,1.95,79.24c1.96,21.81,0.47,43.58,1.94,65.29
		c0.53,7.93,1.67,15.84,1.66,23.83c-15,0-30,0-45,0c2.18-11.21,1.57-22.45,1.18-33.8c-1.02-28.96-0.17-57.94-0.87-86.93
		c-0.86-35.45-0.66-70.94-1.31-106.41c-0.32-17.48-0.43-34.96-0.69-52.44c-0.65-44.45-0.75-88.91-2.25-133.35
		c-0.75-22.3,0.07-44.61-0.82-66.93c-1.17-29.6-1.39-59.24-2.06-88.86c-0.6-26.62-1.26-53.25-1.91-79.87
		c-0.49-19.97-1.45-39.94-1.36-59.93c0.04-9.14-0.12-18.35-1.17-27.42c-0.87-7.48,0.09-15.02-1.42-22.4
		c-0.3-1.49-0.19-3.85-2.52-3.62c-1.88,0.18-1.68,2.22-1.75,3.67c-0.38,8.31-0.89,16.62-1.02,24.93
		c-0.2,12.83-0.12,25.66-0.15,38.49c-3.85-1.85-7.92-2.19-12.14-2.15c-10.82,0.1-21.74,0.93-32.43-0.21
		c-27.87-2.97-55.87-0.05-83.64-2.29c-15.63-1.26-31.3,0.23-46.7-1.75c-21.42-2.76-42.84-0.56-64.19-1.95
		c-7.24-0.47-14.43-1.94-21.76-1.69C0.09,890.34,0.09,866.67,0.09,843.01z M843.95,924.28c7.07,0.16,11.37-4.11,11.91-9.88
		c0.43-4.54-3.76-10.2-8.27-10.24c-13.32-0.1-26.64-0.6-39.96,0.36c-15.31,1.1-30.6,0.79-45.81-1.5c-2.68-0.4-5.42-1.58-7.03,1.58
		c-1.46,2.87,0.18,5.17,2.18,7.09c4.02,3.85,9.2,5.12,14.43,6.31c9.5,2.17,19.21,1.67,28.82,2.53
		C815.42,921.9,830.98,919.03,843.95,924.28z"/>
	<path class="st3" d="M1592,1231.96c4.52-0.93,7.77,1.62,11.41,3.72c12.19,7.02,24.59,13.67,36.9,20.48
		c10.13,5.6,20.68,10.61,30.39,16.74c12.47,7.86,25.89,13.92,38.19,22.09c9.63,6.4,20.61,10.76,30.64,16.69
		c8.69,5.14,17.49,10.09,26.33,14.97c10.84,5.99,21.94,11.52,32.59,17.84c10.11,6,20.49,11.49,30.75,17.2
		c9.82,5.46,19.26,11.6,29.34,16.59c9.32,4.62,17.88,10.61,27.27,15.15c3.63,1.75,5.49,5.33,5.86,9.38
		c0.49,5.47,2.59,10.7,2.37,16.28c-0.06,1.56,0.5,2.95,1.78,3.95c0.36,6.14,0.76,12.28,1.08,18.42c1.14,21.92,1.86,43.86,2.64,65.79
		c1.33,37.23,3.52,74.42,4.4,111.66c-95.33,0-190.65,0-285.98,0c0.42-12.85-1.38-25.58-2.1-38.37c-0.96-17.11-2.17-34.2-3.29-51.3
		c-1.55-23.58-3.12-47.15-4.69-70.72c-1.1-16.43-2.16-32.87-3.33-49.3c-1.51-21.24-3.14-42.48-4.66-63.72
		c-1.15-16.1-2.19-32.21-3.31-48.31C1595.07,1275.43,1593.53,1253.7,1592,1231.96z"/>
	<path class="st5" d="M1592,1231.96c1.53,21.74,3.07,43.47,4.59,65.21c1.12,16.1,2.16,32.21,3.31,48.31
		c1.52,21.24,3.15,42.48,4.66,63.72c1.17,16.43,2.23,32.87,3.33,49.3c1.57,23.57,3.14,47.15,4.69,70.72
		c1.12,17.1,2.34,34.19,3.29,51.3c0.71,12.79,2.52,25.52,2.1,38.37c-7,0-14,0-21,0c0.4-12.51-1.48-24.9-2.16-37.36
		c-1-18.44-2.34-36.86-3.77-55.27c-2.28-29.52-4.25-59.07-6.49-88.6c-1.32-17.4-2.45-34.84-3.5-52.28
		c-1.41-23.58-3.12-47.14-4.7-70.71c-1.43-21.25-2.87-42.5-4.28-63.75c-0.77-11.62-1.49-23.25-2.24-34.88
		c-1.02-15.43-2.03-30.85-3.06-46.28c-0.91-13.6-1.94-27.2-2.75-40.8c-1.34-22.41-2.01-44.85-3.8-67.23
		c-1.15-14.42-1.64-28.89-2.21-43.35c-1.15-29.09-2.66-58.15-3.39-87.26c-0.37-14.81-0.57-29.61-0.44-44.42
		c0.03-4.05-1.41-5.46-5.02-5.59c-0.83-0.03-1.66-0.08-2.5-0.09c-27.13-0.35-54.27-0.4-81.39-1.13
		c-30.94-0.83-61.89-1.58-92.84-2.16c-16.31-0.31-32.55-0.74-48.87,0.05c-14.78,0.71-29.57-1.09-44.33-2.27
		c-1.49-0.12-2.98-0.5-4.47-0.45c-16.66,0.53-33.27-0.96-49.92-1.16c-31.78-0.37-63.56-1.28-95.32-2.22
		c-29.48-0.88-58.94-0.28-88.4-0.66c-8.16-0.1-16.29-0.7-24.43-0.96c-5.77-0.18-6.8,0.85-6.64,6.68c0.61,22.45,1.38,44.89,2.1,67.34
		c1.1,30.29,0.7,60.6,1.45,90.9c0.77,30.81,0.34,61.65,0.34,92.47c0,123.64-0.04,247.28-0.02,370.91c0,5.95-0.39,11.88,1.45,17.82
		c1.27,4.1-1.62,8.27-1.59,12.7c0.21,27.33,0.07,54.65,0.07,81.98c0,2.66,0.11,5.33,0.16,7.99c-6,0-12,0-18,0
		c0.01-29.49,0.03-58.99,0-88.48c-0.01-7.35-6.64-11.04-12.93-6.9c-4.01,2.63-8.13,3.35-12.75,3.42
		c-44.48,0.63-88.95-0.97-133.43-1.09c-24.64-0.07-49.29-0.23-73.94-0.62c-45.95-0.72-91.92-1.02-137.87-2.24
		c-9-0.24-17.96-0.46-26.88-1.82c-6.7-1.02-7.16-0.48-7.16,6.24c-0.02,29.49-0.03,58.99-0.04,88.48c0.01,1,0.02,2,0.02,3.01
		c-5,0-10,0-15,0c0.59-24.32-1.02-48.61-0.9-72.92c0.01-2.03-0.52-3.93-1.42-5.76c-2.62-5.34-3.76-10.61,0.32-15.93
		c1.58-2.05,1.14-4.8,1.13-7.29c-0.03-35.64,0.4-71.3-0.22-106.93c-1.6-91.93-0.24-183.86-1.08-275.79
		c-0.17-18.97-1.02-37.96-0.59-56.93c0.98-43.19,0.45-86.39,1.05-129.57c0.07-5.32,0.59-10.62-0.07-15.93
		c0.25-1.64,0.68-3.27,0.72-4.91c0.39-15.14,0.67-30.28,1.11-45.42c0.09-3.14,0.7-6.28,1.17-9.4c0.15-0.98,0.57-2,1.83-2.04
		c1.19-0.03,1.83,0.87,2.1,1.82c0.4,1.43,0.72,2.92,0.78,4.39c0.76,18.62,1.47,37.24,2.19,55.85c0.57,16.13,1.35,32.26,1.68,48.4
		c0.55,26.97,0.8,53.95,1.19,80.93c0.01,0.83,0.04,1.67,0.11,2.49c0.23,2.68,1.7,3.75,4.36,3.56c5.64-0.41,11.29-0.71,16.94-1.09
		c19.42-1.31,38.78-3.82,58.3-3.39c9.32,0.2,18.62,0.75,27.94,0.86c50.64,0.61,101.27-0.78,151.91-0.83
		c35.82-0.04,71.64-0.11,107.46-0.15c3.34,0,6.66-0.07,9.92-0.95c10.77,1.99,21.57,0.86,32.36,0.32c3.21-0.16,2.61-3.01,2.62-5.03
		c0.08-15.49-0.49-31.01,0.23-46.47c0.99-21.31,0.36-42.62,1.01-63.92c0.7-23.11,1.94-46.2,2.79-69.3c0.26-7.08-0.1-7.24-7.13-7.64
		c-23.27-1.33-46.59-1.19-69.85-2.15c-35.42-1.47-70.85-2.09-106.28-3.07c-11.48-0.32-22.96-0.63-34.44-0.67
		c-28.47-0.1-56.88-2.16-85.35-2.36c-11.45-0.08-22.95-0.43-34.43-0.68c-33.61-0.74-67.22-1.69-100.84-2.23
		c-26.12-0.43-52.24-1.17-78.36-1.9c-29.78-0.83-59.57-1.22-89.35-2c-30.95-0.82-61.9-1.32-92.85-2.05
		c-25.12-0.59-50.24-1.3-75.36-2.02c-23.79-0.68-47.57-1.35-71.36-1.98c-21.62-0.57-43.24-1.3-64.86-1.99
		c-15.96-0.51-31.9-1.65-47.87-1.85c-3.62-0.05-6.9-1-9.78-3.23c1.09-2.99,3.45-3.73,6.35-3.79c38.47-0.73,76.95-0.38,115.4,0.41
		c34.47,0.7,68.93,1.46,103.41,1.8c34.64,0.34,69.28,1.09,103.91,2.04c29.47,0.81,58.94,1.35,88.41,1.96
		c34.8,0.72,69.6,1.46,104.4,2.15c30.14,0.6,60.27,1.36,90.41,1.91c33.14,0.61,66.27,1.38,99.41,2.05
		c31.64,0.64,63.28,1.19,94.91,1.96c32.63,0.79,65.27,1.34,97.9,2.07c26.3,0.59,52.6,1.28,78.9,1.89c31.63,0.74,63.28,1.2,94.9,2.05
		c34.47,0.93,68.94,1.34,103.41,2.01c33.64,0.66,67.27,1.29,100.91,2.05c30.8,0.7,61.61,1.28,92.41,1.93
		c29.64,0.62,59.27,1.42,88.91,2.05c27.97,0.59,55.94,1.27,83.91,1.92c31.3,0.73,62.61,1.32,93.9,2.1c32.3,0.8,64.6,1.36,96.91,1.93
		c28.8,0.51,57.61,1.22,86.41,2.03c27.3,0.77,54.6,1.38,81.91,1.92c36.79,0.72,73.58,1.75,110.36,3.12
		c10.66,0.4,21.31,0.51,31.97,0.69c23.65,0.38,47.32,0.32,70.95,1.22c26.47,1.01,52.93,1.63,79.41,1.96
		c27.14,0.34,54.27,1.23,81.4,1.94c5.99,0.16,11.98,0.58,17.97,0.87c0,4.33,0,8.67,0,13c-17.91-1.56-35.87-1.74-53.82-1.99
		c-26.28-0.37-52.58-0.14-78.82-1.25c-16.33-0.69-32.63-0.34-48.93-0.8c-23.28-0.67-46.56-1.73-69.84-2.16
		c-10.64-0.2-21.27-0.31-31.91-0.62c-27.79-0.8-55.59-1.14-83.4-1.35c-32.95-0.25-65.89-1.45-98.84-2.14
		c-15.81-0.33-31.62-0.23-47.43-0.71c-29.61-0.9-59.23-1.47-88.85-2.19c-26.62-0.65-53.24-1.26-79.85-1.96
		c-28.28-0.74-56.56-1.75-84.85-1.83c-6.39-0.02-6.45,0.04-5.45,6.09c4.56,27.61,6.27,55.53,9.35,83.3
		c1.62,14.55,2.86,29.14,4.12,43.69c1.66,19.21,3.87,38.39,4.71,57.69c0.56,12.78,2.17,25.52,3.2,38.28
		c1.28,15.91,2.46,31.83,3.65,47.75c1.25,16.75,2.5,33.5,3.68,50.25C1591.15,1216.68,1591.54,1224.32,1592,1231.96z M600.17,1303.87
		c-3.81-8.4-1.75-11.67,7.45-12.07c12.47-0.54,24.93-1.46,37.4-1.72c26.47-0.54,52.93-1.56,79.39-1.9
		c44.13-0.57,88.24-1.58,132.36-2.13c34.64-0.43,69.27-1.15,103.91-1.33c8.65,0.63,17.21-0.38,25.6,4.43
		c6.86,3.93,10.68,0.37,10.72-7.71c0.27-49.79-0.6-99.59,0.93-149.38c0.43-14.15,0.07-28.32,0.08-42.48
		c0.01-10.66,0.01-10.66-10.29-10.62c-0.17,0-0.33,0-0.5,0c-59.12-0.57-118.25,0.52-177.38-0.76c-55.61-1.2-111.25,0.4-166.88-1.13
		c-16.64-0.46-33.3,0.02-49.92-1.11c-4.18-0.28-6.22,1.37-6.02,5.77c0.22,4.82,0.14,9.66,0.2,14.49c-0.02,2.59-0.05,5.19-0.07,7.78
		c0.23,0.31,0.46,0.62,0.69,0.93c0.67,49.45-0.27,98.91,1.06,148.36c1.02,38.11,0.11,76.25,0.87,114.39
		c0.9,45.28,0.21,90.58,1.28,135.86c0.2,8.3,0.51,8.66,8.91,8.22c12.29-0.64,24.58-1.75,36.88-1.82
		c43.97-0.25,87.94-0.16,131.92-0.19c63.63-0.04,127.25-0.08,190.88-0.12c0.83,0.07,1.67,0.24,2.49,0.19
		c10.25-0.65,20.19-4.01,30.63-3.19c2.76,0.22,3.11-2.45,3.25-4.74c0.36-6.13,0.35-12.29,0.59-18.4
		c0.67-17.33,0.27-34.65,0.33-51.96c0.15-40.99,0.07-81.98,0.07-122.97c0-8.19-0.44-8.37-8.33-8.7c-5.77-0.24-11.14,1.97-16.82,2.07
		c-10.82,0.19-21.62,0.31-32.44,0.76c-20.45,0.84-40.94,0.53-61.43,1.05c-43.96,1.12-87.94,0.16-131.92,0.84
		C697.46,1305.36,648.8,1306.19,600.17,1303.87z"/>
	<path class="st5" d="M2333.9,853.01c-29.8-0.71-59.6-1.23-89.39-2.18c-31.94-1.02-63.86-2.55-95.82-3.19
		c-32.12-0.65-64.22-2.08-96.35-2.89c-23.63-0.59-47.25-1.37-70.89-1.98c-32.78-0.84-65.54-2.44-98.33-3.04
		c-28.78-0.53-57.55-2.09-86.34-2.96c-32.11-0.97-64.23-1.87-96.33-3.05c-21.13-0.78-42.28-1.07-63.39-2.06
		c-27.11-1.27-54.22-2.1-81.34-2.89c-28.61-0.83-57.22-2.05-85.83-3.03c-30.11-1.03-60.22-2.11-90.34-2.99
		c-20.8-0.61-41.59-1.43-62.4-1.89c-35.12-0.79-70.24-1.73-105.34-3.12c-18.13-0.72-36.26-1.33-54.39-1.91
		c-32.44-1.05-64.88-2.25-97.34-3.05c-28.95-0.71-57.89-2.09-86.84-3.05c-29.78-0.99-59.55-2.08-89.34-2.93
		c-29.12-0.84-58.22-2.23-87.35-2.98c-40.27-1.03-80.54-2.47-120.8-3.99c-20.29-0.77-40.6-1.21-60.89-2.06
		c-30.61-1.28-61.24-1.82-91.85-2.9c-28.45-1-56.88-2.35-85.35-3c-30.12-0.68-60.23-1.99-90.35-2.99
		c-20.47-0.68-40.93-1.38-61.4-1.92c-32.78-0.87-65.54-2.45-98.33-3.31c-32.78-0.86-65.53-2.71-98.3-4.08
		c-27.41-1.15-54.89-1.84-82.24-4.43c-2.31-0.22-4.66-0.08-6.99-0.11c0-1.33,0-2.67,0-4c17.9,0,35.8,0,53.7,0
		c-12.41,0.21-24.74-1.87-37.57-0.84c1.26-1.7,2.57-1.11,3.68-1.13c32.98-0.65,65.94,1,98.91,1.31c15.63,0.15,31.29,0.07,46.92,0.69
		c30.27,1.2,60.56,1.51,90.84,2.15c27.12,0.57,54.24,1.33,81.36,1.99c27.28,0.67,54.56,1.24,81.83,2
		c23.94,0.67,47.89,1.26,71.83,1.97c23.45,0.7,46.9,1.35,70.34,2.03c22.45,0.66,44.89,1.28,67.34,1.98c22.45,0.7,44.9,1.27,67.34,2
		c22.28,0.73,44.57,1.26,66.84,2c22.11,0.73,44.22,1.34,66.32,2.02c21.79,0.67,43.57,1.29,65.35,1.98
		c21.95,0.69,43.89,1.27,65.84,1.99c21.78,0.72,43.57,1.25,65.34,1.98c22.44,0.76,44.89,1.37,67.33,2.04
		c21.78,0.65,43.57,1.31,65.35,1.98c22.78,0.71,45.56,1.26,68.33,2.01c21.95,0.72,43.89,1.3,65.84,1.97
		c22.78,0.7,45.56,1.36,68.34,2.05c21.28,0.64,42.57,1.24,63.85,1.93c22.94,0.75,45.89,1.36,68.83,2.06
		c20.45,0.62,40.89,1.37,61.35,1.95c23.12,0.65,46.23,1.42,69.35,2.06c19.95,0.55,39.89,1.41,59.84,1.93
		c24.44,0.63,48.9,1.18,73.32,2.15c17.62,0.7,35.27,0.37,52.87,1.68c21.57,1.6,43.2,1.61,64.81,2.24
		c21.11,0.61,42.22,1.31,63.33,1.97c20.94,0.66,41.89,1.23,62.82,2c19.12,0.7,38.24,1.22,57.35,1.98
		c19.78,0.78,39.55,1.37,59.33,2.05c18.61,0.64,37.23,1.3,55.84,1.98c19.28,0.7,38.56,1.25,57.83,2c18.44,0.72,36.9,1.2,55.33,2.01
		c15.44,0.68,30.91,0.93,46.34,1.83C2333.9,842.34,2333.9,847.67,2333.9,853.01z M1818.65,822.31c-0.01,0.41-0.02,0.81-0.02,1.22
		c6.26,0,12.52,0,19.9,0C1831.19,821.44,1824.92,821.95,1818.65,822.31z M1868.18,824.97c0.01-0.18,0.01-0.35,0.02-0.53
		c-4.22,0-8.45,0-12.67,0c0,0.18-0.01,0.35-0.01,0.53C1859.74,824.97,1863.96,824.97,1868.18,824.97z"/>
	<path class="st3" d="M1957.93,1618.9c1.3-26.49-1.57-52.87-2.27-79.31c-0.38-14.22-2.13-28.51-4.23-42.55
		c-2.45-16.36-3.69-32.91-7.11-49.15c-1.04-4.97-0.52-10.23-2.13-15.23c-0.58-1.8-0.58-4.15,1.4-5.46c2.07-1.38,3.93-0.09,5.43,1.19
		c4.34,3.7,9.72,5.59,14.54,8.42c10.12,5.93,20.11,12.16,30.46,17.61c11.15,5.87,21.83,12.55,33.1,18.19
		c7.88,3.94,15.3,8.77,23.03,13.01c8.85,4.86,18.17,8.95,26.63,14.39c10.27,6.61,21.35,11.75,31.5,18.59
		c7.25,4.88,15.58,8.12,23.26,12.39c11.42,6.35,22.46,13.43,34.1,19.34c13.15,6.67,25.49,14.75,38.64,21.4
		c4.97,2.51,9.68,5.55,14.52,8.34c2.59,1.49,5.07,3.19,8.04,3.9c0.36,11.64,0.71,23.29,1.07,34.93
		C2137.92,1618.9,2047.92,1618.9,1957.93,1618.9z"/>
	<path class="st2" d="M2333.9,1137.97c0,78.99,0,157.98,0,236.97c-13.11,0.67-26.23,1.37-39.34,1.99
		c-13.61,0.65-27.23,1.17-40.84,1.86c-5.24,0.27-6.42-0.8-6.84-5.99c-1.77-21.91-0.66-43.88-1.76-65.83
		c-1.18-23.75-0.89-47.57-1.24-71.36c-0.01-0.83-0.03-1.66-0.08-2.5c-1.78-31.22-0.61-62.52-2.71-93.73
		c-0.48-7.13,0.37-7.45,7.23-6.36c1.97,0.31,3.93,0.76,5.91,0.99C2280.69,1137.17,2307.33,1136.77,2333.9,1137.97z"/>
	<path class="st3" d="M591.04,1618.9c-0.01-1-0.02-2-0.02-3.01c1.2-2.34,0.94-4.87,0.95-7.36c0.03-17.66-0.02-35.32,0.06-52.97
		c0.02-5.14,1.18-5.99,6.03-4.78c6.29,1.57,12.83,1.4,19.16,2.99c3.97,1,8.01,2.11,12.26,2.1c65.94-0.12,131.88,0.31,197.82,1.78
		c40.46,0.91,80.96,0.22,121.44,0.26c8.6,0.01,9.26,0.69,9.26,9.51c0.01,17.16,0.01,34.32,0.01,51.47
		C835.69,1618.9,713.37,1618.9,591.04,1618.9z M764.79,1571.88c-9.49,0-18.99-0.03-28.48,0.02c-2.66,0.01-5.82-0.13-6.54,3.21
		c-0.79,3.66,2.11,5.39,4.91,6.57c2.28,0.96,4.76,1.54,7.21,1.92c5.76,0.9,11.53,1.67,17.32,2.33c22.75,2.59,45.54,1.12,68.32,0.57
		c2.49-0.06,4.98-0.48,7.44-0.9c6.25-1.07,9.61-5.17,8.81-10.6c-0.78-5.31-4.59-7.83-11.26-6.87
		C810.05,1571.39,787.45,1572.18,764.79,1571.88z"/>
	<path class="st2" d="M2333.9,1395.93c0,72.99-0.03,145.98,0.1,218.97c0.01,3.42-0.67,4.12-4.1,4.1c-26.33-0.18-52.66-0.1-78.99-0.1
		c-0.11-12.48-0.13-24.94-0.84-37.43c-0.96-16.77-0.45-33.6-0.85-50.41c-0.58-24.95-1.86-49.91-1.36-74.89
		c0.27-13.65,0.1-27.31-0.01-40.97c-0.04-4.65-0.86-9.3-0.69-13.93c0.2-5.49,1.99-6.82,7.33-6.04c3.82,0.56,7.62,0.67,11.45,0.67
		C2288.59,1395.91,2311.25,1395.92,2333.9,1395.93z"/>
	<path class="st5" d="M2333.9,1395.93c-22.65-0.01-45.31-0.02-67.96-0.02c-3.83,0-7.64-0.11-11.45-0.67
		c-5.34-0.79-7.13,0.55-7.33,6.04c-0.17,4.63,0.65,9.28,0.69,13.93c0.11,13.66,0.28,27.32,0.01,40.97
		c-0.5,24.98,0.77,49.94,1.36,74.89c0.39,16.81-0.12,33.64,0.85,50.41c0.72,12.48,0.73,24.95,0.84,37.43c-7.67,0-15.33,0-23,0
		c-0.36-11.64-0.71-23.29-1.07-34.93c-0.33-33.3-0.19-66.61-1.21-99.89c-0.43-14.15-0.07-28.31-0.8-42.43
		c-1.74-33.46,0.05-66.96-1.17-100.39c-0.68-18.49,0.1-36.98-0.87-55.42c-1.68-31.97-0.05-63.95-0.95-95.9
		c-1.99-70.61-0.75-141.23-0.61-211.85c0.04-18.08-0.41-36.29,1.7-54.36c0.21-1.81,0.52-3.63,0.97-5.4
		c0.56-2.25,1.73-4.17,4.41-3.86c2.36,0.27,3.29,2.13,3.49,4.27c0.74,7.95,1.66,15.89,2.06,23.86c1.41,28.07,2.65,56.15,3.92,84.23
		c0.51,11.3,0.39,22.62,0.88,33.93c0.66,15.28,1.82,30.58,1.35,45.91c-0.11,3.62-0.27,7.88,1.44,10.73
		c2.03,3.37,6.35,0.52,9.54,0.42c27.64-0.88,55.27-0.91,82.91-0.86c0,7,0,14,0,21c-26.56-1.2-53.21-0.79-79.67-3.96
		c-1.98-0.24-3.94-0.68-5.91-0.99c-6.86-1.09-7.71-0.77-7.23,6.36c2.1,31.22,0.93,62.52,2.71,93.73c0.05,0.83,0.07,1.66,0.08,2.5
		c0.35,23.79,0.06,47.61,1.24,71.36c1.09,21.94-0.01,43.92,1.76,65.83c0.42,5.19,1.6,6.26,6.84,5.99
		c13.61-0.69,27.23-1.21,40.84-1.86c13.12-0.62,26.23-1.32,39.34-1.99C2333.9,1381.93,2333.9,1388.93,2333.9,1395.93z"/>
	<path class="st2" d="M958.01,1618.9c0-17.16,0-34.32-0.01-51.47c0-8.82-0.66-9.5-9.26-9.51c-40.48-0.04-80.98,0.64-121.44-0.26
		c-65.94-1.47-131.87-1.91-197.82-1.78c-4.25,0.01-8.3-1.11-12.26-2.1c-6.33-1.59-12.87-1.42-19.16-2.99
		c-4.85-1.21-6.01-0.36-6.03,4.78c-0.08,17.66-0.03,35.32-0.06,52.97c0,2.48,0.25,5.02-0.95,7.36c0.01-29.49,0.02-58.99,0.04-88.48
		c0-6.72,0.46-7.26,7.16-6.24c8.92,1.36,17.88,1.58,26.88,1.82c45.95,1.22,91.91,1.52,137.87,2.24c24.65,0.39,49.3,0.55,73.94,0.62
		c44.48,0.12,88.94,1.72,133.43,1.09c4.61-0.07,8.74-0.78,12.75-3.42c6.29-4.14,12.92-0.46,12.93,6.9c0.02,29.49,0,58.99,0,88.48
		C983.35,1618.9,970.68,1618.9,958.01,1618.9z"/>
	<path class="st5" d="M1306.98,1618.9c-1.78-25.55-2.33-51.16-4.67-76.68c-1.21-13.24-1.79-26.56-2.26-39.85
		c-0.76-21.45-2.37-42.84-3.83-64.25c-0.6-8.8-0.46-17.61-1.05-26.43c-1.78-26.72-2.78-53.49-4.29-80.22
		c-1.52-26.73-3.38-53.44-4.92-80.17c-1.19-20.76-1.9-41.55-3.21-62.29c-1.84-29.22-2.75-58.48-4.59-87.69
		c-0.55-8.8-0.85-17.61-1.14-26.43c-1.06-32.1-1.65-64.21-3.22-96.28c-1.52-30.95-1.94-61.89-1.75-92.86
		c0.02-2.82-0.83-7.2,2.94-7.43c3.4-0.2,3.12,4.25,3.43,6.81c2,16.51,3.88,33.04,5.52,49.59c1.26,12.74,2.1,25.53,3.14,38.29
		c1.29,15.74,2.35,31.51,3.96,47.23c1.88,18.38,2.64,36.83,3.93,55.24c0.1,1.48,0.53,2.93,0.81,4.4
		c2.05,29.38,4.17,58.75,6.13,88.13c2.35,35.36,4.62,70.73,6.79,106.1c1.23,20.09,2.11,40.21,3.31,60.31
		c1.5,25.24,3.21,50.47,4.75,75.71c1.15,18.76,2.12,37.54,3.26,56.3c1.82,29.89,3.89,59.76,5.53,89.66
		c1.15,20.93,3.26,41.83,2.45,62.84C1320.98,1618.9,1313.98,1618.9,1306.98,1618.9z"/>
	<path class="st5" d="M1903.93,1618.9c-0.88-37.24-3.07-74.43-4.4-111.66c-0.78-21.92-1.51-43.87-2.64-65.79
		c-0.32-6.14-0.71-12.28-1.08-18.42c0.29-24.48-1.53-48.88-2.7-73.31c-0.43-8.98-0.71-17.98-0.88-26.94
		c-0.3-15.31-1.02-30.62-1.42-45.92c-0.84-32.44-2.38-64.85-3.09-97.3c-0.44-20.12-1.08-40.26-1.99-60.36
		c-0.88-19.49,0.12-38.99-1.01-58.42c-1.2-20.49,0.15-40.99-0.92-61.43c-1.53-29.31-0.53-58.62-0.8-87.93
		c-0.03-3.07-1.32-8.09,3-8.34c4.89-0.29,3.68,4.9,4.02,8.12c2.95,28.13,4.61,56.35,6.08,84.59c1.35,25.9,4.06,51.73,5.4,77.63
		c0.78,15.11,1.86,30.22,2.35,45.34c0.81,25.28,3.08,50.48,3.86,75.75c0.44,14.48,1.48,28.91,2.13,43.37
		c1.29,28.76,1.81,57.55,3.28,86.29c1.2,23.6,2.33,47.18,3.03,70.81c0.72,24.27,2.13,48.53,2.91,72.81c0.77,24.27,2,48.53,2.96,72.8
		c1.03,26.1,1.96,52.21,2.94,78.31C1917.93,1618.9,1910.93,1618.9,1903.93,1618.9z"/>
	<path class="st5" d="M260.96,924.04c0.04-12.83-0.04-25.66,0.15-38.49c0.13-8.31,0.64-16.62,1.02-24.93
		c0.07-1.45-0.13-3.49,1.75-3.67c2.33-0.23,2.22,2.12,2.52,3.62c1.5,7.38,0.55,14.92,1.42,22.4c1.05,9.07,1.21,18.27,1.17,27.42
		c-0.09,19.99,0.87,39.96,1.36,59.93c0.65,26.62,1.31,53.24,1.91,79.87c0.67,29.62,0.88,59.27,2.06,88.86
		c0.89,22.33,0.07,44.64,0.82,66.93c1.5,44.44,1.59,88.9,2.25,133.35c0.26,17.47,0.37,34.96,0.69,52.44
		c0.65,35.47,0.45,70.96,1.31,106.41c0.7,28.99-0.14,57.97,0.87,86.93c0.4,11.35,1,22.59-1.18,33.8c-3.67,0-7.33,0-11,0
		c-2.03-4.72-1.73-9.71-1.92-14.7c-1.23-32.11-0.34-64.24-1.3-96.34c-0.72-23.97-0.13-47.93-0.82-71.88
		c-0.97-33.95-0.25-67.91-1.2-101.84c-0.95-34.12-0.16-68.24-0.79-102.35c-0.01-24.43-0.01-48.86-0.03-73.28
		c0-2.16,0.08-4.33-0.79-6.38c-0.08-26.74-0.15-53.47-0.23-80.21c0.01-0.32,0.01-0.63,0-0.95c-0.91-15.68-0.98-31.37-0.81-47.06
		c0.85-1.87,0.85-3.86,0.85-5.86c0-22.69,0-45.38,0-68.07c0-1.99-0.01-3.99-0.8-5.87c0.25-5.03,0.51-10.06,0.77-15.09
		c0.01-0.31,0.02-0.61,0.01-0.92C261,926.74,260.98,925.39,260.96,924.04z"/>
	<path class="st0" d="M0.09,44.12c2.25,8.06,2.89,16.38,3.05,24.64c0.77,38.52,1.91,77.06-1.81,115.52
		c-0.25,2.62-0.82,5.22-1.25,7.82C0.09,142.77,0.09,93.45,0.09,44.12z"/>
	<path class="st5" d="M1987.88,1106.12c0,7.49-4.59,13.32-10.14,13.75c-6.34,0.49-10.87-3.32-11.89-10.79
		c-3.29-24.25-6.3-48.55-4.77-73.1c0.45-7.29,1.71-14.54,2.76-21.78c0.49-3.36,1.93-6.17,6-6.05c3.82,0.12,5.48,2.56,6.2,6.02
		c2.21,10.48,2.18,21.18,2.74,31.78c0.78,14.68,3.3,29.04,6.09,43.4C1986,1095.21,1986.98,1101.1,1987.88,1106.12z"/>
	<path class="st5" d="M1849.83,1098.63c0.04,5.6-4.43,10.47-9.31,10.94c-4.41,0.43-8.92-3.17-10.35-7.8
		c-4.85-15.75-5.44-31.99-6.38-48.27c-0.77-13.26-2.33-26.5-4.99-39.57c-0.13-0.65-0.41-1.28-0.48-1.94
		c-0.35-3.12-1.34-6.87,2.48-8.26c3.54-1.29,4.82,2.44,6.2,4.63c4.95,7.89,6.83,17.01,8.6,25.89c3.98,20.03,6.48,40.37,13.2,59.8
		C1849.39,1095.77,1849.6,1097.62,1849.83,1098.63z"/>
	<path class="st5" d="M225.1,1034.08c-0.33,2.8-0.57,5.62-1.03,8.4c-0.73,4.44-3.79,6.83-7.94,6.88c-4.32,0.05-7.72-2.25-8.6-6.83
		c-0.46-2.41-0.45-4.98-0.24-7.43c1.75-20.39,2.26-40.82,1.96-61.27c-0.04-2.67-0.15-5.36-1.39-7.79c-1.49-2.91-0.1-4.96,2.17-6.25
		c2.56-1.46,4.92-0.4,6.41,2.01c3.32,5.35,4.67,11.44,5.28,17.53C223.54,997.51,224.37,1015.77,225.1,1034.08z"/>
	<path class="st2" d="M260.24,944.09c0.8,1.89,0.8,3.88,0.8,5.87c0,22.69,0,45.38,0,68.07c0,1.99-0.01,3.99-0.85,5.86
		c-2.18-6.61-1.34-13.55-1.56-20.25c-0.6-18.24-1.36-36.53,0.47-54.76C259.26,947.23,259.32,945.56,260.24,944.09z"/>
	<path class="st2" d="M261.23,1152.12c0.87,2.05,0.79,4.22,0.79,6.38c0.01,24.43,0.02,48.86,0.03,73.28
		c-1.94-1.37-1.79-3.45-1.79-5.43c-0.03-22.97-0.04-45.94-0.06-68.92C260.21,1155.6,260.22,1153.77,261.23,1152.12z"/>
	<path class="st2" d="M261.01,928.08c0.01,0.31,0,0.61-0.01,0.92C260.83,928.69,260.84,928.39,261.01,928.08z"/>
	<path class="st2" d="M261,1070.96c0.01,0.32,0.01,0.64,0,0.95C260.83,1071.6,260.83,1071.28,261,1070.96z"/>
	<path class="st5" d="M312.03,967.81c0.16-2.73,0.13-5.08,0.47-7.37c0.32-2.08,1.45-3.75,3.74-4.17c2.47-0.45,4.2,0.71,5.39,2.75
		c1.46,2.5,1.79,5.33,2.3,8.12c3.76,20.63,6.31,41.49,11.97,61.75c1.47,5.26,4.15,10.18,4.15,15.87c0,4.31-1.68,7.41-5.69,9.07
		c-4.06,1.69-7.77,1.25-11.09-1.88c-1.55-1.45-2.47-3.14-2.75-5.18c-2.68-19.26-5.88-38.46-6.53-57.97
		C313.75,981.67,312.68,974.56,312.03,967.81z"/>
	<path class="st5" d="M1236.75,1030.19c0.08-6.82,0.14-13.65,0.26-20.47c0.15-8.8,0.36-17.59,0.5-26.39
		c0.04-2.12,0.93-3.68,3.07-3.87c2.76-0.24,4.4,1.57,4.98,4c0.96,4.03,1.95,8.1,2.31,12.21c1.53,17.72,2.66,35.47,4.31,53.17
		c0.55,5.93,2.21,11.76,3.39,17.63c1.62,8.12-0.91,15.48-7.64,16.54c-7.28-1.22-9.66-3.94-10.01-11.23
		c-0.25-5.31-0.61-10.61-0.93-15.92c-0.01-0.32-0.04-0.64-0.07-0.96C1235.63,1046.69,1235.78,1038.44,1236.75,1030.19z"/>
	<path class="st2" d="M1236.92,1054.93c0.03,0.32,0.05,0.64,0.07,0.96C1236.96,1055.56,1236.94,1055.25,1236.92,1054.93z"/>
	<path class="st5" d="M1325.95,1079.78c-4.09-5.08-5.01-10.62-4.44-17.24c1.18-13.72,2.03-27.47,0.88-41.35
		c-1.45-17.43-0.24-34.93,0.99-52.37c0.12-1.65,0.6-3.27,0.96-4.9c0.57-2.51,1.95-4.28,4.7-4.41c2.86-0.14,4.05,1.78,4.85,4.17
		c1.45,4.34,1.55,8.93,1.65,13.34c0.7,29.77,7.34,59.18,5.45,89.1c-0.01,0.17,0,0.33-0.01,0.5c-0.2,9.9-3.38,13.17-13.04,13.41
		C1327.28,1079.96,1326.61,1079.87,1325.95,1079.78z"/>
	<path class="st3" d="M963.97,1061.98c-3.25,0.88-6.58,0.94-9.92,0.95c-35.82,0.04-71.64,0.11-107.46,0.15
		c-50.64,0.06-101.27,1.44-151.91,0.83c-9.32-0.11-18.62-0.66-27.94-0.86c-19.52-0.43-38.87,2.08-58.3,3.39
		c-5.64,0.38-11.3,0.68-16.94,1.09c-2.66,0.19-4.14-0.88-4.36-3.56c-0.07-0.83-0.1-1.66-0.11-2.49
		c-0.38-26.98-0.64-53.95-1.19-80.93c-0.33-16.14-1.1-32.27-1.68-48.4c16.65-0.08,33.27-0.57,49.9,1.46
		c7.89,0.97,16-0.08,23.96,0.52c25.27,1.9,50.63,0.86,75.86,2.28c26.98,1.52,53.98,0.32,80.87,1.92c25.8,1.53,51.62,0.72,77.36,2.03
		c19.97,1.02,39.91,1.7,59.89,1.65c4.75-0.01,9.08,2.05,13.78,2.1c2.36,0.03,2.81,1.8,2.69,3.91c-0.58,9.95-1.47,19.83-3.92,29.54
		c-0.56,2.22-0.49,4.63-0.5,6.95C964.01,1010.34,963.99,1036.16,963.97,1061.98z"/>
	<path class="st5" d="M843.95,924.28c-12.97-5.25-28.52-2.38-43.73-3.75c-9.6-0.86-19.32-0.36-28.82-2.53
		c-5.23-1.19-10.41-2.46-14.43-6.31c-2-1.92-3.63-4.21-2.18-7.09c1.6-3.17,4.35-1.98,7.03-1.58c15.2,2.29,30.5,2.6,45.81,1.5
		c13.32-0.96,26.64-0.46,39.96-0.36c4.51,0.03,8.7,5.69,8.27,10.24C855.32,920.18,851.02,924.44,843.95,924.28z"/>
	<path class="st3" d="M587.16,1103.99c0.02-2.59,0.05-5.19,0.07-7.78c12.14,2.38,23.76,6.9,36.09,8.6
		c8.03,1.11,15.97,3.1,24.09,3.14c29.83,0.17,59.66,0.1,89.49,0.15c2.83,0,5.68,0.05,8.47,0.41c13.73,1.8,27.44,2.8,41.17-0.12
		c1.39-0.3,3.08-0.15,4.41,0.36c2.89,1.11,5.83,1.23,8.84,1.23c51.16,0.03,102.32,0.08,153.48,0.12
		c9.79,0.01,10.69,0.82,10.62,10.47c-0.19,26.26-0.01,52.5-1.62,78.77c-1.38,22.58-0.38,45.31-0.35,67.97
		c0.01,5.84-0.12,11.66-1.24,17.41c-34.64,0.18-69.28,0.9-103.91,1.33c-44.12,0.54-88.24,1.56-132.36,2.13
		c-26.46,0.34-52.92,1.36-79.39,1.9c-12.47,0.26-24.93,1.18-37.4,1.72c-9.2,0.4-11.26,3.67-7.45,12.07
		c-0.1,4.66-0.05,9.33-0.32,13.98c-0.44,7.67,4.47,13.03,10.1,15.26c8.63,3.41,18.08,6.66,27.66,4.44
		c5.81-1.35,11.51-1.42,17.3-1.46c32.1-0.2,64.18-0.35,96.29-1.73c37.36-1.61,74.79,0.18,112.21-2.05
		c23.9-1.43,47.95-0.5,71.93-0.27c5.73,0.06,11.06-2.44,16.81-1.65c7.86,1.08,7.9,1.02,7.89,8.88
		c-0.05,51.29-0.1,102.59-0.16,153.88c-0.01,5.49-0.15,10.98-0.23,16.48c-63.63,0.04-127.25,0.07-190.88,0.12
		c-43.97,0.03-87.94-0.07-131.92,0.19c-12.3,0.07-24.59,1.17-36.88,1.82c-8.41,0.44-8.72,0.08-8.91-8.22
		c-1.07-45.28-0.37-90.59-1.28-135.86c-0.76-38.13,0.15-76.27-0.87-114.39c-1.33-49.45-0.39-98.91-1.06-148.36
		C587.63,1104.61,587.39,1104.3,587.16,1103.99z M847.82,1113.82c-4.56-1.17-9.11-1.13-13.65,0.06
		c-16.45,0.94-32.91,1.77-49.36,2.86c-9.48,0.63-18.93,1.34-28.44,1.02c-2.46-0.08-4.72-0.22-4.63-3.7
		c0.08-2.92-1.81-3.48-4.01-2.27c-4.25,2.33-9.09,4.78-9.2,10.27c-0.1,5.27,4.49,7.35,8.79,9.04c1.54,0.61,3.15,1.14,4.78,1.4
		c9.21,1.49,18.49,3.04,27.82,2.29c13.32-1.07,26.64-0.51,39.96-0.71c9-0.14,18,0.07,26.99-0.27c6.51-0.25,10.77-4.7,11.07-10.68
		C858.2,1117.81,855.05,1114.91,847.82,1113.82z M785.81,1360.68c9.37,0.79,19-0.45,28.62-1c9.12-0.52,18.21-1.89,27.27-3.17
		c5.5-0.78,9.37-5.45,9.02-10.18c-0.32-4.43-4.25-7.86-9.77-8.34c-1.81-0.16-3.68-0.09-5.48,0.17c-9.07,1.3-18.08,3.01-27.18,3.98
		c-18.55,1.99-37.16,3.12-55.82,2.59c-3.19-0.09-7.74,0.57-8.64-4.64c-0.14-0.79-0.92-1.03-1.58-0.86c-2.85,0.76-6.16,0.9-7.63,4.03
		c-1.24,2.65,0.13,4.86,2,6.71c6.2,6.15,13.91,9.09,22.43,9.75C767.86,1360.4,776.66,1361.4,785.81,1360.68z"/>
	<path class="st2" d="M960.69,1284.72c1.11-5.75,1.24-11.57,1.24-17.41c-0.03-22.66-1.03-45.39,0.35-67.97
		c1.61-26.27,1.43-52.51,1.62-78.77c0.07-9.65-0.84-10.46-10.62-10.47c-51.16-0.04-102.32-0.09-153.48-0.12
		c-3.01,0-5.95-0.13-8.84-1.23c-1.33-0.51-3.01-0.66-4.41-0.36c-13.73,2.92-27.43,1.92-41.17,0.12c-2.79-0.37-5.65-0.41-8.47-0.41
		c-29.83-0.05-59.66,0.02-89.49-0.15c-8.12-0.05-16.06-2.04-24.09-3.14c-12.32-1.7-23.94-6.22-36.09-8.6
		c-0.05-4.83,0.03-9.66-0.2-14.49c-0.2-4.39,1.84-6.05,6.02-5.77c16.62,1.13,33.29,0.66,49.92,1.11
		c55.62,1.53,111.27-0.08,166.88,1.13c59.13,1.28,118.26,0.19,177.38,0.76c0.17,0,0.33,0,0.5,0c10.3-0.04,10.29-0.04,10.29,10.62
		c-0.01,14.16,0.36,28.33-0.08,42.48c-1.53,49.79-0.66,99.59-0.93,149.38c-0.04,8.08-3.87,11.64-10.72,7.71
		C977.89,1284.34,969.34,1285.35,960.69,1284.72z"/>
	<path class="st2" d="M959.66,1509.64c0.08-5.49,0.22-10.98,0.23-16.48c0.07-51.29,0.12-102.59,0.16-153.88
		c0.01-7.86-0.04-7.81-7.89-8.88c-5.75-0.79-11.08,1.71-16.81,1.65c-23.98-0.23-48.03-1.15-71.93,0.27
		c-37.41,2.23-74.85,0.44-112.21,2.05c-32.11,1.38-64.19,1.53-96.29,1.73c-5.79,0.04-11.49,0.11-17.3,1.46
		c-9.58,2.22-19.03-1.03-27.66-4.44c-5.63-2.23-10.55-7.59-10.1-15.26c0.27-4.65,0.22-9.32,0.32-13.98
		c48.62,2.32,97.29,1.49,145.91,0.73c43.98-0.68,87.96,0.27,131.92-0.84c20.48-0.52,40.97-0.21,61.43-1.05
		c10.82-0.45,21.63-0.57,32.44-0.76c5.68-0.1,11.05-2.31,16.82-2.07c7.89,0.33,8.33,0.51,8.33,8.7c0,40.99,0.08,81.98-0.07,122.97
		c-0.06,17.32,0.34,34.63-0.33,51.96c-0.24,6.11-0.23,12.27-0.59,18.4c-0.13,2.29-0.49,4.96-3.25,4.74
		c-10.44-0.83-20.39,2.53-30.63,3.19C961.32,1509.88,960.49,1509.71,959.66,1509.64z"/>
	<path class="st2" d="M587.16,1103.99c0.23,0.31,0.46,0.62,0.69,0.93C587.62,1104.61,587.39,1104.3,587.16,1103.99z"/>
	<path class="st0" d="M1818.65,822.31c6.27-0.36,12.53-0.87,19.88,1.22c-7.39,0-13.64,0-19.9,0
		C1818.64,823.12,1818.65,822.71,1818.65,822.31z"/>
	<path class="st0" d="M1868.18,824.97c-4.22,0-8.44,0-12.66,0c0-0.18,0.01-0.35,0.01-0.53c4.22,0,8.45,0,12.67,0
		C1868.19,824.62,1868.19,824.8,1868.18,824.97z"/>
	<path class="st5" d="M764.79,1571.88c22.66,0.3,45.26-0.49,67.73-3.74c6.67-0.96,10.48,1.55,11.26,6.87
		c0.8,5.43-2.56,9.52-8.81,10.6c-2.46,0.42-4.95,0.84-7.44,0.9c-22.78,0.55-45.57,2.02-68.32-0.57c-5.79-0.66-11.57-1.43-17.32-2.33
		c-2.45-0.38-4.94-0.97-7.21-1.92c-2.8-1.18-5.7-2.91-4.91-6.57c0.72-3.34,3.88-3.2,6.54-3.21
		C745.8,1571.86,755.3,1571.88,764.79,1571.88z"/>
	<path class="st5" d="M847.82,1113.82c7.23,1.09,10.38,3.99,10.12,9.31c-0.3,5.98-4.56,10.43-11.07,10.68
		c-8.99,0.35-17.99,0.14-26.99,0.27c-13.32,0.2-26.64-0.36-39.96,0.71c-9.34,0.75-18.61-0.79-27.82-2.29
		c-1.63-0.26-3.24-0.8-4.78-1.4c-4.3-1.69-8.89-3.77-8.79-9.04c0.11-5.48,4.95-7.94,9.2-10.27c2.2-1.21,4.09-0.64,4.01,2.27
		c-0.09,3.48,2.17,3.61,4.63,3.7c9.5,0.32,18.96-0.39,28.44-1.02c16.44-1.1,32.9-1.92,49.35-2.86
		C838.71,1113.86,843.27,1113.84,847.82,1113.82z"/>
	<path class="st5" d="M785.81,1360.68c-9.16,0.72-17.95-0.28-26.74-0.97c-8.52-0.67-16.22-3.6-22.43-9.75
		c-1.87-1.85-3.24-4.06-2-6.71c1.46-3.13,4.78-3.27,7.63-4.03c0.66-0.17,1.44,0.06,1.58,0.86c0.89,5.22,5.45,4.55,8.64,4.64
		c18.66,0.53,37.28-0.6,55.82-2.59c9.1-0.98,18.11-2.69,27.18-3.98c1.8-0.26,3.67-0.33,5.48-0.17c5.52,0.48,9.44,3.92,9.77,8.34
		c0.35,4.73-3.52,9.41-9.02,10.18c-9.06,1.28-18.15,2.64-27.27,3.17C804.81,1360.23,795.19,1361.47,785.81,1360.68z"/>
	<path class="st2" d="M847.82,1113.82c-4.55,0.02-9.11,0.04-13.66,0.06C838.71,1112.68,843.26,1112.65,847.82,1113.82z"/>
</g>
<path class="st1" d="M14.03,199.3c0.59-0.64,0.97-1.5,0.97-2.56l-0.16-81.22c0-2.29-1.59-3.53-3.34-3.78c0-0.3,0-0.59,0-0.89
	c0-0.75-0.17-1.38-0.45-1.91c-0.06-0.56-0.2-1.07-0.43-1.5c0.01-23.42,0.03-46.85,0.04-70.27c0-5.15-8-5.16-8,0L2.66,48.51
	c-0.5,0.61-0.82,1.42-0.83,2.43c-0.17,19.04-0.39,38.08-0.4,57.11c0,1.04,0.02,2.08,0.03,3.13c-1.44,0.8-2.51,2.36-2.15,4.41
	c0.88,5.03,1.65,10.08,2.32,15.14c-1.06,0.87-1.72,2.24-1.33,3.95c0.48,2.11,0.9,4.22,1.28,6.34v38.04c0,0.51,0.1,0.95,0.23,1.35
	c-4.54,0.6-4.36,7.94,0.59,7.94c0.36,0,0.69-0.05,0.99-0.12c0.12,0.84,0.46,1.51,0.96,2.02c0.56,5.33,1.13,10.65,1.69,15.98
	c0.04,0.37,0.12,0.7,0.23,1.01c1.1,4.38,8.32,4.2,7.87-0.69c-0.04-0.39-0.07-0.78-0.1-1.17C14.05,203.36,14.04,201.33,14.03,199.3z"
	/>
</svg>
