<?xml version="1.0" encoding="utf-8"?>
<!-- Generator: Adobe Illustrator 26.0.3, SVG Export Plug-In . SVG Version: 6.00 Build 0)  -->
<svg version="1.1" id="Layer_1" xmlns="http://www.w3.org/2000/svg" xmlns:xlink="http://www.w3.org/1999/xlink" x="0px" y="0px"
	 viewBox="0 0 792 612" style="enable-background:new 0 0 792 612;" xml:space="preserve">
<style type="text/css">
	.st0{fill:#355595;}
	.st1{fill:#3F5C90;}
	.st2{fill:#4A566E;}
	.st3{fill:#410991;}
	.st4{fill:#3724B9;}
	.st5{fill:#03BEB8;}
	.st6{fill:#0486CE;}
	.st7{fill:#054CCC;}
	.st8{fill:#4A0DA8;}
	.st9{fill:#03A956;}
	.st10{fill:#0EA311;}
	.st11{fill:#02B603;}
	.st12{fill:#DCDE02;}
	.st13{fill:#70D703;}
	.st14{fill:#FCA502;}
	.st15{fill:#FD521D;}
	.st16{fill:#FDCB01;}
	.st17{fill:#FD1621;}
</style>
<g>
	<path class="st0" d="M548.01,339.52c-12.68-0.02-25.35-0.04-38.03-0.06c-0.32-0.46-0.64-0.44-0.94,0.02
		c-3.34-0.01-6.68-0.01-10.03-0.02c-0.89-2.88-3.3-1.7-5.06-1.71c-15.96-0.09-31.93-0.02-47.89-0.11c-1.75-0.01-4.17,1.16-5.05-1.73
		c5.01-0.08,10.02-0.16,15.04-0.24c7.96-0.01,15.92-0.01,23.89-0.02c7.72,0.01,15.43,0.02,23.15,0.03c1,0.01,2.01-0.08,2.99,0.06
		c13.72,1.93,27.51,0.49,41.26,0.93c1.3,0.04,2.69,0.24,3.72-0.93c0.33-0.02,0.65-0.03,0.98-0.03c1.33,1.48,3.11,0.9,4.7,0.92
		c6.65,0.06,13.32-0.2,19.95,0.1c4.06,0.19,5.61-0.93,5.38-5.22c-0.61-11.59-0.85-23.2-1.23-34.81c-0.62-1.03-1.64-0.97-2.64-0.97
		c-23.26-0.01-46.52-0.01-69.78-0.02c-1.5,0-3.11-0.18-3.44,1.92c-8.32-0.01-16.64-0.03-24.95-0.04c-0.87-0.99-2.06-0.91-3.21-0.91
		c-7.6,0.03-15.2,0.08-22.8,0.12c-8.99-0.03-17.97-0.06-26.96-0.09c-0.72-0.88-1.72-0.9-2.73-0.9c-22.45,0.07-44.9,0.15-67.35,0.22
		c-17.23-0.1-34.47-0.19-51.7-0.29c-29.71-0.05-59.42-0.08-89.13-0.17c-1.73-0.01-3.69,0.74-5.15-0.96
		c0.67-0.36,1.35-0.72,2.02-1.08c15.12,0.04,30.24,0.14,45.35,0.13c39.55-0.03,79.09-0.1,118.64-0.16c2.47,0.05,4.94,0.15,7.41,0.15
		c10.74,0.01,10.65,0,10.6-10.69c-0.01-1.67-1.53-4.8,1.02-4.88c1.81-0.05,0.67,3.32,1.09,5.11c0.35,3.02-1.26,6.26,1.01,9.06
		c0.29,0.16,0.57,0.32,0.85,0.49c1.42,1.83,3.4,0.86,5.07,0.86c57.47,0.03,114.93,0.01,172.4-0.13c1.49,0,4.32,1.76,4.56-1.87
		c-0.04-1.08-0.08-2.16-0.11-3.24c0.24-2.85-2.4-2.75-3.91-3.8c-2.27-1.81-4.86-0.58-7.29-0.78c-6.91-0.59-13.94,0.99-20.77-1.13
		c-7.51-2.17-15.19-0.5-22.79-0.93c-1.67-0.09-3.65-0.79-5.01,1.03c-7.17,1.94-14.51,0.85-21.75,0.95
		c-20.08,0.27-40.16,0.06-60.24,0.04c-6.7,0.4-13.48-1.21-20.11,0.82c-3.33,0.98-6.64,1.92-8.07,5.66
		c-0.33,0.87-1.15,1.89-2.28,1.11c-1.24-0.86,0.04-1.78,0.37-2.54c0.96-2.22,1.73-4.71,4.62-5.26c1.17,0.08,2.4,0.42,3.27-0.77
		c3.4-1.95,7.14-0.86,10.72-1.15c3.13-0.25,6.27-0.35,9.4-0.51c0.96,0.2,1.92,0.56,2.87,0.56c23.1,0.03,46.19,0.02,69.29,0
		c1.29,0,2.7,0.32,3.71-0.9c13.38-1.57,26.76-1.92,40.14-0.01c6.24,1.75,12.54,0.99,18.84,0.44c1.98,0.17,3.98,0.24,5.94,0.52
		c5.35,0.76,7.07,3.44,5.56,8.64c-0.3,1.05-1.43,2.42,0.21,2.88c5.1,1.41,1.24,2.95,0.19,4.47c-1.17,5.31-1.63,10.6,0.32,15.85
		c1.95,5.62,0.15,11.49,1.13,17.18c0.02,1.96,0.03,3.92,0.05,5.89c-0.28,1.43-0.52,2.88-2.3,3.23c-10.67-0.11-21.33-0.22-32-0.34
		c-0.15-0.77-0.31-1.55-1.28-1.67C548.51,337.7,548.18,338.53,548.01,339.52z"/>
	<path class="st1" d="M412.02,339.69c-6.35-0.26-12.7-0.53-19.05-0.79c-1.33-1.92-3.34-1.13-5.05-1.14
		c-8.82-0.08-17.64,0.01-26.46-0.07c-1.64-0.01-3.87,0.9-4.43-1.87c8.66-0.09,17.31-0.18,25.97-0.27c8.64,0,17.28,0,25.91,0
		c7.32,0.03,14.64,0.05,21.96,0.08c3.39,0.1,6.77,0.2,10.16,0.3c0.87,2.89,3.29,1.72,5.05,1.73c15.96,0.09,31.93,0.02,47.89,0.11
		c1.75,0.01,4.17-1.17,5.06,1.71c-22.85,0.03-45.7,0.05-68.55,0.09c-1.82,0-3.63,0.13-5.45,0.2
		C420.68,339.73,416.35,339.71,412.02,339.69z"/>
	<path class="st1" d="M281.05,280.57c6.65,0.1,13.31,0.2,19.96,0.3c0,0,0.25,0.12,0.25,0.12l0.23-0.17c0.7,0.7,1.55,0.71,2.44,0.5
		c2.71,0.01,5.42,0.02,8.12,0.03l0.46,0.13l0.46-0.13c1.37,0,2.74,0,4.11,0c2.65,0.05,5.29,0.1,7.94,0.15
		c2.49,0.11,4.98,0.21,7.47,0.32c4.09,1.59,8.35,0.6,12.53,0.87c1.08,0.41,2.16,0.73,3.31,0.25c0.13,0.32,0.33,0.58,0.6,0.78
		c-4.97-0.01-9.94-0.06-14.9-0.01c-1.54,0.01-3.49-0.62-4.01,1.78c-1.17,0.02-2.33,0.05-3.5,0.07c-1.69-1.31-3.77-0.34-5.57-0.95
		c-1.18-1.35-2.77-0.9-4.22-0.9c-22.64-0.03-45.29-0.03-67.93-0.03c-1.31,0-2.69-0.26-3.79,0.79c-2.35-0.16-4.65-1.11-7.06-0.45
		c-3.84-0.06-7.71-0.9-11.47,0.55c-0.52-0.05-1.03-0.09-1.55-0.14c-2.62-1.06-5.23-1.49-7.75,0.27c-0.19,0.26-0.33,0.54-0.44,0.84
		c-0.29-0.09-0.53-0.02-0.71,0.22c-3.62-0.45-2.76,4.1-5.35,4.83c-1.42-4.71-0.03-6.62,6.35-8.8c3.36-0.24,6.82,0.32,10.02-1.26
		c0,0,0.49,0.1,0.49,0.1l0.48-0.13c0.68-0.01,1.37-0.02,2.05-0.02c2.98,0,5.95,0.01,8.93,0.01c1.01,0,2.02,0.01,3.03,0.01
		c1.62,0.27,3.23,0.55,4.85,0.82c5.39,0.62,10.79,0.43,16.2,0.1c0.64-0.02,1.27-0.04,1.91-0.06c0.74-0.05,1.48-0.09,2.23-0.14
		c0.61-0.16,1.22-0.32,1.82-0.47C273.03,280.7,277.04,280.64,281.05,280.57z"/>
	<path class="st0" d="M208.92,337.7c-0.02-4-0.04-8.01-0.06-12.01c0.09-5.67,0.17-11.33,0.26-17c0.31-1.02,0.62-2.04,0.93-3.06
		c1.37,1.37,0.9,3.13,0.91,4.74c0.05,6.99-0.02,13.99,0.08,20.98c0.02,1.6-0.98,3.92,1.95,4.3c6.02-0.04,12.04-0.09,18.06-0.13
		c8.01,0,16.03,0,24.04,0c8.97,0,17.95,0,26.92,0c7.68,0.01,15.36,0.01,23.05,0.02c9.25-0.01,18.51-0.03,27.76-0.04
		c6.73,0.12,13.47,0.24,20.2,0.35c0.01,0.62,0.01,1.23,0.02,1.85c-45.59-0.01-91.17-0.02-136.76,0c-2.12,0-4.34-0.56-6.34,0.68
		c-0.26,0.05-0.53,0.05-0.79,0C209.21,338.1,209.14,337.88,208.92,337.7z"/>
	<path class="st1" d="M503.08,264.32c-0.99-0.83-1.98-1.65-2.97-2.48c-0.71-0.02-1.43-0.04-2.14-0.06c-2.72-1.22-5.7-3.18-6.01,2.21
		c-0.04,0.76-0.67,1.32-1.29,1.2c-0.52-0.11-1.22-0.78-1.3-1.29c-0.53-3.23-0.92-6.48-1.32-9.73c-0.12-0.98,0.53-1.64,1.38-1.69
		c0.49-0.03,1.42,0.54,1.48,0.95c0.74,5.04,2.04-0.29,3,0.18c0.41,0.41,0.82,0.82,1.23,1.22c0.48,0.9-2.25,3.06,1.05,2.82
		c1.77-0.13,2.4,1.58,3.78,2c1.3-0.7,1-1.92,0.98-3.05c2.42-1.96,4.27-1.06,5.59,1.3c1.2,2.14,2.82,3.62,5.46,4.52
		c-0.7-3.23-1.39-6.25-1.98-9.29c-0.23-1.21,0-2.65,1.35-2.82c1.46-0.19,1.56,1.18,1.72,2.4c0.26,1.96,0.74,3.89,1.17,5.82
		c0.44,1.96,2.69,4.32,0.89,5.72c-1.52,1.19-4.37,1.06-6.57-0.3c-0.6-0.37-1.61-0.09-2.43-0.1
		C505.08,263.71,504,263.52,503.08,264.32z"/>
	<path class="st2" d="M209.93,338.38c2-1.24,4.22-0.68,6.34-0.68c45.59-0.03,91.17-0.01,136.76,0c1.24-0.02,1.96-0.59,1.99-1.88
		c0.67-0.11,1.34-0.22,2.01-0.33l-0.01,0.32c0.56,2.77,2.8,1.86,4.43,1.87c8.82,0.08,17.64-0.01,26.46,0.07
		c1.72,0.02,3.73-0.78,5.05,1.14c-22.08-0.03-44.15-0.08-66.23-0.08c-25.24,0-50.49,0.05-75.73,0.08c-0.68,0-1.35,0-2.03-0.01
		c-12.32-0.01-24.63-0.01-36.95-0.02c-0.34,0.02-0.68,0.03-1.02,0.05C210.66,338.74,210.3,338.56,209.93,338.38z"/>
	<path class="st1" d="M215,209.33c-0.43-2.95,0.77-6.29-0.83-9.47c-0.51-1.02-0.34-2.37,0.58-3.26c3.3-3.2,7.43-2.75,11.17-1.63
		c4.01,1.2,4.62,4.96,4.07,8.59c-0.54,3.58-2.57,6.32-6.55,6.1c-4.14-0.23-6.02,1.14-5.82,5.44c0.05,1.02-0.16,3.23-1.83,3.02
		c-1.97-0.26-1.48-2.01-1.15-3.57C214.98,212.95,214.89,211.26,215,209.33z M218.16,206.64c-0.1,0.13-0.25,0.25-0.28,0.39
		c-0.03,0.13,0.06,0.4,0.13,0.41c1.7,0.24,3.46,0.81,4.92-0.67c0.86-0.46,2.05-0.7,2.51-1.42c1.15-1.77,2.01-3.7,0.62-5.89
		c-1.82-2.86-4.52-1.84-7.03-1.82c-2.78,0.03-1.14,2.01-1.41,3.14c-0.81,1.65-1,3.27,0.16,4.86
		C217.91,205.98,218.04,206.31,218.16,206.64z"/>
	<path class="st1" d="M399.09,268.76c-4.12,1.64-8.29,2.68-12.68,1.02c-1.37-0.51-2.6-1.81-3.74,0.82c-1,2.31-2.41,0.64-3.82-0.44
		c-0.99-0.76,0.13-4.21-2.86-2.4c-1.09-2.83-2.47-5.69,0.77-8.11c1.18,2.09,2.36,4.17,4.24,7.49c0-3.85-0.01-6.26,0.01-8.68
		c0.01-0.8-0.14-1.79,0.97-1.98c1.08-0.18,1.57,0.91,1.62,1.52c0.22,2.9,1.22,3.59,4.45,3.96c4.7,0.53,1.91,3.42,0.22,5.65
		c1.32,0,2.47,0,3.61,0c1.8-1.06,0.92-2.81,1.09-4.29c1.57-0.65,1.75,0.6,1.93,1.55c0.25,1.32,0.43,2.54,2.23,2.22
		C397.78,267.65,398.43,268.2,399.09,268.76z"/>
	<path class="st1" d="M267.11,211.64c1.05,0.47,2.12,0.87,3.13,1.41c2.04,1.09,3.88,0.78,5.42-0.82c1.07-1.11,1.63-2.4,0.91-4.06
		c-0.85-1.98-2.3-2.45-4.32-2.59c-2.78-0.19-6.11-0.38-6.96-3.6c-0.58-2.21,0.73-4.61,3.12-5.61c3.33-1.39,6.75-1.37,10.02,0.35
		c0.79,0.42,1.13,1.23,0.73,2.1c-0.46,1.01-1.22,0.61-2.07,0.44c-2.93-0.59-6.07-1.84-8.46,1.85c2.27,0.6,4.26,1.12,6.25,1.65
		c-0.35,0.2-1.56,0.17-0.49,0.82c0.68,0.42,1.82,0.08,2.76,0.07c4.55,4.39,4.3,8.68-0.71,12.19c-2.79-0.04-5.58-0.07-8.36-0.1
		c-1.39,0.01-2.47-0.51-3.11-1.8C265.01,212.54,265.64,211.7,267.11,211.64z"/>
	<path class="st1" d="M328.88,204.35c0.15-1.68,1.05-2.62,2.74-2.79c2.13-0.12,4.39,0.91,6.33-0.77c2.69-0.53,4.46,0.72,5.7,2.97
		c-1.09,1.54-0.44,3.29-0.6,4.94c-3.33,3.04-7.49,1.54-11.3,2.03c2.43,4.33,4.53,4.92,8.52,2.44c1.02-0.63,2.01-2.37,3.26-0.69
		c1.24,1.66-0.47,2.76-1.48,3.64c-3.88,3.43-10.49,1.67-13.04-3.38C328.96,209.94,328.92,207.15,328.88,204.35z M334.51,207.53
		c2.49,0.05,5.77,0.29,6.06-1.95c0.32-2.48-2.83-1.76-4.65-1.86c-2.17-0.12-4.78-0.16-4.71,2.78
		C331.26,208.62,333.55,207.15,334.51,207.53z"/>
	<path class="st1" d="M523.94,261.77c-1.67-4.5,0-6.97,4.3-5.8c1.77,0.48,2.47,0.29,3.66-0.88c2.28-2.24,4.97-2.04,6.98,0.21
		c2.59,2.9-0.34,4.22-2.13,6c0.26,1.61,4.08,0.46,3.1,2.72c-1.12,2.59-3.43,0.8-5.11,0.13c-1.3-0.52-1.88-0.49-3.4,0.17
		c-3.57,1.54-1.17-3.99-4.11-4.04c-0.1,0.97-0.22,2.21-0.34,3.45C525.38,263.88,525.07,262.2,523.94,261.77z M534.17,256.79
		c-0.15,0.06-0.29,0.13-0.44,0.19c0.13,0.2,0.26,0.39,0.4,0.59c0.96-0.12,2.18,0.69,2.75-0.78c-0.97-1.49-1.9-1.36-2.8,0.08
		C534.09,256.86,534.17,256.79,534.17,256.79z"/>
	<path class="st1" d="M241.18,204.83c-1.6,2.73-2.82,5.61-3,8.81c-0.07,1.25-0.21,2.62-1.7,2.49c-1.35-0.12-1.57-1.49-1.49-2.74
		c0.12-1.96-0.35-4.03,1.05-5.76c2.05-3.81,0.49-7.91,0.95-11.84c-0.04-1.36-0.39-2.8,1.19-4.41c1.59,3.75,0.37,7.24,1.09,10.63
		c2.94-0.29,6.35-1.49,8.23,1.83c2.09,3.68,2.21,7.8,1.11,11.87c-0.14,0.52-1.01,0.78-1.59,0.09c-0.36-1.99,0.87-4.24-0.99-5.98
		c-1.16-1.13-0.98-2.61-1.07-4.02C244.33,202.95,242.96,203.09,241.18,204.83z"/>
	<path class="st1" d="M302.09,215.67c-2.63-5.42-0.62-9.83,3.01-13.89c0,0-0.02,0.01-0.02,0.01c2.04-0.21,4.09-0.46,5.94,0.77
		c2.13,3.52,1.61,8.08,4.48,11.32c0.68,0.77,0.41,1.45-0.34,2.08c-0.8,0.67-1.57,0.48-2.2-0.09c-0.92-0.85-1.72-1.82-2.59-2.76
		C307.99,215.19,305.99,218.53,302.09,215.67z M304.19,213.51c3.83-0.64,4.57-3.52,4.8-6.72c0.06-0.78,0.2-1.7-0.71-2.13
		c-1.08-0.52-1.87,0.09-2.49,0.91c-0.57,0.75-1.07,1.56-1.6,2.34C302.39,209.77,302.39,211.64,304.19,213.51z"/>
	<path class="st1" d="M424.06,263.66c2.27,1.03,3.32,4.22,6.59,3.76c-0.73-2.41-1.48-4.7-2.1-7.02c-0.27-1.01-0.03-2.14,1.02-2.53
		c1.46-0.54,1.51,0.9,1.81,1.72c1.25,3.4,2.42,6.83,4.98,9.54c0.52,0.56,0.62,1.22,0,1.7c-0.48,0.37-1.39,0.89-1.66,0.7
		c-3.94-2.79-8.04-2.14-12.24-0.8c-1.58,0.5-2.74-0.98-4.2-1.15c-0.92-2.1-2.62-4.27,0.58-5.98
		C420.59,263.63,422.32,263.65,424.06,263.66z M421.25,264.77c-0.4,0.56-0.81,0.92-0.93,1.35c-0.3,1.11,0.54,1.37,1.36,1.53
		c0.44,0.09,1.09,0.06,0.89-0.59C422.35,266.36,421.84,265.75,421.25,264.77z"/>
	<path class="st1" d="M277.23,265.74c0.39,1.38,0.79,2.75,1.18,4.13c0.51,1.84,1.69,3.88-0.34,5.33c-0.81,0.59-1.58-0.84-2.23-1.54
		c0.1-0.64-0.29-0.87-0.82-1c-0.47-1.22-1.4-0.97-2.33-0.73c-1.89,0.56-1.59,2.27-1.9,3.65c-0.25,0.38-0.51,0.75-0.76,1.13
		c-0.4,0.28-0.8,0.56-1.2,0.85l-0.05-0.08c-0.85-0.79-1.53-1.43-1.14-2.93c1.14-4.42,2.78-8.63,4.53-12.81
		c1.45-0.32,2.68,0.19,3.81,1.04c0.39,0.7,0.78,1.4,1.17,2.1C277.06,265.19,277.09,265.47,277.23,265.74z M273.4,265.5
		c-0.01,1.38-1.15,2.84,0.29,3.98c0.15,0.12,0.75-0.03,0.84-0.21C275.34,267.71,273.71,266.77,273.4,265.5z"/>
	<path class="st1" d="M424.97,359.57c-3.36,0.53-5.76-1.92-5.6-4.22c0.21-3.14-6.17-6.2-0.22-9.24c0.62-0.19,1.25-0.38,1.87-0.56
		c0.65,0.09,1.3,0.19,1.94,0.28c1.22,0.77,2.28,2.15,3.99,1.06c0.33,0.71,1.59,1.62,0.93,2.05c-4.04,2.63-2.45,6.25-2,9.7
		C425.58,358.94,425.27,359.25,424.97,359.57z M420.08,348.71c0.85,2.57,1.81,2.07,2.83,0.11
		C422.01,347.72,421.1,346.83,420.08,348.71z"/>
	<path class="st1" d="M368.94,346.58c0.39-0.95,0.78-1.9,1.17-2.85c0.28-0.03,0.56-0.06,0.84-0.07c1.51,0.28,3.62-0.71,4.05,1.89
		c-1.09-0.29-2.46-0.71-2.75,0.77c-0.4,2.07,1.43,1.35,2.29,1.24c2.7-0.34,4.27,1.03,5.5,3.13c-0.09,0.63-0.19,1.26-0.28,1.88
		c-0.71,0.99-1.42,1.98-2.13,2.97c-1.48,0.25-2.97,0.49-4.45,0.74c-0.72-0.14-1.44-0.29-2.15-0.44c-0.68-0.68-1.37-1.35-2.05-2.03
		C368.95,351.41,368.95,348.99,368.94,346.58z M376.87,351.04c-2.27-0.98-3.72-0.36-5.05,1.49
		C373.66,352.58,375.44,353.39,376.87,351.04z"/>
	<path class="st1" d="M571.02,356.87c-3.27-2.07-4.02-6.72-1.51-9.32c0.47-0.49,0.99-0.89,1.69-0.45c0.81,0.5,0.64,1.4,0.88,2.15
		c0.46,1.45-2.24,4.27,1.76,4.22c2.19-1.64,0.73-3.98,1.15-5.97c0.34-0.52,0.85-0.48,1.16-0.11c1.74,2.07-0.15,5.89,3.41,7.1
		c-0.88,1.11-2.06,2.02-1.59,3.79c0.29,1.08,0.14,2.27,0.19,3.41c-0.2,0.21-0.29,0.47-0.25,0.76c-4.38,0.58-1.93-4.88-4.9-5.54
		C572.35,356.9,571.68,356.88,571.02,356.87z"/>
	<path class="st1" d="M340.93,345.7c0.69-0.43,1.34-0.94,2.07-1.26c2.27-1.01,6.13-1.63,6.51,0.09c0.61,2.77-3.31,1.68-5.57,2.7
		c1.79,1.89,4.87,0.13,5.83,2.68c0.93,2.45-0.81,3.98-1.87,5.76c-0.98,0.43-1.96,0.85-2.93,1.28c-1.31-0.05-2.62-0.09-3.93-0.14
		c-0.37-0.37-0.74-0.74-1.1-1.1c0.14-1.17,0.2-2.18,2-1.75c1.85,0.45,3.77,0.38,4.09-2.25c0.22-0.03,0.43-0.05,0.65-0.08
		c-0.08-0.19-0.16-0.38-0.24-0.56c-0.14,0.21-0.28,0.43-0.41,0.64c-3.08,1.17-4.17-0.72-4.9-3.17
		C341.06,347.58,341,346.64,340.93,345.7z"/>
	<path class="st1" d="M322.44,195.76c0.44-0.82,0.45-2.15,1.83-1.94c1.09,0.17,0.89,1.22,0.91,2c0.16,6.76-1.38,13.5-0.21,20.29
		c0.21,1.23-0.35,2.37-1.77,2.52c-1.46,0.15-2.18-0.87-2.13-2.15c0.24-5.25-1.06-10.59,0.98-15.73c0.22,0.63-0.4,1.63,1.11,1.91
		C322.62,200.31,323.63,197.96,322.44,195.76z"/>
	<path class="st1" d="M445.8,353.89c-2.96,0.2-5.2-0.73-5.78-3.93c-0.39-2.17,0.42-3.85,2.5-4.8c2.96-1.34,4.95,0.1,6.78,2.26
		c0.84,0.99,2.04,1.7,1.73,3.27c-0.99,0.77-2.09,1.47-1.83,3c-0.08,1.65-0.16,3.31-0.24,4.96c-0.77,0.07-1.59,0.26-1.99-0.72
		C446.77,356.53,447.69,354.8,445.8,353.89z M446.01,349.95c-0.08-1.02,0.05-2.09-1.36-2.19c-0.96-0.07-1.5,0.31-1.58,1.33
		c-0.07,0.95,0.35,1.58,1.2,1.84C445.16,351.2,445.76,350.79,446.01,349.95z"/>
	<path class="st1" d="M472.29,262.71c0.86-3.02,1.73-6.03,2.59-9.05c1.38,0.01,2.75,0.02,4.13,0.03c0.69,1.32,1.37,2.65,2.06,3.97
		c0.17,1.36-0.66,2.99,1.05,3.93c1.49,1.21,1.36,2.78,0.04,3.65c-1.77,1.18-1.92-0.68-2.46-1.81c-0.44-0.94-0.79-1.86-2.39-1.83
		c-3.07,0.05-1.65,3.21-3.27,4.13C473.47,264.73,472.88,263.72,472.29,262.71z M477.56,256.92c-0.34,0.37-0.69,0.67-0.93,1.04
		c-0.07,0.11,0.19,0.42,0.29,0.64c0.31-0.24,0.71-0.43,0.91-0.74C477.94,257.69,477.68,257.3,477.56,256.92z"/>
	<path class="st2" d="M512.94,280.77c-1.01,1.23-2.42,0.9-3.71,0.9c-23.1,0.02-46.19,0.03-69.29,0c-0.96,0-1.92-0.37-2.87-0.56
		c7.3-0.92,14.62-0.39,21.94-0.41C476.98,280.64,494.96,280.74,512.94,280.77z"/>
	<path class="st1" d="M325.07,356.56c-1.48-2.54-2.75-4.44-6.34-5.46c-4.33-1.23-0.49-4.74,0.34-7.23c0.6-0.04,1.2-0.08,1.8-0.12
		c0.05,0.32-0.01,0.7,0.15,0.94c0.81,1.23-1.65,3.48,0.48,3.71c2.54,0.27,0.85-2.46,1.5-3.7c0.14-0.27,0.12-0.63,0.17-0.94
		c0.61-0.08,1.22-0.17,1.84-0.25c3.03,3.89,0.91,8.49,1.75,12.68C326.2,356.31,325.64,356.43,325.07,356.56z"/>
	<path class="st1" d="M476.87,360.88c-5.43-0.55-7.36-4-4.86-8.68c2.05-3.84,3.65-3.58,9,1.49c-0.06,1.32-0.13,2.63-0.19,3.95
		c-1.18,1.11-2.36,2.21-3.54,3.32L476.87,360.88z M475.76,353.11c-1.02,0.07-1.51,0.75-1.63,1.77c-0.15,1.22,0.05,2.47,1.43,2.65
		c1.22,0.16,2.12-0.71,2.32-1.98C478.12,354.05,476.78,353.78,475.76,353.11z"/>
	<path class="st1" d="M295.89,204.47c-0.54,0.31-1.32,1.03-1.57,0.87c-2.39-1.48-4.57-1.86-6.08,1.05c-1.52,2.94-0.4,5.27,2.05,7.15
		c-0.92,0.41-1.23,1.18-1.24,2.12c-0.02,0.25-0.04,0.5-0.07,0.75c-5.23-2.57-5.66-6.76-3.94-11.67c2.31-1.91,4.27-4.57,7.89-3.71
		C294.29,201.85,295.56,202.75,295.89,204.47z"/>
	<path class="st1" d="M378.01,283.51c3.59,0.36,5.19,3.19,7.03,5.7c0.71,0.97,1.36,1.96,0.05,2.96c-1.32,1.01-2.15,0.02-2.9-0.83
		c-1.45-1.63-2.07-4.38-5.17-3.68c-0.17-0.24-0.37-0.27-0.62-0.11c-0.16-0.29-0.35-0.56-0.56-0.81c0.08-0.14,0.22-0.28,0.24-0.43
		c0.01-0.13-0.1-0.39-0.17-0.39c-4.96-0.1-9.93-0.18-14.89-0.26c0-0.63,0-1.26-0.01-1.89c3.02-0.14,6.04-0.27,9.06-0.41
		c0.63,0,1.26,0,1.88,0C373.98,283.41,375.99,283.46,378.01,283.51z"/>
	<path class="st1" d="M219.14,342.95c1.8-1.31,3.58-3.6,5.95-1.35c1.93,1.83,3.09,4.25,1.82,7.06c-1.05,2.33-2.75,3.77-5.44,3.17
		c-3.31-0.74-3.67-3.33-3.54-6.14C218.7,344.94,219.14,344.04,219.14,342.95z M224.35,346.23c-0.35-0.78-0.76-2.01-1.84-1.73
		c-0.63,0.16-1.11,1.45-1.38,2.32c-0.23,0.75-0.15,1.72,1.02,1.8C223.69,348.72,223.97,347.51,224.35,346.23z"/>
	<path class="st1" d="M292.4,354.95c-0.33-1.58-0.29-2.46,1.83-1.66c2.27,0.86,4.02,0.04,4.68-2.49c-0.61-1.31-1.97-1.55-3.08-2.15
		c0.26-1.08,2.04-1.12,1.73-2.57c-1.66-0.88-2.93,0.79-4.48,0.73c-0.42-0.4-0.83-0.8-1.25-1.2c0.41-0.59,0.82-1.18,1.24-1.77
		c0.98-0.13,1.96-0.26,2.95-0.39c1.68,0.39,4.82-0.37,4.66,1.58c-0.28,3.48,3.69,7.52-1.02,10.51
		C297.16,356.23,294.61,357.68,292.4,354.95z"/>
	<path class="st1" d="M519.88,357.7c1.08-2.34,2.9-4.34,3.38-6.86c-1.34-2.08-3.22,2.99-4.08-0.41c-0.54-2.14,1.28-2.62,3.09-2.8
		c2.5-0.25,4.52,0.46,4.37,3.2c-0.11,1.87-1.28,3.67-1.94,5.4c0.73,1.99,5.44-1.11,4.19,3.42c-0.62,0.09-1.25,0.18-1.87,0.28
		c-1.67,0.01-3.34,0.02-5.01,0.03C520.99,359.49,520.28,358.74,519.88,357.7z"/>
	<path class="st1" d="M324.01,278.51c-2.33-0.62-4.17-1.94-5.42-3.99c-1.12-1.84-0.74-3.48,0.89-4.86c1.78-1.51,3.61-1.33,5.47-0.17
		c0.98,0.61,1.18,1.58,1.07,2.6c-0.21,1.98-1.78,1.55-3.05,1.65c-0.28-0.61,1.09-1.44-0.19-1.87c-0.34-0.12-0.84,0.22-1.27,0.35
		c0.3,0.7,0.54,1.47,1.54,1.44c1.96,2.9,4.35,2.49,6.9,0.89c0.53,0.39,1.05,0.78,1.58,1.18c-0.23,0.63-0.47,1.26-0.7,1.89
		c-0.51,0.07-1.03,0.14-1.54,0.21C327.51,277.86,325.62,277.12,324.01,278.51z"/>
	<path class="st1" d="M269.18,353.71c-0.12-0.34-0.25-0.68-0.37-1.02c0.14-0.3,0.22-0.61,0.25-0.93c1.39-1.55,2.68-3.15,2.76-5.77
		c-1.06,2.25-2.71,1.78-4.33,1.47c-0.13-0.58-0.25-1.16-0.38-1.74c0.44-0.61,0.88-1.23,1.33-1.84c0.49-0.09,0.98-0.17,1.47-0.26
		c1.71,0.02,3.43,0.04,5.14,0.06c0.22,0.07,0.45,0.11,0.69,0.12c0.14,0.63,0.28,1.26,0.42,1.89c-0.51,1.29-1.03,2.57-1.54,3.86
		c-0.96,1.17-1.17,1.98,0.8,2.15c1.26,0.11,2.78,0.39,1.05,2.12C274.03,353.79,271.6,353.75,269.18,353.71z"/>
	<path class="st0" d="M361.01,283.77c0,0.63,0,1.26,0.01,1.89c-7.77,0.06-15.54,0.12-23.31,0.17c-1.22,0.03-2.43,0.05-3.65,0.08
		c-1.35-0.14-2.7-0.28-4.05-0.41c0.52-2.41,2.47-1.77,4.01-1.78c4.97-0.05,9.94,0,14.9,0.01c1.68-0.11,3.35-0.23,5.03-0.34
		c1.37,0,2.74,0,4.1,0c0,0,0.46,0.14,0.46,0.14l0.46-0.14C359.66,283.51,360.33,283.64,361.01,283.77z"/>
	<path class="st1" d="M398.15,355.64c-0.39,0.39-0.77,0.79-1.16,1.18c-2.88-0.21-1.75-2.58-2.2-4.09c0.12-0.93,0.24-1.85,0.36-2.78
		c0.59-1.05,1.18-2.09,1.77-3.14c-1.16-1.84-3.55-0.83-4.94-2.13c0.09-0.23,0.14-0.47,0.15-0.71c3.26,0.08,6.64-1.33,9.74,0.79
		c-0.47,2.74-2.61,4.63-3.59,7.1c-1.93,1.04-1.39,2.42-0.54,3.85L398.15,355.64z"/>
	<path class="st1" d="M403.57,265.79c-0.9-0.74-1.79-1.89-2.71-0.03c-1.46,0.08-1.77-1.46-2.8-1.99c-1.75-1.83-0.95-3.05,1.08-2.1
		c3.19,1.49,3.7,0.34,3.81-2.46c0.05-1.25-0.86-3.46,1.46-3.42c3.31,0.06,0.45,2.05,0.65,3.11c0.24,1.29,0.46,2.25,2.01,2.16
		c0.65,0.52,1.31,1.04,1.96,1.56c-0.81,0.76-1.73,1.25-2.89,1.14C405.29,264.44,404.43,265.11,403.57,265.79z"/>
	<path class="st1" d="M412.24,262.6c1.71,1.23,2.04-0.76,3-1.28c1.78-0.96,3.49-1.59,3.8,1.43c-4.94,0.55-2.17,4.56-3.1,6.91
		c-4.11-0.59-3.53-4.49-4.94-6.98C411.42,262.65,411.83,262.62,412.24,262.6z"/>
	<path class="st1" d="M481.97,258.85c2.02-0.55,0.8-2.15,0.96-3.24c0.2-1.34,0.15-2.61,2.09-1.95c0.16,1.38-0.49,2.95,0.94,4.03
		c1.22,1.17,0.84,2.8,1.27,4.2c0.42,1.37,1.79,3.02-0.42,3.67c-2.33,0.69-1.63-1.9-2.4-2.94c0.79-1.06,0.86-2.05-0.31-2.91
		c-0.66-0.77-1.38-0.56-2.11-0.13C481.96,259.33,481.96,259.09,481.97,258.85z"/>
	<path class="st1" d="M464.94,357.7c0.03-2.33,0.08-4.66,0.08-6.98c0-1.1,0.32-2.17,1.45-2.24c0.47-0.03,1.53,1.27,1.42,1.75
		c-0.68,2.85,2.58,6.59-1.87,8.58C465.66,358.44,465.3,358.07,464.94,357.7z"/>
	<path class="st2" d="M521.13,282.78c1.36-1.82,3.34-1.12,5.01-1.03c7.59,0.42,15.27-1.24,22.79,0.93
		C539.66,282.72,530.39,282.75,521.13,282.78z"/>
	<path class="st2" d="M376.75,259.65c-3.24,2.42-1.86,5.28-0.77,8.11c-0.58,1.78,2.01,5.49-2.84,4.67c0.31-3.91,0.67-7.81,0.9-11.72
		C374.19,258.18,374.99,257.79,376.75,259.65z"/>
	<path class="st1" d="M517.82,255.09c1.26,1.06,1.83,1.3,1.98,1.69c0.8,2.21,3.01,4.07,1.81,6.77c-0.06,0.14-1.09,0.13-1.28-0.11
		C518.64,261.29,517.37,258.97,517.82,255.09z"/>
	<path class="st1" d="M250.08,352.69c-0.38,0.34-0.76,0.67-1.14,1.01c-2.73-2.65-2.77-7.17-0.1-10.01c0.65,2.29-0.63,4.95,1.32,7
		C250.13,351.36,250.11,352.03,250.08,352.69z"/>
	<path class="st2" d="M419.03,284.59c6.63-2.02,13.41-0.42,20.11-0.82C432.5,285.58,425.74,284.45,419.03,284.59z"/>
	<path class="st2" d="M571.92,281.21c-6.3,0.55-12.6,1.31-18.84-0.44C559.36,280.81,565.66,280.11,571.92,281.21z"/>
	<path class="st0" d="M516.9,349.66c0.2,0.29,0.26,0.61,0.18,0.96c-0.01,2.48-0.02,4.97-0.03,7.45c-2.91,0.3-1.68-2.11-2.21-3.37
		c0-1.25,0.01-2.5,0.01-3.75C515.23,350.03,515.98,349.72,516.9,349.66z"/>
	<path class="st2" d="M584.14,313.56c-1.95-5.25-1.49-10.54-0.32-15.85C583.93,303,584.03,308.28,584.14,313.56z"/>
	<path class="st2" d="M248.84,343.69c-2.67,2.85-2.63,7.36,0.1,10.01c0.06,0.28,0.07,0.57,0.02,0.86c-0.93,0.02-1.86,0.04-2.79,0.06
		c-0.12-0.32-0.24-0.65-0.37-0.97c0.03-3.31,0.05-6.62,0.08-9.93c0.38-0.39,0.77-0.78,1.15-1.17c0.64,0.09,1.29,0.19,1.93,0.28
		C249.01,343.13,248.96,343.42,248.84,343.69z"/>
	<path class="st2" d="M403.57,265.79c0.86-0.67,1.71-1.35,2.57-2.02c-1.2,1.65,3.16,4.29-0.97,5.42
		C403.79,268.46,404.05,266.95,403.57,265.79z"/>
	<path class="st1" d="M290.77,213.57c1.67-0.69,3.35-1.38,5.02-2.07c0.96,0.48,1.23,1.34,1.3,2.32c-0.44,0.58-0.89,1.16-1.33,1.74
		c-0.26-0.03-0.51-0.08-0.76-0.15C294.43,212.87,292.25,214.02,290.77,213.57z"/>
	<path class="st2" d="M236.98,195.8c-0.46,3.94,1.09,8.04-0.95,11.84C236.26,203.68,235.16,199.62,236.98,195.8z"/>
	<path class="st0" d="M290.77,213.57c1.48,0.45,3.66-0.71,4.23,1.84c-0.56,0.13-1.13,0.26-1.69,0.39c-1.42-0.05-2.85-0.09-4.27-0.14
		c0.01-0.94,0.31-1.71,1.24-2.12C290.45,213.44,290.62,213.45,290.77,213.57z"/>
	<path class="st2" d="M328.88,204.35c0.04,2.8,0.08,5.59,0.13,8.39C327.27,209.97,327.08,207.17,328.88,204.35z"/>
	<path class="st1" d="M518.95,249.58c-0.04,2.35-0.97,2.38-1.68,2.59c-1.2,0.35-1.29-0.57-1.29-1.33c0-1.01,0.36-1.96,1.6-1.78
		C518.35,249.16,519.07,249.63,518.95,249.58z"/>
	<path class="st2" d="M397.13,283.22c0.3,0.15,0.59,0.31,0.89,0.46c0.06,0.68,0.12,1.36,0.18,2.04c-0.02,2.19-0.04,4.37-0.06,6.56
		C395.87,289.48,397.48,286.24,397.13,283.22z"/>
	<path class="st2" d="M398.06,263.76c1.03,0.53,1.34,2.07,2.8,1.99c-0.37,1.13-0.65,2.32-1.78,3c-0.65-0.55-1.31-1.11-1.96-1.66
		C398.15,266.18,397.96,264.93,398.06,263.76z"/>
	<path class="st2" d="M268.07,215.73c2.79,0.03,5.58,0.07,8.36,0.1C273.63,217.35,270.84,217.36,268.07,215.73z"/>
	<path class="st2" d="M412.24,262.6c-0.41,0.03-0.83,0.06-1.24,0.08c-0.66-0.02-1.31-0.04-1.97-0.06c-0.65-0.52-1.31-1.04-1.96-1.56
		C409.22,260.14,410.96,260.62,412.24,262.6z"/>
	<path class="st2" d="M322.44,195.76c1.19,2.2,0.17,4.54,0.72,6.9c-1.51-0.28-0.88-1.28-1.11-1.91
		C322.02,199.08,321.67,197.38,322.44,195.76z"/>
	<path class="st2" d="M368.94,346.58c0.01,2.42,0.02,4.83,0.02,7.25c-0.27-0.08-0.54-0.14-0.82-0.18
		C368.18,351.26,367.07,348.75,368.94,346.58z"/>
	<path class="st2" d="M517.05,358.07c0.01-2.48,0.02-4.97,0.03-7.45c1.78,2.16,0.64,4.71,0.93,7.07
		C517.69,357.82,517.37,357.94,517.05,358.07z"/>
	<path class="st2" d="M376.18,343.69c-0.26,0.7,0.17,1.85-1.18,1.86c-0.43-2.6-2.53-1.61-4.05-1.89c0.36-0.38,0.73-0.76,1.09-1.14
		c0.98,0.01,1.96,0.02,2.94,0.02C375.39,342.92,375.78,343.31,376.18,343.69z"/>
	<path class="st2" d="M569.69,283.81c2.44,0.2,5.03-1.02,7.29,0.78C574.52,284.63,572,285.25,569.69,283.81z"/>
	<path class="st2" d="M337.95,200.78c-1.93,1.68-4.2,0.65-6.33,0.77C333.56,199.93,335.81,200.79,337.95,200.78z"/>
	<path class="st2" d="M246.02,209.82c1.86,1.74,0.62,3.99,0.99,5.98C245.08,214.07,246.15,211.85,246.02,209.82z"/>
	<path class="st2" d="M241.18,204.83c1.79-1.75,3.16-1.88,3.77,0.96C243.82,204.95,242.6,204.5,241.18,204.83z"/>
	<path class="st2" d="M267.11,211.64c-1.47,0.06-2.1,0.91-2.15,2.3c-1.18-0.74-1.44-1.92-0.59-2.82
		C265.23,210.21,266.4,210.34,267.11,211.64z"/>
	<path class="st2" d="M472.29,262.71c0.59,1.01,1.17,2.02,1.76,3.04c-0.21,0.69-0.74,1.26-1.36,0.83
		C471.16,265.51,472.14,264.03,472.29,262.71z"/>
	<path class="st2" d="M275.04,343.68c-1.71-0.02-3.43-0.04-5.14-0.06c0.38-0.37,0.77-0.74,1.15-1.11c0.98-0.01,1.96-0.02,2.94-0.02
		C274.33,342.89,274.69,343.29,275.04,343.68z"/>
	<path class="st2" d="M332.12,273.69c-0.19,0.68-0.39,1.35-0.58,2.03c-0.53-0.39-1.05-0.78-1.58-1.17c0.38-0.52,0.77-1.04,1.15-1.56
		C331.45,273.22,331.78,273.46,332.12,273.69z"/>
	<path class="st2" d="M418.85,263.62c0.11-0.31,0.16-0.64,0.13-0.97c1.69,0.35,3.7-0.87,5.08,1.01
		C422.32,263.65,420.59,263.63,418.85,263.62z"/>
	<path class="st2" d="M324.01,278.51c1.61-1.39,3.5-0.64,5.28-0.69c-0.07,0.3-0.17,0.59-0.28,0.87
		C327.35,278.63,325.68,278.57,324.01,278.51z"/>
	<path class="st2" d="M343.04,208.7c0.17-1.65-0.49-3.4,0.6-4.94C344.11,205.48,344.81,207.24,343.04,208.7z"/>
	<path class="st2" d="M523.94,261.77c1.13,0.43,1.44,2.11,2.95,1.96C524.59,265.36,524.34,265.19,523.94,261.77z"/>
	<path class="st2" d="M497.97,261.77c0.71,0.02,1.43,0.04,2.14,0.06c-0.25,0.79,0.55,2.25-0.82,2.26
		C498.21,264.11,497.93,262.84,497.97,261.77z"/>
	<path class="st2" d="M485.97,257.69c-1.43-1.08-0.78-2.65-0.94-4.03C486.87,254.64,485.76,256.32,485.97,257.69z"/>
	<path class="st2" d="M479.02,253.69c-1.38-0.01-2.75-0.02-4.13-0.03C476.27,252.27,477.65,252.08,479.02,253.69z"/>
	<path class="st2" d="M481.97,258.85c-0.01,0.24-0.01,0.49,0.01,0.73c0.05,0.67,0.09,1.35,0.14,2.02c-1.71-0.95-0.88-2.58-1.05-3.93
		C481.37,258.06,481.67,258.45,481.97,258.85z"/>
	<path class="st2" d="M289.05,215.66c1.42,0.05,2.84,0.09,4.27,0.14c-1.28,1.37-2.81,0.99-4.34,0.61
		C289.01,216.16,289.03,215.91,289.05,215.66z"/>
	<path class="st2" d="M277.15,203.64c-0.94,0-2.08,0.34-2.76-0.07c-1.07-0.65,0.14-0.62,0.49-0.82
		C275.78,202.7,276.7,202.57,277.15,203.64z"/>
	<path class="st2" d="M445.8,353.89c1.89,0.91,0.97,2.64,1.18,4.04c-0.28-0.13-0.57-0.22-0.87-0.27
		C446,356.41,445.9,355.15,445.8,353.89z"/>
	<path class="st2" d="M392.96,263.32c-0.17,1.48,0.71,3.22-1.09,4.29C392.33,266.2,391.3,264.42,392.96,263.32z"/>
	<path class="st2" d="M314.2,263.69c-0.42,0.8-1.06,1.42-1.84,0.63c-0.77-0.79-0.16-1.43,0.66-1.83
		C313.41,262.89,313.8,263.29,314.2,263.69z"/>
	<path class="st2" d="M416.94,282.78c-0.87,1.19-2.1,0.85-3.27,0.77C414.51,282.25,415.78,282.71,416.94,282.78z"/>
	<path class="st2" d="M500.95,256.59c0.02,1.13,0.32,2.35-0.98,3.05C500.15,258.58,499.56,257.26,500.95,256.59z"/>
	<path class="st2" d="M484.09,259.71c1.18,0.85,1.1,1.84,0.31,2.91C484.3,261.64,484.2,260.68,484.09,259.71z"/>
	<path class="st2" d="M580.9,288.4c0.04,1.08,0.08,2.16,0.11,3.24C579.35,290.61,579.83,289.52,580.9,288.4z"/>
	<path class="st2" d="M495.14,254.83c-0.41-0.41-0.82-0.82-1.23-1.22c0.38-0.84,1.03-1.29,1.75-0.58
		C496.35,253.71,495.96,254.4,495.14,254.83z"/>
	<path class="st2" d="M503.08,264.32c0.92-0.8,2-0.61,3.07-0.5C505.32,265.19,504.22,264.85,503.08,264.32z"/>
	<path class="st2" d="M212.98,335.65c-2.93-0.38-1.93-2.7-1.95-4.3c-0.1-6.99-0.03-13.99-0.08-20.98c-0.01-1.61,0.46-3.37-0.91-4.74
		c0.37-3.66-1.31-7.5,0.96-10.99c1.45,1.7,3.41,0.96,5.15,0.96c29.71,0.09,59.42,0.12,89.13,0.17c0.01,0.31,0.12,0.57,0.34,0.78
		c-8.21,0.78-16.47-0.54-24.66,0.72c-8.34-0.53-16.67-1.1-24.98,0.4c-7.99-0.45-15.99-0.41-23.98-0.02
		c-5.29-0.07-10.58-0.04-15.86-0.23c-2.66-0.1-3.38,1.01-3.35,3.52C212.94,312.5,212.93,324.08,212.98,335.65z"/>
	<path class="st1" d="M542.4,357.9c1.73,0.3,2.97,0.64,4.23,0.67c0.49,0.01,1.28-0.55,1.44-1.02c0.15-0.45-0.23-1.54-0.56-1.62
		c-5.64-1.38-0.34-3.06-0.12-4.91c-1.37-0.42-2.54-0.59-3.64,0.85c-0.64,0.84-1.71,1.28-2.45,0.15c-0.59-0.9-0.32-1.92,0.57-2.64
		c2.24-1.81,4.9-2.34,7.47-1.4c2.16,0.79,1.97,2.75,0.99,4.61c-0.57,1.08,0.32,1.87,0.7,2.75c1.28,2.95-0.09,5-2.63,5.99
		C545.59,362.43,543.12,361.79,542.4,357.9z"/>
	<path class="st1" d="M563.96,352.8c0-0.83-0.06-1.66,0.02-2.48c0.09-0.89-0.38-2.26,1-2.38c1.41-0.12,1.93,1.08,1.99,2.31
		c0.11,2.14,0.16,4.29,0.14,6.44c-0.01,1.12,0.07,2.69-1.45,2.68c-1.27-0.01-1.7-1.33-1.67-2.6c0.03-1.32,0.01-2.64,0.01-3.97
		C563.98,352.8,563.97,352.8,563.96,352.8z"/>
	<path class="st1" d="M498.06,353.62c1.3,1.74,1.23,3.66,0.62,5.59c-0.07,0.23-0.94,0.48-1.23,0.32c-2.19-1.2-2.52-3.55-2.31-5.51
		c0.19-1.75-2.27-4.86,1.88-5.27C497.27,350.39,496.32,352.29,498.06,353.62z"/>
	<path class="st1" d="M540.22,355.55c-0.54,1.35,0.77,4.32-1.39,3.86c-2.65-0.56-1.66-3.84-1.75-6.01
		c-0.05-1.25-0.73-3.82,1.36-3.38C541.19,350.59,539.7,353.6,540.22,355.55z"/>
	<path class="st0" d="M493.06,358.84c-2.13-1.26-3.21-8.44-1.48-10.72c0.48-0.63,1.14-0.11,1.46,0.56
		C493.05,352.06,493.06,355.45,493.06,358.84z"/>
	<path class="st2" d="M493.06,358.84c-0.01-3.39-0.02-6.78-0.03-10.17C494.56,352.06,494.64,355.45,493.06,358.84z"/>
	<path class="st2" d="M574.99,347.51c-0.42,1.98,1.03,4.33-1.15,5.97C574.36,351.51,572.99,349.18,574.99,347.51z"/>
	<path class="st1" d="M548.01,339.52c0.16-0.99,0.5-1.82,1.73-1.67c0.97,0.12,1.13,0.9,1.28,1.67
		C550.02,339.52,549.02,339.52,548.01,339.52z"/>
	<path class="st2" d="M498.06,353.62c-1.74-1.33-0.79-3.23-1.03-4.88C498.93,350.04,497.76,351.98,498.06,353.62z"/>
	<path class="st2" d="M516.9,349.66c-0.91,0.06-1.67,0.37-2.04,1.28c-0.84-0.7-1.25-1.59-0.1-2.19
		C515.52,348.34,516.63,348.31,516.9,349.66z"/>
	<path class="st1" d="M509.04,339.49c0.31-0.46,0.62-0.48,0.94-0.02c0,0-0.47,0.12-0.47,0.12L509.04,339.49z"/>
	<path class="st3" d="M580.84,296.73c0.39,11.6,0.63,23.22,1.23,34.81c0.23,4.28-1.33,5.4-5.38,5.22c-6.64-0.3-13.3-0.04-19.95-0.1
		c-1.6-0.01-3.37,0.56-4.7-0.92c1.91-3.43,1.24-7.12,0.53-10.57c-0.81-3.98-0.91-7.98-0.32-11.82c0.53-3.46,0.5-6.89,0.82-10.33
		c0.37-4.01-0.86-5.66-5.16-5.4c-5.94,0.35-11.92,0.1-17.88,0.1c1.29-1.53,3.07-0.97,4.65-0.97
		C550.07,296.7,565.46,296.72,580.84,296.73z"/>
	<path class="st4" d="M580.84,296.73c-15.39,0-30.77-0.02-46.16,0.01c-1.58,0-3.36-0.56-4.65,0.97c-0.32,0.56-0.91,1.11-0.92,1.67
		c-0.07,11.14-0.04,22.29-0.11,33.43c-0.02,2.62,1.54,2.9,3.58,2.9c6.15-0.02,12.31,0.03,18.46,0.05c-1.02,1.17-2.41,0.97-3.72,0.93
		c-13.75-0.44-27.54,1-41.26-0.93c-0.98-0.14-1.99-0.04-2.99-0.06c0.21-12.7-1.08-25.47,1.9-38.03c0.33-2.1,1.94-1.92,3.44-1.92
		c23.26,0,46.52,0.01,69.78,0.02C579.2,295.76,580.22,295.7,580.84,296.73z"/>
	<path class="st5" d="M441.02,335.92c-3.39-0.1-6.77-0.2-10.15-0.3c-2.21-12.58-2.63-25.35-3.89-38.03
		c0.06-0.29,0.09-0.59,0.09-0.89l-0.01,0.04c8.99,0.03,17.97,0.06,26.96,0.09c0.62,12.95,0.65,25.94,2.04,38.85
		C451.04,335.76,446.03,335.84,441.02,335.92z"/>
	<path class="st6" d="M456.06,335.68c-1.39-12.91-1.42-25.9-2.04-38.85c7.6-0.04,15.2-0.08,22.8-0.12c1.15-0.01,2.34-0.08,3.21,0.91
		c-1.18,1.96-0.92,4.15-1.02,6.29c-0.52,10.61,0.77,21.16,0.93,31.75C471.98,335.67,464.02,335.68,456.06,335.68z"/>
	<path class="st7" d="M479.94,335.66c-0.16-10.59-1.45-21.14-0.93-31.75c0.1-2.15-0.16-4.33,1.02-6.29
		c8.32,0.01,16.64,0.03,24.95,0.04c-2.98,12.56-1.69,25.34-1.9,38.03C495.37,335.69,487.66,335.68,479.94,335.66z"/>
	<path class="st8" d="M551.06,335.76c-6.15-0.02-12.31-0.07-18.46-0.05c-2.04,0.01-3.6-0.28-3.58-2.9
		c0.06-11.14,0.04-22.29,0.11-33.43c0-0.56,0.6-1.11,0.92-1.67c5.96,0,11.94,0.25,17.88-0.1c4.3-0.26,5.53,1.4,5.16,5.4
		c-0.32,3.43-0.28,6.86-0.82,10.33c-0.59,3.84-0.49,7.84,0.32,11.82c0.7,3.46,1.37,7.14-0.53,10.57
		C551.71,335.73,551.38,335.74,551.06,335.76z"/>
	<path class="st9" d="M356.98,296.06c22.45-0.07,44.9-0.15,67.35-0.22c1,0,2.01,0.02,2.73,0.9c0,0,0.01-0.04,0.01-0.04
		c-6.61,0.52-13.31-1.14-19.86,0.87l-0.24,0.18c-8.02,0.03-16.03,0.05-24.05,0.08c-8.61,0.02-17.22,0.03-25.83,0.05
		c-0.2-0.39-0.4-0.79-0.6-1.18C356.66,296.48,356.82,296.27,356.98,296.06z"/>
	<path class="st10" d="M356.98,296.06c-0.16,0.21-0.32,0.42-0.48,0.63c-8.77,0.12-17.54,0.24-26.31,0.36
		c-8.19-0.17-16.38-0.33-24.57-0.5c-0.22-0.22-0.33-0.48-0.34-0.78C322.51,295.87,339.75,295.96,356.98,296.06z"/>
	<path class="st1" d="M302.08,276.66c-4.51-5.55-3.81-8.17,2.56-9.58c0.35,0.09,0.69,0.19,1.04,0.28c-0.07-0.37-0.13-0.73-0.2-1.1
		c-0.19-0.8-0.32-1.62-0.58-2.39c-0.49-1.45-1.07-3.27,0.8-3.75c1.94-0.5,1.9,1.55,2.43,2.89c1.18,2.96,2.6,5.83,3.92,8.73
		c0,0-0.08-0.1-0.08-0.1c0,1.67,0,3.33,0,5c-1.23,0.43-2.04-0.43-2.97-0.95c-0.13-0.44-0.26-0.87-0.38-1.31
		c-0.25,0.44-0.5,0.87-0.75,1.31C306.16,277.3,304.2,277.48,302.08,276.66z M306.15,272.66c-0.94-1-1.57-2.09-2.5-2.52
		c-0.69-0.31-1.41,0.77-1.35,1.54c0.1,1.25,0.99,2.11,2.24,2.18C304.99,273.9,305.49,273.18,306.15,272.66z"/>
	<path class="st1" d="M290.21,276.74c-5.27,1.31-8.91-1.47-9.21-7.04c1.06-0.5,1.15-2.24,2.7-2.13c1.13,0.1,2.27,0.34,3.26-0.48
		c1.61,0.55,2.75,1.54,1.81,3.29c-0.66,1.23-1.78,2.22-2.85,0.13c-0.53-1.02-1.13-0.28-1.43,0.17c-0.19,0.28-0.11,1.04,0.14,1.26
		c1.09,0.98,2.29,1.84,3.45,2.75C287.64,276.56,289.53,276.02,290.21,276.74z"/>
	<path class="st1" d="M316.99,277.62c-0.78-0.04-1.57-0.09-2.35-0.13c-1.07-1.86-0.91-4.29-2.65-5.85c0,0,0.08,0.1,0.08,0.1
		c0.05-1.18,0.32-2.49,1.54-2.74c1.35-0.29,1.78,1.16,2.27,2.09C316.94,273.12,317.43,275.3,316.99,277.62z"/>
	<path class="st1" d="M295.16,269.65c0.13,0.09,0.34,0.16,0.39,0.28c0.6,1.6,1.66,3.88-0.4,4.45c-1.72,0.47-1.93-2.03-2.21-3.57
		C293.4,269.9,294.24,269.71,295.16,269.65z"/>
	<path class="st2" d="M290.21,276.74c-0.68-0.71-2.57-0.18-2.13-2.05c1.51,0.23,2.31-0.97,3.23-1.93c1.35,1.37,0.5,2.61,0.39,3.8
		C291.21,276.61,290.71,276.68,290.21,276.74z"/>
	<path class="st2" d="M290.96,263.75c-0.06,0.84-0.71,0.9-1.32,0.92c-0.86,0.03-1.68-0.22-1.44-1.25c0.08-0.34,0.96-0.62,1.5-0.69
		C290.34,262.64,290.91,262.93,290.96,263.75z"/>
	<path class="st2" d="M295.16,269.65c-0.92,0.06-1.76,0.25-2.23,1.16c-0.82-0.41-1.36-1.16-0.54-1.78
		C293.32,268.32,294.48,268.33,295.16,269.65z"/>
	<path class="st2" d="M286.96,267.08c-0.99,0.82-2.13,0.58-3.26,0.48C284.62,266.3,285.78,266.57,286.96,267.08z"/>
	<path class="st11" d="M357.09,297.88c8.61-0.02,17.22-0.03,25.83-0.05c-1.3,12.57,0.93,25.14,0.07,37.71
		c-8.66,0.09-17.31,0.18-25.97,0.27c0,0,0.01-0.32,0.01-0.32c-0.37-9.59,0.54-19.22-0.89-28.8
		C355.71,303.77,355.84,300.71,357.09,297.88z"/>
	<path class="st10" d="M382.99,335.54c0.86-12.57-1.38-25.14-0.07-37.71c8.02-0.02,16.03-0.05,24.05-0.08
		c0.77,12.59-1.51,25.34,1.94,37.79C400.27,335.54,391.63,335.54,382.99,335.54z"/>
	<path class="st9" d="M408.91,335.54c-3.45-12.45-1.17-25.2-1.94-37.79c0,0,0.24-0.18,0.24-0.18c6.59,0.01,13.18,0.01,19.77,0.02
		c1.27,12.68,1.68,25.45,3.89,38.03C423.54,335.59,416.22,335.56,408.91,335.54z"/>
	<path class="st2" d="M249.06,284.91c-1.35-0.14-2.7-0.28-4.06-0.42c1.1-1.04,2.48-0.79,3.79-0.79c22.64,0,45.29,0,67.93,0.03
		c1.44,0,3.04-0.45,4.22,0.9c-7.96,0.09-15.93,0.17-23.89,0.26c-6.02-0.01-12.04-0.01-18.06-0.02c-3.65,0.01-7.29,0.01-10.94,0.02
		c-1.01,0-2.02,0-3.03,0C259.7,284.89,254.38,284.9,249.06,284.91z"/>
	<path class="st2" d="M217.17,284.71c2.53-1.76,5.13-1.33,7.75-0.27c0,0,0.12,0.36,0.12,0.36
		C222.42,284.78,219.79,284.75,217.17,284.71z"/>
	<path class="st12" d="M305.62,296.55c8.19,0.17,16.38,0.33,24.56,0.5c1.11,5.38,0.58,10.85,0.88,16.27
		c0.41,7.4,1.14,14.78,1.74,22.17c-9.25,0.01-18.51,0.03-27.76,0.04c-0.01-11.14-0.15-22.28,0.03-33.41c0.06-3.54-1.14-4.6-4.58-4.5
		c-6.47,0.19-12.96-0.01-19.44-0.05l-0.1-0.3C289.15,296.01,297.41,297.33,305.62,296.55z"/>
	<path class="st13" d="M332.81,335.5c-0.59-7.39-1.33-14.77-1.74-22.17c-0.3-5.42,0.22-10.89-0.88-16.27
		c8.77-0.12,17.55-0.24,26.31-0.36c0.19,0.39,0.39,0.79,0.59,1.18c-1.25,2.84-1.38,5.89-0.94,8.81c1.43,9.58,0.51,19.21,0.89,28.8
		c-0.67,0.11-1.34,0.22-2.01,0.33c-0.67,0.01-1.34,0.02-2.01,0.03C346.27,335.73,339.54,335.62,332.81,335.5z"/>
	<path class="st14" d="M280.96,297.27c0,0,0.1,0.3,0.1,0.3c-1.59,1.46-0.99,3.38-1,5.12c-0.05,8.53,1.65,17,0.96,25.55
		c-0.2,2.5,0.25,4.9,0.99,7.26c-8.97,0-17.95,0-26.92,0c0.33-2.29,0.93-4.57,0.95-6.87c0.08-10.33-0.01-20.66-0.04-30.98
		C264.28,296.17,272.62,296.74,280.96,297.27z"/>
	<path class="st15" d="M255.98,297.67c0.03,10.33,0.12,20.66,0.04,30.98c-0.02,2.29-0.62,4.58-0.95,6.87c-8.01,0-16.03,0-24.04,0
		c-0.04-12.63-0.34-25.27,0.96-37.87C239.99,297.26,247.99,297.22,255.98,297.67z"/>
	<path class="st16" d="M282,335.52c-0.74-2.37-1.19-4.76-0.99-7.26c0.68-8.56-1.01-17.02-0.96-25.55c0.01-1.74-0.59-3.67,1-5.12
		c6.48,0.04,12.97,0.24,19.44,0.05c3.44-0.1,4.64,0.96,4.58,4.5c-0.18,11.13-0.05,22.27-0.03,33.41
		C297.36,335.53,289.68,335.53,282,335.52z"/>
	<path class="st17" d="M232,297.65c-1.31,12.6-1,25.24-0.96,37.87c-6.02,0.04-12.04,0.09-18.05,0.13
		c-0.05-11.57-0.04-23.15-0.18-34.72c-0.03-2.51,0.68-3.61,3.35-3.52C221.42,297.61,226.71,297.58,232,297.65z"/>
	<path class="st1" d="M353.01,335.85c0.67-0.01,1.34-0.02,2.01-0.03c-0.03,1.29-0.75,1.86-1.99,1.88
		C353.02,337.09,353.02,336.47,353.01,335.85z"/>
	<path class="st2" d="M218.16,206.64c1.59,0.04,3.18,0.09,4.77,0.13c-1.47,1.48-3.22,0.91-4.92,0.67c-0.07-0.01-0.15-0.28-0.13-0.41
		C217.92,206.89,218.07,206.77,218.16,206.64z"/>
	<path class="st2" d="M217.62,200.8c0.05,1.62,0.11,3.24,0.16,4.86C216.62,204.07,216.81,202.44,217.62,200.8z"/>
	<path class="st2" d="M297.09,213.82c-0.07-0.97-0.34-1.84-1.3-2.32c0.19-1.04,0.83-2.35,1.78-1.47
		C298.63,211.01,298.62,212.72,297.09,213.82z"/>
	<path class="st2" d="M536.88,256.78c-0.93,0.03-1.87,0.05-2.8,0.08C534.98,255.43,535.91,255.3,536.88,256.78z"/>
	<path class="st2" d="M534.17,256.79c-0.08,0.26-0.09,0.51-0.04,0.78c-0.13-0.2-0.27-0.39-0.4-0.59
		C533.88,256.92,534.02,256.85,534.17,256.79z"/>
	<path class="st2" d="M304.19,207.9c0,1.87,0,3.74-0.01,5.61C302.39,211.64,302.39,209.77,304.19,207.9z"/>
	<path class="st2" d="M269.18,353.71c2.43,0.04,4.86,0.08,7.28,0.12C274.01,355.03,271.57,355.57,269.18,353.71z"/>
	<path class="st2" d="M420.08,348.71c1.02-1.88,1.93-0.99,2.83,0.11C421.97,348.78,421.03,348.75,420.08,348.71z"/>
	<path class="st2" d="M295.83,348.65c1.11,0.6,2.47,0.83,3.08,2.15C298.08,349.8,294.33,352.99,295.83,348.65z"/>
	<path class="st0" d="M291.83,345.61c0.42,0.4,0.83,0.8,1.25,1.2c-0.29,0.73-0.98,1.06-1.52,0.68
		C290.69,346.88,291,346.14,291.83,345.61z"/>
	<path class="st2" d="M339.03,286.76l-0.4-0.21c0,0-0.45,0.08-0.45,0.08c-0.17-0.26-0.32-0.52-0.47-0.8
		c7.77-0.06,15.54-0.12,23.31-0.17c4.96,0.08,9.93,0.16,14.89,0.26c0.06,0,0.18,0.26,0.17,0.39c-0.02,0.15-0.15,0.29-0.23,0.43
		c-4.94,0.05-9.89,0.09-14.84,0.14c-5.34,0-10.69,0-16.03,0C343,286.85,341.02,286.8,339.03,286.76z"/>
	<path class="st2" d="M396.92,346.81c-1.42-0.05-2.85,0-4.25-0.18c-1.31-0.16-2.17-0.7-0.69-1.96
		C393.37,345.98,395.76,344.98,396.92,346.81z"/>
	<path class="st2" d="M398.27,351.86c-0.18,1.28-0.36,2.56-0.54,3.85C396.88,354.28,396.34,352.9,398.27,351.86z"/>
	<path class="st1" d="M426.97,297.59c-6.59-0.01-13.18-0.01-19.77-0.02c6.55-2.01,13.25-0.35,19.86-0.87
		C427.06,297,427.03,297.29,426.97,297.59z"/>
</g>
</svg>
