<?xml version="1.0" encoding="utf-8"?>
<!-- Generator: Adobe Illustrator 26.0.3, SVG Export Plug-In . SVG Version: 6.00 Build 0)  -->
<svg version="1.1" id="Layer_1" xmlns="http://www.w3.org/2000/svg" xmlns:xlink="http://www.w3.org/1999/xlink" x="0px" y="0px"
	 viewBox="0 0 792 612" style="enable-background:new 0 0 792 612;" xml:space="preserve">
<style type="text/css">
	.st0{fill:#245D7D;}
	.st1{fill:#4644AD;}
	.st2{fill:#A9CFF0;}
	.st3{fill:#29A743;}
	.st4{fill:#318963;}
	.st5{fill:#B2B9E1;}
	.st6{fill:#D2E8F7;}
</style>
<g>
	<path class="st0" d="M362.2,196c25.27-0.2,48.75-0.25,72.2,1.01c3.9,0.21,5.64-1.27,6.76-4.79c4.75-14.89,10.44-29.41,17.73-43.26
		c1.16-2.2,2.26-4.46,3.63-6.53c1.63-2.47,3.22-4.26,6.9-2.16c2.18,1.24,5.48,0.57,8.28,0.65c14.5,0.41,28.85,2.47,43.25,4.01
		c2.96,0.32,4.11,1.88,4.23,5.01c0.35,8.86-4.03,16.34-6.76,24.25c-2.98,8.62-6.63,17.03-10.29,25.39
		c-1.53,3.49-1.08,4.29,2.84,4.54c10.36,0.67,20.64,2.3,30.3,6.34c5.5,2.3,8.5,6.58,8.2,12.84c-0.57,12.17-3.33,24.02-5.34,35.98
		c-2.37,14.09-5.04,28.14-7.65,42.19c-4.1,22.06-8.25,44.11-12.39,66.16c-4.48,23.85-8.94,47.71-13.47,71.55
		c-2.64,13.87-5.39,27.73-8.11,41.59c-0.4,2.04-1.29,3.85-3.36,4.61c-15.82,5.85-32.08,9.16-49,10.25c-13,0.83-25.96,1.1-38.93,0.92
		c-27.33-0.38-54.51-2.82-81.3-8.32c-11.48-2.36-23.01-5.02-33.08-11.72c-4.04-2.69-6.61-6.29-7.32-10.81
		c-1.95-12.32-3.52-24.69-5.17-37.06c-1.9-14.17-3.72-28.36-5.59-42.54c-1.94-14.67-3.91-29.33-5.85-44
		c-3.06-23.07-6.16-46.14-9.16-69.22c-1.35-10.38-2.55-20.79-3.68-31.2c-0.79-7.27-1.85-14.5-1.99-21.85
		c-0.08-4.11,1.28-7.75,2.12-11.56c0.57-2.56,3.11-3.45,5.31-4.05c16.21-4.41,32.72-7,49.54-7.15
		C331.36,196.91,347.65,195.15,362.2,196z M479.25,265.03c1.1-0.77,0.96-1.89,0.86-3l0.09-0.19c1.34-1.75,2.07-3.7,1.91-5.93
		c0.02-0.31,0.05-0.63,0.08-0.94c1.35-1.8,2.04-3.81,1.92-6.07c0.03-0.31,0.05-0.62,0.07-0.93c1.1-0.75,0.98-1.9,0.98-3.01
		c1.76-1.54,0.5-3.86,1.45-5.62c2.8-5.23,3.04-11.31,5.5-16.67c0.61-1.32,1.92-3.63-1.56-3.82c-8.83-0.46-17.51-2.58-26.48-1.94
		c-6.45,0.46-12.96,0.14-19.44,0.04c-4.63-0.07-9.87-1.2-8.72,6.49c0.07,0.5-0.74,1.07-0.92,1.68c-2.36,8.12-4.74,16.22-7.02,24.36
		c-1.86,6.66-3.3,13.42-5.31,20.04c-1.56,5.15-3.46,10.25-4.36,15.52c-1.68,9.88-2.06,19.96-4.06,29.81
		c-0.02,1.51,0.48,1.98,2.13,1.58c11.43-2.79,23.05-3.44,34.7-2.22c3.96,0.41,7.88,0.67,11.84,0.82c2.87,0.11,4.46-0.93,4.29-3.98
		c1.82-2.15,0.39-4.87,1.22-7.15c3.32-9.1,3.96-18.94,7.76-27.91c1.75-2.17,2.01-4.77,2.17-7.4
		C478.65,267.39,478.95,266.21,479.25,265.03z M490.2,329.19c1.29-0.39,2.58-0.79,3.87-1.18c1.06,1.18,2.38,1.08,3.66,0.57
		c7.4-2.94,14.15-7.07,20.7-11.53c1.94-1.33,2.51-3.59,2.27-5.71c-0.26-2.29-2.29-2.43-4.23-2.45c-0.77-0.01-1.86-0.2-2.26-0.72
		c-2.75-3.57-6.62-3.18-10.41-3.22c-4.14-0.04-8.39,0.45-12.4-0.31c-4.65-0.87-9.24-0.39-13.85-0.69c-2.15-0.14-3.62,0.44-3.38,2.99
		c-3.47,5.15-2.61,7.9,2.94,9.48c-4.06,0.68-5.15,5.38-8.86,6.54c-0.27-1.69-1.43-1.96-2.91-2.02c-6.03-0.25-12.07-1.03-18.01-1.52
		c-11.61-0.96-23.58-2.02-35.16,1.48c-1.63-3.64-5.72-0.63-7.86-2.91c4.55,0.83,6.28-1.18,5.65-5.58c0.45-1.74,0.05-3.54,0.98-5.31
		c2.15-4.05,1.14-5.92-3.36-6.06c-9.12-0.3-18.27-0.73-27.37-0.83c-14.07-0.15-28.15,1.17-42.23,1.87
		c-0.27-1.04-0.55-2.07-0.82-3.11l0.03-0.05c10.4-1.05,20.77-2.08,31.26-2.13c12.98-0.06,25.92,0.66,38.88,0.93
		c1.71,0.04,3.38,0.6,3.9-2.32c4.46-25,11.23-49.4,19.9-73.26c1.6-4.4,0.69-5.23-3.78-5.22c-26.95,0.07-53.9-0.08-80.85-0.27
		c-7.12-0.05-14.21-1.69-21.37-0.58c-0.99-0.07-1.99-0.14-2.98-0.21c-3.66-0.05-7.32-0.1-10.98-0.14c-5.35-0.4-10.69-0.23-16.02,0.2
		c-8.97-0.05-17.94,0.02-26.9-0.23c-3.09-0.09-3.8,1.06-3.31,3.78c1.08,6.02,2.26,12.02,3.12,18.07
		c3.03,21.48,5.95,42.98,8.91,64.47c0.58,4.2,1.2,8.39,1.95,13.57c7.33-6.73,15.25-10.07,24.24-10.73c0.21,0.19,0.45,0.3,0.74,0.3
		c0.03,1.24,0.06,2.49,0.09,3.73c-7.6-0.25-14.23,2.12-20.02,7.1c-1.56,1.34-4.23,1.68-3.72,4.56c0.43,2.47,2.51,3.43,4.54,4.15
		c7.8,2.76,15.8,4.69,24.08,5.33c0.2,0.9,0.4,1.81,0.6,2.71c-0.92,1.26-2.26,1.42-3.59,1.13c-5.82-1.27-11.64-2.56-17.43-3.96
		c-2.54-0.62-5.4-3.52-7.33-2.14c-2.87,2.07,0.41,4.93,0.99,7.47c0.04,0.16,0.02,0.33,0.02,0.5c0.05,10.16,1.44,20.15,4.04,29.94
		c2.22,8.37,2.17,17.04,3.55,25.53c1.77,10.88,2.4,21.98,4.25,32.94c1.42,8.4,4.43,11.33,12.92,13.12c4.69,0.99,9.41,1.09,14,2.07
		c8.43,1.8,16.81,3.67,25.49,3.51c9.8,2.05,19.75,2.09,29.7,2.11c5.33,0.03,10.66,0.08,15.98,0.07c25.49-0.02,51,0.56,76.42-2.07
		c0.83-0.09,1.71,0.02,2.47-0.23c6.49-2.13,13.07-3.68,19.96-3.78c8.17-0.12,10.69-2.62,11.29-10.79c0.07-0.98,0.19-1.99,0.49-2.92
		c1.91-5.89,2.77-12.03,3.31-18.11c0.45-5.08,1.36-10.32,2.8-14.81c2.61-8.11,3.73-16.48,4.95-24.64
		c1.34-8.99,3.64-17.81,4.95-26.81c0.53-3.66,0.23-7.99,2.18-11.36c1.76-3.03,1.19-5.75,0.97-9.6c-16.7,13.58-35.71,16.88-55.6,17.2
		c0.05-1.64-0.8-3.65,1.78-4.23c4.95,0.21,9.92,0.52,14.2-2.74c1.54-0.06,3.08-0.13,4.61-0.19
		C488.03,330.01,489.24,330.2,490.2,329.19z M356.11,453.34c-2.65-0.15-5.3-0.3-7.95-0.46c-2.29-1.97-5.13-0.98-7.69-1.32
		c-7.56-0.98-15.13-1.91-22.61-3.45c-3.01-0.62-4.96-0.05-3.93,3.84c0.89,3.35,1.99,6.81,1.96,10.21
		c-0.09,11.88,6.18,16.6,17.37,17.51c9.36,0.76,18.51,3.57,28,3.67c1.31,0.19,2.61,0.39,3.92,0.58c2.12,1.88,4.61,0.99,6.99,0.92
		c4.32,0.39,8.64,0.79,12.96,1.18c2.98,1.39,6.04,0.8,9.09,0.39c3.29,0.06,6.57,0.11,9.86,0.17c4.15,0.13,8.3,0.35,12.45,0.38
		c18.96,0.15,37.9,0.01,56.63-3.62c8.44-1.63,8.41-1.6,10.26-9.95c0.54-2.42,1.45-4.76,2.05-7.17c1.05-4.17,2.41-8.29,2.49-12.66
		c0.05-2.69-0.66-3.84-3.85-3.25c-13.74,2.5-27.63,3.96-41.58,4.28c-20.14,0.45-40.28,0.46-60.42,0.66
		c-6.65-0.45-13.3-0.9-19.96-1.35C360.25,452.61,358.16,453.17,356.11,453.34z M496.16,212.95c1.57-7.12,5.46-13.31,7.99-20.04
		c2.63-0.36,1.84-2.37,1.91-3.97c0.33-3.6,2.21-6.71,3.27-10.07c2.54-8.05,7.1-15.29,9.52-23.41c0.34-1.14,1.53-2.18-0.46-2.43
		c-3.7-0.47-6.99-2.5-10.97-2.2c-3.74,0.28-7.56,0.25-11.38-0.45c-8.7-1.61-17.35-3.65-26.3-3.53c-2.11,0.03-3.06,0.7-3.9,2.8
		c-1.55,3.91-3.76,7.57-5.69,11.33c-1.99,0.13-2.03,1.48-1.84,2.96c-5.01,12.96-10.15,25.87-14.94,38.91
		c-1.18,3.21-4.19,6.21-2.28,10.18c2.71,1.26,5.61,1.82,8.54,1.84c14.24,0.1,28.48,0.08,42.72,0.06
		C493.92,214.93,495.87,215.46,496.16,212.95z M521.14,218.73c0-0.03,0-0.05,0-0.08c-6.33,0-12.67,0.16-18.99-0.07
		c-3.15-0.11-4.36,1.08-4.99,4.06c-1.31,6.16-2.88,12.28-4.55,18.35c-5.17,18.73-10.38,37.45-15.76,56.12
		c-0.81,2.82-0.72,3.8,2.54,3.84c5.98,0.08,11.96,0.93,17.93,0.83c7.89-0.14,15.78,0.75,22.92,3.52c5.54,2.15,5.46-0.3,6.15-3.94
		c2.49-13.04,5.23-26.03,7.63-39.09c2.46-13.39,4.79-26.79,8.62-39.88c0.84-2.86,0.01-3.81-2.99-3.72
		C533.47,218.85,527.3,218.73,521.14,218.73z M333.19,200.99c-11.49-2-24.87,1.94-38.48,2.18c-9.16,0.16-18.36,1.94-27.19,4.84
		c-1.02,0.34-2.62,0.37-2.51,1.82c0.09,1.22,1.39,1.82,2.58,2c0.98,0.15,1.99,0.08,2.99,0.09c52.08,0.22,104.17-0.55,156.25,1.03
		c7.43,0.23,7.27-0.02,9.58-7.23c1.13-3.53,0.59-4.92-3.34-4.8c-22.79,0.67-45.55-1.22-68.32-0.77
		C354.98,200.34,345.18,200.83,333.19,200.99z M535.45,213.86c0.06-0.48,0.11-0.96,0.17-1.45c-9.84-2.15-19.65-4.49-29.56-6.28
		c-1.94-0.35-2.3,2.72-2.76,4.48c-0.39,1.49-0.2,3.21,1.96,3.22C515.32,213.89,525.39,213.86,535.45,213.86z"/>
	<path class="st1" d="M466.25,337.06c19.89-0.32,38.9-3.62,55.6-17.2c0.23,3.85,0.79,6.57-0.97,9.6c-1.96,3.37-1.65,7.7-2.18,11.36
		c-1.31,9-3.6,17.82-4.95,26.81c-1.22,8.17-2.34,16.53-4.95,24.64c-1.44,4.49-2.35,9.73-2.8,14.81c-0.54,6.08-1.39,12.22-3.31,18.11
		c-0.3,0.93-0.42,1.94-0.49,2.92c-0.6,8.18-3.11,10.68-11.29,10.79c-6.89,0.1-13.47,1.65-19.96,3.78c-0.77,0.25-1.65,0.15-2.47,0.23
		c-25.42,2.63-50.93,2.05-76.42,2.07c-5.33,0-10.66-0.05-15.98-0.07c-6.58-11.8-10.12-24.89-15.59-37.14
		c-9.82-21.99-13.46-45.32-16.35-68.89c15.6-0.04,31.16,1.67,46.78,1.09c4.65-0.17,9.31,0.07,13.96-0.07
		c2.33-0.07,3.42,0.81,3.45,3.09c-0.04,23.31-0.04,46.61-0.15,69.92c-0.02,2.97,0.95,4.86,3.94,3.87c5.56-1.85,11.5-2.44,16.89-4.37
		c8.2-2.95,16.8-3.28,25.12-5.28c4.13-1,6.14-2.22,6.09-6.61c-0.13-10.15-0.14-20.31,0.09-30.46c0.12-5.19,1.3-10.45,2.38-15.39
		C463.95,348.83,464.7,342.84,466.25,337.06z M406.45,401.58c0.17,0.06,0.35,0.12,0.52,0.18c0-14.88,0-29.76,0-44.65
		c-0.17,0-0.35,0-0.52,0C406.45,371.93,406.45,386.75,406.45,401.58z"/>
	<path class="st2" d="M325.13,216.06c7.16-1.11,14.25,0.53,21.37,0.58c26.95,0.18,53.9,0.34,80.85,0.27
		c4.47-0.01,5.38,0.82,3.78,5.22c-8.66,23.86-15.44,48.26-19.9,73.26c-0.52,2.93-2.19,2.36-3.9,2.32
		c-12.96-0.27-25.9-0.99-38.88-0.93c-10.49,0.05-20.87,1.09-31.26,2.13c-0.87-8.05-2.95-15.91-3.64-24.02
		c-0.77-8.88-2.01-17.75-3.45-26.55C328.34,237.6,328.49,226.55,325.13,216.06z"/>
	<path class="st3" d="M414.25,314.84c2-9.85,2.38-19.93,4.06-29.81c0.9-5.27,2.8-10.38,4.36-15.52c2.01-6.62,3.45-13.38,5.31-20.04
		c2.28-8.14,4.66-16.24,7.02-24.36c0.18-0.61,0.99-1.18,0.92-1.68c-1.15-7.68,4.09-6.56,8.72-6.49c6.48,0.1,12.99,0.42,19.44-0.04
		c8.96-0.64,17.64,1.48,26.48,1.94c3.48,0.18,2.16,2.49,1.56,3.82c-2.47,5.37-2.7,11.45-5.5,16.67c-0.94,1.76,0.31,4.08-1.45,5.62
		c-1.26,0.7-1,1.9-0.98,3.01c-0.02,0.31-0.04,0.62-0.07,0.93c-3.44,1.14-1.42,4-1.92,6.07c-0.03,0.31-0.06,0.63-0.08,0.94
		c-2.58,1.35-1.94,3.74-1.91,5.93c0,0-0.09,0.19-0.09,0.19c-1.48,0.57-2.05,1.64-1.78,3.18c-0.07,0.91-0.13,1.82-0.2,2.73
		c-3.3,2.04-1.55,5.29-1.95,8.03c-3.8,8.96-4.44,18.81-7.76,27.91c-0.83,2.28,0.6,5-1.22,7.15c-0.14-1.3-0.81-1.26-2.02-1.26
		c-10.72-0.06-21.38,1.03-31.97,2.39C426.9,312.98,420.34,312.33,414.25,314.84z"/>
	<path class="st4" d="M466.25,337.06c-1.55,5.79-2.31,11.77-3.58,17.61c-1.08,4.94-2.26,10.19-2.38,15.39
		c-0.23,10.15-0.22,20.31-0.09,30.46c0.05,4.39-1.95,5.61-6.09,6.61c-8.31,2-16.91,2.34-25.12,5.28
		c-5.38,1.93-11.32,2.52-16.89,4.37c-2.99,1-3.96-0.9-3.94-3.87c0.12-23.31,0.12-46.61,0.15-69.92c1.27-2.56,2.01-5.24,1.77-8.13
		c0.05-2.42,0.11-4.83,0.16-7.25c1.35-1.4,1.66-2.96,0.74-4.72c0.94-0.35,1.07-1.16,1.18-2c11.58-3.5,23.54-2.44,35.16-1.48
		c5.94,0.49,11.97,1.27,18.01,1.52c1.47,0.06,2.64,0.33,2.91,2.02c-0.07,3.29-0.15,6.58-0.22,9.87
		C465.45,333.4,466.3,335.42,466.25,337.06z"/>
	<path class="st2" d="M521.14,218.73c6.16,0,12.33,0.13,18.49-0.06c3.01-0.09,3.83,0.86,2.99,3.72
		c-3.82,13.08-6.16,26.49-8.62,39.88c-2.4,13.06-5.14,26.05-7.63,39.09c-0.7,3.64-0.61,6.1-6.15,3.94
		c-7.13-2.77-15.02-3.66-22.92-3.52c-5.97,0.1-11.95-0.75-17.93-0.83c-3.26-0.04-3.36-1.02-2.54-3.84
		c5.38-18.67,10.58-37.39,15.76-56.12c1.68-6.08,3.25-12.19,4.55-18.35c0.63-2.98,1.85-4.17,4.99-4.06
		c6.32,0.23,12.66,0.07,18.99,0.07C521.14,218.67,521.14,218.7,521.14,218.73z"/>
	<path class="st1" d="M346.38,442.81c-8.68,0.16-17.06-1.71-25.49-3.51c-4.58-0.98-9.31-1.08-14-2.07
		c-8.49-1.79-11.5-4.72-12.92-13.12c-1.86-10.96-2.48-22.06-4.25-32.94c-1.38-8.49-1.33-17.16-3.55-25.53
		c-2.6-9.8-3.98-19.79-4.04-29.94c0-0.17,0.01-0.34-0.02-0.5c-0.58-2.54-3.86-5.4-0.99-7.47c1.93-1.39,4.79,1.52,7.33,2.14
		c5.79,1.41,11.61,2.7,17.43,3.96c1.33,0.29,2.68,0.13,3.59-1.13c1.22,5.65,2.67,11.26,3.62,16.96
		C318.62,382.71,329.69,413.76,346.38,442.81z"/>
	<path class="st5" d="M346.38,442.81c-16.69-29.05-27.76-60.1-33.29-93.16c-0.95-5.69-2.4-11.31-3.62-16.96
		c-0.2-0.9-0.4-1.81-0.6-2.71c-0.29-1.97-0.58-3.95-0.88-5.92c0,0,0.4-0.29,0.4-0.29c2.29,2.5,4.85,4.13,8.5,4.31
		c8.84,0.46,17.65,1.31,26.47,2.01c-0.59,1.59-0.38,3.21-0.17,4.83c-0.22,1.45,0.06,2.77,0.95,3.95
		c2.89,23.57,6.53,46.9,16.35,68.89c5.47,12.25,9.01,25.33,15.59,37.14C366.13,444.9,356.19,444.86,346.38,442.81z"/>
	<path class="st3" d="M460.16,160.99c1.93-3.76,4.14-7.42,5.69-11.33c0.83-2.11,1.79-2.77,3.9-2.8c8.95-0.13,17.6,1.92,26.3,3.53
		c3.81,0.7,7.63,0.73,11.38,0.45c3.98-0.3,7.27,1.72,10.97,2.2c1.99,0.25,0.8,1.29,0.46,2.43c-2.42,8.12-6.98,15.36-9.52,23.41
		c-1.06,3.37-2.94,6.47-3.27,10.07c-2.57,0.39-1.77,2.41-1.91,3.97c-2.53,6.73-6.43,12.92-7.99,20.04
		c-18.35,0.03-36.71,0.06-55.06,0.08c-1.9-3.97,1.11-6.96,2.28-10.18c4.79-13.04,9.93-25.95,14.93-38.9
		C459.51,163.32,460.23,162.4,460.16,160.99z"/>
	<path class="st6" d="M325.13,216.06c3.36,10.5,3.2,21.54,4.97,32.29c1.45,8.8,2.69,17.67,3.45,26.55
		c0.7,8.11,2.78,15.96,3.64,24.02c0,0-0.03,0.05-0.03,0.05c-2.43,0.32-4.87,0.6-7.29,0.97c-8.74,1.3-17.49,2.58-25.98,5.19
		c-0.28-0.01-0.53-0.11-0.74-0.3c-1.2-11-3.74-21.78-5.4-32.71c-2.59-17.1-4.15-34.15-3.65-51.42c0.05-1.69,0.19-3.31,1.04-4.8
		c5.34-0.42,10.68-0.59,16.02-0.2c3.63,2.07,7.29,1.86,10.98,0.14C323.15,215.91,324.14,215.98,325.13,216.06z"/>
	<path class="st2" d="M382.12,455.24c20.14-0.2,40.29-0.2,60.42-0.66c13.95-0.32,27.84-1.78,41.58-4.28
		c3.19-0.58,3.9,0.56,3.85,3.25c-0.08,4.37-1.44,8.49-2.49,12.66c-0.6,2.41-1.51,4.75-2.05,7.17c-1.85,8.35-1.82,8.32-10.26,9.95
		c-18.72,3.63-37.67,3.77-56.63,3.62c-4.15-0.03-8.3-0.25-12.45-0.38c-0.57-2.32-2.12-4.04-3.57-5.81
		C393.86,472.64,387.95,463.97,382.12,455.24z"/>
	<path class="st2" d="M295.15,215.89c-0.86,1.49-0.99,3.1-1.04,4.8c-0.49,17.26,1.06,34.32,3.65,51.42
		c1.66,10.93,4.2,21.71,5.4,32.71c-9,0.66-16.91,4.01-24.24,10.73c-0.75-5.18-1.37-9.37-1.95-13.57
		c-2.97-21.49-5.88-42.99-8.91-64.47c-0.85-6.05-2.03-12.06-3.12-18.07c-0.49-2.72,0.22-3.86,3.31-3.78
		C277.21,215.91,286.18,215.84,295.15,215.89z"/>
	<path class="st1" d="M343.19,334.94c-0.21-1.62-0.42-3.24,0.17-4.83c2.16-0.22,5.34,0.78,5.64-2.36c0.31-3.28-3.05-3.16-5.32-3.76
		c-0.47-0.12-0.98-0.05-1.47-0.07c-0.87-2.38-2.67-4.76-0.04-7.16c10.02,0.6,19.91-0.99,29.85-1.69c1.39-0.1,2.79-0.38,2.98-2.03
		c0.2-1.82-1.3-2-2.62-2.35c-2.29-0.61-4.61-0.68-6.94-0.42c-8.63,0.96-17.27,0.9-25.92,0.36c-0.51-2.85-1.02-5.7-1.53-8.55
		c14.08-0.7,28.16-2.02,42.23-1.87c9.1,0.1,18.24,0.53,27.37,0.83c4.51,0.15,5.51,2.01,3.36,6.06c-0.94,1.77-0.54,3.57-0.98,5.31
		c-2.59,0.18-5.18,0.36-7.78,0.53c-1.22,0.08-2.34,0.45-2.57,1.76c-0.23,1.37,0.73,1.98,1.95,2.32c0.93,0.26,1.83,0.65,2.75,0.98
		c2.14,2.27,6.23-0.73,7.86,2.9c-0.1,0.84-0.24,1.65-1.17,2c-5.2,0.97-10.41,1.93-16.01,2.97c2.49,2.84,5.12,1.97,7.49,2.01
		c2.59,0.04,5.13-1.42,7.77-0.26c-0.05,2.42-0.11,4.83-0.16,7.25c-6.87,1.36-13.83,0.89-20.77,1.12
		C373.93,336.49,358.58,335.05,343.19,334.94z M370.96,325.44c0-0.36,0-0.73,0-1.09c-1.89-0.44-3.76-1.04-5.67-1.26
		c-1.11-0.13-2.51,0.41-2.44,1.81c0.06,1.35,1.4,1.9,2.57,1.75C367.28,326.43,369.11,325.87,370.96,325.44z"/>
	<path class="st1" d="M333.19,200.99c12-0.16,21.79-0.65,31.57-0.85c22.76-0.45,45.53,1.44,68.32,0.77c3.92-0.12,4.47,1.27,3.34,4.8
		c-2.31,7.21-2.15,7.45-9.58,7.23c-52.08-1.58-104.17-0.81-156.25-1.03c-1,0-2.01,0.06-2.99-0.09c-1.19-0.19-2.49-0.78-2.58-2
		c-0.1-1.45,1.49-1.49,2.51-1.82c8.83-2.9,18.04-4.68,27.19-4.84C308.32,202.93,321.7,198.99,333.19,200.99z"/>
	<path class="st6" d="M382.12,455.24c5.83,8.73,11.74,17.4,18.4,25.53c1.45,1.77,3,3.49,3.57,5.81c-3.29-0.06-6.57-0.11-9.86-0.17
		c-2.93-2.47-5.99-1.85-9.09-0.39c-4.32-0.39-8.64-0.79-12.96-1.18c-1.95-3.17-4.45-2.21-6.99-0.92c-1.31-0.19-2.61-0.39-3.92-0.58
		c-2.09-3.7-4.23-7.35-6.65-10.88c-3.24-4.73-5.6-10.05-8.5-15.03c-1.57-2.69-0.37-3.82,2.05-4.56c2.65,0.15,5.3,0.3,7.95,0.45
		c1.78,2.71,3.89,1.91,6.05,0.56C368.82,454.34,375.47,454.79,382.12,455.24z"/>
	<path class="st2" d="M348.16,452.88c-2.42,0.74-3.61,1.87-2.05,4.56c2.9,4.98,5.26,10.3,8.5,15.03c2.42,3.53,4.56,7.17,6.65,10.88
		c-9.49-0.1-18.63-2.91-28-3.67c-11.19-0.91-17.46-5.63-17.37-17.51c0.02-3.4-1.07-6.86-1.96-10.21c-1.03-3.89,0.92-4.46,3.93-3.84
		c7.48,1.54,15.04,2.46,22.61,3.45C343.04,451.9,345.87,450.91,348.16,452.88z"/>
	<path class="st1" d="M468.03,332.82c0.07-3.29,0.15-6.58,0.22-9.87c3.71-1.16,4.8-5.85,8.86-6.54c3.28-0.8,6.43-0.5,9.78,0.23
		c4.57,0.99,9.28,0.89,13.71-3.65c-9.98-0.06-17.58-5.56-26.44-6.06c-0.24-2.54,1.23-3.13,3.38-2.99c4.61,0.3,9.2-0.19,13.85,0.69
		c4.01,0.75,8.26,0.27,12.4,0.31c3.79,0.04,7.67-0.35,10.41,3.22c0.4,0.52,1.49,0.72,2.26,0.72c1.94,0.02,3.97,0.16,4.23,2.45
		c0.24,2.13-0.32,4.38-2.27,5.71c-6.55,4.47-13.3,8.59-20.7,11.53c-1.28,0.51-2.59,0.61-3.66-0.57c1.77-1.64,3.45-3.48-0.6-3.99
		c-6.1-0.77-12.17,0.17-18.21,1.09c-1,0.15-1.84,0.76-1.99,1.9c-0.21,1.62,0.95,1.9,2.14,2.09c2.27,0.35,4.54,0.65,6.82,0.98
		C477.95,333.34,472.98,333.03,468.03,332.82z"/>
	<path class="st5" d="M337.99,302.07c0.51,2.85,1.02,5.7,1.53,8.55c-8.49,0.24-16.7,1.9-24.8,4.46c-4.52,1.43-6.54,4.11-6.34,8.7
		c0,0-0.4,0.29-0.39,0.29c-1.33-5.07-2.67-10.15-4-15.22c-0.03-1.24-0.06-2.49-0.09-3.73c8.48-2.61,17.23-3.89,25.98-5.19
		c2.43-0.36,4.86-0.65,7.29-0.97C337.44,300,337.72,301.04,337.99,302.07z"/>
	<path class="st1" d="M303.99,308.85c1.33,5.07,2.67,10.15,4,15.22c0.29,1.97,0.58,3.95,0.87,5.92c-8.28-0.64-16.28-2.58-24.08-5.33
		c-2.03-0.72-4.1-1.68-4.54-4.15c-0.51-2.89,2.16-3.22,3.72-4.56C289.76,310.97,296.39,308.6,303.99,308.85z"/>
	<path class="st6" d="M474.16,306.93c8.85,0.49,16.46,5.99,26.44,6.06c-4.43,4.54-9.14,4.65-13.71,3.65
		c-3.35-0.73-6.5-1.02-9.78-0.23C471.55,314.83,470.7,312.09,474.16,306.93z"/>
	<path class="st1" d="M535.45,213.86c-10.06,0-20.12,0.03-30.19-0.02c-2.16-0.01-2.35-1.74-1.96-3.22c0.46-1.75,0.82-4.82,2.76-4.48
		c9.91,1.79,19.71,4.13,29.56,6.28C535.56,212.9,535.5,213.38,535.45,213.86z"/>
	<path class="st4" d="M414.25,314.84c6.08-2.5,12.65-1.86,18.97-2.68c10.59-1.37,21.24-2.45,31.97-2.39
		c1.21,0.01,1.87-0.03,2.02,1.26c0.17,3.06-1.42,4.09-4.29,3.98c-3.96-0.15-7.88-0.41-11.84-0.82c-11.64-1.21-23.27-0.57-34.7,2.22
		C414.73,316.81,414.23,316.35,414.25,314.84z"/>
	<path class="st6" d="M482.23,330.08c-2.27-0.32-4.55-0.63-6.82-0.98c-1.19-0.18-2.35-0.47-2.14-2.09c0.15-1.14,0.99-1.75,1.99-1.9
		c6.03-0.92,12.1-1.86,18.21-1.09c4.06,0.51,2.37,2.35,0.6,3.99c-1.29,0.4-2.58,0.79-3.88,1.18c-1.21-0.19-2.36-0.16-3.35,0.7
		C485.31,329.95,483.77,330.02,482.23,330.08z"/>
	<path class="st4" d="M441.1,213.03c18.35-0.03,36.71-0.06,55.06-0.08c-0.3,2.51-2.24,1.99-3.8,1.99
		c-14.24,0.01-28.48,0.03-42.72-0.06C446.71,214.85,443.81,214.29,441.1,213.03z"/>
	<path class="st6" d="M404.31,317.99c-0.91-0.33-1.81-0.72-2.75-0.98c-1.22-0.33-2.18-0.95-1.95-2.32c0.22-1.32,1.34-1.68,2.57-1.76
		c2.59-0.16,5.18-0.35,7.78-0.53C410.6,316.81,408.86,318.82,404.31,317.99z"/>
	<path class="st2" d="M385.14,486.03c3.1-1.46,6.16-2.08,9.09,0.39C391.17,486.82,388.11,487.42,385.14,486.03z"/>
	<path class="st2" d="M365.18,483.93c2.54-1.28,5.04-2.24,6.99,0.92C369.79,484.92,367.3,485.81,365.18,483.93z"/>
	<path class="st4" d="M476.18,275.97c0.4-2.74-1.35-6,1.95-8.03c0.21,0.16,0.28,0.37,0.22,0.62
		C478.2,271.2,477.93,273.8,476.18,275.97z"/>
	<path class="st2" d="M362.16,453.9c-2.16,1.35-4.27,2.15-6.05-0.56C358.16,453.17,360.25,452.61,362.16,453.9z"/>
	<path class="st2" d="M322.15,215.84c-3.68,1.72-7.34,1.93-10.98-0.14C314.83,215.74,318.49,215.79,322.15,215.84z"/>
	<path class="st4" d="M482.19,254.97c0.5-2.07-1.52-4.93,1.92-6.07C484.23,251.16,483.54,253.17,482.19,254.97z"/>
	<path class="st4" d="M504.15,192.91c0.15-1.56-0.66-3.58,1.91-3.97C506,190.53,506.78,192.54,504.15,192.91z"/>
	<path class="st4" d="M480.2,261.84c-0.03-2.19-0.67-4.58,1.91-5.93C482.27,258.14,481.53,260.09,480.2,261.84z"/>
	<path class="st4" d="M460.16,160.99c0.07,1.41-0.65,2.33-1.84,2.96C458.14,162.46,458.18,161.12,460.16,160.99z"/>
	<path class="st4" d="M478.33,265.21c-0.27-1.54,0.3-2.61,1.78-3.18c0.1,1.11,0.25,2.23-0.86,3
		C478.95,265.1,478.64,265.16,478.33,265.21z"/>
	<path class="st5" d="M478.33,265.21c0.31-0.05,0.62-0.11,0.92-0.18c-0.3,1.18-0.6,2.36-0.9,3.54c0.06-0.26-0.01-0.47-0.22-0.63
		C478.2,267.03,478.26,266.12,478.33,265.21z"/>
	<path class="st4" d="M484.18,247.96c-0.02-1.12-0.28-2.31,0.98-3.01C485.16,246.06,485.28,247.21,484.18,247.96z"/>
	<path class="st1" d="M486.84,329.89c0.99-0.86,2.15-0.89,3.35-0.7C489.24,330.2,488.03,330.01,486.84,329.89z"/>
	<path class="st0" d="M343.19,334.94c15.38,0.11,30.74,1.55,46.14,1.04c6.93-0.23,13.9,0.24,20.77-1.12
		c0.25,2.89-0.5,5.57-1.77,8.13c-0.03-2.28-1.11-3.16-3.45-3.09c-4.65,0.14-9.32-0.1-13.96,0.07c-15.62,0.59-31.18-1.13-46.78-1.09
		C343.25,337.71,342.97,336.38,343.19,334.94z"/>
	<path class="st0" d="M406.45,401.58c0-14.82,0-29.65,0-44.47c0.17,0,0.35,0,0.52,0c0,14.88,0,29.76,0,44.65
		C406.8,401.7,406.63,401.64,406.45,401.58z"/>
	<path class="st6" d="M410.26,327.61c-2.64-1.15-5.18,0.3-7.77,0.26c-2.37-0.04-5,0.84-7.49-2.01c5.6-1.04,10.81-2.01,16.01-2.97
		C411.91,324.65,411.61,326.21,410.26,327.61z"/>
	<path class="st6" d="M308.38,323.78c-0.2-4.59,1.82-7.27,6.34-8.7c8.1-2.56,16.31-4.22,24.8-4.46c8.65,0.54,17.29,0.6,25.92-0.36
		c2.33-0.26,4.65-0.18,6.94,0.42c1.31,0.35,2.82,0.53,2.62,2.35c-0.19,1.66-1.59,1.94-2.98,2.03c-9.94,0.7-19.83,2.29-29.85,1.69
		c-8.6-1.32-16.91,0.42-25.17,2.45c-1.18,0.29-3.58,0.15-3.26,2.18c0.27,1.72,2.3,1.48,3.78,1.51c8.24,0.17,16.51-0.49,24.7,1.02
		c0.49,0.02,1.01-0.05,1.47,0.07c2.27,0.59,5.63,0.47,5.32,3.76c-0.29,3.13-3.48,2.14-5.64,2.36c-8.82-0.7-17.64-1.55-26.47-2.01
		C313.23,327.91,310.68,326.28,308.38,323.78z"/>
	<path class="st5" d="M342.21,323.92c-8.18-1.51-16.46-0.85-24.7-1.02c-1.48-0.03-3.51,0.21-3.78-1.51
		c-0.32-2.03,2.09-1.89,3.26-2.18c8.26-2.03,16.57-3.78,25.17-2.45C339.54,319.16,341.34,321.54,342.21,323.92z"/>
	<path class="st6" d="M370.96,325.44c-1.84,0.42-3.67,0.98-5.54,1.22c-1.17,0.15-2.51-0.41-2.57-1.75
		c-0.07-1.41,1.33-1.94,2.44-1.81c1.91,0.22,3.78,0.82,5.67,1.26C370.95,324.72,370.95,325.08,370.96,325.44z"/>
</g>
</svg>
