<?xml version="1.0" encoding="utf-8"?>
<!-- Generator: Adobe Illustrator 26.0.3, SVG Export Plug-In . SVG Version: 6.00 Build 0)  -->
<svg version="1.1" id="Layer_1" xmlns="http://www.w3.org/2000/svg" xmlns:xlink="http://www.w3.org/1999/xlink" x="0px" y="0px"
	 viewBox="0 0 792 612" style="enable-background:new 0 0 792 612;" xml:space="preserve">
<style type="text/css">
	.st0{fill:#255D7D;}
	.st1{fill:#4644AD;}
	.st2{fill:#A9CFF0;}
	.st3{fill:#7DC439;}
	.st4{fill:#6D9D5A;}
	.st5{fill:#B2B9E1;}
	.st6{fill:#D2E8F7;}
</style>
<g>
	<path class="st0" d="M498.59,197.03c10.04,0.07,19.5,2.21,28.94,4.64c13.55,3.5,15.28,10.2,13.47,21.18
		c-5.18,31.49-10.88,62.88-16.95,94.21c-4.77,24.63-8.96,49.38-13.6,74.04c-4,21.24-8.27,42.43-12.41,63.65
		c-1.15,5.87-2.42,11.71-3.35,17.62c-0.62,3.92-2.27,5.65-6.41,6.85c-6.65,1.94-12.99,4.78-19.89,6.22
		c-13.11,2.73-26.39,3.66-39.67,4.2c-25.66,1.05-51.32-0.12-76.78-3.33c-18.9-2.38-37.86-5.04-55.7-12.52
		c-9.37-3.93-14.54-9.95-15.74-20.74c-2.87-25.77-7.08-51.39-10.54-77.1c-2.44-18.12-4.44-36.31-6.82-54.44
		c-3-22.91-6.49-45.76-9.18-68.71c-1.51-12.86-3.56-25.69-3.95-38.69c-0.13-4.4,0.96-8.46,2.02-12.57c0.66-2.57,3.08-3.51,5.28-4.11
		c15.71-4.35,31.74-6.62,48.04-7.22c27.15-0.99,54.3-0.93,81.46-1.26c12.69-0.15,25.26,1.31,37.91,1.32c5,0,7.41-1.36,8.87-6.18
		c4.44-14.64,10.29-28.75,17.37-42.33c1.07-2.06,2.11-4.17,3.4-6.08c1.63-2.41,3.18-4.42,6.88-2.28c2.04,1.18,5.14,0.63,7.77,0.69
		c14.68,0.32,29.18,2.47,43.75,4c2.93,0.31,4.23,1.77,4.31,4.94c0.25,9.7-4.57,17.89-7.63,26.57
		C506.19,178.81,502.28,187.78,498.59,197.03z M470.3,261.72c0.29-1.14,0.58-2.27,0.87-3.41c1.49-3.23,3.03-6.45,2.9-10.14
		l0.03-0.08c1.32-1.79,2.05-3.76,1.89-6.01c0.07-0.3,0.11-0.61,0.12-0.91c1.02-0.78,1.06-1.88,0.99-3.02
		c2.4-7.69,4.68-15.41,7.25-23.04c1.38-4.09-1.52-3.16-3.41-3.15c-13.61,0.08-27.1-2.2-40.78-1.69c-9.65,0.36-9.9-0.5-13.06,8.23
		c-2.07,5.7-4.34,11.41-5.14,17.51c-1.21,1.08-0.98,2.55-1.07,3.94c-2.24,8-4.71,15.94-6.63,24.01c-1.43,6.02-4.06,11.78-4.26,18.09
		c-1.72,2.41-0.67,5.26-1.27,7.85c-0.24,1.72-0.49,3.45-0.73,5.17c-1.92,3.5-0.55,7.32-1.1,10.96c-0.1,0.47-0.19,0.95-0.29,1.42
		c0.02,3.1,0.14,3.12,4.58,0.79c1.05-0.24,2.1-0.47,3.15-0.71c6.58-1.07,13.34,0.78,19.85-1.28c0.93,0.01,1.86,0.02,2.79,0.02
		c2.79,1.65,5.89,0.69,8.84,1.07c2.68,1.31,5.57,0.32,8.31,0.78c3.34,0.56,4.73-1.01,5.46-4.08c0.73-3.06,0.6-6.18,1.54-9.26
		c2.59-8.46,4.69-17.07,6.98-25.61c1.48-2.08,2.15-4.4,1.98-6.96C470.17,262.05,470.25,261.89,470.3,261.72z M482.11,322.38
		c1.29-0.39,2.58-0.79,3.88-1.18c0.74,0.29,1.6,0.99,2.19,0.81c8.49-2.55,15.88-7.23,22.81-12.55c1.77-1.36,3.19-5.6,0.62-6.33
		c-3.99-1.14-6.93-4.55-10.93-4.79c-10.55-0.64-21.14-0.82-31.71-1.2c-2.13-0.08-3.06,0.89-2.94,2.97
		c-3.58,5.53-2.21,8.76,3.99,9.42c-3,0.51-6.13,0.66-7.09,4.57c-0.21,0.84-1.23,2.01-2.64,1.92c-0.59-2.25-2.46-1.8-4.05-1.87
		c-3.47-0.14-7.04,0.25-10.39-0.44c-12.97-2.65-25.93-1.87-38.93-0.6c-2.05,0.2-3.09,0.85-3.01,2.94c-0.63-0.03-1.27-0.05-1.9-0.08
		c1.03-3.48-1.86-3.73-3.88-4.7c4.59,0.3,3.63-3.04,3.74-5.68c0.34-1.45,0.65-2.91,1.01-4.36c1.48-5.95,0.99-7.02-5.36-6.98
		c-9.32,0.05-18.6-1.16-27.88-0.98c-13.26,0.26-26.5,1.28-39.75,1.98c-0.27-1.04-0.54-2.07-0.82-3.11l0.03-0.05
		c10.23-1,20.44-2.08,30.77-2.13c13.14-0.07,26.25,0.67,39.38,0.92c1.7,0.03,3.41,0.62,3.92-2.31c4.3-25.04,11.26-49.39,19.86-73.27
		c1.58-4.37,0.75-5.24-3.76-5.23c-26.95,0.07-53.9-0.08-80.86-0.27c-7.12-0.05-14.21-1.69-21.37-0.58
		c-0.99-0.07-1.99-0.14-2.98-0.21c-3.66-0.05-7.32-0.1-10.98-0.14c-5.35-0.39-10.69-0.23-16.02,0.2c-8.97-0.05-17.94,0.02-26.9-0.23
		c-3.08-0.09-3.8,1.05-3.31,3.77c1.08,6.02,2.26,12.02,3.12,18.07c3.02,21.32,5.92,42.65,8.86,63.98c0.6,4.36,1.23,8.72,1.99,14.06
		c7.34-6.73,15.25-10.08,24.25-10.74c0.21,0.19,0.46,0.29,0.74,0.3c0.03,1.24,0.06,2.49,0.09,3.73c-7.6-0.26-14.23,2.12-20.02,7.1
		c-1.56,1.34-4.23,1.68-3.72,4.56c0.43,2.47,2.51,3.43,4.54,4.15c7.8,2.75,15.8,4.69,24.08,5.33c0.2,0.9,0.4,1.8,0.6,2.71
		c-1.25,1.6-2.93,1.32-4.58,0.97c-6.96-1.47-14.05-2.38-20.6-5.48c-1.02-0.48-2.52-1.63-3.63-0.34c-0.9,1.03-0.9,2.89-0.18,3.79
		c2.48,3.12,1.62,6.66,1.66,10.04c0.08,6.57,3.22,12.77,2.19,19.46c-0.07,0.43,0.36,0.91,0.47,1.39c1.13,5.02,3.21,10.07,3.13,15.08
		c-0.13,8.47,3.58,16.48,2.33,24.97c-0.05,0.32-0.02,0.72,0.14,0.98c3.86,6.38,1.28,13.76,3.33,20.69
		c2.25,7.57,4.91,11.42,12.7,12.96c4.84,0.96,9.73,1.16,14.48,2.13c8.44,1.72,16.8,3.65,25.48,3.49c9.8,2.05,19.75,2.08,29.7,2.1
		c11.49,0.03,23,0.44,34.47-0.01c14.16-0.55,28.28,0.01,42.52-1.26c13.21-1.18,26.13-4.15,39.36-4.97c3.4-0.21,8.55-0.91,9.44-5.55
		c0.79-4.12,1.59-8.37,1.98-12.47c0.57-6.03,2.68-11.74,2.75-17.93c0.04-3.28,0.61-7.38,1.99-10.45c3.48-7.74,3.91-16.13,5.11-24.11
		c1.36-8.98,3.72-17.79,4.87-26.83c0.49-3.85,0.55-8.28,2.35-11.83c1.57-3.11,1.09-5.79,1.05-9.52
		c-8.73,6.04-16.77,11.29-26.7,13.27c-9.62,1.92-19.09,4.27-28.99,3.76c-0.25-1.73,0.05-3.25,1.63-4.29
		c5.02,0.39,10,0.56,14.36-2.64c1.53-0.07,3.06-0.13,4.58-0.2C479.95,323.2,481.16,323.39,482.11,322.38z M348.03,446.52
		c-2.65-0.15-5.3-0.3-7.95-0.45c-2.29-1.97-5.13-0.98-7.69-1.32c-7.56-0.98-15.13-1.91-22.61-3.45c-3.01-0.62-4.96-0.05-3.93,3.84
		c0.89,3.35,1.99,6.81,1.96,10.21c-0.09,11.88,6.19,16.6,17.37,17.51c9.36,0.76,18.51,3.57,28,3.67c1.31,0.19,2.61,0.39,3.92,0.58
		c2.12,1.88,4.61,0.99,6.99,0.92c4.32,0.39,8.64,0.78,12.96,1.18c2.98,1.39,6.04,0.8,9.09,0.39c3.29,0.06,6.57,0.11,9.86,0.17
		c4.15,0.13,8.3,0.35,12.45,0.38c18.96,0.15,37.9,0.01,56.63-3.62c8.44-1.64,8.41-1.6,10.26-9.95c0.54-2.42,1.45-4.76,2.05-7.17
		c1.05-4.17,2.41-8.29,2.49-12.66c0.05-2.69-0.66-3.84-3.85-3.25c-13.73,2.54-27.63,3.95-41.58,4.27
		c-20.14,0.47-40.28,0.46-60.42,0.66c-6.65-0.45-13.3-0.9-19.96-1.35C352.17,445.8,350.08,446.35,348.03,446.52z M511.92,146.23
		c-2.99-2.17-6.46-0.92-9.7-1.36c-2.6-1.04-5.35-0.67-8.04-0.83c-3.93-1.19-7.98-1.57-12.06-1.73c-6.05,0.35-11.75-1.67-17.61-2.6
		c-3.15-0.5-4.99,0.2-6.73,3.29c-10.16,18-16.1,37.74-23.88,56.72c-0.81,1.96-3.58,4-1.01,6.62c1.12,0.96,2.48,0.73,3.79,0.78
		c11.71,0.39,23.45-0.7,35.16,0.84c4.23,0.55,8.59,0.12,12.89,0.11c1.47,0,3.13,0.26,3.35-1.93c0.12-0.99-0.01-2.1,0.4-2.96
		c6.41-13.38,11.33-27.37,16.74-41.15C507.32,156.69,511.07,152.07,511.92,146.23z M534.9,213.58c0.06-2.61-2.22-1.61-3.56-1.62
		c-9.66-0.1-19.33-0.07-28.99-0.1c-12.1-0.04-11.97-0.01-15.06,11.41c-6.04,22.28-12.25,44.51-18.36,66.77
		c-0.45,1.65-2.41,3.9,1.57,4.03c6.48,0.22,12.96,0.96,19.43,0.89c7.72-0.08,15.46,0.82,22.4,3.59c5.94,2.37,5.33-0.9,5.98-4.21
		c4.21-21.5,8.39-43.01,12.68-64.5C532.06,224.49,533.53,219.21,534.9,213.58z M325.89,205.11c30.76,0.06,61.51-0.19,92.26,1
		c8.81,0.34,8.68,0.03,10.44-8.74c0.55-2.73-0.39-3.35-2.67-3.22c-26.22,1.45-52.39-2.21-78.67-0.26
		c-17.82,1.32-35.76-0.04-53.66,1.96c-11.5,1.29-22.97,2.14-34.14,5.34c-1.04,0.3-2.62,0.37-2.53,1.81
		c0.07,1.22,1.38,1.86,2.57,2.01c1.31,0.17,2.66,0.1,3.99,0.1C284.28,205.11,305.08,205.11,325.89,205.11z M528.02,207.06
		c-0.65-1.16-0.71-1.38-0.81-1.4c-9.7-2.15-19.36-4.52-29.14-6.24c-2.5-0.44-2.03,3.13-2.76,4.86c-0.72,1.71,0.37,2.8,2.31,2.8
		C507.53,207.06,517.44,207.06,528.02,207.06z"/>
	<path class="st1" d="M458.19,330.21c9.9,0.51,19.37-1.84,28.99-3.76c9.93-1.98,17.96-7.23,26.7-13.27
		c0.05,3.73,0.53,6.41-1.05,9.52c-1.8,3.55-1.86,7.98-2.35,11.83c-1.15,9.04-3.51,17.85-4.87,26.83
		c-1.21,7.98-1.64,16.37-5.11,24.11c-1.38,3.07-1.96,7.17-1.99,10.45c-0.07,6.19-2.18,11.9-2.75,17.93
		c-0.39,4.1-1.19,8.35-1.98,12.47c-0.88,4.64-6.04,5.34-9.44,5.55c-13.23,0.82-26.15,3.78-39.36,4.97
		c-14.24,1.28-28.37,0.71-42.52,1.26c-11.47,0.45-22.98,0.04-34.47,0.01c-4.88-9.3-8.2-19.27-12.45-28.82
		c-11.09-24.91-16.61-51.1-19.77-77.96c1.8,0.27,3.59,0.66,5.39,0.78c15.94,1.14,31.9,1.09,47.86,1.03
		c10.98-0.04,10.98-0.01,11.07,10.86c0.03,20.48,0.09,40.97,0.05,61.45c-0.01,3.1,0.48,5.72,4.3,4.48c2.83-0.92,5.83-1.26,8.52-2.24
		c11.03-4.01,22.58-5.47,34-7.52c3.69-0.66,5.16-1.99,5.13-5.76c-0.09-10.99,0.04-21.98,0.18-32.97c0.02-1.56-0.69-3.35,0.84-4.68
		c0,5.42,0,10.84,0,16.26c0.3,0,0.6,0,0.9,0c0-5.95,0-11.9,0-17.85c0.19-1.8-0.37-3.72,0.86-5.35c2.46-2.19,0.67-5.04,1.19-7.53
		C455.25,337.99,458.09,334.34,458.19,330.21z M398.36,394.97c0.13,0,0.26,0,0.39,0c0-14.5,0-29,0-43.5c-0.13,0-0.26,0-0.39,0
		C398.36,365.97,398.36,380.47,398.36,394.97z"/>
	<path class="st2" d="M317.05,209.24c7.16-1.11,14.25,0.53,21.37,0.58c26.95,0.18,53.9,0.34,80.86,0.27
		c4.51-0.01,5.34,0.85,3.76,5.23c-8.6,23.87-15.56,48.22-19.86,73.27c-0.5,2.93-2.21,2.34-3.92,2.31
		c-13.13-0.26-26.24-0.99-39.38-0.92c-10.32,0.05-20.53,1.13-30.77,2.13c-0.87-8.05-2.94-15.91-3.64-24.02
		c-0.77-8.88-2.01-17.75-3.45-26.55C320.25,230.78,320.41,219.74,317.05,209.24z"/>
	<path class="st3" d="M409.99,282.03c0.2-6.31,2.83-12.06,4.26-18.09c1.92-8.07,4.39-16.01,6.63-24.01
		c1.86-0.91,1.02-2.54,1.07-3.94c0.8-6.1,3.07-11.8,5.14-17.51c3.16-8.73,3.42-7.87,13.06-8.23c13.68-0.51,27.17,1.78,40.78,1.69
		c1.89-0.01,4.79-0.95,3.41,3.15c-2.57,7.63-4.85,15.36-7.25,23.04c-1.26,0.7-1.03,1.89-0.99,3.02c0,0.31-0.04,0.61-0.12,0.91
		c-3.34,1.15-1.4,3.96-1.89,6.01c0,0-0.03,0.08-0.03,0.08c-2.6,2.87-3.6,6.34-3.84,10.1c0.02,1.15,0.05,2.3,0.07,3.45
		c-0.05,0.17-0.13,0.33-0.22,0.48c-3.64,1.47-1.42,4.61-1.98,6.96c-2.29,8.55-4.39,17.16-6.98,25.61c-0.94,3.08-0.81,6.2-1.54,9.26
		c-0.73,3.07-2.12,4.64-5.46,4.08c-2.74-0.46-5.64,0.53-8.31-0.78c1.04-0.34,2.31,0.34,3.53-1.07c-4.36,0-8.36,0-12.37,0
		c-0.93-0.01-1.86-0.02-2.8-0.02c-5.05-0.03-10.1-0.15-15.14-0.05c-1.6,0.03-3.69-0.99-4.71,1.33c-1.05,0.24-2.1,0.47-3.15,0.71
		c-1.53-0.26-3.05-0.53-4.58-0.79c0.1-0.47,0.19-0.95,0.29-1.42c2.39-3.45,0.73-7.31,1.1-10.96c0.24-1.72,0.49-3.45,0.73-5.17
		C411.32,287.62,409.64,284.66,409.99,282.03z"/>
	<path class="st4" d="M453.11,356.76c-1.52,1.33-0.82,3.12-0.84,4.68c-0.14,10.99-0.27,21.98-0.18,32.97
		c0.03,3.76-1.43,5.09-5.13,5.76c-11.42,2.05-22.97,3.51-34,7.52c-2.69,0.98-5.69,1.32-8.52,2.24c-3.82,1.24-4.3-1.37-4.3-4.48
		c0.04-20.48-0.02-40.97-0.05-61.45c1.48-5.2,0.86-10.65,1.86-15.91c0.07-2.48,0.14-4.95,0.2-7.43c0.65-0.18,1.29-0.36,1.94-0.54
		c12.58,2.55,25.17,5.34,37.37-1.51c-12.3-4.28-25.02-0.56-37.42-2.31l-0.14-0.25c-0.07-2.09,0.97-2.74,3.02-2.94
		c13-1.27,25.96-2.05,38.93,0.6c3.35,0.69,6.92,0.3,10.39,0.44c1.59,0.06,3.45-0.39,4.04,1.87c-0.16,3.3-0.32,6.6-0.48,9.9
		c-1.58,1.04-1.88,2.56-1.63,4.29c-0.11,4.14-2.95,7.79-2.14,12.08c-1.69,2.31-0.65,5.04-1.19,7.53c-1.23,1.63-0.67,3.55-0.86,5.35
		C453.71,355.7,453.41,356.23,453.11,356.76z"/>
	<path class="st2" d="M534.9,213.58c-1.37,5.63-2.84,10.91-3.91,16.27c-4.3,21.49-8.48,43-12.68,64.5
		c-0.65,3.31-0.03,6.58-5.98,4.21c-6.94-2.77-14.68-3.67-22.4-3.59c-6.47,0.07-12.95-0.67-19.43-0.89
		c-3.98-0.13-2.02-2.38-1.57-4.03c6.11-22.26,12.32-44.49,18.36-66.77c3.09-11.42,2.96-11.45,15.06-11.41
		c9.66,0.03,19.33-0.01,28.99,0.1C532.69,211.98,534.96,210.97,534.9,213.58z"/>
	<path class="st1" d="M338.3,436c-8.68,0.16-17.04-1.76-25.48-3.49c-4.75-0.97-9.64-1.17-14.48-2.13
		c-7.79-1.54-10.45-5.39-12.7-12.96c-2.05-6.92,0.53-14.3-3.33-20.69c-0.16-0.26-0.18-0.66-0.14-0.98
		c1.25-8.49-2.46-16.5-2.33-24.97c0.08-5.01-2-10.05-3.13-15.08c-0.11-0.48-0.54-0.96-0.47-1.39c1.04-6.69-2.11-12.89-2.19-19.46
		c-0.04-3.39,0.82-6.92-1.66-10.04c-0.72-0.9-0.72-2.75,0.18-3.79c1.11-1.28,2.61-0.14,3.63,0.34c6.54,3.1,13.64,4,20.6,5.48
		c1.64,0.35,3.32,0.63,4.58-0.97c1.22,5.65,2.67,11.26,3.62,16.96C310.53,375.89,321.61,406.94,338.3,436z"/>
	<path class="st5" d="M338.3,436c-16.69-29.05-27.77-60.1-33.29-93.16c-0.95-5.7-2.4-11.31-3.62-16.96c-0.2-0.9-0.4-1.8-0.6-2.71
		c-0.29-1.97-0.58-3.95-0.88-5.92l0.4-0.29c2.29,2.5,4.85,4.13,8.51,4.31c8.83,0.46,17.65,1.31,26.47,2.01
		c-0.59,1.59-0.38,3.21-0.17,4.83c-0.13,1.14-0.17,2.26,0.67,3.2c3.16,26.85,8.69,53.04,19.77,77.96
		c4.25,9.55,7.57,19.52,12.45,28.82C358.05,438.08,348.1,438.04,338.3,436z"/>
	<path class="st3" d="M432.9,206.34c-2.57-2.61,0.2-4.65,1.01-6.62c7.78-18.98,13.72-38.72,23.88-56.72
		c1.75-3.1,3.59-3.79,6.73-3.29c5.86,0.93,11.56,2.95,17.61,2.6c3.66,3.05,7.98,1.53,12.06,1.73c2.69,0.17,5.44-0.2,8.04,0.84
		c2.94,2.57,6.51,0.62,9.7,1.36c-0.85,5.84-4.6,10.46-6.69,15.79c-5.41,13.78-10.33,27.77-16.74,41.15
		c-0.41,0.85-0.28,1.96-0.4,2.96C469.69,206.2,451.3,206.27,432.9,206.34z"/>
	<path class="st6" d="M317.05,209.24c3.36,10.5,3.2,21.54,4.97,32.29c1.45,8.8,2.69,17.67,3.45,26.55
		c0.7,8.11,2.78,15.96,3.64,24.02c0,0-0.03,0.05-0.03,0.05c-2.6,0.32-5.21,0.55-7.79,0.98c-8.55,1.44-17.18,2.52-25.48,5.18
		c-0.28-0.01-0.53-0.11-0.74-0.3c-1.23-11.32-3.72-22.46-5.46-33.7c-2.61-16.78-3.95-33.5-3.58-50.43c0.04-1.7,0.18-3.31,1.04-4.8
		c5.34-0.42,10.68-0.59,16.02-0.2c3.63,2.07,7.29,1.86,10.98,0.14C315.06,209.1,316.06,209.17,317.05,209.24z"/>
	<path class="st2" d="M374.04,448.43c20.14-0.2,40.29-0.19,60.42-0.66c13.95-0.32,27.84-1.73,41.58-4.27
		c3.19-0.59,3.9,0.56,3.85,3.25c-0.08,4.37-1.44,8.49-2.49,12.66c-0.6,2.41-1.51,4.75-2.05,7.17c-1.85,8.35-1.82,8.32-10.26,9.95
		c-18.72,3.63-37.67,3.77-56.63,3.62c-4.15-0.03-8.3-0.25-12.45-0.38c-0.57-2.32-2.12-4.04-3.57-5.81
		C385.78,465.82,379.87,457.15,374.04,448.43z"/>
	<path class="st2" d="M287.07,209.08c-0.86,1.49-1.01,3.1-1.04,4.8c-0.37,16.92,0.98,33.64,3.58,50.43
		c1.75,11.24,4.23,22.38,5.46,33.7c-9,0.66-16.91,4.01-24.25,10.74c-0.76-5.35-1.39-9.7-1.99-14.06
		c-2.95-21.33-5.85-42.66-8.86-63.98c-0.86-6.05-2.04-12.06-3.12-18.07c-0.49-2.72,0.23-3.86,3.31-3.77
		C269.13,209.1,278.1,209.03,287.07,209.08z"/>
	<path class="st1" d="M335.11,328.12c-0.21-1.62-0.42-3.24,0.17-4.83c2.16-0.22,5.34,0.78,5.64-2.36c0.31-3.28-3.05-3.16-5.32-3.76
		c-0.47-0.12-0.98-0.05-1.47-0.07c-0.87-2.38-2.67-4.76-0.04-7.16c10.02,0.6,19.91-0.99,29.85-1.69c1.39-0.1,2.79-0.38,2.98-2.03
		c0.2-1.82-1.3-2-2.62-2.35c-2.29-0.61-4.61-0.68-6.94-0.42c-8.63,0.96-17.27,0.9-25.92,0.36c-0.51-2.85-1.02-5.7-1.53-8.55
		c13.25-0.7,26.49-1.72,39.75-1.98c9.28-0.18,18.55,1.03,27.88,0.98c6.35-0.03,6.84,1.03,5.36,6.98c-0.36,1.45-0.67,2.9-1.01,4.36
		c-1.15,0.13-2.33,0.18-3.46,0.42c-2.37,0.51-6.45-1.46-6.67,2.1c-0.2,3.24,4.15,2.14,6.39,3.16c2.02,0.97,4.91,1.21,3.88,4.7
		c-4.88,1.04-9.76,2.09-14.93,3.2c2.28,2.77,4.91,1.84,7.25,1.88c2.6,0.05,5.15-1.3,7.82-0.39c-0.07,2.48-0.14,4.95-0.2,7.43
		c-6.2,1.36-12.5,0.85-18.76,1.06C367.15,329.68,351.14,328.3,335.11,328.12z M363.04,317.76c-2.68-0.52-4.92-2.7-7.76-0.74
		c-0.61,0.42-0.88,1.05-0.34,1.66c2.37,2.65,4.92,0.02,7.38,0.17C362.46,318.86,362.63,318.39,363.04,317.76z"/>
	<path class="st1" d="M325.89,205.11c-20.8,0-41.61,0-62.41,0c-1.33,0-2.68,0.07-3.99-0.1c-1.19-0.15-2.49-0.79-2.57-2.01
		c-0.09-1.44,1.49-1.51,2.53-1.81c11.16-3.2,22.64-4.05,34.14-5.34c17.9-2.01,35.84-0.64,53.66-1.96
		c26.28-1.95,52.45,1.72,78.67,0.26c2.28-0.13,3.21,0.49,2.67,3.22c-1.75,8.76-1.63,9.08-10.44,8.74
		C387.4,204.92,356.64,205.17,325.89,205.11z"/>
	<path class="st6" d="M374.04,448.43c5.83,8.72,11.74,17.4,18.4,25.53c1.45,1.77,3,3.49,3.57,5.81c-3.29-0.06-6.57-0.11-9.86-0.17
		c-2.93-2.47-5.99-1.85-9.09-0.39c-4.32-0.39-8.64-0.78-12.96-1.18c-1.95-3.16-4.45-2.21-6.99-0.92c-1.31-0.19-2.61-0.39-3.92-0.58
		c-2.09-3.7-4.23-7.35-6.65-10.88c-3.24-4.73-5.61-10.05-8.5-15.03c-1.56-2.69-0.37-3.82,2.05-4.56c2.65,0.15,5.3,0.3,7.95,0.45
		c1.78,2.71,3.89,1.91,6.05,0.56C360.73,447.53,367.39,447.98,374.04,448.43z"/>
	<path class="st2" d="M340.08,446.07c-2.42,0.74-3.61,1.87-2.05,4.56c2.9,4.98,5.26,10.3,8.5,15.03c2.42,3.53,4.56,7.17,6.65,10.88
		c-9.49-0.1-18.63-2.91-28-3.67c-11.18-0.91-17.46-5.63-17.37-17.51c0.02-3.4-1.07-6.86-1.96-10.21c-1.04-3.89,0.92-4.46,3.93-3.84
		c7.48,1.54,15.04,2.46,22.61,3.45C334.96,445.09,337.79,444.1,340.08,446.07z"/>
	<path class="st1" d="M459.82,325.92c0.16-3.3,0.32-6.6,0.48-9.9c1.41,0.08,2.43-1.08,2.64-1.93c0.95-3.91,4.09-4.05,7.09-4.57
		c2.79-0.76,5.5-0.59,8.31,0.21c5.58,1.59,10.49,0.22,13.3-3.63c-9.15,0.07-16.75-5.51-25.61-6c-0.12-2.08,0.82-3.05,2.94-2.97
		c10.57,0.39,21.15,0.56,31.71,1.2c4,0.24,6.94,3.65,10.93,4.79c2.57,0.73,1.15,4.97-0.62,6.33c-6.93,5.31-14.33,10-22.81,12.55
		c-0.6,0.18-1.46-0.52-2.19-0.81c1.79-1.65,3.44-3.48-0.61-3.99c-6.11-0.77-12.19,0.19-18.23,1.1c-0.99,0.15-1.84,0.76-1.97,1.92
		c-0.18,1.62,0.98,1.89,2.17,2.07c2.27,0.34,4.55,0.66,6.83,0.98C469.82,326.47,464.84,326.31,459.82,325.92z"/>
	<path class="st5" d="M329.91,295.26c0.51,2.85,1.02,5.7,1.53,8.55c-8.49,0.24-16.7,1.9-24.8,4.46c-4.52,1.43-6.54,4.11-6.34,8.7
		c0,0-0.4,0.29-0.39,0.29c-1.33-5.07-2.66-10.15-4-15.22c-0.03-1.24-0.06-2.49-0.09-3.73c8.3-2.65,16.93-3.74,25.48-5.18
		c2.58-0.43,5.19-0.66,7.79-0.98C329.36,293.18,329.63,294.22,329.91,295.26z"/>
	<path class="st1" d="M295.91,302.04c1.33,5.07,2.67,10.14,4,15.22c0.29,1.97,0.58,3.95,0.88,5.92c-8.28-0.64-16.28-2.58-24.08-5.33
		c-2.03-0.72-4.1-1.68-4.54-4.15c-0.51-2.89,2.16-3.22,3.72-4.56C281.68,304.16,288.31,301.78,295.91,302.04z"/>
	<path class="st6" d="M466.04,300.1c8.86,0.5,16.45,6.07,25.61,6c-2.81,3.85-7.73,5.22-13.3,3.63c-2.81-0.8-5.52-0.97-8.31-0.21
		C463.83,308.87,462.46,305.63,466.04,300.1z"/>
	<path class="st1" d="M528.02,207.06c-10.58,0-20.49,0-30.39,0c-1.94,0-3.03-1.09-2.31-2.8c0.73-1.73,0.26-5.3,2.76-4.86
		c9.78,1.73,19.44,4.1,29.14,6.24C527.31,205.68,527.36,205.91,528.02,207.06z"/>
	<path class="st6" d="M474.18,323.28c-2.28-0.32-4.56-0.63-6.83-0.98c-1.19-0.18-2.35-0.45-2.17-2.07c0.13-1.16,0.98-1.77,1.97-1.92
		c6.04-0.9,12.12-1.86,18.23-1.1c4.05,0.51,2.4,2.34,0.61,3.99c-1.29,0.4-2.59,0.79-3.88,1.18c-1.21-0.19-2.36-0.16-3.35,0.7
		C477.23,323.14,475.71,323.21,474.18,323.28z"/>
	<path class="st4" d="M432.9,206.34c18.4-0.07,36.79-0.14,55.19-0.21c-0.22,2.19-1.88,1.93-3.35,1.93
		c-4.3,0.01-8.66,0.44-12.89-0.11c-11.71-1.53-23.45-0.45-35.16-0.84C435.38,207.07,434.02,207.3,432.9,206.34z"/>
	<path class="st6" d="M402.17,320.66c-2.66-0.91-5.21,0.44-7.82,0.39c-2.34-0.04-4.97,0.89-7.25-1.88
		c5.17-1.11,10.05-2.15,14.93-3.2c0.63,0.03,1.26,0.05,1.9,0.08c0,0,0.14,0.25,0.14,0.25c0.02,1.27,0.03,2.55,0.05,3.82
		C403.46,320.3,402.81,320.48,402.17,320.66z"/>
	<path class="st6" d="M398.15,311.28c-2.24-1.03-6.59,0.08-6.39-3.16c0.22-3.56,4.3-1.59,6.67-2.1c1.13-0.24,2.3-0.29,3.46-0.42
		C401.77,308.23,402.73,311.58,398.15,311.28z"/>
	<path class="st4" d="M414.33,307.52c1.02-2.32,3.1-1.3,4.71-1.33c5.04-0.11,10.09,0.01,15.14,0.05
		C427.67,308.3,420.9,306.45,414.33,307.52z"/>
	<path class="st4" d="M470.23,258.27c0.23-3.76,1.24-7.24,3.84-10.1c0.13,3.69-1.41,6.91-2.9,10.14
		C470.85,258.25,470.54,258.23,470.23,258.27z"/>
	<path class="st2" d="M377.05,479.21c3.1-1.46,6.16-2.08,9.09,0.39C383.09,480.01,380.03,480.6,377.05,479.21z"/>
	<path class="st4" d="M494.18,144.04c-4.07-0.2-8.39,1.32-12.06-1.73C486.21,142.46,490.25,142.85,494.18,144.04z"/>
	<path class="st2" d="M357.1,477.11c2.54-1.28,5.04-2.24,6.99,0.92C361.71,478.1,359.22,478.99,357.1,477.11z"/>
	<path class="st4" d="M436.97,306.26c4.01,0,8.01,0,12.37,0c-1.23,1.41-2.5,0.73-3.53,1.07
		C442.87,306.94,439.76,307.9,436.97,306.26z"/>
	<path class="st2" d="M354.08,447.08c-2.16,1.35-4.27,2.15-6.05-0.56C350.08,446.35,352.17,445.8,354.08,447.08z"/>
	<path class="st4" d="M407.98,295.06c-0.37,3.65,1.3,7.51-1.1,10.96C407.44,302.38,406.06,298.55,407.98,295.06z"/>
	<path class="st4" d="M468.1,269.15c0.56-2.35-1.66-5.49,1.98-6.96C470.25,264.76,469.58,267.07,468.1,269.15z"/>
	<path class="st2" d="M314.07,209.03c-3.68,1.72-7.34,1.92-10.98-0.14C306.75,208.93,310.41,208.98,314.07,209.03z"/>
	<path class="st4" d="M511.92,146.23c-3.19-0.73-6.76,1.22-9.7-1.36C505.46,145.31,508.93,144.06,511.92,146.23z"/>
	<path class="st4" d="M474.1,248.09c0.48-2.05-1.45-4.86,1.89-6.01C476.15,244.33,475.42,246.3,474.1,248.09z"/>
	<path class="st4" d="M406.59,307.43c1.53,0.26,3.05,0.53,4.58,0.79C406.73,310.55,406.61,310.53,406.59,307.43z"/>
	<path class="st4" d="M409.99,282.03c-0.35,2.63,1.33,5.59-1.27,7.86C409.31,287.29,408.26,284.44,409.99,282.03z"/>
	<path class="st5" d="M470.23,258.27c0.31-0.04,0.63-0.02,0.94,0.04c-0.29,1.14-0.58,2.28-0.86,3.41
		C470.28,260.57,470.25,259.42,470.23,258.27z"/>
	<path class="st4" d="M421.95,235.99c-0.05,1.4,0.79,3.03-1.07,3.94C420.97,238.55,420.73,237.07,421.95,235.99z"/>
	<path class="st4" d="M476.1,241.16c-0.05-1.13-0.28-2.32,0.99-3.02C477.16,239.28,477.12,240.38,476.1,241.16z"/>
	<path class="st1" d="M478.76,323.08c0.99-0.86,2.14-0.89,3.35-0.7C481.16,323.39,479.95,323.2,478.76,323.08z"/>
	<path class="st0" d="M335.11,328.12c16.03,0.17,32.04,1.55,48.09,1.03c6.26-0.21,12.56,0.3,18.76-1.06
		c-1,5.26-0.39,10.71-1.86,15.91c-0.08-10.87-0.08-10.9-11.07-10.86c-15.96,0.06-31.93,0.1-47.86-1.03
		c-1.81-0.13-3.6-0.52-5.39-0.78C334.94,330.39,334.98,329.26,335.11,328.12z"/>
	<ellipse class="st0" cx="398.55" cy="373.22" rx="0.27" ry="30.76"/>
	<path class="st0" d="M453.11,356.76c0.3-0.53,0.6-1.06,0.9-1.6c0,5.95,0,11.9,0,17.85c-0.3,0-0.6,0-0.9,0
		C453.11,367.6,453.11,362.18,453.11,356.76z"/>
	<path class="st0" d="M454.86,349.82c0.53-2.49-0.5-5.23,1.19-7.53C455.53,344.78,457.32,347.63,454.86,349.82z"/>
	<path class="st3" d="M404.1,320.12c-0.02-1.27-0.03-2.55-0.05-3.82c12.4,1.75,25.12-1.96,37.42,2.31
		C429.27,325.47,416.68,322.68,404.1,320.12z"/>
	<path class="st6" d="M300.3,316.97c-0.2-4.59,1.82-7.27,6.34-8.7c8.1-2.56,16.31-4.22,24.8-4.46c8.65,0.54,17.29,0.6,25.92-0.36
		c2.33-0.26,4.65-0.18,6.94,0.42c1.31,0.35,2.82,0.53,2.62,2.35c-0.19,1.66-1.59,1.94-2.98,2.03c-9.94,0.7-19.83,2.29-29.85,1.69
		c-8.6-1.32-16.91,0.42-25.17,2.45c-1.18,0.29-3.58,0.15-3.26,2.18c0.27,1.72,2.3,1.48,3.78,1.51c8.24,0.17,16.51-0.49,24.7,1.02
		c0.49,0.02,1.01-0.05,1.47,0.07c2.27,0.59,5.63,0.47,5.32,3.76c-0.29,3.13-3.48,2.14-5.64,2.36c-8.82-0.7-17.64-1.55-26.47-2.01
		C305.15,321.09,302.6,319.47,300.3,316.97z"/>
	<path class="st5" d="M334.12,317.1c-8.18-1.51-16.46-0.85-24.7-1.02c-1.48-0.03-3.51,0.21-3.78-1.51
		c-0.32-2.03,2.09-1.89,3.26-2.18c8.26-2.03,16.57-3.78,25.17-2.45C331.46,312.35,333.26,314.72,334.12,317.1z"/>
	<path class="st6" d="M363.04,317.76c-0.41,0.63-0.58,1.1-0.73,1.09c-2.46-0.15-5.01,2.48-7.38-0.17c-0.54-0.61-0.27-1.23,0.34-1.66
		C358.12,315.06,360.37,317.24,363.04,317.76z"/>
</g>
</svg>
