<?xml version="1.0" encoding="utf-8"?>
<!-- Generator: Adobe Illustrator 26.0.3, SVG Export Plug-In . SVG Version: 6.00 Build 0)  -->
<svg version="1.1" id="Layer_1" xmlns="http://www.w3.org/2000/svg" xmlns:xlink="http://www.w3.org/1999/xlink" x="0px" y="0px"
	 viewBox="0 0 1054 930" style="enable-background:new 0 0 1054 930;" xml:space="preserve">
<style type="text/css">
	.st0{fill:#F8CE93;}
	.st1{fill:#FAF3DD;}
	.st2{fill:#FCF9ED;}
	.st3{fill:#23020A;}
</style>
<g>
	<path class="st0" d="M895.21,657.86c-1.55-4.09-4.35-7.53-5.65-11.76c-0.14-0.47-0.18-0.91-0.14-1.31
		c-2.32-5.4-4.64-10.8-6.94-16.21c-6.34-14.96-12.42-30.05-17.09-45.61c-5.33-17.75-9.38-35.83-12.89-54.06
		c-4.69-24.34-6.41-48.93-7.23-73.59c-0.44-13.07,1.05-26.17,1.69-39.25c0.89-18.09,3.43-35.98,6.52-53.72
		c4.43-25.43,9.58-50.77,16.32-75.72c3.75-13.9,7.69-27.78,12.26-41.43c2.21-6.61,3.85-13.43,6.33-19.96
		c0.38-3.13,0.75-6.26,1.41-9.36c0.17-0.78,0.53-1.35,0.99-1.73c0.53-0.6,1.28-1.04,2.08-1.2c0.23-0.96,0.34-1.95,0.19-3
		c-7.73-9.22-14.07-19.39-20.23-29.68c-9.64-16.11-18.93-32.42-27.16-49.31c-0.82-1.68-1.8-3.18-3.53-4.04
		c-7.79,2.26-15.69,4.22-23.36,6.84c-25.05,8.57-50.24,16.69-75.92,23.12c-23.75,5.95-47.72,10.74-71.98,14.34
		c-23.77,3.53-47.65,5.78-71.56,7.53c-19.69,1.44-39.47,1.81-59.22,2.04c-13.61,0.16-27.24,0.63-40.88-0.73
		c-11.05-1.1-22.22-0.36-33.35-0.85c-18.72-0.83-37.4-1.9-56.09-3.21c-16.69-1.17-33.37-2.31-50.03-3.95
		c-21.94-2.15-43.89-4.22-65.75-7.09h-2.76c-3.81,0.78-4.67,4.92-5.78,7.62c-4.75,11.55-10.58,22.49-16.87,33.22
		c-9.28,15.83-21.02,29.92-32.11,44.44c-6.39,8.38-14.36,15.55-20.84,23.87c-6.09,7.82-13.3,14.59-19.43,22.38
		c-4.94,6.28-10.7,12.11-16.46,17.66c-1.79,1.73-2.35,3.34-2.42,4.93c1.35,0.29,2.56,1.3,2.65,3.07c0.38,7.83,2.44,15.46,2.82,23.29
		c0.03,0.58-0.08,1.07-0.27,1.49c-0.04,1.26-0.13,2.51-0.32,3.76c2.6,15.73,4.34,31.57,4.89,47.51c1.07,30.63-2.13,60.89-7.87,90.96
		c-4.06,21.32-8.76,42.5-14.66,63.34c-5.62,19.89-11.76,39.63-18.9,59.1c-6.82,18.6-13.98,37.05-21.47,55.38
		c-0.08,0.32-0.14,0.66-0.19,0.99c0.73,1.67,0.13,3.95-1.8,4.57c-0.27,0.21-0.58,0.4-0.96,0.56c0.02,0.28,0,0.56-0.05,0.84
		c12.07,7.68,18.7,20.18,27.31,30.9c3.19,3.97,5.76,8.42,8.88,12.46c5.5,7.13,10.46,14.64,16.23,21.59
		c5.6,6.76,10.46,14.15,15.37,21.46c7.73,11.52,15.35,23.11,22.78,34.83c4.05,6.38,7.6,13.07,11.38,19.62
		c0.45,0.03,0.89,0.05,1.34,0.08c0.7-1,1.89-1.66,3.42-1.31c12.9,2.93,26.08,3.86,39.21,5.19c2.03,0.05,4.05,0.19,6.02,0.65
		c1.1,0.13,2.21,0.26,3.31,0.4c0.98,0.12,1.72,0.59,2.23,1.21c7.06,0.65,14.14,1.22,21.18,2.05c15.77,1.86,31.53,3.78,47.28,5.86
		c15.74,2.08,31.47,4.22,47.17,6.61c17.03,2.59,34.08,4.91,51.23,6.46c10.58,0.96,21.22,1.19,31.78,2.13
		c17.98,1.6,35.98,1.25,53.88,0.47c14.97-0.65,29.99-2.3,44.9-4.56c14.55-2.21,29.3-3.12,43.84-5.4
		c23.05-3.62,46.06-7.57,68.97-11.98c26.65-5.12,53.23-10.58,79.71-16.57c9.55-2.16,18.68-5.87,28.42-7.22
		c3.08-1.91,4.48-5,6.31-7.99c4.65-7.6,9.9-14.83,15.02-22.13c5.86-8.36,11.85-16.63,17.78-24.94c5.09-7.13,10.55-14.02,15.67-21.1
		c6.86-9.49,14.08-18.71,21-28.15c6.79-9.26,13.82-18.35,21.04-27.28c2.16-2.66,3.34-5.01,2.5-7.87
		C895.89,659.06,895.47,658.55,895.21,657.86z M693.47,376.99c-6.42,17.97-14.29,35.25-26.88,49.77
		c-10.22,11.78-22.37,21.5-35.62,29.76c-10.34,6.44-21.15,11.99-33.17,16.56c26.24,9.79,50.26,21.58,68.83,41.96
		c10.98,12.06,18.38,25.78,19.76,42.83c1.38,17.07-2.2,32.94-8.52,48.25c-6.54,15.87-14.8,30.99-27.52,42.97
		c-15.87,14.96-34.76,24.62-55.57,30.84c-29.63,8.86-60.07,9.01-90.45,7.71c-18.68-0.8-37.51-2.1-55.67-7.61
		c-9.85-2.99-18.8-7.53-26.84-13.94c-0.99-0.79-2.17-1.35-3.09-1.9c-3.79,8.43-6.43,17.31-12.67,24.16
		c-5.07,5.58-10.52,5.45-15.69,0.57c-11.91-11.24-18-25.15-19.97-40.87c-0.74-5.89,2.17-11.83,3.74-17.69
		c5-18.76,9.36-37.63,12.15-56.89c2.44-16.88,5-33.73,6.89-50.68c0.73-6.52,1.81-13.01,2.9-19.49c0.88-5.25,0.22-6.1-5.13-6.4
		c-10.99-0.62-19.64-6.24-28.13-12.65c-4.86-3.67-7.47-8.57-9.99-13.66c-2.29-4.62,1.13-13.8,6.28-17.4
		c3.81-2.67,8.13-4.09,12.61-5.31c9.12-2.5,18.39-4.24,27.69-5.81c2.03-0.34,2.58-0.74,2.84-2.88c1.54-12.85,1.81-25.78,2.95-38.65
		c1.42-16.12,2.14-32.3,3.73-48.42c0.63-6.37,1.58-12.81,1.35-19.32c-0.09-2.59-0.87-3.23-3.12-2.83
		c-30.75,5.39-61.46,10.98-91.56,19.41c-4.64,1.3-9.43,0.49-14.42-0.48c8.61-4.35,17.15-8.85,25.84-13.04
		c25.77-12.43,53.04-20.75,80.42-28.64c4.66-1.34,5.43-3.93,5.67-7.54c0.24-3.65,0.05-7.32,0.05-12.5c2.98,4.7,2.08,8.88,2.79,12.55
		c0.73,3.74,1.3,4.59,5.31,3.48c25.98-7.16,52.06-14.03,78.55-19.03c12.53-2.36,25.22-3.98,37.93-5.42
		c15.71-1.78,31.43-2.43,47.13-1.69c29.59,1.4,58.46,6.02,84.62,21.51c15.03,8.9,26.12,20.7,28.37,38.4
		C699.53,350.45,698.11,364.01,693.47,376.99z"/>
	<path class="st1" d="M301.02,118.59c-0.02-0.37-0.04-0.73-0.07-1.11c-0.19-1.95-1.12-3.4-2.38-4.36c-2.42-3.44-6.13-6.17-9.48-6.18
		c-7.83-0.02-15.66,0.01-23.5-0.01c-0.85,0-1.7-0.05-2.43,0.09c-5.03-0.33-9.97,0.19-13.96,3.59c-4.19,3.56-7.23,9.01-9.86,13.76
		c-5.64,10.2-9.57,21.24-14.88,31.61c-0.18,0.35-0.31,0.69-0.42,1.03c-0.6,0.09-1.21,0.13-1.81,0.1c-0.23-0.01-0.46-0.04-0.69-0.07
		c0.37,0.94-0.19,2.22-1.76,4.14c-7.18,8.8-14.38,17.6-21.51,26.44c-7.46,9.24-14.89,18.5-22.87,27.27
		c-5.67,6.24-11.86,12.01-18.06,18.21c0.03,0.2,0.06,0.39,0.08,0.59c0.22,1.76-1.68,3.3-3.28,3.28c-0.29,0-0.55-0.05-0.8-0.11
		c-0.35,0.13-0.71,0.29-1.07,0.51c-6.52,3.91-12.64,8.4-18.59,13.13c-5.61,4.46-11.96,8.95-16.67,14.39
		c-10.51,12.16-0.77,28.77,4.79,40.98c3.27,7.17,6.73,14.29,11.03,20.91c1.69,2.6,3.47,5.68,6.23,7.27c1.21,0.7,2.61,1.09,4.07,1.31
		c0.08,0.05,0.17,0.1,0.25,0.16c5.17-0.21,9.88-1.05,14.6-4.13c5.4-3.52,10.45-7.56,15.66-11.35c0.35-0.26,0.7-0.41,1.05-0.5
		c0.75-0.48,1.74-0.63,2.65-0.44c0.07-1.59,0.63-3.2,2.42-4.93c5.76-5.56,11.52-11.38,16.46-17.66
		c6.13-7.79,13.34-14.56,19.43-22.38c6.48-8.32,14.44-15.49,20.84-23.87c11.09-14.52,22.83-28.61,32.11-44.44
		c6.29-10.73,12.11-21.67,16.87-33.22c1.11-2.7,1.97-6.85,5.78-7.62h-0.65c-1.07,0-1.87-0.43-2.39-1.06
		c1.77-2.9,3.12-6.11,4.31-9.38c0.32-0.56,0.54-1.2,0.67-1.89c0.25-0.72,0.49-1.43,0.73-2.14c3.22-9.56,7.12-18.94,7.2-29.03
		C301.26,120.55,301.22,119.58,301.02,118.59z"/>
	<path class="st1" d="M951.21,660.5c0.09-0.57,0.15-1.15,0.19-1.73c0.58-9.47-4.77-11.56-12.06-11.79
		c-6.99-0.22-14.01,0.1-20.99-0.24c-0.32-0.02-0.66,0-1,0.03c-0.95-0.87-2.25-1.43-3.92-1.43c-1.06,0-1.96,0.23-2.73,0.62
		c-0.35,0.1-0.69,0.22-1.03,0.37c-5.77,2.48-9.93,7.75-11.55,13.72c-0.61-0.06-1.21-0.25-1.73-0.62c0.84,2.86-0.34,5.2-2.5,7.87
		c-7.22,8.93-14.25,18.02-21.04,27.28c-6.92,9.44-14.14,18.65-21,28.15c-5.12,7.08-10.57,13.97-15.67,21.1
		c-5.93,8.31-11.92,16.58-17.78,24.94c-5.12,7.3-10.37,14.54-15.02,22.13c-1.83,2.99-3.22,6.09-6.31,7.99
		c1.33,0.02,2.66,0.06,3.99,0.05c3.4-0.03,5.69,0.56,2.7,4.44c-0.94,1.21-0.33,2.45-0.04,3.77c1.42,6.58,7.67,8.95,11.67,13.19
		c2.17,2.3,5.06,5.53,7.48,6.11c7.02,1.71,13.34,5.45,20.49,6.48c2.3,0.33,4.11,2.49,6.6,1.83c4.93-1.3,9.8-1.13,14.74,0.01
		c1.43,0.33,4.3,0.76,4.07-1.34c-0.51-4.69,3.1-7.24,4.59-10.83c0.85-2.05,2.96-3.64,3.62-5.71c2.64-8.38,0.97-17.57,4.26-25.77
		c1.94-4.82,5.94-9,2.22-14.57c-0.05-0.07,0.08-0.34,0.2-0.44c5.05-4.01,5.89-10.93,10.49-15.24c1.98-8.3,6.65-15.34,10.92-22.51
		c5.3-8.89,10.98-17.55,16.6-26.25c0.74-1.15,1.37-2.6,2.82-3.12c-0.04-0.07-0.07-0.14-0.11-0.21c6.52-4.24,9.92-10.11,13.11-17
		C947.44,684.45,954.2,673.13,951.21,660.5z"/>
	<path class="st1" d="M211.81,795.2c-7.43-11.71-15.05-23.31-22.78-34.83c-4.9-7.3-9.76-14.7-15.37-21.46
		c-5.77-6.96-10.73-14.47-16.23-21.59c-3.11-4.03-5.69-8.49-8.88-12.46c-8.62-10.72-15.25-23.22-27.31-30.9
		c-6.06-1.37-12.41-2.14-18.27-0.59c-12.9,3.42-20.94,13.69-29.46,23.03c-1.69,1.85-1.53,3.56,0.8,5.82
		c5.19,5.05,12.29,7.7,16.66,13.63c1.37,1.86,2.8,3.01,5.26,3.18c2.35,0.16,3.93,1.48,1.89,3.78c0.02,0.07,0.04,0.13,0.06,0.2
		c0.41,0.46,0.78,0.96,1.13,1.48c0.49,0.73,0.52,1.7,0.33,2.53c0,0.01-0.01,0.02-0.01,0.03c12.46,15.2,21.35,31.98,30.45,48.65
		c4.43,8.11,7.52,16.78,11.43,25.1c1.91,4.06,2.31,5.38,0.19,5.83h2.31c2.29,0,3.32,1.92,3.14,3.68c0.66,0.2,1.32,0.4,1.98,0.61
		c14.38-1.89,28.74,0.03,42.95,1.34c9.62,0.89,19.26,2.33,28.94,3.17c0.9,0.08,1.6,0.17,2.16-0.62
		C219.41,808.27,215.85,801.58,211.81,795.2z"/>
	<path class="st1" d="M926.31,131.7c-0.89,0.96-1.74,1.84-3.38-0.13c-5.44-6.49-11.1-12.79-16.69-19.15
		c-0.65-0.73-0.93-1.51-0.89-2.38c-0.2,0.02-0.39,0.03-0.59,0.04c-0.07,0-0.14,0.01-0.21,0.01c-0.33,0.02-0.66,0.04-0.99,0.05
		c-2.21,0.06-3.25-1.7-3.15-3.42c-4.51-2.89-7.6-7.08-9.5-12.8c-1.26-3.76-7.37-5.07-6.71-10.53c-0.48,0.06-0.96,0.17-1.44,0.17
		c-2.82-0.04-4.95-1.54-5.69-4.04c-1.81-6.07-7.88-9.78-8.71-16.48c-0.19-1.5-1.89-3.92-4.47-4.15c-1.06-0.09-2.17-0.55-2.34-1.57
		c-1.16-6.86-7.88-9.1-12.06-12.72c-4.99-4.32-13.25-2.6-19.58-0.9c-5.7,1.53-9.4,6.76-13.33,11.26c-1.7,0.88-2.97,2.57-2.97,5.07
		c-0.02,12.84,3.51,25.07,8.93,36.63c4.88,10.39,11,22.34,20.24,29.52c-0.19,0.25-0.39,0.49-0.6,0.74c1.74,0.86,2.71,2.35,3.53,4.04
		c8.24,16.89,17.52,33.2,27.16,49.31c6.16,10.29,12.5,20.46,20.23,29.68c3.81-1.95,1.93-6.34,4.02-9.32
		c2.34-3.33,4.19-7.23,4.38-11.85c0.09-2.22,3.26-4.17,4.23-6.78c1.35-3.65,2.99-7.16,3.5-11.12c0.71-5.52,5.06-9.54,6.34-14.99
		c1.5-6.35,6.17-11.44,7.95-17.84c0.4-1.43,1.81-2.44,2.79-3.7c-0.07-0.52-0.11-1.05-0.12-1.59
		C926.14,132.36,926.21,132.02,926.31,131.7z"/>
	<path class="st2" d="M975.73,190.18c-5.31-5.93-11.12-11.55-15.97-17.97c-6.93-6.46-13.51-13.42-20.03-20.23
		c-4.97-5.18-12.45-10.06-13.47-17.63c-0.97,1.26-2.39,2.27-2.79,3.7c-1.78,6.4-6.45,11.49-7.95,17.84
		c-1.28,5.45-5.64,9.47-6.34,14.99c-0.51,3.96-2.14,7.47-3.5,11.12c-0.97,2.61-4.14,4.56-4.23,6.78c-0.19,4.61-2.04,8.52-4.38,11.85
		c-2.09,2.98-0.21,7.37-4.02,9.32c0.16,1.05,0.05,2.04-0.19,3c1.16-0.23,2.42,0.11,3.28,1.31c0.93-0.52,2.09,0.58,2.43,1.39
		c2.12,5.19,7,8.2,9.77,12.37c3.7,5.57,8.79,9.34,13.36,13.45c6.26,5.64,13.43,10.33,19.5,16.33c1.97,1.94,7.02,1.65,7.77-0.47
		c2.2-6.24,7.16-10.98,9.19-17.33c0.79-2.47,1.54-5.51,5.34-5.48c0.96,0.01,1.74-1.31,1.51-2.3c-0.81-3.57,1.82-5.21,3.73-7.35
		c1.85-2.07,4.75-3.41,5.54-6.17c1.29-4.52,6.65-6.49,6.86-11.59C981.41,200.79,980.6,195.62,975.73,190.18z"/>
	<path class="st2" d="M223.93,817.68c-0.19-0.93,0.04-1.97,0.6-2.78c-0.45-0.03-0.89-0.05-1.34-0.08c-0.56,0.79-1.26,0.7-2.16,0.62
		c-9.68-0.84-19.32-2.28-28.94-3.17c-14.21-1.31-28.57-3.24-42.95-1.34c0,4-0.03,7.99,0.02,11.99c0.02,1.27-0.52,2.96,0.93,3.63
		c3.58,1.66,3.02,4.79,3.04,7.73c0.04,5,0.33,10.02-0.07,14.98c-0.44,5.43,0.41,10.08,4.96,13.59c1.65,1.27,2.22,3.27,3,5.1
		c2.53,5.96,14.25,10.74,18.63,6.44c2.96-2.9,6.66-4.52,9.2-7.22c4.86-5.16,11.71-4.76,17.3-7.7c3.21-1.68,7.79-0.45,7.53-6.22
		c-0.03-0.57,0.96-1.52,1.66-1.73c7.8-2.38,8.16-9.99,9.39-15.67c1.21-5.58,1.97-12.15-1.06-17.97
		C223.65,817.86,223.76,817.79,223.93,817.68z M215.17,826.83c-0.64,0-1.42-0.02-1.42-0.91c0-0.87,0.78-0.9,1.42-0.9
		c0.64,0,1.33,0.02,1.44,0.91C216.49,826.79,215.81,826.83,215.17,826.83z"/>
	<path class="st0" d="M216.25,155.8c-0.59-0.04-1.08-0.22-1.5-0.47h-2.73c-0.9,0-1.6-0.31-2.12-0.78
		c-7.84-0.78-15.6-2.28-23.48-2.82c-8.9-0.62-17.76-1.78-26.62-2.81c-3.52-0.41-6.39,0.39-8.42,3.45
		c-4.22,6.38-11.57,11.26-10.18,20.35c0.55,3.58,1.66,7.08,2.62,10.59c3.25,11.83,6.73,23.59,9,35.67c0.23,0.23,0.44,0.49,0.61,0.84
		c2.14,4.19,3.26,8.67,3.89,13.3c6.2-6.19,12.39-11.97,18.06-18.21c7.98-8.78,15.41-18.03,22.87-27.27
		c7.14-8.84,14.33-17.64,21.51-26.44c1.57-1.92,2.13-3.2,1.76-4.14C219.73,156.77,218.07,155.92,216.25,155.8z"/>
	<path class="st0" d="M134.84,806.65h6.87c2.12-0.45,1.72-1.77-0.19-5.83c-3.91-8.32-7-16.99-11.43-25.1
		c-9.1-16.67-17.99-33.45-30.45-48.65c-0.15,0.62-0.54,1.16-1.02,1.57c-0.19,0.37-0.39,0.74-0.59,1.11
		c-0.69,2.96-2.05,5.84-3.42,8.43c-0.46,0.86-1.11,1.34-1.82,1.53c-6.16,13.05-10.88,26.79-18.73,39.04
		c-1.61,2.52-2.2,5.28-1.39,8.52c1.23,4.93,3.72,8.72,7.64,11.84c3.76,3,9.09,2.97,12.62,2.98c6.05,0.01,11.78,1.2,17.58,1.97
		c7.87,1.05,15.89,0.8,23.66,2.65C134.38,806.68,134.6,806.65,134.84,806.65z"/>
	<path class="st0" d="M929.76,715.41c-0.23-0.22-0.44-0.46-0.57-0.76c-0.2-0.44-0.42-0.88-0.65-1.3c-0.73-0.85-1.45-1.71-1.95-2.7
		c-0.22-0.12-0.7-0.34-0.14-0.14c-0.82-0.31-1.51-0.85-1.94-1.53c-1.45,0.51-2.07,1.97-2.82,3.12c-5.61,8.7-11.3,17.36-16.6,26.25
		c-4.27,7.17-8.94,14.21-10.92,22.51l1.81-0.07c0.98-0.68,2.12-1.18,3.31-1.5c0.33-0.11,0.68-0.19,1.04-0.23
		c0.61-0.11,1.21-0.18,1.81-0.2c8.47-1.45,16.64-4.81,25.48-4.04c0.71,0.06,1.79-0.32,2.17-0.87c3.34-4.84,6.05-10.11,6.41-15.99
		C936.68,729.76,933.16,722.57,929.76,715.41z"/>
	<path class="st0" d="M933.92,105.63c-1.36-1.67-3.11-2.11-4.92-2.06c-0.03,0.01-0.06,0.02-0.09,0.03
		c-0.22,0.12-0.45,0.23-0.72,0.32c-7.66,2.29-14.85,5.5-22.84,6.13c-0.04,0.86,0.25,1.64,0.89,2.38
		c5.59,6.36,11.26,12.66,16.69,19.15c1.64,1.96,2.5,1.09,3.38,0.13c0.3-0.97,1.01-1.61,1.86-1.91c1.45-5.01,4.97-9.1,6.16-14.28
		C935.12,112.08,936.3,108.54,933.92,105.63z"/>
	<path class="st1" d="M267.16,818.78c2.01,0.2,4.02,0.42,6.02,0.65C271.21,818.97,269.19,818.83,267.16,818.78z"/>
	<path class="st3" d="M597.79,473.09c26.24,9.79,50.26,21.58,68.83,41.96c10.98,12.06,18.38,25.78,19.76,42.83
		c1.38,17.07-2.2,32.94-8.52,48.25c-6.54,15.87-14.8,30.99-27.52,42.97c-15.87,14.96-34.76,24.62-55.57,30.84
		c-29.63,8.86-60.07,9.01-90.45,7.71c-18.68-0.8-37.51-2.1-55.67-7.61c-9.85-2.99-18.8-7.53-26.84-13.94
		c-0.99-0.79-2.17-1.35-3.09-1.9c-3.79,8.43-6.43,17.31-12.67,24.16c-5.07,5.58-10.51,5.45-15.69,0.57
		c-11.91-11.24-18-25.15-19.97-40.87c-0.74-5.89,2.17-11.83,3.74-17.69c5-18.76,9.36-37.63,12.15-56.89
		c2.44-16.88,5-33.73,6.89-50.68c0.73-6.52,1.81-13.01,2.9-19.49c0.88-5.25,0.22-6.1-5.13-6.4c-10.99-0.62-19.64-6.24-28.13-12.65
		c-4.86-3.67-7.47-8.57-9.99-13.66c-2.29-4.62,1.13-13.8,6.28-17.4c3.81-2.67,8.13-4.09,12.61-5.31c9.12-2.5,18.39-4.24,27.69-5.81
		c2.03-0.34,2.58-0.74,2.84-2.88c1.54-12.85,1.81-25.78,2.95-38.65c1.42-16.12,2.14-32.3,3.73-48.42
		c0.63-6.37,1.58-12.81,1.35-19.32c-0.09-2.59-0.87-3.23-3.12-2.83c-30.75,5.39-61.46,10.98-91.56,19.41
		c-4.64,1.3-9.43,0.49-14.42-0.48c8.61-4.35,17.15-8.85,25.84-13.04c25.77-12.43,53.04-20.75,80.42-28.64
		c4.66-1.34,5.43-3.93,5.67-7.54c0.24-3.65,0.05-7.32,0.05-12.5c2.98,4.7,2.08,8.88,2.79,12.55c0.73,3.74,1.3,4.59,5.31,3.48
		c25.98-7.16,52.06-14.03,78.55-19.03c12.53-2.36,25.22-3.98,37.93-5.42c15.71-1.78,31.43-2.43,47.13-1.69
		c29.59,1.4,58.46,6.02,84.62,21.51c15.03,8.9,26.12,20.7,28.37,38.4c1.71,13.47,0.29,27.02-4.35,40.01
		c-6.42,17.97-14.29,35.25-26.88,49.77c-10.22,11.78-22.37,21.5-35.62,29.76C620.62,462.97,609.81,468.52,597.79,473.09z
		 M429.46,605.38c10.62-1.51,21.19,0.1,31.46,1.88c19.52,3.38,39.08,6.45,58.77,8.53c14.96,1.58,30.01,2.41,45.11,2.28
		c15.91-0.14,31.01-2.73,44.73-11.21c12.75-7.88,24.49-16.97,30.96-30.93c5.12-11.05,6.28-22.96,0.05-33.78
		c-5.45-9.46-13.66-16.98-22.49-23.5c-19.7-14.55-42.33-22.78-65.53-29.59c-2.89-0.85-5.73-2.79-8.98-2.01
		c-13.14,3.13-26.56,4.65-39.94,5.7c-17.69,1.39-35.44,2.61-53.23,2.26c-6.08-0.12-12.17-0.36-18.29,0.69
		c-2.92,0.5-3.11,1.6-2.95,3.76c0.33,4.61,0.93,9.22,0.95,13.84c0.1,24.49,0.08,48.98,0.03,73.47
		C430.09,593,428.19,599.2,429.46,605.38z M419.18,328.28c2.04,6.28,1.11,12.77,1.69,19.11c1.17,12.94,1.98,25.93,3.15,38.89
		c1.38,15.29,2.11,30.64,3.09,45.97c0.15,2.32-0.7,5.18,0.38,6.84c1.71,2.63,4.44-0.25,6.79-0.27c15.23-0.15,30.43-0.96,45.64-1.73
		c13.85-0.7,27.63-1.73,41.43-3.02c13.24-1.23,26.37-3.26,39.18-6.45c29.79-7.42,55.72-22.09,76.91-44.53
		c7.87-8.33,14.32-17.8,16.29-29.3c0.76-4.47,3.01-10.26-2.27-13.73c-5.01-3.29-10.44-5.96-16.03-8.26
		c-31.27-12.84-64.25-16.11-97.53-16.29c-10.63-0.06-21.43-0.01-32.18,1.14c-10.82,1.15-21.71,2.12-32.5,3.45
		C455.19,322.33,437.29,325.49,419.18,328.28z"/>
	<path class="st0" d="M429.46,605.38c-1.27-6.17,0.62-12.37,0.64-18.63c0.05-24.49,0.07-48.98-0.03-73.47
		c-0.02-4.61-0.61-9.22-0.95-13.84c-0.16-2.16,0.03-3.26,2.95-3.76c6.12-1.05,12.21-0.82,18.29-0.69
		c17.8,0.36,35.54-0.86,53.23-2.26c13.38-1.05,26.8-2.57,39.94-5.7c3.25-0.78,6.09,1.16,8.98,2.01
		c23.2,6.82,45.83,15.04,65.53,29.59c8.83,6.52,17.05,14.04,22.49,23.5c6.23,10.82,5.07,22.73-0.05,33.78
		c-6.47,13.96-18.21,23.04-30.96,30.93c-13.72,8.48-28.82,11.07-44.73,11.21c-15.11,0.13-30.15-0.7-45.11-2.28
		c-19.68-2.07-39.24-5.15-58.77-8.53C450.65,605.48,440.09,603.86,429.46,605.38z"/>
	<path class="st0" d="M419.18,328.28c18.11-2.79,36.01-5.95,54.02-8.17c10.8-1.33,21.68-2.3,32.5-3.45
		c10.75-1.15,21.55-1.2,32.18-1.14c33.27,0.18,66.25,3.44,97.53,16.29c5.59,2.3,11.02,4.97,16.03,8.26
		c5.28,3.47,3.04,9.26,2.27,13.73c-1.97,11.51-8.42,20.97-16.29,29.3c-21.19,22.44-47.11,37.11-76.91,44.53
		c-12.8,3.19-25.93,5.21-39.18,6.45c-13.8,1.29-27.58,2.31-41.43,3.02c-15.21,0.77-30.42,1.58-45.64,1.73
		c-2.35,0.02-5.08,2.9-6.79,0.27c-1.08-1.66-0.23-4.53-0.38-6.84c-0.98-15.33-1.71-30.68-3.09-45.97
		c-1.17-12.96-1.98-25.95-3.15-38.89C420.29,341.05,421.22,334.56,419.18,328.28z"/>
</g>
<path class="st1" d="M110.63,721.42c-8.84-7.22-20.08-15.21-25.75-25.31c-3.78-6.73-14.15-0.69-10.36,6.06
	c6.26,11.14,17.89,19.78,27.63,27.74C108.08,734.76,116.62,726.31,110.63,721.42z"/>
<path class="st1" d="M226.45,836.61c0.82-3.42,1.06-7.09,0.97-10.91c-0.09-3.95-0.47-8.04-3.37-11.01
	c-3.35-3.45-6.55-2.68-10.85-2.53c-4.99,0.18-10.49-1.39-15.43-2.11c-5.17-0.76-10.33-1.52-15.5-2.27
	c-10.75-1.58-21.65-2.77-32.32-4.86c-0.19-0.04-0.37-0.06-0.56-0.08c-0.15-4.25-0.03-8.53,0.46-12.84c0.86-7.66-11.15-7.6-12,0
	c-2,17.78,1.74,35.47,6.92,52.4c2.5,8.15,5.18,16.27,7.92,24.34c1.45,4.26,3.16,8.18,5.73,11.51c1.11,4.04,2.97,7.56,7.07,8.81
	c7.7,2.34,15.27,0.64,21.46-4.12c6.19-4.75,12.83-10.47,20.33-12.95c3.9-1.29,7.9-1.43,11.47-3.71c3.15-2.01,5.58-4.99,7.14-8.36
	C229.02,851.19,228.42,843.61,226.45,836.61z"/>
<path class="st1" d="M978.83,191.78c-3.11-5.54-8.41-9.62-13.06-13.79c-3.76-3.38-7.52-6.75-11.28-10.13
	c-5.71-7.33-11.04-14.98-16.83-22.26c-10.07-12.66-22.53-23.06-32.69-35.66c-9.79-12.13-18.99-24.69-27.3-37.88
	c-7.27-11.54-15.24-23.24-27.81-29.48c-6.9-3.42-12.98,6.92-6.06,10.36c12.15,6.03,18.9,17.91,25.89,28.96
	c8.36,13.24,18.04,25.82,27.95,37.94c4.03,4.93,8.41,9.52,12.84,14.06c0.13,0.69,0.38,1.39,0.82,2.11c1.38,2.27,2.78,4.5,4.21,6.7
	c-1.39-1.77-3.2-3.03-5.57-3.39c-5.99-0.92-9.83,5.21-5.84,10.03c0.91,1.1,1.82,2.21,2.73,3.34c0.08,0.29,0.17,0.59,0.24,0.89
	c0.26,1.16,0.37,2.21,0.44,3.38c0.07,1.27,0.02,2.53-0.11,3.79c-1.7,1.44-2.89,3.73-3.36,6.26c-0.37,1.98-0.31,3.84,0.05,5.61
	c-1.68,3.95-3.58,7.83-4.56,11.96c-0.23,0.96-0.34,1.89-0.37,2.8c-4.26,0.18-8.21,4.34-5.04,8.62c0.85,1.14,1.73,2.27,2.59,3.4
	c-3.22,0.47-6.33,3.3-5.5,7.44c0.41,2.05,1.18,4.07,2.18,6.06c1.05-0.05,2.12,0.38,2.85,1.5c5.25,8.08,12.9,14.2,18.17,22.26
	c1.38,1.16,2.79,2.29,4.22,3.39c3.1,2.89,6.51,5.27,9.78,8.38c4.5,4.29,8.05,9.37,13.92,11.93c1.32,0.57,2.6,0.68,3.77,0.44
	c2.42,0.98,5.22,0.44,6.6-2.69c2.35-5.34,7.4-8.93,10.12-14.15c2.86-5.49,5.15-10.96,8.62-16.15
	C978.54,217.21,985.89,204.38,978.83,191.78z M918.93,224.65c-0.32-0.3-0.65-0.59-0.97-0.9c-3.64-3.47-8.66-8.07-11.97-13.02
	c2.31,2.65,4.67,5.27,7.12,7.8c2.03,2.1,4.13,4.14,6.24,6.16C919.21,224.68,919.08,224.66,918.93,224.65z M917.94,147.41
	c-0.35-1.03-0.77-2.01-1.27-2.92c2.28,3.44,4.66,6.78,7.2,9.99C921.85,152.17,919.88,149.79,917.94,147.41z"/>
<path class="st1" d="M883.2,757.99c-4.6,11.05-8.06,22.49-11.4,33.98c-1.63,5.6-3.23,11.2-4.96,16.77
	c-0.91,2.93-1.85,5.85-2.85,8.75c-0.74,2.15-1.5,6.42-2.97,8.35c-0.14,0.01-0.33,0.02-0.61,0.02c-1.29,0.03-3.03-0.61-4.33-0.88
	c-2.89-0.59-5.78-1.16-8.66-1.76c-5.48-1.13-10.97-2.33-16.3-4.09c-9.51-3.15-19.48-8.95-23.45-18.67
	c-2.89-7.05-14.5-3.97-11.57,3.19c4.76,11.64,13.99,19.7,25.44,24.61c6.46,2.77,13.22,4.53,20.08,5.99c6.47,1.38,14.01,4,20.65,3.69
	c7.37-0.35,9.59-7.03,11.76-12.93c2.53-6.91,4.69-13.95,6.77-21.01c4.24-14.41,8.19-28.92,13.97-42.82
	C897.73,754.05,886.13,750.95,883.2,757.99z"/>
</svg>
