<?xml version="1.0" encoding="utf-8"?>
<!-- Generator: Adobe Illustrator 26.0.3, SVG Export Plug-In . SVG Version: 6.00 Build 0)  -->
<svg version="1.1" id="Layer_1" xmlns="http://www.w3.org/2000/svg" xmlns:xlink="http://www.w3.org/1999/xlink" x="0px" y="0px"
	 viewBox="0 0 1096.25 1073.82" style="enable-background:new 0 0 1096.25 1073.82;" xml:space="preserve">
<style type="text/css">
	.st0{fill:#F8CE93;}
	.st1{fill:#FAF3DD;}
</style>
<g>
	<path class="st0" d="M917.39,695.69c-0.76-0.42-1.35-1.15-1.64-1.99c-4.39-4.59-7.19-12.41-7.34-18.52
		c-1.8-3.35-2.79-7.08-4.31-10.56c-5.37-12.27-10.19-24.73-14.53-37.43c-7.09-20.76-11.88-42.03-16.11-63.5
		c-4.79-24.32-6.47-48.93-7.27-73.59c-0.42-13.07,1.08-26.17,1.66-39.25c0.81-18.11,3.48-35.98,6.53-53.73
		c4.38-25.44,9.61-50.77,16.32-75.73c3.83-14.24,7.95-28.41,12.52-42.43c2.77-8.49,4.87-17.24,8.79-25.33
		c0.11-0.23,0.19-0.44,0.29-0.66v-2.49c0-1.03,0.39-1.8,0.98-2.33c-0.13-3.89-2.53-7.18-5.32-10.76
		c-5.54-7.11-10.16-14.99-14.69-22.82c-7.89-13.63-15.41-27.48-23.09-41.23c-0.4-0.72-0.91-1.39-1.27-2.13
		c-2.3-4.72-3.28-6.7-5.4-7.44c-0.35,0.4-0.8,0.73-1.4,0.94c-5.49,1.96-11.46,1.22-16.94,3.18c-1.1,0.39-2.01,0.19-2.69-0.33
		c-19.49,6.49-38.94,13.06-58.7,18.73c-33.32,9.56-67.17,16.58-101.48,21.17c-20.65,2.76-41.45,4.59-62.24,6.06
		c-18.04,1.28-36.14,1.77-54.23,2.04c-26.42,0.4-52.82-0.7-79.22-1.73c-18.39-0.71-36.73-2.06-55.1-3
		c-21.53-1.1-42.92-3.67-64.41-5.1c-16.21-0.13-32.36-0.98-48.15-5.04c-0.32-0.08-0.59-0.2-0.84-0.34c-0.21-0.03-0.41-0.06-0.62-0.1
		c-1.69-0.08-3.38-0.14-5.08-0.15c-0.2,0-0.38-0.03-0.57-0.06c-1.44,0.44-2.53,1.51-3.36,3.6c-4.81,12.07-10.46,23.9-17.33,34.77
		c-9.32,14.75-19.19,29.23-30.66,42.59c-8.78,10.23-17.34,20.68-26.21,30.83c-9.9,11.35-19.64,22.89-30.47,33.4
		c-3.31,3.21-6.15,6.59-5.76,11.06c0.52,0.49,0.97,1.11,1.33,1.84c1.12,2.24,1.17,4.82,1.77,7.21c0.72,2.86,1.76,5.64,2.53,8.49
		c0.19,0.72,0.15,1.36-0.05,1.92c1.22,3.69,0.8,7.78-0.16,11.76c1.55,11.47,3.09,22.93,3.82,34.53c1.18,18.79,1.22,37.52-0.46,56.22
		c-1.41,15.64-3.84,31.18-6.76,46.62c-4.01,21.15-8.8,42.16-14.68,62.84c-5.66,19.88-11.79,39.63-18.93,59.09
		c-6.41,17.46-13.13,34.77-20.12,51.98c0.18,2.65-0.42,5.16-1.57,7.57c-0.03,0.06-0.07,0.1-0.1,0.15c-0.12,0.58-0.37,1.12-0.76,1.55
		c0.1,1.28,0.77,2.38,2.52,3.55c7.54,5.04,11.8,13.24,17.38,20.13c7.05,8.7,13.66,17.81,19.77,27.2
		c4.16,6.39,9.17,12.07,13.67,18.16c9.88,13.39,18.8,27.4,27.94,41.27c4.98,7.55,10.57,14.82,14.11,23.15
		c2.94,6.93,7.99,9.1,14.78,9.05c1.79-0.01,3.57,0.03,5.36,0.09c5.08-0.17,10.16-0.61,15.2-0.66c0.9-0.01,1.6,0.29,2.12,0.76
		c6.15-0.49,12.32-0.7,18.3,0.58c5.06,1.08,9.49,3.85,14.51,5.13c0.55,0.14,1.1,0.27,1.65,0.39c9.13,0.85,18.27,1.71,27.33,3
		c19.16,2.74,38.41,4.76,57.57,7.53c21.11,3.06,42.15,6.67,63.45,8.58c16.35,1.47,32.7,2.96,49.07,3.53
		c29.39,1.03,58.66-0.7,87.88-4.64c19.01-2.56,38.15-4.41,57.07-7.54c29.38-4.85,58.69-10.23,87.86-16.19
		c23.67-4.83,47.44-9.42,70.62-16.43c8.01-1.18,11.03-7.59,14.84-13.54c5.56-8.68,11.9-16.86,17.65-25.42
		c6.5-9.68,13.19-19.26,19.99-28.68c5.24-7.26,10.93-14.33,16.46-21.45c11.65-15.02,22.93-30.32,34.96-45.04
		C917.2,699.1,917.63,697.56,917.39,695.69z"/>
	<path class="st1" d="M310.3,192.88c1.32-5.42,4.36-10.18,7.03-15.05c3.82-8.08,5.14-16.75,4.71-25.83
		c-0.22-4.55-6.15-10.55-10.69-10.27c-11,0.66-22.08-1.62-33.06,1.74c-0.61,0.19-1.18,0.38-1.7,0.59c-0.01,0.33-0.06,0.68-0.2,1.06
		c-4.36,11.91-10.08,22.31-17.01,32.91c-2.6,3.98-4.99,8.39-9.39,10.66c-0.38,0.19-0.75,0.36-1.14,0.5
		c-0.53,0.32-1.19,0.5-1.98,0.56c-1.9,0.36-3.85,0.27-5.79-0.05c-0.71,0.03-1.43,0.07-2.14,0.08c4.07,1.06,4.8,2.4,1.75,6.14
		c-7.18,8.81-14.41,17.59-21.52,26.46c-7.42,9.26-15.05,18.33-22.88,27.22c-5.66,6.44-12.13,12.17-18.45,18.44
		c-0.13-0.22-0.24-0.44-0.35-0.67c-0.46,2.39-1.4,4.68-2.75,6.81c-1.18,3.31-4.29,5.69-7.04,7.71c-4.02,2.96-7.93,5.74-11.76,8.95
		c-0.72,0.61-1.54,1.23-2.42,1.88c-0.53,0.89-1.38,1.47-2.57,1.84c-0.19,0.14-0.39,0.27-0.58,0.41c-0.61,0.51-1.23,1.01-1.88,1.47
		c-0.72,0.52-1.46,0.99-2.2,1.44c-3.81,2.8-7.56,5.93-9.87,9.43c0.01,0.66,0.02,1.33,0.04,1.99c0.78,0.51,1.34,1.37,1.33,2.6
		c-0.02,3,0.41,5.87,1.1,8.68c1.22,3.16,2.31,6.43,3.35,9.75c0.49,1.18,0.99,2.37,1.5,3.55c1.52,3.55,3.03,7.1,4.65,10.61
		c0.32,0.49,0.64,0.98,0.99,1.46c2.1,2.9,4.2,6.02,4.88,9.67c4.41,7.16,9.84,13.44,16.93,18.12c1.13,0.1,2.17-0.01,3.01-0.36
		c0.54-0.23,1.03-0.51,1.5-0.83c0.73-0.57,1.43-1.18,2.1-1.83c1.17-1.22,2.23-2.59,3.45-3.81c0.55-0.67,1.1-1.36,1.65-2.07
		c2.45-3.12,5.34-7.58,9.08-9.32c0.32-0.15,0.63-0.26,0.95-0.36c0.66-0.43,1.28-0.56,1.87-0.24c1.22,0.06,2.33,0.54,3.24,1.4
		c-0.39-4.47,2.45-7.85,5.76-11.06c10.83-10.52,20.57-22.05,30.47-33.4c8.86-10.16,17.43-20.61,26.21-30.83
		c11.47-13.36,21.34-27.84,30.66-42.59c6.87-10.87,12.52-22.7,17.33-34.77c0.83-2.09,1.92-3.16,3.36-3.6
		c-1.9-0.31-2.75-2.06-2.57-3.68c-0.03-0.09-0.06-0.18-0.08-0.28C308.9,194.78,309.35,193.45,310.3,192.88z"/>
	<path class="st1" d="M1002.08,233.45c-0.26-1.66-0.18-3.12-1.82-4.3c-3.41-2.46-5.18-6.46-8.18-9.3
		c-5.51-5.22-9.45-11.9-14.73-17.33c-3.6-2.25-7.12-4.62-10.22-7.75c-6.74-6.8-13.25-13.84-18.73-21.71
		c-0.84-1.2-0.69-2.36-0.07-3.25c-0.39-0.55-0.64-1.22-0.73-1.94c-0.1-0.78-0.09-1.54,0-2.29c-0.43,1.24-0.98,2.22-2.76,1.45
		c-2.01-0.87-2.9-4.01-4.75-5.58c-4.57-3.88-7.92-8.8-11.9-13.17c-0.75-0.83-1.58-1.62-1.86-2.64c-0.93,0.2-1.95,0-2.83-0.85
		c-2.81-2.71-5.38-5.61-7.8-8.63c-6.38-9.18-12.76-18.37-19.14-27.55c-5.14-7.4-10.07-15.4-17.3-20.87c-2.98-3.18-6.27-6-10.13-8.18
		c-0.26-0.33-0.52-0.66-0.78-1c-0.78-0.98-1.74-1.19-2.62-0.93c-3.82,0.08-7.65,0.06-11.47,0.01c-2.52-0.03-4.61,0.98-6.94,1.84
		c-2.03,0.75-3.42,2.11-4.64,3.6c-3.24,2.04-6.21,4.52-9.57,6.4c-1.29,0.72-1.64,1.92-1.4,3.02c-0.38,0.6-0.51,1.38-0.2,2.29
		c4.62,13.67,8.69,27.73,14.56,40.93c2.99,6.71,6.56,13.13,10.2,19.51c2.24,3.92,4.26,7.88,8.46,9.17c1.38,1.05,2.37,3.07,4.18,6.78
		c0.36,0.74,0.87,1.41,1.27,2.13c7.68,13.75,15.2,27.6,23.09,41.23c4.53,7.83,9.15,15.71,14.69,22.82
		c2.79,3.58,5.19,6.87,5.32,10.76c1.56-1.4,4.52-1.03,5.35,1.11c0.45,0.38,0.85,0.95,1.12,1.47c5.22,10.39,14.01,17.69,22.36,25.12
		c6.55,5.83,13.86,10.83,20.34,16.85c1.97,1.83,6.02,2.33,7.29-0.6c3.06-7.09,8.79-12.76,10.55-20.49c0.15-0.67,1.03-1.65,1.61-1.68
		c3.61-0.19,4.42-2.33,4.15-5.41c-0.13-1.46,0.9-2.09,1.81-3.11C995.03,253.38,1004.04,246.2,1002.08,233.45z"/>
	<path class="st1" d="M249.77,850.51c3.21,0.27,6.44,0.27,9.68,0.16c-1.79-0.06-3.57-0.1-5.36-0.09
		c-6.79,0.05-11.84-2.12-14.78-9.05c-3.54-8.34-9.13-15.6-14.11-23.15c-9.14-13.87-18.06-27.88-27.94-41.27
		c-4.49-6.09-9.51-11.77-13.67-18.16c-6.11-9.39-12.72-18.5-19.77-27.2c-5.58-6.89-9.84-15.08-17.38-20.13
		c-1.76-1.18-2.43-2.27-2.52-3.55c-0.16,0.17-0.34,0.32-0.54,0.46c-0.23-0.49-0.63-0.94-1.25-1.27c-5.6-3.03-12.07-1.48-18.18,0.77
		c-4.43,0.62-8.9,1.55-12.27,4.63c-3.27,1.16-6.42,2.51-8.76,5.25c-1.62,1.89-2.62,3.93-4.74,5.34c-1.78,1.18-3.66,1.66-5.02,3.41
		c-5.1,6.56,3.17,13.76,8.08,17.23c5.52,3.9,12.17,6.76,16.81,11.66c0.98,2.7,1.38,5.31,1.33,7.83c0.33-0.51,0.76-0.99,1.42-1.36
		c12.24,15.07,21.39,31.93,30.44,48.87c4.34,8.13,7.58,16.72,11.34,25.09c2.45,5.43,2.09,5.6-4.02,5.65
		c-0.83,0.01-1.66,0.04-2.49,0.05c0.03,0.11,0.06,0.2,0.1,0.3c3.5,0.18,6.94,0.78,9.76,2.38c1.21,0.47,2.11,1.17,2.77,2.15
		c1.04,1.09,1.92,2.43,2.56,4.09c2.34,6.06,2.01,12.98,2.11,19.72c0.34,2.5,0.46,5,0.45,7.46c0.07,0.53,0.14,1.05,0.23,1.57
		c1.39,7.92,3.94,16.53,9.23,22.78c4.7,5.56,11.77,6.84,18.52,5.53c0.65-0.39,1.32-0.87,1.99-1.45c7.5-6.53,17.04-11.41,27.63-12.54
		c0.07,0.01,0.13,0.03,0.2,0.03c5.52,0.31,11.14-0.82,15.86-3.82c4.18-2.66,4.8-6.16,4.54-10.88c-0.59-10.55-3.86-20.69-9.34-29.66
		C245.03,849.18,247.45,849.77,249.77,850.51z"/>
	<path class="st1" d="M973.3,688.43c-0.16-1.56-1.27-2.48-2.49-2.76c-1.44-2.96-4.28-3.82-10.23-4.11
		c-8.14-0.39-16.51,2.05-24.44-1.74c-0.83-0.4-1.76,0.02-2.43,0.68c-0.65,0.17-1.26,0.56-1.72,1.27c-0.78,1.19-1.59,2.35-2.4,3.51
		c-0.45,0.52-0.85,1.09-1.19,1.73c-1.35,1.89-2.73,3.75-4.14,5.59c-0.26,0.12-0.53,0.22-0.8,0.31c-0.4,0.45-0.82,0.88-1.27,1.29
		c-0.6,1.36-1.94,2.31-3.44,1.84c-0.49,0-0.95-0.12-1.36-0.34c0.24,1.88-0.19,3.42-1.42,4.92c-12.03,14.73-23.31,30.03-34.96,45.04
		c-5.53,7.12-11.22,14.19-16.46,21.45c-6.8,9.42-13.49,19-19.99,28.68c-5.75,8.56-12.1,16.74-17.65,25.42
		c-3.81,5.95-6.83,12.36-14.84,13.54c0.75,0.45,1.5,0.76,2.26,0.92c-0.82,1.12-0.97,2.64,0.27,3.75c5.36,4.79,11.15,8.98,17.3,12.51
		c5.12,3.96,10.15,8,16.31,10.83c12.44,5.7,25.09,7.82,38.5,6.88c1.13-0.08,2.95,0.17,2.94-1.14c-0.04-3.81,2.45-5.96,4.18-8.89
		c4.19-7.11,6.84-15.12,6.24-23.73c-0.07-1.02,0.1-1.93,0.4-2.83c0.02-0.07,0.05-0.13,0.07-0.2c0.29-0.83,0.69-1.65,1.1-2.52
		c1.75-3.66,3.66-7.62,4.1-11.55c2.64-7,5.34-13.98,8.11-20.93c0.43-0.75,0.85-1.51,1.25-2.27c3.29-11.81,10.48-21.59,16.69-31.87
		c4.34-7.19,8.49-14.54,14.16-20.84c-0.19-0.3-0.41-0.59-0.62-0.89c1.43-3.17,4.57-5.41,7.07-8.03c0.29-0.28,0.52-0.53,0.68-0.75
		c0.53-0.61,1.02-1.24,1.44-1.91c1.46-2.36,2.53-4.87,3.65-7.36c0.37-0.4,0.72-0.81,1.04-1.23c1.21-1.59,1.9-3.58,2.61-5.55
		c0.22-0.32,0.43-0.65,0.67-0.96c1.73-2.24,3.55-4.34,5.18-6.58c0.52-0.2,1.07-0.38,1.7-0.5c0.27-0.05,0.6-0.85,0.57-1.28
		c-0.04-0.6-0.03-1.18,0.01-1.76c0.35-0.64,0.69-1.3,0.99-1.99C973.11,699.09,973.84,693.83,973.3,688.43z"/>
	<path class="st0" d="M238.94,189.77c-10.61-0.31-21-2.63-31.56-3.44c-7.58-0.58-15.29-0.6-22.7-2.1
		c-6.54-1.32-11.02-0.11-14.77,5.46c-3.91,5.81-9.71,10.73-7.8,18.86c0.9,3.85,1.91,7.69,3.05,11.48
		c2.54,8.45,4.85,16.95,6.81,25.54c1.77,2.6,2.84,5.52,3.32,8.58c2.37,4.58,3.01,9.06,2.21,13.21c0.11,0.22,0.22,0.45,0.35,0.67
		c6.32-6.26,12.78-12,18.45-18.44c7.82-8.89,15.46-17.96,22.88-27.22c7.11-8.87,14.33-17.65,21.52-26.46
		C243.73,192.17,243.01,190.83,238.94,189.77z"/>
	<path class="st0" d="M162.56,835.97c-3.77-8.36-7-16.96-11.34-25.09c-9.05-16.95-18.21-33.8-30.44-48.87
		c-0.65,0.38-1.08,0.85-1.42,1.36c-0.19,8.54-5.58,16.12-11.11,23.08c-3.2,7.64-6.54,15.21-10.7,22.43
		c-2.24,3.88-5.52,7.55-4.02,12.78c1.25,4.37,2.86,8.3,6.44,11.46c4.24,3.75,10.09,3.45,14.45,3.7c5.57,0.33,11.06,1.3,16.54,1.96
		c8.36,1.01,16.86,0.81,25.09,2.88c0.83-0.02,1.66-0.05,2.49-0.05C164.65,841.56,165.01,841.4,162.56,835.97z"/>
	<path class="st0" d="M954.32,758.59c-1.64-2.71-3.01-5.55-4.29-8.45c-0.76-1.08-1.55-2.14-2.34-3.18
		c-0.45-0.61-0.55-1.36-0.41-2.09c-0.14-0.36-0.27-0.73-0.34-1.13c-0.34-0.29-0.67-0.58-1-0.88c-5.66,6.3-9.82,13.65-14.16,20.84
		c-6.21,10.27-13.4,20.06-16.69,31.87c0.07,0,0.14,0,0.21-0.01c0.53-0.62,1.33-1.01,2.41-0.96c0.45,0.02,0.89,0.02,1.34,0
		c0.42-0.26,0.87-0.45,1.32-0.61c1.72-1.06,3.63-1.77,5.64-2.1c1.02-0.16,2.03,0.02,2.81,0.55c5.64-1.38,11.22-3.11,17.18-2.85
		c4.63,0.2,8.18-1.26,8.02-6.85c-0.05-1.65,1.11-2.72,1.81-4.02c1.1-2.04,1.54-4.02,1.47-6.54
		C957.15,767.36,955.95,762.9,954.32,758.59z"/>
	<path class="st0" d="M954.66,139.65c-2.7-3.54-6.06-1.24-9.11-0.73c-1.55,0.26-2.92,1.06-4.34,1.75c-0.27,0.95-0.95,1.78-2.16,2.15
		c-3.78,1.16-7.46,2.48-11.46,2.59c-0.16,0-0.3-0.02-0.45-0.03c-0.26,0.13-0.53,0.22-0.81,0.28c0.28,1.02,1.1,1.81,1.86,2.64
		c3.98,4.37,7.33,9.29,11.9,13.17c1.85,1.57,2.75,4.71,4.75,5.58c1.78,0.77,2.33-0.21,2.76-1.45c0.18-1.56,0.67-3.08,1.18-4.58
		c0.46-1.35,1.63-2.31,3.01-2.39c1.27-2.69,2.52-5.39,3.49-8.19C956.48,146.91,957.25,143.05,954.66,139.65z"/>
</g>
<path class="st1" d="M973.32,694.09c-0.21-3.84-6.22-3.86-6,0c0.49,8.68-4.38,15.87-8.74,22.97c-4.68,7.62-9.3,15.09-15.27,21.79
	c-2.56,2.88,1.67,7.14,4.24,4.24c6.72-7.55,11.93-16.02,17.19-24.61C969.36,710.97,973.83,703.19,973.32,694.09z"/>
<path class="st1" d="M1000.35,229.43c-8.05-11.2-16.14-22.46-25.67-32.48c-9.58-10.06-23.78-17.35-29.9-30.19
	c-1.66-3.48-6.84-0.44-5.18,3.03c5.97,12.51,18.85,19.38,28.37,28.87c10.3,10.28,18.82,22.13,27.28,33.91
	c0.77,1.07,1.89,1.41,2.94,1.27c-2.32,9.27-5.26,19.4-12.59,25.54c-0.99-0.09-1.99,0.31-2.62,1.46c-0.16,0.29-0.31,0.57-0.47,0.86
	c-2.99,2.33-4.75,5.25-6.62,8.66c-2.94,5.37-5.88,10.74-8.81,16.11c-0.96-1.28-3.02-2.58-4.01-3.34c-2.87-2.21-6.03-3.95-9.14-5.79
	c-15.03-8.89-25.94-22.41-35.52-36.74c-2.14-3.19-7.34-0.19-5.18,3.03c10.94,16.36,23.28,30.4,40.36,40.46
	c2.2,1.3,4.46,2.6,6.45,4.22c1.79,1.46,2.99,3.4,4.65,4.94c2.23,2.06,4.86,2.5,7.09,0.15c3.3-3.48,5.41-9.53,7.72-13.73
	c2.54-4.64,5.09-9.28,7.63-13.91c1.62-1.06,3.29-2,4.7-3.36c7.36-7.11,10.42-19.92,12.77-29.47
	C1005.28,230.16,1002.33,228.58,1000.35,229.43z"/>
</svg>
