<?xml version="1.0" encoding="utf-8"?>
<!-- Generator: Adobe Illustrator 26.0.3, SVG Export Plug-In . SVG Version: 6.00 Build 0)  -->
<svg version="1.1" id="Layer_1" xmlns="http://www.w3.org/2000/svg" xmlns:xlink="http://www.w3.org/1999/xlink" x="0px" y="0px"
	 viewBox="0 0 792 612" style="enable-background:new 0 0 792 612;" xml:space="preserve">
<style type="text/css">
	.st0{fill:#1D5677;}
	.st1{fill:#1E5877;}
	.st2{fill:#354F5A;}
	.st3{fill:#29546C;}
	.st4{fill:#FADBAF;}
	.st5{fill:#AAD0F0;}
	.st6{fill:#F9DBB0;}
	.st7{fill:#5D81B4;}
	.st8{fill:#C4DFF5;}
	.st9{fill:#D3E4E1;}
	.st10{fill:#3E4B4A;}
	.st11{fill:#E2E3DD;}
	.st12{fill:#F3CF99;}
	.st13{fill:#F8D096;}
</style>
<g>
	<path class="st0" d="M438.08,211.57c2.29,0.54,4.88-0.99,6.97,1c1.73,1.97,3.99,0.74,6.01,0.99c1.96,0.47,4.22-0.79,5.96,1.01
		c0.72,1.29,1.94,1.02,3.08,0.99c2.69,0.05,2.84,1.98,2.93,3.95c-0.01,1.41-0.01,2.81-0.02,4.22c-0.63,0.75-1.26,1.5-1.89,2.25
		c-2.55,3.02-2.97,5.2,1.12,7.81c5.06,3.23,10.42,6.34,13.96,11.52c1.5,2.19,2.87,4.42,2.82,7.21c0,4.74,0,9.48-0.01,14.22
		c-0.59,2.96,1.06,6.16-0.97,8.95c-1.52,1.05-1.05,2.67-1.06,4.09c-0.03,5.62,0.03,11.23,0.05,16.85
		c-0.08,5.68-0.16,11.36-0.24,17.03c-2.43,0.46-1.78,2.41-1.8,3.92c-0.08,6.22-0.08,12.45-0.11,18.67
		c1.52,10.37,1.8,20.82,2.13,31.26c0.02,1.47,0.04,2.94,0.07,4.42c-0.1,1.25-0.19,2.5-0.29,3.75c-0.25,0.35-0.49,0.71-0.74,1.06
		c-0.01,0.32-0.09,0.63-0.25,0.92c-0.76,0.5-0.83,1.26-0.79,2.07c-0.14,0.73,0.1,1.65-0.94,1.95c-0.76-0.36-1.52-0.73-2.28-1.09
		c0.32-0.97,0.65-1.95,0.97-2.92c0.24-0.84,0.17-1.84,1.19-2.27c1.64-2.63,1.34-5.29,0.15-7.98c-2.38-3.63-0.53-7.74-1.3-11.56
		c-0.47-4.03,1.63-8.3-1.15-12.1c-0.21,0.01-0.42,0-0.63-0.02c0.04-4.74-0.47-9.5,0.28-14.23c2.48-0.55,1.56-2.56,1.6-4.01
		c0.12-4.26,0.06-8.52,0.06-12.78c0.03-5.56,0.07-11.13,0.1-16.69c0.31-0.14,0.63-0.29,0.94-0.43c1.6-4.64,1.33-9.3,0.13-13.97
		c-0.77-5.49,0.94-10.77,1.42-16.15c0.6-6.61,1.65-13.42-3.27-18.8c-3.08-3.36-7-5.98-10.71-8.72c-6.59-4.88-7-5.72-4.9-13.13
		c-8.25,3.09-16.64,2.84-25.02,2.82c-21.25-0.05-42.5,0.18-63.74-0.84c-0.64-0.12-1.28-0.23-1.92-0.34
		c-0.36-0.19-0.73-0.38-1.09-0.57c-5.31-0.38-10.63-0.75-15.94-1.13c-4.18-1.05-8.36-2.09-13.07-3.27
		c2.89,3.84,2.66,7.29,0.82,10.65c-2.96,5.41-7.23,9.8-11.76,13.88c-3.44,3.1-5.66,6.92-6.74,11.24c-1.42,5.7-2.89,11.45-2.27,17.45
		c-1.04,0.71-0.69,1.84-0.85,2.81c0.36,5.99-1.45,12.1,0.98,17.98c0.27,0.04,0.53,0.11,0.79,0.18c-0.02,6.89-0.03,13.78-0.05,20.68
		c-0.32,0.43-0.64,0.86-0.95,1.29c-1.97,3.86-0.38,8-0.97,11.97c-0.64,0-1.29,0-1.93,0c-0.01-14.36,0.02-28.71-0.07-43.07
		c-0.01-1.62,0.96-3.76-1.45-4.72c-0.56-3.45-1.31-6.91,0.42-10.27c2.17-2.45,0.67-5.37,1.02-8.05c0.59-8.24,3.01-15.69,9.14-21.59
		c2.03-1.96,4.17-3.84,5.98-5.98c3.81-4.52,8.63-8.78,4.25-15.69c-1.21-1.9-0.03-3.22,2.2-3.92c4.7-1.46,9.37-2.87,14.36-2.75
		c3.02-0.73,6.69,1.87,9.13-1.8c1.91-0.09,3.81-0.17,5.72-0.26c3.06-0.21,6.25,0.99,9.18-0.78c1.08-0.38,2.17-1.13,3.24-1.09
		c11.92,0.48,23.83-2.59,35.65-0.87c5.8,0.85,11.75-0.34,17.37,1.73C431.88,212.74,435.09,211.19,438.08,211.57z M336.89,218.95
		c16.63,4.8,32.84,3.52,48.76,4.44c17.93,1.03,35.96,0.44,53.94,0.13c6-0.1,12.22-0.56,18.45-4.71
		C417.36,209.92,377.64,212.1,336.89,218.95z"/>
	<path class="st1" d="M312.98,329.63c0.64,0,1.29,0,1.93,0c0.7,3.25-1.35,6.88,1.35,9.86c0.22,0,0.43,0.03,0.64,0.08
		c-0.03,6.69-0.07,13.38-0.1,20.07c-2.97,2.33-2.97,4.66,0,6.99c0,0.67,0,1.34,0.01,2.01c-2.67,1.4-2.64,2.73,0.1,3.99
		c0.56,1.66-1.2,4.16,1.78,4.94c0.73,0.71,1.46,1.41,2.19,2.12c0.68,0.68,1.36,1.35,2.04,2.03c8.89,8.42,18.49,15.23,31.64,14.05
		c0.09,0.32,0.22,0.61,0.39,0.89c4.93,2.2,10.09,0.44,15.12,0.9l0.46,0.01l0.44-0.12c3.34,0.01,6.69,0.01,10.03,0.02
		c0.51,0.08,1.01,0.15,1.52,0.23c0.18,0.34,0.37,0.68,0.55,1.01c0.72,0.31,1.45,0.88,2.17,0.89c9.69,0.05,19.39,0.03,29.08,0.02
		c1,0,1.98-0.09,2.54-1.12c0.03-0.26,0.07-0.52,0.11-0.78c5.26-0.05,10.52-0.11,15.79-0.16c2.67-0.46,5.69,1.37,8.04-1.21
		c0-0.22,0.02-0.44,0.06-0.66c10.44,1.23,17.96-5.05,25.96-10.1c1.06,0.36,2.12,0.73,3.18,1.09c-3.36,2.25-5.67,6-9.91,7.01
		c-1.47-0.06-2.97-0.17-3.11,1.92c-3.3,2.17-6.75,3.91-10.8,4.1c-1.73,0.21-3.76-0.95-5.11,1.08c-2.94,1.74-6.41,1.38-9.5,1.65
		c-15.21,1.33-30.49,1.41-45.75,1.2c-1.37-0.02-2.64-0.23-3.76-1.07c-2.91-1.94-5.99-0.84-9.02-0.47
		c-7.56-0.77-15.13-1.54-22.69-2.31c-2.51-0.04-5.02-0.07-7.53-0.1c-4.72-0.61-8.07-3.85-11.87-6.2c-0.1-1.4-0.93-1.87-2.22-1.74
		c-9.08-5.16-15.54-12.09-15.83-23.25c-0.03-0.96-0.45-1.91-0.69-2.86c1.25-1.62,0.71-3.51,0.72-5.27
		C312.99,350.12,312.97,339.88,312.98,329.63z"/>
	<path class="st2" d="M312.98,329.63c-0.01,10.24,0.01,20.49-0.05,30.73c-0.01,1.77,0.54,3.66-0.72,5.27
		c-0.09-22.29-0.14-44.59-0.31-66.88c-0.04-5.64,0.57-11.3-0.44-16.92c2.41,0.97,1.45,3.1,1.45,4.72
		C312.99,300.92,312.97,315.28,312.98,329.63z"/>
	<path class="st2" d="M474.88,336.26c0.03-6.22,0.03-12.45,0.11-18.67c0.02-1.51-0.63-3.46,1.8-3.92
		c-1.58,5.43-0.48,10.99-0.8,16.48C475.87,332.24,476.41,334.44,474.88,336.26z"/>
	<path class="st3" d="M470,386.68c-1.06-0.36-2.12-0.73-3.18-1.09c1.39-1.62,2.78-3.24,4.17-4.86c0.27-0.06,0.54-0.11,0.82-0.14
		c0.76,0.36,1.52,0.73,2.28,1.09C472.6,383.25,472.22,385.71,470,386.68z"/>
	<path class="st2" d="M477.03,296.64c-0.03-5.62-0.08-11.23-0.05-16.85c0.01-1.42-0.46-3.03,1.06-4.09
		c-0.02,5.45,0.03,10.91-0.09,16.36C477.91,293.59,478.71,295.39,477.03,296.64z"/>
	<path class="st2" d="M479,266.75c0-4.74,0-9.48,0.01-14.22C480.61,257.27,480.65,262.01,479,266.75z"/>
	<path class="st3" d="M357.96,211.79c-2.44,3.67-6.11,1.07-9.13,1.8C351.62,211.7,355.02,212.94,357.96,211.79z"/>
	<path class="st2" d="M373.05,402.11c3.03-0.37,6.1-1.47,9.02,0.47C379.06,402.51,376.01,403.22,373.05,402.11z"/>
	<path class="st2" d="M438.08,211.57c-2.98-0.39-6.2,1.17-8.96-1.05C432.06,211.21,435.3,209.43,438.08,211.57z"/>
	<path class="st2" d="M372.86,210.75c-2.93,1.77-6.12,0.57-9.18,0.78C366.61,209.69,369.79,210.9,372.86,210.75z"/>
	<path class="st2" d="M312.89,263.52c-0.35,2.68,1.15,5.6-1.02,8.05C312.44,268.91,310.91,265.99,312.89,263.52z"/>
	<path class="st2" d="M342.82,399.69c2.51,0.03,5.02,0.07,7.53,0.1C347.83,401.11,345.31,401.36,342.82,399.69z"/>
	<path class="st2" d="M451.05,213.56c-2.01-0.26-4.28,0.98-6.01-0.99C447.02,213.03,449.3,211.68,451.05,213.56z"/>
	<path class="st2" d="M441.08,400.8c1.35-2.03,3.37-0.88,5.11-1.08C444.8,401.58,442.73,400.2,441.08,400.8z"/>
	<path class="st2" d="M477.08,371.94c-0.02-1.47-0.04-2.94-0.07-4.42C478.53,368.98,478.37,370.45,477.08,371.94z"/>
	<path class="st2" d="M456.98,395.61c0.14-2.09,1.64-1.99,3.11-1.92C459.42,394.92,458.01,394.95,456.98,395.61z"/>
	<path class="st2" d="M462.99,223.74c0.01-1.41,0.01-2.81,0.02-4.22C464.54,220.93,464.45,222.34,462.99,223.74z"/>
	<path class="st2" d="M328.73,391.75c1.29-0.12,2.12,0.34,2.22,1.74C329.8,393.42,329.28,392.56,328.73,391.75z"/>
	<path class="st2" d="M460.08,215.57c-1.14,0.03-2.36,0.3-3.08-0.99C458.06,214.82,459.44,214.03,460.08,215.57z"/>
	<path class="st2" d="M475.02,379.74c-0.04-0.8,0.03-1.57,0.79-2.07C476.01,378.53,476.15,379.38,475.02,379.74z"/>
	<path class="st2" d="M476.06,376.75c0.25-0.35,0.49-0.71,0.74-1.06C476.95,376.32,476.59,376.6,476.06,376.75z"/>
	<path class="st4" d="M470.99,380.73c-1.39,1.62-2.78,3.24-4.17,4.86c-8,5.05-15.52,11.33-25.96,10.1
		c-2.59,0.36-5.39-1.05-7.78,0.93c-0.14,0.3-0.24,0.62-0.32,0.94c-5.26,0.05-10.52,0.11-15.79,0.16
		c-11.49-0.01-22.97-0.02-34.46-0.03c-0.51-0.08-1.01-0.15-1.52-0.23c-6.95-9.64-15.67-17.81-21.86-28.17
		c-3.45-5.77-7.04-11.49-7.88-17.9c-1.21-9.21-0.86-18.58-1.93-27.92c-1.32-11.51-0.92-23.34,1.67-34.86
		c2.25-0.22,4.2,0.6,6.17,1.59c5.56,2.79,11.53,3.17,17.47,1.98c11.38-2.29,22.62-1.84,34.01,0.07c6.16,1.03,12.14,2.83,18.4,3.58
		c7.65,0.92,14.7-1.14,21.91-2.46c5.94-1.09,11.72-3.03,17.56-4.59c-0.04-0.43-0.08-0.86-0.12-1.3c-3.92-0.43-7.96-0.38-11.74,0.91
		c-8.66,2.96-17.18,4.85-25.74-0.22c-1.06-0.63-2.45-1.12-3.55,0.56c1.03,1.44,3.6,0.96,4.04,2.98c-0.55,1.05-1.45,0.94-2.22,0.77
		c-5.64-1.25-11.31-2.32-16.99-3.39c-10.22-1.93-20.39-2.16-30.62-0.56c-7.24,1.13-14.41,2.01-21.46-1.01
		c-2.26-0.97-4.45-2.36-7.11-1.88c0.07-0.97-0.13-2.07,0.25-2.9c2.37-5.13,2.14-10.84,3.72-16.13c3.14-0.1,6.37,0.2,9.41-0.42
		c2.83-0.58,5.86-1.23,8.35-0.38c9.1,3.11,18.43,2.84,27.77,2.78c4.45-0.03,8.88-1.82,13.3-0.89c8.16,1.71,16.36,0.79,24.55,0.98
		c2.5,0.06,5.44-0.32,6.62,2.95c-1.81,0.24-3.83-0.59-6.35,1.39c3.57,0.32,6.35,2.3,8.3-1.4c7.93,1.45,17.37-1.67,22.77,7.6
		c0.46,0.79,2.05,0.91,3.11,1.35c0.08,0.33,0.16,0.66,0.23,1c0.01,4.82,0.01,9.64,0.02,14.46c-0.03,5.56-0.07,11.13-0.1,16.69
		c-0.36,0.33-0.73,0.66-1.09,0.99c-1.98,4.99-0.5,10.17-0.84,15.25c0.07,0.19,0.16,0.37,0.27,0.55c-0.75,4.73-0.24,9.49-0.28,14.23
		c0.38,3.96-1.16,8.06,0.93,11.89c0.28,0.1,0.56,0.18,0.86,0.24c0.77,3.82-1.08,7.93,1.3,11.56c-0.05,2.66-0.1,5.32-0.15,7.98
		c-1.02,0.43-0.96,1.43-1.19,2.27C470.77,377.86,470.96,379.34,470.99,380.73z M436.96,280.61c1.48-0.26,3.24,0.72,4.54-0.98
		c-1.3-1.7-3.06-0.71-4.54-0.97c-1.65-0.07-3.13-1.52-4.83-0.87c-4.82,1.83-9,0.41-13.24-1.97c-3.5-1.96-6.92-0.23-10.34,1.11
		c5.61-0.05,10.73,1.4,15.6,3.81c1.75,0.87,3.52,1.32,5.19,0.15C431.87,279.11,434.39,279.88,436.96,280.61z M397.41,273.61
		c-3.47-1.56-6.79-4.1-10.88-1.67C390.34,271.71,393.36,275.36,397.41,273.61z M364.56,278.04c2.93,1.71,5.77,2.41,8.74-1.35
		C369.75,277.24,367.16,277.64,364.56,278.04z M382.38,279.99c-2.27-0.27-4.54-0.53-7.85-0.92
		C377.45,281.98,379.8,281.94,382.38,279.99z M406.35,278.36c-1.64-0.41-3.43-1.54-5.11,0.6
		C403.24,279.79,404.85,279.99,406.35,278.36z M455.12,280.66c-2.25-1.28-3.84-1.28-6.78,0C451.15,281.75,452.72,282,455.12,280.66z
		 M460.39,281.47c-0.31-0.72-0.94-0.84-1.6-0.76c-0.62,0.08-1.48,0.1-1.27,1.05c0.16,0.74,0.91,0.85,1.57,0.77
		C459.71,282.46,460.46,282.44,460.39,281.47z"/>
	<path class="st5" d="M473.05,281.57c-0.08-0.33-0.16-0.66-0.23-0.99c-0.08-4.71-4.47-9.5-8.75-11.07
		c-3.59-1.32-7.16,1.31-10.16-0.25c-7.02-3.65-14.41-3.78-21.98-3.68c-4.79,0.07-9.78,0.47-14.34-0.65
		c-4.63-1.13-8.65-1.1-13.3,0.01c-5.68,1.36-11.62,0.87-17.59-0.19c-7.01-1.24-14.01-3.96-21.2-2.76c-3.16,0.53-6.18,2.04-9.54,1.55
		c1.46-11.23,6.08-21.43,10.56-31.64c0.74-1.69,1.62-3.18,1.42-5.07c21.24,1.01,42.49,0.79,63.74,0.84
		c8.38,0.02,16.77,0.27,25.02-2.82c-2.1,7.41-1.69,8.25,4.9,13.13c3.7,2.74,7.63,5.36,10.71,8.72c4.93,5.38,3.87,12.19,3.27,18.8
		c-0.49,5.38-2.19,10.66-1.42,16.15l-0.34-0.02C473.55,281.6,473.3,281.59,473.05,281.57z"/>
	<path class="st6" d="M316.8,368.64c0-0.67,0-1.34-0.01-2.01c0-2.33,0-4.66,0-6.99c0.03-6.69,0.07-13.38,0.1-20.07
		c-0.02-7.73-0.04-15.46-0.06-23.2c0.02-6.89,0.03-13.78,0.05-20.67c0.04-6.63,0.09-13.26,0.13-19.89c1.3-0.76,2.59-1.52,3.89-2.28
		c-0.09,5.01,3.45,8.46,9.65,9.35c-0.14-2.64-2.67-3.24-4.11-4.64c-2.49-2.4-2.4-5.21,0.85-6.49c3.06-1.21,6.18-2.53,9.63-2.13
		c-3.26,9.64-1.56,19.61-2,29.44c-0.04,0.83,0.06,1.74-0.25,2.47c-3.68,8.65-2.48,17.94-1.1,26.42c1.29,7.95,3,16.1,5.08,24.05
		c2.58,9.85,7.56,18.29,12.55,26.79c3.44,5.86,7.74,11.21,11.66,16.79c-2.77,0.07-5.54,0.13-8.3,0.2
		c-13.15,1.18-22.75-5.63-31.64-14.05c-0.01-1.35-0.68-2.04-2.04-2.03c-0.73-0.71-1.46-1.41-2.19-2.12
		c0.09-0.22,0.15-0.44,0.16-0.68c-0.27-2.37,1.27-5.03-1.17-7.04c-0.24-0.03-0.47-0.08-0.7-0.17
		C316.91,369.33,316.86,368.99,316.8,368.64z"/>
	<path class="st7" d="M336.89,218.95c40.75-6.85,80.46-9.03,121.16-0.14c-6.24,4.15-12.45,4.61-18.45,4.71
		c-17.98,0.3-36.02,0.9-53.94-0.13C369.73,222.48,353.52,223.75,336.89,218.95z"/>
	<path class="st5" d="M320.91,273.53c-1.3,0.76-2.59,1.52-3.89,2.28c-0.35-0.36-0.71-0.73-1.06-1.09
		c-0.63-5.99,0.84-11.75,2.27-17.45c1.08-4.33,3.3-8.15,6.74-11.24c4.53-4.08,8.8-8.46,11.76-13.88c1.84-3.36,2.07-6.81-0.82-10.65
		c4.71,1.18,8.89,2.23,13.07,3.27c-1.15,6.84-3.6,13.31-5.47,19.95c-1.96,6.93-4.94,13.6-5.57,20.88c-0.36,0.07-0.72,0.13-1.09,0.2
		c-4.34,0.7-8.52,1.97-12.45,3.92C322.81,270.51,321.23,271.49,320.91,273.53z"/>
	<path class="st8" d="M337.94,265.6c0.63-7.28,3.61-13.95,5.57-20.88c1.87-6.64,4.32-13.11,5.47-19.95
		c5.31,0.38,10.63,0.75,15.94,1.13c0.17,0.38,0.33,0.75,0.5,1.13c0.2-0.19,0.39-0.37,0.59-0.56c0.64,0.11,1.28,0.23,1.92,0.34
		c0.2,1.89-0.67,3.37-1.42,5.07c-4.47,10.22-9.1,20.41-10.56,31.64c-0.31,0.08-0.63,0.14-0.96,0.16
		C349.07,262.16,343.77,266.24,337.94,265.6z"/>
	<path class="st9" d="M315.96,274.72c0.35,0.36,0.71,0.72,1.06,1.09c-0.04,6.63-0.09,13.26-0.13,19.89
		c-0.26-0.08-0.52-0.14-0.79-0.18c-0.83-5.97,1.03-12.08-0.99-17.98C315.26,276.55,314.92,275.43,315.96,274.72z"/>
	<path class="st9" d="M316.83,316.37c0.02,7.73,0.04,15.47,0.06,23.2c-0.21-0.05-0.42-0.07-0.64-0.08
		c-0.13-7.28-0.25-14.55-0.38-21.83C316.2,317.23,316.52,316.8,316.83,316.37z"/>
	<path class="st10" d="M315.88,317.66c0.13,7.28,0.25,14.55,0.38,21.83c-2.7-2.98-0.65-6.61-1.35-9.86
		C315.5,325.66,313.91,321.52,315.88,317.66z"/>
	<path class="st10" d="M315.1,277.53c2.02,5.9,0.15,12.02,0.99,17.98C313.66,289.63,315.47,283.52,315.1,277.53z"/>
	<path class="st10" d="M471.31,329.51c-0.11-0.17-0.2-0.35-0.27-0.55c1.96-4.99,0.48-10.17,0.84-15.25
		c0.36-0.33,0.73-0.66,1.09-0.99c-0.01,4.26,0.06,8.52-0.06,12.78C472.87,326.94,473.78,328.96,471.31,329.51z"/>
	<path class="st10" d="M473.97,375.4c0.05-2.66,0.1-5.32,0.15-7.98C475.31,370.1,475.61,372.77,473.97,375.4z"/>
	<path class="st10" d="M474.15,281.63c1.2,4.67,1.47,9.33-0.13,13.97c-0.07-4.66-0.14-9.33-0.2-13.99L474.15,281.63z"/>
	<path class="st9" d="M473.81,281.61c0.07,4.66,0.14,9.33,0.2,13.99c-0.31,0.14-0.63,0.29-0.94,0.43
		c-0.01-4.82-0.02-9.64-0.02-14.46C473.3,281.59,473.55,281.6,473.81,281.61z"/>
	<path class="st9" d="M471.96,355.62c-2.09-3.82-0.55-7.93-0.93-11.89c0.21,0.02,0.42,0.02,0.63,0.02
		C471.76,347.71,471.86,351.67,471.96,355.62z"/>
	<path class="st10" d="M471.96,355.62c-0.1-3.96-0.2-7.91-0.29-11.87c2.78,3.81,0.68,8.08,1.15,12.1
		C472.52,355.81,472.24,355.73,471.96,355.62z"/>
	<path class="st11" d="M470.99,380.73c-0.02-1.38-0.22-2.87,1.79-3.06c-0.32,0.97-0.65,1.95-0.97,2.92
		C471.53,380.62,471.26,380.67,470.99,380.73z"/>
	<path class="st5" d="M366.01,226.47c-0.2,0.19-0.39,0.37-0.59,0.56c-0.17-0.38-0.33-0.75-0.5-1.13
		C365.28,226.09,365.65,226.28,366.01,226.47z"/>
	<path class="st11" d="M337.94,265.6c5.83,0.64,11.13-3.44,17.06-1.92c-0.01,0.98-0.01,1.96-0.02,2.94
		c-1.59,5.29-1.35,11-3.72,16.13c-0.38,0.83-0.18,1.93-0.25,2.9c0,0.99-0.01,1.97-0.01,2.96c-2.59,11.52-2.99,23.35-1.67,34.86
		c1.07,9.34,0.73,18.71,1.93,27.92c0.84,6.41,4.43,12.13,7.88,17.9c6.2,10.35,14.92,18.53,21.86,28.17
		c-3.34-0.01-6.69-0.01-10.03-0.02c-2.01-3.63-5.46-1.01-8.11-1.88c-3.92-5.58-8.22-10.93-11.66-16.79
		c-4.99-8.5-9.97-16.94-12.55-26.79c-2.08-7.96-3.79-16.1-5.08-24.05c-1.37-8.48-2.58-17.76,1.1-26.42
		c0.31-0.73,0.21-1.64,0.25-2.47c0.44-9.83-1.26-19.8,2-29.44c-0.02-1.27-0.04-2.54-0.07-3.82
		C337.22,265.73,337.58,265.67,337.94,265.6z"/>
	<path class="st10" d="M416.86,398.49c-0.56,1.03-1.54,1.12-2.54,1.12c-9.69,0.01-19.39,0.03-29.08-0.02
		c-0.73,0-1.45-0.58-2.17-0.89C394.33,398.63,405.6,398.56,416.86,398.49z"/>
	<path class="st9" d="M416.86,398.49c-11.27,0.07-22.53,0.14-33.8,0.21c-0.18-0.34-0.36-0.68-0.55-1.01
		c11.49,0.01,22.97,0.02,34.46,0.03C416.93,397.98,416.9,398.23,416.86,398.49z"/>
	<path class="st9" d="M362.86,395.57c2.65,0.86,6.1-1.76,8.11,1.88c0,0-0.44,0.12-0.44,0.12s-0.46-0.01-0.46-0.01
		c-4.94-1.99-10.09-0.45-15.12-0.9c-0.17-0.28-0.3-0.58-0.39-0.89C357.32,395.7,360.09,395.63,362.86,395.57z"/>
	<path class="st2" d="M354.94,396.66c5.03,0.45,10.18-1.09,15.12,0.9C365.03,397.09,359.87,398.85,354.94,396.66z"/>
	<path class="st0" d="M316.8,359.64c0,2.33,0,4.66,0,6.99C313.83,364.3,313.82,361.97,316.8,359.64z"/>
	<path class="st2" d="M318.84,376.89c-0.01,0.24-0.06,0.46-0.16,0.68c-2.99-0.79-1.22-3.28-1.78-4.94c0.02-0.98,0.05-1.96,0.07-2.94
		c0.23,0.08,0.46,0.14,0.7,0.16C318.63,372.1,316.9,374.8,318.84,376.89z"/>
	<path class="st0" d="M316.97,369.68c-0.02,0.98-0.04,1.96-0.07,2.94c-2.75-1.26-2.77-2.59-0.1-3.99
		C316.86,368.99,316.91,369.33,316.97,369.68z"/>
	<path class="st9" d="M433.08,396.61c2.39-1.98,5.19-0.57,7.78-0.93c-0.04,0.22-0.06,0.44-0.06,0.66
		C438.23,396.44,435.66,396.53,433.08,396.61z"/>
	<path class="st10" d="M433.08,396.61c2.57-0.09,5.15-0.18,7.72-0.27c-2.35,2.58-5.37,0.75-8.04,1.21
		C432.84,397.23,432.94,396.92,433.08,396.61z"/>
	<path class="st11" d="M320.87,379.69c1.37-0.01,2.03,0.68,2.04,2.03C322.23,381.04,321.55,380.36,320.87,379.69z"/>
	<path class="st12" d="M354.98,266.62c0.01-0.98,0.01-1.96,0.02-2.94c0.32-0.02,0.64-0.07,0.96-0.16c3.36,0.49,6.38-1.02,9.54-1.55
		c7.2-1.19,14.2,1.52,21.2,2.76c5.98,1.06,11.91,1.55,17.59,0.19c4.65-1.11,8.67-1.15,13.3-0.01c4.56,1.12,9.55,0.71,14.34,0.65
		c7.57-0.11,14.96,0.02,21.98,3.68c3.01,1.56,6.57-1.07,10.16,0.25c4.28,1.57,8.67,6.36,8.75,11.07c-1.07-0.43-2.66-0.56-3.11-1.35
		c-5.4-9.27-14.84-6.15-22.77-7.6c-0.65,0-1.3,0.01-1.95,0.01c-1.18-3.27-4.12-2.89-6.62-2.95c-8.19-0.19-16.39,0.74-24.55-0.98
		c-4.43-0.93-8.86,0.86-13.3,0.89c-9.34,0.07-18.67,0.34-27.77-2.78c-2.48-0.85-5.51-0.19-8.35,0.38
		C361.35,266.82,358.12,266.52,354.98,266.62z"/>
	<path class="st13" d="M350.99,288.62c0-0.99,0.01-1.97,0.01-2.96c2.66-0.48,4.85,0.92,7.11,1.88c7.05,3.02,14.22,2.14,21.46,1.01
		c10.23-1.6,20.39-1.37,30.62,0.56c5.68,1.07,11.35,2.13,16.99,3.39c0.76,0.17,1.66,0.28,2.22-0.77c-0.44-2.02-3-1.55-4.04-2.98
		c1.11-1.67,2.5-1.18,3.55-0.56c8.57,5.06,17.08,3.18,25.74,0.22c3.78-1.29,7.82-1.34,11.74-0.91c0.04,0.43,0.08,0.86,0.12,1.3
		c-5.85,1.56-11.63,3.51-17.56,4.59c-7.21,1.32-14.26,3.38-21.91,2.46c-6.26-0.75-12.24-2.55-18.4-3.58
		c-11.39-1.91-22.63-2.36-34.01-0.07c-5.94,1.19-11.91,0.81-17.47-1.98C355.19,289.22,353.24,288.4,350.99,288.62z M432.92,292.38
		c0.13-0.07,0.27-0.14,0.4-0.21c-0.12-0.09-0.22-0.25-0.35-0.26c-0.13-0.01-0.26,0.12-0.39,0.2
		C432.69,292.19,432.81,292.29,432.92,292.38z"/>
	<path class="st13" d="M436.96,280.61c-2.57-0.73-5.08-1.5-7.62,0.28c-1.68,1.18-3.44,0.72-5.19-0.15c-4.87-2.4-9.99-3.85-15.6-3.81
		c3.42-1.33,6.85-3.07,10.34-1.11c4.24,2.38,8.42,3.8,13.24,1.97c1.69-0.64,3.17,0.8,4.83,0.87
		C436.96,279.31,436.96,279.96,436.96,280.61z"/>
	<path class="st12" d="M397.41,273.61c-4.06,1.75-7.08-1.9-10.88-1.67C390.63,269.51,393.94,272.05,397.41,273.61z"/>
	<path class="st13" d="M364.56,278.04c2.59-0.4,5.19-0.8,8.74-1.35C370.33,280.45,367.49,279.75,364.56,278.04z"/>
	<path class="st13" d="M382.38,279.99c-2.59,1.95-4.94,1.99-7.85-0.92C377.84,279.45,380.11,279.72,382.38,279.99z"/>
	<path class="st13" d="M444.98,271.64c0.65,0,1.3-0.01,1.95-0.01c-1.95,3.71-4.73,1.72-8.3,1.4
		C441.14,271.04,443.17,271.88,444.98,271.64z"/>
	<path class="st9" d="M471.88,313.71c-0.36,5.08,1.12,10.26-0.84,15.25C471.38,323.88,469.9,318.7,471.88,313.71z"/>
	<path class="st13" d="M406.35,278.36c-1.51,1.62-3.11,1.42-5.11,0.6C402.92,276.83,404.71,277.96,406.35,278.36z"/>
	<path class="st13" d="M455.12,280.66c-2.4,1.34-3.98,1.1-6.78,0C451.28,279.38,452.87,279.38,455.12,280.66z"/>
	<path class="st12" d="M436.96,280.61c0-0.65,0-1.3,0-1.94c1.48,0.26,3.24-0.73,4.54,0.97
		C440.19,281.33,438.44,280.35,436.96,280.61z"/>
	<path class="st12" d="M460.39,281.48c0.06,0.96-0.69,0.98-1.31,1.06c-0.66,0.08-1.41-0.03-1.57-0.77c-0.2-0.95,0.66-0.97,1.27-1.05
		C459.45,280.63,460.07,280.76,460.39,281.48z"/>
	<path class="st12" d="M336.85,265.8c0.02,1.27,0.04,2.54,0.07,3.82c-3.45-0.4-6.56,0.92-9.63,2.13c-3.25,1.28-3.35,4.09-0.85,6.49
		c1.45,1.4,3.97,2,4.11,4.64c-6.2-0.88-9.74-4.33-9.65-9.35c0.32-2.04,1.9-3.02,3.49-3.81C328.34,267.77,332.51,266.5,336.85,265.8z
		"/>
	<path class="st9" d="M318.84,376.89c-1.94-2.09-0.21-4.79-1.17-7.04C320.11,371.85,318.57,374.52,318.84,376.89z"/>
	<path class="st4" d="M432.92,292.38c-0.11-0.09-0.23-0.19-0.34-0.28c0.13-0.07,0.27-0.21,0.39-0.2c0.12,0.01,0.23,0.17,0.35,0.26
		C433.19,292.24,433.06,292.31,432.92,292.38z"/>
</g>
</svg>
