<?xml version="1.0" encoding="utf-8"?>
<!-- Generator: Adobe Illustrator 26.0.3, SVG Export Plug-In . SVG Version: 6.00 Build 0)  -->
<svg version="1.1" id="Layer_1" xmlns="http://www.w3.org/2000/svg" xmlns:xlink="http://www.w3.org/1999/xlink" x="0px" y="0px"
	 viewBox="0 0 792 612" style="enable-background:new 0 0 792 612;" xml:space="preserve">
<style type="text/css">
	.st0{fill:#1D5978;}
	.st1{fill:#127077;}
	.st2{fill:#168D95;}
	.st3{fill:#178C95;}
	.st4{fill:#5BAEBB;}
	.st5{fill:#188C95;}
	.st6{fill:#4391A6;}
	.st7{fill:#146876;}
	.st8{fill:#166E84;}
</style>
<g>
	<path class="st0" d="M341.38,218.34c24.4-0.36,45.81,4.12,66.75,12.12c9.13,3.49,18.24,6.93,27.24,10.77
		c12.07,5.15,24.35,2.3,36.02-1.54c26.62-8.76,52.87-18.62,79.53-27.23c13.75-4.44,26.9-10.78,40.96-14.01
		c16.76-3.85,33.66-3.96,49.86,3.21c7.29,3.22,12.57,8.09,12.53,16.89c-0.05,9.36-3.89,15.9-12.5,19.01
		c-13.46,4.86-27.28,8.56-41.3,11.49c-23.36,4.87-45.52,13.52-68.04,21.08c-16.37,5.5-32.84,10.58-48.84,17.22
		c-11.15,4.63-15.83,11.37-15.52,23.86c0.68,28.04-5.52,55.15-14.51,81.62c-1.07,3.15-2.5,6.18-3.46,9.35
		c-8.21,27.03-27.89,43.55-52.04,55.23c-43.57,21.07-93.34,10.74-127.21-25.85c-26.55-28.68-40-62.73-40.84-101.78
		c-0.04-1.68-0.22-3.23-0.95-4.82c-11.49-25.25-6.1-47.77,11.88-67.68c18.13-20.08,41.93-29.94,67.75-35.63
		C320.09,219.14,331.67,217.85,341.38,218.34z M286.99,435.65l-0.03-0.01c0.08,1.93,1.81,2.31,3.01,3.18
		c0.31,0.27,0.62,0.54,0.92,0.81c0.36,0.15,0.72,0.3,1.08,0.46c3.57,3.92,8.65,5.46,13.04,8.02c7.87,4.59,16.49,7.26,25.26,9.84
		c8.41,2.47,16.84,1.4,25.19,2.1c4.52,0.38,9.9,0.86,14.55-1.42c5.98-0.76,11.65-2.69,17.17-4.93c12.69-5.17,24.44-11.9,33.96-22.01
		c3.12-0.02,5.44-1.63,7.13-4c9.24-12.98,14.92-27.65,19.58-42.69c3.76-12.13,7.04-24.42,9.47-36.91
		c2.02-10.39,2.96-20.88,3.3-31.57c-3.57,10.01-9.69,18.33-16.62,26.13c-4.55,3.62-8.64,7.74-13.29,11.27
		c-5.32,4.04-11.71,6.26-16.76,10.64c-2.03,0.7-4.11,1.3-6.09,2.13c-18.81,7.92-38.37,12.32-58.81,12.98
		c-17.83,0.58-35.3-1.11-52.58-5.86c-14.01-3.86-27.02-9.48-39.02-17.69c-7.61-5.21-14.44-11.24-20.65-18.35
		c-0.95,1.49-0.68,2.56-0.39,3.69c1.36,5.28,2.14,10.68,3.43,15.99c3.72,15.24,9.48,29.62,17.51,43.04
		c7.33,12.25,15.77,23.68,26.64,33.13C284.57,434.89,285.49,435.69,286.99,435.65z M342.57,371.5c10.99,0.86,22.61-1.48,34.43-3.56
		c13.36-2.35,25.67-7,37.22-13.42c12.72-7.07,24.18-15.92,32.39-28.58c3.63-5.59,6.27-11.7,7.03-17.7
		c1.7-13.44,0.86-26.99-7.67-38.63c-4.37-5.96-7.97-13.09-13.68-17.31c-7.95-5.88-16.13-11.74-25.73-15.43
		c-15.28-5.87-30.7-10.49-47.13-11.27c-1.66-0.08-3.33-0.1-4.96-0.35c-11.12-1.7-22.19,0.34-33.2,1.1
		c-4.5,0.31-9.54-0.01-13.69,1.59c-10.37,4-21.45,5.62-31.4,11.35c-11.03,6.36-21.99,12.5-30.43,22.19
		c-2.78,3.19-4.74,7.08-7.25,10.52c-5.15,7.05-8.07,14.95-8.4,23.61c-0.21,5.51-0.4,10.97,1.69,16.53
		c2.73,7.26,5.7,14.49,10.46,20.37c10.96,13.51,25.33,22.81,41.48,28.94C302.28,368.49,321.5,372.57,342.57,371.5z M442.33,251.04
		c5.52,6.54,11.04,12.31,14.36,19.67c2.38,5.26,5.18,10.31,5.49,16.35c0.21,4.1,1.98,5.4,3.6,3.58
		c8.75-9.79,21.11-12.61,32.61-17.03c15.61-6,31.82-10.23,47.43-16.27c11.88-4.59,23.88-8.96,36.31-12
		c8.52-2.08,17.02-4.25,25.54-6.33c10.41-2.54,20.51-6.37,30.81-9.42c5.29-1.57,6.53-5.97,7.33-10.28c0.78-4.22-2.1-7.46-5.46-9.33
		c-13.91-7.73-29.11-8.06-44.11-5.4c-14.65,2.6-28.01,9.83-42.29,14.11c-20.12,6.02-39.76,13.63-59.73,20.15
		c-10.19,3.33-20.21,7.2-30.84,9.33C456.55,249.55,449.48,248.69,442.33,251.04z"/>
	<path class="st1" d="M342.57,371.5c-21.07,1.07-40.29-3.01-58.84-10.05c-16.15-6.13-30.52-15.43-41.48-28.94
		c-4.77-5.88-7.73-13.11-10.46-20.37c-2.09-5.56-1.9-11.01-1.69-16.53c0.33-8.66,3.25-16.55,8.4-23.61
		c2.51-3.44,4.48-7.33,7.25-10.52c8.44-9.69,19.4-15.83,30.43-22.19c9.95-5.74,21.03-7.35,31.4-11.35c4.15-1.6,9.19-1.28,13.69-1.59
		c11.02-0.76,22.08-2.8,33.2-1.1c1.63,0.25,3.3,0.27,4.96,0.35c16.43,0.78,31.85,5.4,47.13,11.27c9.6,3.69,17.78,9.55,25.73,15.43
		c5.71,4.22,9.31,11.35,13.68,17.31c8.54,11.65,9.38,25.19,7.67,38.63c-0.76,5.99-3.4,12.1-7.03,17.7
		c-8.21,12.66-19.67,21.51-32.39,28.58c-11.54,6.42-23.86,11.07-37.22,13.42C365.19,370.02,353.56,372.37,342.57,371.5z M410,345.33
		c0.14-2.43-1.25-4.25-2.93-5.5c-4.23-3.18-8.41-6.43-13.53-8.26c-16.52-5.89-33.39-5.93-50.47-3.5
		c-14.87,2.12-27.88,8.78-40.31,16.72c-4.47,2.85-8.46,6.39-11.68,10.72c-0.9,1.21-1.55,2.35-0.43,3.49
		c1.06,1.08,2.14,0.12,3.06-0.59c1.82-1.4,4.35-2.14,5.77-3.59c8.22-8.36,18.37-12.43,29.34-15.98c12.89-4.17,25.83-6.04,39.14-5.14
		c11.42,0.77,22.19,4.08,31.78,10.71c1.9,1.31,3.03,3.43,5.38,4.3C408.67,350.05,410.12,349.17,410,345.33z"/>
	<path class="st2" d="M283.98,433.6c-10.86-9.44-19.31-20.88-26.64-33.13c-8.03-13.42-13.79-27.8-17.51-43.04
		c-1.3-5.31-2.07-10.71-3.43-15.99c-0.29-1.13-0.57-2.21,0.39-3.69c6.21,7.11,13.04,13.14,20.65,18.35
		c11.99,8.21,25.01,13.83,39.02,17.69c17.28,4.75,34.75,6.44,52.58,5.86c20.43-0.66,40-5.06,58.81-12.98
		c1.98-0.83,4.06-1.43,6.09-2.13c-0.76,6.11-2.63,11.91-4.78,17.65c-4.92,13.09-12.58,24.81-18.61,37.34
		c-6.39,13.27-13.48,26.17-20.54,39.08c-4.65,2.27-10.03,1.79-14.55,1.42c-8.35-0.69-16.78,0.37-25.19-2.1
		c-8.77-2.58-17.39-5.24-25.26-9.84c-4.4-2.57-9.47-4.1-13.04-8.03c-0.51-2.79-2.06-4.4-5-4.44c0,0,0.03,0.01,0.03,0.01
		C286.44,434.29,285.43,433.62,283.98,433.6z"/>
	<path class="st3" d="M442.33,251.04c7.15-2.36,14.22-1.5,21.06-2.87c10.63-2.13,20.64-6,30.84-9.33
		c19.98-6.52,39.62-14.12,59.73-20.15c14.28-4.28,27.64-11.51,42.29-14.11c15-2.66,30.2-2.33,44.11,5.4
		c3.37,1.87,6.25,5.1,5.46,9.33c-0.8,4.32-2.05,8.72-7.33,10.28c-10.3,3.05-20.39,6.87-30.81,9.42c-8.52,2.08-17.02,4.25-25.54,6.33
		c-12.44,3.04-24.43,7.4-36.31,12c-15.61,6.04-31.83,10.28-47.43,16.27c-11.5,4.42-23.86,7.24-32.61,17.03
		c-1.63,1.82-3.39,0.51-3.6-3.58c-0.31-6.04-3.12-11.08-5.49-16.35C453.37,263.35,447.85,257.58,442.33,251.04z M577.59,221.45
		c2.63,0.53,5.6,0.92,8.42,1.8c1.6,0.49,3.74,0.94,3.9,3.3c0.16,2.36-1.72,3.14-3.4,3.76c-6.18,2.33-11.98,5.45-18.56,7.02
		c-8.66,2.07-17,5.46-25.46,8.34c-11.3,3.86-22.79,7.1-34.09,10.99c-8.16,2.82-15.62,7.29-24.06,9.37
		c-8.04,1.98-14.73,5.99-18.45,13.82c-0.94,1.98-2.03,4.66,0.24,5.78c1.98,0.98,2.46-2.12,3.4-3.43c1.81-2.51,2.61-6.06,6.3-6.51
		c3.24-0.39,5.99-1.84,8.79-3.22c16.1-7.92,32.98-13.73,50.08-19.05c18.33-5.71,37.39-9.16,54.77-17.8c3.79-1.88,6.86-4.22,6.5-8.97
		c-0.34-4.51-3.03-6.79-7.23-8.37c-7.74-2.92-15.5-1.61-23.1-0.44c-6.3,0.97-12.9,1.5-18.67,4.79c-1.17,0.67-3.43,0.94-2.57,2.95
		c0.78,1.83,2.55,0.79,3.94,0.38C557.79,223.22,567.68,223.45,577.59,221.45z"/>
	<path class="st4" d="M370.01,458.62c7.06-12.92,14.16-25.81,20.54-39.08c6.03-12.53,13.69-24.25,18.61-37.34
		c2.15-5.73,4.02-11.54,4.78-17.65c5.05-4.38,11.44-6.61,16.76-10.64c4.65-3.53,8.74-7.66,13.29-11.27
		c0.31,6.35-1.11,12.55-2.47,18.62c-5.33,23.88-10.54,47.83-20.39,70.42c-9.52,10.11-21.26,16.85-33.96,22.01
		C381.66,455.93,375.98,457.86,370.01,458.62z"/>
	<path class="st5" d="M421.13,431.67c9.86-22.58,15.06-46.53,20.39-70.42c1.36-6.08,2.78-12.27,2.47-18.62
		c6.93-7.8,13.05-16.12,16.62-26.13c-0.34,10.68-1.28,21.18-3.3,31.57c-2.43,12.49-5.71,24.78-9.47,36.91
		c-4.66,15.04-10.35,29.72-19.58,42.69C426.57,430.04,424.25,431.66,421.13,431.67z"/>
	<path class="st6" d="M286.96,435.64c2.94,0.05,4.49,1.66,5,4.44c-0.36-0.15-0.72-0.3-1.07-0.45c-0.31-0.27-0.62-0.54-0.92-0.81
		C288.76,437.94,287.04,437.57,286.96,435.64z"/>
	<path class="st6" d="M283.98,433.6c1.45,0.02,2.46,0.69,3,2.04C285.49,435.69,284.57,434.89,283.98,433.6z"/>
	<path class="st2" d="M289.96,438.82c0.31,0.27,0.62,0.54,0.92,0.81C290.58,439.36,290.27,439.09,289.96,438.82z"/>
	<path class="st7" d="M410,345.34c0.12,3.84-1.33,4.71-4.87,3.4c-2.34-0.87-3.48-2.99-5.38-4.3c-9.58-6.63-20.36-9.94-31.78-10.71
		c-13.31-0.9-26.25,0.97-39.14,5.14c-10.97,3.55-21.12,7.62-29.34,15.98c-1.43,1.45-3.95,2.19-5.77,3.59
		c-0.93,0.71-2.01,1.66-3.06,0.59c-1.12-1.14-0.47-2.28,0.43-3.49c3.22-4.33,7.21-7.87,11.68-10.72
		c12.43-7.93,25.44-14.59,40.31-16.72c17.08-2.44,33.95-2.4,50.47,3.5c5.12,1.83,9.31,5.08,13.53,8.26
		C408.75,341.09,410.14,342.91,410,345.34z"/>
	<path class="st8" d="M577.59,221.45c-9.91,2-19.8,1.77-29.24,4.53c-1.39,0.41-3.15,1.45-3.94-0.38c-0.86-2.01,1.4-2.28,2.57-2.95
		c5.77-3.29,12.36-3.82,18.67-4.79c7.61-1.17,15.36-2.48,23.1,0.44c4.2,1.58,6.89,3.86,7.23,8.37c0.36,4.75-2.71,7.09-6.5,8.97
		c-17.38,8.64-36.45,12.1-54.77,17.8c-17.1,5.33-33.98,11.14-50.08,19.05c-2.8,1.38-5.55,2.82-8.79,3.22c-3.68,0.45-4.48,4-6.3,6.51
		c-0.94,1.31-1.43,4.41-3.4,3.43c-2.27-1.12-1.18-3.8-0.24-5.78c3.72-7.83,10.42-11.84,18.45-13.82c8.44-2.08,15.9-6.55,24.06-9.37
		c11.3-3.9,22.79-7.14,34.09-10.99c8.46-2.89,16.8-6.27,25.46-8.34c6.58-1.58,12.38-4.7,18.56-7.02c1.67-0.63,3.56-1.4,3.4-3.76
		c-0.16-2.37-2.3-2.81-3.9-3.3C583.19,222.38,580.22,221.98,577.59,221.45z"/>
</g>
</svg>
