<?xml version="1.0" encoding="utf-8"?>
<!-- Generator: Adobe Illustrator 26.0.3, SVG Export Plug-In . SVG Version: 6.00 Build 0)  -->
<svg version="1.1" id="Layer_1" xmlns="http://www.w3.org/2000/svg" xmlns:xlink="http://www.w3.org/1999/xlink" x="0px" y="0px"
	 viewBox="0 0 792 612" style="enable-background:new 0 0 792 612;" xml:space="preserve">
<style type="text/css">
	.st0{fill:#1E5978;}
	.st1{fill:#127076;}
	.st2{fill:#168D95;}
	.st3{fill:#178C95;}
	.st4{fill:#F8DAAF;}
	.st5{fill:#5BAEBB;}
	.st6{fill:#F1CE97;}
	.st7{fill:#188C95;}
	.st8{fill:#166E84;}
	.st9{fill:#F7D098;}
	.st10{fill:#F6D09A;}
	.st11{fill:#F9CE95;}
</style>
<g>
	<path class="st0" d="M314.46,213.15c23.87-0.4,45.43,4.18,66.52,12.23c8.98,3.42,17.93,6.81,26.76,10.62
		c12.07,5.2,24.37,2.38,36.03-1.44c26.63-8.72,52.87-18.63,79.53-27.24c13.91-4.49,27.2-10.95,41.43-14.15
		c16.75-3.76,33.71-3.88,49.86,3.42c7.25,3.28,12.47,8.29,12.22,17.1c-0.25,8.79-3.7,15.63-12.32,18.65
		c-13.5,4.73-27.29,8.53-41.3,11.47c-23.51,4.93-45.83,13.65-68.51,21.24c-16.69,5.59-33.49,10.75-49.74,17.67
		c-10.48,4.46-14.51,11.08-14.26,22.63c0.62,28.23-5.5,55.5-14.51,82.14c-1.06,3.15-2.5,6.18-3.47,9.35
		c-8.27,27.2-28.05,43.82-52.41,55.5c-43.37,20.79-92.62,10.68-126.45-25.49c-26.83-28.68-40.37-62.88-41.28-102.1
		c-0.04-1.86-0.3-3.56-1.09-5.29c-11.18-24.67-6.09-46.88,11.22-66.52c18.26-20.7,42.5-30.8,68.86-36.55
		C292.81,213.95,304.22,212.82,314.46,213.15z M386.49,359.38c0,0-0.02-0.01-0.02-0.01c-3.85,1.45-7.71,2.9-11.56,4.35
		c-17.03,6.41-34.58,10.06-52.82,10.79c-18.89,0.76-37.48-1.09-55.54-6.41c-13.15-3.88-25.75-9.31-37.02-17.49
		c-7.31-5.3-14.19-11.03-20.52-18.34c-0.2,1.39-0.45,2.04-0.35,2.63c3.38,20.06,9.11,39.41,19.26,57.12
		c13.84,24.15,32.08,43.49,58.24,55.17c18.01,8.04,36.43,7.49,55.16,7.04c0.41-0.01,0.81-0.51,1.22-0.78
		c5.97-0.76,11.65-2.68,17.16-4.94c12.68-5.19,24.44-11.91,33.96-22.01c3.71-0.14,6-2.35,7.97-5.25
		c10.4-15.29,16.1-32.52,21.17-50.07c3.76-13.01,6.49-26.23,8.96-39.53c1.25-6.73-0.18-13.55,1.66-20.25
		c-4.04,9.84-9.62,18.49-16.89,26.06c-8.67,8.43-18.51,15.24-29.11,20.98C387.11,358.75,386.8,359.06,386.49,359.38z M228.5,340.44
		c4.62,4.42,10.12,7.55,15.78,10.29c42.86,20.75,86.54,21.19,130.55,4.26c16.33-6.28,30.72-15.81,41.13-30.4
		c1.56-1.38,2.69-3.05,3.31-5.05c3.28-4.99,6.45-10.49,6.97-16.16c1.19-13.09,0.94-26.17-7.06-37.85
		c-7.39-10.79-15.58-20.45-27.08-27.21c-10.35-6.08-21.36-10.03-32.85-13.24c-9.21-2.57-18.37-4.72-27.96-4.66
		c-1.33,0.01-2.68,0-3.98-0.24c-11.29-2.13-22.47,0.49-33.68,0.97c-4.52,0.19-9.55,0.14-13.7,1.68
		c-10.41,3.85-21.45,5.68-31.38,11.35c-11.21,6.4-22.32,12.63-30.74,22.6c-2.73,3.24-4.75,7.07-7.22,10.55
		c-4.65,6.54-6.88,13.97-8.03,21.77c-2.06,13.98,4.02,25.71,11.2,36.79c2.9,4.49,6.27,9.43,12.43,10.56
		C225.35,338.7,226.66,339.72,228.5,340.44z M414.7,245.86c7.26,7.72,13.33,15.48,17.05,24.9c1.66,4.2,2.7,8.47,3.44,12.89
		c0.29,1.73,1.05,4.32,3.33,1.52c5.65-6.93,13.86-9.44,21.57-12.7c15.88-6.72,32.7-10.75,48.8-16.82
		c20.18-7.61,40.46-14.91,61.54-19.63c13.89-3.11,27.34-7.75,40.97-11.73c5.78-1.68,8.62-9.95,5.61-15.14
		c-3.3-5.69-9.22-7.23-14.62-8.56c-15.6-3.82-31.22-3.77-46.38,2.59c-20.01,8.4-41.19,13.38-61.43,21.12
		c-10.95,4.19-22.15,7.78-33.38,11.18c-8.2,2.48-16.09,5.79-24.65,7.39C429.53,244.18,422.3,243.56,414.7,245.86z"/>
	<path class="st1" d="M226.19,336.44c-6.15-1.13-9.52-6.08-12.43-10.56c-7.18-11.08-13.26-22.81-11.2-36.79
		c1.15-7.79,3.38-15.23,8.03-21.77c2.47-3.47,4.49-7.31,7.22-10.55c8.42-9.98,19.54-16.2,30.74-22.6
		c9.93-5.67,20.96-7.5,31.38-11.35c4.14-1.53,9.18-1.48,13.7-1.68c11.21-0.48,22.39-3.1,33.68-0.97c1.29,0.24,2.65,0.25,3.98,0.24
		c9.6-0.06,18.75,2.09,27.96,4.66c11.49,3.21,22.5,7.16,32.85,13.24c11.5,6.76,19.7,16.42,27.08,27.21
		c8,11.68,8.25,24.76,7.06,37.85c-0.52,5.67-3.68,11.17-6.97,16.16c-3.25-3.58-7.14-3.78-11.39-2.19c-1.08,0.4-2.18,0.82-3.3,1.02
		c-11.42,2.08-22.45-0.43-33.38-3.22c-10.1-2.57-19.84-6.75-30.68-4.97c-7,1.15-13.29,4.02-19.46,7.2
		c-5.87,3.03-11.97,5.2-18.59,4.6c-8.44-0.76-16.81-2.29-25.24-3.04c-9.42-0.84-18.49-0.2-26.32,6.46
		c-3.9,3.32-8.85,5.41-14.19,5.46C232.12,330.9,228.79,332.87,226.19,336.44z"/>
	<path class="st2" d="M342.54,453.44c-0.41,0.27-0.81,0.77-1.22,0.78c-18.73,0.45-37.15,1-55.16-7.04
		c-26.16-11.68-44.4-31.02-58.24-55.17c-10.15-17.71-15.88-37.06-19.26-57.12c-0.1-0.59,0.15-1.24,0.35-2.63
		c6.33,7.32,13.21,13.04,20.52,18.34c11.28,8.18,23.87,13.61,37.02,17.49c18.06,5.33,36.65,7.17,55.54,6.41
		c18.24-0.73,35.79-4.38,52.82-10.79c3.85-1.45,7.71-2.9,11.56-4.35c-0.78,6.1-2.62,11.91-4.78,17.64
		c-4.92,13.09-12.58,24.81-18.61,37.34C356.7,427.62,349.6,440.52,342.54,453.44z"/>
	<path class="st3" d="M414.7,245.86c7.6-2.3,14.82-1.68,21.86-2.99c8.56-1.6,16.45-4.91,24.65-7.39
		c11.23-3.4,22.43-6.99,33.38-11.18c20.25-7.74,41.43-12.72,61.43-21.12c15.16-6.36,30.78-6.41,46.38-2.59
		c5.4,1.32,11.32,2.87,14.62,8.56c3.01,5.19,0.16,13.45-5.61,15.14c-13.64,3.98-27.08,8.62-40.97,11.73
		c-21.09,4.72-41.36,12.02-61.54,19.63c-16.1,6.07-32.93,10.1-48.8,16.82c-7.71,3.26-15.92,5.77-21.57,12.7
		c-2.28,2.8-3.04,0.21-3.33-1.52c-0.74-4.42-1.78-8.69-3.44-12.89C428.04,261.34,421.96,253.58,414.7,245.86z M550.74,211.5
		c-3.7-0.83-7.44,0.57-11.16,1.09c-7.16,0.99-14.54,1.63-21.04,5.37c-0.99,0.57-2.32,1.06-1.61,2.58c0.52,1.11,1.71,1.01,2.64,0.69
		c6.33-2.17,12.95-2.67,19.51-3.44c6.68-0.79,13.45-2.54,20.04,0.48c1.44,0.66,3.31,1.02,3.36,3.2c0.05,2.09-1.5,2.91-3.06,3.49
		c-6.2,2.29-11.94,5.51-18.54,7.07c-8.82,2.09-17.33,5.53-25.93,8.5c-11.29,3.89-22.78,7.15-34.09,11
		c-10.04,3.42-19.31,8.66-29.66,11.37c-6.5,1.7-10.83,6.95-13.36,13.26c-0.59,1.46-0.99,3.64,0.88,4.44
		c1.68,0.73,2.1-1.43,2.54-2.42c2.25-5.1,6.52-6.86,11.4-9.08c19.18-8.75,38.77-16.24,58.97-22.23
		c16.82-4.98,34.15-8.37,50.03-16.28c3.98-1.99,7.23-4.24,6.87-9.2c-0.35-4.8-3.33-7.31-7.82-8.39
		C557.47,212.21,554.32,211.04,550.74,211.5z"/>
	<path class="st4" d="M415.96,324.58c-10.41,14.59-24.8,24.12-41.13,30.4c-44.01,16.93-87.69,16.49-130.55-4.26
		c-5.66-2.74-11.17-5.87-15.78-10.29c2.92-2.81,5.84-5.44,10.24-2.51c1.15,0.77,2.39,0.37,3.71-0.34
		c6.18-3.28,13.12-5.17,18.44-10.04c1.06-0.97,2.35-1.03,3.7-1.16c11.67-1.13,23.05,1.93,34.6,2.51c6.48,0.32,12.93,0.33,18.95-1.92
		c6.17-2.31,11.85-5.9,17.95-8.45c10.87-4.54,21.24-0.37,31.32,3c11.49,3.83,22.81,6.31,35.01,4.1
		C406.8,324.84,411.3,322.72,415.96,324.58z M343.85,348.42c3.18-0.01,5.93,0.42,8.23-1.34c3.29-2.51,6.77-4.5,11.03-4.77
		c0.88-0.06,1.74-0.53,1.89-1.38c0.26-1.47-1.03-1.32-1.95-1.57c-4.79-1.3-9.24-0.03-12.95,2.73c-3.24,2.41-6.2,2.76-9.67,1.18
		c-1.06-0.48-2.11-0.97-3.17-1.44c-0.81-0.36-1.75-0.5-2.21,0.32c-0.24,0.43,0.07,1.27,0.32,1.84
		C337.13,347.97,340.36,349.03,343.85,348.42z M279.51,349.35c2.85,0.79,5.79,1.39,8.56,2.44c3.27,1.24,6.22,0.43,9.13-0.85
		c0.98-0.43,2.19-1.24,1.75-2.64c-0.39-1.21-1.66-0.87-2.59-0.86c-4.81,0.05-9.58,0.02-14.23-1.62c-2.17-0.76-4.18,0.47-6,1.63
		c-0.65,0.42-1.4,1.08-1.11,2.03c0.34,1.1,1.28,0.81,2.06,0.62C277.87,349.92,278.65,349.62,279.51,349.35z M382.37,335.78
		c3.5,1.02,6.26,0.66,8.99,0.49c0.82-0.05,1.57-0.66,1.66-1.56c0.07-0.73-0.49-1.22-1.24-1.19
		C388.81,333.63,385.56,332.49,382.37,335.78z"/>
	<path class="st5" d="M342.54,453.44c7.06-12.92,14.16-25.81,20.54-39.08c6.03-12.53,13.69-24.25,18.61-37.34
		c2.16-5.73,4-11.54,4.78-17.64c0,0,0.02,0.01,0.02,0.01c0.31-0.32,0.62-0.64,0.93-0.95c10.6-5.75,20.45-12.55,29.11-20.98
		c0.3,6.35-1.12,12.55-2.48,18.62c-5.33,23.88-10.53,47.84-20.4,70.42c-9.52,10.11-21.28,16.83-33.96,22.01
		C354.19,450.75,348.52,452.68,342.54,453.44z"/>
	<path class="st6" d="M415.96,324.58c-4.67-1.86-9.16,0.26-13.54,1.05c-12.2,2.22-23.52-0.27-35.01-4.1
		c-10.08-3.36-20.45-7.54-31.32-3c-6.1,2.55-11.78,6.14-17.95,8.45c-6.01,2.25-12.46,2.24-18.95,1.92
		c-11.56-0.57-22.93-3.64-34.6-2.51c-1.35,0.13-2.64,0.19-3.7,1.16c-5.32,4.87-12.26,6.75-18.44,10.04c-1.32,0.7-2.57,1.1-3.71,0.34
		c-4.4-2.93-7.31-0.31-10.24,2.51c-1.84-0.71-3.15-1.73-2.31-3.99c2.61-3.57,5.94-5.54,10.54-5.58c5.34-0.04,10.28-2.13,14.19-5.46
		c7.83-6.66,16.9-7.31,26.32-6.46c8.44,0.75,16.81,2.28,25.24,3.04c6.62,0.6,12.72-1.57,18.59-4.6c6.17-3.18,12.46-6.05,19.46-7.2
		c10.84-1.78,20.58,2.39,30.68,4.97c10.93,2.79,21.95,5.3,33.38,3.22c1.13-0.21,2.22-0.62,3.3-1.02c4.25-1.59,8.14-1.39,11.39,2.19
		C418.66,321.53,417.53,323.2,415.96,324.58z"/>
	<path class="st7" d="M393.66,426.49c9.86-22.58,15.06-46.53,20.4-70.42c1.36-6.08,2.78-12.27,2.48-18.62
		c7.27-7.57,12.85-16.22,16.89-26.06c-1.84,6.7-0.41,13.53-1.66,20.25c-2.47,13.31-5.2,26.52-8.96,39.53
		c-5.07,17.55-10.77,34.78-21.17,50.07C399.66,424.14,397.38,426.34,393.66,426.49z"/>
	<path class="st2" d="M387.42,358.43c-0.31,0.32-0.62,0.64-0.93,0.95C386.8,359.06,387.11,358.75,387.42,358.43z"/>
	<path class="st8" d="M550.74,211.5c3.59-0.46,6.73,0.71,9.96,1.48c4.49,1.08,7.47,3.59,7.82,8.39c0.37,4.97-2.88,7.22-6.87,9.2
		c-15.88,7.92-33.22,11.3-50.03,16.28c-20.21,5.98-39.79,13.48-58.97,22.23c-4.88,2.23-9.15,3.98-11.4,9.08
		c-0.44,1-0.86,3.15-2.54,2.42c-1.87-0.81-1.46-2.98-0.88-4.44c2.53-6.31,6.86-11.56,13.36-13.26c10.36-2.71,19.62-7.95,29.66-11.37
		c11.31-3.85,22.8-7.11,34.09-11c8.6-2.97,17.11-6.41,25.93-8.5c6.6-1.56,12.35-4.78,18.54-7.07c1.55-0.58,3.11-1.39,3.06-3.49
		c-0.05-2.18-1.92-2.54-3.36-3.2c-6.59-3.02-13.36-1.27-20.04-0.48c-6.55,0.77-13.18,1.27-19.51,3.44
		c-0.92,0.32-2.11,0.42-2.64-0.69c-0.72-1.52,0.62-2.01,1.61-2.58c6.51-3.74,13.88-4.37,21.04-5.37
		C543.3,212.07,547.03,210.67,550.74,211.5z"/>
	<path class="st9" d="M343.85,348.42c-3.49,0.61-6.72-0.45-8.48-4.43c-0.25-0.57-0.56-1.42-0.32-1.84c0.46-0.82,1.4-0.68,2.21-0.32
		c1.06,0.47,2.12,0.96,3.17,1.44c3.47,1.58,6.42,1.23,9.67-1.18c3.71-2.76,8.16-4.03,12.95-2.73c0.92,0.25,2.21,0.11,1.95,1.57
		c-0.15,0.85-1.01,1.32-1.89,1.38c-4.26,0.27-7.74,2.26-11.03,4.77C349.78,348.84,347.03,348.41,343.85,348.42z"/>
	<path class="st10" d="M279.51,349.35c-0.87,0.28-1.64,0.57-2.44,0.76c-0.78,0.19-1.72,0.48-2.06-0.62
		c-0.29-0.95,0.46-1.62,1.11-2.03c1.81-1.16,3.83-2.39,6-1.63c4.65,1.64,9.42,1.67,14.23,1.62c0.93-0.01,2.2-0.35,2.59,0.86
		c0.44,1.39-0.77,2.21-1.75,2.64c-2.91,1.28-5.86,2.1-9.13,0.85C285.31,350.74,282.37,350.14,279.51,349.35z"/>
	<path class="st11" d="M382.37,335.78c3.19-3.29,6.43-2.15,9.42-2.26c0.74-0.03,1.31,0.46,1.24,1.19c-0.09,0.9-0.84,1.51-1.66,1.56
		C388.64,336.44,385.88,336.8,382.37,335.78z"/>
</g>
</svg>
