<?xml version="1.0" encoding="utf-8"?>
<!-- Generator: Adobe Illustrator 26.0.3, SVG Export Plug-In . SVG Version: 6.00 Build 0)  -->
<svg version="1.1" id="Layer_1" xmlns="http://www.w3.org/2000/svg" xmlns:xlink="http://www.w3.org/1999/xlink" x="0px" y="0px"
	 viewBox="0 0 792 612" style="enable-background:new 0 0 792 612;" xml:space="preserve">
<style type="text/css">
	.st0{fill:#1D5978;}
	.st1{fill:#127077;}
	.st2{fill:#168D95;}
	.st3{fill:#38A38B;}
	.st4{fill:#178C95;}
	.st5{fill:#5BAEBB;}
	.st6{fill:#188D93;}
	.st7{fill:#188C95;}
	.st8{fill:#4391A6;}
	.st9{fill:#218E8C;}
	.st10{fill:#1D8F90;}
	.st11{fill:#77E1B3;}
	.st12{fill:#7DE6BE;}
	.st13{fill:#80E9C4;}
	.st14{fill:#166E84;}
</style>
<g>
	<path class="st0" d="M333.43,448.58c-22.87-0.42-49.69-13.36-71.49-36.59c-26.74-28.5-40.04-62.69-40.88-101.73
		c-0.04-1.68-0.23-3.23-0.95-4.81c-11.47-25.25-6.09-47.76,11.89-67.68c18.01-19.95,41.57-30.19,67.27-35.46
		c34.04-6.97,67.36-4.2,99.92,8.65c9.08,3.58,18.24,6.93,27.24,10.76c12.07,5.15,24.35,2.3,36.02-1.55
		c26.62-8.76,52.87-18.62,79.53-27.23c13.75-4.44,26.9-10.78,40.96-14.01c16.76-3.85,33.67-3.95,49.86,3.22
		c7.29,3.23,12.57,8.1,12.52,16.89c-0.05,9.36-3.9,15.89-12.5,19c-13.46,4.86-27.28,8.56-41.3,11.49
		c-23.36,4.87-45.52,13.54-68.05,21.08c-17.64,5.9-35.58,10.9-52.38,19.09c-9.88,4.82-11.69,8.54-11.76,19.49
		c-0.24,39.91-9.06,77.87-27.52,113.34c-7.67,14.74-21.78,22.99-35.24,31.4C380.29,444.1,362.06,448.57,333.43,448.58z
		 M278.04,416.13l-0.03-0.01c0.65,2.63,3.05,3.29,5,4.45c6.6,4.97,14.07,8.31,21.39,12.04c17.58,8.96,36.28,7.67,54.95,7.36
		c0.57-0.01,1.14-0.56,1.7-0.87c5.98-0.76,11.65-2.69,17.17-4.93c12.69-5.17,24.44-11.9,33.96-22.01c3.12-0.02,5.47-1.63,7.13-4.01
		c9.31-13.32,15.24-28.2,19.72-43.7c3.25-11.24,6.29-22.51,8.71-34.01c2.33-11.07,3.11-22.18,4.01-33.43
		c-3.65,9.98-9.68,18.36-16.71,26.1c-4.56,3.6-8.64,7.74-13.29,11.28c-5.32,4.04-11.71,6.27-16.77,10.64
		c-1.94-0.12-3.5,0.91-5.16,1.65c-18.54,8.23-38,12.39-58.21,13.43c-19.19,0.99-38.12-0.91-56.51-6.34
		c-13.16-3.88-25.74-9.31-37.04-17.48c-7.32-5.3-14.3-10.87-20.16-18.12c-1.02,1.52-0.75,2.59-0.46,3.72
		c1.37,5.28,2.14,10.68,3.44,15.99c3.78,15.4,9.6,29.93,17.77,43.48c7.29,12.09,15.66,23.36,26.38,32.72
		C275.63,415.37,276.55,416.17,278.04,416.13z M247.05,326.14c0.4,0.93,1.07,1.57,2.03,1.9c4.53,2.78,8.89,5.89,13.62,8.29
		c23.31,11.84,48.11,16.55,74.2,15.89c24.36-0.61,47.41-6,68.8-17.57c11.59-6.27,22.13-14.13,29.46-25.51
		c2.43-2.13,4.2-4.59,3.95-8.04c4.44-3.23,5.22-8.64,5.67-13.08c1.28-12.8,0.56-25.41-7-36.89c-4.19-6.37-8.88-12.53-13.95-17.84
		c-4.35-4.57-10.67-8.03-16.58-11.3c-9-4.97-18.69-7.84-28.48-10.83c-9.35-2.85-18.66-4.79-28.38-5.07
		c-1.5-0.04-3.03,0.05-4.48-0.23c-11.12-2.19-22.16,0.52-33.21,0.89c-4.59,0.15-9.81,0.16-14.16,1.71
		c-10.77,3.83-22.2,5.74-32.28,11.67c-10.79,6.36-22,12.17-29.74,22.37c-5.99,7.89-11.76,15.82-14.08,26.05
		c-2.17,9.53-1.97,18.47,1.52,27.36c4.34,11.03,11.05,20.46,20.11,28.17c0.97,0.68,1.95,1.35,2.92,2.03L247.05,326.14z
		 M433.37,231.5c5.56,6.53,11.12,12.47,14.53,19.93c2.48,5.41,5.12,10.69,5.51,16.88c0.24,3.8,1.82,4.54,3.6,2.6
		c8.73-9.48,20.86-12.46,32.23-16.77c15.63-5.93,31.81-10.27,47.45-16.23c14.54-5.55,29.24-10.64,44.49-14.13
		c16.6-3.8,32.89-8.8,49.13-13.94c5.41-1.71,8.12-10.02,5.27-14.94c-3.27-5.67-9.18-7.31-14.57-8.62
		c-15.76-3.83-31.57-3.89-46.83,2.75c-14.59,6.34-30.09,9.98-45,15.41c-14.75,5.37-29.62,10.45-44.58,15.21
		c-9.92,3.15-19.65,6.85-29.96,8.95C447.8,229.99,440.73,229.23,433.37,231.5z"/>
	<path class="st1" d="M244.07,324.07c-9.06-7.71-15.78-17.14-20.12-28.17c-3.49-8.89-3.69-17.83-1.52-27.36
		c2.33-10.23,8.09-18.16,14.08-26.05c7.74-10.2,18.94-16.01,29.74-22.37c10.08-5.94,21.51-7.84,32.28-11.67
		c4.35-1.55,9.57-1.55,14.16-1.71c11.05-0.37,22.09-3.08,33.21-0.89c1.45,0.29,2.98,0.19,4.48,0.23c9.71,0.27,19.02,2.21,28.38,5.07
		c9.79,2.99,19.48,5.86,28.48,10.83c5.91,3.27,12.23,6.73,16.58,11.3c5.06,5.31,9.75,11.48,13.95,17.84
		c7.56,11.48,8.28,24.09,7,36.89c-0.44,4.45-1.22,9.85-5.67,13.08c-3.41-6.19-4.96-7.06-11.54-5.59c-1.84,0.41-3.2,0.51-4.48-0.93
		c-3.41-3.85-8.15-4.39-12.42-3.23c-5.74,1.56-9.45-0.31-13.22-4.28c-5.9-6.21-9.64-6.59-16.53-1.79c-2.75,1.91-4.41,1.83-6.78-0.51
		c-5.58-5.5-10.57-6.14-17.62-3.03c-3.45,1.51-6.76,2.13-10.32-0.45c-3.34-2.42-7.97-3.51-11.45-1.97
		c-6.69,2.96-12.67,3.7-20.17,2.37c-6.49-1.15-13.53,2.66-17.51,9.37c-1.46,2.46-3.85,3.2-6.41,2.26
		c-8.05-2.96-14.79-1.04-21.03,4.63c-3.85,3.5-7.61,7.26-13.48,7.76c-3.94,0.33-6.54,3.38-7.72,7.01
		C247.14,316.58,246.33,320.59,244.07,324.07z"/>
	<path class="st2" d="M275.04,414.09c-10.72-9.35-19.09-20.63-26.38-32.72c-8.17-13.55-13.99-28.07-17.77-43.48
		c-1.3-5.31-2.07-10.71-3.44-15.99c-0.29-1.13-0.56-2.2,0.46-3.72c5.86,7.26,12.84,12.83,20.16,18.12
		c11.29,8.17,23.88,13.6,37.04,17.48c18.39,5.43,37.31,7.33,56.51,6.34c20.21-1.04,39.68-5.2,58.21-13.43
		c1.67-0.74,3.23-1.77,5.16-1.65c-0.74,6.11-2.62,11.91-4.77,17.64c-4.92,13.09-12.58,24.81-18.61,37.34
		c-6.39,13.27-13.48,26.17-20.54,39.08c-0.57,0.3-1.13,0.86-1.7,0.87c-18.67,0.3-37.37,1.6-54.95-7.36
		c-7.32-3.73-14.79-7.07-21.39-12.04c-0.47-2.83-2.05-4.41-5-4.44c0,0,0.03,0.01,0.03,0.01
		C277.5,414.78,276.49,414.11,275.04,414.09z"/>
	<path class="st3" d="M435.14,309.14c-7.32,11.38-17.86,19.25-29.46,25.51c-21.39,11.57-44.44,16.95-68.8,17.57
		c-26.09,0.66-50.89-4.05-74.2-15.89c-4.72-2.4-9.09-5.51-13.62-8.29c-0.09-1.26-0.74-1.92-2.03-1.9c0,0-0.05-0.04-0.05-0.04
		c3.75-2.16,5.51-5.58,6.01-9.71c0.48-3.92,2.8-5.37,6.51-5.3c1.8,0.03,3.58,0.18,5.21-1.13c4.14-3.32,8.62-6.23,12.56-9.76
		c2.64-2.37,5.57-2.91,8.26-1.65c7.98,3.75,13.67,0.77,18.78-5.27c3.03-3.57,9.99-5.2,13.98-2.99c5.16,2.86,9.6,2.27,13.46-1.99
		c3.49-3.85,7.2-3.82,10.95-0.83c5.38,4.29,11.17,3.54,16.22,0.43c4.88-3.01,7.7-0.89,10.68,2.19c4.64,4.8,9.35,5.54,14.45,1.35
		c3.41-2.79,5.89-2.19,8.54,0.7c1.13,1.23,2.29,2.42,3.54,3.53c4.24,3.78,8.91,5.61,14.53,3.12c3.33-1.48,6-0.38,7.49,2.71
		c1.87,3.87,5.32,4.43,8.42,3.33c3.53-1.26,5.5-1.05,6.81,2.57C433.66,308.11,434.55,308.57,435.14,309.14z M405.26,322.15
		c-1.37,0.11-3.54-0.43-2.82,2c0.42,1.43,1.82,0.94,2.68-0.16c0.99-0.05,2.56,0.66,2.5-1.05
		C407.58,321.79,406.14,322.23,405.26,322.15z M339.13,299.05c-1.21,0.15-2.81-0.26-2.89,1.7c-0.04,1.08,0.66,1.89,1.68,2.1
		c2.1,0.43,2.94-0.8,3.13-2.69c1.01-1,1.7-2.19-0.05-2.92C339.56,296.64,339.1,297.76,339.13,299.05z M303.8,317.01
		c1.47,0.54,2.92,1.81,4.46,0.17c0.65-0.69,0.69-1.55-0.01-2.16c-1.41-1.22-2.89-1.43-4.24,0.16c-0.78-0.02-1.75-0.16-1.66,1
		C302.38,316.5,303.29,316.74,303.8,317.01z M414.19,310.12c-1.77-1.76-2.83-1.46-3.13,1.07c-0.02,0.34-0.05,0.69-0.07,1.03
		c-1.19,0.01-3.24-0.83-3.29,0.65c-0.07,2.04,2.1,1.1,3.39,1.22c1.97,0.22,4.37,1.26,5.47-1.07
		C417.11,311.85,415.97,310.3,414.19,310.12z M384,303.21c0.69-0.27,1.8-0.08,1.67-1.28c-0.03-0.31-0.63-0.78-0.99-0.81
		c-1.34-0.09-1.58,0.82-1.51,1.92c-2.32,1.05-2.5,2.99-1.83,5.02c0.38,1.17,1.65,1.15,2.49,0.47
		C385.82,306.88,385.11,305.02,384,303.21z M284.09,310.21c-0.11,2.05,0.38,3.68,2.83,3.79c1.12,0.05,1.95-0.45,2.06-1.66
		c0.16-1.72,0.11-3.41-1.94-4.05c-0.62-0.19-1.31-0.14-1.97-0.2c-1.64,0.5-4.76-1.32-4.63,1.79
		C280.54,312.16,282.87,309.44,284.09,310.21z M368.2,310.32c-0.62-0.52-1.2-1.1-1.86-1.54c-1.66-1.11-3.22-0.51-4.5,0.64
		c-1.14,1.03-0.99,2.46-0.09,3.57c1.21,1.49,2.98,1.38,4.53,0.78c0.81-0.31,1.36-1.32,2.02-2.02c0.87,0.19,2.24,0.67,2.32-0.47
		C370.73,309.56,369.17,310.3,368.2,310.32z M308.78,343.07c2.18-0.84,4.7-1.88,3.59-4.68c-0.85-2.14-3.46-1.52-5.26-1.05
		c-2.54,0.66-1.95,2.99-2,4.89C305.72,345.15,306.85,345.83,308.78,343.07z M369.89,332.94c0.09-0.89,0.49-2.02-0.71-2.35
		c-1.12-0.31-1.01,0.83-1.22,1.51c-2.23-0.22-3.49,0.97-3.53,3.03c-0.03,1.52,0.84,2.8,2.65,2.94c1.84,0.14,3.59,0.16,4.48-1.98
		C372.29,334.28,371.8,333.27,369.89,332.94z M289.34,325.24c-0.58,0.18-2.35,0.34-1.82,2.47c0.45,1.79,1.34,3.47,3.67,3.33
		c1.73-0.1,2.93-0.96,2.67-2.79C293.57,326.29,292.56,324.83,289.34,325.24z M393.01,326.06c-0.11-1.67-0.84-2.95-2.65-2.76
		c-1.64,0.17-3.24,0.84-3.2,2.96c0.03,1.74,1.04,2.7,2.76,2.75C391.88,329.06,392.92,328.03,393.01,326.06z M334.43,340.08
		c-1.26,0.21-3.31-0.47-3.09,1.89c0.17,1.77,1.58,2.86,3.37,3.04c1.63,0.17,3.07-0.44,3.14-2.29
		C337.94,340.53,336.28,340.15,334.43,340.08z M397.27,311.11c-1.39,0.09-2.97,0.39-2.77,2.09c0.21,1.8,1.67,2.8,3.57,2.81
		c1.51,0.01,1.93-0.98,1.98-2.31C400.11,311.74,399.13,310.98,397.27,311.11z M334.51,321.23c-1.58,0.23-2.32,1.18-2.38,2.65
		c-0.07,1.67,0.61,2.96,2.4,3.03c1.5,0.06,2.5-0.95,2.36-2.47C336.74,323.01,336.22,321.58,334.51,321.23z M325.94,308.67
		c-0.12-1.37-0.88-2.28-2.38-2.47c-1.61-0.2-2.45,0.52-2.47,2.18c-0.02,1.46,0.29,2.63,2.07,2.63
		C324.64,311,325.61,310.31,325.94,308.67z M272.17,324.82c1.19-0.35,2.23-1.03,2.24-2.31c0.01-0.84-0.88-1.4-1.81-1.32
		c-1.29,0.11-2.3,0.75-2.18,2.16C270.49,324.16,271.17,324.8,272.17,324.82z M312.72,324.18c-0.05-1.12-0.73-1.74-1.78-1.88
		c-1.2-0.17-1.77,0.54-1.8,1.68c-0.03,1.07,0.3,1.94,1.56,1.94C311.8,325.9,312.48,325.3,312.72,324.18z M390.42,304.21
		c-0.9,0.12-1.81,0.54-1.98,1.62c-0.18,1.12,0.5,1.89,1.62,1.9c1.12,0.01,1.69-0.81,1.82-1.86
		C392,304.9,391.47,304.39,390.42,304.21z M347.37,303.99c0.98,0.08,1.64-0.39,1.69-1.33c0.05-1.08-0.52-1.93-1.62-2.11
		c-1.04-0.18-1.45,0.7-1.62,1.49C345.54,303.22,346.19,303.87,347.37,303.99z M328,315.15c-0.79,0.08-1.65,0.17-1.75,1.24
		c-0.13,1.33,0.76,1.68,1.85,1.69c1.13,0.01,1.92-0.44,1.78-1.74C329.75,315.23,328.87,315.21,328,315.15z M351.63,321.2
		c-0.08-1-0.89-1.25-1.64-1.46c-0.97-0.27-1.62,0.34-1.71,1.17c-0.12,1.13,0.66,1.77,1.76,1.76
		C350.91,322.66,351.47,322.11,351.63,321.2z M281.08,336.16c-1.23,0-1.94,0.41-1.93,1.37c0.01,0.9,0.59,1.51,1.57,1.41
		c1.03-0.1,1.95-0.57,1.9-1.72C282.56,336.16,281.57,336.21,281.08,336.16z M325.72,346.42c-0.17-1.03-0.9-1.27-1.8-1.28
		c-0.93,0-1.72,0.34-1.72,1.34c0,0.95,0.67,1.47,1.67,1.36C324.77,347.75,325.38,347.25,325.72,346.42z M356.65,303.44
		c-0.09-1.06-0.81-1.29-1.7-1.28c-0.93,0.01-1.66,0.41-1.68,1.37c-0.02,0.95,0.61,1.46,1.6,1.37
		C355.78,304.82,356.32,304.25,356.65,303.44z M344.13,311.34c-0.89,0.04-1.58,0.62-1.68,1.45c-0.15,1.27,0.99,1.71,1.94,1.8
		c0.88,0.08,1.52-0.62,1.43-1.6C345.74,312.07,345.06,311.59,344.13,311.34z M381.88,326.16c-0.2-0.97-1.05-1.05-1.88-1.02
		c-0.86,0.03-1.74,0.26-1.41,1.41c0.24,0.85,0.98,1.38,1.88,1.33C381.4,327.85,381.92,327.26,381.88,326.16z M348.63,333.89
		c-0.25-1.03-0.91-1.67-1.97-1.68c-0.62-0.01-1.37,0.21-1.26,1.05c0.13,1.07,0.9,1.66,1.94,1.7
		C347.96,334.98,348.59,334.74,348.63,333.89z M309.52,304.9c0.28-0.31,1.02-0.76,1.01-1.21c-0.01-1.21-0.97-1.56-2.04-1.51
		c-0.75,0.04-1.28,0.53-1.09,1.26C307.62,304.28,308.3,304.78,309.52,304.9z M373.67,322.9c0.78-0.09,1.18-0.6,1.19-1.3
		c0-0.7-0.41-1.27-1.18-1.29c-0.98-0.02-1.51,0.51-1.39,1.53C372.38,322.64,372.97,322.85,373.67,322.9z M268.74,327.34
		c-0.5-1.47-1.61-1.92-2.99-1.8c-0.13,0.01-0.42,0.95-0.25,1.22C266.29,328.02,267.33,328.58,268.74,327.34z M380.33,336.11
		c2.5,0.95,2.5,0.95,4.29-0.55C383.29,336.52,381.72,334.49,380.33,336.11z M407.84,304.36c-0.12-0.81-0.7-1.08-1.39-1.06
		c-0.78,0.03-1.22,0.6-1.19,1.29c0.05,0.96,0.66,1.47,1.66,1.24C407.68,305.66,407.92,305.09,407.84,304.36z M353.95,343.68
		c0-0.99-0.51-1.48-1.49-1.45c-0.81,0.02-1.28,0.56-1.06,1.23c0.18,0.53,0.77,1.1,1.3,1.28
		C353.38,344.95,353.89,344.46,353.95,343.68z M368.14,300.61c0.91-0.02,1.53-0.51,1.64-1.36c0.1-0.77-0.55-1.09-1.23-1.09
		c-0.66,0-1.27,0.25-1.33,1.05C367.17,299.88,367.34,300.46,368.14,300.61z M354.89,320.36c-0.87,0.19-1.5,0.66-1.55,1.59
		c-0.04,0.9,0.74,1.14,1.32,0.95c0.51-0.16,1.09-0.74,1.24-1.25C356.08,321.06,355.77,320.37,354.89,320.36z M362.8,336.66
		c-0.13-1.05-0.64-1.44-1.36-1.45c-0.75-0.01-1.27,0.46-1.26,1.22c0.01,0.73,0.49,1.36,1.22,1.22
		C361.95,337.55,362.41,336.96,362.8,336.66z M343.66,345.91c-0.46-0.9-1.27-0.8-2.07-0.72c-0.77,0.08-1.27,0.63-0.87,1.26
		c0.26,0.4,1.11,0.56,1.71,0.58C343.05,347.04,343.73,346.82,343.66,345.91z M421.9,314.15c-0.21-1.79-0.82-1.96-1.49-1.93
		c-0.78,0.03-1.24,0.59-0.99,1.26c0.18,0.48,0.82,1.03,1.31,1.08C421.29,314.61,421.91,314.15,421.9,314.15z M319.97,303.11
		c-0.8,0.07-1.66,0.18-1.52,1.26c0.04,0.29,0.68,0.68,1.06,0.7c0.8,0.04,1.68-0.19,1.79-1.14
		C321.41,303,320.53,303.22,319.97,303.11z M365.97,345.13c0.57-0.1,1.45,0.17,1.4-0.8c-0.03-0.75-0.71-1.06-1.4-1.11
		c-0.68-0.05-1.41,0.04-1.41,0.91C364.55,344.98,365.32,345.03,365.97,345.13z M361.34,294c0.76-0.14,1.54-0.16,1.33-1.06
		c-0.08-0.33-0.63-0.73-0.99-0.76c-0.59-0.04-1.38,0.1-1.18,1C360.57,293.52,361.08,293.76,361.34,294z M324.11,330.38
		c-0.93,0.36-1.15,0.97-0.9,1.61c0.14,0.34,0.69,0.81,0.97,0.76c0.76-0.15,0.91-0.85,0.69-1.5
		C324.75,330.89,324.33,330.62,324.11,330.38z M402.98,302.37c-0.23-0.26-0.48-0.79-0.83-0.88c-0.9-0.21-1.11,0.57-1.08,1.19
		c0.02,0.37,0.44,0.94,0.78,1.02C402.75,303.94,402.83,303.17,402.98,302.37z M350.71,313.09c-0.33-0.92-0.95-1.04-1.55-0.81
		c-0.33,0.13-0.78,0.65-0.74,0.92c0.13,0.74,0.79,0.91,1.42,0.66C350.21,313.73,350.47,313.32,350.71,313.09z M314.74,301.13
		c-0.36-0.9-0.94-1.11-1.56-0.87c-0.33,0.13-0.78,0.67-0.73,0.94c0.13,0.74,0.8,0.91,1.44,0.68
		C314.24,301.75,314.49,301.35,314.74,301.13z M336.27,304.03c-0.33,0.36-0.82,0.65-0.83,0.95c-0.01,0.28,0.49,0.79,0.79,0.81
		c0.66,0.04,1.21-0.4,1.18-1.09C337.39,304.48,336.74,304.29,336.27,304.03z M411.68,324.03c0.39-0.16,1.07-0.16,0.68-0.85
		c-0.21-0.36-0.65-0.75-1.03-0.8c-0.28-0.04-0.88,0.41-0.91,0.69C410.34,323.9,411.01,324.01,411.68,324.03z M377.8,313.79
		c-0.38-0.17-0.71-0.39-1.07-0.45c-0.09-0.02-0.43,0.6-0.36,0.68c0.23,0.28,0.59,0.44,0.9,0.65
		C377.42,314.43,377.56,314.19,377.8,313.79z M325.83,295.43c-0.18-0.44-0.33-0.95-0.39-0.94c-0.38,0.07-0.74,0.25-1.1,0.39
		c0.11,0.27,0.2,0.76,0.33,0.77C325.04,295.69,325.42,295.53,325.83,295.43z M303.88,325.82c-0.38-0.18-0.73-0.4-1.09-0.46
		c-0.1-0.02-0.45,0.62-0.39,0.69c0.25,0.29,0.62,0.47,0.94,0.69C303.49,326.49,303.64,326.24,303.88,325.82z M386.9,316.31
		c-0.19,0.39-0.41,0.73-0.48,1.1c-0.02,0.09,0.62,0.45,0.69,0.38c0.28-0.25,0.46-0.62,0.67-0.95
		C387.54,316.7,387.3,316.56,386.9,316.31z"/>
	<path class="st4" d="M433.37,231.5c7.36-2.27,14.42-1.51,21.3-2.91c10.3-2.1,20.04-5.79,29.96-8.95
		c14.96-4.76,29.83-9.84,44.58-15.21c14.9-5.43,30.41-9.07,45-15.41c15.26-6.63,31.06-6.58,46.83-2.75
		c5.39,1.31,11.3,2.96,14.57,8.62c2.84,4.93,0.13,13.23-5.27,14.94c-16.24,5.14-32.53,10.14-49.13,13.94
		c-15.25,3.49-29.95,8.58-44.49,14.13c-15.64,5.97-31.82,10.31-47.45,16.23c-11.37,4.31-23.49,7.29-32.23,16.77
		c-1.78,1.94-3.36,1.19-3.6-2.6c-0.4-6.19-3.04-11.47-5.51-16.88C444.49,243.97,438.93,238.03,433.37,231.5z M568.94,197.17
		c-3.45-0.94-7.17,0.59-10.9,1.1c-7.16,0.97-14.54,1.63-21.04,5.38c-1,0.58-2.3,1.12-1.54,2.6c0.54,1.06,1.74,0.96,2.67,0.64
		c6.32-2.21,12.95-2.66,19.5-3.44c6.35-0.76,12.81-2.36,19.12,0.12c1.71,0.67,4.13,0.97,4.21,3.63c0.07,2.35-1.89,3.05-3.54,3.68
		c-6.17,2.35-12,5.43-18.57,7.01c-8.65,2.08-17.01,5.42-25.46,8.33c-11.29,3.89-22.8,7.05-34.07,11.05
		c-9.98,3.54-19.38,8.49-29.68,11.32c-6.48,1.78-10.81,6.99-13.32,13.31c-0.58,1.45-0.98,3.65,0.94,4.42
		c1.64,0.65,2.09-1.48,2.52-2.49c2.21-5.17,6.59-6.81,11.42-9.05c21.11-9.79,42.85-17.6,65.2-23.98
		c14.95-4.27,30.27-7.51,44.27-14.7c3.76-1.93,6.8-4.33,6.35-9.08c-0.41-4.24-2.74-6.91-6.93-8.04
		C576.59,198,573.13,196.75,568.94,197.17z"/>
	<path class="st5" d="M361.06,439.11c7.06-12.92,14.16-25.81,20.54-39.08c6.03-12.53,13.69-24.25,18.61-37.34
		c2.15-5.73,4.03-11.53,4.77-17.64c5.05-4.38,11.45-6.61,16.77-10.65c4.65-3.53,8.73-7.67,13.29-11.28
		c0.31,6.36-1.11,12.55-2.47,18.62c-5.33,23.88-10.54,47.83-20.4,70.42c-9.52,10.11-21.26,16.85-33.96,22.01
		C372.71,436.42,367.04,438.35,361.06,439.11z"/>
	<path class="st6" d="M435.14,309.14c-0.6-0.57-1.49-1.04-1.74-1.73c-1.31-3.63-3.28-3.83-6.81-2.57c-3.1,1.1-6.55,0.54-8.42-3.33
		c-1.5-3.09-4.16-4.18-7.49-2.71c-5.61,2.49-10.29,0.66-14.53-3.12c-1.24-1.11-2.41-2.31-3.54-3.53c-2.65-2.89-5.14-3.49-8.54-0.7
		c-5.11,4.19-9.82,3.45-14.45-1.35c-2.98-3.08-5.8-5.2-10.68-2.19c-5.04,3.11-10.83,3.86-16.22-0.43
		c-3.75-2.98-7.46-3.02-10.95,0.83c-3.86,4.26-8.3,4.85-13.46,1.99c-3.99-2.21-10.96-0.58-13.98,2.99
		c-5.11,6.04-10.8,9.02-18.78,5.27c-2.69-1.27-5.62-0.72-8.26,1.65c-3.94,3.53-8.42,6.44-12.56,9.76c-1.64,1.31-3.41,1.16-5.21,1.13
		c-3.71-0.07-6.03,1.38-6.51,5.3c-0.5,4.14-2.26,7.56-6.01,9.71c-0.97-0.68-1.95-1.35-2.92-2.03c2.26-3.48,3.07-7.5,4.33-11.37
		c1.18-3.64,3.78-6.68,7.72-7.01c5.87-0.5,9.63-4.26,13.48-7.76c6.24-5.67,12.97-7.59,21.03-4.63c2.56,0.94,4.96,0.2,6.41-2.26
		c3.98-6.71,11.02-10.51,17.51-9.37c7.5,1.33,13.49,0.59,20.17-2.37c3.48-1.54,8.12-0.45,11.45,1.97c3.55,2.58,6.87,1.97,10.32,0.45
		c7.06-3.1,12.04-2.46,17.62,3.03c2.38,2.34,4.04,2.42,6.78,0.51c6.89-4.79,10.63-4.41,16.53,1.79c3.77,3.97,7.48,5.84,13.22,4.28
		c4.27-1.16,9.01-0.62,12.42,3.23c1.28,1.44,2.64,1.34,4.48,0.93c6.59-1.47,8.14-0.6,11.54,5.59
		C439.34,304.55,437.57,307.01,435.14,309.14z"/>
	<path class="st7" d="M412.19,412.16c9.86-22.58,15.06-46.53,20.4-70.42c1.36-6.08,2.78-12.27,2.47-18.62
		c7.03-7.74,13.06-16.12,16.71-26.1c-0.91,11.25-1.68,22.36-4.01,33.43c-2.42,11.49-5.46,22.77-8.71,34.01
		c-4.49,15.49-10.42,30.38-19.72,43.7C417.65,410.53,415.31,412.14,412.19,412.16z"/>
	<path class="st8" d="M278.02,416.12c2.95,0.04,4.53,1.61,5,4.44C281.07,419.41,278.67,418.75,278.02,416.12z"/>
	<path class="st8" d="M275.04,414.09c1.45,0.02,2.46,0.69,3,2.04C276.55,416.17,275.63,415.37,275.04,414.09z"/>
	<path class="st9" d="M247.05,326.14c1.29-0.02,1.94,0.64,2.03,1.9C248.12,327.71,247.45,327.06,247.05,326.14z"/>
	<path class="st10" d="M369.89,332.94c1.9,0.33,2.4,1.34,1.66,3.14c-0.88,2.14-2.64,2.12-4.48,1.98c-1.8-0.14-2.68-1.42-2.65-2.94
		c0.05-2.06,1.3-3.25,3.53-3.03C368.61,332.38,369.25,332.66,369.89,332.94z"/>
	<path class="st10" d="M305.1,342.23c0.05-1.9-0.54-4.23,2-4.89c1.8-0.47,4.41-1.09,5.26,1.05c1.11,2.8-1.41,3.84-3.59,4.68
		C307.82,341.62,306.42,342.09,305.1,342.23z"/>
	<path class="st10" d="M368.31,311.75c-0.67,0.7-1.21,1.71-2.02,2.02c-1.56,0.6-3.32,0.71-4.53-0.78c-0.9-1.1-1.05-2.53,0.09-3.57
		c1.28-1.15,2.84-1.75,4.5-0.64c0.67,0.44,1.24,1.02,1.86,1.54C368.24,310.79,368.27,311.27,368.31,311.75z"/>
	<path class="st10" d="M289.34,325.24c3.22-0.41,4.23,1.05,4.51,3c0.26,1.83-0.93,2.69-2.67,2.79c-2.33,0.14-3.22-1.54-3.67-3.33
		C286.99,325.58,288.76,325.42,289.34,325.24z"/>
	<path class="st10" d="M393.01,326.06c-0.1,1.97-1.13,3.01-3.1,2.94c-1.72-0.05-2.72-1.01-2.76-2.75c-0.04-2.12,1.56-2.79,3.2-2.96
		C392.17,323.11,392.9,324.39,393.01,326.06z"/>
	<path class="st10" d="M334.43,340.08c1.85,0.07,3.52,0.45,3.43,2.65c-0.07,1.85-1.51,2.45-3.14,2.29
		c-1.79-0.18-3.21-1.27-3.37-3.04C331.11,339.61,333.17,340.29,334.43,340.08z"/>
	<path class="st9" d="M397.27,311.11c1.86-0.13,2.85,0.63,2.78,2.59c-0.05,1.33-0.46,2.32-1.98,2.31c-1.9-0.01-3.36-1-3.57-2.81
		C394.29,311.5,395.88,311.2,397.27,311.11z"/>
	<path class="st10" d="M285.08,308.09c0.66,0.06,1.35,0,1.97,0.2c2.05,0.64,2.1,2.33,1.94,4.05c-0.12,1.21-0.94,1.71-2.06,1.66
		c-2.45-0.1-2.95-1.73-2.83-3.79C285,309.77,285.09,308.96,285.08,308.09z"/>
	<path class="st9" d="M334.51,321.23c1.72,0.35,2.23,1.77,2.37,3.22c0.15,1.52-0.86,2.53-2.36,2.47c-1.78-0.07-2.47-1.37-2.4-3.03
		C332.19,322.41,332.93,321.46,334.51,321.23z"/>
	<path class="st10" d="M325.94,308.67c-0.33,1.65-1.3,2.34-2.78,2.34c-1.78,0-2.09-1.17-2.07-2.63c0.03-1.66,0.86-2.38,2.47-2.18
		C325.06,306.38,325.82,307.3,325.94,308.67z"/>
	<path class="st10" d="M384,303.21c1.11,1.81,1.82,3.68-0.17,5.32c-0.83,0.69-2.1,0.7-2.49-0.47c-0.67-2.02-0.49-3.97,1.83-5.02
		C383.46,303.08,383.73,303.14,384,303.21z"/>
	<path class="st9" d="M410.98,312.22c0.02-0.34,0.05-0.69,0.07-1.03c1.26,0.27,2.44,0.32,3.13-1.07c1.79,0.18,2.92,1.73,2.37,2.9
		c-1.1,2.34-3.5,1.29-5.47,1.07C411.05,313.47,411.02,312.84,410.98,312.22z"/>
	<path class="st9" d="M304.01,315.18c1.36-1.59,2.84-1.38,4.24-0.16c0.7,0.6,0.66,1.46,0.01,2.16c-1.54,1.63-2.99,0.37-4.45-0.17
		C303.87,316.4,303.94,315.79,304.01,315.18z"/>
	<path class="st9" d="M341.05,300.15c-0.19,1.89-1.03,3.12-3.13,2.69c-1.01-0.21-1.72-1.02-1.68-2.1c0.08-1.96,1.68-1.54,2.89-1.69
		C339.77,299.42,340.41,299.79,341.05,300.15z"/>
	<path class="st11" d="M272.17,324.82c-0.99-0.01-1.68-0.66-1.75-1.47c-0.12-1.41,0.89-2.05,2.18-2.16
		c0.94-0.08,1.82,0.48,1.81,1.32C274.39,323.78,273.36,324.47,272.17,324.82z"/>
	<path class="st9" d="M312.72,324.18c-0.25,1.11-0.93,1.72-2.02,1.73c-1.27,0.01-1.59-0.87-1.56-1.94c0.03-1.14,0.59-1.84,1.8-1.68
		C311.99,322.45,312.67,323.07,312.72,324.18z"/>
	<path class="st9" d="M390.42,304.21c1.05,0.18,1.59,0.7,1.46,1.66c-0.14,1.05-0.71,1.87-1.82,1.86c-1.12-0.01-1.8-0.78-1.62-1.9
		C388.61,304.75,389.51,304.33,390.42,304.21z"/>
	<path class="st12" d="M347.37,304c-1.18-0.13-1.83-0.77-1.56-1.96c0.18-0.78,0.58-1.66,1.62-1.49c1.11,0.19,1.68,1.04,1.62,2.11
		C349.01,303.6,348.35,304.07,347.37,304z"/>
	<path class="st12" d="M328,315.15c0.88,0.07,1.75,0.08,1.87,1.19c0.14,1.3-0.65,1.75-1.78,1.74c-1.09-0.01-1.98-0.36-1.85-1.69
		C326.35,315.32,327.21,315.22,328,315.15z"/>
	<path class="st12" d="M285.08,308.09c0.01,0.87-0.08,1.68-0.99,2.12c-1.22-0.78-3.55,1.94-3.64-0.33
		C280.32,306.78,283.43,308.6,285.08,308.09z"/>
	<path class="st11" d="M351.63,321.2c-0.15,0.91-0.72,1.46-1.59,1.46c-1.1,0.01-1.88-0.63-1.76-1.76c0.09-0.83,0.74-1.44,1.71-1.17
		C350.73,319.95,351.54,320.2,351.63,321.2z"/>
	<path class="st12" d="M281.08,336.16c0.49,0.04,1.49-0.01,1.54,1.06c0.05,1.16-0.87,1.63-1.9,1.72c-0.98,0.09-1.56-0.51-1.57-1.41
		C279.14,336.58,279.84,336.17,281.08,336.16z"/>
	<path class="st12" d="M325.72,346.42c-0.34,0.83-0.95,1.33-1.85,1.43c-1,0.11-1.67-0.41-1.67-1.36c0-1,0.79-1.35,1.72-1.34
		C324.82,345.14,325.54,345.39,325.72,346.42z"/>
	<path class="st9" d="M356.65,303.44c-0.33,0.81-0.86,1.38-1.78,1.46c-0.99,0.09-1.62-0.41-1.6-1.37c0.02-0.96,0.76-1.36,1.68-1.37
		C355.84,302.15,356.56,302.38,356.65,303.44z"/>
	<path class="st12" d="M344.13,311.34c0.93,0.26,1.6,0.73,1.69,1.65c0.09,0.98-0.55,1.69-1.43,1.6c-0.94-0.09-2.08-0.53-1.94-1.8
		C342.55,311.96,343.25,311.38,344.13,311.34z"/>
	<path class="st12" d="M381.88,326.16c0.04,1.09-0.48,1.68-1.41,1.73c-0.9,0.04-1.63-0.48-1.88-1.33c-0.33-1.15,0.56-1.38,1.41-1.41
		C380.83,325.11,381.68,325.19,381.88,326.16z"/>
	<path class="st12" d="M348.62,333.89c-0.03,0.85-0.66,1.09-1.29,1.06c-1.04-0.04-1.81-0.63-1.94-1.7
		c-0.11-0.84,0.64-1.06,1.26-1.05C347.72,332.22,348.37,332.85,348.62,333.89z"/>
	<path class="st12" d="M309.52,304.9c-1.22-0.13-1.9-0.63-2.12-1.45c-0.19-0.73,0.34-1.23,1.09-1.26c1.07-0.05,2.03,0.3,2.04,1.51
		C310.54,304.14,309.8,304.59,309.52,304.9z"/>
	<path class="st9" d="M373.67,322.9c-0.7-0.05-1.29-0.26-1.39-1.07c-0.12-1.02,0.41-1.54,1.39-1.53c0.78,0.01,1.19,0.59,1.18,1.29
		C374.86,322.3,374.45,322.81,373.67,322.9z"/>
	<path class="st13" d="M268.74,327.34c-1.41,1.24-2.45,0.68-3.24-0.58c-0.17-0.27,0.12-1.2,0.25-1.22
		C267.13,325.42,268.24,325.86,268.74,327.34z"/>
	<path class="st11" d="M305.1,342.23c1.32-0.14,2.72-0.61,3.68,0.84C306.85,345.83,305.72,345.15,305.1,342.23z"/>
	<path class="st9" d="M405.12,323.99c-0.86,1.11-2.26,1.59-2.68,0.16c-0.72-2.43,1.45-1.89,2.82-2
		C405.22,322.76,405.17,323.38,405.12,323.99z"/>
	<path class="st12" d="M380.33,336.11c1.4-1.61,2.96,0.42,4.29-0.55C382.83,337.06,382.83,337.06,380.33,336.11z"/>
	<path class="st9" d="M407.84,304.35c0.08,0.73-0.16,1.31-0.92,1.48c-1.01,0.23-1.62-0.28-1.66-1.24c-0.03-0.69,0.41-1.26,1.19-1.29
		C407.14,303.27,407.72,303.55,407.84,304.35z"/>
	<path class="st13" d="M353.95,343.68c-0.06,0.78-0.57,1.28-1.25,1.06c-0.53-0.17-1.13-0.75-1.3-1.28
		c-0.22-0.67,0.25-1.21,1.06-1.23C353.44,342.2,353.95,342.68,353.95,343.68z"/>
	<path class="st11" d="M341.05,300.15c-0.64-0.37-1.28-0.73-1.92-1.1c-0.03-1.29,0.43-2.41,1.87-1.81
		C342.74,297.97,342.06,299.15,341.05,300.15z"/>
	<path class="st12" d="M368.13,300.61c-0.8-0.15-0.96-0.73-0.91-1.4c0.06-0.8,0.67-1.04,1.33-1.05c0.67,0,1.33,0.31,1.23,1.09
		C369.66,300.1,369.05,300.6,368.13,300.61z"/>
	<path class="st13" d="M354.89,320.36c0.88,0.01,1.19,0.7,1.02,1.3c-0.15,0.51-0.73,1.09-1.24,1.25c-0.58,0.18-1.37-0.06-1.32-0.95
		C353.39,321.02,354.02,320.54,354.89,320.36z"/>
	<path class="st12" d="M362.8,336.66c-0.39,0.29-0.85,0.88-1.41,0.99c-0.73,0.14-1.22-0.49-1.22-1.22
		c-0.01-0.76,0.51-1.22,1.26-1.22C362.16,335.22,362.67,335.61,362.8,336.66z"/>
	<path class="st11" d="M410.98,312.22c0.03,0.62,0.07,1.25,0.1,1.87c-1.29-0.12-3.45,0.82-3.39-1.22
		C407.74,311.39,409.79,312.23,410.98,312.22z"/>
	<path class="st12" d="M343.67,345.92c0.07,0.9-0.62,1.12-1.23,1.11c-0.59-0.01-1.45-0.17-1.71-0.58c-0.4-0.63,0.11-1.18,0.87-1.26
		C342.39,345.11,343.21,345.01,343.67,345.92z"/>
	<path class="st12" d="M421.9,314.15c0.01,0-0.61,0.45-1.17,0.4c-0.48-0.05-1.13-0.6-1.31-1.08c-0.25-0.66,0.21-1.23,0.99-1.26
		C421.08,312.2,421.69,312.36,421.9,314.15z"/>
	<path class="st13" d="M319.98,303.1c0.55,0.12,1.43-0.11,1.33,0.82c-0.11,0.96-0.99,1.18-1.79,1.14c-0.38-0.02-1.02-0.41-1.06-0.7
		C318.31,303.28,319.17,303.18,319.98,303.1z"/>
	<path class="st12" d="M365.97,345.13c-0.65-0.1-1.42-0.14-1.41-1c0.01-0.87,0.74-0.96,1.41-0.91c0.7,0.05,1.37,0.36,1.4,1.11
		C367.42,345.31,366.54,345.04,365.97,345.13z"/>
	<path class="st12" d="M361.34,294c-0.25-0.23-0.77-0.48-0.84-0.82c-0.2-0.9,0.59-1.04,1.18-1c0.36,0.03,0.91,0.43,0.99,0.76
		C362.87,293.84,362.1,293.86,361.34,294z"/>
	<path class="st13" d="M324.11,330.38c0.22,0.25,0.64,0.51,0.76,0.87c0.22,0.65,0.06,1.35-0.69,1.5c-0.28,0.05-0.83-0.41-0.97-0.76
		C322.96,331.35,323.18,330.74,324.11,330.38z"/>
	<path class="st11" d="M369.89,332.94c-0.64-0.28-1.28-0.56-1.93-0.84c0.21-0.68,0.1-1.82,1.22-1.51
		C370.38,330.91,369.98,332.04,369.89,332.94z"/>
	<path class="st13" d="M402.98,302.37c-0.14,0.8-0.23,1.57-1.13,1.34c-0.34-0.09-0.77-0.66-0.78-1.02c-0.03-0.62,0.19-1.4,1.08-1.19
		C402.49,301.58,402.74,302.11,402.98,302.37z"/>
	<path class="st13" d="M414.19,310.12c-0.69,1.39-1.87,1.34-3.13,1.07C411.36,308.66,412.42,308.36,414.19,310.12z"/>
	<path class="st13" d="M384,303.21c-0.27-0.07-0.55-0.12-0.82-0.16c-0.07-1.1,0.17-2.01,1.51-1.92c0.36,0.03,0.96,0.49,0.99,0.81
		C385.8,303.12,384.7,302.94,384,303.21z"/>
	<path class="st13" d="M350.71,313.09c-0.24,0.23-0.5,0.63-0.86,0.78c-0.63,0.25-1.3,0.07-1.42-0.66c-0.05-0.27,0.4-0.8,0.74-0.92
		C349.76,312.06,350.38,312.18,350.71,313.09z"/>
	<path class="st13" d="M368.31,311.75c-0.03-0.48-0.07-0.96-0.1-1.43c0.97-0.02,2.53-0.76,2.42,0.97
		C370.55,312.42,369.18,311.93,368.31,311.75z"/>
	<path class="st13" d="M405.12,323.99c0.05-0.61,0.09-1.23,0.14-1.84c0.88,0.08,2.32-0.36,2.36,0.79
		C407.68,324.65,406.11,323.94,405.12,323.99z"/>
	<path class="st13" d="M314.74,301.13c-0.25,0.22-0.5,0.62-0.86,0.75c-0.64,0.23-1.31,0.06-1.44-0.68c-0.05-0.27,0.4-0.8,0.73-0.94
		C313.8,300.02,314.38,300.23,314.74,301.13z"/>
	<path class="st12" d="M336.27,304.03c0.47,0.26,1.12,0.45,1.13,0.67c0.03,0.69-0.52,1.13-1.18,1.09c-0.3-0.02-0.79-0.53-0.79-0.81
		C335.45,304.67,335.94,304.38,336.27,304.03z"/>
	<path class="st13" d="M411.67,324.03c-0.66-0.02-1.34-0.13-1.26-0.96c0.03-0.27,0.63-0.73,0.91-0.69c0.38,0.06,0.82,0.44,1.03,0.8
		C412.74,323.86,412.07,323.87,411.67,324.03z"/>
	<path class="st11" d="M377.8,313.79c-0.24,0.4-0.39,0.64-0.53,0.88c-0.31-0.21-0.67-0.38-0.9-0.65c-0.07-0.08,0.28-0.69,0.36-0.68
		C377.09,313.4,377.43,313.62,377.8,313.79z"/>
	<path class="st13" d="M325.83,295.43c-0.41,0.09-0.79,0.26-1.16,0.22c-0.13-0.01-0.22-0.5-0.33-0.77c0.37-0.14,0.73-0.33,1.1-0.39
		C325.5,294.48,325.66,295,325.83,295.43z"/>
	<path class="st12" d="M304.01,315.18c-0.07,0.61-0.14,1.22-0.21,1.82c-0.51-0.27-1.42-0.51-1.45-0.83
		C302.25,315.02,303.23,315.17,304.01,315.18z"/>
	<path class="st13" d="M303.88,325.82c-0.24,0.42-0.39,0.67-0.54,0.92c-0.32-0.22-0.7-0.4-0.94-0.69c-0.06-0.08,0.29-0.71,0.39-0.69
		C303.16,325.42,303.5,325.64,303.88,325.82z"/>
	<path class="st12" d="M386.9,316.31c0.4,0.24,0.64,0.39,0.88,0.54c-0.22,0.33-0.39,0.69-0.67,0.95c-0.07,0.06-0.71-0.3-0.69-0.38
		C386.5,317.04,386.72,316.7,386.9,316.31z"/>
	<path class="st14" d="M568.94,197.17c4.19-0.42,7.64,0.82,11.17,1.78c4.19,1.13,6.52,3.8,6.93,8.04c0.46,4.75-2.59,7.15-6.35,9.08
		c-14,7.19-29.32,10.44-44.27,14.7c-22.35,6.38-44.09,14.19-65.2,23.98c-4.83,2.24-9.21,3.88-11.42,9.05
		c-0.43,1.01-0.89,3.14-2.52,2.49c-1.92-0.76-1.52-2.96-0.94-4.42c2.51-6.32,6.84-11.52,13.32-13.31
		c10.3-2.83,19.69-7.79,29.68-11.32c11.27-3.99,22.79-7.16,34.07-11.05c8.45-2.91,16.81-6.24,25.46-8.33
		c6.57-1.58,12.39-4.66,18.57-7.01c1.65-0.63,3.61-1.32,3.54-3.68c-0.08-2.66-2.5-2.96-4.21-3.63c-6.31-2.48-12.77-0.88-19.12-0.12
		c-6.55,0.78-13.19,1.23-19.5,3.44c-0.93,0.32-2.12,0.43-2.67-0.64c-0.76-1.49,0.53-2.03,1.54-2.6c6.5-3.75,13.88-4.41,21.04-5.38
		C561.77,197.76,565.49,196.24,568.94,197.17z"/>
</g>
</svg>
