<?xml version="1.0" encoding="utf-8"?>
<!-- Generator: Adobe Illustrator 26.0.3, SVG Export Plug-In . SVG Version: 6.00 Build 0)  -->
<svg version="1.1" id="Layer_1" xmlns="http://www.w3.org/2000/svg" xmlns:xlink="http://www.w3.org/1999/xlink" x="0px" y="0px"
	 viewBox="0 0 792 612" style="enable-background:new 0 0 792 612;" xml:space="preserve">
<style type="text/css">
	.st0{fill:#245C7E;}
	.st1{fill:#5B53AB;}
	.st2{fill:#A9CFF0;}
	.st3{fill:#4644AC;}
	.st4{fill:#D2E8F7;}
</style>
<g>
	<path class="st0" d="M298.24,460.73c-0.08-1.3-0.17-2.6-0.25-3.9c0-3.98,0.81-8.18-0.16-11.91c-3.96-15.18-4.98-30.82-7.14-46.22
		c-1.9-13.55-3.98-27.18-4.62-40.93c-0.08-1.64-0.35-3.35-2.19-4.14c-0.08-1.06-0.16-2.12-0.24-3.18c1.07-1.51,0.7-3.27,0.51-4.84
		c-1.4-11.25-2.8-22.51-4.49-33.72c-0.92-6.08-0.92-12.27-1.94-18.25c-1.32-7.73-2.97-15.37-3.53-23.22
		c-0.46-6.53-1.27-13.05-2.25-19.53c-0.35-2.31-0.37-4.64-0.77-6.89c-1.12-6.2,2.23-11.54,2.98-17.35c0,0,0.16-0.14,0.16-0.14
		c0.27-0.15,0.55-0.3,0.82-0.44c5.1-1.84,10.2-3.65,15.56-4.61c24.35-4.37,48.99-4.29,73.58-4.81c31.61-0.66,63.24-0.23,94.81,1.24
		c15.9,0.74,31.81,2.4,47.67,4.28c6.73,0.8,13.3,2.99,20.18,2.57c1.06-0.06,2.39-0.27,3.09,1.03c-0.06,0.15-0.19,0.31-0.15,0.43
		c0.03,0.13,0.22,0.33,0.33,0.32c5.93-0.18,11.05,4.52,17.21,2.86c0.98,0.12,1.97,0.24,2.95,0.35c1.38,2.84,3.69,4.04,6.79,3.84
		c0,0,0.17,0.14,0.17,0.14c3.64,6.44,3.46,13.14,2.04,20.21c-1.54,7.62-1.62,15.57-3.59,23.05c-2.18,8.28-3.76,16.71-5.05,25.07
		c-2,12.95-4.55,25.82-6.92,38.68c-2.3,12.44-4.16,24.99-7.12,37.36c-1.97,8.24-3.5,16.77-4.24,25.29
		c-0.37,4.27-3.45,8.13-1.79,12.63c-0.05,0.56-0.11,1.12-0.16,1.68c-1.06,0.15-2.01,0.56-2.01,1.78
		c-0.01,7.68-2.92,14.84-3.92,22.31c-1.79,13.38-5.18,26.43-7.43,39.69c-1.03,6.08-3.99,11.96-2.59,18.4
		c-0.06,0.62-0.13,1.23-0.19,1.85c-2.21,0.3-2.85,2.89-4.69,3.45c-9.32,2.89-18.54,6.65-28.11,8.1c-13.4,2.04-27.06,2.98-40.62,3.13
		c-12.91,0.15-25.87-0.91-38.79-1.45c-19.55-0.82-38.81-3.13-57.96-7.02c-4.3-0.87-8.44-3.4-13.11-2.03
		c-0.63-0.08-1.27-0.17-1.9-0.25c-5.97-3.84-12.61-6.07-19.32-8.16c-0.27,0.03-0.44-0.09-0.49-0.36c-0.41-1.88-1.86-3.03-3.07-4.35
		c-2.65-2.89-4.3-6.23-4.06-10.23c0.37-6.28-2.95-12.1-2.16-18.46C300.2,462.88,299.42,461.54,298.24,460.73z M368.21,474
		c-2.65-0.15-5.3-0.3-7.95-0.46c-2.29-1.97-5.13-0.98-7.69-1.32c-7.56-0.98-15.13-1.91-22.61-3.45c-3.01-0.62-4.96-0.05-3.93,3.84
		c0.89,3.35,1.98,6.81,1.96,10.21c-0.08,11.88,6.18,16.6,17.37,17.51c9.36,0.76,18.51,3.57,28,3.67c1.31,0.19,2.61,0.39,3.92,0.58
		c2.12,1.88,4.61,0.99,6.99,0.92c4.32,0.39,8.64,0.79,12.96,1.18c3.31,1.46,6.7,0.73,10.09,0.42c2.96,0.04,5.91,0.09,8.87,0.13
		c4.32,0.13,8.64,0.35,12.95,0.38c18.8,0.15,37.57-0.03,56.13-3.62c8.44-1.63,8.4-1.6,10.27-9.95c0.58-2.58,1.72-5.04,2.23-7.63
		c0.81-4.06,2.32-7.98,2.31-12.21c-0.01-2.69-0.67-3.84-3.86-3.25c-13.73,2.54-27.63,3.95-41.58,4.27
		c-20.14,0.47-40.28,0.46-60.42,0.66c-6.65-0.45-13.3-0.9-19.96-1.35C372.34,473.28,370.26,473.83,368.21,474z M334.25,236.51
		c-3.66-0.05-7.32-0.1-10.97-0.14c-5.35-0.4-10.69-0.23-16.03,0.2c-8.97-0.05-17.94,0.02-26.9-0.23c-3.09-0.09-3.8,1.06-3.31,3.78
		c1.08,6.02,2.26,12.02,3.12,18.07c3.02,21.32,5.91,42.65,8.86,63.97c0.6,4.36,1.23,8.72,2.04,14.39
		c7.14-7.42,15.28-10.22,24.2-11.06c0.25,0.21,0.53,0.32,0.85,0.32c0.01,1.23,0.02,2.46,0.03,3.69c-7.61-0.22-14.26,2.12-20.06,7.12
		c-1.56,1.35-4.24,1.67-3.73,4.56c0.43,2.47,2.51,3.43,4.55,4.15c7.82,2.76,15.83,4.69,24.12,5.34c0.19,0.87,0.38,1.75,0.57,2.62
		c-1.21,1.66-2.89,1.41-4.54,1.06c-6.95-1.48-14.05-2.38-20.6-5.48c-1.04-0.49-2.58-1.64-3.64-0.39c-1.01,1.18-0.92,3.16-0.08,4.24
		c1.36,1.75,1.73,3.56,1.52,5.57c-0.87,8.46,3.4,16.47,2.12,24.96c-0.05,0.32-0.01,0.71,0.14,0.98c5.04,8.85,3.7,19.04,5.32,28.52
		c1.83,10.7,2.23,21.7,4.3,32.48c1.56,8.12,4.48,10.85,12.32,12.61c4.87,1.09,9.78,1.18,14.55,2.16c8.47,1.74,16.79,4.1,25.56,3.48
		c9.75,2.18,19.68,1.95,29.57,2.08c12.74-0.83,25.36,2.26,37.96,1.64c7.96-0.39,15.97-1.92,24-1.52c10.77,0.53,21.2-3.41,31.98-2.14
		c0.32,0.04,0.68,0,0.99-0.11c7.64-2.54,15.4-4.11,23.52-3.93c4.13,0.09,7.48-3.67,7.68-7.95c0.08-1.66-0.32-3.62,0.42-4.91
		c2.97-5.19,1.82-11.13,3.19-16.64c1.29-5.22,2.23-10.89,2.98-16.38c0.5-3.65,0.55-7.81,2.01-11.43c1.96-4.86,2.66-10.1,3.11-15.09
		c0.49-5.41,1.69-10.82,2.97-15.81c1.09-4.29,1.73-8.98,2.62-13.21c1.12-5.27,4.08-10.79,2.31-17.01c-2.21,1.29-4.44,2.16-6.11,3.66
		c-5.11,4.59-11.35,6.84-17.7,8.66c-12,3.44-24.42,4.55-36.81,5.08c-23.23,0.99-46.48,1.38-69.71,2.15
		c-15.81,0.53-31.56-1.09-47.35-1.1c-0.91-1.16-1.15-2.48-0.92-3.9c7.98-0.3,15.93,0.7,23.88,0.85c23.43,0.43,46.83-0.67,70.24-1.73
		c15.9-0.72,31.84-0.4,47.62-3.09c12.3-2.1,23.72-6.15,33.45-14.18c2.34-1.93,4.03-6.22,1.24-6.89c-4.54-1.09-7.61-5.31-12.52-4.98
		c-10.65,0.72-21.21-1.37-31.87-1.07c-6.45,0.18-12.95-0.5-19.38-0.67c-24.73-0.64-49.42-2.07-74.13-3.18
		c-14.62-0.66-29.17,1.14-43.74,2.02c-0.66-0.92-1.01-1.91-0.75-3.05c14.69-2.18,29.47-2.4,44.27-2.1
		c6.98,0.14,13.95,0.55,20.93,0.82c16.63,0.64,33.26,1.2,49.88,1.93c14.94,0.65,29.87,1.72,44.81,2.14
		c9.49,0.26,18.66,1.63,27.92,5.16c1.43-7.1,2.75-14.09,4.25-21.04c4.58-21.23,7.43-42.82,13.34-63.77c0.76-2.68-0.1-3.49-2.83-3.45
		c-33.3,0.49-66.56-1.12-99.84-1.62c-31.13-0.47-62.27-0.31-93.41-0.39c-7.14-0.02-14.22-1.84-21.39-0.62
		C336.24,236.65,335.24,236.58,334.25,236.51z M543.97,232.04c-4.81-0.06-8.02-2.16-11.45-2.3c-10.28-0.43-20.52-2.09-30.52-3.69
		c-17.76-2.84-35.65-2.46-53.41-3.92c-23.46-1.93-47.21-1.22-70.82-1.28c-12.43-0.03-24.93,1.13-37.37,0.62
		c-11.53-0.47-22.69,2.72-34.22,2.37c-6.66-0.2-13.45,1.48-20.05,2.9c-3.13,0.67-6.58,1.31-9.7,3.86c3.3,1.46,6.16,1.97,9.15,2.01
		c46.61,0.54,93.22-0.44,139.85,0.85c37.29,1.03,74.64,0.24,111.96,0.22C539.12,233.67,541.01,234.25,543.97,232.04z"/>
	<path class="st1" d="M530.64,416c-1.65-4.51,1.42-8.36,1.79-12.63c0.74-8.52,2.27-17.05,4.24-25.29
		c2.95-12.37,4.82-24.92,7.12-37.36c2.38-12.86,4.93-25.72,6.92-38.68c1.29-8.35,2.87-16.78,5.05-25.07
		c1.96-7.48,2.05-15.43,3.59-23.05c1.43-7.07,1.6-13.77-2.04-20.21c6.58,4.99,4.83,12.02,3.8,18.32
		c-3.9,23.93-8.19,47.79-12.53,71.65c-3.98,21.9-8.15,43.76-12.35,65.62C534.53,398.24,533.67,407.35,530.64,416z"/>
	<path class="st1" d="M331.06,505.88c4.67-1.37,8.81,1.15,13.11,2.03c19.15,3.89,38.41,6.2,57.96,7.02
		c12.93,0.54,25.88,1.6,38.79,1.45c13.56-0.16,27.22-1.1,40.62-3.13c9.56-1.45,18.78-5.21,28.11-8.1c1.84-0.57,2.47-3.16,4.69-3.45
		c0.22,2.82-1.55,4.11-3.83,4.98c-33.04,12.58-67.54,11.14-101.92,10.36c-19.62-0.44-39.09-2.95-58.4-6.31
		C343.75,509.6,337.04,509.02,331.06,505.88z"/>
	<path class="st1" d="M274.14,226.64c-0.74,5.82-4.1,11.15-2.98,17.35c0.41,2.25,0.42,4.59,0.77,6.89c0.98,6.48,1.78,13,2.25,19.53
		c0.56,7.86,2.21,15.5,3.53,23.22c1.02,5.98,1.03,12.17,1.94,18.25c1.69,11.21,3.09,22.46,4.49,33.72c0.2,1.57,0.56,3.33-0.51,4.84
		c-2.73-11.51-3.4-23.32-5.08-34.98c-2.25-15.61-4.22-31.27-6.06-46.93c-1.18-10.06-2.68-20.11-2.48-30.27
		C270.1,234,270.99,229.89,274.14,226.64z"/>
	<path class="st1" d="M283.88,353.63c1.84,0.79,2.12,2.5,2.19,4.14c0.63,13.74,2.72,27.38,4.62,40.93
		c2.16,15.4,3.18,31.05,7.14,46.22c0.97,3.73,0.15,7.93,0.16,11.91c-2.42-5.75-2.35-11.99-3.23-18
		c-2.76-18.68-5.07-37.42-7.47-56.15C286.05,373.01,285.01,363.32,283.88,353.63z"/>
	<path class="st1" d="M514.52,499.85c-1.4-6.43,1.56-12.32,2.59-18.4c2.25-13.26,5.64-26.31,7.43-39.69
		c1-7.47,3.91-14.63,3.92-22.31c0-1.22,0.95-1.62,2.01-1.78c-0.26,6.8-2.16,13.33-3.34,19.98c-2.34,13.22-4.78,26.43-7.56,39.56
		C517.99,484.78,517.43,492.58,514.52,499.85z"/>
	<path class="st1" d="M298.24,460.73c1.17,0.81,1.95,2.15,1.8,3.35c-0.79,6.35,2.52,12.18,2.16,18.46c-0.23,4,1.41,7.34,4.06,10.23
		c1.21,1.32,2.66,2.47,3.07,4.35c-4.37-1.24-6.42-4.91-7.29-8.64C299.92,479.38,298.95,470.05,298.24,460.73z"/>
	<path class="st1" d="M309.83,497.47c6.71,2.09,13.35,4.32,19.32,8.16C322.16,504.22,315.49,502.04,309.83,497.47z"/>
	<path class="st1" d="M547.4,229.38c-6.17,1.66-11.29-3.03-17.21-2.86c-0.11,0-0.3-0.19-0.33-0.32c-0.03-0.12,0.1-0.29,0.15-0.43
		C535.98,226.13,541.96,226.48,547.4,229.38z"/>
	<path class="st1" d="M557.14,233.58c-3.1,0.2-5.41-1.01-6.79-3.84C552.88,230.55,555.44,231.3,557.14,233.58z"/>
	<path class="st1" d="M275.12,226.06c-0.27,0.15-0.55,0.3-0.82,0.44C274.58,226.36,274.85,226.21,275.12,226.06z"/>
	<path class="st2" d="M337.23,236.72c7.17-1.22,14.25,0.6,21.39,0.62c31.14,0.08,62.28-0.08,93.41,0.39
		c33.28,0.5,66.55,2.11,99.84,1.62c2.73-0.04,3.58,0.76,2.83,3.45c-5.91,20.95-8.76,42.54-13.34,63.77
		c-1.5,6.95-2.82,13.94-4.25,21.04c-9.25-3.52-18.42-4.89-27.92-5.16c-14.95-0.42-29.87-1.48-44.81-2.14
		c-16.62-0.72-33.25-1.29-49.88-1.93c-6.98-0.27-13.95-0.68-20.93-0.82c-14.8-0.3-29.58-0.08-44.27,2.1c0,0-0.26-0.26-0.26-0.26
		c-0.36-8.09-2.85-15.86-3.46-23.95c-0.67-8.87-1.96-17.72-3.4-26.5C340.44,258.22,340.58,247.2,337.23,236.72z"/>
	<path class="st3" d="M356.17,359.54c15.79,0.01,31.54,1.63,47.35,1.1c23.24-0.78,46.49-1.16,69.71-2.15
		c12.39-0.53,24.81-1.64,36.81-5.08c6.35-1.82,12.59-4.07,17.7-8.66c1.67-1.5,3.9-2.37,6.11-3.66c1.78,6.22-1.19,11.74-2.31,17.01
		c-0.9,4.23-1.53,8.92-2.62,13.21c-1.27,4.99-2.48,10.4-2.97,15.81c-0.45,4.99-1.15,10.24-3.11,15.09
		c-1.46,3.62-1.52,7.77-2.01,11.43c-0.75,5.49-1.68,11.16-2.98,16.38c-1.37,5.51-0.22,11.45-3.19,16.64
		c-0.74,1.3-0.35,3.26-0.42,4.91c-0.2,4.28-3.56,8.04-7.68,7.95c-8.12-0.17-15.88,1.39-23.52,3.93c-0.31,0.1-0.67,0.14-0.99,0.11
		c-10.79-1.27-21.21,2.67-31.98,2.14c-8.03-0.4-16.04,1.13-24,1.52c-12.59,0.62-25.22-2.47-37.96-1.64
		c-1.98-4.25-3.97-8.49-5.95-12.74c0.05-1.19,0.39-2.48-1.11-3.12l0.02,0.02c1.52-3.93,2.61-1.03,3.38,0.35
		c3.27,5.84,8.58,8.73,14.81,8.1c5.66-0.57,11.27-0.36,16.89-0.54c7.93-0.25,15.84,0.38,23.7-1.94c13.18-3.9,26.98-4.28,40.51-6.16
		c1.46-0.2,3.14-0.45,4.24-1.3c4.4-3.4,9.71-4.24,14.83-5.41c3.51-0.8,5.54-3,8.03-5.3c6.71-6.2,5.26-14.54,6.7-22.11
		c0.31-1.61-0.07-3.23-2.45-1.79c-3.82,2.31-6.16,0.58-7.95-2.93c-1.27-2.5-2.55-5.09-5.6-5.99c-14.16-4.17-27.8-9.87-42.99-10.53
		c-13.86-0.6-27.68-2.24-41.59-2.74c-3.6-0.13-7.16,0.53-10.8-0.05c-10.4-1.67-20.91-0.95-31.34-0.44
		c-4.42,0.22-8.76,2.69-10.95-3.37C358.83,378.27,356.94,368.99,356.17,359.54z"/>
	<path class="st2" d="M356.17,359.54c0.77,9.45,2.66,18.73,4.32,28.04c1.77,17.66,9.47,33.47,15.65,49.74
		c1.58,4.16,2.23,8.7,4.93,12.41c0,0-0.02-0.02-0.02-0.02c-0.06,1.19,0.07,2.31,1.11,3.12c1.98,4.25,3.97,8.49,5.95,12.74
		c-9.9-0.14-19.82,0.1-29.58-2.08c-4.07-6.43-8-12.94-11.01-19.95c-4.89-15.95-12.94-30.75-17.16-46.94
		c-0.18-1.01-0.35-2.03-0.53-3.04c-0.16-0.37-0.33-0.75-0.49-1.12c-1.97-13.17-4.91-26.14-7.78-39.13
		c-0.19-0.87-0.38-1.75-0.57-2.62c-1.37-7.12-2.66-14.25-4.87-21.17c-0.01-1.23-0.02-2.46-0.03-3.69
		c10.73-3.41,21.93-4.43,32.94-6.4c0,0,0.26,0.26,0.26,0.26c-0.26,1.14,0.09,2.14,0.75,3.05c0.45,3.25,0.9,6.5,1.35,9.74
		c-7.66,2.98-16.1,3.49-23.94,7.18c1.93,1.5,3.63,0.91,5.22,1c6.98,0.39,13.74-1.6,20.66-1.87c-0.74,5.78,1.27,11.25,1.9,16.87
		C355.02,357.06,355.26,358.38,356.17,359.54z"/>
	<path class="st3" d="M351.4,332.46c-0.45-3.25-0.9-6.5-1.35-9.74c14.57-0.88,29.12-2.68,43.74-2.02
		c24.71,1.11,49.39,2.54,74.13,3.18c6.43,0.17,12.93,0.85,19.38,0.67c10.66-0.3,21.22,1.79,31.87,1.07
		c4.91-0.33,7.97,3.89,12.52,4.98c2.78,0.67,1.1,4.96-1.24,6.89c-9.73,8.03-21.15,12.08-33.45,14.18
		c-15.78,2.69-31.72,2.37-47.62,3.09c-23.41,1.06-46.81,2.16-70.24,1.73c-7.95-0.14-15.9-1.14-23.88-0.85
		c-0.63-5.62-2.64-11.09-1.9-16.87c13.29-0.39,26.57-0.78,39.85-1.17c1.67,0.02,3.33,0.06,5,0.06c21.26-0.01,42.51-0.07,63.77,0.04
		c1.02,0.01,3.64-1.78,3.34,1.59c-1.55,0.57-3.33,0.84-4.61,1.78c-1.97,1.44-6.06,1.52-5.25,4.93c0.68,2.88,4.23,2.89,6.8,3.06
		c2.27,0.16,4.61-0.34,6.89-0.69c3.27-0.51,6.51-1.15,9.77-1.74c7.32-1.33,14.66-2.59,21.95-4.04c2.87-0.57,5.39-1.9,5.64-5.36
		c0.23-3.21-1.74-4.79-4.44-5.79c-0.62-0.23-1.2-0.55-1.8-0.83c-0.86-1.25-2.11-0.99-3.33-0.85c-4.9-0.79-9.81-1.58-14.71-2.37
		c-18.96-1.37-37.92-1.23-56.88-0.07c-1.02,0.07-2.04,0.15-3.06,0.22c-0.57-2.71-3.12-2.38-4.33-1.77
		c-5.01,2.5-10.56,1.06-15.64,2.62c-7.74,0.65-15.49,1.33-23.23,1.95C369.84,331.07,360.62,331.75,351.4,332.46z M439.92,347.94
		c-1.68-1.03-2.3-1.65-3.04-1.83c-8.45-2.02-17.07-1.24-25.63-1.38c-1.09-0.02-1.93,0.62-1.85,1.84c0.07,1.13,0.91,1.75,1.93,1.95
		C420.56,350.38,429.78,351.7,439.92,347.94z"/>
	<path class="st4" d="M349.05,319.4c-11.01,1.97-22.21,2.99-32.94,6.4c-0.32,0-0.61-0.11-0.85-0.32
		c-1.23-11.32-3.72-22.46-5.46-33.7c-2.6-16.78-3.95-33.5-3.58-50.43c0.04-1.7,0.19-3.31,1.04-4.8c5.34-0.42,10.68-0.59,16.03-0.2
		c3.63,2.07,7.29,1.87,10.97,0.14c0.99,0.07,1.99,0.14,2.98,0.21c3.35,10.48,3.21,21.5,4.96,32.23c1.44,8.79,2.73,17.63,3.4,26.5
		C346.2,303.54,348.68,311.31,349.05,319.4z"/>
	<path class="st2" d="M394.22,475.91c20.14-0.2,40.29-0.19,60.42-0.66c13.95-0.32,27.84-1.73,41.58-4.27
		c3.19-0.59,3.85,0.57,3.86,3.25c0.01,4.22-1.5,8.15-2.31,12.21c-0.51,2.59-1.66,5.05-2.23,7.63c-1.87,8.35-1.83,8.32-10.27,9.95
		c-18.56,3.59-37.34,3.77-56.13,3.62c-4.32-0.03-8.64-0.25-12.95-0.38c-0.57-2.32-2.12-4.04-3.57-5.82
		C405.95,493.3,400.05,484.63,394.22,475.91z"/>
	<path class="st3" d="M321.57,353.29c2.87,12.99,5.8,25.96,7.78,39.13c0.16,0.38,0.33,0.75,0.49,1.12c0.18,1.01,0.35,2.03,0.52,3.04
		c-4.02,1.09-7.9,3.01-10.76,5.69c-3.85,3.61-8.61,7.48-8.19,13.57c0.74,10.77,6.06,18.35,16.76,21.62
		c6.46,1.98,12.9,4.04,19.35,6.06c3.01,7.01,6.95,13.52,11.01,19.95c-8.77,0.62-17.09-1.74-25.56-3.48
		c-4.77-0.98-9.68-1.07-14.55-2.16c-7.84-1.76-10.76-4.49-12.32-12.61c-2.07-10.78-2.47-21.78-4.3-32.48
		c-1.62-9.48-0.28-19.66-5.32-28.52c-0.15-0.27-0.18-0.66-0.14-0.98c1.27-8.49-2.99-16.5-2.12-24.96c0.21-2.01-0.16-3.82-1.52-5.57
		c-0.84-1.09-0.93-3.07,0.08-4.24c1.07-1.25,2.61-0.1,3.64,0.39c6.54,3.1,13.64,4,20.6,5.48
		C318.68,354.7,320.37,354.95,321.57,353.29z"/>
	<path class="st1" d="M543.97,232.04c-2.96,2.21-4.85,1.63-6.59,1.64c-37.32,0.02-74.66,0.82-111.96-0.22
		c-46.62-1.29-93.23-0.31-139.85-0.85c-2.99-0.03-5.85-0.54-9.15-2.01c3.12-2.55,6.57-3.19,9.7-3.86c6.61-1.41,13.39-3.1,20.05-2.9
		c11.53,0.34,22.69-2.84,34.22-2.37c12.44,0.51,24.94-0.65,37.37-0.62c23.61,0.06,47.36-0.65,70.82,1.28
		c17.76,1.46,35.65,1.07,53.41,3.92c10.01,1.6,20.24,3.26,30.52,3.69C535.95,229.88,539.16,231.97,543.97,232.04z"/>
	<path class="st2" d="M307.25,236.56c-0.85,1.49-1,3.1-1.04,4.8c-0.37,16.92,0.98,33.65,3.58,50.43c1.75,11.24,4.23,22.38,5.46,33.7
		c-8.92,0.85-17.06,3.64-24.2,11.06c-0.8-5.67-1.44-10.03-2.04-14.39c-2.95-21.33-5.84-42.66-8.86-63.97
		c-0.86-6.05-2.04-12.06-3.12-18.07c-0.49-2.72,0.22-3.86,3.31-3.78C289.31,236.58,298.28,236.51,307.25,236.56z"/>
	<path class="st4" d="M394.22,475.91c5.83,8.73,11.74,17.4,18.4,25.53c1.45,1.77,3,3.49,3.57,5.82c-2.96-0.04-5.91-0.09-8.87-0.13
		c-3.26-2.68-6.65-1.92-10.09-0.42c-4.32-0.39-8.64-0.79-12.96-1.18c-1.95-3.17-4.45-2.21-6.99-0.92c-1.31-0.19-2.61-0.39-3.92-0.58
		c-2.08-3.71-4.22-7.35-6.65-10.88c-3.24-4.73-5.6-10.05-8.5-15.03c-1.57-2.69-0.37-3.82,2.05-4.56c2.65,0.15,5.3,0.3,7.95,0.46
		c1.78,2.71,3.89,1.91,6.05,0.56C380.91,475.01,387.56,475.46,394.22,475.91z"/>
	<path class="st2" d="M360.26,473.55c-2.42,0.74-3.61,1.87-2.05,4.56c2.9,4.98,5.26,10.3,8.5,15.03c2.42,3.53,4.56,7.17,6.65,10.88
		c-9.49-0.1-18.64-2.91-28-3.67c-11.19-0.91-17.45-5.64-17.37-17.51c0.02-3.4-1.07-6.86-1.96-10.21c-1.03-3.88,0.92-4.46,3.93-3.84
		c7.48,1.54,15.05,2.46,22.61,3.45C355.13,472.56,357.97,471.58,360.26,473.55z"/>
	<path class="st3" d="M316.13,329.49c2.22,6.92,3.5,14.06,4.87,21.17c-8.29-0.65-16.3-2.58-24.12-5.34
		c-2.03-0.72-4.11-1.68-4.55-4.15c-0.51-2.89,2.17-3.22,3.73-4.56C301.87,331.62,308.53,329.27,316.13,329.49z"/>
	<path class="st2" d="M397.23,506.7c3.43-1.5,6.83-2.26,10.09,0.42C403.93,507.43,400.54,508.16,397.23,506.7z"/>
	<path class="st2" d="M377.28,504.6c2.54-1.29,5.04-2.24,6.99,0.92C381.89,505.59,379.4,506.48,377.28,504.6z"/>
	<path class="st2" d="M374.26,474.56c-2.16,1.35-4.27,2.15-6.05-0.56C370.26,473.83,372.34,473.28,374.26,474.56z"/>
	<path class="st2" d="M334.25,236.51c-3.68,1.72-7.34,1.93-10.97-0.14C326.93,236.41,330.59,236.46,334.25,236.51z"/>
	<path class="st1" d="M381.08,449.73c-2.7-3.71-3.35-8.26-4.93-12.41c-6.19-16.27-13.88-32.08-15.65-49.74
		c2.2,6.06,6.54,3.58,10.96,3.37c10.42-0.51,20.94-1.23,31.34,0.44c3.64,0.58,7.2-0.07,10.8,0.05c13.9,0.5,27.73,2.14,41.59,2.74
		c15.19,0.66,28.83,6.36,42.99,10.53c3.06,0.9,4.33,3.49,5.6,5.99c1.79,3.51,4.13,5.24,7.95,2.93c2.38-1.44,2.76,0.18,2.45,1.79
		c-1.44,7.58,0.01,15.91-6.7,22.11c-2.49,2.3-4.52,4.49-8.03,5.3c-5.13,1.17-10.43,2.02-14.83,5.41c-1.1,0.85-2.78,1.1-4.24,1.3
		c-13.53,1.88-27.33,2.26-40.51,6.16c-7.86,2.32-15.77,1.69-23.7,1.94c-5.62,0.18-11.23-0.03-16.89,0.54
		c-6.22,0.63-11.54-2.26-14.81-8.1C383.69,448.7,382.6,445.8,381.08,449.73z"/>
	<path class="st1" d="M382.16,452.83c-1.03-0.8-1.17-1.92-1.11-3.12C382.55,450.35,382.21,451.64,382.16,452.83z"/>
	<path class="st4" d="M393.2,337.59c-13.28,0.39-26.57,0.78-39.85,1.17c-6.92,0.27-13.69,2.27-20.66,1.87
		c-1.58-0.09-3.29,0.5-5.22-1c7.83-3.69,16.28-4.2,23.94-7.18c9.22-0.71,18.44-1.4,27.65-2.13c7.75-0.62,15.49-1.3,23.23-1.95
		c6.68,0.19,13.37,0.61,19.97-0.84c1.02-0.07,2.04-0.15,3.06-0.22c18.96,0.02,37.92,0.05,56.88,0.07c4.9,0.79,9.81,1.58,14.71,2.37
		c0.94,0.93,2.13,0.9,3.33,0.85c0.6,0.28,1.18,0.61,1.8,0.83c2.71,1,4.67,2.58,4.44,5.79c-0.25,3.46-2.76,4.79-5.64,5.36
		c-7.3,1.45-14.63,2.71-21.95,4.04c-3.25,0.59-6.5,1.23-9.77,1.74c-2.29,0.36-4.62,0.85-6.89,0.69c-2.57-0.18-6.12-0.18-6.8-3.06
		c-0.81-3.41,3.28-3.5,5.25-4.93c1.29-0.94,3.06-1.21,4.61-1.78c4.03-0.54,8.06-1.09,12.09-1.63c1.3-0.13,2.74,0.45,4.79-1.1
		c-2.21,0-3.49,0-4.78,0c-19.79-1.21-39.58-1.26-59.36,0.01C409.76,337.1,401.41,335.74,393.2,337.59z"/>
	<path class="st1" d="M347.52,443.53c-6.45-2.02-12.89-4.08-19.35-6.06c-10.69-3.27-16.01-10.86-16.76-21.62
		c-0.42-6.09,4.34-9.96,8.19-13.57c2.86-2.68,6.74-4.6,10.76-5.69C334.59,412.78,342.64,427.58,347.52,443.53z"/>
	<path class="st1" d="M329.84,393.55c-0.16-0.37-0.33-0.75-0.49-1.12C329.51,392.8,329.67,393.17,329.84,393.55z"/>
	<path class="st4" d="M439.92,347.94c-10.14,3.76-19.36,2.44-28.59,0.58c-1.02-0.21-1.86-0.83-1.93-1.95
		c-0.08-1.22,0.76-1.86,1.85-1.84c8.56,0.15,17.18-0.64,25.63,1.38C437.62,346.29,438.24,346.91,439.92,347.94z"/>
	<path class="st1" d="M393.2,337.59c8.22-1.85,16.56-0.49,24.84-1.02c19.78-1.27,39.58-1.22,59.36-0.01c0,0.37-0.01,0.73-0.01,1.1
		c-4.03,0.54-8.06,1.09-12.09,1.63c0.31-3.37-2.32-1.59-3.34-1.59c-21.26-0.11-42.51-0.06-63.77-0.04
		C396.53,337.65,394.87,337.61,393.2,337.59z"/>
	<path class="st1" d="M482.21,327.39c-18.96-0.02-37.92-0.05-56.88-0.07C444.29,326.15,463.25,326.02,482.21,327.39z"/>
	<path class="st1" d="M422.26,327.53c-6.61,1.46-13.3,1.04-19.97,0.84c5.08-1.56,10.63-0.12,15.64-2.62
		C419.15,325.15,421.7,324.83,422.26,327.53z"/>
	<path class="st1" d="M500.25,330.61c-1.19,0.06-2.38,0.09-3.33-0.85C498.14,329.62,499.38,329.36,500.25,330.61z"/>
	<path class="st2" d="M477.39,337.66c0-0.37,0.01-0.73,0.01-1.1c1.28,0,2.57,0,4.78,0C480.13,338.1,478.7,337.53,477.39,337.66z"/>
</g>
</svg>
