<?xml version="1.0" encoding="utf-8"?>
<!-- Generator: Adobe Illustrator 26.0.3, SVG Export Plug-In . SVG Version: 6.00 Build 0)  -->
<svg version="1.1" id="Layer_1" xmlns="http://www.w3.org/2000/svg" xmlns:xlink="http://www.w3.org/1999/xlink" x="0px" y="0px"
	 viewBox="0 0 792 612" style="enable-background:new 0 0 792 612;" xml:space="preserve">
<style type="text/css">
	.st0{fill:#255D7D;}
	.st1{fill:#336385;}
	.st2{fill:#5A80B2;}
	.st3{fill:#A9CFF0;}
	.st4{fill:#4744AD;}
	.st5{fill:#6057AA;}
	.st6{fill:#D2E8F7;}
	.st7{fill:#A6CDEE;}
	.st8{fill:#695EA9;}
	.st9{fill:#4845AC;}
	.st10{fill:#262667;}
	.st11{fill:#AF9EA0;}
	.st12{fill:#CFE2ED;}
	.st13{fill:#B2BAE1;}
	.st14{fill:#5750AC;}
</style>
<g>
	<path class="st0" d="M530.34,203.93c0.95,0.13,1.91,0.26,2.86,0.4c0.66,0.27,1.32,0.54,1.98,0.8c2.86,0.89,5.44,2.64,8.55,2.72
		c0.49,0.07,0.98,0.13,1.47,0.2c0.21,2.28,2.09,2.53,3.73,3.07c0,0,0.13,0.28,0.13,0.28c1.69,4.37,2.85,8.88,2.07,13.58
		c-2.65,16.05-5.16,32.12-8.2,48.1c-2.74,14.43-5.47,28.84-7.93,43.32c-3.11,18.33-7.26,36.48-10.2,54.83
		c-1.14,7.12-3.99,14-3.42,21.39c-0.01,0.46-0.03,0.92-0.04,1.38c-1.68,0.17-2.26,1.23-2.13,2.75c0.52,5.89-1.93,11.29-2.87,16.94
		c-1.39,8.37-3.01,16.71-4.82,25.02c-1.42,6.51-3.09,13.12-3.76,19.75c-0.62,6.04-3.75,11.73-2.41,17.99
		c-0.04,0.53-0.09,1.06-0.13,1.59c-2.38,0.32-3.07,3.08-5.11,3.7c-7.25,2.2-14.52,4.32-21.83,6.27c-2.84,0.75-5.46,2-8.6,2.12
		c-10.23,0.39-20.47,0.97-30.65,2.05c-15.08,1.59-30.03,0.89-45.03-0.89c-4.17-0.5-8.55-1.08-12.73,0.53
		c-0.69-0.02-1.37-0.04-2.06-0.06c-0.29-1.46-1.36-1.72-2.63-1.7c-13.84,0.2-27.11-3.42-40.6-5.7c-4.69-0.79-9.23-3.01-14.17-2.16
		c-0.54-0.06-1.08-0.12-1.62-0.18c-5.95-3.9-12.54-6.28-19.34-8.14l-0.37-0.04c0,0-0.14-0.34-0.14-0.34
		c-0.45-0.87-0.69-1.98-1.38-2.59c-4.69-4.16-5.67-9.41-5.99-15.47c-0.27-5.12-2.01-10.19-2.03-15.47c0-0.97-1.1-1.93-1.69-2.9
		c-0.06-1.2-0.13-2.4-0.19-3.61c1.39-7.9-1.39-15.4-2.37-23.05c-0.69-5.39-0.43-11.09-2.16-16.11c-2.35-6.82-1.79-13.93-2.8-20.76
		c-1.9-12.99-4.09-26.06-4.74-39.26c-0.07-1.41-0.23-3.4-2.07-4.25c-0.61-0.98-0.53-2.03-0.27-3.09c0.86-1.19,0.55-2.56,0.56-3.86
		c0.02-8.88-2.21-17.5-3.46-26.2c-2.13-14.73-3.92-29.54-6.07-44.27c-2.05-14.05-4.22-28.33-3.6-42.72c0,0-0.05,0.09-0.05,0.09
		c2.75-1.52,3.55-3.95,3.2-6.91c0,0,0.01-0.01,0.01-0.01c0.3-0.17,0.6-0.34,0.89-0.52c0.59-0.21,1.17-0.42,1.76-0.62
		c2.91,0.11,5.7,0.48,8.46-1.47c1.62-1.15,4.01-0.79,3.83,2.38c-3.58,0.46-7.17,0.91-10.75,1.36c-1.39-0.17-2.13,0.45-2.21,1.84
		l-0.01,0.01c-0.13,0.09-0.39,0.21-0.38,0.26c0.07,0.26,0.21,0.5,0.33,0.74c0.35,0.34,0.71,0.68,1.06,1.02
		c0.74,2.73,2.25,2.34,3.99,0.99c40.99,0.07,81.99,0.13,122.98,0.2c2.91,3.65,6.83,0.99,10.22,1.64c0.92-0.01,1.85-0.02,2.77-0.03
		c3.29,2.42,7.06,1.1,10.54,1.02c5.51-0.13,11.16,1.39,16.54-0.97c13.65,0.01,27.3,0.03,40.95,0.04c1.01,1.35,2.02,1.35,3.03,0
		c14.99,0.01,29.98,0.01,44.97,0.02c6.46,2.11,12.94,0.75,19.46,0.34c-2.85-2.28-5.85-3.68-9.43-3.3c-1.66-0.08-3.32-0.16-4.98-0.24
		c-0.18-1.26-0.93-1.77-2.17-1.68c-2.61-0.08-5.23-0.16-7.84-0.25c-0.15-1.33-0.91-1.87-2.21-1.71c-4.45,1.59-8.61-0.02-12.8-1.19
		c0.22-0.97-0.21-3.16,1.46-2.21c4.6,2.6,9.41,0.62,14.06,1.3c1.61,1.44,3.64,0.95,5.5,1.2c1.12,1.14,2.58,0.66,3.9,0.8
		C529.55,204.01,529.94,203.97,530.34,203.93z M373.23,441.88c0.65,0.01,1.31,0.02,1.96,0.04c6.95,0.33,13.78,1.82,20.79,1.87
		c22.42,0.16,44.72-1.11,67.03-3.36c13.56-1.37,27-2.93,40.16-6.52c2.73-2.1,1.87-5.12,2.02-7.89c0.02-1,0.04-1.99,0.06-2.99
		c0.32-1.33,0.64-2.67,0.96-4c0.63-4.96,3.07-9.54,3.01-14.64c-0.06-5.29,1.27-10.61,2.71-15.39c2.7-8.95,3.74-18.09,5.11-27.17
		c0.73-4.82,2.05-9.55,2.79-14.36c0.5-3.25,0.68-6.78,1.63-10.01c1.98-6.71,3.81-13.41,3.76-20.48c2.69-3.84,2-8.2,1.94-12.46
		c1.79-1.79,1.79-4.24,2.24-6.46c4.17-20.66,8.24-41.33,12.34-62c1.1-0.31,1.85-0.75,0.76-1.92c0.2-1.36,0.4-2.71,0.59-4.07
		c1.15-1.1,2.69-2.08,1.26-3.99c0.14-1.01,0.29-2.01,0.43-3.02c1.32-0.36,1.47-1.31,1.25-2.45c0.08-0.86,0.16-1.72,0.24-2.58
		c0.65-0.07,1.4-0.13,1.51-0.91c0.12-0.83-0.6-1.01-1.23-1.19c-1.99-0.03-3.99-0.05-5.98-0.1c-13.11-0.36-26.24,0.52-39.35-0.57
		c-5.88-2.32-11.88-1.32-17.87-0.59c-5.07,0.72-10.08-0.35-15.12-0.57c-5.98-1.81-11.98-1.58-17.99-0.17
		c-13.93,0.05-27.85,0.16-41.78,0.13c-15.41-0.04-30.83-0.23-46.24-0.35c-0.4-1.78-1.8-1.68-3.14-1.66
		c-6.14,0.06-12.28,0.14-18.42,0.21c-4.1,0.86-8.39-0.77-12.43,0.9c-1-0.08-2-0.15-3-0.23c-3.68-0.99-7.38-0.71-11.09-0.18
		c-5.33-0.75-10.63-0.01-15.94,0.24c-8.99-0.05-17.99-0.03-26.98-0.21c-2.59-0.05-3.74,0.6-3.28,3.35c0.82,4.9,1.54,9.82,2.26,14.74
		c2.6,17.74,5.18,35.48,7.79,53.22c1.37,9.34,2.8,18.68,4.2,28.02c0.03,1.14-0.1,2.34,1.08,3.07c-0.02,1.29-0.04,2.58-0.06,3.87
		c0.02,1.67,0.04,3.34,0.06,5.01c-1.08,3.93,2.39,7.01,1.97,10.89c-0.91,8.38,3.29,16.36,2.07,24.79c-0.05,0.31,0.02,0.68,0.14,0.97
		c2.65,6.52,4.13,13.25,3.84,20.32c-0.63,2.64,1.8,4.83,1.64,6.92c-0.66,8.63,2.37,16.85,2.3,25.36c-0.03,3.14-0.08,6.25,2.07,8.86
		c-0.59,4.2-0.34,7.96,4.58,9.54c15.43,4.95,31.19,8,47.42,8.34c0.23,0.1,0.47,0.15,0.72,0.13
		C357.58,443.25,365.46,441.83,373.23,441.88z M388.18,483.13c3.31,1.46,6.71,0.73,10.1,0.42c2.95,0.04,5.9,0.09,8.85,0.13
		c4.15,0.13,8.3,0.35,12.46,0.38c18.97,0.16,37.92,0.01,56.64-3.62c8.44-1.64,8.41-1.6,10.26-9.96c0.54-2.42,1.45-4.76,2.05-7.18
		c1.04-4.18,2.41-8.29,2.49-12.66c0.05-2.68-0.66-3.85-3.85-3.27c-13.9,2.55-27.97,3.98-42.09,4.29
		c-19.98,0.44-39.96,0.46-59.94,0.66c-6.65-0.45-13.29-0.91-19.94-1.36c-1.92-1.29-4.01-0.73-6.06-0.56
		c-2.65-0.15-5.29-0.3-7.94-0.44c-2.29-1.98-5.13-0.98-7.69-1.32c-7.57-0.99-15.13-1.92-22.62-3.45c-3.01-0.62-4.97-0.04-3.93,3.85
		c0.89,3.35,1.99,6.81,1.96,10.21c-0.09,11.89,6.19,16.62,17.38,17.52c9.37,0.75,18.52,3.59,28.01,3.68c1.3,0.19,2.6,0.38,3.9,0.58
		c2.13,1.88,4.61,0.99,7,0.92C379.54,482.34,383.86,482.74,388.18,483.13z"/>
	<path class="st1" d="M280.17,202.82c0.19-3.17-2.2-3.52-3.83-2.38c-2.76,1.95-5.55,1.57-8.46,1.47
		c14.92-5.52,30.58-6.95,46.23-7.71c27.94-1.36,55.92-1.34,83.9-1.24c31.63,0.12,63.18,1.65,94.64,4.84
		c9.49,0.96,18.89,2.76,28.34,4.17c-0.41,0.03-0.83,0.05-1.25,0.08c-4.64-0.68-9.46,1.3-14.06-1.3c-1.67-0.94-1.25,1.25-1.46,2.21
		c-0.68-0.02-1.37-0.04-2.05-0.06c0.02-1.39-0.09-2.86-1.91-2.78c-3.67,0.17-7.05-0.74-10.53-1.79c-1.76-0.53-4.75-1.61-5.64,1.88
		c-1.24,0.02-2.48,0.04-3.72,0.06c-2.57-3.03-8.17-3.21-11.13-0.37c-14.48,1.68-28.7-2.37-43.16-1.93
		c-11.15,0.34-22.37,0.68-33.47-0.19c-9.49-0.75-19.03-1.5-28.37-0.48c-18.35,2.01-36.89-1.35-55.11,2.47
		c-1.48-3.62-4.25-3.88-7-0.64c-2.24,0-4.48,0.01-6.73,0.01c-3.87-1.82-7.44-2.02-10.21,1.93
		C283.74,202.27,282.02,202.73,280.17,202.82z"/>
	<path class="st1" d="M521.4,392.62c-0.57-7.39,2.28-14.27,3.42-21.39c2.94-18.35,7.09-36.5,10.2-54.83
		c2.46-14.48,5.18-28.9,7.93-43.32c3.04-15.97,5.55-32.05,8.2-48.1c0.78-4.7-0.38-9.2-2.07-13.58c5.82,4.7,3.82,11.13,2.91,16.71
		c-3.87,23.94-8.2,47.81-12.53,71.68c-3.95,21.74-8.11,43.44-12.17,65.16c-1.34,7.18-2.62,14.37-3.96,21.55
		C522.93,388.61,522.7,390.79,521.4,392.62z"/>
	<path class="st1" d="M381.28,491.8c4.18-1.61,8.55-1.02,12.73-0.53c15,1.78,29.95,2.49,45.03,0.89
		c10.18-1.08,20.42-1.66,30.65-2.05c3.14-0.12,5.76-1.36,8.6-2.12c7.32-1.95,14.59-4.07,21.83-6.27c2.04-0.62,2.73-3.38,5.11-3.7
		c0.16,2.79-1.57,4.05-3.88,4.95c-17.03,6.59-34.8,9.45-52.93,10.21C426.02,494.13,403.61,494.58,381.28,491.8z"/>
	<path class="st1" d="M262.07,209.88c-0.62,14.39,1.55,28.66,3.6,42.72c2.15,14.73,3.94,29.53,6.07,44.27
		c1.26,8.69,3.48,17.32,3.46,26.2c0,1.3,0.3,2.67-0.56,3.86c-2.52-12.23-3.56-24.67-5.18-37.02c-1.95-14.84-4-29.66-5.81-44.52
		c-1.24-10.23-2.78-20.45-2.57-30.8C261.12,212.99,260.68,211.22,262.07,209.88z"/>
	<path class="st1" d="M274.93,330.01c1.84,0.84,2,2.83,2.07,4.25c0.65,13.2,2.84,26.27,4.74,39.26c1,6.84,0.45,13.94,2.8,20.76
		c1.73,5.02,1.46,10.72,2.16,16.11c0.98,7.65,3.76,15.15,2.37,23.05c-2.48-5.92-2.35-12.35-3.26-18.53
		c-2.78-18.71-5.05-37.5-7.45-56.27C277.13,349.1,276.06,339.55,274.93,330.01z"/>
	<path class="st1" d="M505.35,476.44c-1.33-6.26,1.8-11.95,2.41-17.99c0.68-6.63,2.34-13.24,3.76-19.75
		c1.81-8.31,3.43-16.65,4.82-25.02c0.94-5.65,3.4-11.04,2.87-16.94c-0.13-1.52,0.45-2.59,2.13-2.75c-0.76,9.61-3.3,18.91-4.97,28.36
		c-2.92,16.51-6.24,32.96-9.41,49.43C506.66,473.41,506.47,475.09,505.35,476.44z"/>
	<path class="st1" d="M321.82,482.18c4.95-0.86,9.49,1.37,14.17,2.16c13.49,2.28,26.77,5.9,40.6,5.7c1.26-0.02,2.33,0.24,2.63,1.7
		c-13.72-0.67-27.27-2.72-40.72-5.33C332.88,485.32,327.05,484.88,321.82,482.18z"/>
	<path class="st1" d="M289.25,437.05c0.59,0.96,1.68,1.93,1.69,2.9c0.02,5.28,1.76,10.35,2.03,15.47
		c0.32,6.07,1.29,11.31,5.99,15.47c0.69,0.61,0.93,1.71,1.38,2.59c-4.63-1.54-6.81-5.51-7.56-9.62
		C291.16,455,290.38,445.99,289.25,437.05z"/>
	<path class="st1" d="M300.85,473.85c6.8,1.87,13.39,4.25,19.34,8.14C313.21,480.55,306.55,478.34,300.85,473.85z"/>
	<path class="st1" d="M265.22,203.05c0.36,2.96-0.45,5.39-3.2,6.91C263.51,207.86,261.94,204.33,265.22,203.05z"/>
	<path class="st1" d="M543.73,207.85c-3.11-0.08-5.7-1.83-8.55-2.72c0.65-0.02,1.29-0.04,1.94-0.06
		C539.26,206.13,542.26,205.17,543.73,207.85z"/>
	<path class="st1" d="M548.94,211.12c-1.64-0.54-3.52-0.79-3.73-3.07C546.66,208.82,548.55,209.06,548.94,211.12z"/>
	<path class="st2" d="M519.74,202.05c0.42-0.03,0.84-0.05,1.25-0.08c2.71,0.62,5.6-0.16,8.25,1.02c0,0-0.32,0.35-0.32,0.35
		c-1.23-0.03-2.45-0.07-3.68-0.1C523.38,203.01,521.35,203.49,519.74,202.05z"/>
	<path class="st2" d="M537.11,205.07c-0.65,0.02-1.29,0.04-1.94,0.06c-0.66-0.27-1.32-0.53-1.98-0.8
		C534.6,204.05,536.02,203.72,537.11,205.07z"/>
	<path class="st1" d="M266.12,202.53c-0.3,0.17-0.6,0.34-0.89,0.52C265.53,202.87,265.83,202.7,266.12,202.53z"/>
	<path class="st2" d="M530.34,203.93c-0.39,0.04-0.79,0.08-1.18,0.11c0-0.25-0.08-0.49-0.22-0.7c0,0,0.32-0.35,0.32-0.35
		C529.61,203.31,529.97,203.62,530.34,203.93z"/>
	<path class="st3" d="M501.22,215.27c13.1,1.09,26.23,0.22,39.35,0.57c1.99,0.05,3.99,0.07,5.98,0.1c-0.09,0.7-0.19,1.4-0.28,2.09
		c-0.08,0.86-0.16,1.72-0.24,2.58c-0.84,0.6-1.67,1.21-1.25,2.45c-0.14,1.01-0.29,2.01-0.43,3.02c-0.9,1.18-2.14,2.25-1.26,3.99
		c-0.2,1.36-0.4,2.71-0.59,4.07c-0.85,0.4-1.07,1.06-0.76,1.92c-4.1,20.67-8.18,41.34-12.34,62c-0.45,2.22-0.45,4.67-2.24,6.46
		c-7.15-4.38-15.24-4.99-23.26-5.42c-11.6-0.63-23.28-0.17-34.83-1.24c-26-2.41-52.09-2.24-78.12-3.66
		c-16.89-0.92-33.85-0.48-50.68,1.87c-0.81-8.02-2.97-15.82-3.62-23.9c-0.71-8.84-2.08-17.64-3.49-26.4
		c-1.74-10.86-1.65-22-4.93-32.62c4.04-1.68,8.33-0.04,12.43-0.9c0.71,1.07,1.77,1.36,2.97,1.38c6.2,0.07,12.39,0.72,18.59,0.08
		c15.41,0.12,30.83,0.31,46.24,0.35c13.93,0.04,27.85-0.08,41.78-0.13c5.99,1.18,11.98,1.05,17.99,0.17
		c5.04,0.22,10.04,1.29,15.12,0.57C489.25,216.45,495.24,215.77,501.22,215.27z"/>
	<path class="st4" d="M525.22,316.99c0.05,7.07-1.78,13.77-3.76,20.48c-0.95,3.23-1.13,6.76-1.63,10.01
		c-0.74,4.81-2.07,9.54-2.79,14.36c-1.37,9.08-2.41,18.22-5.11,27.17c-1.44,4.78-2.77,10.1-2.71,15.39
		c0.05,5.1-2.38,9.69-3.01,14.64c-4.68-0.91-8.99-3.57-13.99-2.98c-0.01-0.34-0.01-0.68-0.02-1.02c0.33-0.33,0.67-0.67,1-1
		c1.26-0.57,2.03-1.63,2.87-2.68c6.29-7.96-2.75-14.5-2.06-21.99c0.19-2.08-1.5-3.99-3.49-5.16c-0.29-0.17-0.62-0.27-0.87-0.49
		c-4.81-4.22-10.71-6.37-16.51-8.71c-8.79-3.54-17.62-6.96-27.39-5.96c-5.68,0.59-11.38-0.26-16.8-1.26
		c-17.28-3.17-34.7-3.35-52.12-3.66c-8.25-0.15-16.35,2.67-24.69,1.95c-1.58-5.84-2.73-11.76-2.99-17.83
		c0.03-4.06,0.05-8.13,0.08-12.19c7.3-0.22,14.57,0.8,21.83,0.84c14.42,0.08,28.84,0.14,43.29-0.54c19.03-0.9,38.09-1.26,57.13-2.14
		C491.07,333.29,509.47,329.51,525.22,316.99z M361.78,342.45c3.04,2.04,6.03,1.43,8.97,1.55c0.8,0.03,1.85,0.02,1.91-1.07
		c0.07-1.2-0.95-1.86-1.94-1.76C367.72,341.48,364.76,342.01,361.78,342.45z M358.9,343.52c-1.28-2.62-2.81-4.03-5.49-3.27
		c-1.01,0.29-0.97,1.18-0.54,1.98C354.33,344.96,356.46,344.03,358.9,343.52z"/>
	<path class="st5" d="M493.19,414.03c-0.33,0.33-0.67,0.67-1,1c-0.76,0.14-1.88,0.17-1.43,1.28c0.32,0.81,1.04,0.31,1.45-0.27
		c5-0.58,9.31,2.08,13.99,2.98c-0.32,1.33-0.64,2.67-0.96,4c-3.23-1.4-6.36-2.81-10.14-2.17c-1.39,0.24-3.08-1.01-4.58-1.71
		c-1.53-0.72-3.24-1.71-4.76-0.98c-6.18,2.96-8.5-2.16-11-5.58c-3.06-4.17-7.4-5.5-11.43-2.23c-0.6,0.48-0.76,1.56-1.83,0.9
		c-4.12-2.55-8.31-0.94-12.5-0.26c-8.8,1.42-17.77,1.74-26.3,4.92c-4.02,1.5-7.78,3.81-8.79,7.44c-1.89,6.79-7.62,7.25-12.39,8.4
		c-3.56,0.86-2.77,2.2-2.31,4.27c-3.42,0.27-6.2-1.43-9.01-3c-0.89-2.72,2.67-2.67,2.91-4.6c0.65-5.29,4.03-8.47,8.2-11.16
		c0.9-0.58,1.8-1.31,1.28-2.85c-1.45-4.23-8.42-3.87-7.94-9.65c0-0.02-0.3-0.07-0.46-0.1c-1.59,0.25-0.33,2.7-2.17,2.79
		c-1.67-0.8-0.24-4.5-1.96-3.73c-4.5,2.02-8.33-0.8-12.42-1.04c-3.88-0.23-8.61,2.24-11.93-2.52c-1.59,4.98,3.07,8.57,1.47,12.92
		c-4.06-10.66-9.5-20.81-11.96-32.07c4.18,0.43,8.48-1.93,12.64,1.66c1.75,1.51,5.35,0.65,5.35-3.4c0-1.49-0.14-3.15,2.12-3.13
		c-0.21,1.93,0.53,2.95,2.59,2.74c4.26,1.41,8.64,2.05,13.13,2.14c8.26,0.17,16.53-0.56,24.75,1.53c3.55,0.9,7.65,1.91,11.28-0.55
		c0.47,2.35,1.55,3.46,3.93,1.96c3.59,0.92,7.13,2.15,10.77,2.71c9.25,1.44,18.06,5.13,27.54,5.39c0.27,1.36-1.04,3.77,1.56,3.63
		c2.08-0.11,1.07-2.19,1.05-3.51c1.63,1.09,4.14,2.51,2.96,4.41c-3.28,5.3,1.97,2.17,3.19,3.3c-2.92,3.68-1.05,4.36,2.49,4.16
		c1.41-0.08,3.6-0.7,4.09,0.79C486.14,409.32,490.57,410.79,493.19,414.03z M401.06,406.15c-0.06-1.13-0.56-1.91-1.76-1.99
		c-1.16-0.08-1.93,0.42-1.92,1.68c0.01,1.13,0.54,1.91,1.74,2.01C400.31,407.95,400.98,407.39,401.06,406.15z"/>
	<path class="st6" d="M328.23,213.15c3.28,10.62,3.19,21.76,4.93,32.62c1.41,8.76,2.77,17.56,3.49,26.4
		c0.65,8.08,2.81,15.88,3.62,23.9c0,0,0.01,0.03,0.01,0.03c-2.61,0.3-5.24,0.49-7.82,0.93c-8.58,1.44-17.25,2.5-25.57,5.24
		c-0.28,0.02-0.5-0.09-0.68-0.31c-1.2-11.34-3.72-22.47-5.46-33.72c-2.59-16.79-3.97-33.52-3.59-50.46c0.04-1.7,0.18-3.31,1.04-4.8
		c5.31-0.26,10.62-1,15.94-0.25c3.66,2.22,7.36,1.86,11.09,0.18C326.23,213,327.23,213.07,328.23,213.15z"/>
	<path class="st7" d="M385.15,452.33c19.98-0.2,39.96-0.22,59.94-0.66c14.12-0.31,28.18-1.73,42.09-4.29
		c3.19-0.59,3.9,0.58,3.85,3.27c-0.08,4.37-1.44,8.49-2.49,12.66c-0.6,2.41-1.52,4.75-2.05,7.18c-1.85,8.36-1.82,8.32-10.26,9.96
		c-18.73,3.63-37.68,3.78-56.64,3.62c-4.15-0.03-8.3-0.25-12.46-0.38c-0.54-2.34-2.1-4.05-3.55-5.82
		C396.89,469.74,391.02,461.03,385.15,452.33z"/>
	<path class="st2" d="M502.17,202.9c0.68,0.02,1.37,0.04,2.05,0.06c4.19,1.18,8.35,2.79,12.8,1.19c0.28,1.16,0.89,1.89,2.21,1.71
		c2.61,0.08,5.23,0.16,7.84,0.25c0.22,1.2,0.8,1.94,2.16,1.68c1.66,0.08,3.32,0.16,4.98,0.24c-0.27,2.51-2.2,1.92-3.78,2.09
		c-2.09,0.23-4.34-0.74-6.24,0.86c-14.99-0.01-29.98-0.01-44.97-0.02c-1.01-1.11-2.02-1.1-3.03,0c-13.65-0.01-27.3-0.03-40.95-0.04
		c-9.02-1.42-18.05-1.36-27.08-0.05c-0.92,0.01-1.85,0.02-2.77,0.03c-2.9-3.7-6.81-1.11-10.21-1.64
		c-40.99-0.07-81.99-0.13-122.98-0.2c-1.07-1.38-2.61-0.85-3.99-0.99c-0.35-0.34-0.71-0.68-1.06-1.02c0.02-0.33,0.04-0.67,0.05-1
		c0,0,0.01-0.01,0.01-0.01c1.27,0.03,1.95-0.66,2.21-1.84c3.58-0.45,7.17-0.91,10.75-1.36c1.85-0.08,3.58-0.55,5.05-1.74
		c2.66-0.06,5.31-0.11,7.97-0.17c1.28,0.12,1.97-0.48,2.1-1.75l0.14-0.01c2.24,0,4.48-0.01,6.73-0.02c2.32,0.39,4.59,1.26,7,0.64
		c18.22-3.82,36.76-0.46,55.11-2.47c9.33-1.02,18.88-0.27,28.37,0.48c11.1,0.87,22.32,0.53,33.47,0.19
		c14.45-0.44,28.67,3.61,43.16,1.93c3.7,0.51,7.35,2.37,11.13,0.36c1.24-0.02,2.48-0.04,3.72-0.06
		C490.04,201.65,496.08,202.48,502.17,202.9z"/>
	<path class="st3" d="M298.2,212.98c-0.86,1.49-1,3.1-1.04,4.8c-0.38,16.94,1,33.67,3.59,50.46c1.73,11.25,4.26,22.39,5.46,33.72
		c-9.21,0.53-16.95,4.52-24.01,10.14c-1.4-9.34-2.82-18.68-4.2-28.02c-2.61-17.74-5.18-35.48-7.79-53.22
		c-0.72-4.92-1.44-9.84-2.26-14.74c-0.46-2.75,0.68-3.41,3.28-3.35C280.21,212.95,289.21,212.93,298.2,212.98z"/>
	<path class="st8" d="M399.21,436.04c-0.45-2.08-1.25-3.41,2.31-4.27c4.78-1.16,10.5-1.62,12.39-8.4c1.01-3.63,4.77-5.94,8.79-7.44
		c8.53-3.18,17.5-3.49,26.3-4.92c4.19-0.68,8.38-2.28,12.5,0.26c1.06,0.66,1.23-0.42,1.83-0.9c4.03-3.27,8.37-1.94,11.43,2.23
		c2.51,3.41,4.82,8.54,11,5.58c1.52-0.73,3.22,0.27,4.76,0.98c1.5,0.7,3.18,1.95,4.58,1.71c3.78-0.64,6.91,0.77,10.14,2.17
		c-0.02,1-0.04,1.99-0.06,2.99c-3.19,0.67-1.52,3.29-2.01,5.04c-6.92,0.48-14,0.2-20.74,1.58c-17.09,3.49-34.26,5.56-51.71,5.32
		c-3.44-0.05-6.7-1.45-10.32-0.65c-6.3,1.38-12.72,2.2-19.22,1.53c0.01-0.26,0.02-0.52,0.02-0.77c1.62,0,3.23,0,4.85,0
		c-0.03-0.22-0.07-0.44-0.1-0.66C403.7,436.95,401.45,436.49,399.21,436.04z M466.09,418.3c-1.12,0.28-1.78,1.01-1.52,2.14
		c0.18,0.81,0.82,1.52,1.81,1.36c1.15-0.19,1.77-1,1.54-2.12C467.74,418.86,467.08,418.27,466.09,418.3z M465.2,415.96
		c0.64-0.05,1.42-0.03,1.42-0.9c0.01-0.87-0.76-0.92-1.4-0.92c-0.64,0-1.42,0.03-1.42,0.9C463.79,415.91,464.56,415.91,465.2,415.96
		z"/>
	<path class="st9" d="M297.3,422.17c-2.16-2.61-2.1-5.72-2.07-8.86c0.08-8.51-2.95-16.72-2.3-25.36c0.16-2.09-2.27-4.28-1.64-6.92
		c6.83-0.78,11.29-5.96,16.86-9.09c0.67-0.38,0.85-1.02,0.6-1.71c-1.23-3.28,1.01-3.08,3.11-3.24c3.32-0.26,3.83-1.7,1.34-3.93
		c-2.07-1.86-2.24-3.52-0.76-6.05c2.03-3.47,1.19-7.83-1.02-10.32c-3.04-3.42-2.24-5.31,0.43-7.84c1.54-1.46,1.14-2.06-0.88-3.02
		c-2.19-1.04-4.77-2.44-4.74-5.65c2.09-0.14,4.28,2.1,6.28-0.28c1.64,8.01,4.02,15.88,4.79,24.07c-0.72,0.17-1.62,0.12-1.57,1.24
		c0.01,0.11,0.2,0.31,0.32,0.32c1.12,0.04,1.06-0.87,1.24-1.58c1.32,6.36,2.65,12.72,3.97,19.07c-3.52,2.56-3.17,6.99-4.71,10.55
		c-2.5-1.1-0.06-4.15-2.92-5.14c0.12,4.9-4.38,8.02-4.26,12.84c-0.28,2.96,0.75,4.12,3.67,2.67c6.49,1.28,13.35,1.61,18.21,7.07
		l-0.01-0.01c0.37,1.79-1.21,4.35,1.97,5.03c3.35,8.33,6.69,16.67,10.04,25c-6.68,0.02-12.79-3.51-19.53-3.15
		c-5.58,0.3-10.78-1.32-15.97-3.11C304.35,423.61,301.21,421.31,297.3,422.17z"/>
	<path class="st10" d="M525.22,316.99c-15.75,12.53-34.16,16.31-53.76,17.21c-19.05,0.88-38.11,1.24-57.13,2.14
		c-14.45,0.68-28.87,0.62-43.29,0.54c-7.26-0.04-14.53-1.06-21.83-0.84c-0.64-0.02-1.27-0.04-1.91-0.05
		c-0.88-1.2-1.2-2.54-0.99-4.01c7.97,0,15.93,0.65,23.87,0.85c23.41,0.57,46.8-0.64,70.19-1.68c16.06-0.72,32.17-0.34,48.09-3.13
		c12.09-2.12,23.37-6.16,32.93-14.12c2.32-1.93,4.02-6.26,1.23-6.89c-4.7-1.06-7.87-5.2-13-5.03c-13.45,0.43-26.86-1.59-40.33-0.95
		c-2.16,0.1-4.33,0-6.49-0.11c-18.53-0.9-37.07-1.83-55.6-2.75c-5.33-0.05-10.67-0.1-16-0.14c-8.66-1.55-17.32-1.55-25.99,0
		c-4.01,0.04-8.02,0.09-12.02,0.13c-4.02,0.34-8.04,0.68-12.06,1.02c-0.29-1.03-0.58-2.06-0.87-3.09c0,0-0.01-0.03-0.01-0.03
		c16.83-2.35,33.8-2.79,50.68-1.87c26.03,1.41,52.13,1.24,78.12,3.66c11.55,1.07,23.23,0.61,34.83,1.24
		c8.01,0.44,16.11,1.04,23.26,5.42C527.22,308.79,527.91,313.15,525.22,316.99z"/>
	<path class="st6" d="M385.15,452.33c5.87,8.7,11.74,17.41,18.42,25.53c1.45,1.77,3.02,3.49,3.55,5.82
		c-2.95-0.04-5.9-0.09-8.85-0.13c-3.26-2.68-6.66-1.93-10.1-0.42c-4.32-0.39-8.64-0.79-12.96-1.18c-1.96-3.17-4.45-2.22-7-0.92
		c-1.3-0.19-2.6-0.38-3.9-0.58c-2.1-3.7-4.23-7.35-6.66-10.88c-3.24-4.73-5.61-10.06-8.51-15.04c-1.57-2.7-0.35-3.82,2.06-4.56
		c2.65,0.15,5.29,0.3,7.94,0.44c1.79,2.72,3.9,1.93,6.06,0.56C371.86,451.42,378.51,451.87,385.15,452.33z"/>
	<path class="st4" d="M306.21,330.19c-0.02,3.21,2.55,4.61,4.74,5.65c2.02,0.96,2.42,1.56,0.88,3.02c-2.67,2.53-3.47,4.42-0.43,7.84
		c2.21,2.49,3.05,6.85,1.02,10.32c-1.48,2.53-1.31,4.19,0.76,6.05c2.49,2.23,1.98,3.67-1.34,3.93c-2.1,0.17-4.33-0.04-3.11,3.24
		c0.26,0.68,0.08,1.33-0.6,1.71c-5.57,3.13-10.03,8.32-16.86,9.09c0.29-7.07-1.19-13.81-3.84-20.32c-0.12-0.3-0.19-0.66-0.14-0.97
		c1.22-8.43-2.99-16.41-2.07-24.79c0.42-3.88-3.05-6.96-1.97-10.89C290.83,326.42,298.16,329.65,306.21,330.19z"/>
	<path class="st7" d="M351.21,449.96c-2.41,0.74-3.63,1.86-2.06,4.56c2.9,4.98,5.26,10.31,8.51,15.04
		c2.42,3.53,4.56,7.18,6.66,10.88c-9.49-0.08-18.64-2.92-28.01-3.68c-11.19-0.9-17.47-5.63-17.38-17.52
		c0.03-3.4-1.07-6.86-1.96-10.21c-1.03-3.88,0.92-4.46,3.93-3.85c7.49,1.53,15.05,2.46,22.62,3.45
		C346.09,448.98,348.92,447.98,351.21,449.96z"/>
	<path class="st11" d="M401.18,438.85c6.5,0.66,12.92-0.15,19.22-1.53c3.62-0.79,6.88,0.6,10.32,0.65
		c17.44,0.24,34.61-1.83,51.71-5.32c6.74-1.38,13.82-1.1,20.74-1.58c0,0.95,0,1.9-0.01,2.85c-13.16,3.58-26.6,5.15-40.16,6.52
		c-22.31,2.25-44.62,3.52-67.03,3.36c-7.01-0.05-13.84-1.54-20.79-1.87c1.02-1.06,4.49-1,1.74-3.79c0.16-0.07,0.31-0.13,0.46-0.2
		c0.93,0.05,1.85,0.1,2.78,0.14C387.12,439.94,394.17,438.94,401.18,438.85z"/>
	<path class="st11" d="M297.3,422.17c3.91-0.86,7.05,1.44,10.44,2.61c5.19,1.79,10.39,3.41,15.97,3.11
		c6.74-0.36,12.85,3.17,19.53,3.15c0,0-0.04-0.04-0.04-0.04c0.28,0.3,0.57,0.6,0.85,0.89c0.41,0.05,0.82,0.11,1.23,0.16
		c0.32,3.18,3.54,4.91,4.02,8.01c-16.24-0.35-32-3.39-47.42-8.34C296.96,430.13,296.71,426.37,297.3,422.17z"/>
	<path class="st9" d="M283.21,319.05c0.02-1.29,0.04-2.58,0.06-3.87c7.33-4.53,14.22-10.16,23.68-9.21
		c2.37,6.86,3.66,13.96,4.87,21.08C301.89,325.8,291.95,324.55,283.21,319.05z"/>
	<path class="st12" d="M349.31,440.06c-0.48-3.1-3.7-4.83-4.02-8.01c3.84,0.93,7.06,3.78,11.1,3.93c6.9,0.25,13.71,1.2,20.54,2.15
		c2.75,2.79-0.72,2.73-1.74,3.79c-0.65-0.01-1.31-0.02-1.96-0.04c-7.68-1.33-15.47-1.08-23.2-1.69
		C349.78,440.2,349.54,440.16,349.31,440.06z"/>
	<path class="st10" d="M283.21,319.05c8.74,5.5,18.67,6.75,28.61,8c0.22,0.96,0.45,1.91,0.67,2.86c-1.99,2.37-4.19,0.14-6.28,0.27
		c-8.05-0.54-15.38-3.76-22.94-6.13C283.25,322.39,283.23,320.72,283.21,319.05z"/>
	<path class="st10" d="M306.95,305.96c-9.46-0.95-16.35,4.68-23.68,9.21c-1.18-0.73-1.05-1.93-1.08-3.07
		c7.06-5.62,14.8-9.61,24.01-10.14c0.17,0.22,0.4,0.32,0.68,0.31C306.9,303.5,306.92,304.73,306.95,305.96z"/>
	<path class="st1" d="M408.16,210.88c9.03-1.31,18.06-1.37,27.08,0.05c-5.38,2.36-11.03,0.85-16.54,0.97
		C415.22,211.98,411.45,213.3,408.16,210.88z"/>
	<path class="st1" d="M524.2,210.99c1.9-1.6,4.15-0.63,6.24-0.86c1.58-0.17,3.52,0.41,3.78-2.09c3.58-0.39,6.58,1.02,9.43,3.3
		C537.14,211.74,530.66,213.1,524.2,210.99z"/>
	<path class="st1" d="M362.22,213.71c-6.2,0.64-12.39-0.01-18.59-0.08c-1.2-0.01-2.26-0.31-2.97-1.38
		c6.14-0.07,12.28-0.14,18.42-0.21C360.42,212.03,361.82,211.93,362.22,213.71z"/>
	<path class="st1" d="M501.22,215.27c-5.98,0.5-11.96,1.18-17.87-0.59C489.34,213.95,495.33,212.95,501.22,215.27z"/>
	<path class="st1" d="M468.23,214.1c-6,0.87-12,1.01-17.99-0.17C456.25,212.52,462.25,212.29,468.23,214.1z"/>
	<path class="st11" d="M350.03,440.19c7.73,0.61,15.52,0.36,23.2,1.69C365.46,441.83,357.58,443.25,350.03,440.19z"/>
	<path class="st3" d="M325.23,212.92c-3.72,1.68-7.43,2.03-11.09-0.18C317.84,212.21,321.55,211.93,325.23,212.92z"/>
	<path class="st1" d="M395.18,209.26c3.41,0.53,7.32-2.06,10.21,1.64C402,210.25,398.08,212.91,395.18,209.26z"/>
	<path class="st7" d="M388.18,483.13c3.43-1.52,6.84-2.26,10.1,0.42C394.89,483.86,391.49,484.59,388.18,483.13z"/>
	<path class="st5" d="M503.17,433.91c0-0.95,0-1.9,0.01-2.85c0.49-1.75-1.19-4.36,2.01-5.04
		C505.04,428.79,505.9,431.81,503.17,433.91z"/>
	<path class="st7" d="M368.22,481.03c2.54-1.3,5.04-2.25,7,0.92C372.84,482.02,370.35,482.91,368.22,481.03z"/>
	<path class="st7" d="M365.21,450.97c-2.16,1.37-4.28,2.16-6.06-0.56C361.21,450.24,363.3,449.67,365.21,450.97z"/>
	<path class="st1" d="M543.09,230.07c-0.89-1.74,0.35-2.81,1.26-3.99C545.78,227.99,544.24,228.97,543.09,230.07z"/>
	<path class="st1" d="M268.2,208.07c1.38,0.14,2.92-0.39,3.99,0.99C270.45,210.41,268.94,210.79,268.2,208.07z"/>
	<path class="st1" d="M476.19,210.97c1.01-1.1,2.02-1.11,3.03,0C478.21,212.32,477.2,212.32,476.19,210.97z"/>
	<path class="st1" d="M541.74,236.06c-0.31-0.86-0.1-1.52,0.76-1.92C543.59,235.31,542.84,235.76,541.74,236.06z"/>
	<path class="st1" d="M269.42,204.18c-0.26,1.18-0.94,1.87-2.21,1.84C267.29,204.62,268.02,204.01,269.42,204.18z"/>
	<path class="st1" d="M546.26,218.04c0.09-0.7,0.18-1.4,0.28-2.09c0.63,0.18,1.36,0.36,1.23,1.19
		C547.66,217.91,546.91,217.97,546.26,218.04z"/>
	<path class="st1" d="M519.24,205.87c-1.32,0.18-1.93-0.55-2.21-1.71C518.33,204,519.09,204.54,519.24,205.87z"/>
	<path class="st1" d="M528.93,203.35c0.14,0.21,0.22,0.44,0.22,0.7c-1.33-0.13-2.78,0.34-3.9-0.8
		C526.48,203.28,527.7,203.31,528.93,203.35z"/>
	<path class="st1" d="M544.78,223.06c-0.42-1.24,0.41-1.85,1.25-2.45C546.25,221.75,546.1,222.71,544.78,223.06z"/>
	<path class="st1" d="M529.25,207.79c-1.36,0.27-1.94-0.47-2.16-1.68C528.31,206.02,529.07,206.53,529.25,207.79z"/>
	<path class="st1" d="M267.19,206.04c-0.02,0.33-0.03,0.67-0.05,1c-0.12-0.25-0.26-0.48-0.33-0.74
		C266.8,206.25,267.06,206.13,267.19,206.04z"/>
	<path class="st0" d="M502.17,202.9c-6.1-0.42-12.13-1.25-18.08-2.7c0.89-3.49,3.87-2.41,5.63-1.88c3.48,1.05,6.86,1.96,10.53,1.79
		C502.09,200.04,502.2,201.51,502.17,202.9z"/>
	<path class="st0" d="M480.38,200.26c-3.78,2-7.43,0.15-11.13-0.36C472.22,197.05,477.81,197.23,480.38,200.26z"/>
	<path class="st0" d="M293.18,200.91c-2.66,0.06-5.31,0.11-7.97,0.17c2.78-3.96,6.34-3.76,10.21-1.93c0,0-0.14,0.01-0.14,0.01
		C293.99,199.02,293.3,199.62,293.18,200.91z"/>
	<path class="st0" d="M309.15,199.76c-2.41,0.62-4.68-0.24-7-0.64C304.9,195.89,307.67,196.14,309.15,199.76z"/>
	<path class="st13" d="M306.95,305.96c-0.02-1.23-0.05-2.46-0.07-3.7c8.32-2.74,16.99-3.79,25.57-5.24
		c2.59-0.43,5.21-0.63,7.82-0.93c0.29,1.03,0.58,2.06,0.87,3.09c0.43,3.22,0.85,6.44,1.28,9.66c-0.42,0.38-0.85,0.76-1.27,1.14
		c-7.73,1.04-15.15,3.14-22.92,5.96c2.12,1.6,3.83,1.04,5.42,1.13c7,0.39,13.78-1.65,20.73-1.89c-0.78,5.77,1.15,11.22,1.93,16.81
		c-0.22,1.47,0.11,2.81,0.99,4.01c0.19,2.07,0.39,4.13,0.58,6.2c0.1,0.3,0.19,0.6,0.29,0.9c0.12,1.75-0.24,3.59,0.97,5.14
		c0.26,6.07,1.41,11.98,2.99,17.83c0.45,5.11,1.37,10.12,3.1,14.96c2.45,11.26,7.9,21.41,11.96,32.07c1.08,3.77,2,7.6,3.97,11.06
		c0.25,0.66,0.5,1.32,0.75,1.99c0.18,1.1,0.18,2.27,1.23,3.02c0.9,3.18,2.59,5.97,4.27,8.77c-0.15,0.07-0.31,0.13-0.46,0.2
		c-6.82-0.95-13.64-1.89-20.54-2.15c-4.04-0.15-7.26-3-11.1-3.93c-0.41-0.05-0.82-0.11-1.23-0.16c-0.05-0.52-0.21-0.94-0.85-0.9
		c0,0,0.04,0.04,0.04,0.04c-3.35-8.33-6.69-16.67-10.04-25c-0.3-1.82-0.74-3.58-1.97-5.03c0,0,0.01,0.01,0.01,0.01
		c-3.92-9.12-6.99-18.54-10-27.99c-1.32-6.36-2.65-12.72-3.97-19.07l0.01,0.03c-0.77-8.19-3.15-16.05-4.79-24.07
		c-0.22-0.95-0.44-1.91-0.67-2.86C310.61,319.92,309.31,312.82,306.95,305.96z"/>
	<path class="st14" d="M355.22,381.03c-1.73-4.84-2.65-9.85-3.1-14.96c8.35,0.72,16.44-2.09,24.69-1.95
		c17.42,0.31,34.84,0.49,52.12,3.66c5.43,1,11.12,1.85,16.8,1.26c9.77-1.01,18.6,2.42,27.39,5.96c5.8,2.34,11.7,4.48,16.51,8.71
		c0.24,0.21,0.58,0.32,0.87,0.49c1.99,1.18,3.68,3.09,3.49,5.16c-0.69,7.49,8.35,14.03,2.06,21.99c-0.83,1.06-1.61,2.11-2.87,2.68
		c-2.62-3.24-7.05-4.71-8.54-9.17c-0.5-1.49-2.69-0.87-4.09-0.79c-3.54,0.2-5.41-0.48-2.49-4.16c-1.22-1.13-6.47,2-3.19-3.3
		c1.18-1.91-1.33-3.32-2.96-4.42c-0.87-0.04-1.74-0.08-2.61-0.12c-9.48-0.26-18.28-3.96-27.54-5.39c-3.64-0.57-7.18-1.79-10.77-2.71
		c0.08-0.29,0.13-0.58,0.15-0.88c0.07-3.43-1.32-3.88-3.9-1.91c-0.02,0.29-0.08,0.56-0.18,0.83c-3.63,2.47-7.73,1.45-11.28,0.55
		c-8.22-2.09-16.49-1.35-24.75-1.53c-4.49-0.09-8.86-0.73-13.12-2.14c0.11-0.29,0.21-0.59,0.32-0.88c1.25-1.22,1.49-2.73,0-3.61
		c-1.39-0.83-2.85-0.4-2.96,1.7l0.05,0.06c-2.27-0.02-2.13,1.63-2.13,3.13c0,4.05-3.6,4.91-5.35,3.4
		C363.7,379.1,359.41,381.46,355.22,381.03z"/>
	<path class="st9" d="M361.78,342.45c2.98-0.44,5.95-0.97,8.94-1.27c0.99-0.1,2.01,0.55,1.94,1.76c-0.06,1.08-1.11,1.1-1.91,1.07
		C367.81,343.88,364.82,344.48,361.78,342.45z"/>
	<path class="st9" d="M358.9,343.52c-2.44,0.51-4.57,1.44-6.03-1.3c-0.42-0.8-0.47-1.69,0.54-1.98
		C356.09,339.49,357.62,340.9,358.9,343.52z"/>
	<path class="st9" d="M349.13,348.24c-1.2-1.55-0.85-3.39-0.97-5.14c0.02-0.34-0.08-0.64-0.29-0.9c-0.19-2.07-0.39-4.13-0.58-6.2
		c0.64,0.02,1.27,0.04,1.91,0.05C349.18,340.11,349.16,344.18,349.13,348.24z"/>
	<path class="st14" d="M492.2,416.05c-0.41,0.57-1.12,1.08-1.45,0.27c-0.44-1.12,0.68-1.14,1.43-1.28
		C492.19,415.37,492.2,415.71,492.2,416.05z"/>
	<path class="st14" d="M371.15,424.16c-1.97-3.45-2.89-7.29-3.97-11.06c1.6-4.35-3.05-7.93-1.47-12.92
		c3.32,4.75,8.05,2.29,11.93,2.52c4.09,0.24,7.92,3.06,12.42,1.04c1.72-0.77,0.29,2.93,1.96,3.73c1.83-0.1,0.58-2.55,2.17-2.79
		c0.16,0.03,0.46,0.08,0.46,0.1c-0.49,5.78,6.49,5.41,7.94,9.65c0.53,1.54-0.38,2.27-1.28,2.85c-4.17,2.69-7.55,5.87-8.2,11.16
		c-0.24,1.93-3.8,1.88-2.91,4.6c-1.92-0.96-3.8-1.84-4.9-3.95c-2.7-5.17-8.6-4.53-12.93-6.75
		C371.68,421.98,371.33,423.36,371.15,424.16z"/>
	<path class="st9" d="M371.15,424.16c0.18-0.8,0.54-2.18,1.23-1.83c4.33,2.22,10.23,1.58,12.93,6.75c1.1,2.11,2.98,3,4.9,3.95
		c2.81,1.57,5.58,3.27,9.01,3c2.25,0.46,4.5,0.91,6.74,1.37c0.03,0.22,0.07,0.44,0.1,0.66c-1.62,0-3.23,0-4.85,0
		c-7.01,0-14.02,0-21.03,0c-0.93-0.05-1.85-0.1-2.78-0.14c-1.68-2.8-3.37-5.59-4.27-8.77c0.04-1.19,0.35-2.49-1.23-3.02
		C371.64,425.48,371.39,424.82,371.15,424.16z"/>
	<path class="st11" d="M401.05,406.16c-0.07,1.23-0.75,1.8-1.94,1.69c-1.2-0.1-1.73-0.88-1.74-2.01c-0.01-1.26,0.76-1.76,1.92-1.68
		C400.5,404.25,401,405.03,401.05,406.16z"/>
	<path class="st11" d="M469.31,392.08c0.87,0.04,1.74,0.08,2.61,0.12c0.01,1.32,1.03,3.4-1.05,3.51
		C468.27,395.85,469.58,393.44,469.31,392.08z"/>
	<path class="st11" d="M431.16,383.1c-0.02,0.3-0.07,0.59-0.15,0.88c-2.38,1.5-3.47,0.39-3.93-1.96c0.11-0.27,0.17-0.54,0.18-0.83
		C429.16,380.6,430.11,381.95,431.16,383.1z"/>
	<path class="st11" d="M378.24,378.02c-0.1,0.3-0.21,0.59-0.32,0.88c-2.06,0.22-2.8-0.81-2.59-2.74c0,0-0.05-0.06-0.05-0.06
		C377.48,374.87,378.04,376.17,378.24,378.02z"/>
	<path class="st1" d="M293.18,200.91c0.12-1.28,0.81-1.88,2.1-1.75C295.16,200.42,294.47,201.02,293.18,200.91z"/>
	<path class="st5" d="M380.17,438.07c7.01,0,14.02,0,21.03,0c0,0.26-0.01,0.52-0.02,0.78C394.17,438.94,387.12,439.94,380.17,438.07
		z"/>
	<path class="st11" d="M466.09,418.3c0.99-0.03,1.65,0.56,1.83,1.39c0.23,1.12-0.39,1.94-1.54,2.12c-0.99,0.16-1.62-0.55-1.81-1.36
		C464.32,419.31,464.97,418.58,466.09,418.3z"/>
	<path class="st5" d="M465.2,415.96c-0.64-0.05-1.41-0.05-1.4-0.92c0.01-0.87,0.78-0.9,1.42-0.9c0.64,0,1.41,0.05,1.4,0.92
		C466.62,415.93,465.84,415.91,465.2,415.96z"/>
	<path class="st14" d="M321.23,373.03c3.01,9.44,6.08,18.87,10,27.99c-4.87-5.46-11.73-5.79-18.21-7.07
		c0.03-2.62-1.54-3.04-3.68-2.67c-0.12-4.82,4.38-7.94,4.26-12.84c2.85,1,0.42,4.05,2.92,5.14
		C318.07,380.02,317.71,375.59,321.23,373.03z"/>
	<path class="st11" d="M309.35,391.28c2.14-0.37,3.71,0.05,3.68,2.67C310.1,395.4,309.07,394.24,309.35,391.28z"/>
	<path class="st14" d="M331.23,401.01c1.23,1.45,1.68,3.21,1.97,5.03C330.01,405.35,331.6,402.8,331.23,401.01z"/>
	<path class="st4" d="M317.26,353.96c-0.17,0.72-0.12,1.62-1.24,1.58c-0.11,0-0.31-0.2-0.32-0.32c-0.05-1.12,0.85-1.07,1.57-1.24
		C317.28,353.98,317.26,353.96,317.26,353.96z"/>
	<path class="st9" d="M346.31,331.99c-0.78-5.59-2.71-11.04-1.93-16.81c0.29,0,0.55-0.07,0.79-0.22
		c13.01-0.31,26.02-0.62,39.02-0.93c11.94,0,23.88,0.01,35.82-0.02c1.45,0,3.03,0.39,4.2-0.92c1.33,0,2.66-0.01,3.99-0.01
		c2.01,1.43,4.01,1.44,6.01-0.01c1,0,1.99,0,2.99,0c2.34,1.5,4.67,1.5,7.01,0c0.66,0,1.33,0,1.99,0c1.67,1.41,3.34,1.4,5.01,0.01
		c0.66,0,1.33,0,1.99,0.01c0.14,1.9,4.02-0.6,3.06,2.6c-1.56,0.57-3.33,0.84-4.62,1.78c-1.99,1.43-6.13,1.57-5.26,4.94
		c0.79,3.06,4.54,2.99,7.28,3.14c2.28,0.13,4.6-0.48,6.89-0.84c3.11-0.5,6.2-1.07,9.3-1.64c7.33-1.33,14.68-2.59,21.99-4.05
		c2.88-0.58,5.39-1.93,5.62-5.4c0.21-3.22-1.77-4.79-4.48-5.78c-0.62-0.23-1.22-0.51-1.83-0.77c-0.84-1.21-2.02-1.03-3.22-0.8
		c-0.27,0.02-0.51-0.06-0.72-0.24c-1.48-3.32-4.01-4.25-7.58-4.07c-4.61,0.24-9.12,1.22-13.79,1.14
		c-14.74-0.23-29.49-0.1-44.24-0.06c-1.77,0.01-3.66-0.55-5.3,0.67c-1.03,0.07-2.06,0.15-3.08,0.22c-1.12-3.44-4.01-1.24-6-1.89
		c0-1.29,0-2.58,0-3.87c18.53,0.92,37.07,1.84,55.6,2.75c2.16,0.11,4.33,0.21,6.49,0.11c13.47-0.63,26.88,1.38,40.33,0.95
		c5.14-0.16,8.3,3.97,13,5.03c2.78,0.63,1.08,4.96-1.23,6.89c-9.56,7.96-20.84,12.01-32.93,14.12c-15.92,2.79-32.03,2.42-48.09,3.13
		c-23.39,1.04-46.78,2.25-70.19,1.68C362.24,332.64,354.28,331.99,346.31,331.99z M429.87,324.26c-0.5-1.4-1.74-1.82-2.75-2.01
		c-8.18-1.54-16.46-1.05-24.72-1.14c-1.07-0.01-2,0.45-2.06,1.66c-0.06,1.42,0.97,1.97,2.18,2.25c6.14,1.41,12.38,2.28,18.64,1.55
		C424.07,326.22,427.46,326.85,429.87,324.26z"/>
	<path class="st4" d="M407.21,298.18c0,1.29,0,2.58,0,3.87c-4.33,3.1-9.32,1.63-14.04,1.99c-2.85,0.95-4.88-3.22-7.19-1.79
		c-4.16,2.58-8.5,1.46-12.77,1.78c-1.41-3.46-3.39-1.71-6.68-1.33c3.05,1.77,4.91,1.15,6.68,1.33c0,0.65,0,1.29,0,1.94
		c-0.6,0.04-1.19,0.09-1.79,0.13c-3.96-0.43-7.87,0.29-11.88-1.74c-4.25-2.16-7.75-0.12-8.33,3.48c-0.94,0.09-1.87,0.19-2.81,0.28
		c-4.83-0.43-2.03-6.19-5.62-7.69c2.02-0.4,3.8-0.26,5.55-0.44c1.74-0.18,4.12,1.1,4.86-1.82c4.01-0.04,8.02-0.09,12.02-0.13
		c8.66,0,17.32,0,25.99,0C396.54,298.08,401.87,298.13,407.21,298.18z"/>
	<path class="st9" d="M353.2,298.17c-0.74,2.92-3.12,1.64-4.86,1.82c-1.75,0.18-3.54,0.04-5.55,0.44c3.58,1.5,0.79,7.26,5.62,7.69
		c-1.88,1.19-3.93,0.97-5.98,0.73c-0.43-3.22-0.85-6.44-1.28-9.66C345.16,298.85,349.18,298.51,353.2,298.17z"/>
	<path class="st9" d="M391.2,298.03c-8.66,0-17.32,0-25.99,0C373.88,296.49,382.54,296.48,391.2,298.03z"/>
	<path class="st9" d="M343.2,430.99c0.64-0.04,0.8,0.38,0.85,0.9C343.77,431.59,343.48,431.29,343.2,430.99z"/>
	<path class="st12" d="M342.42,308.85c2.05,0.24,4.1,0.45,5.98-0.73c0.94-0.09,1.87-0.19,2.81-0.28c6.76-0.35,13.53-0.55,20.21-1.73
		c0.6-0.04,1.19-0.09,1.79-0.13c6.69,0.15,13.33-0.48,19.97-1.2c6.7,0.18,13.4,0.58,20.04-0.84c1.03-0.07,2.06-0.15,3.08-0.22
		c23.63,1.01,47.38-1.77,70.91,2.31c0.21,0.18,0.45,0.26,0.72,0.24c0.91,0.9,2.06,0.86,3.22,0.8c0.61,0.26,1.21,0.55,1.83,0.77
		c2.71,0.99,4.69,2.56,4.48,5.78c-0.23,3.47-2.74,4.83-5.62,5.4c-7.31,1.46-14.66,2.72-21.99,4.05c-3.1,0.56-6.19,1.14-9.3,1.64
		c-2.29,0.37-4.62,0.97-6.89,0.84c-2.74-0.15-6.49-0.08-7.28-3.14c-0.87-3.37,3.27-3.51,5.26-4.94c1.3-0.93,3.07-1.21,4.62-1.78
		c4-0.59,8.01-1.17,12.01-1.76c1.3-0.02,2.68,0.54,4.41-0.79c-1.81,0-3.07,0-4.33,0c-2.32-0.09-4.64-0.19-6.96-0.28
		c-10.33-1.56-20.72-0.52-31.08-0.68c-4.74-0.07-9.56-0.73-14.24,0.68c-10.61,0.75-21.29-0.53-31.86,1.16
		c-13.01,0.31-26.02,0.62-39.02,0.93c-2.48-0.74-1.04-4.64-4.02-4.97C341.57,309.61,341.99,309.23,342.42,308.85z"/>
	<path class="st6" d="M341.15,309.99c2.98,0.33,1.54,4.24,4.02,4.97c-0.24,0.15-0.51,0.23-0.79,0.22
		c-6.95,0.24-13.73,2.28-20.73,1.89c-1.59-0.09-3.3,0.48-5.42-1.13C326,313.13,333.42,311.03,341.15,309.99z"/>
	<path class="st5" d="M371.89,426.15c1.58,0.53,1.27,1.83,1.23,3.02C372.07,428.42,372.07,427.25,371.89,426.15z"/>
	<path class="st5" d="M347.88,342.2c0.21,0.27,0.3,0.57,0.29,0.9C348.07,342.8,347.97,342.5,347.88,342.2z"/>
	<path class="st5" d="M378.24,378.02c-0.2-1.85-0.76-3.15-2.96-1.92c0.11-2.1,1.57-2.52,2.96-1.7
		C379.73,375.3,379.5,376.81,378.24,378.02z"/>
	<path class="st8" d="M431.16,383.1c-1.05-1.15-2-2.5-3.9-1.91C429.84,379.22,431.23,379.67,431.16,383.1z"/>
	<path class="st12" d="M429.87,324.26c-2.41,2.59-5.8,1.96-8.7,2.3c-6.26,0.73-12.5-0.13-18.64-1.55c-1.21-0.28-2.24-0.83-2.18-2.25
		c0.05-1.21,0.99-1.67,2.06-1.66c8.25,0.09,16.54-0.39,24.72,1.14C428.13,322.44,429.37,322.86,429.87,324.26z"/>
	<path class="st14" d="M487.21,306.03c-23.53-4.08-47.28-1.3-70.91-2.31c1.64-1.22,3.53-0.67,5.3-0.67
		c14.75-0.05,29.5-0.17,44.24,0.06c4.67,0.07,9.18-0.91,13.79-1.14C483.2,301.78,485.73,302.71,487.21,306.03z"/>
	<path class="st2" d="M416.05,312.86c4.69-1.41,9.5-0.76,14.24-0.68c10.36,0.16,20.75-0.88,31.08,0.68
		c-2.73,0.08-5.45,0.15-8.18,0.23c-0.66,0-1.33,0-1.99-0.01c-1.67,0-3.34-0.01-5.01-0.01c-0.66,0-1.33,0-1.99,0
		c-2.34,0-4.67,0-7.01,0c-1,0-1.99,0-2.99,0c-2,0-4.01,0.01-6.01,0.01c-1.33,0-2.66,0.01-3.99,0.01
		C421.49,313.01,418.77,312.94,416.05,312.86z"/>
	<path class="st14" d="M416.05,312.86c2.72,0.07,5.44,0.15,8.16,0.22c-1.18,1.32-2.75,0.92-4.2,0.92
		c-11.94,0.03-23.88,0.02-35.82,0.02C394.77,312.33,405.45,313.62,416.05,312.86z"/>
	<path class="st14" d="M413.21,303.94c-6.63,1.42-13.34,1.02-20.04,0.84c0-0.25,0-0.49-0.01-0.74c4.72-0.36,9.71,1.11,14.04-1.99
		C409.2,302.7,412.1,300.49,413.21,303.94z"/>
	<path class="st14" d="M453.2,313.09c2.73-0.08,5.45-0.15,8.18-0.23c2.32,0.09,4.64,0.19,6.96,0.28c-0.02,0.26-0.05,0.53-0.07,0.79
		c-4,0.59-8.01,1.17-12.01,1.76C457.22,312.49,453.34,314.99,453.2,313.09z"/>
	<path class="st14" d="M437.2,313.07c2.34,0,4.67,0,7.01,0C441.88,314.57,439.54,314.57,437.2,313.07z"/>
	<path class="st14" d="M428.2,313.08c2,0,4.01-0.01,6.01-0.01C432.21,314.52,430.21,314.51,428.2,313.08z"/>
	<path class="st14" d="M446.2,313.07c1.67,0,3.34,0.01,5.01,0.01C449.54,314.47,447.87,314.48,446.2,313.07z"/>
	<path class="st2" d="M491.15,307.07c-1.15,0.05-2.3,0.1-3.22-0.8C489.12,306.04,490.31,305.86,491.15,307.07z"/>
	<path class="st9" d="M371.42,306.11c-6.69,1.18-13.45,1.38-20.21,1.73c0.58-3.6,4.08-5.64,8.33-3.48
		C363.54,306.39,367.45,305.68,371.42,306.11z"/>
	<path class="st9" d="M393.17,304.04c0,0.25,0.01,0.49,0.01,0.74c-6.64,0.72-13.28,1.34-19.97,1.2c0-0.65,0-1.29,0-1.94l0,0
		c4.28-0.33,8.61,0.8,12.77-1.78C388.29,300.82,390.33,304.99,393.17,304.04z"/>
	<path class="st9" d="M373.21,304.04c-1.77-0.18-3.63,0.44-6.68-1.33C369.81,302.32,371.8,300.58,373.21,304.04L373.21,304.04z"/>
	<path class="st11" d="M468.27,313.93c0.03-0.26,0.05-0.53,0.07-0.79c1.26,0,2.52,0,4.34,0
		C470.96,314.47,469.58,313.91,468.27,313.93z"/>
</g>
</svg>
