<?xml version="1.0" encoding="utf-8"?>
<!-- Generator: Adobe Illustrator 26.0.3, SVG Export Plug-In . SVG Version: 6.00 Build 0)  -->
<svg version="1.1" id="Layer_1" xmlns="http://www.w3.org/2000/svg" xmlns:xlink="http://www.w3.org/1999/xlink" x="0px" y="0px"
	 viewBox="0 0 792 612" style="enable-background:new 0 0 792 612;" xml:space="preserve">
<style type="text/css">
	.st0{fill:#245C7D;}
	.st1{fill:#336385;}
	.st2{fill:#5A80B2;}
	.st3{fill:#A9CFF0;}
	.st4{fill:#4744AE;}
	.st5{fill:#D2E8F7;}
	.st6{fill:#A6CDEE;}
	.st7{fill:#389B90;}
	.st8{fill:#262667;}
	.st9{fill:#1F8C95;}
	.st10{fill:#ABD5D6;}
	.st11{fill:#4845AC;}
	.st12{fill:#2D6187;}
	.st13{fill:#B2BAE1;}
	.st14{fill:#CFE2ED;}
</style>
<g>
	<path class="st0" d="M480.89,466.03c-0.04,0.53-0.09,1.06-0.13,1.59c-3.11,1.62-6.2,3.31-9.33,4.85
		c-7.62,3.76-15.98,4.99-23.82,6.6c-13.35,2.74-27.31,2.45-41.01,3.53c-6.68,0.53-13.22-1.4-19.87-0.96
		c-9.49,0.63-18.93-0.69-28.35-1.3c-6.28-0.4-12.64-0.02-18.85-1.07c-9.88-1.67-19.68-3.83-29.55-5.59
		c-4.18-0.74-8.14-3.14-12.62-1.91c-0.54-0.06-1.09-0.12-1.63-0.19c-4.91-3.93-11.27-4.76-16.58-7.88
		c-5.69-3.34-10.36-7.56-10.26-14.55c0.09-6.53-3.2-12.53-2.27-19.12c0.17-1.21-0.67-2.55-1.82-3.4c-0.06-1.21-0.12-2.41-0.19-3.62
		c1.33-7.9-1.3-15.41-2.33-23.06c-0.68-5.08-0.84-10.3-1.86-15.24c-2.26-10.93-3.56-21.98-4.51-33.03
		c-0.85-9.89-3.52-19.56-3.29-29.56c0.03-1.4-0.6-2.97-2.3-3.54c-0.04-0.69-0.08-1.39-0.12-2.08c0.86-1.19,0.39-2.58,0.59-3.87
		c0.7-4.54-1.64-8.67-1.85-12.97c-0.37-7.64-1.82-15.09-2.95-22.59c-1.19-7.94-1.7-15.95-2.97-23.91c-1.1-6.9-2.65-13.81-2.78-20.94
		c-0.06-3.55,0.11-7.51-0.63-10.67c-1.3-5.57-1.92-11.02-1.8-16.62c0.07-3.27,0.34-6.63,3.94-8.32c0.33,0,0.67,0,1,0
		c0.33,0.35,0.66,0.69,0.99,1.04c0.74,2.71,2.25,2.34,4,1c3.5-0.01,7-0.05,10.5-0.04c37.5,0.08,74.99,0.16,112.49,0.25
		c2.91,3.63,6.83,0.97,10.21,1.64c0.92-0.01,1.84-0.02,2.76-0.03c3.3,2.41,7.07,1.1,10.55,1.02c5.51-0.13,11.16,1.38,16.54-0.97
		c13.65,0.02,27.3,0.03,40.95,0.05c1.35,1.47,2.7,1.47,4.04-0.01c14.66,0.01,29.31,0.01,43.97,0.02c6.29,2.1,12.71,0.85,19.08,0.65
		c0.32-0.01,0.6-1.04,0.9-1.6c1.3,0.02,2.6,0.04,3.89,0.06c0,0,0.09,0.07,0.09,0.07c2.09,4.55,4.05,9.19,2.99,14.31
		c-1.04,5.02-1.63,10.1-2.42,15.15c-1.45,9.37-3.2,18.7-5.15,28c-0.83,3.95-2.39,7.91-2.34,12.06c0.07,5.67-1.3,11.31-2.56,16.57
		c-2.05,8.51-3.75,17.16-5.12,25.7c-2.68,16.65-6.76,33.04-8.89,49.74c-0.9,7.02-4.03,13.67-3.26,20.91
		c-0.01,0.46-0.03,0.92-0.04,1.39c-2.44,0.28-2.06,2.14-2.16,3.77c-0.12,1.98,0.14,4.13-0.56,5.9c-2.72,6.92-3.8,14.47-4.81,21.47
		c-1.6,11.08-4.34,21.89-5.98,32.91C482.48,453.75,479.42,459.6,480.89,466.03z M270.88,401.59c-0.02,1.41-0.58,2.94,0.87,4.03
		c0.68,7.62,0.16,15.96,10.83,17.41c1.78,0.24,3.53,0.78,5.29,1.18c12.19,2.76,24.34,5.77,36.99,5.32c1.22,0.25,2.45,0.51,3.67,0.76
		c0.54,1.17,1.38,1.46,2.52,0.85c6.58,0.16,13.16,0.32,19.74,0.48c1.34,0.04,2.67,0.07,4.01,0.11c19.61-0.05,39.21-0.08,58.82-0.17
		c1.75-0.01,3.7,0.61,5.2-0.95c5.92-0.49,11.95,0.98,17.79-0.96c12.79,0.17,25.16-2.62,37.54-5.32c2.51-0.55,5.33-1.23,5.61-4.69
		c0.3-0.34,0.6-0.67,0.9-1.01c0.01-0.99,0.03-1.98,0.04-2.98c-0.25-3.85,3.15-7.04,1.99-11.06c0.05-0.97,0.09-1.94,0.13-2.91
		c2.86-2.93,1.63-6.64,1.92-10.06c1.94-2.68,2.13-5.73,2.04-8.89c-0.04-1.46-0.1-3.11,0.49-4.38c3.58-7.79,3.75-16.37,5.07-24.55
		c0.87-5.4,2.4-10.77,2.9-16.34c0.3-3.32,0.86-7.05,1.79-10.44c1.84-6.73,3.79-13.39,3.72-20.45c2.69-3.84,2-8.2,1.94-12.46
		c1.78-1.98,1.85-4.55,2.33-6.95c4.11-20.5,8.17-41.01,12.25-61.51c1.1-0.31,1.85-0.75,0.76-1.92c0.2-1.36,0.39-2.71,0.59-4.07
		c1.15-1.1,2.68-2.08,1.25-3.99c0.15-1.01,0.29-2.01,0.44-3.02c1.32-0.36,1.47-1.31,1.25-2.45c0.81-3.89-0.71-5.15-4.65-4.87
		c-4.94,0.35-9.94,0.15-14.9,0.02c-9.42-0.24-18.86,0.6-28.26-0.58c-4.89-2.15-9.87-1.29-14.86-0.51
		c-5.99,0.81-11.92-0.49-17.9-0.47c-28.76,0.05-57.53-0.06-86.3-0.15c-5.65-0.02-11.29-0.23-16.93-0.35
		c-0.4-1.77-1.81-1.67-3.15-1.66c-6.14,0.06-12.28,0.13-18.41,0.19c-4.1,0.88-8.39-0.76-12.43,0.91c-1-0.08-2-0.15-3-0.23
		c-3.68-0.99-7.38-0.71-11.09-0.18c-5.33-0.76-10.63-0.05-15.94,0.25c-7.01-0.07-14.03-0.14-21.04-0.21
		c-0.63-0.8-1.26-0.81-1.9-0.02c-2.7,0.99-6-1.57-8.36,1.4c-1.06,1.14-0.32,1.58,0.73,1.91c0.16,1.67,0.31,3.34,0.47,5.02
		c-1.41,1.62-1.04,2.6,1.06,2.96c0.1,2.47,0.2,4.93,0.3,7.4c-0.27,1.24-0.16,2.28,1.33,2.62c0.12,1.67,0.24,3.34,0.36,5
		c-1.86,2.5-0.7,4.34,1.32,5.99c0.76,2.64,0.68,5.34,0.61,8.04c-1.42,1.55-1.03,2.51,0.96,2.96c1.36,9.86,2.68,19.72,4.11,29.57
		c1.28,8.84,2.69,17.66,4.05,26.49c0.03,1.14-0.1,2.34,1.08,3.07c-0.02,1.29-0.04,2.58-0.06,3.88c0.02,1.67,0.04,3.34,0.06,5.01
		c0.04,1.5-0.33,3.15,0.18,4.46c2.97,7.74,1.71,16.09,3.67,23.99c0.88,3.57,0.48,7.29,1.55,11.07c0.98,3.44,2.72,7.03,2.51,10.86
		c-0.52,9.42,3.36,18.49,2.2,27.97c-0.06,0.51,0.59,1.11,0.91,1.66c0.33,1.34,0.67,2.68,1,4.02
		C270.84,398.98,270.86,400.28,270.88,401.59z M339.86,470.04c1.3,0.19,2.6,0.39,3.9,0.58c2.13,1.88,4.61,0.99,7,0.92
		c4.32,0.4,8.64,0.79,12.96,1.19c3.31,1.45,6.71,0.73,10.1,0.42c2.95,0.04,5.9,0.09,8.85,0.13c4.15,0.13,8.3,0.35,12.46,0.38
		c18.96,0.15,37.91,0.01,56.64-3.62c8.46-1.64,8.43-1.6,10.27-9.95c0.54-2.42,1.44-4.76,2.05-7.18c1.05-4.17,2.41-8.29,2.49-12.66
		c0.05-2.66-0.62-3.94-3.83-3.29c-12.39,2.53-25.01,3.75-37.59,4.16c-21.79,0.71-43.62,0.42-65.43,0.56
		c-6.32-0.38-12.65-0.75-18.97-1.13c-1.92-1.29-4.01-0.72-6.06-0.55c-2.65-0.15-5.29-0.3-7.94-0.45c-2.29-1.98-5.13-0.9-7.69-1.33
		c-7.52-1.27-15.08-2.32-22.62-3.47c-3.05-0.46-4.97,0-3.94,3.87c0.89,3.35,1.99,6.81,1.96,10.21
		c-0.09,11.88,6.18,16.62,17.38,17.52C321.21,467.12,330.36,469.96,339.86,470.04z"/>
	<path class="st1" d="M523.6,199.69c-1.3-0.02-2.6-0.04-3.89-0.06c-3.41-0.27-6.32-3.05-10-2c-1.66-0.07-3.33-0.13-4.99-0.2
		c-0.1-1.35-0.9-1.82-2.16-1.73c-2.61-0.07-5.22-0.13-7.83-0.2c-0.02-0.78-0.21-1.47-0.97-1.87c-0.18-0.46-0.24-1.21-0.55-1.34
		c-4.12-1.64-8.81,0.49-12.9-1.93c-0.33-0.2-0.48,1.38-0.55,2.18c-0.68-0.02-1.37-0.04-2.05-0.06c0.03-1.39-0.13-3.02-1.9-2.75
		c-5.22,0.81-9.75-2.74-14.89-2.1c-1.71,0-3.42,0.01-5.14,0.01c-1.93-0.01-3.88-0.21-5.77,0.02c-1.82,0.22-4.39-1.33-5.22,1.81
		c-13.99,1.66-27.72-2.19-41.66-1.91c-11.66,0.24-23.37,0.66-34.97-0.22c-9.49-0.71-19.03-1.5-28.37-0.48
		c-18.35,2.01-36.89-1.35-55.11,2.47c-1.5-3.63-5.18-3.92-8-0.63c-1.91,0.01-3.81,0.01-5.72,0.02c-3.87-1.82-7.44-2.02-10.21,1.93
		c-1.47,1.2-3.19,1.66-5.05,1.74c0.19-3.17-2.19-3.51-3.82-2.37c-2.76,1.93-5.53,1.6-8.44,1.45c14.23-5.4,29.24-6.87,44.19-7.61
		c27.4-1.34,54.85-1.54,82.29-1.34c26.75,0.19,53.49,0.78,80.14,3.22c15.17,1.39,30.28,3.4,45.42,5.17c0.42,0.05,0.8,0.5,1.2,0.77
		c-0.11,0.09-0.31,0.28-0.34,0.26c-0.53-0.4-0.49,0.21,0.14,0.42c1.37,0.46,2.76,0.5,4.14-0.02c2.98-0.92,5.39,1.15,8.13,1.53
		c0.61,0.77,1.28,0.81,1.99,0.13C515.27,195.35,520.16,195.89,523.6,199.69z"/>
	<path class="st1" d="M496.94,382.2c-0.77-7.24,2.37-13.89,3.26-20.91c2.13-16.7,6.21-33.09,8.89-49.74
		c1.37-8.54,3.08-17.19,5.12-25.7c1.27-5.26,2.64-10.91,2.56-16.57c-0.05-4.15,1.51-8.11,2.34-12.06c1.95-9.3,3.69-18.63,5.15-28
		c0.78-5.05,1.37-10.13,2.42-15.15c1.07-5.12-0.9-9.77-2.99-14.31c6.42,4.79,4.9,11.65,3.89,17.8
		c-3.93,24.05-8.26,48.04-12.62,72.01c-3.97,21.86-8.12,43.69-12.32,65.5C500.9,364.15,500.06,373.42,496.94,382.2z"/>
	<path class="st1" d="M297.36,471.77c4.48-1.23,8.44,1.17,12.62,1.91c9.87,1.75,19.67,3.92,29.55,5.59
		c6.2,1.05,12.57,0.67,18.85,1.07c9.42,0.61,18.85,1.93,28.35,1.3c6.66-0.44,13.19,1.48,19.87,0.96c13.7-1.08,27.66-0.79,41.01-3.53
		c7.84-1.61,16.2-2.84,23.82-6.6c3.12-1.54,6.22-3.23,9.33-4.85c0.25,2.59-1.36,3.96-3.43,4.78c-18.45,7.3-37.83,10-57.46,10.66
		c-25.44,0.86-50.87,0.42-76.22-2.64c-14.18-1.71-28.25-3.91-42.19-6.98C300.01,473.13,298.51,472.86,297.36,471.77z"/>
	<path class="st1" d="M241.75,196.63c-3.6,1.69-3.87,5.05-3.94,8.32c-0.12,5.6,0.49,11.05,1.8,16.62c0.74,3.16,0.56,7.11,0.63,10.67
		c0.13,7.14,1.67,14.04,2.78,20.94c1.27,7.95,1.78,15.96,2.97,23.91c1.13,7.5,2.57,14.95,2.95,22.59c0.21,4.3,2.55,8.43,1.85,12.97
		c-0.2,1.29,0.27,2.67-0.59,3.87c-2.53-12.22-3.56-24.66-5.19-37c-1.95-14.83-4-29.65-5.8-44.5c-1.26-10.39-2.9-20.77-2.55-31.28
		c0.13-4.06,0.9-8.07,4.1-11.08c0.05,1.09-0.21,2.28,0.99,2.98C241.75,195.96,241.75,196.29,241.75,196.63z"/>
	<path class="st1" d="M250.31,318.6c1.7,0.57,2.34,2.14,2.3,3.54c-0.23,10,2.43,19.67,3.29,29.56c0.95,11.05,2.25,22.1,4.51,33.03
		c1.02,4.94,1.18,10.15,1.86,15.24c1.03,7.65,3.66,15.17,2.33,23.06c-2.44-5.94-2.36-12.36-3.28-18.55
		c-2.73-18.55-4.98-37.18-7.36-55.78C252.69,338.67,251.53,328.63,250.31,318.6z"/>
	<path class="st1" d="M480.89,466.03c-1.47-6.43,1.58-12.28,2.5-18.39c1.64-11.02,4.38-21.83,5.98-32.91
		c1.01-7,2.09-14.55,4.81-21.47c0.7-1.77,0.44-3.92,0.56-5.9c0.1-1.64-0.28-3.5,2.16-3.77c-0.73,9.61-3.31,18.91-4.96,28.36
		c-2.91,16.68-6.29,33.28-9.54,49.9C482.12,463.29,481.41,464.64,480.89,466.03z"/>
	<path class="st1" d="M264.79,426.64c1.14,0.85,1.99,2.19,1.82,3.4c-0.93,6.58,2.37,12.59,2.27,19.12
		c-0.1,6.99,4.57,11.21,10.26,14.55c5.31,3.12,11.68,3.96,16.58,7.88c-7.52-1.38-14.32-4.46-20.72-8.57
		c-3.55-2.28-6.03-5.5-6.69-9.45C266.85,444.64,265.94,435.62,264.79,426.64z"/>
	<path class="st0" d="M241.75,195.63c-1.2-0.7-0.94-1.89-0.99-2.98c0,0,0.01-0.01,0.01-0.01c0.3-0.17,0.6-0.34,0.89-0.51
		c0.59-0.21,1.19-0.43,1.78-0.64c2.91,0.15,5.68,0.48,8.44-1.45c1.63-1.14,4.01-0.79,3.82,2.38c-3.58,0.45-7.16,0.9-10.74,1.35
		c-1.39-0.16-2.13,0.45-2.22,1.85l0.01,0.02C242.41,195.63,242.08,195.63,241.75,195.63z"/>
	<path class="st2" d="M500.62,192.36c-1.38,0.51-2.77,0.48-4.14,0.02c-0.63-0.21-0.67-0.83-0.14-0.42c0.03,0.02,0.22-0.17,0.34-0.26
		C497.99,191.92,499.31,192.14,500.62,192.36z"/>
	<path class="st2" d="M510.74,194.02c-0.71,0.68-1.37,0.64-1.99-0.13C509.41,193.93,510.08,193.98,510.74,194.02z"/>
	<path class="st1" d="M241.66,192.12c-0.3,0.17-0.6,0.34-0.89,0.51C241.07,192.46,241.37,192.29,241.66,192.12z"/>
	<path class="st3" d="M520.32,212.66c-0.15,1.01-0.29,2.01-0.44,3.02c-0.9,1.18-2.15,2.25-1.25,3.99c-0.2,1.36-0.39,2.71-0.59,4.07
		c-0.86,0.4-1.07,1.06-0.76,1.92c-4.08,20.51-8.14,41.01-12.25,61.51c-0.48,2.4-0.55,4.97-2.33,6.95
		c-7.15-4.39-15.24-4.99-23.26-5.42c-11.6-0.63-23.28-0.17-34.83-1.24c-26-2.41-52.09-2.24-78.13-3.66
		c-16.89-0.92-33.85-0.48-50.69,1.87c-0.81-8.02-2.97-15.82-3.62-23.9c-0.71-8.84-2.08-17.64-3.49-26.4
		c-1.75-10.86-1.65-22-4.93-32.62c4.04-1.67,8.33-0.04,12.43-0.91c0.71,1.07,1.77,1.36,2.97,1.38c6.2,0.07,12.39,0.73,18.59,0.09
		c5.64,0.12,11.29,0.33,16.93,0.35c28.76,0.1,57.53,0.21,86.3,0.15c5.98-0.01,11.91,1.28,17.9,0.48c4.9,1.66,9.88,1.16,14.86,0.51
		c9.4,1.18,18.84,0.34,28.26,0.58c4.97,0.13,9.96,0.32,14.9-0.02c3.95-0.28,5.47,0.98,4.66,4.87
		C520.73,210.81,519.9,211.41,520.32,212.66z"/>
	<path class="st4" d="M500.76,306.58c0.07,7.06-1.88,13.72-3.72,20.45c-0.93,3.39-1.49,7.12-1.79,10.44
		c-0.5,5.56-2.03,10.94-2.9,16.34c-1.32,8.18-1.49,16.76-5.07,24.55c-0.58,1.27-0.53,2.92-0.49,4.38c0.09,3.16-0.1,6.21-2.04,8.89
		c-9.45,0.83-19.09-1.61-28.43,1.92c-4.01,1.52-9.66-2.76-12.49,3.42c-0.03,0.06-0.62-0.04-0.88-0.19c-5.77-3.32-12,1.12-17.87-1.07
		c-1.17-0.43-2.14,0.61-2.94,1.51c-2.63,2.98-5.25,3.03-8.69,0.85c-1.55-0.99-3.72-3.57-5.69-1.98c-3.62,2.92-5.24,0.35-7.36-1.74
		c-3.91-3.86-8.74-4-13.07-0.17c-1.64,1.45-2.92,1.97-4.72,0.48c-2.03-1.68-5.12-1.79-6.57-0.64c-6.23,4.95-13.31,3.38-20.24,3.72
		c-5.98,0.29-11.4-0.87-16.46-3.96c-0.52-0.72-1.03-1.44-1.55-2.16c-0.71-2.02-1.3-4.1-2.15-6.06
		c-6.66-15.22-8.92-31.44-10.98-47.71c0.03-4.06,0.05-8.13,0.08-12.19c7.3-0.22,14.57,0.8,21.83,0.84
		c14.42,0.08,28.84,0.14,43.29-0.54c19.03-0.9,38.09-1.26,57.13-2.14C466.61,322.88,485.01,319.1,500.76,306.58z M327.05,330.27
		c1.1,1.92,2.08,3.33,4.2,3.33c4.98,0.01,9.96,0.03,14.94-0.01c0.94-0.01,2.23,0.05,1.98-1.44c-0.19-1.13-1.37-1.68-2.31-1.44
		c-5.72,1.45-11.29,1.21-16.78-1.01C328.64,329.53,327.94,330,327.05,330.27z"/>
	<path class="st5" d="M303.77,202.74c3.28,10.62,3.19,21.76,4.93,32.62c1.41,8.76,2.77,17.56,3.49,26.4
		c0.65,8.08,2.81,15.88,3.62,23.9c0,0,0.01,0.03,0.01,0.03c-2.61,0.3-5.24,0.49-7.82,0.93c-8.58,1.44-17.25,2.5-25.57,5.24
		c-0.28,0.02-0.5-0.09-0.68-0.31c-1.2-11.34-3.72-22.47-5.46-33.72c-2.59-16.79-3.97-33.52-3.59-50.46c0.04-1.7,0.19-3.31,1.04-4.8
		c5.31-0.3,10.62-1.01,15.94-0.25c3.66,2.22,7.36,1.87,11.09,0.18C301.76,202.59,302.77,202.66,303.77,202.74z"/>
	<path class="st6" d="M359.72,441.68c21.81-0.13,43.64,0.15,65.43-0.56c12.58-0.41,25.2-1.63,37.59-4.16
		c3.21-0.66,3.88,0.63,3.83,3.29c-0.08,4.37-1.44,8.49-2.49,12.66c-0.61,2.41-1.51,4.75-2.05,7.18c-1.84,8.34-1.81,8.31-10.27,9.95
		c-18.73,3.63-37.67,3.77-56.64,3.62c-4.15-0.03-8.3-0.25-12.46-0.38c-0.29-2.07-1.65-3.63-2.91-5.05
		C372.37,459.91,367.06,450.03,359.72,441.68z"/>
	<path class="st2" d="M244.96,193.76c3.58-0.45,7.16-0.9,10.74-1.35c1.86-0.08,3.58-0.54,5.05-1.74c2.66-0.06,5.31-0.11,7.97-0.17
		c1.29,0.12,1.97-0.48,2.11-1.75l0.14-0.01c1.91-0.01,3.81-0.01,5.72-0.02c2.69-0.04,5.25,1.41,8,0.64
		c18.22-3.82,36.76-0.46,55.11-2.47c9.33-1.02,18.88-0.24,28.37,0.48c11.6,0.87,23.31,0.46,34.97,0.22
		c13.94-0.29,27.67,3.57,41.66,1.91c2.76,0.38,5.4,1.41,8.28,1.2c2.09-0.15,3.1-0.87,2.71-3.04c1.71,0,3.42-0.01,5.13-0.01
		c-0.61,1.78-0.08,2.78,1.89,3.01c4.97,0.58,9.94,1.23,14.9,1.84c0.68,0.02,1.37,0.04,2.05,0.06c4.17,1.38,8.5,1.19,12.8,1.19
		c0.27,1.14,0.89,1.86,2.17,1.76c2.61,0.07,5.22,0.13,7.83,0.2c0.27,1.14,0.82,1.93,2.16,1.73c1.66,0.07,3.33,0.13,4.99,0.2
		c-0.21,2.57-2.19,1.9-3.75,2.08c-2.08,0.24-4.34-0.73-6.24,0.87c-14.66-0.01-29.31-0.01-43.97-0.02c-1.35-1.21-2.69-1.21-4.04,0.01
		c-13.65-0.02-27.3-0.03-40.95-0.05c-9.03-1.43-18.06-1.36-27.09-0.05c-0.92,0.01-1.84,0.02-2.76,0.03
		c-2.9-3.71-6.8-1.13-10.21-1.64c-37.5-0.08-74.99-0.17-112.49-0.25c-3.5-0.01-7,0.03-10.5,0.04c-1.07-1.39-2.62-0.86-4-1
		c-0.33-0.35-0.66-0.69-0.99-1.04c0-0.33,0-0.67,0-1c0,0-0.01-0.02-0.01-0.02C244.02,195.64,244.69,194.95,244.96,193.76z"/>
	<path class="st7" d="M418.83,430.61c-1.5,1.56-3.44,0.94-5.2,0.95c-19.61,0.09-39.21,0.12-58.82,0.17c-0.16-1.08,0.16-2.34-1.12-3
		c-0.59-1.04-1.19-2.08-1.78-3.12c1.89,0.06,3.44-0.57,2.56-2.7c-0.84-2.02-2.43-1.54-3.77-0.2c-2.93-3.93-4.06-8.65-5.8-13.11
		c0.98-0.11,2.72,0.02,2.83-0.36c1.54-4.97,5.59-3.49,8.96-3.6c3-0.1,6-0.09,9,0.01c3.11,0.11,5.75-0.29,7.94-3.06
		c1.65-2.08,3.87-2.47,6.48-0.32c3.32,2.74,9.08,1.96,11.42-1.43c2.15-3.11,3.66-1.96,5.36,0.13c1.16,1.43,2.26,3.48,4.08,3.43
		c5.22-0.13,10.15,1.34,15.18,1.92c5.11,0.59,10.39-2.34,15.86-0.83c0.71,0.2,1.88-0.6,2.6-1.21c3.18-2.71,5.8-1.52,8.3,1
		c-1.33,1.56-1.37,2.98,0.6,3.99c0.92,0.47,2.09,0.46,2.65-0.49c1.06-1.76-0.71-2.59-1.51-3.72c1.38-2.2,2.49-5.2,5.86-3.95
		c3.2,1.19,5.66,2.44,8.89-0.72c2.19-2.15,5.96,3.04,9.07-0.1c0.11-0.11,0.29-0.21,0.44-0.21c4.71-0.08,9.74-2.86,13.93,1.59
		c-0.05,0.97-0.09,1.94-0.14,2.91c-2.28-0.04-3.92,0.67-3.96,3.31c-0.02,1.2-0.14,2.37-1.66,2.64c-2.15,0.38-5.53-0.11-4.88,3.24
		c0.57,2.96,3.87,1.55,6.02,1.84c0.82,0.11,1.66,0.03,2.48,0.03c-0.01,0.99-0.03,1.98-0.04,2.98c-0.3,0.34-0.6,0.67-0.9,1.01
		c-0.28,3.46-3.09,4.14-5.61,4.69c-12.38,2.69-24.75,5.49-37.54,5.32C430.7,430.22,424.66,428.44,418.83,430.61z M395.99,408.74
		c-1.3-0.09-2.64-0.22-3.58,0.94c-0.68,0.84-0.72,1.79-0.15,2.71c0.78,1.26,2.19,1.46,3.42,1.51c1.51,0.06,0.85-1.37,1.05-2.19
		c0.93-0.2,1.97-0.39,1.82-1.66C398.36,408.44,397.02,408.83,395.99,408.74z M443.39,420.84c6.32-0.52,12.22-4.47,18.91-2.29
		c1.16,0.38,2.27-0.37,2.37-1.88c0.1-1.42-0.34-2.2-1.73-3.1c-5.01-3.24-10.01-2.23-14.58,0.2c-3.16,1.68-5.93,1.62-8.91,0.58
		c-2.04-0.71-3.8-0.96-5.59,0.52c-1.27,1.05-2.81,0.76-4.31,0.57c-5.42-0.67-11.15,0.94-16.18-2.62c-1.29-0.92-2.72,0.66-4,1.43
		c-4.36,2.65-8.67,3.96-14.14,2.69c-5.39-1.25-11.15-3.4-16.62-2.1c-6.45,1.54-12.76,0.44-19.11,0.79c-0.83,0.05-1.72-0.1-2.48,0.14
		c-1.45,0.45-3.16,1.26-2.67,2.98c0.43,1.51,1.95,0.49,2.98,0.16c1.36-0.43,2.62,0.28,3.88,0.31c5.66,0.13,11.06,6.23,17.12,0.65
		c0.8-0.73,3.44,0.48,5.2,0.88c6.8,1.54,13.57,3.29,20.35-0.13c5.26-2.66,10.23-1.69,16.02-0.68c6.34,1.11,13.31,4.76,20.1,0.84
		C441.09,422.71,442.22,423.06,443.39,420.84z M426.48,426.34c-0.65-1.13-1.4-2.42-3.07-2.54c-1.57-0.11-2.51,0.86-2.5,2.37
		c0.02,1.54,1.1,2.31,2.59,2.38C424.92,428.61,426.09,428.23,426.48,426.34z M464.72,407.17c-1.29,0.21-2.15,1.02-2.33,2.22
		c-0.19,1.28,0.62,2.52,1.83,2.5c1.39-0.02,2.32-1.24,2.32-2.71C466.53,408.12,465.89,407.34,464.72,407.17z M378.18,428.52
		c1.22-0.14,2.29-0.59,2.21-2.02c-0.06-1.11-0.97-1.7-2.02-1.72c-1.26-0.02-2.3,0.55-2.23,1.98
		C376.19,427.89,377.09,428.36,378.18,428.52z M377.57,407.38c0.02-1.21-0.51-2.01-1.62-2.13c-1.15-0.12-1.82,0.67-1.93,1.73
		c-0.11,1.1,0.54,1.9,1.62,2.04C376.81,409.17,377.36,408.35,377.57,407.38z M421.24,412.51c1.2-0.1,1.7-0.98,1.86-1.98
		c0.21-1.28-0.75-1.76-1.79-1.77c-1.28-0.01-2.31,0.63-2.18,2.06C419.23,411.93,420.15,412.42,421.24,412.51z M457.88,420.71
		c-1.05,0.01-1.96,0.27-1.94,1.56c0.02,1.07,0.59,1.88,1.68,1.98c1.13,0.11,1.76-0.69,1.92-1.72
		C459.74,421.31,459.03,420.78,457.88,420.71z M399.63,424.98c-1.03,0.15-1.61,0.84-1.72,1.9c-0.1,0.96,0.43,1.59,1.35,1.58
		c1.26-0.01,2.22-0.67,2.1-2.04C401.29,425.6,400.65,425.01,399.63,424.98z M465.93,419.97c-0.95-0.05-1.59,0.52-1.83,1.3
		c-0.27,0.9,0.33,1.61,1.17,1.83c1.12,0.28,1.92-0.32,2.08-1.42C467.49,420.74,466.71,420.3,465.93,419.97z M417.42,424.62
		c-0.04-0.85-0.56-1.47-1.4-1.61c-0.94-0.16-1.59,0.56-1.73,1.33c-0.19,1.03,0.3,1.95,1.52,1.89
		C416.66,426.19,417.2,425.55,417.42,424.62z M353.6,409.51c0.05-0.98-0.36-1.66-1.38-1.62c-1.03,0.04-1.34,0.79-1.32,1.72
		c0.02,0.93,0.41,1.7,1.4,1.67C353.33,411.25,353.56,410.39,353.6,409.51z M404.82,422.21c-0.93,0.05-1.6,0.54-1.66,1.45
		c-0.07,0.94,0.62,1.53,1.49,1.62c0.94,0.1,1.55-0.61,1.66-1.44C406.44,422.87,405.68,422.43,404.82,422.21z M425.03,408.66
		c0.09,0.74,0.58,1.26,1.24,1.21c0.91-0.08,1.38-0.8,1.27-1.71c-0.09-0.77-0.66-1.09-1.38-0.87
		C425.52,407.49,425.01,407.89,425.03,408.66z M367.73,424.25c-0.39-0.47-0.67-0.79-0.94-1.11c-0.29,0.29-0.8,0.57-0.82,0.87
		c-0.02,0.34,0.41,0.7,0.64,1.05C366.95,424.82,367.28,424.58,367.73,424.25z"/>
	<path class="st4" d="M269.83,393.65c-0.32-0.56-0.98-1.15-0.92-1.66c1.16-9.48-2.72-18.55-2.2-27.97
		c0.21-3.83-1.53-7.41-2.51-10.86c-1.07-3.78-0.66-7.5-1.55-11.07c-1.96-7.9-0.7-16.25-3.67-23.99c-0.51-1.32-0.14-2.97-0.18-4.46
		c7.91,2.7,15.79,5.51,24.16,6.56c1.81,0.23,3.55,0.91,5.06-0.7c0.17,0.28,0.44,0.53,0.5,0.83c5.02,24.11,8,48.76,18.87,71.33
		c-2.51-0.42-4.56,0.4-6.16,2.33c-0.92,1.11-2.11,2.12-3.39,1.26c-3.99-2.7-7.74-1.8-11.69,0.03c-1.1,0.51-2.99,0.72-3.84,0.12
		C278.37,392.64,274.02,393.91,269.83,393.65z"/>
	<path class="st3" d="M273.73,202.57c-0.86,1.49-1,3.1-1.04,4.8c-0.38,16.94,1,33.67,3.59,50.46c1.73,11.25,4.26,22.39,5.46,33.72
		c-9.21,0.53-16.95,4.52-24.01,10.14c-1.35-8.83-2.76-17.65-4.05-26.49c-1.43-9.85-2.74-19.71-4.11-29.57
		c0.2-1.15,0.21-2.24-0.96-2.96c0.07-2.7,0.15-5.4-0.61-8.04c0.32-2.17-0.27-4.13-1.32-5.99c-0.12-1.67-0.24-3.34-0.36-5
		c0.3-1.25-0.29-2.05-1.34-2.62c-0.1-2.47-0.2-4.93-0.3-7.4c0.15-1.17,0-2.23-1.06-2.96c-0.16-1.67-0.31-3.34-0.47-5.02
		c0.32-0.85,0.16-1.52-0.73-1.91c2.37-2.97,5.66-0.42,8.36-1.4c0.63,0.01,1.27,0.01,1.9,0.02
		C259.71,202.43,266.72,202.5,273.73,202.57z"/>
	<path class="st8" d="M500.76,306.58c-15.75,12.53-34.16,16.31-53.76,17.22c-19.05,0.88-38.11,1.24-57.13,2.14
		c-14.45,0.68-28.87,0.62-43.29,0.54c-7.26-0.04-14.53-1.06-21.83-0.84c-0.64-0.02-1.27-0.04-1.91-0.05
		c-0.88-1.2-1.2-2.54-0.99-4.01c7.97,0,15.93,0.65,23.87,0.85c23.41,0.57,46.8-0.64,70.19-1.68c16.06-0.72,32.17-0.34,48.09-3.13
		c12.09-2.12,23.37-6.16,32.93-14.12c2.32-1.93,4.02-6.26,1.23-6.89c-4.7-1.06-7.87-5.2-13-5.03c-13.45,0.43-26.86-1.59-40.33-0.95
		c-2.16,0.1-4.33,0-6.49-0.11c-18.53-0.9-37.07-1.83-55.6-2.75c-5.33-0.05-10.67-0.1-16-0.14c-8.66-1.55-17.32-1.55-25.98,0
		c-4.01,0.05-8.02,0.09-12.02,0.14c-4.02,0.34-8.04,0.68-12.06,1.02c-0.29-1.03-0.58-2.06-0.87-3.09c0,0-0.01-0.03-0.01-0.03
		c16.83-2.35,33.8-2.79,50.69-1.87c26.03,1.42,52.13,1.24,78.13,3.66c11.55,1.07,23.23,0.61,34.83,1.24
		c8.01,0.44,16.11,1.03,23.26,5.42C502.76,298.38,503.45,302.74,500.76,306.58z"/>
	<path class="st9" d="M442.9,405.29c-2.5-2.52-5.12-3.72-8.3-1c-0.72,0.61-1.89,1.41-2.6,1.21c-5.47-1.51-10.75,1.42-15.86,0.83
		c-5.03-0.58-9.97-2.05-15.18-1.92c-1.82,0.05-2.92-2-4.08-3.43c-1.7-2.09-3.2-3.24-5.36-0.13c-2.35,3.39-8.1,4.17-11.42,1.43
		c-2.6-2.15-4.83-1.76-6.48,0.32c-2.19,2.77-4.83,3.16-7.94,3.06c-3-0.1-6-0.11-9-0.01c-3.37,0.11-7.41-1.37-8.96,3.6
		c-0.12,0.38-1.85,0.25-2.83,0.36c-1.85-5.28-3.7-10.56-5.55-15.83c5.06,3.09,10.48,4.25,16.46,3.96
		c6.93-0.34,14.01,1.24,20.24-3.72c1.44-1.15,4.54-1.04,6.57,0.64c1.8,1.49,3.08,0.97,4.72-0.48c4.33-3.83,9.16-3.69,13.07,0.17
		c2.12,2.09,3.75,4.66,7.36,1.74c1.97-1.59,4.14,1,5.69,1.98c3.43,2.18,6.05,2.13,8.69-0.85c0.8-0.9,1.77-1.94,2.94-1.51
		c5.87,2.18,12.1-2.26,17.87,1.07c0.26,0.15,0.85,0.25,0.88,0.19c2.83-6.18,8.48-1.9,12.49-3.42c9.33-3.53,18.97-1.09,28.43-1.92
		c-0.29,3.42,0.94,7.13-1.92,10.06c-4.19-4.44-9.22-1.67-13.93-1.59c-0.15,0-0.33,0.1-0.44,0.21c-3.11,3.14-6.88-2.05-9.07,0.1
		c-3.23,3.16-5.69,1.91-8.89,0.72c-3.37-1.25-4.48,1.75-5.86,3.95C444.06,405.15,443.48,405.22,442.9,405.29z"/>
	<path class="st5" d="M359.72,441.68c7.34,8.35,12.65,18.22,20.03,26.54c1.26,1.42,2.62,2.98,2.91,5.05
		c-2.95-0.04-5.9-0.09-8.85-0.13c-3.26-2.69-6.66-1.94-10.1-0.42c-4.32-0.4-8.64-0.79-12.96-1.19c-1.96-3.17-4.45-2.22-7-0.92
		c-1.3-0.19-2.6-0.39-3.9-0.58c-2.09-3.71-4.23-7.35-6.66-10.89c-3.24-4.73-5.61-10.06-8.51-15.04c-1.57-2.7-0.35-3.82,2.06-4.57
		c2.65,0.15,5.29,0.3,7.94,0.45c1.79,2.72,3.9,1.93,6.06,0.55C347.08,440.93,353.4,441.31,359.72,441.68z"/>
	<path class="st10" d="M339.35,393.76c1.85,5.28,3.7,10.56,5.55,15.83c1.73,4.46,2.87,9.18,5.8,13.11c0.4,0.97,0.81,1.93,1.21,2.9
		c0.59,1.04,1.19,2.08,1.78,3.12c0.39,2.32-2.03,1.83-2.89,2.89c-6.58-0.16-13.16-0.32-19.74-0.48c-0.59-1-1.35-1.54-2.52-0.86
		c-1.22-0.25-2.45-0.51-3.67-0.76c-2.64-4.37-5.28-8.74-7.92-13.11c-0.41-0.93-0.82-1.86-1.23-2.79c-0.29-0.37-0.58-0.75-0.87-1.12
		l0.06-0.06c-1.02-4.51-2.94-8.69-4.73-12.91c-0.52-1.96-1.05-3.91-1.57-5.87c2.29,0.59,4.24,3.06,6.85,1.72
		c7.07-3.64,15.34,0.03,22.35-3.78C338.32,392.33,338.83,393.04,339.35,393.76z"/>
	<path class="st6" d="M326.75,439.55c-2.41,0.75-3.63,1.86-2.06,4.57c2.9,4.98,5.26,10.31,8.51,15.04
		c2.42,3.53,4.56,7.18,6.66,10.89c-9.5-0.08-18.64-2.92-28.01-3.68c-11.2-0.9-17.46-5.64-17.38-17.52c0.02-3.4-1.07-6.86-1.96-10.21
		c-1.03-3.88,0.89-4.34,3.94-3.87c7.54,1.14,15.1,2.19,22.62,3.47C321.62,438.66,324.46,437.58,326.75,439.55z"/>
	<path class="st7" d="M316.94,416.42c2.64,4.37,5.28,8.74,7.92,13.11c-12.65,0.45-24.8-2.56-36.99-5.32
		c-1.76-0.4-3.51-0.94-5.29-1.18c-10.66-1.44-10.15-9.79-10.83-17.41c2.07-0.08,3.23,1.99,5.38,2.06c5.2,0.19,8.99,4.19,13.81,5.51
		c-0.27,1.94,0.79,2.46,2.47,2.32C301.18,418.07,309.13,415.4,316.94,416.42z M313.4,424.6c-0.21-1.16-0.91-1.78-1.99-1.81
		c-1.56-0.05-2.48,0.83-2.47,2.35c0.01,1.26,1.1,1.49,2.12,1.41C312.28,426.45,313.25,425.96,313.4,424.6z M305.85,419.9
		c-2.06,0.52-2.06,1.36-1.97,2.18c0.09,0.76,0.61,1.2,1.34,1.01c0.88-0.23,1.35-0.89,1.1-1.84
		C306.15,420.6,305.88,419.99,305.85,419.9z M278.26,413.91c-0.37-0.21-0.89-0.74-1.4-0.73c-0.79,0.01-1.02,0.78-0.76,1.43
		c0.14,0.35,0.66,0.73,1.04,0.76C277.83,415.42,278.32,415.01,278.26,413.91z"/>
	<path class="st11" d="M258.75,308.64c0.02-1.29,0.04-2.58,0.06-3.88c7.33-4.52,14.22-10.16,23.68-9.21
		c2.37,6.86,3.66,13.96,4.87,21.08C277.42,315.39,267.49,314.14,258.75,308.64z"/>
	<path class="st7" d="M310.17,399.53c1.79,4.22,3.71,8.4,4.73,12.91c-2.28,0.38-4.57,0.3-6.88,0.84c-4.4,1.01-8.87-0.15-12.15-2.93
		c-2.4-2.03-4.54-2.91-7.47-2.79c-0.91,0.04-1.99-0.31-2.75-0.83c-4.47-3.04-10.11-2.67-14.76-5.15c-0.02-1.31-0.04-2.61-0.06-3.92
		c0.76,0.28,1.52,0.57,2.29,0.82c5.1,1.68,9.92,5.35,15.7,1.42c1.49-1.01,3.77-0.4,5.65,0.78c2.54,1.6,5.92,1.87,7.99,0.19
		C305.08,398.74,307.42,398.91,310.17,399.53z M299.83,410.36c1.5-0.46,2.92-0.95,2.84-2.84c-0.08-1.83-1.08-3.39-2.81-3.43
		c-2.05-0.04-3.06,1.66-3.01,3.68C296.9,409.63,298.4,410.02,299.83,410.36z M306.66,402.94c-0.87,0.26-1.57,0.75-1.56,1.68
		c0.01,1.19,0.84,1.78,1.94,1.81c0.98,0.03,1.53-0.59,1.48-1.57C308.46,403.73,307.84,403.05,306.66,402.94z M292.19,405.11
		c0.18-1.08-0.27-1.55-0.89-1.77c-0.71-0.25-1.26,0.1-1.38,0.84c-0.14,0.83-0.01,1.72,1.02,1.75
		C291.41,405.95,291.9,405.32,292.19,405.11z"/>
	<path class="st9" d="M310.17,399.53c-2.75-0.62-5.09-0.79-7.72,1.35c-2.07,1.68-5.45,1.41-7.99-0.19
		c-1.87-1.18-4.16-1.79-5.65-0.78c-5.78,3.93-10.6,0.26-15.7-1.42c-0.77-0.25-1.53-0.55-2.29-0.82c-0.33-1.34-0.67-2.68-1-4.02
		c4.19,0.25,8.55-1.01,12.48,1.76c0.86,0.6,2.74,0.39,3.84-0.12c3.95-1.83,7.71-2.73,11.69-0.03c1.28,0.86,2.47-0.15,3.39-1.26
		c1.6-1.93,3.65-2.75,6.16-2.33c0.4,0.66,0.81,1.33,1.21,1.99C309.12,395.62,309.65,397.58,310.17,399.53z"/>
	<path class="st9" d="M270.88,401.59c4.65,2.48,10.28,2.11,14.76,5.15c0.77,0.52,1.84,0.86,2.75,0.83c2.93-0.12,5.07,0.76,7.47,2.79
		c3.28,2.77,7.76,3.94,12.15,2.93c2.31-0.53,4.6-0.46,6.88-0.84c0,0-0.06,0.06-0.06,0.06c0.29,0.37,0.58,0.75,0.87,1.12
		c0.41,0.93,0.82,1.86,1.23,2.79c-7.81-1.02-15.76,1.65-23.51-0.9c-0.43-1.2-1.3-1.92-2.48-2.32c-4.82-1.32-8.61-5.32-13.81-5.51
		c-2.15-0.08-3.31-2.14-5.38-2.06C270.3,404.53,270.86,403,270.88,401.59z"/>
	<path class="st8" d="M258.75,308.64c8.74,5.5,18.67,6.75,28.61,8c0.22,0.96,0.44,1.92,0.67,2.87c-1.5,1.6-3.25,0.92-5.06,0.69
		c-8.37-1.05-16.25-3.86-24.16-6.56C258.79,311.98,258.77,310.31,258.75,308.64z"/>
	<path class="st8" d="M282.48,295.55c-9.46-0.95-16.35,4.69-23.68,9.21c-1.18-0.73-1.05-1.93-1.08-3.07
		c7.06-5.62,14.8-9.61,24.01-10.14c0.17,0.22,0.4,0.32,0.68,0.31C282.44,293.09,282.46,294.32,282.48,295.55z"/>
	<path class="st9" d="M480.71,415.65c-0.83-0.01-1.67,0.07-2.48-0.03c-2.15-0.29-5.45,1.13-6.02-1.84
		c-0.64-3.35,2.74-2.86,4.88-3.24c1.52-0.27,1.64-1.44,1.66-2.64c0.04-2.64,1.68-3.36,3.96-3.31
		C483.86,408.61,480.46,411.8,480.71,415.65z"/>
	<path class="st12" d="M383.69,200.48c9.03-1.31,18.06-1.38,27.09,0.05c-5.38,2.35-11.03,0.84-16.54,0.97
		C390.76,201.57,386.99,202.89,383.69,200.48z"/>
	<path class="st12" d="M499.73,200.59c1.89-1.6,4.15-0.62,6.24-0.87c1.56-0.18,3.54,0.48,3.75-2.08c3.68-1.05,6.59,1.73,10,2
		c-0.3,0.56-0.59,1.59-0.9,1.6C512.44,201.44,506.02,202.69,499.73,200.59z"/>
	<path class="st12" d="M337.76,203.29c-6.2,0.64-12.39-0.01-18.59-0.09c-1.2-0.01-2.26-0.31-2.97-1.38
		c6.14-0.07,12.27-0.14,18.41-0.19C335.95,201.62,337.35,201.51,337.76,203.29z"/>
	<path class="st1" d="M473.75,204.78c-4.98,0.65-9.96,1.15-14.86-0.51C463.88,203.48,468.86,202.63,473.75,204.78z"/>
	<path class="st3" d="M300.76,202.51c-3.72,1.68-7.43,2.03-11.09-0.18C293.38,201.8,297.08,201.52,300.76,202.51z"/>
	<path class="st12" d="M370.72,198.87c3.41,0.51,7.31-2.07,10.21,1.64C377.55,199.84,373.63,202.49,370.72,198.87z"/>
	<path class="st6" d="M363.72,472.73c3.43-1.52,6.84-2.27,10.1,0.42C370.43,473.46,367.03,474.18,363.72,472.73z"/>
	<path class="st2" d="M418.83,430.61c5.83-2.17,11.88-0.39,17.79-0.96C430.78,431.59,424.75,430.12,418.83,430.61z"/>
	<path class="st6" d="M343.76,470.62c2.54-1.3,5.04-2.25,7,0.92C348.37,471.61,345.88,472.5,343.76,470.62z"/>
	<path class="st12" d="M246.69,228.65c1.05,1.86,1.64,3.83,1.32,5.99C245.99,232.99,244.83,231.15,246.69,228.65z"/>
	<path class="st6" d="M340.75,440.56c-2.16,1.38-4.27,2.16-6.06-0.55C336.74,439.83,338.83,439.27,340.75,440.56z"/>
	<path class="st12" d="M243.73,197.66c1.38,0.14,2.93-0.39,4,1C245.98,200,244.47,200.38,243.73,197.66z"/>
	<path class="st1" d="M518.63,219.66c-0.89-1.74,0.35-2.81,1.25-3.99C521.31,217.58,519.78,218.56,518.63,219.66z"/>
	<path class="st12" d="M451.73,200.57c1.34-1.21,2.69-1.22,4.04-0.01C454.42,202.04,453.08,202.04,451.73,200.57z"/>
	<path class="st12" d="M248.62,242.68c1.16,0.71,1.16,1.8,0.96,2.96C247.59,245.19,247.2,244.22,248.62,242.68z"/>
	<path class="st2" d="M350.8,431.62c0.86-1.06,3.28-0.57,2.89-2.89c1.28,0.66,0.96,1.92,1.12,3
		C353.47,431.69,352.13,431.66,350.8,431.62z"/>
	<path class="st12" d="M243.63,210.67c1.06,0.73,1.21,1.79,1.06,2.96C242.6,213.27,242.22,212.29,243.63,210.67z"/>
	<path class="st12" d="M242.43,203.75c0.9,0.38,1.05,1.05,0.73,1.91C242.11,205.33,241.37,204.89,242.43,203.75z"/>
	<path class="st12" d="M245,221.02c1.04,0.57,1.64,1.37,1.34,2.62C244.84,223.3,244.72,222.26,245,221.02z"/>
	<path class="st1" d="M520.32,212.66c-0.42-1.24,0.41-1.85,1.25-2.45C521.79,211.35,521.64,212.3,520.32,212.66z"/>
	<path class="st1" d="M517.28,225.66c-0.32-0.86-0.1-1.52,0.76-1.92C519.13,224.91,518.38,225.35,517.28,225.66z"/>
	<path class="st2" d="M328.54,430.28c1.17-0.69,1.92-0.15,2.52,0.86C329.92,431.74,329.08,431.45,328.54,430.28z"/>
	<path class="st12" d="M252.7,202.36c-0.63-0.01-1.27-0.01-1.9-0.02C251.44,201.56,252.07,201.56,252.7,202.36z"/>
	<path class="st9" d="M479.76,419.64c0.3-0.34,0.6-0.68,0.9-1.01C480.36,418.97,480.06,419.3,479.76,419.64z"/>
	<path class="st12" d="M242.75,195.63c0,0.33,0,0.67,0,1c-0.33,0-0.67,0-1,0c0-0.33,0-0.67,0-1
		C242.08,195.63,242.41,195.63,242.75,195.63z"/>
	<path class="st0" d="M477.71,192.49c-4.97-0.62-9.93-1.27-14.9-1.84c-1.97-0.23-2.49-1.23-1.89-3.01
		c5.14-0.64,9.68,2.91,14.89,2.11C477.58,189.47,477.74,191.1,477.71,192.49z"/>
	<path class="st0" d="M455.78,187.65c0.39,2.17-0.62,2.89-2.71,3.04c-2.88,0.21-5.52-0.83-8.28-1.2c0.83-3.15,3.4-1.59,5.22-1.82
		C451.91,187.44,453.86,187.64,455.78,187.65z"/>
	<path class="st0" d="M492.56,193.75c-4.3,0-8.62,0.18-12.8-1.19c0.07-0.8,0.22-2.38,0.55-2.18c4.08,2.42,8.78,0.28,12.9,1.93
		c0.31,0.12,0.37,0.88,0.55,1.34C493.36,193.67,492.96,193.71,492.56,193.75z"/>
	<path class="st0" d="M268.72,190.49c-2.66,0.06-5.31,0.11-7.97,0.17c2.78-3.95,6.34-3.75,10.21-1.93c0,0-0.14,0.01-0.14,0.01
		C269.53,188.61,268.84,189.21,268.72,190.49z"/>
	<path class="st0" d="M284.69,189.35c-2.74,0.78-5.31-0.67-8-0.64C279.5,185.43,283.19,185.72,284.69,189.35z"/>
	<path class="st12" d="M492.56,193.75c0.4-0.04,0.8-0.08,1.2-0.11c0.76,0.4,0.96,1.09,0.98,1.87
		C493.45,195.61,492.84,194.89,492.56,193.75z"/>
	<path class="st12" d="M504.73,197.43c-1.34,0.19-1.89-0.59-2.16-1.73C503.82,195.61,504.63,196.08,504.73,197.43z"/>
	<path class="st12" d="M244.96,193.76c-0.26,1.19-0.94,1.88-2.22,1.85C242.83,194.21,243.57,193.6,244.96,193.76z"/>
	<path class="st13" d="M282.48,295.55c-0.02-1.23-0.05-2.46-0.07-3.7c8.32-2.74,16.99-3.79,25.57-5.24
		c2.59-0.43,5.21-0.63,7.82-0.93c0.29,1.03,0.58,2.06,0.87,3.09c0.43,3.22,0.85,6.44,1.28,9.66c-0.42,0.38-0.85,0.76-1.27,1.14
		c-7.73,1.04-15.15,3.14-22.35,6.32c1.66,0.62,3.25,0.7,4.85,0.78c7,0.36,13.78-1.66,20.73-1.9c-0.78,5.77,1.15,11.22,1.93,16.81
		c-0.22,1.47,0.11,2.81,0.99,4.01c0.15,2.03,0.31,4.06,0.46,6.09c0.11,0.33,0.22,0.66,0.34,0.99c0.24,1.74-0.18,3.62,1.04,5.16
		c2.06,16.27,4.31,32.49,10.98,47.71c0.86,1.96,1.44,4.04,2.15,6.06c-7.01,3.81-15.27,0.13-22.35,3.78
		c-2.62,1.35-4.56-1.13-6.85-1.72c-0.4-0.66-0.81-1.33-1.21-1.99c-10.87-22.56-13.85-47.22-18.87-71.33
		c-0.06-0.3-0.33-0.56-0.5-0.83c-0.22-0.96-0.44-1.91-0.67-2.87C286.15,309.51,284.85,302.41,282.48,295.55z"/>
	<path class="st11" d="M327.05,330.27c0.89-0.27,1.59-0.74,2.02-0.56c5.49,2.22,11.06,2.46,16.78,1.01
		c0.94-0.24,2.12,0.32,2.31,1.44c0.25,1.49-1.04,1.43-1.98,1.44c-4.98,0.03-9.96,0.02-14.94,0.01
		C329.13,333.6,328.15,332.18,327.05,330.27z"/>
	<path class="st11" d="M324.67,337.83c-1.22-1.54-0.8-3.42-1.04-5.16c-0.11-0.33-0.22-0.66-0.34-1c-0.15-2.03-0.31-4.06-0.46-6.09
		c0.64,0.02,1.27,0.04,1.91,0.05C324.72,329.71,324.7,333.77,324.67,337.83z"/>
	<path class="st1" d="M268.72,190.49c0.12-1.28,0.81-1.88,2.11-1.75C270.69,190.02,270.01,190.61,268.72,190.49z"/>
	<path class="st9" d="M440,420.78c-6.79,3.93-13.76,0.27-20.1-0.84c-5.78-1.01-10.75-1.97-16.02,0.68
		c-6.78,3.42-13.56,1.67-20.35,0.13c-1.77-0.4-4.41-1.61-5.2-0.88c-6.06,5.58-11.46-0.52-17.12-0.65c-1.26-0.03-2.52-0.75-3.88-0.31
		c-1.03,0.33-2.55,1.35-2.98-0.16c-0.49-1.72,1.23-2.53,2.67-2.98c0.77-0.24,1.65-0.09,2.48-0.14c6.35-0.35,12.66,0.75,19.11-0.79
		c5.46-1.3,11.22,0.85,16.62,2.1c5.46,1.27,9.78-0.04,14.14-2.69c1.27-0.77,2.7-2.35,4-1.43c5.04,3.56,10.77,1.96,16.18,2.62
		c1.5,0.19,3.04,0.48,4.31-0.57c1.79-1.48,3.56-1.23,5.59-0.52c2.98,1.03,5.75,1.1,8.91-0.58c4.57-2.43,9.57-3.43,14.58-0.2
		c1.39,0.9,1.83,1.68,1.73,3.1c-0.11,1.51-1.21,2.25-2.37,1.88c-6.7-2.18-12.59,1.77-18.91,2.29
		C442.26,420.82,441.13,420.8,440,420.78z"/>
	<path class="st9" d="M426.48,426.34c-0.39,1.89-1.57,2.27-2.98,2.21c-1.49-0.07-2.57-0.84-2.59-2.38c-0.02-1.51,0.93-2.48,2.5-2.37
		C425.08,423.92,425.83,425.21,426.48,426.34z"/>
	<path class="st9" d="M396.73,411.71c-0.2,0.82,0.46,2.25-1.05,2.19c-1.23-0.05-2.64-0.25-3.42-1.51c-0.57-0.91-0.53-1.87,0.15-2.71
		c0.95-1.17,2.28-1.03,3.58-0.95C395.75,409.85,395.56,410.95,396.73,411.71z"/>
	<path class="st10" d="M442.9,405.29c0.58-0.07,1.16-0.15,1.74-0.22c0.8,1.13,2.56,1.96,1.51,3.72c-0.57,0.95-1.74,0.96-2.65,0.49
		C441.53,408.28,441.57,406.85,442.9,405.29z"/>
	<path class="st10" d="M464.72,407.17c1.17,0.17,1.81,0.95,1.81,2.01c0,1.47-0.93,2.69-2.32,2.71c-1.2,0.02-2.02-1.22-1.83-2.5
		C462.56,408.19,463.43,407.38,464.72,407.17z"/>
	<path class="st9" d="M378.18,428.52c-1.08-0.16-1.99-0.63-2.04-1.76c-0.07-1.43,0.97-2,2.23-1.98c1.05,0.01,1.96,0.6,2.02,1.72
		C380.46,427.93,379.39,428.38,378.18,428.52z"/>
	<path class="st10" d="M377.57,407.38c-0.21,0.98-0.76,1.79-1.93,1.64c-1.08-0.14-1.73-0.95-1.62-2.04
		c0.11-1.06,0.78-1.85,1.93-1.73C377.06,405.36,377.59,406.17,377.57,407.38z"/>
	<path class="st9" d="M351.9,425.61c-0.4-0.97-0.81-1.93-1.21-2.9c1.34-1.33,2.94-1.82,3.77,0.2
		C355.34,425.03,353.79,425.67,351.9,425.61z"/>
	<path class="st9" d="M421.24,412.51c-1.09-0.08-2.01-0.57-2.11-1.68c-0.13-1.43,0.9-2.07,2.18-2.06c1.04,0.01,2,0.49,1.79,1.77
		C422.94,411.53,422.45,412.41,421.24,412.51z"/>
	<path class="st9" d="M457.88,420.71c1.14,0.07,1.86,0.6,1.66,1.81c-0.17,1.03-0.79,1.82-1.92,1.72c-1.09-0.1-1.66-0.91-1.68-1.98
		C455.92,420.97,456.82,420.71,457.88,420.71z"/>
	<path class="st9" d="M399.63,424.98c1.02,0.04,1.66,0.63,1.73,1.44c0.11,1.38-0.84,2.03-2.1,2.04c-0.92,0.01-1.45-0.62-1.35-1.58
		C398.02,425.81,398.6,425.13,399.63,424.98z"/>
	<path class="st10" d="M465.94,419.97c0.77,0.33,1.55,0.77,1.42,1.71c-0.16,1.09-0.96,1.7-2.08,1.42c-0.84-0.21-1.44-0.93-1.17-1.83
		C464.34,420.49,464.98,419.92,465.94,419.97z"/>
	<path class="st10" d="M417.42,424.62c-0.22,0.93-0.76,1.57-1.61,1.61c-1.22,0.06-1.71-0.86-1.52-1.89
		c0.14-0.76,0.79-1.49,1.73-1.33C416.86,423.15,417.38,423.77,417.42,424.62z"/>
	<path class="st10" d="M353.6,409.51c-0.04,0.88-0.28,1.74-1.3,1.77c-0.99,0.03-1.38-0.74-1.4-1.67c-0.02-0.93,0.29-1.68,1.32-1.72
		C353.24,407.85,353.65,408.53,353.6,409.51z"/>
	<path class="st10" d="M404.83,422.21c0.85,0.22,1.61,0.65,1.48,1.62c-0.11,0.83-0.72,1.54-1.66,1.44
		c-0.87-0.09-1.55-0.68-1.49-1.62C403.22,422.75,403.89,422.26,404.83,422.21z"/>
	<path class="st10" d="M396.73,411.71c-1.18-0.76-0.99-1.86-0.74-2.97c1.03,0.1,2.37-0.3,2.56,1.31
		C398.7,411.32,397.67,411.5,396.73,411.71z"/>
	<path class="st10" d="M425.03,408.66c-0.02-0.78,0.49-1.18,1.13-1.37c0.72-0.22,1.29,0.1,1.38,0.87c0.11,0.91-0.36,1.63-1.27,1.71
		C425.61,409.92,425.11,409.41,425.03,408.66z"/>
	<path class="st10" d="M440,420.78c1.13,0.02,2.26,0.04,3.39,0.06C442.22,423.06,441.09,422.71,440,420.78z"/>
	<path class="st10" d="M367.73,424.25c-0.45,0.33-0.78,0.57-1.12,0.82c-0.23-0.35-0.66-0.72-0.64-1.05
		c0.02-0.31,0.53-0.58,0.82-0.87C367.07,423.46,367.34,423.79,367.73,424.25z"/>
	<path class="st11" d="M321.85,321.58c-0.79-5.59-2.71-11.04-1.93-16.81c0.29,0,0.55-0.07,0.79-0.23
		c23.65-0.69,47.31-1.37,70.96-2.06c15.06,0,30.11,0,45.17-0.01c2.28,0.13,4.57,0.26,6.85,0.39c-0.03,0.17-0.04,0.33-0.02,0.5
		c-4.81,1.28-9.98,0.93-14.59,2.97c-2.85,1.27-7.86,1.84-7.03,5.58c0.8,3.61,5.59,3.49,9.08,3.06c4.6-0.56,9.17-1.47,13.74-2.28
		c7.34-1.3,14.69-2.58,22.02-3.99c3.06-0.59,5.83-1.79,6.11-5.51c0.26-3.5-2.08-4.97-4.94-5.96c-0.47-0.16-0.91-0.4-1.37-0.6
		c-0.84-1.21-2.02-1.03-3.22-0.8c-10.13-2.05-20.36-2.38-30.67-2.53c-28.05-0.41-56.05,1.05-84.05,2.24c0-0.65,0-1.29,0-1.94l0,0
		c4.15-0.46,8.59,1.26,12.42-1.78c0.49-0.39,1.87-0.35,2.36,0.06c3.66,3.04,7.96,1.17,11.93,1.74c4.57,0.65,6.55-1.8,7.28-5.87
		c18.53,0.92,37.07,1.84,55.6,2.74c2.16,0.11,4.33,0.21,6.49,0.11c13.47-0.63,26.88,1.38,40.33,0.95c5.14-0.16,8.3,3.97,13,5.03
		c2.78,0.63,1.08,4.96-1.23,6.89c-9.56,7.96-20.84,12.01-32.93,14.12c-15.92,2.79-32.03,2.42-48.09,3.13
		c-23.39,1.04-46.78,2.25-70.19,1.68C337.77,322.24,329.82,321.58,321.85,321.58z M406.01,314.16c-0.94-0.88-1.22-1.36-1.62-1.49
		c-8.82-2.99-17.96-1.68-26.99-1.88c-0.88-0.02-1.51,0.66-1.53,1.62c-0.04,1.18,0.79,1.89,1.76,2.09
		C386.88,316.46,396.12,317.64,406.01,314.16z"/>
	<path class="st4" d="M348.74,293.63c0,0.65,0,1.29,0,1.94c-0.6,0.04-1.19,0.09-1.79,0.13c-3.96-0.43-7.87,0.29-11.88-1.74
		c-4.25-2.16-7.75-0.12-8.33,3.48c-0.94,0.09-1.87,0.19-2.81,0.28c-4.83-0.43-2.03-6.19-5.61-7.69c2.02-0.4,3.8-0.26,5.55-0.44
		c1.74-0.18,4.12,1.1,4.86-1.82c4.01-0.05,8.02-0.09,12.02-0.14c8.66,0,17.32,0,25.99,0c5.33,0.05,10.67,0.09,16,0.14
		c-0.73,4.06-2.71,6.52-7.28,5.87c-3.97-0.56-8.27,1.3-11.93-1.74c-0.49-0.41-1.87-0.45-2.36-0.06
		C357.34,294.89,352.89,293.16,348.74,293.63c-1.41-3.46-3.39-1.71-6.68-1.33C345.11,294.07,346.97,293.45,348.74,293.63z"/>
	<path class="st11" d="M328.73,287.77c-0.74,2.92-3.13,1.64-4.86,1.82c-1.75,0.18-3.53,0.04-5.55,0.44c3.58,1.5,0.79,7.26,5.61,7.68
		c-1.88,1.19-3.93,0.97-5.98,0.73c-0.43-3.22-0.85-6.44-1.28-9.66C320.69,288.44,324.71,288.11,328.73,287.77z"/>
	<path class="st11" d="M366.74,287.63c-8.66,0-17.32,0-25.99,0C349.42,286.08,358.08,286.07,366.74,287.63z"/>
	<path class="st7" d="M315.71,413.62c-0.29-0.37-0.58-0.75-0.87-1.12C315.13,412.88,315.42,413.25,315.71,413.62z"/>
	<path class="st9" d="M313.4,424.6c-0.15,1.36-1.12,1.85-2.34,1.94c-1.02,0.08-2.11-0.15-2.12-1.41c-0.02-1.52,0.91-2.4,2.47-2.35
		C312.49,422.82,313.2,423.44,313.4,424.6z"/>
	<path class="st10" d="M305.85,419.9c0.03,0.09,0.3,0.7,0.48,1.34c0.26,0.96-0.22,1.61-1.1,1.84c-0.73,0.19-1.26-0.25-1.34-1.01
		C303.79,421.26,303.79,420.42,305.85,419.9z"/>
	<path class="st10" d="M278.26,413.91c0.06,1.11-0.43,1.52-1.13,1.46c-0.38-0.03-0.9-0.41-1.04-0.76c-0.26-0.65-0.03-1.42,0.76-1.43
		C277.36,413.17,277.88,413.7,278.26,413.91z"/>
	<path class="st10" d="M290.95,413.19c1.17,0.41,2.05,1.13,2.48,2.32C291.74,415.66,290.68,415.14,290.95,413.19z"/>
	<path class="st9" d="M299.83,410.36c-1.43-0.34-2.93-0.73-2.97-2.59c-0.05-2.01,0.96-3.72,3.01-3.68c1.72,0.03,2.73,1.6,2.81,3.43
		C302.75,409.41,301.33,409.9,299.83,410.36z"/>
	<path class="st10" d="M306.66,402.94c1.17,0.1,1.79,0.79,1.86,1.92c0.06,0.98-0.5,1.6-1.48,1.57c-1.1-0.04-1.93-0.63-1.94-1.81
		C305.09,403.69,305.79,403.2,306.66,402.94z"/>
	<path class="st10" d="M292.19,405.11c-0.29,0.21-0.78,0.83-1.25,0.82c-1.03-0.02-1.15-0.92-1.02-1.75
		c0.12-0.74,0.67-1.09,1.38-0.84C291.92,403.57,292.37,404.03,292.19,405.11z"/>
	<path class="st14" d="M317.96,298.44c2.05,0.24,4.1,0.45,5.98-0.73c0.94-0.09,1.87-0.19,2.81-0.28c6.76-0.35,13.53-0.55,20.21-1.73
		c0.6-0.04,1.19-0.09,1.79-0.13c28-1.19,56-2.65,84.05-2.24c10.31,0.15,20.55,0.48,30.67,2.53c0.91,0.9,2.06,0.86,3.22,0.8
		c0.46,0.2,0.9,0.44,1.37,0.6c2.85,0.99,5.2,2.45,4.94,5.96c-0.28,3.72-3.04,4.92-6.11,5.51c-7.32,1.4-14.67,2.69-22.02,3.99
		c-4.57,0.81-9.14,1.72-13.74,2.28c-3.49,0.43-8.28,0.55-9.08-3.06c-0.82-3.73,4.18-4.31,7.03-5.58c4.61-2.05,9.78-1.69,14.59-2.97
		c1.26,0,2.53,0,3.79,0c0-0.17-0.01-0.34-0.01-0.5c-1.25,0-2.51,0-3.76,0c-2.28-0.13-4.57-0.26-6.85-0.38
		c-11.41-1.68-22.88-0.48-34.32-0.71c-3.6-0.07-7.32-0.73-10.85,0.72c-23.65,0.69-47.31,1.37-70.96,2.06
		c-2.48-0.74-1.04-4.64-4.02-4.97C317.11,299.2,317.53,298.82,317.96,298.44z"/>
	<path class="st5" d="M316.69,299.58c2.98,0.33,1.54,4.23,4.02,4.97c-0.24,0.15-0.51,0.23-0.79,0.23
		c-6.95,0.24-13.73,2.26-20.73,1.9c-1.59-0.08-3.19-0.16-4.85-0.78C301.54,302.72,308.96,300.62,316.69,299.58z"/>
	<path class="st2" d="M323.3,331.68c0.11,0.33,0.23,0.66,0.34,1C323.52,332.34,323.41,332.01,323.3,331.68z"/>
	<path class="st14" d="M406.01,314.16c-9.89,3.48-19.14,2.3-28.38,0.34c-0.97-0.21-1.8-0.91-1.76-2.09
		c0.03-0.95,0.65-1.63,1.53-1.62c9.03,0.2,18.16-1.11,26.99,1.88C404.79,312.8,405.07,313.28,406.01,314.16z"/>
	<path class="st2" d="M391.67,302.49c3.53-1.44,7.24-0.79,10.85-0.72c11.44,0.24,22.91-0.97,34.32,0.71
		C421.79,302.49,406.73,302.49,391.67,302.49z"/>
	<path class="st2" d="M443.69,302.87c1.25,0,2.51,0,3.76,0c0,0.17,0.01,0.34,0.01,0.5c-1.26,0-2.53,0-3.79,0
		C443.66,303.21,443.66,303.04,443.69,302.87z"/>
	<path class="st2" d="M466.68,296.66c-1.15,0.05-2.3,0.1-3.22-0.8C464.66,295.63,465.85,295.45,466.68,296.66z"/>
	<path class="st11" d="M346.96,295.7c-6.69,1.18-13.45,1.38-20.21,1.73c0.58-3.6,4.08-5.64,8.33-3.48
		C339.08,295.99,342.99,295.27,346.96,295.7z"/>
	<path class="st11" d="M348.74,293.63c-1.77-0.18-3.63,0.44-6.68-1.33C345.35,291.91,347.34,290.17,348.74,293.63
		C348.75,293.63,348.74,293.63,348.74,293.63z"/>
</g>
</svg>
