<?xml version="1.0" encoding="utf-8"?>
<!-- Generator: Adobe Illustrator 26.0.3, SVG Export Plug-In . SVG Version: 6.00 Build 0)  -->
<svg version="1.1" id="Layer_1" xmlns="http://www.w3.org/2000/svg" xmlns:xlink="http://www.w3.org/1999/xlink" x="0px" y="0px"
	 viewBox="0 0 792 612" style="enable-background:new 0 0 792 612;" xml:space="preserve">
<style type="text/css">
	.st0{fill:#245C7E;}
	.st1{fill:#336385;}
	.st2{fill:#5A80B2;}
	.st3{fill:#A9CFF0;}
	.st4{fill:#4645AC;}
	.st5{fill:#D2E8F7;}
	.st6{fill:#A6CDEE;}
	.st7{fill:#262767;}
	.st8{fill:#B2BAE1;}
	.st9{fill:#4F57AF;}
	.st10{fill:#4D52AF;}
	.st11{fill:#4947AD;}
	.st12{fill:#515DAF;}
	.st13{fill:#B5C2E1;}
	.st14{fill:#CFE2ED;}
</style>
<g>
	<path class="st0" d="M316.75,478.35c-0.54-0.06-1.09-0.12-1.63-0.19c-4.91-3.93-11.27-4.76-16.58-7.88
		c-5.69-3.34-10.36-7.56-10.26-14.55c0.09-6.53-3.2-12.53-2.27-19.12c0.17-1.21-0.67-2.55-1.82-3.4c-0.06-1.2-0.12-2.41-0.19-3.62
		c1.33-7.9-1.3-15.41-2.33-23.06c-0.68-5.08-0.84-10.3-1.86-15.24c-2.26-10.93-3.65-21.98-4.49-33.03
		c-0.75-9.91-3.69-19.54-3.32-29.56c0.05-1.39-0.6-2.97-2.3-3.54c-0.04-0.69-0.08-1.39-0.12-2.08c0.86-1.19,0.32-2.6,0.6-3.85
		c1.05-4.76-1.96-8.91-1.96-13.44c0-7.32-1.6-14.44-2.73-21.58c-1.28-8.09-1.73-16.25-3.07-24.35c-1.14-6.87-2.14-13.89-2.91-20.87
		c-0.54-4.95,0.57-10.09-1.38-14.96c-1.71-4.27-1.03-8.86-0.9-13.31c0.1-3.3,0.69-6.64,4.83-7.51c0.35,0.34,0.71,0.68,1.06,1.01
		c0.74,2.72,2.25,2.34,3.99,0.99c40.99,0.07,81.99,0.13,122.98,0.2c2.91,3.65,6.83,0.99,10.22,1.64c1.59,0,3.19,0,4.78-0.01
		c1.68,1.66,3.37,1.63,5.07,0.04c1.65,0,3.3,0,4.94,0c2.69,1.66,5.37,1.67,8.06,0c32.32,0.02,64.65,0.04,96.97,0.06
		c6.3,1.91,12.78,1.71,18.95,0.14c2.6-0.66,3.57-0.26,4.81,1.5c2.94,4.16,3.04,9.02,1.89,13.46c-2.65,10.24-3.02,20.81-5.26,31.14
		c-1.86,8.57-4,17.26-4.72,26.18c-0.35,4.35-0.76,9.07-2.11,13.13c-2.8,8.42-3.91,17.18-5.24,25.73
		c-2.55,16.4-6.82,32.47-8.76,48.93c-0.85,7.21-3.92,14.03-3.38,21.42c-0.01,0.46-0.03,0.92-0.04,1.39
		c-1.04,0.18-2.09,0.55-2.03,1.77c0.24,4.18-1.37,8.03-1.97,12.03c-2.52,16.75-6.14,33.26-9.37,49.86
		c-1.2,6.18-3.97,12.22-2.63,18.78c-0.04,0.53-0.09,1.06-0.13,1.59c-3.11,1.62-6.2,3.31-9.33,4.85c-7.62,3.76-15.98,4.99-23.82,6.6
		c-13.35,2.74-27.31,2.45-41.01,3.53c-6.68,0.53-13.22-1.4-19.87-0.96c-9.49,0.63-18.93-0.69-28.35-1.3
		c-6.28-0.4-12.64-0.02-18.85-1.07c-9.88-1.67-19.68-3.83-29.55-5.59C325.18,479.52,321.23,477.12,316.75,478.35z M278.19,311.34
		c-0.02,1.3-0.04,2.59-0.05,3.89c0.02,1.66,0.04,3.33,0.06,4.99c-0.97,3.33,1.81,5.91,1.87,8.95c0.19,10.62,1.75,21.03,3.99,31.39
		c1.71,7.9,2.72,16,3.68,23.95c1.42,11.81,2.36,23.68,4.21,35.47c0.67,4.25,2.81,6.59,6.13,8.16c5.15,2.44,10.79,3.17,16.34,4.27
		c9.9,1.96,19.76,3.98,29.93,3.66c9.75,2.8,19.77,1.82,29.7,2.09c4.69-0.67,8.69,2.29,13.49,2.15c16.83-0.48,33.64-0.47,50.49-1.81
		c10.79-0.86,21.5-3.68,32.46-2.38c0.48,0.06,1.02-0.02,1.47-0.19c6.45-2.52,13.38-2.54,20.08-3.65c4.46-0.74,7.88-3.66,8.08-8.21
		c0.1-2.28,0.77-4.44,1.27-6.62c0.91-3.95,2.7-7.88,2.6-11.91c-0.15-5.84,1.87-11.31,2.74-16.89c0.7-4.48,0.54-9.19,1.85-13.56
		c1.67-5.59,3.25-11.22,3.47-17.03c0.19-4.96,1.98-9.58,2.71-14.39c0.5-3.25,0.68-6.78,1.63-10.01c1.98-6.71,3.81-13.42,3.76-20.49
		c2.69-3.83,1.99-8.19,1.94-12.46c1.78-1.98,1.85-4.55,2.33-6.95c4.11-20.5,8.17-41.01,12.25-61.51c1.1-0.31,1.85-0.75,0.76-1.92
		c0.2-1.36,0.39-2.71,0.59-4.07c1.15-1.1,2.68-2.08,1.25-3.99c0.15-1.01,0.29-2.01,0.43-3.02c1.32-0.36,1.47-1.31,1.25-2.45
		c0.08-0.86,0.16-1.72,0.24-2.58c0.65-0.07,1.39-0.13,1.51-0.91c0.12-0.82-0.6-1.01-1.23-1.19c-1.99-0.03-3.99-0.05-5.98-0.1
		c-12.78-0.35-25.58,0.49-38.35-0.55c-6.22-2.45-12.55-1.33-18.87-0.62c-5.41,0.73-10.75-0.46-16.12-0.58
		c-5.64-1.84-11.31-1.49-16.98-0.17c-13.93,0.05-27.85,0.16-41.78,0.13c-15.41-0.04-30.83-0.23-46.24-0.35
		c-0.4-1.78-1.81-1.68-3.14-1.66c-6.14,0.06-12.28,0.14-18.42,0.21c-4.1,0.85-8.39-0.78-12.43,0.9c-1-0.08-2-0.15-3-0.23
		c-3.68-0.99-7.38-0.71-11.08-0.18c-5.33-0.76-10.63-0.05-15.94,0.25c-7.01-0.07-14.02-0.13-21.03-0.2
		c-0.63-0.82-1.27-0.82-1.92-0.02c-2.7,0.97-5.98-1.58-8.34,1.39c-1.09,1.15-0.32,1.59,0.74,1.92c0.15,1.67,0.31,3.34,0.46,5.01
		c-1.43,1.62-1.04,2.6,1.06,2.96c0.1,2.47,0.21,4.93,0.31,7.4c-0.3,1.25-0.17,2.28,1.33,2.62c0.12,1.67,0.24,3.33,0.36,5
		c-1.87,2.51-0.71,4.35,1.32,6c0.74,2.64,0.66,5.33,0.61,8.03c-1.43,1.55-1.05,2.51,0.95,2.96c1.36,9.86,2.67,19.72,4.1,29.57
		c1.28,8.84,2.69,17.66,4.05,26.49C277.14,309.41,277,310.61,278.19,311.34z M346.13,446.13c-2.29-1.98-5.13-0.98-7.69-1.32
		c-7.57-0.98-15.14-1.92-22.62-3.45c-3.01-0.62-4.96-0.03-3.93,3.85c0.89,3.35,1.99,6.81,1.96,10.21
		c-0.09,11.88,6.18,16.62,17.38,17.52c9.37,0.75,18.52,3.59,28.01,3.68c1.3,0.19,2.6,0.39,3.9,0.58c2.13,1.88,4.61,0.99,7,0.92
		c4.32,0.4,8.64,0.79,12.96,1.19c3.31,1.45,6.71,0.73,10.1,0.42c2.95,0.04,5.9,0.09,8.85,0.13c4.15,0.13,8.3,0.35,12.46,0.38
		c18.97,0.15,37.91,0.01,56.64-3.62c8.45-1.64,8.41-1.6,10.26-9.96c0.54-2.42,1.45-4.76,2.05-7.18c1.04-4.18,2.41-8.29,2.49-12.66
		c0.05-2.68-0.64-3.87-3.84-3.28c-13.74,2.54-27.64,3.96-41.59,4.28c-20.14,0.47-40.29,0.46-60.44,0.66
		c-6.65-0.45-13.3-0.9-19.95-1.35c-1.92-1.29-4.01-0.73-6.06-0.56C351.43,446.43,348.78,446.28,346.13,446.13z"/>
	<path class="st1" d="M516.32,388.78c-0.53-7.39,2.54-14.21,3.38-21.42c1.93-16.46,6.21-32.53,8.76-48.93
		c1.33-8.56,2.43-17.31,5.24-25.73c1.35-4.06,1.76-8.78,2.11-13.13c0.73-8.92,2.86-17.61,4.72-26.18
		c2.24-10.33,2.62-20.9,5.26-31.14c1.15-4.44,1.04-9.29-1.89-13.46c-1.24-1.76-2.22-2.16-4.81-1.5c-6.17,1.57-12.65,1.77-18.95-0.14
		c2.43-2.16,6.05,0.4,9.57-2.7c-5.68,0.42-9.49-2.81-14.17-2.28c-1.46,0.17-3.05,0.13-3.55-1.8c1.4-1.38,0.7-1.94-0.84-2.12
		c-3.66-0.43-7.47,0.82-11.03-1.4c-0.82-0.51-0.83,1.38-0.95,2.28c-0.68-0.02-1.37-0.04-2.05-0.06c0.12-1.73-0.4-2.97-2.42-2.83
		c-3.35,0.23-6.43-0.54-9.58-1.7c-1.71-0.63-4.41-1.34-5.15,1.89c-1.55,0-3.1,0-4.65,0c-2.57-3.02-8.17-3.21-11.13-0.37
		c-14.15,1.67-28.05-2.25-42.16-1.91c-11.49,0.27-23.04,0.66-34.47-0.21c-9.49-0.73-19.03-1.5-28.37-0.48
		c-18.35,2.01-36.89-1.35-55.11,2.47c-1.48-3.62-4.25-3.87-7-0.63c-2.24,0.01-4.48,0.01-6.72,0.01c-3.87-1.82-7.44-2.02-10.21,1.93
		c-1.47,1.2-3.19,1.66-5.05,1.74c0.19-3.16-2.19-3.51-3.82-2.38c-2.76,1.93-5.53,1.6-8.44,1.45c14.23-5.4,29.24-6.87,44.19-7.61
		c27.4-1.34,54.85-1.53,82.29-1.34c26.75,0.19,53.49,0.78,80.14,3.22c15.17,1.39,30.28,3.4,45.42,5.17c0.42,0.05,0.8,0.5,1.2,0.77
		c-0.11,0.09-0.31,0.28-0.34,0.26c-0.53-0.4-0.49,0.21,0.14,0.42c1.37,0.46,2.76,0.5,4.14-0.02c2.98-0.92,5.39,1.15,8.13,1.53
		c0.61,0.77,1.28,0.81,1.99,0.13c2.38,0.63,4.86,1.02,7.12,1.94c9.23,3.75,11.97,9.95,9.9,21.5c-4.86,27.11-9.58,54.24-14.51,81.34
		c-4.74,26.11-9.65,52.19-14.54,78.27C517.75,385.42,516.92,387.08,516.32,388.78z"/>
	<path class="st1" d="M316.75,478.35c4.48-1.23,8.44,1.17,12.62,1.91c9.87,1.75,19.67,3.92,29.55,5.59
		c6.2,1.05,12.57,0.67,18.85,1.07c9.42,0.61,18.85,1.93,28.35,1.3c6.66-0.45,13.19,1.48,19.87,0.96c13.7-1.08,27.66-0.79,41.01-3.53
		c7.84-1.61,16.2-2.84,23.82-6.6c3.12-1.54,6.22-3.24,9.33-4.85c0.25,2.59-1.36,3.96-3.43,4.78c-18.45,7.3-37.83,10-57.46,10.66
		c-25.44,0.86-50.87,0.42-76.23-2.64c-14.18-1.71-28.25-3.91-42.19-6.98C319.39,479.71,317.9,479.44,316.75,478.35z"/>
	<path class="st1" d="M262.06,203.23c-4.14,0.87-4.74,4.21-4.83,7.51c-0.13,4.45-0.8,9.04,0.9,13.31
		c1.94,4.86,0.84,10.01,1.38,14.96c0.76,6.98,1.76,14,2.91,20.87c1.35,8.09,1.8,16.26,3.07,24.35c1.13,7.14,2.73,14.26,2.73,21.58
		c0,4.53,3.01,8.68,1.96,13.44c-0.28,1.26,0.26,2.67-0.6,3.85c-2.53-12.22-3.56-24.66-5.19-37c-1.95-14.83-4-29.65-5.8-44.5
		c-1.26-10.39-2.9-20.77-2.55-31.28c0.13-4.06,0.9-8.07,4.1-11.08c-0.01,1.44-0.06,2.9,1.98,2.98
		C262.1,202.55,262.08,202.89,262.06,203.23z"/>
	<path class="st1" d="M269.69,325.18c1.7,0.57,2.35,2.14,2.3,3.54c-0.38,10.02,2.57,19.65,3.32,29.56
		c0.84,11.05,2.23,22.1,4.49,33.03c1.02,4.94,1.18,10.15,1.86,15.24c1.03,7.65,3.65,15.17,2.33,23.06
		c-2.44-5.94-2.36-12.36-3.28-18.55c-2.74-18.55-4.98-37.18-7.36-55.78C272.07,345.25,270.91,335.21,269.69,325.18z"/>
	<path class="st1" d="M500.28,472.61c-1.34-6.56,1.43-12.6,2.63-18.78c3.23-16.6,6.86-33.12,9.37-49.86c0.6-4,2.21-7.85,1.97-12.03
		c-0.07-1.21,0.98-1.59,2.03-1.77c-0.8,9.77-3.35,19.24-5.04,28.85c-2.88,16.35-6.19,32.63-9.34,48.93
		C501.58,469.58,501.4,471.26,500.28,472.61z"/>
	<path class="st1" d="M284.18,433.22c1.14,0.85,1.99,2.19,1.82,3.4c-0.93,6.58,2.37,12.59,2.27,19.12
		c-0.1,6.99,4.57,11.21,10.26,14.55c5.31,3.12,11.68,3.96,16.58,7.88c-7.52-1.38-14.32-4.46-20.72-8.57
		c-3.55-2.28-6.03-5.5-6.69-9.45C286.23,451.22,285.32,442.2,284.18,433.22z"/>
	<path class="st0" d="M262.12,202.21c-2.03-0.08-1.99-1.54-1.98-2.98c0,0,0.01-0.01,0.01-0.01c0.3-0.17,0.6-0.34,0.89-0.51
		c0.59-0.21,1.19-0.43,1.78-0.64c2.91,0.15,5.68,0.48,8.44-1.45c1.63-1.14,4.01-0.79,3.82,2.38c-3.58,0.46-7.17,0.91-10.75,1.36
		c-1.39-0.17-2.12,0.45-2.21,1.84L262.12,202.21z"/>
	<path class="st2" d="M520.01,198.94c-1.38,0.51-2.77,0.48-4.14,0.02c-0.63-0.21-0.67-0.83-0.14-0.42c0.03,0.02,0.22-0.17,0.34-0.26
		C517.37,198.5,518.69,198.72,520.01,198.94z"/>
	<path class="st2" d="M530.12,200.6c-0.71,0.68-1.37,0.64-1.99-0.13C528.8,200.52,529.46,200.56,530.12,200.6z"/>
	<path class="st1" d="M261.05,198.7c-0.3,0.17-0.6,0.34-0.89,0.51C260.45,199.04,260.75,198.87,261.05,198.7z"/>
	<path class="st3" d="M497.14,211.46c12.77,1.04,25.57,0.2,38.35,0.55c1.99,0.05,3.99,0.07,5.98,0.1c-0.09,0.7-0.19,1.4-0.28,2.09
		c-0.08,0.86-0.16,1.72-0.24,2.58c-0.84,0.6-1.67,1.2-1.25,2.45c-0.15,1.01-0.29,2.01-0.44,3.02c-0.9,1.18-2.15,2.25-1.25,3.99
		c-0.2,1.36-0.39,2.71-0.59,4.07c-0.86,0.4-1.07,1.06-0.76,1.92c-4.08,20.51-8.14,41.01-12.25,61.51c-0.48,2.4-0.55,4.97-2.33,6.95
		c-7.15-4.39-15.24-4.99-23.25-5.42c-11.6-0.63-23.28-0.17-34.83-1.24c-26-2.41-52.09-2.24-78.13-3.66
		c-16.89-0.92-33.85-0.48-50.68,1.87c-0.81-8.02-2.97-15.82-3.62-23.9c-0.71-8.84-2.08-17.64-3.49-26.4
		c-1.75-10.86-1.65-22-4.93-32.62c4.04-1.67,8.33-0.04,12.43-0.9c0.71,1.07,1.77,1.36,2.97,1.38c6.2,0.07,12.39,0.72,18.59,0.08
		c15.41,0.12,30.83,0.31,46.24,0.35c13.93,0.04,27.85-0.08,41.78-0.13c5.65,1.22,11.31,1.06,16.98,0.17
		c5.38,0.12,10.71,1.31,16.12,0.58C484.51,212.58,490.83,211.94,497.14,211.46z"/>
	<path class="st4" d="M520.15,313.15c0.05,7.07-1.78,13.77-3.76,20.49c-0.95,3.23-1.14,6.77-1.63,10.01
		c-0.74,4.82-2.52,9.44-2.71,14.39c-0.22,5.81-1.8,11.44-3.47,17.03c-1.31,4.37-1.15,9.08-1.85,13.56
		c-0.87,5.58-2.9,11.05-2.74,16.89c0.11,4.03-1.69,7.96-2.6,11.91c-0.5,2.18-1.17,4.34-1.27,6.62c-0.19,4.56-3.62,7.47-8.08,8.21
		c-6.7,1.12-13.63,1.13-20.08,3.65c-0.45,0.18-1,0.25-1.47,0.19c-10.96-1.3-21.67,1.52-32.46,2.38
		c-16.84,1.34-33.65,1.33-50.49,1.81c-4.8,0.14-8.8-2.82-13.48-2.15c-1.35-2.93-2.69-5.87-4.04-8.8c0.44-0.87,1.21-1.13,2.12-1.15
		c0.12,0.65,0.25,1.4,1.09,1.34c8.33-0.65,16.64-0.67,24.91,0.66c0.15,1.81,1.47,1.79,2.85,2.05c10.58,1.99,21.25,0.68,31.87,0.89
		c15.15,0.29,29.67-2.41,43.02-10.07c2.34-1.34,5.58-1.43,6.26-4.87l0.01-0.01c2.52,0.98,4.49-0.05,6.24-1.76
		c1.43-1.39,2.6-3.31,4.3-4.13c9.72-4.66,9.8-14.09,11.39-22.68c1.21-6.5-0.98-12.69-2.96-18.74c-2.5-7.64-6.61-14.16-15.12-16.25
		c-9.26-2.27-18.57-4.31-27.86-6.45c-1.77-0.35-3.53-0.78-5.32-1.04c-15.58-2.32-31.14-4.83-46.77-6.81
		c-6.32-0.8-12.74-0.05-18.92,1.85c-6.49-0.45-12.61,1.9-18.95,2.63c-7.94,0.91-15.49,4.28-23.63,4.35
		c-0.51-3.31-1.02-6.63-1.53-9.94c-0.11-0.33-0.22-0.66-0.33-0.99c-0.15-2.03-0.31-4.05-0.46-6.08c7.47,0.05,14.94,0.68,22.38,0.82
		c14.78,0.27,29.57,0.23,44.39-0.48c19.23-0.92,38.51-1.25,57.76-2.18C486.2,329.39,504.53,325.66,520.15,313.15z M484.99,422.9
		c0.97,0.08,1.43-0.38,1.54-1.01c0.04-0.25-0.42-0.79-0.72-0.86c-0.66-0.15-1.27,0.19-1.33,0.9
		C484.45,422.27,484.85,422.65,484.99,422.9z"/>
	<path class="st5" d="M323.15,209.32c3.28,10.62,3.19,21.76,4.93,32.62c1.41,8.76,2.77,17.56,3.49,26.4
		c0.65,8.08,2.81,15.88,3.62,23.9c0,0,0.01,0.03,0.01,0.03c-2.61,0.3-5.24,0.49-7.82,0.93c-8.58,1.44-17.25,2.5-25.57,5.24
		c-0.28,0.02-0.5-0.08-0.68-0.31c-1.2-11.34-3.72-22.47-5.46-33.72c-2.59-16.79-3.97-33.52-3.59-50.46c0.04-1.7,0.19-3.31,1.04-4.8
		c5.31-0.3,10.62-1.01,15.94-0.25c3.66,2.22,7.36,1.87,11.09,0.18C321.15,209.17,322.15,209.24,323.15,209.32z"/>
	<path class="st6" d="M380.08,448.49c20.15-0.2,40.3-0.19,60.44-0.66c13.95-0.33,27.85-1.74,41.59-4.28c3.2-0.59,3.89,0.6,3.84,3.28
		c-0.08,4.37-1.44,8.49-2.49,12.66c-0.6,2.41-1.52,4.75-2.05,7.18c-1.85,8.36-1.82,8.32-10.26,9.96
		c-18.73,3.63-37.68,3.78-56.64,3.62c-4.15-0.03-8.3-0.25-12.46-0.38c-0.54-2.34-2.11-4.05-3.56-5.82
		C391.83,465.9,385.92,457.22,380.08,448.49z"/>
	<path class="st2" d="M264.34,200.35c3.58-0.45,7.17-0.91,10.75-1.36c1.86-0.08,3.58-0.54,5.05-1.74c2.66-0.06,5.31-0.11,7.97-0.17
		c1.28,0.12,1.97-0.48,2.11-1.75l0.14-0.01c2.24-0.01,4.48-0.01,6.72-0.02c2.32,0.39,4.59,1.26,7,0.64
		c18.22-3.82,36.76-0.46,55.11-2.47c9.33-1.02,18.88-0.25,28.37,0.48c11.43,0.87,22.98,0.48,34.47,0.21
		c14.11-0.34,28,3.59,42.16,1.92c3.7,0.52,7.35,2.37,11.13,0.36c1.55,0,3.1,0,4.65,0c5.6,1.65,11.36,2.18,17.14,2.64
		c0.68,0.02,1.37,0.04,2.05,0.06c4.18,1.41,8.52,1.12,12.83,1.25c0.5,1.94,2.09,1.97,3.55,1.8c4.68-0.53,8.49,2.7,14.17,2.28
		c-3.52,3.09-7.14,0.54-9.57,2.7c-32.32-0.02-64.65-0.04-96.97-0.06c-2.69-1.33-5.37-1.33-8.06,0c-1.65,0-3.3,0-4.94,0
		c-1.68-1.28-3.37-1.3-5.07-0.04c-1.59,0-3.19,0-4.78,0.01c-2.9-3.7-6.81-1.12-10.21-1.64c-40.99-0.07-81.99-0.13-122.98-0.2
		c-1.07-1.38-2.61-0.85-3.99-0.99c-0.35-0.34-0.71-0.68-1.06-1.01c0.02-0.34,0.04-0.68,0.05-1.02c0,0,0.01-0.01,0.01-0.01
		C263.4,202.22,264.08,201.54,264.34,200.35z"/>
	<path class="st3" d="M293.12,209.15c-0.86,1.49-1,3.1-1.04,4.8c-0.38,16.94,1,33.67,3.59,50.46c1.73,11.25,4.26,22.39,5.46,33.72
		c-9.21,0.53-16.95,4.52-24.01,10.14c-1.35-8.83-2.77-17.65-4.05-26.49c-1.43-9.85-2.74-19.71-4.1-29.57
		c0.2-1.15,0.21-2.24-0.95-2.96c0.05-2.7,0.13-5.39-0.61-8.03c0.32-2.17-0.27-4.13-1.32-6c-0.12-1.67-0.24-3.33-0.36-5
		c0.31-1.25-0.28-2.05-1.33-2.62c-0.1-2.47-0.21-4.93-0.31-7.4c0.15-1.17,0.01-2.23-1.06-2.96c-0.15-1.67-0.31-3.34-0.46-5.01
		c0.31-0.85,0.16-1.53-0.74-1.92c2.37-2.96,5.65-0.42,8.34-1.39c0.64,0.01,1.28,0.01,1.92,0.02
		C279.1,209.02,286.11,209.09,293.12,209.15z"/>
	<path class="st4" d="M344.35,436.07c-10.17,0.32-20.03-1.7-29.93-3.66c-5.56-1.1-11.2-1.83-16.34-4.27
		c-3.32-1.57-5.46-3.91-6.13-8.16c-1.86-11.79-2.8-23.66-4.21-35.47c-0.96-7.95-1.97-16.05-3.68-23.95
		c-2.24-10.36-3.8-20.77-3.99-31.39c-0.06-3.04-2.83-5.62-1.87-8.95c7.87,2.85,15.86,5.27,24.16,6.56c1.81,0.28,3.55,0.92,5.05-0.69
		c2.54,11.56,5.38,23.05,6.89,34.82c-0.05,1.77-0.11,3.54-0.16,5.31c-4.32,2.33-7.48,6.02-10.91,9.39
		c-8.07,7.94-11.97,17.07-7.03,28.1c3.45,7.68,8.17,14.52,16.13,18.38c0.24,0.08,0.48,0.15,0.73,0.2c0.36,0.97,1.28,0.87,2.05,1.06
		c7.56,4.96,16.4,4.56,24.82,5.89C341.41,431.51,342.88,433.79,344.35,436.07z M298.86,367.25c0.08-0.9-0.61-1.1-1.23-1.09
		c-0.42,0.01-1.08,0.32-1.19,0.65c-0.23,0.66,0.1,1.24,0.93,1.29C298.05,368.15,298.66,368.07,298.86,367.25z"/>
	<path class="st7" d="M520.15,313.15c-15.62,12.51-33.95,16.24-53.39,17.18c-19.25,0.93-38.53,1.26-57.76,2.18
		c-14.82,0.71-29.61,0.75-44.39,0.48c-7.44-0.14-14.91-0.77-22.38-0.82c-0.9-1.2-1.21-2.54-1-4.01c7.8-0.17,15.58,0.71,23.35,0.88
		c24.73,0.54,49.43-0.82,74.13-1.75c15.07-0.57,30.15-0.56,45.06-3.12c11.94-2.05,22.98-6.26,32.44-14.03
		c2.34-1.92,4.25-5.9,1.38-6.92c-4.48-1.59-8.13-5.38-13.42-5.06c-5.3,0.32-10.64,0.03-15.96,0.01c-0.49-0.73-1.19-0.92-2.02-0.79
		c-2.02-0.01-4.04-0.02-6.06-0.04c-8.92-0.59-17.88-0.51-26.81-0.84c-23.82-0.89-47.64-1.83-71.44-3.22
		c-11.28-0.66-22.52,0.73-33.78,1.05c-4.02,0.34-8.04,0.68-12.06,1.02c-0.29-1.03-0.57-2.06-0.86-3.09c0,0-0.01-0.03-0.01-0.03
		c16.83-2.35,33.8-2.79,50.69-1.87c26.03,1.41,52.13,1.24,78.13,3.66c11.55,1.07,23.23,0.61,34.83,1.24
		c8.01,0.44,16.11,1.03,23.25,5.42C522.14,304.96,522.83,309.32,520.15,313.15z"/>
	<path class="st5" d="M380.08,448.49c5.84,8.73,11.75,17.41,18.41,25.54c1.45,1.77,3.02,3.49,3.56,5.82
		c-2.95-0.04-5.9-0.09-8.85-0.13c-3.26-2.68-6.66-1.94-10.1-0.42c-4.32-0.4-8.64-0.79-12.96-1.19c-1.96-3.17-4.45-2.22-7-0.92
		c-1.3-0.19-2.6-0.39-3.9-0.58c-2.09-3.71-4.23-7.35-6.66-10.89c-3.24-4.73-5.61-10.06-8.51-15.04c-1.58-2.71-0.33-3.82,2.06-4.57
		c2.65,0.15,5.29,0.3,7.94,0.46c1.79,2.72,3.9,1.93,6.06,0.56C366.78,447.59,373.43,448.04,380.08,448.49z"/>
	<path class="st6" d="M346.13,446.13c-2.39,0.75-3.64,1.86-2.06,4.57c2.9,4.98,5.26,10.31,8.51,15.04
		c2.42,3.53,4.56,7.18,6.66,10.89c-9.49-0.08-18.64-2.92-28.01-3.68c-11.2-0.9-17.46-5.64-17.38-17.52
		c0.02-3.4-1.07-6.86-1.96-10.21c-1.03-3.88,0.92-4.47,3.93-3.85c7.49,1.53,15.05,2.47,22.62,3.45
		C341.01,445.14,343.84,444.15,346.13,446.13z"/>
	<path class="st4" d="M278.13,315.23c0.02-1.3,0.04-2.59,0.05-3.89c7.33-4.5,14.22-10.17,23.68-9.2c2.37,6.85,3.66,13.95,4.87,21.07
		C296.8,321.99,286.88,320.71,278.13,315.23z"/>
	<path class="st8" d="M344.35,436.07c-1.47-2.28-2.94-4.56-4.41-6.84c-0.81-1.68-1.63-3.36-2.45-5.04c2.94-0.03,5.97-0.15,5.07,4.32
		c-0.22,1.09,0.39,1.53,1.32,1.59c0.82,0.06,1.92,0,1.84-1.08c-0.43-6.5,2.41-3,4.7-1.62c3.63,2.18,14.02,0.75,16.85-2.25
		c0.26,0.03,0.52,0.07,0.78,0.12c0.29,1.54,0.85,2.94,1.96,4.09c1.35,2.93,2.69,5.87,4.04,8.8
		C364.12,437.9,354.1,438.87,344.35,436.07z"/>
	<path class="st7" d="M278.13,315.23c8.74,5.48,18.66,6.76,28.6,7.98c0.22,0.96,0.45,1.91,0.67,2.87c-1.5,1.61-3.24,0.97-5.05,0.69
		c-8.3-1.29-16.29-3.71-24.16-6.56C278.17,318.56,278.15,316.89,278.13,315.23z"/>
	<path class="st7" d="M301.86,302.14c-9.46-0.97-16.34,4.7-23.68,9.2c-1.18-0.73-1.04-1.93-1.08-3.06
		c7.06-5.62,14.8-9.61,24.01-10.14c0.17,0.22,0.4,0.32,0.68,0.3C301.82,299.67,301.84,300.91,301.86,302.14z"/>
	<path class="st1" d="M357.14,209.88c-6.2,0.64-12.39-0.01-18.59-0.08c-1.2-0.01-2.26-0.31-2.97-1.38
		c6.14-0.07,12.28-0.14,18.42-0.21C355.34,208.2,356.74,208.1,357.14,209.88z"/>
	<path class="st1" d="M497.14,211.46c-6.31,0.48-12.63,1.12-18.87-0.62C484.59,210.14,490.93,209.01,497.14,211.46z"/>
	<path class="st1" d="M462.15,210.27c-5.67,0.89-11.33,1.05-16.98-0.17C450.84,208.78,456.51,208.43,462.15,210.27z"/>
	<path class="st3" d="M320.15,209.09c-3.72,1.68-7.43,2.03-11.09-0.18C312.77,208.38,316.47,208.1,320.15,209.09z"/>
	<path class="st6" d="M383.1,479.31c3.43-1.52,6.84-2.27,10.1,0.42C389.81,480.04,386.41,480.76,383.1,479.31z"/>
	<path class="st1" d="M390.1,205.43c3.41,0.53,7.32-2.06,10.21,1.64C396.92,206.42,393,209.08,390.1,205.43z"/>
	<path class="st1" d="M415.1,207.1c2.69-1.33,5.37-1.33,8.06,0C420.47,208.77,417.79,208.76,415.1,207.1z"/>
	<path class="st6" d="M363.14,477.2c2.54-1.3,5.04-2.25,7,0.92C367.76,478.19,365.27,479.08,363.14,477.2z"/>
	<path class="st1" d="M266.08,235.23c1.06,1.86,1.64,3.83,1.32,6C265.38,239.58,264.21,237.74,266.08,235.23z"/>
	<path class="st6" d="M360.13,447.14c-2.16,1.37-4.27,2.16-6.06-0.56C356.13,446.41,358.21,445.85,360.13,447.14z"/>
	<path class="st1" d="M405.09,207.07c1.7-1.26,3.39-1.24,5.07,0.04C408.46,208.7,406.77,208.72,405.09,207.07z"/>
	<path class="st1" d="M263.12,204.24c1.38,0.14,2.92-0.39,3.99,0.99C265.37,206.58,263.86,206.96,263.12,204.24z"/>
	<path class="st1" d="M538.01,226.24c-0.89-1.74,0.35-2.81,1.25-3.99C540.7,224.17,539.16,225.14,538.01,226.24z"/>
	<path class="st1" d="M268.01,249.25c1.16,0.72,1.15,1.81,0.95,2.96C266.96,251.77,266.58,250.8,268.01,249.25z"/>
	<path class="st1" d="M263.03,217.25c1.07,0.73,1.21,1.79,1.06,2.96C261.99,219.85,261.6,218.87,263.03,217.25z"/>
	<path class="st1" d="M536.66,232.24c-0.32-0.86-0.1-1.52,0.76-1.92C538.51,231.49,537.77,231.93,536.66,232.24z"/>
	<path class="st1" d="M541.19,214.21c0.09-0.7,0.19-1.4,0.28-2.09c0.63,0.18,1.36,0.36,1.23,1.19
		C542.58,214.08,541.84,214.14,541.19,214.21z"/>
	<path class="st1" d="M539.7,219.24c-0.42-1.24,0.41-1.85,1.25-2.45C541.17,217.93,541.02,218.88,539.7,219.24z"/>
	<path class="st1" d="M264.4,227.61c1.04,0.57,1.63,1.37,1.33,2.62C264.23,229.89,264.1,228.86,264.4,227.61z"/>
	<path class="st1" d="M261.83,210.32c0.9,0.39,1.05,1.07,0.74,1.92C261.51,211.91,260.74,211.47,261.83,210.32z"/>
	<path class="st1" d="M272.09,208.95c-0.64-0.01-1.28-0.01-1.92-0.02C270.82,208.14,271.46,208.14,272.09,208.95z"/>
	<path class="st0" d="M497.09,199.07c-5.78-0.46-11.54-0.99-17.14-2.64c0.74-3.23,3.43-2.52,5.14-1.89c3.15,1.16,6.23,1.93,9.58,1.7
		C496.69,196.1,497.21,197.34,497.09,199.07z"/>
	<path class="st0" d="M475.31,196.43c-3.78,2-7.43,0.15-11.13-0.36C467.14,193.22,472.73,193.41,475.31,196.43z"/>
	<path class="st0" d="M511.97,200.38c-4.3-0.12-8.65,0.16-12.83-1.25c0.12-0.9,0.13-2.79,0.95-2.28c3.56,2.22,7.37,0.97,11.03,1.4
		C512.67,198.44,513.37,199,511.97,200.38z"/>
	<path class="st0" d="M288.1,197.08c-2.66,0.06-5.31,0.11-7.97,0.17c2.78-3.96,6.34-3.75,10.21-1.93c0,0-0.14,0.01-0.14,0.01
		C288.91,195.19,288.22,195.79,288.1,197.08z"/>
	<path class="st0" d="M304.07,195.93c-2.41,0.62-4.68-0.24-7-0.64C299.82,192.06,302.59,192.31,304.07,195.93z"/>
	<path class="st1" d="M264.34,200.35c-0.26,1.19-0.94,1.87-2.21,1.84C262.21,200.8,262.95,200.18,264.34,200.35z"/>
	<path class="st9" d="M370.01,429.37c-1.11-1.15-1.67-2.55-1.96-4.09c0,0,0.17-0.14,0.17-0.14c0.82-0.08,1.64-0.21,1.73-1.24
		c0.12-1.3-0.82-1.55-1.82-1.68c-0.38,0.04-0.76,0.07-1.14,0.11l0.04-0.02c0.14-2.29,1.73-3.09,3.66-3.38
		c6.21-0.94,12.42-2.02,18.67-2.62c3.05-0.29,6.45,1.21,9.25,0.4c6.38-1.84,12.94-2.69,19.4-3.69c4.53-0.7,8.97-4.82,14.07-1.14
		c1.42,1.02,3.11-1.16,3.35-2.2c0.82-3.65,2.64-2.57,4.68-1.44c0.22,2.78,3.38,1.55,4.48,3.3c0.53,0.84,1.94,0.97,2.68,0.19
		c1.22-1.29-0.3-2.01-0.97-2.81c-0.75-0.9-1.69-1.61-2.92-1.77c0.04-0.22,0.03-0.43-0.02-0.65c3.07-0.17,2.9-3.26,4.37-4.86
		c-1.99-1.36-2.26-4.65-4.64-5.17c-6.24-1.35-11.41-5.16-17.41-7.04c-10.03-3.14-19.67-6.98-25.84-16.3
		c-0.47-0.71-1.05-0.23-1.69-0.01c-5.04,1.72-8.75-0.74-12.09-4.08c-0.6-0.6-1.99-1.25-0.95-2.36c0.74-0.79,1.88-0.46,2.71,0.23
		c1.73,1.44,5.01,2.58,5.59,1.38c1.21-2.49-1.88-3.6-3.7-4.81c-0.9-0.6-1.26-1.45-1.83-2.25c-1.11-1.54-2.46-1.42-3.67,0.04
		l0.01-0.01c-1.28-0.1-2.08,0.77-3.08,1.35c-5.03,2.94-10.43,4.67-16.32,4.56c-1.34-0.02-3.01-0.04-3.13-1.69
		c-0.13-1.76,1.65-1.07,2.64-1.35c0.62-0.18,1.33-0.28,1.15-1.32c-1.46-1.02-3.18-0.98-4.57-0.16c-1.45,0.86-2.81,2.44-4.1,0.32
		c-1.21-1.99,0.9-3.1,2.1-3.88c3.31-2.17,6.85-4.01,10.3-5.97c1.06-0.6,2.07-1.36,1.68-2.7c-0.48-1.64-1.72-0.96-2.86-0.73
		c-5.48,1.11-11.02,1.99-16.45,3.28c-3.08,0.73-5.48,0.81-6.61-2.72c-0.26-0.05-0.51-0.1-0.77-0.14l0.01,0
		c0.12-0.32,0.24-0.64,0.36-0.97c8.14-0.07,15.69-3.44,23.63-4.35c6.35-0.73,12.46-3.09,18.95-2.63c1.21,2.59,3.58,1.99,5.67,1.99
		c8.96-0.03,17.86,0.91,26.65,2.45c2.39,0.42,6.14-0.85,7.18,2.17c1.09,3.17-2.96,3.83-4.52,5.76c-1.89,2.35-2.2,3.38,0.21,6.03
		c3.02,3.32,6.62,5.84,9.7,8.98c11.08,11.31,24.08,20.34,36.27,30.33c3.93,3.22,3.7,5.68-0.83,8.15
		c-11.11,6.07-23.53,7.93-35.54,11.12c-12.43,3.3-25.77-0.21-37.93,5.08c-0.6,0.01-1.21,0.02-1.81,0.04
		c-0.14-1.34-1.1-2.61-2.18-1.93c-3.65,2.28-7.41,0.34-11.02,0.42c-4.22,0.1-6.55,1.04-6.85,5.4
		C371.22,428.23,370.45,428.49,370.01,429.37z"/>
	<path class="st10" d="M372.13,428.21c0.3-4.36,2.63-5.31,6.85-5.4c3.62-0.08,7.37,1.86,11.02-0.42c1.08-0.68,2.04,0.59,2.18,1.93
		c0.04,0.82,0.01,1.84,1.21,1.62c0.75-0.14,0.66-1,0.61-1.65c12.16-5.29,25.49-1.78,37.93-5.08c12.01-3.19,24.42-5.05,35.54-11.12
		c4.53-2.48,4.75-4.94,0.83-8.15c-12.19-9.99-25.19-19.02-36.27-30.33c-3.08-3.14-6.68-5.66-9.7-8.98c-2.41-2.65-2.1-3.68-0.21-6.03
		c1.56-1.93,5.61-2.59,4.52-5.76c-1.04-3.02-4.78-1.75-7.18-2.17c-8.79-1.54-17.69-2.49-26.65-2.45c-2.09,0.01-4.46,0.6-5.67-1.99
		c6.18-1.91,12.6-2.66,18.92-1.85c15.63,1.99,31.19,4.49,46.77,6.81c1.78,0.27,3.55,0.69,5.32,1.04c-0.16,1.09-0.48,1.94-1.9,1.54
		c-2.92-0.83-5.48,0.66-8.14,1.38c-2.47,0.66-2.49,2.38-0.68,3.51c3.07,1.92,5.74,4.38,9.12,5.94c4.7,2.17,9.07,5.07,13.58,7.65
		c-0.95,0.63-2.74-1.27-3.13,1.04c-0.3,1.17-0.19,2.21,0.99,2.86c2.83-0.15,1.91-2.34,2.12-3.91c4.13-1.47,5.86,2.07,8.29,4.03
		c5.38,4.35,9.82,9.04,9.89,16.82c0.05,5.83-2.88,10.35-4.53,15.48c-2.83,8.82-10.21,13.17-16.98,16.85
		c-10.13,5.51-22.05,6.07-33.55,6.75c-9.19,0.55-18.43,0.46-27.59,1.22c-2.45,0.2-5.18-0.86-7.5,0.82
		c-8.27-1.33-16.58-1.32-24.91-0.66C372.38,429.62,372.25,428.86,372.13,428.21z"/>
	<path class="st8" d="M344.55,349.19c-0.12,0.32-0.24,0.64-0.36,0.97c-7.56,1.77-14.73,4.36-21.28,8.72
		c-3.41,2.27-5.19,4.9-4.81,9.02c0.17,1.81-0.02,3.65-0.04,5.48c-2.46-3.8-1.75-8.55-3.76-12.48c-1.51-11.76-4.35-23.26-6.9-34.81
		c-0.22-0.96-0.45-1.91-0.67-2.87c-1.21-7.12-2.5-14.22-4.87-21.08c-0.02-1.23-0.04-2.47-0.07-3.7c8.32-2.74,16.99-3.79,25.57-5.24
		c2.59-0.43,5.21-0.63,7.82-0.93c0.29,1.03,0.57,2.06,0.86,3.09c0.43,3.22,0.85,6.44,1.28,9.66c-0.42,0.38-0.84,0.75-1.26,1.13
		c-7.73,1.04-15.15,3.14-22.92,5.95c2.12,1.61,3.82,1.04,5.41,1.13c7,0.39,13.78-1.64,20.73-1.89c-0.78,5.77,1.15,11.22,1.93,16.81
		c-0.21,1.47,0.11,2.81,1,4.01c0.15,2.03,0.31,4.05,0.46,6.08c0.11,0.33,0.22,0.66,0.33,1
		C343.53,342.56,344.04,345.87,344.55,349.19z"/>
	<path class="st11" d="M470.11,368.24c-4.51-2.59-8.88-5.48-13.58-7.65c-3.38-1.56-6.05-4.02-9.12-5.94
		c-1.81-1.14-1.79-2.85,0.68-3.51c2.66-0.72,5.22-2.21,8.14-1.38c1.42,0.41,1.73-0.45,1.9-1.54c9.29,2.14,18.6,4.18,27.86,6.45
		c8.51,2.09,12.62,8.61,15.12,16.25c1.98,6.04,4.17,12.24,2.96,18.74c-1.6,8.59-1.67,18.02-11.39,22.68
		c-1.7,0.82-2.87,2.73-4.3,4.13c-1.76,1.71-3.72,2.74-6.24,1.76c-0.26-1.14,0.59-2.59-0.89-3.35c-0.15-0.08-0.82,0.41-0.91,0.73
		c-0.4,1.5,0.16,2.45,1.79,2.62c-0.68,3.44-3.92,3.53-6.26,4.87c-13.35,7.66-27.87,10.36-43.02,10.07
		c-10.62-0.2-21.29,1.1-31.87-0.89c-1.38-0.26-2.7-0.25-2.85-2.05c2.31-1.68,5.04-0.62,7.5-0.82c9.17-0.76,18.4-0.67,27.59-1.22
		c11.5-0.69,23.42-1.24,33.55-6.75c6.77-3.68,14.14-8.03,16.98-16.85c1.65-5.13,4.58-9.65,4.53-15.48
		c-0.06-7.78-4.5-12.47-9.89-16.82C475.96,370.29,474.23,366.75,470.11,368.24L470.11,368.24z"/>
	<path class="st8" d="M484.99,422.9c-0.14-0.25-0.55-0.63-0.52-0.96c0.06-0.71,0.68-1.05,1.33-0.9c0.31,0.07,0.77,0.61,0.72,0.86
		C486.42,422.52,485.96,422.98,484.99,422.9z"/>
	<path class="st2" d="M343.02,339.25c-0.11-0.33-0.23-0.67-0.33-1C342.8,338.58,342.91,338.92,343.02,339.25z"/>
	<path class="st1" d="M288.1,197.08c0.12-1.28,0.81-1.88,2.11-1.75C290.08,196.6,289.39,197.2,288.1,197.08z"/>
	<path class="st10" d="M337.49,424.19c0.82,1.68,1.63,3.36,2.45,5.04c-8.42-1.33-17.26-0.93-24.82-5.89
		c0.25-0.38,0.5-0.77,0.75-1.15c0.26-1.1-0.08-1.82-1.28-1.92c-1.3-0.11-2,0.58-2.25,1.8c-7.96-3.86-12.69-10.69-16.13-18.38
		c-4.94-11.03-1.04-20.16,7.03-28.1c3.43-3.37,6.58-7.06,10.91-9.39c0.24,2.16-0.66,3.42-2.4,4.91c-2.96,2.52-4.93,5.81-1.55,9.69
		c1.1,1.26,2.21,2.85,1.86,4.48c-1.5,6.93,2.93,10.71,7.42,14.42c2.08,1.72,3.9,4.07,5.8,5.36c2.85,1.94,2.71,6.19,6.39,6.91
		c0.8,1.42,1.59,2.84,2.39,4.25c0.13,1.89,0.74,3.58,2.09,4.96C336.58,422.2,337.04,423.2,337.49,424.19z"/>
	<path class="st12" d="M331.65,411.99c-3.67-0.71-3.54-4.97-6.39-6.91c-1.9-1.29-3.72-3.65-5.8-5.36
		c-4.49-3.71-8.92-7.49-7.42-14.42c0.35-1.63-0.76-3.22-1.86-4.48c-3.38-3.88-1.41-7.17,1.55-9.69c1.74-1.49,2.64-2.75,2.4-4.91
		c0.05-1.77,0.11-3.54,0.16-5.31c2.01,3.93,1.3,8.68,3.76,12.47c0.86,5.76,2.88,11.14,5.25,16.42
		C326.53,397.02,329.67,404.28,331.65,411.99z"/>
	<path class="st13" d="M312.33,422.08c0.25-1.22,0.95-1.91,2.25-1.8c1.21,0.1,1.54,0.82,1.29,1.92c-0.94,0.03-1.87,0.06-2.81,0.09
		C312.81,422.23,312.57,422.16,312.33,422.08z"/>
	<path class="st13" d="M298.86,367.25c-0.19,0.81-0.81,0.89-1.48,0.85c-0.83-0.05-1.16-0.63-0.93-1.29
		c0.11-0.33,0.77-0.64,1.19-0.65C298.26,366.15,298.94,366.36,298.86,367.25z"/>
	<path class="st6" d="M313.06,422.28c0.94-0.03,1.87-0.06,2.81-0.09c-0.25,0.38-0.5,0.77-0.75,1.15
		C314.35,423.15,313.43,423.26,313.06,422.28z"/>
	<path class="st11" d="M341.23,328.16c-0.79-5.59-2.71-11.04-1.93-16.81c0.29,0,0.55-0.07,0.8-0.22
		c10.62-0.28,21.25-0.49,31.87-0.85c30.05-1.02,60.08-3.11,90.16-0.98c0,0.27-0.01,0.54-0.03,0.81c-6.28,1.36-12.95,1.29-18.54,5.16
		c-1.07,0.74-2.57,1.16-2.47,2.8c0.11,1.8,1.68,2.45,3.06,2.87c2.9,0.89,5.94,0.86,8.89,0.34c10.94-1.91,21.86-3.91,32.79-5.92
		c3.05-0.56,5.88-1.52,6.5-5.14c0.6-3.51-1.85-5.03-4.36-6.47c-0.01-1.23,0.59-2.74-1.1-3.31c-1.46-0.5-2.53,0.01-2.74,1.71
		c-0.43,0.1-0.85,0.19-1.28,0.29c-0.28,0.02-0.52-0.06-0.73-0.24c-1.42-1.64-3.32-0.82-5.02-0.99c-0.33,0.08-0.64,0.04-0.94-0.12
		c0.87-1.56,3.93-0.1,3.93-2.85c0.01-0.3,0.02-0.6,0.03-0.9c2.02,0.01,4.04,0.02,6.06,0.03c0.49,0.72,1.23,0.82,2.02,0.79
		c5.32,0.02,10.66,0.31,15.96-0.01c5.29-0.32,8.95,3.46,13.42,5.06c2.87,1.02,0.96,5-1.38,6.92c-9.46,7.77-20.5,11.98-32.44,14.03
		c-14.92,2.56-29.99,2.55-45.06,3.12c-24.71,0.93-49.4,2.29-74.13,1.75C356.8,328.88,349.03,327.99,341.23,328.16z M425.39,320.75
		c-0.93-0.88-1.21-1.36-1.61-1.49c-8.82-2.99-17.95-1.68-26.97-1.89c-0.89-0.02-1.51,0.66-1.54,1.61c-0.04,1.19,0.78,1.89,1.75,2.1
		C406.25,323.04,415.5,324.21,425.39,320.75z"/>
	<path class="st4" d="M480.13,297.35c-0.01,0.3-0.02,0.6-0.03,0.9c-3.12,0.28-6.62-1.17-9.08,2.04c-0.98-0.11-1.97-0.22-2.95-0.33
		c-0.43-0.23-0.87-0.65-1.3-0.65c-18.08-0.04-36.15-0.05-54.23-0.02c-0.44,0-0.88,0.4-1.33,0.61c-1.03,0.07-2.05,0.14-3.08,0.22
		c-1.3-3.46-4.82-2.39-6.21-1.58c-4.53,2.63-9.24,1.2-13.82,1.69c-2.85,0.95-4.89-3.21-7.19-1.79c-4.16,2.58-8.5,1.46-12.78,1.78
		c-1.41-3.46-3.39-1.71-6.68-1.33c3.05,1.77,4.91,1.15,6.68,1.33c0,0.65,0,1.29,0,1.94c-0.6,0.04-1.19,0.09-1.79,0.13
		c-3.96-0.44-7.87,0.29-11.88-1.75c-4.25-2.16-7.75-0.12-8.33,3.48c-0.93,0.09-1.87,0.19-2.8,0.28c-4.81-0.45-2.04-6.18-5.62-7.69
		c2.02-0.4,3.8-0.25,5.55-0.44c1.73-0.18,4.12,1.1,4.86-1.82c11.26-0.33,22.5-1.71,33.78-1.05c23.8,1.39,47.62,2.33,71.44,3.22
		C462.26,296.84,471.21,296.76,480.13,297.35z"/>
	<path class="st11" d="M348.11,294.35c-0.73,2.92-3.12,1.64-4.86,1.82c-1.75,0.18-3.54,0.04-5.55,0.44
		c3.58,1.51,0.81,7.24,5.62,7.69c-1.88,1.19-3.93,0.97-5.99,0.73c-0.43-3.22-0.85-6.44-1.28-9.66
		C340.07,295.03,344.09,294.69,348.11,294.35z"/>
	<path class="st4" d="M488.21,298.17c-0.79,0.03-1.53-0.07-2.02-0.79C487.02,297.25,487.72,297.44,488.21,298.17z"/>
	<path class="st13" d="M331.65,411.99c-1.98-7.7-5.12-14.97-8.36-22.19c-2.36-5.28-4.39-10.66-5.25-16.42
		c0.02-1.83,0.21-3.67,0.04-5.48c-0.38-4.12,1.4-6.75,4.81-9.02c6.55-4.37,13.72-6.95,21.28-8.72c0,0-0.01,0-0.01,0
		c0.63,2.67-1.65,5.94,1.66,8.06c2.32,12.6,5.03,25.05,10.32,36.87c3.99,8.91,7.27,18.14,10.87,27.22c0,0-0.04,0.02-0.04,0.02
		c0.09,0.95,0.19,1.89,0.28,2.84c-2.83,3-13.22,4.43-16.85,2.25c-2.29-1.38-5.13-4.87-4.7,1.62c0.07,1.08-1.02,1.14-1.84,1.08
		c-0.92-0.07-1.54-0.5-1.32-1.59c0.9-4.47-2.13-4.35-5.07-4.32c-0.45-1-0.9-2-1.36-2.99c-0.44-1.76,1.24-4.42-2.09-4.96
		C333.25,414.82,332.45,413.4,331.65,411.99z"/>
	<path class="st12" d="M367.27,425.16c-0.09-0.95-0.19-1.9-0.28-2.84c0.38-0.03,0.76-0.07,1.14-0.1c0.03,0.97,0.06,1.95,0.09,2.92
		c0,0-0.17,0.14-0.17,0.14C367.79,425.22,367.54,425.19,367.27,425.16z"/>
	<path class="st12" d="M367.03,422.29c-3.6-9.08-6.88-18.31-10.87-27.22c-5.29-11.82-8-24.27-10.32-36.87
		c-0.3-2.64-0.59-5.28-0.89-7.92c1.14,3.53,3.54,3.45,6.61,2.72c5.44-1.29,10.97-2.17,16.45-3.28c1.14-0.23,2.38-0.91,2.86,0.73
		c0.39,1.35-0.62,2.1-1.68,2.7c-3.45,1.96-6.99,3.8-10.3,5.97c-1.2,0.78-3.31,1.89-2.1,3.88c1.29,2.12,2.65,0.54,4.1-0.32
		c1.4-0.82,3.12-0.87,4.57,0.16c0.18,1.04-0.52,1.14-1.15,1.32c-0.99,0.28-2.77-0.41-2.64,1.35c0.12,1.65,1.79,1.67,3.13,1.69
		c5.89,0.11,11.3-1.63,16.32-4.56c1-0.58,1.8-1.45,3.08-1.35c0.06,0.86-0.45,1.96,0.84,2.3c0.23,0.06,0.84-0.47,0.9-0.79
		c0.24-1.37-0.76-1.46-1.74-1.49c1.21-1.46,2.56-1.59,3.67-0.04c0.57,0.8,0.94,1.65,1.83,2.25c1.82,1.21,4.91,2.31,3.7,4.81
		c-0.58,1.2-3.86,0.05-5.59-1.38c-0.83-0.69-1.97-1.02-2.71-0.23c-1.04,1.11,0.35,1.76,0.95,2.36c3.35,3.33,7.05,5.79,12.09,4.08
		c0.64-0.22,1.22-0.7,1.69,0.01c6.17,9.31,15.8,13.15,25.84,16.3c5.99,1.88,11.16,5.68,17.41,7.04c2.38,0.52,2.65,3.81,4.64,5.17
		c-1.47,1.61-1.3,4.7-4.37,4.86c-0.53-0.94-1.31-1.55-2.38-1.11c-1.25,0.51-0.67,1.61-0.57,2.52l-0.31,0.32
		c-2.04-1.13-3.86-2.21-4.68,1.44c-0.23,1.04-1.93,3.22-3.35,2.2c-5.1-3.68-9.54,0.44-14.07,1.14c-6.46,1-13.02,1.85-19.4,3.69
		c-2.81,0.81-6.2-0.7-9.25-0.4c-6.25,0.6-12.45,1.68-18.67,2.62C368.76,419.21,367.17,420.01,367.03,422.29z"/>
	<path class="st12" d="M443.38,407.16c1.23,0.16,2.17,0.86,2.92,1.77c0.67,0.8,2.2,1.52,0.97,2.81c-0.73,0.77-2.15,0.65-2.68-0.19
		c-1.1-1.75-4.27-0.53-4.48-3.3c0,0,0.31-0.32,0.31-0.31C441.51,408.1,442.66,408.46,443.38,407.16z"/>
	<path class="st8" d="M344.95,350.29c0.3,2.64,0.59,5.28,0.89,7.92c-3.31-2.12-1.03-5.39-1.66-8.06
		C344.43,350.19,344.69,350.23,344.95,350.29z"/>
	<path class="st8" d="M443.38,407.16c-0.72,1.3-1.86,0.95-2.96,0.76c-0.1-0.91-0.68-2.01,0.57-2.52c1.07-0.44,1.85,0.17,2.38,1.11
		C443.41,406.72,443.41,406.94,443.38,407.16z"/>
	<path class="st10" d="M368.22,425.13c-0.03-0.97-0.06-1.95-0.09-2.92c1,0.13,1.94,0.38,1.82,1.68
		C369.86,424.92,369.04,425.05,368.22,425.13z"/>
	<path class="st13" d="M394,424.28c0.06,0.66,0.14,1.51-0.61,1.65c-1.2,0.22-1.17-0.79-1.21-1.62
		C392.79,424.31,393.39,424.29,394,424.28z"/>
	<path class="st1" d="M470.1,368.23c-0.21,1.58,0.71,3.76-2.12,3.92c0.88-1.37,2.17-2.89-1-2.86
		C467.37,366.97,469.16,368.87,470.1,368.23C470.11,368.24,470.1,368.23,470.1,368.23z"/>
	<path class="st8" d="M466.98,369.28c3.16-0.03,1.87,1.49,1,2.86C466.79,371.49,466.69,370.45,466.98,369.28z"/>
	<path class="st14" d="M337.33,305.03c2.05,0.24,4.11,0.46,5.99-0.73c0.93-0.09,1.87-0.19,2.8-0.28c6.76-0.34,13.53-0.55,20.21-1.73
		c0.6-0.04,1.19-0.09,1.79-0.13c6.69,0.15,13.34-0.48,19.98-1.19c6.7,0.17,13.4,0.59,20.03-0.85c1.03-0.07,2.05-0.14,3.08-0.22
		c18.95,0.02,37.91,0.05,56.86,0.07c0.98,0.11,1.97,0.22,2.95,0.33c1.59,1.09,3.39,0.84,5.15,0.82c0.3,0.16,0.61,0.2,0.94,0.12
		c1.52,1.09,3.28,0.98,5.02,0.99c0.21,0.18,0.45,0.26,0.73,0.24c0.92,0.89,2.06,0.85,3.21,0.79c0.64,0.17,1.27,0.35,1.91,0.52
		c2.51,1.45,4.96,2.96,4.36,6.47c-0.62,3.62-3.45,4.58-6.5,5.14c-10.92,2-21.85,4.01-32.79,5.92c-2.96,0.52-5.99,0.54-8.89-0.34
		c-1.38-0.42-2.94-1.07-3.06-2.87c-0.1-1.63,1.4-2.06,2.47-2.8c5.58-3.87,12.26-3.8,18.54-5.16c1.64,0,3.28,0,4.92,0
		c0-0.27,0-0.54,0-0.81c-1.63,0-3.26,0-4.89,0c-30.08-2.14-60.11-0.04-90.16,0.98c-10.62,0.36-21.25,0.57-31.87,0.85
		c-2.48-0.73-1.04-4.64-4.02-4.97C336.49,305.78,336.91,305.41,337.33,305.03z"/>
	<path class="st5" d="M336.07,306.16c2.98,0.33,1.54,4.23,4.02,4.97c-0.24,0.15-0.51,0.23-0.8,0.22
		c-6.94,0.25-13.73,2.28-20.73,1.89c-1.59-0.09-3.3,0.48-5.41-1.13C320.92,309.3,328.34,307.2,336.07,306.16z"/>
	<path class="st10" d="M482.13,418.21c-1.63-0.17-2.19-1.12-1.79-2.62c0.08-0.32,0.76-0.81,0.91-0.73
		C482.73,415.62,481.88,417.07,482.13,418.21C482.14,418.21,482.13,418.21,482.13,418.21z"/>
	<path class="st8" d="M334.04,416.24c3.33,0.54,1.65,3.2,2.09,4.96C334.78,419.82,334.17,418.13,334.04,416.24z"/>
	<path class="st14" d="M425.39,320.75c-9.89,3.47-19.13,2.29-28.37,0.33c-0.97-0.21-1.8-0.91-1.75-2.1
		c0.04-0.95,0.66-1.63,1.54-1.61c9.02,0.21,18.15-1.1,26.97,1.89C424.17,319.39,424.45,319.86,425.39,320.75z"/>
	<path class="st9" d="M476.17,301.1c-1.76,0.03-3.56,0.27-5.15-0.82c2.46-3.21,5.97-1.76,9.08-2.04
		C480.1,301,477.04,299.54,476.17,301.1z"/>
	<path class="st4" d="M487.97,303.76c-0.64-0.17-1.27-0.35-1.91-0.52c-0.64-0.36-1.29-0.72-1.93-1.08c0.21-1.7,1.28-2.21,2.74-1.71
		C488.56,301.02,487.97,302.53,487.97,303.76z"/>
	<path class="st2" d="M462.12,309.3c1.63,0,3.26,0,4.89,0c0,0.27,0,0.54,0,0.81c-1.64,0-3.28,0-4.92,0
		C462.12,309.85,462.13,309.58,462.12,309.3z"/>
	<path class="st9" d="M482.13,302.21c-1.74,0-3.5,0.11-5.02-0.99C478.81,301.38,480.71,300.57,482.13,302.21z"/>
	<path class="st2" d="M484.13,302.16c0.64,0.36,1.29,0.72,1.93,1.08c-1.15,0.06-2.3,0.1-3.21-0.79
		C483.28,302.35,483.71,302.25,484.13,302.16z"/>
	<path class="st9" d="M468.07,299.96c-18.95-0.02-37.91-0.05-56.86-0.07c0.44-0.21,0.88-0.61,1.33-0.61
		c18.08-0.02,36.15-0.02,54.23,0.02C467.21,299.31,467.64,299.73,468.07,299.96z"/>
	<path class="st11" d="M366.34,302.28c-6.69,1.18-13.46,1.39-20.21,1.73c0.59-3.6,4.08-5.64,8.33-3.48
		C358.46,302.57,362.38,301.84,366.34,302.28z"/>
	<path class="st11" d="M388.1,300.95c-6.64,0.72-13.28,1.35-19.98,1.19c0-0.65,0-1.29,0-1.94l0,0c4.28-0.32,8.62,0.8,12.78-1.78
		c2.31-1.43,4.35,2.74,7.19,1.79C388.1,300.46,388.1,300.71,388.1,300.95z"/>
	<path class="st9" d="M388.1,300.95c0-0.25,0-0.5,0-0.74c4.59-0.48,9.29,0.94,13.82-1.69c1.39-0.8,4.91-1.88,6.21,1.58
		C401.51,301.54,394.8,301.12,388.1,300.95z"/>
	<path class="st11" d="M368.13,300.21c-1.77-0.18-3.63,0.44-6.68-1.33C364.74,298.49,366.72,296.75,368.13,300.21L368.13,300.21z"/>
	<path class="st8" d="M384.2,361.3c0.99,0.03,1.98,0.12,1.74,1.49c-0.06,0.32-0.67,0.85-0.9,0.79c-1.28-0.34-0.78-1.44-0.84-2.3
		C384.21,361.28,384.2,361.3,384.2,361.3z"/>
</g>
</svg>
