<?xml version="1.0" encoding="utf-8"?>
<!-- Generator: Adobe Illustrator 26.0.3, SVG Export Plug-In . SVG Version: 6.00 Build 0)  -->
<svg version="1.1" id="Layer_1" xmlns="http://www.w3.org/2000/svg" xmlns:xlink="http://www.w3.org/1999/xlink" x="0px" y="0px"
	 viewBox="0 0 792 612" style="enable-background:new 0 0 792 612;" xml:space="preserve">
<style type="text/css">
	.st0{fill:#1C5778;}
	.st1{fill:#178A94;}
</style>
<g>
	<path class="st0" d="M371.04,317.73c0-63.66-0.16-127.32,0.09-190.98c0.08-21.14,0.01-42.32,1.99-63.42
		c0.08-0.83,0.05-1.67,0.14-2.49c0.93-7.76,4.74-11.99,10.43-11.64c6.01,0.38,11.05,6.4,11.49,13.07
		c1.96,29.28,1.22,58.61,1.25,87.91c0.11,112.99,0.12,225.98-0.07,338.98c-0.04,24.82-1.16,49.64-0.86,74.47
		c0.1,8.21-4.62,14.21-11.22,14.49c-7,0.3-14.54-6.55-15.22-13.92c-0.18-1.98-0.09-4-0.1-6
		C368.62,478.05,369.63,397.89,371.04,317.73z M388.2,319.29c-0.01,0-0.02,0-0.04,0c0-62.81,0-125.62,0-188.43
		c0-17.66-0.35-35.33,0.28-52.97c0.21-5.89,0.01-11.33-2.05-16.8c-0.58-1.54-0.41-3.56-2.6-3.69c-2.28-0.13-2.28,1.81-2.75,3.43
		c-0.6,2.1-0.91,4.18-0.91,6.37c0.02,67.06,0.13,134.13-0.06,201.19c-0.06,20.29-0.03,40.57-0.64,60.88
		c-1.2,40.09,0,80.22-1.04,120.34c-0.94,36.13-0.25,72.3-0.29,108.45c0,1.82,0.23,3.78-0.33,5.45c-1.18,3.47-0.27,5.24,3.3,6.24
		c3.65,1.03,5.2-0.51,6.31-3.67c0.81-2.29,0.8-4.56,0.8-6.89C388.2,479.23,388.2,399.26,388.2,319.29z"/>
	<path class="st1" d="M388.2,319.29c0,79.97,0,159.94,0,239.91c0,2.32,0.01,4.6-0.8,6.89c-1.12,3.15-2.67,4.7-6.31,3.67
		c-3.57-1.01-4.48-2.77-3.3-6.24c0.56-1.66,0.33-3.62,0.33-5.45c0.04-36.15-0.64-72.32,0.29-108.45
		c1.04-40.12-0.17-80.25,1.04-120.34c0.61-20.3,0.58-40.59,0.64-60.88c0.19-67.06,0.08-134.13,0.06-201.19
		c0-2.19,0.31-4.27,0.91-6.37c0.47-1.63,0.47-3.57,2.75-3.43c2.19,0.13,2.02,2.16,2.6,3.69c2.06,5.46,2.26,10.91,2.05,16.8
		c-0.63,17.64-0.28,35.31-0.28,52.97c-0.01,62.81,0,125.62,0,188.43C388.17,319.29,388.19,319.29,388.2,319.29z"/>
</g>
</svg>
