<?xml version="1.0" encoding="utf-8"?>
<!-- Generator: Adobe Illustrator 26.0.3, SVG Export Plug-In . SVG Version: 6.00 Build 0)  -->
<svg version="1.1" id="Layer_1" xmlns="http://www.w3.org/2000/svg" xmlns:xlink="http://www.w3.org/1999/xlink" x="0px" y="0px"
	 viewBox="0 0 792 612" style="enable-background:new 0 0 792 612;" xml:space="preserve">
<style type="text/css">
	.st0{fill:#1D5577;}
	.st1{fill:#26255F;}
	.st2{fill:#1A5677;}
	.st3{fill:#37A38C;}
	.st4{fill:#158D95;}
</style>
<g>
	<path class="st0" d="M116.9,356.11c-1.16-3.58-1-7.3-0.61-10.9c1.51-14.11-0.91-27.97-2.22-41.91c-0.45-4.76-0.48-9.55-0.91-14.33
		c-1.66-18.55-2.04-37.24-0.92-55.79c1.14-19.03,0.44-38.27,5.44-57.06c1.68-6.31,0.6-13.29,2.08-19.99
		c2.36-10.73,8.57-18.08,17.97-22.8c10.67-5.35,21.69-8.88,34.12-6.59c5.41,1,11.19,0.8,16.8,1.15c10.55,0.66,21.07,0.64,31.68,0.35
		c30.14-0.81,60.32-0.75,90.46-0.11c18.29,0.38,36.54,2.5,54.81,3.76c5.27,0.36,10.59,0.76,15.8,0.84
		c14.29,0.21,28.55,2.19,42.84,1.15c13.45-0.97,26.84-2.85,40.3-3.78c6.93-0.48,13.93-1,20.86-0.99
		c26.13,0.01,52.27,1.08,78.38,0.66c16.94-0.27,33.89-0.75,50.84-0.78c15.04-0.02,29.81,2.29,44.24,6.21
		c9.16,2.49,14.59,9.81,18.49,18.08c4.49,9.5,6.68,19.23,4.89,30.04c-1.58,9.59-1.44,19.47-2,29.23c-1.04,18-2.43,35.98-2.94,54
		c-0.54,19.14-0.06,38.32-0.39,57.47c-0.13,7.77-1.16,15.52-0.91,23.32c0.35,11.1,1.38,22.05,5.94,32.38
		c0.8,1.81,1.61,3.85,1.54,5.75c-0.45,12.95,4,25.4,3.58,38.36c-0.38,11.88-3.89,22.9-8.29,33.71c-2.13,5.22-6.9,6.98-11.99,7.36
		c-8.27,0.63-16.74,2-24.84,0.93c-30.6-4.06-61.28-1.74-91.87-1.6c-98.05,0.43-196.1,1.22-294.15,2.27
		c-22.91,0.25-45.98,2.35-68.98,3.17c-11.33,0.41-22.97,0.01-33.81-3.35c-15.92-4.94-23.33-18.1-26.99-33.19
		c-4.12-16.98-6.64-34.26-6.84-51.83c-0.09-7.79-2.88-15.38-2.23-23.28c2.01-4.18,0.55-8.44-0.15-12.67
		C116.9,348.94,116.9,352.53,116.9,356.11z M661.12,456.19c10-0.18,10-0.19,13.16-9.65c1.05-3.15,2.12-6.3,3.21-9.44
		c2.32-6.68,2.87-13.77,2.19-20.56c-0.96-9.66-3.62-19.15-5.22-28.76c-2.5-15.01-5.98-29.87-5.58-45.29
		c0.21-8.14,0.83-16.25,1.02-24.37c0.29-11.99,0.22-24,0.05-36c-0.28-20.45,2.85-40.71,3.05-61.13c0.13-13.6,1.24-27.19,3.31-40.58
		c1.56-10.08-0.98-18.88-5.44-27.23c-4.65-8.7-11.93-13.22-22.51-14.2c-15.99-1.49-31.89-3.74-48-4.06
		c-5.86-0.12-11.56,1.37-17.38,1.06c-16.59-0.87-33.13,1.66-49.78,0.23c-11.91-1.02-23.98-0.21-35.98-0.2
		c-8.17,0.01-16.36-0.39-24.49,0.17c-13.7,0.95-27.33,3.2-41.03,3.62c-13.76,0.42-27.57,0.16-41.39-0.52
		c-22.53-1.11-44.99-3.07-67.51-4.12c-18.43-0.85-36.94,0.22-55.37-1.23c-2.49-0.2-4.79,0.56-7.31,0.46
		c-11.31-0.44-22.71-1.03-33.95-0.05c-14.84,1.3-29.54,0.48-44.26-0.64c-10.87-0.83-21.72-2.74-32.32,1.36
		c-9.6,3.71-18.7,7.93-22.16,19c-3.67,11.73-6.41,23.64-7.39,35.87c-1.34,16.72-1.36,33.51-1.82,50.26
		c-0.53,19.04,0.91,38.1,2.52,57.14c0.95,11.2,1.63,22.5,2.54,33.71c1.47,18.16,2.42,36.35,3.54,54.52
		c0.97,15.75,2.3,31.39,6.26,46.67c3.52,13.59,10.72,24.29,25.53,27.41c7.31,1.54,14.73,0.8,22.2,0.61
		c30.11-0.76,60.25-0.21,90.38-1.04c19.56-0.54,39.17-0.52,58.76-0.4c45.46,0.28,90.92-0.35,136.38-0.85
		c33.96-0.37,67.91,0.6,101.89-0.75C599.17,455.98,630.17,457.66,661.12,456.19z"/>
	<path class="st1" d="M116.9,356.11c0-3.59,0-7.17,0-10.76c0.71,4.23,2.17,8.48,0.15,12.67C117,357.39,116.95,356.75,116.9,356.11z"
		/>
	<path class="st1" d="M661.12,456.19c-30.95,1.47-61.95-0.21-92.87,1.02c-33.98,1.35-67.93,0.38-101.89,0.75
		c-45.46,0.5-90.93,1.13-136.38,0.85c-19.6-0.12-39.2-0.15-58.76,0.4c-30.13,0.84-60.27,0.29-90.38,1.04
		c-7.47,0.19-14.89,0.93-22.2-0.61c-14.82-3.12-22.01-13.82-25.53-27.41c-3.96-15.27-5.3-30.91-6.26-46.67
		c-1.11-18.17-2.07-36.36-3.54-54.52c-0.91-11.21-1.59-22.5-2.54-33.71c-1.61-19.04-3.04-38.1-2.52-57.14
		c0.46-16.75,0.48-33.54,1.82-50.26c0.98-12.23,3.72-24.14,7.39-35.87c3.46-11.07,12.56-15.29,22.16-19
		c10.6-4.1,21.45-2.19,32.32-1.36c14.72,1.12,29.42,1.95,44.26,0.64c11.24-0.99,22.64-0.39,33.95,0.05c2.52,0.1,4.82-0.65,7.31-0.46
		c18.43,1.45,36.94,0.38,55.37,1.23c22.51,1.04,44.98,3.01,67.51,4.12c13.82,0.68,27.63,0.94,41.39,0.52
		c13.7-0.42,27.33-2.67,41.03-3.62c8.13-0.56,16.32-0.16,24.49-0.17c12-0.01,24.07-0.82,35.98,0.2c16.66,1.43,33.19-1.1,49.78-0.23
		c5.82,0.3,11.52-1.18,17.38-1.06c16.11,0.32,32.01,2.57,48,4.06c10.59,0.99,17.87,5.51,22.51,14.2c4.46,8.35,7,17.15,5.44,27.23
		c-2.08,13.39-3.18,26.98-3.31,40.58c-0.2,20.42-3.34,40.68-3.05,61.13c0.17,12,0.24,24-0.05,36c-0.2,8.12-0.81,16.24-1.02,24.37
		c-0.4,15.42,3.08,30.28,5.58,45.29c1.6,9.62,4.26,19.1,5.22,28.76c0.67,6.78,0.13,13.87-2.19,20.56c-1.09,3.14-2.16,6.29-3.21,9.44
		C671.12,456,671.12,456,661.12,456.19z M146.02,420.97c-0.17-0.14-0.34-0.28-0.51-0.43c0.14,0.17,0.29,0.34,0.43,0.51
		c0.15,0.44,0.3,0.87,0.45,1.31c0.12-0.1,0.35-0.27,0.34-0.3C146.51,421.69,146.26,421.33,146.02,420.97z M143,289
		c-2.02,3.16-0.56,6.66-0.98,9.98c-1.03,1.63-1.04,3.45-1.03,5.29c0.03,9.47-0.22,18.96,0.11,28.42c0.18,5.08,1.15,10.16,2.1,15.18
		c0.42,2.23,1.53,4.98,4.25,4.83c2.46-0.14,2.99-3.01,3.37-4.98c2.24-11.85,3.88-23.78,4.15-35.86c0.15-6.64-0.18-13.31,0.12-19.94
		c0.19-4.08,1.44-8.01,0.14-12.25c-0.92-2.99-2.07-4.54-5.31-4.73c-3.31-0.19-4.88,1.18-5.51,4.29
		C143.76,282.47,142.6,285.62,143,289z M553.99,432.02c9.96-0.01,19.91,0.02,29.87-0.04c1.75-0.01,3.69,0.62,5.18-0.96
		c4.63,0.28,9.37-0.86,13.89,0.55c6.88,2.14,12.29-0.83,14.13-7.86c1.72-6.58,1.32-13.3,0.74-19.84c-1.29-14.52-2.59-29-2.9-43.59
		c-0.2-9.25-0.68-18.58-2.13-27.7c-2.43-15.26-3.02-30.65-3.57-45.98c-0.8-22.45-0.31-44.95-0.12-67.42
		c0.04-4.22-0.26-9.05,2.27-12.51c6.33-8.65,6.03-18.42,5.43-28.13c-0.52-8.51-5.5-14.06-13.92-16.03
		c-9.25-2.16-18.7-3.17-28.12-2.32c-8.91,0.81-17.82,1.3-26.74,1.79c-9.94,0.54-19.92,0.53-29.85,0.7
		c-17.77,0.29-35.43,2.29-53.19,2.37c-5.01-0.73-9.83,1.09-14.83,1.02c-14.46-0.19-28.92,0.09-43.38-0.12
		c-11.59-0.17-23.22,1.01-34.77-0.88c-16.91-0.69-33.82-1.79-50.73-1.97c-29.65-0.33-59.3-0.16-88.95-0.05
		c-10.12,0.04-20.27-0.69-30.36,0.94c-10.49,1.7-18.99,6-22.78,16.66c-3.98,11.22-4.52,23.05-5.01,34.74
		c-0.49,11.76,0.04,23.56,0.57,35.36c0.56,12.53,0.99,25.14,0.37,37.74c-0.49,10.14-0.11,20.32-0.12,30.48
		c-1.58,1.49-0.96,3.44-0.96,5.19c-0.04,23.61-0.03,47.23-0.03,70.84c0.01,6.64,0.07,13.29,0,19.93
		c-0.07,6.37,2.22,12.43,5.72,17.04c2.66,3.52,8.22,5.35,13.47,5.02c10.37-0.67,20.62-2.88,30.9-3.68
		c16.29-1.27,32.61-2.54,48.95-3.37c5.99-0.4,12.09,1.25,17.98-0.94c24.9-0.33,49.72,0.69,74.54,2.81
		c20.62,1.77,41.34,2.45,62.04,3.11c29.92,0.96,59.85-0.52,89.75-1.21c10.6-0.24,21.23-0.4,31.84-0.7
		C550.87,432.97,552.5,432.92,553.99,432.02z M662,301.77c-0.01-10.76-6.7-17.75-17.01-17.77c-8.28-0.02-16.97,10.59-17,20.16
		c-0.02,6.43,12.71,15.01,19.55,14.91C655.7,318.94,662.61,311.95,662,301.77z M141.99,253.09c0.02,4.66,4.54,9.88,8.57,9.9
		c3.71,0.02,7.4-3.97,7.39-7.99c-0.01-4.15-4.89-9.01-9-8.98C144.36,246.04,141.98,248.47,141.99,253.09z M142.94,413.5
		c-0.16-0.25-0.31-0.49-0.46-0.74c-0.14,0.25-0.38,0.51-0.37,0.76c0.01,0.25,0.26,0.5,0.41,0.74
		C142.65,414.01,142.79,413.76,142.94,413.5z"/>
	<path class="st2" d="M174.99,318.97c0.01-10.16-0.38-20.34,0.12-30.48c0.62-12.6,0.19-25.21-0.37-37.74
		c-0.52-11.8-1.05-23.61-0.57-35.36c0.48-11.68,1.02-23.51,5.01-34.74c3.79-10.67,12.29-14.97,22.78-16.66
		c10.09-1.63,20.24-0.91,30.36-0.94c29.65-0.11,59.31-0.27,88.95,0.05c16.92,0.19,33.82,1.28,50.73,1.97
		c0.7,3.01,3.16,1.89,4.9,1.89c27.23,0.07,54.46,0.04,81.68,0.06c2.35,0,4.68,0.05,6.39-1.97c17.75-0.08,35.42-2.08,53.19-2.37
		c9.92-0.16,19.91-0.15,29.85-0.7c8.92-0.49,17.83-0.98,26.74-1.79c9.42-0.85,18.88,0.15,28.12,2.32
		c8.42,1.97,13.4,7.52,13.92,16.03c0.6,9.71,0.9,19.48-5.43,28.13c-2.54,3.46-2.24,8.3-2.27,12.51
		c-0.19,22.47-0.68,44.97,0.12,67.42c0.55,15.33,1.14,30.72,3.57,45.98c1.45,9.12,1.93,18.45,2.13,27.7
		c0.31,14.59,1.61,29.08,2.9,43.59c0.58,6.54,0.98,13.26-0.74,19.84c-1.84,7.03-7.25,10-14.13,7.86c-4.52-1.41-9.26-0.27-13.89-0.55
		c-10.13-0.01-20.26-0.03-30.39,0c-1.59,0.01-3.37-0.55-4.66,1c-1.49,0.9-3.12,0.95-4.81,1c-10.61,0.3-21.24,0.46-31.84,0.7
		c-29.91,0.69-59.83,2.17-89.75,1.21c-20.69-0.67-41.42-1.35-62.04-3.11c-24.83-2.13-49.65-3.14-74.54-2.81
		c-5.98,0.53-12.08-1.19-17.98,0.94c-16.34,0.83-32.65,2.1-48.95,3.37c-10.28,0.8-20.52,3.01-30.9,3.68
		c-5.25,0.34-10.81-1.5-13.47-5.02c-3.49-4.62-5.79-10.67-5.72-17.04c0.07-6.64,0-13.29,0-19.93c1.64-1.47,0.98-3.43,0.98-5.17
		C175.01,366.21,174.99,342.59,174.99,318.97z M182.92,290.03c0.59,11.97-1.82,23.88-0.81,35.86c-0.37,3.45-1.04,6.89-1.06,10.34
		c-0.1,19.44-0.25,38.89,0.04,58.33c0.12,8.23,1.05,16.48,2.02,24.67c0.77,6.52,5.67,10.3,11.25,9.74c11-1.1,22.07-1.64,33.01-3.12
		c5.89-0.8,11.94,0.01,17.69-1.93c6.66,0.78,13.28-0.51,19.77-1.28c5.37-0.64,10.99,0.69,16.15-1.68
		c14.98,0.03,29.98-0.42,44.94,0.2c17.03,0.71,34,2.73,51.07,2.82c0.73,0.33,1.48,0.99,2.18,0.94c9.97-0.61,19.85,1.21,29.8,0.99
		c35.68,2.14,71.36,1.14,107.05,0c8.36,0.83,16.61-1.27,24.95-1c16.77,0.86,33.48-1.35,50.26-1.05c5.55,0.1,11.13-1.21,16.7-1.89
		c2.51-0.3,3.96-1.76,4.01-4.26c0.07-3.82,0.29-7.68-0.16-11.46c-1.24-10.5-2.5-20.97-2.85-31.56c-0.41-12.56-0.97-25.14-2.18-37.65
		c-0.35-3.64,0.24-7.62-1.72-11.08c-0.37-10.05-1.79-20.09-1.82-30.08c-0.05-15.9-1.58-31.76-1.13-47.65
		c0.16-5.74,1.54-11.48-0.13-17.2c1.24-8.99,1.13-18.08,2.71-27.08c1.45-8.25,3.79-16.43,3.39-25c-0.23-5.07-2.28-8.11-7.36-9.04
		c-5.32-0.98-10.49-2.49-16.09-1.07c-4.54,1.15-9.11-1.46-13.8-0.84c-9.84,1.31-19.74,1.91-29.66,1.96
		c-8.64,0.04-17.28-0.03-25.93,0.03c-1.76,0.01-3.69-0.56-5.22,0.93c-2.14,0.02-4.29-0.1-6.42,0.07
		c-5.52,0.46-11.17-1.19-16.58,1.04c-5.81-0.19-11.59,0.55-17.36,0.78c-17.26,0.67-34.54-0.08-51.83,1.03
		c-17.59,1.13-35.21-0.6-52.81-0.88c-7.25-2.17-14.67-0.48-22-0.92c-1.61-0.35-3.24-1.05-4.84-1c-20.78,0.54-41.52-1.94-62.3-0.94
		c-8.29-0.02-16.57-0.05-24.86-0.07c-2.66-0.02-5.33-0.04-7.99-0.06c-2.34,0.01-4.69,0.01-7.03,0.02
		c-10.96,0.29-21.94-0.71-32.88,0.94c-9.15,1.37-16.36,5.08-20.17,14.07c-2.12,5.01-2.67,10.28-2.87,15.54
		c-1.12,28.94,1.25,57.82,1.92,86.73C182.01,288.31,182.1,289.29,182.92,290.03z"/>
	<path class="st2" d="M143,289c-0.4-3.38,0.75-6.53,1.4-9.77c0.63-3.11,2.2-4.48,5.51-4.29c3.24,0.19,4.4,1.74,5.31,4.73
		c1.3,4.24,0.05,8.17-0.14,12.25c-0.31,6.63,0.03,13.3-0.12,19.94c-0.28,12.07-1.91,24.01-4.15,35.86c-0.37,1.97-0.9,4.84-3.37,4.98
		c-2.72,0.15-3.83-2.59-4.25-4.83c-0.95-5.02-1.93-10.1-2.1-15.18c-0.33-9.46-0.08-18.94-0.11-28.42c-0.01-1.85,0.01-3.66,1.03-5.29
		C144.02,295.82,142.56,292.32,143,289z"/>
	<path class="st0" d="M662,301.77c0.61,10.18-6.31,17.17-14.46,17.3c-6.84,0.11-19.57-8.47-19.55-14.91
		c0.03-9.57,8.72-20.18,17-20.16C655.31,284.02,662,291.01,662,301.77z M644.8,291.99c-4.82,0.03-8.79,4.26-8.83,9.4
		c-0.04,4.7,5.65,9.77,10.77,9.58c4.12-0.15,8.02-4.61,8.14-9.31C654.99,297.11,649.62,291.96,644.8,291.99z"/>
	<path class="st0" d="M141.99,253.09c-0.02-4.62,2.37-7.04,6.95-7.07c4.11-0.03,8.99,4.83,9,8.98c0.01,4.03-3.67,8.02-7.39,7.99
		C146.53,262.96,142.01,257.74,141.99,253.09z"/>
	<path class="st0" d="M464.98,165.04c-1.71,2.02-4.04,1.97-6.39,1.97c-27.23-0.01-54.46,0.01-81.68-0.06c-1.75,0-4.2,1.12-4.9-1.89
		c11.55,1.89,23.18,0.72,34.77,0.88c14.46,0.21,28.92-0.07,43.38,0.12C455.15,166.13,459.97,164.32,464.98,165.04z"/>
	<path class="st0" d="M174.99,318.97c0,23.62,0.02,47.24-0.01,70.86c0,1.75,0.66,3.7-0.98,5.17c0-23.61-0.01-47.23,0.03-70.84
		C174.03,322.41,173.41,320.46,174.99,318.97z"/>
	<path class="st0" d="M553.99,432.02c1.29-1.55,3.07-0.99,4.66-1c10.13-0.04,20.26-0.01,30.39,0c-1.49,1.57-3.43,0.95-5.18,0.96
		C573.9,432.04,563.95,432.01,553.99,432.02z"/>
	<path class="st0" d="M273.02,429.95c5.9-2.13,12-0.41,17.98-0.94C285.11,431.2,279.01,429.54,273.02,429.95z"/>
	<path class="st0" d="M143,289c-0.45,3.32,1.02,6.82-0.98,9.98C142.44,295.67,140.99,292.17,143,289z"/>
	<path class="st0" d="M142.94,413.5c-0.15,0.26-0.29,0.51-0.43,0.76c-0.15-0.25-0.4-0.49-0.41-0.74c-0.01-0.25,0.24-0.5,0.37-0.76
		C142.63,413,142.78,413.25,142.94,413.5z"/>
	<path class="st3" d="M146.01,420.97c0.24,0.36,0.49,0.71,0.71,1.09c0.01,0.03-0.22,0.2-0.34,0.3c-0.15-0.44-0.3-0.87-0.45-1.31
		L146.01,420.97z"/>
	<path class="st3" d="M145.94,421.05c-0.14-0.17-0.29-0.34-0.43-0.51c0.17,0.14,0.34,0.28,0.51,0.43
		C146.01,420.97,145.94,421.05,145.94,421.05z"/>
	<path class="st4" d="M376.99,423.99c-17.07-0.09-34.04-2.1-51.07-2.82c-14.96-0.63-29.96-0.18-44.94-0.2
		c0.25-6.45-0.83-13.01,1.29-19.31c3.02-8.94,6.67-17.7,9.17-26.79c9.66-35.2,21.06-69.84,32.59-104.44
		c7.81-23.47,16.4-46.65,26.32-69.34c4.25-9.73,9.61-18.83,14.67-28.1c17.61,0.28,35.23,2.01,52.81,0.88
		c17.29-1.11,34.57-0.37,51.83-1.03c5.78-0.22,11.55-0.97,17.36-0.78c-0.01,1.48-1.09,2.34-1.91,3.39
		c-12.54,15.97-22.52,33.26-28.19,52.94c-2.52,8.75-5.76,17.32-9.08,25.81c-4.7,12.04-10.07,23.83-14.63,35.93
		c-7.39,19.57-15.71,38.74-23.84,58c-7.85,18.61-16.13,37.04-24.13,55.59C382.36,410.42,379.74,417.23,376.99,423.99z"/>
	<path class="st4" d="M516.03,425.92c-35.68,1.15-71.36,2.14-107.05,0c-0.34-4.36,0.61-8.61,1.53-12.78
		c5.65-25.63,16.43-49.32,28.48-72.4c9.59-18.38,18.3-37.12,26.85-55.99c10.12-22.33,21.18-44.25,32.2-66.15
		c7.6-15.11,15.5-30.08,24.52-44.41c2-3.17,0.38-3.25-2.05-3.24c-3.5,0.02-6.99,0-10.49,0c1.53-1.48,3.46-0.91,5.22-0.93
		c8.64-0.06,17.28,0.01,25.93-0.03c9.93-0.05,19.82-0.65,29.66-1.96c4.7-0.63,9.27,1.99,13.8,0.84c5.6-1.42,10.77,0.1,16.09,1.07
		c5.08,0.93,7.12,3.97,7.36,9.04c0.4,8.57-1.94,16.74-3.39,25c-1.58,9-1.48,18.09-2.71,27.08c-11.23,17.47-19.89,36.35-29.65,54.62
		c-14.08,26.37-25.45,54.02-36.08,81.94C528.92,386.83,522.16,406.27,516.03,425.92z"/>
	<path class="st4" d="M275.87,170.13c20.79-1,41.52,1.48,62.31,0.94c1.6-0.04,3.23,0.65,4.84,1c-3.35,7.2-6.91,14.31-10.01,21.62
		c-4.38,10.34-8.09,20.97-12.7,31.2c-5.5,12.22-11.09,24.39-16.21,36.77c-8.74,21.15-17.82,42.16-26.54,63.31
		c-7.95,19.28-15.71,38.64-21.36,58.77c-3.76,13.38-7.44,26.79-11.15,40.19c-5.74,1.94-11.79,1.13-17.69,1.93
		c-10.94,1.48-22.01,2.02-33.01,3.12c-5.58,0.56-10.48-3.22-11.25-9.74c-0.97-8.19-1.9-16.43-2.02-24.67
		c-0.29-19.44-0.15-38.89-0.04-58.33c0.02-3.45,0.69-6.89,1.06-10.34c1.97-2.92,2.3-6.53,3.84-9.58
		c6.31-12.44,12.31-25.04,18.95-37.32c9.69-17.93,19.91-35.53,31.17-52.5c8.16-12.3,16.49-24.5,25.04-36.53
		C265.88,183.25,270.27,176.23,275.87,170.13z"/>
	<path class="st3" d="M510.01,170.95c3.5,0,6.99,0.02,10.49,0c2.43-0.01,4.05,0.07,2.05,3.24c-9.02,14.33-16.92,29.3-24.52,44.41
		c-11.02,21.91-22.08,43.82-32.2,66.15c-8.55,18.87-17.26,37.62-26.85,55.99c-12.05,23.08-22.83,46.77-28.48,72.4
		c-0.92,4.17-1.87,8.42-1.53,12.78c-9.95,0.22-19.83-1.6-29.8-0.99c-0.71,0.04-1.45-0.61-2.18-0.94c2.74-6.76,5.36-13.57,8.25-20.27
		c8-18.55,16.27-36.98,24.13-55.59c8.13-19.26,16.46-38.43,23.84-58c4.56-12.09,9.93-23.88,14.63-35.93
		c3.32-8.49,6.56-17.06,9.08-25.81c5.67-19.68,15.65-36.97,28.19-52.94c0.82-1.04,1.9-1.9,1.91-3.39c5.4-2.23,11.06-0.58,16.58-1.04
		C505.72,170.85,507.87,170.97,510.01,170.95z"/>
	<path class="st3" d="M245.06,423.93c3.71-13.4,7.39-26.8,11.15-40.19c5.65-20.12,13.41-39.49,21.36-58.77
		c8.72-21.16,17.8-42.16,26.54-63.31c5.12-12.39,10.71-24.56,16.21-36.77c4.61-10.23,8.31-20.86,12.7-31.2
		c3.1-7.31,6.66-14.42,10.01-21.62c7.33,0.44,14.74-1.25,22,0.92c-5.07,9.27-10.42,18.37-14.67,28.1
		c-9.92,22.69-18.5,45.86-26.32,69.34c-11.52,34.61-22.93,69.25-32.59,104.44c-2.49,9.08-6.15,17.84-9.17,26.79
		c-2.12,6.3-1.04,12.86-1.29,19.31c-5.16,2.37-10.79,1.05-16.15,1.68C258.34,423.42,251.72,424.71,245.06,423.93z"/>
	<path class="st3" d="M516.03,425.92c6.13-19.65,12.9-39.08,20.22-58.31c10.63-27.92,22-55.57,36.08-81.94
		c9.76-18.27,18.42-37.15,29.65-54.62c1.67,5.73,0.29,11.46,0.13,17.21c-0.45,15.89,1.07,31.75,1.13,47.65
		c0.03,10,1.45,20.04,1.82,30.08c-7.49,5.97-12.84,13.82-18.2,21.53c-8.98,12.89-17.66,25.99-25.98,39.31
		c-7.59,12.16-15.43,24.26-19.88,38.09C532.64,424.65,524.39,426.75,516.03,425.92z"/>
	<path class="st4" d="M540.98,424.92c4.45-13.83,12.29-25.93,19.88-38.09c8.31-13.32,17-26.42,25.98-39.31
		c5.37-7.7,10.71-15.56,18.2-21.53c1.96,3.46,1.37,7.44,1.72,11.08c1.21,12.5,1.77,25.08,2.18,37.65
		c0.35,10.59,1.61,21.06,2.85,31.56c0.44,3.77,0.23,7.64,0.16,11.46c-0.05,2.5-1.49,3.96-4.01,4.26c-5.57,0.67-11.15,1.99-16.7,1.89
		C574.46,423.57,557.75,425.78,540.98,424.92z"/>
	<path class="st4" d="M243.03,169.99c2.66,0.02,5.33,0.04,7.99,0.06c-3.93,5.34-7.37,11.15-11.56,16.13
		c-11.83,14.06-20.84,29.91-29.96,45.61c-7.11,12.24-14.15,24.67-19.51,37.85c-2.71,6.65-8.05,12.45-7.07,20.39
		c-0.81-0.74-0.91-1.72-0.93-2.74c-0.66-28.91-3.04-57.79-1.92-86.73c0.2-5.26,0.75-10.53,2.87-15.54
		c3.81-8.99,11.02-12.69,20.17-14.07c10.94-1.64,21.92-0.65,32.88-0.94C238.34,171.59,240.69,171.68,243.03,169.99z"/>
	<path class="st3" d="M182.92,290.03c-0.98-7.94,4.36-13.74,7.07-20.39c5.36-13.18,12.41-25.61,19.51-37.85
		c9.12-15.7,18.13-31.56,29.96-45.61c4.19-4.98,7.64-10.8,11.56-16.13c8.29,0.02,16.57,0.05,24.85,0.07
		c-5.6,6.11-9.99,13.12-14.77,19.84c-8.55,12.03-16.88,24.23-25.04,36.53c-11.26,16.97-21.48,34.57-31.17,52.5
		c-6.64,12.29-12.64,24.88-18.95,37.32c-1.55,3.05-1.87,6.66-3.84,9.58C181.09,313.91,183.5,302.01,182.92,290.03z"/>
	<path class="st3" d="M243.03,169.99c-2.34,1.69-4.68,1.6-7.03,0.02C238.34,170.01,240.68,170,243.03,169.99z"/>
	<path class="st1" d="M644.8,291.99c4.83-0.03,10.2,5.12,10.08,9.67c-0.12,4.7-4.02,9.16-8.14,9.31
		c-5.12,0.19-10.81-4.88-10.77-9.58C636.01,296.25,639.98,292.02,644.8,291.99z"/>
</g>
</svg>
