<?xml version="1.0" encoding="utf-8"?>
<!-- Generator: Adobe Illustrator 26.0.3, SVG Export Plug-In . SVG Version: 6.00 Build 0)  -->
<svg version="1.1" id="Layer_1" xmlns="http://www.w3.org/2000/svg" xmlns:xlink="http://www.w3.org/1999/xlink" x="0px" y="0px"
	 viewBox="0 0 792 612" style="enable-background:new 0 0 792 612;" xml:space="preserve">
<style type="text/css">
	.st0{fill:#255C7D;}
	.st1{fill:#2D6182;}
	.st2{fill:#4744AD;}
	.st3{fill:#A9CFF0;}
	.st4{fill:#C8E4C4;}
	.st5{fill:#A8CFF0;}
	.st6{fill:#B2B9E1;}
	.st7{fill:#D2E8F7;}
	.st8{fill:#A6CDEE;}
	.st9{fill:#5B80B2;}
	.st10{fill:#235A79;}
	.st11{fill:#262766;}
	.st12{fill:#4745AC;}
	.st13{fill:#A2B4BE;}
	.st14{fill:#CEDFEF;}
</style>
<g>
	<path class="st0" d="M221.95,204.72c0.55-1.79,2.1-1.92,3.59-2.15c3.28,0.29,6.52,0.37,9.33-1.79c0,0.88,0,1.76,0,2.65
		c-1.87,0.5-3.6,1.31-5.62,1.44c-2.13,0.14-4.16,0.92-3.41,3.87c0.43,2.07,1.37,2.56,3,0.99c19.26-0.01,38.52-0.04,57.77-0.01
		c22.41,0.04,44.82,0.15,67.23,0.23c2.54,3.51,6.15,1.02,9.2,1.63c7.76,0.01,15.52,0.13,23.28-0.03c2.88-0.06,5.94,0.98,8.66-0.89
		c0.29-0.65,0.58-1.3,0.87-1.95c0.32-1.28,0.65-2.56,0.96-3.85c1.47-6.17,1.46-6.15-5.04-6.19c-9.97-0.05-19.94-0.13-29.92-0.2
		c-0.53-2.33-2.43-1.75-3.95-1.76c-3.74-0.03-7.49,0.04-11.23,0.08c-8.54,0.01-17.08,0.02-25.61,0.03
		c-2.11,0.42-4.85-1.59-6.22,1.63c-14.28,0.11-28.57,0.21-42.85,0.32c-1.55,0.12-3.5-0.82-4.15,1.61c-5,0.33-10.02-0.97-15,0.25
		c-0.33-0.31-0.66-0.63-0.98-0.94c0-0.33,0-0.67,0-1c7.32-2.2,15-1.36,22.51-2.58c10.87-1.77,22.18-0.84,33.3-1.19
		c29.59-0.92,59.19-0.05,88.78,1.12c1.47,0.06,2.61-0.13,3.39-1.45c0.67-1.3,1.35-2.6,2.02-3.9c3.84-0.93,3.7-3.2,2.02-5.99
		c4.47-15.19,11.03-29.5,18.63-43.34c1.74-3.17,3.26-4.78,8.14-3.26c6.14,1.91,13.19,0.49,19.82,1.29
		c9.09,1.09,18.21,1.85,27.29,2.96c8.35,1.03,10.23,3.93,7.42,12.32c-3.37,10.06-7.2,19.98-10.95,29.91
		c-1.64,4.35-3.33,8.71-5.43,12.84c-1.92,3.78-0.58,4.27,2.98,4.4c9.44,0.33,18.65,2.44,27.64,5.11
		c8.98,2.67,12.32,9.31,10.44,20.19c-4.48,25.87-9.22,51.69-13.88,77.53c-3.92,21.75-7.75,43.52-11.82,65.24
		c-3.42,18.3-7.15,36.54-10.69,54.81c-3.42,17.62-6.81,35.24-10.12,52.88c-0.66,3.52-2.33,5.02-5.98,6.11
		c-6.79,2.04-13.3,4.9-20.36,6.33c-13.28,2.69-26.72,3.66-40.16,4.18c-25.33,0.98-50.64-0.15-75.77-3.31
		c-19.07-2.4-38.18-5.07-56.18-12.6c-9.4-3.93-14.43-10.07-15.63-20.82c-2.87-25.76-7.09-51.38-10.54-77.08
		c-2.46-18.29-4.47-36.64-6.87-54.94c-2.98-22.75-6.51-45.42-9.13-68.21c-1.63-14.18-4.22-28.31-3.86-42.69
		c0.06-2.22,0.15-4.32,2.01-5.87C223.57,208,223.22,206.48,221.95,204.72z M397.86,214.7c0,0,0.01-0.01,0.01-0.01
		c-0.3,0.45-0.6,0.91-0.9,1.36c-0.09,0.88-0.17,1.75-0.26,2.63c-3.13,0.95-1.43,3.46-1.73,5.33c0.07,0.26,0,0.49-0.19,0.67
		c-4.7,2.93-3.96,7.61-3.88,12.08c0,0,0.03-0.02,0.03-0.02c-3.4-0.24-1.04-4.07-3.17-5.1c0.4-3.86,2.38-7.2,3.59-10.79
		c2.08-6.15,2.19-6.1-4.2-6.13c-21.43-0.11-42.87-0.23-64.3-0.35c-0.38-1.78-1.78-1.7-3.12-1.69c-7.15,0.06-14.29,0.12-21.44,0.18
		c-4.12,0.85-8.41-0.66-12.47,0.92c-0.99-0.07-1.99-0.14-2.98-0.21c-3.66-0.05-7.32-0.1-10.98-0.14c-5.35-0.4-10.69-0.22-16.03,0.19
		c-8.99-0.06-17.99-0.03-26.98-0.22c-2.59-0.05-3.74,0.6-3.28,3.36c0.82,4.9,1.53,9.82,2.26,14.74c2.6,17.74,5.18,35.48,7.79,53.22
		c1.37,9.34,2.8,18.68,4.2,28.02c0.03,1.14-0.1,2.33,1.08,3.07c-0.02,1.3-0.04,2.59-0.05,3.89c0.02,1.67,0.04,3.33,0.06,5
		c-0.96,3.33,1.82,5.91,1.87,8.95c0.17,10.63,1.01,21.27,4.23,31.33c2.54,7.93,1.82,16.08,3.33,24.07
		c2.04,10.77,2.48,21.93,4.32,32.87c1.36,8.06,4.68,11.47,12.49,12.99c4.83,0.94,9.69,1.25,14.47,2.13
		c8.44,1.56,16.7,4.24,25.45,3.49c9.8,2.05,19.75,2.09,29.7,2.11c10.16,0.89,20.43-1.31,30.59,1.79c5.35,1.63,11.06-1.68,16.43-1.47
		c15.43,0.6,30.61-2.35,45.96-2.32c0.5,0,1.03,0.03,1.48-0.13c7.27-2.51,14.73-3.69,22.44-4.01c3.52-0.15,8.24-1.52,8.67-5.21
		c0.54-4.58,2.53-8.87,2.43-13.43c-0.14-5.96,2.08-11.53,2.65-17.41c0.34-3.46,0.55-7.51,1.91-10.94
		c3.39-8.55,4.02-17.65,5.31-26.55c0.72-4.99,2.12-9.87,2.84-14.86c0.47-3.23,0.68-6.77,1.63-10.01c1.98-6.71,3.81-13.41,3.76-20.47
		c2.69-3.83,2-8.19,1.94-12.46c1.76-1.78,1.84-4.17,2.29-6.42c2.53-12.84,5.16-25.66,7.54-38.52c2.51-13.52,4.91-27.05,8.69-40.29
		c0.55-1.93,0.85-3.55-2.17-3.51c-14.13,0.14-28.25,0.17-42.38,0.23c-1.29,0.01-2.58,0.02-3.86,0.03c-2.33-4.4-6.81-1.64-10.05-3.01
		c0-0.33,0-0.66,0-0.99c2.29,0,4.58-0.01,6.86,0c7.29,0.02,7.29,0.02,7-7.32c7.14-16.6,12.76-33.81,20.56-50.14
		c2.41-5.04,2.38-4.99-3.35-5.59c-13.55-1.43-27.25-2.06-40.53-5.18c-5.69-1.34-7.7,0.56-10.15,5.18
		c-8.35,15.76-13.76,32.71-20.71,49.03c-2.04,0.4-1.65,1.94-1.56,3.34c-1.06,2.92-2.11,5.84-3.17,8.76
		c-0.01,0.29-0.02,0.58-0.03,0.87c-0.96,0.72-0.91,1.64-0.51,2.63c0,0-0.16-0.2-0.16-0.2C398.7,214.28,398.28,214.49,397.86,214.7z
		 M322.86,451.62c-1.92-1.29-4.01-0.73-6.06-0.56c-2.65-0.15-5.29-0.3-7.94-0.46c-2.29-1.98-5.13-0.98-7.69-1.32
		c-7.57-0.98-15.14-1.92-22.62-3.45c-3.01-0.62-4.96-0.03-3.93,3.85c0.89,3.35,1.99,6.81,1.96,10.21
		c-0.09,11.89,6.19,16.62,17.38,17.52c9.37,0.75,18.52,3.59,28.01,3.68c1.3,0.19,2.6,0.39,3.9,0.58c2.13,1.88,4.61,0.99,7,0.92
		c4.32,0.39,8.64,0.79,12.96,1.18c3.31,1.46,6.71,0.73,10.1,0.42c2.95,0.04,5.9,0.09,8.85,0.13c4.15,0.13,8.3,0.35,12.46,0.38
		c18.97,0.16,37.91,0.01,56.64-3.62c8.45-1.64,8.42-1.6,10.26-9.96c0.54-2.42,1.45-4.76,2.05-7.18c1.04-4.18,2.41-8.29,2.49-12.66
		c0.05-2.68-0.65-3.87-3.84-3.27c-13.74,2.54-27.64,3.96-41.59,4.28c-20.14,0.47-40.29,0.46-60.44,0.66
		C336.15,452.52,329.51,452.07,322.86,451.62z M496.22,211.64c0.02-0.6,0.05-1.2,0.07-1.8c-9.5-1.77-19.05-3.32-28.48-5.42
		c-3.96-0.88-2.78,2.29-3.53,3.67c-1.08,1.99-0.34,3.53,2.31,3.52c6-0.02,12,0.02,17.99,0.02
		C488.47,211.64,492.35,211.64,496.22,211.64z"/>
	<path class="st1" d="M234.87,200.78c-2.81,2.16-6.05,2.08-9.33,1.78c14.24-5.34,29.24-6.87,44.18-7.62
		c27.57-1.39,55.18-1.17,82.78-1.47c15.81-0.18,31.52,1.91,47.32,1.11c-0.78,1.32-1.92,1.51-3.39,1.45
		c-29.58-1.17-59.19-2.05-88.78-1.12c-11.12,0.35-22.43-0.58-33.3,1.19c-7.51,1.23-15.19,0.38-22.51,2.58
		c-3.27,0.2-6.93-0.78-9,3.01c-1.07,1.35-2.61,0.9-3.99,1.02C238.52,200.02,236.49,200.83,234.87,200.78z"/>
	<path class="st1" d="M403.86,184.69c1.68,2.79,1.82,5.06-2.02,5.99C402.15,188.56,402.72,186.53,403.86,184.69z"/>
	<path class="st1" d="M221.95,204.72c1.27,1.77,1.63,3.28-1.08,3.97C220.59,207.19,220.14,205.65,221.95,204.72z"/>
	<path class="st2" d="M482.87,317.63c0.05,7.07-1.78,13.77-3.76,20.48c-0.95,3.23-1.17,6.77-1.63,10.01
		c-0.72,4.99-2.11,9.87-2.84,14.86c-1.29,8.9-1.92,18-5.31,26.55c-1.36,3.43-1.57,7.47-1.91,10.94c-0.58,5.87-2.79,11.45-2.65,17.41
		c0.1,4.56-1.89,8.85-2.43,13.43c-0.43,3.69-5.16,5.07-8.67,5.21c-7.71,0.32-15.17,1.49-22.44,4.01c-0.46,0.16-0.99,0.13-1.48,0.13
		c-15.35-0.03-30.53,2.93-45.96,2.32c-5.36-0.21-11.07,3.11-16.43,1.47c-10.16-3.1-20.43-0.9-30.59-1.79
		c-8.11-14.59-12.37-30.77-18.98-45.98c-6.63-15.26-8.96-31.48-11.01-47.79c0.02-4.06,0.05-8.13,0.07-12.19
		c20.96,1.08,41.93,1.15,62.9,0.95c-0.04,1.66,0.04,3.33-0.14,4.97c-2.66,23.06-2.48,46.11,0.06,69.17
		c0.26,2.34,1.02,3.46,3.45,2.67c14.41-4.69,29.31-7.32,44.12-10.32c3.36-0.68,3.71-2.31,3.6-5.16c-0.87-21.71,1.2-43.14,6.34-64.26
		C447.49,334.72,466.52,330.55,482.87,317.63z M319.42,343.09c0.05,0.52,0.09,1.05,0.14,1.57c2.94,0,5.88,0.02,8.83-0.01
		c0.8-0.01,1.85,0.01,1.91-1.07c0.07-1.2-0.95-1.86-1.94-1.76C325.37,342.13,322.4,342.65,319.42,343.09z M316.16,344
		c-2.34-3.59-2.34-3.59-7.46-2.86C311.4,345.05,311.4,345.05,316.16,344z M364.88,344.55c-0.21-0.32-0.43-1.09-0.86-1.23
		c-0.9-0.29-1.07,0.61-1.02,1.2c0.04,0.55,0.34,1.4,0.73,1.54C364.62,346.37,364.62,345.46,364.88,344.55z"/>
	<path class="st3" d="M285.82,213.79c4.06-1.58,8.36-0.07,12.48-0.92c0.71,1.07,1.78,1.35,2.98,1.37
		c7.19,0.12,14.38,0.75,21.58,0.13c21.43,0.12,42.87,0.24,64.3,0.35c6.39,0.03,6.29-0.01,4.2,6.13c-1.22,3.59-3.19,6.93-3.59,10.79
		c-0.34,0.73-0.8,1.43-1.02,2.2c-4.25,15.31-8.6,30.6-12.61,45.97c-1.33,5.1-2.38,10.35-2.35,15.71c-24.64-0.45-49.31-2.3-73.88,1.2
		c-0.81-8.02-2.97-15.82-3.62-23.9c-0.71-8.84-2.07-17.64-3.49-26.41C289.05,235.55,289.19,224.4,285.82,213.79z"/>
	<path class="st4" d="M394.79,224.69c0.19-0.19,0.26-0.41,0.19-0.68c1.17-1.59,1.33-3.5,1.73-5.33c0.09-0.88,0.17-1.75,0.26-2.63
		c0.3-0.45,0.6-0.9,0.9-1.36c0,0-0.01,0.01-0.01,0.01c0.42-0.21,0.84-0.42,1.26-0.63c0,0,0.16,0.2,0.16,0.19
		c0.47,0.05,0.95,0.11,1.43,0.17c0.72,0.03,1.44,0.05,2.16,0.08c0.66-0.01,1.32-0.01,1.97-0.02c0.68,0,1.35,0,2.03,0
		c0.67,0.02,1.34,0.05,2.01,0.07c0.99,0.02,1.97,0.04,2.96,0.05c6.34,0.01,12.69,0.01,19.03,0.02c2.7,1.15,5.65,0.24,8.35,0.91
		c4.89,1.22,10.21-0.71,14.86,2.1c-9.52,28.45-17.86,57.25-25.05,86.37c-2.41,9.76-2.1,9.87-13.22,8.38
		c-13.05-1.75-26.03-1.8-38.9,1.37c-0.6-0.05-1.19-0.1-1.79-0.15c0.05-0.66,0.09-1.32,0.14-1.98c0.18-0.65,0.36-1.3,0.55-1.95
		c0.42-12.09,2.46-23.93,5.57-35.61c3.3-12.42,7.14-24.7,9.56-37.34c0,0-0.03,0.02-0.03,0.02
		C392.61,232.87,393.98,228.87,394.79,224.69z"/>
	<path class="st5" d="M458.77,216.66c14.13-0.07,28.25-0.09,42.38-0.23c3.02-0.03,2.72,1.58,2.17,3.51
		c-3.78,13.24-6.18,26.77-8.69,40.29c-2.38,12.87-5.01,25.69-7.54,38.52c-0.44,2.25-0.52,4.64-2.29,6.42
		c-1.51-1.33-3.23-2-5.21-2.58c-14-4.1-28.49-2.56-42.71-3.95c0.18-1.13,0.25-2.29,0.55-3.38
		C444.64,269.09,452.69,243.14,458.77,216.66z"/>
	<path class="st2" d="M307.07,440.54c-8.75,0.75-17.01-1.94-25.45-3.49c-4.77-0.88-9.64-1.19-14.47-2.13
		c-7.81-1.52-11.13-4.93-12.49-12.99c-1.84-10.94-2.28-22.1-4.32-32.87c-1.51-8-0.79-16.15-3.33-24.07
		c-3.23-10.06-4.07-20.7-4.23-31.33c-0.05-3.05-2.83-5.63-1.87-8.95c7.89,2.68,15.74,5.51,24.09,6.53c1.79,0.22,3.53,1,5.04-0.63
		c0.3,0.69,0.6,1.38,0.89,2.08C277.02,370.63,287.32,407.17,307.07,440.54z"/>
	<path class="st4" d="M404.55,198.67c6.95-16.32,12.36-33.27,20.71-49.03c2.45-4.62,4.45-6.52,10.15-5.18
		c13.28,3.12,26.97,3.75,40.53,5.18c5.73,0.6,5.76,0.55,3.35,5.59c-7.8,16.33-13.42,33.54-20.56,50.14
		c-0.66,6.28-4.39,7.26-9.95,6.39c-3.87-0.61-7.93-0.05-11.9-0.02c-11.98-0.04-23.96-0.07-35.94-0.11
		c-0.37-0.29-0.74-0.58-1.11-0.87c1.06-2.92,2.11-5.84,3.17-8.76C403.51,200.89,404.03,199.78,404.55,198.67z"/>
	<path class="st6" d="M307.07,440.54c-19.75-33.37-30.04-69.92-36.14-107.86c1.82,0.1,3.65,0.15,5.46,0.31
		c9.21,0.8,18.33,2.64,27.62,2.6c0.22,0.1,0.44,0.22,0.65,0.35c0.25,2.26,0.5,4.52,0.75,6.78c0.11,0.33,0.23,0.67,0.34,1
		c0.24,1.74-0.18,3.62,1.04,5.16c2.05,16.3,4.38,32.52,11.01,47.78c6.6,15.21,10.87,31.39,18.98,45.98
		C326.82,442.63,316.87,442.6,307.07,440.54z"/>
	<path class="st7" d="M285.82,213.79c3.37,10.61,3.22,21.76,4.98,32.62c1.42,8.76,2.77,17.57,3.49,26.41
		c0.65,8.08,2.81,15.88,3.62,23.9c0,0,0.05,0.06,0.05,0.06c-2.61,0.31-5.25,0.5-7.84,0.94c-8.59,1.46-17.28,2.46-25.59,5.27
		c-0.28-0.04-0.51-0.17-0.69-0.38c-1.2-11.34-3.72-22.47-5.46-33.72c-2.59-16.79-3.97-33.52-3.59-50.46c0.04-1.7,0.19-3.31,1.04-4.8
		c5.34-0.42,10.68-0.59,16.03-0.19c3.63,2.07,7.29,1.86,10.98,0.14C283.84,213.65,284.83,213.72,285.82,213.79z"/>
	<path class="st8" d="M342.8,452.97c20.15-0.2,40.3-0.19,60.44-0.66c13.95-0.33,27.85-1.74,41.59-4.28c3.2-0.59,3.89,0.6,3.84,3.27
		c-0.08,4.37-1.44,8.49-2.49,12.66c-0.6,2.41-1.52,4.75-2.05,7.18c-1.85,8.35-1.82,8.32-10.26,9.96
		c-18.73,3.63-37.68,3.78-56.64,3.62c-4.15-0.03-8.3-0.25-12.46-0.38c-0.54-2.34-2.1-4.05-3.55-5.82
		C354.55,470.37,348.65,461.69,342.8,452.97z"/>
	<path class="st5" d="M255.84,213.63c-0.86,1.49-1,3.1-1.04,4.8c-0.38,16.94,1,33.67,3.59,50.46c1.73,11.25,4.26,22.39,5.46,33.72
		c-9.21,0.53-16.95,4.52-24.01,10.14c-1.4-9.34-2.83-18.68-4.2-28.02c-2.61-17.74-5.19-35.48-7.79-53.22
		c-0.72-4.92-1.44-9.84-2.26-14.74c-0.46-2.75,0.69-3.41,3.28-3.36C237.85,213.6,246.85,213.57,255.84,213.63z"/>
	<path class="st9" d="M238.86,202.71c1.39-0.12,2.92,0.33,3.99-1.02c2.65-0.06,5.31-0.12,7.96-0.18c0.86,0.13,1.58-0.05,2.01-0.89
		c4.98-1.22,10.01,0.08,15-0.25c1.68,0.23,3.49,0.77,4.15-1.62c14.28-0.11,28.57-0.21,42.85-0.32c2.18-0.16,4.8,1.4,6.22-1.63
		c8.54-0.01,17.08-0.02,25.62-0.03c0.51,1.86,2,1.85,3.5,1.82c3.89-0.05,7.79-0.09,11.68-0.14c9.97,0.07,19.94,0.15,29.92,0.2
		c6.5,0.03,6.5,0.02,5.04,6.19c-0.31,1.29-0.64,2.56-0.96,3.85c-0.71,0.46-0.93,1.14-0.87,1.95c-2.72,1.87-5.78,0.83-8.66,0.89
		c-7.76,0.16-15.52,0.04-23.28,0.03c-2.55-3.48-6.11-1.23-9.2-1.63c-22.41-0.08-44.82-0.19-67.23-0.23
		c-19.26-0.04-38.52,0-57.77,0.01c-0.74-1.11-1.9-0.97-3-0.99c-0.76-2.94,1.28-3.73,3.41-3.87c2.02-0.13,3.76-0.95,5.62-1.44
		C236.2,203.19,237.53,202.95,238.86,202.71z"/>
	<path class="st10" d="M458.77,216.66c-6.08,26.48-14.13,52.42-21.33,78.6c-0.3,1.1-0.37,2.25-0.55,3.38
		c-1.28,0.58-2.01,1.53-2.02,2.97c-0.02,1.01-0.03,2.02-0.05,3.02c-2.96,3.07-2.49,6.1,0.11,9.1c-1.32,2.54-2.34,5.45-6.11,5.03
		c-12.72-0.6-25.34-2.43-38.14-2.28c-5.99,0.07-11.81,1.72-17.8,1.21c-1.55-2.04-4.32-0.11-5.96-1.84c4.63,0.3,3.72-3.01,3.74-5.72
		c-0.66-3.77,2.98-6.66,2.14-10.46c-0.34-1.38-0.68-2.76-1.01-4.14c-0.04-5.36,1.01-10.6,2.35-15.71
		c4.01-15.37,8.37-30.66,12.61-45.97c0.21-0.77,0.67-1.47,1.02-2.2c2.13,1.03-0.23,4.86,3.17,5.1c-2.43,12.64-6.26,24.92-9.56,37.34
		c-3.11,11.68-5.15,23.52-5.57,35.61c-0.54,0.55-0.86,1.16-0.55,1.95c-0.05,0.66-0.09,1.32-0.14,1.98c0.46,1.75,1.15,0.63,1.79,0.15
		c12.87-3.17,25.85-3.12,38.9-1.37c11.12,1.49,10.81,1.38,13.22-8.38c7.19-29.12,15.53-57.92,25.05-86.37
		c0.27-0.32,0.55-0.64,0.82-0.96C456.19,216.68,457.48,216.67,458.77,216.66z"/>
	<path class="st7" d="M342.8,452.97c5.84,8.73,11.75,17.41,18.41,25.54c1.45,1.77,3.02,3.49,3.55,5.82
		c-2.95-0.04-5.9-0.09-8.85-0.13c-3.26-2.68-6.66-1.93-10.1-0.42c-4.32-0.39-8.64-0.79-12.96-1.18c-1.96-3.17-4.45-2.22-7-0.92
		c-1.3-0.19-2.6-0.39-3.9-0.58c-2.09-3.7-4.23-7.35-6.66-10.89c-3.25-4.73-5.61-10.06-8.51-15.04c-1.58-2.71-0.34-3.82,2.06-4.57
		c2.65,0.15,5.29,0.3,7.94,0.46c1.79,2.71,3.9,1.93,6.06,0.56C329.51,452.07,336.15,452.52,342.8,452.97z"/>
	<path class="st8" d="M308.86,450.6c-2.4,0.75-3.64,1.86-2.06,4.57c2.9,4.98,5.26,10.31,8.51,15.04c2.42,3.53,4.56,7.18,6.66,10.89
		c-9.49-0.08-18.64-2.92-28.01-3.68c-11.19-0.9-17.47-5.64-17.38-17.52c0.02-3.4-1.07-6.86-1.96-10.21
		c-1.03-3.88,0.92-4.47,3.93-3.85c7.49,1.53,15.05,2.46,22.62,3.45C303.73,449.62,306.57,448.63,308.86,450.6z"/>
	<path class="st11" d="M434.87,301.62c0.01-1.44,0.74-2.39,2.02-2.97c14.22,1.39,28.71-0.15,42.71,3.95
		c1.97,0.58,3.7,1.25,5.21,2.58c0.06,4.26,0.75,8.62-1.93,12.46c-16.35,12.92-35.38,17.09-55.69,17.09
		c0.26-1.37,0.52-2.74,0.78-4.11c1.94,0.01,4.02,0.47,5.8-0.07c3.04-0.93,6.81,0.57,9.17-2.64c1.62-0.07,3.24-0.15,4.86-0.22
		c1.12,0.2,2.22,0.26,3.1-0.67c1.31-0.39,2.63-0.79,3.94-1.18c0.75,0.89,1.81,0.98,2.74,0.66c8.09-2.72,15.18-7.31,22.03-12.25
		c1.56-1.13,2.22-3.33,1.74-5.39c-0.47-2.04-2.19-2.23-3.95-2.17c-1.21,0.04-2.3-0.22-3.08-1.27c-1.79-2.43-4.47-2.6-7.13-2.69
		C456.41,302.33,445.64,301.98,434.87,301.62z"/>
	<path class="st12" d="M240.85,319.71c0.02-1.3,0.04-2.59,0.05-3.89c7.33-4.51,14.21-10.18,23.68-9.2c0.25,0.38,0.5,0.77,0.75,1.15
		c0.13,0.32,0.27,0.64,0.4,0.97c0.98,4.36,1.97,8.73,2.95,13.09c0.42,1.97,0.84,3.93,1.26,5.9c-0.19-0.03-0.38-0.04-0.57-0.06
		C259.46,326.48,249.58,325.16,240.85,319.71z"/>
	<path class="st9" d="M496.22,211.64c-3.88,0-7.76,0-11.63,0c-6-0.01-12-0.04-17.99-0.02c-2.65,0.01-3.4-1.53-2.31-3.52
		c0.75-1.38-0.43-4.55,3.53-3.67c9.43,2.1,18.98,3.65,28.48,5.42C496.27,210.44,496.25,211.04,496.22,211.64z"/>
	<path class="st11" d="M240.85,319.71c8.72,5.46,18.6,6.77,28.52,7.96c0.22,0.98,0.44,1.96,0.66,2.94
		c-1.51,1.63-3.25,0.85-5.04,0.63c-8.35-1.03-16.2-3.85-24.09-6.53C240.89,323.04,240.87,321.37,240.85,319.71z"/>
	<path class="st10" d="M400.93,211.64c11.98,0.04,23.96,0.07,35.94,0.11c2.48,1.89,5.34,0.52,7.99,0.95c0,0.33,0,0.66,0,0.99
		c-4.65,0.47-9.44-1.05-13.98,0.95c-6.34-0.01-12.69-0.01-19.03-0.02c-0.97-1.21-1.95-1.21-2.96-0.05
		c-0.67-0.02-1.34-0.05-2.01-0.07c-0.1-0.64-0.21-1.38-1.01-1.38c-0.8,0-0.91,0.74-1.01,1.38c-0.66,0.01-1.32,0.01-1.97,0.02
		c-0.34-0.48-0.68-0.97-1.02-1.45c-0.38,0.46-0.75,0.91-1.13,1.37c-0.48-0.06-0.95-0.12-1.43-0.17c-0.39-0.98-0.44-1.9,0.52-2.63
		C400.18,211.64,400.56,211.64,400.93,211.64z"/>
	<path class="st11" d="M264.58,306.62c-9.46-0.98-16.34,4.69-23.68,9.2c-1.18-0.73-1.04-1.93-1.08-3.06
		c7.06-5.62,14.81-9.61,24.01-10.14c0.18,0.22,0.41,0.34,0.69,0.38c0.12,0.89,0.24,1.77,0.37,2.66
		C264.79,305.98,264.69,306.3,264.58,306.62z"/>
	<path class="st1" d="M430.87,214.64c4.55-2,9.33-0.48,13.98-0.95c3.24,1.36,7.72-1.4,10.05,3.01c-0.27,0.32-0.55,0.64-0.82,0.96
		c-4.65-2.81-9.96-0.89-14.86-2.1C436.51,214.88,433.57,215.79,430.87,214.64z"/>
	<path class="st1" d="M322.86,214.38c-7.2,0.61-14.39-0.01-21.58-0.13c-1.2-0.02-2.27-0.31-2.98-1.37
		c7.14-0.06,14.29-0.12,21.43-0.18C321.08,212.68,322.48,212.6,322.86,214.38z"/>
	<path class="st1" d="M361.86,198.47c-3.89,0.05-7.79,0.08-11.68,0.14c-1.5,0.02-2.99,0.04-3.5-1.82c3.74-0.03,7.49-0.11,11.23-0.08
		C359.43,196.72,361.33,196.14,361.86,198.47z"/>
	<path class="st1" d="M444.86,212.7c-2.65-0.42-5.51,0.94-7.99-0.95c3.97-0.04,8.03-0.59,11.9,0.02c5.56,0.87,9.28-0.11,9.95-6.39
		c0.29,7.34,0.29,7.34-7,7.32C449.43,212.69,447.15,212.7,444.86,212.7z"/>
	<path class="st10" d="M250.82,201.51c-2.65,0.06-5.31,0.12-7.96,0.18c2.07-3.79,5.73-2.81,9-3.01c0,0.33,0,0.67,0,1
		C251.1,200.06,250.87,200.74,250.82,201.51z"/>
	<path class="st8" d="M345.82,483.78c3.43-1.52,6.84-2.27,10.1,0.42C352.53,484.51,349.13,485.24,345.82,483.78z"/>
	<path class="st10" d="M394.79,224.69c-0.81,4.18-2.18,8.18-3.89,12.08C390.84,232.3,390.09,227.61,394.79,224.69z"/>
	<path class="st1" d="M353.84,209.94c3.09,0.4,6.65-1.85,9.2,1.63C359.99,210.96,356.38,213.45,353.84,209.94z"/>
	<path class="st8" d="M325.86,481.68c2.54-1.3,5.04-2.25,7,0.92C330.48,482.67,327.99,483.56,325.86,481.68z"/>
	<path class="st1" d="M321.06,196.81c-1.42,3.03-4.05,1.47-6.22,1.63C316.21,195.22,318.96,197.23,321.06,196.81z"/>
	<path class="st8" d="M322.86,451.62c-2.16,1.37-4.27,2.16-6.06-0.56C318.85,450.89,320.94,450.33,322.86,451.62z"/>
	<path class="st3" d="M282.84,213.58c-3.68,1.72-7.34,1.93-10.98-0.14C275.52,213.48,279.18,213.53,282.84,213.58z"/>
	<path class="st10" d="M238.86,202.71c-1.33,0.24-2.66,0.48-4,0.72c0-0.88,0-1.77,0-2.65C236.49,200.83,238.52,200.02,238.86,202.71
		z"/>
	<path class="st1" d="M271.98,198.76c-0.66,2.39-2.47,1.85-4.15,1.62C268.48,197.94,270.44,198.87,271.98,198.76z"/>
	<path class="st1" d="M396.71,218.68c-0.4,1.83-0.56,3.75-1.73,5.33C395.28,222.14,393.58,219.63,396.71,218.68z"/>
	<path class="st1" d="M225.84,208.73c1.1,0.02,2.26-0.13,3,0.99C227.21,211.29,226.27,210.8,225.84,208.73z"/>
	<path class="st1" d="M250.82,201.51c0.05-0.77,0.28-1.45,1.03-1.83c0.33,0.31,0.66,0.63,0.98,0.94
		C252.4,201.46,251.68,201.64,250.82,201.51z"/>
	<path class="st1" d="M404.55,198.67c-0.52,1.11-1.04,2.22-1.56,3.34C402.9,200.61,402.51,199.07,404.55,198.67z"/>
	<path class="st1" d="M394.99,210.65c-0.06-0.81,0.16-1.49,0.87-1.95C395.57,209.35,395.28,210,394.99,210.65z"/>
	<path class="st1" d="M397.87,214.69c-0.3,0.45-0.6,0.9-0.9,1.36C397.27,215.6,397.57,215.14,397.87,214.69z"/>
	<path class="st1" d="M399.12,214.07c-0.42,0.21-0.84,0.42-1.26,0.63C398.28,214.49,398.7,214.28,399.12,214.07z"/>
	<path class="st1" d="M400.93,211.64c-0.38,0-0.76,0-1.14-0.01c0.01-0.29,0.02-0.58,0.02-0.87
		C400.19,211.06,400.56,211.35,400.93,211.64z"/>
	<path class="st13" d="M427.96,330.61c-0.26,1.37-0.52,2.74-0.78,4.11c-5.14,21.12-7.22,42.55-6.34,64.26
		c0.11,2.85-0.24,4.48-3.6,5.16c-14.81,2.99-29.71,5.63-44.12,10.32c-2.43,0.79-3.19-0.33-3.45-2.67
		c-2.54-23.06-2.72-46.11-0.06-69.17c0.19-1.64,0.1-3.31,0.14-4.97c0.2-0.9,0.39-1.81,0.59-2.71c0.5-3.08,1.01-6.17,1.51-9.25
		c0.34-0.07,0.68-0.13,1.02-0.2c6.08,0.68,12.16,1.45,18.25,2.02c6.79,0.64,13.27-0.3,20.36-4.51c-13.59-4.25-26.28-0.41-38.63-2.18
		c-0.36-0.05-0.72-0.11-1.08-0.16c0.37-0.99,0.73-1.98,1.1-2.96c5.99,0.51,11.81-1.14,17.8-1.21c12.79-0.15,25.42,1.68,38.14,2.28
		C429.55,322.79,427.95,326.64,427.96,330.61z"/>
	<path class="st11" d="M370.34,334.94c-0.2,0.9-0.39,1.81-0.59,2.71c-20.98,0.19-41.95,0.13-62.9-0.95
		c-0.53-0.85-1.32-0.92-2.19-0.75c-0.21-0.13-0.42-0.25-0.65-0.35c0-0.96,0-1.93,0-2.89c6.82-0.27,13.61,0.66,20.39,0.77
		c14.47,0.25,28.97,0.79,43.43-0.35C369.47,333,369.81,333.92,370.34,334.94z"/>
	<path class="st12" d="M319.42,343.09c2.98-0.44,5.95-0.97,8.94-1.27c0.99-0.1,2.01,0.55,1.94,1.76c-0.06,1.08-1.11,1.07-1.91,1.07
		c-2.94,0.03-5.88,0.01-8.83,0.01C319.52,344.14,319.47,343.62,319.42,343.09z"/>
	<path class="st12" d="M316.16,344c-4.76,1.05-4.76,1.05-7.46-2.86C313.82,340.41,313.82,340.41,316.16,344z"/>
	<path class="st12" d="M304.66,335.94c0.87-0.17,1.67-0.1,2.19,0.75c-0.02,4.06-0.05,8.12-0.07,12.19c-1.22-1.54-0.8-3.42-1.04-5.16
		c-0.11-0.33-0.23-0.67-0.34-1C305.15,340.47,304.9,338.2,304.66,335.94z"/>
	<path class="st12" d="M364.88,344.55c-0.26,0.9-0.26,1.82-1.16,1.51c-0.39-0.14-0.69-0.99-0.73-1.54c-0.05-0.59,0.13-1.49,1.02-1.2
		C364.44,343.46,364.67,344.24,364.88,344.55z"/>
	<path class="st11" d="M371.79,295.52c0.34,1.38,0.68,2.76,1.01,4.14c-10.49-2.1-21.19-1.17-31.75-1.61
		c-14.03-0.58-28.14,1.03-42.22,1.7c-0.29-0.99-0.58-1.98-0.87-2.97c0,0-0.05-0.06-0.05-0.06
		C322.48,293.22,347.15,295.07,371.79,295.52z"/>
	<path class="st1" d="M404.84,214.49c0.1-0.64,0.21-1.38,1.01-1.38c0.8,0,0.91,0.74,1.01,1.38
		C406.19,214.49,405.51,214.49,404.84,214.49z"/>
	<path class="st1" d="M400.71,214.43c0.38-0.46,0.75-0.91,1.13-1.37c0.34,0.48,0.68,0.97,1.02,1.45
		C402.14,214.49,401.43,214.46,400.71,214.43z"/>
	<path class="st1" d="M408.88,214.57c1.01-1.16,2-1.15,2.96,0.05C410.85,214.6,409.86,214.59,408.88,214.57z"/>
	<path class="st13" d="M375.26,311.65c-0.32-0.79,0.01-1.4,0.55-1.95C375.62,310.35,375.44,311,375.26,311.65z"/>
	<path class="st13" d="M376.91,313.77c-0.64,0.48-1.33,1.6-1.79-0.15C375.72,313.68,376.31,313.73,376.91,313.77z"/>
	<path class="st13" d="M304.01,332.71c0,0.96,0,1.93,0,2.89c-9.29,0.03-18.41-1.8-27.62-2.6c-1.82-0.16-3.64-0.21-5.46-0.31
		c-0.3-0.69-0.6-1.38-0.89-2.08c-0.22-0.98-0.44-1.96-0.66-2.94c0.19,0.01,0.38,0.03,0.57,0.06c0.61,0.27,1.19,0.64,1.83,0.78
		c9.08,2.01,18.43,1.67,27.58,3.16c3.07,0.5,3.75-1.28,3.52-3.85c0.4,0.03,0.79,0.07,1.19,0.1
		C303.58,329.51,303.69,331.11,304.01,332.71z"/>
	<path class="st9" d="M305.4,342.73c0.11,0.33,0.23,0.67,0.34,1C305.63,343.39,305.52,343.06,305.4,342.73z"/>
	<path class="st13" d="M297.96,296.78c0.29,0.99,0.58,1.98,0.87,2.97c-0.09,0.33-0.18,0.66-0.27,1
		c-11.62-1.09-22.41,3.48-33.66,4.91c-0.12-0.89-0.24-1.77-0.37-2.66c8.31-2.81,17-3.81,25.59-5.27
		C292.71,297.28,295.35,297.09,297.96,296.78z"/>
	<path class="st12" d="M298.56,300.75c0.09-0.33,0.18-0.66,0.27-1c14.08-0.67,28.19-2.28,42.22-1.7c10.56,0.44,21.26-0.5,31.75,1.61
		c0.84,3.81-2.8,6.7-2.14,10.46c-1.16,0.13-2.34,0.16-3.47,0.41c-2.37,0.52-6.47-1.45-6.68,2.13c-0.19,3.23,4.15,2.18,6.41,3.18
		c1.64,1.73,4.41-0.19,5.96,1.84c-0.37,0.99-0.73,1.98-1.1,2.96c-5.23,0.94-10.45,1.89-16.51,2.98c4.16,3.14,7.78,1.83,11.27,1.65
		c1.51,0.06,3.02,0.13,4.54,0.19c0.28,0,0.54,0.06,0.78,0.2c-0.5,3.08-1.01,6.17-1.51,9.25c-0.53-1.01-0.87-1.94-2.5-1.81
		c-14.46,1.15-28.96,0.6-43.43,0.35c-6.78-0.12-13.57-1.04-20.39-0.77c-0.33-1.6-0.43-3.2,0.05-4.79c2.14-0.31,5.36,0.72,5.65-2.43
		c0.3-3.29-3.04-3.2-5.32-3.79c-0.47-0.12-0.98-0.05-1.48-0.07c-0.91-2.37-2.67-4.72-0.06-7.12c9.99,0.59,19.86-0.92,29.78-1.68
		c1.58-0.12,3.17-0.45,3.09-2.43c-0.07-1.73-1.71-1.75-2.97-2.07c-2.62-0.67-5.25-0.46-7.91-0.23c-8.28,0.71-16.56,1-24.85,0.07
		C299.51,305.7,299.04,303.22,298.56,300.75z M331.64,323.21c0.02-0.32,0.03-0.64,0.05-0.96c-1.48-0.48-2.93-1.05-4.44-1.42
		c-1.32-0.33-2.63-0.11-3.52,1.05c-0.22,0.29-0.28,0.98-0.09,1.26c0.81,1.2,1.99,1.55,3.4,1.19
		C328.57,323.94,330.11,323.58,331.64,323.21z"/>
	<path class="st12" d="M427.96,330.61c-0.01-3.97,1.59-7.83,0.86-11.85c3.77,0.43,4.79-2.48,6.11-5.03
		c8.38-1.73,17.51,4.4,26.75-2.9c-10.22-0.37-17.94-5.59-26.86-6.19c0.02-1.01,0.03-2.02,0.05-3.02c10.77,0.36,21.54,0.71,32.31,1.1
		c2.66,0.1,5.34,0.26,7.13,2.69c0.78,1.06,1.87,1.31,3.08,1.27c1.76-0.06,3.48,0.13,3.95,2.17c0.48,2.07-0.17,4.27-1.74,5.39
		c-6.85,4.94-13.94,9.53-22.03,12.25c-0.94,0.32-1.99,0.23-2.74-0.66c1.51-1.64,3.5-3.57-0.63-4.09
		c-6.13-0.78-12.23,0.19-18.29,1.09c-1,0.15-1.84,0.77-1.97,1.93c-0.19,1.61,0.95,1.92,2.15,2.11c2.28,0.36,4.56,0.69,6.84,1.04
		c-2.36,3.21-6.13,1.71-9.17,2.64C431.98,331.09,429.9,330.62,427.96,330.61z"/>
	<path class="st14" d="M434.82,304.64c8.92,0.61,16.64,5.82,26.86,6.19c-9.25,7.3-18.38,1.17-26.75,2.9
		C432.33,310.74,431.86,307.71,434.82,304.64z"/>
	<path class="st14" d="M366.92,315.85c-2.26-1-6.6,0.06-6.41-3.18c0.21-3.59,4.31-1.61,6.68-2.13c1.13-0.25,2.31-0.28,3.47-0.41
		C370.64,312.83,371.55,316.15,366.92,315.85z"/>
	<path class="st14" d="M442.93,327.9c-2.28-0.34-4.56-0.68-6.84-1.04c-1.2-0.19-2.34-0.5-2.15-2.11c0.13-1.16,0.98-1.79,1.97-1.93
		c6.06-0.9,12.16-1.87,18.29-1.09c4.13,0.53,2.14,2.45,0.63,4.09c-1.31,0.39-2.63,0.79-3.94,1.18c-1.13-0.24-2.23-0.32-3.1,0.67
		C446.17,327.75,444.55,327.83,442.93,327.9z"/>
	<path class="st12" d="M447.79,327.68c0.87-0.99,1.97-0.91,3.1-0.67C450,327.94,448.91,327.88,447.79,327.68z"/>
	<path class="st6" d="M298.56,300.75c0.47,2.47,0.95,4.95,1.42,7.42c0.01,0.2-0.03,0.4-0.12,0.58c-8.36-0.66-16.2,1.67-24.09,3.96
		c-4.61,1.34-6.98,3.96-6.7,8.8l-0.39,0.31c-0.98-4.36-1.97-8.73-2.95-13.09c-0.13-0.32-0.27-0.64-0.4-0.97
		c-0.25-0.38-0.5-0.77-0.75-1.15c0.1-0.32,0.21-0.64,0.32-0.96C276.15,304.22,286.94,299.66,298.56,300.75z"/>
	<path class="st6" d="M302.87,327.82c0.23,2.57-0.45,4.35-3.52,3.85c-9.14-1.49-18.5-1.15-27.58-3.16
		c-0.64-0.14-1.22-0.52-1.83-0.78c-0.42-1.97-0.84-3.93-1.26-5.9c0,0,0.39-0.3,0.39-0.3c1.87,1.91,3.74,3.91,6.6,4.13
		c9.06,0.7,18.12,1.32,27.19,1.96L302.87,327.82z"/>
	<path class="st13" d="M265.33,307.77c0.13,0.32,0.27,0.65,0.4,0.97C265.6,308.41,265.46,308.09,265.33,307.77z"/>
	<path class="st4" d="M372.85,320.81c12.35,1.77,25.04-2.07,38.63,2.18c-7.08,4.22-13.56,5.15-20.36,4.51
		c-6.09-0.57-12.17-1.34-18.25-2.02C372.87,323.93,372.86,322.37,372.85,320.81z"/>
	<path class="st14" d="M372.85,320.81c0.01,1.56,0.01,3.12,0.02,4.68c-0.34,0.06-0.68,0.13-1.02,0.19c-0.24-0.14-0.5-0.21-0.78-0.2
		c-1.47-1-2.98-1.03-4.54-0.2c-3.5,0.18-7.12,1.48-11.27-1.65c6.06-1.1,11.29-2.04,16.51-2.98
		C372.14,320.71,372.49,320.76,372.85,320.81z"/>
	<path class="st14" d="M302.91,321.64c0.49,0.02,1.01-0.05,1.48,0.07c2.29,0.59,5.62,0.49,5.32,3.79c-0.29,3.15-3.51,2.12-5.65,2.43
		c-0.4-0.03-0.79-0.07-1.19-0.1c0,0-0.01-0.2-0.01-0.2c0.32-2.07-0.63-3.91-1.03-5.85C302.19,321.72,302.55,321.68,302.91,321.64z"
		/>
	<path class="st14" d="M299.98,308.17c8.29,0.93,16.57,0.64,24.85-0.07c2.66-0.23,5.29-0.44,7.91,0.23c1.26,0.32,2.9,0.34,2.97,2.07
		c0.08,1.98-1.51,2.31-3.09,2.43c-9.91,0.76-19.79,2.27-29.78,1.68c-0.66-0.27-1.33-0.53-1.99-0.8c-0.33-1.65-0.67-3.31-1-4.96
		C299.95,308.57,299.99,308.38,299.98,308.17z"/>
	<path class="st6" d="M300.86,313.71c0.66,0.27,1.33,0.53,1.99,0.8c-2.61,2.4-0.85,4.76,0.06,7.12c-0.36,0.04-0.72,0.09-1.08,0.13
		c-4.03-1.28-8.18-1.12-12.32-1.1c-3.99,0.02-7.98,0-11.96-0.04c-1.32-0.01-2.96,0-3.18-1.65c-0.21-1.63,1.61-1.42,2.55-1.76
		C284.65,314.4,292.84,314.58,300.86,313.71z"/>
	<path class="st14" d="M331.64,323.21c-1.53,0.37-3.07,0.73-4.59,1.13c-1.41,0.37-2.6,0.02-3.4-1.19c-0.19-0.29-0.13-0.97,0.09-1.26
		c0.89-1.16,2.2-1.38,3.52-1.05c1.5,0.37,2.96,0.94,4.44,1.42C331.67,322.57,331.65,322.89,331.64,323.21z"/>
	<path class="st9" d="M366.54,325.29c1.55-0.84,3.06-0.81,4.54,0.2C369.56,325.42,368.05,325.35,366.54,325.29z"/>
	<path class="st7" d="M300.86,313.71c-8.02,0.87-16.21,0.69-23.93,3.5c-0.94,0.34-2.76,0.12-2.55,1.76
		c0.21,1.65,1.85,1.64,3.18,1.65c3.99,0.04,7.97,0.06,11.96,0.04c4.14-0.02,8.3-0.17,12.32,1.1c0.4,1.94,1.35,3.78,1.03,5.85
		c-9.06-0.65-18.13-1.26-27.19-1.96c-2.86-0.22-4.73-2.22-6.6-4.13c-0.28-4.85,2.09-7.47,6.7-8.81c7.89-2.29,15.73-4.62,24.09-3.96
		C300.19,310.41,300.53,312.06,300.86,313.71z"/>
</g>
</svg>
